%TF.GenerationSoftware,KiCad,Pcbnew,(5.0.1)-3*%
%TF.CreationDate,2020-04-22T20:20:14+01:00*%
%TF.ProjectId,rear,726561722E6B696361645F7063620000,rev?*%
%TF.SameCoordinates,Original*%
%TF.FileFunction,Legend,Bot*%
%TF.FilePolarity,Positive*%
%FSLAX46Y46*%
G04 Gerber Fmt 4.6, Leading zero omitted, Abs format (unit mm)*
G04 Created by KiCad (PCBNEW (5.0.1)-3) date 22/04/2020 20:20:14*
%MOMM*%
%LPD*%
G01*
G04 APERTURE LIST*
%ADD10C,0.200000*%
G04 APERTURE END LIST*
D10*
X61672380Y-82840000D02*
X60672380Y-82840000D01*
X60672380Y-83220952D01*
X60720000Y-83316190D01*
X60767619Y-83363809D01*
X60862857Y-83411428D01*
X61005714Y-83411428D01*
X61100952Y-83363809D01*
X61148571Y-83316190D01*
X61196190Y-83220952D01*
X61196190Y-82840000D01*
X61672380Y-83840000D02*
X61005714Y-83840000D01*
X61196190Y-83840000D02*
X61100952Y-83887619D01*
X61053333Y-83935238D01*
X61005714Y-84030476D01*
X61005714Y-84125714D01*
X61624761Y-84840000D02*
X61672380Y-84744761D01*
X61672380Y-84554285D01*
X61624761Y-84459047D01*
X61529523Y-84411428D01*
X61148571Y-84411428D01*
X61053333Y-84459047D01*
X61005714Y-84554285D01*
X61005714Y-84744761D01*
X61053333Y-84840000D01*
X61148571Y-84887619D01*
X61243809Y-84887619D01*
X61339047Y-84411428D01*
X61624761Y-85744761D02*
X61672380Y-85649523D01*
X61672380Y-85459047D01*
X61624761Y-85363809D01*
X61577142Y-85316190D01*
X61481904Y-85268571D01*
X61196190Y-85268571D01*
X61100952Y-85316190D01*
X61053333Y-85363809D01*
X61005714Y-85459047D01*
X61005714Y-85649523D01*
X61053333Y-85744761D01*
X61672380Y-86173333D02*
X61005714Y-86173333D01*
X60672380Y-86173333D02*
X60720000Y-86125714D01*
X60767619Y-86173333D01*
X60720000Y-86220952D01*
X60672380Y-86173333D01*
X60767619Y-86173333D01*
X61624761Y-86601904D02*
X61672380Y-86697142D01*
X61672380Y-86887619D01*
X61624761Y-86982857D01*
X61529523Y-87030476D01*
X61481904Y-87030476D01*
X61386666Y-86982857D01*
X61339047Y-86887619D01*
X61339047Y-86744761D01*
X61291428Y-86649523D01*
X61196190Y-86601904D01*
X61148571Y-86601904D01*
X61053333Y-86649523D01*
X61005714Y-86744761D01*
X61005714Y-86887619D01*
X61053333Y-86982857D01*
X61672380Y-87459047D02*
X61005714Y-87459047D01*
X60672380Y-87459047D02*
X60720000Y-87411428D01*
X60767619Y-87459047D01*
X60720000Y-87506666D01*
X60672380Y-87459047D01*
X60767619Y-87459047D01*
X61672380Y-88078095D02*
X61624761Y-87982857D01*
X61577142Y-87935238D01*
X61481904Y-87887619D01*
X61196190Y-87887619D01*
X61100952Y-87935238D01*
X61053333Y-87982857D01*
X61005714Y-88078095D01*
X61005714Y-88220952D01*
X61053333Y-88316190D01*
X61100952Y-88363809D01*
X61196190Y-88411428D01*
X61481904Y-88411428D01*
X61577142Y-88363809D01*
X61624761Y-88316190D01*
X61672380Y-88220952D01*
X61672380Y-88078095D01*
X61005714Y-88840000D02*
X61672380Y-88840000D01*
X61100952Y-88840000D02*
X61053333Y-88887619D01*
X61005714Y-88982857D01*
X61005714Y-89125714D01*
X61053333Y-89220952D01*
X61148571Y-89268571D01*
X61672380Y-89268571D01*
X61672380Y-90506666D02*
X60672380Y-90506666D01*
X61386666Y-90840000D01*
X60672380Y-91173333D01*
X61672380Y-91173333D01*
X61005714Y-92078095D02*
X61672380Y-92078095D01*
X61005714Y-91649523D02*
X61529523Y-91649523D01*
X61624761Y-91697142D01*
X61672380Y-91792380D01*
X61672380Y-91935238D01*
X61624761Y-92030476D01*
X61577142Y-92078095D01*
X61672380Y-92697142D02*
X61624761Y-92601904D01*
X61529523Y-92554285D01*
X60672380Y-92554285D01*
X61005714Y-92935238D02*
X61005714Y-93316190D01*
X60672380Y-93078095D02*
X61529523Y-93078095D01*
X61624761Y-93125714D01*
X61672380Y-93220952D01*
X61672380Y-93316190D01*
X61005714Y-94316190D02*
X61672380Y-94554285D01*
X61005714Y-94792380D01*
X61672380Y-95697142D02*
X61672380Y-95125714D01*
X61672380Y-95411428D02*
X60672380Y-95411428D01*
X60815238Y-95316190D01*
X60910476Y-95220952D01*
X60958095Y-95125714D01*
X61577142Y-96125714D02*
X61624761Y-96173333D01*
X61672380Y-96125714D01*
X61624761Y-96078095D01*
X61577142Y-96125714D01*
X61672380Y-96125714D01*
X60672380Y-96792380D02*
X60672380Y-96887619D01*
X60720000Y-96982857D01*
X60767619Y-97030476D01*
X60862857Y-97078095D01*
X61053333Y-97125714D01*
X61291428Y-97125714D01*
X61481904Y-97078095D01*
X61577142Y-97030476D01*
X61624761Y-96982857D01*
X61672380Y-96887619D01*
X61672380Y-96792380D01*
X61624761Y-96697142D01*
X61577142Y-96649523D01*
X61481904Y-96601904D01*
X61291428Y-96554285D01*
X61053333Y-96554285D01*
X60862857Y-96601904D01*
X60767619Y-96649523D01*
X60720000Y-96697142D01*
X60672380Y-96792380D01*
X63324761Y-82554285D02*
X63372380Y-82697142D01*
X63372380Y-82935238D01*
X63324761Y-83030476D01*
X63277142Y-83078095D01*
X63181904Y-83125714D01*
X63086666Y-83125714D01*
X62991428Y-83078095D01*
X62943809Y-83030476D01*
X62896190Y-82935238D01*
X62848571Y-82744761D01*
X62800952Y-82649523D01*
X62753333Y-82601904D01*
X62658095Y-82554285D01*
X62562857Y-82554285D01*
X62467619Y-82601904D01*
X62420000Y-82649523D01*
X62372380Y-82744761D01*
X62372380Y-82982857D01*
X62420000Y-83125714D01*
X63372380Y-83982857D02*
X62848571Y-83982857D01*
X62753333Y-83935238D01*
X62705714Y-83840000D01*
X62705714Y-83649523D01*
X62753333Y-83554285D01*
X63324761Y-83982857D02*
X63372380Y-83887619D01*
X63372380Y-83649523D01*
X63324761Y-83554285D01*
X63229523Y-83506666D01*
X63134285Y-83506666D01*
X63039047Y-83554285D01*
X62991428Y-83649523D01*
X62991428Y-83887619D01*
X62943809Y-83982857D01*
X63372380Y-84459047D02*
X62705714Y-84459047D01*
X62800952Y-84459047D02*
X62753333Y-84506666D01*
X62705714Y-84601904D01*
X62705714Y-84744761D01*
X62753333Y-84840000D01*
X62848571Y-84887619D01*
X63372380Y-84887619D01*
X62848571Y-84887619D02*
X62753333Y-84935238D01*
X62705714Y-85030476D01*
X62705714Y-85173333D01*
X62753333Y-85268571D01*
X62848571Y-85316190D01*
X63372380Y-85316190D01*
X62372380Y-86411428D02*
X62372380Y-86982857D01*
X63372380Y-86697142D02*
X62372380Y-86697142D01*
X62705714Y-87744761D02*
X63372380Y-87744761D01*
X62705714Y-87316190D02*
X63229523Y-87316190D01*
X63324761Y-87363809D01*
X63372380Y-87459047D01*
X63372380Y-87601904D01*
X63324761Y-87697142D01*
X63277142Y-87744761D01*
X63324761Y-88173333D02*
X63372380Y-88268571D01*
X63372380Y-88459047D01*
X63324761Y-88554285D01*
X63229523Y-88601904D01*
X63181904Y-88601904D01*
X63086666Y-88554285D01*
X63039047Y-88459047D01*
X63039047Y-88316190D01*
X62991428Y-88220952D01*
X62896190Y-88173333D01*
X62848571Y-88173333D01*
X62753333Y-88220952D01*
X62705714Y-88316190D01*
X62705714Y-88459047D01*
X62753333Y-88554285D01*
X63372380Y-89030476D02*
X62372380Y-89030476D01*
X62991428Y-89125714D02*
X63372380Y-89411428D01*
X62705714Y-89411428D02*
X63086666Y-89030476D01*
X63086666Y-90554285D02*
X63086666Y-91030476D01*
X63372380Y-90459047D02*
X62372380Y-90792380D01*
X63372380Y-91125714D01*
X62705714Y-91459047D02*
X63705714Y-91459047D01*
X62753333Y-91459047D02*
X62705714Y-91554285D01*
X62705714Y-91744761D01*
X62753333Y-91840000D01*
X62800952Y-91887619D01*
X62896190Y-91935238D01*
X63181904Y-91935238D01*
X63277142Y-91887619D01*
X63324761Y-91840000D01*
X63372380Y-91744761D01*
X63372380Y-91554285D01*
X63324761Y-91459047D01*
X63372380Y-92363809D02*
X62705714Y-92363809D01*
X62896190Y-92363809D02*
X62800952Y-92411428D01*
X62753333Y-92459047D01*
X62705714Y-92554285D01*
X62705714Y-92649523D01*
X63372380Y-92982857D02*
X62705714Y-92982857D01*
X62372380Y-92982857D02*
X62420000Y-92935238D01*
X62467619Y-92982857D01*
X62420000Y-93030476D01*
X62372380Y-92982857D01*
X62467619Y-92982857D01*
X63372380Y-93601904D02*
X63324761Y-93506666D01*
X63229523Y-93459047D01*
X62372380Y-93459047D01*
X62467619Y-94697142D02*
X62420000Y-94744761D01*
X62372380Y-94840000D01*
X62372380Y-95078095D01*
X62420000Y-95173333D01*
X62467619Y-95220952D01*
X62562857Y-95268571D01*
X62658095Y-95268571D01*
X62800952Y-95220952D01*
X63372380Y-94649523D01*
X63372380Y-95268571D01*
X62372380Y-95887619D02*
X62372380Y-95982857D01*
X62420000Y-96078095D01*
X62467619Y-96125714D01*
X62562857Y-96173333D01*
X62753333Y-96220952D01*
X62991428Y-96220952D01*
X63181904Y-96173333D01*
X63277142Y-96125714D01*
X63324761Y-96078095D01*
X63372380Y-95982857D01*
X63372380Y-95887619D01*
X63324761Y-95792380D01*
X63277142Y-95744761D01*
X63181904Y-95697142D01*
X62991428Y-95649523D01*
X62753333Y-95649523D01*
X62562857Y-95697142D01*
X62467619Y-95744761D01*
X62420000Y-95792380D01*
X62372380Y-95887619D01*
X62467619Y-96601904D02*
X62420000Y-96649523D01*
X62372380Y-96744761D01*
X62372380Y-96982857D01*
X62420000Y-97078095D01*
X62467619Y-97125714D01*
X62562857Y-97173333D01*
X62658095Y-97173333D01*
X62800952Y-97125714D01*
X63372380Y-96554285D01*
X63372380Y-97173333D01*
X62372380Y-97792380D02*
X62372380Y-97887619D01*
X62420000Y-97982857D01*
X62467619Y-98030476D01*
X62562857Y-98078095D01*
X62753333Y-98125714D01*
X62991428Y-98125714D01*
X63181904Y-98078095D01*
X63277142Y-98030476D01*
X63324761Y-97982857D01*
X63372380Y-97887619D01*
X63372380Y-97792380D01*
X63324761Y-97697142D01*
X63277142Y-97649523D01*
X63181904Y-97601904D01*
X62991428Y-97554285D01*
X62753333Y-97554285D01*
X62562857Y-97601904D01*
X62467619Y-97649523D01*
X62420000Y-97697142D01*
X62372380Y-97792380D01*
X78129047Y-117362380D02*
X78129047Y-118076666D01*
X78176666Y-118219523D01*
X78271904Y-118314761D01*
X78414761Y-118362380D01*
X78510000Y-118362380D01*
X77176666Y-118362380D02*
X77652857Y-118362380D01*
X77652857Y-117362380D01*
X76271904Y-118267142D02*
X76319523Y-118314761D01*
X76462380Y-118362380D01*
X76557619Y-118362380D01*
X76700476Y-118314761D01*
X76795714Y-118219523D01*
X76843333Y-118124285D01*
X76890952Y-117933809D01*
X76890952Y-117790952D01*
X76843333Y-117600476D01*
X76795714Y-117505238D01*
X76700476Y-117410000D01*
X76557619Y-117362380D01*
X76462380Y-117362380D01*
X76319523Y-117410000D01*
X76271904Y-117457619D01*
X75557619Y-117362380D02*
X75557619Y-118076666D01*
X75605238Y-118219523D01*
X75700476Y-118314761D01*
X75843333Y-118362380D01*
X75938571Y-118362380D01*
X74605238Y-118362380D02*
X75081428Y-118362380D01*
X75081428Y-117362380D01*
X73700476Y-118267142D02*
X73748095Y-118314761D01*
X73890952Y-118362380D01*
X73986190Y-118362380D01*
X74129047Y-118314761D01*
X74224285Y-118219523D01*
X74271904Y-118124285D01*
X74319523Y-117933809D01*
X74319523Y-117790952D01*
X74271904Y-117600476D01*
X74224285Y-117505238D01*
X74129047Y-117410000D01*
X73986190Y-117362380D01*
X73890952Y-117362380D01*
X73748095Y-117410000D01*
X73700476Y-117457619D01*
X72986190Y-117362380D02*
X72986190Y-118076666D01*
X73033809Y-118219523D01*
X73129047Y-118314761D01*
X73271904Y-118362380D01*
X73367142Y-118362380D01*
X72033809Y-118362380D02*
X72510000Y-118362380D01*
X72510000Y-117362380D01*
X71129047Y-118267142D02*
X71176666Y-118314761D01*
X71319523Y-118362380D01*
X71414761Y-118362380D01*
X71557619Y-118314761D01*
X71652857Y-118219523D01*
X71700476Y-118124285D01*
X71748095Y-117933809D01*
X71748095Y-117790952D01*
X71700476Y-117600476D01*
X71652857Y-117505238D01*
X71557619Y-117410000D01*
X71414761Y-117362380D01*
X71319523Y-117362380D01*
X71176666Y-117410000D01*
X71129047Y-117457619D01*
X70414761Y-117362380D02*
X70414761Y-118076666D01*
X70462380Y-118219523D01*
X70557619Y-118314761D01*
X70700476Y-118362380D01*
X70795714Y-118362380D01*
X69462380Y-118362380D02*
X69938571Y-118362380D01*
X69938571Y-117362380D01*
X68557619Y-118267142D02*
X68605238Y-118314761D01*
X68748095Y-118362380D01*
X68843333Y-118362380D01*
X68986190Y-118314761D01*
X69081428Y-118219523D01*
X69129047Y-118124285D01*
X69176666Y-117933809D01*
X69176666Y-117790952D01*
X69129047Y-117600476D01*
X69081428Y-117505238D01*
X68986190Y-117410000D01*
X68843333Y-117362380D01*
X68748095Y-117362380D01*
X68605238Y-117410000D01*
X68557619Y-117457619D01*
M02*
