M48
;DRILL file {KiCad (5.0.1)-3} date 22/04/2020 20:20:40
;FORMAT={-:-/ absolute / inch / decimal}
FMAT,2
INCH,TZ
T1C0.0157
T2C0.0315
T3C0.0394
T4C0.0400
T5C0.0433
%
G90
G05
M72
T1
X2.5118Y-3.2283
X2.5433Y-2.6693
X2.5433Y-3.1969
X2.6143Y-2.556
X2.6152Y-2.9183
X2.6161Y-1.4577
X2.6358Y-2.0827
X2.6388Y-2.0049
X2.6545Y-1.0285
X2.6772Y-0.9055
X2.686Y-1.685
X2.7053Y-3.1624
X2.7053Y-3.5197
X2.7057Y-3.064
X2.7352Y-2.4045
X2.7431Y-3.752
X2.7549Y-2.6388
X2.7943Y-3.061
X2.8031Y-3.1732
X2.8533Y-3.748
X2.8553Y-3.1693
X2.8799Y-2.5591
X2.8839Y-2.6368
X2.8858Y-0.9134
X2.9006Y-2.9626
X2.9114Y-1.815
X2.9114Y-1.815
X2.9134Y-3.1732
X2.9272Y-1.6388
X2.936Y-1.2692
X2.9429Y-2.7687
X2.943Y-2.0137
X2.9449Y-1.4762
X2.9518Y-2.6378
X2.9596Y-2.3917
X2.9596Y-2.5431
X2.9695Y-1.5915
X2.9744Y-2.0472
X2.9931Y-2.9695
X3.003Y-3.3465
X3.0079Y-1.2677
X3.0276Y-2.4035
X3.0285Y-2.2146
X3.0295Y-2.0128
X3.0413Y-1.3002
X3.0512Y-1.9144
X3.06Y-3.2598
X3.0679Y-1.9961
X3.0787Y-2.9685
X3.0896Y-3.7352
X3.1083Y-1.7224
X3.1102Y-3.0768
X3.1289Y-1.998
X3.1339Y-0.8504
X3.1339Y-3.5197
X3.1437Y-1.0994
X3.1496Y-3.8091
X3.2077Y-2.2205
X3.2077Y-2.0194
X3.2677Y-3.1811
X3.3327Y-1.063
X3.3337Y-0.9616
X3.3858Y-1.4882
X3.3858Y-2.0787
X3.4281Y-3.0787
X3.4291Y-2.5433
X3.4461Y-2.3406
X3.4596Y-1.0207
X3.4646Y-2.9114
X3.4646Y-3.0472
X3.4685Y-1.5354
T2
X3.4094Y-4.5433
X3.5079Y-4.5433
X3.5197Y-2.8189
X3.5197Y-2.9189
X3.5197Y-3.0189
X3.5197Y-1.8031
X3.5197Y-1.9031
X3.5197Y-2.0031
X3.3996Y-4.065
X3.498Y-4.065
X3.5197Y-1.3858
X3.5197Y-1.4858
X3.5197Y-1.5858
X3.5197Y-2.4055
X3.5197Y-2.5055
X3.5197Y-2.6055
X3.5197Y-3.2303
X3.5197Y-3.3303
X3.5197Y-3.4303
X3.5197Y-0.9685
X3.5197Y-1.0685
X3.5197Y-1.1685
T3
X3.0709Y-4.2362
X3.2677Y-4.2362
X2.4409Y-0.8661
X2.4409Y-0.9661
X2.4409Y-1.0661
X2.4409Y-1.1661
X2.4409Y-1.2661
X2.4409Y-1.3661
X2.4409Y-1.4661
X2.4409Y-1.5661
X2.4409Y-1.6661
X2.4409Y-1.7661
X2.4409Y-1.8661
X2.4409Y-1.9661
X2.4409Y-2.0661
X2.4409Y-2.1661
X2.4409Y-2.2661
X2.4409Y-2.3661
X2.4409Y-2.4661
X2.4409Y-2.5661
X2.4409Y-2.6661
X2.4409Y-2.7661
X2.4409Y-2.8661
X2.4409Y-2.9661
X2.4567Y-4.2205
X2.6535Y-4.2205
T4
X2.6614Y-4.4512
X2.6614Y-4.5512
X2.7614Y-4.4512
X2.7614Y-4.5512
X2.8614Y-4.4512
X2.8614Y-4.5512
X2.9614Y-4.4512
X2.9614Y-4.5512
X3.0614Y-4.4512
X3.0614Y-4.5512
T5
X2.4803Y-4.063
X2.8803Y-4.063
X2.8268Y-3.9213
X3.2268Y-3.9213
T0
M30
