M48
;DRILL file {KiCad (5.0.1)-3} date 29/01/2020 23:08:50
;FORMAT={-:-/ absolute / inch / decimal}
FMAT,2
INCH,TZ
T1C0.0157
T2C0.0300
T3C0.0394
T4C0.0433
T5C0.0472
T6C0.0551
T7C0.0709
T8C0.0787
%
G90
G05
M72
T1
X2.26Y-2.27
X2.2799Y-2.2205
X2.29Y-2.18
X2.33Y-2.56
X2.3917Y-3.7638
X2.5551Y-3.128
X2.67Y-2.48
X2.7934Y-2.9066
X3.06Y-2.71
X3.0945Y-3.813
X3.126Y-3.9567
X3.18Y-2.97
X3.315Y-4.0236
X3.35Y-1.97
X3.4134Y-4.0295
X3.46Y-2.43
X3.47Y-2.74
X3.5039Y-3.3406
X3.57Y-2.25
X3.57Y-2.84
X3.61Y-2.92
X3.7461Y-4.7598
X3.748Y-4.7067
X3.7972Y-3.813
X3.7979Y-4.0157
X3.81Y-1.9
X3.815Y-3.3386
X3.8718Y-3.9822
X3.8819Y-3.6476
X3.8978Y-3.9496
X3.9Y-1.03
X3.93Y-3.54
X3.94Y-0.77
X3.94Y-2.82
X3.9541Y-3.1332
X3.99Y-1.1519
X4.01Y-3.72
X4.0194Y-1.3634
X4.0262Y-1.4793
X4.04Y-3.16
X4.045Y-1.3964
X4.05Y-1.44
X4.0632Y-1.5719
X4.0665Y-2.277
X4.07Y-1.97
X4.0827Y-2.7461
X4.1Y-1.25
X4.1018Y-1.598
X4.11Y-1.95
X4.11Y-2.22
X4.11Y-2.28
X4.1378Y-2.624
X4.1378Y-4.7579
X4.1398Y-4.7067
X4.16Y-1.87
X4.1823Y-3.7542
X4.1831Y-3.122
X4.26Y-1.27
X4.2893Y-1.73
X4.3332Y-1.7293
X4.37Y-1.8481
X4.3766Y-1.7383
X4.4094Y-2.5433
X4.41Y-1.88
X4.42Y-1.74
X4.4449Y-2.39
X4.5177Y-3.7333
X4.5228Y-3.122
X4.53Y-1.95
X4.53Y-3.84
X4.5362Y-1.8581
X4.5591Y-4.7067
X4.561Y-4.7598
X4.5681Y-1.92
X4.57Y-2.34
X4.58Y-1.71
X4.6Y-1.88
X4.6019Y-2.31
X4.66Y-3.14
X4.7Y-1.6161
X4.74Y-1.58
X4.7496Y-1.4657
X4.7894Y-2.481
X4.8Y-4.52
X4.85Y-1.6161
X4.88Y-2.88
X4.89Y-2.5433
X4.8991Y-4.2691
X4.91Y-1.79
X4.92Y-1.6161
X4.95Y-3.97
X4.96Y-1.77
X4.9742Y-1.7019
X4.9919Y-1.74
X5.0138Y-4.7638
X5.0157Y-4.7067
X5.0288Y-4.0443
X5.0298Y-4.1791
X5.03Y-4.1081
X5.06Y-4.21
X5.0605Y-4.0762
X5.0617Y-4.0124
X5.0679Y-4.14
X5.0688Y-2.4354
X5.0793Y-2.8435
X5.0793Y-3.012
X5.0793Y-3.3151
X5.1122Y-2.4019
X5.125Y-2.98
X5.125Y-3.13
X5.126Y-3.061
X5.24Y-1.74
X5.286Y-4.0124
X5.286Y-4.0762
X5.29Y-4.14
X5.29Y-4.21
X5.2902Y-2.5433
X5.3Y-3.97
X5.32Y-4.1081
X5.3206Y-4.0443
X5.3296Y-4.1781
X5.35Y-3.93
X5.39Y-3.9
X5.4273Y-3.9313
X5.4311Y-4.7067
X5.4331Y-4.7677
X5.46Y-2.5433
X5.4647Y-3.9498
X5.4966Y-3.91
X5.5285Y-3.9469
X5.5621Y-3.9716
X5.58Y-3.3
X5.7Y-3.65
X5.7357Y-3.5131
X5.74Y-3.04
X5.82Y-2.0842
X5.85Y-2.8957
X5.8681Y-4.7067
X5.87Y-2.481
X5.8701Y-4.7736
X5.8936Y-2.93
X5.92Y-2.96
X5.9453Y-1.6631
X5.98Y-1.64
X5.99Y-1.59
X5.99Y-2.14
X6.05Y-2.5433
X6.06Y-2.7839
X6.0606Y-3.1556
X6.0606Y-3.5072
X6.0986Y-1.9314
X6.0986Y-1.9814
X6.1Y-1.79
X6.1Y-3.66
X6.2Y-3.26
X6.26Y-1.46
X6.26Y-2.19
X6.2992Y-4.7185
X6.3Y-1.95
X6.3031Y-4.7697
X6.3309Y-1.4217
X6.37Y-1.3898
X6.38Y-3.7
X6.41Y-1.3563
X6.41Y-2.481
X6.41Y-3.05
X6.4113Y-3.5312
X6.46Y-1.79
X6.4647Y-1.9193
X6.5307Y-1.9207
X6.55Y-2.7839
X6.55Y-2.8957
X6.56Y-1.8
X6.57Y-1.94
X6.58Y-2.15
X6.59Y-2.93
X6.61Y-1.79
X6.61Y-2.986
X6.65Y-1.81
X6.7Y-1.83
X6.7185Y-4.7717
X6.7224Y-4.6831
X6.74Y-2.7839
X6.744Y-3.5312
X6.746Y-3.0961
X6.76Y-2.33
X6.77Y-3.71
X6.8Y-2.35
X6.8211Y-2.2988
X6.8399Y-1.5105
X6.85Y-1.47
X6.87Y-1.4219
X6.96Y-1.4019
X6.97Y-2.481
X6.99Y-1.72
X6.99Y-1.87
X7.03Y-1.61
X7.03Y-3.05
X7.05Y-1.76
X7.05Y-1.93
X7.05Y-2.481
X7.06Y-1.88
X7.06Y-3.69
X7.092Y-3.5158
X7.1Y-1.29
X7.1143Y-1.69
X7.14Y-2.7839
X7.16Y-1.55
X7.16Y-1.92
X7.16Y-2.5433
X7.22Y-2.02
X7.22Y-2.7839
X7.2319Y-2.25
X7.24Y-0.78
X7.24Y-2.8957
X7.25Y-2.3
X7.25Y-2.4354
X7.2681Y-1.47
X7.27Y-2.37
X7.27Y-2.93
X7.2911Y-2.428
X7.3Y-2.33
X7.3Y-2.9994
X7.3319Y-1.47
X7.37Y-3.09
X7.4161Y-3.5178
X7.43Y-3.7
X7.46Y-2.5433
X7.48Y-0.79
X7.53Y-1.43
X7.5727Y-1.8727
X7.62Y-4.34
X7.63Y-3.72
X7.63Y-3.91
X7.63Y-4.14
X7.64Y-3.81
X7.64Y-4.03
X7.64Y-4.23
X7.6414Y-4.3079
X7.74Y-4.7
X7.76Y-2.06
X7.76Y-2.1
X7.76Y-2.13
X7.76Y-2.17
X7.78Y-4.73
X7.82Y-4.76
X8.19Y-1.48
X8.22Y-3.
X8.2295Y-1.4501
X8.27Y-1.44
X8.32Y-1.43
X8.49Y-4.09
X8.52Y-3.62
X8.54Y-4.17
X8.55Y-2.59
X8.58Y-1.4
X8.59Y-4.16
X8.64Y-3.33
X8.64Y-3.57
X8.64Y-4.09
X8.65Y-1.83
X8.65Y-3.99
X8.69Y-3.58
X8.7402Y-4.2598
X8.8189Y-4.2795
X8.89Y-1.55
X8.9219Y-1.39
X8.9921Y-4.2244
X8.994Y-3.8497
X9.0354Y-3.8543
X9.0354Y-4.2244
X9.0713Y-4.5276
X9.0713Y-4.5748
X9.1335Y-2.0197
X9.1335Y-3.6299
X9.139Y-3.7784
X9.1453Y-4.2559
X9.1654Y-1.9252
X9.1772Y-3.8228
X9.1772Y-4.2244
X9.1819Y-3.6921
X9.2008Y-2.8346
X9.2598Y-2.7795
X9.4528Y-4.2087
X9.5079Y-2.7992
X9.5245Y-2.8631
T2
X3.5728Y-0.9843
X3.6516Y-0.9843
X3.7303Y-0.9843
X3.8091Y-0.9843
X6.565Y-0.9843
X6.6437Y-0.9843
X6.7224Y-0.9843
X6.8012Y-0.9843
X6.9882Y-0.9843
X7.0669Y-0.9843
X7.1457Y-0.9843
X7.2244Y-0.9843
X2.2933Y-0.9843
X2.372Y-0.9843
X2.4508Y-0.9843
X2.5295Y-0.9843
X6.1319Y-0.9843
X6.2106Y-0.9843
X6.2894Y-0.9843
X6.3681Y-0.9843
X5.7087Y-0.9843
X5.7874Y-0.9843
X5.8661Y-0.9843
X5.9449Y-0.9843
X4.4193Y-0.9843
X4.498Y-0.9843
X4.5768Y-0.9843
X4.6555Y-0.9843
X3.1496Y-0.9843
X3.2283Y-0.9843
X3.3071Y-0.9843
X3.3858Y-0.9843
X2.7165Y-0.9843
X2.7953Y-0.9843
X2.874Y-0.9843
X2.9528Y-0.9843
X3.9961Y-0.9843
X4.0748Y-0.9843
X4.1535Y-0.9843
X4.2323Y-0.9843
X4.8524Y-0.9843
X4.9311Y-0.9843
X5.0098Y-0.9843
X5.0886Y-0.9843
X5.2854Y-0.9843
X5.3642Y-0.9843
X5.4429Y-0.9843
X5.5217Y-0.9843
T3
X8.1811Y-3.1942
X8.1811Y-3.2927
X8.1811Y-3.3911
X8.1811Y-3.9409
X8.1811Y-4.0394
X8.1811Y-4.1378
X8.1811Y-2.4475
X8.1811Y-2.5459
X8.1811Y-2.6444
X8.01Y-1.11
X8.01Y-1.21
X8.01Y-1.31
X8.01Y-1.41
X8.01Y-1.51
X8.01Y-1.61
X8.01Y-1.71
X8.01Y-1.81
X8.01Y-1.91
X8.01Y-2.01
X8.01Y-2.11
X8.01Y-2.21
X8.01Y-2.31
X8.01Y-2.41
X8.01Y-2.51
X8.01Y-2.61
X8.01Y-2.71
X8.01Y-2.81
X8.01Y-2.91
X8.01Y-3.01
X8.01Y-3.11
X8.01Y-3.21
X8.01Y-3.31
X8.01Y-3.41
X8.01Y-3.51
X8.01Y-3.61
X8.01Y-3.71
X8.01Y-3.81
X8.01Y-3.91
X8.01Y-4.01
X8.01Y-4.11
X8.01Y-4.21
X8.01Y-4.31
X8.01Y-4.41
X8.01Y-4.51
X8.01Y-4.61
X8.01Y-4.71
X8.1811Y-1.7008
X8.1811Y-1.7992
X8.1811Y-1.8976
T4
X2.4114Y-4.9537
X4.1142Y-4.9528
X3.6909Y-2.4528
X3.6909Y-3.0778
X2.8346Y-3.7028
X2.8346Y-4.9537
X9.6811Y-1.7992
X3.2677Y-2.4528
X2.4114Y-2.4528
X2.4114Y-4.3282
X2.4114Y-3.7028
X6.6831Y-4.9528
X2.8346Y-3.0778
X7.1063Y-4.9528
X2.8346Y-2.4528
X5.3937Y-4.9528
X3.2677Y-4.9537
X6.25Y-4.9528
X3.2677Y-3.7028
X3.6909Y-4.3282
X3.6909Y-3.7028
X5.8169Y-4.9528
X9.6811Y-3.2927
X3.2677Y-3.0778
X2.4114Y-3.0778
X3.2677Y-4.3282
X2.8346Y-4.3282
X9.6811Y-4.0394
X4.5276Y-4.9528
X3.6909Y-4.9537
X9.6811Y-2.5459
X4.9606Y-4.9528
T5
X7.4606Y-4.4193
X7.6181Y-2.7067
X7.6181Y-4.4193
X6.6831Y-0.7598
X7.1063Y-0.7598
X6.5994Y-4.4193
X6.7569Y-2.7067
X6.7569Y-4.4193
X2.4114Y-0.7598
X5.315Y-1.2992
X5.315Y-2.6181
X5.4724Y-1.2992
X6.25Y-0.7598
X7.0276Y-4.4193
X7.185Y-2.7067
X7.185Y-4.4193
X4.4587Y-1.2992
X4.4587Y-2.6181
X4.6161Y-1.2992
X7.0276Y-1.2992
X7.0276Y-2.6181
X7.185Y-1.2992
X4.8868Y-4.4193
X5.0443Y-2.7067
X5.0443Y-4.4193
X5.8268Y-0.7598
X4.4587Y-4.4193
X4.6161Y-2.7067
X4.6161Y-4.4193
X6.1713Y-4.4193
X6.3287Y-2.7067
X6.3287Y-4.4193
X5.315Y-4.4193
X5.4724Y-2.7067
X5.4724Y-4.4193
X4.8868Y-1.2992
X4.8868Y-2.6181
X5.0443Y-1.2992
X4.0315Y-1.2992
X4.0315Y-2.6181
X4.189Y-1.2992
X5.7431Y-4.4193
X5.9006Y-2.7067
X5.9006Y-4.4193
X4.5374Y-0.7598
X3.2677Y-0.7598
X2.8346Y-0.7598
X4.1142Y-0.7598
X4.9705Y-0.7598
X5.7431Y-1.2992
X5.7431Y-2.6181
X5.9006Y-1.2992
X6.1713Y-1.2992
X6.1713Y-2.6181
X6.3287Y-1.2992
X6.5994Y-1.2992
X6.5994Y-2.6181
X6.7569Y-1.2992
X4.0305Y-4.4193
X4.188Y-2.7067
X4.188Y-4.4193
X5.4035Y-0.7598
X3.6909Y-0.7598
X7.4606Y-1.2992
X7.4606Y-2.6181
X7.6181Y-1.2992
T6
X2.4114Y-0.8512
X6.25Y-0.8512
X5.3937Y-4.5307
X5.3937Y-4.8575
X3.2677Y-4.5317
X3.2677Y-4.8585
X6.25Y-4.5307
X6.25Y-4.8575
X3.2677Y-3.2807
X3.2677Y-3.6075
X3.6909Y-3.9062
X3.6909Y-4.233
X5.8268Y-0.8512
X3.6909Y-3.2807
X3.6909Y-3.6075
X5.8169Y-4.5307
X5.8169Y-4.8575
X9.2591Y-3.2927
X9.5858Y-3.2927
X3.2677Y-2.6557
X3.2677Y-2.9825
X2.4114Y-2.6557
X2.4114Y-2.9825
X3.2677Y-3.9062
X3.2677Y-4.233
X2.8346Y-3.9062
X2.8346Y-4.233
X9.2591Y-4.0394
X9.5858Y-4.0394
X4.5276Y-4.5307
X4.5276Y-4.8575
X4.5374Y-0.8512
X3.2677Y-0.8512
X2.8346Y-0.8512
X4.1142Y-0.8512
X4.9705Y-0.8512
X3.6909Y-4.5317
X3.6909Y-4.8585
X9.2591Y-2.5459
X9.5858Y-2.5459
X4.9606Y-4.5307
X4.9606Y-4.8575
X5.4035Y-0.8512
X2.4114Y-4.5317
X2.4114Y-4.8585
X4.1142Y-4.5307
X4.1142Y-4.8575
X3.6909Y-2.0307
X3.6909Y-2.3575
X3.6909Y-2.6557
X3.6909Y-2.9825
X2.8346Y-3.2807
X2.8346Y-3.6075
X3.6909Y-0.8512
X2.8346Y-4.5317
X2.8346Y-4.8585
X9.2591Y-1.7992
X9.5858Y-1.7992
X3.2677Y-2.0307
X3.2677Y-2.3575
X2.4114Y-2.0307
X2.4114Y-2.3575
X2.4114Y-3.9062
X2.4114Y-4.233
X2.4114Y-3.2807
X2.4114Y-3.6075
X6.6831Y-0.8512
X7.1063Y-0.8512
X6.6831Y-4.5307
X6.6831Y-4.8575
X2.8346Y-2.6557
X2.8346Y-2.9825
X7.1063Y-4.5307
X7.1063Y-4.8575
X2.8346Y-2.0307
X2.8346Y-2.3575
T7
X8.4764Y-3.8504
X8.4764Y-4.2283
X8.4764Y-2.357
X8.4764Y-2.7349
X8.4764Y-1.6102
X8.4764Y-1.9882
X8.4764Y-3.1037
X8.4764Y-3.4816
T8
X8.2992Y-4.7244
X8.4843Y-4.7244
X8.6693Y-4.7244
X2.8445Y-1.4193
X2.8445Y-1.6043
X2.8445Y-1.7894
X8.311Y-0.9724
X8.4961Y-0.9724
X8.6811Y-0.9724
X1.9764Y-0.8268
X1.9764Y-1.0118
X1.9764Y-1.1969
X1.9764Y-1.4213
X1.9764Y-1.6063
X1.9764Y-1.7913
X2.4114Y-1.4193
X2.4114Y-1.6043
X2.4114Y-1.7894
X3.6909Y-1.4193
X3.6909Y-1.6043
X3.6909Y-1.7894
X3.2874Y-1.4193
X3.2874Y-1.6043
X3.2874Y-1.7894
T0
M30
