%TF.GenerationSoftware,KiCad,Pcbnew,(5.0.1)-3*%
%TF.CreationDate,2020-04-22T23:21:00+01:00*%
%TF.ProjectId,panel,70616E656C2E6B696361645F70636200,rev?*%
%TF.SameCoordinates,Original*%
%TF.FileFunction,Legend,Bot*%
%TF.FilePolarity,Positive*%
%FSLAX46Y46*%
G04 Gerber Fmt 4.6, Leading zero omitted, Abs format (unit mm)*
G04 Created by KiCad (PCBNEW (5.0.1)-3) date 22/04/2020 23:21:00*
%MOMM*%
%LPD*%
G01*
G04 APERTURE LIST*
%ADD10C,0.300000*%
G04 APERTURE END LIST*
D10*
X112034285Y-61835000D02*
X111320000Y-61835000D01*
X112177142Y-62263571D02*
X111677142Y-60763571D01*
X111177142Y-62263571D01*
X110891428Y-61263571D02*
X110320000Y-61263571D01*
X110677142Y-60763571D02*
X110677142Y-62049285D01*
X110605714Y-62192142D01*
X110462857Y-62263571D01*
X110320000Y-62263571D01*
X110034285Y-61263571D02*
X109462857Y-61263571D01*
X109820000Y-60763571D02*
X109820000Y-62049285D01*
X109748571Y-62192142D01*
X109605714Y-62263571D01*
X109462857Y-62263571D01*
X108391428Y-62192142D02*
X108534285Y-62263571D01*
X108820000Y-62263571D01*
X108962857Y-62192142D01*
X109034285Y-62049285D01*
X109034285Y-61477857D01*
X108962857Y-61335000D01*
X108820000Y-61263571D01*
X108534285Y-61263571D01*
X108391428Y-61335000D01*
X108320000Y-61477857D01*
X108320000Y-61620714D01*
X109034285Y-61763571D01*
X107677142Y-61263571D02*
X107677142Y-62263571D01*
X107677142Y-61406428D02*
X107605714Y-61335000D01*
X107462857Y-61263571D01*
X107248571Y-61263571D01*
X107105714Y-61335000D01*
X107034285Y-61477857D01*
X107034285Y-62263571D01*
X105677142Y-61263571D02*
X105677142Y-62263571D01*
X106320000Y-61263571D02*
X106320000Y-62049285D01*
X106248571Y-62192142D01*
X106105714Y-62263571D01*
X105891428Y-62263571D01*
X105748571Y-62192142D01*
X105677142Y-62120714D01*
X105105714Y-61263571D02*
X104748571Y-62263571D01*
X104391428Y-61263571D01*
X103248571Y-62192142D02*
X103391428Y-62263571D01*
X103677142Y-62263571D01*
X103820000Y-62192142D01*
X103891428Y-62049285D01*
X103891428Y-61477857D01*
X103820000Y-61335000D01*
X103677142Y-61263571D01*
X103391428Y-61263571D01*
X103248571Y-61335000D01*
X103177142Y-61477857D01*
X103177142Y-61620714D01*
X103891428Y-61763571D01*
X102534285Y-62263571D02*
X102534285Y-61263571D01*
X102534285Y-61549285D02*
X102462857Y-61406428D01*
X102391428Y-61335000D01*
X102248571Y-61263571D01*
X102105714Y-61263571D01*
X101820000Y-61263571D02*
X101248571Y-61263571D01*
X101605714Y-60763571D02*
X101605714Y-62049285D01*
X101534285Y-62192142D01*
X101391428Y-62263571D01*
X101248571Y-62263571D01*
X100177142Y-62192142D02*
X100320000Y-62263571D01*
X100605714Y-62263571D01*
X100748571Y-62192142D01*
X100820000Y-62049285D01*
X100820000Y-61477857D01*
X100748571Y-61335000D01*
X100605714Y-61263571D01*
X100320000Y-61263571D01*
X100177142Y-61335000D01*
X100105714Y-61477857D01*
X100105714Y-61620714D01*
X100820000Y-61763571D01*
X99462857Y-62263571D02*
X99462857Y-61263571D01*
X99462857Y-61549285D02*
X99391428Y-61406428D01*
X99320000Y-61335000D01*
X99177142Y-61263571D01*
X99034285Y-61263571D01*
X98605714Y-62192142D02*
X98462857Y-62263571D01*
X98177142Y-62263571D01*
X98034285Y-62192142D01*
X97962857Y-62049285D01*
X97962857Y-61977857D01*
X98034285Y-61835000D01*
X98177142Y-61763571D01*
X98391428Y-61763571D01*
X98534285Y-61692142D01*
X98605714Y-61549285D01*
X98605714Y-61477857D01*
X98534285Y-61335000D01*
X98391428Y-61263571D01*
X98177142Y-61263571D01*
X98034285Y-61335000D01*
X96320000Y-61263571D02*
X95962857Y-62263571D01*
X95605714Y-61263571D01*
X94248571Y-62263571D02*
X95105714Y-62263571D01*
X94677142Y-62263571D02*
X94677142Y-60763571D01*
X94820000Y-60977857D01*
X94962857Y-61120714D01*
X95105714Y-61192142D01*
X93605714Y-62120714D02*
X93534285Y-62192142D01*
X93605714Y-62263571D01*
X93677142Y-62192142D01*
X93605714Y-62120714D01*
X93605714Y-62263571D01*
X92605714Y-60763571D02*
X92462857Y-60763571D01*
X92320000Y-60835000D01*
X92248571Y-60906428D01*
X92177142Y-61049285D01*
X92105714Y-61335000D01*
X92105714Y-61692142D01*
X92177142Y-61977857D01*
X92248571Y-62120714D01*
X92320000Y-62192142D01*
X92462857Y-62263571D01*
X92605714Y-62263571D01*
X92748571Y-62192142D01*
X92820000Y-62120714D01*
X92891428Y-61977857D01*
X92962857Y-61692142D01*
X92962857Y-61335000D01*
X92891428Y-61049285D01*
X92820000Y-60906428D01*
X92748571Y-60835000D01*
X92605714Y-60763571D01*
X114105714Y-64742142D02*
X113891428Y-64813571D01*
X113534285Y-64813571D01*
X113391428Y-64742142D01*
X113320000Y-64670714D01*
X113248571Y-64527857D01*
X113248571Y-64385000D01*
X113320000Y-64242142D01*
X113391428Y-64170714D01*
X113534285Y-64099285D01*
X113820000Y-64027857D01*
X113962857Y-63956428D01*
X114034285Y-63885000D01*
X114105714Y-63742142D01*
X114105714Y-63599285D01*
X114034285Y-63456428D01*
X113962857Y-63385000D01*
X113820000Y-63313571D01*
X113462857Y-63313571D01*
X113248571Y-63385000D01*
X111962857Y-64813571D02*
X111962857Y-64027857D01*
X112034285Y-63885000D01*
X112177142Y-63813571D01*
X112462857Y-63813571D01*
X112605714Y-63885000D01*
X111962857Y-64742142D02*
X112105714Y-64813571D01*
X112462857Y-64813571D01*
X112605714Y-64742142D01*
X112677142Y-64599285D01*
X112677142Y-64456428D01*
X112605714Y-64313571D01*
X112462857Y-64242142D01*
X112105714Y-64242142D01*
X111962857Y-64170714D01*
X111248571Y-64813571D02*
X111248571Y-63813571D01*
X111248571Y-63956428D02*
X111177142Y-63885000D01*
X111034285Y-63813571D01*
X110820000Y-63813571D01*
X110677142Y-63885000D01*
X110605714Y-64027857D01*
X110605714Y-64813571D01*
X110605714Y-64027857D02*
X110534285Y-63885000D01*
X110391428Y-63813571D01*
X110177142Y-63813571D01*
X110034285Y-63885000D01*
X109962857Y-64027857D01*
X109962857Y-64813571D01*
X108320000Y-63313571D02*
X107462857Y-63313571D01*
X107891428Y-64813571D02*
X107891428Y-63313571D01*
X106320000Y-63813571D02*
X106320000Y-64813571D01*
X106962857Y-63813571D02*
X106962857Y-64599285D01*
X106891428Y-64742142D01*
X106748571Y-64813571D01*
X106534285Y-64813571D01*
X106391428Y-64742142D01*
X106320000Y-64670714D01*
X105677142Y-64742142D02*
X105534285Y-64813571D01*
X105248571Y-64813571D01*
X105105714Y-64742142D01*
X105034285Y-64599285D01*
X105034285Y-64527857D01*
X105105714Y-64385000D01*
X105248571Y-64313571D01*
X105462857Y-64313571D01*
X105605714Y-64242142D01*
X105677142Y-64099285D01*
X105677142Y-64027857D01*
X105605714Y-63885000D01*
X105462857Y-63813571D01*
X105248571Y-63813571D01*
X105105714Y-63885000D01*
X104391428Y-64813571D02*
X104391428Y-63313571D01*
X104248571Y-64242142D02*
X103820000Y-64813571D01*
X103820000Y-63813571D02*
X104391428Y-64385000D01*
X103105714Y-64742142D02*
X103105714Y-64813571D01*
X103177142Y-64956428D01*
X103248571Y-65027857D01*
X101391428Y-64385000D02*
X100677142Y-64385000D01*
X101534285Y-64813571D02*
X101034285Y-63313571D01*
X100534285Y-64813571D01*
X100034285Y-63813571D02*
X100034285Y-65313571D01*
X100034285Y-63885000D02*
X99891428Y-63813571D01*
X99605714Y-63813571D01*
X99462857Y-63885000D01*
X99391428Y-63956428D01*
X99320000Y-64099285D01*
X99320000Y-64527857D01*
X99391428Y-64670714D01*
X99462857Y-64742142D01*
X99605714Y-64813571D01*
X99891428Y-64813571D01*
X100034285Y-64742142D01*
X98677142Y-64813571D02*
X98677142Y-63813571D01*
X98677142Y-64099285D02*
X98605714Y-63956428D01*
X98534285Y-63885000D01*
X98391428Y-63813571D01*
X98248571Y-63813571D01*
X97748571Y-64813571D02*
X97748571Y-63813571D01*
X97748571Y-63313571D02*
X97820000Y-63385000D01*
X97748571Y-63456428D01*
X97677142Y-63385000D01*
X97748571Y-63313571D01*
X97748571Y-63456428D01*
X96820000Y-64813571D02*
X96962857Y-64742142D01*
X97034285Y-64599285D01*
X97034285Y-63313571D01*
X95177142Y-63456428D02*
X95105714Y-63385000D01*
X94962857Y-63313571D01*
X94605714Y-63313571D01*
X94462857Y-63385000D01*
X94391428Y-63456428D01*
X94320000Y-63599285D01*
X94320000Y-63742142D01*
X94391428Y-63956428D01*
X95248571Y-64813571D01*
X94320000Y-64813571D01*
X93391428Y-63313571D02*
X93248571Y-63313571D01*
X93105714Y-63385000D01*
X93034285Y-63456428D01*
X92962857Y-63599285D01*
X92891428Y-63885000D01*
X92891428Y-64242142D01*
X92962857Y-64527857D01*
X93034285Y-64670714D01*
X93105714Y-64742142D01*
X93248571Y-64813571D01*
X93391428Y-64813571D01*
X93534285Y-64742142D01*
X93605714Y-64670714D01*
X93677142Y-64527857D01*
X93748571Y-64242142D01*
X93748571Y-63885000D01*
X93677142Y-63599285D01*
X93605714Y-63456428D01*
X93534285Y-63385000D01*
X93391428Y-63313571D01*
X92320000Y-63456428D02*
X92248571Y-63385000D01*
X92105714Y-63313571D01*
X91748571Y-63313571D01*
X91605714Y-63385000D01*
X91534285Y-63456428D01*
X91462857Y-63599285D01*
X91462857Y-63742142D01*
X91534285Y-63956428D01*
X92391428Y-64813571D01*
X91462857Y-64813571D01*
X90534285Y-63313571D02*
X90391428Y-63313571D01*
X90248571Y-63385000D01*
X90177142Y-63456428D01*
X90105714Y-63599285D01*
X90034285Y-63885000D01*
X90034285Y-64242142D01*
X90105714Y-64527857D01*
X90177142Y-64670714D01*
X90248571Y-64742142D01*
X90391428Y-64813571D01*
X90534285Y-64813571D01*
X90677142Y-64742142D01*
X90748571Y-64670714D01*
X90820000Y-64527857D01*
X90891428Y-64242142D01*
X90891428Y-63885000D01*
X90820000Y-63599285D01*
X90748571Y-63456428D01*
X90677142Y-63385000D01*
X90534285Y-63313571D01*
X117108571Y-55878571D02*
X117108571Y-56950000D01*
X117180000Y-57164285D01*
X117322857Y-57307142D01*
X117537142Y-57378571D01*
X117680000Y-57378571D01*
X115680000Y-57378571D02*
X116394285Y-57378571D01*
X116394285Y-55878571D01*
X114322857Y-57235714D02*
X114394285Y-57307142D01*
X114608571Y-57378571D01*
X114751428Y-57378571D01*
X114965714Y-57307142D01*
X115108571Y-57164285D01*
X115180000Y-57021428D01*
X115251428Y-56735714D01*
X115251428Y-56521428D01*
X115180000Y-56235714D01*
X115108571Y-56092857D01*
X114965714Y-55950000D01*
X114751428Y-55878571D01*
X114608571Y-55878571D01*
X114394285Y-55950000D01*
X114322857Y-56021428D01*
X113251428Y-55878571D02*
X113251428Y-56950000D01*
X113322857Y-57164285D01*
X113465714Y-57307142D01*
X113680000Y-57378571D01*
X113822857Y-57378571D01*
X111822857Y-57378571D02*
X112537142Y-57378571D01*
X112537142Y-55878571D01*
X110465714Y-57235714D02*
X110537142Y-57307142D01*
X110751428Y-57378571D01*
X110894285Y-57378571D01*
X111108571Y-57307142D01*
X111251428Y-57164285D01*
X111322857Y-57021428D01*
X111394285Y-56735714D01*
X111394285Y-56521428D01*
X111322857Y-56235714D01*
X111251428Y-56092857D01*
X111108571Y-55950000D01*
X110894285Y-55878571D01*
X110751428Y-55878571D01*
X110537142Y-55950000D01*
X110465714Y-56021428D01*
X109394285Y-55878571D02*
X109394285Y-56950000D01*
X109465714Y-57164285D01*
X109608571Y-57307142D01*
X109822857Y-57378571D01*
X109965714Y-57378571D01*
X107965714Y-57378571D02*
X108680000Y-57378571D01*
X108680000Y-55878571D01*
X106608571Y-57235714D02*
X106680000Y-57307142D01*
X106894285Y-57378571D01*
X107037142Y-57378571D01*
X107251428Y-57307142D01*
X107394285Y-57164285D01*
X107465714Y-57021428D01*
X107537142Y-56735714D01*
X107537142Y-56521428D01*
X107465714Y-56235714D01*
X107394285Y-56092857D01*
X107251428Y-55950000D01*
X107037142Y-55878571D01*
X106894285Y-55878571D01*
X106680000Y-55950000D01*
X106608571Y-56021428D01*
X105537142Y-55878571D02*
X105537142Y-56950000D01*
X105608571Y-57164285D01*
X105751428Y-57307142D01*
X105965714Y-57378571D01*
X106108571Y-57378571D01*
X104108571Y-57378571D02*
X104822857Y-57378571D01*
X104822857Y-55878571D01*
X102751428Y-57235714D02*
X102822857Y-57307142D01*
X103037142Y-57378571D01*
X103180000Y-57378571D01*
X103394285Y-57307142D01*
X103537142Y-57164285D01*
X103608571Y-57021428D01*
X103680000Y-56735714D01*
X103680000Y-56521428D01*
X103608571Y-56235714D01*
X103537142Y-56092857D01*
X103394285Y-55950000D01*
X103180000Y-55878571D01*
X103037142Y-55878571D01*
X102822857Y-55950000D01*
X102751428Y-56021428D01*
M02*
