%TF.GenerationSoftware,KiCad,Pcbnew,(5.0.1)-3*%
%TF.CreationDate,2020-04-22T23:21:00+01:00*%
%TF.ProjectId,panel,70616E656C2E6B696361645F70636200,rev?*%
%TF.SameCoordinates,Original*%
%TF.FileFunction,Legend,Top*%
%TF.FilePolarity,Positive*%
%FSLAX46Y46*%
G04 Gerber Fmt 4.6, Leading zero omitted, Abs format (unit mm)*
G04 Created by KiCad (PCBNEW (5.0.1)-3) date 22/04/2020 23:21:00*
%MOMM*%
%LPD*%
G01*
G04 APERTURE LIST*
%ADD10C,0.200000*%
%ADD11C,0.160000*%
%ADD12C,0.300000*%
%ADD13C,0.400000*%
%ADD14C,0.375000*%
%ADD15C,0.010000*%
G04 APERTURE END LIST*
D10*
X116643275Y-115570000D02*
G75*
G03X116643275Y-115570000I-383275J0D01*
G01*
X114600000Y-115600000D02*
X114310000Y-115890000D01*
X114530000Y-115600000D02*
X115430000Y-115600000D01*
X114600000Y-115600000D02*
X114310000Y-115310000D01*
X97240975Y-114860584D02*
X97276718Y-114452023D01*
X97274596Y-114845590D02*
X96700000Y-115320000D01*
X97240975Y-114860584D02*
X97649535Y-114896329D01*
X97000000Y-115745000D02*
X98060000Y-115745000D01*
X98060000Y-115750000D02*
X97770000Y-115460000D01*
X98060000Y-115750000D02*
X97770000Y-116040000D01*
X96493275Y-115745000D02*
G75*
G03X96493275Y-115745000I-383275J0D01*
G01*
X114620000Y-99900000D02*
X114330000Y-100190000D01*
X114620000Y-99900000D02*
X114330000Y-99610000D01*
X114550000Y-99900000D02*
X115450000Y-99900000D01*
X115596491Y-100445629D02*
X114761199Y-101098228D01*
X114761199Y-101098228D02*
X115168264Y-101148211D01*
X114761199Y-101098228D02*
X114811181Y-100691164D01*
X116663275Y-99870000D02*
G75*
G03X116663275Y-99870000I-383275J0D01*
G01*
X97840000Y-100190000D02*
X97550000Y-100480000D01*
X97840000Y-100190000D02*
X97550000Y-99900000D01*
X96780000Y-100190000D02*
X97840000Y-100190000D01*
X96273275Y-100190000D02*
G75*
G03X96273275Y-100190000I-383275J0D01*
G01*
D11*
X84217142Y-115828000D02*
X84645714Y-115828000D01*
X84131428Y-116085142D02*
X84431428Y-115185142D01*
X84731428Y-116085142D01*
X85717142Y-116085142D02*
X85717142Y-115185142D01*
X86145714Y-116085142D02*
X86145714Y-115185142D01*
X86660000Y-116085142D01*
X86660000Y-115185142D01*
X104462857Y-115742285D02*
X105148571Y-115742285D01*
X104805714Y-116085142D02*
X104805714Y-115399428D01*
X106005714Y-115185142D02*
X105577142Y-115185142D01*
X105534285Y-115613714D01*
X105577142Y-115570857D01*
X105662857Y-115528000D01*
X105877142Y-115528000D01*
X105962857Y-115570857D01*
X106005714Y-115613714D01*
X106048571Y-115699428D01*
X106048571Y-115913714D01*
X106005714Y-115999428D01*
X105962857Y-116042285D01*
X105877142Y-116085142D01*
X105662857Y-116085142D01*
X105577142Y-116042285D01*
X105534285Y-115999428D01*
X106305714Y-115185142D02*
X106605714Y-116085142D01*
X106905714Y-115185142D01*
X104232857Y-100354285D02*
X104918571Y-100354285D01*
X104575714Y-100697142D02*
X104575714Y-100011428D01*
X105775714Y-99797142D02*
X105347142Y-99797142D01*
X105304285Y-100225714D01*
X105347142Y-100182857D01*
X105432857Y-100140000D01*
X105647142Y-100140000D01*
X105732857Y-100182857D01*
X105775714Y-100225714D01*
X105818571Y-100311428D01*
X105818571Y-100525714D01*
X105775714Y-100611428D01*
X105732857Y-100654285D01*
X105647142Y-100697142D01*
X105432857Y-100697142D01*
X105347142Y-100654285D01*
X105304285Y-100611428D01*
X106075714Y-99797142D02*
X106375714Y-100697142D01*
X106675714Y-99797142D01*
D12*
X103662857Y-114018571D02*
X103662857Y-112518571D01*
X104020000Y-112518571D01*
X104234285Y-112590000D01*
X104377142Y-112732857D01*
X104448571Y-112875714D01*
X104520000Y-113161428D01*
X104520000Y-113375714D01*
X104448571Y-113661428D01*
X104377142Y-113804285D01*
X104234285Y-113947142D01*
X104020000Y-114018571D01*
X103662857Y-114018571D01*
X106305714Y-114018571D02*
X106305714Y-112518571D01*
X107020000Y-114018571D02*
X107020000Y-112518571D01*
X107877142Y-114018571D01*
X107877142Y-112518571D01*
X84140000Y-113875714D02*
X84068571Y-113947142D01*
X83854285Y-114018571D01*
X83711428Y-114018571D01*
X83497142Y-113947142D01*
X83354285Y-113804285D01*
X83282857Y-113661428D01*
X83211428Y-113375714D01*
X83211428Y-113161428D01*
X83282857Y-112875714D01*
X83354285Y-112732857D01*
X83497142Y-112590000D01*
X83711428Y-112518571D01*
X83854285Y-112518571D01*
X84068571Y-112590000D01*
X84140000Y-112661428D01*
X85925714Y-114018571D02*
X85925714Y-112518571D01*
X86640000Y-114018571D02*
X86640000Y-112518571D01*
X87497142Y-114018571D01*
X87497142Y-112518571D01*
X113112857Y-114008571D02*
X113112857Y-112508571D01*
X113470000Y-112508571D01*
X113684285Y-112580000D01*
X113827142Y-112722857D01*
X113898571Y-112865714D01*
X113970000Y-113151428D01*
X113970000Y-113365714D01*
X113898571Y-113651428D01*
X113827142Y-113794285D01*
X113684285Y-113937142D01*
X113470000Y-114008571D01*
X113112857Y-114008571D01*
X116041428Y-112508571D02*
X116327142Y-112508571D01*
X116470000Y-112580000D01*
X116612857Y-112722857D01*
X116684285Y-113008571D01*
X116684285Y-113508571D01*
X116612857Y-113794285D01*
X116470000Y-113937142D01*
X116327142Y-114008571D01*
X116041428Y-114008571D01*
X115898571Y-113937142D01*
X115755714Y-113794285D01*
X115684285Y-113508571D01*
X115684285Y-113008571D01*
X115755714Y-112722857D01*
X115898571Y-112580000D01*
X116041428Y-112508571D01*
X117327142Y-112508571D02*
X117327142Y-113722857D01*
X117398571Y-113865714D01*
X117470000Y-113937142D01*
X117612857Y-114008571D01*
X117898571Y-114008571D01*
X118041428Y-113937142D01*
X118112857Y-113865714D01*
X118184285Y-113722857D01*
X118184285Y-112508571D01*
X118684285Y-112508571D02*
X119541428Y-112508571D01*
X119112857Y-114008571D02*
X119112857Y-112508571D01*
X93050000Y-113875714D02*
X92978571Y-113947142D01*
X92764285Y-114018571D01*
X92621428Y-114018571D01*
X92407142Y-113947142D01*
X92264285Y-113804285D01*
X92192857Y-113661428D01*
X92121428Y-113375714D01*
X92121428Y-113161428D01*
X92192857Y-112875714D01*
X92264285Y-112732857D01*
X92407142Y-112590000D01*
X92621428Y-112518571D01*
X92764285Y-112518571D01*
X92978571Y-112590000D01*
X93050000Y-112661428D01*
X95121428Y-112518571D02*
X95407142Y-112518571D01*
X95550000Y-112590000D01*
X95692857Y-112732857D01*
X95764285Y-113018571D01*
X95764285Y-113518571D01*
X95692857Y-113804285D01*
X95550000Y-113947142D01*
X95407142Y-114018571D01*
X95121428Y-114018571D01*
X94978571Y-113947142D01*
X94835714Y-113804285D01*
X94764285Y-113518571D01*
X94764285Y-113018571D01*
X94835714Y-112732857D01*
X94978571Y-112590000D01*
X95121428Y-112518571D01*
X96407142Y-112518571D02*
X96407142Y-113732857D01*
X96478571Y-113875714D01*
X96550000Y-113947142D01*
X96692857Y-114018571D01*
X96978571Y-114018571D01*
X97121428Y-113947142D01*
X97192857Y-113875714D01*
X97264285Y-113732857D01*
X97264285Y-112518571D01*
X97764285Y-112518571D02*
X98621428Y-112518571D01*
X98192857Y-114018571D02*
X98192857Y-112518571D01*
X104042857Y-97982857D02*
X104257142Y-98054285D01*
X104328571Y-98125714D01*
X104400000Y-98268571D01*
X104400000Y-98482857D01*
X104328571Y-98625714D01*
X104257142Y-98697142D01*
X104114285Y-98768571D01*
X103542857Y-98768571D01*
X103542857Y-97268571D01*
X104042857Y-97268571D01*
X104185714Y-97340000D01*
X104257142Y-97411428D01*
X104328571Y-97554285D01*
X104328571Y-97697142D01*
X104257142Y-97840000D01*
X104185714Y-97911428D01*
X104042857Y-97982857D01*
X103542857Y-97982857D01*
X106185714Y-98768571D02*
X106185714Y-97268571D01*
X106900000Y-98768571D02*
X106900000Y-97268571D01*
X107757142Y-98768571D01*
X107757142Y-97268571D01*
X113662857Y-97922857D02*
X113877142Y-97994285D01*
X113948571Y-98065714D01*
X114020000Y-98208571D01*
X114020000Y-98422857D01*
X113948571Y-98565714D01*
X113877142Y-98637142D01*
X113734285Y-98708571D01*
X113162857Y-98708571D01*
X113162857Y-97208571D01*
X113662857Y-97208571D01*
X113805714Y-97280000D01*
X113877142Y-97351428D01*
X113948571Y-97494285D01*
X113948571Y-97637142D01*
X113877142Y-97780000D01*
X113805714Y-97851428D01*
X113662857Y-97922857D01*
X113162857Y-97922857D01*
X116091428Y-97208571D02*
X116377142Y-97208571D01*
X116520000Y-97280000D01*
X116662857Y-97422857D01*
X116734285Y-97708571D01*
X116734285Y-98208571D01*
X116662857Y-98494285D01*
X116520000Y-98637142D01*
X116377142Y-98708571D01*
X116091428Y-98708571D01*
X115948571Y-98637142D01*
X115805714Y-98494285D01*
X115734285Y-98208571D01*
X115734285Y-97708571D01*
X115805714Y-97422857D01*
X115948571Y-97280000D01*
X116091428Y-97208571D01*
X117377142Y-97208571D02*
X117377142Y-98422857D01*
X117448571Y-98565714D01*
X117520000Y-98637142D01*
X117662857Y-98708571D01*
X117948571Y-98708571D01*
X118091428Y-98637142D01*
X118162857Y-98565714D01*
X118234285Y-98422857D01*
X118234285Y-97208571D01*
X118734285Y-97208571D02*
X119591428Y-97208571D01*
X119162857Y-98708571D02*
X119162857Y-97208571D01*
X92378571Y-98380000D02*
X93092857Y-98380000D01*
X92235714Y-98808571D02*
X92735714Y-97308571D01*
X93235714Y-98808571D01*
X95164285Y-97308571D02*
X95450000Y-97308571D01*
X95592857Y-97380000D01*
X95735714Y-97522857D01*
X95807142Y-97808571D01*
X95807142Y-98308571D01*
X95735714Y-98594285D01*
X95592857Y-98737142D01*
X95450000Y-98808571D01*
X95164285Y-98808571D01*
X95021428Y-98737142D01*
X94878571Y-98594285D01*
X94807142Y-98308571D01*
X94807142Y-97808571D01*
X94878571Y-97522857D01*
X95021428Y-97380000D01*
X95164285Y-97308571D01*
X96450000Y-97308571D02*
X96450000Y-98522857D01*
X96521428Y-98665714D01*
X96592857Y-98737142D01*
X96735714Y-98808571D01*
X97021428Y-98808571D01*
X97164285Y-98737142D01*
X97235714Y-98665714D01*
X97307142Y-98522857D01*
X97307142Y-97308571D01*
X97807142Y-97308571D02*
X98664285Y-97308571D01*
X98235714Y-98808571D02*
X98235714Y-97308571D01*
X83468571Y-98450000D02*
X84182857Y-98450000D01*
X83325714Y-98878571D02*
X83825714Y-97378571D01*
X84325714Y-98878571D01*
X85968571Y-98878571D02*
X85968571Y-97378571D01*
X86682857Y-98878571D02*
X86682857Y-97378571D01*
X87540000Y-98878571D01*
X87540000Y-97378571D01*
D13*
X103834285Y-36537142D02*
X103834285Y-33537142D01*
X104548571Y-33537142D01*
X104977142Y-33680000D01*
X105262857Y-33965714D01*
X105405714Y-34251428D01*
X105548571Y-34822857D01*
X105548571Y-35251428D01*
X105405714Y-35822857D01*
X105262857Y-36108571D01*
X104977142Y-36394285D01*
X104548571Y-36537142D01*
X103834285Y-36537142D01*
X85095714Y-36201428D02*
X84952857Y-36344285D01*
X84524285Y-36487142D01*
X84238571Y-36487142D01*
X83810000Y-36344285D01*
X83524285Y-36058571D01*
X83381428Y-35772857D01*
X83238571Y-35201428D01*
X83238571Y-34772857D01*
X83381428Y-34201428D01*
X83524285Y-33915714D01*
X83810000Y-33630000D01*
X84238571Y-33487142D01*
X84524285Y-33487142D01*
X84952857Y-33630000D01*
X85095714Y-33772857D01*
X104834285Y-14575714D02*
X105262857Y-14718571D01*
X105405714Y-14861428D01*
X105548571Y-15147142D01*
X105548571Y-15575714D01*
X105405714Y-15861428D01*
X105262857Y-16004285D01*
X104977142Y-16147142D01*
X103834285Y-16147142D01*
X103834285Y-13147142D01*
X104834285Y-13147142D01*
X105120000Y-13290000D01*
X105262857Y-13432857D01*
X105405714Y-13718571D01*
X105405714Y-14004285D01*
X105262857Y-14290000D01*
X105120000Y-14432857D01*
X104834285Y-14575714D01*
X103834285Y-14575714D01*
X83345714Y-15290000D02*
X84774285Y-15290000D01*
X83060000Y-16147142D02*
X84060000Y-13147142D01*
X85060000Y-16147142D01*
D12*
X102387142Y-50507142D02*
X103530000Y-50507142D01*
X104172857Y-49721428D02*
X104244285Y-49650000D01*
X104387142Y-49578571D01*
X104744285Y-49578571D01*
X104887142Y-49650000D01*
X104958571Y-49721428D01*
X105030000Y-49864285D01*
X105030000Y-50007142D01*
X104958571Y-50221428D01*
X104101428Y-51078571D01*
X105030000Y-51078571D01*
X105530000Y-51078571D02*
X106315714Y-50078571D01*
X105530000Y-50078571D02*
X106315714Y-51078571D01*
X116454285Y-49651428D02*
X116525714Y-49580000D01*
X116668571Y-49508571D01*
X117025714Y-49508571D01*
X117168571Y-49580000D01*
X117240000Y-49651428D01*
X117311428Y-49794285D01*
X117311428Y-49937142D01*
X117240000Y-50151428D01*
X116382857Y-51008571D01*
X117311428Y-51008571D01*
X117811428Y-51008571D02*
X118597142Y-50008571D01*
X117811428Y-50008571D02*
X118597142Y-51008571D01*
X82487142Y-50507142D02*
X83630000Y-50507142D01*
X84272857Y-49721428D02*
X84344285Y-49650000D01*
X84487142Y-49578571D01*
X84844285Y-49578571D01*
X84987142Y-49650000D01*
X85058571Y-49721428D01*
X85130000Y-49864285D01*
X85130000Y-50007142D01*
X85058571Y-50221428D01*
X84201428Y-51078571D01*
X85130000Y-51078571D01*
X85630000Y-51078571D02*
X86415714Y-50078571D01*
X85630000Y-50078571D02*
X86415714Y-51078571D01*
X96164285Y-49641428D02*
X96235714Y-49570000D01*
X96378571Y-49498571D01*
X96735714Y-49498571D01*
X96878571Y-49570000D01*
X96950000Y-49641428D01*
X97021428Y-49784285D01*
X97021428Y-49927142D01*
X96950000Y-50141428D01*
X96092857Y-50998571D01*
X97021428Y-50998571D01*
X97521428Y-50998571D02*
X98307142Y-49998571D01*
X97521428Y-49998571D02*
X98307142Y-50998571D01*
X102357142Y-30147142D02*
X103500000Y-30147142D01*
X104142857Y-29361428D02*
X104214285Y-29290000D01*
X104357142Y-29218571D01*
X104714285Y-29218571D01*
X104857142Y-29290000D01*
X104928571Y-29361428D01*
X105000000Y-29504285D01*
X105000000Y-29647142D01*
X104928571Y-29861428D01*
X104071428Y-30718571D01*
X105000000Y-30718571D01*
X105500000Y-30718571D02*
X106285714Y-29718571D01*
X105500000Y-29718571D02*
X106285714Y-30718571D01*
X116424285Y-29291428D02*
X116495714Y-29220000D01*
X116638571Y-29148571D01*
X116995714Y-29148571D01*
X117138571Y-29220000D01*
X117210000Y-29291428D01*
X117281428Y-29434285D01*
X117281428Y-29577142D01*
X117210000Y-29791428D01*
X116352857Y-30648571D01*
X117281428Y-30648571D01*
X117781428Y-30648571D02*
X118567142Y-29648571D01*
X117781428Y-29648571D02*
X118567142Y-30648571D01*
X96991428Y-30638571D02*
X96134285Y-30638571D01*
X96562857Y-30638571D02*
X96562857Y-29138571D01*
X96420000Y-29352857D01*
X96277142Y-29495714D01*
X96134285Y-29567142D01*
X97491428Y-30638571D02*
X98277142Y-29638571D01*
X97491428Y-29638571D02*
X98277142Y-30638571D01*
X90341428Y-13008571D02*
X90484285Y-13008571D01*
X90627142Y-13080000D01*
X90698571Y-13151428D01*
X90770000Y-13294285D01*
X90841428Y-13580000D01*
X90841428Y-13937142D01*
X90770000Y-14222857D01*
X90698571Y-14365714D01*
X90627142Y-14437142D01*
X90484285Y-14508571D01*
X90341428Y-14508571D01*
X90198571Y-14437142D01*
X90127142Y-14365714D01*
X90055714Y-14222857D01*
X89984285Y-13937142D01*
X89984285Y-13580000D01*
X90055714Y-13294285D01*
X90127142Y-13151428D01*
X90198571Y-13080000D01*
X90341428Y-13008571D01*
X91341428Y-14508571D02*
X92127142Y-13508571D01*
X91341428Y-13508571D02*
X92127142Y-14508571D01*
X110091428Y-13008571D02*
X110234285Y-13008571D01*
X110377142Y-13080000D01*
X110448571Y-13151428D01*
X110520000Y-13294285D01*
X110591428Y-13580000D01*
X110591428Y-13937142D01*
X110520000Y-14222857D01*
X110448571Y-14365714D01*
X110377142Y-14437142D01*
X110234285Y-14508571D01*
X110091428Y-14508571D01*
X109948571Y-14437142D01*
X109877142Y-14365714D01*
X109805714Y-14222857D01*
X109734285Y-13937142D01*
X109734285Y-13580000D01*
X109805714Y-13294285D01*
X109877142Y-13151428D01*
X109948571Y-13080000D01*
X110091428Y-13008571D01*
X111091428Y-14508571D02*
X111877142Y-13508571D01*
X111091428Y-13508571D02*
X111877142Y-14508571D01*
X82457142Y-30147142D02*
X83600000Y-30147142D01*
X85100000Y-30718571D02*
X84242857Y-30718571D01*
X84671428Y-30718571D02*
X84671428Y-29218571D01*
X84528571Y-29432857D01*
X84385714Y-29575714D01*
X84242857Y-29647142D01*
X85600000Y-30718571D02*
X86385714Y-29718571D01*
X85600000Y-29718571D02*
X86385714Y-30718571D01*
X109991428Y-33488571D02*
X110134285Y-33488571D01*
X110277142Y-33560000D01*
X110348571Y-33631428D01*
X110420000Y-33774285D01*
X110491428Y-34060000D01*
X110491428Y-34417142D01*
X110420000Y-34702857D01*
X110348571Y-34845714D01*
X110277142Y-34917142D01*
X110134285Y-34988571D01*
X109991428Y-34988571D01*
X109848571Y-34917142D01*
X109777142Y-34845714D01*
X109705714Y-34702857D01*
X109634285Y-34417142D01*
X109634285Y-34060000D01*
X109705714Y-33774285D01*
X109777142Y-33631428D01*
X109848571Y-33560000D01*
X109991428Y-33488571D01*
X110991428Y-34988571D02*
X111777142Y-33988571D01*
X110991428Y-33988571D02*
X111777142Y-34988571D01*
X90291428Y-33298571D02*
X90434285Y-33298571D01*
X90577142Y-33370000D01*
X90648571Y-33441428D01*
X90720000Y-33584285D01*
X90791428Y-33870000D01*
X90791428Y-34227142D01*
X90720000Y-34512857D01*
X90648571Y-34655714D01*
X90577142Y-34727142D01*
X90434285Y-34798571D01*
X90291428Y-34798571D01*
X90148571Y-34727142D01*
X90077142Y-34655714D01*
X90005714Y-34512857D01*
X89934285Y-34227142D01*
X89934285Y-33870000D01*
X90005714Y-33584285D01*
X90077142Y-33441428D01*
X90148571Y-33370000D01*
X90291428Y-33298571D01*
X91291428Y-34798571D02*
X92077142Y-33798571D01*
X91291428Y-33798571D02*
X92077142Y-34798571D01*
D13*
X120813527Y-91820000D02*
G75*
G03X120813527Y-91820000I-4693527J0D01*
G01*
X100663527Y-91810000D02*
G75*
G03X100663527Y-91810000I-4693527J0D01*
G01*
X100653527Y-106540000D02*
G75*
G03X100653527Y-106540000I-4693527J0D01*
G01*
X120823527Y-106550000D02*
G75*
G03X120823527Y-106550000I-4693527J0D01*
G01*
D14*
X96514285Y-2720000D02*
X97228571Y-2720000D01*
X96371428Y-3148571D02*
X96871428Y-1648571D01*
X97371428Y-3148571D01*
X97657142Y-1648571D02*
X98514285Y-1648571D01*
X98085714Y-3148571D02*
X98085714Y-1648571D01*
X98800000Y-1648571D02*
X99657142Y-1648571D01*
X99228571Y-3148571D02*
X99228571Y-1648571D01*
X100157142Y-2362857D02*
X100657142Y-2362857D01*
X100871428Y-3148571D02*
X100157142Y-3148571D01*
X100157142Y-1648571D01*
X100871428Y-1648571D01*
X101514285Y-3148571D02*
X101514285Y-1648571D01*
X102371428Y-3148571D01*
X102371428Y-1648571D01*
X103085714Y-1648571D02*
X103085714Y-2862857D01*
X103157142Y-3005714D01*
X103228571Y-3077142D01*
X103371428Y-3148571D01*
X103657142Y-3148571D01*
X103800000Y-3077142D01*
X103871428Y-3005714D01*
X103942857Y-2862857D01*
X103942857Y-1648571D01*
X104442857Y-1648571D02*
X104942857Y-3148571D01*
X105442857Y-1648571D01*
X105942857Y-2362857D02*
X106442857Y-2362857D01*
X106657142Y-3148571D02*
X105942857Y-3148571D01*
X105942857Y-1648571D01*
X106657142Y-1648571D01*
X108157142Y-3148571D02*
X107657142Y-2434285D01*
X107300000Y-3148571D02*
X107300000Y-1648571D01*
X107871428Y-1648571D01*
X108014285Y-1720000D01*
X108085714Y-1791428D01*
X108157142Y-1934285D01*
X108157142Y-2148571D01*
X108085714Y-2291428D01*
X108014285Y-2362857D01*
X107871428Y-2434285D01*
X107300000Y-2434285D01*
X108585714Y-1648571D02*
X109442857Y-1648571D01*
X109014285Y-3148571D02*
X109014285Y-1648571D01*
X109942857Y-2362857D02*
X110442857Y-2362857D01*
X110657142Y-3148571D02*
X109942857Y-3148571D01*
X109942857Y-1648571D01*
X110657142Y-1648571D01*
X112157142Y-3148571D02*
X111657142Y-2434285D01*
X111300000Y-3148571D02*
X111300000Y-1648571D01*
X111871428Y-1648571D01*
X112014285Y-1720000D01*
X112085714Y-1791428D01*
X112157142Y-1934285D01*
X112157142Y-2148571D01*
X112085714Y-2291428D01*
X112014285Y-2362857D01*
X111871428Y-2434285D01*
X111300000Y-2434285D01*
X112728571Y-3077142D02*
X112942857Y-3148571D01*
X113300000Y-3148571D01*
X113442857Y-3077142D01*
X113514285Y-3005714D01*
X113585714Y-2862857D01*
X113585714Y-2720000D01*
X113514285Y-2577142D01*
X113442857Y-2505714D01*
X113300000Y-2434285D01*
X113014285Y-2362857D01*
X112871428Y-2291428D01*
X112800000Y-2220000D01*
X112728571Y-2077142D01*
X112728571Y-1934285D01*
X112800000Y-1791428D01*
X112871428Y-1720000D01*
X113014285Y-1648571D01*
X113371428Y-1648571D01*
X113585714Y-1720000D01*
D12*
X94839642Y-125048571D02*
X95027142Y-123548571D01*
X95393214Y-124620000D01*
X96027142Y-123548571D01*
X95839642Y-125048571D01*
X96536071Y-124620000D02*
X97250357Y-124620000D01*
X96339642Y-125048571D02*
X97027142Y-123548571D01*
X97339642Y-125048571D01*
X97812857Y-123548571D02*
X98670000Y-123548571D01*
X98053928Y-125048571D02*
X98241428Y-123548571D01*
X99080714Y-124262857D02*
X99580714Y-124262857D01*
X99696785Y-125048571D02*
X98982500Y-125048571D01*
X99170000Y-123548571D01*
X99884285Y-123548571D01*
X101196785Y-125048571D02*
X100786071Y-124334285D01*
X100339642Y-125048571D02*
X100527142Y-123548571D01*
X101098571Y-123548571D01*
X101232500Y-123620000D01*
X101295000Y-123691428D01*
X101348571Y-123834285D01*
X101321785Y-124048571D01*
X101232500Y-124191428D01*
X101152142Y-124262857D01*
X101000357Y-124334285D01*
X100428928Y-124334285D01*
X101839642Y-125048571D02*
X102027142Y-123548571D01*
X102536071Y-124620000D02*
X103250357Y-124620000D01*
X102339642Y-125048571D02*
X103027142Y-123548571D01*
X103339642Y-125048571D01*
X104553928Y-125048571D02*
X103839642Y-125048571D01*
X104027142Y-123548571D01*
X106196785Y-125048571D02*
X106384285Y-123548571D01*
X106750357Y-124620000D01*
X107384285Y-123548571D01*
X107196785Y-125048571D01*
X108009285Y-124262857D02*
X108509285Y-124262857D01*
X108625357Y-125048571D02*
X107911071Y-125048571D01*
X108098571Y-123548571D01*
X108812857Y-123548571D01*
X109241428Y-123548571D02*
X110098571Y-123548571D01*
X109482500Y-125048571D02*
X109670000Y-123548571D01*
X110411071Y-125048571D02*
X110598571Y-123548571D01*
X110509285Y-124262857D02*
X111366428Y-124262857D01*
X111268214Y-125048571D02*
X111455714Y-123548571D01*
X112455714Y-123548571D02*
X112741428Y-123548571D01*
X112875357Y-123620000D01*
X113000357Y-123762857D01*
X113036071Y-124048571D01*
X112973571Y-124548571D01*
X112866428Y-124834285D01*
X112705714Y-124977142D01*
X112553928Y-125048571D01*
X112268214Y-125048571D01*
X112134285Y-124977142D01*
X112009285Y-124834285D01*
X111973571Y-124548571D01*
X112036071Y-124048571D01*
X112143214Y-123762857D01*
X112303928Y-123620000D01*
X112455714Y-123548571D01*
X113553928Y-125048571D02*
X113741428Y-123548571D01*
X114098571Y-123548571D01*
X114303928Y-123620000D01*
X114428928Y-123762857D01*
X114482500Y-123905714D01*
X114518214Y-124191428D01*
X114491428Y-124405714D01*
X114384285Y-124691428D01*
X114295000Y-124834285D01*
X114134285Y-124977142D01*
X113911071Y-125048571D01*
X113553928Y-125048571D01*
X114991428Y-124977142D02*
X115196785Y-125048571D01*
X115553928Y-125048571D01*
X115705714Y-124977142D01*
X115786071Y-124905714D01*
X115875357Y-124762857D01*
X115893214Y-124620000D01*
X115839642Y-124477142D01*
X115777142Y-124405714D01*
X115643214Y-124334285D01*
X115366428Y-124262857D01*
X115232500Y-124191428D01*
X115170000Y-124120000D01*
X115116428Y-123977142D01*
X115134285Y-123834285D01*
X115223571Y-123691428D01*
X115303928Y-123620000D01*
X115455714Y-123548571D01*
X115812857Y-123548571D01*
X116018214Y-123620000D01*
D13*
X81060000Y-120600000D02*
X121360000Y-120580000D01*
X81060000Y-6110000D02*
X121290000Y-6110000D01*
D15*
G36*
X91051176Y-35556378D02*
X91076207Y-35577151D01*
X91093123Y-35615487D01*
X91103453Y-35682923D01*
X91108724Y-35791001D01*
X91110464Y-35951260D01*
X91110526Y-36004728D01*
X91110526Y-36421315D01*
X91292630Y-36421315D01*
X91445030Y-36427980D01*
X91643636Y-36446257D01*
X91869332Y-36473573D01*
X92103007Y-36507353D01*
X92325546Y-36545023D01*
X92517835Y-36584007D01*
X92541915Y-36589580D01*
X92673499Y-36619584D01*
X92781958Y-36642395D01*
X92849478Y-36654333D01*
X92860092Y-36655263D01*
X92891117Y-36626153D01*
X92931593Y-36550495D01*
X92966071Y-36463092D01*
X93013601Y-36344985D01*
X93058694Y-36281250D01*
X93102003Y-36260953D01*
X93181682Y-36267629D01*
X93220569Y-36318906D01*
X93219854Y-36418588D01*
X93189781Y-36541656D01*
X93129871Y-36738440D01*
X93484368Y-36877230D01*
X93895494Y-37051645D01*
X94285446Y-37243119D01*
X94568609Y-37402408D01*
X94764184Y-37520221D01*
X94885372Y-37346755D01*
X94981825Y-37229960D01*
X95063298Y-37177730D01*
X95130669Y-37189696D01*
X95165689Y-37229109D01*
X95177245Y-37273545D01*
X95157992Y-37336453D01*
X95102727Y-37432218D01*
X95079237Y-37468166D01*
X94957575Y-37651402D01*
X95188836Y-37823369D01*
X95430951Y-38015804D01*
X95689942Y-38243254D01*
X95944148Y-38486121D01*
X96107250Y-38654380D01*
X96308052Y-38869269D01*
X96452978Y-38748187D01*
X96571014Y-38666613D01*
X96670667Y-38630674D01*
X96742719Y-38642351D01*
X96771699Y-38679658D01*
X96773254Y-38742233D01*
X96749257Y-38812245D01*
X96712310Y-38858006D01*
X96699021Y-38862411D01*
X96661124Y-38883188D01*
X96594014Y-38933848D01*
X96563658Y-38959136D01*
X96452184Y-39054503D01*
X96633669Y-39300344D01*
X96773341Y-39499830D01*
X96918147Y-39724463D01*
X97056942Y-39955577D01*
X97178581Y-40174505D01*
X97271920Y-40362580D01*
X97283755Y-40389186D01*
X97332243Y-40493982D01*
X97372444Y-40569184D01*
X97395854Y-40598923D01*
X97396184Y-40598947D01*
X97433611Y-40586749D01*
X97519488Y-40553603D01*
X97640740Y-40504682D01*
X97773406Y-40449723D01*
X97946832Y-40379905D01*
X98070187Y-40338654D01*
X98153237Y-40324741D01*
X98205745Y-40336937D01*
X98237475Y-40374014D01*
X98244638Y-40390420D01*
X98246064Y-40441729D01*
X98206284Y-40494423D01*
X98119150Y-40552840D01*
X97978514Y-40621318D01*
X97828158Y-40684332D01*
X97694503Y-40738428D01*
X97585932Y-40783114D01*
X97516158Y-40812704D01*
X97497746Y-40821384D01*
X97502108Y-40854952D01*
X97524222Y-40937803D01*
X97560153Y-41055995D01*
X97589407Y-41146231D01*
X97667352Y-41397320D01*
X97739820Y-41660644D01*
X97802448Y-41918109D01*
X97850875Y-42151625D01*
X97880741Y-42343100D01*
X97883109Y-42364699D01*
X97904802Y-42576372D01*
X98108783Y-42569736D01*
X98247318Y-42566033D01*
X98332196Y-42568484D01*
X98376560Y-42580867D01*
X98393552Y-42606958D01*
X98396315Y-42650535D01*
X98396316Y-42652369D01*
X98385734Y-42718216D01*
X98345613Y-42760770D01*
X98263389Y-42787256D01*
X98131994Y-42804385D01*
X97951225Y-42821447D01*
X97957607Y-43289342D01*
X97955843Y-43512365D01*
X97946204Y-43761783D01*
X97930315Y-44005236D01*
X97912478Y-44188619D01*
X97893916Y-44349800D01*
X97879686Y-44484654D01*
X97871018Y-44580613D01*
X97869139Y-44625110D01*
X97869628Y-44626693D01*
X97904101Y-44637146D01*
X97985140Y-44657646D01*
X98078816Y-44679916D01*
X98191094Y-44709175D01*
X98253336Y-44737521D01*
X98281431Y-44775073D01*
X98289505Y-44814085D01*
X98281536Y-44886390D01*
X98232231Y-44924034D01*
X98134928Y-44929217D01*
X98003542Y-44908512D01*
X97902860Y-44889789D01*
X97833306Y-44880966D01*
X97813639Y-44882277D01*
X97801595Y-44916846D01*
X97775190Y-45003409D01*
X97738104Y-45129598D01*
X97694016Y-45283046D01*
X97685555Y-45312839D01*
X97622296Y-45517413D01*
X97541668Y-45751475D01*
X97454736Y-45984026D01*
X97383819Y-46158132D01*
X97200948Y-46584137D01*
X97357902Y-46663672D01*
X97489923Y-46739690D01*
X97562548Y-46805864D01*
X97581354Y-46868047D01*
X97575492Y-46891995D01*
X97532858Y-46948400D01*
X97460748Y-46959406D01*
X97351880Y-46924765D01*
X97264879Y-46881422D01*
X97167166Y-46834142D01*
X97095242Y-46809943D01*
X97065670Y-46813384D01*
X97034867Y-46873712D01*
X96971457Y-46976008D01*
X96883329Y-47109061D01*
X96778373Y-47261661D01*
X96664479Y-47422597D01*
X96549537Y-47580661D01*
X96441437Y-47724641D01*
X96348068Y-47843328D01*
X96302864Y-47897204D01*
X96203857Y-48011527D01*
X96119403Y-48110371D01*
X96060490Y-48180797D01*
X96040522Y-48206000D01*
X96037968Y-48239375D01*
X96069305Y-48294864D01*
X96139670Y-48379305D01*
X96254200Y-48499532D01*
X96282825Y-48528441D01*
X96425156Y-48679324D01*
X96515524Y-48794925D01*
X96555995Y-48879316D01*
X96548634Y-48936573D01*
X96505293Y-48967345D01*
X96448195Y-48985168D01*
X96432096Y-48987631D01*
X96402791Y-48964990D01*
X96334187Y-48902028D01*
X96233747Y-48806185D01*
X96108936Y-48684901D01*
X95967217Y-48545616D01*
X95816052Y-48395772D01*
X95662906Y-48242809D01*
X95515241Y-48094167D01*
X95380521Y-47957286D01*
X95266209Y-47839608D01*
X95179769Y-47748571D01*
X95128664Y-47691618D01*
X95118710Y-47678276D01*
X95102091Y-47604501D01*
X95108038Y-47569658D01*
X95145024Y-47522879D01*
X95205734Y-47521971D01*
X95294258Y-47569004D01*
X95414683Y-47666050D01*
X95548641Y-47792829D01*
X95827232Y-48068552D01*
X96003314Y-47880801D01*
X96120576Y-47748812D01*
X96245392Y-47596396D01*
X96371979Y-47432034D01*
X96494554Y-47264205D01*
X96607335Y-47101392D01*
X96704538Y-46952073D01*
X96780380Y-46824729D01*
X96829079Y-46727841D01*
X96844852Y-46669889D01*
X96837384Y-46657680D01*
X96790594Y-46634059D01*
X96708854Y-46586177D01*
X96644011Y-46545940D01*
X96548596Y-46477946D01*
X96503657Y-46422924D01*
X96497436Y-46372094D01*
X96530708Y-46305667D01*
X96604916Y-46290198D01*
X96721023Y-46325658D01*
X96795890Y-46362913D01*
X96890708Y-46408648D01*
X96962976Y-46432849D01*
X96989421Y-46432905D01*
X97022070Y-46388494D01*
X97070727Y-46291402D01*
X97131281Y-46152693D01*
X97199620Y-45983429D01*
X97271634Y-45794672D01*
X97343209Y-45597483D01*
X97410236Y-45402925D01*
X97468602Y-45222061D01*
X97514196Y-45065952D01*
X97542907Y-44945661D01*
X97543650Y-44941731D01*
X97565826Y-44822804D01*
X97354426Y-44774625D01*
X97238839Y-44745509D01*
X97173587Y-44718271D01*
X97143155Y-44683310D01*
X97132728Y-44637408D01*
X97144397Y-44561470D01*
X97203847Y-44524400D01*
X97314507Y-44524951D01*
X97398195Y-44540782D01*
X97495422Y-44561541D01*
X97566939Y-44573860D01*
X97581792Y-44575235D01*
X97605059Y-44544135D01*
X97628727Y-44457136D01*
X97651872Y-44325167D01*
X97673570Y-44159157D01*
X97692894Y-43970037D01*
X97708920Y-43768735D01*
X97720723Y-43566181D01*
X97727377Y-43373305D01*
X97727957Y-43201036D01*
X97721539Y-43060304D01*
X97714953Y-43002038D01*
X97692268Y-42850762D01*
X97492761Y-42865193D01*
X97341412Y-42864163D01*
X97240250Y-42837050D01*
X97195042Y-42785695D01*
X97193158Y-42769610D01*
X97222574Y-42711285D01*
X97295204Y-42662485D01*
X97387619Y-42637896D01*
X97404427Y-42637175D01*
X97544150Y-42626685D01*
X97626848Y-42594452D01*
X97659757Y-42537126D01*
X97661053Y-42518456D01*
X97652531Y-42420536D01*
X97629005Y-42277900D01*
X97593532Y-42102519D01*
X97549171Y-41906365D01*
X97498980Y-41701411D01*
X97446018Y-41499628D01*
X97393342Y-41312988D01*
X97344011Y-41153462D01*
X97301083Y-41033023D01*
X97267616Y-40963642D01*
X97262097Y-40956701D01*
X97223130Y-40958242D01*
X97135875Y-40982228D01*
X97013386Y-41024545D01*
X96873318Y-41079191D01*
X96684068Y-41151962D01*
X96547330Y-41192071D01*
X96457372Y-41199654D01*
X96408463Y-41174844D01*
X96394871Y-41117774D01*
X96397380Y-41090326D01*
X96414817Y-41052717D01*
X96462410Y-41012409D01*
X96549522Y-40963761D01*
X96685513Y-40901130D01*
X96775395Y-40862542D01*
X96935745Y-40792740D01*
X97042374Y-40740607D01*
X97104266Y-40700657D01*
X97130403Y-40667402D01*
X97132142Y-40644626D01*
X97105719Y-40567832D01*
X97048764Y-40446996D01*
X96968073Y-40293527D01*
X96870442Y-40118832D01*
X96762666Y-39934318D01*
X96651542Y-39751394D01*
X96543864Y-39581466D01*
X96446428Y-39435942D01*
X96366030Y-39326230D01*
X96309585Y-39263835D01*
X96271949Y-39245379D01*
X96225001Y-39257696D01*
X96152893Y-39307053D01*
X96106803Y-39344009D01*
X95992012Y-39425001D01*
X95906620Y-39451966D01*
X95842284Y-39426047D01*
X95809766Y-39384674D01*
X95797057Y-39345993D01*
X95813512Y-39302706D01*
X95867332Y-39242009D01*
X95949722Y-39166152D01*
X96126680Y-39008876D01*
X95715774Y-38607728D01*
X95506428Y-38408326D01*
X95307119Y-38227944D01*
X95126791Y-38074218D01*
X94974383Y-37954784D01*
X94864118Y-37880344D01*
X94822242Y-37892482D01*
X94758913Y-37957818D01*
X94715929Y-38016483D01*
X94638433Y-38125584D01*
X94583485Y-38186106D01*
X94539173Y-38206746D01*
X94493589Y-38196200D01*
X94479498Y-38189123D01*
X94431823Y-38145455D01*
X94426247Y-38080874D01*
X94464218Y-37985455D01*
X94523885Y-37884967D01*
X94581334Y-37792453D01*
X94605230Y-37738308D01*
X94599023Y-37705237D01*
X94566164Y-37675944D01*
X94565661Y-37675573D01*
X94474662Y-37617234D01*
X94341077Y-37542739D01*
X94176138Y-37457291D01*
X93991078Y-37366094D01*
X93797127Y-37274349D01*
X93605519Y-37187261D01*
X93427485Y-37110033D01*
X93274258Y-37047867D01*
X93157069Y-37005967D01*
X93087150Y-36989536D01*
X93084562Y-36989473D01*
X93057655Y-37018839D01*
X93023349Y-37094687D01*
X92998192Y-37170490D01*
X92949599Y-37309061D01*
X92899344Y-37386891D01*
X92841634Y-37409953D01*
X92783715Y-37391669D01*
X92735512Y-37355930D01*
X92718456Y-37306388D01*
X92731389Y-37226540D01*
X92764868Y-37123158D01*
X92795538Y-37027147D01*
X92813259Y-36954083D01*
X92815000Y-36937883D01*
X92783365Y-36907762D01*
X92694967Y-36873012D01*
X92559562Y-36835545D01*
X92386908Y-36797271D01*
X92186763Y-36760103D01*
X91968883Y-36725949D01*
X91743027Y-36696723D01*
X91518952Y-36674334D01*
X91437449Y-36668096D01*
X91112662Y-36645547D01*
X91103239Y-37056239D01*
X91097602Y-37235587D01*
X91089325Y-37359103D01*
X91076841Y-37437789D01*
X91058581Y-37482648D01*
X91039872Y-37500890D01*
X90967003Y-37519789D01*
X90931253Y-37513867D01*
X90908132Y-37496174D01*
X90892467Y-37456751D01*
X90882895Y-37384655D01*
X90878057Y-37268942D01*
X90876593Y-37098668D01*
X90876579Y-37074075D01*
X90876579Y-36655263D01*
X90711185Y-36655263D01*
X90567382Y-36661828D01*
X90376590Y-36679842D01*
X90157183Y-36706782D01*
X89927538Y-36740125D01*
X89706030Y-36777347D01*
X89511036Y-36815926D01*
X89464539Y-36826429D01*
X89316007Y-36863286D01*
X89224174Y-36897535D01*
X89180418Y-36940736D01*
X89176116Y-37004448D01*
X89202645Y-37100234D01*
X89220962Y-37152965D01*
X89252335Y-37278772D01*
X89239786Y-37360437D01*
X89186232Y-37403604D01*
X89115499Y-37410360D01*
X89058237Y-37365677D01*
X89008824Y-37263459D01*
X88984039Y-37184384D01*
X88951466Y-37075514D01*
X88924694Y-37018185D01*
X88893093Y-36999150D01*
X88846033Y-37005159D01*
X88841186Y-37006349D01*
X88724923Y-37042386D01*
X88575328Y-37099368D01*
X88402376Y-37172371D01*
X88216040Y-37256472D01*
X88026292Y-37346745D01*
X87843106Y-37438268D01*
X87676455Y-37526116D01*
X87536313Y-37605364D01*
X87432652Y-37671090D01*
X87375446Y-37718368D01*
X87367368Y-37734014D01*
X87384968Y-37775849D01*
X87430078Y-37851861D01*
X87467632Y-37908552D01*
X87539505Y-38026834D01*
X87564002Y-38108765D01*
X87542524Y-38163694D01*
X87509408Y-38186939D01*
X87450013Y-38205903D01*
X87396770Y-38188902D01*
X87337476Y-38127761D01*
X87266109Y-38023973D01*
X87202632Y-37931708D01*
X87157805Y-37888380D01*
X87118855Y-37883928D01*
X87099019Y-37892367D01*
X87005115Y-37953146D01*
X86875485Y-38051690D01*
X86721483Y-38178318D01*
X86554466Y-38323347D01*
X86385787Y-38477097D01*
X86226803Y-38629886D01*
X86185619Y-38671128D01*
X85856106Y-39004543D01*
X86026869Y-39161534D01*
X86125601Y-39256007D01*
X86178680Y-39320278D01*
X86192176Y-39366481D01*
X86172165Y-39406745D01*
X86157526Y-39422526D01*
X86100794Y-39457225D01*
X86032517Y-39448962D01*
X85940408Y-39394359D01*
X85877949Y-39345658D01*
X85794363Y-39281152D01*
X85730509Y-39239092D01*
X85707402Y-39229658D01*
X85667170Y-39258418D01*
X85602050Y-39336430D01*
X85517776Y-39454016D01*
X85420079Y-39601497D01*
X85314692Y-39769194D01*
X85207350Y-39947429D01*
X85103783Y-40126523D01*
X85009725Y-40296797D01*
X84930910Y-40448572D01*
X84873068Y-40572170D01*
X84841935Y-40657911D01*
X84840452Y-40693341D01*
X84876151Y-40715704D01*
X84960833Y-40756650D01*
X85081353Y-40810103D01*
X85207247Y-40862918D01*
X85376651Y-40935311D01*
X85490527Y-40992996D01*
X85556847Y-41042137D01*
X85583582Y-41088897D01*
X85578706Y-41139440D01*
X85575709Y-41147810D01*
X85548915Y-41189337D01*
X85502920Y-41206711D01*
X85428122Y-41198577D01*
X85314916Y-41163579D01*
X85153697Y-41100360D01*
X85109558Y-41081996D01*
X84966701Y-41024605D01*
X84845988Y-40980718D01*
X84760792Y-40954892D01*
X84725241Y-40951020D01*
X84699472Y-40992758D01*
X84661523Y-41086880D01*
X84615223Y-41220873D01*
X84564396Y-41382223D01*
X84512869Y-41558418D01*
X84464470Y-41736943D01*
X84423024Y-41905285D01*
X84398132Y-42020729D01*
X84357419Y-42227143D01*
X84328805Y-42377284D01*
X84311800Y-42480524D01*
X84305916Y-42546238D01*
X84310664Y-42583799D01*
X84325556Y-42602579D01*
X84350103Y-42611953D01*
X84367082Y-42616371D01*
X84453522Y-42630576D01*
X84558965Y-42637136D01*
X84564263Y-42637175D01*
X84676848Y-42657523D01*
X84742958Y-42712823D01*
X84754255Y-42794776D01*
X84738099Y-42827000D01*
X84695731Y-42845565D01*
X84612600Y-42854118D01*
X84509193Y-42856189D01*
X84275921Y-42857509D01*
X84266757Y-43340794D01*
X84266859Y-43518847D01*
X84272746Y-43714252D01*
X84283390Y-43914771D01*
X84297760Y-44108165D01*
X84314826Y-44282195D01*
X84333560Y-44424624D01*
X84352932Y-44523212D01*
X84369659Y-44563957D01*
X84409494Y-44567408D01*
X84493919Y-44557746D01*
X84575720Y-44542837D01*
X84721008Y-44524525D01*
X84812488Y-44542406D01*
X84853376Y-44597794D01*
X84854047Y-44656680D01*
X84835321Y-44698980D01*
X84783932Y-44731572D01*
X84685783Y-44761954D01*
X84631974Y-44774780D01*
X84419870Y-44823113D01*
X84441298Y-44958596D01*
X84465462Y-45068968D01*
X84507224Y-45215643D01*
X84562589Y-45388145D01*
X84627563Y-45575996D01*
X84698152Y-45768719D01*
X84770360Y-45955837D01*
X84840194Y-46126873D01*
X84903659Y-46271350D01*
X84956761Y-46378789D01*
X84995505Y-46438716D01*
X85008999Y-46447631D01*
X85046267Y-46432675D01*
X85122799Y-46394056D01*
X85193694Y-46355723D01*
X85297906Y-46303392D01*
X85365789Y-46285759D01*
X85415261Y-46298469D01*
X85419303Y-46300879D01*
X85475287Y-46360644D01*
X85465194Y-46429292D01*
X85389156Y-46506525D01*
X85303618Y-46561654D01*
X85210795Y-46618598D01*
X85147193Y-46665199D01*
X85128158Y-46687811D01*
X85147870Y-46742635D01*
X85202534Y-46840221D01*
X85285437Y-46971062D01*
X85389869Y-47125649D01*
X85509119Y-47294475D01*
X85636475Y-47468033D01*
X85765227Y-47636814D01*
X85888665Y-47791310D01*
X85996406Y-47917893D01*
X86129838Y-48068023D01*
X86409691Y-47789623D01*
X86539254Y-47664184D01*
X86633605Y-47582188D01*
X86701750Y-47536950D01*
X86752692Y-47521784D01*
X86769443Y-47522520D01*
X86821077Y-47535953D01*
X86848002Y-47561481D01*
X86847057Y-47603639D01*
X86815080Y-47666963D01*
X86748909Y-47755986D01*
X86645382Y-47875244D01*
X86501337Y-48029272D01*
X86313612Y-48222604D01*
X86203281Y-48334518D01*
X86033436Y-48505391D01*
X85878686Y-48659500D01*
X85745274Y-48790755D01*
X85639444Y-48893064D01*
X85567438Y-48960337D01*
X85535501Y-48986483D01*
X85534860Y-48986615D01*
X85490461Y-48970707D01*
X85454013Y-48951533D01*
X85412397Y-48916050D01*
X85403031Y-48870237D01*
X85429880Y-48806464D01*
X85496905Y-48717100D01*
X85608071Y-48594513D01*
X85676171Y-48523788D01*
X85956815Y-48235658D01*
X85675011Y-47901447D01*
X85540909Y-47734854D01*
X85391613Y-47537308D01*
X85246515Y-47335054D01*
X85138412Y-47175117D01*
X84883616Y-46782998D01*
X84706250Y-46884476D01*
X84599308Y-46940924D01*
X84528675Y-46963411D01*
X84476213Y-46956749D01*
X84460890Y-46949564D01*
X84398366Y-46893010D01*
X84400151Y-46827463D01*
X84464874Y-46756350D01*
X84561570Y-46697493D01*
X84657097Y-46643457D01*
X84725272Y-46594405D01*
X84746376Y-46569985D01*
X84740055Y-46522904D01*
X84709669Y-46431706D01*
X84660842Y-46312162D01*
X84630710Y-46245488D01*
X84541246Y-46037962D01*
X84448338Y-45795463D01*
X84359945Y-45541038D01*
X84284024Y-45297735D01*
X84228536Y-45088599D01*
X84223520Y-45066401D01*
X84180563Y-44871618D01*
X84069492Y-44890940D01*
X83952081Y-44911379D01*
X83844325Y-44930153D01*
X83760215Y-44936189D01*
X83712170Y-44909568D01*
X83691611Y-44877885D01*
X83672071Y-44806228D01*
X83703951Y-44750759D01*
X83792514Y-44706921D01*
X83928223Y-44673015D01*
X84032180Y-44651951D01*
X84103591Y-44636312D01*
X84125333Y-44630191D01*
X84119797Y-44598049D01*
X84105590Y-44518445D01*
X84088865Y-44425658D01*
X84076690Y-44330346D01*
X84063991Y-44182055D01*
X84051661Y-43994631D01*
X84040596Y-43781921D01*
X84031689Y-43557772D01*
X84030572Y-43523289D01*
X84008553Y-42821447D01*
X83814839Y-42804213D01*
X83675511Y-42780992D01*
X83593200Y-42738336D01*
X83559652Y-42671228D01*
X83557880Y-42647959D01*
X83577524Y-42599777D01*
X83643050Y-42572376D01*
X83762063Y-42563598D01*
X83847898Y-42565689D01*
X84054874Y-42574952D01*
X84075033Y-42447542D01*
X84114371Y-42230011D01*
X84167874Y-41977139D01*
X84229795Y-41713211D01*
X84294390Y-41462513D01*
X84355914Y-41249330D01*
X84366083Y-41217237D01*
X84410809Y-41076127D01*
X84446732Y-40958244D01*
X84469443Y-40878336D01*
X84475145Y-40852447D01*
X84446666Y-40828401D01*
X84368159Y-40785525D01*
X84251627Y-40729880D01*
X84109076Y-40667531D01*
X84108816Y-40667422D01*
X83944366Y-40595942D01*
X83833633Y-40541136D01*
X83767305Y-40497432D01*
X83736067Y-40459257D01*
X83730801Y-40441250D01*
X83749646Y-40365084D01*
X83785887Y-40334484D01*
X83828012Y-40323930D01*
X83891573Y-40331923D01*
X83987794Y-40361507D01*
X84127902Y-40415726D01*
X84208790Y-40449196D01*
X84350520Y-40508123D01*
X84468061Y-40556138D01*
X84548710Y-40588108D01*
X84579542Y-40598947D01*
X84598729Y-40570896D01*
X84641287Y-40494427D01*
X84701014Y-40381066D01*
X84771706Y-40242338D01*
X84775058Y-40235659D01*
X84866280Y-40064334D01*
X84981675Y-39863048D01*
X85106748Y-39656361D01*
X85227006Y-39468834D01*
X85232170Y-39461092D01*
X85507086Y-39049813D01*
X85347435Y-38911311D01*
X85245850Y-38811442D01*
X85201628Y-38736910D01*
X85200089Y-38708313D01*
X85237045Y-38646633D01*
X85309677Y-38635011D01*
X85410428Y-38672525D01*
X85518479Y-38747190D01*
X85671273Y-38872393D01*
X85870032Y-38650037D01*
X85977520Y-38537346D01*
X86118096Y-38400774D01*
X86278837Y-38251807D01*
X86446823Y-38101930D01*
X86609131Y-37962626D01*
X86752839Y-37845382D01*
X86865027Y-37761682D01*
X86883142Y-37749590D01*
X86955561Y-37696696D01*
X86996177Y-37655425D01*
X86999323Y-37647206D01*
X86981987Y-37606223D01*
X86937095Y-37530821D01*
X86899474Y-37474079D01*
X86829693Y-37361685D01*
X86802975Y-37283458D01*
X86816242Y-37225203D01*
X86839316Y-37196684D01*
X86892449Y-37162059D01*
X86946742Y-37172886D01*
X87011320Y-37234429D01*
X87087239Y-37339730D01*
X87208844Y-37522881D01*
X87346593Y-37438317D01*
X87504654Y-37347586D01*
X87705113Y-37241773D01*
X87928255Y-37130495D01*
X88154367Y-37023365D01*
X88363732Y-36929999D01*
X88517718Y-36867144D01*
X88647975Y-36816748D01*
X88752423Y-36775040D01*
X88816876Y-36747753D01*
X88830400Y-36740739D01*
X88827968Y-36705245D01*
X88809969Y-36624888D01*
X88786850Y-36540096D01*
X88753336Y-36399485D01*
X88752412Y-36310856D01*
X88786051Y-36266771D01*
X88856228Y-36259795D01*
X88861073Y-36260327D01*
X88913849Y-36274488D01*
X88952296Y-36312265D01*
X88987536Y-36388976D01*
X89016253Y-36474049D01*
X89081031Y-36677176D01*
X89402292Y-36599127D01*
X89625472Y-36550722D01*
X89874762Y-36506236D01*
X90130304Y-36468437D01*
X90372239Y-36440093D01*
X90580707Y-36423973D01*
X90677764Y-36421315D01*
X90876579Y-36421315D01*
X90876579Y-36005213D01*
X90877709Y-35828351D01*
X90882082Y-35706840D01*
X90891172Y-35629214D01*
X90906452Y-35584006D01*
X90929397Y-35559749D01*
X90934203Y-35556863D01*
X91019157Y-35544358D01*
X91051176Y-35556378D01*
X91051176Y-35556378D01*
G37*
X91051176Y-35556378D02*
X91076207Y-35577151D01*
X91093123Y-35615487D01*
X91103453Y-35682923D01*
X91108724Y-35791001D01*
X91110464Y-35951260D01*
X91110526Y-36004728D01*
X91110526Y-36421315D01*
X91292630Y-36421315D01*
X91445030Y-36427980D01*
X91643636Y-36446257D01*
X91869332Y-36473573D01*
X92103007Y-36507353D01*
X92325546Y-36545023D01*
X92517835Y-36584007D01*
X92541915Y-36589580D01*
X92673499Y-36619584D01*
X92781958Y-36642395D01*
X92849478Y-36654333D01*
X92860092Y-36655263D01*
X92891117Y-36626153D01*
X92931593Y-36550495D01*
X92966071Y-36463092D01*
X93013601Y-36344985D01*
X93058694Y-36281250D01*
X93102003Y-36260953D01*
X93181682Y-36267629D01*
X93220569Y-36318906D01*
X93219854Y-36418588D01*
X93189781Y-36541656D01*
X93129871Y-36738440D01*
X93484368Y-36877230D01*
X93895494Y-37051645D01*
X94285446Y-37243119D01*
X94568609Y-37402408D01*
X94764184Y-37520221D01*
X94885372Y-37346755D01*
X94981825Y-37229960D01*
X95063298Y-37177730D01*
X95130669Y-37189696D01*
X95165689Y-37229109D01*
X95177245Y-37273545D01*
X95157992Y-37336453D01*
X95102727Y-37432218D01*
X95079237Y-37468166D01*
X94957575Y-37651402D01*
X95188836Y-37823369D01*
X95430951Y-38015804D01*
X95689942Y-38243254D01*
X95944148Y-38486121D01*
X96107250Y-38654380D01*
X96308052Y-38869269D01*
X96452978Y-38748187D01*
X96571014Y-38666613D01*
X96670667Y-38630674D01*
X96742719Y-38642351D01*
X96771699Y-38679658D01*
X96773254Y-38742233D01*
X96749257Y-38812245D01*
X96712310Y-38858006D01*
X96699021Y-38862411D01*
X96661124Y-38883188D01*
X96594014Y-38933848D01*
X96563658Y-38959136D01*
X96452184Y-39054503D01*
X96633669Y-39300344D01*
X96773341Y-39499830D01*
X96918147Y-39724463D01*
X97056942Y-39955577D01*
X97178581Y-40174505D01*
X97271920Y-40362580D01*
X97283755Y-40389186D01*
X97332243Y-40493982D01*
X97372444Y-40569184D01*
X97395854Y-40598923D01*
X97396184Y-40598947D01*
X97433611Y-40586749D01*
X97519488Y-40553603D01*
X97640740Y-40504682D01*
X97773406Y-40449723D01*
X97946832Y-40379905D01*
X98070187Y-40338654D01*
X98153237Y-40324741D01*
X98205745Y-40336937D01*
X98237475Y-40374014D01*
X98244638Y-40390420D01*
X98246064Y-40441729D01*
X98206284Y-40494423D01*
X98119150Y-40552840D01*
X97978514Y-40621318D01*
X97828158Y-40684332D01*
X97694503Y-40738428D01*
X97585932Y-40783114D01*
X97516158Y-40812704D01*
X97497746Y-40821384D01*
X97502108Y-40854952D01*
X97524222Y-40937803D01*
X97560153Y-41055995D01*
X97589407Y-41146231D01*
X97667352Y-41397320D01*
X97739820Y-41660644D01*
X97802448Y-41918109D01*
X97850875Y-42151625D01*
X97880741Y-42343100D01*
X97883109Y-42364699D01*
X97904802Y-42576372D01*
X98108783Y-42569736D01*
X98247318Y-42566033D01*
X98332196Y-42568484D01*
X98376560Y-42580867D01*
X98393552Y-42606958D01*
X98396315Y-42650535D01*
X98396316Y-42652369D01*
X98385734Y-42718216D01*
X98345613Y-42760770D01*
X98263389Y-42787256D01*
X98131994Y-42804385D01*
X97951225Y-42821447D01*
X97957607Y-43289342D01*
X97955843Y-43512365D01*
X97946204Y-43761783D01*
X97930315Y-44005236D01*
X97912478Y-44188619D01*
X97893916Y-44349800D01*
X97879686Y-44484654D01*
X97871018Y-44580613D01*
X97869139Y-44625110D01*
X97869628Y-44626693D01*
X97904101Y-44637146D01*
X97985140Y-44657646D01*
X98078816Y-44679916D01*
X98191094Y-44709175D01*
X98253336Y-44737521D01*
X98281431Y-44775073D01*
X98289505Y-44814085D01*
X98281536Y-44886390D01*
X98232231Y-44924034D01*
X98134928Y-44929217D01*
X98003542Y-44908512D01*
X97902860Y-44889789D01*
X97833306Y-44880966D01*
X97813639Y-44882277D01*
X97801595Y-44916846D01*
X97775190Y-45003409D01*
X97738104Y-45129598D01*
X97694016Y-45283046D01*
X97685555Y-45312839D01*
X97622296Y-45517413D01*
X97541668Y-45751475D01*
X97454736Y-45984026D01*
X97383819Y-46158132D01*
X97200948Y-46584137D01*
X97357902Y-46663672D01*
X97489923Y-46739690D01*
X97562548Y-46805864D01*
X97581354Y-46868047D01*
X97575492Y-46891995D01*
X97532858Y-46948400D01*
X97460748Y-46959406D01*
X97351880Y-46924765D01*
X97264879Y-46881422D01*
X97167166Y-46834142D01*
X97095242Y-46809943D01*
X97065670Y-46813384D01*
X97034867Y-46873712D01*
X96971457Y-46976008D01*
X96883329Y-47109061D01*
X96778373Y-47261661D01*
X96664479Y-47422597D01*
X96549537Y-47580661D01*
X96441437Y-47724641D01*
X96348068Y-47843328D01*
X96302864Y-47897204D01*
X96203857Y-48011527D01*
X96119403Y-48110371D01*
X96060490Y-48180797D01*
X96040522Y-48206000D01*
X96037968Y-48239375D01*
X96069305Y-48294864D01*
X96139670Y-48379305D01*
X96254200Y-48499532D01*
X96282825Y-48528441D01*
X96425156Y-48679324D01*
X96515524Y-48794925D01*
X96555995Y-48879316D01*
X96548634Y-48936573D01*
X96505293Y-48967345D01*
X96448195Y-48985168D01*
X96432096Y-48987631D01*
X96402791Y-48964990D01*
X96334187Y-48902028D01*
X96233747Y-48806185D01*
X96108936Y-48684901D01*
X95967217Y-48545616D01*
X95816052Y-48395772D01*
X95662906Y-48242809D01*
X95515241Y-48094167D01*
X95380521Y-47957286D01*
X95266209Y-47839608D01*
X95179769Y-47748571D01*
X95128664Y-47691618D01*
X95118710Y-47678276D01*
X95102091Y-47604501D01*
X95108038Y-47569658D01*
X95145024Y-47522879D01*
X95205734Y-47521971D01*
X95294258Y-47569004D01*
X95414683Y-47666050D01*
X95548641Y-47792829D01*
X95827232Y-48068552D01*
X96003314Y-47880801D01*
X96120576Y-47748812D01*
X96245392Y-47596396D01*
X96371979Y-47432034D01*
X96494554Y-47264205D01*
X96607335Y-47101392D01*
X96704538Y-46952073D01*
X96780380Y-46824729D01*
X96829079Y-46727841D01*
X96844852Y-46669889D01*
X96837384Y-46657680D01*
X96790594Y-46634059D01*
X96708854Y-46586177D01*
X96644011Y-46545940D01*
X96548596Y-46477946D01*
X96503657Y-46422924D01*
X96497436Y-46372094D01*
X96530708Y-46305667D01*
X96604916Y-46290198D01*
X96721023Y-46325658D01*
X96795890Y-46362913D01*
X96890708Y-46408648D01*
X96962976Y-46432849D01*
X96989421Y-46432905D01*
X97022070Y-46388494D01*
X97070727Y-46291402D01*
X97131281Y-46152693D01*
X97199620Y-45983429D01*
X97271634Y-45794672D01*
X97343209Y-45597483D01*
X97410236Y-45402925D01*
X97468602Y-45222061D01*
X97514196Y-45065952D01*
X97542907Y-44945661D01*
X97543650Y-44941731D01*
X97565826Y-44822804D01*
X97354426Y-44774625D01*
X97238839Y-44745509D01*
X97173587Y-44718271D01*
X97143155Y-44683310D01*
X97132728Y-44637408D01*
X97144397Y-44561470D01*
X97203847Y-44524400D01*
X97314507Y-44524951D01*
X97398195Y-44540782D01*
X97495422Y-44561541D01*
X97566939Y-44573860D01*
X97581792Y-44575235D01*
X97605059Y-44544135D01*
X97628727Y-44457136D01*
X97651872Y-44325167D01*
X97673570Y-44159157D01*
X97692894Y-43970037D01*
X97708920Y-43768735D01*
X97720723Y-43566181D01*
X97727377Y-43373305D01*
X97727957Y-43201036D01*
X97721539Y-43060304D01*
X97714953Y-43002038D01*
X97692268Y-42850762D01*
X97492761Y-42865193D01*
X97341412Y-42864163D01*
X97240250Y-42837050D01*
X97195042Y-42785695D01*
X97193158Y-42769610D01*
X97222574Y-42711285D01*
X97295204Y-42662485D01*
X97387619Y-42637896D01*
X97404427Y-42637175D01*
X97544150Y-42626685D01*
X97626848Y-42594452D01*
X97659757Y-42537126D01*
X97661053Y-42518456D01*
X97652531Y-42420536D01*
X97629005Y-42277900D01*
X97593532Y-42102519D01*
X97549171Y-41906365D01*
X97498980Y-41701411D01*
X97446018Y-41499628D01*
X97393342Y-41312988D01*
X97344011Y-41153462D01*
X97301083Y-41033023D01*
X97267616Y-40963642D01*
X97262097Y-40956701D01*
X97223130Y-40958242D01*
X97135875Y-40982228D01*
X97013386Y-41024545D01*
X96873318Y-41079191D01*
X96684068Y-41151962D01*
X96547330Y-41192071D01*
X96457372Y-41199654D01*
X96408463Y-41174844D01*
X96394871Y-41117774D01*
X96397380Y-41090326D01*
X96414817Y-41052717D01*
X96462410Y-41012409D01*
X96549522Y-40963761D01*
X96685513Y-40901130D01*
X96775395Y-40862542D01*
X96935745Y-40792740D01*
X97042374Y-40740607D01*
X97104266Y-40700657D01*
X97130403Y-40667402D01*
X97132142Y-40644626D01*
X97105719Y-40567832D01*
X97048764Y-40446996D01*
X96968073Y-40293527D01*
X96870442Y-40118832D01*
X96762666Y-39934318D01*
X96651542Y-39751394D01*
X96543864Y-39581466D01*
X96446428Y-39435942D01*
X96366030Y-39326230D01*
X96309585Y-39263835D01*
X96271949Y-39245379D01*
X96225001Y-39257696D01*
X96152893Y-39307053D01*
X96106803Y-39344009D01*
X95992012Y-39425001D01*
X95906620Y-39451966D01*
X95842284Y-39426047D01*
X95809766Y-39384674D01*
X95797057Y-39345993D01*
X95813512Y-39302706D01*
X95867332Y-39242009D01*
X95949722Y-39166152D01*
X96126680Y-39008876D01*
X95715774Y-38607728D01*
X95506428Y-38408326D01*
X95307119Y-38227944D01*
X95126791Y-38074218D01*
X94974383Y-37954784D01*
X94864118Y-37880344D01*
X94822242Y-37892482D01*
X94758913Y-37957818D01*
X94715929Y-38016483D01*
X94638433Y-38125584D01*
X94583485Y-38186106D01*
X94539173Y-38206746D01*
X94493589Y-38196200D01*
X94479498Y-38189123D01*
X94431823Y-38145455D01*
X94426247Y-38080874D01*
X94464218Y-37985455D01*
X94523885Y-37884967D01*
X94581334Y-37792453D01*
X94605230Y-37738308D01*
X94599023Y-37705237D01*
X94566164Y-37675944D01*
X94565661Y-37675573D01*
X94474662Y-37617234D01*
X94341077Y-37542739D01*
X94176138Y-37457291D01*
X93991078Y-37366094D01*
X93797127Y-37274349D01*
X93605519Y-37187261D01*
X93427485Y-37110033D01*
X93274258Y-37047867D01*
X93157069Y-37005967D01*
X93087150Y-36989536D01*
X93084562Y-36989473D01*
X93057655Y-37018839D01*
X93023349Y-37094687D01*
X92998192Y-37170490D01*
X92949599Y-37309061D01*
X92899344Y-37386891D01*
X92841634Y-37409953D01*
X92783715Y-37391669D01*
X92735512Y-37355930D01*
X92718456Y-37306388D01*
X92731389Y-37226540D01*
X92764868Y-37123158D01*
X92795538Y-37027147D01*
X92813259Y-36954083D01*
X92815000Y-36937883D01*
X92783365Y-36907762D01*
X92694967Y-36873012D01*
X92559562Y-36835545D01*
X92386908Y-36797271D01*
X92186763Y-36760103D01*
X91968883Y-36725949D01*
X91743027Y-36696723D01*
X91518952Y-36674334D01*
X91437449Y-36668096D01*
X91112662Y-36645547D01*
X91103239Y-37056239D01*
X91097602Y-37235587D01*
X91089325Y-37359103D01*
X91076841Y-37437789D01*
X91058581Y-37482648D01*
X91039872Y-37500890D01*
X90967003Y-37519789D01*
X90931253Y-37513867D01*
X90908132Y-37496174D01*
X90892467Y-37456751D01*
X90882895Y-37384655D01*
X90878057Y-37268942D01*
X90876593Y-37098668D01*
X90876579Y-37074075D01*
X90876579Y-36655263D01*
X90711185Y-36655263D01*
X90567382Y-36661828D01*
X90376590Y-36679842D01*
X90157183Y-36706782D01*
X89927538Y-36740125D01*
X89706030Y-36777347D01*
X89511036Y-36815926D01*
X89464539Y-36826429D01*
X89316007Y-36863286D01*
X89224174Y-36897535D01*
X89180418Y-36940736D01*
X89176116Y-37004448D01*
X89202645Y-37100234D01*
X89220962Y-37152965D01*
X89252335Y-37278772D01*
X89239786Y-37360437D01*
X89186232Y-37403604D01*
X89115499Y-37410360D01*
X89058237Y-37365677D01*
X89008824Y-37263459D01*
X88984039Y-37184384D01*
X88951466Y-37075514D01*
X88924694Y-37018185D01*
X88893093Y-36999150D01*
X88846033Y-37005159D01*
X88841186Y-37006349D01*
X88724923Y-37042386D01*
X88575328Y-37099368D01*
X88402376Y-37172371D01*
X88216040Y-37256472D01*
X88026292Y-37346745D01*
X87843106Y-37438268D01*
X87676455Y-37526116D01*
X87536313Y-37605364D01*
X87432652Y-37671090D01*
X87375446Y-37718368D01*
X87367368Y-37734014D01*
X87384968Y-37775849D01*
X87430078Y-37851861D01*
X87467632Y-37908552D01*
X87539505Y-38026834D01*
X87564002Y-38108765D01*
X87542524Y-38163694D01*
X87509408Y-38186939D01*
X87450013Y-38205903D01*
X87396770Y-38188902D01*
X87337476Y-38127761D01*
X87266109Y-38023973D01*
X87202632Y-37931708D01*
X87157805Y-37888380D01*
X87118855Y-37883928D01*
X87099019Y-37892367D01*
X87005115Y-37953146D01*
X86875485Y-38051690D01*
X86721483Y-38178318D01*
X86554466Y-38323347D01*
X86385787Y-38477097D01*
X86226803Y-38629886D01*
X86185619Y-38671128D01*
X85856106Y-39004543D01*
X86026869Y-39161534D01*
X86125601Y-39256007D01*
X86178680Y-39320278D01*
X86192176Y-39366481D01*
X86172165Y-39406745D01*
X86157526Y-39422526D01*
X86100794Y-39457225D01*
X86032517Y-39448962D01*
X85940408Y-39394359D01*
X85877949Y-39345658D01*
X85794363Y-39281152D01*
X85730509Y-39239092D01*
X85707402Y-39229658D01*
X85667170Y-39258418D01*
X85602050Y-39336430D01*
X85517776Y-39454016D01*
X85420079Y-39601497D01*
X85314692Y-39769194D01*
X85207350Y-39947429D01*
X85103783Y-40126523D01*
X85009725Y-40296797D01*
X84930910Y-40448572D01*
X84873068Y-40572170D01*
X84841935Y-40657911D01*
X84840452Y-40693341D01*
X84876151Y-40715704D01*
X84960833Y-40756650D01*
X85081353Y-40810103D01*
X85207247Y-40862918D01*
X85376651Y-40935311D01*
X85490527Y-40992996D01*
X85556847Y-41042137D01*
X85583582Y-41088897D01*
X85578706Y-41139440D01*
X85575709Y-41147810D01*
X85548915Y-41189337D01*
X85502920Y-41206711D01*
X85428122Y-41198577D01*
X85314916Y-41163579D01*
X85153697Y-41100360D01*
X85109558Y-41081996D01*
X84966701Y-41024605D01*
X84845988Y-40980718D01*
X84760792Y-40954892D01*
X84725241Y-40951020D01*
X84699472Y-40992758D01*
X84661523Y-41086880D01*
X84615223Y-41220873D01*
X84564396Y-41382223D01*
X84512869Y-41558418D01*
X84464470Y-41736943D01*
X84423024Y-41905285D01*
X84398132Y-42020729D01*
X84357419Y-42227143D01*
X84328805Y-42377284D01*
X84311800Y-42480524D01*
X84305916Y-42546238D01*
X84310664Y-42583799D01*
X84325556Y-42602579D01*
X84350103Y-42611953D01*
X84367082Y-42616371D01*
X84453522Y-42630576D01*
X84558965Y-42637136D01*
X84564263Y-42637175D01*
X84676848Y-42657523D01*
X84742958Y-42712823D01*
X84754255Y-42794776D01*
X84738099Y-42827000D01*
X84695731Y-42845565D01*
X84612600Y-42854118D01*
X84509193Y-42856189D01*
X84275921Y-42857509D01*
X84266757Y-43340794D01*
X84266859Y-43518847D01*
X84272746Y-43714252D01*
X84283390Y-43914771D01*
X84297760Y-44108165D01*
X84314826Y-44282195D01*
X84333560Y-44424624D01*
X84352932Y-44523212D01*
X84369659Y-44563957D01*
X84409494Y-44567408D01*
X84493919Y-44557746D01*
X84575720Y-44542837D01*
X84721008Y-44524525D01*
X84812488Y-44542406D01*
X84853376Y-44597794D01*
X84854047Y-44656680D01*
X84835321Y-44698980D01*
X84783932Y-44731572D01*
X84685783Y-44761954D01*
X84631974Y-44774780D01*
X84419870Y-44823113D01*
X84441298Y-44958596D01*
X84465462Y-45068968D01*
X84507224Y-45215643D01*
X84562589Y-45388145D01*
X84627563Y-45575996D01*
X84698152Y-45768719D01*
X84770360Y-45955837D01*
X84840194Y-46126873D01*
X84903659Y-46271350D01*
X84956761Y-46378789D01*
X84995505Y-46438716D01*
X85008999Y-46447631D01*
X85046267Y-46432675D01*
X85122799Y-46394056D01*
X85193694Y-46355723D01*
X85297906Y-46303392D01*
X85365789Y-46285759D01*
X85415261Y-46298469D01*
X85419303Y-46300879D01*
X85475287Y-46360644D01*
X85465194Y-46429292D01*
X85389156Y-46506525D01*
X85303618Y-46561654D01*
X85210795Y-46618598D01*
X85147193Y-46665199D01*
X85128158Y-46687811D01*
X85147870Y-46742635D01*
X85202534Y-46840221D01*
X85285437Y-46971062D01*
X85389869Y-47125649D01*
X85509119Y-47294475D01*
X85636475Y-47468033D01*
X85765227Y-47636814D01*
X85888665Y-47791310D01*
X85996406Y-47917893D01*
X86129838Y-48068023D01*
X86409691Y-47789623D01*
X86539254Y-47664184D01*
X86633605Y-47582188D01*
X86701750Y-47536950D01*
X86752692Y-47521784D01*
X86769443Y-47522520D01*
X86821077Y-47535953D01*
X86848002Y-47561481D01*
X86847057Y-47603639D01*
X86815080Y-47666963D01*
X86748909Y-47755986D01*
X86645382Y-47875244D01*
X86501337Y-48029272D01*
X86313612Y-48222604D01*
X86203281Y-48334518D01*
X86033436Y-48505391D01*
X85878686Y-48659500D01*
X85745274Y-48790755D01*
X85639444Y-48893064D01*
X85567438Y-48960337D01*
X85535501Y-48986483D01*
X85534860Y-48986615D01*
X85490461Y-48970707D01*
X85454013Y-48951533D01*
X85412397Y-48916050D01*
X85403031Y-48870237D01*
X85429880Y-48806464D01*
X85496905Y-48717100D01*
X85608071Y-48594513D01*
X85676171Y-48523788D01*
X85956815Y-48235658D01*
X85675011Y-47901447D01*
X85540909Y-47734854D01*
X85391613Y-47537308D01*
X85246515Y-47335054D01*
X85138412Y-47175117D01*
X84883616Y-46782998D01*
X84706250Y-46884476D01*
X84599308Y-46940924D01*
X84528675Y-46963411D01*
X84476213Y-46956749D01*
X84460890Y-46949564D01*
X84398366Y-46893010D01*
X84400151Y-46827463D01*
X84464874Y-46756350D01*
X84561570Y-46697493D01*
X84657097Y-46643457D01*
X84725272Y-46594405D01*
X84746376Y-46569985D01*
X84740055Y-46522904D01*
X84709669Y-46431706D01*
X84660842Y-46312162D01*
X84630710Y-46245488D01*
X84541246Y-46037962D01*
X84448338Y-45795463D01*
X84359945Y-45541038D01*
X84284024Y-45297735D01*
X84228536Y-45088599D01*
X84223520Y-45066401D01*
X84180563Y-44871618D01*
X84069492Y-44890940D01*
X83952081Y-44911379D01*
X83844325Y-44930153D01*
X83760215Y-44936189D01*
X83712170Y-44909568D01*
X83691611Y-44877885D01*
X83672071Y-44806228D01*
X83703951Y-44750759D01*
X83792514Y-44706921D01*
X83928223Y-44673015D01*
X84032180Y-44651951D01*
X84103591Y-44636312D01*
X84125333Y-44630191D01*
X84119797Y-44598049D01*
X84105590Y-44518445D01*
X84088865Y-44425658D01*
X84076690Y-44330346D01*
X84063991Y-44182055D01*
X84051661Y-43994631D01*
X84040596Y-43781921D01*
X84031689Y-43557772D01*
X84030572Y-43523289D01*
X84008553Y-42821447D01*
X83814839Y-42804213D01*
X83675511Y-42780992D01*
X83593200Y-42738336D01*
X83559652Y-42671228D01*
X83557880Y-42647959D01*
X83577524Y-42599777D01*
X83643050Y-42572376D01*
X83762063Y-42563598D01*
X83847898Y-42565689D01*
X84054874Y-42574952D01*
X84075033Y-42447542D01*
X84114371Y-42230011D01*
X84167874Y-41977139D01*
X84229795Y-41713211D01*
X84294390Y-41462513D01*
X84355914Y-41249330D01*
X84366083Y-41217237D01*
X84410809Y-41076127D01*
X84446732Y-40958244D01*
X84469443Y-40878336D01*
X84475145Y-40852447D01*
X84446666Y-40828401D01*
X84368159Y-40785525D01*
X84251627Y-40729880D01*
X84109076Y-40667531D01*
X84108816Y-40667422D01*
X83944366Y-40595942D01*
X83833633Y-40541136D01*
X83767305Y-40497432D01*
X83736067Y-40459257D01*
X83730801Y-40441250D01*
X83749646Y-40365084D01*
X83785887Y-40334484D01*
X83828012Y-40323930D01*
X83891573Y-40331923D01*
X83987794Y-40361507D01*
X84127902Y-40415726D01*
X84208790Y-40449196D01*
X84350520Y-40508123D01*
X84468061Y-40556138D01*
X84548710Y-40588108D01*
X84579542Y-40598947D01*
X84598729Y-40570896D01*
X84641287Y-40494427D01*
X84701014Y-40381066D01*
X84771706Y-40242338D01*
X84775058Y-40235659D01*
X84866280Y-40064334D01*
X84981675Y-39863048D01*
X85106748Y-39656361D01*
X85227006Y-39468834D01*
X85232170Y-39461092D01*
X85507086Y-39049813D01*
X85347435Y-38911311D01*
X85245850Y-38811442D01*
X85201628Y-38736910D01*
X85200089Y-38708313D01*
X85237045Y-38646633D01*
X85309677Y-38635011D01*
X85410428Y-38672525D01*
X85518479Y-38747190D01*
X85671273Y-38872393D01*
X85870032Y-38650037D01*
X85977520Y-38537346D01*
X86118096Y-38400774D01*
X86278837Y-38251807D01*
X86446823Y-38101930D01*
X86609131Y-37962626D01*
X86752839Y-37845382D01*
X86865027Y-37761682D01*
X86883142Y-37749590D01*
X86955561Y-37696696D01*
X86996177Y-37655425D01*
X86999323Y-37647206D01*
X86981987Y-37606223D01*
X86937095Y-37530821D01*
X86899474Y-37474079D01*
X86829693Y-37361685D01*
X86802975Y-37283458D01*
X86816242Y-37225203D01*
X86839316Y-37196684D01*
X86892449Y-37162059D01*
X86946742Y-37172886D01*
X87011320Y-37234429D01*
X87087239Y-37339730D01*
X87208844Y-37522881D01*
X87346593Y-37438317D01*
X87504654Y-37347586D01*
X87705113Y-37241773D01*
X87928255Y-37130495D01*
X88154367Y-37023365D01*
X88363732Y-36929999D01*
X88517718Y-36867144D01*
X88647975Y-36816748D01*
X88752423Y-36775040D01*
X88816876Y-36747753D01*
X88830400Y-36740739D01*
X88827968Y-36705245D01*
X88809969Y-36624888D01*
X88786850Y-36540096D01*
X88753336Y-36399485D01*
X88752412Y-36310856D01*
X88786051Y-36266771D01*
X88856228Y-36259795D01*
X88861073Y-36260327D01*
X88913849Y-36274488D01*
X88952296Y-36312265D01*
X88987536Y-36388976D01*
X89016253Y-36474049D01*
X89081031Y-36677176D01*
X89402292Y-36599127D01*
X89625472Y-36550722D01*
X89874762Y-36506236D01*
X90130304Y-36468437D01*
X90372239Y-36440093D01*
X90580707Y-36423973D01*
X90677764Y-36421315D01*
X90876579Y-36421315D01*
X90876579Y-36005213D01*
X90877709Y-35828351D01*
X90882082Y-35706840D01*
X90891172Y-35629214D01*
X90906452Y-35584006D01*
X90929397Y-35559749D01*
X90934203Y-35556863D01*
X91019157Y-35544358D01*
X91051176Y-35556378D01*
G36*
X110821176Y-35616378D02*
X110846207Y-35637151D01*
X110863123Y-35675487D01*
X110873453Y-35742923D01*
X110878724Y-35851001D01*
X110880464Y-36011260D01*
X110880526Y-36064728D01*
X110880526Y-36481315D01*
X111062630Y-36481315D01*
X111215030Y-36487980D01*
X111413636Y-36506257D01*
X111639332Y-36533573D01*
X111873007Y-36567353D01*
X112095546Y-36605023D01*
X112287835Y-36644007D01*
X112311915Y-36649580D01*
X112443499Y-36679584D01*
X112551958Y-36702395D01*
X112619478Y-36714333D01*
X112630092Y-36715263D01*
X112661117Y-36686153D01*
X112701593Y-36610495D01*
X112736071Y-36523092D01*
X112783601Y-36404985D01*
X112828694Y-36341250D01*
X112872003Y-36320953D01*
X112951682Y-36327629D01*
X112990569Y-36378906D01*
X112989854Y-36478588D01*
X112959781Y-36601656D01*
X112899871Y-36798440D01*
X113254368Y-36937230D01*
X113665494Y-37111645D01*
X114055446Y-37303119D01*
X114338609Y-37462408D01*
X114534184Y-37580221D01*
X114655372Y-37406755D01*
X114751825Y-37289960D01*
X114833298Y-37237730D01*
X114900669Y-37249696D01*
X114935689Y-37289109D01*
X114947245Y-37333545D01*
X114927992Y-37396453D01*
X114872727Y-37492218D01*
X114849237Y-37528166D01*
X114727575Y-37711402D01*
X114958836Y-37883369D01*
X115200951Y-38075804D01*
X115459942Y-38303254D01*
X115714148Y-38546121D01*
X115877250Y-38714380D01*
X116078052Y-38929269D01*
X116222978Y-38808187D01*
X116341014Y-38726613D01*
X116440667Y-38690674D01*
X116512719Y-38702351D01*
X116541699Y-38739658D01*
X116543254Y-38802233D01*
X116519257Y-38872245D01*
X116482310Y-38918006D01*
X116469021Y-38922411D01*
X116431124Y-38943188D01*
X116364014Y-38993848D01*
X116333658Y-39019136D01*
X116222184Y-39114503D01*
X116403669Y-39360344D01*
X116543341Y-39559830D01*
X116688147Y-39784463D01*
X116826942Y-40015577D01*
X116948581Y-40234505D01*
X117041920Y-40422580D01*
X117053755Y-40449186D01*
X117102243Y-40553982D01*
X117142444Y-40629184D01*
X117165854Y-40658923D01*
X117166184Y-40658947D01*
X117203611Y-40646749D01*
X117289488Y-40613603D01*
X117410740Y-40564682D01*
X117543406Y-40509723D01*
X117716832Y-40439905D01*
X117840187Y-40398654D01*
X117923237Y-40384741D01*
X117975745Y-40396937D01*
X118007475Y-40434014D01*
X118014638Y-40450420D01*
X118016064Y-40501729D01*
X117976284Y-40554423D01*
X117889150Y-40612840D01*
X117748514Y-40681318D01*
X117598158Y-40744332D01*
X117464503Y-40798428D01*
X117355932Y-40843114D01*
X117286158Y-40872704D01*
X117267746Y-40881384D01*
X117272108Y-40914952D01*
X117294222Y-40997803D01*
X117330153Y-41115995D01*
X117359407Y-41206231D01*
X117437352Y-41457320D01*
X117509820Y-41720644D01*
X117572448Y-41978109D01*
X117620875Y-42211625D01*
X117650741Y-42403100D01*
X117653109Y-42424699D01*
X117674802Y-42636372D01*
X117878783Y-42629736D01*
X118017318Y-42626033D01*
X118102196Y-42628484D01*
X118146560Y-42640867D01*
X118163552Y-42666958D01*
X118166315Y-42710535D01*
X118166316Y-42712369D01*
X118155734Y-42778216D01*
X118115613Y-42820770D01*
X118033389Y-42847256D01*
X117901994Y-42864385D01*
X117721225Y-42881447D01*
X117727607Y-43349342D01*
X117725843Y-43572365D01*
X117716204Y-43821783D01*
X117700315Y-44065236D01*
X117682478Y-44248619D01*
X117663916Y-44409800D01*
X117649686Y-44544654D01*
X117641018Y-44640613D01*
X117639139Y-44685110D01*
X117639628Y-44686693D01*
X117674101Y-44697146D01*
X117755140Y-44717646D01*
X117848816Y-44739916D01*
X117961094Y-44769175D01*
X118023336Y-44797521D01*
X118051431Y-44835073D01*
X118059505Y-44874085D01*
X118051536Y-44946390D01*
X118002231Y-44984034D01*
X117904928Y-44989217D01*
X117773542Y-44968512D01*
X117672860Y-44949789D01*
X117603306Y-44940966D01*
X117583639Y-44942277D01*
X117571595Y-44976846D01*
X117545190Y-45063409D01*
X117508104Y-45189598D01*
X117464016Y-45343046D01*
X117455555Y-45372839D01*
X117392296Y-45577413D01*
X117311668Y-45811475D01*
X117224736Y-46044026D01*
X117153819Y-46218132D01*
X116970948Y-46644137D01*
X117127902Y-46723672D01*
X117259923Y-46799690D01*
X117332548Y-46865864D01*
X117351354Y-46928047D01*
X117345492Y-46951995D01*
X117302858Y-47008400D01*
X117230748Y-47019406D01*
X117121880Y-46984765D01*
X117034879Y-46941422D01*
X116937166Y-46894142D01*
X116865242Y-46869943D01*
X116835670Y-46873384D01*
X116804867Y-46933712D01*
X116741457Y-47036008D01*
X116653329Y-47169061D01*
X116548373Y-47321661D01*
X116434479Y-47482597D01*
X116319537Y-47640661D01*
X116211437Y-47784641D01*
X116118068Y-47903328D01*
X116072864Y-47957204D01*
X115973857Y-48071527D01*
X115889403Y-48170371D01*
X115830490Y-48240797D01*
X115810522Y-48266000D01*
X115807968Y-48299375D01*
X115839305Y-48354864D01*
X115909670Y-48439305D01*
X116024200Y-48559532D01*
X116052825Y-48588441D01*
X116195156Y-48739324D01*
X116285524Y-48854925D01*
X116325995Y-48939316D01*
X116318634Y-48996573D01*
X116275293Y-49027345D01*
X116218195Y-49045168D01*
X116202096Y-49047631D01*
X116172791Y-49024990D01*
X116104187Y-48962028D01*
X116003747Y-48866185D01*
X115878936Y-48744901D01*
X115737217Y-48605616D01*
X115586052Y-48455772D01*
X115432906Y-48302809D01*
X115285241Y-48154167D01*
X115150521Y-48017286D01*
X115036209Y-47899608D01*
X114949769Y-47808571D01*
X114898664Y-47751618D01*
X114888710Y-47738276D01*
X114872091Y-47664501D01*
X114878038Y-47629658D01*
X114915024Y-47582879D01*
X114975734Y-47581971D01*
X115064258Y-47629004D01*
X115184683Y-47726050D01*
X115318641Y-47852829D01*
X115597232Y-48128552D01*
X115773314Y-47940801D01*
X115890576Y-47808812D01*
X116015392Y-47656396D01*
X116141979Y-47492034D01*
X116264554Y-47324205D01*
X116377335Y-47161392D01*
X116474538Y-47012073D01*
X116550380Y-46884729D01*
X116599079Y-46787841D01*
X116614852Y-46729889D01*
X116607384Y-46717680D01*
X116560594Y-46694059D01*
X116478854Y-46646177D01*
X116414011Y-46605940D01*
X116318596Y-46537946D01*
X116273657Y-46482924D01*
X116267436Y-46432094D01*
X116300708Y-46365667D01*
X116374916Y-46350198D01*
X116491023Y-46385658D01*
X116565890Y-46422913D01*
X116660708Y-46468648D01*
X116732976Y-46492849D01*
X116759421Y-46492905D01*
X116792070Y-46448494D01*
X116840727Y-46351402D01*
X116901281Y-46212693D01*
X116969620Y-46043429D01*
X117041634Y-45854672D01*
X117113209Y-45657483D01*
X117180236Y-45462925D01*
X117238602Y-45282061D01*
X117284196Y-45125952D01*
X117312907Y-45005661D01*
X117313650Y-45001731D01*
X117335826Y-44882804D01*
X117124426Y-44834625D01*
X117008839Y-44805509D01*
X116943587Y-44778271D01*
X116913155Y-44743310D01*
X116902728Y-44697408D01*
X116914397Y-44621470D01*
X116973847Y-44584400D01*
X117084507Y-44584951D01*
X117168195Y-44600782D01*
X117265422Y-44621541D01*
X117336939Y-44633860D01*
X117351792Y-44635235D01*
X117375059Y-44604135D01*
X117398727Y-44517136D01*
X117421872Y-44385167D01*
X117443570Y-44219157D01*
X117462894Y-44030037D01*
X117478920Y-43828735D01*
X117490723Y-43626181D01*
X117497377Y-43433305D01*
X117497957Y-43261036D01*
X117491539Y-43120304D01*
X117484953Y-43062038D01*
X117462268Y-42910762D01*
X117262761Y-42925193D01*
X117111412Y-42924163D01*
X117010250Y-42897050D01*
X116965042Y-42845695D01*
X116963158Y-42829610D01*
X116992574Y-42771285D01*
X117065204Y-42722485D01*
X117157619Y-42697896D01*
X117174427Y-42697175D01*
X117314150Y-42686685D01*
X117396848Y-42654452D01*
X117429757Y-42597126D01*
X117431053Y-42578456D01*
X117422531Y-42480536D01*
X117399005Y-42337900D01*
X117363532Y-42162519D01*
X117319171Y-41966365D01*
X117268980Y-41761411D01*
X117216018Y-41559628D01*
X117163342Y-41372988D01*
X117114011Y-41213462D01*
X117071083Y-41093023D01*
X117037616Y-41023642D01*
X117032097Y-41016701D01*
X116993130Y-41018242D01*
X116905875Y-41042228D01*
X116783386Y-41084545D01*
X116643318Y-41139191D01*
X116454068Y-41211962D01*
X116317330Y-41252071D01*
X116227372Y-41259654D01*
X116178463Y-41234844D01*
X116164871Y-41177774D01*
X116167380Y-41150326D01*
X116184817Y-41112717D01*
X116232410Y-41072409D01*
X116319522Y-41023761D01*
X116455513Y-40961130D01*
X116545395Y-40922542D01*
X116705745Y-40852740D01*
X116812374Y-40800607D01*
X116874266Y-40760657D01*
X116900403Y-40727402D01*
X116902142Y-40704626D01*
X116875719Y-40627832D01*
X116818764Y-40506996D01*
X116738073Y-40353527D01*
X116640442Y-40178832D01*
X116532666Y-39994318D01*
X116421542Y-39811394D01*
X116313864Y-39641466D01*
X116216428Y-39495942D01*
X116136030Y-39386230D01*
X116079585Y-39323835D01*
X116041949Y-39305379D01*
X115995001Y-39317696D01*
X115922893Y-39367053D01*
X115876803Y-39404009D01*
X115762012Y-39485001D01*
X115676620Y-39511966D01*
X115612284Y-39486047D01*
X115579766Y-39444674D01*
X115567057Y-39405993D01*
X115583512Y-39362706D01*
X115637332Y-39302009D01*
X115719722Y-39226152D01*
X115896680Y-39068876D01*
X115485774Y-38667728D01*
X115276428Y-38468326D01*
X115077119Y-38287944D01*
X114896791Y-38134218D01*
X114744383Y-38014784D01*
X114634118Y-37940344D01*
X114592242Y-37952482D01*
X114528913Y-38017818D01*
X114485929Y-38076483D01*
X114408433Y-38185584D01*
X114353485Y-38246106D01*
X114309173Y-38266746D01*
X114263589Y-38256200D01*
X114249498Y-38249123D01*
X114201823Y-38205455D01*
X114196247Y-38140874D01*
X114234218Y-38045455D01*
X114293885Y-37944967D01*
X114351334Y-37852453D01*
X114375230Y-37798308D01*
X114369023Y-37765237D01*
X114336164Y-37735944D01*
X114335661Y-37735573D01*
X114244662Y-37677234D01*
X114111077Y-37602739D01*
X113946138Y-37517291D01*
X113761078Y-37426094D01*
X113567127Y-37334349D01*
X113375519Y-37247261D01*
X113197485Y-37170033D01*
X113044258Y-37107867D01*
X112927069Y-37065967D01*
X112857150Y-37049536D01*
X112854562Y-37049473D01*
X112827655Y-37078839D01*
X112793349Y-37154687D01*
X112768192Y-37230490D01*
X112719599Y-37369061D01*
X112669344Y-37446891D01*
X112611634Y-37469953D01*
X112553715Y-37451669D01*
X112505512Y-37415930D01*
X112488456Y-37366388D01*
X112501389Y-37286540D01*
X112534868Y-37183158D01*
X112565538Y-37087147D01*
X112583259Y-37014083D01*
X112585000Y-36997883D01*
X112553365Y-36967762D01*
X112464967Y-36933012D01*
X112329562Y-36895545D01*
X112156908Y-36857271D01*
X111956763Y-36820103D01*
X111738883Y-36785949D01*
X111513027Y-36756723D01*
X111288952Y-36734334D01*
X111207449Y-36728096D01*
X110882662Y-36705547D01*
X110873239Y-37116239D01*
X110867602Y-37295587D01*
X110859325Y-37419103D01*
X110846841Y-37497789D01*
X110828581Y-37542648D01*
X110809872Y-37560890D01*
X110737003Y-37579789D01*
X110701253Y-37573867D01*
X110678132Y-37556174D01*
X110662467Y-37516751D01*
X110652895Y-37444655D01*
X110648057Y-37328942D01*
X110646593Y-37158668D01*
X110646579Y-37134075D01*
X110646579Y-36715263D01*
X110481185Y-36715263D01*
X110337382Y-36721828D01*
X110146590Y-36739842D01*
X109927183Y-36766782D01*
X109697538Y-36800125D01*
X109476030Y-36837347D01*
X109281036Y-36875926D01*
X109234539Y-36886429D01*
X109086007Y-36923286D01*
X108994174Y-36957535D01*
X108950418Y-37000736D01*
X108946116Y-37064448D01*
X108972645Y-37160234D01*
X108990962Y-37212965D01*
X109022335Y-37338772D01*
X109009786Y-37420437D01*
X108956232Y-37463604D01*
X108885499Y-37470360D01*
X108828237Y-37425677D01*
X108778824Y-37323459D01*
X108754039Y-37244384D01*
X108721466Y-37135514D01*
X108694694Y-37078185D01*
X108663093Y-37059150D01*
X108616033Y-37065159D01*
X108611186Y-37066349D01*
X108494923Y-37102386D01*
X108345328Y-37159368D01*
X108172376Y-37232371D01*
X107986040Y-37316472D01*
X107796292Y-37406745D01*
X107613106Y-37498268D01*
X107446455Y-37586116D01*
X107306313Y-37665364D01*
X107202652Y-37731090D01*
X107145446Y-37778368D01*
X107137368Y-37794014D01*
X107154968Y-37835849D01*
X107200078Y-37911861D01*
X107237632Y-37968552D01*
X107309505Y-38086834D01*
X107334002Y-38168765D01*
X107312524Y-38223694D01*
X107279408Y-38246939D01*
X107220013Y-38265903D01*
X107166770Y-38248902D01*
X107107476Y-38187761D01*
X107036109Y-38083973D01*
X106972632Y-37991708D01*
X106927805Y-37948380D01*
X106888855Y-37943928D01*
X106869019Y-37952367D01*
X106775115Y-38013146D01*
X106645485Y-38111690D01*
X106491483Y-38238318D01*
X106324466Y-38383347D01*
X106155787Y-38537097D01*
X105996803Y-38689886D01*
X105955619Y-38731128D01*
X105626106Y-39064543D01*
X105796869Y-39221534D01*
X105895601Y-39316007D01*
X105948680Y-39380278D01*
X105962176Y-39426481D01*
X105942165Y-39466745D01*
X105927526Y-39482526D01*
X105870794Y-39517225D01*
X105802517Y-39508962D01*
X105710408Y-39454359D01*
X105647949Y-39405658D01*
X105564363Y-39341152D01*
X105500509Y-39299092D01*
X105477402Y-39289658D01*
X105437170Y-39318418D01*
X105372050Y-39396430D01*
X105287776Y-39514016D01*
X105190079Y-39661497D01*
X105084692Y-39829194D01*
X104977350Y-40007429D01*
X104873783Y-40186523D01*
X104779725Y-40356797D01*
X104700910Y-40508572D01*
X104643068Y-40632170D01*
X104611935Y-40717911D01*
X104610452Y-40753341D01*
X104646151Y-40775704D01*
X104730833Y-40816650D01*
X104851353Y-40870103D01*
X104977247Y-40922918D01*
X105146651Y-40995311D01*
X105260527Y-41052996D01*
X105326847Y-41102137D01*
X105353582Y-41148897D01*
X105348706Y-41199440D01*
X105345709Y-41207810D01*
X105318915Y-41249337D01*
X105272920Y-41266711D01*
X105198122Y-41258577D01*
X105084916Y-41223579D01*
X104923697Y-41160360D01*
X104879558Y-41141996D01*
X104736701Y-41084605D01*
X104615988Y-41040718D01*
X104530792Y-41014892D01*
X104495241Y-41011020D01*
X104469472Y-41052758D01*
X104431523Y-41146880D01*
X104385223Y-41280873D01*
X104334396Y-41442223D01*
X104282869Y-41618418D01*
X104234470Y-41796943D01*
X104193024Y-41965285D01*
X104168132Y-42080729D01*
X104127419Y-42287143D01*
X104098805Y-42437284D01*
X104081800Y-42540524D01*
X104075916Y-42606238D01*
X104080664Y-42643799D01*
X104095556Y-42662579D01*
X104120103Y-42671953D01*
X104137082Y-42676371D01*
X104223522Y-42690576D01*
X104328965Y-42697136D01*
X104334263Y-42697175D01*
X104446848Y-42717523D01*
X104512958Y-42772823D01*
X104524255Y-42854776D01*
X104508099Y-42887000D01*
X104465731Y-42905565D01*
X104382600Y-42914118D01*
X104279193Y-42916189D01*
X104045921Y-42917509D01*
X104036757Y-43400794D01*
X104036859Y-43578847D01*
X104042746Y-43774252D01*
X104053390Y-43974771D01*
X104067760Y-44168165D01*
X104084826Y-44342195D01*
X104103560Y-44484624D01*
X104122932Y-44583212D01*
X104139659Y-44623957D01*
X104179494Y-44627408D01*
X104263919Y-44617746D01*
X104345720Y-44602837D01*
X104491008Y-44584525D01*
X104582488Y-44602406D01*
X104623376Y-44657794D01*
X104624047Y-44716680D01*
X104605321Y-44758980D01*
X104553932Y-44791572D01*
X104455783Y-44821954D01*
X104401974Y-44834780D01*
X104189870Y-44883113D01*
X104211298Y-45018596D01*
X104235462Y-45128968D01*
X104277224Y-45275643D01*
X104332589Y-45448145D01*
X104397563Y-45635996D01*
X104468152Y-45828719D01*
X104540360Y-46015837D01*
X104610194Y-46186873D01*
X104673659Y-46331350D01*
X104726761Y-46438789D01*
X104765505Y-46498716D01*
X104778999Y-46507631D01*
X104816267Y-46492675D01*
X104892799Y-46454056D01*
X104963694Y-46415723D01*
X105067906Y-46363392D01*
X105135789Y-46345759D01*
X105185261Y-46358469D01*
X105189303Y-46360879D01*
X105245287Y-46420644D01*
X105235194Y-46489292D01*
X105159156Y-46566525D01*
X105073618Y-46621654D01*
X104980795Y-46678598D01*
X104917193Y-46725199D01*
X104898158Y-46747811D01*
X104917870Y-46802635D01*
X104972534Y-46900221D01*
X105055437Y-47031062D01*
X105159869Y-47185649D01*
X105279119Y-47354475D01*
X105406475Y-47528033D01*
X105535227Y-47696814D01*
X105658665Y-47851310D01*
X105766406Y-47977893D01*
X105899838Y-48128023D01*
X106179691Y-47849623D01*
X106309254Y-47724184D01*
X106403605Y-47642188D01*
X106471750Y-47596950D01*
X106522692Y-47581784D01*
X106539443Y-47582520D01*
X106591077Y-47595953D01*
X106618002Y-47621481D01*
X106617057Y-47663639D01*
X106585080Y-47726963D01*
X106518909Y-47815986D01*
X106415382Y-47935244D01*
X106271337Y-48089272D01*
X106083612Y-48282604D01*
X105973281Y-48394518D01*
X105803436Y-48565391D01*
X105648686Y-48719500D01*
X105515274Y-48850755D01*
X105409444Y-48953064D01*
X105337438Y-49020337D01*
X105305501Y-49046483D01*
X105304860Y-49046615D01*
X105260461Y-49030707D01*
X105224013Y-49011533D01*
X105182397Y-48976050D01*
X105173031Y-48930237D01*
X105199880Y-48866464D01*
X105266905Y-48777100D01*
X105378071Y-48654513D01*
X105446171Y-48583788D01*
X105726815Y-48295658D01*
X105445011Y-47961447D01*
X105310909Y-47794854D01*
X105161613Y-47597308D01*
X105016515Y-47395054D01*
X104908412Y-47235117D01*
X104653616Y-46842998D01*
X104476250Y-46944476D01*
X104369308Y-47000924D01*
X104298675Y-47023411D01*
X104246213Y-47016749D01*
X104230890Y-47009564D01*
X104168366Y-46953010D01*
X104170151Y-46887463D01*
X104234874Y-46816350D01*
X104331570Y-46757493D01*
X104427097Y-46703457D01*
X104495272Y-46654405D01*
X104516376Y-46629985D01*
X104510055Y-46582904D01*
X104479669Y-46491706D01*
X104430842Y-46372162D01*
X104400710Y-46305488D01*
X104311246Y-46097962D01*
X104218338Y-45855463D01*
X104129945Y-45601038D01*
X104054024Y-45357735D01*
X103998536Y-45148599D01*
X103993520Y-45126401D01*
X103950563Y-44931618D01*
X103839492Y-44950940D01*
X103722081Y-44971379D01*
X103614325Y-44990153D01*
X103530215Y-44996189D01*
X103482170Y-44969568D01*
X103461611Y-44937885D01*
X103442071Y-44866228D01*
X103473951Y-44810759D01*
X103562514Y-44766921D01*
X103698223Y-44733015D01*
X103802180Y-44711951D01*
X103873591Y-44696312D01*
X103895333Y-44690191D01*
X103889797Y-44658049D01*
X103875590Y-44578445D01*
X103858865Y-44485658D01*
X103846690Y-44390346D01*
X103833991Y-44242055D01*
X103821661Y-44054631D01*
X103810596Y-43841921D01*
X103801689Y-43617772D01*
X103800572Y-43583289D01*
X103778553Y-42881447D01*
X103584839Y-42864213D01*
X103445511Y-42840992D01*
X103363200Y-42798336D01*
X103329652Y-42731228D01*
X103327880Y-42707959D01*
X103347524Y-42659777D01*
X103413050Y-42632376D01*
X103532063Y-42623598D01*
X103617898Y-42625689D01*
X103824874Y-42634952D01*
X103845033Y-42507542D01*
X103884371Y-42290011D01*
X103937874Y-42037139D01*
X103999795Y-41773211D01*
X104064390Y-41522513D01*
X104125914Y-41309330D01*
X104136083Y-41277237D01*
X104180809Y-41136127D01*
X104216732Y-41018244D01*
X104239443Y-40938336D01*
X104245145Y-40912447D01*
X104216666Y-40888401D01*
X104138159Y-40845525D01*
X104021627Y-40789880D01*
X103879076Y-40727531D01*
X103878816Y-40727422D01*
X103714366Y-40655942D01*
X103603633Y-40601136D01*
X103537305Y-40557432D01*
X103506067Y-40519257D01*
X103500801Y-40501250D01*
X103519646Y-40425084D01*
X103555887Y-40394484D01*
X103598012Y-40383930D01*
X103661573Y-40391923D01*
X103757794Y-40421507D01*
X103897902Y-40475726D01*
X103978790Y-40509196D01*
X104120520Y-40568123D01*
X104238061Y-40616138D01*
X104318710Y-40648108D01*
X104349542Y-40658947D01*
X104368729Y-40630896D01*
X104411287Y-40554427D01*
X104471014Y-40441066D01*
X104541706Y-40302338D01*
X104545058Y-40295659D01*
X104636280Y-40124334D01*
X104751675Y-39923048D01*
X104876748Y-39716361D01*
X104997006Y-39528834D01*
X105002170Y-39521092D01*
X105277086Y-39109813D01*
X105117435Y-38971311D01*
X105015850Y-38871442D01*
X104971628Y-38796910D01*
X104970089Y-38768313D01*
X105007045Y-38706633D01*
X105079677Y-38695011D01*
X105180428Y-38732525D01*
X105288479Y-38807190D01*
X105441273Y-38932393D01*
X105640032Y-38710037D01*
X105747520Y-38597346D01*
X105888096Y-38460774D01*
X106048837Y-38311807D01*
X106216823Y-38161930D01*
X106379131Y-38022626D01*
X106522839Y-37905382D01*
X106635027Y-37821682D01*
X106653142Y-37809590D01*
X106725561Y-37756696D01*
X106766177Y-37715425D01*
X106769323Y-37707206D01*
X106751987Y-37666223D01*
X106707095Y-37590821D01*
X106669474Y-37534079D01*
X106599693Y-37421685D01*
X106572975Y-37343458D01*
X106586242Y-37285203D01*
X106609316Y-37256684D01*
X106662449Y-37222059D01*
X106716742Y-37232886D01*
X106781320Y-37294429D01*
X106857239Y-37399730D01*
X106978844Y-37582881D01*
X107116593Y-37498317D01*
X107274654Y-37407586D01*
X107475113Y-37301773D01*
X107698255Y-37190495D01*
X107924367Y-37083365D01*
X108133732Y-36989999D01*
X108287718Y-36927144D01*
X108417975Y-36876748D01*
X108522423Y-36835040D01*
X108586876Y-36807753D01*
X108600400Y-36800739D01*
X108597968Y-36765245D01*
X108579969Y-36684888D01*
X108556850Y-36600096D01*
X108523336Y-36459485D01*
X108522412Y-36370856D01*
X108556051Y-36326771D01*
X108626228Y-36319795D01*
X108631073Y-36320327D01*
X108683849Y-36334488D01*
X108722296Y-36372265D01*
X108757536Y-36448976D01*
X108786253Y-36534049D01*
X108851031Y-36737176D01*
X109172292Y-36659127D01*
X109395472Y-36610722D01*
X109644762Y-36566236D01*
X109900304Y-36528437D01*
X110142239Y-36500093D01*
X110350707Y-36483973D01*
X110447764Y-36481315D01*
X110646579Y-36481315D01*
X110646579Y-36065213D01*
X110647709Y-35888351D01*
X110652082Y-35766840D01*
X110661172Y-35689214D01*
X110676452Y-35644006D01*
X110699397Y-35619749D01*
X110704203Y-35616863D01*
X110789157Y-35604358D01*
X110821176Y-35616378D01*
X110821176Y-35616378D01*
G37*
X110821176Y-35616378D02*
X110846207Y-35637151D01*
X110863123Y-35675487D01*
X110873453Y-35742923D01*
X110878724Y-35851001D01*
X110880464Y-36011260D01*
X110880526Y-36064728D01*
X110880526Y-36481315D01*
X111062630Y-36481315D01*
X111215030Y-36487980D01*
X111413636Y-36506257D01*
X111639332Y-36533573D01*
X111873007Y-36567353D01*
X112095546Y-36605023D01*
X112287835Y-36644007D01*
X112311915Y-36649580D01*
X112443499Y-36679584D01*
X112551958Y-36702395D01*
X112619478Y-36714333D01*
X112630092Y-36715263D01*
X112661117Y-36686153D01*
X112701593Y-36610495D01*
X112736071Y-36523092D01*
X112783601Y-36404985D01*
X112828694Y-36341250D01*
X112872003Y-36320953D01*
X112951682Y-36327629D01*
X112990569Y-36378906D01*
X112989854Y-36478588D01*
X112959781Y-36601656D01*
X112899871Y-36798440D01*
X113254368Y-36937230D01*
X113665494Y-37111645D01*
X114055446Y-37303119D01*
X114338609Y-37462408D01*
X114534184Y-37580221D01*
X114655372Y-37406755D01*
X114751825Y-37289960D01*
X114833298Y-37237730D01*
X114900669Y-37249696D01*
X114935689Y-37289109D01*
X114947245Y-37333545D01*
X114927992Y-37396453D01*
X114872727Y-37492218D01*
X114849237Y-37528166D01*
X114727575Y-37711402D01*
X114958836Y-37883369D01*
X115200951Y-38075804D01*
X115459942Y-38303254D01*
X115714148Y-38546121D01*
X115877250Y-38714380D01*
X116078052Y-38929269D01*
X116222978Y-38808187D01*
X116341014Y-38726613D01*
X116440667Y-38690674D01*
X116512719Y-38702351D01*
X116541699Y-38739658D01*
X116543254Y-38802233D01*
X116519257Y-38872245D01*
X116482310Y-38918006D01*
X116469021Y-38922411D01*
X116431124Y-38943188D01*
X116364014Y-38993848D01*
X116333658Y-39019136D01*
X116222184Y-39114503D01*
X116403669Y-39360344D01*
X116543341Y-39559830D01*
X116688147Y-39784463D01*
X116826942Y-40015577D01*
X116948581Y-40234505D01*
X117041920Y-40422580D01*
X117053755Y-40449186D01*
X117102243Y-40553982D01*
X117142444Y-40629184D01*
X117165854Y-40658923D01*
X117166184Y-40658947D01*
X117203611Y-40646749D01*
X117289488Y-40613603D01*
X117410740Y-40564682D01*
X117543406Y-40509723D01*
X117716832Y-40439905D01*
X117840187Y-40398654D01*
X117923237Y-40384741D01*
X117975745Y-40396937D01*
X118007475Y-40434014D01*
X118014638Y-40450420D01*
X118016064Y-40501729D01*
X117976284Y-40554423D01*
X117889150Y-40612840D01*
X117748514Y-40681318D01*
X117598158Y-40744332D01*
X117464503Y-40798428D01*
X117355932Y-40843114D01*
X117286158Y-40872704D01*
X117267746Y-40881384D01*
X117272108Y-40914952D01*
X117294222Y-40997803D01*
X117330153Y-41115995D01*
X117359407Y-41206231D01*
X117437352Y-41457320D01*
X117509820Y-41720644D01*
X117572448Y-41978109D01*
X117620875Y-42211625D01*
X117650741Y-42403100D01*
X117653109Y-42424699D01*
X117674802Y-42636372D01*
X117878783Y-42629736D01*
X118017318Y-42626033D01*
X118102196Y-42628484D01*
X118146560Y-42640867D01*
X118163552Y-42666958D01*
X118166315Y-42710535D01*
X118166316Y-42712369D01*
X118155734Y-42778216D01*
X118115613Y-42820770D01*
X118033389Y-42847256D01*
X117901994Y-42864385D01*
X117721225Y-42881447D01*
X117727607Y-43349342D01*
X117725843Y-43572365D01*
X117716204Y-43821783D01*
X117700315Y-44065236D01*
X117682478Y-44248619D01*
X117663916Y-44409800D01*
X117649686Y-44544654D01*
X117641018Y-44640613D01*
X117639139Y-44685110D01*
X117639628Y-44686693D01*
X117674101Y-44697146D01*
X117755140Y-44717646D01*
X117848816Y-44739916D01*
X117961094Y-44769175D01*
X118023336Y-44797521D01*
X118051431Y-44835073D01*
X118059505Y-44874085D01*
X118051536Y-44946390D01*
X118002231Y-44984034D01*
X117904928Y-44989217D01*
X117773542Y-44968512D01*
X117672860Y-44949789D01*
X117603306Y-44940966D01*
X117583639Y-44942277D01*
X117571595Y-44976846D01*
X117545190Y-45063409D01*
X117508104Y-45189598D01*
X117464016Y-45343046D01*
X117455555Y-45372839D01*
X117392296Y-45577413D01*
X117311668Y-45811475D01*
X117224736Y-46044026D01*
X117153819Y-46218132D01*
X116970948Y-46644137D01*
X117127902Y-46723672D01*
X117259923Y-46799690D01*
X117332548Y-46865864D01*
X117351354Y-46928047D01*
X117345492Y-46951995D01*
X117302858Y-47008400D01*
X117230748Y-47019406D01*
X117121880Y-46984765D01*
X117034879Y-46941422D01*
X116937166Y-46894142D01*
X116865242Y-46869943D01*
X116835670Y-46873384D01*
X116804867Y-46933712D01*
X116741457Y-47036008D01*
X116653329Y-47169061D01*
X116548373Y-47321661D01*
X116434479Y-47482597D01*
X116319537Y-47640661D01*
X116211437Y-47784641D01*
X116118068Y-47903328D01*
X116072864Y-47957204D01*
X115973857Y-48071527D01*
X115889403Y-48170371D01*
X115830490Y-48240797D01*
X115810522Y-48266000D01*
X115807968Y-48299375D01*
X115839305Y-48354864D01*
X115909670Y-48439305D01*
X116024200Y-48559532D01*
X116052825Y-48588441D01*
X116195156Y-48739324D01*
X116285524Y-48854925D01*
X116325995Y-48939316D01*
X116318634Y-48996573D01*
X116275293Y-49027345D01*
X116218195Y-49045168D01*
X116202096Y-49047631D01*
X116172791Y-49024990D01*
X116104187Y-48962028D01*
X116003747Y-48866185D01*
X115878936Y-48744901D01*
X115737217Y-48605616D01*
X115586052Y-48455772D01*
X115432906Y-48302809D01*
X115285241Y-48154167D01*
X115150521Y-48017286D01*
X115036209Y-47899608D01*
X114949769Y-47808571D01*
X114898664Y-47751618D01*
X114888710Y-47738276D01*
X114872091Y-47664501D01*
X114878038Y-47629658D01*
X114915024Y-47582879D01*
X114975734Y-47581971D01*
X115064258Y-47629004D01*
X115184683Y-47726050D01*
X115318641Y-47852829D01*
X115597232Y-48128552D01*
X115773314Y-47940801D01*
X115890576Y-47808812D01*
X116015392Y-47656396D01*
X116141979Y-47492034D01*
X116264554Y-47324205D01*
X116377335Y-47161392D01*
X116474538Y-47012073D01*
X116550380Y-46884729D01*
X116599079Y-46787841D01*
X116614852Y-46729889D01*
X116607384Y-46717680D01*
X116560594Y-46694059D01*
X116478854Y-46646177D01*
X116414011Y-46605940D01*
X116318596Y-46537946D01*
X116273657Y-46482924D01*
X116267436Y-46432094D01*
X116300708Y-46365667D01*
X116374916Y-46350198D01*
X116491023Y-46385658D01*
X116565890Y-46422913D01*
X116660708Y-46468648D01*
X116732976Y-46492849D01*
X116759421Y-46492905D01*
X116792070Y-46448494D01*
X116840727Y-46351402D01*
X116901281Y-46212693D01*
X116969620Y-46043429D01*
X117041634Y-45854672D01*
X117113209Y-45657483D01*
X117180236Y-45462925D01*
X117238602Y-45282061D01*
X117284196Y-45125952D01*
X117312907Y-45005661D01*
X117313650Y-45001731D01*
X117335826Y-44882804D01*
X117124426Y-44834625D01*
X117008839Y-44805509D01*
X116943587Y-44778271D01*
X116913155Y-44743310D01*
X116902728Y-44697408D01*
X116914397Y-44621470D01*
X116973847Y-44584400D01*
X117084507Y-44584951D01*
X117168195Y-44600782D01*
X117265422Y-44621541D01*
X117336939Y-44633860D01*
X117351792Y-44635235D01*
X117375059Y-44604135D01*
X117398727Y-44517136D01*
X117421872Y-44385167D01*
X117443570Y-44219157D01*
X117462894Y-44030037D01*
X117478920Y-43828735D01*
X117490723Y-43626181D01*
X117497377Y-43433305D01*
X117497957Y-43261036D01*
X117491539Y-43120304D01*
X117484953Y-43062038D01*
X117462268Y-42910762D01*
X117262761Y-42925193D01*
X117111412Y-42924163D01*
X117010250Y-42897050D01*
X116965042Y-42845695D01*
X116963158Y-42829610D01*
X116992574Y-42771285D01*
X117065204Y-42722485D01*
X117157619Y-42697896D01*
X117174427Y-42697175D01*
X117314150Y-42686685D01*
X117396848Y-42654452D01*
X117429757Y-42597126D01*
X117431053Y-42578456D01*
X117422531Y-42480536D01*
X117399005Y-42337900D01*
X117363532Y-42162519D01*
X117319171Y-41966365D01*
X117268980Y-41761411D01*
X117216018Y-41559628D01*
X117163342Y-41372988D01*
X117114011Y-41213462D01*
X117071083Y-41093023D01*
X117037616Y-41023642D01*
X117032097Y-41016701D01*
X116993130Y-41018242D01*
X116905875Y-41042228D01*
X116783386Y-41084545D01*
X116643318Y-41139191D01*
X116454068Y-41211962D01*
X116317330Y-41252071D01*
X116227372Y-41259654D01*
X116178463Y-41234844D01*
X116164871Y-41177774D01*
X116167380Y-41150326D01*
X116184817Y-41112717D01*
X116232410Y-41072409D01*
X116319522Y-41023761D01*
X116455513Y-40961130D01*
X116545395Y-40922542D01*
X116705745Y-40852740D01*
X116812374Y-40800607D01*
X116874266Y-40760657D01*
X116900403Y-40727402D01*
X116902142Y-40704626D01*
X116875719Y-40627832D01*
X116818764Y-40506996D01*
X116738073Y-40353527D01*
X116640442Y-40178832D01*
X116532666Y-39994318D01*
X116421542Y-39811394D01*
X116313864Y-39641466D01*
X116216428Y-39495942D01*
X116136030Y-39386230D01*
X116079585Y-39323835D01*
X116041949Y-39305379D01*
X115995001Y-39317696D01*
X115922893Y-39367053D01*
X115876803Y-39404009D01*
X115762012Y-39485001D01*
X115676620Y-39511966D01*
X115612284Y-39486047D01*
X115579766Y-39444674D01*
X115567057Y-39405993D01*
X115583512Y-39362706D01*
X115637332Y-39302009D01*
X115719722Y-39226152D01*
X115896680Y-39068876D01*
X115485774Y-38667728D01*
X115276428Y-38468326D01*
X115077119Y-38287944D01*
X114896791Y-38134218D01*
X114744383Y-38014784D01*
X114634118Y-37940344D01*
X114592242Y-37952482D01*
X114528913Y-38017818D01*
X114485929Y-38076483D01*
X114408433Y-38185584D01*
X114353485Y-38246106D01*
X114309173Y-38266746D01*
X114263589Y-38256200D01*
X114249498Y-38249123D01*
X114201823Y-38205455D01*
X114196247Y-38140874D01*
X114234218Y-38045455D01*
X114293885Y-37944967D01*
X114351334Y-37852453D01*
X114375230Y-37798308D01*
X114369023Y-37765237D01*
X114336164Y-37735944D01*
X114335661Y-37735573D01*
X114244662Y-37677234D01*
X114111077Y-37602739D01*
X113946138Y-37517291D01*
X113761078Y-37426094D01*
X113567127Y-37334349D01*
X113375519Y-37247261D01*
X113197485Y-37170033D01*
X113044258Y-37107867D01*
X112927069Y-37065967D01*
X112857150Y-37049536D01*
X112854562Y-37049473D01*
X112827655Y-37078839D01*
X112793349Y-37154687D01*
X112768192Y-37230490D01*
X112719599Y-37369061D01*
X112669344Y-37446891D01*
X112611634Y-37469953D01*
X112553715Y-37451669D01*
X112505512Y-37415930D01*
X112488456Y-37366388D01*
X112501389Y-37286540D01*
X112534868Y-37183158D01*
X112565538Y-37087147D01*
X112583259Y-37014083D01*
X112585000Y-36997883D01*
X112553365Y-36967762D01*
X112464967Y-36933012D01*
X112329562Y-36895545D01*
X112156908Y-36857271D01*
X111956763Y-36820103D01*
X111738883Y-36785949D01*
X111513027Y-36756723D01*
X111288952Y-36734334D01*
X111207449Y-36728096D01*
X110882662Y-36705547D01*
X110873239Y-37116239D01*
X110867602Y-37295587D01*
X110859325Y-37419103D01*
X110846841Y-37497789D01*
X110828581Y-37542648D01*
X110809872Y-37560890D01*
X110737003Y-37579789D01*
X110701253Y-37573867D01*
X110678132Y-37556174D01*
X110662467Y-37516751D01*
X110652895Y-37444655D01*
X110648057Y-37328942D01*
X110646593Y-37158668D01*
X110646579Y-37134075D01*
X110646579Y-36715263D01*
X110481185Y-36715263D01*
X110337382Y-36721828D01*
X110146590Y-36739842D01*
X109927183Y-36766782D01*
X109697538Y-36800125D01*
X109476030Y-36837347D01*
X109281036Y-36875926D01*
X109234539Y-36886429D01*
X109086007Y-36923286D01*
X108994174Y-36957535D01*
X108950418Y-37000736D01*
X108946116Y-37064448D01*
X108972645Y-37160234D01*
X108990962Y-37212965D01*
X109022335Y-37338772D01*
X109009786Y-37420437D01*
X108956232Y-37463604D01*
X108885499Y-37470360D01*
X108828237Y-37425677D01*
X108778824Y-37323459D01*
X108754039Y-37244384D01*
X108721466Y-37135514D01*
X108694694Y-37078185D01*
X108663093Y-37059150D01*
X108616033Y-37065159D01*
X108611186Y-37066349D01*
X108494923Y-37102386D01*
X108345328Y-37159368D01*
X108172376Y-37232371D01*
X107986040Y-37316472D01*
X107796292Y-37406745D01*
X107613106Y-37498268D01*
X107446455Y-37586116D01*
X107306313Y-37665364D01*
X107202652Y-37731090D01*
X107145446Y-37778368D01*
X107137368Y-37794014D01*
X107154968Y-37835849D01*
X107200078Y-37911861D01*
X107237632Y-37968552D01*
X107309505Y-38086834D01*
X107334002Y-38168765D01*
X107312524Y-38223694D01*
X107279408Y-38246939D01*
X107220013Y-38265903D01*
X107166770Y-38248902D01*
X107107476Y-38187761D01*
X107036109Y-38083973D01*
X106972632Y-37991708D01*
X106927805Y-37948380D01*
X106888855Y-37943928D01*
X106869019Y-37952367D01*
X106775115Y-38013146D01*
X106645485Y-38111690D01*
X106491483Y-38238318D01*
X106324466Y-38383347D01*
X106155787Y-38537097D01*
X105996803Y-38689886D01*
X105955619Y-38731128D01*
X105626106Y-39064543D01*
X105796869Y-39221534D01*
X105895601Y-39316007D01*
X105948680Y-39380278D01*
X105962176Y-39426481D01*
X105942165Y-39466745D01*
X105927526Y-39482526D01*
X105870794Y-39517225D01*
X105802517Y-39508962D01*
X105710408Y-39454359D01*
X105647949Y-39405658D01*
X105564363Y-39341152D01*
X105500509Y-39299092D01*
X105477402Y-39289658D01*
X105437170Y-39318418D01*
X105372050Y-39396430D01*
X105287776Y-39514016D01*
X105190079Y-39661497D01*
X105084692Y-39829194D01*
X104977350Y-40007429D01*
X104873783Y-40186523D01*
X104779725Y-40356797D01*
X104700910Y-40508572D01*
X104643068Y-40632170D01*
X104611935Y-40717911D01*
X104610452Y-40753341D01*
X104646151Y-40775704D01*
X104730833Y-40816650D01*
X104851353Y-40870103D01*
X104977247Y-40922918D01*
X105146651Y-40995311D01*
X105260527Y-41052996D01*
X105326847Y-41102137D01*
X105353582Y-41148897D01*
X105348706Y-41199440D01*
X105345709Y-41207810D01*
X105318915Y-41249337D01*
X105272920Y-41266711D01*
X105198122Y-41258577D01*
X105084916Y-41223579D01*
X104923697Y-41160360D01*
X104879558Y-41141996D01*
X104736701Y-41084605D01*
X104615988Y-41040718D01*
X104530792Y-41014892D01*
X104495241Y-41011020D01*
X104469472Y-41052758D01*
X104431523Y-41146880D01*
X104385223Y-41280873D01*
X104334396Y-41442223D01*
X104282869Y-41618418D01*
X104234470Y-41796943D01*
X104193024Y-41965285D01*
X104168132Y-42080729D01*
X104127419Y-42287143D01*
X104098805Y-42437284D01*
X104081800Y-42540524D01*
X104075916Y-42606238D01*
X104080664Y-42643799D01*
X104095556Y-42662579D01*
X104120103Y-42671953D01*
X104137082Y-42676371D01*
X104223522Y-42690576D01*
X104328965Y-42697136D01*
X104334263Y-42697175D01*
X104446848Y-42717523D01*
X104512958Y-42772823D01*
X104524255Y-42854776D01*
X104508099Y-42887000D01*
X104465731Y-42905565D01*
X104382600Y-42914118D01*
X104279193Y-42916189D01*
X104045921Y-42917509D01*
X104036757Y-43400794D01*
X104036859Y-43578847D01*
X104042746Y-43774252D01*
X104053390Y-43974771D01*
X104067760Y-44168165D01*
X104084826Y-44342195D01*
X104103560Y-44484624D01*
X104122932Y-44583212D01*
X104139659Y-44623957D01*
X104179494Y-44627408D01*
X104263919Y-44617746D01*
X104345720Y-44602837D01*
X104491008Y-44584525D01*
X104582488Y-44602406D01*
X104623376Y-44657794D01*
X104624047Y-44716680D01*
X104605321Y-44758980D01*
X104553932Y-44791572D01*
X104455783Y-44821954D01*
X104401974Y-44834780D01*
X104189870Y-44883113D01*
X104211298Y-45018596D01*
X104235462Y-45128968D01*
X104277224Y-45275643D01*
X104332589Y-45448145D01*
X104397563Y-45635996D01*
X104468152Y-45828719D01*
X104540360Y-46015837D01*
X104610194Y-46186873D01*
X104673659Y-46331350D01*
X104726761Y-46438789D01*
X104765505Y-46498716D01*
X104778999Y-46507631D01*
X104816267Y-46492675D01*
X104892799Y-46454056D01*
X104963694Y-46415723D01*
X105067906Y-46363392D01*
X105135789Y-46345759D01*
X105185261Y-46358469D01*
X105189303Y-46360879D01*
X105245287Y-46420644D01*
X105235194Y-46489292D01*
X105159156Y-46566525D01*
X105073618Y-46621654D01*
X104980795Y-46678598D01*
X104917193Y-46725199D01*
X104898158Y-46747811D01*
X104917870Y-46802635D01*
X104972534Y-46900221D01*
X105055437Y-47031062D01*
X105159869Y-47185649D01*
X105279119Y-47354475D01*
X105406475Y-47528033D01*
X105535227Y-47696814D01*
X105658665Y-47851310D01*
X105766406Y-47977893D01*
X105899838Y-48128023D01*
X106179691Y-47849623D01*
X106309254Y-47724184D01*
X106403605Y-47642188D01*
X106471750Y-47596950D01*
X106522692Y-47581784D01*
X106539443Y-47582520D01*
X106591077Y-47595953D01*
X106618002Y-47621481D01*
X106617057Y-47663639D01*
X106585080Y-47726963D01*
X106518909Y-47815986D01*
X106415382Y-47935244D01*
X106271337Y-48089272D01*
X106083612Y-48282604D01*
X105973281Y-48394518D01*
X105803436Y-48565391D01*
X105648686Y-48719500D01*
X105515274Y-48850755D01*
X105409444Y-48953064D01*
X105337438Y-49020337D01*
X105305501Y-49046483D01*
X105304860Y-49046615D01*
X105260461Y-49030707D01*
X105224013Y-49011533D01*
X105182397Y-48976050D01*
X105173031Y-48930237D01*
X105199880Y-48866464D01*
X105266905Y-48777100D01*
X105378071Y-48654513D01*
X105446171Y-48583788D01*
X105726815Y-48295658D01*
X105445011Y-47961447D01*
X105310909Y-47794854D01*
X105161613Y-47597308D01*
X105016515Y-47395054D01*
X104908412Y-47235117D01*
X104653616Y-46842998D01*
X104476250Y-46944476D01*
X104369308Y-47000924D01*
X104298675Y-47023411D01*
X104246213Y-47016749D01*
X104230890Y-47009564D01*
X104168366Y-46953010D01*
X104170151Y-46887463D01*
X104234874Y-46816350D01*
X104331570Y-46757493D01*
X104427097Y-46703457D01*
X104495272Y-46654405D01*
X104516376Y-46629985D01*
X104510055Y-46582904D01*
X104479669Y-46491706D01*
X104430842Y-46372162D01*
X104400710Y-46305488D01*
X104311246Y-46097962D01*
X104218338Y-45855463D01*
X104129945Y-45601038D01*
X104054024Y-45357735D01*
X103998536Y-45148599D01*
X103993520Y-45126401D01*
X103950563Y-44931618D01*
X103839492Y-44950940D01*
X103722081Y-44971379D01*
X103614325Y-44990153D01*
X103530215Y-44996189D01*
X103482170Y-44969568D01*
X103461611Y-44937885D01*
X103442071Y-44866228D01*
X103473951Y-44810759D01*
X103562514Y-44766921D01*
X103698223Y-44733015D01*
X103802180Y-44711951D01*
X103873591Y-44696312D01*
X103895333Y-44690191D01*
X103889797Y-44658049D01*
X103875590Y-44578445D01*
X103858865Y-44485658D01*
X103846690Y-44390346D01*
X103833991Y-44242055D01*
X103821661Y-44054631D01*
X103810596Y-43841921D01*
X103801689Y-43617772D01*
X103800572Y-43583289D01*
X103778553Y-42881447D01*
X103584839Y-42864213D01*
X103445511Y-42840992D01*
X103363200Y-42798336D01*
X103329652Y-42731228D01*
X103327880Y-42707959D01*
X103347524Y-42659777D01*
X103413050Y-42632376D01*
X103532063Y-42623598D01*
X103617898Y-42625689D01*
X103824874Y-42634952D01*
X103845033Y-42507542D01*
X103884371Y-42290011D01*
X103937874Y-42037139D01*
X103999795Y-41773211D01*
X104064390Y-41522513D01*
X104125914Y-41309330D01*
X104136083Y-41277237D01*
X104180809Y-41136127D01*
X104216732Y-41018244D01*
X104239443Y-40938336D01*
X104245145Y-40912447D01*
X104216666Y-40888401D01*
X104138159Y-40845525D01*
X104021627Y-40789880D01*
X103879076Y-40727531D01*
X103878816Y-40727422D01*
X103714366Y-40655942D01*
X103603633Y-40601136D01*
X103537305Y-40557432D01*
X103506067Y-40519257D01*
X103500801Y-40501250D01*
X103519646Y-40425084D01*
X103555887Y-40394484D01*
X103598012Y-40383930D01*
X103661573Y-40391923D01*
X103757794Y-40421507D01*
X103897902Y-40475726D01*
X103978790Y-40509196D01*
X104120520Y-40568123D01*
X104238061Y-40616138D01*
X104318710Y-40648108D01*
X104349542Y-40658947D01*
X104368729Y-40630896D01*
X104411287Y-40554427D01*
X104471014Y-40441066D01*
X104541706Y-40302338D01*
X104545058Y-40295659D01*
X104636280Y-40124334D01*
X104751675Y-39923048D01*
X104876748Y-39716361D01*
X104997006Y-39528834D01*
X105002170Y-39521092D01*
X105277086Y-39109813D01*
X105117435Y-38971311D01*
X105015850Y-38871442D01*
X104971628Y-38796910D01*
X104970089Y-38768313D01*
X105007045Y-38706633D01*
X105079677Y-38695011D01*
X105180428Y-38732525D01*
X105288479Y-38807190D01*
X105441273Y-38932393D01*
X105640032Y-38710037D01*
X105747520Y-38597346D01*
X105888096Y-38460774D01*
X106048837Y-38311807D01*
X106216823Y-38161930D01*
X106379131Y-38022626D01*
X106522839Y-37905382D01*
X106635027Y-37821682D01*
X106653142Y-37809590D01*
X106725561Y-37756696D01*
X106766177Y-37715425D01*
X106769323Y-37707206D01*
X106751987Y-37666223D01*
X106707095Y-37590821D01*
X106669474Y-37534079D01*
X106599693Y-37421685D01*
X106572975Y-37343458D01*
X106586242Y-37285203D01*
X106609316Y-37256684D01*
X106662449Y-37222059D01*
X106716742Y-37232886D01*
X106781320Y-37294429D01*
X106857239Y-37399730D01*
X106978844Y-37582881D01*
X107116593Y-37498317D01*
X107274654Y-37407586D01*
X107475113Y-37301773D01*
X107698255Y-37190495D01*
X107924367Y-37083365D01*
X108133732Y-36989999D01*
X108287718Y-36927144D01*
X108417975Y-36876748D01*
X108522423Y-36835040D01*
X108586876Y-36807753D01*
X108600400Y-36800739D01*
X108597968Y-36765245D01*
X108579969Y-36684888D01*
X108556850Y-36600096D01*
X108523336Y-36459485D01*
X108522412Y-36370856D01*
X108556051Y-36326771D01*
X108626228Y-36319795D01*
X108631073Y-36320327D01*
X108683849Y-36334488D01*
X108722296Y-36372265D01*
X108757536Y-36448976D01*
X108786253Y-36534049D01*
X108851031Y-36737176D01*
X109172292Y-36659127D01*
X109395472Y-36610722D01*
X109644762Y-36566236D01*
X109900304Y-36528437D01*
X110142239Y-36500093D01*
X110350707Y-36483973D01*
X110447764Y-36481315D01*
X110646579Y-36481315D01*
X110646579Y-36065213D01*
X110647709Y-35888351D01*
X110652082Y-35766840D01*
X110661172Y-35689214D01*
X110676452Y-35644006D01*
X110699397Y-35619749D01*
X110704203Y-35616863D01*
X110789157Y-35604358D01*
X110821176Y-35616378D01*
G36*
X110851176Y-15266378D02*
X110876207Y-15287151D01*
X110893123Y-15325487D01*
X110903453Y-15392923D01*
X110908724Y-15501001D01*
X110910464Y-15661260D01*
X110910526Y-15714728D01*
X110910526Y-16131315D01*
X111092630Y-16131315D01*
X111245030Y-16137980D01*
X111443636Y-16156257D01*
X111669332Y-16183573D01*
X111903007Y-16217353D01*
X112125546Y-16255023D01*
X112317835Y-16294007D01*
X112341915Y-16299580D01*
X112473499Y-16329584D01*
X112581958Y-16352395D01*
X112649478Y-16364333D01*
X112660092Y-16365263D01*
X112691117Y-16336153D01*
X112731593Y-16260495D01*
X112766071Y-16173092D01*
X112813601Y-16054985D01*
X112858694Y-15991250D01*
X112902003Y-15970953D01*
X112981682Y-15977629D01*
X113020569Y-16028906D01*
X113019854Y-16128588D01*
X112989781Y-16251656D01*
X112929871Y-16448440D01*
X113284368Y-16587230D01*
X113695494Y-16761645D01*
X114085446Y-16953119D01*
X114368609Y-17112408D01*
X114564184Y-17230221D01*
X114685372Y-17056755D01*
X114781825Y-16939960D01*
X114863298Y-16887730D01*
X114930669Y-16899696D01*
X114965689Y-16939109D01*
X114977245Y-16983545D01*
X114957992Y-17046453D01*
X114902727Y-17142218D01*
X114879237Y-17178166D01*
X114757575Y-17361402D01*
X114988836Y-17533369D01*
X115230951Y-17725804D01*
X115489942Y-17953254D01*
X115744148Y-18196121D01*
X115907250Y-18364380D01*
X116108052Y-18579269D01*
X116252978Y-18458187D01*
X116371014Y-18376613D01*
X116470667Y-18340674D01*
X116542719Y-18352351D01*
X116571699Y-18389658D01*
X116573254Y-18452233D01*
X116549257Y-18522245D01*
X116512310Y-18568006D01*
X116499021Y-18572411D01*
X116461124Y-18593188D01*
X116394014Y-18643848D01*
X116363658Y-18669136D01*
X116252184Y-18764503D01*
X116433669Y-19010344D01*
X116573341Y-19209830D01*
X116718147Y-19434463D01*
X116856942Y-19665577D01*
X116978581Y-19884505D01*
X117071920Y-20072580D01*
X117083755Y-20099186D01*
X117132243Y-20203982D01*
X117172444Y-20279184D01*
X117195854Y-20308923D01*
X117196184Y-20308947D01*
X117233611Y-20296749D01*
X117319488Y-20263603D01*
X117440740Y-20214682D01*
X117573406Y-20159723D01*
X117746832Y-20089905D01*
X117870187Y-20048654D01*
X117953237Y-20034741D01*
X118005745Y-20046937D01*
X118037475Y-20084014D01*
X118044638Y-20100420D01*
X118046064Y-20151729D01*
X118006284Y-20204423D01*
X117919150Y-20262840D01*
X117778514Y-20331318D01*
X117628158Y-20394332D01*
X117494503Y-20448428D01*
X117385932Y-20493114D01*
X117316158Y-20522704D01*
X117297746Y-20531384D01*
X117302108Y-20564952D01*
X117324222Y-20647803D01*
X117360153Y-20765995D01*
X117389407Y-20856231D01*
X117467352Y-21107320D01*
X117539820Y-21370644D01*
X117602448Y-21628109D01*
X117650875Y-21861625D01*
X117680741Y-22053100D01*
X117683109Y-22074699D01*
X117704802Y-22286372D01*
X117908783Y-22279736D01*
X118047318Y-22276033D01*
X118132196Y-22278484D01*
X118176560Y-22290867D01*
X118193552Y-22316958D01*
X118196315Y-22360535D01*
X118196316Y-22362369D01*
X118185734Y-22428216D01*
X118145613Y-22470770D01*
X118063389Y-22497256D01*
X117931994Y-22514385D01*
X117751225Y-22531447D01*
X117757607Y-22999342D01*
X117755843Y-23222365D01*
X117746204Y-23471783D01*
X117730315Y-23715236D01*
X117712478Y-23898619D01*
X117693916Y-24059800D01*
X117679686Y-24194654D01*
X117671018Y-24290613D01*
X117669139Y-24335110D01*
X117669628Y-24336693D01*
X117704101Y-24347146D01*
X117785140Y-24367646D01*
X117878816Y-24389916D01*
X117991094Y-24419175D01*
X118053336Y-24447521D01*
X118081431Y-24485073D01*
X118089505Y-24524085D01*
X118081536Y-24596390D01*
X118032231Y-24634034D01*
X117934928Y-24639217D01*
X117803542Y-24618512D01*
X117702860Y-24599789D01*
X117633306Y-24590966D01*
X117613639Y-24592277D01*
X117601595Y-24626846D01*
X117575190Y-24713409D01*
X117538104Y-24839598D01*
X117494016Y-24993046D01*
X117485555Y-25022839D01*
X117422296Y-25227413D01*
X117341668Y-25461475D01*
X117254736Y-25694026D01*
X117183819Y-25868132D01*
X117000948Y-26294137D01*
X117157902Y-26373672D01*
X117289923Y-26449690D01*
X117362548Y-26515864D01*
X117381354Y-26578047D01*
X117375492Y-26601995D01*
X117332858Y-26658400D01*
X117260748Y-26669406D01*
X117151880Y-26634765D01*
X117064879Y-26591422D01*
X116967166Y-26544142D01*
X116895242Y-26519943D01*
X116865670Y-26523384D01*
X116834867Y-26583712D01*
X116771457Y-26686008D01*
X116683329Y-26819061D01*
X116578373Y-26971661D01*
X116464479Y-27132597D01*
X116349537Y-27290661D01*
X116241437Y-27434641D01*
X116148068Y-27553328D01*
X116102864Y-27607204D01*
X116003857Y-27721527D01*
X115919403Y-27820371D01*
X115860490Y-27890797D01*
X115840522Y-27916000D01*
X115837968Y-27949375D01*
X115869305Y-28004864D01*
X115939670Y-28089305D01*
X116054200Y-28209532D01*
X116082825Y-28238441D01*
X116225156Y-28389324D01*
X116315524Y-28504925D01*
X116355995Y-28589316D01*
X116348634Y-28646573D01*
X116305293Y-28677345D01*
X116248195Y-28695168D01*
X116232096Y-28697631D01*
X116202791Y-28674990D01*
X116134187Y-28612028D01*
X116033747Y-28516185D01*
X115908936Y-28394901D01*
X115767217Y-28255616D01*
X115616052Y-28105772D01*
X115462906Y-27952809D01*
X115315241Y-27804167D01*
X115180521Y-27667286D01*
X115066209Y-27549608D01*
X114979769Y-27458571D01*
X114928664Y-27401618D01*
X114918710Y-27388276D01*
X114902091Y-27314501D01*
X114908038Y-27279658D01*
X114945024Y-27232879D01*
X115005734Y-27231971D01*
X115094258Y-27279004D01*
X115214683Y-27376050D01*
X115348641Y-27502829D01*
X115627232Y-27778552D01*
X115803314Y-27590801D01*
X115920576Y-27458812D01*
X116045392Y-27306396D01*
X116171979Y-27142034D01*
X116294554Y-26974205D01*
X116407335Y-26811392D01*
X116504538Y-26662073D01*
X116580380Y-26534729D01*
X116629079Y-26437841D01*
X116644852Y-26379889D01*
X116637384Y-26367680D01*
X116590594Y-26344059D01*
X116508854Y-26296177D01*
X116444011Y-26255940D01*
X116348596Y-26187946D01*
X116303657Y-26132924D01*
X116297436Y-26082094D01*
X116330708Y-26015667D01*
X116404916Y-26000198D01*
X116521023Y-26035658D01*
X116595890Y-26072913D01*
X116690708Y-26118648D01*
X116762976Y-26142849D01*
X116789421Y-26142905D01*
X116822070Y-26098494D01*
X116870727Y-26001402D01*
X116931281Y-25862693D01*
X116999620Y-25693429D01*
X117071634Y-25504672D01*
X117143209Y-25307483D01*
X117210236Y-25112925D01*
X117268602Y-24932061D01*
X117314196Y-24775952D01*
X117342907Y-24655661D01*
X117343650Y-24651731D01*
X117365826Y-24532804D01*
X117154426Y-24484625D01*
X117038839Y-24455509D01*
X116973587Y-24428271D01*
X116943155Y-24393310D01*
X116932728Y-24347408D01*
X116944397Y-24271470D01*
X117003847Y-24234400D01*
X117114507Y-24234951D01*
X117198195Y-24250782D01*
X117295422Y-24271541D01*
X117366939Y-24283860D01*
X117381792Y-24285235D01*
X117405059Y-24254135D01*
X117428727Y-24167136D01*
X117451872Y-24035167D01*
X117473570Y-23869157D01*
X117492894Y-23680037D01*
X117508920Y-23478735D01*
X117520723Y-23276181D01*
X117527377Y-23083305D01*
X117527957Y-22911036D01*
X117521539Y-22770304D01*
X117514953Y-22712038D01*
X117492268Y-22560762D01*
X117292761Y-22575193D01*
X117141412Y-22574163D01*
X117040250Y-22547050D01*
X116995042Y-22495695D01*
X116993158Y-22479610D01*
X117022574Y-22421285D01*
X117095204Y-22372485D01*
X117187619Y-22347896D01*
X117204427Y-22347175D01*
X117344150Y-22336685D01*
X117426848Y-22304452D01*
X117459757Y-22247126D01*
X117461053Y-22228456D01*
X117452531Y-22130536D01*
X117429005Y-21987900D01*
X117393532Y-21812519D01*
X117349171Y-21616365D01*
X117298980Y-21411411D01*
X117246018Y-21209628D01*
X117193342Y-21022988D01*
X117144011Y-20863462D01*
X117101083Y-20743023D01*
X117067616Y-20673642D01*
X117062097Y-20666701D01*
X117023130Y-20668242D01*
X116935875Y-20692228D01*
X116813386Y-20734545D01*
X116673318Y-20789191D01*
X116484068Y-20861962D01*
X116347330Y-20902071D01*
X116257372Y-20909654D01*
X116208463Y-20884844D01*
X116194871Y-20827774D01*
X116197380Y-20800326D01*
X116214817Y-20762717D01*
X116262410Y-20722409D01*
X116349522Y-20673761D01*
X116485513Y-20611130D01*
X116575395Y-20572542D01*
X116735745Y-20502740D01*
X116842374Y-20450607D01*
X116904266Y-20410657D01*
X116930403Y-20377402D01*
X116932142Y-20354626D01*
X116905719Y-20277832D01*
X116848764Y-20156996D01*
X116768073Y-20003527D01*
X116670442Y-19828832D01*
X116562666Y-19644318D01*
X116451542Y-19461394D01*
X116343864Y-19291466D01*
X116246428Y-19145942D01*
X116166030Y-19036230D01*
X116109585Y-18973835D01*
X116071949Y-18955379D01*
X116025001Y-18967696D01*
X115952893Y-19017053D01*
X115906803Y-19054009D01*
X115792012Y-19135001D01*
X115706620Y-19161966D01*
X115642284Y-19136047D01*
X115609766Y-19094674D01*
X115597057Y-19055993D01*
X115613512Y-19012706D01*
X115667332Y-18952009D01*
X115749722Y-18876152D01*
X115926680Y-18718876D01*
X115515774Y-18317728D01*
X115306428Y-18118326D01*
X115107119Y-17937944D01*
X114926791Y-17784218D01*
X114774383Y-17664784D01*
X114664118Y-17590344D01*
X114622242Y-17602482D01*
X114558913Y-17667818D01*
X114515929Y-17726483D01*
X114438433Y-17835584D01*
X114383485Y-17896106D01*
X114339173Y-17916746D01*
X114293589Y-17906200D01*
X114279498Y-17899123D01*
X114231823Y-17855455D01*
X114226247Y-17790874D01*
X114264218Y-17695455D01*
X114323885Y-17594967D01*
X114381334Y-17502453D01*
X114405230Y-17448308D01*
X114399023Y-17415237D01*
X114366164Y-17385944D01*
X114365661Y-17385573D01*
X114274662Y-17327234D01*
X114141077Y-17252739D01*
X113976138Y-17167291D01*
X113791078Y-17076094D01*
X113597127Y-16984349D01*
X113405519Y-16897261D01*
X113227485Y-16820033D01*
X113074258Y-16757867D01*
X112957069Y-16715967D01*
X112887150Y-16699536D01*
X112884562Y-16699473D01*
X112857655Y-16728839D01*
X112823349Y-16804687D01*
X112798192Y-16880490D01*
X112749599Y-17019061D01*
X112699344Y-17096891D01*
X112641634Y-17119953D01*
X112583715Y-17101669D01*
X112535512Y-17065930D01*
X112518456Y-17016388D01*
X112531389Y-16936540D01*
X112564868Y-16833158D01*
X112595538Y-16737147D01*
X112613259Y-16664083D01*
X112615000Y-16647883D01*
X112583365Y-16617762D01*
X112494967Y-16583012D01*
X112359562Y-16545545D01*
X112186908Y-16507271D01*
X111986763Y-16470103D01*
X111768883Y-16435949D01*
X111543027Y-16406723D01*
X111318952Y-16384334D01*
X111237449Y-16378096D01*
X110912662Y-16355547D01*
X110903239Y-16766239D01*
X110897602Y-16945587D01*
X110889325Y-17069103D01*
X110876841Y-17147789D01*
X110858581Y-17192648D01*
X110839872Y-17210890D01*
X110767003Y-17229789D01*
X110731253Y-17223867D01*
X110708132Y-17206174D01*
X110692467Y-17166751D01*
X110682895Y-17094655D01*
X110678057Y-16978942D01*
X110676593Y-16808668D01*
X110676579Y-16784075D01*
X110676579Y-16365263D01*
X110511185Y-16365263D01*
X110367382Y-16371828D01*
X110176590Y-16389842D01*
X109957183Y-16416782D01*
X109727538Y-16450125D01*
X109506030Y-16487347D01*
X109311036Y-16525926D01*
X109264539Y-16536429D01*
X109116007Y-16573286D01*
X109024174Y-16607535D01*
X108980418Y-16650736D01*
X108976116Y-16714448D01*
X109002645Y-16810234D01*
X109020962Y-16862965D01*
X109052335Y-16988772D01*
X109039786Y-17070437D01*
X108986232Y-17113604D01*
X108915499Y-17120360D01*
X108858237Y-17075677D01*
X108808824Y-16973459D01*
X108784039Y-16894384D01*
X108751466Y-16785514D01*
X108724694Y-16728185D01*
X108693093Y-16709150D01*
X108646033Y-16715159D01*
X108641186Y-16716349D01*
X108524923Y-16752386D01*
X108375328Y-16809368D01*
X108202376Y-16882371D01*
X108016040Y-16966472D01*
X107826292Y-17056745D01*
X107643106Y-17148268D01*
X107476455Y-17236116D01*
X107336313Y-17315364D01*
X107232652Y-17381090D01*
X107175446Y-17428368D01*
X107167368Y-17444014D01*
X107184968Y-17485849D01*
X107230078Y-17561861D01*
X107267632Y-17618552D01*
X107339505Y-17736834D01*
X107364002Y-17818765D01*
X107342524Y-17873694D01*
X107309408Y-17896939D01*
X107250013Y-17915903D01*
X107196770Y-17898902D01*
X107137476Y-17837761D01*
X107066109Y-17733973D01*
X107002632Y-17641708D01*
X106957805Y-17598380D01*
X106918855Y-17593928D01*
X106899019Y-17602367D01*
X106805115Y-17663146D01*
X106675485Y-17761690D01*
X106521483Y-17888318D01*
X106354466Y-18033347D01*
X106185787Y-18187097D01*
X106026803Y-18339886D01*
X105985619Y-18381128D01*
X105656106Y-18714543D01*
X105826869Y-18871534D01*
X105925601Y-18966007D01*
X105978680Y-19030278D01*
X105992176Y-19076481D01*
X105972165Y-19116745D01*
X105957526Y-19132526D01*
X105900794Y-19167225D01*
X105832517Y-19158962D01*
X105740408Y-19104359D01*
X105677949Y-19055658D01*
X105594363Y-18991152D01*
X105530509Y-18949092D01*
X105507402Y-18939658D01*
X105467170Y-18968418D01*
X105402050Y-19046430D01*
X105317776Y-19164016D01*
X105220079Y-19311497D01*
X105114692Y-19479194D01*
X105007350Y-19657429D01*
X104903783Y-19836523D01*
X104809725Y-20006797D01*
X104730910Y-20158572D01*
X104673068Y-20282170D01*
X104641935Y-20367911D01*
X104640452Y-20403341D01*
X104676151Y-20425704D01*
X104760833Y-20466650D01*
X104881353Y-20520103D01*
X105007247Y-20572918D01*
X105176651Y-20645311D01*
X105290527Y-20702996D01*
X105356847Y-20752137D01*
X105383582Y-20798897D01*
X105378706Y-20849440D01*
X105375709Y-20857810D01*
X105348915Y-20899337D01*
X105302920Y-20916711D01*
X105228122Y-20908577D01*
X105114916Y-20873579D01*
X104953697Y-20810360D01*
X104909558Y-20791996D01*
X104766701Y-20734605D01*
X104645988Y-20690718D01*
X104560792Y-20664892D01*
X104525241Y-20661020D01*
X104499472Y-20702758D01*
X104461523Y-20796880D01*
X104415223Y-20930873D01*
X104364396Y-21092223D01*
X104312869Y-21268418D01*
X104264470Y-21446943D01*
X104223024Y-21615285D01*
X104198132Y-21730729D01*
X104157419Y-21937143D01*
X104128805Y-22087284D01*
X104111800Y-22190524D01*
X104105916Y-22256238D01*
X104110664Y-22293799D01*
X104125556Y-22312579D01*
X104150103Y-22321953D01*
X104167082Y-22326371D01*
X104253522Y-22340576D01*
X104358965Y-22347136D01*
X104364263Y-22347175D01*
X104476848Y-22367523D01*
X104542958Y-22422823D01*
X104554255Y-22504776D01*
X104538099Y-22537000D01*
X104495731Y-22555565D01*
X104412600Y-22564118D01*
X104309193Y-22566189D01*
X104075921Y-22567509D01*
X104066757Y-23050794D01*
X104066859Y-23228847D01*
X104072746Y-23424252D01*
X104083390Y-23624771D01*
X104097760Y-23818165D01*
X104114826Y-23992195D01*
X104133560Y-24134624D01*
X104152932Y-24233212D01*
X104169659Y-24273957D01*
X104209494Y-24277408D01*
X104293919Y-24267746D01*
X104375720Y-24252837D01*
X104521008Y-24234525D01*
X104612488Y-24252406D01*
X104653376Y-24307794D01*
X104654047Y-24366680D01*
X104635321Y-24408980D01*
X104583932Y-24441572D01*
X104485783Y-24471954D01*
X104431974Y-24484780D01*
X104219870Y-24533113D01*
X104241298Y-24668596D01*
X104265462Y-24778968D01*
X104307224Y-24925643D01*
X104362589Y-25098145D01*
X104427563Y-25285996D01*
X104498152Y-25478719D01*
X104570360Y-25665837D01*
X104640194Y-25836873D01*
X104703659Y-25981350D01*
X104756761Y-26088789D01*
X104795505Y-26148716D01*
X104808999Y-26157631D01*
X104846267Y-26142675D01*
X104922799Y-26104056D01*
X104993694Y-26065723D01*
X105097906Y-26013392D01*
X105165789Y-25995759D01*
X105215261Y-26008469D01*
X105219303Y-26010879D01*
X105275287Y-26070644D01*
X105265194Y-26139292D01*
X105189156Y-26216525D01*
X105103618Y-26271654D01*
X105010795Y-26328598D01*
X104947193Y-26375199D01*
X104928158Y-26397811D01*
X104947870Y-26452635D01*
X105002534Y-26550221D01*
X105085437Y-26681062D01*
X105189869Y-26835649D01*
X105309119Y-27004475D01*
X105436475Y-27178033D01*
X105565227Y-27346814D01*
X105688665Y-27501310D01*
X105796406Y-27627893D01*
X105929838Y-27778023D01*
X106209691Y-27499623D01*
X106339254Y-27374184D01*
X106433605Y-27292188D01*
X106501750Y-27246950D01*
X106552692Y-27231784D01*
X106569443Y-27232520D01*
X106621077Y-27245953D01*
X106648002Y-27271481D01*
X106647057Y-27313639D01*
X106615080Y-27376963D01*
X106548909Y-27465986D01*
X106445382Y-27585244D01*
X106301337Y-27739272D01*
X106113612Y-27932604D01*
X106003281Y-28044518D01*
X105833436Y-28215391D01*
X105678686Y-28369500D01*
X105545274Y-28500755D01*
X105439444Y-28603064D01*
X105367438Y-28670337D01*
X105335501Y-28696483D01*
X105334860Y-28696615D01*
X105290461Y-28680707D01*
X105254013Y-28661533D01*
X105212397Y-28626050D01*
X105203031Y-28580237D01*
X105229880Y-28516464D01*
X105296905Y-28427100D01*
X105408071Y-28304513D01*
X105476171Y-28233788D01*
X105756815Y-27945658D01*
X105475011Y-27611447D01*
X105340909Y-27444854D01*
X105191613Y-27247308D01*
X105046515Y-27045054D01*
X104938412Y-26885117D01*
X104683616Y-26492998D01*
X104506250Y-26594476D01*
X104399308Y-26650924D01*
X104328675Y-26673411D01*
X104276213Y-26666749D01*
X104260890Y-26659564D01*
X104198366Y-26603010D01*
X104200151Y-26537463D01*
X104264874Y-26466350D01*
X104361570Y-26407493D01*
X104457097Y-26353457D01*
X104525272Y-26304405D01*
X104546376Y-26279985D01*
X104540055Y-26232904D01*
X104509669Y-26141706D01*
X104460842Y-26022162D01*
X104430710Y-25955488D01*
X104341246Y-25747962D01*
X104248338Y-25505463D01*
X104159945Y-25251038D01*
X104084024Y-25007735D01*
X104028536Y-24798599D01*
X104023520Y-24776401D01*
X103980563Y-24581618D01*
X103869492Y-24600940D01*
X103752081Y-24621379D01*
X103644325Y-24640153D01*
X103560215Y-24646189D01*
X103512170Y-24619568D01*
X103491611Y-24587885D01*
X103472071Y-24516228D01*
X103503951Y-24460759D01*
X103592514Y-24416921D01*
X103728223Y-24383015D01*
X103832180Y-24361951D01*
X103903591Y-24346312D01*
X103925333Y-24340191D01*
X103919797Y-24308049D01*
X103905590Y-24228445D01*
X103888865Y-24135658D01*
X103876690Y-24040346D01*
X103863991Y-23892055D01*
X103851661Y-23704631D01*
X103840596Y-23491921D01*
X103831689Y-23267772D01*
X103830572Y-23233289D01*
X103808553Y-22531447D01*
X103614839Y-22514213D01*
X103475511Y-22490992D01*
X103393200Y-22448336D01*
X103359652Y-22381228D01*
X103357880Y-22357959D01*
X103377524Y-22309777D01*
X103443050Y-22282376D01*
X103562063Y-22273598D01*
X103647898Y-22275689D01*
X103854874Y-22284952D01*
X103875033Y-22157542D01*
X103914371Y-21940011D01*
X103967874Y-21687139D01*
X104029795Y-21423211D01*
X104094390Y-21172513D01*
X104155914Y-20959330D01*
X104166083Y-20927237D01*
X104210809Y-20786127D01*
X104246732Y-20668244D01*
X104269443Y-20588336D01*
X104275145Y-20562447D01*
X104246666Y-20538401D01*
X104168159Y-20495525D01*
X104051627Y-20439880D01*
X103909076Y-20377531D01*
X103908816Y-20377422D01*
X103744366Y-20305942D01*
X103633633Y-20251136D01*
X103567305Y-20207432D01*
X103536067Y-20169257D01*
X103530801Y-20151250D01*
X103549646Y-20075084D01*
X103585887Y-20044484D01*
X103628012Y-20033930D01*
X103691573Y-20041923D01*
X103787794Y-20071507D01*
X103927902Y-20125726D01*
X104008790Y-20159196D01*
X104150520Y-20218123D01*
X104268061Y-20266138D01*
X104348710Y-20298108D01*
X104379542Y-20308947D01*
X104398729Y-20280896D01*
X104441287Y-20204427D01*
X104501014Y-20091066D01*
X104571706Y-19952338D01*
X104575058Y-19945659D01*
X104666280Y-19774334D01*
X104781675Y-19573048D01*
X104906748Y-19366361D01*
X105027006Y-19178834D01*
X105032170Y-19171092D01*
X105307086Y-18759813D01*
X105147435Y-18621311D01*
X105045850Y-18521442D01*
X105001628Y-18446910D01*
X105000089Y-18418313D01*
X105037045Y-18356633D01*
X105109677Y-18345011D01*
X105210428Y-18382525D01*
X105318479Y-18457190D01*
X105471273Y-18582393D01*
X105670032Y-18360037D01*
X105777520Y-18247346D01*
X105918096Y-18110774D01*
X106078837Y-17961807D01*
X106246823Y-17811930D01*
X106409131Y-17672626D01*
X106552839Y-17555382D01*
X106665027Y-17471682D01*
X106683142Y-17459590D01*
X106755561Y-17406696D01*
X106796177Y-17365425D01*
X106799323Y-17357206D01*
X106781987Y-17316223D01*
X106737095Y-17240821D01*
X106699474Y-17184079D01*
X106629693Y-17071685D01*
X106602975Y-16993458D01*
X106616242Y-16935203D01*
X106639316Y-16906684D01*
X106692449Y-16872059D01*
X106746742Y-16882886D01*
X106811320Y-16944429D01*
X106887239Y-17049730D01*
X107008844Y-17232881D01*
X107146593Y-17148317D01*
X107304654Y-17057586D01*
X107505113Y-16951773D01*
X107728255Y-16840495D01*
X107954367Y-16733365D01*
X108163732Y-16639999D01*
X108317718Y-16577144D01*
X108447975Y-16526748D01*
X108552423Y-16485040D01*
X108616876Y-16457753D01*
X108630400Y-16450739D01*
X108627968Y-16415245D01*
X108609969Y-16334888D01*
X108586850Y-16250096D01*
X108553336Y-16109485D01*
X108552412Y-16020856D01*
X108586051Y-15976771D01*
X108656228Y-15969795D01*
X108661073Y-15970327D01*
X108713849Y-15984488D01*
X108752296Y-16022265D01*
X108787536Y-16098976D01*
X108816253Y-16184049D01*
X108881031Y-16387176D01*
X109202292Y-16309127D01*
X109425472Y-16260722D01*
X109674762Y-16216236D01*
X109930304Y-16178437D01*
X110172239Y-16150093D01*
X110380707Y-16133973D01*
X110477764Y-16131315D01*
X110676579Y-16131315D01*
X110676579Y-15715213D01*
X110677709Y-15538351D01*
X110682082Y-15416840D01*
X110691172Y-15339214D01*
X110706452Y-15294006D01*
X110729397Y-15269749D01*
X110734203Y-15266863D01*
X110819157Y-15254358D01*
X110851176Y-15266378D01*
X110851176Y-15266378D01*
G37*
X110851176Y-15266378D02*
X110876207Y-15287151D01*
X110893123Y-15325487D01*
X110903453Y-15392923D01*
X110908724Y-15501001D01*
X110910464Y-15661260D01*
X110910526Y-15714728D01*
X110910526Y-16131315D01*
X111092630Y-16131315D01*
X111245030Y-16137980D01*
X111443636Y-16156257D01*
X111669332Y-16183573D01*
X111903007Y-16217353D01*
X112125546Y-16255023D01*
X112317835Y-16294007D01*
X112341915Y-16299580D01*
X112473499Y-16329584D01*
X112581958Y-16352395D01*
X112649478Y-16364333D01*
X112660092Y-16365263D01*
X112691117Y-16336153D01*
X112731593Y-16260495D01*
X112766071Y-16173092D01*
X112813601Y-16054985D01*
X112858694Y-15991250D01*
X112902003Y-15970953D01*
X112981682Y-15977629D01*
X113020569Y-16028906D01*
X113019854Y-16128588D01*
X112989781Y-16251656D01*
X112929871Y-16448440D01*
X113284368Y-16587230D01*
X113695494Y-16761645D01*
X114085446Y-16953119D01*
X114368609Y-17112408D01*
X114564184Y-17230221D01*
X114685372Y-17056755D01*
X114781825Y-16939960D01*
X114863298Y-16887730D01*
X114930669Y-16899696D01*
X114965689Y-16939109D01*
X114977245Y-16983545D01*
X114957992Y-17046453D01*
X114902727Y-17142218D01*
X114879237Y-17178166D01*
X114757575Y-17361402D01*
X114988836Y-17533369D01*
X115230951Y-17725804D01*
X115489942Y-17953254D01*
X115744148Y-18196121D01*
X115907250Y-18364380D01*
X116108052Y-18579269D01*
X116252978Y-18458187D01*
X116371014Y-18376613D01*
X116470667Y-18340674D01*
X116542719Y-18352351D01*
X116571699Y-18389658D01*
X116573254Y-18452233D01*
X116549257Y-18522245D01*
X116512310Y-18568006D01*
X116499021Y-18572411D01*
X116461124Y-18593188D01*
X116394014Y-18643848D01*
X116363658Y-18669136D01*
X116252184Y-18764503D01*
X116433669Y-19010344D01*
X116573341Y-19209830D01*
X116718147Y-19434463D01*
X116856942Y-19665577D01*
X116978581Y-19884505D01*
X117071920Y-20072580D01*
X117083755Y-20099186D01*
X117132243Y-20203982D01*
X117172444Y-20279184D01*
X117195854Y-20308923D01*
X117196184Y-20308947D01*
X117233611Y-20296749D01*
X117319488Y-20263603D01*
X117440740Y-20214682D01*
X117573406Y-20159723D01*
X117746832Y-20089905D01*
X117870187Y-20048654D01*
X117953237Y-20034741D01*
X118005745Y-20046937D01*
X118037475Y-20084014D01*
X118044638Y-20100420D01*
X118046064Y-20151729D01*
X118006284Y-20204423D01*
X117919150Y-20262840D01*
X117778514Y-20331318D01*
X117628158Y-20394332D01*
X117494503Y-20448428D01*
X117385932Y-20493114D01*
X117316158Y-20522704D01*
X117297746Y-20531384D01*
X117302108Y-20564952D01*
X117324222Y-20647803D01*
X117360153Y-20765995D01*
X117389407Y-20856231D01*
X117467352Y-21107320D01*
X117539820Y-21370644D01*
X117602448Y-21628109D01*
X117650875Y-21861625D01*
X117680741Y-22053100D01*
X117683109Y-22074699D01*
X117704802Y-22286372D01*
X117908783Y-22279736D01*
X118047318Y-22276033D01*
X118132196Y-22278484D01*
X118176560Y-22290867D01*
X118193552Y-22316958D01*
X118196315Y-22360535D01*
X118196316Y-22362369D01*
X118185734Y-22428216D01*
X118145613Y-22470770D01*
X118063389Y-22497256D01*
X117931994Y-22514385D01*
X117751225Y-22531447D01*
X117757607Y-22999342D01*
X117755843Y-23222365D01*
X117746204Y-23471783D01*
X117730315Y-23715236D01*
X117712478Y-23898619D01*
X117693916Y-24059800D01*
X117679686Y-24194654D01*
X117671018Y-24290613D01*
X117669139Y-24335110D01*
X117669628Y-24336693D01*
X117704101Y-24347146D01*
X117785140Y-24367646D01*
X117878816Y-24389916D01*
X117991094Y-24419175D01*
X118053336Y-24447521D01*
X118081431Y-24485073D01*
X118089505Y-24524085D01*
X118081536Y-24596390D01*
X118032231Y-24634034D01*
X117934928Y-24639217D01*
X117803542Y-24618512D01*
X117702860Y-24599789D01*
X117633306Y-24590966D01*
X117613639Y-24592277D01*
X117601595Y-24626846D01*
X117575190Y-24713409D01*
X117538104Y-24839598D01*
X117494016Y-24993046D01*
X117485555Y-25022839D01*
X117422296Y-25227413D01*
X117341668Y-25461475D01*
X117254736Y-25694026D01*
X117183819Y-25868132D01*
X117000948Y-26294137D01*
X117157902Y-26373672D01*
X117289923Y-26449690D01*
X117362548Y-26515864D01*
X117381354Y-26578047D01*
X117375492Y-26601995D01*
X117332858Y-26658400D01*
X117260748Y-26669406D01*
X117151880Y-26634765D01*
X117064879Y-26591422D01*
X116967166Y-26544142D01*
X116895242Y-26519943D01*
X116865670Y-26523384D01*
X116834867Y-26583712D01*
X116771457Y-26686008D01*
X116683329Y-26819061D01*
X116578373Y-26971661D01*
X116464479Y-27132597D01*
X116349537Y-27290661D01*
X116241437Y-27434641D01*
X116148068Y-27553328D01*
X116102864Y-27607204D01*
X116003857Y-27721527D01*
X115919403Y-27820371D01*
X115860490Y-27890797D01*
X115840522Y-27916000D01*
X115837968Y-27949375D01*
X115869305Y-28004864D01*
X115939670Y-28089305D01*
X116054200Y-28209532D01*
X116082825Y-28238441D01*
X116225156Y-28389324D01*
X116315524Y-28504925D01*
X116355995Y-28589316D01*
X116348634Y-28646573D01*
X116305293Y-28677345D01*
X116248195Y-28695168D01*
X116232096Y-28697631D01*
X116202791Y-28674990D01*
X116134187Y-28612028D01*
X116033747Y-28516185D01*
X115908936Y-28394901D01*
X115767217Y-28255616D01*
X115616052Y-28105772D01*
X115462906Y-27952809D01*
X115315241Y-27804167D01*
X115180521Y-27667286D01*
X115066209Y-27549608D01*
X114979769Y-27458571D01*
X114928664Y-27401618D01*
X114918710Y-27388276D01*
X114902091Y-27314501D01*
X114908038Y-27279658D01*
X114945024Y-27232879D01*
X115005734Y-27231971D01*
X115094258Y-27279004D01*
X115214683Y-27376050D01*
X115348641Y-27502829D01*
X115627232Y-27778552D01*
X115803314Y-27590801D01*
X115920576Y-27458812D01*
X116045392Y-27306396D01*
X116171979Y-27142034D01*
X116294554Y-26974205D01*
X116407335Y-26811392D01*
X116504538Y-26662073D01*
X116580380Y-26534729D01*
X116629079Y-26437841D01*
X116644852Y-26379889D01*
X116637384Y-26367680D01*
X116590594Y-26344059D01*
X116508854Y-26296177D01*
X116444011Y-26255940D01*
X116348596Y-26187946D01*
X116303657Y-26132924D01*
X116297436Y-26082094D01*
X116330708Y-26015667D01*
X116404916Y-26000198D01*
X116521023Y-26035658D01*
X116595890Y-26072913D01*
X116690708Y-26118648D01*
X116762976Y-26142849D01*
X116789421Y-26142905D01*
X116822070Y-26098494D01*
X116870727Y-26001402D01*
X116931281Y-25862693D01*
X116999620Y-25693429D01*
X117071634Y-25504672D01*
X117143209Y-25307483D01*
X117210236Y-25112925D01*
X117268602Y-24932061D01*
X117314196Y-24775952D01*
X117342907Y-24655661D01*
X117343650Y-24651731D01*
X117365826Y-24532804D01*
X117154426Y-24484625D01*
X117038839Y-24455509D01*
X116973587Y-24428271D01*
X116943155Y-24393310D01*
X116932728Y-24347408D01*
X116944397Y-24271470D01*
X117003847Y-24234400D01*
X117114507Y-24234951D01*
X117198195Y-24250782D01*
X117295422Y-24271541D01*
X117366939Y-24283860D01*
X117381792Y-24285235D01*
X117405059Y-24254135D01*
X117428727Y-24167136D01*
X117451872Y-24035167D01*
X117473570Y-23869157D01*
X117492894Y-23680037D01*
X117508920Y-23478735D01*
X117520723Y-23276181D01*
X117527377Y-23083305D01*
X117527957Y-22911036D01*
X117521539Y-22770304D01*
X117514953Y-22712038D01*
X117492268Y-22560762D01*
X117292761Y-22575193D01*
X117141412Y-22574163D01*
X117040250Y-22547050D01*
X116995042Y-22495695D01*
X116993158Y-22479610D01*
X117022574Y-22421285D01*
X117095204Y-22372485D01*
X117187619Y-22347896D01*
X117204427Y-22347175D01*
X117344150Y-22336685D01*
X117426848Y-22304452D01*
X117459757Y-22247126D01*
X117461053Y-22228456D01*
X117452531Y-22130536D01*
X117429005Y-21987900D01*
X117393532Y-21812519D01*
X117349171Y-21616365D01*
X117298980Y-21411411D01*
X117246018Y-21209628D01*
X117193342Y-21022988D01*
X117144011Y-20863462D01*
X117101083Y-20743023D01*
X117067616Y-20673642D01*
X117062097Y-20666701D01*
X117023130Y-20668242D01*
X116935875Y-20692228D01*
X116813386Y-20734545D01*
X116673318Y-20789191D01*
X116484068Y-20861962D01*
X116347330Y-20902071D01*
X116257372Y-20909654D01*
X116208463Y-20884844D01*
X116194871Y-20827774D01*
X116197380Y-20800326D01*
X116214817Y-20762717D01*
X116262410Y-20722409D01*
X116349522Y-20673761D01*
X116485513Y-20611130D01*
X116575395Y-20572542D01*
X116735745Y-20502740D01*
X116842374Y-20450607D01*
X116904266Y-20410657D01*
X116930403Y-20377402D01*
X116932142Y-20354626D01*
X116905719Y-20277832D01*
X116848764Y-20156996D01*
X116768073Y-20003527D01*
X116670442Y-19828832D01*
X116562666Y-19644318D01*
X116451542Y-19461394D01*
X116343864Y-19291466D01*
X116246428Y-19145942D01*
X116166030Y-19036230D01*
X116109585Y-18973835D01*
X116071949Y-18955379D01*
X116025001Y-18967696D01*
X115952893Y-19017053D01*
X115906803Y-19054009D01*
X115792012Y-19135001D01*
X115706620Y-19161966D01*
X115642284Y-19136047D01*
X115609766Y-19094674D01*
X115597057Y-19055993D01*
X115613512Y-19012706D01*
X115667332Y-18952009D01*
X115749722Y-18876152D01*
X115926680Y-18718876D01*
X115515774Y-18317728D01*
X115306428Y-18118326D01*
X115107119Y-17937944D01*
X114926791Y-17784218D01*
X114774383Y-17664784D01*
X114664118Y-17590344D01*
X114622242Y-17602482D01*
X114558913Y-17667818D01*
X114515929Y-17726483D01*
X114438433Y-17835584D01*
X114383485Y-17896106D01*
X114339173Y-17916746D01*
X114293589Y-17906200D01*
X114279498Y-17899123D01*
X114231823Y-17855455D01*
X114226247Y-17790874D01*
X114264218Y-17695455D01*
X114323885Y-17594967D01*
X114381334Y-17502453D01*
X114405230Y-17448308D01*
X114399023Y-17415237D01*
X114366164Y-17385944D01*
X114365661Y-17385573D01*
X114274662Y-17327234D01*
X114141077Y-17252739D01*
X113976138Y-17167291D01*
X113791078Y-17076094D01*
X113597127Y-16984349D01*
X113405519Y-16897261D01*
X113227485Y-16820033D01*
X113074258Y-16757867D01*
X112957069Y-16715967D01*
X112887150Y-16699536D01*
X112884562Y-16699473D01*
X112857655Y-16728839D01*
X112823349Y-16804687D01*
X112798192Y-16880490D01*
X112749599Y-17019061D01*
X112699344Y-17096891D01*
X112641634Y-17119953D01*
X112583715Y-17101669D01*
X112535512Y-17065930D01*
X112518456Y-17016388D01*
X112531389Y-16936540D01*
X112564868Y-16833158D01*
X112595538Y-16737147D01*
X112613259Y-16664083D01*
X112615000Y-16647883D01*
X112583365Y-16617762D01*
X112494967Y-16583012D01*
X112359562Y-16545545D01*
X112186908Y-16507271D01*
X111986763Y-16470103D01*
X111768883Y-16435949D01*
X111543027Y-16406723D01*
X111318952Y-16384334D01*
X111237449Y-16378096D01*
X110912662Y-16355547D01*
X110903239Y-16766239D01*
X110897602Y-16945587D01*
X110889325Y-17069103D01*
X110876841Y-17147789D01*
X110858581Y-17192648D01*
X110839872Y-17210890D01*
X110767003Y-17229789D01*
X110731253Y-17223867D01*
X110708132Y-17206174D01*
X110692467Y-17166751D01*
X110682895Y-17094655D01*
X110678057Y-16978942D01*
X110676593Y-16808668D01*
X110676579Y-16784075D01*
X110676579Y-16365263D01*
X110511185Y-16365263D01*
X110367382Y-16371828D01*
X110176590Y-16389842D01*
X109957183Y-16416782D01*
X109727538Y-16450125D01*
X109506030Y-16487347D01*
X109311036Y-16525926D01*
X109264539Y-16536429D01*
X109116007Y-16573286D01*
X109024174Y-16607535D01*
X108980418Y-16650736D01*
X108976116Y-16714448D01*
X109002645Y-16810234D01*
X109020962Y-16862965D01*
X109052335Y-16988772D01*
X109039786Y-17070437D01*
X108986232Y-17113604D01*
X108915499Y-17120360D01*
X108858237Y-17075677D01*
X108808824Y-16973459D01*
X108784039Y-16894384D01*
X108751466Y-16785514D01*
X108724694Y-16728185D01*
X108693093Y-16709150D01*
X108646033Y-16715159D01*
X108641186Y-16716349D01*
X108524923Y-16752386D01*
X108375328Y-16809368D01*
X108202376Y-16882371D01*
X108016040Y-16966472D01*
X107826292Y-17056745D01*
X107643106Y-17148268D01*
X107476455Y-17236116D01*
X107336313Y-17315364D01*
X107232652Y-17381090D01*
X107175446Y-17428368D01*
X107167368Y-17444014D01*
X107184968Y-17485849D01*
X107230078Y-17561861D01*
X107267632Y-17618552D01*
X107339505Y-17736834D01*
X107364002Y-17818765D01*
X107342524Y-17873694D01*
X107309408Y-17896939D01*
X107250013Y-17915903D01*
X107196770Y-17898902D01*
X107137476Y-17837761D01*
X107066109Y-17733973D01*
X107002632Y-17641708D01*
X106957805Y-17598380D01*
X106918855Y-17593928D01*
X106899019Y-17602367D01*
X106805115Y-17663146D01*
X106675485Y-17761690D01*
X106521483Y-17888318D01*
X106354466Y-18033347D01*
X106185787Y-18187097D01*
X106026803Y-18339886D01*
X105985619Y-18381128D01*
X105656106Y-18714543D01*
X105826869Y-18871534D01*
X105925601Y-18966007D01*
X105978680Y-19030278D01*
X105992176Y-19076481D01*
X105972165Y-19116745D01*
X105957526Y-19132526D01*
X105900794Y-19167225D01*
X105832517Y-19158962D01*
X105740408Y-19104359D01*
X105677949Y-19055658D01*
X105594363Y-18991152D01*
X105530509Y-18949092D01*
X105507402Y-18939658D01*
X105467170Y-18968418D01*
X105402050Y-19046430D01*
X105317776Y-19164016D01*
X105220079Y-19311497D01*
X105114692Y-19479194D01*
X105007350Y-19657429D01*
X104903783Y-19836523D01*
X104809725Y-20006797D01*
X104730910Y-20158572D01*
X104673068Y-20282170D01*
X104641935Y-20367911D01*
X104640452Y-20403341D01*
X104676151Y-20425704D01*
X104760833Y-20466650D01*
X104881353Y-20520103D01*
X105007247Y-20572918D01*
X105176651Y-20645311D01*
X105290527Y-20702996D01*
X105356847Y-20752137D01*
X105383582Y-20798897D01*
X105378706Y-20849440D01*
X105375709Y-20857810D01*
X105348915Y-20899337D01*
X105302920Y-20916711D01*
X105228122Y-20908577D01*
X105114916Y-20873579D01*
X104953697Y-20810360D01*
X104909558Y-20791996D01*
X104766701Y-20734605D01*
X104645988Y-20690718D01*
X104560792Y-20664892D01*
X104525241Y-20661020D01*
X104499472Y-20702758D01*
X104461523Y-20796880D01*
X104415223Y-20930873D01*
X104364396Y-21092223D01*
X104312869Y-21268418D01*
X104264470Y-21446943D01*
X104223024Y-21615285D01*
X104198132Y-21730729D01*
X104157419Y-21937143D01*
X104128805Y-22087284D01*
X104111800Y-22190524D01*
X104105916Y-22256238D01*
X104110664Y-22293799D01*
X104125556Y-22312579D01*
X104150103Y-22321953D01*
X104167082Y-22326371D01*
X104253522Y-22340576D01*
X104358965Y-22347136D01*
X104364263Y-22347175D01*
X104476848Y-22367523D01*
X104542958Y-22422823D01*
X104554255Y-22504776D01*
X104538099Y-22537000D01*
X104495731Y-22555565D01*
X104412600Y-22564118D01*
X104309193Y-22566189D01*
X104075921Y-22567509D01*
X104066757Y-23050794D01*
X104066859Y-23228847D01*
X104072746Y-23424252D01*
X104083390Y-23624771D01*
X104097760Y-23818165D01*
X104114826Y-23992195D01*
X104133560Y-24134624D01*
X104152932Y-24233212D01*
X104169659Y-24273957D01*
X104209494Y-24277408D01*
X104293919Y-24267746D01*
X104375720Y-24252837D01*
X104521008Y-24234525D01*
X104612488Y-24252406D01*
X104653376Y-24307794D01*
X104654047Y-24366680D01*
X104635321Y-24408980D01*
X104583932Y-24441572D01*
X104485783Y-24471954D01*
X104431974Y-24484780D01*
X104219870Y-24533113D01*
X104241298Y-24668596D01*
X104265462Y-24778968D01*
X104307224Y-24925643D01*
X104362589Y-25098145D01*
X104427563Y-25285996D01*
X104498152Y-25478719D01*
X104570360Y-25665837D01*
X104640194Y-25836873D01*
X104703659Y-25981350D01*
X104756761Y-26088789D01*
X104795505Y-26148716D01*
X104808999Y-26157631D01*
X104846267Y-26142675D01*
X104922799Y-26104056D01*
X104993694Y-26065723D01*
X105097906Y-26013392D01*
X105165789Y-25995759D01*
X105215261Y-26008469D01*
X105219303Y-26010879D01*
X105275287Y-26070644D01*
X105265194Y-26139292D01*
X105189156Y-26216525D01*
X105103618Y-26271654D01*
X105010795Y-26328598D01*
X104947193Y-26375199D01*
X104928158Y-26397811D01*
X104947870Y-26452635D01*
X105002534Y-26550221D01*
X105085437Y-26681062D01*
X105189869Y-26835649D01*
X105309119Y-27004475D01*
X105436475Y-27178033D01*
X105565227Y-27346814D01*
X105688665Y-27501310D01*
X105796406Y-27627893D01*
X105929838Y-27778023D01*
X106209691Y-27499623D01*
X106339254Y-27374184D01*
X106433605Y-27292188D01*
X106501750Y-27246950D01*
X106552692Y-27231784D01*
X106569443Y-27232520D01*
X106621077Y-27245953D01*
X106648002Y-27271481D01*
X106647057Y-27313639D01*
X106615080Y-27376963D01*
X106548909Y-27465986D01*
X106445382Y-27585244D01*
X106301337Y-27739272D01*
X106113612Y-27932604D01*
X106003281Y-28044518D01*
X105833436Y-28215391D01*
X105678686Y-28369500D01*
X105545274Y-28500755D01*
X105439444Y-28603064D01*
X105367438Y-28670337D01*
X105335501Y-28696483D01*
X105334860Y-28696615D01*
X105290461Y-28680707D01*
X105254013Y-28661533D01*
X105212397Y-28626050D01*
X105203031Y-28580237D01*
X105229880Y-28516464D01*
X105296905Y-28427100D01*
X105408071Y-28304513D01*
X105476171Y-28233788D01*
X105756815Y-27945658D01*
X105475011Y-27611447D01*
X105340909Y-27444854D01*
X105191613Y-27247308D01*
X105046515Y-27045054D01*
X104938412Y-26885117D01*
X104683616Y-26492998D01*
X104506250Y-26594476D01*
X104399308Y-26650924D01*
X104328675Y-26673411D01*
X104276213Y-26666749D01*
X104260890Y-26659564D01*
X104198366Y-26603010D01*
X104200151Y-26537463D01*
X104264874Y-26466350D01*
X104361570Y-26407493D01*
X104457097Y-26353457D01*
X104525272Y-26304405D01*
X104546376Y-26279985D01*
X104540055Y-26232904D01*
X104509669Y-26141706D01*
X104460842Y-26022162D01*
X104430710Y-25955488D01*
X104341246Y-25747962D01*
X104248338Y-25505463D01*
X104159945Y-25251038D01*
X104084024Y-25007735D01*
X104028536Y-24798599D01*
X104023520Y-24776401D01*
X103980563Y-24581618D01*
X103869492Y-24600940D01*
X103752081Y-24621379D01*
X103644325Y-24640153D01*
X103560215Y-24646189D01*
X103512170Y-24619568D01*
X103491611Y-24587885D01*
X103472071Y-24516228D01*
X103503951Y-24460759D01*
X103592514Y-24416921D01*
X103728223Y-24383015D01*
X103832180Y-24361951D01*
X103903591Y-24346312D01*
X103925333Y-24340191D01*
X103919797Y-24308049D01*
X103905590Y-24228445D01*
X103888865Y-24135658D01*
X103876690Y-24040346D01*
X103863991Y-23892055D01*
X103851661Y-23704631D01*
X103840596Y-23491921D01*
X103831689Y-23267772D01*
X103830572Y-23233289D01*
X103808553Y-22531447D01*
X103614839Y-22514213D01*
X103475511Y-22490992D01*
X103393200Y-22448336D01*
X103359652Y-22381228D01*
X103357880Y-22357959D01*
X103377524Y-22309777D01*
X103443050Y-22282376D01*
X103562063Y-22273598D01*
X103647898Y-22275689D01*
X103854874Y-22284952D01*
X103875033Y-22157542D01*
X103914371Y-21940011D01*
X103967874Y-21687139D01*
X104029795Y-21423211D01*
X104094390Y-21172513D01*
X104155914Y-20959330D01*
X104166083Y-20927237D01*
X104210809Y-20786127D01*
X104246732Y-20668244D01*
X104269443Y-20588336D01*
X104275145Y-20562447D01*
X104246666Y-20538401D01*
X104168159Y-20495525D01*
X104051627Y-20439880D01*
X103909076Y-20377531D01*
X103908816Y-20377422D01*
X103744366Y-20305942D01*
X103633633Y-20251136D01*
X103567305Y-20207432D01*
X103536067Y-20169257D01*
X103530801Y-20151250D01*
X103549646Y-20075084D01*
X103585887Y-20044484D01*
X103628012Y-20033930D01*
X103691573Y-20041923D01*
X103787794Y-20071507D01*
X103927902Y-20125726D01*
X104008790Y-20159196D01*
X104150520Y-20218123D01*
X104268061Y-20266138D01*
X104348710Y-20298108D01*
X104379542Y-20308947D01*
X104398729Y-20280896D01*
X104441287Y-20204427D01*
X104501014Y-20091066D01*
X104571706Y-19952338D01*
X104575058Y-19945659D01*
X104666280Y-19774334D01*
X104781675Y-19573048D01*
X104906748Y-19366361D01*
X105027006Y-19178834D01*
X105032170Y-19171092D01*
X105307086Y-18759813D01*
X105147435Y-18621311D01*
X105045850Y-18521442D01*
X105001628Y-18446910D01*
X105000089Y-18418313D01*
X105037045Y-18356633D01*
X105109677Y-18345011D01*
X105210428Y-18382525D01*
X105318479Y-18457190D01*
X105471273Y-18582393D01*
X105670032Y-18360037D01*
X105777520Y-18247346D01*
X105918096Y-18110774D01*
X106078837Y-17961807D01*
X106246823Y-17811930D01*
X106409131Y-17672626D01*
X106552839Y-17555382D01*
X106665027Y-17471682D01*
X106683142Y-17459590D01*
X106755561Y-17406696D01*
X106796177Y-17365425D01*
X106799323Y-17357206D01*
X106781987Y-17316223D01*
X106737095Y-17240821D01*
X106699474Y-17184079D01*
X106629693Y-17071685D01*
X106602975Y-16993458D01*
X106616242Y-16935203D01*
X106639316Y-16906684D01*
X106692449Y-16872059D01*
X106746742Y-16882886D01*
X106811320Y-16944429D01*
X106887239Y-17049730D01*
X107008844Y-17232881D01*
X107146593Y-17148317D01*
X107304654Y-17057586D01*
X107505113Y-16951773D01*
X107728255Y-16840495D01*
X107954367Y-16733365D01*
X108163732Y-16639999D01*
X108317718Y-16577144D01*
X108447975Y-16526748D01*
X108552423Y-16485040D01*
X108616876Y-16457753D01*
X108630400Y-16450739D01*
X108627968Y-16415245D01*
X108609969Y-16334888D01*
X108586850Y-16250096D01*
X108553336Y-16109485D01*
X108552412Y-16020856D01*
X108586051Y-15976771D01*
X108656228Y-15969795D01*
X108661073Y-15970327D01*
X108713849Y-15984488D01*
X108752296Y-16022265D01*
X108787536Y-16098976D01*
X108816253Y-16184049D01*
X108881031Y-16387176D01*
X109202292Y-16309127D01*
X109425472Y-16260722D01*
X109674762Y-16216236D01*
X109930304Y-16178437D01*
X110172239Y-16150093D01*
X110380707Y-16133973D01*
X110477764Y-16131315D01*
X110676579Y-16131315D01*
X110676579Y-15715213D01*
X110677709Y-15538351D01*
X110682082Y-15416840D01*
X110691172Y-15339214D01*
X110706452Y-15294006D01*
X110729397Y-15269749D01*
X110734203Y-15266863D01*
X110819157Y-15254358D01*
X110851176Y-15266378D01*
G36*
X91051176Y-15206378D02*
X91076207Y-15227151D01*
X91093123Y-15265487D01*
X91103453Y-15332923D01*
X91108724Y-15441001D01*
X91110464Y-15601260D01*
X91110526Y-15654728D01*
X91110526Y-16071315D01*
X91292630Y-16071315D01*
X91445030Y-16077980D01*
X91643636Y-16096257D01*
X91869332Y-16123573D01*
X92103007Y-16157353D01*
X92325546Y-16195023D01*
X92517835Y-16234007D01*
X92541915Y-16239580D01*
X92673499Y-16269584D01*
X92781958Y-16292395D01*
X92849478Y-16304333D01*
X92860092Y-16305263D01*
X92891117Y-16276153D01*
X92931593Y-16200495D01*
X92966071Y-16113092D01*
X93013601Y-15994985D01*
X93058694Y-15931250D01*
X93102003Y-15910953D01*
X93181682Y-15917629D01*
X93220569Y-15968906D01*
X93219854Y-16068588D01*
X93189781Y-16191656D01*
X93129871Y-16388440D01*
X93484368Y-16527230D01*
X93895494Y-16701645D01*
X94285446Y-16893119D01*
X94568609Y-17052408D01*
X94764184Y-17170221D01*
X94885372Y-16996755D01*
X94981825Y-16879960D01*
X95063298Y-16827730D01*
X95130669Y-16839696D01*
X95165689Y-16879109D01*
X95177245Y-16923545D01*
X95157992Y-16986453D01*
X95102727Y-17082218D01*
X95079237Y-17118166D01*
X94957575Y-17301402D01*
X95188836Y-17473369D01*
X95430951Y-17665804D01*
X95689942Y-17893254D01*
X95944148Y-18136121D01*
X96107250Y-18304380D01*
X96308052Y-18519269D01*
X96452978Y-18398187D01*
X96571014Y-18316613D01*
X96670667Y-18280674D01*
X96742719Y-18292351D01*
X96771699Y-18329658D01*
X96773254Y-18392233D01*
X96749257Y-18462245D01*
X96712310Y-18508006D01*
X96699021Y-18512411D01*
X96661124Y-18533188D01*
X96594014Y-18583848D01*
X96563658Y-18609136D01*
X96452184Y-18704503D01*
X96633669Y-18950344D01*
X96773341Y-19149830D01*
X96918147Y-19374463D01*
X97056942Y-19605577D01*
X97178581Y-19824505D01*
X97271920Y-20012580D01*
X97283755Y-20039186D01*
X97332243Y-20143982D01*
X97372444Y-20219184D01*
X97395854Y-20248923D01*
X97396184Y-20248947D01*
X97433611Y-20236749D01*
X97519488Y-20203603D01*
X97640740Y-20154682D01*
X97773406Y-20099723D01*
X97946832Y-20029905D01*
X98070187Y-19988654D01*
X98153237Y-19974741D01*
X98205745Y-19986937D01*
X98237475Y-20024014D01*
X98244638Y-20040420D01*
X98246064Y-20091729D01*
X98206284Y-20144423D01*
X98119150Y-20202840D01*
X97978514Y-20271318D01*
X97828158Y-20334332D01*
X97694503Y-20388428D01*
X97585932Y-20433114D01*
X97516158Y-20462704D01*
X97497746Y-20471384D01*
X97502108Y-20504952D01*
X97524222Y-20587803D01*
X97560153Y-20705995D01*
X97589407Y-20796231D01*
X97667352Y-21047320D01*
X97739820Y-21310644D01*
X97802448Y-21568109D01*
X97850875Y-21801625D01*
X97880741Y-21993100D01*
X97883109Y-22014699D01*
X97904802Y-22226372D01*
X98108783Y-22219736D01*
X98247318Y-22216033D01*
X98332196Y-22218484D01*
X98376560Y-22230867D01*
X98393552Y-22256958D01*
X98396315Y-22300535D01*
X98396316Y-22302369D01*
X98385734Y-22368216D01*
X98345613Y-22410770D01*
X98263389Y-22437256D01*
X98131994Y-22454385D01*
X97951225Y-22471447D01*
X97957607Y-22939342D01*
X97955843Y-23162365D01*
X97946204Y-23411783D01*
X97930315Y-23655236D01*
X97912478Y-23838619D01*
X97893916Y-23999800D01*
X97879686Y-24134654D01*
X97871018Y-24230613D01*
X97869139Y-24275110D01*
X97869628Y-24276693D01*
X97904101Y-24287146D01*
X97985140Y-24307646D01*
X98078816Y-24329916D01*
X98191094Y-24359175D01*
X98253336Y-24387521D01*
X98281431Y-24425073D01*
X98289505Y-24464085D01*
X98281536Y-24536390D01*
X98232231Y-24574034D01*
X98134928Y-24579217D01*
X98003542Y-24558512D01*
X97902860Y-24539789D01*
X97833306Y-24530966D01*
X97813639Y-24532277D01*
X97801595Y-24566846D01*
X97775190Y-24653409D01*
X97738104Y-24779598D01*
X97694016Y-24933046D01*
X97685555Y-24962839D01*
X97622296Y-25167413D01*
X97541668Y-25401475D01*
X97454736Y-25634026D01*
X97383819Y-25808132D01*
X97200948Y-26234137D01*
X97357902Y-26313672D01*
X97489923Y-26389690D01*
X97562548Y-26455864D01*
X97581354Y-26518047D01*
X97575492Y-26541995D01*
X97532858Y-26598400D01*
X97460748Y-26609406D01*
X97351880Y-26574765D01*
X97264879Y-26531422D01*
X97167166Y-26484142D01*
X97095242Y-26459943D01*
X97065670Y-26463384D01*
X97034867Y-26523712D01*
X96971457Y-26626008D01*
X96883329Y-26759061D01*
X96778373Y-26911661D01*
X96664479Y-27072597D01*
X96549537Y-27230661D01*
X96441437Y-27374641D01*
X96348068Y-27493328D01*
X96302864Y-27547204D01*
X96203857Y-27661527D01*
X96119403Y-27760371D01*
X96060490Y-27830797D01*
X96040522Y-27856000D01*
X96037968Y-27889375D01*
X96069305Y-27944864D01*
X96139670Y-28029305D01*
X96254200Y-28149532D01*
X96282825Y-28178441D01*
X96425156Y-28329324D01*
X96515524Y-28444925D01*
X96555995Y-28529316D01*
X96548634Y-28586573D01*
X96505293Y-28617345D01*
X96448195Y-28635168D01*
X96432096Y-28637631D01*
X96402791Y-28614990D01*
X96334187Y-28552028D01*
X96233747Y-28456185D01*
X96108936Y-28334901D01*
X95967217Y-28195616D01*
X95816052Y-28045772D01*
X95662906Y-27892809D01*
X95515241Y-27744167D01*
X95380521Y-27607286D01*
X95266209Y-27489608D01*
X95179769Y-27398571D01*
X95128664Y-27341618D01*
X95118710Y-27328276D01*
X95102091Y-27254501D01*
X95108038Y-27219658D01*
X95145024Y-27172879D01*
X95205734Y-27171971D01*
X95294258Y-27219004D01*
X95414683Y-27316050D01*
X95548641Y-27442829D01*
X95827232Y-27718552D01*
X96003314Y-27530801D01*
X96120576Y-27398812D01*
X96245392Y-27246396D01*
X96371979Y-27082034D01*
X96494554Y-26914205D01*
X96607335Y-26751392D01*
X96704538Y-26602073D01*
X96780380Y-26474729D01*
X96829079Y-26377841D01*
X96844852Y-26319889D01*
X96837384Y-26307680D01*
X96790594Y-26284059D01*
X96708854Y-26236177D01*
X96644011Y-26195940D01*
X96548596Y-26127946D01*
X96503657Y-26072924D01*
X96497436Y-26022094D01*
X96530708Y-25955667D01*
X96604916Y-25940198D01*
X96721023Y-25975658D01*
X96795890Y-26012913D01*
X96890708Y-26058648D01*
X96962976Y-26082849D01*
X96989421Y-26082905D01*
X97022070Y-26038494D01*
X97070727Y-25941402D01*
X97131281Y-25802693D01*
X97199620Y-25633429D01*
X97271634Y-25444672D01*
X97343209Y-25247483D01*
X97410236Y-25052925D01*
X97468602Y-24872061D01*
X97514196Y-24715952D01*
X97542907Y-24595661D01*
X97543650Y-24591731D01*
X97565826Y-24472804D01*
X97354426Y-24424625D01*
X97238839Y-24395509D01*
X97173587Y-24368271D01*
X97143155Y-24333310D01*
X97132728Y-24287408D01*
X97144397Y-24211470D01*
X97203847Y-24174400D01*
X97314507Y-24174951D01*
X97398195Y-24190782D01*
X97495422Y-24211541D01*
X97566939Y-24223860D01*
X97581792Y-24225235D01*
X97605059Y-24194135D01*
X97628727Y-24107136D01*
X97651872Y-23975167D01*
X97673570Y-23809157D01*
X97692894Y-23620037D01*
X97708920Y-23418735D01*
X97720723Y-23216181D01*
X97727377Y-23023305D01*
X97727957Y-22851036D01*
X97721539Y-22710304D01*
X97714953Y-22652038D01*
X97692268Y-22500762D01*
X97492761Y-22515193D01*
X97341412Y-22514163D01*
X97240250Y-22487050D01*
X97195042Y-22435695D01*
X97193158Y-22419610D01*
X97222574Y-22361285D01*
X97295204Y-22312485D01*
X97387619Y-22287896D01*
X97404427Y-22287175D01*
X97544150Y-22276685D01*
X97626848Y-22244452D01*
X97659757Y-22187126D01*
X97661053Y-22168456D01*
X97652531Y-22070536D01*
X97629005Y-21927900D01*
X97593532Y-21752519D01*
X97549171Y-21556365D01*
X97498980Y-21351411D01*
X97446018Y-21149628D01*
X97393342Y-20962988D01*
X97344011Y-20803462D01*
X97301083Y-20683023D01*
X97267616Y-20613642D01*
X97262097Y-20606701D01*
X97223130Y-20608242D01*
X97135875Y-20632228D01*
X97013386Y-20674545D01*
X96873318Y-20729191D01*
X96684068Y-20801962D01*
X96547330Y-20842071D01*
X96457372Y-20849654D01*
X96408463Y-20824844D01*
X96394871Y-20767774D01*
X96397380Y-20740326D01*
X96414817Y-20702717D01*
X96462410Y-20662409D01*
X96549522Y-20613761D01*
X96685513Y-20551130D01*
X96775395Y-20512542D01*
X96935745Y-20442740D01*
X97042374Y-20390607D01*
X97104266Y-20350657D01*
X97130403Y-20317402D01*
X97132142Y-20294626D01*
X97105719Y-20217832D01*
X97048764Y-20096996D01*
X96968073Y-19943527D01*
X96870442Y-19768832D01*
X96762666Y-19584318D01*
X96651542Y-19401394D01*
X96543864Y-19231466D01*
X96446428Y-19085942D01*
X96366030Y-18976230D01*
X96309585Y-18913835D01*
X96271949Y-18895379D01*
X96225001Y-18907696D01*
X96152893Y-18957053D01*
X96106803Y-18994009D01*
X95992012Y-19075001D01*
X95906620Y-19101966D01*
X95842284Y-19076047D01*
X95809766Y-19034674D01*
X95797057Y-18995993D01*
X95813512Y-18952706D01*
X95867332Y-18892009D01*
X95949722Y-18816152D01*
X96126680Y-18658876D01*
X95715774Y-18257728D01*
X95506428Y-18058326D01*
X95307119Y-17877944D01*
X95126791Y-17724218D01*
X94974383Y-17604784D01*
X94864118Y-17530344D01*
X94822242Y-17542482D01*
X94758913Y-17607818D01*
X94715929Y-17666483D01*
X94638433Y-17775584D01*
X94583485Y-17836106D01*
X94539173Y-17856746D01*
X94493589Y-17846200D01*
X94479498Y-17839123D01*
X94431823Y-17795455D01*
X94426247Y-17730874D01*
X94464218Y-17635455D01*
X94523885Y-17534967D01*
X94581334Y-17442453D01*
X94605230Y-17388308D01*
X94599023Y-17355237D01*
X94566164Y-17325944D01*
X94565661Y-17325573D01*
X94474662Y-17267234D01*
X94341077Y-17192739D01*
X94176138Y-17107291D01*
X93991078Y-17016094D01*
X93797127Y-16924349D01*
X93605519Y-16837261D01*
X93427485Y-16760033D01*
X93274258Y-16697867D01*
X93157069Y-16655967D01*
X93087150Y-16639536D01*
X93084562Y-16639473D01*
X93057655Y-16668839D01*
X93023349Y-16744687D01*
X92998192Y-16820490D01*
X92949599Y-16959061D01*
X92899344Y-17036891D01*
X92841634Y-17059953D01*
X92783715Y-17041669D01*
X92735512Y-17005930D01*
X92718456Y-16956388D01*
X92731389Y-16876540D01*
X92764868Y-16773158D01*
X92795538Y-16677147D01*
X92813259Y-16604083D01*
X92815000Y-16587883D01*
X92783365Y-16557762D01*
X92694967Y-16523012D01*
X92559562Y-16485545D01*
X92386908Y-16447271D01*
X92186763Y-16410103D01*
X91968883Y-16375949D01*
X91743027Y-16346723D01*
X91518952Y-16324334D01*
X91437449Y-16318096D01*
X91112662Y-16295547D01*
X91103239Y-16706239D01*
X91097602Y-16885587D01*
X91089325Y-17009103D01*
X91076841Y-17087789D01*
X91058581Y-17132648D01*
X91039872Y-17150890D01*
X90967003Y-17169789D01*
X90931253Y-17163867D01*
X90908132Y-17146174D01*
X90892467Y-17106751D01*
X90882895Y-17034655D01*
X90878057Y-16918942D01*
X90876593Y-16748668D01*
X90876579Y-16724075D01*
X90876579Y-16305263D01*
X90711185Y-16305263D01*
X90567382Y-16311828D01*
X90376590Y-16329842D01*
X90157183Y-16356782D01*
X89927538Y-16390125D01*
X89706030Y-16427347D01*
X89511036Y-16465926D01*
X89464539Y-16476429D01*
X89316007Y-16513286D01*
X89224174Y-16547535D01*
X89180418Y-16590736D01*
X89176116Y-16654448D01*
X89202645Y-16750234D01*
X89220962Y-16802965D01*
X89252335Y-16928772D01*
X89239786Y-17010437D01*
X89186232Y-17053604D01*
X89115499Y-17060360D01*
X89058237Y-17015677D01*
X89008824Y-16913459D01*
X88984039Y-16834384D01*
X88951466Y-16725514D01*
X88924694Y-16668185D01*
X88893093Y-16649150D01*
X88846033Y-16655159D01*
X88841186Y-16656349D01*
X88724923Y-16692386D01*
X88575328Y-16749368D01*
X88402376Y-16822371D01*
X88216040Y-16906472D01*
X88026292Y-16996745D01*
X87843106Y-17088268D01*
X87676455Y-17176116D01*
X87536313Y-17255364D01*
X87432652Y-17321090D01*
X87375446Y-17368368D01*
X87367368Y-17384014D01*
X87384968Y-17425849D01*
X87430078Y-17501861D01*
X87467632Y-17558552D01*
X87539505Y-17676834D01*
X87564002Y-17758765D01*
X87542524Y-17813694D01*
X87509408Y-17836939D01*
X87450013Y-17855903D01*
X87396770Y-17838902D01*
X87337476Y-17777761D01*
X87266109Y-17673973D01*
X87202632Y-17581708D01*
X87157805Y-17538380D01*
X87118855Y-17533928D01*
X87099019Y-17542367D01*
X87005115Y-17603146D01*
X86875485Y-17701690D01*
X86721483Y-17828318D01*
X86554466Y-17973347D01*
X86385787Y-18127097D01*
X86226803Y-18279886D01*
X86185619Y-18321128D01*
X85856106Y-18654543D01*
X86026869Y-18811534D01*
X86125601Y-18906007D01*
X86178680Y-18970278D01*
X86192176Y-19016481D01*
X86172165Y-19056745D01*
X86157526Y-19072526D01*
X86100794Y-19107225D01*
X86032517Y-19098962D01*
X85940408Y-19044359D01*
X85877949Y-18995658D01*
X85794363Y-18931152D01*
X85730509Y-18889092D01*
X85707402Y-18879658D01*
X85667170Y-18908418D01*
X85602050Y-18986430D01*
X85517776Y-19104016D01*
X85420079Y-19251497D01*
X85314692Y-19419194D01*
X85207350Y-19597429D01*
X85103783Y-19776523D01*
X85009725Y-19946797D01*
X84930910Y-20098572D01*
X84873068Y-20222170D01*
X84841935Y-20307911D01*
X84840452Y-20343341D01*
X84876151Y-20365704D01*
X84960833Y-20406650D01*
X85081353Y-20460103D01*
X85207247Y-20512918D01*
X85376651Y-20585311D01*
X85490527Y-20642996D01*
X85556847Y-20692137D01*
X85583582Y-20738897D01*
X85578706Y-20789440D01*
X85575709Y-20797810D01*
X85548915Y-20839337D01*
X85502920Y-20856711D01*
X85428122Y-20848577D01*
X85314916Y-20813579D01*
X85153697Y-20750360D01*
X85109558Y-20731996D01*
X84966701Y-20674605D01*
X84845988Y-20630718D01*
X84760792Y-20604892D01*
X84725241Y-20601020D01*
X84699472Y-20642758D01*
X84661523Y-20736880D01*
X84615223Y-20870873D01*
X84564396Y-21032223D01*
X84512869Y-21208418D01*
X84464470Y-21386943D01*
X84423024Y-21555285D01*
X84398132Y-21670729D01*
X84357419Y-21877143D01*
X84328805Y-22027284D01*
X84311800Y-22130524D01*
X84305916Y-22196238D01*
X84310664Y-22233799D01*
X84325556Y-22252579D01*
X84350103Y-22261953D01*
X84367082Y-22266371D01*
X84453522Y-22280576D01*
X84558965Y-22287136D01*
X84564263Y-22287175D01*
X84676848Y-22307523D01*
X84742958Y-22362823D01*
X84754255Y-22444776D01*
X84738099Y-22477000D01*
X84695731Y-22495565D01*
X84612600Y-22504118D01*
X84509193Y-22506189D01*
X84275921Y-22507509D01*
X84266757Y-22990794D01*
X84266859Y-23168847D01*
X84272746Y-23364252D01*
X84283390Y-23564771D01*
X84297760Y-23758165D01*
X84314826Y-23932195D01*
X84333560Y-24074624D01*
X84352932Y-24173212D01*
X84369659Y-24213957D01*
X84409494Y-24217408D01*
X84493919Y-24207746D01*
X84575720Y-24192837D01*
X84721008Y-24174525D01*
X84812488Y-24192406D01*
X84853376Y-24247794D01*
X84854047Y-24306680D01*
X84835321Y-24348980D01*
X84783932Y-24381572D01*
X84685783Y-24411954D01*
X84631974Y-24424780D01*
X84419870Y-24473113D01*
X84441298Y-24608596D01*
X84465462Y-24718968D01*
X84507224Y-24865643D01*
X84562589Y-25038145D01*
X84627563Y-25225996D01*
X84698152Y-25418719D01*
X84770360Y-25605837D01*
X84840194Y-25776873D01*
X84903659Y-25921350D01*
X84956761Y-26028789D01*
X84995505Y-26088716D01*
X85008999Y-26097631D01*
X85046267Y-26082675D01*
X85122799Y-26044056D01*
X85193694Y-26005723D01*
X85297906Y-25953392D01*
X85365789Y-25935759D01*
X85415261Y-25948469D01*
X85419303Y-25950879D01*
X85475287Y-26010644D01*
X85465194Y-26079292D01*
X85389156Y-26156525D01*
X85303618Y-26211654D01*
X85210795Y-26268598D01*
X85147193Y-26315199D01*
X85128158Y-26337811D01*
X85147870Y-26392635D01*
X85202534Y-26490221D01*
X85285437Y-26621062D01*
X85389869Y-26775649D01*
X85509119Y-26944475D01*
X85636475Y-27118033D01*
X85765227Y-27286814D01*
X85888665Y-27441310D01*
X85996406Y-27567893D01*
X86129838Y-27718023D01*
X86409691Y-27439623D01*
X86539254Y-27314184D01*
X86633605Y-27232188D01*
X86701750Y-27186950D01*
X86752692Y-27171784D01*
X86769443Y-27172520D01*
X86821077Y-27185953D01*
X86848002Y-27211481D01*
X86847057Y-27253639D01*
X86815080Y-27316963D01*
X86748909Y-27405986D01*
X86645382Y-27525244D01*
X86501337Y-27679272D01*
X86313612Y-27872604D01*
X86203281Y-27984518D01*
X86033436Y-28155391D01*
X85878686Y-28309500D01*
X85745274Y-28440755D01*
X85639444Y-28543064D01*
X85567438Y-28610337D01*
X85535501Y-28636483D01*
X85534860Y-28636615D01*
X85490461Y-28620707D01*
X85454013Y-28601533D01*
X85412397Y-28566050D01*
X85403031Y-28520237D01*
X85429880Y-28456464D01*
X85496905Y-28367100D01*
X85608071Y-28244513D01*
X85676171Y-28173788D01*
X85956815Y-27885658D01*
X85675011Y-27551447D01*
X85540909Y-27384854D01*
X85391613Y-27187308D01*
X85246515Y-26985054D01*
X85138412Y-26825117D01*
X84883616Y-26432998D01*
X84706250Y-26534476D01*
X84599308Y-26590924D01*
X84528675Y-26613411D01*
X84476213Y-26606749D01*
X84460890Y-26599564D01*
X84398366Y-26543010D01*
X84400151Y-26477463D01*
X84464874Y-26406350D01*
X84561570Y-26347493D01*
X84657097Y-26293457D01*
X84725272Y-26244405D01*
X84746376Y-26219985D01*
X84740055Y-26172904D01*
X84709669Y-26081706D01*
X84660842Y-25962162D01*
X84630710Y-25895488D01*
X84541246Y-25687962D01*
X84448338Y-25445463D01*
X84359945Y-25191038D01*
X84284024Y-24947735D01*
X84228536Y-24738599D01*
X84223520Y-24716401D01*
X84180563Y-24521618D01*
X84069492Y-24540940D01*
X83952081Y-24561379D01*
X83844325Y-24580153D01*
X83760215Y-24586189D01*
X83712170Y-24559568D01*
X83691611Y-24527885D01*
X83672071Y-24456228D01*
X83703951Y-24400759D01*
X83792514Y-24356921D01*
X83928223Y-24323015D01*
X84032180Y-24301951D01*
X84103591Y-24286312D01*
X84125333Y-24280191D01*
X84119797Y-24248049D01*
X84105590Y-24168445D01*
X84088865Y-24075658D01*
X84076690Y-23980346D01*
X84063991Y-23832055D01*
X84051661Y-23644631D01*
X84040596Y-23431921D01*
X84031689Y-23207772D01*
X84030572Y-23173289D01*
X84008553Y-22471447D01*
X83814839Y-22454213D01*
X83675511Y-22430992D01*
X83593200Y-22388336D01*
X83559652Y-22321228D01*
X83557880Y-22297959D01*
X83577524Y-22249777D01*
X83643050Y-22222376D01*
X83762063Y-22213598D01*
X83847898Y-22215689D01*
X84054874Y-22224952D01*
X84075033Y-22097542D01*
X84114371Y-21880011D01*
X84167874Y-21627139D01*
X84229795Y-21363211D01*
X84294390Y-21112513D01*
X84355914Y-20899330D01*
X84366083Y-20867237D01*
X84410809Y-20726127D01*
X84446732Y-20608244D01*
X84469443Y-20528336D01*
X84475145Y-20502447D01*
X84446666Y-20478401D01*
X84368159Y-20435525D01*
X84251627Y-20379880D01*
X84109076Y-20317531D01*
X84108816Y-20317422D01*
X83944366Y-20245942D01*
X83833633Y-20191136D01*
X83767305Y-20147432D01*
X83736067Y-20109257D01*
X83730801Y-20091250D01*
X83749646Y-20015084D01*
X83785887Y-19984484D01*
X83828012Y-19973930D01*
X83891573Y-19981923D01*
X83987794Y-20011507D01*
X84127902Y-20065726D01*
X84208790Y-20099196D01*
X84350520Y-20158123D01*
X84468061Y-20206138D01*
X84548710Y-20238108D01*
X84579542Y-20248947D01*
X84598729Y-20220896D01*
X84641287Y-20144427D01*
X84701014Y-20031066D01*
X84771706Y-19892338D01*
X84775058Y-19885659D01*
X84866280Y-19714334D01*
X84981675Y-19513048D01*
X85106748Y-19306361D01*
X85227006Y-19118834D01*
X85232170Y-19111092D01*
X85507086Y-18699813D01*
X85347435Y-18561311D01*
X85245850Y-18461442D01*
X85201628Y-18386910D01*
X85200089Y-18358313D01*
X85237045Y-18296633D01*
X85309677Y-18285011D01*
X85410428Y-18322525D01*
X85518479Y-18397190D01*
X85671273Y-18522393D01*
X85870032Y-18300037D01*
X85977520Y-18187346D01*
X86118096Y-18050774D01*
X86278837Y-17901807D01*
X86446823Y-17751930D01*
X86609131Y-17612626D01*
X86752839Y-17495382D01*
X86865027Y-17411682D01*
X86883142Y-17399590D01*
X86955561Y-17346696D01*
X86996177Y-17305425D01*
X86999323Y-17297206D01*
X86981987Y-17256223D01*
X86937095Y-17180821D01*
X86899474Y-17124079D01*
X86829693Y-17011685D01*
X86802975Y-16933458D01*
X86816242Y-16875203D01*
X86839316Y-16846684D01*
X86892449Y-16812059D01*
X86946742Y-16822886D01*
X87011320Y-16884429D01*
X87087239Y-16989730D01*
X87208844Y-17172881D01*
X87346593Y-17088317D01*
X87504654Y-16997586D01*
X87705113Y-16891773D01*
X87928255Y-16780495D01*
X88154367Y-16673365D01*
X88363732Y-16579999D01*
X88517718Y-16517144D01*
X88647975Y-16466748D01*
X88752423Y-16425040D01*
X88816876Y-16397753D01*
X88830400Y-16390739D01*
X88827968Y-16355245D01*
X88809969Y-16274888D01*
X88786850Y-16190096D01*
X88753336Y-16049485D01*
X88752412Y-15960856D01*
X88786051Y-15916771D01*
X88856228Y-15909795D01*
X88861073Y-15910327D01*
X88913849Y-15924488D01*
X88952296Y-15962265D01*
X88987536Y-16038976D01*
X89016253Y-16124049D01*
X89081031Y-16327176D01*
X89402292Y-16249127D01*
X89625472Y-16200722D01*
X89874762Y-16156236D01*
X90130304Y-16118437D01*
X90372239Y-16090093D01*
X90580707Y-16073973D01*
X90677764Y-16071315D01*
X90876579Y-16071315D01*
X90876579Y-15655213D01*
X90877709Y-15478351D01*
X90882082Y-15356840D01*
X90891172Y-15279214D01*
X90906452Y-15234006D01*
X90929397Y-15209749D01*
X90934203Y-15206863D01*
X91019157Y-15194358D01*
X91051176Y-15206378D01*
X91051176Y-15206378D01*
G37*
X91051176Y-15206378D02*
X91076207Y-15227151D01*
X91093123Y-15265487D01*
X91103453Y-15332923D01*
X91108724Y-15441001D01*
X91110464Y-15601260D01*
X91110526Y-15654728D01*
X91110526Y-16071315D01*
X91292630Y-16071315D01*
X91445030Y-16077980D01*
X91643636Y-16096257D01*
X91869332Y-16123573D01*
X92103007Y-16157353D01*
X92325546Y-16195023D01*
X92517835Y-16234007D01*
X92541915Y-16239580D01*
X92673499Y-16269584D01*
X92781958Y-16292395D01*
X92849478Y-16304333D01*
X92860092Y-16305263D01*
X92891117Y-16276153D01*
X92931593Y-16200495D01*
X92966071Y-16113092D01*
X93013601Y-15994985D01*
X93058694Y-15931250D01*
X93102003Y-15910953D01*
X93181682Y-15917629D01*
X93220569Y-15968906D01*
X93219854Y-16068588D01*
X93189781Y-16191656D01*
X93129871Y-16388440D01*
X93484368Y-16527230D01*
X93895494Y-16701645D01*
X94285446Y-16893119D01*
X94568609Y-17052408D01*
X94764184Y-17170221D01*
X94885372Y-16996755D01*
X94981825Y-16879960D01*
X95063298Y-16827730D01*
X95130669Y-16839696D01*
X95165689Y-16879109D01*
X95177245Y-16923545D01*
X95157992Y-16986453D01*
X95102727Y-17082218D01*
X95079237Y-17118166D01*
X94957575Y-17301402D01*
X95188836Y-17473369D01*
X95430951Y-17665804D01*
X95689942Y-17893254D01*
X95944148Y-18136121D01*
X96107250Y-18304380D01*
X96308052Y-18519269D01*
X96452978Y-18398187D01*
X96571014Y-18316613D01*
X96670667Y-18280674D01*
X96742719Y-18292351D01*
X96771699Y-18329658D01*
X96773254Y-18392233D01*
X96749257Y-18462245D01*
X96712310Y-18508006D01*
X96699021Y-18512411D01*
X96661124Y-18533188D01*
X96594014Y-18583848D01*
X96563658Y-18609136D01*
X96452184Y-18704503D01*
X96633669Y-18950344D01*
X96773341Y-19149830D01*
X96918147Y-19374463D01*
X97056942Y-19605577D01*
X97178581Y-19824505D01*
X97271920Y-20012580D01*
X97283755Y-20039186D01*
X97332243Y-20143982D01*
X97372444Y-20219184D01*
X97395854Y-20248923D01*
X97396184Y-20248947D01*
X97433611Y-20236749D01*
X97519488Y-20203603D01*
X97640740Y-20154682D01*
X97773406Y-20099723D01*
X97946832Y-20029905D01*
X98070187Y-19988654D01*
X98153237Y-19974741D01*
X98205745Y-19986937D01*
X98237475Y-20024014D01*
X98244638Y-20040420D01*
X98246064Y-20091729D01*
X98206284Y-20144423D01*
X98119150Y-20202840D01*
X97978514Y-20271318D01*
X97828158Y-20334332D01*
X97694503Y-20388428D01*
X97585932Y-20433114D01*
X97516158Y-20462704D01*
X97497746Y-20471384D01*
X97502108Y-20504952D01*
X97524222Y-20587803D01*
X97560153Y-20705995D01*
X97589407Y-20796231D01*
X97667352Y-21047320D01*
X97739820Y-21310644D01*
X97802448Y-21568109D01*
X97850875Y-21801625D01*
X97880741Y-21993100D01*
X97883109Y-22014699D01*
X97904802Y-22226372D01*
X98108783Y-22219736D01*
X98247318Y-22216033D01*
X98332196Y-22218484D01*
X98376560Y-22230867D01*
X98393552Y-22256958D01*
X98396315Y-22300535D01*
X98396316Y-22302369D01*
X98385734Y-22368216D01*
X98345613Y-22410770D01*
X98263389Y-22437256D01*
X98131994Y-22454385D01*
X97951225Y-22471447D01*
X97957607Y-22939342D01*
X97955843Y-23162365D01*
X97946204Y-23411783D01*
X97930315Y-23655236D01*
X97912478Y-23838619D01*
X97893916Y-23999800D01*
X97879686Y-24134654D01*
X97871018Y-24230613D01*
X97869139Y-24275110D01*
X97869628Y-24276693D01*
X97904101Y-24287146D01*
X97985140Y-24307646D01*
X98078816Y-24329916D01*
X98191094Y-24359175D01*
X98253336Y-24387521D01*
X98281431Y-24425073D01*
X98289505Y-24464085D01*
X98281536Y-24536390D01*
X98232231Y-24574034D01*
X98134928Y-24579217D01*
X98003542Y-24558512D01*
X97902860Y-24539789D01*
X97833306Y-24530966D01*
X97813639Y-24532277D01*
X97801595Y-24566846D01*
X97775190Y-24653409D01*
X97738104Y-24779598D01*
X97694016Y-24933046D01*
X97685555Y-24962839D01*
X97622296Y-25167413D01*
X97541668Y-25401475D01*
X97454736Y-25634026D01*
X97383819Y-25808132D01*
X97200948Y-26234137D01*
X97357902Y-26313672D01*
X97489923Y-26389690D01*
X97562548Y-26455864D01*
X97581354Y-26518047D01*
X97575492Y-26541995D01*
X97532858Y-26598400D01*
X97460748Y-26609406D01*
X97351880Y-26574765D01*
X97264879Y-26531422D01*
X97167166Y-26484142D01*
X97095242Y-26459943D01*
X97065670Y-26463384D01*
X97034867Y-26523712D01*
X96971457Y-26626008D01*
X96883329Y-26759061D01*
X96778373Y-26911661D01*
X96664479Y-27072597D01*
X96549537Y-27230661D01*
X96441437Y-27374641D01*
X96348068Y-27493328D01*
X96302864Y-27547204D01*
X96203857Y-27661527D01*
X96119403Y-27760371D01*
X96060490Y-27830797D01*
X96040522Y-27856000D01*
X96037968Y-27889375D01*
X96069305Y-27944864D01*
X96139670Y-28029305D01*
X96254200Y-28149532D01*
X96282825Y-28178441D01*
X96425156Y-28329324D01*
X96515524Y-28444925D01*
X96555995Y-28529316D01*
X96548634Y-28586573D01*
X96505293Y-28617345D01*
X96448195Y-28635168D01*
X96432096Y-28637631D01*
X96402791Y-28614990D01*
X96334187Y-28552028D01*
X96233747Y-28456185D01*
X96108936Y-28334901D01*
X95967217Y-28195616D01*
X95816052Y-28045772D01*
X95662906Y-27892809D01*
X95515241Y-27744167D01*
X95380521Y-27607286D01*
X95266209Y-27489608D01*
X95179769Y-27398571D01*
X95128664Y-27341618D01*
X95118710Y-27328276D01*
X95102091Y-27254501D01*
X95108038Y-27219658D01*
X95145024Y-27172879D01*
X95205734Y-27171971D01*
X95294258Y-27219004D01*
X95414683Y-27316050D01*
X95548641Y-27442829D01*
X95827232Y-27718552D01*
X96003314Y-27530801D01*
X96120576Y-27398812D01*
X96245392Y-27246396D01*
X96371979Y-27082034D01*
X96494554Y-26914205D01*
X96607335Y-26751392D01*
X96704538Y-26602073D01*
X96780380Y-26474729D01*
X96829079Y-26377841D01*
X96844852Y-26319889D01*
X96837384Y-26307680D01*
X96790594Y-26284059D01*
X96708854Y-26236177D01*
X96644011Y-26195940D01*
X96548596Y-26127946D01*
X96503657Y-26072924D01*
X96497436Y-26022094D01*
X96530708Y-25955667D01*
X96604916Y-25940198D01*
X96721023Y-25975658D01*
X96795890Y-26012913D01*
X96890708Y-26058648D01*
X96962976Y-26082849D01*
X96989421Y-26082905D01*
X97022070Y-26038494D01*
X97070727Y-25941402D01*
X97131281Y-25802693D01*
X97199620Y-25633429D01*
X97271634Y-25444672D01*
X97343209Y-25247483D01*
X97410236Y-25052925D01*
X97468602Y-24872061D01*
X97514196Y-24715952D01*
X97542907Y-24595661D01*
X97543650Y-24591731D01*
X97565826Y-24472804D01*
X97354426Y-24424625D01*
X97238839Y-24395509D01*
X97173587Y-24368271D01*
X97143155Y-24333310D01*
X97132728Y-24287408D01*
X97144397Y-24211470D01*
X97203847Y-24174400D01*
X97314507Y-24174951D01*
X97398195Y-24190782D01*
X97495422Y-24211541D01*
X97566939Y-24223860D01*
X97581792Y-24225235D01*
X97605059Y-24194135D01*
X97628727Y-24107136D01*
X97651872Y-23975167D01*
X97673570Y-23809157D01*
X97692894Y-23620037D01*
X97708920Y-23418735D01*
X97720723Y-23216181D01*
X97727377Y-23023305D01*
X97727957Y-22851036D01*
X97721539Y-22710304D01*
X97714953Y-22652038D01*
X97692268Y-22500762D01*
X97492761Y-22515193D01*
X97341412Y-22514163D01*
X97240250Y-22487050D01*
X97195042Y-22435695D01*
X97193158Y-22419610D01*
X97222574Y-22361285D01*
X97295204Y-22312485D01*
X97387619Y-22287896D01*
X97404427Y-22287175D01*
X97544150Y-22276685D01*
X97626848Y-22244452D01*
X97659757Y-22187126D01*
X97661053Y-22168456D01*
X97652531Y-22070536D01*
X97629005Y-21927900D01*
X97593532Y-21752519D01*
X97549171Y-21556365D01*
X97498980Y-21351411D01*
X97446018Y-21149628D01*
X97393342Y-20962988D01*
X97344011Y-20803462D01*
X97301083Y-20683023D01*
X97267616Y-20613642D01*
X97262097Y-20606701D01*
X97223130Y-20608242D01*
X97135875Y-20632228D01*
X97013386Y-20674545D01*
X96873318Y-20729191D01*
X96684068Y-20801962D01*
X96547330Y-20842071D01*
X96457372Y-20849654D01*
X96408463Y-20824844D01*
X96394871Y-20767774D01*
X96397380Y-20740326D01*
X96414817Y-20702717D01*
X96462410Y-20662409D01*
X96549522Y-20613761D01*
X96685513Y-20551130D01*
X96775395Y-20512542D01*
X96935745Y-20442740D01*
X97042374Y-20390607D01*
X97104266Y-20350657D01*
X97130403Y-20317402D01*
X97132142Y-20294626D01*
X97105719Y-20217832D01*
X97048764Y-20096996D01*
X96968073Y-19943527D01*
X96870442Y-19768832D01*
X96762666Y-19584318D01*
X96651542Y-19401394D01*
X96543864Y-19231466D01*
X96446428Y-19085942D01*
X96366030Y-18976230D01*
X96309585Y-18913835D01*
X96271949Y-18895379D01*
X96225001Y-18907696D01*
X96152893Y-18957053D01*
X96106803Y-18994009D01*
X95992012Y-19075001D01*
X95906620Y-19101966D01*
X95842284Y-19076047D01*
X95809766Y-19034674D01*
X95797057Y-18995993D01*
X95813512Y-18952706D01*
X95867332Y-18892009D01*
X95949722Y-18816152D01*
X96126680Y-18658876D01*
X95715774Y-18257728D01*
X95506428Y-18058326D01*
X95307119Y-17877944D01*
X95126791Y-17724218D01*
X94974383Y-17604784D01*
X94864118Y-17530344D01*
X94822242Y-17542482D01*
X94758913Y-17607818D01*
X94715929Y-17666483D01*
X94638433Y-17775584D01*
X94583485Y-17836106D01*
X94539173Y-17856746D01*
X94493589Y-17846200D01*
X94479498Y-17839123D01*
X94431823Y-17795455D01*
X94426247Y-17730874D01*
X94464218Y-17635455D01*
X94523885Y-17534967D01*
X94581334Y-17442453D01*
X94605230Y-17388308D01*
X94599023Y-17355237D01*
X94566164Y-17325944D01*
X94565661Y-17325573D01*
X94474662Y-17267234D01*
X94341077Y-17192739D01*
X94176138Y-17107291D01*
X93991078Y-17016094D01*
X93797127Y-16924349D01*
X93605519Y-16837261D01*
X93427485Y-16760033D01*
X93274258Y-16697867D01*
X93157069Y-16655967D01*
X93087150Y-16639536D01*
X93084562Y-16639473D01*
X93057655Y-16668839D01*
X93023349Y-16744687D01*
X92998192Y-16820490D01*
X92949599Y-16959061D01*
X92899344Y-17036891D01*
X92841634Y-17059953D01*
X92783715Y-17041669D01*
X92735512Y-17005930D01*
X92718456Y-16956388D01*
X92731389Y-16876540D01*
X92764868Y-16773158D01*
X92795538Y-16677147D01*
X92813259Y-16604083D01*
X92815000Y-16587883D01*
X92783365Y-16557762D01*
X92694967Y-16523012D01*
X92559562Y-16485545D01*
X92386908Y-16447271D01*
X92186763Y-16410103D01*
X91968883Y-16375949D01*
X91743027Y-16346723D01*
X91518952Y-16324334D01*
X91437449Y-16318096D01*
X91112662Y-16295547D01*
X91103239Y-16706239D01*
X91097602Y-16885587D01*
X91089325Y-17009103D01*
X91076841Y-17087789D01*
X91058581Y-17132648D01*
X91039872Y-17150890D01*
X90967003Y-17169789D01*
X90931253Y-17163867D01*
X90908132Y-17146174D01*
X90892467Y-17106751D01*
X90882895Y-17034655D01*
X90878057Y-16918942D01*
X90876593Y-16748668D01*
X90876579Y-16724075D01*
X90876579Y-16305263D01*
X90711185Y-16305263D01*
X90567382Y-16311828D01*
X90376590Y-16329842D01*
X90157183Y-16356782D01*
X89927538Y-16390125D01*
X89706030Y-16427347D01*
X89511036Y-16465926D01*
X89464539Y-16476429D01*
X89316007Y-16513286D01*
X89224174Y-16547535D01*
X89180418Y-16590736D01*
X89176116Y-16654448D01*
X89202645Y-16750234D01*
X89220962Y-16802965D01*
X89252335Y-16928772D01*
X89239786Y-17010437D01*
X89186232Y-17053604D01*
X89115499Y-17060360D01*
X89058237Y-17015677D01*
X89008824Y-16913459D01*
X88984039Y-16834384D01*
X88951466Y-16725514D01*
X88924694Y-16668185D01*
X88893093Y-16649150D01*
X88846033Y-16655159D01*
X88841186Y-16656349D01*
X88724923Y-16692386D01*
X88575328Y-16749368D01*
X88402376Y-16822371D01*
X88216040Y-16906472D01*
X88026292Y-16996745D01*
X87843106Y-17088268D01*
X87676455Y-17176116D01*
X87536313Y-17255364D01*
X87432652Y-17321090D01*
X87375446Y-17368368D01*
X87367368Y-17384014D01*
X87384968Y-17425849D01*
X87430078Y-17501861D01*
X87467632Y-17558552D01*
X87539505Y-17676834D01*
X87564002Y-17758765D01*
X87542524Y-17813694D01*
X87509408Y-17836939D01*
X87450013Y-17855903D01*
X87396770Y-17838902D01*
X87337476Y-17777761D01*
X87266109Y-17673973D01*
X87202632Y-17581708D01*
X87157805Y-17538380D01*
X87118855Y-17533928D01*
X87099019Y-17542367D01*
X87005115Y-17603146D01*
X86875485Y-17701690D01*
X86721483Y-17828318D01*
X86554466Y-17973347D01*
X86385787Y-18127097D01*
X86226803Y-18279886D01*
X86185619Y-18321128D01*
X85856106Y-18654543D01*
X86026869Y-18811534D01*
X86125601Y-18906007D01*
X86178680Y-18970278D01*
X86192176Y-19016481D01*
X86172165Y-19056745D01*
X86157526Y-19072526D01*
X86100794Y-19107225D01*
X86032517Y-19098962D01*
X85940408Y-19044359D01*
X85877949Y-18995658D01*
X85794363Y-18931152D01*
X85730509Y-18889092D01*
X85707402Y-18879658D01*
X85667170Y-18908418D01*
X85602050Y-18986430D01*
X85517776Y-19104016D01*
X85420079Y-19251497D01*
X85314692Y-19419194D01*
X85207350Y-19597429D01*
X85103783Y-19776523D01*
X85009725Y-19946797D01*
X84930910Y-20098572D01*
X84873068Y-20222170D01*
X84841935Y-20307911D01*
X84840452Y-20343341D01*
X84876151Y-20365704D01*
X84960833Y-20406650D01*
X85081353Y-20460103D01*
X85207247Y-20512918D01*
X85376651Y-20585311D01*
X85490527Y-20642996D01*
X85556847Y-20692137D01*
X85583582Y-20738897D01*
X85578706Y-20789440D01*
X85575709Y-20797810D01*
X85548915Y-20839337D01*
X85502920Y-20856711D01*
X85428122Y-20848577D01*
X85314916Y-20813579D01*
X85153697Y-20750360D01*
X85109558Y-20731996D01*
X84966701Y-20674605D01*
X84845988Y-20630718D01*
X84760792Y-20604892D01*
X84725241Y-20601020D01*
X84699472Y-20642758D01*
X84661523Y-20736880D01*
X84615223Y-20870873D01*
X84564396Y-21032223D01*
X84512869Y-21208418D01*
X84464470Y-21386943D01*
X84423024Y-21555285D01*
X84398132Y-21670729D01*
X84357419Y-21877143D01*
X84328805Y-22027284D01*
X84311800Y-22130524D01*
X84305916Y-22196238D01*
X84310664Y-22233799D01*
X84325556Y-22252579D01*
X84350103Y-22261953D01*
X84367082Y-22266371D01*
X84453522Y-22280576D01*
X84558965Y-22287136D01*
X84564263Y-22287175D01*
X84676848Y-22307523D01*
X84742958Y-22362823D01*
X84754255Y-22444776D01*
X84738099Y-22477000D01*
X84695731Y-22495565D01*
X84612600Y-22504118D01*
X84509193Y-22506189D01*
X84275921Y-22507509D01*
X84266757Y-22990794D01*
X84266859Y-23168847D01*
X84272746Y-23364252D01*
X84283390Y-23564771D01*
X84297760Y-23758165D01*
X84314826Y-23932195D01*
X84333560Y-24074624D01*
X84352932Y-24173212D01*
X84369659Y-24213957D01*
X84409494Y-24217408D01*
X84493919Y-24207746D01*
X84575720Y-24192837D01*
X84721008Y-24174525D01*
X84812488Y-24192406D01*
X84853376Y-24247794D01*
X84854047Y-24306680D01*
X84835321Y-24348980D01*
X84783932Y-24381572D01*
X84685783Y-24411954D01*
X84631974Y-24424780D01*
X84419870Y-24473113D01*
X84441298Y-24608596D01*
X84465462Y-24718968D01*
X84507224Y-24865643D01*
X84562589Y-25038145D01*
X84627563Y-25225996D01*
X84698152Y-25418719D01*
X84770360Y-25605837D01*
X84840194Y-25776873D01*
X84903659Y-25921350D01*
X84956761Y-26028789D01*
X84995505Y-26088716D01*
X85008999Y-26097631D01*
X85046267Y-26082675D01*
X85122799Y-26044056D01*
X85193694Y-26005723D01*
X85297906Y-25953392D01*
X85365789Y-25935759D01*
X85415261Y-25948469D01*
X85419303Y-25950879D01*
X85475287Y-26010644D01*
X85465194Y-26079292D01*
X85389156Y-26156525D01*
X85303618Y-26211654D01*
X85210795Y-26268598D01*
X85147193Y-26315199D01*
X85128158Y-26337811D01*
X85147870Y-26392635D01*
X85202534Y-26490221D01*
X85285437Y-26621062D01*
X85389869Y-26775649D01*
X85509119Y-26944475D01*
X85636475Y-27118033D01*
X85765227Y-27286814D01*
X85888665Y-27441310D01*
X85996406Y-27567893D01*
X86129838Y-27718023D01*
X86409691Y-27439623D01*
X86539254Y-27314184D01*
X86633605Y-27232188D01*
X86701750Y-27186950D01*
X86752692Y-27171784D01*
X86769443Y-27172520D01*
X86821077Y-27185953D01*
X86848002Y-27211481D01*
X86847057Y-27253639D01*
X86815080Y-27316963D01*
X86748909Y-27405986D01*
X86645382Y-27525244D01*
X86501337Y-27679272D01*
X86313612Y-27872604D01*
X86203281Y-27984518D01*
X86033436Y-28155391D01*
X85878686Y-28309500D01*
X85745274Y-28440755D01*
X85639444Y-28543064D01*
X85567438Y-28610337D01*
X85535501Y-28636483D01*
X85534860Y-28636615D01*
X85490461Y-28620707D01*
X85454013Y-28601533D01*
X85412397Y-28566050D01*
X85403031Y-28520237D01*
X85429880Y-28456464D01*
X85496905Y-28367100D01*
X85608071Y-28244513D01*
X85676171Y-28173788D01*
X85956815Y-27885658D01*
X85675011Y-27551447D01*
X85540909Y-27384854D01*
X85391613Y-27187308D01*
X85246515Y-26985054D01*
X85138412Y-26825117D01*
X84883616Y-26432998D01*
X84706250Y-26534476D01*
X84599308Y-26590924D01*
X84528675Y-26613411D01*
X84476213Y-26606749D01*
X84460890Y-26599564D01*
X84398366Y-26543010D01*
X84400151Y-26477463D01*
X84464874Y-26406350D01*
X84561570Y-26347493D01*
X84657097Y-26293457D01*
X84725272Y-26244405D01*
X84746376Y-26219985D01*
X84740055Y-26172904D01*
X84709669Y-26081706D01*
X84660842Y-25962162D01*
X84630710Y-25895488D01*
X84541246Y-25687962D01*
X84448338Y-25445463D01*
X84359945Y-25191038D01*
X84284024Y-24947735D01*
X84228536Y-24738599D01*
X84223520Y-24716401D01*
X84180563Y-24521618D01*
X84069492Y-24540940D01*
X83952081Y-24561379D01*
X83844325Y-24580153D01*
X83760215Y-24586189D01*
X83712170Y-24559568D01*
X83691611Y-24527885D01*
X83672071Y-24456228D01*
X83703951Y-24400759D01*
X83792514Y-24356921D01*
X83928223Y-24323015D01*
X84032180Y-24301951D01*
X84103591Y-24286312D01*
X84125333Y-24280191D01*
X84119797Y-24248049D01*
X84105590Y-24168445D01*
X84088865Y-24075658D01*
X84076690Y-23980346D01*
X84063991Y-23832055D01*
X84051661Y-23644631D01*
X84040596Y-23431921D01*
X84031689Y-23207772D01*
X84030572Y-23173289D01*
X84008553Y-22471447D01*
X83814839Y-22454213D01*
X83675511Y-22430992D01*
X83593200Y-22388336D01*
X83559652Y-22321228D01*
X83557880Y-22297959D01*
X83577524Y-22249777D01*
X83643050Y-22222376D01*
X83762063Y-22213598D01*
X83847898Y-22215689D01*
X84054874Y-22224952D01*
X84075033Y-22097542D01*
X84114371Y-21880011D01*
X84167874Y-21627139D01*
X84229795Y-21363211D01*
X84294390Y-21112513D01*
X84355914Y-20899330D01*
X84366083Y-20867237D01*
X84410809Y-20726127D01*
X84446732Y-20608244D01*
X84469443Y-20528336D01*
X84475145Y-20502447D01*
X84446666Y-20478401D01*
X84368159Y-20435525D01*
X84251627Y-20379880D01*
X84109076Y-20317531D01*
X84108816Y-20317422D01*
X83944366Y-20245942D01*
X83833633Y-20191136D01*
X83767305Y-20147432D01*
X83736067Y-20109257D01*
X83730801Y-20091250D01*
X83749646Y-20015084D01*
X83785887Y-19984484D01*
X83828012Y-19973930D01*
X83891573Y-19981923D01*
X83987794Y-20011507D01*
X84127902Y-20065726D01*
X84208790Y-20099196D01*
X84350520Y-20158123D01*
X84468061Y-20206138D01*
X84548710Y-20238108D01*
X84579542Y-20248947D01*
X84598729Y-20220896D01*
X84641287Y-20144427D01*
X84701014Y-20031066D01*
X84771706Y-19892338D01*
X84775058Y-19885659D01*
X84866280Y-19714334D01*
X84981675Y-19513048D01*
X85106748Y-19306361D01*
X85227006Y-19118834D01*
X85232170Y-19111092D01*
X85507086Y-18699813D01*
X85347435Y-18561311D01*
X85245850Y-18461442D01*
X85201628Y-18386910D01*
X85200089Y-18358313D01*
X85237045Y-18296633D01*
X85309677Y-18285011D01*
X85410428Y-18322525D01*
X85518479Y-18397190D01*
X85671273Y-18522393D01*
X85870032Y-18300037D01*
X85977520Y-18187346D01*
X86118096Y-18050774D01*
X86278837Y-17901807D01*
X86446823Y-17751930D01*
X86609131Y-17612626D01*
X86752839Y-17495382D01*
X86865027Y-17411682D01*
X86883142Y-17399590D01*
X86955561Y-17346696D01*
X86996177Y-17305425D01*
X86999323Y-17297206D01*
X86981987Y-17256223D01*
X86937095Y-17180821D01*
X86899474Y-17124079D01*
X86829693Y-17011685D01*
X86802975Y-16933458D01*
X86816242Y-16875203D01*
X86839316Y-16846684D01*
X86892449Y-16812059D01*
X86946742Y-16822886D01*
X87011320Y-16884429D01*
X87087239Y-16989730D01*
X87208844Y-17172881D01*
X87346593Y-17088317D01*
X87504654Y-16997586D01*
X87705113Y-16891773D01*
X87928255Y-16780495D01*
X88154367Y-16673365D01*
X88363732Y-16579999D01*
X88517718Y-16517144D01*
X88647975Y-16466748D01*
X88752423Y-16425040D01*
X88816876Y-16397753D01*
X88830400Y-16390739D01*
X88827968Y-16355245D01*
X88809969Y-16274888D01*
X88786850Y-16190096D01*
X88753336Y-16049485D01*
X88752412Y-15960856D01*
X88786051Y-15916771D01*
X88856228Y-15909795D01*
X88861073Y-15910327D01*
X88913849Y-15924488D01*
X88952296Y-15962265D01*
X88987536Y-16038976D01*
X89016253Y-16124049D01*
X89081031Y-16327176D01*
X89402292Y-16249127D01*
X89625472Y-16200722D01*
X89874762Y-16156236D01*
X90130304Y-16118437D01*
X90372239Y-16090093D01*
X90580707Y-16073973D01*
X90677764Y-16071315D01*
X90876579Y-16071315D01*
X90876579Y-15655213D01*
X90877709Y-15478351D01*
X90882082Y-15356840D01*
X90891172Y-15279214D01*
X90906452Y-15234006D01*
X90929397Y-15209749D01*
X90934203Y-15206863D01*
X91019157Y-15194358D01*
X91051176Y-15206378D01*
M02*
