%TF.GenerationSoftware,KiCad,Pcbnew,(5.0.1)-3*%
%TF.CreationDate,2020-04-22T23:21:00+01:00*%
%TF.ProjectId,panel,70616E656C2E6B696361645F70636200,rev?*%
%TF.SameCoordinates,Original*%
%TF.FileFunction,Soldermask,Top*%
%TF.FilePolarity,Negative*%
%FSLAX46Y46*%
G04 Gerber Fmt 4.6, Leading zero omitted, Abs format (unit mm)*
G04 Created by KiCad (PCBNEW (5.0.1)-3) date 22/04/2020 23:21:00*
%MOMM*%
%LPD*%
G01*
G04 APERTURE LIST*
%ADD10C,0.400000*%
G04 APERTURE END LIST*
D10*
G36*
X89056160Y-122974368D02*
X89056162Y-122974369D01*
X89056163Y-122974369D01*
X89170514Y-123021735D01*
X89365726Y-123102594D01*
X89644327Y-123288749D01*
X89881251Y-123525673D01*
X90067406Y-123804274D01*
X90195632Y-124113840D01*
X90261000Y-124442465D01*
X90261000Y-124777535D01*
X90195632Y-125106160D01*
X90067406Y-125415726D01*
X89881251Y-125694327D01*
X89644327Y-125931251D01*
X89365726Y-126117406D01*
X89170514Y-126198265D01*
X89056163Y-126245631D01*
X89056162Y-126245631D01*
X89056160Y-126245632D01*
X88727535Y-126311000D01*
X88392465Y-126311000D01*
X88063840Y-126245632D01*
X88063838Y-126245631D01*
X88063837Y-126245631D01*
X87949486Y-126198265D01*
X87754274Y-126117406D01*
X87475673Y-125931251D01*
X87238749Y-125694327D01*
X87052594Y-125415726D01*
X86924368Y-125106160D01*
X86859000Y-124777535D01*
X86859000Y-124442465D01*
X86924368Y-124113840D01*
X87052594Y-123804274D01*
X87238749Y-123525673D01*
X87475673Y-123288749D01*
X87754274Y-123102594D01*
X87949486Y-123021735D01*
X88063837Y-122974369D01*
X88063838Y-122974369D01*
X88063840Y-122974368D01*
X88392465Y-122909000D01*
X88727535Y-122909000D01*
X89056160Y-122974368D01*
X89056160Y-122974368D01*
G37*
G36*
X116836191Y-103479727D02*
X117039113Y-103520091D01*
X117612558Y-103757620D01*
X118098713Y-104082459D01*
X118128648Y-104102461D01*
X118567539Y-104541352D01*
X118567541Y-104541355D01*
X118912380Y-105057442D01*
X119145767Y-105620888D01*
X119149909Y-105630888D01*
X119269011Y-106229652D01*
X119271000Y-106239654D01*
X119271000Y-106860346D01*
X119149909Y-107469113D01*
X118912380Y-108042558D01*
X118580905Y-108538645D01*
X118567539Y-108558648D01*
X118128648Y-108997539D01*
X118128645Y-108997541D01*
X117612558Y-109342380D01*
X117039113Y-109579909D01*
X116836191Y-109620273D01*
X116430348Y-109701000D01*
X115809652Y-109701000D01*
X115403809Y-109620273D01*
X115200887Y-109579909D01*
X114627442Y-109342380D01*
X114111355Y-108997541D01*
X114111352Y-108997539D01*
X113672461Y-108558648D01*
X113659095Y-108538645D01*
X113327620Y-108042558D01*
X113090091Y-107469113D01*
X112969000Y-106860346D01*
X112969000Y-106239654D01*
X112970990Y-106229652D01*
X113090091Y-105630888D01*
X113094233Y-105620888D01*
X113327620Y-105057442D01*
X113672459Y-104541355D01*
X113672461Y-104541352D01*
X114111352Y-104102461D01*
X114141287Y-104082459D01*
X114627442Y-103757620D01*
X115200887Y-103520091D01*
X115403809Y-103479727D01*
X115809652Y-103399000D01*
X116430348Y-103399000D01*
X116836191Y-103479727D01*
X116836191Y-103479727D01*
G37*
G36*
X96676191Y-103469727D02*
X96879113Y-103510091D01*
X97452558Y-103747620D01*
X97953679Y-104082459D01*
X97968648Y-104092461D01*
X98407539Y-104531352D01*
X98407541Y-104531355D01*
X98752380Y-105047442D01*
X98985767Y-105610888D01*
X98989909Y-105620888D01*
X99111000Y-106229652D01*
X99111000Y-106850348D01*
X99030273Y-107256191D01*
X98989909Y-107459113D01*
X98752380Y-108032558D01*
X98745698Y-108042558D01*
X98407539Y-108548648D01*
X97968648Y-108987539D01*
X97968645Y-108987541D01*
X97452558Y-109332380D01*
X96879113Y-109569909D01*
X96828839Y-109579909D01*
X96270348Y-109691000D01*
X95649652Y-109691000D01*
X95091161Y-109579909D01*
X95040887Y-109569909D01*
X94467442Y-109332380D01*
X93951355Y-108987541D01*
X93951352Y-108987539D01*
X93512461Y-108548648D01*
X93174302Y-108042558D01*
X93167620Y-108032558D01*
X92930091Y-107459113D01*
X92889727Y-107256191D01*
X92809000Y-106850348D01*
X92809000Y-106229652D01*
X92930091Y-105620888D01*
X92934233Y-105610888D01*
X93167620Y-105047442D01*
X93512459Y-104531355D01*
X93512461Y-104531352D01*
X93951352Y-104092461D01*
X93966321Y-104082459D01*
X94467442Y-103747620D01*
X95040887Y-103510091D01*
X95243809Y-103469727D01*
X95649652Y-103389000D01*
X96270348Y-103389000D01*
X96676191Y-103469727D01*
X96676191Y-103469727D01*
G37*
G36*
X106756191Y-103469727D02*
X106959113Y-103510091D01*
X107532558Y-103747620D01*
X108033679Y-104082459D01*
X108048648Y-104092461D01*
X108487539Y-104531352D01*
X108487541Y-104531355D01*
X108832380Y-105047442D01*
X109065767Y-105610888D01*
X109069909Y-105620888D01*
X109191000Y-106229652D01*
X109191000Y-106850348D01*
X109110273Y-107256191D01*
X109069909Y-107459113D01*
X108832380Y-108032558D01*
X108825698Y-108042558D01*
X108487539Y-108548648D01*
X108048648Y-108987539D01*
X108048645Y-108987541D01*
X107532558Y-109332380D01*
X106959113Y-109569909D01*
X106908839Y-109579909D01*
X106350348Y-109691000D01*
X105729652Y-109691000D01*
X105171161Y-109579909D01*
X105120887Y-109569909D01*
X104547442Y-109332380D01*
X104031355Y-108987541D01*
X104031352Y-108987539D01*
X103592461Y-108548648D01*
X103254302Y-108042558D01*
X103247620Y-108032558D01*
X103010091Y-107459113D01*
X102969727Y-107256191D01*
X102889000Y-106850348D01*
X102889000Y-106229652D01*
X103010091Y-105620888D01*
X103014233Y-105610888D01*
X103247620Y-105047442D01*
X103592459Y-104531355D01*
X103592461Y-104531352D01*
X104031352Y-104092461D01*
X104046321Y-104082459D01*
X104547442Y-103747620D01*
X105120887Y-103510091D01*
X105323809Y-103469727D01*
X105729652Y-103389000D01*
X106350348Y-103389000D01*
X106756191Y-103469727D01*
X106756191Y-103469727D01*
G37*
G36*
X86606191Y-103459727D02*
X86809113Y-103500091D01*
X87382558Y-103737620D01*
X87895165Y-104080134D01*
X87898648Y-104082461D01*
X88337539Y-104521352D01*
X88337541Y-104521355D01*
X88682380Y-105037442D01*
X88919909Y-105610887D01*
X88919909Y-105610888D01*
X89041000Y-106219652D01*
X89041000Y-106840348D01*
X88960273Y-107246191D01*
X88919909Y-107449113D01*
X88682380Y-108022558D01*
X88669016Y-108042558D01*
X88337539Y-108538648D01*
X87898648Y-108977539D01*
X87898645Y-108977541D01*
X87382558Y-109322380D01*
X86809113Y-109559909D01*
X86606191Y-109600273D01*
X86200348Y-109681000D01*
X85579652Y-109681000D01*
X85173809Y-109600273D01*
X84970887Y-109559909D01*
X84397442Y-109322380D01*
X83881355Y-108977541D01*
X83881352Y-108977539D01*
X83442461Y-108538648D01*
X83110984Y-108042558D01*
X83097620Y-108022558D01*
X82860091Y-107449113D01*
X82819727Y-107246191D01*
X82739000Y-106840348D01*
X82739000Y-106219652D01*
X82860091Y-105610888D01*
X82860091Y-105610887D01*
X83097620Y-105037442D01*
X83442459Y-104521355D01*
X83442461Y-104521352D01*
X83881352Y-104082461D01*
X83884835Y-104080134D01*
X84397442Y-103737620D01*
X84970887Y-103500091D01*
X85173809Y-103459727D01*
X85579652Y-103379000D01*
X86200348Y-103379000D01*
X86606191Y-103459727D01*
X86606191Y-103459727D01*
G37*
G36*
X116826191Y-88749727D02*
X117029113Y-88790091D01*
X117602558Y-89027620D01*
X118103679Y-89362459D01*
X118118648Y-89372461D01*
X118557539Y-89811352D01*
X118557541Y-89811355D01*
X118902380Y-90327442D01*
X119135767Y-90890888D01*
X119139909Y-90900888D01*
X119259011Y-91499652D01*
X119261000Y-91509654D01*
X119261000Y-92130346D01*
X119139909Y-92739113D01*
X118902380Y-93312558D01*
X118564223Y-93818645D01*
X118557539Y-93828648D01*
X118118648Y-94267539D01*
X118118645Y-94267541D01*
X117602558Y-94612380D01*
X117029113Y-94849909D01*
X116826191Y-94890273D01*
X116420348Y-94971000D01*
X115799652Y-94971000D01*
X115393809Y-94890273D01*
X115190887Y-94849909D01*
X114617442Y-94612380D01*
X114101355Y-94267541D01*
X114101352Y-94267539D01*
X113662461Y-93828648D01*
X113655777Y-93818645D01*
X113317620Y-93312558D01*
X113080091Y-92739113D01*
X112959000Y-92130346D01*
X112959000Y-91509654D01*
X112960990Y-91499652D01*
X113080091Y-90900888D01*
X113084233Y-90890888D01*
X113317620Y-90327442D01*
X113662459Y-89811355D01*
X113662461Y-89811352D01*
X114101352Y-89372461D01*
X114116321Y-89362459D01*
X114617442Y-89027620D01*
X115190887Y-88790091D01*
X115393809Y-88749727D01*
X115799652Y-88669000D01*
X116420348Y-88669000D01*
X116826191Y-88749727D01*
X116826191Y-88749727D01*
G37*
G36*
X106756191Y-88739727D02*
X106959113Y-88780091D01*
X107532558Y-89017620D01*
X108045165Y-89360134D01*
X108048648Y-89362461D01*
X108487539Y-89801352D01*
X108487541Y-89801355D01*
X108832380Y-90317442D01*
X109069909Y-90890887D01*
X109069909Y-90890888D01*
X109191000Y-91499652D01*
X109191000Y-92120348D01*
X109110273Y-92526191D01*
X109069909Y-92729113D01*
X108832380Y-93302558D01*
X108825698Y-93312558D01*
X108487539Y-93818648D01*
X108048648Y-94257539D01*
X108048645Y-94257541D01*
X107532558Y-94602380D01*
X106959113Y-94839909D01*
X106908839Y-94849909D01*
X106350348Y-94961000D01*
X105729652Y-94961000D01*
X105171161Y-94849909D01*
X105120887Y-94839909D01*
X104547442Y-94602380D01*
X104031355Y-94257541D01*
X104031352Y-94257539D01*
X103592461Y-93818648D01*
X103254302Y-93312558D01*
X103247620Y-93302558D01*
X103010091Y-92729113D01*
X102969727Y-92526191D01*
X102889000Y-92120348D01*
X102889000Y-91499652D01*
X103010091Y-90890888D01*
X103010091Y-90890887D01*
X103247620Y-90317442D01*
X103592459Y-89801355D01*
X103592461Y-89801352D01*
X104031352Y-89362461D01*
X104034835Y-89360134D01*
X104547442Y-89017620D01*
X105120887Y-88780091D01*
X105323809Y-88739727D01*
X105729652Y-88659000D01*
X106350348Y-88659000D01*
X106756191Y-88739727D01*
X106756191Y-88739727D01*
G37*
G36*
X96676191Y-88739727D02*
X96879113Y-88780091D01*
X97452558Y-89017620D01*
X97965165Y-89360134D01*
X97968648Y-89362461D01*
X98407539Y-89801352D01*
X98407541Y-89801355D01*
X98752380Y-90317442D01*
X98989909Y-90890887D01*
X98989909Y-90890888D01*
X99111000Y-91499652D01*
X99111000Y-92120348D01*
X99030273Y-92526191D01*
X98989909Y-92729113D01*
X98752380Y-93302558D01*
X98745698Y-93312558D01*
X98407539Y-93818648D01*
X97968648Y-94257539D01*
X97968645Y-94257541D01*
X97452558Y-94602380D01*
X96879113Y-94839909D01*
X96828839Y-94849909D01*
X96270348Y-94961000D01*
X95649652Y-94961000D01*
X95091161Y-94849909D01*
X95040887Y-94839909D01*
X94467442Y-94602380D01*
X93951355Y-94257541D01*
X93951352Y-94257539D01*
X93512461Y-93818648D01*
X93174302Y-93312558D01*
X93167620Y-93302558D01*
X92930091Y-92729113D01*
X92889727Y-92526191D01*
X92809000Y-92120348D01*
X92809000Y-91499652D01*
X92930091Y-90890888D01*
X92930091Y-90890887D01*
X93167620Y-90317442D01*
X93512459Y-89801355D01*
X93512461Y-89801352D01*
X93951352Y-89362461D01*
X93954835Y-89360134D01*
X94467442Y-89017620D01*
X95040887Y-88780091D01*
X95243809Y-88739727D01*
X95649652Y-88659000D01*
X96270348Y-88659000D01*
X96676191Y-88739727D01*
X96676191Y-88739727D01*
G37*
G36*
X86616191Y-88739727D02*
X86819113Y-88780091D01*
X87392558Y-89017620D01*
X87905165Y-89360134D01*
X87908648Y-89362461D01*
X88347539Y-89801352D01*
X88347541Y-89801355D01*
X88692380Y-90317442D01*
X88929909Y-90890887D01*
X88929909Y-90890888D01*
X89051000Y-91499652D01*
X89051000Y-92120348D01*
X88970273Y-92526191D01*
X88929909Y-92729113D01*
X88692380Y-93302558D01*
X88685698Y-93312558D01*
X88347539Y-93818648D01*
X87908648Y-94257539D01*
X87908645Y-94257541D01*
X87392558Y-94602380D01*
X86819113Y-94839909D01*
X86768839Y-94849909D01*
X86210348Y-94961000D01*
X85589652Y-94961000D01*
X85031161Y-94849909D01*
X84980887Y-94839909D01*
X84407442Y-94602380D01*
X83891355Y-94257541D01*
X83891352Y-94257539D01*
X83452461Y-93818648D01*
X83114302Y-93312558D01*
X83107620Y-93302558D01*
X82870091Y-92729113D01*
X82829727Y-92526191D01*
X82749000Y-92120348D01*
X82749000Y-91499652D01*
X82870091Y-90890888D01*
X82870091Y-90890887D01*
X83107620Y-90317442D01*
X83452459Y-89801355D01*
X83452461Y-89801352D01*
X83891352Y-89362461D01*
X83894835Y-89360134D01*
X84407442Y-89017620D01*
X84980887Y-88780091D01*
X85183809Y-88739727D01*
X85589652Y-88659000D01*
X86210348Y-88659000D01*
X86616191Y-88739727D01*
X86616191Y-88739727D01*
G37*
G36*
X91564714Y-39695769D02*
X92034958Y-39789306D01*
X92699397Y-40064525D01*
X93297377Y-40464083D01*
X93805917Y-40972623D01*
X94205475Y-41570603D01*
X94480694Y-42235042D01*
X94621000Y-42940408D01*
X94621000Y-43659592D01*
X94480694Y-44364958D01*
X94205475Y-45029397D01*
X93805917Y-45627377D01*
X93297377Y-46135917D01*
X92699397Y-46535475D01*
X92034958Y-46810694D01*
X91564714Y-46904231D01*
X91329593Y-46951000D01*
X90610407Y-46951000D01*
X90375286Y-46904231D01*
X89905042Y-46810694D01*
X89240603Y-46535475D01*
X88642623Y-46135917D01*
X88134083Y-45627377D01*
X87734525Y-45029397D01*
X87459306Y-44364958D01*
X87319000Y-43659592D01*
X87319000Y-42940408D01*
X87459306Y-42235042D01*
X87734525Y-41570603D01*
X88134083Y-40972623D01*
X88642623Y-40464083D01*
X89240603Y-40064525D01*
X89905042Y-39789306D01*
X90375286Y-39695769D01*
X90610407Y-39649000D01*
X91329593Y-39649000D01*
X91564714Y-39695769D01*
X91564714Y-39695769D01*
G37*
G36*
X111374714Y-39685769D02*
X111844958Y-39779306D01*
X112509397Y-40054525D01*
X113107377Y-40454083D01*
X113615917Y-40962623D01*
X114015475Y-41560603D01*
X114290694Y-42225042D01*
X114431000Y-42930408D01*
X114431000Y-43649592D01*
X114290694Y-44354958D01*
X114015475Y-45019397D01*
X113615917Y-45617377D01*
X113107377Y-46125917D01*
X112509397Y-46525475D01*
X111844958Y-46800694D01*
X111374714Y-46894231D01*
X111139593Y-46941000D01*
X110420407Y-46941000D01*
X110185286Y-46894231D01*
X109715042Y-46800694D01*
X109050603Y-46525475D01*
X108452623Y-46125917D01*
X107944083Y-45617377D01*
X107544525Y-45019397D01*
X107269306Y-44354958D01*
X107129000Y-43649592D01*
X107129000Y-42930408D01*
X107269306Y-42225042D01*
X107544525Y-41560603D01*
X107944083Y-40962623D01*
X108452623Y-40454083D01*
X109050603Y-40054525D01*
X109715042Y-39779306D01*
X110185286Y-39685769D01*
X110420407Y-39639000D01*
X111139593Y-39639000D01*
X111374714Y-39685769D01*
X111374714Y-39685769D01*
G37*
G36*
X118846160Y-35284368D02*
X118846162Y-35284369D01*
X118846163Y-35284369D01*
X118960514Y-35331735D01*
X119155726Y-35412594D01*
X119434327Y-35598749D01*
X119671251Y-35835673D01*
X119857406Y-36114274D01*
X119985632Y-36423840D01*
X120051000Y-36752465D01*
X120051000Y-37087535D01*
X119985632Y-37416160D01*
X119857406Y-37725726D01*
X119671251Y-38004327D01*
X119434327Y-38241251D01*
X119155726Y-38427406D01*
X118960514Y-38508265D01*
X118846163Y-38555631D01*
X118846162Y-38555631D01*
X118846160Y-38555632D01*
X118517535Y-38621000D01*
X118182465Y-38621000D01*
X117853840Y-38555632D01*
X117853838Y-38555631D01*
X117853837Y-38555631D01*
X117739486Y-38508265D01*
X117544274Y-38427406D01*
X117265673Y-38241251D01*
X117028749Y-38004327D01*
X116842594Y-37725726D01*
X116714368Y-37416160D01*
X116649000Y-37087535D01*
X116649000Y-36752465D01*
X116714368Y-36423840D01*
X116842594Y-36114274D01*
X117028749Y-35835673D01*
X117265673Y-35598749D01*
X117544274Y-35412594D01*
X117739486Y-35331735D01*
X117853837Y-35284369D01*
X117853838Y-35284369D01*
X117853840Y-35284368D01*
X118182465Y-35219000D01*
X118517535Y-35219000D01*
X118846160Y-35284368D01*
X118846160Y-35284368D01*
G37*
G36*
X99076160Y-35054368D02*
X99076162Y-35054369D01*
X99076163Y-35054369D01*
X99190514Y-35101735D01*
X99385726Y-35182594D01*
X99664327Y-35368749D01*
X99901251Y-35605673D01*
X100087406Y-35884274D01*
X100215632Y-36193840D01*
X100281000Y-36522465D01*
X100281000Y-36857535D01*
X100215632Y-37186160D01*
X100087406Y-37495726D01*
X99901251Y-37774327D01*
X99664327Y-38011251D01*
X99385726Y-38197406D01*
X99190514Y-38278265D01*
X99076163Y-38325631D01*
X99076162Y-38325631D01*
X99076160Y-38325632D01*
X98747535Y-38391000D01*
X98412465Y-38391000D01*
X98083840Y-38325632D01*
X98083838Y-38325631D01*
X98083837Y-38325631D01*
X97969486Y-38278265D01*
X97774274Y-38197406D01*
X97495673Y-38011251D01*
X97258749Y-37774327D01*
X97072594Y-37495726D01*
X96944368Y-37186160D01*
X96879000Y-36857535D01*
X96879000Y-36522465D01*
X96944368Y-36193840D01*
X97072594Y-35884274D01*
X97258749Y-35605673D01*
X97495673Y-35368749D01*
X97774274Y-35182594D01*
X97969486Y-35101735D01*
X98083837Y-35054369D01*
X98083838Y-35054369D01*
X98083840Y-35054368D01*
X98412465Y-34989000D01*
X98747535Y-34989000D01*
X99076160Y-35054368D01*
X99076160Y-35054368D01*
G37*
G36*
X111374714Y-19125769D02*
X111844958Y-19219306D01*
X112509397Y-19494525D01*
X113107377Y-19894083D01*
X113615917Y-20402623D01*
X114015475Y-21000603D01*
X114290694Y-21665042D01*
X114431000Y-22370408D01*
X114431000Y-23089592D01*
X114290694Y-23794958D01*
X114015475Y-24459397D01*
X113615917Y-25057377D01*
X113107377Y-25565917D01*
X112509397Y-25965475D01*
X111844958Y-26240694D01*
X111374714Y-26334231D01*
X111139593Y-26381000D01*
X110420407Y-26381000D01*
X110185286Y-26334231D01*
X109715042Y-26240694D01*
X109050603Y-25965475D01*
X108452623Y-25565917D01*
X107944083Y-25057377D01*
X107544525Y-24459397D01*
X107269306Y-23794958D01*
X107129000Y-23089592D01*
X107129000Y-22370408D01*
X107269306Y-21665042D01*
X107544525Y-21000603D01*
X107944083Y-20402623D01*
X108452623Y-19894083D01*
X109050603Y-19494525D01*
X109715042Y-19219306D01*
X110185286Y-19125769D01*
X110420407Y-19079000D01*
X111139593Y-19079000D01*
X111374714Y-19125769D01*
X111374714Y-19125769D01*
G37*
G36*
X91574714Y-19115769D02*
X92044958Y-19209306D01*
X92709397Y-19484525D01*
X93307377Y-19884083D01*
X93815917Y-20392623D01*
X94215475Y-20990603D01*
X94490694Y-21655042D01*
X94631000Y-22360408D01*
X94631000Y-23079592D01*
X94490694Y-23784958D01*
X94215475Y-24449397D01*
X93815917Y-25047377D01*
X93307377Y-25555917D01*
X92709397Y-25955475D01*
X92044958Y-26230694D01*
X91574714Y-26324231D01*
X91339593Y-26371000D01*
X90620407Y-26371000D01*
X90385286Y-26324231D01*
X89915042Y-26230694D01*
X89250603Y-25955475D01*
X88652623Y-25555917D01*
X88144083Y-25047377D01*
X87744525Y-24449397D01*
X87469306Y-23784958D01*
X87329000Y-23079592D01*
X87329000Y-22360408D01*
X87469306Y-21655042D01*
X87744525Y-20990603D01*
X88144083Y-20392623D01*
X88652623Y-19884083D01*
X89250603Y-19484525D01*
X89915042Y-19209306D01*
X90385286Y-19115769D01*
X90620407Y-19069000D01*
X91339593Y-19069000D01*
X91574714Y-19115769D01*
X91574714Y-19115769D01*
G37*
G36*
X118896160Y-14734368D02*
X118896162Y-14734369D01*
X118896163Y-14734369D01*
X119010514Y-14781735D01*
X119205726Y-14862594D01*
X119484327Y-15048749D01*
X119721251Y-15285673D01*
X119907406Y-15564274D01*
X120035632Y-15873840D01*
X120101000Y-16202465D01*
X120101000Y-16537535D01*
X120035632Y-16866160D01*
X119907406Y-17175726D01*
X119721251Y-17454327D01*
X119484327Y-17691251D01*
X119205726Y-17877406D01*
X119010514Y-17958265D01*
X118896163Y-18005631D01*
X118896162Y-18005631D01*
X118896160Y-18005632D01*
X118567535Y-18071000D01*
X118232465Y-18071000D01*
X117903840Y-18005632D01*
X117903838Y-18005631D01*
X117903837Y-18005631D01*
X117789486Y-17958265D01*
X117594274Y-17877406D01*
X117315673Y-17691251D01*
X117078749Y-17454327D01*
X116892594Y-17175726D01*
X116764368Y-16866160D01*
X116699000Y-16537535D01*
X116699000Y-16202465D01*
X116764368Y-15873840D01*
X116892594Y-15564274D01*
X117078749Y-15285673D01*
X117315673Y-15048749D01*
X117594274Y-14862594D01*
X117789486Y-14781735D01*
X117903837Y-14734369D01*
X117903838Y-14734369D01*
X117903840Y-14734368D01*
X118232465Y-14669000D01*
X118567535Y-14669000D01*
X118896160Y-14734368D01*
X118896160Y-14734368D01*
G37*
G36*
X99086160Y-14734368D02*
X99086162Y-14734369D01*
X99086163Y-14734369D01*
X99200514Y-14781735D01*
X99395726Y-14862594D01*
X99674327Y-15048749D01*
X99911251Y-15285673D01*
X100097406Y-15564274D01*
X100225632Y-15873840D01*
X100291000Y-16202465D01*
X100291000Y-16537535D01*
X100225632Y-16866160D01*
X100097406Y-17175726D01*
X99911251Y-17454327D01*
X99674327Y-17691251D01*
X99395726Y-17877406D01*
X99200514Y-17958265D01*
X99086163Y-18005631D01*
X99086162Y-18005631D01*
X99086160Y-18005632D01*
X98757535Y-18071000D01*
X98422465Y-18071000D01*
X98093840Y-18005632D01*
X98093838Y-18005631D01*
X98093837Y-18005631D01*
X97979486Y-17958265D01*
X97784274Y-17877406D01*
X97505673Y-17691251D01*
X97268749Y-17454327D01*
X97082594Y-17175726D01*
X96954368Y-16866160D01*
X96889000Y-16537535D01*
X96889000Y-16202465D01*
X96954368Y-15873840D01*
X97082594Y-15564274D01*
X97268749Y-15285673D01*
X97505673Y-15048749D01*
X97784274Y-14862594D01*
X97979486Y-14781735D01*
X98093837Y-14734369D01*
X98093838Y-14734369D01*
X98093840Y-14734368D01*
X98422465Y-14669000D01*
X98757535Y-14669000D01*
X99086160Y-14734368D01*
X99086160Y-14734368D01*
G37*
G36*
X89046160Y-454368D02*
X89046162Y-454369D01*
X89046163Y-454369D01*
X89160514Y-501735D01*
X89355726Y-582594D01*
X89634327Y-768749D01*
X89871251Y-1005673D01*
X90057406Y-1284274D01*
X90185632Y-1593840D01*
X90251000Y-1922465D01*
X90251000Y-2257535D01*
X90185632Y-2586160D01*
X90057406Y-2895726D01*
X89871251Y-3174327D01*
X89634327Y-3411251D01*
X89355726Y-3597406D01*
X89160514Y-3678265D01*
X89046163Y-3725631D01*
X89046162Y-3725631D01*
X89046160Y-3725632D01*
X88717535Y-3791000D01*
X88382465Y-3791000D01*
X88053840Y-3725632D01*
X88053838Y-3725631D01*
X88053837Y-3725631D01*
X87939486Y-3678265D01*
X87744274Y-3597406D01*
X87465673Y-3411251D01*
X87228749Y-3174327D01*
X87042594Y-2895726D01*
X86914368Y-2586160D01*
X86849000Y-2257535D01*
X86849000Y-1922465D01*
X86914368Y-1593840D01*
X87042594Y-1284274D01*
X87228749Y-1005673D01*
X87465673Y-768749D01*
X87744274Y-582594D01*
X87939486Y-501735D01*
X88053837Y-454369D01*
X88053838Y-454369D01*
X88053840Y-454368D01*
X88382465Y-389000D01*
X88717535Y-389000D01*
X89046160Y-454368D01*
X89046160Y-454368D01*
G37*
M02*
