0
SECTION
2
HEADER
9
$INSUNITS
70
4
9
$ACADVER
1
AC1014
9
$HANDSEED
5
FFFF
0
ENDSEC
0
SECTION
2
TABLES
0
TABLE
2
VPORT
5
8
100
AcDbSymbolTable
0
ENDTAB
0
TABLE
2
LTYPE
5
5
100
AcDbSymbolTable
0
LTYPE
5
14
100
AcDbSymbolTableRecord
100
AcDbLinetypeTableRecord
2
BYBLOCK
70
0
0
LTYPE
5
15
100
AcDbSymbolTableRecord
100
AcDbLinetypeTableRecord
2
BYLAYER
70
0
0
ENDTAB
0
TABLE
2
LAYER
5
2
100
AcDbSymbolTable
70
2
0
LAYER
5
50
100
AcDbSymbolTableRecord
100
AcDbLayerTableRecord
2
0
70
0
6
CONTINUOUS
0
ENDTAB
0
TABLE
2
STYLE
5
3
100
AcDbSymbolTable
70
1
0
STYLE
5
11
100
AcDbSymbolTableRecord
100
AcDbTextStyleTableRecord
2
STANDARD
70
0
0
ENDTAB
0
TABLE
2
VIEW
5
6
100
AcDbSymbolTable
70
0
0
ENDTAB
0
TABLE
2
UCS
5
7
100
AcDbSymbolTable
70
0
0
ENDTAB
0
TABLE
2
APPID
5
9
100
AcDbSymbolTable
70
2
0
APPID
5
12
100
AcDbSymbolTableRecord
100
AcDbRegAppTableRecord
2
ACAD
70
0
0
ENDTAB
0
TABLE
2
DIMSTYLE
5
A
100
AcDbSymbolTable
70
1
0
ENDTAB
0
TABLE
2
BLOCK_RECORD
5
1
100
AcDbSymbolTable
70
1
0
BLOCK_RECORD
5
1F
100
AcDbSymbolTableRecord
100
AcDbBlockTableRecord
2
*MODEL_SPACE
0
BLOCK_RECORD
5
1B
100
AcDbSymbolTableRecord
100
AcDbBlockTableRecord
2
*PAPER_SPACE
0
ENDTAB
0
ENDSEC
0
SECTION
2
BLOCKS
0
BLOCK
5
20
100
AcDbEntity
100
AcDbBlockBegin
2
*MODEL_SPACE
0
ENDBLK
5
21
100
AcDbEntity
100
AcDbBlockEnd
0
BLOCK
5
1C
100
AcDbEntity
100
AcDbBlockBegin
2
*PAPER_SPACE
0
ENDBLK
5
1D
100
AcDbEntity
100
AcDbBlockEnd
0
ENDSEC
0
SECTION
2
ENTITIES
0
CIRCLE
5
100
100
AcDbEntity
8
0
100
AcDbCircle
10
-37.055902130178531
20
-409.07361108050975
30
-7.1054273576010019e-14
40
3.0500000000000016
210
-0
220
5.5511151231257827e-17
230
1
0
CIRCLE
5
101
100
AcDbEntity
8
0
100
AcDbCircle
10
-37.055902130178531
20
-422.83760222776044
30
0
40
3.0500000000000016
210
-0
220
5.5511151231257827e-17
230
1
0
LWPOLYLINE
5
102
100
AcDbEntity
8
0
100
AcDbPolyline
90
4
70
1
43
0.0
10
-69.965240768124232
20
-425.32004054522167
10
-69.965240768124232
20
-420.35516391029921
42
0.48986302579336444
10
-76.365240768124238
20
-420.35516391029921
10
-76.365240768124266
20
-425.32004054522179
42
0.48986302579334423
0
CIRCLE
5
103
100
AcDbEntity
8
0
100
AcDbCircle
10
-135.31890744302333
20
-415.95560665413518
30
0
40
3.0499999999999972
210
0
220
-0
230
1
0
LWPOLYLINE
5
104
100
AcDbEntity
8
0
100
AcDbPolyline
90
4
70
1
43
0.0
10
-209.96524076812423
20
-425.32004054522167
10
-209.96524076812423
20
-420.35516391029921
42
0.48986302579336283
10
-216.36524076812421
20
-420.35516391029921
10
-216.36524076812429
20
-425.32004054522179
42
0.48986302579334462
0
LWPOLYLINE
5
105
100
AcDbEntity
8
0
100
AcDbPolyline
90
4
70
1
43
0.0
10
-341.06187205709
20
-429.20560665413518
10
-341.06187205709
20
-402.70560665413512
10
-386.56187205708994
20
-402.70560665413512
10
-386.56187205708994
20
-429.20560665413518
0
LWPOLYLINE
5
106
100
AcDbEntity
8
0
100
AcDbPolyline
90
4
70
1
43
0.0
10
-313.72659446382249
20
-429.20560665413518
10
-268.22659446382249
20
-429.20560665413518
10
-268.22659446382249
20
-402.70560665413512
10
-313.72659446382249
20
-402.70560665413512
0
CIRCLE
5
107
100
AcDbEntity
8
0
100
AcDbCircle
10
-181.98557410968999
20
-415.95560665413518
30
0
40
3.0499999999999972
210
0
220
-0
230
1
0
LWPOLYLINE
5
108
100
AcDbEntity
8
0
100
AcDbPolyline
90
4
70
1
43
0.0
10
-123.0319074347909
20
-406.59117276304846
42
-0.48986302579334562
10
-116.63190743479092
20
-406.59117276304846
10
-116.63190743479093
20
-411.55604939797104
42
-0.48986302579335067
10
-123.0319074347909
20
-411.55604939797104
0
LWPOLYLINE
5
109
100
AcDbEntity
8
0
100
AcDbPolyline
90
4
70
1
43
0.0
10
-76.365240768124238
20
-406.59117276304846
42
-0.48986302579334562
10
-69.965240768124261
20
-406.59117276304846
10
-69.965240768124289
20
-411.55604939797104
42
-0.48986302579335067
10
-76.365240768124224
20
-411.55604939797104
0
CIRCLE
5
110
100
AcDbEntity
8
0
100
AcDbCircle
10
-88.652240776356663
20
-415.95560665413518
30
0
40
3.0499999999999972
210
0
220
-0
230
1
0
LWPOLYLINE
5
111
100
AcDbEntity
8
0
100
AcDbPolyline
90
4
70
1
43
0.0
10
-163.29857410145758
20
-425.32004054522167
10
-163.29857410145758
20
-420.35516391029921
42
0.48986302579337304
10
-169.69857410145755
20
-420.35516391029921
10
-169.69857410145761
20
-425.32004054522179
42
0.48986302579333602
0
LWPOLYLINE
5
112
100
AcDbEntity
8
0
100
AcDbPolyline
90
4
70
1
43
0.0
10
-216.36524076812424
20
-406.59117276304841
10
-216.36524076812424
20
-411.55604939797104
42
0.48986302579335156
10
-209.96524076812423
20
-411.55604939797109
10
-209.96524076812426
20
-406.59117276304846
42
0.48986302579334134
0
CIRCLE
5
113
100
AcDbEntity
8
0
100
AcDbCircle
10
-411.35809654667935
20
-416.00451176409103
30
0
40
3.2000000000000033
210
0
220
-5.5511151231257815e-17
230
1
0
CIRCLE
5
114
100
AcDbEntity
8
0
100
AcDbCircle
10
-228.65224077635668
20
-415.95560665413518
30
0
40
3.0499999999999972
210
0
220
-0
230
1
0
LWPOLYLINE
5
115
100
AcDbEntity
8
0
100
AcDbPolyline
90
4
70
1
43
0.0
10
-169.69857410145752
20
-406.59117276304846
42
-0.4898630257933525
10
-163.2985741014576
20
-406.59117276304846
10
-163.29857410145763
20
-411.55604939797104
42
-0.48986302579334134
10
-169.69857410145752
20
-411.55604939797104
0
LWPOLYLINE
5
116
100
AcDbEntity
8
0
100
AcDbPolyline
90
4
70
1
43
0.0
10
-116.6319074347909
20
-425.32004054522167
10
-116.6319074347909
20
-420.35516391029921
42
0.48986302579336444
10
-123.03190743479091
20
-420.35516391029921
10
-123.03190743479094
20
-425.32004054522179
42
0.48986302579334462
0
CIRCLE
5
117
100
AcDbEntity
8
0
100
AcDbCircle
10
-20.903042862560426
20
-415.95560665413518
30
0
40
4.9999999999999911
210
0
220
0
230
1
0
LWPOLYLINE
5
118
100
AcDbEntity
8
0
100
AcDbPolyline
90
64
70
1
43
0.0
10
-400.12499999999994
20
-436.79797042690075
10
-416.125
20
-436.79797042690069
10
-416.125
20
-441.79797042690069
10
-437.25
20
-441.79797042690069
10
-437.25
20
-426.50451176409098
10
-432.25
20
-426.50451176409098
10
-432.25
20
-410.50451176409103
10
-437.25
20
-410.50451176409103
10
-437.25
20
-395.21105310128149
10
5
20
-395.21105310128149
10
5
20
-410.50451176409103
10
0
20
-410.50451176409103
10
0
20
-426.50451176409098
10
5
20
-426.50451176409103
10
5
20
-441.79797042690069
10
-16.125000000000043
20
-441.79797042690075
10
-16.125000000000043
20
-436.79797042690075
10
-32.125000000000057
20
-436.79797042690069
10
-32.125000000000057
20
-441.79797042690069
10
-48.125000000000036
20
-441.79797042690075
10
-48.125000000000036
20
-436.79797042690075
10
-64.125000000000057
20
-436.79797042690069
10
-64.125000000000057
20
-441.79797042690069
10
-80.125000000000028
20
-441.79797042690075
10
-80.125000000000028
20
-436.79797042690075
10
-96.125000000000043
20
-436.79797042690069
10
-96.125000000000043
20
-441.79797042690069
10
-112.12500000000003
20
-441.79797042690075
10
-112.12500000000003
20
-436.79797042690075
10
-128.12500000000003
20
-436.79797042690069
10
-128.12500000000003
20
-441.79797042690069
10
-144.125
20
-441.79797042690075
10
-144.125
20
-436.79797042690075
10
-160.12500000000003
20
-436.79797042690069
10
-160.12500000000003
20
-441.79797042690069
10
-176.125
20
-441.79797042690075
10
-176.125
20
-436.79797042690075
10
-192.12500000000003
20
-436.79797042690069
10
-192.12500000000003
20
-441.79797042690069
10
-208.125
20
-441.79797042690075
10
-208.125
20
-436.79797042690075
10
-224.125
20
-436.79797042690069
10
-224.125
20
-441.79797042690069
10
-240.125
20
-441.79797042690075
10
-240.125
20
-436.79797042690075
10
-256.125
20
-436.79797042690069
10
-256.125
20
-441.79797042690069
10
-272.125
20
-441.79797042690075
10
-272.125
20
-436.79797042690075
10
-288.125
20
-436.79797042690069
10
-288.125
20
-441.79797042690069
10
-304.125
20
-441.79797042690075
10
-304.125
20
-436.79797042690075
10
-320.125
20
-436.79797042690069
10
-320.125
20
-441.79797042690069
10
-336.125
20
-441.79797042690075
10
-336.125
20
-436.79797042690075
10
-352.125
20
-436.79797042690069
10
-352.125
20
-441.79797042690069
10
-368.125
20
-441.79797042690075
10
-368.125
20
-436.79797042690075
10
-384.12499999999994
20
-436.79797042690069
10
-384.12499999999994
20
-441.79797042690069
10
-400.12499999999994
20
-441.79797042690075
0
ENDSEC
0
SECTION
2
OBJECTS
0
DICTIONARY
5
C
100
AcDbDictionary
3
ACAD_GROUP
350
D
3
ACAD_MLINESTYLE
350
17
0
DICTIONARY
5
D
100
AcDbDictionary
0
DICTIONARY
5
1A
330
C
100
AcDbDictionary
0
DICTIONARY
5
17
100
AcDbDictionary
0
ENDSEC
0
EOF
