0
SECTION
2
HEADER
9
$INSUNITS
70
4
9
$ACADVER
1
AC1014
9
$HANDSEED
5
FFFF
0
ENDSEC
0
SECTION
2
TABLES
0
TABLE
2
VPORT
5
8
100
AcDbSymbolTable
0
ENDTAB
0
TABLE
2
LTYPE
5
5
100
AcDbSymbolTable
0
LTYPE
5
14
100
AcDbSymbolTableRecord
100
AcDbLinetypeTableRecord
2
BYBLOCK
70
0
0
LTYPE
5
15
100
AcDbSymbolTableRecord
100
AcDbLinetypeTableRecord
2
BYLAYER
70
0
0
ENDTAB
0
TABLE
2
LAYER
5
2
100
AcDbSymbolTable
70
2
0
LAYER
5
50
100
AcDbSymbolTableRecord
100
AcDbLayerTableRecord
2
0
70
0
6
CONTINUOUS
0
ENDTAB
0
TABLE
2
STYLE
5
3
100
AcDbSymbolTable
70
1
0
STYLE
5
11
100
AcDbSymbolTableRecord
100
AcDbTextStyleTableRecord
2
STANDARD
70
0
0
ENDTAB
0
TABLE
2
VIEW
5
6
100
AcDbSymbolTable
70
0
0
ENDTAB
0
TABLE
2
UCS
5
7
100
AcDbSymbolTable
70
0
0
ENDTAB
0
TABLE
2
APPID
5
9
100
AcDbSymbolTable
70
2
0
APPID
5
12
100
AcDbSymbolTableRecord
100
AcDbRegAppTableRecord
2
ACAD
70
0
0
ENDTAB
0
TABLE
2
DIMSTYLE
5
A
100
AcDbSymbolTable
70
1
0
ENDTAB
0
TABLE
2
BLOCK_RECORD
5
1
100
AcDbSymbolTable
70
1
0
BLOCK_RECORD
5
1F
100
AcDbSymbolTableRecord
100
AcDbBlockTableRecord
2
*MODEL_SPACE
0
BLOCK_RECORD
5
1B
100
AcDbSymbolTableRecord
100
AcDbBlockTableRecord
2
*PAPER_SPACE
0
ENDTAB
0
ENDSEC
0
SECTION
2
BLOCKS
0
BLOCK
5
20
100
AcDbEntity
100
AcDbBlockBegin
2
*MODEL_SPACE
0
ENDBLK
5
21
100
AcDbEntity
100
AcDbBlockEnd
0
BLOCK
5
1C
100
AcDbEntity
100
AcDbBlockBegin
2
*PAPER_SPACE
0
ENDBLK
5
1D
100
AcDbEntity
100
AcDbBlockEnd
0
ENDSEC
0
SECTION
2
ENTITIES
0
LWPOLYLINE
5
100
100
AcDbEntity
8
0
100
AcDbPolyline
90
49
70
1
43
0.0
10
-350.70142370132203
20
78.373747347241377
10
-350.70142370132203
20
98.347487994110097
10
-356.72460046694886
20
108.77993617514375
10
-361.05472748587101
20
106.27993617514366
10
-369.05472748587124
20
120.13634263569458
10
-364.72460046694903
20
122.63634263569465
10
-372.72460046694925
20
136.49274909624555
10
-377.05472748587141
20
133.99274909624549
10
-385.05472748587158
20
147.8491555567964
10
-502.54705603371377
20
80.014928041981648
10
-500.07000799820833
20
75.671549700179014
10
-513.29157974743327
20
68.038071691653542
10
-515.79157974743373
20
72.368198710576394
10
-529.64798620798456
20
64.368198710576067
10
-527.1479862079841
20
60.038071691653215
10
-540.39250992170412
20
52.39134236024821
10
-534.58166217343296
20
42.326658825196041
10
-530.25153515451086
20
44.826658825196226
10
-522.25153515451029
20
30.970252364645535
10
-526.58166217343239
20
28.470252364645351
10
-517.59217664781522
20
12.900006700372657
10
-513.26204962889301
20
12.900006700372657
10
-513.26204962889301
20
17.900006700372657
10
-490.48173666510763
20
17.900006700372657
10
-490.48173666510763
20
12.900006700372657
10
-474.48173666510752
20
12.900006700372657
10
-474.48173666510752
20
17.900006700372657
10
-458.48173666510763
20
17.900006700372657
10
-458.48173666510763
20
12.900006700372657
10
-442.48173666510752
20
12.900006700372657
10
-442.48173666510752
20
17.900006700372657
10
-426.48173666510758
20
17.900006700372657
10
-426.48173666510758
20
12.900006700372657
10
-410.48173666510752
20
12.900006700372657
10
-410.48173666510752
20
17.900006700372657
10
-394.48173666510752
20
17.900006700372657
10
-394.48173666510752
20
12.900006700372657
10
-378.48173666510746
20
12.900006700372657
10
-378.48173666510746
20
17.900006700372657
10
-355.70142370132203
20
17.900006700372657
10
-355.70142370132203
20
12.900006700372657
10
-350.70142370132203
20
12.900006700372657
10
-350.70142370132203
20
30.373747347241355
10
-355.70142370132203
20
30.373747347241355
10
-355.70142370132203
20
46.37374734724137
10
-350.70142370132203
20
46.37374734724137
10
-350.70142370132203
20
62.373747347241363
10
-355.70142370132203
20
62.373747347241363
10
-355.70142370132203
20
78.373747347241377
0
CIRCLE
5
101
100
AcDbEntity
8
0
100
AcDbCircle
10
-383.78389261047033
20
132.64800498457163
30
0
40
2.7499999999999858
210
0
220
-0
230
1
0
CIRCLE
5
102
100
AcDbEntity
8
0
100
AcDbCircle
10
-489.87200457406146
20
71.398004984573049
30
0
40
2.7499999999999858
210
0
220
-0
230
1
0
ENDSEC
0
SECTION
2
OBJECTS
0
DICTIONARY
5
C
100
AcDbDictionary
3
ACAD_GROUP
350
D
3
ACAD_MLINESTYLE
350
17
0
DICTIONARY
5
D
100
AcDbDictionary
0
DICTIONARY
5
1A
330
C
100
AcDbDictionary
0
DICTIONARY
5
17
100
AcDbDictionary
0
ENDSEC
0
EOF
