G04 #@! TF.GenerationSoftware,KiCad,Pcbnew,(5.1.9)-1*
G04 #@! TF.CreationDate,2021-03-20T12:47:07+00:00*
G04 #@! TF.ProjectId,board v2,626f6172-6420-4763-922e-6b696361645f,rev?*
G04 #@! TF.SameCoordinates,Original*
G04 #@! TF.FileFunction,Soldermask,Bot*
G04 #@! TF.FilePolarity,Negative*
%FSLAX46Y46*%
G04 Gerber Fmt 4.6, Leading zero omitted, Abs format (unit mm)*
G04 Created by KiCad (PCBNEW (5.1.9)-1) date 2021-03-20 12:47:07*
%MOMM*%
%LPD*%
G01*
G04 APERTURE LIST*
G04 #@! TA.AperFunction,Profile*
%ADD10C,0.150000*%
G04 #@! TD*
%ADD11C,2.200000*%
%ADD12O,2.600000X2.600000*%
%ADD13C,2.400000*%
%ADD14O,2.127200X2.127200*%
%ADD15C,1.700000*%
%ADD16C,1.840000*%
%ADD17C,2.000000*%
G04 APERTURE END LIST*
D10*
X57658000Y-12700000D02*
X17780000Y-12700000D01*
X57658000Y-112268000D02*
X57658000Y-12700000D01*
X17780000Y-112268000D02*
X57658000Y-112268000D01*
X17780000Y-12700000D02*
X17780000Y-112268000D01*
G04 #@! TO.C,U4*
G36*
G01*
X39866000Y-98052000D02*
X39866000Y-99852000D01*
G75*
G02*
X39666000Y-100052000I-200000J0D01*
G01*
X38566000Y-100052000D01*
G75*
G02*
X38366000Y-99852000I0J200000D01*
G01*
X38366000Y-98052000D01*
G75*
G02*
X38566000Y-97852000I200000J0D01*
G01*
X39666000Y-97852000D01*
G75*
G02*
X39866000Y-98052000I0J-200000D01*
G01*
G37*
G36*
G01*
X37326000Y-98227000D02*
X37326000Y-99677000D01*
G75*
G02*
X36951000Y-100052000I-375000J0D01*
G01*
X36201000Y-100052000D01*
G75*
G02*
X35826000Y-99677000I0J375000D01*
G01*
X35826000Y-98227000D01*
G75*
G02*
X36201000Y-97852000I375000J0D01*
G01*
X36951000Y-97852000D01*
G75*
G02*
X37326000Y-98227000I0J-375000D01*
G01*
G37*
G36*
G01*
X38596000Y-96157000D02*
X38596000Y-97607000D01*
G75*
G02*
X38221000Y-97982000I-375000J0D01*
G01*
X37471000Y-97982000D01*
G75*
G02*
X37096000Y-97607000I0J375000D01*
G01*
X37096000Y-96157000D01*
G75*
G02*
X37471000Y-95782000I375000J0D01*
G01*
X38221000Y-95782000D01*
G75*
G02*
X38596000Y-96157000I0J-375000D01*
G01*
G37*
G04 #@! TD*
G04 #@! TO.C,C1*
G36*
G01*
X34040000Y-69436955D02*
X34040000Y-70563045D01*
G75*
G02*
X33703045Y-70900000I-336955J0D01*
G01*
X32826955Y-70900000D01*
G75*
G02*
X32490000Y-70563045I0J336955D01*
G01*
X32490000Y-69436955D01*
G75*
G02*
X32826955Y-69100000I336955J0D01*
G01*
X33703045Y-69100000D01*
G75*
G02*
X34040000Y-69436955I0J-336955D01*
G01*
G37*
G36*
G01*
X36090000Y-69436955D02*
X36090000Y-70563045D01*
G75*
G02*
X35753045Y-70900000I-336955J0D01*
G01*
X34876955Y-70900000D01*
G75*
G02*
X34540000Y-70563045I0J336955D01*
G01*
X34540000Y-69436955D01*
G75*
G02*
X34876955Y-69100000I336955J0D01*
G01*
X35753045Y-69100000D01*
G75*
G02*
X36090000Y-69436955I0J-336955D01*
G01*
G37*
G04 #@! TD*
G04 #@! TO.C,C2*
G36*
G01*
X21310000Y-77943045D02*
X21310000Y-76816955D01*
G75*
G02*
X21646955Y-76480000I336955J0D01*
G01*
X22523045Y-76480000D01*
G75*
G02*
X22860000Y-76816955I0J-336955D01*
G01*
X22860000Y-77943045D01*
G75*
G02*
X22523045Y-78280000I-336955J0D01*
G01*
X21646955Y-78280000D01*
G75*
G02*
X21310000Y-77943045I0J336955D01*
G01*
G37*
G36*
G01*
X19260000Y-77943045D02*
X19260000Y-76816955D01*
G75*
G02*
X19596955Y-76480000I336955J0D01*
G01*
X20473045Y-76480000D01*
G75*
G02*
X20810000Y-76816955I0J-336955D01*
G01*
X20810000Y-77943045D01*
G75*
G02*
X20473045Y-78280000I-336955J0D01*
G01*
X19596955Y-78280000D01*
G75*
G02*
X19260000Y-77943045I0J336955D01*
G01*
G37*
G04 #@! TD*
G04 #@! TO.C,C3*
G36*
G01*
X34104000Y-50638955D02*
X34104000Y-51765045D01*
G75*
G02*
X33767045Y-52102000I-336955J0D01*
G01*
X32890955Y-52102000D01*
G75*
G02*
X32554000Y-51765045I0J336955D01*
G01*
X32554000Y-50638955D01*
G75*
G02*
X32890955Y-50302000I336955J0D01*
G01*
X33767045Y-50302000D01*
G75*
G02*
X34104000Y-50638955I0J-336955D01*
G01*
G37*
G36*
G01*
X36154000Y-50638955D02*
X36154000Y-51765045D01*
G75*
G02*
X35817045Y-52102000I-336955J0D01*
G01*
X34940955Y-52102000D01*
G75*
G02*
X34604000Y-51765045I0J336955D01*
G01*
X34604000Y-50638955D01*
G75*
G02*
X34940955Y-50302000I336955J0D01*
G01*
X35817045Y-50302000D01*
G75*
G02*
X36154000Y-50638955I0J-336955D01*
G01*
G37*
G04 #@! TD*
G04 #@! TO.C,C4*
G36*
G01*
X19600000Y-61123045D02*
X19600000Y-59996955D01*
G75*
G02*
X19936955Y-59660000I336955J0D01*
G01*
X20813045Y-59660000D01*
G75*
G02*
X21150000Y-59996955I0J-336955D01*
G01*
X21150000Y-61123045D01*
G75*
G02*
X20813045Y-61460000I-336955J0D01*
G01*
X19936955Y-61460000D01*
G75*
G02*
X19600000Y-61123045I0J336955D01*
G01*
G37*
G36*
G01*
X21650000Y-61123045D02*
X21650000Y-59996955D01*
G75*
G02*
X21986955Y-59660000I336955J0D01*
G01*
X22863045Y-59660000D01*
G75*
G02*
X23200000Y-59996955I0J-336955D01*
G01*
X23200000Y-61123045D01*
G75*
G02*
X22863045Y-61460000I-336955J0D01*
G01*
X21986955Y-61460000D01*
G75*
G02*
X21650000Y-61123045I0J336955D01*
G01*
G37*
G04 #@! TD*
G04 #@! TO.C,C5*
G36*
G01*
X34050000Y-78186955D02*
X34050000Y-79313045D01*
G75*
G02*
X33713045Y-79650000I-336955J0D01*
G01*
X32836955Y-79650000D01*
G75*
G02*
X32500000Y-79313045I0J336955D01*
G01*
X32500000Y-78186955D01*
G75*
G02*
X32836955Y-77850000I336955J0D01*
G01*
X33713045Y-77850000D01*
G75*
G02*
X34050000Y-78186955I0J-336955D01*
G01*
G37*
G36*
G01*
X36100000Y-78186955D02*
X36100000Y-79313045D01*
G75*
G02*
X35763045Y-79650000I-336955J0D01*
G01*
X34886955Y-79650000D01*
G75*
G02*
X34550000Y-79313045I0J336955D01*
G01*
X34550000Y-78186955D01*
G75*
G02*
X34886955Y-77850000I336955J0D01*
G01*
X35763045Y-77850000D01*
G75*
G02*
X36100000Y-78186955I0J-336955D01*
G01*
G37*
G04 #@! TD*
G04 #@! TO.C,C6*
G36*
G01*
X21307000Y-73138045D02*
X21307000Y-72011955D01*
G75*
G02*
X21643955Y-71675000I336955J0D01*
G01*
X22520045Y-71675000D01*
G75*
G02*
X22857000Y-72011955I0J-336955D01*
G01*
X22857000Y-73138045D01*
G75*
G02*
X22520045Y-73475000I-336955J0D01*
G01*
X21643955Y-73475000D01*
G75*
G02*
X21307000Y-73138045I0J336955D01*
G01*
G37*
G36*
G01*
X19257000Y-73138045D02*
X19257000Y-72011955D01*
G75*
G02*
X19593955Y-71675000I336955J0D01*
G01*
X20470045Y-71675000D01*
G75*
G02*
X20807000Y-72011955I0J-336955D01*
G01*
X20807000Y-73138045D01*
G75*
G02*
X20470045Y-73475000I-336955J0D01*
G01*
X19593955Y-73475000D01*
G75*
G02*
X19257000Y-73138045I0J336955D01*
G01*
G37*
G04 #@! TD*
G04 #@! TO.C,C7*
G36*
G01*
X36129000Y-60011955D02*
X36129000Y-61138045D01*
G75*
G02*
X35792045Y-61475000I-336955J0D01*
G01*
X34915955Y-61475000D01*
G75*
G02*
X34579000Y-61138045I0J336955D01*
G01*
X34579000Y-60011955D01*
G75*
G02*
X34915955Y-59675000I336955J0D01*
G01*
X35792045Y-59675000D01*
G75*
G02*
X36129000Y-60011955I0J-336955D01*
G01*
G37*
G36*
G01*
X34079000Y-60011955D02*
X34079000Y-61138045D01*
G75*
G02*
X33742045Y-61475000I-336955J0D01*
G01*
X32865955Y-61475000D01*
G75*
G02*
X32529000Y-61138045I0J336955D01*
G01*
X32529000Y-60011955D01*
G75*
G02*
X32865955Y-59675000I336955J0D01*
G01*
X33742045Y-59675000D01*
G75*
G02*
X34079000Y-60011955I0J-336955D01*
G01*
G37*
G04 #@! TD*
G04 #@! TO.C,C8*
G36*
G01*
X19600000Y-56551045D02*
X19600000Y-55424955D01*
G75*
G02*
X19936955Y-55088000I336955J0D01*
G01*
X20813045Y-55088000D01*
G75*
G02*
X21150000Y-55424955I0J-336955D01*
G01*
X21150000Y-56551045D01*
G75*
G02*
X20813045Y-56888000I-336955J0D01*
G01*
X19936955Y-56888000D01*
G75*
G02*
X19600000Y-56551045I0J336955D01*
G01*
G37*
G36*
G01*
X21650000Y-56551045D02*
X21650000Y-55424955D01*
G75*
G02*
X21986955Y-55088000I336955J0D01*
G01*
X22863045Y-55088000D01*
G75*
G02*
X23200000Y-55424955I0J-336955D01*
G01*
X23200000Y-56551045D01*
G75*
G02*
X22863045Y-56888000I-336955J0D01*
G01*
X21986955Y-56888000D01*
G75*
G02*
X21650000Y-56551045I0J336955D01*
G01*
G37*
G04 #@! TD*
G04 #@! TO.C,C9*
G36*
G01*
X35556000Y-31551045D02*
X35556000Y-30424955D01*
G75*
G02*
X35892955Y-30088000I336955J0D01*
G01*
X36769045Y-30088000D01*
G75*
G02*
X37106000Y-30424955I0J-336955D01*
G01*
X37106000Y-31551045D01*
G75*
G02*
X36769045Y-31888000I-336955J0D01*
G01*
X35892955Y-31888000D01*
G75*
G02*
X35556000Y-31551045I0J336955D01*
G01*
G37*
G36*
G01*
X33506000Y-31551045D02*
X33506000Y-30424955D01*
G75*
G02*
X33842955Y-30088000I336955J0D01*
G01*
X34719045Y-30088000D01*
G75*
G02*
X35056000Y-30424955I0J-336955D01*
G01*
X35056000Y-31551045D01*
G75*
G02*
X34719045Y-31888000I-336955J0D01*
G01*
X33842955Y-31888000D01*
G75*
G02*
X33506000Y-31551045I0J336955D01*
G01*
G37*
G04 #@! TD*
G04 #@! TO.C,C10*
G36*
G01*
X46993000Y-33038045D02*
X46993000Y-31911955D01*
G75*
G02*
X47329955Y-31575000I336955J0D01*
G01*
X48206045Y-31575000D01*
G75*
G02*
X48543000Y-31911955I0J-336955D01*
G01*
X48543000Y-33038045D01*
G75*
G02*
X48206045Y-33375000I-336955J0D01*
G01*
X47329955Y-33375000D01*
G75*
G02*
X46993000Y-33038045I0J336955D01*
G01*
G37*
G36*
G01*
X49043000Y-33038045D02*
X49043000Y-31911955D01*
G75*
G02*
X49379955Y-31575000I336955J0D01*
G01*
X50256045Y-31575000D01*
G75*
G02*
X50593000Y-31911955I0J-336955D01*
G01*
X50593000Y-33038045D01*
G75*
G02*
X50256045Y-33375000I-336955J0D01*
G01*
X49379955Y-33375000D01*
G75*
G02*
X49043000Y-33038045I0J336955D01*
G01*
G37*
G04 #@! TD*
G04 #@! TO.C,C11*
G36*
G01*
X21307000Y-75438045D02*
X21307000Y-74311955D01*
G75*
G02*
X21643955Y-73975000I336955J0D01*
G01*
X22520045Y-73975000D01*
G75*
G02*
X22857000Y-74311955I0J-336955D01*
G01*
X22857000Y-75438045D01*
G75*
G02*
X22520045Y-75775000I-336955J0D01*
G01*
X21643955Y-75775000D01*
G75*
G02*
X21307000Y-75438045I0J336955D01*
G01*
G37*
G36*
G01*
X19257000Y-75438045D02*
X19257000Y-74311955D01*
G75*
G02*
X19593955Y-73975000I336955J0D01*
G01*
X20470045Y-73975000D01*
G75*
G02*
X20807000Y-74311955I0J-336955D01*
G01*
X20807000Y-75438045D01*
G75*
G02*
X20470045Y-75775000I-336955J0D01*
G01*
X19593955Y-75775000D01*
G75*
G02*
X19257000Y-75438045I0J336955D01*
G01*
G37*
G04 #@! TD*
G04 #@! TO.C,C12*
G36*
G01*
X32499000Y-74763045D02*
X32499000Y-73636955D01*
G75*
G02*
X32835955Y-73300000I336955J0D01*
G01*
X33712045Y-73300000D01*
G75*
G02*
X34049000Y-73636955I0J-336955D01*
G01*
X34049000Y-74763045D01*
G75*
G02*
X33712045Y-75100000I-336955J0D01*
G01*
X32835955Y-75100000D01*
G75*
G02*
X32499000Y-74763045I0J336955D01*
G01*
G37*
G36*
G01*
X34549000Y-74763045D02*
X34549000Y-73636955D01*
G75*
G02*
X34885955Y-73300000I336955J0D01*
G01*
X35762045Y-73300000D01*
G75*
G02*
X36099000Y-73636955I0J-336955D01*
G01*
X36099000Y-74763045D01*
G75*
G02*
X35762045Y-75100000I-336955J0D01*
G01*
X34885955Y-75100000D01*
G75*
G02*
X34549000Y-74763045I0J336955D01*
G01*
G37*
G04 #@! TD*
G04 #@! TO.C,C14*
G36*
G01*
X21650000Y-58837045D02*
X21650000Y-57710955D01*
G75*
G02*
X21986955Y-57374000I336955J0D01*
G01*
X22863045Y-57374000D01*
G75*
G02*
X23200000Y-57710955I0J-336955D01*
G01*
X23200000Y-58837045D01*
G75*
G02*
X22863045Y-59174000I-336955J0D01*
G01*
X21986955Y-59174000D01*
G75*
G02*
X21650000Y-58837045I0J336955D01*
G01*
G37*
G36*
G01*
X19600000Y-58837045D02*
X19600000Y-57710955D01*
G75*
G02*
X19936955Y-57374000I336955J0D01*
G01*
X20813045Y-57374000D01*
G75*
G02*
X21150000Y-57710955I0J-336955D01*
G01*
X21150000Y-58837045D01*
G75*
G02*
X20813045Y-59174000I-336955J0D01*
G01*
X19936955Y-59174000D01*
G75*
G02*
X19600000Y-58837045I0J336955D01*
G01*
G37*
G04 #@! TD*
G04 #@! TO.C,C15*
G36*
G01*
X32554000Y-56337045D02*
X32554000Y-55210955D01*
G75*
G02*
X32890955Y-54874000I336955J0D01*
G01*
X33767045Y-54874000D01*
G75*
G02*
X34104000Y-55210955I0J-336955D01*
G01*
X34104000Y-56337045D01*
G75*
G02*
X33767045Y-56674000I-336955J0D01*
G01*
X32890955Y-56674000D01*
G75*
G02*
X32554000Y-56337045I0J336955D01*
G01*
G37*
G36*
G01*
X34604000Y-56337045D02*
X34604000Y-55210955D01*
G75*
G02*
X34940955Y-54874000I336955J0D01*
G01*
X35817045Y-54874000D01*
G75*
G02*
X36154000Y-55210955I0J-336955D01*
G01*
X36154000Y-56337045D01*
G75*
G02*
X35817045Y-56674000I-336955J0D01*
G01*
X34940955Y-56674000D01*
G75*
G02*
X34604000Y-56337045I0J336955D01*
G01*
G37*
G04 #@! TD*
G04 #@! TO.C,C16*
G36*
G01*
X35792000Y-93781045D02*
X35792000Y-92654955D01*
G75*
G02*
X36128955Y-92318000I336955J0D01*
G01*
X37005045Y-92318000D01*
G75*
G02*
X37342000Y-92654955I0J-336955D01*
G01*
X37342000Y-93781045D01*
G75*
G02*
X37005045Y-94118000I-336955J0D01*
G01*
X36128955Y-94118000D01*
G75*
G02*
X35792000Y-93781045I0J336955D01*
G01*
G37*
G36*
G01*
X37842000Y-93781045D02*
X37842000Y-92654955D01*
G75*
G02*
X38178955Y-92318000I336955J0D01*
G01*
X39055045Y-92318000D01*
G75*
G02*
X39392000Y-92654955I0J-336955D01*
G01*
X39392000Y-93781045D01*
G75*
G02*
X39055045Y-94118000I-336955J0D01*
G01*
X38178955Y-94118000D01*
G75*
G02*
X37842000Y-93781045I0J336955D01*
G01*
G37*
G04 #@! TD*
G04 #@! TO.C,D1*
G36*
G01*
X37700000Y-14400000D02*
X37700000Y-16200000D01*
G75*
G02*
X37500000Y-16400000I-200000J0D01*
G01*
X35700000Y-16400000D01*
G75*
G02*
X35500000Y-16200000I0J200000D01*
G01*
X35500000Y-14400000D01*
G75*
G02*
X35700000Y-14200000I200000J0D01*
G01*
X37500000Y-14200000D01*
G75*
G02*
X37700000Y-14400000I0J-200000D01*
G01*
G37*
D11*
X34060000Y-15300000D03*
G04 #@! TD*
G04 #@! TO.C,D2*
X34090000Y-35560000D03*
G36*
G01*
X37730000Y-34660000D02*
X37730000Y-36460000D01*
G75*
G02*
X37530000Y-36660000I-200000J0D01*
G01*
X35730000Y-36660000D01*
G75*
G02*
X35530000Y-36460000I0J200000D01*
G01*
X35530000Y-34660000D01*
G75*
G02*
X35730000Y-34460000I200000J0D01*
G01*
X37530000Y-34460000D01*
G75*
G02*
X37730000Y-34660000I0J-200000D01*
G01*
G37*
G04 #@! TD*
G04 #@! TO.C,D3*
X53900000Y-35810000D03*
G36*
G01*
X57540000Y-34910000D02*
X57540000Y-36710000D01*
G75*
G02*
X57340000Y-36910000I-200000J0D01*
G01*
X55540000Y-36910000D01*
G75*
G02*
X55340000Y-36710000I0J200000D01*
G01*
X55340000Y-34910000D01*
G75*
G02*
X55540000Y-34710000I200000J0D01*
G01*
X57340000Y-34710000D01*
G75*
G02*
X57540000Y-34910000I0J-200000D01*
G01*
G37*
G04 #@! TD*
G04 #@! TO.C,D4*
X53880000Y-15240000D03*
G36*
G01*
X57520000Y-14340000D02*
X57520000Y-16140000D01*
G75*
G02*
X57320000Y-16340000I-200000J0D01*
G01*
X55520000Y-16340000D01*
G75*
G02*
X55320000Y-16140000I0J200000D01*
G01*
X55320000Y-14340000D01*
G75*
G02*
X55520000Y-14140000I200000J0D01*
G01*
X57320000Y-14140000D01*
G75*
G02*
X57520000Y-14340000I0J-200000D01*
G01*
G37*
G04 #@! TD*
D12*
G04 #@! TO.C,D5*
X20066000Y-30226000D03*
G36*
G01*
X31526000Y-29126000D02*
X31526000Y-31326000D01*
G75*
G02*
X31326000Y-31526000I-200000J0D01*
G01*
X29126000Y-31526000D01*
G75*
G02*
X28926000Y-31326000I0J200000D01*
G01*
X28926000Y-29126000D01*
G75*
G02*
X29126000Y-28926000I200000J0D01*
G01*
X31326000Y-28926000D01*
G75*
G02*
X31526000Y-29126000I0J-200000D01*
G01*
G37*
G04 #@! TD*
G04 #@! TO.C,D6*
G36*
G01*
X38960000Y-13350000D02*
X41160000Y-13350000D01*
G75*
G02*
X41360000Y-13550000I0J-200000D01*
G01*
X41360000Y-15750000D01*
G75*
G02*
X41160000Y-15950000I-200000J0D01*
G01*
X38960000Y-15950000D01*
G75*
G02*
X38760000Y-15750000I0J200000D01*
G01*
X38760000Y-13550000D01*
G75*
G02*
X38960000Y-13350000I200000J0D01*
G01*
G37*
X40060000Y-24810000D03*
G04 #@! TD*
D13*
G04 #@! TO.C,F1*
X45600000Y-55200000D03*
X40600000Y-55200000D03*
G04 #@! TD*
G04 #@! TO.C,F2*
X45700000Y-58700000D03*
X40700000Y-58700000D03*
G04 #@! TD*
G04 #@! TO.C,J1*
X42756666Y-86012000D03*
D11*
X42756666Y-96732000D03*
D13*
X42756666Y-94312000D03*
G04 #@! TD*
G04 #@! TO.C,J2*
X22606000Y-94312000D03*
D11*
X22606000Y-96732000D03*
D13*
X22606000Y-86012000D03*
G04 #@! TD*
G04 #@! TO.C,J3*
X22606000Y-110584000D03*
D11*
X22606000Y-99864000D03*
D13*
X22606000Y-102284000D03*
G04 #@! TD*
G04 #@! TO.C,J4*
X42756666Y-102284000D03*
D11*
X42756666Y-99864000D03*
D13*
X42756666Y-110584000D03*
G04 #@! TD*
G04 #@! TO.C,J5*
X32681333Y-94312000D03*
D11*
X32681333Y-96732000D03*
D13*
X32681333Y-86012000D03*
G04 #@! TD*
G04 #@! TO.C,J6*
X52832000Y-86012000D03*
D11*
X52832000Y-96732000D03*
D13*
X52832000Y-94312000D03*
G04 #@! TD*
G04 #@! TO.C,J7*
X32681333Y-102284000D03*
D11*
X32681333Y-99864000D03*
D13*
X32681333Y-110584000D03*
G04 #@! TD*
G04 #@! TO.C,J8*
X52832000Y-110584000D03*
D11*
X52832000Y-99864000D03*
D13*
X52832000Y-102284000D03*
G04 #@! TD*
G04 #@! TO.C,J9*
G36*
G01*
X50036400Y-65363600D02*
X50036400Y-63636400D01*
G75*
G02*
X50236400Y-63436400I200000J0D01*
G01*
X51963600Y-63436400D01*
G75*
G02*
X52163600Y-63636400I0J-200000D01*
G01*
X52163600Y-65363600D01*
G75*
G02*
X51963600Y-65563600I-200000J0D01*
G01*
X50236400Y-65563600D01*
G75*
G02*
X50036400Y-65363600I0J200000D01*
G01*
G37*
D14*
X53640000Y-64500000D03*
X51100000Y-61960000D03*
X53640000Y-61960000D03*
X51100000Y-59420000D03*
X53640000Y-59420000D03*
X51100000Y-56880000D03*
X53640000Y-56880000D03*
X51100000Y-54340000D03*
X53640000Y-54340000D03*
G04 #@! TD*
G04 #@! TO.C,R1*
G36*
G01*
X35025000Y-27786955D02*
X35025000Y-28913045D01*
G75*
G02*
X34688045Y-29250000I-336955J0D01*
G01*
X33811955Y-29250000D01*
G75*
G02*
X33475000Y-28913045I0J336955D01*
G01*
X33475000Y-27786955D01*
G75*
G02*
X33811955Y-27450000I336955J0D01*
G01*
X34688045Y-27450000D01*
G75*
G02*
X35025000Y-27786955I0J-336955D01*
G01*
G37*
G36*
G01*
X37075000Y-27786955D02*
X37075000Y-28913045D01*
G75*
G02*
X36738045Y-29250000I-336955J0D01*
G01*
X35861955Y-29250000D01*
G75*
G02*
X35525000Y-28913045I0J336955D01*
G01*
X35525000Y-27786955D01*
G75*
G02*
X35861955Y-27450000I336955J0D01*
G01*
X36738045Y-27450000D01*
G75*
G02*
X37075000Y-27786955I0J-336955D01*
G01*
G37*
G04 #@! TD*
G04 #@! TO.C,R2*
G36*
G01*
X28952000Y-88193045D02*
X28952000Y-87066955D01*
G75*
G02*
X29288955Y-86730000I336955J0D01*
G01*
X30165045Y-86730000D01*
G75*
G02*
X30502000Y-87066955I0J-336955D01*
G01*
X30502000Y-88193045D01*
G75*
G02*
X30165045Y-88530000I-336955J0D01*
G01*
X29288955Y-88530000D01*
G75*
G02*
X28952000Y-88193045I0J336955D01*
G01*
G37*
G36*
G01*
X26902000Y-88193045D02*
X26902000Y-87066955D01*
G75*
G02*
X27238955Y-86730000I336955J0D01*
G01*
X28115045Y-86730000D01*
G75*
G02*
X28452000Y-87066955I0J-336955D01*
G01*
X28452000Y-88193045D01*
G75*
G02*
X28115045Y-88530000I-336955J0D01*
G01*
X27238955Y-88530000D01*
G75*
G02*
X26902000Y-88193045I0J336955D01*
G01*
G37*
G04 #@! TD*
G04 #@! TO.C,R3*
G36*
G01*
X35056000Y-32710955D02*
X35056000Y-33837045D01*
G75*
G02*
X34719045Y-34174000I-336955J0D01*
G01*
X33842955Y-34174000D01*
G75*
G02*
X33506000Y-33837045I0J336955D01*
G01*
X33506000Y-32710955D01*
G75*
G02*
X33842955Y-32374000I336955J0D01*
G01*
X34719045Y-32374000D01*
G75*
G02*
X35056000Y-32710955I0J-336955D01*
G01*
G37*
G36*
G01*
X37106000Y-32710955D02*
X37106000Y-33837045D01*
G75*
G02*
X36769045Y-34174000I-336955J0D01*
G01*
X35892955Y-34174000D01*
G75*
G02*
X35556000Y-33837045I0J336955D01*
G01*
X35556000Y-32710955D01*
G75*
G02*
X35892955Y-32374000I336955J0D01*
G01*
X36769045Y-32374000D01*
G75*
G02*
X37106000Y-32710955I0J-336955D01*
G01*
G37*
G04 #@! TD*
G04 #@! TO.C,R4*
G36*
G01*
X36572000Y-109275045D02*
X36572000Y-108148955D01*
G75*
G02*
X36908955Y-107812000I336955J0D01*
G01*
X37785045Y-107812000D01*
G75*
G02*
X38122000Y-108148955I0J-336955D01*
G01*
X38122000Y-109275045D01*
G75*
G02*
X37785045Y-109612000I-336955J0D01*
G01*
X36908955Y-109612000D01*
G75*
G02*
X36572000Y-109275045I0J336955D01*
G01*
G37*
G36*
G01*
X34522000Y-109275045D02*
X34522000Y-108148955D01*
G75*
G02*
X34858955Y-107812000I336955J0D01*
G01*
X35735045Y-107812000D01*
G75*
G02*
X36072000Y-108148955I0J-336955D01*
G01*
X36072000Y-109275045D01*
G75*
G02*
X35735045Y-109612000I-336955J0D01*
G01*
X34858955Y-109612000D01*
G75*
G02*
X34522000Y-109275045I0J336955D01*
G01*
G37*
G04 #@! TD*
G04 #@! TO.C,R5*
G36*
G01*
X29703832Y-24961422D02*
X29703832Y-23835332D01*
G75*
G02*
X30040787Y-23498377I336955J0D01*
G01*
X30916877Y-23498377D01*
G75*
G02*
X31253832Y-23835332I0J-336955D01*
G01*
X31253832Y-24961422D01*
G75*
G02*
X30916877Y-25298377I-336955J0D01*
G01*
X30040787Y-25298377D01*
G75*
G02*
X29703832Y-24961422I0J336955D01*
G01*
G37*
G36*
G01*
X31753832Y-24961422D02*
X31753832Y-23835332D01*
G75*
G02*
X32090787Y-23498377I336955J0D01*
G01*
X32966877Y-23498377D01*
G75*
G02*
X33303832Y-23835332I0J-336955D01*
G01*
X33303832Y-24961422D01*
G75*
G02*
X32966877Y-25298377I-336955J0D01*
G01*
X32090787Y-25298377D01*
G75*
G02*
X31753832Y-24961422I0J336955D01*
G01*
G37*
G04 #@! TD*
G04 #@! TO.C,R6*
G36*
G01*
X51834223Y-24940364D02*
X51834223Y-23814274D01*
G75*
G02*
X52171178Y-23477319I336955J0D01*
G01*
X53047268Y-23477319D01*
G75*
G02*
X53384223Y-23814274I0J-336955D01*
G01*
X53384223Y-24940364D01*
G75*
G02*
X53047268Y-25277319I-336955J0D01*
G01*
X52171178Y-25277319D01*
G75*
G02*
X51834223Y-24940364I0J336955D01*
G01*
G37*
G36*
G01*
X49784223Y-24940364D02*
X49784223Y-23814274D01*
G75*
G02*
X50121178Y-23477319I336955J0D01*
G01*
X50997268Y-23477319D01*
G75*
G02*
X51334223Y-23814274I0J-336955D01*
G01*
X51334223Y-24940364D01*
G75*
G02*
X50997268Y-25277319I-336955J0D01*
G01*
X50121178Y-25277319D01*
G75*
G02*
X49784223Y-24940364I0J336955D01*
G01*
G37*
G04 #@! TD*
G04 #@! TO.C,R7*
G36*
G01*
X28952000Y-92765045D02*
X28952000Y-91638955D01*
G75*
G02*
X29288955Y-91302000I336955J0D01*
G01*
X30165045Y-91302000D01*
G75*
G02*
X30502000Y-91638955I0J-336955D01*
G01*
X30502000Y-92765045D01*
G75*
G02*
X30165045Y-93102000I-336955J0D01*
G01*
X29288955Y-93102000D01*
G75*
G02*
X28952000Y-92765045I0J336955D01*
G01*
G37*
G36*
G01*
X26902000Y-92765045D02*
X26902000Y-91638955D01*
G75*
G02*
X27238955Y-91302000I336955J0D01*
G01*
X28115045Y-91302000D01*
G75*
G02*
X28452000Y-91638955I0J-336955D01*
G01*
X28452000Y-92765045D01*
G75*
G02*
X28115045Y-93102000I-336955J0D01*
G01*
X27238955Y-93102000D01*
G75*
G02*
X26902000Y-92765045I0J336955D01*
G01*
G37*
G04 #@! TD*
G04 #@! TO.C,R8*
G36*
G01*
X31760078Y-44994749D02*
X31760078Y-43868659D01*
G75*
G02*
X32097033Y-43531704I336955J0D01*
G01*
X32973123Y-43531704D01*
G75*
G02*
X33310078Y-43868659I0J-336955D01*
G01*
X33310078Y-44994749D01*
G75*
G02*
X32973123Y-45331704I-336955J0D01*
G01*
X32097033Y-45331704D01*
G75*
G02*
X31760078Y-44994749I0J336955D01*
G01*
G37*
G36*
G01*
X29710078Y-44994749D02*
X29710078Y-43868659D01*
G75*
G02*
X30047033Y-43531704I336955J0D01*
G01*
X30923123Y-43531704D01*
G75*
G02*
X31260078Y-43868659I0J-336955D01*
G01*
X31260078Y-44994749D01*
G75*
G02*
X30923123Y-45331704I-336955J0D01*
G01*
X30047033Y-45331704D01*
G75*
G02*
X29710078Y-44994749I0J336955D01*
G01*
G37*
G04 #@! TD*
G04 #@! TO.C,R9*
G36*
G01*
X47476000Y-92257045D02*
X47476000Y-91130955D01*
G75*
G02*
X47812955Y-90794000I336955J0D01*
G01*
X48689045Y-90794000D01*
G75*
G02*
X49026000Y-91130955I0J-336955D01*
G01*
X49026000Y-92257045D01*
G75*
G02*
X48689045Y-92594000I-336955J0D01*
G01*
X47812955Y-92594000D01*
G75*
G02*
X47476000Y-92257045I0J336955D01*
G01*
G37*
G36*
G01*
X49526000Y-92257045D02*
X49526000Y-91130955D01*
G75*
G02*
X49862955Y-90794000I336955J0D01*
G01*
X50739045Y-90794000D01*
G75*
G02*
X51076000Y-91130955I0J-336955D01*
G01*
X51076000Y-92257045D01*
G75*
G02*
X50739045Y-92594000I-336955J0D01*
G01*
X49862955Y-92594000D01*
G75*
G02*
X49526000Y-92257045I0J336955D01*
G01*
G37*
G04 #@! TD*
G04 #@! TO.C,R10*
G36*
G01*
X49761000Y-45160045D02*
X49761000Y-44033955D01*
G75*
G02*
X50097955Y-43697000I336955J0D01*
G01*
X50974045Y-43697000D01*
G75*
G02*
X51311000Y-44033955I0J-336955D01*
G01*
X51311000Y-45160045D01*
G75*
G02*
X50974045Y-45497000I-336955J0D01*
G01*
X50097955Y-45497000D01*
G75*
G02*
X49761000Y-45160045I0J336955D01*
G01*
G37*
G36*
G01*
X47711000Y-45160045D02*
X47711000Y-44033955D01*
G75*
G02*
X48047955Y-43697000I336955J0D01*
G01*
X48924045Y-43697000D01*
G75*
G02*
X49261000Y-44033955I0J-336955D01*
G01*
X49261000Y-45160045D01*
G75*
G02*
X48924045Y-45497000I-336955J0D01*
G01*
X48047955Y-45497000D01*
G75*
G02*
X47711000Y-45160045I0J336955D01*
G01*
G37*
G04 #@! TD*
G04 #@! TO.C,R11*
G36*
G01*
X38150000Y-103186955D02*
X38150000Y-104313045D01*
G75*
G02*
X37813045Y-104650000I-336955J0D01*
G01*
X36936955Y-104650000D01*
G75*
G02*
X36600000Y-104313045I0J336955D01*
G01*
X36600000Y-103186955D01*
G75*
G02*
X36936955Y-102850000I336955J0D01*
G01*
X37813045Y-102850000D01*
G75*
G02*
X38150000Y-103186955I0J-336955D01*
G01*
G37*
G36*
G01*
X36100000Y-103186955D02*
X36100000Y-104313045D01*
G75*
G02*
X35763045Y-104650000I-336955J0D01*
G01*
X34886955Y-104650000D01*
G75*
G02*
X34550000Y-104313045I0J336955D01*
G01*
X34550000Y-103186955D01*
G75*
G02*
X34886955Y-102850000I336955J0D01*
G01*
X35763045Y-102850000D01*
G75*
G02*
X36100000Y-103186955I0J-336955D01*
G01*
G37*
G04 #@! TD*
G04 #@! TO.C,R12*
G36*
G01*
X30502000Y-89352955D02*
X30502000Y-90479045D01*
G75*
G02*
X30165045Y-90816000I-336955J0D01*
G01*
X29288955Y-90816000D01*
G75*
G02*
X28952000Y-90479045I0J336955D01*
G01*
X28952000Y-89352955D01*
G75*
G02*
X29288955Y-89016000I336955J0D01*
G01*
X30165045Y-89016000D01*
G75*
G02*
X30502000Y-89352955I0J-336955D01*
G01*
G37*
G36*
G01*
X28452000Y-89352955D02*
X28452000Y-90479045D01*
G75*
G02*
X28115045Y-90816000I-336955J0D01*
G01*
X27238955Y-90816000D01*
G75*
G02*
X26902000Y-90479045I0J336955D01*
G01*
X26902000Y-89352955D01*
G75*
G02*
X27238955Y-89016000I336955J0D01*
G01*
X28115045Y-89016000D01*
G75*
G02*
X28452000Y-89352955I0J-336955D01*
G01*
G37*
G04 #@! TD*
G04 #@! TO.C,R13*
G36*
G01*
X38122000Y-105862955D02*
X38122000Y-106989045D01*
G75*
G02*
X37785045Y-107326000I-336955J0D01*
G01*
X36908955Y-107326000D01*
G75*
G02*
X36572000Y-106989045I0J336955D01*
G01*
X36572000Y-105862955D01*
G75*
G02*
X36908955Y-105526000I336955J0D01*
G01*
X37785045Y-105526000D01*
G75*
G02*
X38122000Y-105862955I0J-336955D01*
G01*
G37*
G36*
G01*
X36072000Y-105862955D02*
X36072000Y-106989045D01*
G75*
G02*
X35735045Y-107326000I-336955J0D01*
G01*
X34858955Y-107326000D01*
G75*
G02*
X34522000Y-106989045I0J336955D01*
G01*
X34522000Y-105862955D01*
G75*
G02*
X34858955Y-105526000I336955J0D01*
G01*
X35735045Y-105526000D01*
G75*
G02*
X36072000Y-105862955I0J-336955D01*
G01*
G37*
G04 #@! TD*
G04 #@! TO.C,R14*
G36*
G01*
X36100000Y-71536955D02*
X36100000Y-72663045D01*
G75*
G02*
X35763045Y-73000000I-336955J0D01*
G01*
X34886955Y-73000000D01*
G75*
G02*
X34550000Y-72663045I0J336955D01*
G01*
X34550000Y-71536955D01*
G75*
G02*
X34886955Y-71200000I336955J0D01*
G01*
X35763045Y-71200000D01*
G75*
G02*
X36100000Y-71536955I0J-336955D01*
G01*
G37*
G36*
G01*
X34050000Y-71536955D02*
X34050000Y-72663045D01*
G75*
G02*
X33713045Y-73000000I-336955J0D01*
G01*
X32836955Y-73000000D01*
G75*
G02*
X32500000Y-72663045I0J336955D01*
G01*
X32500000Y-71536955D01*
G75*
G02*
X32836955Y-71200000I336955J0D01*
G01*
X33713045Y-71200000D01*
G75*
G02*
X34050000Y-71536955I0J-336955D01*
G01*
G37*
G04 #@! TD*
G04 #@! TO.C,R15*
G36*
G01*
X19340000Y-80173045D02*
X19340000Y-79046955D01*
G75*
G02*
X19676955Y-78710000I336955J0D01*
G01*
X20553045Y-78710000D01*
G75*
G02*
X20890000Y-79046955I0J-336955D01*
G01*
X20890000Y-80173045D01*
G75*
G02*
X20553045Y-80510000I-336955J0D01*
G01*
X19676955Y-80510000D01*
G75*
G02*
X19340000Y-80173045I0J336955D01*
G01*
G37*
G36*
G01*
X21390000Y-80173045D02*
X21390000Y-79046955D01*
G75*
G02*
X21726955Y-78710000I336955J0D01*
G01*
X22603045Y-78710000D01*
G75*
G02*
X22940000Y-79046955I0J-336955D01*
G01*
X22940000Y-80173045D01*
G75*
G02*
X22603045Y-80510000I-336955J0D01*
G01*
X21726955Y-80510000D01*
G75*
G02*
X21390000Y-80173045I0J336955D01*
G01*
G37*
G04 #@! TD*
G04 #@! TO.C,R16*
G36*
G01*
X34100000Y-52686955D02*
X34100000Y-53813045D01*
G75*
G02*
X33763045Y-54150000I-336955J0D01*
G01*
X32886955Y-54150000D01*
G75*
G02*
X32550000Y-53813045I0J336955D01*
G01*
X32550000Y-52686955D01*
G75*
G02*
X32886955Y-52350000I336955J0D01*
G01*
X33763045Y-52350000D01*
G75*
G02*
X34100000Y-52686955I0J-336955D01*
G01*
G37*
G36*
G01*
X36150000Y-52686955D02*
X36150000Y-53813045D01*
G75*
G02*
X35813045Y-54150000I-336955J0D01*
G01*
X34936955Y-54150000D01*
G75*
G02*
X34600000Y-53813045I0J336955D01*
G01*
X34600000Y-52686955D01*
G75*
G02*
X34936955Y-52350000I336955J0D01*
G01*
X35813045Y-52350000D01*
G75*
G02*
X36150000Y-52686955I0J-336955D01*
G01*
G37*
G04 #@! TD*
G04 #@! TO.C,R17*
G36*
G01*
X19600000Y-63409045D02*
X19600000Y-62282955D01*
G75*
G02*
X19936955Y-61946000I336955J0D01*
G01*
X20813045Y-61946000D01*
G75*
G02*
X21150000Y-62282955I0J-336955D01*
G01*
X21150000Y-63409045D01*
G75*
G02*
X20813045Y-63746000I-336955J0D01*
G01*
X19936955Y-63746000D01*
G75*
G02*
X19600000Y-63409045I0J336955D01*
G01*
G37*
G36*
G01*
X21650000Y-63409045D02*
X21650000Y-62282955D01*
G75*
G02*
X21986955Y-61946000I336955J0D01*
G01*
X22863045Y-61946000D01*
G75*
G02*
X23200000Y-62282955I0J-336955D01*
G01*
X23200000Y-63409045D01*
G75*
G02*
X22863045Y-63746000I-336955J0D01*
G01*
X21986955Y-63746000D01*
G75*
G02*
X21650000Y-63409045I0J336955D01*
G01*
G37*
G04 #@! TD*
G04 #@! TO.C,R18*
G36*
G01*
X46993000Y-35324045D02*
X46993000Y-34197955D01*
G75*
G02*
X47329955Y-33861000I336955J0D01*
G01*
X48206045Y-33861000D01*
G75*
G02*
X48543000Y-34197955I0J-336955D01*
G01*
X48543000Y-35324045D01*
G75*
G02*
X48206045Y-35661000I-336955J0D01*
G01*
X47329955Y-35661000D01*
G75*
G02*
X46993000Y-35324045I0J336955D01*
G01*
G37*
G36*
G01*
X49043000Y-35324045D02*
X49043000Y-34197955D01*
G75*
G02*
X49379955Y-33861000I336955J0D01*
G01*
X50256045Y-33861000D01*
G75*
G02*
X50593000Y-34197955I0J-336955D01*
G01*
X50593000Y-35324045D01*
G75*
G02*
X50256045Y-35661000I-336955J0D01*
G01*
X49379955Y-35661000D01*
G75*
G02*
X49043000Y-35324045I0J336955D01*
G01*
G37*
G04 #@! TD*
G04 #@! TO.C,R19*
G36*
G01*
X50778000Y-108005045D02*
X50778000Y-106878955D01*
G75*
G02*
X51114955Y-106542000I336955J0D01*
G01*
X51991045Y-106542000D01*
G75*
G02*
X52328000Y-106878955I0J-336955D01*
G01*
X52328000Y-108005045D01*
G75*
G02*
X51991045Y-108342000I-336955J0D01*
G01*
X51114955Y-108342000D01*
G75*
G02*
X50778000Y-108005045I0J336955D01*
G01*
G37*
G36*
G01*
X52828000Y-108005045D02*
X52828000Y-106878955D01*
G75*
G02*
X53164955Y-106542000I336955J0D01*
G01*
X54041045Y-106542000D01*
G75*
G02*
X54378000Y-106878955I0J-336955D01*
G01*
X54378000Y-108005045D01*
G75*
G02*
X54041045Y-108342000I-336955J0D01*
G01*
X53164955Y-108342000D01*
G75*
G02*
X52828000Y-108005045I0J336955D01*
G01*
G37*
G04 #@! TD*
G04 #@! TO.C,R20*
G36*
G01*
X47000000Y-29838045D02*
X47000000Y-28711955D01*
G75*
G02*
X47336955Y-28375000I336955J0D01*
G01*
X48213045Y-28375000D01*
G75*
G02*
X48550000Y-28711955I0J-336955D01*
G01*
X48550000Y-29838045D01*
G75*
G02*
X48213045Y-30175000I-336955J0D01*
G01*
X47336955Y-30175000D01*
G75*
G02*
X47000000Y-29838045I0J336955D01*
G01*
G37*
G36*
G01*
X49050000Y-29838045D02*
X49050000Y-28711955D01*
G75*
G02*
X49386955Y-28375000I336955J0D01*
G01*
X50263045Y-28375000D01*
G75*
G02*
X50600000Y-28711955I0J-336955D01*
G01*
X50600000Y-29838045D01*
G75*
G02*
X50263045Y-30175000I-336955J0D01*
G01*
X49386955Y-30175000D01*
G75*
G02*
X49050000Y-29838045I0J336955D01*
G01*
G37*
G04 #@! TD*
G04 #@! TO.C,R21*
G36*
G01*
X51067000Y-86558955D02*
X51067000Y-87685045D01*
G75*
G02*
X50730045Y-88022000I-336955J0D01*
G01*
X49853955Y-88022000D01*
G75*
G02*
X49517000Y-87685045I0J336955D01*
G01*
X49517000Y-86558955D01*
G75*
G02*
X49853955Y-86222000I336955J0D01*
G01*
X50730045Y-86222000D01*
G75*
G02*
X51067000Y-86558955I0J-336955D01*
G01*
G37*
G36*
G01*
X49017000Y-86558955D02*
X49017000Y-87685045D01*
G75*
G02*
X48680045Y-88022000I-336955J0D01*
G01*
X47803955Y-88022000D01*
G75*
G02*
X47467000Y-87685045I0J336955D01*
G01*
X47467000Y-86558955D01*
G75*
G02*
X47803955Y-86222000I336955J0D01*
G01*
X48680045Y-86222000D01*
G75*
G02*
X49017000Y-86558955I0J-336955D01*
G01*
G37*
G04 #@! TD*
G04 #@! TO.C,R22*
G36*
G01*
X29694832Y-22167422D02*
X29694832Y-21041332D01*
G75*
G02*
X30031787Y-20704377I336955J0D01*
G01*
X30907877Y-20704377D01*
G75*
G02*
X31244832Y-21041332I0J-336955D01*
G01*
X31244832Y-22167422D01*
G75*
G02*
X30907877Y-22504377I-336955J0D01*
G01*
X30031787Y-22504377D01*
G75*
G02*
X29694832Y-22167422I0J336955D01*
G01*
G37*
G36*
G01*
X31744832Y-22167422D02*
X31744832Y-21041332D01*
G75*
G02*
X32081787Y-20704377I336955J0D01*
G01*
X32957877Y-20704377D01*
G75*
G02*
X33294832Y-21041332I0J-336955D01*
G01*
X33294832Y-22167422D01*
G75*
G02*
X32957877Y-22504377I-336955J0D01*
G01*
X32081787Y-22504377D01*
G75*
G02*
X31744832Y-22167422I0J336955D01*
G01*
G37*
G04 #@! TD*
G04 #@! TO.C,R23*
G36*
G01*
X34540000Y-76845045D02*
X34540000Y-75718955D01*
G75*
G02*
X34876955Y-75382000I336955J0D01*
G01*
X35753045Y-75382000D01*
G75*
G02*
X36090000Y-75718955I0J-336955D01*
G01*
X36090000Y-76845045D01*
G75*
G02*
X35753045Y-77182000I-336955J0D01*
G01*
X34876955Y-77182000D01*
G75*
G02*
X34540000Y-76845045I0J336955D01*
G01*
G37*
G36*
G01*
X32490000Y-76845045D02*
X32490000Y-75718955D01*
G75*
G02*
X32826955Y-75382000I336955J0D01*
G01*
X33703045Y-75382000D01*
G75*
G02*
X34040000Y-75718955I0J-336955D01*
G01*
X34040000Y-76845045D01*
G75*
G02*
X33703045Y-77182000I-336955J0D01*
G01*
X32826955Y-77182000D01*
G75*
G02*
X32490000Y-76845045I0J336955D01*
G01*
G37*
G04 #@! TD*
G04 #@! TO.C,R24*
G36*
G01*
X49775223Y-22146364D02*
X49775223Y-21020274D01*
G75*
G02*
X50112178Y-20683319I336955J0D01*
G01*
X50988268Y-20683319D01*
G75*
G02*
X51325223Y-21020274I0J-336955D01*
G01*
X51325223Y-22146364D01*
G75*
G02*
X50988268Y-22483319I-336955J0D01*
G01*
X50112178Y-22483319D01*
G75*
G02*
X49775223Y-22146364I0J336955D01*
G01*
G37*
G36*
G01*
X51825223Y-22146364D02*
X51825223Y-21020274D01*
G75*
G02*
X52162178Y-20683319I336955J0D01*
G01*
X53038268Y-20683319D01*
G75*
G02*
X53375223Y-21020274I0J-336955D01*
G01*
X53375223Y-22146364D01*
G75*
G02*
X53038268Y-22483319I-336955J0D01*
G01*
X52162178Y-22483319D01*
G75*
G02*
X51825223Y-22146364I0J336955D01*
G01*
G37*
G04 #@! TD*
G04 #@! TO.C,R25*
G36*
G01*
X19282000Y-82263045D02*
X19282000Y-81136955D01*
G75*
G02*
X19618955Y-80800000I336955J0D01*
G01*
X20495045Y-80800000D01*
G75*
G02*
X20832000Y-81136955I0J-336955D01*
G01*
X20832000Y-82263045D01*
G75*
G02*
X20495045Y-82600000I-336955J0D01*
G01*
X19618955Y-82600000D01*
G75*
G02*
X19282000Y-82263045I0J336955D01*
G01*
G37*
G36*
G01*
X21332000Y-82263045D02*
X21332000Y-81136955D01*
G75*
G02*
X21668955Y-80800000I336955J0D01*
G01*
X22545045Y-80800000D01*
G75*
G02*
X22882000Y-81136955I0J-336955D01*
G01*
X22882000Y-82263045D01*
G75*
G02*
X22545045Y-82600000I-336955J0D01*
G01*
X21668955Y-82600000D01*
G75*
G02*
X21332000Y-82263045I0J336955D01*
G01*
G37*
G04 #@! TD*
G04 #@! TO.C,R26*
G36*
G01*
X31769078Y-42454749D02*
X31769078Y-41328659D01*
G75*
G02*
X32106033Y-40991704I336955J0D01*
G01*
X32982123Y-40991704D01*
G75*
G02*
X33319078Y-41328659I0J-336955D01*
G01*
X33319078Y-42454749D01*
G75*
G02*
X32982123Y-42791704I-336955J0D01*
G01*
X32106033Y-42791704D01*
G75*
G02*
X31769078Y-42454749I0J336955D01*
G01*
G37*
G36*
G01*
X29719078Y-42454749D02*
X29719078Y-41328659D01*
G75*
G02*
X30056033Y-40991704I336955J0D01*
G01*
X30932123Y-40991704D01*
G75*
G02*
X31269078Y-41328659I0J-336955D01*
G01*
X31269078Y-42454749D01*
G75*
G02*
X30932123Y-42791704I-336955J0D01*
G01*
X30056033Y-42791704D01*
G75*
G02*
X29719078Y-42454749I0J336955D01*
G01*
G37*
G04 #@! TD*
G04 #@! TO.C,R27*
G36*
G01*
X32529000Y-58948045D02*
X32529000Y-57821955D01*
G75*
G02*
X32865955Y-57485000I336955J0D01*
G01*
X33742045Y-57485000D01*
G75*
G02*
X34079000Y-57821955I0J-336955D01*
G01*
X34079000Y-58948045D01*
G75*
G02*
X33742045Y-59285000I-336955J0D01*
G01*
X32865955Y-59285000D01*
G75*
G02*
X32529000Y-58948045I0J336955D01*
G01*
G37*
G36*
G01*
X34579000Y-58948045D02*
X34579000Y-57821955D01*
G75*
G02*
X34915955Y-57485000I336955J0D01*
G01*
X35792045Y-57485000D01*
G75*
G02*
X36129000Y-57821955I0J-336955D01*
G01*
X36129000Y-58948045D01*
G75*
G02*
X35792045Y-59285000I-336955J0D01*
G01*
X34915955Y-59285000D01*
G75*
G02*
X34579000Y-58948045I0J336955D01*
G01*
G37*
G04 #@! TD*
G04 #@! TO.C,R28*
G36*
G01*
X47711000Y-42874045D02*
X47711000Y-41747955D01*
G75*
G02*
X48047955Y-41411000I336955J0D01*
G01*
X48924045Y-41411000D01*
G75*
G02*
X49261000Y-41747955I0J-336955D01*
G01*
X49261000Y-42874045D01*
G75*
G02*
X48924045Y-43211000I-336955J0D01*
G01*
X48047955Y-43211000D01*
G75*
G02*
X47711000Y-42874045I0J336955D01*
G01*
G37*
G36*
G01*
X49761000Y-42874045D02*
X49761000Y-41747955D01*
G75*
G02*
X50097955Y-41411000I336955J0D01*
G01*
X50974045Y-41411000D01*
G75*
G02*
X51311000Y-41747955I0J-336955D01*
G01*
X51311000Y-42874045D01*
G75*
G02*
X50974045Y-43211000I-336955J0D01*
G01*
X50097955Y-43211000D01*
G75*
G02*
X49761000Y-42874045I0J336955D01*
G01*
G37*
G04 #@! TD*
G04 #@! TO.C,R29*
G36*
G01*
X21650000Y-65695045D02*
X21650000Y-64568955D01*
G75*
G02*
X21986955Y-64232000I336955J0D01*
G01*
X22863045Y-64232000D01*
G75*
G02*
X23200000Y-64568955I0J-336955D01*
G01*
X23200000Y-65695045D01*
G75*
G02*
X22863045Y-66032000I-336955J0D01*
G01*
X21986955Y-66032000D01*
G75*
G02*
X21650000Y-65695045I0J336955D01*
G01*
G37*
G36*
G01*
X19600000Y-65695045D02*
X19600000Y-64568955D01*
G75*
G02*
X19936955Y-64232000I336955J0D01*
G01*
X20813045Y-64232000D01*
G75*
G02*
X21150000Y-64568955I0J-336955D01*
G01*
X21150000Y-65695045D01*
G75*
G02*
X20813045Y-66032000I-336955J0D01*
G01*
X19936955Y-66032000D01*
G75*
G02*
X19600000Y-65695045I0J336955D01*
G01*
G37*
G04 #@! TD*
G04 #@! TO.C,R30*
G36*
G01*
X52328000Y-104592955D02*
X52328000Y-105719045D01*
G75*
G02*
X51991045Y-106056000I-336955J0D01*
G01*
X51114955Y-106056000D01*
G75*
G02*
X50778000Y-105719045I0J336955D01*
G01*
X50778000Y-104592955D01*
G75*
G02*
X51114955Y-104256000I336955J0D01*
G01*
X51991045Y-104256000D01*
G75*
G02*
X52328000Y-104592955I0J-336955D01*
G01*
G37*
G36*
G01*
X54378000Y-104592955D02*
X54378000Y-105719045D01*
G75*
G02*
X54041045Y-106056000I-336955J0D01*
G01*
X53164955Y-106056000D01*
G75*
G02*
X52828000Y-105719045I0J336955D01*
G01*
X52828000Y-104592955D01*
G75*
G02*
X53164955Y-104256000I336955J0D01*
G01*
X54041045Y-104256000D01*
G75*
G02*
X54378000Y-104592955I0J-336955D01*
G01*
G37*
G04 #@! TD*
G04 #@! TO.C,R31*
G36*
G01*
X49026000Y-88844955D02*
X49026000Y-89971045D01*
G75*
G02*
X48689045Y-90308000I-336955J0D01*
G01*
X47812955Y-90308000D01*
G75*
G02*
X47476000Y-89971045I0J336955D01*
G01*
X47476000Y-88844955D01*
G75*
G02*
X47812955Y-88508000I336955J0D01*
G01*
X48689045Y-88508000D01*
G75*
G02*
X49026000Y-88844955I0J-336955D01*
G01*
G37*
G36*
G01*
X51076000Y-88844955D02*
X51076000Y-89971045D01*
G75*
G02*
X50739045Y-90308000I-336955J0D01*
G01*
X49862955Y-90308000D01*
G75*
G02*
X49526000Y-89971045I0J336955D01*
G01*
X49526000Y-88844955D01*
G75*
G02*
X49862955Y-88508000I336955J0D01*
G01*
X50739045Y-88508000D01*
G75*
G02*
X51076000Y-88844955I0J-336955D01*
G01*
G37*
G04 #@! TD*
G04 #@! TO.C,R32*
G36*
G01*
X36065000Y-82336955D02*
X36065000Y-83463045D01*
G75*
G02*
X35728045Y-83800000I-336955J0D01*
G01*
X34851955Y-83800000D01*
G75*
G02*
X34515000Y-83463045I0J336955D01*
G01*
X34515000Y-82336955D01*
G75*
G02*
X34851955Y-82000000I336955J0D01*
G01*
X35728045Y-82000000D01*
G75*
G02*
X36065000Y-82336955I0J-336955D01*
G01*
G37*
G36*
G01*
X34015000Y-82336955D02*
X34015000Y-83463045D01*
G75*
G02*
X33678045Y-83800000I-336955J0D01*
G01*
X32801955Y-83800000D01*
G75*
G02*
X32465000Y-83463045I0J336955D01*
G01*
X32465000Y-82336955D01*
G75*
G02*
X32801955Y-82000000I336955J0D01*
G01*
X33678045Y-82000000D01*
G75*
G02*
X34015000Y-82336955I0J-336955D01*
G01*
G37*
G04 #@! TD*
G04 #@! TO.C,R33*
G36*
G01*
X21307000Y-68938045D02*
X21307000Y-67811955D01*
G75*
G02*
X21643955Y-67475000I336955J0D01*
G01*
X22520045Y-67475000D01*
G75*
G02*
X22857000Y-67811955I0J-336955D01*
G01*
X22857000Y-68938045D01*
G75*
G02*
X22520045Y-69275000I-336955J0D01*
G01*
X21643955Y-69275000D01*
G75*
G02*
X21307000Y-68938045I0J336955D01*
G01*
G37*
G36*
G01*
X19257000Y-68938045D02*
X19257000Y-67811955D01*
G75*
G02*
X19593955Y-67475000I336955J0D01*
G01*
X20470045Y-67475000D01*
G75*
G02*
X20807000Y-67811955I0J-336955D01*
G01*
X20807000Y-68938045D01*
G75*
G02*
X20470045Y-69275000I-336955J0D01*
G01*
X19593955Y-69275000D01*
G75*
G02*
X19257000Y-68938045I0J336955D01*
G01*
G37*
G04 #@! TD*
G04 #@! TO.C,R34*
G36*
G01*
X36129000Y-64679955D02*
X36129000Y-65806045D01*
G75*
G02*
X35792045Y-66143000I-336955J0D01*
G01*
X34915955Y-66143000D01*
G75*
G02*
X34579000Y-65806045I0J336955D01*
G01*
X34579000Y-64679955D01*
G75*
G02*
X34915955Y-64343000I336955J0D01*
G01*
X35792045Y-64343000D01*
G75*
G02*
X36129000Y-64679955I0J-336955D01*
G01*
G37*
G36*
G01*
X34079000Y-64679955D02*
X34079000Y-65806045D01*
G75*
G02*
X33742045Y-66143000I-336955J0D01*
G01*
X32865955Y-66143000D01*
G75*
G02*
X32529000Y-65806045I0J336955D01*
G01*
X32529000Y-64679955D01*
G75*
G02*
X32865955Y-64343000I336955J0D01*
G01*
X33742045Y-64343000D01*
G75*
G02*
X34079000Y-64679955I0J-336955D01*
G01*
G37*
G04 #@! TD*
G04 #@! TO.C,R35*
G36*
G01*
X19600000Y-51979045D02*
X19600000Y-50852955D01*
G75*
G02*
X19936955Y-50516000I336955J0D01*
G01*
X20813045Y-50516000D01*
G75*
G02*
X21150000Y-50852955I0J-336955D01*
G01*
X21150000Y-51979045D01*
G75*
G02*
X20813045Y-52316000I-336955J0D01*
G01*
X19936955Y-52316000D01*
G75*
G02*
X19600000Y-51979045I0J336955D01*
G01*
G37*
G36*
G01*
X21650000Y-51979045D02*
X21650000Y-50852955D01*
G75*
G02*
X21986955Y-50516000I336955J0D01*
G01*
X22863045Y-50516000D01*
G75*
G02*
X23200000Y-50852955I0J-336955D01*
G01*
X23200000Y-51979045D01*
G75*
G02*
X22863045Y-52316000I-336955J0D01*
G01*
X21986955Y-52316000D01*
G75*
G02*
X21650000Y-51979045I0J336955D01*
G01*
G37*
G04 #@! TD*
G04 #@! TO.C,R36*
G36*
G01*
X34050000Y-80236955D02*
X34050000Y-81363045D01*
G75*
G02*
X33713045Y-81700000I-336955J0D01*
G01*
X32836955Y-81700000D01*
G75*
G02*
X32500000Y-81363045I0J336955D01*
G01*
X32500000Y-80236955D01*
G75*
G02*
X32836955Y-79900000I336955J0D01*
G01*
X33713045Y-79900000D01*
G75*
G02*
X34050000Y-80236955I0J-336955D01*
G01*
G37*
G36*
G01*
X36100000Y-80236955D02*
X36100000Y-81363045D01*
G75*
G02*
X35763045Y-81700000I-336955J0D01*
G01*
X34886955Y-81700000D01*
G75*
G02*
X34550000Y-81363045I0J336955D01*
G01*
X34550000Y-80236955D01*
G75*
G02*
X34886955Y-79900000I336955J0D01*
G01*
X35763045Y-79900000D01*
G75*
G02*
X36100000Y-80236955I0J-336955D01*
G01*
G37*
G04 #@! TD*
G04 #@! TO.C,R37*
G36*
G01*
X21307000Y-71038045D02*
X21307000Y-69911955D01*
G75*
G02*
X21643955Y-69575000I336955J0D01*
G01*
X22520045Y-69575000D01*
G75*
G02*
X22857000Y-69911955I0J-336955D01*
G01*
X22857000Y-71038045D01*
G75*
G02*
X22520045Y-71375000I-336955J0D01*
G01*
X21643955Y-71375000D01*
G75*
G02*
X21307000Y-71038045I0J336955D01*
G01*
G37*
G36*
G01*
X19257000Y-71038045D02*
X19257000Y-69911955D01*
G75*
G02*
X19593955Y-69575000I336955J0D01*
G01*
X20470045Y-69575000D01*
G75*
G02*
X20807000Y-69911955I0J-336955D01*
G01*
X20807000Y-71038045D01*
G75*
G02*
X20470045Y-71375000I-336955J0D01*
G01*
X19593955Y-71375000D01*
G75*
G02*
X19257000Y-71038045I0J336955D01*
G01*
G37*
G04 #@! TD*
G04 #@! TO.C,R38*
G36*
G01*
X34075000Y-62236955D02*
X34075000Y-63363045D01*
G75*
G02*
X33738045Y-63700000I-336955J0D01*
G01*
X32861955Y-63700000D01*
G75*
G02*
X32525000Y-63363045I0J336955D01*
G01*
X32525000Y-62236955D01*
G75*
G02*
X32861955Y-61900000I336955J0D01*
G01*
X33738045Y-61900000D01*
G75*
G02*
X34075000Y-62236955I0J-336955D01*
G01*
G37*
G36*
G01*
X36125000Y-62236955D02*
X36125000Y-63363045D01*
G75*
G02*
X35788045Y-63700000I-336955J0D01*
G01*
X34911955Y-63700000D01*
G75*
G02*
X34575000Y-63363045I0J336955D01*
G01*
X34575000Y-62236955D01*
G75*
G02*
X34911955Y-61900000I336955J0D01*
G01*
X35788045Y-61900000D01*
G75*
G02*
X36125000Y-62236955I0J-336955D01*
G01*
G37*
G04 #@! TD*
G04 #@! TO.C,R39*
G36*
G01*
X21650000Y-54265045D02*
X21650000Y-53138955D01*
G75*
G02*
X21986955Y-52802000I336955J0D01*
G01*
X22863045Y-52802000D01*
G75*
G02*
X23200000Y-53138955I0J-336955D01*
G01*
X23200000Y-54265045D01*
G75*
G02*
X22863045Y-54602000I-336955J0D01*
G01*
X21986955Y-54602000D01*
G75*
G02*
X21650000Y-54265045I0J336955D01*
G01*
G37*
G36*
G01*
X19600000Y-54265045D02*
X19600000Y-53138955D01*
G75*
G02*
X19936955Y-52802000I336955J0D01*
G01*
X20813045Y-52802000D01*
G75*
G02*
X21150000Y-53138955I0J-336955D01*
G01*
X21150000Y-54265045D01*
G75*
G02*
X20813045Y-54602000I-336955J0D01*
G01*
X19936955Y-54602000D01*
G75*
G02*
X19600000Y-54265045I0J336955D01*
G01*
G37*
G04 #@! TD*
D13*
G04 #@! TO.C,RV1*
X47511223Y-17037319D03*
X47511223Y-26637319D03*
D15*
X55011223Y-19337319D03*
X55011223Y-21837319D03*
X55011223Y-24337319D03*
G04 #@! TD*
G04 #@! TO.C,RV2*
X35193832Y-24358377D03*
X35193832Y-21858377D03*
X35193832Y-19358377D03*
D13*
X27693832Y-26658377D03*
X27693832Y-17058377D03*
G04 #@! TD*
D15*
G04 #@! TO.C,RV3*
X35209078Y-44899704D03*
X35209078Y-42399704D03*
X35209078Y-39899704D03*
D13*
X27709078Y-47199704D03*
X27709078Y-37599704D03*
G04 #@! TD*
G04 #@! TO.C,RV4*
X47522000Y-37612000D03*
X47522000Y-47212000D03*
D15*
X55022000Y-39912000D03*
X55022000Y-42412000D03*
X55022000Y-44912000D03*
G04 #@! TD*
G04 #@! TO.C,U1*
G36*
G01*
X43914000Y-35860000D02*
X43914000Y-35260000D01*
G75*
G02*
X44114000Y-35060000I200000J0D01*
G01*
X45614000Y-35060000D01*
G75*
G02*
X45814000Y-35260000I0J-200000D01*
G01*
X45814000Y-35860000D01*
G75*
G02*
X45614000Y-36060000I-200000J0D01*
G01*
X44114000Y-36060000D01*
G75*
G02*
X43914000Y-35860000I0J200000D01*
G01*
G37*
G36*
G01*
X43914000Y-34590000D02*
X43914000Y-33990000D01*
G75*
G02*
X44114000Y-33790000I200000J0D01*
G01*
X45614000Y-33790000D01*
G75*
G02*
X45814000Y-33990000I0J-200000D01*
G01*
X45814000Y-34590000D01*
G75*
G02*
X45614000Y-34790000I-200000J0D01*
G01*
X44114000Y-34790000D01*
G75*
G02*
X43914000Y-34590000I0J200000D01*
G01*
G37*
G36*
G01*
X43914000Y-33320000D02*
X43914000Y-32720000D01*
G75*
G02*
X44114000Y-32520000I200000J0D01*
G01*
X45614000Y-32520000D01*
G75*
G02*
X45814000Y-32720000I0J-200000D01*
G01*
X45814000Y-33320000D01*
G75*
G02*
X45614000Y-33520000I-200000J0D01*
G01*
X44114000Y-33520000D01*
G75*
G02*
X43914000Y-33320000I0J200000D01*
G01*
G37*
G36*
G01*
X43914000Y-32050000D02*
X43914000Y-31450000D01*
G75*
G02*
X44114000Y-31250000I200000J0D01*
G01*
X45614000Y-31250000D01*
G75*
G02*
X45814000Y-31450000I0J-200000D01*
G01*
X45814000Y-32050000D01*
G75*
G02*
X45614000Y-32250000I-200000J0D01*
G01*
X44114000Y-32250000D01*
G75*
G02*
X43914000Y-32050000I0J200000D01*
G01*
G37*
G36*
G01*
X43914000Y-30780000D02*
X43914000Y-30180000D01*
G75*
G02*
X44114000Y-29980000I200000J0D01*
G01*
X45614000Y-29980000D01*
G75*
G02*
X45814000Y-30180000I0J-200000D01*
G01*
X45814000Y-30780000D01*
G75*
G02*
X45614000Y-30980000I-200000J0D01*
G01*
X44114000Y-30980000D01*
G75*
G02*
X43914000Y-30780000I0J200000D01*
G01*
G37*
G36*
G01*
X43914000Y-29510000D02*
X43914000Y-28910000D01*
G75*
G02*
X44114000Y-28710000I200000J0D01*
G01*
X45614000Y-28710000D01*
G75*
G02*
X45814000Y-28910000I0J-200000D01*
G01*
X45814000Y-29510000D01*
G75*
G02*
X45614000Y-29710000I-200000J0D01*
G01*
X44114000Y-29710000D01*
G75*
G02*
X43914000Y-29510000I0J200000D01*
G01*
G37*
G36*
G01*
X43914000Y-28240000D02*
X43914000Y-27640000D01*
G75*
G02*
X44114000Y-27440000I200000J0D01*
G01*
X45614000Y-27440000D01*
G75*
G02*
X45814000Y-27640000I0J-200000D01*
G01*
X45814000Y-28240000D01*
G75*
G02*
X45614000Y-28440000I-200000J0D01*
G01*
X44114000Y-28440000D01*
G75*
G02*
X43914000Y-28240000I0J200000D01*
G01*
G37*
G36*
G01*
X38514000Y-28240000D02*
X38514000Y-27640000D01*
G75*
G02*
X38714000Y-27440000I200000J0D01*
G01*
X40214000Y-27440000D01*
G75*
G02*
X40414000Y-27640000I0J-200000D01*
G01*
X40414000Y-28240000D01*
G75*
G02*
X40214000Y-28440000I-200000J0D01*
G01*
X38714000Y-28440000D01*
G75*
G02*
X38514000Y-28240000I0J200000D01*
G01*
G37*
G36*
G01*
X38514000Y-29510000D02*
X38514000Y-28910000D01*
G75*
G02*
X38714000Y-28710000I200000J0D01*
G01*
X40214000Y-28710000D01*
G75*
G02*
X40414000Y-28910000I0J-200000D01*
G01*
X40414000Y-29510000D01*
G75*
G02*
X40214000Y-29710000I-200000J0D01*
G01*
X38714000Y-29710000D01*
G75*
G02*
X38514000Y-29510000I0J200000D01*
G01*
G37*
G36*
G01*
X38514000Y-30780000D02*
X38514000Y-30180000D01*
G75*
G02*
X38714000Y-29980000I200000J0D01*
G01*
X40214000Y-29980000D01*
G75*
G02*
X40414000Y-30180000I0J-200000D01*
G01*
X40414000Y-30780000D01*
G75*
G02*
X40214000Y-30980000I-200000J0D01*
G01*
X38714000Y-30980000D01*
G75*
G02*
X38514000Y-30780000I0J200000D01*
G01*
G37*
G36*
G01*
X38514000Y-32050000D02*
X38514000Y-31450000D01*
G75*
G02*
X38714000Y-31250000I200000J0D01*
G01*
X40214000Y-31250000D01*
G75*
G02*
X40414000Y-31450000I0J-200000D01*
G01*
X40414000Y-32050000D01*
G75*
G02*
X40214000Y-32250000I-200000J0D01*
G01*
X38714000Y-32250000D01*
G75*
G02*
X38514000Y-32050000I0J200000D01*
G01*
G37*
G36*
G01*
X38514000Y-33320000D02*
X38514000Y-32720000D01*
G75*
G02*
X38714000Y-32520000I200000J0D01*
G01*
X40214000Y-32520000D01*
G75*
G02*
X40414000Y-32720000I0J-200000D01*
G01*
X40414000Y-33320000D01*
G75*
G02*
X40214000Y-33520000I-200000J0D01*
G01*
X38714000Y-33520000D01*
G75*
G02*
X38514000Y-33320000I0J200000D01*
G01*
G37*
G36*
G01*
X38514000Y-34590000D02*
X38514000Y-33990000D01*
G75*
G02*
X38714000Y-33790000I200000J0D01*
G01*
X40214000Y-33790000D01*
G75*
G02*
X40414000Y-33990000I0J-200000D01*
G01*
X40414000Y-34590000D01*
G75*
G02*
X40214000Y-34790000I-200000J0D01*
G01*
X38714000Y-34790000D01*
G75*
G02*
X38514000Y-34590000I0J200000D01*
G01*
G37*
G36*
G01*
X38514000Y-35860000D02*
X38514000Y-35260000D01*
G75*
G02*
X38714000Y-35060000I200000J0D01*
G01*
X40214000Y-35060000D01*
G75*
G02*
X40414000Y-35260000I0J-200000D01*
G01*
X40414000Y-35860000D01*
G75*
G02*
X40214000Y-36060000I-200000J0D01*
G01*
X38714000Y-36060000D01*
G75*
G02*
X38514000Y-35860000I0J200000D01*
G01*
G37*
G04 #@! TD*
G04 #@! TO.C,U2*
G36*
G01*
X24036000Y-79884000D02*
X24036000Y-79284000D01*
G75*
G02*
X24236000Y-79084000I200000J0D01*
G01*
X25736000Y-79084000D01*
G75*
G02*
X25936000Y-79284000I0J-200000D01*
G01*
X25936000Y-79884000D01*
G75*
G02*
X25736000Y-80084000I-200000J0D01*
G01*
X24236000Y-80084000D01*
G75*
G02*
X24036000Y-79884000I0J200000D01*
G01*
G37*
G36*
G01*
X24036000Y-78614000D02*
X24036000Y-78014000D01*
G75*
G02*
X24236000Y-77814000I200000J0D01*
G01*
X25736000Y-77814000D01*
G75*
G02*
X25936000Y-78014000I0J-200000D01*
G01*
X25936000Y-78614000D01*
G75*
G02*
X25736000Y-78814000I-200000J0D01*
G01*
X24236000Y-78814000D01*
G75*
G02*
X24036000Y-78614000I0J200000D01*
G01*
G37*
G36*
G01*
X24036000Y-77344000D02*
X24036000Y-76744000D01*
G75*
G02*
X24236000Y-76544000I200000J0D01*
G01*
X25736000Y-76544000D01*
G75*
G02*
X25936000Y-76744000I0J-200000D01*
G01*
X25936000Y-77344000D01*
G75*
G02*
X25736000Y-77544000I-200000J0D01*
G01*
X24236000Y-77544000D01*
G75*
G02*
X24036000Y-77344000I0J200000D01*
G01*
G37*
G36*
G01*
X24036000Y-76074000D02*
X24036000Y-75474000D01*
G75*
G02*
X24236000Y-75274000I200000J0D01*
G01*
X25736000Y-75274000D01*
G75*
G02*
X25936000Y-75474000I0J-200000D01*
G01*
X25936000Y-76074000D01*
G75*
G02*
X25736000Y-76274000I-200000J0D01*
G01*
X24236000Y-76274000D01*
G75*
G02*
X24036000Y-76074000I0J200000D01*
G01*
G37*
G36*
G01*
X24036000Y-74804000D02*
X24036000Y-74204000D01*
G75*
G02*
X24236000Y-74004000I200000J0D01*
G01*
X25736000Y-74004000D01*
G75*
G02*
X25936000Y-74204000I0J-200000D01*
G01*
X25936000Y-74804000D01*
G75*
G02*
X25736000Y-75004000I-200000J0D01*
G01*
X24236000Y-75004000D01*
G75*
G02*
X24036000Y-74804000I0J200000D01*
G01*
G37*
G36*
G01*
X24036000Y-73534000D02*
X24036000Y-72934000D01*
G75*
G02*
X24236000Y-72734000I200000J0D01*
G01*
X25736000Y-72734000D01*
G75*
G02*
X25936000Y-72934000I0J-200000D01*
G01*
X25936000Y-73534000D01*
G75*
G02*
X25736000Y-73734000I-200000J0D01*
G01*
X24236000Y-73734000D01*
G75*
G02*
X24036000Y-73534000I0J200000D01*
G01*
G37*
G36*
G01*
X24036000Y-72264000D02*
X24036000Y-71664000D01*
G75*
G02*
X24236000Y-71464000I200000J0D01*
G01*
X25736000Y-71464000D01*
G75*
G02*
X25936000Y-71664000I0J-200000D01*
G01*
X25936000Y-72264000D01*
G75*
G02*
X25736000Y-72464000I-200000J0D01*
G01*
X24236000Y-72464000D01*
G75*
G02*
X24036000Y-72264000I0J200000D01*
G01*
G37*
G36*
G01*
X29436000Y-72264000D02*
X29436000Y-71664000D01*
G75*
G02*
X29636000Y-71464000I200000J0D01*
G01*
X31136000Y-71464000D01*
G75*
G02*
X31336000Y-71664000I0J-200000D01*
G01*
X31336000Y-72264000D01*
G75*
G02*
X31136000Y-72464000I-200000J0D01*
G01*
X29636000Y-72464000D01*
G75*
G02*
X29436000Y-72264000I0J200000D01*
G01*
G37*
G36*
G01*
X29436000Y-73534000D02*
X29436000Y-72934000D01*
G75*
G02*
X29636000Y-72734000I200000J0D01*
G01*
X31136000Y-72734000D01*
G75*
G02*
X31336000Y-72934000I0J-200000D01*
G01*
X31336000Y-73534000D01*
G75*
G02*
X31136000Y-73734000I-200000J0D01*
G01*
X29636000Y-73734000D01*
G75*
G02*
X29436000Y-73534000I0J200000D01*
G01*
G37*
G36*
G01*
X29436000Y-74804000D02*
X29436000Y-74204000D01*
G75*
G02*
X29636000Y-74004000I200000J0D01*
G01*
X31136000Y-74004000D01*
G75*
G02*
X31336000Y-74204000I0J-200000D01*
G01*
X31336000Y-74804000D01*
G75*
G02*
X31136000Y-75004000I-200000J0D01*
G01*
X29636000Y-75004000D01*
G75*
G02*
X29436000Y-74804000I0J200000D01*
G01*
G37*
G36*
G01*
X29436000Y-76074000D02*
X29436000Y-75474000D01*
G75*
G02*
X29636000Y-75274000I200000J0D01*
G01*
X31136000Y-75274000D01*
G75*
G02*
X31336000Y-75474000I0J-200000D01*
G01*
X31336000Y-76074000D01*
G75*
G02*
X31136000Y-76274000I-200000J0D01*
G01*
X29636000Y-76274000D01*
G75*
G02*
X29436000Y-76074000I0J200000D01*
G01*
G37*
G36*
G01*
X29436000Y-77344000D02*
X29436000Y-76744000D01*
G75*
G02*
X29636000Y-76544000I200000J0D01*
G01*
X31136000Y-76544000D01*
G75*
G02*
X31336000Y-76744000I0J-200000D01*
G01*
X31336000Y-77344000D01*
G75*
G02*
X31136000Y-77544000I-200000J0D01*
G01*
X29636000Y-77544000D01*
G75*
G02*
X29436000Y-77344000I0J200000D01*
G01*
G37*
G36*
G01*
X29436000Y-78614000D02*
X29436000Y-78014000D01*
G75*
G02*
X29636000Y-77814000I200000J0D01*
G01*
X31136000Y-77814000D01*
G75*
G02*
X31336000Y-78014000I0J-200000D01*
G01*
X31336000Y-78614000D01*
G75*
G02*
X31136000Y-78814000I-200000J0D01*
G01*
X29636000Y-78814000D01*
G75*
G02*
X29436000Y-78614000I0J200000D01*
G01*
G37*
G36*
G01*
X29436000Y-79884000D02*
X29436000Y-79284000D01*
G75*
G02*
X29636000Y-79084000I200000J0D01*
G01*
X31136000Y-79084000D01*
G75*
G02*
X31336000Y-79284000I0J-200000D01*
G01*
X31336000Y-79884000D01*
G75*
G02*
X31136000Y-80084000I-200000J0D01*
G01*
X29636000Y-80084000D01*
G75*
G02*
X29436000Y-79884000I0J200000D01*
G01*
G37*
G04 #@! TD*
G04 #@! TO.C,U3*
G36*
G01*
X24100000Y-62130000D02*
X24100000Y-61530000D01*
G75*
G02*
X24300000Y-61330000I200000J0D01*
G01*
X25800000Y-61330000D01*
G75*
G02*
X26000000Y-61530000I0J-200000D01*
G01*
X26000000Y-62130000D01*
G75*
G02*
X25800000Y-62330000I-200000J0D01*
G01*
X24300000Y-62330000D01*
G75*
G02*
X24100000Y-62130000I0J200000D01*
G01*
G37*
G36*
G01*
X24100000Y-60860000D02*
X24100000Y-60260000D01*
G75*
G02*
X24300000Y-60060000I200000J0D01*
G01*
X25800000Y-60060000D01*
G75*
G02*
X26000000Y-60260000I0J-200000D01*
G01*
X26000000Y-60860000D01*
G75*
G02*
X25800000Y-61060000I-200000J0D01*
G01*
X24300000Y-61060000D01*
G75*
G02*
X24100000Y-60860000I0J200000D01*
G01*
G37*
G36*
G01*
X24100000Y-59590000D02*
X24100000Y-58990000D01*
G75*
G02*
X24300000Y-58790000I200000J0D01*
G01*
X25800000Y-58790000D01*
G75*
G02*
X26000000Y-58990000I0J-200000D01*
G01*
X26000000Y-59590000D01*
G75*
G02*
X25800000Y-59790000I-200000J0D01*
G01*
X24300000Y-59790000D01*
G75*
G02*
X24100000Y-59590000I0J200000D01*
G01*
G37*
G36*
G01*
X24100000Y-58320000D02*
X24100000Y-57720000D01*
G75*
G02*
X24300000Y-57520000I200000J0D01*
G01*
X25800000Y-57520000D01*
G75*
G02*
X26000000Y-57720000I0J-200000D01*
G01*
X26000000Y-58320000D01*
G75*
G02*
X25800000Y-58520000I-200000J0D01*
G01*
X24300000Y-58520000D01*
G75*
G02*
X24100000Y-58320000I0J200000D01*
G01*
G37*
G36*
G01*
X24100000Y-57050000D02*
X24100000Y-56450000D01*
G75*
G02*
X24300000Y-56250000I200000J0D01*
G01*
X25800000Y-56250000D01*
G75*
G02*
X26000000Y-56450000I0J-200000D01*
G01*
X26000000Y-57050000D01*
G75*
G02*
X25800000Y-57250000I-200000J0D01*
G01*
X24300000Y-57250000D01*
G75*
G02*
X24100000Y-57050000I0J200000D01*
G01*
G37*
G36*
G01*
X24100000Y-55780000D02*
X24100000Y-55180000D01*
G75*
G02*
X24300000Y-54980000I200000J0D01*
G01*
X25800000Y-54980000D01*
G75*
G02*
X26000000Y-55180000I0J-200000D01*
G01*
X26000000Y-55780000D01*
G75*
G02*
X25800000Y-55980000I-200000J0D01*
G01*
X24300000Y-55980000D01*
G75*
G02*
X24100000Y-55780000I0J200000D01*
G01*
G37*
G36*
G01*
X24100000Y-54510000D02*
X24100000Y-53910000D01*
G75*
G02*
X24300000Y-53710000I200000J0D01*
G01*
X25800000Y-53710000D01*
G75*
G02*
X26000000Y-53910000I0J-200000D01*
G01*
X26000000Y-54510000D01*
G75*
G02*
X25800000Y-54710000I-200000J0D01*
G01*
X24300000Y-54710000D01*
G75*
G02*
X24100000Y-54510000I0J200000D01*
G01*
G37*
G36*
G01*
X29500000Y-54510000D02*
X29500000Y-53910000D01*
G75*
G02*
X29700000Y-53710000I200000J0D01*
G01*
X31200000Y-53710000D01*
G75*
G02*
X31400000Y-53910000I0J-200000D01*
G01*
X31400000Y-54510000D01*
G75*
G02*
X31200000Y-54710000I-200000J0D01*
G01*
X29700000Y-54710000D01*
G75*
G02*
X29500000Y-54510000I0J200000D01*
G01*
G37*
G36*
G01*
X29500000Y-55780000D02*
X29500000Y-55180000D01*
G75*
G02*
X29700000Y-54980000I200000J0D01*
G01*
X31200000Y-54980000D01*
G75*
G02*
X31400000Y-55180000I0J-200000D01*
G01*
X31400000Y-55780000D01*
G75*
G02*
X31200000Y-55980000I-200000J0D01*
G01*
X29700000Y-55980000D01*
G75*
G02*
X29500000Y-55780000I0J200000D01*
G01*
G37*
G36*
G01*
X29500000Y-57050000D02*
X29500000Y-56450000D01*
G75*
G02*
X29700000Y-56250000I200000J0D01*
G01*
X31200000Y-56250000D01*
G75*
G02*
X31400000Y-56450000I0J-200000D01*
G01*
X31400000Y-57050000D01*
G75*
G02*
X31200000Y-57250000I-200000J0D01*
G01*
X29700000Y-57250000D01*
G75*
G02*
X29500000Y-57050000I0J200000D01*
G01*
G37*
G36*
G01*
X29500000Y-58320000D02*
X29500000Y-57720000D01*
G75*
G02*
X29700000Y-57520000I200000J0D01*
G01*
X31200000Y-57520000D01*
G75*
G02*
X31400000Y-57720000I0J-200000D01*
G01*
X31400000Y-58320000D01*
G75*
G02*
X31200000Y-58520000I-200000J0D01*
G01*
X29700000Y-58520000D01*
G75*
G02*
X29500000Y-58320000I0J200000D01*
G01*
G37*
G36*
G01*
X29500000Y-59590000D02*
X29500000Y-58990000D01*
G75*
G02*
X29700000Y-58790000I200000J0D01*
G01*
X31200000Y-58790000D01*
G75*
G02*
X31400000Y-58990000I0J-200000D01*
G01*
X31400000Y-59590000D01*
G75*
G02*
X31200000Y-59790000I-200000J0D01*
G01*
X29700000Y-59790000D01*
G75*
G02*
X29500000Y-59590000I0J200000D01*
G01*
G37*
G36*
G01*
X29500000Y-60860000D02*
X29500000Y-60260000D01*
G75*
G02*
X29700000Y-60060000I200000J0D01*
G01*
X31200000Y-60060000D01*
G75*
G02*
X31400000Y-60260000I0J-200000D01*
G01*
X31400000Y-60860000D01*
G75*
G02*
X31200000Y-61060000I-200000J0D01*
G01*
X29700000Y-61060000D01*
G75*
G02*
X29500000Y-60860000I0J200000D01*
G01*
G37*
G36*
G01*
X29500000Y-62130000D02*
X29500000Y-61530000D01*
G75*
G02*
X29700000Y-61330000I200000J0D01*
G01*
X31200000Y-61330000D01*
G75*
G02*
X31400000Y-61530000I0J-200000D01*
G01*
X31400000Y-62130000D01*
G75*
G02*
X31200000Y-62330000I-200000J0D01*
G01*
X29700000Y-62330000D01*
G75*
G02*
X29500000Y-62130000I0J200000D01*
G01*
G37*
G04 #@! TD*
D16*
G04 #@! TO.C,RV5*
X48500000Y-80100000D03*
X48500000Y-77560000D03*
X48500000Y-75020000D03*
G04 #@! TD*
G04 #@! TO.C,RV6*
X54625000Y-80200000D03*
X54625000Y-77660000D03*
X54625000Y-75120000D03*
G04 #@! TD*
G04 #@! TO.C,RV7*
X42500000Y-63920000D03*
X42500000Y-66460000D03*
X42500000Y-69000000D03*
G04 #@! TD*
G04 #@! TO.C,RV8*
X42500000Y-74920000D03*
X42500000Y-77460000D03*
X42500000Y-80000000D03*
G04 #@! TD*
G04 #@! TO.C,C13*
G36*
G01*
X45900000Y-98900000D02*
X45900000Y-97300000D01*
G75*
G02*
X46100000Y-97100000I200000J0D01*
G01*
X47700000Y-97100000D01*
G75*
G02*
X47900000Y-97300000I0J-200000D01*
G01*
X47900000Y-98900000D01*
G75*
G02*
X47700000Y-99100000I-200000J0D01*
G01*
X46100000Y-99100000D01*
G75*
G02*
X45900000Y-98900000I0J200000D01*
G01*
G37*
D17*
X48900000Y-98100000D03*
G04 #@! TD*
G04 #@! TO.C,C17*
G36*
G01*
X22360000Y-38580000D02*
X23960000Y-38580000D01*
G75*
G02*
X24160000Y-38780000I0J-200000D01*
G01*
X24160000Y-40380000D01*
G75*
G02*
X23960000Y-40580000I-200000J0D01*
G01*
X22360000Y-40580000D01*
G75*
G02*
X22160000Y-40380000I0J200000D01*
G01*
X22160000Y-38780000D01*
G75*
G02*
X22360000Y-38580000I200000J0D01*
G01*
G37*
X23160000Y-42080000D03*
G04 #@! TD*
G04 #@! TO.C,C18*
X41020000Y-45350000D03*
G36*
G01*
X40220000Y-41850000D02*
X41820000Y-41850000D01*
G75*
G02*
X42020000Y-42050000I0J-200000D01*
G01*
X42020000Y-43650000D01*
G75*
G02*
X41820000Y-43850000I-200000J0D01*
G01*
X40220000Y-43850000D01*
G75*
G02*
X40020000Y-43650000I0J200000D01*
G01*
X40020000Y-42050000D01*
G75*
G02*
X40220000Y-41850000I200000J0D01*
G01*
G37*
G04 #@! TD*
M02*
