G04 #@! TF.GenerationSoftware,KiCad,Pcbnew,(5.1.9)-1*
G04 #@! TF.CreationDate,2021-03-20T12:47:07+00:00*
G04 #@! TF.ProjectId,board v2,626f6172-6420-4763-922e-6b696361645f,rev?*
G04 #@! TF.SameCoordinates,Original*
G04 #@! TF.FileFunction,Copper,L1,Top*
G04 #@! TF.FilePolarity,Positive*
%FSLAX46Y46*%
G04 Gerber Fmt 4.6, Leading zero omitted, Abs format (unit mm)*
G04 Created by KiCad (PCBNEW (5.1.9)-1) date 2021-03-20 12:47:07*
%MOMM*%
%LPD*%
G01*
G04 APERTURE LIST*
G04 #@! TA.AperFunction,Profile*
%ADD10C,0.150000*%
G04 #@! TD*
G04 #@! TA.AperFunction,ComponentPad*
%ADD11R,1.100000X1.800000*%
G04 #@! TD*
G04 #@! TA.AperFunction,ComponentPad*
%ADD12R,1.800000X1.800000*%
G04 #@! TD*
G04 #@! TA.AperFunction,ComponentPad*
%ADD13C,1.800000*%
G04 #@! TD*
G04 #@! TA.AperFunction,ComponentPad*
%ADD14O,2.200000X2.200000*%
G04 #@! TD*
G04 #@! TA.AperFunction,ComponentPad*
%ADD15R,2.200000X2.200000*%
G04 #@! TD*
G04 #@! TA.AperFunction,ComponentPad*
%ADD16C,2.000000*%
G04 #@! TD*
G04 #@! TA.AperFunction,ComponentPad*
%ADD17R,1.727200X1.727200*%
G04 #@! TD*
G04 #@! TA.AperFunction,ComponentPad*
%ADD18O,1.727200X1.727200*%
G04 #@! TD*
G04 #@! TA.AperFunction,ComponentPad*
%ADD19C,1.300000*%
G04 #@! TD*
G04 #@! TA.AperFunction,ComponentPad*
%ADD20C,1.440000*%
G04 #@! TD*
G04 #@! TA.AperFunction,ComponentPad*
%ADD21R,1.600000X1.600000*%
G04 #@! TD*
G04 #@! TA.AperFunction,ComponentPad*
%ADD22C,1.600000*%
G04 #@! TD*
G04 #@! TA.AperFunction,ViaPad*
%ADD23C,0.800000*%
G04 #@! TD*
G04 #@! TA.AperFunction,Conductor*
%ADD24C,0.300000*%
G04 #@! TD*
G04 #@! TA.AperFunction,Conductor*
%ADD25C,0.600000*%
G04 #@! TD*
G04 #@! TA.AperFunction,Conductor*
%ADD26C,0.254000*%
G04 #@! TD*
G04 #@! TA.AperFunction,Conductor*
%ADD27C,0.400000*%
G04 #@! TD*
G04 APERTURE END LIST*
D10*
X57658000Y-12700000D02*
X17780000Y-12700000D01*
X57658000Y-112268000D02*
X57658000Y-12700000D01*
X17780000Y-112268000D02*
X57658000Y-112268000D01*
X17780000Y-12700000D02*
X17780000Y-112268000D01*
D11*
G04 #@! TO.P,U4,1*
G04 #@! TO.N,+5V*
X39116000Y-98952000D03*
G04 #@! TO.P,U4,3*
G04 #@! TO.N,+12V*
G04 #@! TA.AperFunction,ComponentPad*
G36*
G01*
X37126000Y-98327000D02*
X37126000Y-99577000D01*
G75*
G02*
X36851000Y-99852000I-275000J0D01*
G01*
X36301000Y-99852000D01*
G75*
G02*
X36026000Y-99577000I0J275000D01*
G01*
X36026000Y-98327000D01*
G75*
G02*
X36301000Y-98052000I275000J0D01*
G01*
X36851000Y-98052000D01*
G75*
G02*
X37126000Y-98327000I0J-275000D01*
G01*
G37*
G04 #@! TD.AperFunction*
G04 #@! TO.P,U4,2*
G04 #@! TO.N,GND*
G04 #@! TA.AperFunction,ComponentPad*
G36*
G01*
X38396000Y-96257000D02*
X38396000Y-97507000D01*
G75*
G02*
X38121000Y-97782000I-275000J0D01*
G01*
X37571000Y-97782000D01*
G75*
G02*
X37296000Y-97507000I0J275000D01*
G01*
X37296000Y-96257000D01*
G75*
G02*
X37571000Y-95982000I275000J0D01*
G01*
X38121000Y-95982000D01*
G75*
G02*
X38396000Y-96257000I0J-275000D01*
G01*
G37*
G04 #@! TD.AperFunction*
G04 #@! TD*
D12*
G04 #@! TO.P,D1,1*
G04 #@! TO.N,Net-(D1-Pad1)*
X36600000Y-15300000D03*
D13*
G04 #@! TO.P,D1,2*
G04 #@! TO.N,ledA*
X34060000Y-15300000D03*
G04 #@! TD*
G04 #@! TO.P,D2,2*
G04 #@! TO.N,ledC*
X34090000Y-35560000D03*
D12*
G04 #@! TO.P,D2,1*
G04 #@! TO.N,Net-(D2-Pad1)*
X36630000Y-35560000D03*
G04 #@! TD*
D13*
G04 #@! TO.P,D3,2*
G04 #@! TO.N,ledD*
X53900000Y-35810000D03*
D12*
G04 #@! TO.P,D3,1*
G04 #@! TO.N,Net-(D3-Pad1)*
X56440000Y-35810000D03*
G04 #@! TD*
D13*
G04 #@! TO.P,D4,2*
G04 #@! TO.N,ledB*
X53880000Y-15240000D03*
D12*
G04 #@! TO.P,D4,1*
G04 #@! TO.N,Net-(D4-Pad1)*
X56420000Y-15240000D03*
G04 #@! TD*
D14*
G04 #@! TO.P,D5,2*
G04 #@! TO.N,GND*
X20066000Y-30226000D03*
D15*
G04 #@! TO.P,D5,1*
G04 #@! TO.N,+12V*
X30226000Y-30226000D03*
G04 #@! TD*
G04 #@! TO.P,D6,1*
G04 #@! TO.N,GND*
X40060000Y-14650000D03*
D14*
G04 #@! TO.P,D6,2*
G04 #@! TO.N,-12V*
X40060000Y-24810000D03*
G04 #@! TD*
D16*
G04 #@! TO.P,F1,1*
G04 #@! TO.N,/-12Vin*
X45600000Y-55200000D03*
G04 #@! TO.P,F1,2*
G04 #@! TO.N,-12V*
X40600000Y-55200000D03*
G04 #@! TD*
G04 #@! TO.P,F2,2*
G04 #@! TO.N,/+12Vin*
X45700000Y-58700000D03*
G04 #@! TO.P,F2,1*
G04 #@! TO.N,+12V*
X40700000Y-58700000D03*
G04 #@! TD*
G04 #@! TO.P,J1,3*
G04 #@! TO.N,/Bin*
X42756666Y-86012000D03*
D13*
G04 #@! TO.P,J1,1*
G04 #@! TO.N,GND*
X42756666Y-96732000D03*
D16*
G04 #@! TO.P,J1,2*
G04 #@! TO.N,+5V*
X42756666Y-94312000D03*
G04 #@! TD*
G04 #@! TO.P,J2,2*
G04 #@! TO.N,GND*
X22606000Y-94312000D03*
D13*
G04 #@! TO.P,J2,1*
X22606000Y-96732000D03*
D16*
G04 #@! TO.P,J2,3*
G04 #@! TO.N,Ain*
X22606000Y-86012000D03*
G04 #@! TD*
G04 #@! TO.P,J3,3*
G04 #@! TO.N,/Cin*
X22606000Y-110584000D03*
D13*
G04 #@! TO.P,J3,1*
G04 #@! TO.N,GND*
X22606000Y-99864000D03*
D16*
G04 #@! TO.P,J3,2*
G04 #@! TO.N,Ain*
X22606000Y-102284000D03*
G04 #@! TD*
G04 #@! TO.P,J4,2*
G04 #@! TO.N,+5V*
X42756666Y-102284000D03*
D13*
G04 #@! TO.P,J4,1*
G04 #@! TO.N,GND*
X42756666Y-99864000D03*
D16*
G04 #@! TO.P,J4,3*
G04 #@! TO.N,/Din*
X42756666Y-110584000D03*
G04 #@! TD*
G04 #@! TO.P,J5,2*
G04 #@! TO.N,AoutSw*
X32681333Y-94312000D03*
D13*
G04 #@! TO.P,J5,1*
G04 #@! TO.N,GND*
X32681333Y-96732000D03*
D16*
G04 #@! TO.P,J5,3*
G04 #@! TO.N,Aout*
X32681333Y-86012000D03*
G04 #@! TD*
G04 #@! TO.P,J6,3*
G04 #@! TO.N,Bout*
X52832000Y-86012000D03*
D13*
G04 #@! TO.P,J6,1*
G04 #@! TO.N,GND*
X52832000Y-96732000D03*
D16*
G04 #@! TO.P,J6,2*
G04 #@! TO.N,BoutSw*
X52832000Y-94312000D03*
G04 #@! TD*
G04 #@! TO.P,J7,2*
G04 #@! TO.N,CoutSw*
X32681333Y-102284000D03*
D13*
G04 #@! TO.P,J7,1*
G04 #@! TO.N,GND*
X32681333Y-99864000D03*
D16*
G04 #@! TO.P,J7,3*
G04 #@! TO.N,Cout*
X32681333Y-110584000D03*
G04 #@! TD*
G04 #@! TO.P,J8,3*
G04 #@! TO.N,Dout*
X52832000Y-110584000D03*
D13*
G04 #@! TO.P,J8,1*
G04 #@! TO.N,GND*
X52832000Y-99864000D03*
D16*
G04 #@! TO.P,J8,2*
G04 #@! TO.N,N/C*
X52832000Y-102284000D03*
G04 #@! TD*
D17*
G04 #@! TO.P,J9,1*
G04 #@! TO.N,/+12Vin*
X51100000Y-64500000D03*
D18*
G04 #@! TO.P,J9,2*
X53640000Y-64500000D03*
G04 #@! TO.P,J9,3*
G04 #@! TO.N,GND*
X51100000Y-61960000D03*
G04 #@! TO.P,J9,4*
X53640000Y-61960000D03*
G04 #@! TO.P,J9,5*
X51100000Y-59420000D03*
G04 #@! TO.P,J9,6*
X53640000Y-59420000D03*
G04 #@! TO.P,J9,7*
X51100000Y-56880000D03*
G04 #@! TO.P,J9,8*
X53640000Y-56880000D03*
G04 #@! TO.P,J9,9*
G04 #@! TO.N,/-12Vin*
X51100000Y-54340000D03*
G04 #@! TO.P,J9,10*
X53640000Y-54340000D03*
G04 #@! TD*
D16*
G04 #@! TO.P,RV1,*
G04 #@! TO.N,*
X47511223Y-17037319D03*
X47511223Y-26637319D03*
D19*
G04 #@! TO.P,RV1,3*
G04 #@! TO.N,Net-(R24-Pad2)*
X55011223Y-19337319D03*
G04 #@! TO.P,RV1,2*
G04 #@! TO.N,/Bin*
X55011223Y-21837319D03*
G04 #@! TO.P,RV1,1*
G04 #@! TO.N,Net-(R6-Pad2)*
X55011223Y-24337319D03*
G04 #@! TD*
G04 #@! TO.P,RV2,1*
G04 #@! TO.N,Net-(R5-Pad2)*
X35193832Y-24358377D03*
G04 #@! TO.P,RV2,2*
G04 #@! TO.N,Ain*
X35193832Y-21858377D03*
G04 #@! TO.P,RV2,3*
G04 #@! TO.N,Net-(R22-Pad2)*
X35193832Y-19358377D03*
D16*
G04 #@! TO.P,RV2,*
G04 #@! TO.N,*
X27693832Y-26658377D03*
X27693832Y-17058377D03*
G04 #@! TD*
D19*
G04 #@! TO.P,RV3,1*
G04 #@! TO.N,Net-(R8-Pad2)*
X35209078Y-44899704D03*
G04 #@! TO.P,RV3,2*
G04 #@! TO.N,/Cin*
X35209078Y-42399704D03*
G04 #@! TO.P,RV3,3*
G04 #@! TO.N,Net-(R26-Pad2)*
X35209078Y-39899704D03*
D16*
G04 #@! TO.P,RV3,*
G04 #@! TO.N,*
X27709078Y-47199704D03*
X27709078Y-37599704D03*
G04 #@! TD*
G04 #@! TO.P,RV4,*
G04 #@! TO.N,*
X47522000Y-37612000D03*
X47522000Y-47212000D03*
D19*
G04 #@! TO.P,RV4,3*
G04 #@! TO.N,Net-(R28-Pad2)*
X55022000Y-39912000D03*
G04 #@! TO.P,RV4,2*
G04 #@! TO.N,/Din*
X55022000Y-42412000D03*
G04 #@! TO.P,RV4,1*
G04 #@! TO.N,Net-(R10-Pad2)*
X55022000Y-44912000D03*
G04 #@! TD*
D20*
G04 #@! TO.P,RV5,1*
G04 #@! TO.N,Net-(R32-Pad2)*
X48500000Y-80100000D03*
G04 #@! TO.P,RV5,2*
G04 #@! TO.N,Net-(C5-Pad2)*
X48500000Y-77560000D03*
G04 #@! TO.P,RV5,3*
X48500000Y-75020000D03*
G04 #@! TD*
G04 #@! TO.P,RV6,1*
G04 #@! TO.N,Net-(R33-Pad2)*
X54625000Y-80200000D03*
G04 #@! TO.P,RV6,2*
G04 #@! TO.N,Net-(C6-Pad2)*
X54625000Y-77660000D03*
G04 #@! TO.P,RV6,3*
X54625000Y-75120000D03*
G04 #@! TD*
G04 #@! TO.P,RV7,3*
G04 #@! TO.N,Net-(C7-Pad2)*
X42500000Y-63920000D03*
G04 #@! TO.P,RV7,2*
X42500000Y-66460000D03*
G04 #@! TO.P,RV7,1*
G04 #@! TO.N,Net-(R34-Pad2)*
X42500000Y-69000000D03*
G04 #@! TD*
G04 #@! TO.P,RV8,3*
G04 #@! TO.N,Net-(C8-Pad2)*
X42500000Y-74920000D03*
G04 #@! TO.P,RV8,2*
X42500000Y-77460000D03*
G04 #@! TO.P,RV8,1*
G04 #@! TO.N,Net-(R35-Pad2)*
X42500000Y-80000000D03*
G04 #@! TD*
D21*
G04 #@! TO.P,C13,1*
G04 #@! TO.N,+5V*
X46900000Y-98100000D03*
D22*
G04 #@! TO.P,C13,2*
G04 #@! TO.N,GND*
X48900000Y-98100000D03*
G04 #@! TD*
D21*
G04 #@! TO.P,C17,1*
G04 #@! TO.N,+12V*
X23160000Y-39580000D03*
D22*
G04 #@! TO.P,C17,2*
G04 #@! TO.N,GND*
X23160000Y-42080000D03*
G04 #@! TD*
G04 #@! TO.P,C18,2*
G04 #@! TO.N,-12V*
X41020000Y-45350000D03*
D21*
G04 #@! TO.P,C18,1*
G04 #@! TO.N,GND*
X41020000Y-42850000D03*
G04 #@! TD*
D23*
G04 #@! TO.N,Net-(C1-Pad2)*
X29300000Y-70725000D03*
X29350000Y-62850000D03*
G04 #@! TO.N,Net-(C2-Pad2)*
X26575000Y-91100000D03*
X26300000Y-78350000D03*
X26425000Y-69475000D03*
X37805258Y-37560001D03*
X48880000Y-21087319D03*
G04 #@! TO.N,Net-(C3-Pad2)*
X29536011Y-48500000D03*
X38050001Y-48500000D03*
X37900000Y-91375000D03*
X46550000Y-91450000D03*
G04 #@! TO.N,Net-(C4-Pad2)*
X24975000Y-63675000D03*
X25000000Y-104100000D03*
X24842951Y-48976627D03*
X48914565Y-49089978D03*
G04 #@! TO.N,Net-(C5-Pad2)*
X36525000Y-77450000D03*
X28525000Y-63500000D03*
X28750000Y-78275000D03*
G04 #@! TO.N,Net-(C6-Pad2)*
X32725000Y-84400000D03*
X49625000Y-70025000D03*
X19450000Y-84425000D03*
X18955010Y-73650000D03*
X51480000Y-26480000D03*
X49635951Y-49782514D03*
G04 #@! TO.N,Bout*
X27675000Y-67175000D03*
X46775000Y-88575000D03*
X30875000Y-88575000D03*
X37150000Y-88525000D03*
G04 #@! TO.N,Cout*
X39350000Y-108625000D03*
X39325000Y-110825000D03*
X30775000Y-64300000D03*
G04 #@! TO.N,Net-(C7-Pad2)*
X36550000Y-59575000D03*
G04 #@! TO.N,Dout*
X20200000Y-66700000D03*
X22175000Y-108825000D03*
G04 #@! TO.N,Net-(C8-Pad2)*
X24900000Y-49975000D03*
X46450000Y-73500000D03*
X48500000Y-50000000D03*
X43770000Y-50000000D03*
G04 #@! TO.N,+12V*
X24150000Y-97900000D03*
X23625000Y-58020000D03*
X23625000Y-75225000D03*
G04 #@! TO.N,GND*
X23700000Y-56875000D03*
X23675000Y-59400000D03*
X36825000Y-74225000D03*
X42175000Y-73000000D03*
X55475000Y-105350000D03*
X34875000Y-93200000D03*
X21400000Y-59300000D03*
X29225000Y-56800000D03*
X26175000Y-56750000D03*
X52200000Y-32150000D03*
X52150000Y-28225000D03*
X51975000Y-34500000D03*
X31875000Y-81825000D03*
X31925000Y-77250000D03*
X34575000Y-89925000D03*
X47400000Y-22730000D03*
X43000000Y-22670000D03*
G04 #@! TO.N,-12V*
X31975000Y-75499000D03*
X36041000Y-57075000D03*
X31975000Y-59775000D03*
X39670000Y-37090000D03*
G04 #@! TO.N,+5V*
X38600000Y-94525000D03*
G04 #@! TO.N,Net-(R12-Pad2)*
X36900000Y-89600000D03*
X44750000Y-89550000D03*
G04 #@! TO.N,Net-(R19-Pad1)*
X48870000Y-33620000D03*
X51860000Y-46610000D03*
G04 #@! TO.N,Net-(R21-Pad1)*
X50220000Y-30810000D03*
X53062473Y-47360000D03*
G04 #@! TO.N,Net-(R32-Pad2)*
X34175000Y-84100000D03*
G04 #@! TO.N,Net-(R33-Pad2)*
X36505331Y-68294669D03*
G04 #@! TO.N,Net-(R34-Pad2)*
X33325000Y-66600000D03*
G04 #@! TO.N,Net-(R35-Pad2)*
X24525000Y-51000000D03*
X47200000Y-76550000D03*
X49100000Y-50875000D03*
G04 #@! TO.N,/Bin*
X38650000Y-85825000D03*
X38710000Y-37990000D03*
G04 #@! TO.N,/Cin*
X24730000Y-44820000D03*
G04 #@! TO.N,/Din*
X40025000Y-105100000D03*
X38780000Y-46650000D03*
X44750000Y-46760000D03*
X44756990Y-43546990D03*
G04 #@! TD*
D24*
G04 #@! TO.N,Net-(C1-Pad2)*
X29300000Y-70725000D02*
X29300000Y-62900000D01*
X29300000Y-62900000D02*
X29350000Y-62850000D01*
G04 #@! TO.N,Net-(C2-Pad2)*
X26400000Y-90925000D02*
X26575000Y-91100000D01*
X26400000Y-78450000D02*
X26300000Y-78350000D01*
X26400000Y-81325000D02*
X26400000Y-90925000D01*
X26400000Y-80700000D02*
X26400000Y-81325000D01*
X26400000Y-69500000D02*
X26425000Y-69475000D01*
X26400000Y-78975000D02*
X26400000Y-69500000D01*
X26400000Y-78975000D02*
X26400000Y-78450000D01*
X26400000Y-81325000D02*
X26400000Y-78975000D01*
X40929559Y-21087319D02*
X48880000Y-21087319D01*
X38109989Y-23906889D02*
X40929559Y-21087319D01*
X38109989Y-37255270D02*
X38109989Y-23906889D01*
X37805258Y-37560001D02*
X38109989Y-37255270D01*
G04 #@! TO.N,Net-(C3-Pad2)*
X29536011Y-48500000D02*
X38050001Y-48500000D01*
X37900000Y-91375000D02*
X46475000Y-91375000D01*
X46475000Y-91375000D02*
X46550000Y-91450000D01*
G04 #@! TO.N,Net-(C4-Pad2)*
X24975000Y-63675000D02*
X24975000Y-103225000D01*
X24975000Y-103225000D02*
X24975000Y-104075000D01*
X24975000Y-104075000D02*
X25000000Y-104100000D01*
X25682009Y-49250000D02*
X43750000Y-49250000D01*
X25408636Y-48976627D02*
X25682009Y-49250000D01*
X24842951Y-48976627D02*
X25408636Y-48976627D01*
X43750000Y-49250000D02*
X48825000Y-49250000D01*
X48825000Y-49179543D02*
X48914565Y-49089978D01*
X48825000Y-49250000D02*
X48825000Y-49179543D01*
G04 #@! TO.N,Net-(C5-Pad2)*
X47780001Y-78279999D02*
X48500000Y-77560000D01*
X44989999Y-81070001D02*
X47780001Y-78279999D01*
X40145001Y-81070001D02*
X44989999Y-81070001D01*
X36525000Y-77450000D02*
X40145001Y-81070001D01*
X28525000Y-63500000D02*
X28525000Y-71725000D01*
X28525000Y-71725000D02*
X28500000Y-71750000D01*
X28525000Y-71725000D02*
X28525000Y-78050000D01*
X28525000Y-78050000D02*
X28750000Y-78275000D01*
G04 #@! TO.N,Aout*
X32393333Y-86300000D02*
X32681333Y-86012000D01*
G04 #@! TO.N,Net-(C6-Pad2)*
X41524999Y-84850001D02*
X41824990Y-84550010D01*
X33740686Y-84850001D02*
X41524999Y-84850001D01*
X33290685Y-84400000D02*
X33740686Y-84850001D01*
X32725000Y-84400000D02*
X33290685Y-84400000D01*
X54625000Y-75120000D02*
X49625000Y-70120000D01*
X49625000Y-70120000D02*
X49625000Y-70025000D01*
X48375000Y-84550010D02*
X54199990Y-84550010D01*
X48375000Y-84550010D02*
X48532110Y-84550010D01*
X41824990Y-84550010D02*
X48375000Y-84550010D01*
X55344999Y-78379999D02*
X54625000Y-77660000D01*
X55695001Y-78730001D02*
X55344999Y-78379999D01*
X55695001Y-83054999D02*
X55695001Y-78730001D01*
X54199990Y-84550010D02*
X55695001Y-83054999D01*
X19450000Y-83859315D02*
X19450000Y-84425000D01*
X18250000Y-82659315D02*
X19450000Y-83859315D01*
X18955010Y-73650000D02*
X18250000Y-74355010D01*
X18250000Y-74355010D02*
X18250000Y-82659315D01*
X51080001Y-26879999D02*
X51080001Y-35520001D01*
X51480000Y-26480000D02*
X51080001Y-26879999D01*
X51080001Y-35520001D02*
X52670000Y-37110000D01*
X52960008Y-37400008D02*
X52960008Y-37580008D01*
X52670000Y-37110000D02*
X52960008Y-37400008D01*
X52960008Y-37580008D02*
X53690000Y-38310000D01*
X53690000Y-38310000D02*
X53690000Y-46810000D01*
X53812474Y-47720001D02*
X51749961Y-49782514D01*
X53812474Y-46932474D02*
X53812474Y-47720001D01*
X51749961Y-49782514D02*
X49635951Y-49782514D01*
X53690000Y-46810000D02*
X53812474Y-46932474D01*
G04 #@! TO.N,Bout*
X46575000Y-88575000D02*
X46775000Y-88575000D01*
X27675000Y-88425000D02*
X27825000Y-88575000D01*
X27675000Y-67175000D02*
X27675000Y-88425000D01*
X27825000Y-88575000D02*
X30875000Y-88575000D01*
X46725000Y-88525000D02*
X46775000Y-88575000D01*
X37150000Y-88525000D02*
X46725000Y-88525000D01*
G04 #@! TO.N,Cout*
X39350000Y-108625000D02*
X39350000Y-110800000D01*
X39350000Y-110800000D02*
X39325000Y-110825000D01*
X30984000Y-110584000D02*
X32681333Y-110584000D01*
X30775000Y-87364998D02*
X31625001Y-88214999D01*
X30775000Y-64300000D02*
X30775000Y-87364998D01*
X31625001Y-88214999D02*
X31625001Y-89574999D01*
X31625001Y-89574999D02*
X29550000Y-91650000D01*
X29550000Y-91650000D02*
X29550000Y-109150000D01*
X29550000Y-109150000D02*
X30984000Y-110584000D01*
G04 #@! TO.N,Net-(C7-Pad2)*
X40895000Y-63920000D02*
X42500000Y-63920000D01*
X36550000Y-59575000D02*
X40895000Y-63920000D01*
X42500000Y-63920000D02*
X42500000Y-66460000D01*
G04 #@! TO.N,Dout*
X20300000Y-106950000D02*
X22175000Y-108825000D01*
X20200000Y-106950000D02*
X20300000Y-106950000D01*
X20200000Y-66700000D02*
X20200000Y-106950000D01*
G04 #@! TO.N,Net-(C8-Pad2)*
X42500000Y-74920000D02*
X42500000Y-77460000D01*
X26225000Y-49975000D02*
X26250000Y-50000000D01*
X24900000Y-49975000D02*
X26225000Y-49975000D01*
X43225000Y-50000000D02*
X26250000Y-50000000D01*
X26250000Y-50000000D02*
X25975011Y-50000000D01*
X42500000Y-77460000D02*
X46450000Y-73510000D01*
X46450000Y-73510000D02*
X46450000Y-73500000D01*
X43770000Y-50000000D02*
X48500000Y-50000000D01*
X43225000Y-50000000D02*
X43770000Y-50000000D01*
D25*
G04 #@! TO.N,+12V*
X24150000Y-76399000D02*
X23525000Y-75774000D01*
X24150000Y-97900000D02*
X24150000Y-76399000D01*
X23525000Y-58120000D02*
X23625000Y-58020000D01*
X24190685Y-58020000D02*
X23625000Y-58020000D01*
X39285787Y-58700000D02*
X38605787Y-58020000D01*
X40700000Y-58700000D02*
X39285787Y-58700000D01*
X25050000Y-62200000D02*
X24050000Y-63200000D01*
X38605787Y-58020000D02*
X31875000Y-58020000D01*
X23160000Y-39580000D02*
X23160000Y-39720000D01*
X23625000Y-39115000D02*
X23160000Y-39580000D01*
X25970000Y-58020000D02*
X24190685Y-58020000D01*
X31875000Y-58020000D02*
X25970000Y-58020000D01*
X25970000Y-61347998D02*
X23525000Y-63792998D01*
X25970000Y-58020000D02*
X25970000Y-61347998D01*
X23525000Y-63792998D02*
X23525000Y-63885000D01*
X23525000Y-75774000D02*
X23525000Y-63885000D01*
X24600001Y-56650001D02*
X25970000Y-58020000D01*
X24600001Y-56442999D02*
X24600001Y-56650001D01*
X20700000Y-52542998D02*
X24600001Y-56442999D01*
X20700000Y-41980000D02*
X20700000Y-52542998D01*
X21799999Y-40880001D02*
X20700000Y-41980000D01*
X21859999Y-40880001D02*
X21799999Y-40880001D01*
X23160000Y-39580000D02*
X21859999Y-40880001D01*
X30100000Y-30100000D02*
X30226000Y-30226000D01*
X24125000Y-30100000D02*
X30100000Y-30100000D01*
X23160000Y-31065000D02*
X24125000Y-30100000D01*
X23160000Y-39580000D02*
X23160000Y-31065000D01*
G04 #@! TO.N,GND*
X53640000Y-61960000D02*
X51100000Y-61960000D01*
X51100000Y-61960000D02*
X51100000Y-56880000D01*
X51100000Y-56880000D02*
X53640000Y-56880000D01*
X53640000Y-56880000D02*
X53640000Y-61960000D01*
X51100000Y-59420000D02*
X53640000Y-59420000D01*
X36825000Y-74225000D02*
X40950000Y-74225000D01*
X40950000Y-74225000D02*
X42175000Y-73000000D01*
X34875000Y-94538333D02*
X32681333Y-96732000D01*
X34875000Y-93200000D02*
X34875000Y-94538333D01*
X23575000Y-59300000D02*
X23675000Y-59400000D01*
X21400000Y-59300000D02*
X23575000Y-59300000D01*
X29175000Y-56750000D02*
X29225000Y-56800000D01*
X26175000Y-56750000D02*
X29175000Y-56750000D01*
X52200000Y-32150000D02*
X52200000Y-28275000D01*
X52200000Y-28275000D02*
X52150000Y-28225000D01*
X51975000Y-32375000D02*
X52200000Y-32150000D01*
X51975000Y-34500000D02*
X51975000Y-32375000D01*
X43060000Y-22730000D02*
X43000000Y-22670000D01*
X47400000Y-22730000D02*
X43060000Y-22730000D01*
G04 #@! TO.N,-12V*
X38775001Y-57024999D02*
X40600000Y-55200000D01*
X38725000Y-57075000D02*
X38775001Y-57024999D01*
X36041000Y-57075000D02*
X38725000Y-57075000D01*
X31975000Y-75499000D02*
X31975000Y-59775000D01*
X40060000Y-24810000D02*
X40060000Y-25730000D01*
X40060000Y-25730000D02*
X41020000Y-26690000D01*
X41020000Y-35740000D02*
X39670000Y-37090000D01*
X41020000Y-26690000D02*
X41020000Y-35740000D01*
G04 #@! TO.N,+5V*
X43112000Y-94312000D02*
X46900000Y-98100000D01*
X42756666Y-94312000D02*
X43112000Y-94312000D01*
X42756666Y-102284000D02*
X42756666Y-102192666D01*
X42543666Y-94525000D02*
X42756666Y-94312000D01*
X38600000Y-94525000D02*
X42543666Y-94525000D01*
X46900000Y-98140666D02*
X42756666Y-102284000D01*
X46900000Y-98100000D02*
X46900000Y-98140666D01*
X45500000Y-98100000D02*
X46900000Y-98100000D01*
X45467999Y-98132001D02*
X45500000Y-98100000D01*
X40660999Y-98132001D02*
X45467999Y-98132001D01*
X40241000Y-98552000D02*
X40660999Y-98132001D01*
X39116000Y-98552000D02*
X40241000Y-98552000D01*
G04 #@! TO.N,/-12Vin*
X51100000Y-54340000D02*
X53640000Y-54340000D01*
X50240000Y-55200000D02*
X51100000Y-54340000D01*
X45600000Y-55200000D02*
X50240000Y-55200000D01*
G04 #@! TO.N,/+12Vin*
X53640000Y-64500000D02*
X51100000Y-64500000D01*
X45700000Y-60114213D02*
X45700000Y-58700000D01*
X45700000Y-60563600D02*
X45700000Y-60114213D01*
X49636400Y-64500000D02*
X45700000Y-60563600D01*
X51100000Y-64500000D02*
X49636400Y-64500000D01*
D24*
G04 #@! TO.N,Ain*
X22606000Y-102284000D02*
X21075000Y-100753000D01*
X21075000Y-87543000D02*
X22606000Y-86012000D01*
X21075000Y-100753000D02*
X21075000Y-87543000D01*
X22606000Y-84597787D02*
X22325000Y-84316787D01*
X22606000Y-86012000D02*
X22606000Y-84597787D01*
X22325000Y-84316787D02*
X22316787Y-84316787D01*
X22316787Y-84316787D02*
X21100000Y-83100000D01*
X21100000Y-83100000D02*
X21100000Y-66075000D01*
X21100000Y-66075000D02*
X18400000Y-63375000D01*
X18400000Y-63375000D02*
X18400000Y-23630000D01*
X33422209Y-23630000D02*
X35193832Y-21858377D01*
X18400000Y-23630000D02*
X33422209Y-23630000D01*
G04 #@! TO.N,Net-(R12-Pad2)*
X44100000Y-89550000D02*
X44750000Y-89550000D01*
X36900000Y-89600000D02*
X44050000Y-89600000D01*
X44050000Y-89600000D02*
X44100000Y-89550000D01*
G04 #@! TO.N,Net-(R19-Pad1)*
X48870000Y-33620000D02*
X48870000Y-35050000D01*
X48870000Y-35050000D02*
X51660000Y-37840000D01*
X51660000Y-38020000D02*
X52689980Y-39049980D01*
X51660000Y-37840000D02*
X51660000Y-38020000D01*
X51860000Y-46610000D02*
X52689980Y-45780020D01*
X52689980Y-45780020D02*
X52689980Y-45580020D01*
X52689980Y-39049980D02*
X52689980Y-45580020D01*
G04 #@! TO.N,Net-(R21-Pad1)*
X50220000Y-35367120D02*
X52460000Y-37607120D01*
X50220000Y-30810000D02*
X50220000Y-35367120D01*
X52460000Y-38100000D02*
X53189990Y-38829990D01*
X52460000Y-37607120D02*
X52460000Y-38100000D01*
X53189990Y-47232483D02*
X53189990Y-46710010D01*
X53062473Y-47360000D02*
X53189990Y-47232483D01*
X53189990Y-46710010D02*
X53189990Y-46950000D01*
X53189990Y-38829990D02*
X53189990Y-46710010D01*
G04 #@! TO.N,Net-(R32-Pad2)*
X48350000Y-80250000D02*
X48500000Y-80100000D01*
X48325000Y-84050000D02*
X48325000Y-80550000D01*
X48325000Y-84050000D02*
X34225000Y-84050000D01*
X34225000Y-84050000D02*
X34175000Y-84100000D01*
G04 #@! TO.N,Net-(R33-Pad2)*
X53905001Y-79480001D02*
X54625000Y-80200000D01*
X53554999Y-79129999D02*
X53905001Y-79480001D01*
X36505331Y-68294669D02*
X36905330Y-68694668D01*
X37244688Y-68694668D02*
X39200020Y-70650000D01*
X36905330Y-68694668D02*
X37244688Y-68694668D01*
X46300000Y-70650000D02*
X53554999Y-77904999D01*
X39200020Y-70650000D02*
X46300000Y-70650000D01*
X53554999Y-77904999D02*
X53554999Y-79129999D01*
G04 #@! TO.N,Net-(R34-Pad2)*
X40100000Y-66600000D02*
X42500000Y-69000000D01*
X33325000Y-66600000D02*
X40100000Y-66600000D01*
G04 #@! TO.N,Net-(R35-Pad2)*
X36885001Y-50599999D02*
X37128665Y-50843663D01*
X36164999Y-50599999D02*
X36885001Y-50599999D01*
X24525000Y-51000000D02*
X35764998Y-51000000D01*
X35764998Y-51000000D02*
X36164999Y-50599999D01*
X43575000Y-50843663D02*
X48581337Y-50843663D01*
X43575000Y-50843663D02*
X43761876Y-50843663D01*
X37128665Y-50843663D02*
X43575000Y-50843663D01*
X42500000Y-80000000D02*
X43750000Y-80000000D01*
X43750000Y-80000000D02*
X47200000Y-76550000D01*
X48612674Y-50875000D02*
X48581337Y-50843663D01*
X49100000Y-50875000D02*
X48612674Y-50875000D01*
G04 #@! TO.N,/Bin*
X42756666Y-86012000D02*
X38837000Y-86012000D01*
X38837000Y-86012000D02*
X38650000Y-85825000D01*
X38710000Y-36939998D02*
X39679998Y-35970000D01*
X38710000Y-37990000D02*
X38710000Y-36939998D01*
X39679998Y-35970000D02*
X39679998Y-27230002D01*
X40886679Y-21837319D02*
X55011223Y-21837319D01*
X38609999Y-24113999D02*
X40886679Y-21837319D01*
X38609999Y-26160003D02*
X38609999Y-24113999D01*
X39679998Y-27230002D02*
X38609999Y-26160003D01*
G04 #@! TO.N,/Cin*
X27150296Y-42399704D02*
X24730000Y-44820000D01*
X35209078Y-42399704D02*
X27150296Y-42399704D01*
G04 #@! TO.N,/Din*
X40025000Y-107852334D02*
X42756666Y-110584000D01*
X40025000Y-105100000D02*
X40025000Y-107852334D01*
X38910000Y-46520000D02*
X38780000Y-46650000D01*
X38890000Y-46760000D02*
X38780000Y-46650000D01*
X43420011Y-46760000D02*
X38890000Y-46760000D01*
X43420011Y-46760000D02*
X44750000Y-46760000D01*
G04 #@! TD*
D26*
G04 #@! TO.N,GND*
X33916891Y-24525454D02*
X33958213Y-24733198D01*
X34055079Y-24967053D01*
X34195707Y-25177517D01*
X34374692Y-25356502D01*
X34585156Y-25497130D01*
X34819011Y-25593996D01*
X35067271Y-25643377D01*
X35320393Y-25643377D01*
X35568653Y-25593996D01*
X35802508Y-25497130D01*
X36012972Y-25356502D01*
X36191957Y-25177517D01*
X36332585Y-24967053D01*
X36429451Y-24733198D01*
X36470454Y-24527057D01*
X37324990Y-24527594D01*
X37324989Y-34021928D01*
X35730000Y-34021928D01*
X35605518Y-34034188D01*
X35485820Y-34070498D01*
X35375506Y-34129463D01*
X35278815Y-34208815D01*
X35199463Y-34305506D01*
X35140498Y-34415820D01*
X35134944Y-34434127D01*
X35068505Y-34367688D01*
X34817095Y-34199701D01*
X34537743Y-34083989D01*
X34241184Y-34025000D01*
X33938816Y-34025000D01*
X33642257Y-34083989D01*
X33362905Y-34199701D01*
X33111495Y-34367688D01*
X32897688Y-34581495D01*
X32729701Y-34832905D01*
X32613989Y-35112257D01*
X32555000Y-35408816D01*
X32555000Y-35711184D01*
X32613989Y-36007743D01*
X32729701Y-36287095D01*
X32897688Y-36538505D01*
X33111495Y-36752312D01*
X33362905Y-36920299D01*
X33642257Y-37036011D01*
X33938816Y-37095000D01*
X34241184Y-37095000D01*
X34537743Y-37036011D01*
X34817095Y-36920299D01*
X35068505Y-36752312D01*
X35134944Y-36685873D01*
X35140498Y-36704180D01*
X35199463Y-36814494D01*
X35278815Y-36911185D01*
X35375506Y-36990537D01*
X35485820Y-37049502D01*
X35605518Y-37085812D01*
X35730000Y-37098072D01*
X36876319Y-37098072D01*
X36810032Y-37258103D01*
X36770258Y-37458062D01*
X36770258Y-37661940D01*
X36810032Y-37861899D01*
X36888053Y-38050257D01*
X37001321Y-38219775D01*
X37145484Y-38363938D01*
X37315002Y-38477206D01*
X37503360Y-38555227D01*
X37703319Y-38595001D01*
X37869465Y-38595001D01*
X37906063Y-38649774D01*
X38050226Y-38793937D01*
X38219744Y-38907205D01*
X38408102Y-38985226D01*
X38608061Y-39025000D01*
X38811939Y-39025000D01*
X39011898Y-38985226D01*
X39200256Y-38907205D01*
X39369774Y-38793937D01*
X39513937Y-38649774D01*
X39627205Y-38480256D01*
X39705226Y-38291898D01*
X39738424Y-38125000D01*
X39771939Y-38125000D01*
X39971898Y-38085226D01*
X40160256Y-38007205D01*
X40329774Y-37893937D01*
X40473937Y-37749774D01*
X40587205Y-37580256D01*
X40640758Y-37450967D01*
X45887000Y-37450967D01*
X45887000Y-37773033D01*
X45949832Y-38088912D01*
X46073082Y-38386463D01*
X46252013Y-38654252D01*
X46479748Y-38881987D01*
X46747537Y-39060918D01*
X47045088Y-39184168D01*
X47360967Y-39247000D01*
X47683033Y-39247000D01*
X47998912Y-39184168D01*
X48296463Y-39060918D01*
X48564252Y-38881987D01*
X48791987Y-38654252D01*
X48970918Y-38386463D01*
X49094168Y-38088912D01*
X49157000Y-37773033D01*
X49157000Y-37450967D01*
X49094168Y-37135088D01*
X48970918Y-36837537D01*
X48791987Y-36569748D01*
X48564252Y-36342013D01*
X48296463Y-36163082D01*
X47998912Y-36039832D01*
X47683033Y-35977000D01*
X47360967Y-35977000D01*
X47045088Y-36039832D01*
X46747537Y-36163082D01*
X46479748Y-36342013D01*
X46252013Y-36569748D01*
X46073082Y-36837537D01*
X45949832Y-37135088D01*
X45887000Y-37450967D01*
X40640758Y-37450967D01*
X40647431Y-37434858D01*
X41648664Y-36433626D01*
X41684344Y-36404344D01*
X41801186Y-36261972D01*
X41888007Y-36099540D01*
X41941471Y-35923292D01*
X41955000Y-35785932D01*
X41959524Y-35740001D01*
X41955000Y-35694069D01*
X41955000Y-26735931D01*
X41959524Y-26689999D01*
X41941471Y-26506708D01*
X41938630Y-26497344D01*
X41932243Y-26476286D01*
X45876223Y-26476286D01*
X45876223Y-26798352D01*
X45939055Y-27114231D01*
X46062305Y-27411782D01*
X46241236Y-27679571D01*
X46468971Y-27907306D01*
X46736760Y-28086237D01*
X47034311Y-28209487D01*
X47350190Y-28272319D01*
X47672256Y-28272319D01*
X47988135Y-28209487D01*
X48285686Y-28086237D01*
X48553475Y-27907306D01*
X48781210Y-27679571D01*
X48960141Y-27411782D01*
X49083391Y-27114231D01*
X49146223Y-26798352D01*
X49146223Y-26476286D01*
X49083391Y-26160407D01*
X48960141Y-25862856D01*
X48781210Y-25595067D01*
X48553475Y-25367332D01*
X48285686Y-25188401D01*
X47988135Y-25065151D01*
X47672256Y-25002319D01*
X47350190Y-25002319D01*
X47034311Y-25065151D01*
X46736760Y-25188401D01*
X46468971Y-25367332D01*
X46241236Y-25595067D01*
X46062305Y-25862856D01*
X45939055Y-26160407D01*
X45876223Y-26476286D01*
X41932243Y-26476286D01*
X41888007Y-26330460D01*
X41801186Y-26168028D01*
X41684344Y-26025656D01*
X41648665Y-25996375D01*
X41472000Y-25819710D01*
X41597537Y-25631831D01*
X41728325Y-25316081D01*
X41795000Y-24980883D01*
X41795000Y-24639117D01*
X41773372Y-24530386D01*
X53740946Y-24537899D01*
X53775604Y-24712140D01*
X53872470Y-24945995D01*
X54013098Y-25156459D01*
X54192083Y-25335444D01*
X54402547Y-25476072D01*
X54636402Y-25572938D01*
X54884662Y-25622319D01*
X55137784Y-25622319D01*
X55386044Y-25572938D01*
X55619899Y-25476072D01*
X55830363Y-25335444D01*
X56009348Y-25156459D01*
X56149976Y-24945995D01*
X56246842Y-24712140D01*
X56281183Y-24539493D01*
X56886374Y-24539873D01*
X56886374Y-34271928D01*
X55540000Y-34271928D01*
X55415518Y-34284188D01*
X55295820Y-34320498D01*
X55185506Y-34379463D01*
X55088815Y-34458815D01*
X55009463Y-34555506D01*
X54950498Y-34665820D01*
X54944944Y-34684127D01*
X54878505Y-34617688D01*
X54627095Y-34449701D01*
X54347743Y-34333989D01*
X54051184Y-34275000D01*
X53748816Y-34275000D01*
X53452257Y-34333989D01*
X53172905Y-34449701D01*
X52921495Y-34617688D01*
X52707688Y-34831495D01*
X52539701Y-35082905D01*
X52423989Y-35362257D01*
X52365000Y-35658816D01*
X52365000Y-35694843D01*
X51865001Y-35194844D01*
X51865001Y-27440803D01*
X51970256Y-27397205D01*
X52139774Y-27283937D01*
X52283937Y-27139774D01*
X52397205Y-26970256D01*
X52475226Y-26781898D01*
X52515000Y-26581939D01*
X52515000Y-26378061D01*
X52475226Y-26178102D01*
X52397205Y-25989744D01*
X52283937Y-25820226D01*
X52139774Y-25676063D01*
X51970256Y-25562795D01*
X51781898Y-25484774D01*
X51581939Y-25445000D01*
X51378061Y-25445000D01*
X51178102Y-25484774D01*
X50989744Y-25562795D01*
X50820226Y-25676063D01*
X50676063Y-25820226D01*
X50562795Y-25989744D01*
X50484774Y-26178102D01*
X50445000Y-26378061D01*
X50445000Y-26416348D01*
X50424139Y-26441767D01*
X50351247Y-26578140D01*
X50306360Y-26726113D01*
X50295001Y-26841439D01*
X50295001Y-26841446D01*
X50291204Y-26879999D01*
X50295001Y-26918552D01*
X50295001Y-29775000D01*
X50118061Y-29775000D01*
X49918102Y-29814774D01*
X49729744Y-29892795D01*
X49560226Y-30006063D01*
X49416063Y-30150226D01*
X49302795Y-30319744D01*
X49224774Y-30508102D01*
X49185000Y-30708061D01*
X49185000Y-30911939D01*
X49224774Y-31111898D01*
X49302795Y-31300256D01*
X49416063Y-31469774D01*
X49435000Y-31488711D01*
X49435000Y-32752737D01*
X49360256Y-32702795D01*
X49171898Y-32624774D01*
X48971939Y-32585000D01*
X48768061Y-32585000D01*
X48568102Y-32624774D01*
X48379744Y-32702795D01*
X48210226Y-32816063D01*
X48066063Y-32960226D01*
X47952795Y-33129744D01*
X47874774Y-33318102D01*
X47835000Y-33518061D01*
X47835000Y-33721939D01*
X47874774Y-33921898D01*
X47952795Y-34110256D01*
X48066063Y-34279774D01*
X48085000Y-34298711D01*
X48085001Y-35011438D01*
X48081203Y-35050000D01*
X48096359Y-35203886D01*
X48141246Y-35351859D01*
X48170015Y-35405681D01*
X48214139Y-35488233D01*
X48249868Y-35531768D01*
X48287655Y-35577812D01*
X48287659Y-35577816D01*
X48312237Y-35607764D01*
X48342185Y-35632342D01*
X50887504Y-38177661D01*
X50931246Y-38321860D01*
X51004138Y-38458233D01*
X51102236Y-38577764D01*
X51132189Y-38602346D01*
X51904980Y-39375137D01*
X51904981Y-45454861D01*
X51784842Y-45575000D01*
X51758061Y-45575000D01*
X51558102Y-45614774D01*
X51369744Y-45692795D01*
X51200226Y-45806063D01*
X51056063Y-45950226D01*
X50942795Y-46119744D01*
X50864774Y-46308102D01*
X50825000Y-46508061D01*
X50825000Y-46711939D01*
X50864774Y-46911898D01*
X50942795Y-47100256D01*
X51056063Y-47269774D01*
X51200226Y-47413937D01*
X51369744Y-47527205D01*
X51558102Y-47605226D01*
X51758061Y-47645000D01*
X51961939Y-47645000D01*
X52060006Y-47625493D01*
X52067247Y-47661898D01*
X52145268Y-47850256D01*
X52258536Y-48019774D01*
X52330540Y-48091778D01*
X51424804Y-48997514D01*
X50314662Y-48997514D01*
X50295725Y-48978577D01*
X50126207Y-48865309D01*
X49937849Y-48787288D01*
X49906914Y-48781135D01*
X49831770Y-48599722D01*
X49718502Y-48430204D01*
X49574339Y-48286041D01*
X49404821Y-48172773D01*
X49216463Y-48094752D01*
X49016504Y-48054978D01*
X48925138Y-48054978D01*
X48970918Y-47986463D01*
X49094168Y-47688912D01*
X49157000Y-47373033D01*
X49157000Y-47050967D01*
X49094168Y-46735088D01*
X48970918Y-46437537D01*
X48791987Y-46169748D01*
X48564252Y-45942013D01*
X48296463Y-45763082D01*
X47998912Y-45639832D01*
X47683033Y-45577000D01*
X47360967Y-45577000D01*
X47045088Y-45639832D01*
X46747537Y-45763082D01*
X46479748Y-45942013D01*
X46252013Y-46169748D01*
X46073082Y-46437537D01*
X45949832Y-46735088D01*
X45887000Y-47050967D01*
X45887000Y-47373033D01*
X45949832Y-47688912D01*
X46073082Y-47986463D01*
X46252013Y-48254252D01*
X46462761Y-48465000D01*
X39085001Y-48465000D01*
X39085001Y-48398061D01*
X39045227Y-48198102D01*
X38967206Y-48009744D01*
X38853938Y-47840226D01*
X38709775Y-47696063D01*
X38693218Y-47685000D01*
X38881939Y-47685000D01*
X39081898Y-47645226D01*
X39270256Y-47567205D01*
X39303488Y-47545000D01*
X44071289Y-47545000D01*
X44090226Y-47563937D01*
X44259744Y-47677205D01*
X44448102Y-47755226D01*
X44648061Y-47795000D01*
X44851939Y-47795000D01*
X45051898Y-47755226D01*
X45240256Y-47677205D01*
X45409774Y-47563937D01*
X45553937Y-47419774D01*
X45667205Y-47250256D01*
X45745226Y-47061898D01*
X45785000Y-46861939D01*
X45785000Y-46658061D01*
X45745226Y-46458102D01*
X45667205Y-46269744D01*
X45553937Y-46100226D01*
X45409774Y-45956063D01*
X45240256Y-45842795D01*
X45051898Y-45764774D01*
X44851939Y-45725000D01*
X44648061Y-45725000D01*
X44448102Y-45764774D01*
X44259744Y-45842795D01*
X44090226Y-45956063D01*
X44071289Y-45975000D01*
X42314349Y-45975000D01*
X42399853Y-45768574D01*
X42455000Y-45491335D01*
X42455000Y-45208665D01*
X42399853Y-44931426D01*
X42291680Y-44670273D01*
X42134637Y-44435241D01*
X41968057Y-44268661D01*
X42064180Y-44239502D01*
X42174494Y-44180537D01*
X42271185Y-44101185D01*
X42350537Y-44004494D01*
X42409502Y-43894180D01*
X42445812Y-43774482D01*
X42458072Y-43650000D01*
X42456848Y-43445051D01*
X43721990Y-43445051D01*
X43721990Y-43648929D01*
X43761764Y-43848888D01*
X43839785Y-44037246D01*
X43953053Y-44206764D01*
X44097216Y-44350927D01*
X44266734Y-44464195D01*
X44455092Y-44542216D01*
X44655051Y-44581990D01*
X44858929Y-44581990D01*
X45058888Y-44542216D01*
X45247246Y-44464195D01*
X45416764Y-44350927D01*
X45560927Y-44206764D01*
X45674195Y-44037246D01*
X45752216Y-43848888D01*
X45791990Y-43648929D01*
X45791990Y-43445051D01*
X45752216Y-43245092D01*
X45674195Y-43056734D01*
X45560927Y-42887216D01*
X45416764Y-42743053D01*
X45247246Y-42629785D01*
X45058888Y-42551764D01*
X44858929Y-42511990D01*
X44655051Y-42511990D01*
X44455092Y-42551764D01*
X44266734Y-42629785D01*
X44097216Y-42743053D01*
X43953053Y-42887216D01*
X43839785Y-43056734D01*
X43761764Y-43245092D01*
X43721990Y-43445051D01*
X42456848Y-43445051D01*
X42455000Y-43135750D01*
X42296250Y-42977000D01*
X41147000Y-42977000D01*
X41147000Y-42997000D01*
X40893000Y-42997000D01*
X40893000Y-42977000D01*
X39743750Y-42977000D01*
X39585000Y-43135750D01*
X39581928Y-43650000D01*
X39594188Y-43774482D01*
X39630498Y-43894180D01*
X39689463Y-44004494D01*
X39768815Y-44101185D01*
X39865506Y-44180537D01*
X39975820Y-44239502D01*
X40071943Y-44268661D01*
X39905363Y-44435241D01*
X39748320Y-44670273D01*
X39640147Y-44931426D01*
X39585000Y-45208665D01*
X39585000Y-45491335D01*
X39640147Y-45768574D01*
X39725651Y-45975000D01*
X39568711Y-45975000D01*
X39439774Y-45846063D01*
X39270256Y-45732795D01*
X39081898Y-45654774D01*
X38881939Y-45615000D01*
X38678061Y-45615000D01*
X38478102Y-45654774D01*
X38289744Y-45732795D01*
X38120226Y-45846063D01*
X37976063Y-45990226D01*
X37862795Y-46159744D01*
X37784774Y-46348102D01*
X37745000Y-46548061D01*
X37745000Y-46751939D01*
X37784774Y-46951898D01*
X37862795Y-47140256D01*
X37976063Y-47309774D01*
X38120226Y-47453937D01*
X38136783Y-47465000D01*
X37948062Y-47465000D01*
X37748103Y-47504774D01*
X37559745Y-47582795D01*
X37390227Y-47696063D01*
X37371290Y-47715000D01*
X30214722Y-47715000D01*
X30195785Y-47696063D01*
X30026267Y-47582795D01*
X29837909Y-47504774D01*
X29637950Y-47465000D01*
X29434072Y-47465000D01*
X29318777Y-47487933D01*
X29344078Y-47360737D01*
X29344078Y-47038671D01*
X29281246Y-46722792D01*
X29157996Y-46425241D01*
X28979065Y-46157452D01*
X28751330Y-45929717D01*
X28483541Y-45750786D01*
X28185990Y-45627536D01*
X27870111Y-45564704D01*
X27548045Y-45564704D01*
X27232166Y-45627536D01*
X26934615Y-45750786D01*
X26666826Y-45929717D01*
X26439091Y-46157452D01*
X26260160Y-46425241D01*
X26136910Y-46722792D01*
X26074078Y-47038671D01*
X26074078Y-47360737D01*
X26136910Y-47676616D01*
X26260160Y-47974167D01*
X26439091Y-48241956D01*
X26662135Y-48465000D01*
X26007166Y-48465000D01*
X25990984Y-48448818D01*
X25966400Y-48418863D01*
X25846869Y-48320765D01*
X25710496Y-48247873D01*
X25562523Y-48202986D01*
X25529798Y-48199763D01*
X25502725Y-48172690D01*
X25333207Y-48059422D01*
X25144849Y-47981401D01*
X24944890Y-47941627D01*
X24741012Y-47941627D01*
X24541053Y-47981401D01*
X24352695Y-48059422D01*
X24183177Y-48172690D01*
X24039014Y-48316853D01*
X23925746Y-48486371D01*
X23847725Y-48674729D01*
X23807951Y-48874688D01*
X23807951Y-49078566D01*
X23847725Y-49278525D01*
X23925746Y-49466883D01*
X23965530Y-49526424D01*
X23904774Y-49673102D01*
X23865000Y-49873061D01*
X23865000Y-50076939D01*
X23885942Y-50182221D01*
X23865226Y-50196063D01*
X23721063Y-50340226D01*
X23607795Y-50509744D01*
X23529774Y-50698102D01*
X23490000Y-50898061D01*
X23490000Y-51101939D01*
X23529774Y-51301898D01*
X23607795Y-51490256D01*
X23721063Y-51659774D01*
X23865226Y-51803937D01*
X24034744Y-51917205D01*
X24223102Y-51995226D01*
X24423061Y-52035000D01*
X24626939Y-52035000D01*
X24826898Y-51995226D01*
X25015256Y-51917205D01*
X25184774Y-51803937D01*
X25203711Y-51785000D01*
X35726445Y-51785000D01*
X35764998Y-51788797D01*
X35803551Y-51785000D01*
X35803559Y-51785000D01*
X35918885Y-51773641D01*
X36066858Y-51728754D01*
X36203231Y-51655862D01*
X36322762Y-51557764D01*
X36347345Y-51527809D01*
X36490156Y-51384999D01*
X36557419Y-51384999D01*
X36570901Y-51401427D01*
X36690432Y-51499525D01*
X36826805Y-51572417D01*
X36859533Y-51582345D01*
X36974778Y-51617305D01*
X37049691Y-51624683D01*
X37090104Y-51628663D01*
X37090109Y-51628663D01*
X37128665Y-51632460D01*
X37167220Y-51628663D01*
X48389952Y-51628663D01*
X48440226Y-51678937D01*
X48609744Y-51792205D01*
X48798102Y-51870226D01*
X48998061Y-51910000D01*
X49201939Y-51910000D01*
X49401898Y-51870226D01*
X49590256Y-51792205D01*
X49759774Y-51678937D01*
X49903937Y-51534774D01*
X50017205Y-51365256D01*
X50095226Y-51176898D01*
X50135000Y-50976939D01*
X50135000Y-50773061D01*
X50120853Y-50701937D01*
X50126207Y-50699719D01*
X50295725Y-50586451D01*
X50314662Y-50567514D01*
X51711408Y-50567514D01*
X51749961Y-50571311D01*
X51788514Y-50567514D01*
X51788522Y-50567514D01*
X51903848Y-50556155D01*
X52051821Y-50511268D01*
X52188194Y-50438376D01*
X52307725Y-50340278D01*
X52332308Y-50310324D01*
X54340284Y-48302348D01*
X54370238Y-48277765D01*
X54468336Y-48158234D01*
X54541228Y-48021861D01*
X54551966Y-47986463D01*
X54586116Y-47873888D01*
X54594353Y-47790247D01*
X54597474Y-47758562D01*
X54597474Y-47758557D01*
X54601271Y-47720001D01*
X54597474Y-47681445D01*
X54597474Y-46971026D01*
X54601271Y-46932473D01*
X54597474Y-46893920D01*
X54597474Y-46893913D01*
X54586115Y-46778587D01*
X54541228Y-46630614D01*
X54475000Y-46506709D01*
X54475000Y-46076300D01*
X54647179Y-46147619D01*
X54895439Y-46197000D01*
X55148561Y-46197000D01*
X55396821Y-46147619D01*
X55630676Y-46050753D01*
X55841140Y-45910125D01*
X56020125Y-45731140D01*
X56160753Y-45520676D01*
X56257619Y-45286821D01*
X56307000Y-45038561D01*
X56307000Y-44785439D01*
X56257619Y-44537179D01*
X56160753Y-44303324D01*
X56020125Y-44092860D01*
X55841140Y-43913875D01*
X55630676Y-43773247D01*
X55396821Y-43676381D01*
X55324521Y-43662000D01*
X55396821Y-43647619D01*
X55630676Y-43550753D01*
X55841140Y-43410125D01*
X56020125Y-43231140D01*
X56160753Y-43020676D01*
X56257619Y-42786821D01*
X56307000Y-42538561D01*
X56307000Y-42285439D01*
X56257619Y-42037179D01*
X56160753Y-41803324D01*
X56020125Y-41592860D01*
X55841140Y-41413875D01*
X55630676Y-41273247D01*
X55396821Y-41176381D01*
X55324521Y-41162000D01*
X55396821Y-41147619D01*
X55630676Y-41050753D01*
X55841140Y-40910125D01*
X56020125Y-40731140D01*
X56160753Y-40520676D01*
X56257619Y-40286821D01*
X56307000Y-40038561D01*
X56307000Y-39785439D01*
X56257619Y-39537179D01*
X56160753Y-39303324D01*
X56020125Y-39092860D01*
X55841140Y-38913875D01*
X55630676Y-38773247D01*
X55396821Y-38676381D01*
X55148561Y-38627000D01*
X54895439Y-38627000D01*
X54647179Y-38676381D01*
X54475000Y-38747700D01*
X54475000Y-38348556D01*
X54478797Y-38310000D01*
X54475000Y-38271440D01*
X54475000Y-38271439D01*
X54471020Y-38231026D01*
X54463642Y-38156113D01*
X54418754Y-38008140D01*
X54405864Y-37984024D01*
X54345862Y-37871767D01*
X54247764Y-37752236D01*
X54217811Y-37727654D01*
X53835157Y-37345000D01*
X54051184Y-37345000D01*
X54347743Y-37286011D01*
X54627095Y-37170299D01*
X54878505Y-37002312D01*
X54944944Y-36935873D01*
X54950498Y-36954180D01*
X55009463Y-37064494D01*
X55088815Y-37161185D01*
X55185506Y-37240537D01*
X55295820Y-37299502D01*
X55415518Y-37335812D01*
X55540000Y-37348072D01*
X56886374Y-37348072D01*
X56886374Y-111558000D01*
X54147592Y-111558000D01*
X54280918Y-111358463D01*
X54404168Y-111060912D01*
X54467000Y-110745033D01*
X54467000Y-110422967D01*
X54404168Y-110107088D01*
X54280918Y-109809537D01*
X54101987Y-109541748D01*
X53874252Y-109314013D01*
X53606463Y-109135082D01*
X53308912Y-109011832D01*
X52993033Y-108949000D01*
X52670967Y-108949000D01*
X52355088Y-109011832D01*
X52057537Y-109135082D01*
X51789748Y-109314013D01*
X51562013Y-109541748D01*
X51383082Y-109809537D01*
X51259832Y-110107088D01*
X51197000Y-110422967D01*
X51197000Y-110745033D01*
X51259832Y-111060912D01*
X51383082Y-111358463D01*
X51516408Y-111558000D01*
X44072258Y-111558000D01*
X44205584Y-111358463D01*
X44328834Y-111060912D01*
X44391666Y-110745033D01*
X44391666Y-110422967D01*
X44328834Y-110107088D01*
X44205584Y-109809537D01*
X44026653Y-109541748D01*
X43798918Y-109314013D01*
X43531129Y-109135082D01*
X43233578Y-109011832D01*
X42917699Y-108949000D01*
X42595633Y-108949000D01*
X42292183Y-109009360D01*
X40810000Y-107527177D01*
X40810000Y-105778711D01*
X40828937Y-105759774D01*
X40942205Y-105590256D01*
X41020226Y-105401898D01*
X41060000Y-105201939D01*
X41060000Y-104998061D01*
X41020226Y-104798102D01*
X40942205Y-104609744D01*
X40828937Y-104440226D01*
X40684774Y-104296063D01*
X40515256Y-104182795D01*
X40326898Y-104104774D01*
X40126939Y-104065000D01*
X39923061Y-104065000D01*
X39723102Y-104104774D01*
X39534744Y-104182795D01*
X39365226Y-104296063D01*
X39221063Y-104440226D01*
X39107795Y-104609744D01*
X39029774Y-104798102D01*
X38990000Y-104998061D01*
X38990000Y-105201939D01*
X39029774Y-105401898D01*
X39107795Y-105590256D01*
X39221063Y-105759774D01*
X39240000Y-105778711D01*
X39240001Y-107591603D01*
X39048102Y-107629774D01*
X38859744Y-107707795D01*
X38690226Y-107821063D01*
X38546063Y-107965226D01*
X38432795Y-108134744D01*
X38354774Y-108323102D01*
X38315000Y-108523061D01*
X38315000Y-108726939D01*
X38354774Y-108926898D01*
X38432795Y-109115256D01*
X38546063Y-109284774D01*
X38565000Y-109303711D01*
X38565001Y-110121288D01*
X38521063Y-110165226D01*
X38407795Y-110334744D01*
X38329774Y-110523102D01*
X38290000Y-110723061D01*
X38290000Y-110926939D01*
X38329774Y-111126898D01*
X38407795Y-111315256D01*
X38521063Y-111484774D01*
X38594289Y-111558000D01*
X33996925Y-111558000D01*
X34130251Y-111358463D01*
X34253501Y-111060912D01*
X34316333Y-110745033D01*
X34316333Y-110422967D01*
X34253501Y-110107088D01*
X34130251Y-109809537D01*
X33951320Y-109541748D01*
X33723585Y-109314013D01*
X33455796Y-109135082D01*
X33158245Y-109011832D01*
X32842366Y-108949000D01*
X32520300Y-108949000D01*
X32204421Y-109011832D01*
X31906870Y-109135082D01*
X31639081Y-109314013D01*
X31411346Y-109541748D01*
X31267374Y-109757217D01*
X30335000Y-108824843D01*
X30335000Y-102122967D01*
X31046333Y-102122967D01*
X31046333Y-102445033D01*
X31109165Y-102760912D01*
X31232415Y-103058463D01*
X31411346Y-103326252D01*
X31639081Y-103553987D01*
X31906870Y-103732918D01*
X32204421Y-103856168D01*
X32520300Y-103919000D01*
X32842366Y-103919000D01*
X33158245Y-103856168D01*
X33455796Y-103732918D01*
X33723585Y-103553987D01*
X33951320Y-103326252D01*
X34130251Y-103058463D01*
X34253501Y-102760912D01*
X34316333Y-102445033D01*
X34316333Y-102122967D01*
X34253501Y-101807088D01*
X34130251Y-101509537D01*
X33951320Y-101241748D01*
X33723585Y-101014013D01*
X33507071Y-100869343D01*
X32681333Y-100043605D01*
X31855595Y-100869343D01*
X31639081Y-101014013D01*
X31411346Y-101241748D01*
X31232415Y-101509537D01*
X31109165Y-101807088D01*
X31046333Y-102122967D01*
X30335000Y-102122967D01*
X30335000Y-99930553D01*
X31140342Y-99930553D01*
X31182936Y-100229907D01*
X31283111Y-100515199D01*
X31363072Y-100664792D01*
X31617253Y-100748475D01*
X32501728Y-99864000D01*
X32860938Y-99864000D01*
X33745413Y-100748475D01*
X33999594Y-100664792D01*
X34130491Y-100392225D01*
X34205698Y-100099358D01*
X34222324Y-99797447D01*
X34179730Y-99498093D01*
X34079555Y-99212801D01*
X33999594Y-99063208D01*
X33745413Y-98979525D01*
X32860938Y-99864000D01*
X32501728Y-99864000D01*
X31617253Y-98979525D01*
X31363072Y-99063208D01*
X31232175Y-99335775D01*
X31156968Y-99628642D01*
X31140342Y-99930553D01*
X30335000Y-99930553D01*
X30335000Y-98799920D01*
X31796858Y-98799920D01*
X32681333Y-99684395D01*
X33565808Y-98799920D01*
X33482125Y-98545739D01*
X33209558Y-98414842D01*
X32916691Y-98339635D01*
X32687253Y-98327000D01*
X35387928Y-98327000D01*
X35387928Y-99577000D01*
X35405472Y-99755132D01*
X35457431Y-99926418D01*
X35541808Y-100084276D01*
X35655361Y-100222639D01*
X35793724Y-100336192D01*
X35951582Y-100420569D01*
X36122868Y-100472528D01*
X36301000Y-100490072D01*
X36851000Y-100490072D01*
X37029132Y-100472528D01*
X37200418Y-100420569D01*
X37358276Y-100336192D01*
X37496639Y-100222639D01*
X37610192Y-100084276D01*
X37694569Y-99926418D01*
X37746528Y-99755132D01*
X37764072Y-99577000D01*
X37764072Y-98327000D01*
X37746528Y-98148868D01*
X37719000Y-98058120D01*
X37719000Y-97009000D01*
X36819750Y-97009000D01*
X36661000Y-97167750D01*
X36659769Y-97413928D01*
X36301000Y-97413928D01*
X36122868Y-97431472D01*
X35951582Y-97483431D01*
X35793724Y-97567808D01*
X35655361Y-97681361D01*
X35541808Y-97819724D01*
X35457431Y-97977582D01*
X35405472Y-98148868D01*
X35387928Y-98327000D01*
X32687253Y-98327000D01*
X32614780Y-98323009D01*
X32315426Y-98365603D01*
X32030134Y-98465778D01*
X31880541Y-98545739D01*
X31796858Y-98799920D01*
X30335000Y-98799920D01*
X30335000Y-97796080D01*
X31796858Y-97796080D01*
X31880541Y-98050261D01*
X32153108Y-98181158D01*
X32445975Y-98256365D01*
X32747886Y-98272991D01*
X33047240Y-98230397D01*
X33332532Y-98130222D01*
X33482125Y-98050261D01*
X33565808Y-97796080D01*
X32681333Y-96911605D01*
X31796858Y-97796080D01*
X30335000Y-97796080D01*
X30335000Y-96798553D01*
X31140342Y-96798553D01*
X31182936Y-97097907D01*
X31283111Y-97383199D01*
X31363072Y-97532792D01*
X31617253Y-97616475D01*
X32501728Y-96732000D01*
X32860938Y-96732000D01*
X33745413Y-97616475D01*
X33999594Y-97532792D01*
X34130491Y-97260225D01*
X34205698Y-96967358D01*
X34222324Y-96665447D01*
X34179730Y-96366093D01*
X34079555Y-96080801D01*
X34026744Y-95982000D01*
X36657928Y-95982000D01*
X36661000Y-96596250D01*
X36819750Y-96755000D01*
X37719000Y-96755000D01*
X37719000Y-95505750D01*
X37560250Y-95347000D01*
X37296000Y-95343928D01*
X37171518Y-95356188D01*
X37051820Y-95392498D01*
X36941506Y-95451463D01*
X36844815Y-95530815D01*
X36765463Y-95627506D01*
X36706498Y-95737820D01*
X36670188Y-95857518D01*
X36657928Y-95982000D01*
X34026744Y-95982000D01*
X33999594Y-95931208D01*
X33745413Y-95847525D01*
X32860938Y-96732000D01*
X32501728Y-96732000D01*
X31617253Y-95847525D01*
X31363072Y-95931208D01*
X31232175Y-96203775D01*
X31156968Y-96496642D01*
X31140342Y-96798553D01*
X30335000Y-96798553D01*
X30335000Y-94150967D01*
X31046333Y-94150967D01*
X31046333Y-94473033D01*
X31109165Y-94788912D01*
X31232415Y-95086463D01*
X31411346Y-95354252D01*
X31639081Y-95581987D01*
X31855595Y-95726657D01*
X32681333Y-96552395D01*
X33507071Y-95726657D01*
X33723585Y-95581987D01*
X33951320Y-95354252D01*
X34130251Y-95086463D01*
X34253501Y-94788912D01*
X34316333Y-94473033D01*
X34316333Y-94423061D01*
X37565000Y-94423061D01*
X37565000Y-94626939D01*
X37604774Y-94826898D01*
X37682795Y-95015256D01*
X37796063Y-95184774D01*
X37940226Y-95328937D01*
X38065864Y-95412886D01*
X37973000Y-95505750D01*
X37973000Y-96755000D01*
X38872250Y-96755000D01*
X39031000Y-96596250D01*
X39034072Y-95982000D01*
X39021812Y-95857518D01*
X38985502Y-95737820D01*
X38926537Y-95627506D01*
X38847392Y-95531068D01*
X38901898Y-95520226D01*
X39047295Y-95460000D01*
X41592427Y-95460000D01*
X41714414Y-95581987D01*
X41930928Y-95726657D01*
X42756666Y-96552395D01*
X42770809Y-96538253D01*
X42950414Y-96717858D01*
X42936271Y-96732000D01*
X42950414Y-96746143D01*
X42770809Y-96925748D01*
X42756666Y-96911605D01*
X42742524Y-96925748D01*
X42562919Y-96746143D01*
X42577061Y-96732000D01*
X41692586Y-95847525D01*
X41438405Y-95931208D01*
X41307508Y-96203775D01*
X41232301Y-96496642D01*
X41215675Y-96798553D01*
X41258269Y-97097907D01*
X41293064Y-97197001D01*
X40706930Y-97197001D01*
X40660998Y-97192477D01*
X40477706Y-97210530D01*
X40449142Y-97219195D01*
X40301459Y-97263994D01*
X40139027Y-97350815D01*
X39996655Y-97467657D01*
X39973231Y-97496200D01*
X39910180Y-97462498D01*
X39790482Y-97426188D01*
X39666000Y-97413928D01*
X39032231Y-97413928D01*
X39031000Y-97167750D01*
X38872250Y-97009000D01*
X37973000Y-97009000D01*
X37973000Y-97819351D01*
X37940188Y-97927518D01*
X37927928Y-98052000D01*
X37927928Y-99852000D01*
X37940188Y-99976482D01*
X37976498Y-100096180D01*
X38035463Y-100206494D01*
X38114815Y-100303185D01*
X38211506Y-100382537D01*
X38321820Y-100441502D01*
X38441518Y-100477812D01*
X38566000Y-100490072D01*
X39666000Y-100490072D01*
X39790482Y-100477812D01*
X39910180Y-100441502D01*
X40020494Y-100382537D01*
X40117185Y-100303185D01*
X40196537Y-100206494D01*
X40255502Y-100096180D01*
X40291812Y-99976482D01*
X40304072Y-99852000D01*
X40304072Y-99485312D01*
X40424292Y-99473471D01*
X40600540Y-99420007D01*
X40762972Y-99333186D01*
X40905344Y-99216344D01*
X40934630Y-99180659D01*
X41048288Y-99067001D01*
X41436583Y-99067001D01*
X41307508Y-99335775D01*
X41232301Y-99628642D01*
X41215675Y-99930553D01*
X41258269Y-100229907D01*
X41358444Y-100515199D01*
X41438405Y-100664792D01*
X41692586Y-100748475D01*
X42577061Y-99864000D01*
X42562919Y-99849858D01*
X42742524Y-99670253D01*
X42756666Y-99684395D01*
X42770809Y-99670253D01*
X42950414Y-99849858D01*
X42936271Y-99864000D01*
X42950414Y-99878143D01*
X42770809Y-100057748D01*
X42756666Y-100043605D01*
X41930928Y-100869343D01*
X41714414Y-101014013D01*
X41486679Y-101241748D01*
X41307748Y-101509537D01*
X41184498Y-101807088D01*
X41121666Y-102122967D01*
X41121666Y-102445033D01*
X41184498Y-102760912D01*
X41307748Y-103058463D01*
X41486679Y-103326252D01*
X41714414Y-103553987D01*
X41982203Y-103732918D01*
X42279754Y-103856168D01*
X42595633Y-103919000D01*
X42917699Y-103919000D01*
X43233578Y-103856168D01*
X43531129Y-103732918D01*
X43798918Y-103553987D01*
X44026653Y-103326252D01*
X44205584Y-103058463D01*
X44328834Y-102760912D01*
X44391666Y-102445033D01*
X44391666Y-102122967D01*
X51197000Y-102122967D01*
X51197000Y-102445033D01*
X51259832Y-102760912D01*
X51383082Y-103058463D01*
X51562013Y-103326252D01*
X51789748Y-103553987D01*
X52057537Y-103732918D01*
X52355088Y-103856168D01*
X52670967Y-103919000D01*
X52993033Y-103919000D01*
X53308912Y-103856168D01*
X53606463Y-103732918D01*
X53874252Y-103553987D01*
X54101987Y-103326252D01*
X54280918Y-103058463D01*
X54404168Y-102760912D01*
X54467000Y-102445033D01*
X54467000Y-102122967D01*
X54404168Y-101807088D01*
X54280918Y-101509537D01*
X54101987Y-101241748D01*
X53874252Y-101014013D01*
X53657738Y-100869343D01*
X52832000Y-100043605D01*
X52006262Y-100869343D01*
X51789748Y-101014013D01*
X51562013Y-101241748D01*
X51383082Y-101509537D01*
X51259832Y-101807088D01*
X51197000Y-102122967D01*
X44391666Y-102122967D01*
X44366501Y-101996454D01*
X46432402Y-99930553D01*
X51291009Y-99930553D01*
X51333603Y-100229907D01*
X51433778Y-100515199D01*
X51513739Y-100664792D01*
X51767920Y-100748475D01*
X52652395Y-99864000D01*
X53011605Y-99864000D01*
X53896080Y-100748475D01*
X54150261Y-100664792D01*
X54281158Y-100392225D01*
X54356365Y-100099358D01*
X54372991Y-99797447D01*
X54330397Y-99498093D01*
X54230222Y-99212801D01*
X54150261Y-99063208D01*
X53896080Y-98979525D01*
X53011605Y-99864000D01*
X52652395Y-99864000D01*
X51767920Y-98979525D01*
X51513739Y-99063208D01*
X51382842Y-99335775D01*
X51307635Y-99628642D01*
X51291009Y-99930553D01*
X46432402Y-99930553D01*
X46824884Y-99538072D01*
X47700000Y-99538072D01*
X47824482Y-99525812D01*
X47944180Y-99489502D01*
X48054494Y-99430537D01*
X48151185Y-99351185D01*
X48161807Y-99338242D01*
X48413996Y-99457571D01*
X48688184Y-99526300D01*
X48970512Y-99540217D01*
X49250130Y-99498787D01*
X49516292Y-99403603D01*
X49641514Y-99336671D01*
X49713097Y-99092702D01*
X48900000Y-98279605D01*
X48885858Y-98293748D01*
X48706253Y-98114143D01*
X48720395Y-98100000D01*
X49079605Y-98100000D01*
X49892702Y-98913097D01*
X50136671Y-98841514D01*
X50156352Y-98799920D01*
X51947525Y-98799920D01*
X52832000Y-99684395D01*
X53716475Y-98799920D01*
X53632792Y-98545739D01*
X53360225Y-98414842D01*
X53067358Y-98339635D01*
X52765447Y-98323009D01*
X52466093Y-98365603D01*
X52180801Y-98465778D01*
X52031208Y-98545739D01*
X51947525Y-98799920D01*
X50156352Y-98799920D01*
X50257571Y-98586004D01*
X50326300Y-98311816D01*
X50340217Y-98029488D01*
X50305634Y-97796080D01*
X51947525Y-97796080D01*
X52031208Y-98050261D01*
X52303775Y-98181158D01*
X52596642Y-98256365D01*
X52898553Y-98272991D01*
X53197907Y-98230397D01*
X53483199Y-98130222D01*
X53632792Y-98050261D01*
X53716475Y-97796080D01*
X52832000Y-96911605D01*
X51947525Y-97796080D01*
X50305634Y-97796080D01*
X50298787Y-97749870D01*
X50203603Y-97483708D01*
X50136671Y-97358486D01*
X49892702Y-97286903D01*
X49079605Y-98100000D01*
X48720395Y-98100000D01*
X48706253Y-98085858D01*
X48885858Y-97906253D01*
X48900000Y-97920395D01*
X49713097Y-97107298D01*
X49641514Y-96863329D01*
X49504617Y-96798553D01*
X51291009Y-96798553D01*
X51333603Y-97097907D01*
X51433778Y-97383199D01*
X51513739Y-97532792D01*
X51767920Y-97616475D01*
X52652395Y-96732000D01*
X53011605Y-96732000D01*
X53896080Y-97616475D01*
X54150261Y-97532792D01*
X54281158Y-97260225D01*
X54356365Y-96967358D01*
X54372991Y-96665447D01*
X54330397Y-96366093D01*
X54230222Y-96080801D01*
X54150261Y-95931208D01*
X53896080Y-95847525D01*
X53011605Y-96732000D01*
X52652395Y-96732000D01*
X51767920Y-95847525D01*
X51513739Y-95931208D01*
X51382842Y-96203775D01*
X51307635Y-96496642D01*
X51291009Y-96798553D01*
X49504617Y-96798553D01*
X49386004Y-96742429D01*
X49111816Y-96673700D01*
X48829488Y-96659783D01*
X48549870Y-96701213D01*
X48283708Y-96796397D01*
X48161691Y-96861616D01*
X48151185Y-96848815D01*
X48054494Y-96769463D01*
X47944180Y-96710498D01*
X47824482Y-96674188D01*
X47700000Y-96661928D01*
X46784217Y-96661928D01*
X44391666Y-94269377D01*
X44391666Y-94150967D01*
X51197000Y-94150967D01*
X51197000Y-94473033D01*
X51259832Y-94788912D01*
X51383082Y-95086463D01*
X51562013Y-95354252D01*
X51789748Y-95581987D01*
X52006262Y-95726657D01*
X52832000Y-96552395D01*
X53657738Y-95726657D01*
X53874252Y-95581987D01*
X54101987Y-95354252D01*
X54280918Y-95086463D01*
X54404168Y-94788912D01*
X54467000Y-94473033D01*
X54467000Y-94150967D01*
X54404168Y-93835088D01*
X54280918Y-93537537D01*
X54101987Y-93269748D01*
X53874252Y-93042013D01*
X53606463Y-92863082D01*
X53308912Y-92739832D01*
X52993033Y-92677000D01*
X52670967Y-92677000D01*
X52355088Y-92739832D01*
X52057537Y-92863082D01*
X51789748Y-93042013D01*
X51562013Y-93269748D01*
X51383082Y-93537537D01*
X51259832Y-93835088D01*
X51197000Y-94150967D01*
X44391666Y-94150967D01*
X44328834Y-93835088D01*
X44205584Y-93537537D01*
X44026653Y-93269748D01*
X43798918Y-93042013D01*
X43531129Y-92863082D01*
X43233578Y-92739832D01*
X42917699Y-92677000D01*
X42595633Y-92677000D01*
X42279754Y-92739832D01*
X41982203Y-92863082D01*
X41714414Y-93042013D01*
X41486679Y-93269748D01*
X41307748Y-93537537D01*
X41286017Y-93590000D01*
X39047295Y-93590000D01*
X38901898Y-93529774D01*
X38701939Y-93490000D01*
X38498061Y-93490000D01*
X38298102Y-93529774D01*
X38109744Y-93607795D01*
X37940226Y-93721063D01*
X37796063Y-93865226D01*
X37682795Y-94034744D01*
X37604774Y-94223102D01*
X37565000Y-94423061D01*
X34316333Y-94423061D01*
X34316333Y-94150967D01*
X34253501Y-93835088D01*
X34130251Y-93537537D01*
X33951320Y-93269748D01*
X33723585Y-93042013D01*
X33455796Y-92863082D01*
X33158245Y-92739832D01*
X32842366Y-92677000D01*
X32520300Y-92677000D01*
X32204421Y-92739832D01*
X31906870Y-92863082D01*
X31639081Y-93042013D01*
X31411346Y-93269748D01*
X31232415Y-93537537D01*
X31109165Y-93835088D01*
X31046333Y-94150967D01*
X30335000Y-94150967D01*
X30335000Y-91975157D01*
X32152811Y-90157346D01*
X32182765Y-90132763D01*
X32280863Y-90013232D01*
X32353755Y-89876859D01*
X32361327Y-89851898D01*
X32398643Y-89728886D01*
X32406221Y-89651939D01*
X32410001Y-89613560D01*
X32410001Y-89613555D01*
X32413798Y-89574999D01*
X32410001Y-89536443D01*
X32410001Y-89498061D01*
X35865000Y-89498061D01*
X35865000Y-89701939D01*
X35904774Y-89901898D01*
X35982795Y-90090256D01*
X36096063Y-90259774D01*
X36240226Y-90403937D01*
X36409744Y-90517205D01*
X36598102Y-90595226D01*
X36798061Y-90635000D01*
X37001939Y-90635000D01*
X37201898Y-90595226D01*
X37226079Y-90585210D01*
X37096063Y-90715226D01*
X36982795Y-90884744D01*
X36904774Y-91073102D01*
X36865000Y-91273061D01*
X36865000Y-91476939D01*
X36904774Y-91676898D01*
X36982795Y-91865256D01*
X37096063Y-92034774D01*
X37240226Y-92178937D01*
X37409744Y-92292205D01*
X37598102Y-92370226D01*
X37798061Y-92410000D01*
X38001939Y-92410000D01*
X38201898Y-92370226D01*
X38390256Y-92292205D01*
X38559774Y-92178937D01*
X38578711Y-92160000D01*
X45796289Y-92160000D01*
X45890226Y-92253937D01*
X46059744Y-92367205D01*
X46248102Y-92445226D01*
X46448061Y-92485000D01*
X46651939Y-92485000D01*
X46851898Y-92445226D01*
X47040256Y-92367205D01*
X47209774Y-92253937D01*
X47353937Y-92109774D01*
X47467205Y-91940256D01*
X47545226Y-91751898D01*
X47585000Y-91551939D01*
X47585000Y-91348061D01*
X47545226Y-91148102D01*
X47467205Y-90959744D01*
X47353937Y-90790226D01*
X47209774Y-90646063D01*
X47040256Y-90532795D01*
X46851898Y-90454774D01*
X46651939Y-90415000D01*
X46448061Y-90415000D01*
X46248102Y-90454774D01*
X46059744Y-90532795D01*
X45974130Y-90590000D01*
X38578711Y-90590000D01*
X38559774Y-90571063D01*
X38390256Y-90457795D01*
X38214515Y-90385000D01*
X44011447Y-90385000D01*
X44050000Y-90388797D01*
X44088553Y-90385000D01*
X44088561Y-90385000D01*
X44130529Y-90380866D01*
X44259744Y-90467205D01*
X44448102Y-90545226D01*
X44648061Y-90585000D01*
X44851939Y-90585000D01*
X45051898Y-90545226D01*
X45240256Y-90467205D01*
X45409774Y-90353937D01*
X45553937Y-90209774D01*
X45667205Y-90040256D01*
X45745226Y-89851898D01*
X45785000Y-89651939D01*
X45785000Y-89448061D01*
X45757538Y-89310000D01*
X46046289Y-89310000D01*
X46115226Y-89378937D01*
X46284744Y-89492205D01*
X46473102Y-89570226D01*
X46673061Y-89610000D01*
X46876939Y-89610000D01*
X47076898Y-89570226D01*
X47265256Y-89492205D01*
X47434774Y-89378937D01*
X47578937Y-89234774D01*
X47692205Y-89065256D01*
X47770226Y-88876898D01*
X47810000Y-88676939D01*
X47810000Y-88473061D01*
X47770226Y-88273102D01*
X47692205Y-88084744D01*
X47578937Y-87915226D01*
X47434774Y-87771063D01*
X47265256Y-87657795D01*
X47076898Y-87579774D01*
X46876939Y-87540000D01*
X46673061Y-87540000D01*
X46473102Y-87579774D01*
X46284744Y-87657795D01*
X46161715Y-87740000D01*
X37828711Y-87740000D01*
X37809774Y-87721063D01*
X37640256Y-87607795D01*
X37451898Y-87529774D01*
X37251939Y-87490000D01*
X37048061Y-87490000D01*
X36848102Y-87529774D01*
X36659744Y-87607795D01*
X36490226Y-87721063D01*
X36346063Y-87865226D01*
X36232795Y-88034744D01*
X36154774Y-88223102D01*
X36115000Y-88423061D01*
X36115000Y-88626939D01*
X36154774Y-88826898D01*
X36170771Y-88865518D01*
X36096063Y-88940226D01*
X35982795Y-89109744D01*
X35904774Y-89298102D01*
X35865000Y-89498061D01*
X32410001Y-89498061D01*
X32410001Y-88253554D01*
X32413798Y-88214999D01*
X32410001Y-88176439D01*
X32410001Y-88176438D01*
X32401857Y-88093752D01*
X32398643Y-88061112D01*
X32353755Y-87913139D01*
X32342889Y-87892810D01*
X32280863Y-87776766D01*
X32231451Y-87716558D01*
X32207346Y-87687186D01*
X32207343Y-87687183D01*
X32182765Y-87657235D01*
X32152818Y-87632658D01*
X32033551Y-87513391D01*
X32204421Y-87584168D01*
X32520300Y-87647000D01*
X32842366Y-87647000D01*
X33158245Y-87584168D01*
X33455796Y-87460918D01*
X33723585Y-87281987D01*
X33951320Y-87054252D01*
X34130251Y-86786463D01*
X34253501Y-86488912D01*
X34316333Y-86173033D01*
X34316333Y-85850967D01*
X34273375Y-85635001D01*
X37632516Y-85635001D01*
X37615000Y-85723061D01*
X37615000Y-85926939D01*
X37654774Y-86126898D01*
X37732795Y-86315256D01*
X37846063Y-86484774D01*
X37990226Y-86628937D01*
X38159744Y-86742205D01*
X38348102Y-86820226D01*
X38548061Y-86860000D01*
X38751939Y-86860000D01*
X38951898Y-86820226D01*
X39007970Y-86797000D01*
X41314789Y-86797000D01*
X41486679Y-87054252D01*
X41714414Y-87281987D01*
X41982203Y-87460918D01*
X42279754Y-87584168D01*
X42595633Y-87647000D01*
X42917699Y-87647000D01*
X43233578Y-87584168D01*
X43531129Y-87460918D01*
X43798918Y-87281987D01*
X44026653Y-87054252D01*
X44205584Y-86786463D01*
X44328834Y-86488912D01*
X44391666Y-86173033D01*
X44391666Y-85850967D01*
X44328834Y-85535088D01*
X44245959Y-85335010D01*
X51342707Y-85335010D01*
X51259832Y-85535088D01*
X51197000Y-85850967D01*
X51197000Y-86173033D01*
X51259832Y-86488912D01*
X51383082Y-86786463D01*
X51562013Y-87054252D01*
X51789748Y-87281987D01*
X52057537Y-87460918D01*
X52355088Y-87584168D01*
X52670967Y-87647000D01*
X52993033Y-87647000D01*
X53308912Y-87584168D01*
X53606463Y-87460918D01*
X53874252Y-87281987D01*
X54101987Y-87054252D01*
X54280918Y-86786463D01*
X54404168Y-86488912D01*
X54467000Y-86173033D01*
X54467000Y-85850967D01*
X54404168Y-85535088D01*
X54318049Y-85327180D01*
X54353877Y-85323651D01*
X54501850Y-85278764D01*
X54638223Y-85205872D01*
X54757754Y-85107774D01*
X54782337Y-85077820D01*
X56222812Y-83637345D01*
X56252765Y-83612763D01*
X56350863Y-83493232D01*
X56423755Y-83356859D01*
X56436399Y-83315177D01*
X56468643Y-83208886D01*
X56478896Y-83104774D01*
X56480001Y-83093560D01*
X56480001Y-83093555D01*
X56483798Y-83054999D01*
X56480001Y-83016443D01*
X56480001Y-78768557D01*
X56483798Y-78730001D01*
X56480001Y-78691445D01*
X56480001Y-78691440D01*
X56472226Y-78612497D01*
X56468643Y-78576114D01*
X56423755Y-78428141D01*
X56417926Y-78417236D01*
X56350863Y-78291768D01*
X56252765Y-78172237D01*
X56222806Y-78147650D01*
X55961520Y-77886363D01*
X55980000Y-77793456D01*
X55980000Y-77526544D01*
X55927928Y-77264761D01*
X55825785Y-77018167D01*
X55677497Y-76796238D01*
X55488762Y-76607503D01*
X55266833Y-76459215D01*
X55099734Y-76390000D01*
X55266833Y-76320785D01*
X55488762Y-76172497D01*
X55677497Y-75983762D01*
X55825785Y-75761833D01*
X55927928Y-75515239D01*
X55980000Y-75253456D01*
X55980000Y-74986544D01*
X55927928Y-74724761D01*
X55825785Y-74478167D01*
X55677497Y-74256238D01*
X55488762Y-74067503D01*
X55266833Y-73919215D01*
X55020239Y-73817072D01*
X54758456Y-73765000D01*
X54491544Y-73765000D01*
X54398637Y-73783480D01*
X50660000Y-70044843D01*
X50660000Y-69923061D01*
X50620226Y-69723102D01*
X50542205Y-69534744D01*
X50428937Y-69365226D01*
X50284774Y-69221063D01*
X50115256Y-69107795D01*
X49926898Y-69029774D01*
X49726939Y-68990000D01*
X49523061Y-68990000D01*
X49323102Y-69029774D01*
X49134744Y-69107795D01*
X48965226Y-69221063D01*
X48821063Y-69365226D01*
X48707795Y-69534744D01*
X48629774Y-69723102D01*
X48590000Y-69923061D01*
X48590000Y-70126939D01*
X48629774Y-70326898D01*
X48707795Y-70515256D01*
X48821063Y-70684774D01*
X48965226Y-70828937D01*
X49134744Y-70942205D01*
X49323102Y-71020226D01*
X49437904Y-71043061D01*
X53288480Y-74893637D01*
X53270000Y-74986544D01*
X53270000Y-75253456D01*
X53322072Y-75515239D01*
X53424215Y-75761833D01*
X53572503Y-75983762D01*
X53761238Y-76172497D01*
X53983167Y-76320785D01*
X54150266Y-76390000D01*
X53983167Y-76459215D01*
X53761238Y-76607503D01*
X53572503Y-76796238D01*
X53566051Y-76805893D01*
X46882347Y-70122190D01*
X46857764Y-70092236D01*
X46738233Y-69994138D01*
X46601860Y-69921246D01*
X46453887Y-69876359D01*
X46338561Y-69865000D01*
X46338553Y-69865000D01*
X46300000Y-69861203D01*
X46261447Y-69865000D01*
X43551259Y-69865000D01*
X43552497Y-69863762D01*
X43700785Y-69641833D01*
X43802928Y-69395239D01*
X43855000Y-69133456D01*
X43855000Y-68866544D01*
X43802928Y-68604761D01*
X43700785Y-68358167D01*
X43552497Y-68136238D01*
X43363762Y-67947503D01*
X43141833Y-67799215D01*
X42974734Y-67730000D01*
X43141833Y-67660785D01*
X43363762Y-67512497D01*
X43552497Y-67323762D01*
X43700785Y-67101833D01*
X43802928Y-66855239D01*
X43855000Y-66593456D01*
X43855000Y-66326544D01*
X43802928Y-66064761D01*
X43700785Y-65818167D01*
X43552497Y-65596238D01*
X43363762Y-65407503D01*
X43285000Y-65354876D01*
X43285000Y-65025124D01*
X43363762Y-64972497D01*
X43552497Y-64783762D01*
X43700785Y-64561833D01*
X43802928Y-64315239D01*
X43855000Y-64053456D01*
X43855000Y-63786544D01*
X43802928Y-63524761D01*
X43700785Y-63278167D01*
X43552497Y-63056238D01*
X43363762Y-62867503D01*
X43141833Y-62719215D01*
X42895239Y-62617072D01*
X42633456Y-62565000D01*
X42366544Y-62565000D01*
X42104761Y-62617072D01*
X41858167Y-62719215D01*
X41636238Y-62867503D01*
X41447503Y-63056238D01*
X41394876Y-63135000D01*
X41220158Y-63135000D01*
X37585000Y-59499843D01*
X37585000Y-59473061D01*
X37545226Y-59273102D01*
X37467205Y-59084744D01*
X37380513Y-58955000D01*
X38218498Y-58955000D01*
X38592161Y-59328664D01*
X38621443Y-59364344D01*
X38763815Y-59481186D01*
X38926247Y-59568007D01*
X39049030Y-59605253D01*
X39102494Y-59621471D01*
X39285786Y-59639524D01*
X39331718Y-59635000D01*
X39358349Y-59635000D01*
X39430013Y-59742252D01*
X39657748Y-59969987D01*
X39925537Y-60148918D01*
X40223088Y-60272168D01*
X40538967Y-60335000D01*
X40861033Y-60335000D01*
X41176912Y-60272168D01*
X41474463Y-60148918D01*
X41742252Y-59969987D01*
X41969987Y-59742252D01*
X42148918Y-59474463D01*
X42272168Y-59176912D01*
X42335000Y-58861033D01*
X42335000Y-58538967D01*
X44065000Y-58538967D01*
X44065000Y-58861033D01*
X44127832Y-59176912D01*
X44251082Y-59474463D01*
X44430013Y-59742252D01*
X44657748Y-59969987D01*
X44765000Y-60041651D01*
X44765000Y-60517668D01*
X44760476Y-60563600D01*
X44767625Y-60636184D01*
X44778529Y-60746891D01*
X44831993Y-60923139D01*
X44918814Y-61085571D01*
X45035656Y-61227944D01*
X45071341Y-61257230D01*
X48942774Y-65128664D01*
X48972056Y-65164344D01*
X49114428Y-65281186D01*
X49276860Y-65368007D01*
X49399643Y-65405253D01*
X49453107Y-65421471D01*
X49605506Y-65436481D01*
X49610588Y-65488082D01*
X49646898Y-65607780D01*
X49705863Y-65718094D01*
X49785215Y-65814785D01*
X49881906Y-65894137D01*
X49992220Y-65953102D01*
X50111918Y-65989412D01*
X50236400Y-66001672D01*
X51963600Y-66001672D01*
X52088082Y-65989412D01*
X52207780Y-65953102D01*
X52318094Y-65894137D01*
X52414785Y-65814785D01*
X52494137Y-65718094D01*
X52553102Y-65607780D01*
X52570636Y-65549977D01*
X52684698Y-65664039D01*
X52930147Y-65828042D01*
X53202875Y-65941010D01*
X53492401Y-65998600D01*
X53787599Y-65998600D01*
X54077125Y-65941010D01*
X54349853Y-65828042D01*
X54595302Y-65664039D01*
X54804039Y-65455302D01*
X54968042Y-65209853D01*
X55081010Y-64937125D01*
X55138600Y-64647599D01*
X55138600Y-64352401D01*
X55081010Y-64062875D01*
X54968042Y-63790147D01*
X54804039Y-63544698D01*
X54595302Y-63335961D01*
X54429897Y-63225441D01*
X54528488Y-63166817D01*
X54746854Y-62970293D01*
X54922684Y-62734944D01*
X55049222Y-62469814D01*
X55094958Y-62319026D01*
X54973817Y-62087000D01*
X53767000Y-62087000D01*
X53767000Y-62107000D01*
X53513000Y-62107000D01*
X53513000Y-62087000D01*
X51227000Y-62087000D01*
X51227000Y-62107000D01*
X50973000Y-62107000D01*
X50973000Y-62087000D01*
X49766183Y-62087000D01*
X49645042Y-62319026D01*
X49690778Y-62469814D01*
X49817316Y-62734944D01*
X49993146Y-62970293D01*
X50056574Y-63027376D01*
X49992220Y-63046898D01*
X49881906Y-63105863D01*
X49785215Y-63185215D01*
X49721519Y-63262829D01*
X46635000Y-60176311D01*
X46635000Y-60041651D01*
X46742252Y-59969987D01*
X46933213Y-59779026D01*
X49645042Y-59779026D01*
X49690778Y-59929814D01*
X49817316Y-60194944D01*
X49993146Y-60430293D01*
X50211512Y-60626817D01*
X50317770Y-60690000D01*
X50211512Y-60753183D01*
X49993146Y-60949707D01*
X49817316Y-61185056D01*
X49690778Y-61450186D01*
X49645042Y-61600974D01*
X49766183Y-61833000D01*
X50973000Y-61833000D01*
X50973000Y-59547000D01*
X51227000Y-59547000D01*
X51227000Y-61833000D01*
X53513000Y-61833000D01*
X53513000Y-59547000D01*
X53767000Y-59547000D01*
X53767000Y-61833000D01*
X54973817Y-61833000D01*
X55094958Y-61600974D01*
X55049222Y-61450186D01*
X54922684Y-61185056D01*
X54746854Y-60949707D01*
X54528488Y-60753183D01*
X54422230Y-60690000D01*
X54528488Y-60626817D01*
X54746854Y-60430293D01*
X54922684Y-60194944D01*
X55049222Y-59929814D01*
X55094958Y-59779026D01*
X54973817Y-59547000D01*
X53767000Y-59547000D01*
X53513000Y-59547000D01*
X51227000Y-59547000D01*
X50973000Y-59547000D01*
X49766183Y-59547000D01*
X49645042Y-59779026D01*
X46933213Y-59779026D01*
X46969987Y-59742252D01*
X47148918Y-59474463D01*
X47272168Y-59176912D01*
X47335000Y-58861033D01*
X47335000Y-58538967D01*
X47272168Y-58223088D01*
X47148918Y-57925537D01*
X46969987Y-57657748D01*
X46742252Y-57430013D01*
X46474463Y-57251082D01*
X46445358Y-57239026D01*
X49645042Y-57239026D01*
X49690778Y-57389814D01*
X49817316Y-57654944D01*
X49993146Y-57890293D01*
X50211512Y-58086817D01*
X50317770Y-58150000D01*
X50211512Y-58213183D01*
X49993146Y-58409707D01*
X49817316Y-58645056D01*
X49690778Y-58910186D01*
X49645042Y-59060974D01*
X49766183Y-59293000D01*
X50973000Y-59293000D01*
X50973000Y-57007000D01*
X51227000Y-57007000D01*
X51227000Y-59293000D01*
X53513000Y-59293000D01*
X53513000Y-57007000D01*
X53767000Y-57007000D01*
X53767000Y-59293000D01*
X54973817Y-59293000D01*
X55094958Y-59060974D01*
X55049222Y-58910186D01*
X54922684Y-58645056D01*
X54746854Y-58409707D01*
X54528488Y-58213183D01*
X54422230Y-58150000D01*
X54528488Y-58086817D01*
X54746854Y-57890293D01*
X54922684Y-57654944D01*
X55049222Y-57389814D01*
X55094958Y-57239026D01*
X54973817Y-57007000D01*
X53767000Y-57007000D01*
X53513000Y-57007000D01*
X51227000Y-57007000D01*
X50973000Y-57007000D01*
X49766183Y-57007000D01*
X49645042Y-57239026D01*
X46445358Y-57239026D01*
X46176912Y-57127832D01*
X45861033Y-57065000D01*
X45538967Y-57065000D01*
X45223088Y-57127832D01*
X44925537Y-57251082D01*
X44657748Y-57430013D01*
X44430013Y-57657748D01*
X44251082Y-57925537D01*
X44127832Y-58223088D01*
X44065000Y-58538967D01*
X42335000Y-58538967D01*
X42272168Y-58223088D01*
X42148918Y-57925537D01*
X41969987Y-57657748D01*
X41742252Y-57430013D01*
X41474463Y-57251082D01*
X41176912Y-57127832D01*
X40861033Y-57065000D01*
X40538967Y-57065000D01*
X40223088Y-57127832D01*
X39925537Y-57251082D01*
X39761805Y-57360484D01*
X40312454Y-56809835D01*
X40438967Y-56835000D01*
X40761033Y-56835000D01*
X41076912Y-56772168D01*
X41374463Y-56648918D01*
X41642252Y-56469987D01*
X41869987Y-56242252D01*
X42048918Y-55974463D01*
X42172168Y-55676912D01*
X42235000Y-55361033D01*
X42235000Y-55038967D01*
X43965000Y-55038967D01*
X43965000Y-55361033D01*
X44027832Y-55676912D01*
X44151082Y-55974463D01*
X44330013Y-56242252D01*
X44557748Y-56469987D01*
X44825537Y-56648918D01*
X45123088Y-56772168D01*
X45438967Y-56835000D01*
X45761033Y-56835000D01*
X46076912Y-56772168D01*
X46374463Y-56648918D01*
X46642252Y-56469987D01*
X46869987Y-56242252D01*
X46941651Y-56135000D01*
X49803025Y-56135000D01*
X49690778Y-56370186D01*
X49645042Y-56520974D01*
X49766183Y-56753000D01*
X50973000Y-56753000D01*
X50973000Y-56733000D01*
X51227000Y-56733000D01*
X51227000Y-56753000D01*
X53513000Y-56753000D01*
X53513000Y-56733000D01*
X53767000Y-56733000D01*
X53767000Y-56753000D01*
X54973817Y-56753000D01*
X55094958Y-56520974D01*
X55049222Y-56370186D01*
X54922684Y-56105056D01*
X54746854Y-55869707D01*
X54528488Y-55673183D01*
X54429897Y-55614559D01*
X54595302Y-55504039D01*
X54804039Y-55295302D01*
X54968042Y-55049853D01*
X55081010Y-54777125D01*
X55138600Y-54487599D01*
X55138600Y-54192401D01*
X55081010Y-53902875D01*
X54968042Y-53630147D01*
X54804039Y-53384698D01*
X54595302Y-53175961D01*
X54349853Y-53011958D01*
X54077125Y-52898990D01*
X53787599Y-52841400D01*
X53492401Y-52841400D01*
X53202875Y-52898990D01*
X52930147Y-53011958D01*
X52684698Y-53175961D01*
X52475961Y-53384698D01*
X52462396Y-53405000D01*
X52277604Y-53405000D01*
X52264039Y-53384698D01*
X52055302Y-53175961D01*
X51809853Y-53011958D01*
X51537125Y-52898990D01*
X51247599Y-52841400D01*
X50952401Y-52841400D01*
X50662875Y-52898990D01*
X50390147Y-53011958D01*
X50144698Y-53175961D01*
X49935961Y-53384698D01*
X49771958Y-53630147D01*
X49658990Y-53902875D01*
X49601400Y-54192401D01*
X49601400Y-54265000D01*
X46941651Y-54265000D01*
X46869987Y-54157748D01*
X46642252Y-53930013D01*
X46374463Y-53751082D01*
X46076912Y-53627832D01*
X45761033Y-53565000D01*
X45438967Y-53565000D01*
X45123088Y-53627832D01*
X44825537Y-53751082D01*
X44557748Y-53930013D01*
X44330013Y-54157748D01*
X44151082Y-54425537D01*
X44027832Y-54723088D01*
X43965000Y-55038967D01*
X42235000Y-55038967D01*
X42172168Y-54723088D01*
X42048918Y-54425537D01*
X41869987Y-54157748D01*
X41642252Y-53930013D01*
X41374463Y-53751082D01*
X41076912Y-53627832D01*
X40761033Y-53565000D01*
X40438967Y-53565000D01*
X40123088Y-53627832D01*
X39825537Y-53751082D01*
X39557748Y-53930013D01*
X39330013Y-54157748D01*
X39151082Y-54425537D01*
X39027832Y-54723088D01*
X38965000Y-55038967D01*
X38965000Y-55361033D01*
X38990165Y-55487546D01*
X38337711Y-56140000D01*
X36488295Y-56140000D01*
X36342898Y-56079774D01*
X36142939Y-56040000D01*
X35939061Y-56040000D01*
X35739102Y-56079774D01*
X35550744Y-56157795D01*
X35381226Y-56271063D01*
X35237063Y-56415226D01*
X35123795Y-56584744D01*
X35045774Y-56773102D01*
X35006000Y-56973061D01*
X35006000Y-57085000D01*
X26357290Y-57085000D01*
X25516890Y-56244601D01*
X25485015Y-56139524D01*
X25468008Y-56083459D01*
X25381187Y-55921027D01*
X25264345Y-55778655D01*
X25228667Y-55749375D01*
X21635000Y-52155709D01*
X21635000Y-44718061D01*
X23695000Y-44718061D01*
X23695000Y-44921939D01*
X23734774Y-45121898D01*
X23812795Y-45310256D01*
X23926063Y-45479774D01*
X24070226Y-45623937D01*
X24239744Y-45737205D01*
X24428102Y-45815226D01*
X24628061Y-45855000D01*
X24831939Y-45855000D01*
X25031898Y-45815226D01*
X25220256Y-45737205D01*
X25389774Y-45623937D01*
X25533937Y-45479774D01*
X25647205Y-45310256D01*
X25725226Y-45121898D01*
X25765000Y-44921939D01*
X25765000Y-44895157D01*
X27475454Y-43184704D01*
X34188141Y-43184704D01*
X34210953Y-43218844D01*
X34389938Y-43397829D01*
X34600402Y-43538457D01*
X34834257Y-43635323D01*
X34906557Y-43649704D01*
X34834257Y-43664085D01*
X34600402Y-43760951D01*
X34389938Y-43901579D01*
X34210953Y-44080564D01*
X34070325Y-44291028D01*
X33973459Y-44524883D01*
X33924078Y-44773143D01*
X33924078Y-45026265D01*
X33973459Y-45274525D01*
X34070325Y-45508380D01*
X34210953Y-45718844D01*
X34389938Y-45897829D01*
X34600402Y-46038457D01*
X34834257Y-46135323D01*
X35082517Y-46184704D01*
X35335639Y-46184704D01*
X35583899Y-46135323D01*
X35817754Y-46038457D01*
X36028218Y-45897829D01*
X36207203Y-45718844D01*
X36347831Y-45508380D01*
X36444697Y-45274525D01*
X36494078Y-45026265D01*
X36494078Y-44773143D01*
X36444697Y-44524883D01*
X36347831Y-44291028D01*
X36207203Y-44080564D01*
X36028218Y-43901579D01*
X35817754Y-43760951D01*
X35583899Y-43664085D01*
X35511599Y-43649704D01*
X35583899Y-43635323D01*
X35817754Y-43538457D01*
X36028218Y-43397829D01*
X36207203Y-43218844D01*
X36347831Y-43008380D01*
X36444697Y-42774525D01*
X36494078Y-42526265D01*
X36494078Y-42273143D01*
X36449693Y-42050000D01*
X39581928Y-42050000D01*
X39585000Y-42564250D01*
X39743750Y-42723000D01*
X40893000Y-42723000D01*
X40893000Y-41573750D01*
X41147000Y-41573750D01*
X41147000Y-42723000D01*
X42296250Y-42723000D01*
X42455000Y-42564250D01*
X42458072Y-42050000D01*
X42445812Y-41925518D01*
X42409502Y-41805820D01*
X42350537Y-41695506D01*
X42271185Y-41598815D01*
X42174494Y-41519463D01*
X42064180Y-41460498D01*
X41944482Y-41424188D01*
X41820000Y-41411928D01*
X41305750Y-41415000D01*
X41147000Y-41573750D01*
X40893000Y-41573750D01*
X40734250Y-41415000D01*
X40220000Y-41411928D01*
X40095518Y-41424188D01*
X39975820Y-41460498D01*
X39865506Y-41519463D01*
X39768815Y-41598815D01*
X39689463Y-41695506D01*
X39630498Y-41805820D01*
X39594188Y-41925518D01*
X39581928Y-42050000D01*
X36449693Y-42050000D01*
X36444697Y-42024883D01*
X36347831Y-41791028D01*
X36207203Y-41580564D01*
X36028218Y-41401579D01*
X35817754Y-41260951D01*
X35583899Y-41164085D01*
X35511599Y-41149704D01*
X35583899Y-41135323D01*
X35817754Y-41038457D01*
X36028218Y-40897829D01*
X36207203Y-40718844D01*
X36347831Y-40508380D01*
X36444697Y-40274525D01*
X36494078Y-40026265D01*
X36494078Y-39773143D01*
X36444697Y-39524883D01*
X36347831Y-39291028D01*
X36207203Y-39080564D01*
X36028218Y-38901579D01*
X35817754Y-38760951D01*
X35583899Y-38664085D01*
X35335639Y-38614704D01*
X35082517Y-38614704D01*
X34834257Y-38664085D01*
X34600402Y-38760951D01*
X34389938Y-38901579D01*
X34210953Y-39080564D01*
X34070325Y-39291028D01*
X33973459Y-39524883D01*
X33924078Y-39773143D01*
X33924078Y-40026265D01*
X33973459Y-40274525D01*
X34070325Y-40508380D01*
X34210953Y-40718844D01*
X34389938Y-40897829D01*
X34600402Y-41038457D01*
X34834257Y-41135323D01*
X34906557Y-41149704D01*
X34834257Y-41164085D01*
X34600402Y-41260951D01*
X34389938Y-41401579D01*
X34210953Y-41580564D01*
X34188141Y-41614704D01*
X27188848Y-41614704D01*
X27150295Y-41610907D01*
X27111742Y-41614704D01*
X27111735Y-41614704D01*
X27010786Y-41624647D01*
X26996408Y-41626063D01*
X26961968Y-41636510D01*
X26848436Y-41670950D01*
X26712063Y-41743842D01*
X26654568Y-41791028D01*
X26622483Y-41817359D01*
X26622480Y-41817362D01*
X26592532Y-41841940D01*
X26567954Y-41871888D01*
X24654843Y-43785000D01*
X24628061Y-43785000D01*
X24428102Y-43824774D01*
X24239744Y-43902795D01*
X24070226Y-44016063D01*
X23926063Y-44160226D01*
X23812795Y-44329744D01*
X23734774Y-44518102D01*
X23695000Y-44718061D01*
X21635000Y-44718061D01*
X21635000Y-43072702D01*
X22346903Y-43072702D01*
X22418486Y-43316671D01*
X22673996Y-43437571D01*
X22948184Y-43506300D01*
X23230512Y-43520217D01*
X23510130Y-43478787D01*
X23776292Y-43383603D01*
X23901514Y-43316671D01*
X23973097Y-43072702D01*
X23160000Y-42259605D01*
X22346903Y-43072702D01*
X21635000Y-43072702D01*
X21635000Y-42367289D01*
X21736816Y-42265473D01*
X21761213Y-42430130D01*
X21856397Y-42696292D01*
X21923329Y-42821514D01*
X22167298Y-42893097D01*
X22980395Y-42080000D01*
X23339605Y-42080000D01*
X24152702Y-42893097D01*
X24396671Y-42821514D01*
X24517571Y-42566004D01*
X24586300Y-42291816D01*
X24600217Y-42009488D01*
X24558787Y-41729870D01*
X24463603Y-41463708D01*
X24396671Y-41338486D01*
X24152702Y-41266903D01*
X23339605Y-42080000D01*
X22980395Y-42080000D01*
X22966253Y-42065858D01*
X23145858Y-41886253D01*
X23160000Y-41900395D01*
X23973097Y-41087298D01*
X23952785Y-41018072D01*
X23960000Y-41018072D01*
X24084482Y-41005812D01*
X24204180Y-40969502D01*
X24314494Y-40910537D01*
X24411185Y-40831185D01*
X24490537Y-40734494D01*
X24549502Y-40624180D01*
X24585812Y-40504482D01*
X24598072Y-40380000D01*
X24598072Y-38780000D01*
X24585812Y-38655518D01*
X24549502Y-38535820D01*
X24490537Y-38425506D01*
X24411185Y-38328815D01*
X24314494Y-38249463D01*
X24204180Y-38190498D01*
X24095000Y-38157379D01*
X24095000Y-37438671D01*
X26074078Y-37438671D01*
X26074078Y-37760737D01*
X26136910Y-38076616D01*
X26260160Y-38374167D01*
X26439091Y-38641956D01*
X26666826Y-38869691D01*
X26934615Y-39048622D01*
X27232166Y-39171872D01*
X27548045Y-39234704D01*
X27870111Y-39234704D01*
X28185990Y-39171872D01*
X28483541Y-39048622D01*
X28751330Y-38869691D01*
X28979065Y-38641956D01*
X29157996Y-38374167D01*
X29281246Y-38076616D01*
X29344078Y-37760737D01*
X29344078Y-37438671D01*
X29281246Y-37122792D01*
X29157996Y-36825241D01*
X28979065Y-36557452D01*
X28751330Y-36329717D01*
X28483541Y-36150786D01*
X28185990Y-36027536D01*
X27870111Y-35964704D01*
X27548045Y-35964704D01*
X27232166Y-36027536D01*
X26934615Y-36150786D01*
X26666826Y-36329717D01*
X26439091Y-36557452D01*
X26260160Y-36825241D01*
X26136910Y-37122792D01*
X26074078Y-37438671D01*
X24095000Y-37438671D01*
X24095000Y-31452289D01*
X24512290Y-31035000D01*
X28487928Y-31035000D01*
X28487928Y-31326000D01*
X28500188Y-31450482D01*
X28536498Y-31570180D01*
X28595463Y-31680494D01*
X28674815Y-31777185D01*
X28771506Y-31856537D01*
X28881820Y-31915502D01*
X29001518Y-31951812D01*
X29126000Y-31964072D01*
X31326000Y-31964072D01*
X31450482Y-31951812D01*
X31570180Y-31915502D01*
X31680494Y-31856537D01*
X31777185Y-31777185D01*
X31856537Y-31680494D01*
X31915502Y-31570180D01*
X31951812Y-31450482D01*
X31964072Y-31326000D01*
X31964072Y-29126000D01*
X31951812Y-29001518D01*
X31915502Y-28881820D01*
X31856537Y-28771506D01*
X31777185Y-28674815D01*
X31680494Y-28595463D01*
X31570180Y-28536498D01*
X31450482Y-28500188D01*
X31326000Y-28487928D01*
X29126000Y-28487928D01*
X29001518Y-28500188D01*
X28881820Y-28536498D01*
X28771506Y-28595463D01*
X28674815Y-28674815D01*
X28595463Y-28771506D01*
X28536498Y-28881820D01*
X28500188Y-29001518D01*
X28487928Y-29126000D01*
X28487928Y-29165000D01*
X24170931Y-29165000D01*
X24124999Y-29160476D01*
X23941707Y-29178529D01*
X23888243Y-29194747D01*
X23765460Y-29231993D01*
X23603028Y-29318814D01*
X23460656Y-29435656D01*
X23431374Y-29471336D01*
X22531336Y-30371375D01*
X22495657Y-30400656D01*
X22378815Y-30543028D01*
X22336619Y-30621972D01*
X22291994Y-30705460D01*
X22238529Y-30881709D01*
X22220476Y-31065000D01*
X22225001Y-31110942D01*
X22225000Y-38157379D01*
X22115820Y-38190498D01*
X22005506Y-38249463D01*
X21908815Y-38328815D01*
X21829463Y-38425506D01*
X21770498Y-38535820D01*
X21734188Y-38655518D01*
X21721928Y-38780000D01*
X21721928Y-39695783D01*
X21365824Y-40051887D01*
X21278027Y-40098815D01*
X21135655Y-40215657D01*
X21106375Y-40251335D01*
X20071341Y-41286370D01*
X20035656Y-41315656D01*
X19918814Y-41458029D01*
X19831993Y-41620461D01*
X19794566Y-41743842D01*
X19778529Y-41796709D01*
X19760476Y-41980000D01*
X19765000Y-42025932D01*
X19765001Y-52497056D01*
X19760476Y-52542998D01*
X19778529Y-52726289D01*
X19813448Y-52841400D01*
X19831994Y-52902538D01*
X19918815Y-53064970D01*
X20035657Y-53207342D01*
X20071336Y-53236623D01*
X23683113Y-56848401D01*
X23724550Y-56985000D01*
X23523061Y-56985000D01*
X23323102Y-57024774D01*
X23134744Y-57102795D01*
X22965226Y-57216063D01*
X22821063Y-57360226D01*
X22707795Y-57529744D01*
X22629774Y-57718102D01*
X22590000Y-57918061D01*
X22590000Y-58074068D01*
X22585476Y-58120000D01*
X22603529Y-58303291D01*
X22656994Y-58479540D01*
X22743815Y-58641971D01*
X22860657Y-58784343D01*
X23003029Y-58901185D01*
X23165460Y-58988006D01*
X23341709Y-59041471D01*
X23525000Y-59059524D01*
X23570932Y-59055000D01*
X23726939Y-59055000D01*
X23926898Y-59015226D01*
X24072295Y-58955000D01*
X25035000Y-58955000D01*
X25035001Y-60960707D01*
X24633005Y-61362703D01*
X24528028Y-61418815D01*
X24421334Y-61506377D01*
X23356377Y-62571334D01*
X23268815Y-62678029D01*
X23212705Y-62783004D01*
X22896341Y-63099368D01*
X22860656Y-63128654D01*
X22743814Y-63271027D01*
X22656993Y-63433459D01*
X22612987Y-63578529D01*
X22603529Y-63609707D01*
X22585476Y-63792998D01*
X22590000Y-63838930D01*
X22590000Y-63930932D01*
X22590001Y-63930942D01*
X22590000Y-75728068D01*
X22585476Y-75774000D01*
X22592839Y-75848754D01*
X22603529Y-75957291D01*
X22656993Y-76133539D01*
X22743814Y-76295971D01*
X22860656Y-76438344D01*
X22896341Y-76467630D01*
X23215001Y-76786290D01*
X23215001Y-84102454D01*
X23163764Y-84040023D01*
X23133810Y-84015440D01*
X22907345Y-83788975D01*
X22882764Y-83759023D01*
X22807007Y-83696850D01*
X21885000Y-82774843D01*
X21885000Y-66113556D01*
X21888797Y-66075000D01*
X21885000Y-66036444D01*
X21885000Y-66036439D01*
X21876792Y-65953102D01*
X21873642Y-65921113D01*
X21828754Y-65773140D01*
X21755862Y-65636767D01*
X21657764Y-65517236D01*
X21627810Y-65492653D01*
X19185000Y-63049843D01*
X19185000Y-31711089D01*
X19347946Y-31805442D01*
X19669877Y-31915179D01*
X19939000Y-31797600D01*
X19939000Y-30353000D01*
X20193000Y-30353000D01*
X20193000Y-31797600D01*
X20462123Y-31915179D01*
X20784054Y-31805442D01*
X21078391Y-31635008D01*
X21333822Y-31410427D01*
X21540531Y-31140329D01*
X21690575Y-30835094D01*
X21755175Y-30622122D01*
X21637125Y-30353000D01*
X20193000Y-30353000D01*
X19939000Y-30353000D01*
X19919000Y-30353000D01*
X19919000Y-30099000D01*
X19939000Y-30099000D01*
X19939000Y-28654400D01*
X20193000Y-28654400D01*
X20193000Y-30099000D01*
X21637125Y-30099000D01*
X21755175Y-29829878D01*
X21690575Y-29616906D01*
X21540531Y-29311671D01*
X21333822Y-29041573D01*
X21078391Y-28816992D01*
X20784054Y-28646558D01*
X20462123Y-28536821D01*
X20193000Y-28654400D01*
X19939000Y-28654400D01*
X19669877Y-28536821D01*
X19347946Y-28646558D01*
X19185000Y-28740911D01*
X19185000Y-26497344D01*
X26058832Y-26497344D01*
X26058832Y-26819410D01*
X26121664Y-27135289D01*
X26244914Y-27432840D01*
X26423845Y-27700629D01*
X26651580Y-27928364D01*
X26919369Y-28107295D01*
X27216920Y-28230545D01*
X27532799Y-28293377D01*
X27854865Y-28293377D01*
X28170744Y-28230545D01*
X28468295Y-28107295D01*
X28736084Y-27928364D01*
X28963819Y-27700629D01*
X29142750Y-27432840D01*
X29266000Y-27135289D01*
X29328832Y-26819410D01*
X29328832Y-26497344D01*
X29266000Y-26181465D01*
X29142750Y-25883914D01*
X28963819Y-25616125D01*
X28736084Y-25388390D01*
X28468295Y-25209459D01*
X28170744Y-25086209D01*
X27854865Y-25023377D01*
X27532799Y-25023377D01*
X27216920Y-25086209D01*
X26919369Y-25209459D01*
X26651580Y-25388390D01*
X26423845Y-25616125D01*
X26244914Y-25883914D01*
X26121664Y-26181465D01*
X26058832Y-26497344D01*
X19185000Y-26497344D01*
X19185000Y-24516207D01*
X33916891Y-24525454D01*
G04 #@! TA.AperFunction,Conductor*
D27*
G36*
X33916891Y-24525454D02*
G01*
X33958213Y-24733198D01*
X34055079Y-24967053D01*
X34195707Y-25177517D01*
X34374692Y-25356502D01*
X34585156Y-25497130D01*
X34819011Y-25593996D01*
X35067271Y-25643377D01*
X35320393Y-25643377D01*
X35568653Y-25593996D01*
X35802508Y-25497130D01*
X36012972Y-25356502D01*
X36191957Y-25177517D01*
X36332585Y-24967053D01*
X36429451Y-24733198D01*
X36470454Y-24527057D01*
X37324990Y-24527594D01*
X37324989Y-34021928D01*
X35730000Y-34021928D01*
X35605518Y-34034188D01*
X35485820Y-34070498D01*
X35375506Y-34129463D01*
X35278815Y-34208815D01*
X35199463Y-34305506D01*
X35140498Y-34415820D01*
X35134944Y-34434127D01*
X35068505Y-34367688D01*
X34817095Y-34199701D01*
X34537743Y-34083989D01*
X34241184Y-34025000D01*
X33938816Y-34025000D01*
X33642257Y-34083989D01*
X33362905Y-34199701D01*
X33111495Y-34367688D01*
X32897688Y-34581495D01*
X32729701Y-34832905D01*
X32613989Y-35112257D01*
X32555000Y-35408816D01*
X32555000Y-35711184D01*
X32613989Y-36007743D01*
X32729701Y-36287095D01*
X32897688Y-36538505D01*
X33111495Y-36752312D01*
X33362905Y-36920299D01*
X33642257Y-37036011D01*
X33938816Y-37095000D01*
X34241184Y-37095000D01*
X34537743Y-37036011D01*
X34817095Y-36920299D01*
X35068505Y-36752312D01*
X35134944Y-36685873D01*
X35140498Y-36704180D01*
X35199463Y-36814494D01*
X35278815Y-36911185D01*
X35375506Y-36990537D01*
X35485820Y-37049502D01*
X35605518Y-37085812D01*
X35730000Y-37098072D01*
X36876319Y-37098072D01*
X36810032Y-37258103D01*
X36770258Y-37458062D01*
X36770258Y-37661940D01*
X36810032Y-37861899D01*
X36888053Y-38050257D01*
X37001321Y-38219775D01*
X37145484Y-38363938D01*
X37315002Y-38477206D01*
X37503360Y-38555227D01*
X37703319Y-38595001D01*
X37869465Y-38595001D01*
X37906063Y-38649774D01*
X38050226Y-38793937D01*
X38219744Y-38907205D01*
X38408102Y-38985226D01*
X38608061Y-39025000D01*
X38811939Y-39025000D01*
X39011898Y-38985226D01*
X39200256Y-38907205D01*
X39369774Y-38793937D01*
X39513937Y-38649774D01*
X39627205Y-38480256D01*
X39705226Y-38291898D01*
X39738424Y-38125000D01*
X39771939Y-38125000D01*
X39971898Y-38085226D01*
X40160256Y-38007205D01*
X40329774Y-37893937D01*
X40473937Y-37749774D01*
X40587205Y-37580256D01*
X40640758Y-37450967D01*
X45887000Y-37450967D01*
X45887000Y-37773033D01*
X45949832Y-38088912D01*
X46073082Y-38386463D01*
X46252013Y-38654252D01*
X46479748Y-38881987D01*
X46747537Y-39060918D01*
X47045088Y-39184168D01*
X47360967Y-39247000D01*
X47683033Y-39247000D01*
X47998912Y-39184168D01*
X48296463Y-39060918D01*
X48564252Y-38881987D01*
X48791987Y-38654252D01*
X48970918Y-38386463D01*
X49094168Y-38088912D01*
X49157000Y-37773033D01*
X49157000Y-37450967D01*
X49094168Y-37135088D01*
X48970918Y-36837537D01*
X48791987Y-36569748D01*
X48564252Y-36342013D01*
X48296463Y-36163082D01*
X47998912Y-36039832D01*
X47683033Y-35977000D01*
X47360967Y-35977000D01*
X47045088Y-36039832D01*
X46747537Y-36163082D01*
X46479748Y-36342013D01*
X46252013Y-36569748D01*
X46073082Y-36837537D01*
X45949832Y-37135088D01*
X45887000Y-37450967D01*
X40640758Y-37450967D01*
X40647431Y-37434858D01*
X41648664Y-36433626D01*
X41684344Y-36404344D01*
X41801186Y-36261972D01*
X41888007Y-36099540D01*
X41941471Y-35923292D01*
X41955000Y-35785932D01*
X41959524Y-35740001D01*
X41955000Y-35694069D01*
X41955000Y-26735931D01*
X41959524Y-26689999D01*
X41941471Y-26506708D01*
X41938630Y-26497344D01*
X41932243Y-26476286D01*
X45876223Y-26476286D01*
X45876223Y-26798352D01*
X45939055Y-27114231D01*
X46062305Y-27411782D01*
X46241236Y-27679571D01*
X46468971Y-27907306D01*
X46736760Y-28086237D01*
X47034311Y-28209487D01*
X47350190Y-28272319D01*
X47672256Y-28272319D01*
X47988135Y-28209487D01*
X48285686Y-28086237D01*
X48553475Y-27907306D01*
X48781210Y-27679571D01*
X48960141Y-27411782D01*
X49083391Y-27114231D01*
X49146223Y-26798352D01*
X49146223Y-26476286D01*
X49083391Y-26160407D01*
X48960141Y-25862856D01*
X48781210Y-25595067D01*
X48553475Y-25367332D01*
X48285686Y-25188401D01*
X47988135Y-25065151D01*
X47672256Y-25002319D01*
X47350190Y-25002319D01*
X47034311Y-25065151D01*
X46736760Y-25188401D01*
X46468971Y-25367332D01*
X46241236Y-25595067D01*
X46062305Y-25862856D01*
X45939055Y-26160407D01*
X45876223Y-26476286D01*
X41932243Y-26476286D01*
X41888007Y-26330460D01*
X41801186Y-26168028D01*
X41684344Y-26025656D01*
X41648665Y-25996375D01*
X41472000Y-25819710D01*
X41597537Y-25631831D01*
X41728325Y-25316081D01*
X41795000Y-24980883D01*
X41795000Y-24639117D01*
X41773372Y-24530386D01*
X53740946Y-24537899D01*
X53775604Y-24712140D01*
X53872470Y-24945995D01*
X54013098Y-25156459D01*
X54192083Y-25335444D01*
X54402547Y-25476072D01*
X54636402Y-25572938D01*
X54884662Y-25622319D01*
X55137784Y-25622319D01*
X55386044Y-25572938D01*
X55619899Y-25476072D01*
X55830363Y-25335444D01*
X56009348Y-25156459D01*
X56149976Y-24945995D01*
X56246842Y-24712140D01*
X56281183Y-24539493D01*
X56886374Y-24539873D01*
X56886374Y-34271928D01*
X55540000Y-34271928D01*
X55415518Y-34284188D01*
X55295820Y-34320498D01*
X55185506Y-34379463D01*
X55088815Y-34458815D01*
X55009463Y-34555506D01*
X54950498Y-34665820D01*
X54944944Y-34684127D01*
X54878505Y-34617688D01*
X54627095Y-34449701D01*
X54347743Y-34333989D01*
X54051184Y-34275000D01*
X53748816Y-34275000D01*
X53452257Y-34333989D01*
X53172905Y-34449701D01*
X52921495Y-34617688D01*
X52707688Y-34831495D01*
X52539701Y-35082905D01*
X52423989Y-35362257D01*
X52365000Y-35658816D01*
X52365000Y-35694843D01*
X51865001Y-35194844D01*
X51865001Y-27440803D01*
X51970256Y-27397205D01*
X52139774Y-27283937D01*
X52283937Y-27139774D01*
X52397205Y-26970256D01*
X52475226Y-26781898D01*
X52515000Y-26581939D01*
X52515000Y-26378061D01*
X52475226Y-26178102D01*
X52397205Y-25989744D01*
X52283937Y-25820226D01*
X52139774Y-25676063D01*
X51970256Y-25562795D01*
X51781898Y-25484774D01*
X51581939Y-25445000D01*
X51378061Y-25445000D01*
X51178102Y-25484774D01*
X50989744Y-25562795D01*
X50820226Y-25676063D01*
X50676063Y-25820226D01*
X50562795Y-25989744D01*
X50484774Y-26178102D01*
X50445000Y-26378061D01*
X50445000Y-26416348D01*
X50424139Y-26441767D01*
X50351247Y-26578140D01*
X50306360Y-26726113D01*
X50295001Y-26841439D01*
X50295001Y-26841446D01*
X50291204Y-26879999D01*
X50295001Y-26918552D01*
X50295001Y-29775000D01*
X50118061Y-29775000D01*
X49918102Y-29814774D01*
X49729744Y-29892795D01*
X49560226Y-30006063D01*
X49416063Y-30150226D01*
X49302795Y-30319744D01*
X49224774Y-30508102D01*
X49185000Y-30708061D01*
X49185000Y-30911939D01*
X49224774Y-31111898D01*
X49302795Y-31300256D01*
X49416063Y-31469774D01*
X49435000Y-31488711D01*
X49435000Y-32752737D01*
X49360256Y-32702795D01*
X49171898Y-32624774D01*
X48971939Y-32585000D01*
X48768061Y-32585000D01*
X48568102Y-32624774D01*
X48379744Y-32702795D01*
X48210226Y-32816063D01*
X48066063Y-32960226D01*
X47952795Y-33129744D01*
X47874774Y-33318102D01*
X47835000Y-33518061D01*
X47835000Y-33721939D01*
X47874774Y-33921898D01*
X47952795Y-34110256D01*
X48066063Y-34279774D01*
X48085000Y-34298711D01*
X48085001Y-35011438D01*
X48081203Y-35050000D01*
X48096359Y-35203886D01*
X48141246Y-35351859D01*
X48170015Y-35405681D01*
X48214139Y-35488233D01*
X48249868Y-35531768D01*
X48287655Y-35577812D01*
X48287659Y-35577816D01*
X48312237Y-35607764D01*
X48342185Y-35632342D01*
X50887504Y-38177661D01*
X50931246Y-38321860D01*
X51004138Y-38458233D01*
X51102236Y-38577764D01*
X51132189Y-38602346D01*
X51904980Y-39375137D01*
X51904981Y-45454861D01*
X51784842Y-45575000D01*
X51758061Y-45575000D01*
X51558102Y-45614774D01*
X51369744Y-45692795D01*
X51200226Y-45806063D01*
X51056063Y-45950226D01*
X50942795Y-46119744D01*
X50864774Y-46308102D01*
X50825000Y-46508061D01*
X50825000Y-46711939D01*
X50864774Y-46911898D01*
X50942795Y-47100256D01*
X51056063Y-47269774D01*
X51200226Y-47413937D01*
X51369744Y-47527205D01*
X51558102Y-47605226D01*
X51758061Y-47645000D01*
X51961939Y-47645000D01*
X52060006Y-47625493D01*
X52067247Y-47661898D01*
X52145268Y-47850256D01*
X52258536Y-48019774D01*
X52330540Y-48091778D01*
X51424804Y-48997514D01*
X50314662Y-48997514D01*
X50295725Y-48978577D01*
X50126207Y-48865309D01*
X49937849Y-48787288D01*
X49906914Y-48781135D01*
X49831770Y-48599722D01*
X49718502Y-48430204D01*
X49574339Y-48286041D01*
X49404821Y-48172773D01*
X49216463Y-48094752D01*
X49016504Y-48054978D01*
X48925138Y-48054978D01*
X48970918Y-47986463D01*
X49094168Y-47688912D01*
X49157000Y-47373033D01*
X49157000Y-47050967D01*
X49094168Y-46735088D01*
X48970918Y-46437537D01*
X48791987Y-46169748D01*
X48564252Y-45942013D01*
X48296463Y-45763082D01*
X47998912Y-45639832D01*
X47683033Y-45577000D01*
X47360967Y-45577000D01*
X47045088Y-45639832D01*
X46747537Y-45763082D01*
X46479748Y-45942013D01*
X46252013Y-46169748D01*
X46073082Y-46437537D01*
X45949832Y-46735088D01*
X45887000Y-47050967D01*
X45887000Y-47373033D01*
X45949832Y-47688912D01*
X46073082Y-47986463D01*
X46252013Y-48254252D01*
X46462761Y-48465000D01*
X39085001Y-48465000D01*
X39085001Y-48398061D01*
X39045227Y-48198102D01*
X38967206Y-48009744D01*
X38853938Y-47840226D01*
X38709775Y-47696063D01*
X38693218Y-47685000D01*
X38881939Y-47685000D01*
X39081898Y-47645226D01*
X39270256Y-47567205D01*
X39303488Y-47545000D01*
X44071289Y-47545000D01*
X44090226Y-47563937D01*
X44259744Y-47677205D01*
X44448102Y-47755226D01*
X44648061Y-47795000D01*
X44851939Y-47795000D01*
X45051898Y-47755226D01*
X45240256Y-47677205D01*
X45409774Y-47563937D01*
X45553937Y-47419774D01*
X45667205Y-47250256D01*
X45745226Y-47061898D01*
X45785000Y-46861939D01*
X45785000Y-46658061D01*
X45745226Y-46458102D01*
X45667205Y-46269744D01*
X45553937Y-46100226D01*
X45409774Y-45956063D01*
X45240256Y-45842795D01*
X45051898Y-45764774D01*
X44851939Y-45725000D01*
X44648061Y-45725000D01*
X44448102Y-45764774D01*
X44259744Y-45842795D01*
X44090226Y-45956063D01*
X44071289Y-45975000D01*
X42314349Y-45975000D01*
X42399853Y-45768574D01*
X42455000Y-45491335D01*
X42455000Y-45208665D01*
X42399853Y-44931426D01*
X42291680Y-44670273D01*
X42134637Y-44435241D01*
X41968057Y-44268661D01*
X42064180Y-44239502D01*
X42174494Y-44180537D01*
X42271185Y-44101185D01*
X42350537Y-44004494D01*
X42409502Y-43894180D01*
X42445812Y-43774482D01*
X42458072Y-43650000D01*
X42456848Y-43445051D01*
X43721990Y-43445051D01*
X43721990Y-43648929D01*
X43761764Y-43848888D01*
X43839785Y-44037246D01*
X43953053Y-44206764D01*
X44097216Y-44350927D01*
X44266734Y-44464195D01*
X44455092Y-44542216D01*
X44655051Y-44581990D01*
X44858929Y-44581990D01*
X45058888Y-44542216D01*
X45247246Y-44464195D01*
X45416764Y-44350927D01*
X45560927Y-44206764D01*
X45674195Y-44037246D01*
X45752216Y-43848888D01*
X45791990Y-43648929D01*
X45791990Y-43445051D01*
X45752216Y-43245092D01*
X45674195Y-43056734D01*
X45560927Y-42887216D01*
X45416764Y-42743053D01*
X45247246Y-42629785D01*
X45058888Y-42551764D01*
X44858929Y-42511990D01*
X44655051Y-42511990D01*
X44455092Y-42551764D01*
X44266734Y-42629785D01*
X44097216Y-42743053D01*
X43953053Y-42887216D01*
X43839785Y-43056734D01*
X43761764Y-43245092D01*
X43721990Y-43445051D01*
X42456848Y-43445051D01*
X42455000Y-43135750D01*
X42296250Y-42977000D01*
X41147000Y-42977000D01*
X41147000Y-42997000D01*
X40893000Y-42997000D01*
X40893000Y-42977000D01*
X39743750Y-42977000D01*
X39585000Y-43135750D01*
X39581928Y-43650000D01*
X39594188Y-43774482D01*
X39630498Y-43894180D01*
X39689463Y-44004494D01*
X39768815Y-44101185D01*
X39865506Y-44180537D01*
X39975820Y-44239502D01*
X40071943Y-44268661D01*
X39905363Y-44435241D01*
X39748320Y-44670273D01*
X39640147Y-44931426D01*
X39585000Y-45208665D01*
X39585000Y-45491335D01*
X39640147Y-45768574D01*
X39725651Y-45975000D01*
X39568711Y-45975000D01*
X39439774Y-45846063D01*
X39270256Y-45732795D01*
X39081898Y-45654774D01*
X38881939Y-45615000D01*
X38678061Y-45615000D01*
X38478102Y-45654774D01*
X38289744Y-45732795D01*
X38120226Y-45846063D01*
X37976063Y-45990226D01*
X37862795Y-46159744D01*
X37784774Y-46348102D01*
X37745000Y-46548061D01*
X37745000Y-46751939D01*
X37784774Y-46951898D01*
X37862795Y-47140256D01*
X37976063Y-47309774D01*
X38120226Y-47453937D01*
X38136783Y-47465000D01*
X37948062Y-47465000D01*
X37748103Y-47504774D01*
X37559745Y-47582795D01*
X37390227Y-47696063D01*
X37371290Y-47715000D01*
X30214722Y-47715000D01*
X30195785Y-47696063D01*
X30026267Y-47582795D01*
X29837909Y-47504774D01*
X29637950Y-47465000D01*
X29434072Y-47465000D01*
X29318777Y-47487933D01*
X29344078Y-47360737D01*
X29344078Y-47038671D01*
X29281246Y-46722792D01*
X29157996Y-46425241D01*
X28979065Y-46157452D01*
X28751330Y-45929717D01*
X28483541Y-45750786D01*
X28185990Y-45627536D01*
X27870111Y-45564704D01*
X27548045Y-45564704D01*
X27232166Y-45627536D01*
X26934615Y-45750786D01*
X26666826Y-45929717D01*
X26439091Y-46157452D01*
X26260160Y-46425241D01*
X26136910Y-46722792D01*
X26074078Y-47038671D01*
X26074078Y-47360737D01*
X26136910Y-47676616D01*
X26260160Y-47974167D01*
X26439091Y-48241956D01*
X26662135Y-48465000D01*
X26007166Y-48465000D01*
X25990984Y-48448818D01*
X25966400Y-48418863D01*
X25846869Y-48320765D01*
X25710496Y-48247873D01*
X25562523Y-48202986D01*
X25529798Y-48199763D01*
X25502725Y-48172690D01*
X25333207Y-48059422D01*
X25144849Y-47981401D01*
X24944890Y-47941627D01*
X24741012Y-47941627D01*
X24541053Y-47981401D01*
X24352695Y-48059422D01*
X24183177Y-48172690D01*
X24039014Y-48316853D01*
X23925746Y-48486371D01*
X23847725Y-48674729D01*
X23807951Y-48874688D01*
X23807951Y-49078566D01*
X23847725Y-49278525D01*
X23925746Y-49466883D01*
X23965530Y-49526424D01*
X23904774Y-49673102D01*
X23865000Y-49873061D01*
X23865000Y-50076939D01*
X23885942Y-50182221D01*
X23865226Y-50196063D01*
X23721063Y-50340226D01*
X23607795Y-50509744D01*
X23529774Y-50698102D01*
X23490000Y-50898061D01*
X23490000Y-51101939D01*
X23529774Y-51301898D01*
X23607795Y-51490256D01*
X23721063Y-51659774D01*
X23865226Y-51803937D01*
X24034744Y-51917205D01*
X24223102Y-51995226D01*
X24423061Y-52035000D01*
X24626939Y-52035000D01*
X24826898Y-51995226D01*
X25015256Y-51917205D01*
X25184774Y-51803937D01*
X25203711Y-51785000D01*
X35726445Y-51785000D01*
X35764998Y-51788797D01*
X35803551Y-51785000D01*
X35803559Y-51785000D01*
X35918885Y-51773641D01*
X36066858Y-51728754D01*
X36203231Y-51655862D01*
X36322762Y-51557764D01*
X36347345Y-51527809D01*
X36490156Y-51384999D01*
X36557419Y-51384999D01*
X36570901Y-51401427D01*
X36690432Y-51499525D01*
X36826805Y-51572417D01*
X36859533Y-51582345D01*
X36974778Y-51617305D01*
X37049691Y-51624683D01*
X37090104Y-51628663D01*
X37090109Y-51628663D01*
X37128665Y-51632460D01*
X37167220Y-51628663D01*
X48389952Y-51628663D01*
X48440226Y-51678937D01*
X48609744Y-51792205D01*
X48798102Y-51870226D01*
X48998061Y-51910000D01*
X49201939Y-51910000D01*
X49401898Y-51870226D01*
X49590256Y-51792205D01*
X49759774Y-51678937D01*
X49903937Y-51534774D01*
X50017205Y-51365256D01*
X50095226Y-51176898D01*
X50135000Y-50976939D01*
X50135000Y-50773061D01*
X50120853Y-50701937D01*
X50126207Y-50699719D01*
X50295725Y-50586451D01*
X50314662Y-50567514D01*
X51711408Y-50567514D01*
X51749961Y-50571311D01*
X51788514Y-50567514D01*
X51788522Y-50567514D01*
X51903848Y-50556155D01*
X52051821Y-50511268D01*
X52188194Y-50438376D01*
X52307725Y-50340278D01*
X52332308Y-50310324D01*
X54340284Y-48302348D01*
X54370238Y-48277765D01*
X54468336Y-48158234D01*
X54541228Y-48021861D01*
X54551966Y-47986463D01*
X54586116Y-47873888D01*
X54594353Y-47790247D01*
X54597474Y-47758562D01*
X54597474Y-47758557D01*
X54601271Y-47720001D01*
X54597474Y-47681445D01*
X54597474Y-46971026D01*
X54601271Y-46932473D01*
X54597474Y-46893920D01*
X54597474Y-46893913D01*
X54586115Y-46778587D01*
X54541228Y-46630614D01*
X54475000Y-46506709D01*
X54475000Y-46076300D01*
X54647179Y-46147619D01*
X54895439Y-46197000D01*
X55148561Y-46197000D01*
X55396821Y-46147619D01*
X55630676Y-46050753D01*
X55841140Y-45910125D01*
X56020125Y-45731140D01*
X56160753Y-45520676D01*
X56257619Y-45286821D01*
X56307000Y-45038561D01*
X56307000Y-44785439D01*
X56257619Y-44537179D01*
X56160753Y-44303324D01*
X56020125Y-44092860D01*
X55841140Y-43913875D01*
X55630676Y-43773247D01*
X55396821Y-43676381D01*
X55324521Y-43662000D01*
X55396821Y-43647619D01*
X55630676Y-43550753D01*
X55841140Y-43410125D01*
X56020125Y-43231140D01*
X56160753Y-43020676D01*
X56257619Y-42786821D01*
X56307000Y-42538561D01*
X56307000Y-42285439D01*
X56257619Y-42037179D01*
X56160753Y-41803324D01*
X56020125Y-41592860D01*
X55841140Y-41413875D01*
X55630676Y-41273247D01*
X55396821Y-41176381D01*
X55324521Y-41162000D01*
X55396821Y-41147619D01*
X55630676Y-41050753D01*
X55841140Y-40910125D01*
X56020125Y-40731140D01*
X56160753Y-40520676D01*
X56257619Y-40286821D01*
X56307000Y-40038561D01*
X56307000Y-39785439D01*
X56257619Y-39537179D01*
X56160753Y-39303324D01*
X56020125Y-39092860D01*
X55841140Y-38913875D01*
X55630676Y-38773247D01*
X55396821Y-38676381D01*
X55148561Y-38627000D01*
X54895439Y-38627000D01*
X54647179Y-38676381D01*
X54475000Y-38747700D01*
X54475000Y-38348556D01*
X54478797Y-38310000D01*
X54475000Y-38271440D01*
X54475000Y-38271439D01*
X54471020Y-38231026D01*
X54463642Y-38156113D01*
X54418754Y-38008140D01*
X54405864Y-37984024D01*
X54345862Y-37871767D01*
X54247764Y-37752236D01*
X54217811Y-37727654D01*
X53835157Y-37345000D01*
X54051184Y-37345000D01*
X54347743Y-37286011D01*
X54627095Y-37170299D01*
X54878505Y-37002312D01*
X54944944Y-36935873D01*
X54950498Y-36954180D01*
X55009463Y-37064494D01*
X55088815Y-37161185D01*
X55185506Y-37240537D01*
X55295820Y-37299502D01*
X55415518Y-37335812D01*
X55540000Y-37348072D01*
X56886374Y-37348072D01*
X56886374Y-111558000D01*
X54147592Y-111558000D01*
X54280918Y-111358463D01*
X54404168Y-111060912D01*
X54467000Y-110745033D01*
X54467000Y-110422967D01*
X54404168Y-110107088D01*
X54280918Y-109809537D01*
X54101987Y-109541748D01*
X53874252Y-109314013D01*
X53606463Y-109135082D01*
X53308912Y-109011832D01*
X52993033Y-108949000D01*
X52670967Y-108949000D01*
X52355088Y-109011832D01*
X52057537Y-109135082D01*
X51789748Y-109314013D01*
X51562013Y-109541748D01*
X51383082Y-109809537D01*
X51259832Y-110107088D01*
X51197000Y-110422967D01*
X51197000Y-110745033D01*
X51259832Y-111060912D01*
X51383082Y-111358463D01*
X51516408Y-111558000D01*
X44072258Y-111558000D01*
X44205584Y-111358463D01*
X44328834Y-111060912D01*
X44391666Y-110745033D01*
X44391666Y-110422967D01*
X44328834Y-110107088D01*
X44205584Y-109809537D01*
X44026653Y-109541748D01*
X43798918Y-109314013D01*
X43531129Y-109135082D01*
X43233578Y-109011832D01*
X42917699Y-108949000D01*
X42595633Y-108949000D01*
X42292183Y-109009360D01*
X40810000Y-107527177D01*
X40810000Y-105778711D01*
X40828937Y-105759774D01*
X40942205Y-105590256D01*
X41020226Y-105401898D01*
X41060000Y-105201939D01*
X41060000Y-104998061D01*
X41020226Y-104798102D01*
X40942205Y-104609744D01*
X40828937Y-104440226D01*
X40684774Y-104296063D01*
X40515256Y-104182795D01*
X40326898Y-104104774D01*
X40126939Y-104065000D01*
X39923061Y-104065000D01*
X39723102Y-104104774D01*
X39534744Y-104182795D01*
X39365226Y-104296063D01*
X39221063Y-104440226D01*
X39107795Y-104609744D01*
X39029774Y-104798102D01*
X38990000Y-104998061D01*
X38990000Y-105201939D01*
X39029774Y-105401898D01*
X39107795Y-105590256D01*
X39221063Y-105759774D01*
X39240000Y-105778711D01*
X39240001Y-107591603D01*
X39048102Y-107629774D01*
X38859744Y-107707795D01*
X38690226Y-107821063D01*
X38546063Y-107965226D01*
X38432795Y-108134744D01*
X38354774Y-108323102D01*
X38315000Y-108523061D01*
X38315000Y-108726939D01*
X38354774Y-108926898D01*
X38432795Y-109115256D01*
X38546063Y-109284774D01*
X38565000Y-109303711D01*
X38565001Y-110121288D01*
X38521063Y-110165226D01*
X38407795Y-110334744D01*
X38329774Y-110523102D01*
X38290000Y-110723061D01*
X38290000Y-110926939D01*
X38329774Y-111126898D01*
X38407795Y-111315256D01*
X38521063Y-111484774D01*
X38594289Y-111558000D01*
X33996925Y-111558000D01*
X34130251Y-111358463D01*
X34253501Y-111060912D01*
X34316333Y-110745033D01*
X34316333Y-110422967D01*
X34253501Y-110107088D01*
X34130251Y-109809537D01*
X33951320Y-109541748D01*
X33723585Y-109314013D01*
X33455796Y-109135082D01*
X33158245Y-109011832D01*
X32842366Y-108949000D01*
X32520300Y-108949000D01*
X32204421Y-109011832D01*
X31906870Y-109135082D01*
X31639081Y-109314013D01*
X31411346Y-109541748D01*
X31267374Y-109757217D01*
X30335000Y-108824843D01*
X30335000Y-102122967D01*
X31046333Y-102122967D01*
X31046333Y-102445033D01*
X31109165Y-102760912D01*
X31232415Y-103058463D01*
X31411346Y-103326252D01*
X31639081Y-103553987D01*
X31906870Y-103732918D01*
X32204421Y-103856168D01*
X32520300Y-103919000D01*
X32842366Y-103919000D01*
X33158245Y-103856168D01*
X33455796Y-103732918D01*
X33723585Y-103553987D01*
X33951320Y-103326252D01*
X34130251Y-103058463D01*
X34253501Y-102760912D01*
X34316333Y-102445033D01*
X34316333Y-102122967D01*
X34253501Y-101807088D01*
X34130251Y-101509537D01*
X33951320Y-101241748D01*
X33723585Y-101014013D01*
X33507071Y-100869343D01*
X32681333Y-100043605D01*
X31855595Y-100869343D01*
X31639081Y-101014013D01*
X31411346Y-101241748D01*
X31232415Y-101509537D01*
X31109165Y-101807088D01*
X31046333Y-102122967D01*
X30335000Y-102122967D01*
X30335000Y-99930553D01*
X31140342Y-99930553D01*
X31182936Y-100229907D01*
X31283111Y-100515199D01*
X31363072Y-100664792D01*
X31617253Y-100748475D01*
X32501728Y-99864000D01*
X32860938Y-99864000D01*
X33745413Y-100748475D01*
X33999594Y-100664792D01*
X34130491Y-100392225D01*
X34205698Y-100099358D01*
X34222324Y-99797447D01*
X34179730Y-99498093D01*
X34079555Y-99212801D01*
X33999594Y-99063208D01*
X33745413Y-98979525D01*
X32860938Y-99864000D01*
X32501728Y-99864000D01*
X31617253Y-98979525D01*
X31363072Y-99063208D01*
X31232175Y-99335775D01*
X31156968Y-99628642D01*
X31140342Y-99930553D01*
X30335000Y-99930553D01*
X30335000Y-98799920D01*
X31796858Y-98799920D01*
X32681333Y-99684395D01*
X33565808Y-98799920D01*
X33482125Y-98545739D01*
X33209558Y-98414842D01*
X32916691Y-98339635D01*
X32687253Y-98327000D01*
X35387928Y-98327000D01*
X35387928Y-99577000D01*
X35405472Y-99755132D01*
X35457431Y-99926418D01*
X35541808Y-100084276D01*
X35655361Y-100222639D01*
X35793724Y-100336192D01*
X35951582Y-100420569D01*
X36122868Y-100472528D01*
X36301000Y-100490072D01*
X36851000Y-100490072D01*
X37029132Y-100472528D01*
X37200418Y-100420569D01*
X37358276Y-100336192D01*
X37496639Y-100222639D01*
X37610192Y-100084276D01*
X37694569Y-99926418D01*
X37746528Y-99755132D01*
X37764072Y-99577000D01*
X37764072Y-98327000D01*
X37746528Y-98148868D01*
X37719000Y-98058120D01*
X37719000Y-97009000D01*
X36819750Y-97009000D01*
X36661000Y-97167750D01*
X36659769Y-97413928D01*
X36301000Y-97413928D01*
X36122868Y-97431472D01*
X35951582Y-97483431D01*
X35793724Y-97567808D01*
X35655361Y-97681361D01*
X35541808Y-97819724D01*
X35457431Y-97977582D01*
X35405472Y-98148868D01*
X35387928Y-98327000D01*
X32687253Y-98327000D01*
X32614780Y-98323009D01*
X32315426Y-98365603D01*
X32030134Y-98465778D01*
X31880541Y-98545739D01*
X31796858Y-98799920D01*
X30335000Y-98799920D01*
X30335000Y-97796080D01*
X31796858Y-97796080D01*
X31880541Y-98050261D01*
X32153108Y-98181158D01*
X32445975Y-98256365D01*
X32747886Y-98272991D01*
X33047240Y-98230397D01*
X33332532Y-98130222D01*
X33482125Y-98050261D01*
X33565808Y-97796080D01*
X32681333Y-96911605D01*
X31796858Y-97796080D01*
X30335000Y-97796080D01*
X30335000Y-96798553D01*
X31140342Y-96798553D01*
X31182936Y-97097907D01*
X31283111Y-97383199D01*
X31363072Y-97532792D01*
X31617253Y-97616475D01*
X32501728Y-96732000D01*
X32860938Y-96732000D01*
X33745413Y-97616475D01*
X33999594Y-97532792D01*
X34130491Y-97260225D01*
X34205698Y-96967358D01*
X34222324Y-96665447D01*
X34179730Y-96366093D01*
X34079555Y-96080801D01*
X34026744Y-95982000D01*
X36657928Y-95982000D01*
X36661000Y-96596250D01*
X36819750Y-96755000D01*
X37719000Y-96755000D01*
X37719000Y-95505750D01*
X37560250Y-95347000D01*
X37296000Y-95343928D01*
X37171518Y-95356188D01*
X37051820Y-95392498D01*
X36941506Y-95451463D01*
X36844815Y-95530815D01*
X36765463Y-95627506D01*
X36706498Y-95737820D01*
X36670188Y-95857518D01*
X36657928Y-95982000D01*
X34026744Y-95982000D01*
X33999594Y-95931208D01*
X33745413Y-95847525D01*
X32860938Y-96732000D01*
X32501728Y-96732000D01*
X31617253Y-95847525D01*
X31363072Y-95931208D01*
X31232175Y-96203775D01*
X31156968Y-96496642D01*
X31140342Y-96798553D01*
X30335000Y-96798553D01*
X30335000Y-94150967D01*
X31046333Y-94150967D01*
X31046333Y-94473033D01*
X31109165Y-94788912D01*
X31232415Y-95086463D01*
X31411346Y-95354252D01*
X31639081Y-95581987D01*
X31855595Y-95726657D01*
X32681333Y-96552395D01*
X33507071Y-95726657D01*
X33723585Y-95581987D01*
X33951320Y-95354252D01*
X34130251Y-95086463D01*
X34253501Y-94788912D01*
X34316333Y-94473033D01*
X34316333Y-94423061D01*
X37565000Y-94423061D01*
X37565000Y-94626939D01*
X37604774Y-94826898D01*
X37682795Y-95015256D01*
X37796063Y-95184774D01*
X37940226Y-95328937D01*
X38065864Y-95412886D01*
X37973000Y-95505750D01*
X37973000Y-96755000D01*
X38872250Y-96755000D01*
X39031000Y-96596250D01*
X39034072Y-95982000D01*
X39021812Y-95857518D01*
X38985502Y-95737820D01*
X38926537Y-95627506D01*
X38847392Y-95531068D01*
X38901898Y-95520226D01*
X39047295Y-95460000D01*
X41592427Y-95460000D01*
X41714414Y-95581987D01*
X41930928Y-95726657D01*
X42756666Y-96552395D01*
X42770809Y-96538253D01*
X42950414Y-96717858D01*
X42936271Y-96732000D01*
X42950414Y-96746143D01*
X42770809Y-96925748D01*
X42756666Y-96911605D01*
X42742524Y-96925748D01*
X42562919Y-96746143D01*
X42577061Y-96732000D01*
X41692586Y-95847525D01*
X41438405Y-95931208D01*
X41307508Y-96203775D01*
X41232301Y-96496642D01*
X41215675Y-96798553D01*
X41258269Y-97097907D01*
X41293064Y-97197001D01*
X40706930Y-97197001D01*
X40660998Y-97192477D01*
X40477706Y-97210530D01*
X40449142Y-97219195D01*
X40301459Y-97263994D01*
X40139027Y-97350815D01*
X39996655Y-97467657D01*
X39973231Y-97496200D01*
X39910180Y-97462498D01*
X39790482Y-97426188D01*
X39666000Y-97413928D01*
X39032231Y-97413928D01*
X39031000Y-97167750D01*
X38872250Y-97009000D01*
X37973000Y-97009000D01*
X37973000Y-97819351D01*
X37940188Y-97927518D01*
X37927928Y-98052000D01*
X37927928Y-99852000D01*
X37940188Y-99976482D01*
X37976498Y-100096180D01*
X38035463Y-100206494D01*
X38114815Y-100303185D01*
X38211506Y-100382537D01*
X38321820Y-100441502D01*
X38441518Y-100477812D01*
X38566000Y-100490072D01*
X39666000Y-100490072D01*
X39790482Y-100477812D01*
X39910180Y-100441502D01*
X40020494Y-100382537D01*
X40117185Y-100303185D01*
X40196537Y-100206494D01*
X40255502Y-100096180D01*
X40291812Y-99976482D01*
X40304072Y-99852000D01*
X40304072Y-99485312D01*
X40424292Y-99473471D01*
X40600540Y-99420007D01*
X40762972Y-99333186D01*
X40905344Y-99216344D01*
X40934630Y-99180659D01*
X41048288Y-99067001D01*
X41436583Y-99067001D01*
X41307508Y-99335775D01*
X41232301Y-99628642D01*
X41215675Y-99930553D01*
X41258269Y-100229907D01*
X41358444Y-100515199D01*
X41438405Y-100664792D01*
X41692586Y-100748475D01*
X42577061Y-99864000D01*
X42562919Y-99849858D01*
X42742524Y-99670253D01*
X42756666Y-99684395D01*
X42770809Y-99670253D01*
X42950414Y-99849858D01*
X42936271Y-99864000D01*
X42950414Y-99878143D01*
X42770809Y-100057748D01*
X42756666Y-100043605D01*
X41930928Y-100869343D01*
X41714414Y-101014013D01*
X41486679Y-101241748D01*
X41307748Y-101509537D01*
X41184498Y-101807088D01*
X41121666Y-102122967D01*
X41121666Y-102445033D01*
X41184498Y-102760912D01*
X41307748Y-103058463D01*
X41486679Y-103326252D01*
X41714414Y-103553987D01*
X41982203Y-103732918D01*
X42279754Y-103856168D01*
X42595633Y-103919000D01*
X42917699Y-103919000D01*
X43233578Y-103856168D01*
X43531129Y-103732918D01*
X43798918Y-103553987D01*
X44026653Y-103326252D01*
X44205584Y-103058463D01*
X44328834Y-102760912D01*
X44391666Y-102445033D01*
X44391666Y-102122967D01*
X51197000Y-102122967D01*
X51197000Y-102445033D01*
X51259832Y-102760912D01*
X51383082Y-103058463D01*
X51562013Y-103326252D01*
X51789748Y-103553987D01*
X52057537Y-103732918D01*
X52355088Y-103856168D01*
X52670967Y-103919000D01*
X52993033Y-103919000D01*
X53308912Y-103856168D01*
X53606463Y-103732918D01*
X53874252Y-103553987D01*
X54101987Y-103326252D01*
X54280918Y-103058463D01*
X54404168Y-102760912D01*
X54467000Y-102445033D01*
X54467000Y-102122967D01*
X54404168Y-101807088D01*
X54280918Y-101509537D01*
X54101987Y-101241748D01*
X53874252Y-101014013D01*
X53657738Y-100869343D01*
X52832000Y-100043605D01*
X52006262Y-100869343D01*
X51789748Y-101014013D01*
X51562013Y-101241748D01*
X51383082Y-101509537D01*
X51259832Y-101807088D01*
X51197000Y-102122967D01*
X44391666Y-102122967D01*
X44366501Y-101996454D01*
X46432402Y-99930553D01*
X51291009Y-99930553D01*
X51333603Y-100229907D01*
X51433778Y-100515199D01*
X51513739Y-100664792D01*
X51767920Y-100748475D01*
X52652395Y-99864000D01*
X53011605Y-99864000D01*
X53896080Y-100748475D01*
X54150261Y-100664792D01*
X54281158Y-100392225D01*
X54356365Y-100099358D01*
X54372991Y-99797447D01*
X54330397Y-99498093D01*
X54230222Y-99212801D01*
X54150261Y-99063208D01*
X53896080Y-98979525D01*
X53011605Y-99864000D01*
X52652395Y-99864000D01*
X51767920Y-98979525D01*
X51513739Y-99063208D01*
X51382842Y-99335775D01*
X51307635Y-99628642D01*
X51291009Y-99930553D01*
X46432402Y-99930553D01*
X46824884Y-99538072D01*
X47700000Y-99538072D01*
X47824482Y-99525812D01*
X47944180Y-99489502D01*
X48054494Y-99430537D01*
X48151185Y-99351185D01*
X48161807Y-99338242D01*
X48413996Y-99457571D01*
X48688184Y-99526300D01*
X48970512Y-99540217D01*
X49250130Y-99498787D01*
X49516292Y-99403603D01*
X49641514Y-99336671D01*
X49713097Y-99092702D01*
X48900000Y-98279605D01*
X48885858Y-98293748D01*
X48706253Y-98114143D01*
X48720395Y-98100000D01*
X49079605Y-98100000D01*
X49892702Y-98913097D01*
X50136671Y-98841514D01*
X50156352Y-98799920D01*
X51947525Y-98799920D01*
X52832000Y-99684395D01*
X53716475Y-98799920D01*
X53632792Y-98545739D01*
X53360225Y-98414842D01*
X53067358Y-98339635D01*
X52765447Y-98323009D01*
X52466093Y-98365603D01*
X52180801Y-98465778D01*
X52031208Y-98545739D01*
X51947525Y-98799920D01*
X50156352Y-98799920D01*
X50257571Y-98586004D01*
X50326300Y-98311816D01*
X50340217Y-98029488D01*
X50305634Y-97796080D01*
X51947525Y-97796080D01*
X52031208Y-98050261D01*
X52303775Y-98181158D01*
X52596642Y-98256365D01*
X52898553Y-98272991D01*
X53197907Y-98230397D01*
X53483199Y-98130222D01*
X53632792Y-98050261D01*
X53716475Y-97796080D01*
X52832000Y-96911605D01*
X51947525Y-97796080D01*
X50305634Y-97796080D01*
X50298787Y-97749870D01*
X50203603Y-97483708D01*
X50136671Y-97358486D01*
X49892702Y-97286903D01*
X49079605Y-98100000D01*
X48720395Y-98100000D01*
X48706253Y-98085858D01*
X48885858Y-97906253D01*
X48900000Y-97920395D01*
X49713097Y-97107298D01*
X49641514Y-96863329D01*
X49504617Y-96798553D01*
X51291009Y-96798553D01*
X51333603Y-97097907D01*
X51433778Y-97383199D01*
X51513739Y-97532792D01*
X51767920Y-97616475D01*
X52652395Y-96732000D01*
X53011605Y-96732000D01*
X53896080Y-97616475D01*
X54150261Y-97532792D01*
X54281158Y-97260225D01*
X54356365Y-96967358D01*
X54372991Y-96665447D01*
X54330397Y-96366093D01*
X54230222Y-96080801D01*
X54150261Y-95931208D01*
X53896080Y-95847525D01*
X53011605Y-96732000D01*
X52652395Y-96732000D01*
X51767920Y-95847525D01*
X51513739Y-95931208D01*
X51382842Y-96203775D01*
X51307635Y-96496642D01*
X51291009Y-96798553D01*
X49504617Y-96798553D01*
X49386004Y-96742429D01*
X49111816Y-96673700D01*
X48829488Y-96659783D01*
X48549870Y-96701213D01*
X48283708Y-96796397D01*
X48161691Y-96861616D01*
X48151185Y-96848815D01*
X48054494Y-96769463D01*
X47944180Y-96710498D01*
X47824482Y-96674188D01*
X47700000Y-96661928D01*
X46784217Y-96661928D01*
X44391666Y-94269377D01*
X44391666Y-94150967D01*
X51197000Y-94150967D01*
X51197000Y-94473033D01*
X51259832Y-94788912D01*
X51383082Y-95086463D01*
X51562013Y-95354252D01*
X51789748Y-95581987D01*
X52006262Y-95726657D01*
X52832000Y-96552395D01*
X53657738Y-95726657D01*
X53874252Y-95581987D01*
X54101987Y-95354252D01*
X54280918Y-95086463D01*
X54404168Y-94788912D01*
X54467000Y-94473033D01*
X54467000Y-94150967D01*
X54404168Y-93835088D01*
X54280918Y-93537537D01*
X54101987Y-93269748D01*
X53874252Y-93042013D01*
X53606463Y-92863082D01*
X53308912Y-92739832D01*
X52993033Y-92677000D01*
X52670967Y-92677000D01*
X52355088Y-92739832D01*
X52057537Y-92863082D01*
X51789748Y-93042013D01*
X51562013Y-93269748D01*
X51383082Y-93537537D01*
X51259832Y-93835088D01*
X51197000Y-94150967D01*
X44391666Y-94150967D01*
X44328834Y-93835088D01*
X44205584Y-93537537D01*
X44026653Y-93269748D01*
X43798918Y-93042013D01*
X43531129Y-92863082D01*
X43233578Y-92739832D01*
X42917699Y-92677000D01*
X42595633Y-92677000D01*
X42279754Y-92739832D01*
X41982203Y-92863082D01*
X41714414Y-93042013D01*
X41486679Y-93269748D01*
X41307748Y-93537537D01*
X41286017Y-93590000D01*
X39047295Y-93590000D01*
X38901898Y-93529774D01*
X38701939Y-93490000D01*
X38498061Y-93490000D01*
X38298102Y-93529774D01*
X38109744Y-93607795D01*
X37940226Y-93721063D01*
X37796063Y-93865226D01*
X37682795Y-94034744D01*
X37604774Y-94223102D01*
X37565000Y-94423061D01*
X34316333Y-94423061D01*
X34316333Y-94150967D01*
X34253501Y-93835088D01*
X34130251Y-93537537D01*
X33951320Y-93269748D01*
X33723585Y-93042013D01*
X33455796Y-92863082D01*
X33158245Y-92739832D01*
X32842366Y-92677000D01*
X32520300Y-92677000D01*
X32204421Y-92739832D01*
X31906870Y-92863082D01*
X31639081Y-93042013D01*
X31411346Y-93269748D01*
X31232415Y-93537537D01*
X31109165Y-93835088D01*
X31046333Y-94150967D01*
X30335000Y-94150967D01*
X30335000Y-91975157D01*
X32152811Y-90157346D01*
X32182765Y-90132763D01*
X32280863Y-90013232D01*
X32353755Y-89876859D01*
X32361327Y-89851898D01*
X32398643Y-89728886D01*
X32406221Y-89651939D01*
X32410001Y-89613560D01*
X32410001Y-89613555D01*
X32413798Y-89574999D01*
X32410001Y-89536443D01*
X32410001Y-89498061D01*
X35865000Y-89498061D01*
X35865000Y-89701939D01*
X35904774Y-89901898D01*
X35982795Y-90090256D01*
X36096063Y-90259774D01*
X36240226Y-90403937D01*
X36409744Y-90517205D01*
X36598102Y-90595226D01*
X36798061Y-90635000D01*
X37001939Y-90635000D01*
X37201898Y-90595226D01*
X37226079Y-90585210D01*
X37096063Y-90715226D01*
X36982795Y-90884744D01*
X36904774Y-91073102D01*
X36865000Y-91273061D01*
X36865000Y-91476939D01*
X36904774Y-91676898D01*
X36982795Y-91865256D01*
X37096063Y-92034774D01*
X37240226Y-92178937D01*
X37409744Y-92292205D01*
X37598102Y-92370226D01*
X37798061Y-92410000D01*
X38001939Y-92410000D01*
X38201898Y-92370226D01*
X38390256Y-92292205D01*
X38559774Y-92178937D01*
X38578711Y-92160000D01*
X45796289Y-92160000D01*
X45890226Y-92253937D01*
X46059744Y-92367205D01*
X46248102Y-92445226D01*
X46448061Y-92485000D01*
X46651939Y-92485000D01*
X46851898Y-92445226D01*
X47040256Y-92367205D01*
X47209774Y-92253937D01*
X47353937Y-92109774D01*
X47467205Y-91940256D01*
X47545226Y-91751898D01*
X47585000Y-91551939D01*
X47585000Y-91348061D01*
X47545226Y-91148102D01*
X47467205Y-90959744D01*
X47353937Y-90790226D01*
X47209774Y-90646063D01*
X47040256Y-90532795D01*
X46851898Y-90454774D01*
X46651939Y-90415000D01*
X46448061Y-90415000D01*
X46248102Y-90454774D01*
X46059744Y-90532795D01*
X45974130Y-90590000D01*
X38578711Y-90590000D01*
X38559774Y-90571063D01*
X38390256Y-90457795D01*
X38214515Y-90385000D01*
X44011447Y-90385000D01*
X44050000Y-90388797D01*
X44088553Y-90385000D01*
X44088561Y-90385000D01*
X44130529Y-90380866D01*
X44259744Y-90467205D01*
X44448102Y-90545226D01*
X44648061Y-90585000D01*
X44851939Y-90585000D01*
X45051898Y-90545226D01*
X45240256Y-90467205D01*
X45409774Y-90353937D01*
X45553937Y-90209774D01*
X45667205Y-90040256D01*
X45745226Y-89851898D01*
X45785000Y-89651939D01*
X45785000Y-89448061D01*
X45757538Y-89310000D01*
X46046289Y-89310000D01*
X46115226Y-89378937D01*
X46284744Y-89492205D01*
X46473102Y-89570226D01*
X46673061Y-89610000D01*
X46876939Y-89610000D01*
X47076898Y-89570226D01*
X47265256Y-89492205D01*
X47434774Y-89378937D01*
X47578937Y-89234774D01*
X47692205Y-89065256D01*
X47770226Y-88876898D01*
X47810000Y-88676939D01*
X47810000Y-88473061D01*
X47770226Y-88273102D01*
X47692205Y-88084744D01*
X47578937Y-87915226D01*
X47434774Y-87771063D01*
X47265256Y-87657795D01*
X47076898Y-87579774D01*
X46876939Y-87540000D01*
X46673061Y-87540000D01*
X46473102Y-87579774D01*
X46284744Y-87657795D01*
X46161715Y-87740000D01*
X37828711Y-87740000D01*
X37809774Y-87721063D01*
X37640256Y-87607795D01*
X37451898Y-87529774D01*
X37251939Y-87490000D01*
X37048061Y-87490000D01*
X36848102Y-87529774D01*
X36659744Y-87607795D01*
X36490226Y-87721063D01*
X36346063Y-87865226D01*
X36232795Y-88034744D01*
X36154774Y-88223102D01*
X36115000Y-88423061D01*
X36115000Y-88626939D01*
X36154774Y-88826898D01*
X36170771Y-88865518D01*
X36096063Y-88940226D01*
X35982795Y-89109744D01*
X35904774Y-89298102D01*
X35865000Y-89498061D01*
X32410001Y-89498061D01*
X32410001Y-88253554D01*
X32413798Y-88214999D01*
X32410001Y-88176439D01*
X32410001Y-88176438D01*
X32401857Y-88093752D01*
X32398643Y-88061112D01*
X32353755Y-87913139D01*
X32342889Y-87892810D01*
X32280863Y-87776766D01*
X32231451Y-87716558D01*
X32207346Y-87687186D01*
X32207343Y-87687183D01*
X32182765Y-87657235D01*
X32152818Y-87632658D01*
X32033551Y-87513391D01*
X32204421Y-87584168D01*
X32520300Y-87647000D01*
X32842366Y-87647000D01*
X33158245Y-87584168D01*
X33455796Y-87460918D01*
X33723585Y-87281987D01*
X33951320Y-87054252D01*
X34130251Y-86786463D01*
X34253501Y-86488912D01*
X34316333Y-86173033D01*
X34316333Y-85850967D01*
X34273375Y-85635001D01*
X37632516Y-85635001D01*
X37615000Y-85723061D01*
X37615000Y-85926939D01*
X37654774Y-86126898D01*
X37732795Y-86315256D01*
X37846063Y-86484774D01*
X37990226Y-86628937D01*
X38159744Y-86742205D01*
X38348102Y-86820226D01*
X38548061Y-86860000D01*
X38751939Y-86860000D01*
X38951898Y-86820226D01*
X39007970Y-86797000D01*
X41314789Y-86797000D01*
X41486679Y-87054252D01*
X41714414Y-87281987D01*
X41982203Y-87460918D01*
X42279754Y-87584168D01*
X42595633Y-87647000D01*
X42917699Y-87647000D01*
X43233578Y-87584168D01*
X43531129Y-87460918D01*
X43798918Y-87281987D01*
X44026653Y-87054252D01*
X44205584Y-86786463D01*
X44328834Y-86488912D01*
X44391666Y-86173033D01*
X44391666Y-85850967D01*
X44328834Y-85535088D01*
X44245959Y-85335010D01*
X51342707Y-85335010D01*
X51259832Y-85535088D01*
X51197000Y-85850967D01*
X51197000Y-86173033D01*
X51259832Y-86488912D01*
X51383082Y-86786463D01*
X51562013Y-87054252D01*
X51789748Y-87281987D01*
X52057537Y-87460918D01*
X52355088Y-87584168D01*
X52670967Y-87647000D01*
X52993033Y-87647000D01*
X53308912Y-87584168D01*
X53606463Y-87460918D01*
X53874252Y-87281987D01*
X54101987Y-87054252D01*
X54280918Y-86786463D01*
X54404168Y-86488912D01*
X54467000Y-86173033D01*
X54467000Y-85850967D01*
X54404168Y-85535088D01*
X54318049Y-85327180D01*
X54353877Y-85323651D01*
X54501850Y-85278764D01*
X54638223Y-85205872D01*
X54757754Y-85107774D01*
X54782337Y-85077820D01*
X56222812Y-83637345D01*
X56252765Y-83612763D01*
X56350863Y-83493232D01*
X56423755Y-83356859D01*
X56436399Y-83315177D01*
X56468643Y-83208886D01*
X56478896Y-83104774D01*
X56480001Y-83093560D01*
X56480001Y-83093555D01*
X56483798Y-83054999D01*
X56480001Y-83016443D01*
X56480001Y-78768557D01*
X56483798Y-78730001D01*
X56480001Y-78691445D01*
X56480001Y-78691440D01*
X56472226Y-78612497D01*
X56468643Y-78576114D01*
X56423755Y-78428141D01*
X56417926Y-78417236D01*
X56350863Y-78291768D01*
X56252765Y-78172237D01*
X56222806Y-78147650D01*
X55961520Y-77886363D01*
X55980000Y-77793456D01*
X55980000Y-77526544D01*
X55927928Y-77264761D01*
X55825785Y-77018167D01*
X55677497Y-76796238D01*
X55488762Y-76607503D01*
X55266833Y-76459215D01*
X55099734Y-76390000D01*
X55266833Y-76320785D01*
X55488762Y-76172497D01*
X55677497Y-75983762D01*
X55825785Y-75761833D01*
X55927928Y-75515239D01*
X55980000Y-75253456D01*
X55980000Y-74986544D01*
X55927928Y-74724761D01*
X55825785Y-74478167D01*
X55677497Y-74256238D01*
X55488762Y-74067503D01*
X55266833Y-73919215D01*
X55020239Y-73817072D01*
X54758456Y-73765000D01*
X54491544Y-73765000D01*
X54398637Y-73783480D01*
X50660000Y-70044843D01*
X50660000Y-69923061D01*
X50620226Y-69723102D01*
X50542205Y-69534744D01*
X50428937Y-69365226D01*
X50284774Y-69221063D01*
X50115256Y-69107795D01*
X49926898Y-69029774D01*
X49726939Y-68990000D01*
X49523061Y-68990000D01*
X49323102Y-69029774D01*
X49134744Y-69107795D01*
X48965226Y-69221063D01*
X48821063Y-69365226D01*
X48707795Y-69534744D01*
X48629774Y-69723102D01*
X48590000Y-69923061D01*
X48590000Y-70126939D01*
X48629774Y-70326898D01*
X48707795Y-70515256D01*
X48821063Y-70684774D01*
X48965226Y-70828937D01*
X49134744Y-70942205D01*
X49323102Y-71020226D01*
X49437904Y-71043061D01*
X53288480Y-74893637D01*
X53270000Y-74986544D01*
X53270000Y-75253456D01*
X53322072Y-75515239D01*
X53424215Y-75761833D01*
X53572503Y-75983762D01*
X53761238Y-76172497D01*
X53983167Y-76320785D01*
X54150266Y-76390000D01*
X53983167Y-76459215D01*
X53761238Y-76607503D01*
X53572503Y-76796238D01*
X53566051Y-76805893D01*
X46882347Y-70122190D01*
X46857764Y-70092236D01*
X46738233Y-69994138D01*
X46601860Y-69921246D01*
X46453887Y-69876359D01*
X46338561Y-69865000D01*
X46338553Y-69865000D01*
X46300000Y-69861203D01*
X46261447Y-69865000D01*
X43551259Y-69865000D01*
X43552497Y-69863762D01*
X43700785Y-69641833D01*
X43802928Y-69395239D01*
X43855000Y-69133456D01*
X43855000Y-68866544D01*
X43802928Y-68604761D01*
X43700785Y-68358167D01*
X43552497Y-68136238D01*
X43363762Y-67947503D01*
X43141833Y-67799215D01*
X42974734Y-67730000D01*
X43141833Y-67660785D01*
X43363762Y-67512497D01*
X43552497Y-67323762D01*
X43700785Y-67101833D01*
X43802928Y-66855239D01*
X43855000Y-66593456D01*
X43855000Y-66326544D01*
X43802928Y-66064761D01*
X43700785Y-65818167D01*
X43552497Y-65596238D01*
X43363762Y-65407503D01*
X43285000Y-65354876D01*
X43285000Y-65025124D01*
X43363762Y-64972497D01*
X43552497Y-64783762D01*
X43700785Y-64561833D01*
X43802928Y-64315239D01*
X43855000Y-64053456D01*
X43855000Y-63786544D01*
X43802928Y-63524761D01*
X43700785Y-63278167D01*
X43552497Y-63056238D01*
X43363762Y-62867503D01*
X43141833Y-62719215D01*
X42895239Y-62617072D01*
X42633456Y-62565000D01*
X42366544Y-62565000D01*
X42104761Y-62617072D01*
X41858167Y-62719215D01*
X41636238Y-62867503D01*
X41447503Y-63056238D01*
X41394876Y-63135000D01*
X41220158Y-63135000D01*
X37585000Y-59499843D01*
X37585000Y-59473061D01*
X37545226Y-59273102D01*
X37467205Y-59084744D01*
X37380513Y-58955000D01*
X38218498Y-58955000D01*
X38592161Y-59328664D01*
X38621443Y-59364344D01*
X38763815Y-59481186D01*
X38926247Y-59568007D01*
X39049030Y-59605253D01*
X39102494Y-59621471D01*
X39285786Y-59639524D01*
X39331718Y-59635000D01*
X39358349Y-59635000D01*
X39430013Y-59742252D01*
X39657748Y-59969987D01*
X39925537Y-60148918D01*
X40223088Y-60272168D01*
X40538967Y-60335000D01*
X40861033Y-60335000D01*
X41176912Y-60272168D01*
X41474463Y-60148918D01*
X41742252Y-59969987D01*
X41969987Y-59742252D01*
X42148918Y-59474463D01*
X42272168Y-59176912D01*
X42335000Y-58861033D01*
X42335000Y-58538967D01*
X44065000Y-58538967D01*
X44065000Y-58861033D01*
X44127832Y-59176912D01*
X44251082Y-59474463D01*
X44430013Y-59742252D01*
X44657748Y-59969987D01*
X44765000Y-60041651D01*
X44765000Y-60517668D01*
X44760476Y-60563600D01*
X44767625Y-60636184D01*
X44778529Y-60746891D01*
X44831993Y-60923139D01*
X44918814Y-61085571D01*
X45035656Y-61227944D01*
X45071341Y-61257230D01*
X48942774Y-65128664D01*
X48972056Y-65164344D01*
X49114428Y-65281186D01*
X49276860Y-65368007D01*
X49399643Y-65405253D01*
X49453107Y-65421471D01*
X49605506Y-65436481D01*
X49610588Y-65488082D01*
X49646898Y-65607780D01*
X49705863Y-65718094D01*
X49785215Y-65814785D01*
X49881906Y-65894137D01*
X49992220Y-65953102D01*
X50111918Y-65989412D01*
X50236400Y-66001672D01*
X51963600Y-66001672D01*
X52088082Y-65989412D01*
X52207780Y-65953102D01*
X52318094Y-65894137D01*
X52414785Y-65814785D01*
X52494137Y-65718094D01*
X52553102Y-65607780D01*
X52570636Y-65549977D01*
X52684698Y-65664039D01*
X52930147Y-65828042D01*
X53202875Y-65941010D01*
X53492401Y-65998600D01*
X53787599Y-65998600D01*
X54077125Y-65941010D01*
X54349853Y-65828042D01*
X54595302Y-65664039D01*
X54804039Y-65455302D01*
X54968042Y-65209853D01*
X55081010Y-64937125D01*
X55138600Y-64647599D01*
X55138600Y-64352401D01*
X55081010Y-64062875D01*
X54968042Y-63790147D01*
X54804039Y-63544698D01*
X54595302Y-63335961D01*
X54429897Y-63225441D01*
X54528488Y-63166817D01*
X54746854Y-62970293D01*
X54922684Y-62734944D01*
X55049222Y-62469814D01*
X55094958Y-62319026D01*
X54973817Y-62087000D01*
X53767000Y-62087000D01*
X53767000Y-62107000D01*
X53513000Y-62107000D01*
X53513000Y-62087000D01*
X51227000Y-62087000D01*
X51227000Y-62107000D01*
X50973000Y-62107000D01*
X50973000Y-62087000D01*
X49766183Y-62087000D01*
X49645042Y-62319026D01*
X49690778Y-62469814D01*
X49817316Y-62734944D01*
X49993146Y-62970293D01*
X50056574Y-63027376D01*
X49992220Y-63046898D01*
X49881906Y-63105863D01*
X49785215Y-63185215D01*
X49721519Y-63262829D01*
X46635000Y-60176311D01*
X46635000Y-60041651D01*
X46742252Y-59969987D01*
X46933213Y-59779026D01*
X49645042Y-59779026D01*
X49690778Y-59929814D01*
X49817316Y-60194944D01*
X49993146Y-60430293D01*
X50211512Y-60626817D01*
X50317770Y-60690000D01*
X50211512Y-60753183D01*
X49993146Y-60949707D01*
X49817316Y-61185056D01*
X49690778Y-61450186D01*
X49645042Y-61600974D01*
X49766183Y-61833000D01*
X50973000Y-61833000D01*
X50973000Y-59547000D01*
X51227000Y-59547000D01*
X51227000Y-61833000D01*
X53513000Y-61833000D01*
X53513000Y-59547000D01*
X53767000Y-59547000D01*
X53767000Y-61833000D01*
X54973817Y-61833000D01*
X55094958Y-61600974D01*
X55049222Y-61450186D01*
X54922684Y-61185056D01*
X54746854Y-60949707D01*
X54528488Y-60753183D01*
X54422230Y-60690000D01*
X54528488Y-60626817D01*
X54746854Y-60430293D01*
X54922684Y-60194944D01*
X55049222Y-59929814D01*
X55094958Y-59779026D01*
X54973817Y-59547000D01*
X53767000Y-59547000D01*
X53513000Y-59547000D01*
X51227000Y-59547000D01*
X50973000Y-59547000D01*
X49766183Y-59547000D01*
X49645042Y-59779026D01*
X46933213Y-59779026D01*
X46969987Y-59742252D01*
X47148918Y-59474463D01*
X47272168Y-59176912D01*
X47335000Y-58861033D01*
X47335000Y-58538967D01*
X47272168Y-58223088D01*
X47148918Y-57925537D01*
X46969987Y-57657748D01*
X46742252Y-57430013D01*
X46474463Y-57251082D01*
X46445358Y-57239026D01*
X49645042Y-57239026D01*
X49690778Y-57389814D01*
X49817316Y-57654944D01*
X49993146Y-57890293D01*
X50211512Y-58086817D01*
X50317770Y-58150000D01*
X50211512Y-58213183D01*
X49993146Y-58409707D01*
X49817316Y-58645056D01*
X49690778Y-58910186D01*
X49645042Y-59060974D01*
X49766183Y-59293000D01*
X50973000Y-59293000D01*
X50973000Y-57007000D01*
X51227000Y-57007000D01*
X51227000Y-59293000D01*
X53513000Y-59293000D01*
X53513000Y-57007000D01*
X53767000Y-57007000D01*
X53767000Y-59293000D01*
X54973817Y-59293000D01*
X55094958Y-59060974D01*
X55049222Y-58910186D01*
X54922684Y-58645056D01*
X54746854Y-58409707D01*
X54528488Y-58213183D01*
X54422230Y-58150000D01*
X54528488Y-58086817D01*
X54746854Y-57890293D01*
X54922684Y-57654944D01*
X55049222Y-57389814D01*
X55094958Y-57239026D01*
X54973817Y-57007000D01*
X53767000Y-57007000D01*
X53513000Y-57007000D01*
X51227000Y-57007000D01*
X50973000Y-57007000D01*
X49766183Y-57007000D01*
X49645042Y-57239026D01*
X46445358Y-57239026D01*
X46176912Y-57127832D01*
X45861033Y-57065000D01*
X45538967Y-57065000D01*
X45223088Y-57127832D01*
X44925537Y-57251082D01*
X44657748Y-57430013D01*
X44430013Y-57657748D01*
X44251082Y-57925537D01*
X44127832Y-58223088D01*
X44065000Y-58538967D01*
X42335000Y-58538967D01*
X42272168Y-58223088D01*
X42148918Y-57925537D01*
X41969987Y-57657748D01*
X41742252Y-57430013D01*
X41474463Y-57251082D01*
X41176912Y-57127832D01*
X40861033Y-57065000D01*
X40538967Y-57065000D01*
X40223088Y-57127832D01*
X39925537Y-57251082D01*
X39761805Y-57360484D01*
X40312454Y-56809835D01*
X40438967Y-56835000D01*
X40761033Y-56835000D01*
X41076912Y-56772168D01*
X41374463Y-56648918D01*
X41642252Y-56469987D01*
X41869987Y-56242252D01*
X42048918Y-55974463D01*
X42172168Y-55676912D01*
X42235000Y-55361033D01*
X42235000Y-55038967D01*
X43965000Y-55038967D01*
X43965000Y-55361033D01*
X44027832Y-55676912D01*
X44151082Y-55974463D01*
X44330013Y-56242252D01*
X44557748Y-56469987D01*
X44825537Y-56648918D01*
X45123088Y-56772168D01*
X45438967Y-56835000D01*
X45761033Y-56835000D01*
X46076912Y-56772168D01*
X46374463Y-56648918D01*
X46642252Y-56469987D01*
X46869987Y-56242252D01*
X46941651Y-56135000D01*
X49803025Y-56135000D01*
X49690778Y-56370186D01*
X49645042Y-56520974D01*
X49766183Y-56753000D01*
X50973000Y-56753000D01*
X50973000Y-56733000D01*
X51227000Y-56733000D01*
X51227000Y-56753000D01*
X53513000Y-56753000D01*
X53513000Y-56733000D01*
X53767000Y-56733000D01*
X53767000Y-56753000D01*
X54973817Y-56753000D01*
X55094958Y-56520974D01*
X55049222Y-56370186D01*
X54922684Y-56105056D01*
X54746854Y-55869707D01*
X54528488Y-55673183D01*
X54429897Y-55614559D01*
X54595302Y-55504039D01*
X54804039Y-55295302D01*
X54968042Y-55049853D01*
X55081010Y-54777125D01*
X55138600Y-54487599D01*
X55138600Y-54192401D01*
X55081010Y-53902875D01*
X54968042Y-53630147D01*
X54804039Y-53384698D01*
X54595302Y-53175961D01*
X54349853Y-53011958D01*
X54077125Y-52898990D01*
X53787599Y-52841400D01*
X53492401Y-52841400D01*
X53202875Y-52898990D01*
X52930147Y-53011958D01*
X52684698Y-53175961D01*
X52475961Y-53384698D01*
X52462396Y-53405000D01*
X52277604Y-53405000D01*
X52264039Y-53384698D01*
X52055302Y-53175961D01*
X51809853Y-53011958D01*
X51537125Y-52898990D01*
X51247599Y-52841400D01*
X50952401Y-52841400D01*
X50662875Y-52898990D01*
X50390147Y-53011958D01*
X50144698Y-53175961D01*
X49935961Y-53384698D01*
X49771958Y-53630147D01*
X49658990Y-53902875D01*
X49601400Y-54192401D01*
X49601400Y-54265000D01*
X46941651Y-54265000D01*
X46869987Y-54157748D01*
X46642252Y-53930013D01*
X46374463Y-53751082D01*
X46076912Y-53627832D01*
X45761033Y-53565000D01*
X45438967Y-53565000D01*
X45123088Y-53627832D01*
X44825537Y-53751082D01*
X44557748Y-53930013D01*
X44330013Y-54157748D01*
X44151082Y-54425537D01*
X44027832Y-54723088D01*
X43965000Y-55038967D01*
X42235000Y-55038967D01*
X42172168Y-54723088D01*
X42048918Y-54425537D01*
X41869987Y-54157748D01*
X41642252Y-53930013D01*
X41374463Y-53751082D01*
X41076912Y-53627832D01*
X40761033Y-53565000D01*
X40438967Y-53565000D01*
X40123088Y-53627832D01*
X39825537Y-53751082D01*
X39557748Y-53930013D01*
X39330013Y-54157748D01*
X39151082Y-54425537D01*
X39027832Y-54723088D01*
X38965000Y-55038967D01*
X38965000Y-55361033D01*
X38990165Y-55487546D01*
X38337711Y-56140000D01*
X36488295Y-56140000D01*
X36342898Y-56079774D01*
X36142939Y-56040000D01*
X35939061Y-56040000D01*
X35739102Y-56079774D01*
X35550744Y-56157795D01*
X35381226Y-56271063D01*
X35237063Y-56415226D01*
X35123795Y-56584744D01*
X35045774Y-56773102D01*
X35006000Y-56973061D01*
X35006000Y-57085000D01*
X26357290Y-57085000D01*
X25516890Y-56244601D01*
X25485015Y-56139524D01*
X25468008Y-56083459D01*
X25381187Y-55921027D01*
X25264345Y-55778655D01*
X25228667Y-55749375D01*
X21635000Y-52155709D01*
X21635000Y-44718061D01*
X23695000Y-44718061D01*
X23695000Y-44921939D01*
X23734774Y-45121898D01*
X23812795Y-45310256D01*
X23926063Y-45479774D01*
X24070226Y-45623937D01*
X24239744Y-45737205D01*
X24428102Y-45815226D01*
X24628061Y-45855000D01*
X24831939Y-45855000D01*
X25031898Y-45815226D01*
X25220256Y-45737205D01*
X25389774Y-45623937D01*
X25533937Y-45479774D01*
X25647205Y-45310256D01*
X25725226Y-45121898D01*
X25765000Y-44921939D01*
X25765000Y-44895157D01*
X27475454Y-43184704D01*
X34188141Y-43184704D01*
X34210953Y-43218844D01*
X34389938Y-43397829D01*
X34600402Y-43538457D01*
X34834257Y-43635323D01*
X34906557Y-43649704D01*
X34834257Y-43664085D01*
X34600402Y-43760951D01*
X34389938Y-43901579D01*
X34210953Y-44080564D01*
X34070325Y-44291028D01*
X33973459Y-44524883D01*
X33924078Y-44773143D01*
X33924078Y-45026265D01*
X33973459Y-45274525D01*
X34070325Y-45508380D01*
X34210953Y-45718844D01*
X34389938Y-45897829D01*
X34600402Y-46038457D01*
X34834257Y-46135323D01*
X35082517Y-46184704D01*
X35335639Y-46184704D01*
X35583899Y-46135323D01*
X35817754Y-46038457D01*
X36028218Y-45897829D01*
X36207203Y-45718844D01*
X36347831Y-45508380D01*
X36444697Y-45274525D01*
X36494078Y-45026265D01*
X36494078Y-44773143D01*
X36444697Y-44524883D01*
X36347831Y-44291028D01*
X36207203Y-44080564D01*
X36028218Y-43901579D01*
X35817754Y-43760951D01*
X35583899Y-43664085D01*
X35511599Y-43649704D01*
X35583899Y-43635323D01*
X35817754Y-43538457D01*
X36028218Y-43397829D01*
X36207203Y-43218844D01*
X36347831Y-43008380D01*
X36444697Y-42774525D01*
X36494078Y-42526265D01*
X36494078Y-42273143D01*
X36449693Y-42050000D01*
X39581928Y-42050000D01*
X39585000Y-42564250D01*
X39743750Y-42723000D01*
X40893000Y-42723000D01*
X40893000Y-41573750D01*
X41147000Y-41573750D01*
X41147000Y-42723000D01*
X42296250Y-42723000D01*
X42455000Y-42564250D01*
X42458072Y-42050000D01*
X42445812Y-41925518D01*
X42409502Y-41805820D01*
X42350537Y-41695506D01*
X42271185Y-41598815D01*
X42174494Y-41519463D01*
X42064180Y-41460498D01*
X41944482Y-41424188D01*
X41820000Y-41411928D01*
X41305750Y-41415000D01*
X41147000Y-41573750D01*
X40893000Y-41573750D01*
X40734250Y-41415000D01*
X40220000Y-41411928D01*
X40095518Y-41424188D01*
X39975820Y-41460498D01*
X39865506Y-41519463D01*
X39768815Y-41598815D01*
X39689463Y-41695506D01*
X39630498Y-41805820D01*
X39594188Y-41925518D01*
X39581928Y-42050000D01*
X36449693Y-42050000D01*
X36444697Y-42024883D01*
X36347831Y-41791028D01*
X36207203Y-41580564D01*
X36028218Y-41401579D01*
X35817754Y-41260951D01*
X35583899Y-41164085D01*
X35511599Y-41149704D01*
X35583899Y-41135323D01*
X35817754Y-41038457D01*
X36028218Y-40897829D01*
X36207203Y-40718844D01*
X36347831Y-40508380D01*
X36444697Y-40274525D01*
X36494078Y-40026265D01*
X36494078Y-39773143D01*
X36444697Y-39524883D01*
X36347831Y-39291028D01*
X36207203Y-39080564D01*
X36028218Y-38901579D01*
X35817754Y-38760951D01*
X35583899Y-38664085D01*
X35335639Y-38614704D01*
X35082517Y-38614704D01*
X34834257Y-38664085D01*
X34600402Y-38760951D01*
X34389938Y-38901579D01*
X34210953Y-39080564D01*
X34070325Y-39291028D01*
X33973459Y-39524883D01*
X33924078Y-39773143D01*
X33924078Y-40026265D01*
X33973459Y-40274525D01*
X34070325Y-40508380D01*
X34210953Y-40718844D01*
X34389938Y-40897829D01*
X34600402Y-41038457D01*
X34834257Y-41135323D01*
X34906557Y-41149704D01*
X34834257Y-41164085D01*
X34600402Y-41260951D01*
X34389938Y-41401579D01*
X34210953Y-41580564D01*
X34188141Y-41614704D01*
X27188848Y-41614704D01*
X27150295Y-41610907D01*
X27111742Y-41614704D01*
X27111735Y-41614704D01*
X27010786Y-41624647D01*
X26996408Y-41626063D01*
X26961968Y-41636510D01*
X26848436Y-41670950D01*
X26712063Y-41743842D01*
X26654568Y-41791028D01*
X26622483Y-41817359D01*
X26622480Y-41817362D01*
X26592532Y-41841940D01*
X26567954Y-41871888D01*
X24654843Y-43785000D01*
X24628061Y-43785000D01*
X24428102Y-43824774D01*
X24239744Y-43902795D01*
X24070226Y-44016063D01*
X23926063Y-44160226D01*
X23812795Y-44329744D01*
X23734774Y-44518102D01*
X23695000Y-44718061D01*
X21635000Y-44718061D01*
X21635000Y-43072702D01*
X22346903Y-43072702D01*
X22418486Y-43316671D01*
X22673996Y-43437571D01*
X22948184Y-43506300D01*
X23230512Y-43520217D01*
X23510130Y-43478787D01*
X23776292Y-43383603D01*
X23901514Y-43316671D01*
X23973097Y-43072702D01*
X23160000Y-42259605D01*
X22346903Y-43072702D01*
X21635000Y-43072702D01*
X21635000Y-42367289D01*
X21736816Y-42265473D01*
X21761213Y-42430130D01*
X21856397Y-42696292D01*
X21923329Y-42821514D01*
X22167298Y-42893097D01*
X22980395Y-42080000D01*
X23339605Y-42080000D01*
X24152702Y-42893097D01*
X24396671Y-42821514D01*
X24517571Y-42566004D01*
X24586300Y-42291816D01*
X24600217Y-42009488D01*
X24558787Y-41729870D01*
X24463603Y-41463708D01*
X24396671Y-41338486D01*
X24152702Y-41266903D01*
X23339605Y-42080000D01*
X22980395Y-42080000D01*
X22966253Y-42065858D01*
X23145858Y-41886253D01*
X23160000Y-41900395D01*
X23973097Y-41087298D01*
X23952785Y-41018072D01*
X23960000Y-41018072D01*
X24084482Y-41005812D01*
X24204180Y-40969502D01*
X24314494Y-40910537D01*
X24411185Y-40831185D01*
X24490537Y-40734494D01*
X24549502Y-40624180D01*
X24585812Y-40504482D01*
X24598072Y-40380000D01*
X24598072Y-38780000D01*
X24585812Y-38655518D01*
X24549502Y-38535820D01*
X24490537Y-38425506D01*
X24411185Y-38328815D01*
X24314494Y-38249463D01*
X24204180Y-38190498D01*
X24095000Y-38157379D01*
X24095000Y-37438671D01*
X26074078Y-37438671D01*
X26074078Y-37760737D01*
X26136910Y-38076616D01*
X26260160Y-38374167D01*
X26439091Y-38641956D01*
X26666826Y-38869691D01*
X26934615Y-39048622D01*
X27232166Y-39171872D01*
X27548045Y-39234704D01*
X27870111Y-39234704D01*
X28185990Y-39171872D01*
X28483541Y-39048622D01*
X28751330Y-38869691D01*
X28979065Y-38641956D01*
X29157996Y-38374167D01*
X29281246Y-38076616D01*
X29344078Y-37760737D01*
X29344078Y-37438671D01*
X29281246Y-37122792D01*
X29157996Y-36825241D01*
X28979065Y-36557452D01*
X28751330Y-36329717D01*
X28483541Y-36150786D01*
X28185990Y-36027536D01*
X27870111Y-35964704D01*
X27548045Y-35964704D01*
X27232166Y-36027536D01*
X26934615Y-36150786D01*
X26666826Y-36329717D01*
X26439091Y-36557452D01*
X26260160Y-36825241D01*
X26136910Y-37122792D01*
X26074078Y-37438671D01*
X24095000Y-37438671D01*
X24095000Y-31452289D01*
X24512290Y-31035000D01*
X28487928Y-31035000D01*
X28487928Y-31326000D01*
X28500188Y-31450482D01*
X28536498Y-31570180D01*
X28595463Y-31680494D01*
X28674815Y-31777185D01*
X28771506Y-31856537D01*
X28881820Y-31915502D01*
X29001518Y-31951812D01*
X29126000Y-31964072D01*
X31326000Y-31964072D01*
X31450482Y-31951812D01*
X31570180Y-31915502D01*
X31680494Y-31856537D01*
X31777185Y-31777185D01*
X31856537Y-31680494D01*
X31915502Y-31570180D01*
X31951812Y-31450482D01*
X31964072Y-31326000D01*
X31964072Y-29126000D01*
X31951812Y-29001518D01*
X31915502Y-28881820D01*
X31856537Y-28771506D01*
X31777185Y-28674815D01*
X31680494Y-28595463D01*
X31570180Y-28536498D01*
X31450482Y-28500188D01*
X31326000Y-28487928D01*
X29126000Y-28487928D01*
X29001518Y-28500188D01*
X28881820Y-28536498D01*
X28771506Y-28595463D01*
X28674815Y-28674815D01*
X28595463Y-28771506D01*
X28536498Y-28881820D01*
X28500188Y-29001518D01*
X28487928Y-29126000D01*
X28487928Y-29165000D01*
X24170931Y-29165000D01*
X24124999Y-29160476D01*
X23941707Y-29178529D01*
X23888243Y-29194747D01*
X23765460Y-29231993D01*
X23603028Y-29318814D01*
X23460656Y-29435656D01*
X23431374Y-29471336D01*
X22531336Y-30371375D01*
X22495657Y-30400656D01*
X22378815Y-30543028D01*
X22336619Y-30621972D01*
X22291994Y-30705460D01*
X22238529Y-30881709D01*
X22220476Y-31065000D01*
X22225001Y-31110942D01*
X22225000Y-38157379D01*
X22115820Y-38190498D01*
X22005506Y-38249463D01*
X21908815Y-38328815D01*
X21829463Y-38425506D01*
X21770498Y-38535820D01*
X21734188Y-38655518D01*
X21721928Y-38780000D01*
X21721928Y-39695783D01*
X21365824Y-40051887D01*
X21278027Y-40098815D01*
X21135655Y-40215657D01*
X21106375Y-40251335D01*
X20071341Y-41286370D01*
X20035656Y-41315656D01*
X19918814Y-41458029D01*
X19831993Y-41620461D01*
X19794566Y-41743842D01*
X19778529Y-41796709D01*
X19760476Y-41980000D01*
X19765000Y-42025932D01*
X19765001Y-52497056D01*
X19760476Y-52542998D01*
X19778529Y-52726289D01*
X19813448Y-52841400D01*
X19831994Y-52902538D01*
X19918815Y-53064970D01*
X20035657Y-53207342D01*
X20071336Y-53236623D01*
X23683113Y-56848401D01*
X23724550Y-56985000D01*
X23523061Y-56985000D01*
X23323102Y-57024774D01*
X23134744Y-57102795D01*
X22965226Y-57216063D01*
X22821063Y-57360226D01*
X22707795Y-57529744D01*
X22629774Y-57718102D01*
X22590000Y-57918061D01*
X22590000Y-58074068D01*
X22585476Y-58120000D01*
X22603529Y-58303291D01*
X22656994Y-58479540D01*
X22743815Y-58641971D01*
X22860657Y-58784343D01*
X23003029Y-58901185D01*
X23165460Y-58988006D01*
X23341709Y-59041471D01*
X23525000Y-59059524D01*
X23570932Y-59055000D01*
X23726939Y-59055000D01*
X23926898Y-59015226D01*
X24072295Y-58955000D01*
X25035000Y-58955000D01*
X25035001Y-60960707D01*
X24633005Y-61362703D01*
X24528028Y-61418815D01*
X24421334Y-61506377D01*
X23356377Y-62571334D01*
X23268815Y-62678029D01*
X23212705Y-62783004D01*
X22896341Y-63099368D01*
X22860656Y-63128654D01*
X22743814Y-63271027D01*
X22656993Y-63433459D01*
X22612987Y-63578529D01*
X22603529Y-63609707D01*
X22585476Y-63792998D01*
X22590000Y-63838930D01*
X22590000Y-63930932D01*
X22590001Y-63930942D01*
X22590000Y-75728068D01*
X22585476Y-75774000D01*
X22592839Y-75848754D01*
X22603529Y-75957291D01*
X22656993Y-76133539D01*
X22743814Y-76295971D01*
X22860656Y-76438344D01*
X22896341Y-76467630D01*
X23215001Y-76786290D01*
X23215001Y-84102454D01*
X23163764Y-84040023D01*
X23133810Y-84015440D01*
X22907345Y-83788975D01*
X22882764Y-83759023D01*
X22807007Y-83696850D01*
X21885000Y-82774843D01*
X21885000Y-66113556D01*
X21888797Y-66075000D01*
X21885000Y-66036444D01*
X21885000Y-66036439D01*
X21876792Y-65953102D01*
X21873642Y-65921113D01*
X21828754Y-65773140D01*
X21755862Y-65636767D01*
X21657764Y-65517236D01*
X21627810Y-65492653D01*
X19185000Y-63049843D01*
X19185000Y-31711089D01*
X19347946Y-31805442D01*
X19669877Y-31915179D01*
X19939000Y-31797600D01*
X19939000Y-30353000D01*
X20193000Y-30353000D01*
X20193000Y-31797600D01*
X20462123Y-31915179D01*
X20784054Y-31805442D01*
X21078391Y-31635008D01*
X21333822Y-31410427D01*
X21540531Y-31140329D01*
X21690575Y-30835094D01*
X21755175Y-30622122D01*
X21637125Y-30353000D01*
X20193000Y-30353000D01*
X19939000Y-30353000D01*
X19919000Y-30353000D01*
X19919000Y-30099000D01*
X19939000Y-30099000D01*
X19939000Y-28654400D01*
X20193000Y-28654400D01*
X20193000Y-30099000D01*
X21637125Y-30099000D01*
X21755175Y-29829878D01*
X21690575Y-29616906D01*
X21540531Y-29311671D01*
X21333822Y-29041573D01*
X21078391Y-28816992D01*
X20784054Y-28646558D01*
X20462123Y-28536821D01*
X20193000Y-28654400D01*
X19939000Y-28654400D01*
X19669877Y-28536821D01*
X19347946Y-28646558D01*
X19185000Y-28740911D01*
X19185000Y-26497344D01*
X26058832Y-26497344D01*
X26058832Y-26819410D01*
X26121664Y-27135289D01*
X26244914Y-27432840D01*
X26423845Y-27700629D01*
X26651580Y-27928364D01*
X26919369Y-28107295D01*
X27216920Y-28230545D01*
X27532799Y-28293377D01*
X27854865Y-28293377D01*
X28170744Y-28230545D01*
X28468295Y-28107295D01*
X28736084Y-27928364D01*
X28963819Y-27700629D01*
X29142750Y-27432840D01*
X29266000Y-27135289D01*
X29328832Y-26819410D01*
X29328832Y-26497344D01*
X29266000Y-26181465D01*
X29142750Y-25883914D01*
X28963819Y-25616125D01*
X28736084Y-25388390D01*
X28468295Y-25209459D01*
X28170744Y-25086209D01*
X27854865Y-25023377D01*
X27532799Y-25023377D01*
X27216920Y-25086209D01*
X26919369Y-25209459D01*
X26651580Y-25388390D01*
X26423845Y-25616125D01*
X26244914Y-25883914D01*
X26121664Y-26181465D01*
X26058832Y-26497344D01*
X19185000Y-26497344D01*
X19185000Y-24516207D01*
X33916891Y-24525454D01*
G37*
G04 #@! TD.AperFunction*
D26*
X23848102Y-98895226D02*
X24048061Y-98935000D01*
X24190001Y-98935000D01*
X24190001Y-101866577D01*
X24178168Y-101807088D01*
X24054918Y-101509537D01*
X23875987Y-101241748D01*
X23648252Y-101014013D01*
X23431738Y-100869343D01*
X22606000Y-100043605D01*
X22591858Y-100057748D01*
X22412253Y-99878143D01*
X22426395Y-99864000D01*
X22412253Y-99849858D01*
X22591858Y-99670253D01*
X22606000Y-99684395D01*
X22620143Y-99670253D01*
X22799748Y-99849858D01*
X22785605Y-99864000D01*
X23670080Y-100748475D01*
X23924261Y-100664792D01*
X24055158Y-100392225D01*
X24130365Y-100099358D01*
X24146991Y-99797447D01*
X24104397Y-99498093D01*
X24004222Y-99212801D01*
X23924261Y-99063208D01*
X23670082Y-98979526D01*
X23781832Y-98867776D01*
X23848102Y-98895226D01*
G04 #@! TA.AperFunction,Conductor*
D27*
G36*
X23848102Y-98895226D02*
G01*
X24048061Y-98935000D01*
X24190001Y-98935000D01*
X24190001Y-101866577D01*
X24178168Y-101807088D01*
X24054918Y-101509537D01*
X23875987Y-101241748D01*
X23648252Y-101014013D01*
X23431738Y-100869343D01*
X22606000Y-100043605D01*
X22591858Y-100057748D01*
X22412253Y-99878143D01*
X22426395Y-99864000D01*
X22412253Y-99849858D01*
X22591858Y-99670253D01*
X22606000Y-99684395D01*
X22620143Y-99670253D01*
X22799748Y-99849858D01*
X22785605Y-99864000D01*
X23670080Y-100748475D01*
X23924261Y-100664792D01*
X24055158Y-100392225D01*
X24130365Y-100099358D01*
X24146991Y-99797447D01*
X24104397Y-99498093D01*
X24004222Y-99212801D01*
X23924261Y-99063208D01*
X23670082Y-98979526D01*
X23781832Y-98867776D01*
X23848102Y-98895226D01*
G37*
G04 #@! TD.AperFunction*
D26*
X22799748Y-96717858D02*
X22785605Y-96732000D01*
X22799748Y-96746143D01*
X22620143Y-96925748D01*
X22606000Y-96911605D01*
X22591858Y-96925748D01*
X22412253Y-96746143D01*
X22426395Y-96732000D01*
X22412253Y-96717858D01*
X22591858Y-96538253D01*
X22606000Y-96552395D01*
X22620143Y-96538253D01*
X22799748Y-96717858D01*
G04 #@! TA.AperFunction,Conductor*
D27*
G36*
X22799748Y-96717858D02*
G01*
X22785605Y-96732000D01*
X22799748Y-96746143D01*
X22620143Y-96925748D01*
X22606000Y-96911605D01*
X22591858Y-96925748D01*
X22412253Y-96746143D01*
X22426395Y-96732000D01*
X22412253Y-96717858D01*
X22591858Y-96538253D01*
X22606000Y-96552395D01*
X22620143Y-96538253D01*
X22799748Y-96717858D01*
G37*
G04 #@! TD.AperFunction*
D26*
X22799748Y-94297858D02*
X22785605Y-94312000D01*
X22799748Y-94326143D01*
X22620143Y-94505748D01*
X22606000Y-94491605D01*
X22591858Y-94505748D01*
X22412253Y-94326143D01*
X22426395Y-94312000D01*
X22412253Y-94297858D01*
X22591858Y-94118253D01*
X22606000Y-94132395D01*
X22620143Y-94118253D01*
X22799748Y-94297858D01*
G04 #@! TA.AperFunction,Conductor*
D27*
G36*
X22799748Y-94297858D02*
G01*
X22785605Y-94312000D01*
X22799748Y-94326143D01*
X22620143Y-94505748D01*
X22606000Y-94491605D01*
X22591858Y-94505748D01*
X22412253Y-94326143D01*
X22426395Y-94312000D01*
X22412253Y-94297858D01*
X22591858Y-94118253D01*
X22606000Y-94132395D01*
X22620143Y-94118253D01*
X22799748Y-94297858D01*
G37*
G04 #@! TD.AperFunction*
D26*
X35845557Y-67490732D02*
X35701394Y-67634895D01*
X35588126Y-67804413D01*
X35510105Y-67992771D01*
X35470331Y-68192730D01*
X35470331Y-68396608D01*
X35510105Y-68596567D01*
X35588126Y-68784925D01*
X35701394Y-68954443D01*
X35845557Y-69098606D01*
X36015075Y-69211874D01*
X36203433Y-69289895D01*
X36403392Y-69329669D01*
X36441678Y-69329669D01*
X36467097Y-69350530D01*
X36603470Y-69423422D01*
X36751443Y-69468309D01*
X36866769Y-69479668D01*
X36866776Y-69479668D01*
X36905329Y-69483465D01*
X36921714Y-69481851D01*
X38617678Y-71177816D01*
X38642256Y-71207764D01*
X38672204Y-71232342D01*
X38672207Y-71232345D01*
X38701579Y-71256450D01*
X38761787Y-71305862D01*
X38898160Y-71378754D01*
X39046133Y-71423641D01*
X39161459Y-71435000D01*
X39161466Y-71435000D01*
X39200019Y-71438797D01*
X39238572Y-71435000D01*
X45974843Y-71435000D01*
X48231671Y-73691828D01*
X48104761Y-73717072D01*
X47858167Y-73819215D01*
X47636238Y-73967503D01*
X47447503Y-74156238D01*
X47299215Y-74378167D01*
X47197072Y-74624761D01*
X47145000Y-74886544D01*
X47145000Y-75153456D01*
X47197072Y-75415239D01*
X47238395Y-75515000D01*
X47098061Y-75515000D01*
X46898102Y-75554774D01*
X46709744Y-75632795D01*
X46540226Y-75746063D01*
X46396063Y-75890226D01*
X46282795Y-76059744D01*
X46204774Y-76248102D01*
X46165000Y-76448061D01*
X46165000Y-76474843D01*
X43528051Y-79111792D01*
X43363762Y-78947503D01*
X43141833Y-78799215D01*
X42974734Y-78730000D01*
X43141833Y-78660785D01*
X43363762Y-78512497D01*
X43552497Y-78323762D01*
X43700785Y-78101833D01*
X43802928Y-77855239D01*
X43855000Y-77593456D01*
X43855000Y-77326544D01*
X43836520Y-77233637D01*
X46535157Y-74535000D01*
X46551939Y-74535000D01*
X46751898Y-74495226D01*
X46940256Y-74417205D01*
X47109774Y-74303937D01*
X47253937Y-74159774D01*
X47367205Y-73990256D01*
X47445226Y-73801898D01*
X47485000Y-73601939D01*
X47485000Y-73398061D01*
X47445226Y-73198102D01*
X47367205Y-73009744D01*
X47253937Y-72840226D01*
X47109774Y-72696063D01*
X46940256Y-72582795D01*
X46751898Y-72504774D01*
X46551939Y-72465000D01*
X46348061Y-72465000D01*
X46148102Y-72504774D01*
X45959744Y-72582795D01*
X45790226Y-72696063D01*
X45646063Y-72840226D01*
X45532795Y-73009744D01*
X45454774Y-73198102D01*
X45415000Y-73398061D01*
X45415000Y-73434843D01*
X43855000Y-74994843D01*
X43855000Y-74786544D01*
X43802928Y-74524761D01*
X43700785Y-74278167D01*
X43552497Y-74056238D01*
X43363762Y-73867503D01*
X43141833Y-73719215D01*
X42895239Y-73617072D01*
X42633456Y-73565000D01*
X42366544Y-73565000D01*
X42104761Y-73617072D01*
X41858167Y-73719215D01*
X41636238Y-73867503D01*
X41447503Y-74056238D01*
X41299215Y-74278167D01*
X41197072Y-74524761D01*
X41145000Y-74786544D01*
X41145000Y-75053456D01*
X41197072Y-75315239D01*
X41299215Y-75561833D01*
X41447503Y-75783762D01*
X41636238Y-75972497D01*
X41715000Y-76025124D01*
X41715001Y-76354876D01*
X41636238Y-76407503D01*
X41447503Y-76596238D01*
X41299215Y-76818167D01*
X41197072Y-77064761D01*
X41145000Y-77326544D01*
X41145000Y-77593456D01*
X41197072Y-77855239D01*
X41299215Y-78101833D01*
X41447503Y-78323762D01*
X41636238Y-78512497D01*
X41858167Y-78660785D01*
X42025266Y-78730000D01*
X41858167Y-78799215D01*
X41636238Y-78947503D01*
X41447503Y-79136238D01*
X41299215Y-79358167D01*
X41197072Y-79604761D01*
X41145000Y-79866544D01*
X41145000Y-80133456D01*
X41175144Y-80285001D01*
X40470158Y-80285001D01*
X37560000Y-77374843D01*
X37560000Y-77348061D01*
X37520226Y-77148102D01*
X37442205Y-76959744D01*
X37328937Y-76790226D01*
X37184774Y-76646063D01*
X37015256Y-76532795D01*
X36826898Y-76454774D01*
X36626939Y-76415000D01*
X36423061Y-76415000D01*
X36223102Y-76454774D01*
X36034744Y-76532795D01*
X35865226Y-76646063D01*
X35721063Y-76790226D01*
X35607795Y-76959744D01*
X35529774Y-77148102D01*
X35490000Y-77348061D01*
X35490000Y-77551939D01*
X35529774Y-77751898D01*
X35607795Y-77940256D01*
X35721063Y-78109774D01*
X35865226Y-78253937D01*
X36034744Y-78367205D01*
X36223102Y-78445226D01*
X36423061Y-78485000D01*
X36449843Y-78485000D01*
X39562654Y-81597811D01*
X39587237Y-81627765D01*
X39706768Y-81725863D01*
X39843141Y-81798755D01*
X39991114Y-81843643D01*
X40066027Y-81851021D01*
X40106440Y-81855001D01*
X40106445Y-81855001D01*
X40145001Y-81858798D01*
X40183557Y-81855001D01*
X44951446Y-81855001D01*
X44989999Y-81858798D01*
X45028552Y-81855001D01*
X45028560Y-81855001D01*
X45143886Y-81843642D01*
X45291859Y-81798755D01*
X45428232Y-81725863D01*
X45547763Y-81627765D01*
X45572346Y-81597811D01*
X47145000Y-80025157D01*
X47145000Y-80233456D01*
X47197072Y-80495239D01*
X47299215Y-80741833D01*
X47447503Y-80963762D01*
X47540001Y-81056260D01*
X47540000Y-83265000D01*
X34788285Y-83265000D01*
X34665256Y-83182795D01*
X34476898Y-83104774D01*
X34276939Y-83065000D01*
X34073061Y-83065000D01*
X33873102Y-83104774D01*
X33684744Y-83182795D01*
X33515226Y-83296063D01*
X33371063Y-83440226D01*
X33303308Y-83541629D01*
X33215256Y-83482795D01*
X33026898Y-83404774D01*
X32826939Y-83365000D01*
X32623061Y-83365000D01*
X32423102Y-83404774D01*
X32234744Y-83482795D01*
X32065226Y-83596063D01*
X31921063Y-83740226D01*
X31807795Y-83909744D01*
X31729774Y-84098102D01*
X31690000Y-84298061D01*
X31690000Y-84501939D01*
X31726177Y-84683817D01*
X31639081Y-84742013D01*
X31560000Y-84821094D01*
X31560000Y-76447377D01*
X31673102Y-76494226D01*
X31873061Y-76534000D01*
X32076939Y-76534000D01*
X32276898Y-76494226D01*
X32465256Y-76416205D01*
X32634774Y-76302937D01*
X32778937Y-76158774D01*
X32892205Y-75989256D01*
X32970226Y-75800898D01*
X33010000Y-75600939D01*
X33010000Y-75397061D01*
X32970226Y-75197102D01*
X32910000Y-75051705D01*
X32910000Y-67548377D01*
X33023102Y-67595226D01*
X33223061Y-67635000D01*
X33426939Y-67635000D01*
X33626898Y-67595226D01*
X33815256Y-67517205D01*
X33984774Y-67403937D01*
X34003711Y-67385000D01*
X36003797Y-67385000D01*
X35845557Y-67490732D01*
G04 #@! TA.AperFunction,Conductor*
D27*
G36*
X35845557Y-67490732D02*
G01*
X35701394Y-67634895D01*
X35588126Y-67804413D01*
X35510105Y-67992771D01*
X35470331Y-68192730D01*
X35470331Y-68396608D01*
X35510105Y-68596567D01*
X35588126Y-68784925D01*
X35701394Y-68954443D01*
X35845557Y-69098606D01*
X36015075Y-69211874D01*
X36203433Y-69289895D01*
X36403392Y-69329669D01*
X36441678Y-69329669D01*
X36467097Y-69350530D01*
X36603470Y-69423422D01*
X36751443Y-69468309D01*
X36866769Y-69479668D01*
X36866776Y-69479668D01*
X36905329Y-69483465D01*
X36921714Y-69481851D01*
X38617678Y-71177816D01*
X38642256Y-71207764D01*
X38672204Y-71232342D01*
X38672207Y-71232345D01*
X38701579Y-71256450D01*
X38761787Y-71305862D01*
X38898160Y-71378754D01*
X39046133Y-71423641D01*
X39161459Y-71435000D01*
X39161466Y-71435000D01*
X39200019Y-71438797D01*
X39238572Y-71435000D01*
X45974843Y-71435000D01*
X48231671Y-73691828D01*
X48104761Y-73717072D01*
X47858167Y-73819215D01*
X47636238Y-73967503D01*
X47447503Y-74156238D01*
X47299215Y-74378167D01*
X47197072Y-74624761D01*
X47145000Y-74886544D01*
X47145000Y-75153456D01*
X47197072Y-75415239D01*
X47238395Y-75515000D01*
X47098061Y-75515000D01*
X46898102Y-75554774D01*
X46709744Y-75632795D01*
X46540226Y-75746063D01*
X46396063Y-75890226D01*
X46282795Y-76059744D01*
X46204774Y-76248102D01*
X46165000Y-76448061D01*
X46165000Y-76474843D01*
X43528051Y-79111792D01*
X43363762Y-78947503D01*
X43141833Y-78799215D01*
X42974734Y-78730000D01*
X43141833Y-78660785D01*
X43363762Y-78512497D01*
X43552497Y-78323762D01*
X43700785Y-78101833D01*
X43802928Y-77855239D01*
X43855000Y-77593456D01*
X43855000Y-77326544D01*
X43836520Y-77233637D01*
X46535157Y-74535000D01*
X46551939Y-74535000D01*
X46751898Y-74495226D01*
X46940256Y-74417205D01*
X47109774Y-74303937D01*
X47253937Y-74159774D01*
X47367205Y-73990256D01*
X47445226Y-73801898D01*
X47485000Y-73601939D01*
X47485000Y-73398061D01*
X47445226Y-73198102D01*
X47367205Y-73009744D01*
X47253937Y-72840226D01*
X47109774Y-72696063D01*
X46940256Y-72582795D01*
X46751898Y-72504774D01*
X46551939Y-72465000D01*
X46348061Y-72465000D01*
X46148102Y-72504774D01*
X45959744Y-72582795D01*
X45790226Y-72696063D01*
X45646063Y-72840226D01*
X45532795Y-73009744D01*
X45454774Y-73198102D01*
X45415000Y-73398061D01*
X45415000Y-73434843D01*
X43855000Y-74994843D01*
X43855000Y-74786544D01*
X43802928Y-74524761D01*
X43700785Y-74278167D01*
X43552497Y-74056238D01*
X43363762Y-73867503D01*
X43141833Y-73719215D01*
X42895239Y-73617072D01*
X42633456Y-73565000D01*
X42366544Y-73565000D01*
X42104761Y-73617072D01*
X41858167Y-73719215D01*
X41636238Y-73867503D01*
X41447503Y-74056238D01*
X41299215Y-74278167D01*
X41197072Y-74524761D01*
X41145000Y-74786544D01*
X41145000Y-75053456D01*
X41197072Y-75315239D01*
X41299215Y-75561833D01*
X41447503Y-75783762D01*
X41636238Y-75972497D01*
X41715000Y-76025124D01*
X41715001Y-76354876D01*
X41636238Y-76407503D01*
X41447503Y-76596238D01*
X41299215Y-76818167D01*
X41197072Y-77064761D01*
X41145000Y-77326544D01*
X41145000Y-77593456D01*
X41197072Y-77855239D01*
X41299215Y-78101833D01*
X41447503Y-78323762D01*
X41636238Y-78512497D01*
X41858167Y-78660785D01*
X42025266Y-78730000D01*
X41858167Y-78799215D01*
X41636238Y-78947503D01*
X41447503Y-79136238D01*
X41299215Y-79358167D01*
X41197072Y-79604761D01*
X41145000Y-79866544D01*
X41145000Y-80133456D01*
X41175144Y-80285001D01*
X40470158Y-80285001D01*
X37560000Y-77374843D01*
X37560000Y-77348061D01*
X37520226Y-77148102D01*
X37442205Y-76959744D01*
X37328937Y-76790226D01*
X37184774Y-76646063D01*
X37015256Y-76532795D01*
X36826898Y-76454774D01*
X36626939Y-76415000D01*
X36423061Y-76415000D01*
X36223102Y-76454774D01*
X36034744Y-76532795D01*
X35865226Y-76646063D01*
X35721063Y-76790226D01*
X35607795Y-76959744D01*
X35529774Y-77148102D01*
X35490000Y-77348061D01*
X35490000Y-77551939D01*
X35529774Y-77751898D01*
X35607795Y-77940256D01*
X35721063Y-78109774D01*
X35865226Y-78253937D01*
X36034744Y-78367205D01*
X36223102Y-78445226D01*
X36423061Y-78485000D01*
X36449843Y-78485000D01*
X39562654Y-81597811D01*
X39587237Y-81627765D01*
X39706768Y-81725863D01*
X39843141Y-81798755D01*
X39991114Y-81843643D01*
X40066027Y-81851021D01*
X40106440Y-81855001D01*
X40106445Y-81855001D01*
X40145001Y-81858798D01*
X40183557Y-81855001D01*
X44951446Y-81855001D01*
X44989999Y-81858798D01*
X45028552Y-81855001D01*
X45028560Y-81855001D01*
X45143886Y-81843642D01*
X45291859Y-81798755D01*
X45428232Y-81725863D01*
X45547763Y-81627765D01*
X45572346Y-81597811D01*
X47145000Y-80025157D01*
X47145000Y-80233456D01*
X47197072Y-80495239D01*
X47299215Y-80741833D01*
X47447503Y-80963762D01*
X47540001Y-81056260D01*
X47540000Y-83265000D01*
X34788285Y-83265000D01*
X34665256Y-83182795D01*
X34476898Y-83104774D01*
X34276939Y-83065000D01*
X34073061Y-83065000D01*
X33873102Y-83104774D01*
X33684744Y-83182795D01*
X33515226Y-83296063D01*
X33371063Y-83440226D01*
X33303308Y-83541629D01*
X33215256Y-83482795D01*
X33026898Y-83404774D01*
X32826939Y-83365000D01*
X32623061Y-83365000D01*
X32423102Y-83404774D01*
X32234744Y-83482795D01*
X32065226Y-83596063D01*
X31921063Y-83740226D01*
X31807795Y-83909744D01*
X31729774Y-84098102D01*
X31690000Y-84298061D01*
X31690000Y-84501939D01*
X31726177Y-84683817D01*
X31639081Y-84742013D01*
X31560000Y-84821094D01*
X31560000Y-76447377D01*
X31673102Y-76494226D01*
X31873061Y-76534000D01*
X32076939Y-76534000D01*
X32276898Y-76494226D01*
X32465256Y-76416205D01*
X32634774Y-76302937D01*
X32778937Y-76158774D01*
X32892205Y-75989256D01*
X32970226Y-75800898D01*
X33010000Y-75600939D01*
X33010000Y-75397061D01*
X32970226Y-75197102D01*
X32910000Y-75051705D01*
X32910000Y-67548377D01*
X33023102Y-67595226D01*
X33223061Y-67635000D01*
X33426939Y-67635000D01*
X33626898Y-67595226D01*
X33815256Y-67517205D01*
X33984774Y-67403937D01*
X34003711Y-67385000D01*
X36003797Y-67385000D01*
X35845557Y-67490732D01*
G37*
G04 #@! TD.AperFunction*
G04 #@! TD*
D26*
G04 #@! TO.N,GND*
X38334188Y-13425518D02*
X38321928Y-13550000D01*
X38325000Y-14364250D01*
X38483750Y-14523000D01*
X39933000Y-14523000D01*
X39933000Y-14503000D01*
X40187000Y-14503000D01*
X40187000Y-14523000D01*
X41636250Y-14523000D01*
X41795000Y-14364250D01*
X41798072Y-13550000D01*
X41785812Y-13425518D01*
X41781105Y-13410000D01*
X56948001Y-13410000D01*
X56948001Y-13701928D01*
X55520000Y-13701928D01*
X55395518Y-13714188D01*
X55275820Y-13750498D01*
X55165506Y-13809463D01*
X55068815Y-13888815D01*
X54989463Y-13985506D01*
X54930498Y-14095820D01*
X54924944Y-14114127D01*
X54858505Y-14047688D01*
X54607095Y-13879701D01*
X54327743Y-13763989D01*
X54031184Y-13705000D01*
X53728816Y-13705000D01*
X53432257Y-13763989D01*
X53152905Y-13879701D01*
X52901495Y-14047688D01*
X52687688Y-14261495D01*
X52519701Y-14512905D01*
X52403989Y-14792257D01*
X52345000Y-15088816D01*
X52345000Y-15391184D01*
X52403989Y-15687743D01*
X52519701Y-15967095D01*
X52687688Y-16218505D01*
X52901495Y-16432312D01*
X53152905Y-16600299D01*
X53432257Y-16716011D01*
X53728816Y-16775000D01*
X54031184Y-16775000D01*
X54327743Y-16716011D01*
X54607095Y-16600299D01*
X54858505Y-16432312D01*
X54924944Y-16365873D01*
X54930498Y-16384180D01*
X54989463Y-16494494D01*
X55068815Y-16591185D01*
X55165506Y-16670537D01*
X55275820Y-16729502D01*
X55395518Y-16765812D01*
X55520000Y-16778072D01*
X56948001Y-16778072D01*
X56948001Y-24809038D01*
X56211137Y-24798339D01*
X56246842Y-24712140D01*
X56296223Y-24463880D01*
X56296223Y-24210758D01*
X56246842Y-23962498D01*
X56149976Y-23728643D01*
X56009348Y-23518179D01*
X55830363Y-23339194D01*
X55619899Y-23198566D01*
X55386044Y-23101700D01*
X55313744Y-23087319D01*
X55386044Y-23072938D01*
X55619899Y-22976072D01*
X55830363Y-22835444D01*
X56009348Y-22656459D01*
X56149976Y-22445995D01*
X56246842Y-22212140D01*
X56296223Y-21963880D01*
X56296223Y-21710758D01*
X56246842Y-21462498D01*
X56149976Y-21228643D01*
X56009348Y-21018179D01*
X55830363Y-20839194D01*
X55619899Y-20698566D01*
X55386044Y-20601700D01*
X55313744Y-20587319D01*
X55386044Y-20572938D01*
X55619899Y-20476072D01*
X55830363Y-20335444D01*
X56009348Y-20156459D01*
X56149976Y-19945995D01*
X56246842Y-19712140D01*
X56296223Y-19463880D01*
X56296223Y-19210758D01*
X56246842Y-18962498D01*
X56149976Y-18728643D01*
X56009348Y-18518179D01*
X55830363Y-18339194D01*
X55619899Y-18198566D01*
X55386044Y-18101700D01*
X55137784Y-18052319D01*
X54884662Y-18052319D01*
X54636402Y-18101700D01*
X54402547Y-18198566D01*
X54192083Y-18339194D01*
X54013098Y-18518179D01*
X53872470Y-18728643D01*
X53775604Y-18962498D01*
X53726223Y-19210758D01*
X53726223Y-19463880D01*
X53775604Y-19712140D01*
X53872470Y-19945995D01*
X54013098Y-20156459D01*
X54192083Y-20335444D01*
X54402547Y-20476072D01*
X54636402Y-20572938D01*
X54708702Y-20587319D01*
X54636402Y-20601700D01*
X54402547Y-20698566D01*
X54192083Y-20839194D01*
X54013098Y-21018179D01*
X53990286Y-21052319D01*
X49915000Y-21052319D01*
X49915000Y-20985380D01*
X49875226Y-20785421D01*
X49797205Y-20597063D01*
X49683937Y-20427545D01*
X49539774Y-20283382D01*
X49370256Y-20170114D01*
X49181898Y-20092093D01*
X48981939Y-20052319D01*
X48778061Y-20052319D01*
X48578102Y-20092093D01*
X48389744Y-20170114D01*
X48220226Y-20283382D01*
X48201289Y-20302319D01*
X40968111Y-20302319D01*
X40929558Y-20298522D01*
X40891005Y-20302319D01*
X40890998Y-20302319D01*
X40790049Y-20312262D01*
X40775671Y-20313678D01*
X40634500Y-20356502D01*
X40627699Y-20358565D01*
X40491326Y-20431457D01*
X40436963Y-20476072D01*
X40401746Y-20504974D01*
X40401743Y-20504977D01*
X40371795Y-20529555D01*
X40347217Y-20559503D01*
X37582174Y-23324547D01*
X37552226Y-23349125D01*
X37527648Y-23379073D01*
X37527644Y-23379077D01*
X37494679Y-23419245D01*
X37454128Y-23468656D01*
X37450142Y-23476114D01*
X37381235Y-23605030D01*
X37336348Y-23753003D01*
X37321192Y-23906889D01*
X37324990Y-23945452D01*
X37324990Y-24524139D01*
X36473494Y-24511776D01*
X36478832Y-24484938D01*
X36478832Y-24231816D01*
X36429451Y-23983556D01*
X36332585Y-23749701D01*
X36191957Y-23539237D01*
X36012972Y-23360252D01*
X35802508Y-23219624D01*
X35568653Y-23122758D01*
X35496353Y-23108377D01*
X35568653Y-23093996D01*
X35802508Y-22997130D01*
X36012972Y-22856502D01*
X36191957Y-22677517D01*
X36332585Y-22467053D01*
X36429451Y-22233198D01*
X36478832Y-21984938D01*
X36478832Y-21731816D01*
X36429451Y-21483556D01*
X36332585Y-21249701D01*
X36191957Y-21039237D01*
X36012972Y-20860252D01*
X35802508Y-20719624D01*
X35568653Y-20622758D01*
X35496353Y-20608377D01*
X35568653Y-20593996D01*
X35802508Y-20497130D01*
X36012972Y-20356502D01*
X36191957Y-20177517D01*
X36332585Y-19967053D01*
X36429451Y-19733198D01*
X36478832Y-19484938D01*
X36478832Y-19231816D01*
X36429451Y-18983556D01*
X36332585Y-18749701D01*
X36191957Y-18539237D01*
X36012972Y-18360252D01*
X35802508Y-18219624D01*
X35568653Y-18122758D01*
X35320393Y-18073377D01*
X35067271Y-18073377D01*
X34819011Y-18122758D01*
X34585156Y-18219624D01*
X34374692Y-18360252D01*
X34195707Y-18539237D01*
X34055079Y-18749701D01*
X33958213Y-18983556D01*
X33908832Y-19231816D01*
X33908832Y-19484938D01*
X33958213Y-19733198D01*
X34055079Y-19967053D01*
X34195707Y-20177517D01*
X34374692Y-20356502D01*
X34585156Y-20497130D01*
X34819011Y-20593996D01*
X34891311Y-20608377D01*
X34819011Y-20622758D01*
X34585156Y-20719624D01*
X34374692Y-20860252D01*
X34195707Y-21039237D01*
X34055079Y-21249701D01*
X33958213Y-21483556D01*
X33908832Y-21731816D01*
X33908832Y-21984938D01*
X33916842Y-22025209D01*
X33097052Y-22845000D01*
X18490000Y-22845000D01*
X18490000Y-16897344D01*
X26058832Y-16897344D01*
X26058832Y-17219410D01*
X26121664Y-17535289D01*
X26244914Y-17832840D01*
X26423845Y-18100629D01*
X26651580Y-18328364D01*
X26919369Y-18507295D01*
X27216920Y-18630545D01*
X27532799Y-18693377D01*
X27854865Y-18693377D01*
X28170744Y-18630545D01*
X28468295Y-18507295D01*
X28736084Y-18328364D01*
X28963819Y-18100629D01*
X29142750Y-17832840D01*
X29266000Y-17535289D01*
X29328832Y-17219410D01*
X29328832Y-16897344D01*
X29324644Y-16876286D01*
X45876223Y-16876286D01*
X45876223Y-17198352D01*
X45939055Y-17514231D01*
X46062305Y-17811782D01*
X46241236Y-18079571D01*
X46468971Y-18307306D01*
X46736760Y-18486237D01*
X47034311Y-18609487D01*
X47350190Y-18672319D01*
X47672256Y-18672319D01*
X47988135Y-18609487D01*
X48285686Y-18486237D01*
X48553475Y-18307306D01*
X48781210Y-18079571D01*
X48960141Y-17811782D01*
X49083391Y-17514231D01*
X49146223Y-17198352D01*
X49146223Y-16876286D01*
X49083391Y-16560407D01*
X48960141Y-16262856D01*
X48781210Y-15995067D01*
X48553475Y-15767332D01*
X48285686Y-15588401D01*
X47988135Y-15465151D01*
X47672256Y-15402319D01*
X47350190Y-15402319D01*
X47034311Y-15465151D01*
X46736760Y-15588401D01*
X46468971Y-15767332D01*
X46241236Y-15995067D01*
X46062305Y-16262856D01*
X45939055Y-16560407D01*
X45876223Y-16876286D01*
X29324644Y-16876286D01*
X29266000Y-16581465D01*
X29142750Y-16283914D01*
X28963819Y-16016125D01*
X28736084Y-15788390D01*
X28468295Y-15609459D01*
X28170744Y-15486209D01*
X27854865Y-15423377D01*
X27532799Y-15423377D01*
X27216920Y-15486209D01*
X26919369Y-15609459D01*
X26651580Y-15788390D01*
X26423845Y-16016125D01*
X26244914Y-16283914D01*
X26121664Y-16581465D01*
X26058832Y-16897344D01*
X18490000Y-16897344D01*
X18490000Y-15148816D01*
X32525000Y-15148816D01*
X32525000Y-15451184D01*
X32583989Y-15747743D01*
X32699701Y-16027095D01*
X32867688Y-16278505D01*
X33081495Y-16492312D01*
X33332905Y-16660299D01*
X33612257Y-16776011D01*
X33908816Y-16835000D01*
X34211184Y-16835000D01*
X34507743Y-16776011D01*
X34787095Y-16660299D01*
X35038505Y-16492312D01*
X35104944Y-16425873D01*
X35110498Y-16444180D01*
X35169463Y-16554494D01*
X35248815Y-16651185D01*
X35345506Y-16730537D01*
X35455820Y-16789502D01*
X35575518Y-16825812D01*
X35700000Y-16838072D01*
X37500000Y-16838072D01*
X37624482Y-16825812D01*
X37744180Y-16789502D01*
X37854494Y-16730537D01*
X37951185Y-16651185D01*
X38030537Y-16554494D01*
X38089502Y-16444180D01*
X38125812Y-16324482D01*
X38138072Y-16200000D01*
X38138072Y-15750000D01*
X38321928Y-15750000D01*
X38334188Y-15874482D01*
X38370498Y-15994180D01*
X38429463Y-16104494D01*
X38508815Y-16201185D01*
X38605506Y-16280537D01*
X38715820Y-16339502D01*
X38835518Y-16375812D01*
X38960000Y-16388072D01*
X39774250Y-16385000D01*
X39933000Y-16226250D01*
X39933000Y-14777000D01*
X40187000Y-14777000D01*
X40187000Y-16226250D01*
X40345750Y-16385000D01*
X41160000Y-16388072D01*
X41284482Y-16375812D01*
X41404180Y-16339502D01*
X41514494Y-16280537D01*
X41611185Y-16201185D01*
X41690537Y-16104494D01*
X41749502Y-15994180D01*
X41785812Y-15874482D01*
X41798072Y-15750000D01*
X41795000Y-14935750D01*
X41636250Y-14777000D01*
X40187000Y-14777000D01*
X39933000Y-14777000D01*
X38483750Y-14777000D01*
X38325000Y-14935750D01*
X38321928Y-15750000D01*
X38138072Y-15750000D01*
X38138072Y-14400000D01*
X38125812Y-14275518D01*
X38089502Y-14155820D01*
X38030537Y-14045506D01*
X37951185Y-13948815D01*
X37854494Y-13869463D01*
X37744180Y-13810498D01*
X37624482Y-13774188D01*
X37500000Y-13761928D01*
X35700000Y-13761928D01*
X35575518Y-13774188D01*
X35455820Y-13810498D01*
X35345506Y-13869463D01*
X35248815Y-13948815D01*
X35169463Y-14045506D01*
X35110498Y-14155820D01*
X35104944Y-14174127D01*
X35038505Y-14107688D01*
X34787095Y-13939701D01*
X34507743Y-13823989D01*
X34211184Y-13765000D01*
X33908816Y-13765000D01*
X33612257Y-13823989D01*
X33332905Y-13939701D01*
X33081495Y-14107688D01*
X32867688Y-14321495D01*
X32699701Y-14572905D01*
X32583989Y-14852257D01*
X32525000Y-15148816D01*
X18490000Y-15148816D01*
X18490000Y-13410000D01*
X38338895Y-13410000D01*
X38334188Y-13425518D01*
G04 #@! TA.AperFunction,Conductor*
D27*
G36*
X38334188Y-13425518D02*
G01*
X38321928Y-13550000D01*
X38325000Y-14364250D01*
X38483750Y-14523000D01*
X39933000Y-14523000D01*
X39933000Y-14503000D01*
X40187000Y-14503000D01*
X40187000Y-14523000D01*
X41636250Y-14523000D01*
X41795000Y-14364250D01*
X41798072Y-13550000D01*
X41785812Y-13425518D01*
X41781105Y-13410000D01*
X56948001Y-13410000D01*
X56948001Y-13701928D01*
X55520000Y-13701928D01*
X55395518Y-13714188D01*
X55275820Y-13750498D01*
X55165506Y-13809463D01*
X55068815Y-13888815D01*
X54989463Y-13985506D01*
X54930498Y-14095820D01*
X54924944Y-14114127D01*
X54858505Y-14047688D01*
X54607095Y-13879701D01*
X54327743Y-13763989D01*
X54031184Y-13705000D01*
X53728816Y-13705000D01*
X53432257Y-13763989D01*
X53152905Y-13879701D01*
X52901495Y-14047688D01*
X52687688Y-14261495D01*
X52519701Y-14512905D01*
X52403989Y-14792257D01*
X52345000Y-15088816D01*
X52345000Y-15391184D01*
X52403989Y-15687743D01*
X52519701Y-15967095D01*
X52687688Y-16218505D01*
X52901495Y-16432312D01*
X53152905Y-16600299D01*
X53432257Y-16716011D01*
X53728816Y-16775000D01*
X54031184Y-16775000D01*
X54327743Y-16716011D01*
X54607095Y-16600299D01*
X54858505Y-16432312D01*
X54924944Y-16365873D01*
X54930498Y-16384180D01*
X54989463Y-16494494D01*
X55068815Y-16591185D01*
X55165506Y-16670537D01*
X55275820Y-16729502D01*
X55395518Y-16765812D01*
X55520000Y-16778072D01*
X56948001Y-16778072D01*
X56948001Y-24809038D01*
X56211137Y-24798339D01*
X56246842Y-24712140D01*
X56296223Y-24463880D01*
X56296223Y-24210758D01*
X56246842Y-23962498D01*
X56149976Y-23728643D01*
X56009348Y-23518179D01*
X55830363Y-23339194D01*
X55619899Y-23198566D01*
X55386044Y-23101700D01*
X55313744Y-23087319D01*
X55386044Y-23072938D01*
X55619899Y-22976072D01*
X55830363Y-22835444D01*
X56009348Y-22656459D01*
X56149976Y-22445995D01*
X56246842Y-22212140D01*
X56296223Y-21963880D01*
X56296223Y-21710758D01*
X56246842Y-21462498D01*
X56149976Y-21228643D01*
X56009348Y-21018179D01*
X55830363Y-20839194D01*
X55619899Y-20698566D01*
X55386044Y-20601700D01*
X55313744Y-20587319D01*
X55386044Y-20572938D01*
X55619899Y-20476072D01*
X55830363Y-20335444D01*
X56009348Y-20156459D01*
X56149976Y-19945995D01*
X56246842Y-19712140D01*
X56296223Y-19463880D01*
X56296223Y-19210758D01*
X56246842Y-18962498D01*
X56149976Y-18728643D01*
X56009348Y-18518179D01*
X55830363Y-18339194D01*
X55619899Y-18198566D01*
X55386044Y-18101700D01*
X55137784Y-18052319D01*
X54884662Y-18052319D01*
X54636402Y-18101700D01*
X54402547Y-18198566D01*
X54192083Y-18339194D01*
X54013098Y-18518179D01*
X53872470Y-18728643D01*
X53775604Y-18962498D01*
X53726223Y-19210758D01*
X53726223Y-19463880D01*
X53775604Y-19712140D01*
X53872470Y-19945995D01*
X54013098Y-20156459D01*
X54192083Y-20335444D01*
X54402547Y-20476072D01*
X54636402Y-20572938D01*
X54708702Y-20587319D01*
X54636402Y-20601700D01*
X54402547Y-20698566D01*
X54192083Y-20839194D01*
X54013098Y-21018179D01*
X53990286Y-21052319D01*
X49915000Y-21052319D01*
X49915000Y-20985380D01*
X49875226Y-20785421D01*
X49797205Y-20597063D01*
X49683937Y-20427545D01*
X49539774Y-20283382D01*
X49370256Y-20170114D01*
X49181898Y-20092093D01*
X48981939Y-20052319D01*
X48778061Y-20052319D01*
X48578102Y-20092093D01*
X48389744Y-20170114D01*
X48220226Y-20283382D01*
X48201289Y-20302319D01*
X40968111Y-20302319D01*
X40929558Y-20298522D01*
X40891005Y-20302319D01*
X40890998Y-20302319D01*
X40790049Y-20312262D01*
X40775671Y-20313678D01*
X40634500Y-20356502D01*
X40627699Y-20358565D01*
X40491326Y-20431457D01*
X40436963Y-20476072D01*
X40401746Y-20504974D01*
X40401743Y-20504977D01*
X40371795Y-20529555D01*
X40347217Y-20559503D01*
X37582174Y-23324547D01*
X37552226Y-23349125D01*
X37527648Y-23379073D01*
X37527644Y-23379077D01*
X37494679Y-23419245D01*
X37454128Y-23468656D01*
X37450142Y-23476114D01*
X37381235Y-23605030D01*
X37336348Y-23753003D01*
X37321192Y-23906889D01*
X37324990Y-23945452D01*
X37324990Y-24524139D01*
X36473494Y-24511776D01*
X36478832Y-24484938D01*
X36478832Y-24231816D01*
X36429451Y-23983556D01*
X36332585Y-23749701D01*
X36191957Y-23539237D01*
X36012972Y-23360252D01*
X35802508Y-23219624D01*
X35568653Y-23122758D01*
X35496353Y-23108377D01*
X35568653Y-23093996D01*
X35802508Y-22997130D01*
X36012972Y-22856502D01*
X36191957Y-22677517D01*
X36332585Y-22467053D01*
X36429451Y-22233198D01*
X36478832Y-21984938D01*
X36478832Y-21731816D01*
X36429451Y-21483556D01*
X36332585Y-21249701D01*
X36191957Y-21039237D01*
X36012972Y-20860252D01*
X35802508Y-20719624D01*
X35568653Y-20622758D01*
X35496353Y-20608377D01*
X35568653Y-20593996D01*
X35802508Y-20497130D01*
X36012972Y-20356502D01*
X36191957Y-20177517D01*
X36332585Y-19967053D01*
X36429451Y-19733198D01*
X36478832Y-19484938D01*
X36478832Y-19231816D01*
X36429451Y-18983556D01*
X36332585Y-18749701D01*
X36191957Y-18539237D01*
X36012972Y-18360252D01*
X35802508Y-18219624D01*
X35568653Y-18122758D01*
X35320393Y-18073377D01*
X35067271Y-18073377D01*
X34819011Y-18122758D01*
X34585156Y-18219624D01*
X34374692Y-18360252D01*
X34195707Y-18539237D01*
X34055079Y-18749701D01*
X33958213Y-18983556D01*
X33908832Y-19231816D01*
X33908832Y-19484938D01*
X33958213Y-19733198D01*
X34055079Y-19967053D01*
X34195707Y-20177517D01*
X34374692Y-20356502D01*
X34585156Y-20497130D01*
X34819011Y-20593996D01*
X34891311Y-20608377D01*
X34819011Y-20622758D01*
X34585156Y-20719624D01*
X34374692Y-20860252D01*
X34195707Y-21039237D01*
X34055079Y-21249701D01*
X33958213Y-21483556D01*
X33908832Y-21731816D01*
X33908832Y-21984938D01*
X33916842Y-22025209D01*
X33097052Y-22845000D01*
X18490000Y-22845000D01*
X18490000Y-16897344D01*
X26058832Y-16897344D01*
X26058832Y-17219410D01*
X26121664Y-17535289D01*
X26244914Y-17832840D01*
X26423845Y-18100629D01*
X26651580Y-18328364D01*
X26919369Y-18507295D01*
X27216920Y-18630545D01*
X27532799Y-18693377D01*
X27854865Y-18693377D01*
X28170744Y-18630545D01*
X28468295Y-18507295D01*
X28736084Y-18328364D01*
X28963819Y-18100629D01*
X29142750Y-17832840D01*
X29266000Y-17535289D01*
X29328832Y-17219410D01*
X29328832Y-16897344D01*
X29324644Y-16876286D01*
X45876223Y-16876286D01*
X45876223Y-17198352D01*
X45939055Y-17514231D01*
X46062305Y-17811782D01*
X46241236Y-18079571D01*
X46468971Y-18307306D01*
X46736760Y-18486237D01*
X47034311Y-18609487D01*
X47350190Y-18672319D01*
X47672256Y-18672319D01*
X47988135Y-18609487D01*
X48285686Y-18486237D01*
X48553475Y-18307306D01*
X48781210Y-18079571D01*
X48960141Y-17811782D01*
X49083391Y-17514231D01*
X49146223Y-17198352D01*
X49146223Y-16876286D01*
X49083391Y-16560407D01*
X48960141Y-16262856D01*
X48781210Y-15995067D01*
X48553475Y-15767332D01*
X48285686Y-15588401D01*
X47988135Y-15465151D01*
X47672256Y-15402319D01*
X47350190Y-15402319D01*
X47034311Y-15465151D01*
X46736760Y-15588401D01*
X46468971Y-15767332D01*
X46241236Y-15995067D01*
X46062305Y-16262856D01*
X45939055Y-16560407D01*
X45876223Y-16876286D01*
X29324644Y-16876286D01*
X29266000Y-16581465D01*
X29142750Y-16283914D01*
X28963819Y-16016125D01*
X28736084Y-15788390D01*
X28468295Y-15609459D01*
X28170744Y-15486209D01*
X27854865Y-15423377D01*
X27532799Y-15423377D01*
X27216920Y-15486209D01*
X26919369Y-15609459D01*
X26651580Y-15788390D01*
X26423845Y-16016125D01*
X26244914Y-16283914D01*
X26121664Y-16581465D01*
X26058832Y-16897344D01*
X18490000Y-16897344D01*
X18490000Y-15148816D01*
X32525000Y-15148816D01*
X32525000Y-15451184D01*
X32583989Y-15747743D01*
X32699701Y-16027095D01*
X32867688Y-16278505D01*
X33081495Y-16492312D01*
X33332905Y-16660299D01*
X33612257Y-16776011D01*
X33908816Y-16835000D01*
X34211184Y-16835000D01*
X34507743Y-16776011D01*
X34787095Y-16660299D01*
X35038505Y-16492312D01*
X35104944Y-16425873D01*
X35110498Y-16444180D01*
X35169463Y-16554494D01*
X35248815Y-16651185D01*
X35345506Y-16730537D01*
X35455820Y-16789502D01*
X35575518Y-16825812D01*
X35700000Y-16838072D01*
X37500000Y-16838072D01*
X37624482Y-16825812D01*
X37744180Y-16789502D01*
X37854494Y-16730537D01*
X37951185Y-16651185D01*
X38030537Y-16554494D01*
X38089502Y-16444180D01*
X38125812Y-16324482D01*
X38138072Y-16200000D01*
X38138072Y-15750000D01*
X38321928Y-15750000D01*
X38334188Y-15874482D01*
X38370498Y-15994180D01*
X38429463Y-16104494D01*
X38508815Y-16201185D01*
X38605506Y-16280537D01*
X38715820Y-16339502D01*
X38835518Y-16375812D01*
X38960000Y-16388072D01*
X39774250Y-16385000D01*
X39933000Y-16226250D01*
X39933000Y-14777000D01*
X40187000Y-14777000D01*
X40187000Y-16226250D01*
X40345750Y-16385000D01*
X41160000Y-16388072D01*
X41284482Y-16375812D01*
X41404180Y-16339502D01*
X41514494Y-16280537D01*
X41611185Y-16201185D01*
X41690537Y-16104494D01*
X41749502Y-15994180D01*
X41785812Y-15874482D01*
X41798072Y-15750000D01*
X41795000Y-14935750D01*
X41636250Y-14777000D01*
X40187000Y-14777000D01*
X39933000Y-14777000D01*
X38483750Y-14777000D01*
X38325000Y-14935750D01*
X38321928Y-15750000D01*
X38138072Y-15750000D01*
X38138072Y-14400000D01*
X38125812Y-14275518D01*
X38089502Y-14155820D01*
X38030537Y-14045506D01*
X37951185Y-13948815D01*
X37854494Y-13869463D01*
X37744180Y-13810498D01*
X37624482Y-13774188D01*
X37500000Y-13761928D01*
X35700000Y-13761928D01*
X35575518Y-13774188D01*
X35455820Y-13810498D01*
X35345506Y-13869463D01*
X35248815Y-13948815D01*
X35169463Y-14045506D01*
X35110498Y-14155820D01*
X35104944Y-14174127D01*
X35038505Y-14107688D01*
X34787095Y-13939701D01*
X34507743Y-13823989D01*
X34211184Y-13765000D01*
X33908816Y-13765000D01*
X33612257Y-13823989D01*
X33332905Y-13939701D01*
X33081495Y-14107688D01*
X32867688Y-14321495D01*
X32699701Y-14572905D01*
X32583989Y-14852257D01*
X32525000Y-15148816D01*
X18490000Y-15148816D01*
X18490000Y-13410000D01*
X38338895Y-13410000D01*
X38334188Y-13425518D01*
G37*
G04 #@! TD.AperFunction*
D26*
X54013098Y-22656459D02*
X54192083Y-22835444D01*
X54402547Y-22976072D01*
X54636402Y-23072938D01*
X54708702Y-23087319D01*
X54636402Y-23101700D01*
X54402547Y-23198566D01*
X54192083Y-23339194D01*
X54013098Y-23518179D01*
X53872470Y-23728643D01*
X53775604Y-23962498D01*
X53726223Y-24210758D01*
X53726223Y-24463880D01*
X53775604Y-24712140D01*
X53796790Y-24763286D01*
X41785010Y-24588892D01*
X41728325Y-24303919D01*
X41597537Y-23988169D01*
X41407663Y-23704002D01*
X41165998Y-23462337D01*
X40881831Y-23272463D01*
X40655459Y-23178696D01*
X41211836Y-22622319D01*
X53990286Y-22622319D01*
X54013098Y-22656459D01*
G04 #@! TA.AperFunction,Conductor*
D27*
G36*
X54013098Y-22656459D02*
G01*
X54192083Y-22835444D01*
X54402547Y-22976072D01*
X54636402Y-23072938D01*
X54708702Y-23087319D01*
X54636402Y-23101700D01*
X54402547Y-23198566D01*
X54192083Y-23339194D01*
X54013098Y-23518179D01*
X53872470Y-23728643D01*
X53775604Y-23962498D01*
X53726223Y-24210758D01*
X53726223Y-24463880D01*
X53775604Y-24712140D01*
X53796790Y-24763286D01*
X41785010Y-24588892D01*
X41728325Y-24303919D01*
X41597537Y-23988169D01*
X41407663Y-23704002D01*
X41165998Y-23462337D01*
X40881831Y-23272463D01*
X40655459Y-23178696D01*
X41211836Y-22622319D01*
X53990286Y-22622319D01*
X54013098Y-22656459D01*
G37*
G04 #@! TD.AperFunction*
D26*
X33908832Y-24474541D02*
X29807808Y-24415000D01*
X33383656Y-24415000D01*
X33422209Y-24418797D01*
X33460762Y-24415000D01*
X33460770Y-24415000D01*
X33576096Y-24403641D01*
X33724069Y-24358754D01*
X33860442Y-24285862D01*
X33908832Y-24246149D01*
X33908832Y-24474541D01*
G04 #@! TA.AperFunction,Conductor*
D27*
G36*
X33908832Y-24474541D02*
G01*
X29807808Y-24415000D01*
X33383656Y-24415000D01*
X33422209Y-24418797D01*
X33460762Y-24415000D01*
X33460770Y-24415000D01*
X33576096Y-24403641D01*
X33724069Y-24358754D01*
X33860442Y-24285862D01*
X33908832Y-24246149D01*
X33908832Y-24474541D01*
G37*
G04 #@! TD.AperFunction*
G04 #@! TD*
M02*
