G04 #@! TF.GenerationSoftware,KiCad,Pcbnew,(5.1.9)-1*
G04 #@! TF.CreationDate,2021-03-20T12:47:07+00:00*
G04 #@! TF.ProjectId,board v2,626f6172-6420-4763-922e-6b696361645f,rev?*
G04 #@! TF.SameCoordinates,Original*
G04 #@! TF.FileFunction,Legend,Top*
G04 #@! TF.FilePolarity,Positive*
%FSLAX46Y46*%
G04 Gerber Fmt 4.6, Leading zero omitted, Abs format (unit mm)*
G04 Created by KiCad (PCBNEW (5.1.9)-1) date 2021-03-20 12:47:07*
%MOMM*%
%LPD*%
G01*
G04 APERTURE LIST*
G04 #@! TA.AperFunction,Profile*
%ADD10C,0.150000*%
G04 #@! TD*
%ADD11C,0.120000*%
%ADD12C,0.150000*%
G04 APERTURE END LIST*
D10*
X57658000Y-12700000D02*
X17780000Y-12700000D01*
X57658000Y-112268000D02*
X57658000Y-12700000D01*
X17780000Y-112268000D02*
X57658000Y-112268000D01*
X17780000Y-12700000D02*
X17780000Y-112268000D01*
D11*
G04 #@! TO.C,D1*
X36890000Y-14220000D02*
X36890000Y-14064000D01*
X36890000Y-16536000D02*
X36890000Y-16380000D01*
X33657665Y-16378608D02*
G75*
G03*
X36890000Y-16535516I1672335J1078608D01*
G01*
X33657665Y-14221392D02*
G75*
G02*
X36890000Y-14064484I1672335J-1078608D01*
G01*
X34288870Y-16379837D02*
G75*
G03*
X36370961Y-16380000I1041130J1079837D01*
G01*
X34288870Y-14220163D02*
G75*
G02*
X36370961Y-14220000I1041130J-1079837D01*
G01*
G04 #@! TO.C,D2*
X36920000Y-36796000D02*
X36920000Y-36640000D01*
X36920000Y-34480000D02*
X36920000Y-34324000D01*
X34318870Y-34480163D02*
G75*
G02*
X36400961Y-34480000I1041130J-1079837D01*
G01*
X34318870Y-36639837D02*
G75*
G03*
X36400961Y-36640000I1041130J1079837D01*
G01*
X33687665Y-34481392D02*
G75*
G02*
X36920000Y-34324484I1672335J-1078608D01*
G01*
X33687665Y-36638608D02*
G75*
G03*
X36920000Y-36795516I1672335J1078608D01*
G01*
G04 #@! TO.C,D3*
X56730000Y-37046000D02*
X56730000Y-36890000D01*
X56730000Y-34730000D02*
X56730000Y-34574000D01*
X54128870Y-34730163D02*
G75*
G02*
X56210961Y-34730000I1041130J-1079837D01*
G01*
X54128870Y-36889837D02*
G75*
G03*
X56210961Y-36890000I1041130J1079837D01*
G01*
X53497665Y-34731392D02*
G75*
G02*
X56730000Y-34574484I1672335J-1078608D01*
G01*
X53497665Y-36888608D02*
G75*
G03*
X56730000Y-37045516I1672335J1078608D01*
G01*
G04 #@! TO.C,D4*
X56710000Y-16476000D02*
X56710000Y-16320000D01*
X56710000Y-14160000D02*
X56710000Y-14004000D01*
X54108870Y-14160163D02*
G75*
G02*
X56190961Y-14160000I1041130J-1079837D01*
G01*
X54108870Y-16319837D02*
G75*
G03*
X56190961Y-16320000I1041130J1079837D01*
G01*
X53477665Y-14161392D02*
G75*
G02*
X56710000Y-14004484I1672335J-1078608D01*
G01*
X53477665Y-16318608D02*
G75*
G03*
X56710000Y-16475516I1672335J1078608D01*
G01*
D12*
G04 #@! TO.C,J1*
X40956666Y-90932000D02*
X44556666Y-90932000D01*
X42756666Y-89132000D02*
X42756666Y-92732000D01*
X44556666Y-90932000D02*
G75*
G03*
X44556666Y-90932000I-1800000J0D01*
G01*
X47256666Y-84732000D02*
X47256666Y-95632000D01*
X38256666Y-84732000D02*
X38256666Y-95632000D01*
X38256666Y-95632000D02*
X47256666Y-95632000D01*
X38256666Y-84732000D02*
X47256666Y-84732000D01*
G04 #@! TO.C,J2*
X18106000Y-84732000D02*
X27106000Y-84732000D01*
X18106000Y-95632000D02*
X27106000Y-95632000D01*
X18106000Y-84732000D02*
X18106000Y-95632000D01*
X27106000Y-84732000D02*
X27106000Y-95632000D01*
X24406000Y-90932000D02*
G75*
G03*
X24406000Y-90932000I-1800000J0D01*
G01*
X22606000Y-89132000D02*
X22606000Y-92732000D01*
X20806000Y-90932000D02*
X24406000Y-90932000D01*
G04 #@! TO.C,J3*
X24406000Y-105664000D02*
X20806000Y-105664000D01*
X22606000Y-107464000D02*
X22606000Y-103864000D01*
X24406000Y-105664000D02*
G75*
G03*
X24406000Y-105664000I-1800000J0D01*
G01*
X18106000Y-111864000D02*
X18106000Y-100964000D01*
X27106000Y-111864000D02*
X27106000Y-100964000D01*
X27106000Y-100964000D02*
X18106000Y-100964000D01*
X27106000Y-111864000D02*
X18106000Y-111864000D01*
G04 #@! TO.C,J4*
X47256666Y-111864000D02*
X38256666Y-111864000D01*
X47256666Y-100964000D02*
X38256666Y-100964000D01*
X47256666Y-111864000D02*
X47256666Y-100964000D01*
X38256666Y-111864000D02*
X38256666Y-100964000D01*
X44556666Y-105664000D02*
G75*
G03*
X44556666Y-105664000I-1800000J0D01*
G01*
X42756666Y-107464000D02*
X42756666Y-103864000D01*
X44556666Y-105664000D02*
X40956666Y-105664000D01*
G04 #@! TO.C,J5*
X28181333Y-84732000D02*
X37181333Y-84732000D01*
X28181333Y-95632000D02*
X37181333Y-95632000D01*
X28181333Y-84732000D02*
X28181333Y-95632000D01*
X37181333Y-84732000D02*
X37181333Y-95632000D01*
X34481333Y-90932000D02*
G75*
G03*
X34481333Y-90932000I-1800000J0D01*
G01*
X32681333Y-89132000D02*
X32681333Y-92732000D01*
X30881333Y-90932000D02*
X34481333Y-90932000D01*
G04 #@! TO.C,J6*
X51032000Y-90932000D02*
X54632000Y-90932000D01*
X52832000Y-89132000D02*
X52832000Y-92732000D01*
X54632000Y-90932000D02*
G75*
G03*
X54632000Y-90932000I-1800000J0D01*
G01*
X57332000Y-84732000D02*
X57332000Y-95632000D01*
X48332000Y-84732000D02*
X48332000Y-95632000D01*
X48332000Y-95632000D02*
X57332000Y-95632000D01*
X48332000Y-84732000D02*
X57332000Y-84732000D01*
G04 #@! TO.C,J7*
X37181333Y-111864000D02*
X28181333Y-111864000D01*
X37181333Y-100964000D02*
X28181333Y-100964000D01*
X37181333Y-111864000D02*
X37181333Y-100964000D01*
X28181333Y-111864000D02*
X28181333Y-100964000D01*
X34481333Y-105664000D02*
G75*
G03*
X34481333Y-105664000I-1800000J0D01*
G01*
X32681333Y-107464000D02*
X32681333Y-103864000D01*
X34481333Y-105664000D02*
X30881333Y-105664000D01*
G04 #@! TO.C,J8*
X54632000Y-105664000D02*
X51032000Y-105664000D01*
X52832000Y-107464000D02*
X52832000Y-103864000D01*
X54632000Y-105664000D02*
G75*
G03*
X54632000Y-105664000I-1800000J0D01*
G01*
X48332000Y-111864000D02*
X48332000Y-100964000D01*
X57332000Y-111864000D02*
X57332000Y-100964000D01*
X57332000Y-100964000D02*
X48332000Y-100964000D01*
X57332000Y-111864000D02*
X48332000Y-111864000D01*
G04 #@! TO.C,RV1*
X47511223Y-23107319D02*
X47511223Y-20567319D01*
X46241223Y-21837319D02*
X48781223Y-21837319D01*
X50686223Y-21837319D02*
G75*
G03*
X50686223Y-21837319I-3175000J0D01*
G01*
X42661223Y-26587319D02*
X54011223Y-26587319D01*
X42661223Y-17087319D02*
X54011223Y-17087319D01*
X54011223Y-26587319D02*
X54011223Y-17087319D01*
X42661223Y-26587319D02*
X42661223Y-17087319D01*
G04 #@! TO.C,RV2*
X22843832Y-26608377D02*
X22843832Y-17108377D01*
X34193832Y-26608377D02*
X34193832Y-17108377D01*
X22843832Y-17108377D02*
X34193832Y-17108377D01*
X22843832Y-26608377D02*
X34193832Y-26608377D01*
X30868832Y-21858377D02*
G75*
G03*
X30868832Y-21858377I-3175000J0D01*
G01*
X26423832Y-21858377D02*
X28963832Y-21858377D01*
X27693832Y-23128377D02*
X27693832Y-20588377D01*
G04 #@! TO.C,RV3*
X22859078Y-47149704D02*
X22859078Y-37649704D01*
X34209078Y-47149704D02*
X34209078Y-37649704D01*
X22859078Y-37649704D02*
X34209078Y-37649704D01*
X22859078Y-47149704D02*
X34209078Y-47149704D01*
X30884078Y-42399704D02*
G75*
G03*
X30884078Y-42399704I-3175000J0D01*
G01*
X26439078Y-42399704D02*
X28979078Y-42399704D01*
X27709078Y-43669704D02*
X27709078Y-41129704D01*
G04 #@! TO.C,RV4*
X47522000Y-43682000D02*
X47522000Y-41142000D01*
X46252000Y-42412000D02*
X48792000Y-42412000D01*
X50697000Y-42412000D02*
G75*
G03*
X50697000Y-42412000I-3175000J0D01*
G01*
X42672000Y-47162000D02*
X54022000Y-47162000D01*
X42672000Y-37662000D02*
X54022000Y-37662000D01*
X54022000Y-47162000D02*
X54022000Y-37662000D01*
X42672000Y-47162000D02*
X42672000Y-37662000D01*
G04 #@! TD*
G04 #@! TO.C,D1*
X34591904Y-18712380D02*
X34591904Y-17712380D01*
X34830000Y-17712380D01*
X34972857Y-17760000D01*
X35068095Y-17855238D01*
X35115714Y-17950476D01*
X35163333Y-18140952D01*
X35163333Y-18283809D01*
X35115714Y-18474285D01*
X35068095Y-18569523D01*
X34972857Y-18664761D01*
X34830000Y-18712380D01*
X34591904Y-18712380D01*
X36115714Y-18712380D02*
X35544285Y-18712380D01*
X35830000Y-18712380D02*
X35830000Y-17712380D01*
X35734761Y-17855238D01*
X35639523Y-17950476D01*
X35544285Y-17998095D01*
G04 #@! TO.C,D2*
X31971904Y-34202380D02*
X31971904Y-33202380D01*
X32210000Y-33202380D01*
X32352857Y-33250000D01*
X32448095Y-33345238D01*
X32495714Y-33440476D01*
X32543333Y-33630952D01*
X32543333Y-33773809D01*
X32495714Y-33964285D01*
X32448095Y-34059523D01*
X32352857Y-34154761D01*
X32210000Y-34202380D01*
X31971904Y-34202380D01*
X32924285Y-33297619D02*
X32971904Y-33250000D01*
X33067142Y-33202380D01*
X33305238Y-33202380D01*
X33400476Y-33250000D01*
X33448095Y-33297619D01*
X33495714Y-33392857D01*
X33495714Y-33488095D01*
X33448095Y-33630952D01*
X32876666Y-34202380D01*
X33495714Y-34202380D01*
G04 #@! TO.C,D3*
X52841904Y-33712380D02*
X52841904Y-32712380D01*
X53080000Y-32712380D01*
X53222857Y-32760000D01*
X53318095Y-32855238D01*
X53365714Y-32950476D01*
X53413333Y-33140952D01*
X53413333Y-33283809D01*
X53365714Y-33474285D01*
X53318095Y-33569523D01*
X53222857Y-33664761D01*
X53080000Y-33712380D01*
X52841904Y-33712380D01*
X53746666Y-32712380D02*
X54365714Y-32712380D01*
X54032380Y-33093333D01*
X54175238Y-33093333D01*
X54270476Y-33140952D01*
X54318095Y-33188571D01*
X54365714Y-33283809D01*
X54365714Y-33521904D01*
X54318095Y-33617142D01*
X54270476Y-33664761D01*
X54175238Y-33712380D01*
X53889523Y-33712380D01*
X53794285Y-33664761D01*
X53746666Y-33617142D01*
G04 #@! TO.C,D4*
X54411904Y-18652380D02*
X54411904Y-17652380D01*
X54650000Y-17652380D01*
X54792857Y-17700000D01*
X54888095Y-17795238D01*
X54935714Y-17890476D01*
X54983333Y-18080952D01*
X54983333Y-18223809D01*
X54935714Y-18414285D01*
X54888095Y-18509523D01*
X54792857Y-18604761D01*
X54650000Y-18652380D01*
X54411904Y-18652380D01*
X55840476Y-17985714D02*
X55840476Y-18652380D01*
X55602380Y-17604761D02*
X55364285Y-18319047D01*
X55983333Y-18319047D01*
G04 #@! TO.C,J1*
X46487332Y-95972380D02*
X46487332Y-96686666D01*
X46439713Y-96829523D01*
X46344475Y-96924761D01*
X46201618Y-96972380D01*
X46106380Y-96972380D01*
X47487332Y-96972380D02*
X46915904Y-96972380D01*
X47201618Y-96972380D02*
X47201618Y-95972380D01*
X47106380Y-96115238D01*
X47011142Y-96210476D01*
X46915904Y-96258095D01*
G04 #@! TO.C,J2*
X26336666Y-95972380D02*
X26336666Y-96686666D01*
X26289047Y-96829523D01*
X26193809Y-96924761D01*
X26050952Y-96972380D01*
X25955714Y-96972380D01*
X26765238Y-96067619D02*
X26812857Y-96020000D01*
X26908095Y-95972380D01*
X27146190Y-95972380D01*
X27241428Y-96020000D01*
X27289047Y-96067619D01*
X27336666Y-96162857D01*
X27336666Y-96258095D01*
X27289047Y-96400952D01*
X26717619Y-96972380D01*
X27336666Y-96972380D01*
G04 #@! TO.C,J3*
X18208666Y-99528380D02*
X18208666Y-100242666D01*
X18161047Y-100385523D01*
X18065809Y-100480761D01*
X17922952Y-100528380D01*
X17827714Y-100528380D01*
X18589619Y-99528380D02*
X19208666Y-99528380D01*
X18875333Y-99909333D01*
X19018190Y-99909333D01*
X19113428Y-99956952D01*
X19161047Y-100004571D01*
X19208666Y-100099809D01*
X19208666Y-100337904D01*
X19161047Y-100433142D01*
X19113428Y-100480761D01*
X19018190Y-100528380D01*
X18732476Y-100528380D01*
X18637238Y-100480761D01*
X18589619Y-100433142D01*
G04 #@! TO.C,J4*
X38359332Y-99528380D02*
X38359332Y-100242666D01*
X38311713Y-100385523D01*
X38216475Y-100480761D01*
X38073618Y-100528380D01*
X37978380Y-100528380D01*
X39264094Y-99861714D02*
X39264094Y-100528380D01*
X39025999Y-99480761D02*
X38787904Y-100195047D01*
X39406951Y-100195047D01*
G04 #@! TO.C,J5*
X36411999Y-95972380D02*
X36411999Y-96686666D01*
X36364380Y-96829523D01*
X36269142Y-96924761D01*
X36126285Y-96972380D01*
X36031047Y-96972380D01*
X37364380Y-95972380D02*
X36888190Y-95972380D01*
X36840571Y-96448571D01*
X36888190Y-96400952D01*
X36983428Y-96353333D01*
X37221523Y-96353333D01*
X37316761Y-96400952D01*
X37364380Y-96448571D01*
X37411999Y-96543809D01*
X37411999Y-96781904D01*
X37364380Y-96877142D01*
X37316761Y-96924761D01*
X37221523Y-96972380D01*
X36983428Y-96972380D01*
X36888190Y-96924761D01*
X36840571Y-96877142D01*
G04 #@! TO.C,J6*
X56562666Y-95972380D02*
X56562666Y-96686666D01*
X56515047Y-96829523D01*
X56419809Y-96924761D01*
X56276952Y-96972380D01*
X56181714Y-96972380D01*
X57467428Y-95972380D02*
X57276952Y-95972380D01*
X57181714Y-96020000D01*
X57134095Y-96067619D01*
X57038857Y-96210476D01*
X56991238Y-96400952D01*
X56991238Y-96781904D01*
X57038857Y-96877142D01*
X57086476Y-96924761D01*
X57181714Y-96972380D01*
X57372190Y-96972380D01*
X57467428Y-96924761D01*
X57515047Y-96877142D01*
X57562666Y-96781904D01*
X57562666Y-96543809D01*
X57515047Y-96448571D01*
X57467428Y-96400952D01*
X57372190Y-96353333D01*
X57181714Y-96353333D01*
X57086476Y-96400952D01*
X57038857Y-96448571D01*
X56991238Y-96543809D01*
G04 #@! TO.C,J7*
X28283999Y-99528380D02*
X28283999Y-100242666D01*
X28236380Y-100385523D01*
X28141142Y-100480761D01*
X27998285Y-100528380D01*
X27903047Y-100528380D01*
X28664952Y-99528380D02*
X29331618Y-99528380D01*
X28903047Y-100528380D01*
G04 #@! TO.C,J8*
X48434666Y-99528380D02*
X48434666Y-100242666D01*
X48387047Y-100385523D01*
X48291809Y-100480761D01*
X48148952Y-100528380D01*
X48053714Y-100528380D01*
X49053714Y-99956952D02*
X48958476Y-99909333D01*
X48910857Y-99861714D01*
X48863238Y-99766476D01*
X48863238Y-99718857D01*
X48910857Y-99623619D01*
X48958476Y-99576000D01*
X49053714Y-99528380D01*
X49244190Y-99528380D01*
X49339428Y-99576000D01*
X49387047Y-99623619D01*
X49434666Y-99718857D01*
X49434666Y-99766476D01*
X49387047Y-99861714D01*
X49339428Y-99909333D01*
X49244190Y-99956952D01*
X49053714Y-99956952D01*
X48958476Y-100004571D01*
X48910857Y-100052190D01*
X48863238Y-100147428D01*
X48863238Y-100337904D01*
X48910857Y-100433142D01*
X48958476Y-100480761D01*
X49053714Y-100528380D01*
X49244190Y-100528380D01*
X49339428Y-100480761D01*
X49387047Y-100433142D01*
X49434666Y-100337904D01*
X49434666Y-100147428D01*
X49387047Y-100052190D01*
X49339428Y-100004571D01*
X49244190Y-99956952D01*
G04 #@! TO.C,RV1*
X57463603Y-22432557D02*
X56987413Y-22765890D01*
X57463603Y-23003985D02*
X56463603Y-23003985D01*
X56463603Y-22623033D01*
X56511223Y-22527795D01*
X56558842Y-22480176D01*
X56654080Y-22432557D01*
X56796937Y-22432557D01*
X56892175Y-22480176D01*
X56939794Y-22527795D01*
X56987413Y-22623033D01*
X56987413Y-23003985D01*
X56463603Y-22146842D02*
X57463603Y-21813509D01*
X56463603Y-21480176D01*
X57463603Y-20623033D02*
X57463603Y-21194461D01*
X57463603Y-20908747D02*
X56463603Y-20908747D01*
X56606461Y-21003985D01*
X56701699Y-21099223D01*
X56749318Y-21194461D01*
G04 #@! TO.C,RV2*
X37646212Y-22453615D02*
X37170022Y-22786948D01*
X37646212Y-23025043D02*
X36646212Y-23025043D01*
X36646212Y-22644091D01*
X36693832Y-22548853D01*
X36741451Y-22501234D01*
X36836689Y-22453615D01*
X36979546Y-22453615D01*
X37074784Y-22501234D01*
X37122403Y-22548853D01*
X37170022Y-22644091D01*
X37170022Y-23025043D01*
X36646212Y-22167900D02*
X37646212Y-21834567D01*
X36646212Y-21501234D01*
X36741451Y-21215519D02*
X36693832Y-21167900D01*
X36646212Y-21072662D01*
X36646212Y-20834567D01*
X36693832Y-20739329D01*
X36741451Y-20691710D01*
X36836689Y-20644091D01*
X36931927Y-20644091D01*
X37074784Y-20691710D01*
X37646212Y-21263138D01*
X37646212Y-20644091D01*
G04 #@! TO.C,RV3*
X37661458Y-42994942D02*
X37185268Y-43328275D01*
X37661458Y-43566370D02*
X36661458Y-43566370D01*
X36661458Y-43185418D01*
X36709078Y-43090180D01*
X36756697Y-43042561D01*
X36851935Y-42994942D01*
X36994792Y-42994942D01*
X37090030Y-43042561D01*
X37137649Y-43090180D01*
X37185268Y-43185418D01*
X37185268Y-43566370D01*
X36661458Y-42709227D02*
X37661458Y-42375894D01*
X36661458Y-42042561D01*
X36661458Y-41804465D02*
X36661458Y-41185418D01*
X37042411Y-41518751D01*
X37042411Y-41375894D01*
X37090030Y-41280656D01*
X37137649Y-41233037D01*
X37232887Y-41185418D01*
X37470982Y-41185418D01*
X37566220Y-41233037D01*
X37613839Y-41280656D01*
X37661458Y-41375894D01*
X37661458Y-41661608D01*
X37613839Y-41756846D01*
X37566220Y-41804465D01*
G04 #@! TO.C,RV4*
X57474380Y-43007238D02*
X56998190Y-43340571D01*
X57474380Y-43578666D02*
X56474380Y-43578666D01*
X56474380Y-43197714D01*
X56522000Y-43102476D01*
X56569619Y-43054857D01*
X56664857Y-43007238D01*
X56807714Y-43007238D01*
X56902952Y-43054857D01*
X56950571Y-43102476D01*
X56998190Y-43197714D01*
X56998190Y-43578666D01*
X56474380Y-42721523D02*
X57474380Y-42388190D01*
X56474380Y-42054857D01*
X56807714Y-41292952D02*
X57474380Y-41292952D01*
X56426761Y-41531047D02*
X57141047Y-41769142D01*
X57141047Y-41150095D01*
G04 #@! TD*
M02*
