G04 #@! TF.GenerationSoftware,KiCad,Pcbnew,(5.1.9)-1*
G04 #@! TF.CreationDate,2021-03-20T12:47:07+00:00*
G04 #@! TF.ProjectId,board v2,626f6172-6420-4763-922e-6b696361645f,rev?*
G04 #@! TF.SameCoordinates,Original*
G04 #@! TF.FileFunction,Legend,Bot*
G04 #@! TF.FilePolarity,Positive*
%FSLAX46Y46*%
G04 Gerber Fmt 4.6, Leading zero omitted, Abs format (unit mm)*
G04 Created by KiCad (PCBNEW (5.1.9)-1) date 2021-03-20 12:47:07*
%MOMM*%
%LPD*%
G01*
G04 APERTURE LIST*
%ADD10C,0.220000*%
G04 #@! TA.AperFunction,Profile*
%ADD11C,0.150000*%
G04 #@! TD*
%ADD12C,0.120000*%
%ADD13C,0.150000*%
G04 APERTURE END LIST*
D10*
X38617857Y-68634523D02*
X38570238Y-68682142D01*
X38522619Y-68825000D01*
X38522619Y-68920238D01*
X38570238Y-69063095D01*
X38665476Y-69158333D01*
X38760714Y-69205952D01*
X38951190Y-69253571D01*
X39094047Y-69253571D01*
X39284523Y-69205952D01*
X39379761Y-69158333D01*
X39475000Y-69063095D01*
X39522619Y-68920238D01*
X39522619Y-68825000D01*
X39475000Y-68682142D01*
X39427380Y-68634523D01*
X38522619Y-68205952D02*
X39522619Y-68205952D01*
X39046428Y-68205952D02*
X39046428Y-67634523D01*
X38522619Y-67634523D02*
X39522619Y-67634523D01*
X38617857Y-67158333D02*
X38570238Y-67110714D01*
X38522619Y-67158333D01*
X38570238Y-67205952D01*
X38617857Y-67158333D01*
X38522619Y-67158333D01*
X39522619Y-66015476D02*
X39522619Y-65396428D01*
X39141666Y-65729761D01*
X39141666Y-65586904D01*
X39094047Y-65491666D01*
X39046428Y-65444047D01*
X38951190Y-65396428D01*
X38713095Y-65396428D01*
X38617857Y-65444047D01*
X38570238Y-65491666D01*
X38522619Y-65586904D01*
X38522619Y-65872619D01*
X38570238Y-65967857D01*
X38617857Y-66015476D01*
X43659523Y-83707142D02*
X43707142Y-83754761D01*
X43850000Y-83802380D01*
X43945238Y-83802380D01*
X44088095Y-83754761D01*
X44183333Y-83659523D01*
X44230952Y-83564285D01*
X44278571Y-83373809D01*
X44278571Y-83230952D01*
X44230952Y-83040476D01*
X44183333Y-82945238D01*
X44088095Y-82850000D01*
X43945238Y-82802380D01*
X43850000Y-82802380D01*
X43707142Y-82850000D01*
X43659523Y-82897619D01*
X43230952Y-83802380D02*
X43230952Y-82802380D01*
X43230952Y-83278571D02*
X42659523Y-83278571D01*
X42659523Y-83802380D02*
X42659523Y-82802380D01*
X42183333Y-83707142D02*
X42135714Y-83754761D01*
X42183333Y-83802380D01*
X42230952Y-83754761D01*
X42183333Y-83707142D01*
X42183333Y-83802380D01*
X40516666Y-83135714D02*
X40516666Y-83802380D01*
X40754761Y-82754761D02*
X40992857Y-83469047D01*
X40373809Y-83469047D01*
X55809523Y-83807142D02*
X55857142Y-83854761D01*
X56000000Y-83902380D01*
X56095238Y-83902380D01*
X56238095Y-83854761D01*
X56333333Y-83759523D01*
X56380952Y-83664285D01*
X56428571Y-83473809D01*
X56428571Y-83330952D01*
X56380952Y-83140476D01*
X56333333Y-83045238D01*
X56238095Y-82950000D01*
X56095238Y-82902380D01*
X56000000Y-82902380D01*
X55857142Y-82950000D01*
X55809523Y-82997619D01*
X55380952Y-83902380D02*
X55380952Y-82902380D01*
X55380952Y-83378571D02*
X54809523Y-83378571D01*
X54809523Y-83902380D02*
X54809523Y-82902380D01*
X54333333Y-83807142D02*
X54285714Y-83854761D01*
X54333333Y-83902380D01*
X54380952Y-83854761D01*
X54333333Y-83807142D01*
X54333333Y-83902380D01*
X53142857Y-82997619D02*
X53095238Y-82950000D01*
X53000000Y-82902380D01*
X52761904Y-82902380D01*
X52666666Y-82950000D01*
X52619047Y-82997619D01*
X52571428Y-83092857D01*
X52571428Y-83188095D01*
X52619047Y-83330952D01*
X53190476Y-83902380D01*
X52571428Y-83902380D01*
X49709523Y-83832142D02*
X49757142Y-83879761D01*
X49900000Y-83927380D01*
X49995238Y-83927380D01*
X50138095Y-83879761D01*
X50233333Y-83784523D01*
X50280952Y-83689285D01*
X50328571Y-83498809D01*
X50328571Y-83355952D01*
X50280952Y-83165476D01*
X50233333Y-83070238D01*
X50138095Y-82975000D01*
X49995238Y-82927380D01*
X49900000Y-82927380D01*
X49757142Y-82975000D01*
X49709523Y-83022619D01*
X49280952Y-83927380D02*
X49280952Y-82927380D01*
X49280952Y-83403571D02*
X48709523Y-83403571D01*
X48709523Y-83927380D02*
X48709523Y-82927380D01*
X48233333Y-83832142D02*
X48185714Y-83879761D01*
X48233333Y-83927380D01*
X48280952Y-83879761D01*
X48233333Y-83832142D01*
X48233333Y-83927380D01*
X46471428Y-83927380D02*
X47042857Y-83927380D01*
X46757142Y-83927380D02*
X46757142Y-82927380D01*
X46852380Y-83070238D01*
X46947619Y-83165476D01*
X47042857Y-83213095D01*
D11*
X57658000Y-12700000D02*
X17780000Y-12700000D01*
X57658000Y-112268000D02*
X57658000Y-12700000D01*
X17780000Y-112268000D02*
X57658000Y-112268000D01*
X17780000Y-12700000D02*
X17780000Y-112268000D01*
D12*
G04 #@! TO.C,U4*
X39646000Y-100402000D02*
X36046000Y-100402000D01*
X36037555Y-100379684D02*
G75*
G02*
X37066000Y-96102000I1808445J1827684D01*
G01*
X39657875Y-100393741D02*
G75*
G03*
X38666000Y-96102000I-1811875J1841741D01*
G01*
G04 #@! TO.C,C1*
X34551252Y-69290000D02*
X34028748Y-69290000D01*
X34551252Y-70710000D02*
X34028748Y-70710000D01*
G04 #@! TO.C,C2*
X20798748Y-78090000D02*
X21321252Y-78090000D01*
X20798748Y-76670000D02*
X21321252Y-76670000D01*
G04 #@! TO.C,C3*
X34615252Y-50492000D02*
X34092748Y-50492000D01*
X34615252Y-51912000D02*
X34092748Y-51912000D01*
G04 #@! TO.C,C4*
X21138748Y-59850000D02*
X21661252Y-59850000D01*
X21138748Y-61270000D02*
X21661252Y-61270000D01*
G04 #@! TO.C,C5*
X34561252Y-78040000D02*
X34038748Y-78040000D01*
X34561252Y-79460000D02*
X34038748Y-79460000D01*
G04 #@! TO.C,C6*
X20795748Y-73285000D02*
X21318252Y-73285000D01*
X20795748Y-71865000D02*
X21318252Y-71865000D01*
G04 #@! TO.C,C7*
X34590252Y-61285000D02*
X34067748Y-61285000D01*
X34590252Y-59865000D02*
X34067748Y-59865000D01*
G04 #@! TO.C,C8*
X21138748Y-55278000D02*
X21661252Y-55278000D01*
X21138748Y-56698000D02*
X21661252Y-56698000D01*
G04 #@! TO.C,C9*
X35044748Y-31698000D02*
X35567252Y-31698000D01*
X35044748Y-30278000D02*
X35567252Y-30278000D01*
G04 #@! TO.C,C10*
X48531748Y-31765000D02*
X49054252Y-31765000D01*
X48531748Y-33185000D02*
X49054252Y-33185000D01*
G04 #@! TO.C,C11*
X20795748Y-75585000D02*
X21318252Y-75585000D01*
X20795748Y-74165000D02*
X21318252Y-74165000D01*
G04 #@! TO.C,C12*
X34037748Y-73490000D02*
X34560252Y-73490000D01*
X34037748Y-74910000D02*
X34560252Y-74910000D01*
G04 #@! TO.C,C14*
X21138748Y-58984000D02*
X21661252Y-58984000D01*
X21138748Y-57564000D02*
X21661252Y-57564000D01*
G04 #@! TO.C,C15*
X34092748Y-55064000D02*
X34615252Y-55064000D01*
X34092748Y-56484000D02*
X34615252Y-56484000D01*
G04 #@! TO.C,C16*
X37330748Y-92508000D02*
X37853252Y-92508000D01*
X37330748Y-93928000D02*
X37853252Y-93928000D01*
G04 #@! TO.C,D5*
X27866000Y-28756000D02*
X27866000Y-31696000D01*
X27866000Y-31696000D02*
X22426000Y-31696000D01*
X22426000Y-31696000D02*
X22426000Y-28756000D01*
X22426000Y-28756000D02*
X27866000Y-28756000D01*
X28886000Y-30226000D02*
X27866000Y-30226000D01*
X21406000Y-30226000D02*
X22426000Y-30226000D01*
X26966000Y-28756000D02*
X26966000Y-31696000D01*
X26846000Y-28756000D02*
X26846000Y-31696000D01*
X27086000Y-28756000D02*
X27086000Y-31696000D01*
G04 #@! TO.C,D6*
X38590000Y-17790000D02*
X41530000Y-17790000D01*
X38590000Y-18030000D02*
X41530000Y-18030000D01*
X38590000Y-17910000D02*
X41530000Y-17910000D01*
X40060000Y-23470000D02*
X40060000Y-22450000D01*
X40060000Y-15990000D02*
X40060000Y-17010000D01*
X38590000Y-22450000D02*
X38590000Y-17010000D01*
X41530000Y-22450000D02*
X38590000Y-22450000D01*
X41530000Y-17010000D02*
X41530000Y-22450000D01*
X38590000Y-17010000D02*
X41530000Y-17010000D01*
G04 #@! TO.C,F1*
X39230000Y-53830000D02*
X39230000Y-56570000D01*
X46970000Y-53830000D02*
X46970000Y-56570000D01*
X46970000Y-56570000D02*
X39230000Y-56570000D01*
X46970000Y-53830000D02*
X39230000Y-53830000D01*
G04 #@! TO.C,F2*
X39330000Y-60070000D02*
X47070000Y-60070000D01*
X39330000Y-57330000D02*
X47070000Y-57330000D01*
X39330000Y-60070000D02*
X39330000Y-57330000D01*
X47070000Y-60070000D02*
X47070000Y-57330000D01*
D13*
G04 #@! TO.C,J9*
X57450000Y-56880000D02*
X57450000Y-61960000D01*
X54910000Y-56880000D02*
X57450000Y-56880000D01*
X54910000Y-61960000D02*
X54910000Y-56880000D01*
X56180000Y-61960000D02*
X54910000Y-61960000D01*
X57450000Y-61960000D02*
X56180000Y-61960000D01*
X47290000Y-54340000D02*
X43480000Y-54340000D01*
X57450000Y-54340000D02*
X59990000Y-54340000D01*
D12*
X47445000Y-70100000D02*
X49985000Y-70100000D01*
X47445000Y-70100000D02*
X47445000Y-67560000D01*
X47695000Y-69850000D02*
X57045000Y-69850000D01*
X47695000Y-48990000D02*
X47695000Y-69850000D01*
X57045000Y-48990000D02*
X47695000Y-48990000D01*
X57045000Y-69850000D02*
X57045000Y-48990000D01*
G04 #@! TO.C,R1*
X35536252Y-27640000D02*
X35013748Y-27640000D01*
X35536252Y-29060000D02*
X35013748Y-29060000D01*
G04 #@! TO.C,R2*
X28440748Y-88340000D02*
X28963252Y-88340000D01*
X28440748Y-86920000D02*
X28963252Y-86920000D01*
G04 #@! TO.C,R3*
X35567252Y-32564000D02*
X35044748Y-32564000D01*
X35567252Y-33984000D02*
X35044748Y-33984000D01*
G04 #@! TO.C,R4*
X36060748Y-109422000D02*
X36583252Y-109422000D01*
X36060748Y-108002000D02*
X36583252Y-108002000D01*
G04 #@! TO.C,R5*
X31242580Y-23688377D02*
X31765084Y-23688377D01*
X31242580Y-25108377D02*
X31765084Y-25108377D01*
G04 #@! TO.C,R6*
X51322971Y-25087319D02*
X51845475Y-25087319D01*
X51322971Y-23667319D02*
X51845475Y-23667319D01*
G04 #@! TO.C,R7*
X28440748Y-92912000D02*
X28963252Y-92912000D01*
X28440748Y-91492000D02*
X28963252Y-91492000D01*
G04 #@! TO.C,R8*
X31248826Y-45141704D02*
X31771330Y-45141704D01*
X31248826Y-43721704D02*
X31771330Y-43721704D01*
G04 #@! TO.C,R9*
X49014748Y-90984000D02*
X49537252Y-90984000D01*
X49014748Y-92404000D02*
X49537252Y-92404000D01*
G04 #@! TO.C,R10*
X49249748Y-45307000D02*
X49772252Y-45307000D01*
X49249748Y-43887000D02*
X49772252Y-43887000D01*
G04 #@! TO.C,R11*
X36611252Y-104460000D02*
X36088748Y-104460000D01*
X36611252Y-103040000D02*
X36088748Y-103040000D01*
G04 #@! TO.C,R12*
X28963252Y-90626000D02*
X28440748Y-90626000D01*
X28963252Y-89206000D02*
X28440748Y-89206000D01*
G04 #@! TO.C,R13*
X36583252Y-107136000D02*
X36060748Y-107136000D01*
X36583252Y-105716000D02*
X36060748Y-105716000D01*
G04 #@! TO.C,R14*
X34561252Y-72810000D02*
X34038748Y-72810000D01*
X34561252Y-71390000D02*
X34038748Y-71390000D01*
G04 #@! TO.C,R15*
X20878748Y-78900000D02*
X21401252Y-78900000D01*
X20878748Y-80320000D02*
X21401252Y-80320000D01*
G04 #@! TO.C,R16*
X34611252Y-52540000D02*
X34088748Y-52540000D01*
X34611252Y-53960000D02*
X34088748Y-53960000D01*
G04 #@! TO.C,R17*
X21138748Y-62136000D02*
X21661252Y-62136000D01*
X21138748Y-63556000D02*
X21661252Y-63556000D01*
G04 #@! TO.C,R18*
X48531748Y-34051000D02*
X49054252Y-34051000D01*
X48531748Y-35471000D02*
X49054252Y-35471000D01*
G04 #@! TO.C,R19*
X52316748Y-106732000D02*
X52839252Y-106732000D01*
X52316748Y-108152000D02*
X52839252Y-108152000D01*
G04 #@! TO.C,R20*
X48538748Y-28565000D02*
X49061252Y-28565000D01*
X48538748Y-29985000D02*
X49061252Y-29985000D01*
G04 #@! TO.C,R21*
X49528252Y-87832000D02*
X49005748Y-87832000D01*
X49528252Y-86412000D02*
X49005748Y-86412000D01*
G04 #@! TO.C,R22*
X31233580Y-20894377D02*
X31756084Y-20894377D01*
X31233580Y-22314377D02*
X31756084Y-22314377D01*
G04 #@! TO.C,R23*
X34028748Y-76992000D02*
X34551252Y-76992000D01*
X34028748Y-75572000D02*
X34551252Y-75572000D01*
G04 #@! TO.C,R24*
X51313971Y-20873319D02*
X51836475Y-20873319D01*
X51313971Y-22293319D02*
X51836475Y-22293319D01*
G04 #@! TO.C,R25*
X20820748Y-80990000D02*
X21343252Y-80990000D01*
X20820748Y-82410000D02*
X21343252Y-82410000D01*
G04 #@! TO.C,R26*
X31257826Y-42601704D02*
X31780330Y-42601704D01*
X31257826Y-41181704D02*
X31780330Y-41181704D01*
G04 #@! TO.C,R27*
X34067748Y-57675000D02*
X34590252Y-57675000D01*
X34067748Y-59095000D02*
X34590252Y-59095000D01*
G04 #@! TO.C,R28*
X49249748Y-41601000D02*
X49772252Y-41601000D01*
X49249748Y-43021000D02*
X49772252Y-43021000D01*
G04 #@! TO.C,R29*
X21138748Y-65842000D02*
X21661252Y-65842000D01*
X21138748Y-64422000D02*
X21661252Y-64422000D01*
G04 #@! TO.C,R30*
X52839252Y-104446000D02*
X52316748Y-104446000D01*
X52839252Y-105866000D02*
X52316748Y-105866000D01*
G04 #@! TO.C,R31*
X49537252Y-88698000D02*
X49014748Y-88698000D01*
X49537252Y-90118000D02*
X49014748Y-90118000D01*
G04 #@! TO.C,R32*
X34526252Y-83610000D02*
X34003748Y-83610000D01*
X34526252Y-82190000D02*
X34003748Y-82190000D01*
G04 #@! TO.C,R33*
X20795748Y-69085000D02*
X21318252Y-69085000D01*
X20795748Y-67665000D02*
X21318252Y-67665000D01*
G04 #@! TO.C,R34*
X34590252Y-65953000D02*
X34067748Y-65953000D01*
X34590252Y-64533000D02*
X34067748Y-64533000D01*
G04 #@! TO.C,R35*
X21138748Y-50706000D02*
X21661252Y-50706000D01*
X21138748Y-52126000D02*
X21661252Y-52126000D01*
G04 #@! TO.C,R36*
X34561252Y-80090000D02*
X34038748Y-80090000D01*
X34561252Y-81510000D02*
X34038748Y-81510000D01*
G04 #@! TO.C,R37*
X20795748Y-71185000D02*
X21318252Y-71185000D01*
X20795748Y-69765000D02*
X21318252Y-69765000D01*
G04 #@! TO.C,R38*
X34586252Y-62090000D02*
X34063748Y-62090000D01*
X34586252Y-63510000D02*
X34063748Y-63510000D01*
G04 #@! TO.C,R39*
X21138748Y-54412000D02*
X21661252Y-54412000D01*
X21138748Y-52992000D02*
X21661252Y-52992000D01*
D13*
G04 #@! TO.C,U1*
X40089000Y-36200000D02*
X40089000Y-36175000D01*
X44239000Y-36200000D02*
X44239000Y-36085000D01*
X44239000Y-27300000D02*
X44239000Y-27415000D01*
X40089000Y-27300000D02*
X40089000Y-27415000D01*
X40089000Y-36200000D02*
X44239000Y-36200000D01*
X40089000Y-27300000D02*
X44239000Y-27300000D01*
X40089000Y-36175000D02*
X38714000Y-36175000D01*
G04 #@! TO.C,U2*
X25611000Y-80199000D02*
X24236000Y-80199000D01*
X25611000Y-71324000D02*
X29761000Y-71324000D01*
X25611000Y-80224000D02*
X29761000Y-80224000D01*
X25611000Y-71324000D02*
X25611000Y-71439000D01*
X29761000Y-71324000D02*
X29761000Y-71439000D01*
X29761000Y-80224000D02*
X29761000Y-80109000D01*
X25611000Y-80224000D02*
X25611000Y-80199000D01*
G04 #@! TO.C,U3*
X25675000Y-62445000D02*
X24300000Y-62445000D01*
X25675000Y-53570000D02*
X29825000Y-53570000D01*
X25675000Y-62470000D02*
X29825000Y-62470000D01*
X25675000Y-53570000D02*
X25675000Y-53685000D01*
X29825000Y-53570000D02*
X29825000Y-53685000D01*
X29825000Y-62470000D02*
X29825000Y-62355000D01*
X25675000Y-62470000D02*
X25675000Y-62445000D01*
D12*
G04 #@! TO.C,RV5*
X45970000Y-82445000D02*
X51040000Y-82445000D01*
X45970000Y-72675000D02*
X51040000Y-72675000D01*
X51040000Y-72675000D02*
X51040000Y-82445000D01*
X45970000Y-72675000D02*
X45970000Y-82445000D01*
G04 #@! TO.C,RV6*
X52095000Y-82545000D02*
X57165000Y-82545000D01*
X52095000Y-72775000D02*
X57165000Y-72775000D01*
X57165000Y-72775000D02*
X57165000Y-82545000D01*
X52095000Y-72775000D02*
X52095000Y-82545000D01*
G04 #@! TO.C,RV7*
X39970000Y-61575000D02*
X39970000Y-71345000D01*
X45040000Y-61575000D02*
X45040000Y-71345000D01*
X39970000Y-61575000D02*
X45040000Y-61575000D01*
X39970000Y-71345000D02*
X45040000Y-71345000D01*
G04 #@! TO.C,RV8*
X39970000Y-72575000D02*
X39970000Y-82345000D01*
X45040000Y-72575000D02*
X45040000Y-82345000D01*
X39970000Y-72575000D02*
X45040000Y-72575000D01*
X39970000Y-82345000D02*
X45040000Y-82345000D01*
G04 #@! TO.C,C13*
X45345225Y-99825000D02*
X45345225Y-99325000D01*
X45095225Y-99575000D02*
X45595225Y-99575000D01*
X50501000Y-98384000D02*
X50501000Y-97816000D01*
X50461000Y-98618000D02*
X50461000Y-97582000D01*
X50421000Y-98777000D02*
X50421000Y-97423000D01*
X50381000Y-98905000D02*
X50381000Y-97295000D01*
X50341000Y-99015000D02*
X50341000Y-97185000D01*
X50301000Y-99111000D02*
X50301000Y-97089000D01*
X50261000Y-99198000D02*
X50261000Y-97002000D01*
X50221000Y-99278000D02*
X50221000Y-96922000D01*
X50181000Y-99351000D02*
X50181000Y-96849000D01*
X50141000Y-99419000D02*
X50141000Y-96781000D01*
X50101000Y-99483000D02*
X50101000Y-96717000D01*
X50061000Y-99543000D02*
X50061000Y-96657000D01*
X50021000Y-99600000D02*
X50021000Y-96600000D01*
X49981000Y-99654000D02*
X49981000Y-96546000D01*
X49941000Y-99705000D02*
X49941000Y-96495000D01*
X49901000Y-97060000D02*
X49901000Y-96447000D01*
X49901000Y-99753000D02*
X49901000Y-99140000D01*
X49861000Y-97060000D02*
X49861000Y-96401000D01*
X49861000Y-99799000D02*
X49861000Y-99140000D01*
X49821000Y-97060000D02*
X49821000Y-96357000D01*
X49821000Y-99843000D02*
X49821000Y-99140000D01*
X49781000Y-97060000D02*
X49781000Y-96315000D01*
X49781000Y-99885000D02*
X49781000Y-99140000D01*
X49741000Y-97060000D02*
X49741000Y-96274000D01*
X49741000Y-99926000D02*
X49741000Y-99140000D01*
X49701000Y-97060000D02*
X49701000Y-96236000D01*
X49701000Y-99964000D02*
X49701000Y-99140000D01*
X49661000Y-97060000D02*
X49661000Y-96199000D01*
X49661000Y-100001000D02*
X49661000Y-99140000D01*
X49621000Y-97060000D02*
X49621000Y-96163000D01*
X49621000Y-100037000D02*
X49621000Y-99140000D01*
X49581000Y-97060000D02*
X49581000Y-96129000D01*
X49581000Y-100071000D02*
X49581000Y-99140000D01*
X49541000Y-97060000D02*
X49541000Y-96096000D01*
X49541000Y-100104000D02*
X49541000Y-99140000D01*
X49501000Y-97060000D02*
X49501000Y-96065000D01*
X49501000Y-100135000D02*
X49501000Y-99140000D01*
X49461000Y-97060000D02*
X49461000Y-96035000D01*
X49461000Y-100165000D02*
X49461000Y-99140000D01*
X49421000Y-97060000D02*
X49421000Y-96005000D01*
X49421000Y-100195000D02*
X49421000Y-99140000D01*
X49381000Y-97060000D02*
X49381000Y-95978000D01*
X49381000Y-100222000D02*
X49381000Y-99140000D01*
X49341000Y-97060000D02*
X49341000Y-95951000D01*
X49341000Y-100249000D02*
X49341000Y-99140000D01*
X49301000Y-97060000D02*
X49301000Y-95925000D01*
X49301000Y-100275000D02*
X49301000Y-99140000D01*
X49261000Y-97060000D02*
X49261000Y-95900000D01*
X49261000Y-100300000D02*
X49261000Y-99140000D01*
X49221000Y-97060000D02*
X49221000Y-95876000D01*
X49221000Y-100324000D02*
X49221000Y-99140000D01*
X49181000Y-97060000D02*
X49181000Y-95853000D01*
X49181000Y-100347000D02*
X49181000Y-99140000D01*
X49141000Y-97060000D02*
X49141000Y-95832000D01*
X49141000Y-100368000D02*
X49141000Y-99140000D01*
X49101000Y-97060000D02*
X49101000Y-95810000D01*
X49101000Y-100390000D02*
X49101000Y-99140000D01*
X49061000Y-97060000D02*
X49061000Y-95790000D01*
X49061000Y-100410000D02*
X49061000Y-99140000D01*
X49021000Y-97060000D02*
X49021000Y-95771000D01*
X49021000Y-100429000D02*
X49021000Y-99140000D01*
X48981000Y-97060000D02*
X48981000Y-95752000D01*
X48981000Y-100448000D02*
X48981000Y-99140000D01*
X48941000Y-97060000D02*
X48941000Y-95735000D01*
X48941000Y-100465000D02*
X48941000Y-99140000D01*
X48901000Y-97060000D02*
X48901000Y-95718000D01*
X48901000Y-100482000D02*
X48901000Y-99140000D01*
X48861000Y-97060000D02*
X48861000Y-95702000D01*
X48861000Y-100498000D02*
X48861000Y-99140000D01*
X48821000Y-97060000D02*
X48821000Y-95686000D01*
X48821000Y-100514000D02*
X48821000Y-99140000D01*
X48781000Y-97060000D02*
X48781000Y-95672000D01*
X48781000Y-100528000D02*
X48781000Y-99140000D01*
X48741000Y-97060000D02*
X48741000Y-95658000D01*
X48741000Y-100542000D02*
X48741000Y-99140000D01*
X48701000Y-97060000D02*
X48701000Y-95645000D01*
X48701000Y-100555000D02*
X48701000Y-99140000D01*
X48661000Y-97060000D02*
X48661000Y-95632000D01*
X48661000Y-100568000D02*
X48661000Y-99140000D01*
X48621000Y-97060000D02*
X48621000Y-95620000D01*
X48621000Y-100580000D02*
X48621000Y-99140000D01*
X48580000Y-97060000D02*
X48580000Y-95609000D01*
X48580000Y-100591000D02*
X48580000Y-99140000D01*
X48540000Y-97060000D02*
X48540000Y-95599000D01*
X48540000Y-100601000D02*
X48540000Y-99140000D01*
X48500000Y-97060000D02*
X48500000Y-95589000D01*
X48500000Y-100611000D02*
X48500000Y-99140000D01*
X48460000Y-97060000D02*
X48460000Y-95580000D01*
X48460000Y-100620000D02*
X48460000Y-99140000D01*
X48420000Y-97060000D02*
X48420000Y-95572000D01*
X48420000Y-100628000D02*
X48420000Y-99140000D01*
X48380000Y-97060000D02*
X48380000Y-95564000D01*
X48380000Y-100636000D02*
X48380000Y-99140000D01*
X48340000Y-97060000D02*
X48340000Y-95557000D01*
X48340000Y-100643000D02*
X48340000Y-99140000D01*
X48300000Y-97060000D02*
X48300000Y-95550000D01*
X48300000Y-100650000D02*
X48300000Y-99140000D01*
X48260000Y-97060000D02*
X48260000Y-95544000D01*
X48260000Y-100656000D02*
X48260000Y-99140000D01*
X48220000Y-97060000D02*
X48220000Y-95539000D01*
X48220000Y-100661000D02*
X48220000Y-99140000D01*
X48180000Y-97060000D02*
X48180000Y-95535000D01*
X48180000Y-100665000D02*
X48180000Y-99140000D01*
X48140000Y-97060000D02*
X48140000Y-95531000D01*
X48140000Y-100669000D02*
X48140000Y-99140000D01*
X48100000Y-97060000D02*
X48100000Y-95527000D01*
X48100000Y-100673000D02*
X48100000Y-99140000D01*
X48060000Y-97060000D02*
X48060000Y-95524000D01*
X48060000Y-100676000D02*
X48060000Y-99140000D01*
X48020000Y-97060000D02*
X48020000Y-95522000D01*
X48020000Y-100678000D02*
X48020000Y-99140000D01*
X47980000Y-97060000D02*
X47980000Y-95521000D01*
X47980000Y-100679000D02*
X47980000Y-99140000D01*
X47940000Y-100680000D02*
X47940000Y-99140000D01*
X47940000Y-97060000D02*
X47940000Y-95520000D01*
X47900000Y-100680000D02*
X47900000Y-99140000D01*
X47900000Y-97060000D02*
X47900000Y-95520000D01*
X50520000Y-98100000D02*
G75*
G03*
X50520000Y-98100000I-2620000J0D01*
G01*
G04 #@! TO.C,C17*
X21006000Y-37644759D02*
X21636000Y-37644759D01*
X21321000Y-37329759D02*
X21321000Y-37959759D01*
X22758000Y-44071000D02*
X23562000Y-44071000D01*
X22527000Y-44031000D02*
X23793000Y-44031000D01*
X22358000Y-43991000D02*
X23962000Y-43991000D01*
X22220000Y-43951000D02*
X24100000Y-43951000D01*
X22101000Y-43911000D02*
X24219000Y-43911000D01*
X21995000Y-43871000D02*
X24325000Y-43871000D01*
X21898000Y-43831000D02*
X24422000Y-43831000D01*
X21810000Y-43791000D02*
X24510000Y-43791000D01*
X21728000Y-43751000D02*
X24592000Y-43751000D01*
X21651000Y-43711000D02*
X24669000Y-43711000D01*
X21579000Y-43671000D02*
X24741000Y-43671000D01*
X21510000Y-43631000D02*
X24810000Y-43631000D01*
X21446000Y-43591000D02*
X24874000Y-43591000D01*
X21384000Y-43551000D02*
X24936000Y-43551000D01*
X21326000Y-43511000D02*
X24994000Y-43511000D01*
X21270000Y-43471000D02*
X25050000Y-43471000D01*
X21216000Y-43431000D02*
X25104000Y-43431000D01*
X21165000Y-43391000D02*
X25155000Y-43391000D01*
X21116000Y-43351000D02*
X25204000Y-43351000D01*
X21068000Y-43311000D02*
X25252000Y-43311000D01*
X21023000Y-43271000D02*
X25297000Y-43271000D01*
X20978000Y-43231000D02*
X25342000Y-43231000D01*
X20936000Y-43191000D02*
X25384000Y-43191000D01*
X20895000Y-43151000D02*
X25425000Y-43151000D01*
X24200000Y-43111000D02*
X25465000Y-43111000D01*
X20855000Y-43111000D02*
X22120000Y-43111000D01*
X24200000Y-43071000D02*
X25503000Y-43071000D01*
X20817000Y-43071000D02*
X22120000Y-43071000D01*
X24200000Y-43031000D02*
X25540000Y-43031000D01*
X20780000Y-43031000D02*
X22120000Y-43031000D01*
X24200000Y-42991000D02*
X25576000Y-42991000D01*
X20744000Y-42991000D02*
X22120000Y-42991000D01*
X24200000Y-42951000D02*
X25610000Y-42951000D01*
X20710000Y-42951000D02*
X22120000Y-42951000D01*
X24200000Y-42911000D02*
X25644000Y-42911000D01*
X20676000Y-42911000D02*
X22120000Y-42911000D01*
X24200000Y-42871000D02*
X25676000Y-42871000D01*
X20644000Y-42871000D02*
X22120000Y-42871000D01*
X24200000Y-42831000D02*
X25708000Y-42831000D01*
X20612000Y-42831000D02*
X22120000Y-42831000D01*
X24200000Y-42791000D02*
X25738000Y-42791000D01*
X20582000Y-42791000D02*
X22120000Y-42791000D01*
X24200000Y-42751000D02*
X25767000Y-42751000D01*
X20553000Y-42751000D02*
X22120000Y-42751000D01*
X24200000Y-42711000D02*
X25796000Y-42711000D01*
X20524000Y-42711000D02*
X22120000Y-42711000D01*
X24200000Y-42671000D02*
X25824000Y-42671000D01*
X20496000Y-42671000D02*
X22120000Y-42671000D01*
X24200000Y-42631000D02*
X25850000Y-42631000D01*
X20470000Y-42631000D02*
X22120000Y-42631000D01*
X24200000Y-42591000D02*
X25876000Y-42591000D01*
X20444000Y-42591000D02*
X22120000Y-42591000D01*
X24200000Y-42551000D02*
X25902000Y-42551000D01*
X20418000Y-42551000D02*
X22120000Y-42551000D01*
X24200000Y-42511000D02*
X25926000Y-42511000D01*
X20394000Y-42511000D02*
X22120000Y-42511000D01*
X24200000Y-42471000D02*
X25950000Y-42471000D01*
X20370000Y-42471000D02*
X22120000Y-42471000D01*
X24200000Y-42431000D02*
X25972000Y-42431000D01*
X20348000Y-42431000D02*
X22120000Y-42431000D01*
X24200000Y-42391000D02*
X25994000Y-42391000D01*
X20326000Y-42391000D02*
X22120000Y-42391000D01*
X24200000Y-42351000D02*
X26016000Y-42351000D01*
X20304000Y-42351000D02*
X22120000Y-42351000D01*
X24200000Y-42311000D02*
X26036000Y-42311000D01*
X20284000Y-42311000D02*
X22120000Y-42311000D01*
X24200000Y-42271000D02*
X26056000Y-42271000D01*
X20264000Y-42271000D02*
X22120000Y-42271000D01*
X24200000Y-42231000D02*
X26076000Y-42231000D01*
X20244000Y-42231000D02*
X22120000Y-42231000D01*
X24200000Y-42191000D02*
X26094000Y-42191000D01*
X20226000Y-42191000D02*
X22120000Y-42191000D01*
X24200000Y-42151000D02*
X26112000Y-42151000D01*
X20208000Y-42151000D02*
X22120000Y-42151000D01*
X24200000Y-42111000D02*
X26130000Y-42111000D01*
X20190000Y-42111000D02*
X22120000Y-42111000D01*
X24200000Y-42071000D02*
X26146000Y-42071000D01*
X20174000Y-42071000D02*
X22120000Y-42071000D01*
X24200000Y-42031000D02*
X26162000Y-42031000D01*
X20158000Y-42031000D02*
X22120000Y-42031000D01*
X24200000Y-41991000D02*
X26178000Y-41991000D01*
X20142000Y-41991000D02*
X22120000Y-41991000D01*
X24200000Y-41951000D02*
X26193000Y-41951000D01*
X20127000Y-41951000D02*
X22120000Y-41951000D01*
X24200000Y-41911000D02*
X26207000Y-41911000D01*
X20113000Y-41911000D02*
X22120000Y-41911000D01*
X24200000Y-41871000D02*
X26221000Y-41871000D01*
X20099000Y-41871000D02*
X22120000Y-41871000D01*
X24200000Y-41831000D02*
X26234000Y-41831000D01*
X20086000Y-41831000D02*
X22120000Y-41831000D01*
X24200000Y-41791000D02*
X26246000Y-41791000D01*
X20074000Y-41791000D02*
X22120000Y-41791000D01*
X24200000Y-41751000D02*
X26258000Y-41751000D01*
X20062000Y-41751000D02*
X22120000Y-41751000D01*
X24200000Y-41711000D02*
X26270000Y-41711000D01*
X20050000Y-41711000D02*
X22120000Y-41711000D01*
X24200000Y-41671000D02*
X26281000Y-41671000D01*
X20039000Y-41671000D02*
X22120000Y-41671000D01*
X24200000Y-41631000D02*
X26291000Y-41631000D01*
X20029000Y-41631000D02*
X22120000Y-41631000D01*
X24200000Y-41591000D02*
X26301000Y-41591000D01*
X20019000Y-41591000D02*
X22120000Y-41591000D01*
X24200000Y-41551000D02*
X26310000Y-41551000D01*
X20010000Y-41551000D02*
X22120000Y-41551000D01*
X24200000Y-41510000D02*
X26319000Y-41510000D01*
X20001000Y-41510000D02*
X22120000Y-41510000D01*
X24200000Y-41470000D02*
X26327000Y-41470000D01*
X19993000Y-41470000D02*
X22120000Y-41470000D01*
X24200000Y-41430000D02*
X26335000Y-41430000D01*
X19985000Y-41430000D02*
X22120000Y-41430000D01*
X24200000Y-41390000D02*
X26342000Y-41390000D01*
X19978000Y-41390000D02*
X22120000Y-41390000D01*
X24200000Y-41350000D02*
X26349000Y-41350000D01*
X19971000Y-41350000D02*
X22120000Y-41350000D01*
X24200000Y-41310000D02*
X26355000Y-41310000D01*
X19965000Y-41310000D02*
X22120000Y-41310000D01*
X24200000Y-41270000D02*
X26361000Y-41270000D01*
X19959000Y-41270000D02*
X22120000Y-41270000D01*
X24200000Y-41230000D02*
X26366000Y-41230000D01*
X19954000Y-41230000D02*
X22120000Y-41230000D01*
X24200000Y-41190000D02*
X26371000Y-41190000D01*
X19949000Y-41190000D02*
X22120000Y-41190000D01*
X24200000Y-41150000D02*
X26375000Y-41150000D01*
X19945000Y-41150000D02*
X22120000Y-41150000D01*
X24200000Y-41110000D02*
X26378000Y-41110000D01*
X19942000Y-41110000D02*
X22120000Y-41110000D01*
X24200000Y-41070000D02*
X26382000Y-41070000D01*
X19938000Y-41070000D02*
X22120000Y-41070000D01*
X19936000Y-41030000D02*
X26384000Y-41030000D01*
X19933000Y-40990000D02*
X26387000Y-40990000D01*
X19932000Y-40950000D02*
X26388000Y-40950000D01*
X19930000Y-40910000D02*
X26390000Y-40910000D01*
X19930000Y-40870000D02*
X26390000Y-40870000D01*
X19930000Y-40830000D02*
X26390000Y-40830000D01*
X26430000Y-40830000D02*
G75*
G03*
X26430000Y-40830000I-3270000J0D01*
G01*
G04 #@! TO.C,C18*
X44290000Y-44100000D02*
G75*
G03*
X44290000Y-44100000I-3270000J0D01*
G01*
X37790000Y-44100000D02*
X44250000Y-44100000D01*
X37790000Y-44140000D02*
X44250000Y-44140000D01*
X37790000Y-44180000D02*
X44250000Y-44180000D01*
X37792000Y-44220000D02*
X44248000Y-44220000D01*
X37793000Y-44260000D02*
X44247000Y-44260000D01*
X37796000Y-44300000D02*
X44244000Y-44300000D01*
X37798000Y-44340000D02*
X39980000Y-44340000D01*
X42060000Y-44340000D02*
X44242000Y-44340000D01*
X37802000Y-44380000D02*
X39980000Y-44380000D01*
X42060000Y-44380000D02*
X44238000Y-44380000D01*
X37805000Y-44420000D02*
X39980000Y-44420000D01*
X42060000Y-44420000D02*
X44235000Y-44420000D01*
X37809000Y-44460000D02*
X39980000Y-44460000D01*
X42060000Y-44460000D02*
X44231000Y-44460000D01*
X37814000Y-44500000D02*
X39980000Y-44500000D01*
X42060000Y-44500000D02*
X44226000Y-44500000D01*
X37819000Y-44540000D02*
X39980000Y-44540000D01*
X42060000Y-44540000D02*
X44221000Y-44540000D01*
X37825000Y-44580000D02*
X39980000Y-44580000D01*
X42060000Y-44580000D02*
X44215000Y-44580000D01*
X37831000Y-44620000D02*
X39980000Y-44620000D01*
X42060000Y-44620000D02*
X44209000Y-44620000D01*
X37838000Y-44660000D02*
X39980000Y-44660000D01*
X42060000Y-44660000D02*
X44202000Y-44660000D01*
X37845000Y-44700000D02*
X39980000Y-44700000D01*
X42060000Y-44700000D02*
X44195000Y-44700000D01*
X37853000Y-44740000D02*
X39980000Y-44740000D01*
X42060000Y-44740000D02*
X44187000Y-44740000D01*
X37861000Y-44780000D02*
X39980000Y-44780000D01*
X42060000Y-44780000D02*
X44179000Y-44780000D01*
X37870000Y-44821000D02*
X39980000Y-44821000D01*
X42060000Y-44821000D02*
X44170000Y-44821000D01*
X37879000Y-44861000D02*
X39980000Y-44861000D01*
X42060000Y-44861000D02*
X44161000Y-44861000D01*
X37889000Y-44901000D02*
X39980000Y-44901000D01*
X42060000Y-44901000D02*
X44151000Y-44901000D01*
X37899000Y-44941000D02*
X39980000Y-44941000D01*
X42060000Y-44941000D02*
X44141000Y-44941000D01*
X37910000Y-44981000D02*
X39980000Y-44981000D01*
X42060000Y-44981000D02*
X44130000Y-44981000D01*
X37922000Y-45021000D02*
X39980000Y-45021000D01*
X42060000Y-45021000D02*
X44118000Y-45021000D01*
X37934000Y-45061000D02*
X39980000Y-45061000D01*
X42060000Y-45061000D02*
X44106000Y-45061000D01*
X37946000Y-45101000D02*
X39980000Y-45101000D01*
X42060000Y-45101000D02*
X44094000Y-45101000D01*
X37959000Y-45141000D02*
X39980000Y-45141000D01*
X42060000Y-45141000D02*
X44081000Y-45141000D01*
X37973000Y-45181000D02*
X39980000Y-45181000D01*
X42060000Y-45181000D02*
X44067000Y-45181000D01*
X37987000Y-45221000D02*
X39980000Y-45221000D01*
X42060000Y-45221000D02*
X44053000Y-45221000D01*
X38002000Y-45261000D02*
X39980000Y-45261000D01*
X42060000Y-45261000D02*
X44038000Y-45261000D01*
X38018000Y-45301000D02*
X39980000Y-45301000D01*
X42060000Y-45301000D02*
X44022000Y-45301000D01*
X38034000Y-45341000D02*
X39980000Y-45341000D01*
X42060000Y-45341000D02*
X44006000Y-45341000D01*
X38050000Y-45381000D02*
X39980000Y-45381000D01*
X42060000Y-45381000D02*
X43990000Y-45381000D01*
X38068000Y-45421000D02*
X39980000Y-45421000D01*
X42060000Y-45421000D02*
X43972000Y-45421000D01*
X38086000Y-45461000D02*
X39980000Y-45461000D01*
X42060000Y-45461000D02*
X43954000Y-45461000D01*
X38104000Y-45501000D02*
X39980000Y-45501000D01*
X42060000Y-45501000D02*
X43936000Y-45501000D01*
X38124000Y-45541000D02*
X39980000Y-45541000D01*
X42060000Y-45541000D02*
X43916000Y-45541000D01*
X38144000Y-45581000D02*
X39980000Y-45581000D01*
X42060000Y-45581000D02*
X43896000Y-45581000D01*
X38164000Y-45621000D02*
X39980000Y-45621000D01*
X42060000Y-45621000D02*
X43876000Y-45621000D01*
X38186000Y-45661000D02*
X39980000Y-45661000D01*
X42060000Y-45661000D02*
X43854000Y-45661000D01*
X38208000Y-45701000D02*
X39980000Y-45701000D01*
X42060000Y-45701000D02*
X43832000Y-45701000D01*
X38230000Y-45741000D02*
X39980000Y-45741000D01*
X42060000Y-45741000D02*
X43810000Y-45741000D01*
X38254000Y-45781000D02*
X39980000Y-45781000D01*
X42060000Y-45781000D02*
X43786000Y-45781000D01*
X38278000Y-45821000D02*
X39980000Y-45821000D01*
X42060000Y-45821000D02*
X43762000Y-45821000D01*
X38304000Y-45861000D02*
X39980000Y-45861000D01*
X42060000Y-45861000D02*
X43736000Y-45861000D01*
X38330000Y-45901000D02*
X39980000Y-45901000D01*
X42060000Y-45901000D02*
X43710000Y-45901000D01*
X38356000Y-45941000D02*
X39980000Y-45941000D01*
X42060000Y-45941000D02*
X43684000Y-45941000D01*
X38384000Y-45981000D02*
X39980000Y-45981000D01*
X42060000Y-45981000D02*
X43656000Y-45981000D01*
X38413000Y-46021000D02*
X39980000Y-46021000D01*
X42060000Y-46021000D02*
X43627000Y-46021000D01*
X38442000Y-46061000D02*
X39980000Y-46061000D01*
X42060000Y-46061000D02*
X43598000Y-46061000D01*
X38472000Y-46101000D02*
X39980000Y-46101000D01*
X42060000Y-46101000D02*
X43568000Y-46101000D01*
X38504000Y-46141000D02*
X39980000Y-46141000D01*
X42060000Y-46141000D02*
X43536000Y-46141000D01*
X38536000Y-46181000D02*
X39980000Y-46181000D01*
X42060000Y-46181000D02*
X43504000Y-46181000D01*
X38570000Y-46221000D02*
X39980000Y-46221000D01*
X42060000Y-46221000D02*
X43470000Y-46221000D01*
X38604000Y-46261000D02*
X39980000Y-46261000D01*
X42060000Y-46261000D02*
X43436000Y-46261000D01*
X38640000Y-46301000D02*
X39980000Y-46301000D01*
X42060000Y-46301000D02*
X43400000Y-46301000D01*
X38677000Y-46341000D02*
X39980000Y-46341000D01*
X42060000Y-46341000D02*
X43363000Y-46341000D01*
X38715000Y-46381000D02*
X39980000Y-46381000D01*
X42060000Y-46381000D02*
X43325000Y-46381000D01*
X38755000Y-46421000D02*
X43285000Y-46421000D01*
X38796000Y-46461000D02*
X43244000Y-46461000D01*
X38838000Y-46501000D02*
X43202000Y-46501000D01*
X38883000Y-46541000D02*
X43157000Y-46541000D01*
X38928000Y-46581000D02*
X43112000Y-46581000D01*
X38976000Y-46621000D02*
X43064000Y-46621000D01*
X39025000Y-46661000D02*
X43015000Y-46661000D01*
X39076000Y-46701000D02*
X42964000Y-46701000D01*
X39130000Y-46741000D02*
X42910000Y-46741000D01*
X39186000Y-46781000D02*
X42854000Y-46781000D01*
X39244000Y-46821000D02*
X42796000Y-46821000D01*
X39306000Y-46861000D02*
X42734000Y-46861000D01*
X39370000Y-46901000D02*
X42670000Y-46901000D01*
X39439000Y-46941000D02*
X42601000Y-46941000D01*
X39511000Y-46981000D02*
X42529000Y-46981000D01*
X39588000Y-47021000D02*
X42452000Y-47021000D01*
X39670000Y-47061000D02*
X42370000Y-47061000D01*
X39758000Y-47101000D02*
X42282000Y-47101000D01*
X39855000Y-47141000D02*
X42185000Y-47141000D01*
X39961000Y-47181000D02*
X42079000Y-47181000D01*
X40080000Y-47221000D02*
X41960000Y-47221000D01*
X40218000Y-47261000D02*
X41822000Y-47261000D01*
X40387000Y-47301000D02*
X41653000Y-47301000D01*
X40618000Y-47341000D02*
X41422000Y-47341000D01*
X39181000Y-40599759D02*
X39181000Y-41229759D01*
X38866000Y-40914759D02*
X39496000Y-40914759D01*
G04 #@! TD*
G04 #@! TO.C,U4*
D13*
X38607904Y-94444380D02*
X38607904Y-95253904D01*
X38560285Y-95349142D01*
X38512666Y-95396761D01*
X38417428Y-95444380D01*
X38226952Y-95444380D01*
X38131714Y-95396761D01*
X38084095Y-95349142D01*
X38036476Y-95253904D01*
X38036476Y-94444380D01*
X37131714Y-94777714D02*
X37131714Y-95444380D01*
X37369809Y-94396761D02*
X37607904Y-95111047D01*
X36988857Y-95111047D01*
G04 #@! TO.C,C1*
D12*
X37200666Y-70300000D02*
X37234000Y-70333333D01*
X37334000Y-70366666D01*
X37400666Y-70366666D01*
X37500666Y-70333333D01*
X37567333Y-70266666D01*
X37600666Y-70200000D01*
X37634000Y-70066666D01*
X37634000Y-69966666D01*
X37600666Y-69833333D01*
X37567333Y-69766666D01*
X37500666Y-69700000D01*
X37400666Y-69666666D01*
X37334000Y-69666666D01*
X37234000Y-69700000D01*
X37200666Y-69733333D01*
X36534000Y-70366666D02*
X36934000Y-70366666D01*
X36734000Y-70366666D02*
X36734000Y-69666666D01*
X36800666Y-69766666D01*
X36867333Y-69833333D01*
X36934000Y-69866666D01*
G04 #@! TO.C,C2*
X18950000Y-77233333D02*
X18983333Y-77200000D01*
X19016666Y-77100000D01*
X19016666Y-77033333D01*
X18983333Y-76933333D01*
X18916666Y-76866666D01*
X18850000Y-76833333D01*
X18716666Y-76800000D01*
X18616666Y-76800000D01*
X18483333Y-76833333D01*
X18416666Y-76866666D01*
X18350000Y-76933333D01*
X18316666Y-77033333D01*
X18316666Y-77100000D01*
X18350000Y-77200000D01*
X18383333Y-77233333D01*
X18383333Y-77500000D02*
X18350000Y-77533333D01*
X18316666Y-77600000D01*
X18316666Y-77766666D01*
X18350000Y-77833333D01*
X18383333Y-77866666D01*
X18450000Y-77900000D01*
X18516666Y-77900000D01*
X18616666Y-77866666D01*
X19016666Y-77466666D01*
X19016666Y-77900000D01*
G04 #@! TO.C,C3*
X37264666Y-51502000D02*
X37298000Y-51535333D01*
X37398000Y-51568666D01*
X37464666Y-51568666D01*
X37564666Y-51535333D01*
X37631333Y-51468666D01*
X37664666Y-51402000D01*
X37698000Y-51268666D01*
X37698000Y-51168666D01*
X37664666Y-51035333D01*
X37631333Y-50968666D01*
X37564666Y-50902000D01*
X37464666Y-50868666D01*
X37398000Y-50868666D01*
X37298000Y-50902000D01*
X37264666Y-50935333D01*
X37031333Y-50868666D02*
X36598000Y-50868666D01*
X36831333Y-51135333D01*
X36731333Y-51135333D01*
X36664666Y-51168666D01*
X36631333Y-51202000D01*
X36598000Y-51268666D01*
X36598000Y-51435333D01*
X36631333Y-51502000D01*
X36664666Y-51535333D01*
X36731333Y-51568666D01*
X36931333Y-51568666D01*
X36998000Y-51535333D01*
X37031333Y-51502000D01*
G04 #@! TO.C,C4*
X19200000Y-60433333D02*
X19233333Y-60400000D01*
X19266666Y-60300000D01*
X19266666Y-60233333D01*
X19233333Y-60133333D01*
X19166666Y-60066666D01*
X19100000Y-60033333D01*
X18966666Y-60000000D01*
X18866666Y-60000000D01*
X18733333Y-60033333D01*
X18666666Y-60066666D01*
X18600000Y-60133333D01*
X18566666Y-60233333D01*
X18566666Y-60300000D01*
X18600000Y-60400000D01*
X18633333Y-60433333D01*
X18800000Y-61033333D02*
X19266666Y-61033333D01*
X18533333Y-60866666D02*
X19033333Y-60700000D01*
X19033333Y-61133333D01*
G04 #@! TO.C,C5*
X37210666Y-79050000D02*
X37244000Y-79083333D01*
X37344000Y-79116666D01*
X37410666Y-79116666D01*
X37510666Y-79083333D01*
X37577333Y-79016666D01*
X37610666Y-78950000D01*
X37644000Y-78816666D01*
X37644000Y-78716666D01*
X37610666Y-78583333D01*
X37577333Y-78516666D01*
X37510666Y-78450000D01*
X37410666Y-78416666D01*
X37344000Y-78416666D01*
X37244000Y-78450000D01*
X37210666Y-78483333D01*
X36577333Y-78416666D02*
X36910666Y-78416666D01*
X36944000Y-78750000D01*
X36910666Y-78716666D01*
X36844000Y-78683333D01*
X36677333Y-78683333D01*
X36610666Y-78716666D01*
X36577333Y-78750000D01*
X36544000Y-78816666D01*
X36544000Y-78983333D01*
X36577333Y-79050000D01*
X36610666Y-79083333D01*
X36677333Y-79116666D01*
X36844000Y-79116666D01*
X36910666Y-79083333D01*
X36944000Y-79050000D01*
G04 #@! TO.C,C6*
X18650000Y-72433333D02*
X18683333Y-72400000D01*
X18716666Y-72300000D01*
X18716666Y-72233333D01*
X18683333Y-72133333D01*
X18616666Y-72066666D01*
X18550000Y-72033333D01*
X18416666Y-72000000D01*
X18316666Y-72000000D01*
X18183333Y-72033333D01*
X18116666Y-72066666D01*
X18050000Y-72133333D01*
X18016666Y-72233333D01*
X18016666Y-72300000D01*
X18050000Y-72400000D01*
X18083333Y-72433333D01*
X18016666Y-73033333D02*
X18016666Y-72900000D01*
X18050000Y-72833333D01*
X18083333Y-72800000D01*
X18183333Y-72733333D01*
X18316666Y-72700000D01*
X18583333Y-72700000D01*
X18650000Y-72733333D01*
X18683333Y-72766666D01*
X18716666Y-72833333D01*
X18716666Y-72966666D01*
X18683333Y-73033333D01*
X18650000Y-73066666D01*
X18583333Y-73100000D01*
X18416666Y-73100000D01*
X18350000Y-73066666D01*
X18316666Y-73033333D01*
X18283333Y-72966666D01*
X18283333Y-72833333D01*
X18316666Y-72766666D01*
X18350000Y-72733333D01*
X18416666Y-72700000D01*
G04 #@! TO.C,C7*
X37239666Y-60875000D02*
X37273000Y-60908333D01*
X37373000Y-60941666D01*
X37439666Y-60941666D01*
X37539666Y-60908333D01*
X37606333Y-60841666D01*
X37639666Y-60775000D01*
X37673000Y-60641666D01*
X37673000Y-60541666D01*
X37639666Y-60408333D01*
X37606333Y-60341666D01*
X37539666Y-60275000D01*
X37439666Y-60241666D01*
X37373000Y-60241666D01*
X37273000Y-60275000D01*
X37239666Y-60308333D01*
X37006333Y-60241666D02*
X36539666Y-60241666D01*
X36839666Y-60941666D01*
G04 #@! TO.C,C8*
X19250000Y-55908333D02*
X19283333Y-55875000D01*
X19316666Y-55775000D01*
X19316666Y-55708333D01*
X19283333Y-55608333D01*
X19216666Y-55541666D01*
X19150000Y-55508333D01*
X19016666Y-55475000D01*
X18916666Y-55475000D01*
X18783333Y-55508333D01*
X18716666Y-55541666D01*
X18650000Y-55608333D01*
X18616666Y-55708333D01*
X18616666Y-55775000D01*
X18650000Y-55875000D01*
X18683333Y-55908333D01*
X18916666Y-56308333D02*
X18883333Y-56241666D01*
X18850000Y-56208333D01*
X18783333Y-56175000D01*
X18750000Y-56175000D01*
X18683333Y-56208333D01*
X18650000Y-56241666D01*
X18616666Y-56308333D01*
X18616666Y-56441666D01*
X18650000Y-56508333D01*
X18683333Y-56541666D01*
X18750000Y-56575000D01*
X18783333Y-56575000D01*
X18850000Y-56541666D01*
X18883333Y-56508333D01*
X18916666Y-56441666D01*
X18916666Y-56308333D01*
X18950000Y-56241666D01*
X18983333Y-56208333D01*
X19050000Y-56175000D01*
X19183333Y-56175000D01*
X19250000Y-56208333D01*
X19283333Y-56241666D01*
X19316666Y-56308333D01*
X19316666Y-56441666D01*
X19283333Y-56508333D01*
X19250000Y-56541666D01*
X19183333Y-56575000D01*
X19050000Y-56575000D01*
X18983333Y-56541666D01*
X18950000Y-56508333D01*
X18916666Y-56441666D01*
G04 #@! TO.C,C9*
X32816666Y-31225000D02*
X32850000Y-31258333D01*
X32950000Y-31291666D01*
X33016666Y-31291666D01*
X33116666Y-31258333D01*
X33183333Y-31191666D01*
X33216666Y-31125000D01*
X33250000Y-30991666D01*
X33250000Y-30891666D01*
X33216666Y-30758333D01*
X33183333Y-30691666D01*
X33116666Y-30625000D01*
X33016666Y-30591666D01*
X32950000Y-30591666D01*
X32850000Y-30625000D01*
X32816666Y-30658333D01*
X32483333Y-31291666D02*
X32350000Y-31291666D01*
X32283333Y-31258333D01*
X32250000Y-31225000D01*
X32183333Y-31125000D01*
X32150000Y-30991666D01*
X32150000Y-30725000D01*
X32183333Y-30658333D01*
X32216666Y-30625000D01*
X32283333Y-30591666D01*
X32416666Y-30591666D01*
X32483333Y-30625000D01*
X32516666Y-30658333D01*
X32550000Y-30725000D01*
X32550000Y-30891666D01*
X32516666Y-30958333D01*
X32483333Y-30991666D01*
X32416666Y-31025000D01*
X32283333Y-31025000D01*
X32216666Y-30991666D01*
X32183333Y-30958333D01*
X32150000Y-30891666D01*
G04 #@! TO.C,C10*
X52275000Y-32625000D02*
X52308333Y-32658333D01*
X52408333Y-32691666D01*
X52475000Y-32691666D01*
X52575000Y-32658333D01*
X52641666Y-32591666D01*
X52675000Y-32525000D01*
X52708333Y-32391666D01*
X52708333Y-32291666D01*
X52675000Y-32158333D01*
X52641666Y-32091666D01*
X52575000Y-32025000D01*
X52475000Y-31991666D01*
X52408333Y-31991666D01*
X52308333Y-32025000D01*
X52275000Y-32058333D01*
X51608333Y-32691666D02*
X52008333Y-32691666D01*
X51808333Y-32691666D02*
X51808333Y-31991666D01*
X51875000Y-32091666D01*
X51941666Y-32158333D01*
X52008333Y-32191666D01*
X51175000Y-31991666D02*
X51108333Y-31991666D01*
X51041666Y-32025000D01*
X51008333Y-32058333D01*
X50975000Y-32125000D01*
X50941666Y-32258333D01*
X50941666Y-32425000D01*
X50975000Y-32558333D01*
X51008333Y-32625000D01*
X51041666Y-32658333D01*
X51108333Y-32691666D01*
X51175000Y-32691666D01*
X51241666Y-32658333D01*
X51275000Y-32625000D01*
X51308333Y-32558333D01*
X51341666Y-32425000D01*
X51341666Y-32258333D01*
X51308333Y-32125000D01*
X51275000Y-32058333D01*
X51241666Y-32025000D01*
X51175000Y-31991666D01*
G04 #@! TO.C,C11*
X19000000Y-74400000D02*
X19033333Y-74366666D01*
X19066666Y-74266666D01*
X19066666Y-74200000D01*
X19033333Y-74100000D01*
X18966666Y-74033333D01*
X18900000Y-74000000D01*
X18766666Y-73966666D01*
X18666666Y-73966666D01*
X18533333Y-74000000D01*
X18466666Y-74033333D01*
X18400000Y-74100000D01*
X18366666Y-74200000D01*
X18366666Y-74266666D01*
X18400000Y-74366666D01*
X18433333Y-74400000D01*
X19066666Y-75066666D02*
X19066666Y-74666666D01*
X19066666Y-74866666D02*
X18366666Y-74866666D01*
X18466666Y-74800000D01*
X18533333Y-74733333D01*
X18566666Y-74666666D01*
X19066666Y-75733333D02*
X19066666Y-75333333D01*
X19066666Y-75533333D02*
X18366666Y-75533333D01*
X18466666Y-75466666D01*
X18533333Y-75400000D01*
X18566666Y-75333333D01*
G04 #@! TO.C,C12*
X37750000Y-74600000D02*
X37783333Y-74633333D01*
X37883333Y-74666666D01*
X37950000Y-74666666D01*
X38050000Y-74633333D01*
X38116666Y-74566666D01*
X38150000Y-74500000D01*
X38183333Y-74366666D01*
X38183333Y-74266666D01*
X38150000Y-74133333D01*
X38116666Y-74066666D01*
X38050000Y-74000000D01*
X37950000Y-73966666D01*
X37883333Y-73966666D01*
X37783333Y-74000000D01*
X37750000Y-74033333D01*
X37083333Y-74666666D02*
X37483333Y-74666666D01*
X37283333Y-74666666D02*
X37283333Y-73966666D01*
X37350000Y-74066666D01*
X37416666Y-74133333D01*
X37483333Y-74166666D01*
X36816666Y-74033333D02*
X36783333Y-74000000D01*
X36716666Y-73966666D01*
X36550000Y-73966666D01*
X36483333Y-74000000D01*
X36450000Y-74033333D01*
X36416666Y-74100000D01*
X36416666Y-74166666D01*
X36450000Y-74266666D01*
X36850000Y-74666666D01*
X36416666Y-74666666D01*
G04 #@! TO.C,C14*
X19175000Y-57900000D02*
X19208333Y-57866666D01*
X19241666Y-57766666D01*
X19241666Y-57700000D01*
X19208333Y-57600000D01*
X19141666Y-57533333D01*
X19075000Y-57500000D01*
X18941666Y-57466666D01*
X18841666Y-57466666D01*
X18708333Y-57500000D01*
X18641666Y-57533333D01*
X18575000Y-57600000D01*
X18541666Y-57700000D01*
X18541666Y-57766666D01*
X18575000Y-57866666D01*
X18608333Y-57900000D01*
X19241666Y-58566666D02*
X19241666Y-58166666D01*
X19241666Y-58366666D02*
X18541666Y-58366666D01*
X18641666Y-58300000D01*
X18708333Y-58233333D01*
X18741666Y-58166666D01*
X18775000Y-59166666D02*
X19241666Y-59166666D01*
X18508333Y-59000000D02*
X19008333Y-58833333D01*
X19008333Y-59266666D01*
G04 #@! TO.C,C15*
X37852000Y-56024000D02*
X37885333Y-56057333D01*
X37985333Y-56090666D01*
X38052000Y-56090666D01*
X38152000Y-56057333D01*
X38218666Y-55990666D01*
X38252000Y-55924000D01*
X38285333Y-55790666D01*
X38285333Y-55690666D01*
X38252000Y-55557333D01*
X38218666Y-55490666D01*
X38152000Y-55424000D01*
X38052000Y-55390666D01*
X37985333Y-55390666D01*
X37885333Y-55424000D01*
X37852000Y-55457333D01*
X37185333Y-56090666D02*
X37585333Y-56090666D01*
X37385333Y-56090666D02*
X37385333Y-55390666D01*
X37452000Y-55490666D01*
X37518666Y-55557333D01*
X37585333Y-55590666D01*
X36552000Y-55390666D02*
X36885333Y-55390666D01*
X36918666Y-55724000D01*
X36885333Y-55690666D01*
X36818666Y-55657333D01*
X36652000Y-55657333D01*
X36585333Y-55690666D01*
X36552000Y-55724000D01*
X36518666Y-55790666D01*
X36518666Y-55957333D01*
X36552000Y-56024000D01*
X36585333Y-56057333D01*
X36652000Y-56090666D01*
X36818666Y-56090666D01*
X36885333Y-56057333D01*
X36918666Y-56024000D01*
G04 #@! TO.C,C16*
X35075000Y-93225000D02*
X35108333Y-93258333D01*
X35208333Y-93291666D01*
X35275000Y-93291666D01*
X35375000Y-93258333D01*
X35441666Y-93191666D01*
X35475000Y-93125000D01*
X35508333Y-92991666D01*
X35508333Y-92891666D01*
X35475000Y-92758333D01*
X35441666Y-92691666D01*
X35375000Y-92625000D01*
X35275000Y-92591666D01*
X35208333Y-92591666D01*
X35108333Y-92625000D01*
X35075000Y-92658333D01*
X34408333Y-93291666D02*
X34808333Y-93291666D01*
X34608333Y-93291666D02*
X34608333Y-92591666D01*
X34675000Y-92691666D01*
X34741666Y-92758333D01*
X34808333Y-92791666D01*
X33808333Y-92591666D02*
X33941666Y-92591666D01*
X34008333Y-92625000D01*
X34041666Y-92658333D01*
X34108333Y-92758333D01*
X34141666Y-92891666D01*
X34141666Y-93158333D01*
X34108333Y-93225000D01*
X34075000Y-93258333D01*
X34008333Y-93291666D01*
X33875000Y-93291666D01*
X33808333Y-93258333D01*
X33775000Y-93225000D01*
X33741666Y-93158333D01*
X33741666Y-92991666D01*
X33775000Y-92925000D01*
X33808333Y-92891666D01*
X33875000Y-92858333D01*
X34008333Y-92858333D01*
X34075000Y-92891666D01*
X34108333Y-92925000D01*
X34141666Y-92991666D01*
G04 #@! TO.C,D5*
D13*
X25884095Y-28208380D02*
X25884095Y-27208380D01*
X25646000Y-27208380D01*
X25503142Y-27256000D01*
X25407904Y-27351238D01*
X25360285Y-27446476D01*
X25312666Y-27636952D01*
X25312666Y-27779809D01*
X25360285Y-27970285D01*
X25407904Y-28065523D01*
X25503142Y-28160761D01*
X25646000Y-28208380D01*
X25884095Y-28208380D01*
X24407904Y-27208380D02*
X24884095Y-27208380D01*
X24931714Y-27684571D01*
X24884095Y-27636952D01*
X24788857Y-27589333D01*
X24550761Y-27589333D01*
X24455523Y-27636952D01*
X24407904Y-27684571D01*
X24360285Y-27779809D01*
X24360285Y-28017904D01*
X24407904Y-28113142D01*
X24455523Y-28160761D01*
X24550761Y-28208380D01*
X24788857Y-28208380D01*
X24884095Y-28160761D01*
X24931714Y-28113142D01*
X30487904Y-28578380D02*
X30487904Y-27578380D01*
X29916476Y-28578380D02*
X30345047Y-28006952D01*
X29916476Y-27578380D02*
X30487904Y-28149809D01*
G04 #@! TO.C,D6*
X38042380Y-18991904D02*
X37042380Y-18991904D01*
X37042380Y-19230000D01*
X37090000Y-19372857D01*
X37185238Y-19468095D01*
X37280476Y-19515714D01*
X37470952Y-19563333D01*
X37613809Y-19563333D01*
X37804285Y-19515714D01*
X37899523Y-19468095D01*
X37994761Y-19372857D01*
X38042380Y-19230000D01*
X38042380Y-18991904D01*
X37042380Y-20420476D02*
X37042380Y-20230000D01*
X37090000Y-20134761D01*
X37137619Y-20087142D01*
X37280476Y-19991904D01*
X37470952Y-19944285D01*
X37851904Y-19944285D01*
X37947142Y-19991904D01*
X37994761Y-20039523D01*
X38042380Y-20134761D01*
X38042380Y-20325238D01*
X37994761Y-20420476D01*
X37947142Y-20468095D01*
X37851904Y-20515714D01*
X37613809Y-20515714D01*
X37518571Y-20468095D01*
X37470952Y-20420476D01*
X37423333Y-20325238D01*
X37423333Y-20134761D01*
X37470952Y-20039523D01*
X37518571Y-19991904D01*
X37613809Y-19944285D01*
X42662380Y-14428095D02*
X41662380Y-14428095D01*
X42662380Y-14999523D02*
X42090952Y-14570952D01*
X41662380Y-14999523D02*
X42233809Y-14428095D01*
G04 #@! TO.C,F1*
X40733333Y-52803571D02*
X41066666Y-52803571D01*
X41066666Y-53327380D02*
X41066666Y-52327380D01*
X40590476Y-52327380D01*
X39685714Y-53327380D02*
X40257142Y-53327380D01*
X39971428Y-53327380D02*
X39971428Y-52327380D01*
X40066666Y-52470238D01*
X40161904Y-52565476D01*
X40257142Y-52613095D01*
G04 #@! TO.C,F2*
X40633333Y-60803571D02*
X40966666Y-60803571D01*
X40966666Y-61327380D02*
X40966666Y-60327380D01*
X40490476Y-60327380D01*
X40157142Y-60422619D02*
X40109523Y-60375000D01*
X40014285Y-60327380D01*
X39776190Y-60327380D01*
X39680952Y-60375000D01*
X39633333Y-60422619D01*
X39585714Y-60517857D01*
X39585714Y-60613095D01*
X39633333Y-60755952D01*
X40204761Y-61327380D01*
X39585714Y-61327380D01*
G04 #@! TO.C,J9*
X52703333Y-70556380D02*
X52703333Y-71270666D01*
X52750952Y-71413523D01*
X52846190Y-71508761D01*
X52989047Y-71556380D01*
X53084285Y-71556380D01*
X52179523Y-71556380D02*
X51989047Y-71556380D01*
X51893809Y-71508761D01*
X51846190Y-71461142D01*
X51750952Y-71318285D01*
X51703333Y-71127809D01*
X51703333Y-70746857D01*
X51750952Y-70651619D01*
X51798571Y-70604000D01*
X51893809Y-70556380D01*
X52084285Y-70556380D01*
X52179523Y-70604000D01*
X52227142Y-70651619D01*
X52274761Y-70746857D01*
X52274761Y-70984952D01*
X52227142Y-71080190D01*
X52179523Y-71127809D01*
X52084285Y-71175428D01*
X51893809Y-71175428D01*
X51798571Y-71127809D01*
X51750952Y-71080190D01*
X51703333Y-70984952D01*
X47886904Y-51921428D02*
X47125000Y-51921428D01*
X46125000Y-52302380D02*
X46696428Y-52302380D01*
X46410714Y-52302380D02*
X46410714Y-51302380D01*
X46505952Y-51445238D01*
X46601190Y-51540476D01*
X46696428Y-51588095D01*
X45744047Y-51397619D02*
X45696428Y-51350000D01*
X45601190Y-51302380D01*
X45363095Y-51302380D01*
X45267857Y-51350000D01*
X45220238Y-51397619D01*
X45172619Y-51492857D01*
X45172619Y-51588095D01*
X45220238Y-51730952D01*
X45791666Y-52302380D01*
X45172619Y-52302380D01*
X44886904Y-51302380D02*
X44553571Y-52302380D01*
X44220238Y-51302380D01*
G04 #@! TO.C,R1*
D12*
X32766666Y-28641666D02*
X33000000Y-28308333D01*
X33166666Y-28641666D02*
X33166666Y-27941666D01*
X32900000Y-27941666D01*
X32833333Y-27975000D01*
X32800000Y-28008333D01*
X32766666Y-28075000D01*
X32766666Y-28175000D01*
X32800000Y-28241666D01*
X32833333Y-28275000D01*
X32900000Y-28308333D01*
X33166666Y-28308333D01*
X32100000Y-28641666D02*
X32500000Y-28641666D01*
X32300000Y-28641666D02*
X32300000Y-27941666D01*
X32366666Y-28041666D01*
X32433333Y-28108333D01*
X32500000Y-28141666D01*
G04 #@! TO.C,R2*
X26024666Y-87946666D02*
X26258000Y-87613333D01*
X26424666Y-87946666D02*
X26424666Y-87246666D01*
X26158000Y-87246666D01*
X26091333Y-87280000D01*
X26058000Y-87313333D01*
X26024666Y-87380000D01*
X26024666Y-87480000D01*
X26058000Y-87546666D01*
X26091333Y-87580000D01*
X26158000Y-87613333D01*
X26424666Y-87613333D01*
X25758000Y-87313333D02*
X25724666Y-87280000D01*
X25658000Y-87246666D01*
X25491333Y-87246666D01*
X25424666Y-87280000D01*
X25391333Y-87313333D01*
X25358000Y-87380000D01*
X25358000Y-87446666D01*
X25391333Y-87546666D01*
X25791333Y-87946666D01*
X25358000Y-87946666D01*
G04 #@! TO.C,R3*
X32816666Y-33391666D02*
X33050000Y-33058333D01*
X33216666Y-33391666D02*
X33216666Y-32691666D01*
X32950000Y-32691666D01*
X32883333Y-32725000D01*
X32850000Y-32758333D01*
X32816666Y-32825000D01*
X32816666Y-32925000D01*
X32850000Y-32991666D01*
X32883333Y-33025000D01*
X32950000Y-33058333D01*
X33216666Y-33058333D01*
X32583333Y-32691666D02*
X32150000Y-32691666D01*
X32383333Y-32958333D01*
X32283333Y-32958333D01*
X32216666Y-32991666D01*
X32183333Y-33025000D01*
X32150000Y-33091666D01*
X32150000Y-33258333D01*
X32183333Y-33325000D01*
X32216666Y-33358333D01*
X32283333Y-33391666D01*
X32483333Y-33391666D01*
X32550000Y-33358333D01*
X32583333Y-33325000D01*
G04 #@! TO.C,R4*
X38991666Y-109028666D02*
X39225000Y-108695333D01*
X39391666Y-109028666D02*
X39391666Y-108328666D01*
X39125000Y-108328666D01*
X39058333Y-108362000D01*
X39025000Y-108395333D01*
X38991666Y-108462000D01*
X38991666Y-108562000D01*
X39025000Y-108628666D01*
X39058333Y-108662000D01*
X39125000Y-108695333D01*
X39391666Y-108695333D01*
X38391666Y-108562000D02*
X38391666Y-109028666D01*
X38558333Y-108295333D02*
X38725000Y-108795333D01*
X38291666Y-108795333D01*
G04 #@! TO.C,R5*
X28826498Y-24715043D02*
X29059832Y-24381710D01*
X29226498Y-24715043D02*
X29226498Y-24015043D01*
X28959832Y-24015043D01*
X28893165Y-24048377D01*
X28859832Y-24081710D01*
X28826498Y-24148377D01*
X28826498Y-24248377D01*
X28859832Y-24315043D01*
X28893165Y-24348377D01*
X28959832Y-24381710D01*
X29226498Y-24381710D01*
X28193165Y-24015043D02*
X28526498Y-24015043D01*
X28559832Y-24348377D01*
X28526498Y-24315043D01*
X28459832Y-24281710D01*
X28293165Y-24281710D01*
X28226498Y-24315043D01*
X28193165Y-24348377D01*
X28159832Y-24415043D01*
X28159832Y-24581710D01*
X28193165Y-24648377D01*
X28226498Y-24681710D01*
X28293165Y-24715043D01*
X28459832Y-24715043D01*
X28526498Y-24681710D01*
X28559832Y-24648377D01*
G04 #@! TO.C,R6*
X48906889Y-24693985D02*
X49140223Y-24360652D01*
X49306889Y-24693985D02*
X49306889Y-23993985D01*
X49040223Y-23993985D01*
X48973556Y-24027319D01*
X48940223Y-24060652D01*
X48906889Y-24127319D01*
X48906889Y-24227319D01*
X48940223Y-24293985D01*
X48973556Y-24327319D01*
X49040223Y-24360652D01*
X49306889Y-24360652D01*
X48306889Y-23993985D02*
X48440223Y-23993985D01*
X48506889Y-24027319D01*
X48540223Y-24060652D01*
X48606889Y-24160652D01*
X48640223Y-24293985D01*
X48640223Y-24560652D01*
X48606889Y-24627319D01*
X48573556Y-24660652D01*
X48506889Y-24693985D01*
X48373556Y-24693985D01*
X48306889Y-24660652D01*
X48273556Y-24627319D01*
X48240223Y-24560652D01*
X48240223Y-24393985D01*
X48273556Y-24327319D01*
X48306889Y-24293985D01*
X48373556Y-24260652D01*
X48506889Y-24260652D01*
X48573556Y-24293985D01*
X48606889Y-24327319D01*
X48640223Y-24393985D01*
G04 #@! TO.C,R7*
X26024666Y-92518666D02*
X26258000Y-92185333D01*
X26424666Y-92518666D02*
X26424666Y-91818666D01*
X26158000Y-91818666D01*
X26091333Y-91852000D01*
X26058000Y-91885333D01*
X26024666Y-91952000D01*
X26024666Y-92052000D01*
X26058000Y-92118666D01*
X26091333Y-92152000D01*
X26158000Y-92185333D01*
X26424666Y-92185333D01*
X25791333Y-91818666D02*
X25324666Y-91818666D01*
X25624666Y-92518666D01*
G04 #@! TO.C,R8*
X28832744Y-44748370D02*
X29066078Y-44415037D01*
X29232744Y-44748370D02*
X29232744Y-44048370D01*
X28966078Y-44048370D01*
X28899411Y-44081704D01*
X28866078Y-44115037D01*
X28832744Y-44181704D01*
X28832744Y-44281704D01*
X28866078Y-44348370D01*
X28899411Y-44381704D01*
X28966078Y-44415037D01*
X29232744Y-44415037D01*
X28432744Y-44348370D02*
X28499411Y-44315037D01*
X28532744Y-44281704D01*
X28566078Y-44215037D01*
X28566078Y-44181704D01*
X28532744Y-44115037D01*
X28499411Y-44081704D01*
X28432744Y-44048370D01*
X28299411Y-44048370D01*
X28232744Y-44081704D01*
X28199411Y-44115037D01*
X28166078Y-44181704D01*
X28166078Y-44215037D01*
X28199411Y-44281704D01*
X28232744Y-44315037D01*
X28299411Y-44348370D01*
X28432744Y-44348370D01*
X28499411Y-44381704D01*
X28532744Y-44415037D01*
X28566078Y-44481704D01*
X28566078Y-44615037D01*
X28532744Y-44681704D01*
X28499411Y-44715037D01*
X28432744Y-44748370D01*
X28299411Y-44748370D01*
X28232744Y-44715037D01*
X28199411Y-44681704D01*
X28166078Y-44615037D01*
X28166078Y-44481704D01*
X28199411Y-44415037D01*
X28232744Y-44381704D01*
X28299411Y-44348370D01*
G04 #@! TO.C,R9*
X46598666Y-92010666D02*
X46832000Y-91677333D01*
X46998666Y-92010666D02*
X46998666Y-91310666D01*
X46732000Y-91310666D01*
X46665333Y-91344000D01*
X46632000Y-91377333D01*
X46598666Y-91444000D01*
X46598666Y-91544000D01*
X46632000Y-91610666D01*
X46665333Y-91644000D01*
X46732000Y-91677333D01*
X46998666Y-91677333D01*
X46265333Y-92010666D02*
X46132000Y-92010666D01*
X46065333Y-91977333D01*
X46032000Y-91944000D01*
X45965333Y-91844000D01*
X45932000Y-91710666D01*
X45932000Y-91444000D01*
X45965333Y-91377333D01*
X45998666Y-91344000D01*
X46065333Y-91310666D01*
X46198666Y-91310666D01*
X46265333Y-91344000D01*
X46298666Y-91377333D01*
X46332000Y-91444000D01*
X46332000Y-91610666D01*
X46298666Y-91677333D01*
X46265333Y-91710666D01*
X46198666Y-91744000D01*
X46065333Y-91744000D01*
X45998666Y-91710666D01*
X45965333Y-91677333D01*
X45932000Y-91610666D01*
G04 #@! TO.C,R10*
X47167000Y-44913666D02*
X47400333Y-44580333D01*
X47567000Y-44913666D02*
X47567000Y-44213666D01*
X47300333Y-44213666D01*
X47233666Y-44247000D01*
X47200333Y-44280333D01*
X47167000Y-44347000D01*
X47167000Y-44447000D01*
X47200333Y-44513666D01*
X47233666Y-44547000D01*
X47300333Y-44580333D01*
X47567000Y-44580333D01*
X46500333Y-44913666D02*
X46900333Y-44913666D01*
X46700333Y-44913666D02*
X46700333Y-44213666D01*
X46767000Y-44313666D01*
X46833666Y-44380333D01*
X46900333Y-44413666D01*
X46067000Y-44213666D02*
X46000333Y-44213666D01*
X45933666Y-44247000D01*
X45900333Y-44280333D01*
X45867000Y-44347000D01*
X45833666Y-44480333D01*
X45833666Y-44647000D01*
X45867000Y-44780333D01*
X45900333Y-44847000D01*
X45933666Y-44880333D01*
X46000333Y-44913666D01*
X46067000Y-44913666D01*
X46133666Y-44880333D01*
X46167000Y-44847000D01*
X46200333Y-44780333D01*
X46233666Y-44647000D01*
X46233666Y-44480333D01*
X46200333Y-44347000D01*
X46167000Y-44280333D01*
X46133666Y-44247000D01*
X46067000Y-44213666D01*
G04 #@! TO.C,R11*
X39594000Y-104066666D02*
X39827333Y-103733333D01*
X39994000Y-104066666D02*
X39994000Y-103366666D01*
X39727333Y-103366666D01*
X39660666Y-103400000D01*
X39627333Y-103433333D01*
X39594000Y-103500000D01*
X39594000Y-103600000D01*
X39627333Y-103666666D01*
X39660666Y-103700000D01*
X39727333Y-103733333D01*
X39994000Y-103733333D01*
X38927333Y-104066666D02*
X39327333Y-104066666D01*
X39127333Y-104066666D02*
X39127333Y-103366666D01*
X39194000Y-103466666D01*
X39260666Y-103533333D01*
X39327333Y-103566666D01*
X38260666Y-104066666D02*
X38660666Y-104066666D01*
X38460666Y-104066666D02*
X38460666Y-103366666D01*
X38527333Y-103466666D01*
X38594000Y-103533333D01*
X38660666Y-103566666D01*
G04 #@! TO.C,R12*
X26104000Y-90232666D02*
X26337333Y-89899333D01*
X26504000Y-90232666D02*
X26504000Y-89532666D01*
X26237333Y-89532666D01*
X26170666Y-89566000D01*
X26137333Y-89599333D01*
X26104000Y-89666000D01*
X26104000Y-89766000D01*
X26137333Y-89832666D01*
X26170666Y-89866000D01*
X26237333Y-89899333D01*
X26504000Y-89899333D01*
X25437333Y-90232666D02*
X25837333Y-90232666D01*
X25637333Y-90232666D02*
X25637333Y-89532666D01*
X25704000Y-89632666D01*
X25770666Y-89699333D01*
X25837333Y-89732666D01*
X25170666Y-89599333D02*
X25137333Y-89566000D01*
X25070666Y-89532666D01*
X24904000Y-89532666D01*
X24837333Y-89566000D01*
X24804000Y-89599333D01*
X24770666Y-89666000D01*
X24770666Y-89732666D01*
X24804000Y-89832666D01*
X25204000Y-90232666D01*
X24770666Y-90232666D01*
G04 #@! TO.C,R13*
X39566000Y-106742666D02*
X39799333Y-106409333D01*
X39966000Y-106742666D02*
X39966000Y-106042666D01*
X39699333Y-106042666D01*
X39632666Y-106076000D01*
X39599333Y-106109333D01*
X39566000Y-106176000D01*
X39566000Y-106276000D01*
X39599333Y-106342666D01*
X39632666Y-106376000D01*
X39699333Y-106409333D01*
X39966000Y-106409333D01*
X38899333Y-106742666D02*
X39299333Y-106742666D01*
X39099333Y-106742666D02*
X39099333Y-106042666D01*
X39166000Y-106142666D01*
X39232666Y-106209333D01*
X39299333Y-106242666D01*
X38666000Y-106042666D02*
X38232666Y-106042666D01*
X38466000Y-106309333D01*
X38366000Y-106309333D01*
X38299333Y-106342666D01*
X38266000Y-106376000D01*
X38232666Y-106442666D01*
X38232666Y-106609333D01*
X38266000Y-106676000D01*
X38299333Y-106709333D01*
X38366000Y-106742666D01*
X38566000Y-106742666D01*
X38632666Y-106709333D01*
X38666000Y-106676000D01*
G04 #@! TO.C,R14*
X37949001Y-72352775D02*
X38182334Y-72019442D01*
X38349001Y-72352775D02*
X38349001Y-71652775D01*
X38082334Y-71652775D01*
X38015667Y-71686109D01*
X37982334Y-71719442D01*
X37949001Y-71786109D01*
X37949001Y-71886109D01*
X37982334Y-71952775D01*
X38015667Y-71986109D01*
X38082334Y-72019442D01*
X38349001Y-72019442D01*
X37282334Y-72352775D02*
X37682334Y-72352775D01*
X37482334Y-72352775D02*
X37482334Y-71652775D01*
X37549001Y-71752775D01*
X37615667Y-71819442D01*
X37682334Y-71852775D01*
X36682334Y-71886109D02*
X36682334Y-72352775D01*
X36849001Y-71619442D02*
X37015667Y-72119442D01*
X36582334Y-72119442D01*
G04 #@! TO.C,R15*
X19006666Y-79150000D02*
X18673333Y-78916666D01*
X19006666Y-78750000D02*
X18306666Y-78750000D01*
X18306666Y-79016666D01*
X18340000Y-79083333D01*
X18373333Y-79116666D01*
X18440000Y-79150000D01*
X18540000Y-79150000D01*
X18606666Y-79116666D01*
X18640000Y-79083333D01*
X18673333Y-79016666D01*
X18673333Y-78750000D01*
X19006666Y-79816666D02*
X19006666Y-79416666D01*
X19006666Y-79616666D02*
X18306666Y-79616666D01*
X18406666Y-79550000D01*
X18473333Y-79483333D01*
X18506666Y-79416666D01*
X18306666Y-80450000D02*
X18306666Y-80116666D01*
X18640000Y-80083333D01*
X18606666Y-80116666D01*
X18573333Y-80183333D01*
X18573333Y-80350000D01*
X18606666Y-80416666D01*
X18640000Y-80450000D01*
X18706666Y-80483333D01*
X18873333Y-80483333D01*
X18940000Y-80450000D01*
X18973333Y-80416666D01*
X19006666Y-80350000D01*
X19006666Y-80183333D01*
X18973333Y-80116666D01*
X18940000Y-80083333D01*
G04 #@! TO.C,R16*
X37594000Y-53566666D02*
X37827333Y-53233333D01*
X37994000Y-53566666D02*
X37994000Y-52866666D01*
X37727333Y-52866666D01*
X37660666Y-52900000D01*
X37627333Y-52933333D01*
X37594000Y-53000000D01*
X37594000Y-53100000D01*
X37627333Y-53166666D01*
X37660666Y-53200000D01*
X37727333Y-53233333D01*
X37994000Y-53233333D01*
X36927333Y-53566666D02*
X37327333Y-53566666D01*
X37127333Y-53566666D02*
X37127333Y-52866666D01*
X37194000Y-52966666D01*
X37260666Y-53033333D01*
X37327333Y-53066666D01*
X36327333Y-52866666D02*
X36460666Y-52866666D01*
X36527333Y-52900000D01*
X36560666Y-52933333D01*
X36627333Y-53033333D01*
X36660666Y-53166666D01*
X36660666Y-53433333D01*
X36627333Y-53500000D01*
X36594000Y-53533333D01*
X36527333Y-53566666D01*
X36394000Y-53566666D01*
X36327333Y-53533333D01*
X36294000Y-53500000D01*
X36260666Y-53433333D01*
X36260666Y-53266666D01*
X36294000Y-53200000D01*
X36327333Y-53166666D01*
X36394000Y-53133333D01*
X36527333Y-53133333D01*
X36594000Y-53166666D01*
X36627333Y-53200000D01*
X36660666Y-53266666D01*
G04 #@! TO.C,R17*
X18941666Y-62200000D02*
X18608333Y-61966666D01*
X18941666Y-61800000D02*
X18241666Y-61800000D01*
X18241666Y-62066666D01*
X18275000Y-62133333D01*
X18308333Y-62166666D01*
X18375000Y-62200000D01*
X18475000Y-62200000D01*
X18541666Y-62166666D01*
X18575000Y-62133333D01*
X18608333Y-62066666D01*
X18608333Y-61800000D01*
X18941666Y-62866666D02*
X18941666Y-62466666D01*
X18941666Y-62666666D02*
X18241666Y-62666666D01*
X18341666Y-62600000D01*
X18408333Y-62533333D01*
X18441666Y-62466666D01*
X18241666Y-63100000D02*
X18241666Y-63566666D01*
X18941666Y-63266666D01*
G04 #@! TO.C,R18*
X52250000Y-35016666D02*
X52483333Y-34683333D01*
X52650000Y-35016666D02*
X52650000Y-34316666D01*
X52383333Y-34316666D01*
X52316666Y-34350000D01*
X52283333Y-34383333D01*
X52250000Y-34450000D01*
X52250000Y-34550000D01*
X52283333Y-34616666D01*
X52316666Y-34650000D01*
X52383333Y-34683333D01*
X52650000Y-34683333D01*
X51583333Y-35016666D02*
X51983333Y-35016666D01*
X51783333Y-35016666D02*
X51783333Y-34316666D01*
X51850000Y-34416666D01*
X51916666Y-34483333D01*
X51983333Y-34516666D01*
X51183333Y-34616666D02*
X51250000Y-34583333D01*
X51283333Y-34550000D01*
X51316666Y-34483333D01*
X51316666Y-34450000D01*
X51283333Y-34383333D01*
X51250000Y-34350000D01*
X51183333Y-34316666D01*
X51050000Y-34316666D01*
X50983333Y-34350000D01*
X50950000Y-34383333D01*
X50916666Y-34450000D01*
X50916666Y-34483333D01*
X50950000Y-34550000D01*
X50983333Y-34583333D01*
X51050000Y-34616666D01*
X51183333Y-34616666D01*
X51250000Y-34650000D01*
X51283333Y-34683333D01*
X51316666Y-34750000D01*
X51316666Y-34883333D01*
X51283333Y-34950000D01*
X51250000Y-34983333D01*
X51183333Y-35016666D01*
X51050000Y-35016666D01*
X50983333Y-34983333D01*
X50950000Y-34950000D01*
X50916666Y-34883333D01*
X50916666Y-34750000D01*
X50950000Y-34683333D01*
X50983333Y-34650000D01*
X51050000Y-34616666D01*
G04 #@! TO.C,R19*
X55850000Y-107791666D02*
X56083333Y-107458333D01*
X56250000Y-107791666D02*
X56250000Y-107091666D01*
X55983333Y-107091666D01*
X55916666Y-107125000D01*
X55883333Y-107158333D01*
X55850000Y-107225000D01*
X55850000Y-107325000D01*
X55883333Y-107391666D01*
X55916666Y-107425000D01*
X55983333Y-107458333D01*
X56250000Y-107458333D01*
X55183333Y-107791666D02*
X55583333Y-107791666D01*
X55383333Y-107791666D02*
X55383333Y-107091666D01*
X55450000Y-107191666D01*
X55516666Y-107258333D01*
X55583333Y-107291666D01*
X54850000Y-107791666D02*
X54716666Y-107791666D01*
X54650000Y-107758333D01*
X54616666Y-107725000D01*
X54550000Y-107625000D01*
X54516666Y-107491666D01*
X54516666Y-107225000D01*
X54550000Y-107158333D01*
X54583333Y-107125000D01*
X54650000Y-107091666D01*
X54783333Y-107091666D01*
X54850000Y-107125000D01*
X54883333Y-107158333D01*
X54916666Y-107225000D01*
X54916666Y-107391666D01*
X54883333Y-107458333D01*
X54850000Y-107491666D01*
X54783333Y-107525000D01*
X54650000Y-107525000D01*
X54583333Y-107491666D01*
X54550000Y-107458333D01*
X54516666Y-107391666D01*
G04 #@! TO.C,R20*
X52300000Y-29666666D02*
X52533333Y-29333333D01*
X52700000Y-29666666D02*
X52700000Y-28966666D01*
X52433333Y-28966666D01*
X52366666Y-29000000D01*
X52333333Y-29033333D01*
X52300000Y-29100000D01*
X52300000Y-29200000D01*
X52333333Y-29266666D01*
X52366666Y-29300000D01*
X52433333Y-29333333D01*
X52700000Y-29333333D01*
X52033333Y-29033333D02*
X52000000Y-29000000D01*
X51933333Y-28966666D01*
X51766666Y-28966666D01*
X51700000Y-29000000D01*
X51666666Y-29033333D01*
X51633333Y-29100000D01*
X51633333Y-29166666D01*
X51666666Y-29266666D01*
X52066666Y-29666666D01*
X51633333Y-29666666D01*
X51200000Y-28966666D02*
X51133333Y-28966666D01*
X51066666Y-29000000D01*
X51033333Y-29033333D01*
X51000000Y-29100000D01*
X50966666Y-29233333D01*
X50966666Y-29400000D01*
X51000000Y-29533333D01*
X51033333Y-29600000D01*
X51066666Y-29633333D01*
X51133333Y-29666666D01*
X51200000Y-29666666D01*
X51266666Y-29633333D01*
X51300000Y-29600000D01*
X51333333Y-29533333D01*
X51366666Y-29400000D01*
X51366666Y-29233333D01*
X51333333Y-29100000D01*
X51300000Y-29033333D01*
X51266666Y-29000000D01*
X51200000Y-28966666D01*
G04 #@! TO.C,R21*
X46650000Y-87466666D02*
X46883333Y-87133333D01*
X47050000Y-87466666D02*
X47050000Y-86766666D01*
X46783333Y-86766666D01*
X46716666Y-86800000D01*
X46683333Y-86833333D01*
X46650000Y-86900000D01*
X46650000Y-87000000D01*
X46683333Y-87066666D01*
X46716666Y-87100000D01*
X46783333Y-87133333D01*
X47050000Y-87133333D01*
X46383333Y-86833333D02*
X46350000Y-86800000D01*
X46283333Y-86766666D01*
X46116666Y-86766666D01*
X46050000Y-86800000D01*
X46016666Y-86833333D01*
X45983333Y-86900000D01*
X45983333Y-86966666D01*
X46016666Y-87066666D01*
X46416666Y-87466666D01*
X45983333Y-87466666D01*
X45316666Y-87466666D02*
X45716666Y-87466666D01*
X45516666Y-87466666D02*
X45516666Y-86766666D01*
X45583333Y-86866666D01*
X45650000Y-86933333D01*
X45716666Y-86966666D01*
G04 #@! TO.C,R22*
X29150832Y-21921043D02*
X29384165Y-21587710D01*
X29550832Y-21921043D02*
X29550832Y-21221043D01*
X29284165Y-21221043D01*
X29217498Y-21254377D01*
X29184165Y-21287710D01*
X29150832Y-21354377D01*
X29150832Y-21454377D01*
X29184165Y-21521043D01*
X29217498Y-21554377D01*
X29284165Y-21587710D01*
X29550832Y-21587710D01*
X28884165Y-21287710D02*
X28850832Y-21254377D01*
X28784165Y-21221043D01*
X28617498Y-21221043D01*
X28550832Y-21254377D01*
X28517498Y-21287710D01*
X28484165Y-21354377D01*
X28484165Y-21421043D01*
X28517498Y-21521043D01*
X28917498Y-21921043D01*
X28484165Y-21921043D01*
X28217498Y-21287710D02*
X28184165Y-21254377D01*
X28117498Y-21221043D01*
X27950832Y-21221043D01*
X27884165Y-21254377D01*
X27850832Y-21287710D01*
X27817498Y-21354377D01*
X27817498Y-21421043D01*
X27850832Y-21521043D01*
X28250832Y-21921043D01*
X27817498Y-21921043D01*
G04 #@! TO.C,R23*
X37650000Y-76666666D02*
X37883333Y-76333333D01*
X38050000Y-76666666D02*
X38050000Y-75966666D01*
X37783333Y-75966666D01*
X37716666Y-76000000D01*
X37683333Y-76033333D01*
X37650000Y-76100000D01*
X37650000Y-76200000D01*
X37683333Y-76266666D01*
X37716666Y-76300000D01*
X37783333Y-76333333D01*
X38050000Y-76333333D01*
X37383333Y-76033333D02*
X37350000Y-76000000D01*
X37283333Y-75966666D01*
X37116666Y-75966666D01*
X37050000Y-76000000D01*
X37016666Y-76033333D01*
X36983333Y-76100000D01*
X36983333Y-76166666D01*
X37016666Y-76266666D01*
X37416666Y-76666666D01*
X36983333Y-76666666D01*
X36750000Y-75966666D02*
X36316666Y-75966666D01*
X36550000Y-76233333D01*
X36450000Y-76233333D01*
X36383333Y-76266666D01*
X36350000Y-76300000D01*
X36316666Y-76366666D01*
X36316666Y-76533333D01*
X36350000Y-76600000D01*
X36383333Y-76633333D01*
X36450000Y-76666666D01*
X36650000Y-76666666D01*
X36716666Y-76633333D01*
X36750000Y-76600000D01*
G04 #@! TO.C,R24*
X49231223Y-21899985D02*
X49464556Y-21566652D01*
X49631223Y-21899985D02*
X49631223Y-21199985D01*
X49364556Y-21199985D01*
X49297889Y-21233319D01*
X49264556Y-21266652D01*
X49231223Y-21333319D01*
X49231223Y-21433319D01*
X49264556Y-21499985D01*
X49297889Y-21533319D01*
X49364556Y-21566652D01*
X49631223Y-21566652D01*
X48964556Y-21266652D02*
X48931223Y-21233319D01*
X48864556Y-21199985D01*
X48697889Y-21199985D01*
X48631223Y-21233319D01*
X48597889Y-21266652D01*
X48564556Y-21333319D01*
X48564556Y-21399985D01*
X48597889Y-21499985D01*
X48997889Y-21899985D01*
X48564556Y-21899985D01*
X47964556Y-21433319D02*
X47964556Y-21899985D01*
X48131223Y-21166652D02*
X48297889Y-21666652D01*
X47864556Y-21666652D01*
G04 #@! TO.C,R25*
X19046666Y-81350000D02*
X18713333Y-81116666D01*
X19046666Y-80950000D02*
X18346666Y-80950000D01*
X18346666Y-81216666D01*
X18380000Y-81283333D01*
X18413333Y-81316666D01*
X18480000Y-81350000D01*
X18580000Y-81350000D01*
X18646666Y-81316666D01*
X18680000Y-81283333D01*
X18713333Y-81216666D01*
X18713333Y-80950000D01*
X18413333Y-81616666D02*
X18380000Y-81650000D01*
X18346666Y-81716666D01*
X18346666Y-81883333D01*
X18380000Y-81950000D01*
X18413333Y-81983333D01*
X18480000Y-82016666D01*
X18546666Y-82016666D01*
X18646666Y-81983333D01*
X19046666Y-81583333D01*
X19046666Y-82016666D01*
X18346666Y-82650000D02*
X18346666Y-82316666D01*
X18680000Y-82283333D01*
X18646666Y-82316666D01*
X18613333Y-82383333D01*
X18613333Y-82550000D01*
X18646666Y-82616666D01*
X18680000Y-82650000D01*
X18746666Y-82683333D01*
X18913333Y-82683333D01*
X18980000Y-82650000D01*
X19013333Y-82616666D01*
X19046666Y-82550000D01*
X19046666Y-82383333D01*
X19013333Y-82316666D01*
X18980000Y-82283333D01*
G04 #@! TO.C,R26*
X29020078Y-42209370D02*
X29253411Y-41876037D01*
X29420078Y-42209370D02*
X29420078Y-41509370D01*
X29153411Y-41509370D01*
X29086744Y-41542704D01*
X29053411Y-41576037D01*
X29020078Y-41642704D01*
X29020078Y-41742704D01*
X29053411Y-41809370D01*
X29086744Y-41842704D01*
X29153411Y-41876037D01*
X29420078Y-41876037D01*
X28753411Y-41576037D02*
X28720078Y-41542704D01*
X28653411Y-41509370D01*
X28486744Y-41509370D01*
X28420078Y-41542704D01*
X28386744Y-41576037D01*
X28353411Y-41642704D01*
X28353411Y-41709370D01*
X28386744Y-41809370D01*
X28786744Y-42209370D01*
X28353411Y-42209370D01*
X27753411Y-41509370D02*
X27886744Y-41509370D01*
X27953411Y-41542704D01*
X27986744Y-41576037D01*
X28053411Y-41676037D01*
X28086744Y-41809370D01*
X28086744Y-42076037D01*
X28053411Y-42142704D01*
X28020078Y-42176037D01*
X27953411Y-42209370D01*
X27820078Y-42209370D01*
X27753411Y-42176037D01*
X27720078Y-42142704D01*
X27686744Y-42076037D01*
X27686744Y-41909370D01*
X27720078Y-41842704D01*
X27753411Y-41809370D01*
X27820078Y-41776037D01*
X27953411Y-41776037D01*
X28020078Y-41809370D01*
X28053411Y-41842704D01*
X28086744Y-41909370D01*
G04 #@! TO.C,R27*
X37827000Y-58701666D02*
X38060333Y-58368333D01*
X38227000Y-58701666D02*
X38227000Y-58001666D01*
X37960333Y-58001666D01*
X37893666Y-58035000D01*
X37860333Y-58068333D01*
X37827000Y-58135000D01*
X37827000Y-58235000D01*
X37860333Y-58301666D01*
X37893666Y-58335000D01*
X37960333Y-58368333D01*
X38227000Y-58368333D01*
X37560333Y-58068333D02*
X37527000Y-58035000D01*
X37460333Y-58001666D01*
X37293666Y-58001666D01*
X37227000Y-58035000D01*
X37193666Y-58068333D01*
X37160333Y-58135000D01*
X37160333Y-58201666D01*
X37193666Y-58301666D01*
X37593666Y-58701666D01*
X37160333Y-58701666D01*
X36927000Y-58001666D02*
X36460333Y-58001666D01*
X36760333Y-58701666D01*
G04 #@! TO.C,R28*
X47167000Y-42627666D02*
X47400333Y-42294333D01*
X47567000Y-42627666D02*
X47567000Y-41927666D01*
X47300333Y-41927666D01*
X47233666Y-41961000D01*
X47200333Y-41994333D01*
X47167000Y-42061000D01*
X47167000Y-42161000D01*
X47200333Y-42227666D01*
X47233666Y-42261000D01*
X47300333Y-42294333D01*
X47567000Y-42294333D01*
X46900333Y-41994333D02*
X46867000Y-41961000D01*
X46800333Y-41927666D01*
X46633666Y-41927666D01*
X46567000Y-41961000D01*
X46533666Y-41994333D01*
X46500333Y-42061000D01*
X46500333Y-42127666D01*
X46533666Y-42227666D01*
X46933666Y-42627666D01*
X46500333Y-42627666D01*
X46100333Y-42227666D02*
X46167000Y-42194333D01*
X46200333Y-42161000D01*
X46233666Y-42094333D01*
X46233666Y-42061000D01*
X46200333Y-41994333D01*
X46167000Y-41961000D01*
X46100333Y-41927666D01*
X45967000Y-41927666D01*
X45900333Y-41961000D01*
X45867000Y-41994333D01*
X45833666Y-42061000D01*
X45833666Y-42094333D01*
X45867000Y-42161000D01*
X45900333Y-42194333D01*
X45967000Y-42227666D01*
X46100333Y-42227666D01*
X46167000Y-42261000D01*
X46200333Y-42294333D01*
X46233666Y-42361000D01*
X46233666Y-42494333D01*
X46200333Y-42561000D01*
X46167000Y-42594333D01*
X46100333Y-42627666D01*
X45967000Y-42627666D01*
X45900333Y-42594333D01*
X45867000Y-42561000D01*
X45833666Y-42494333D01*
X45833666Y-42361000D01*
X45867000Y-42294333D01*
X45900333Y-42261000D01*
X45967000Y-42227666D01*
G04 #@! TO.C,R29*
X19341666Y-64675000D02*
X19008333Y-64441666D01*
X19341666Y-64275000D02*
X18641666Y-64275000D01*
X18641666Y-64541666D01*
X18675000Y-64608333D01*
X18708333Y-64641666D01*
X18775000Y-64675000D01*
X18875000Y-64675000D01*
X18941666Y-64641666D01*
X18975000Y-64608333D01*
X19008333Y-64541666D01*
X19008333Y-64275000D01*
X18708333Y-64941666D02*
X18675000Y-64975000D01*
X18641666Y-65041666D01*
X18641666Y-65208333D01*
X18675000Y-65275000D01*
X18708333Y-65308333D01*
X18775000Y-65341666D01*
X18841666Y-65341666D01*
X18941666Y-65308333D01*
X19341666Y-64908333D01*
X19341666Y-65341666D01*
X19341666Y-65675000D02*
X19341666Y-65808333D01*
X19308333Y-65875000D01*
X19275000Y-65908333D01*
X19175000Y-65975000D01*
X19041666Y-66008333D01*
X18775000Y-66008333D01*
X18708333Y-65975000D01*
X18675000Y-65941666D01*
X18641666Y-65875000D01*
X18641666Y-65741666D01*
X18675000Y-65675000D01*
X18708333Y-65641666D01*
X18775000Y-65608333D01*
X18941666Y-65608333D01*
X19008333Y-65641666D01*
X19041666Y-65675000D01*
X19075000Y-65741666D01*
X19075000Y-65875000D01*
X19041666Y-65941666D01*
X19008333Y-65975000D01*
X18941666Y-66008333D01*
G04 #@! TO.C,R30*
X55822000Y-105472666D02*
X56055333Y-105139333D01*
X56222000Y-105472666D02*
X56222000Y-104772666D01*
X55955333Y-104772666D01*
X55888666Y-104806000D01*
X55855333Y-104839333D01*
X55822000Y-104906000D01*
X55822000Y-105006000D01*
X55855333Y-105072666D01*
X55888666Y-105106000D01*
X55955333Y-105139333D01*
X56222000Y-105139333D01*
X55588666Y-104772666D02*
X55155333Y-104772666D01*
X55388666Y-105039333D01*
X55288666Y-105039333D01*
X55222000Y-105072666D01*
X55188666Y-105106000D01*
X55155333Y-105172666D01*
X55155333Y-105339333D01*
X55188666Y-105406000D01*
X55222000Y-105439333D01*
X55288666Y-105472666D01*
X55488666Y-105472666D01*
X55555333Y-105439333D01*
X55588666Y-105406000D01*
X54722000Y-104772666D02*
X54655333Y-104772666D01*
X54588666Y-104806000D01*
X54555333Y-104839333D01*
X54522000Y-104906000D01*
X54488666Y-105039333D01*
X54488666Y-105206000D01*
X54522000Y-105339333D01*
X54555333Y-105406000D01*
X54588666Y-105439333D01*
X54655333Y-105472666D01*
X54722000Y-105472666D01*
X54788666Y-105439333D01*
X54822000Y-105406000D01*
X54855333Y-105339333D01*
X54888666Y-105206000D01*
X54888666Y-105039333D01*
X54855333Y-104906000D01*
X54822000Y-104839333D01*
X54788666Y-104806000D01*
X54722000Y-104772666D01*
G04 #@! TO.C,R31*
X46650000Y-89891666D02*
X46883333Y-89558333D01*
X47050000Y-89891666D02*
X47050000Y-89191666D01*
X46783333Y-89191666D01*
X46716666Y-89225000D01*
X46683333Y-89258333D01*
X46650000Y-89325000D01*
X46650000Y-89425000D01*
X46683333Y-89491666D01*
X46716666Y-89525000D01*
X46783333Y-89558333D01*
X47050000Y-89558333D01*
X46416666Y-89191666D02*
X45983333Y-89191666D01*
X46216666Y-89458333D01*
X46116666Y-89458333D01*
X46050000Y-89491666D01*
X46016666Y-89525000D01*
X45983333Y-89591666D01*
X45983333Y-89758333D01*
X46016666Y-89825000D01*
X46050000Y-89858333D01*
X46116666Y-89891666D01*
X46316666Y-89891666D01*
X46383333Y-89858333D01*
X46416666Y-89825000D01*
X45316666Y-89891666D02*
X45716666Y-89891666D01*
X45516666Y-89891666D02*
X45516666Y-89191666D01*
X45583333Y-89291666D01*
X45650000Y-89358333D01*
X45716666Y-89391666D01*
G04 #@! TO.C,R32*
X37509000Y-83216666D02*
X37742333Y-82883333D01*
X37909000Y-83216666D02*
X37909000Y-82516666D01*
X37642333Y-82516666D01*
X37575666Y-82550000D01*
X37542333Y-82583333D01*
X37509000Y-82650000D01*
X37509000Y-82750000D01*
X37542333Y-82816666D01*
X37575666Y-82850000D01*
X37642333Y-82883333D01*
X37909000Y-82883333D01*
X37275666Y-82516666D02*
X36842333Y-82516666D01*
X37075666Y-82783333D01*
X36975666Y-82783333D01*
X36909000Y-82816666D01*
X36875666Y-82850000D01*
X36842333Y-82916666D01*
X36842333Y-83083333D01*
X36875666Y-83150000D01*
X36909000Y-83183333D01*
X36975666Y-83216666D01*
X37175666Y-83216666D01*
X37242333Y-83183333D01*
X37275666Y-83150000D01*
X36575666Y-82583333D02*
X36542333Y-82550000D01*
X36475666Y-82516666D01*
X36309000Y-82516666D01*
X36242333Y-82550000D01*
X36209000Y-82583333D01*
X36175666Y-82650000D01*
X36175666Y-82716666D01*
X36209000Y-82816666D01*
X36609000Y-83216666D01*
X36175666Y-83216666D01*
G04 #@! TO.C,R33*
X18716666Y-67550000D02*
X18383333Y-67316666D01*
X18716666Y-67150000D02*
X18016666Y-67150000D01*
X18016666Y-67416666D01*
X18050000Y-67483333D01*
X18083333Y-67516666D01*
X18150000Y-67550000D01*
X18250000Y-67550000D01*
X18316666Y-67516666D01*
X18350000Y-67483333D01*
X18383333Y-67416666D01*
X18383333Y-67150000D01*
X18016666Y-67783333D02*
X18016666Y-68216666D01*
X18283333Y-67983333D01*
X18283333Y-68083333D01*
X18316666Y-68150000D01*
X18350000Y-68183333D01*
X18416666Y-68216666D01*
X18583333Y-68216666D01*
X18650000Y-68183333D01*
X18683333Y-68150000D01*
X18716666Y-68083333D01*
X18716666Y-67883333D01*
X18683333Y-67816666D01*
X18650000Y-67783333D01*
X18016666Y-68450000D02*
X18016666Y-68883333D01*
X18283333Y-68650000D01*
X18283333Y-68750000D01*
X18316666Y-68816666D01*
X18350000Y-68850000D01*
X18416666Y-68883333D01*
X18583333Y-68883333D01*
X18650000Y-68850000D01*
X18683333Y-68816666D01*
X18716666Y-68750000D01*
X18716666Y-68550000D01*
X18683333Y-68483333D01*
X18650000Y-68450000D01*
G04 #@! TO.C,R34*
X37573000Y-65559666D02*
X37806333Y-65226333D01*
X37973000Y-65559666D02*
X37973000Y-64859666D01*
X37706333Y-64859666D01*
X37639666Y-64893000D01*
X37606333Y-64926333D01*
X37573000Y-64993000D01*
X37573000Y-65093000D01*
X37606333Y-65159666D01*
X37639666Y-65193000D01*
X37706333Y-65226333D01*
X37973000Y-65226333D01*
X37339666Y-64859666D02*
X36906333Y-64859666D01*
X37139666Y-65126333D01*
X37039666Y-65126333D01*
X36973000Y-65159666D01*
X36939666Y-65193000D01*
X36906333Y-65259666D01*
X36906333Y-65426333D01*
X36939666Y-65493000D01*
X36973000Y-65526333D01*
X37039666Y-65559666D01*
X37239666Y-65559666D01*
X37306333Y-65526333D01*
X37339666Y-65493000D01*
X36306333Y-65093000D02*
X36306333Y-65559666D01*
X36473000Y-64826333D02*
X36639666Y-65326333D01*
X36206333Y-65326333D01*
G04 #@! TO.C,R35*
X19266666Y-51025000D02*
X18933333Y-50791666D01*
X19266666Y-50625000D02*
X18566666Y-50625000D01*
X18566666Y-50891666D01*
X18600000Y-50958333D01*
X18633333Y-50991666D01*
X18700000Y-51025000D01*
X18800000Y-51025000D01*
X18866666Y-50991666D01*
X18900000Y-50958333D01*
X18933333Y-50891666D01*
X18933333Y-50625000D01*
X18566666Y-51258333D02*
X18566666Y-51691666D01*
X18833333Y-51458333D01*
X18833333Y-51558333D01*
X18866666Y-51625000D01*
X18900000Y-51658333D01*
X18966666Y-51691666D01*
X19133333Y-51691666D01*
X19200000Y-51658333D01*
X19233333Y-51625000D01*
X19266666Y-51558333D01*
X19266666Y-51358333D01*
X19233333Y-51291666D01*
X19200000Y-51258333D01*
X18566666Y-52325000D02*
X18566666Y-51991666D01*
X18900000Y-51958333D01*
X18866666Y-51991666D01*
X18833333Y-52058333D01*
X18833333Y-52225000D01*
X18866666Y-52291666D01*
X18900000Y-52325000D01*
X18966666Y-52358333D01*
X19133333Y-52358333D01*
X19200000Y-52325000D01*
X19233333Y-52291666D01*
X19266666Y-52225000D01*
X19266666Y-52058333D01*
X19233333Y-51991666D01*
X19200000Y-51958333D01*
G04 #@! TO.C,R36*
X37544000Y-81116666D02*
X37777333Y-80783333D01*
X37944000Y-81116666D02*
X37944000Y-80416666D01*
X37677333Y-80416666D01*
X37610666Y-80450000D01*
X37577333Y-80483333D01*
X37544000Y-80550000D01*
X37544000Y-80650000D01*
X37577333Y-80716666D01*
X37610666Y-80750000D01*
X37677333Y-80783333D01*
X37944000Y-80783333D01*
X37310666Y-80416666D02*
X36877333Y-80416666D01*
X37110666Y-80683333D01*
X37010666Y-80683333D01*
X36944000Y-80716666D01*
X36910666Y-80750000D01*
X36877333Y-80816666D01*
X36877333Y-80983333D01*
X36910666Y-81050000D01*
X36944000Y-81083333D01*
X37010666Y-81116666D01*
X37210666Y-81116666D01*
X37277333Y-81083333D01*
X37310666Y-81050000D01*
X36277333Y-80416666D02*
X36410666Y-80416666D01*
X36477333Y-80450000D01*
X36510666Y-80483333D01*
X36577333Y-80583333D01*
X36610666Y-80716666D01*
X36610666Y-80983333D01*
X36577333Y-81050000D01*
X36544000Y-81083333D01*
X36477333Y-81116666D01*
X36344000Y-81116666D01*
X36277333Y-81083333D01*
X36244000Y-81050000D01*
X36210666Y-80983333D01*
X36210666Y-80816666D01*
X36244000Y-80750000D01*
X36277333Y-80716666D01*
X36344000Y-80683333D01*
X36477333Y-80683333D01*
X36544000Y-80716666D01*
X36577333Y-80750000D01*
X36610666Y-80816666D01*
G04 #@! TO.C,R37*
X19066666Y-70050000D02*
X18733333Y-69816666D01*
X19066666Y-69650000D02*
X18366666Y-69650000D01*
X18366666Y-69916666D01*
X18400000Y-69983333D01*
X18433333Y-70016666D01*
X18500000Y-70050000D01*
X18600000Y-70050000D01*
X18666666Y-70016666D01*
X18700000Y-69983333D01*
X18733333Y-69916666D01*
X18733333Y-69650000D01*
X18366666Y-70283333D02*
X18366666Y-70716666D01*
X18633333Y-70483333D01*
X18633333Y-70583333D01*
X18666666Y-70650000D01*
X18700000Y-70683333D01*
X18766666Y-70716666D01*
X18933333Y-70716666D01*
X19000000Y-70683333D01*
X19033333Y-70650000D01*
X19066666Y-70583333D01*
X19066666Y-70383333D01*
X19033333Y-70316666D01*
X19000000Y-70283333D01*
X18366666Y-70950000D02*
X18366666Y-71416666D01*
X19066666Y-71116666D01*
G04 #@! TO.C,R38*
X37569000Y-63116666D02*
X37802333Y-62783333D01*
X37969000Y-63116666D02*
X37969000Y-62416666D01*
X37702333Y-62416666D01*
X37635666Y-62450000D01*
X37602333Y-62483333D01*
X37569000Y-62550000D01*
X37569000Y-62650000D01*
X37602333Y-62716666D01*
X37635666Y-62750000D01*
X37702333Y-62783333D01*
X37969000Y-62783333D01*
X37335666Y-62416666D02*
X36902333Y-62416666D01*
X37135666Y-62683333D01*
X37035666Y-62683333D01*
X36969000Y-62716666D01*
X36935666Y-62750000D01*
X36902333Y-62816666D01*
X36902333Y-62983333D01*
X36935666Y-63050000D01*
X36969000Y-63083333D01*
X37035666Y-63116666D01*
X37235666Y-63116666D01*
X37302333Y-63083333D01*
X37335666Y-63050000D01*
X36502333Y-62716666D02*
X36569000Y-62683333D01*
X36602333Y-62650000D01*
X36635666Y-62583333D01*
X36635666Y-62550000D01*
X36602333Y-62483333D01*
X36569000Y-62450000D01*
X36502333Y-62416666D01*
X36369000Y-62416666D01*
X36302333Y-62450000D01*
X36269000Y-62483333D01*
X36235666Y-62550000D01*
X36235666Y-62583333D01*
X36269000Y-62650000D01*
X36302333Y-62683333D01*
X36369000Y-62716666D01*
X36502333Y-62716666D01*
X36569000Y-62750000D01*
X36602333Y-62783333D01*
X36635666Y-62850000D01*
X36635666Y-62983333D01*
X36602333Y-63050000D01*
X36569000Y-63083333D01*
X36502333Y-63116666D01*
X36369000Y-63116666D01*
X36302333Y-63083333D01*
X36269000Y-63050000D01*
X36235666Y-62983333D01*
X36235666Y-62850000D01*
X36269000Y-62783333D01*
X36302333Y-62750000D01*
X36369000Y-62716666D01*
G04 #@! TO.C,R39*
X19291666Y-53400000D02*
X18958333Y-53166666D01*
X19291666Y-53000000D02*
X18591666Y-53000000D01*
X18591666Y-53266666D01*
X18625000Y-53333333D01*
X18658333Y-53366666D01*
X18725000Y-53400000D01*
X18825000Y-53400000D01*
X18891666Y-53366666D01*
X18925000Y-53333333D01*
X18958333Y-53266666D01*
X18958333Y-53000000D01*
X18591666Y-53633333D02*
X18591666Y-54066666D01*
X18858333Y-53833333D01*
X18858333Y-53933333D01*
X18891666Y-54000000D01*
X18925000Y-54033333D01*
X18991666Y-54066666D01*
X19158333Y-54066666D01*
X19225000Y-54033333D01*
X19258333Y-54000000D01*
X19291666Y-53933333D01*
X19291666Y-53733333D01*
X19258333Y-53666666D01*
X19225000Y-53633333D01*
X19291666Y-54400000D02*
X19291666Y-54533333D01*
X19258333Y-54600000D01*
X19225000Y-54633333D01*
X19125000Y-54700000D01*
X18991666Y-54733333D01*
X18725000Y-54733333D01*
X18658333Y-54700000D01*
X18625000Y-54666666D01*
X18591666Y-54600000D01*
X18591666Y-54466666D01*
X18625000Y-54400000D01*
X18658333Y-54366666D01*
X18725000Y-54333333D01*
X18891666Y-54333333D01*
X18958333Y-54366666D01*
X18991666Y-54400000D01*
X19025000Y-54466666D01*
X19025000Y-54600000D01*
X18991666Y-54666666D01*
X18958333Y-54700000D01*
X18891666Y-54733333D01*
G04 #@! TO.C,U1*
D13*
X42925904Y-36577380D02*
X42925904Y-37386904D01*
X42878285Y-37482142D01*
X42830666Y-37529761D01*
X42735428Y-37577380D01*
X42544952Y-37577380D01*
X42449714Y-37529761D01*
X42402095Y-37482142D01*
X42354476Y-37386904D01*
X42354476Y-36577380D01*
X41354476Y-37577380D02*
X41925904Y-37577380D01*
X41640190Y-37577380D02*
X41640190Y-36577380D01*
X41735428Y-36720238D01*
X41830666Y-36815476D01*
X41925904Y-36863095D01*
G04 #@! TO.C,U2*
X28447904Y-80601380D02*
X28447904Y-81410904D01*
X28400285Y-81506142D01*
X28352666Y-81553761D01*
X28257428Y-81601380D01*
X28066952Y-81601380D01*
X27971714Y-81553761D01*
X27924095Y-81506142D01*
X27876476Y-81410904D01*
X27876476Y-80601380D01*
X27447904Y-80696619D02*
X27400285Y-80649000D01*
X27305047Y-80601380D01*
X27066952Y-80601380D01*
X26971714Y-80649000D01*
X26924095Y-80696619D01*
X26876476Y-80791857D01*
X26876476Y-80887095D01*
X26924095Y-81029952D01*
X27495523Y-81601380D01*
X26876476Y-81601380D01*
G04 #@! TO.C,U3*
X28511904Y-62847380D02*
X28511904Y-63656904D01*
X28464285Y-63752142D01*
X28416666Y-63799761D01*
X28321428Y-63847380D01*
X28130952Y-63847380D01*
X28035714Y-63799761D01*
X27988095Y-63752142D01*
X27940476Y-63656904D01*
X27940476Y-62847380D01*
X27559523Y-62847380D02*
X26940476Y-62847380D01*
X27273809Y-63228333D01*
X27130952Y-63228333D01*
X27035714Y-63275952D01*
X26988095Y-63323571D01*
X26940476Y-63418809D01*
X26940476Y-63656904D01*
X26988095Y-63752142D01*
X27035714Y-63799761D01*
X27130952Y-63847380D01*
X27416666Y-63847380D01*
X27511904Y-63799761D01*
X27559523Y-63752142D01*
G04 #@! TO.C,RV5*
X48445238Y-72377380D02*
X48778571Y-71901190D01*
X49016666Y-72377380D02*
X49016666Y-71377380D01*
X48635714Y-71377380D01*
X48540476Y-71425000D01*
X48492857Y-71472619D01*
X48445238Y-71567857D01*
X48445238Y-71710714D01*
X48492857Y-71805952D01*
X48540476Y-71853571D01*
X48635714Y-71901190D01*
X49016666Y-71901190D01*
X48159523Y-71377380D02*
X47826190Y-72377380D01*
X47492857Y-71377380D01*
X46683333Y-71377380D02*
X47159523Y-71377380D01*
X47207142Y-71853571D01*
X47159523Y-71805952D01*
X47064285Y-71758333D01*
X46826190Y-71758333D01*
X46730952Y-71805952D01*
X46683333Y-71853571D01*
X46635714Y-71948809D01*
X46635714Y-72186904D01*
X46683333Y-72282142D01*
X46730952Y-72329761D01*
X46826190Y-72377380D01*
X47064285Y-72377380D01*
X47159523Y-72329761D01*
X47207142Y-72282142D01*
G04 #@! TO.C,RV6*
X55520238Y-72577380D02*
X55853571Y-72101190D01*
X56091666Y-72577380D02*
X56091666Y-71577380D01*
X55710714Y-71577380D01*
X55615476Y-71625000D01*
X55567857Y-71672619D01*
X55520238Y-71767857D01*
X55520238Y-71910714D01*
X55567857Y-72005952D01*
X55615476Y-72053571D01*
X55710714Y-72101190D01*
X56091666Y-72101190D01*
X55234523Y-71577380D02*
X54901190Y-72577380D01*
X54567857Y-71577380D01*
X53805952Y-71577380D02*
X53996428Y-71577380D01*
X54091666Y-71625000D01*
X54139285Y-71672619D01*
X54234523Y-71815476D01*
X54282142Y-72005952D01*
X54282142Y-72386904D01*
X54234523Y-72482142D01*
X54186904Y-72529761D01*
X54091666Y-72577380D01*
X53901190Y-72577380D01*
X53805952Y-72529761D01*
X53758333Y-72482142D01*
X53710714Y-72386904D01*
X53710714Y-72148809D01*
X53758333Y-72053571D01*
X53805952Y-72005952D01*
X53901190Y-71958333D01*
X54091666Y-71958333D01*
X54186904Y-72005952D01*
X54234523Y-72053571D01*
X54282142Y-72148809D01*
G04 #@! TO.C,RV7*
X46627380Y-65804761D02*
X46151190Y-65471428D01*
X46627380Y-65233333D02*
X45627380Y-65233333D01*
X45627380Y-65614285D01*
X45675000Y-65709523D01*
X45722619Y-65757142D01*
X45817857Y-65804761D01*
X45960714Y-65804761D01*
X46055952Y-65757142D01*
X46103571Y-65709523D01*
X46151190Y-65614285D01*
X46151190Y-65233333D01*
X45627380Y-66090476D02*
X46627380Y-66423809D01*
X45627380Y-66757142D01*
X45627380Y-66995238D02*
X45627380Y-67661904D01*
X46627380Y-67233333D01*
G04 #@! TO.C,RV8*
X39677380Y-80379761D02*
X39201190Y-80046428D01*
X39677380Y-79808333D02*
X38677380Y-79808333D01*
X38677380Y-80189285D01*
X38725000Y-80284523D01*
X38772619Y-80332142D01*
X38867857Y-80379761D01*
X39010714Y-80379761D01*
X39105952Y-80332142D01*
X39153571Y-80284523D01*
X39201190Y-80189285D01*
X39201190Y-79808333D01*
X38677380Y-80665476D02*
X39677380Y-80998809D01*
X38677380Y-81332142D01*
X39105952Y-81808333D02*
X39058333Y-81713095D01*
X39010714Y-81665476D01*
X38915476Y-81617857D01*
X38867857Y-81617857D01*
X38772619Y-81665476D01*
X38725000Y-81713095D01*
X38677380Y-81808333D01*
X38677380Y-81998809D01*
X38725000Y-82094047D01*
X38772619Y-82141666D01*
X38867857Y-82189285D01*
X38915476Y-82189285D01*
X39010714Y-82141666D01*
X39058333Y-82094047D01*
X39105952Y-81998809D01*
X39105952Y-81808333D01*
X39153571Y-81713095D01*
X39201190Y-81665476D01*
X39296428Y-81617857D01*
X39486904Y-81617857D01*
X39582142Y-81665476D01*
X39629761Y-81713095D01*
X39677380Y-81808333D01*
X39677380Y-81998809D01*
X39629761Y-82094047D01*
X39582142Y-82141666D01*
X39486904Y-82189285D01*
X39296428Y-82189285D01*
X39201190Y-82141666D01*
X39153571Y-82094047D01*
X39105952Y-81998809D01*
G04 #@! TO.C,C13*
X48542857Y-102207142D02*
X48590476Y-102254761D01*
X48733333Y-102302380D01*
X48828571Y-102302380D01*
X48971428Y-102254761D01*
X49066666Y-102159523D01*
X49114285Y-102064285D01*
X49161904Y-101873809D01*
X49161904Y-101730952D01*
X49114285Y-101540476D01*
X49066666Y-101445238D01*
X48971428Y-101350000D01*
X48828571Y-101302380D01*
X48733333Y-101302380D01*
X48590476Y-101350000D01*
X48542857Y-101397619D01*
X47590476Y-102302380D02*
X48161904Y-102302380D01*
X47876190Y-102302380D02*
X47876190Y-101302380D01*
X47971428Y-101445238D01*
X48066666Y-101540476D01*
X48161904Y-101588095D01*
X47257142Y-101302380D02*
X46638095Y-101302380D01*
X46971428Y-101683333D01*
X46828571Y-101683333D01*
X46733333Y-101730952D01*
X46685714Y-101778571D01*
X46638095Y-101873809D01*
X46638095Y-102111904D01*
X46685714Y-102207142D01*
X46733333Y-102254761D01*
X46828571Y-102302380D01*
X47114285Y-102302380D01*
X47209523Y-102254761D01*
X47257142Y-102207142D01*
G04 #@! TO.C,C17*
X19117142Y-40187142D02*
X19164761Y-40139523D01*
X19212380Y-39996666D01*
X19212380Y-39901428D01*
X19164761Y-39758571D01*
X19069523Y-39663333D01*
X18974285Y-39615714D01*
X18783809Y-39568095D01*
X18640952Y-39568095D01*
X18450476Y-39615714D01*
X18355238Y-39663333D01*
X18260000Y-39758571D01*
X18212380Y-39901428D01*
X18212380Y-39996666D01*
X18260000Y-40139523D01*
X18307619Y-40187142D01*
X19212380Y-41139523D02*
X19212380Y-40568095D01*
X19212380Y-40853809D02*
X18212380Y-40853809D01*
X18355238Y-40758571D01*
X18450476Y-40663333D01*
X18498095Y-40568095D01*
X18212380Y-41472857D02*
X18212380Y-42139523D01*
X19212380Y-41710952D01*
G04 #@! TO.C,C18*
X36977142Y-43457142D02*
X37024761Y-43409523D01*
X37072380Y-43266666D01*
X37072380Y-43171428D01*
X37024761Y-43028571D01*
X36929523Y-42933333D01*
X36834285Y-42885714D01*
X36643809Y-42838095D01*
X36500952Y-42838095D01*
X36310476Y-42885714D01*
X36215238Y-42933333D01*
X36120000Y-43028571D01*
X36072380Y-43171428D01*
X36072380Y-43266666D01*
X36120000Y-43409523D01*
X36167619Y-43457142D01*
X37072380Y-44409523D02*
X37072380Y-43838095D01*
X37072380Y-44123809D02*
X36072380Y-44123809D01*
X36215238Y-44028571D01*
X36310476Y-43933333D01*
X36358095Y-43838095D01*
X36500952Y-44980952D02*
X36453333Y-44885714D01*
X36405714Y-44838095D01*
X36310476Y-44790476D01*
X36262857Y-44790476D01*
X36167619Y-44838095D01*
X36120000Y-44885714D01*
X36072380Y-44980952D01*
X36072380Y-45171428D01*
X36120000Y-45266666D01*
X36167619Y-45314285D01*
X36262857Y-45361904D01*
X36310476Y-45361904D01*
X36405714Y-45314285D01*
X36453333Y-45266666D01*
X36500952Y-45171428D01*
X36500952Y-44980952D01*
X36548571Y-44885714D01*
X36596190Y-44838095D01*
X36691428Y-44790476D01*
X36881904Y-44790476D01*
X36977142Y-44838095D01*
X37024761Y-44885714D01*
X37072380Y-44980952D01*
X37072380Y-45171428D01*
X37024761Y-45266666D01*
X36977142Y-45314285D01*
X36881904Y-45361904D01*
X36691428Y-45361904D01*
X36596190Y-45314285D01*
X36548571Y-45266666D01*
X36500952Y-45171428D01*
G04 #@! TD*
M02*
