M48
; DRILL file {KiCad (5.1.9)-1} date 03/20/21 12:49:26
; FORMAT={-:-/ absolute / inch / decimal}
; #@! TF.CreationDate,2021-03-20T12:49:26+00:00
; #@! TF.GenerationSoftware,Kicad,Pcbnew,(5.1.9)-1
; #@! TF.FileFunction,Plated,1,2,PTH
FMAT,2
INCH
T1C0.0157
T2C0.0295
T3C0.0315
T4C0.0354
T5C0.0394
T6C0.0400
T7C0.0433
T8C0.0551
T9C0.0709
%
G90
G05
T1
X0.7463Y-2.8996
X0.7657Y-3.3238
X0.7953Y-2.626
X0.8425Y-2.3346
X0.873Y-4.2844
X0.9301Y-2.2843
X0.9301Y-2.9616
X0.9321Y-2.3386
X0.9331Y-2.2392
X0.9508Y-3.8543
X0.9656Y-2.0079
X0.9736Y-1.7646
X0.9781Y-1.9282
X0.9803Y-1.9675
X0.9833Y-2.5069
X0.9843Y-4.0984
X1.0305Y-2.2343
X1.0354Y-3.0846
X1.0404Y-2.7352
X1.0463Y-3.5866
X1.0896Y-2.6447
X1.123Y-2.5
X1.1319Y-3.0817
X1.1506Y-2.2362
X1.1535Y-2.7844
X1.1555Y-2.4744
X1.1628Y-1.9094
X1.2116Y-2.5315
X1.2156Y-3.4872
X1.2549Y-3.2215
X1.2569Y-3.0413
X1.2589Y-2.3533
X1.2589Y-2.9724
X1.2884Y-3.3228
X1.312Y-2.622
X1.3455Y-3.311
X1.3612Y-3.5404
X1.373Y-3.6693
X1.4189Y-2.247
X1.4372Y-2.6888
X1.438Y-3.0492
X1.439Y-2.3455
X1.4498Y-2.9222
X1.4528Y-3.5276
X1.4626Y-3.4852
X1.4884Y-1.4787
X1.4921Y-3.5974
X1.498Y-1.9094
X1.5197Y-3.7215
X1.5217Y-3.3789
X1.524Y-1.4957
X1.5268Y-1.8366
X1.5482Y-4.3632
X1.5492Y-4.2766
X1.5618Y-1.4602
X1.5758Y-4.1378
X1.6604Y-2.874
X1.6929Y-0.8925
X1.7232Y-1.9685
X1.7618Y-1.8409
X1.7618Y-3.5256
X1.7621Y-1.7144
X1.8287Y-2.8937
X1.8327Y-3.6004
X1.8415Y-3.4872
X1.8583Y-3.0138
X1.8661Y-0.8949
X1.9094Y-1.9685
X1.924Y-1.3236
X1.9244Y-0.8302
X1.9258Y-1.9327
X1.9331Y-2.003
X1.9537Y-2.7569
X1.9542Y-1.9599
X1.9772Y-1.213
X2.0268Y-1.0425
X2.0417Y-1.835
X2.0463Y-1.3583
X2.0531Y-1.1112
X2.0551Y-1.2657
X2.0891Y-1.8646
X2.1841Y-4.1476
T2
X1.44Y-3.88
X1.49Y-3.83
X1.54Y-3.88
T3
X0.9118Y-1.5583
X0.9118Y-1.6567
X1.615Y-1.687
X1.615Y-1.7854
X1.6732Y-2.5165
X1.6732Y-2.6165
X1.6732Y-2.7165
X1.6732Y-2.9496
X1.6732Y-3.0496
X1.6732Y-3.1496
X1.8465Y-3.8622
X1.9094Y-2.9535
X1.9094Y-3.0535
X1.9094Y-3.1535
X1.9252Y-3.8622
X2.1506Y-2.9575
X2.1506Y-3.0575
X2.1506Y-3.1575
T4
X1.3409Y-0.6024
X1.3421Y-1.4
X1.4409Y-0.6024
X1.4421Y-1.4
X2.1213Y-0.6
X2.122Y-1.4098
X2.2213Y-0.6
X2.222Y-1.4098
T5
X1.3856Y-0.7621
X1.3856Y-0.8606
X1.3856Y-0.959
X1.3862Y-1.5709
X1.3862Y-1.6693
X1.3862Y-1.7677
X1.5984Y-2.1732
X1.6024Y-2.311
X1.7953Y-2.1732
X1.7992Y-2.311
X2.1658Y-0.7613
X2.1658Y-0.8597
X2.1658Y-0.9582
X2.1662Y-1.5713
X2.1662Y-1.6698
X2.1662Y-1.7682
T6
X2.0118Y-2.1394
X2.0118Y-2.2394
X2.0118Y-2.3394
X2.0118Y-2.4394
X2.0118Y-2.5394
X2.1118Y-2.1394
X2.1118Y-2.2394
X2.1118Y-2.3394
X2.1118Y-2.4394
X2.1118Y-2.5394
T7
X0.79Y-1.19
X0.89Y-3.8083
X0.89Y-3.9317
X1.19Y-1.19
X1.2867Y-3.8083
X1.2867Y-3.9317
X1.5772Y-0.5768
X1.5772Y-0.9768
X1.6833Y-3.8083
X1.6833Y-3.9317
X2.08Y-3.8083
X2.08Y-3.9317
T8
X0.89Y-3.3863
X0.89Y-3.7131
X0.89Y-4.0269
X0.89Y-4.3537
X1.2867Y-3.3863
X1.2867Y-3.7131
X1.2867Y-4.0269
X1.2867Y-4.3537
X1.6833Y-3.3863
X1.6833Y-3.7131
X1.6833Y-4.0269
X1.6833Y-4.3537
X2.08Y-3.3863
X2.08Y-3.7131
X2.08Y-4.0269
X2.08Y-4.3537
T9
X1.0903Y-0.6716
X1.0903Y-1.0495
X1.0909Y-1.4803
X1.0909Y-1.8583
X1.8705Y-0.6708
X1.8705Y-1.0487
X1.8709Y-1.4808
X1.8709Y-1.8587
T0
M30
