G04 #@! TF.GenerationSoftware,KiCad,Pcbnew,(5.1.9)-1*
G04 #@! TF.CreationDate,2021-03-20T12:47:07+00:00*
G04 #@! TF.ProjectId,board v2,626f6172-6420-4763-922e-6b696361645f,rev?*
G04 #@! TF.SameCoordinates,Original*
G04 #@! TF.FileFunction,Soldermask,Top*
G04 #@! TF.FilePolarity,Negative*
%FSLAX46Y46*%
G04 Gerber Fmt 4.6, Leading zero omitted, Abs format (unit mm)*
G04 Created by KiCad (PCBNEW (5.1.9)-1) date 2021-03-20 12:47:07*
%MOMM*%
%LPD*%
G01*
G04 APERTURE LIST*
G04 #@! TA.AperFunction,Profile*
%ADD10C,0.150000*%
G04 #@! TD*
%ADD11C,2.200000*%
%ADD12O,2.600000X2.600000*%
%ADD13C,2.400000*%
%ADD14O,2.127200X2.127200*%
%ADD15C,1.700000*%
%ADD16C,1.840000*%
%ADD17C,2.000000*%
G04 APERTURE END LIST*
D10*
X57658000Y-12700000D02*
X17780000Y-12700000D01*
X57658000Y-112268000D02*
X57658000Y-12700000D01*
X17780000Y-112268000D02*
X57658000Y-112268000D01*
X17780000Y-12700000D02*
X17780000Y-112268000D01*
G04 #@! TO.C,U4*
G36*
G01*
X39866000Y-98052000D02*
X39866000Y-99852000D01*
G75*
G02*
X39666000Y-100052000I-200000J0D01*
G01*
X38566000Y-100052000D01*
G75*
G02*
X38366000Y-99852000I0J200000D01*
G01*
X38366000Y-98052000D01*
G75*
G02*
X38566000Y-97852000I200000J0D01*
G01*
X39666000Y-97852000D01*
G75*
G02*
X39866000Y-98052000I0J-200000D01*
G01*
G37*
G36*
G01*
X37326000Y-98227000D02*
X37326000Y-99677000D01*
G75*
G02*
X36951000Y-100052000I-375000J0D01*
G01*
X36201000Y-100052000D01*
G75*
G02*
X35826000Y-99677000I0J375000D01*
G01*
X35826000Y-98227000D01*
G75*
G02*
X36201000Y-97852000I375000J0D01*
G01*
X36951000Y-97852000D01*
G75*
G02*
X37326000Y-98227000I0J-375000D01*
G01*
G37*
G36*
G01*
X38596000Y-96157000D02*
X38596000Y-97607000D01*
G75*
G02*
X38221000Y-97982000I-375000J0D01*
G01*
X37471000Y-97982000D01*
G75*
G02*
X37096000Y-97607000I0J375000D01*
G01*
X37096000Y-96157000D01*
G75*
G02*
X37471000Y-95782000I375000J0D01*
G01*
X38221000Y-95782000D01*
G75*
G02*
X38596000Y-96157000I0J-375000D01*
G01*
G37*
G04 #@! TD*
G04 #@! TO.C,D1*
G36*
G01*
X37700000Y-14400000D02*
X37700000Y-16200000D01*
G75*
G02*
X37500000Y-16400000I-200000J0D01*
G01*
X35700000Y-16400000D01*
G75*
G02*
X35500000Y-16200000I0J200000D01*
G01*
X35500000Y-14400000D01*
G75*
G02*
X35700000Y-14200000I200000J0D01*
G01*
X37500000Y-14200000D01*
G75*
G02*
X37700000Y-14400000I0J-200000D01*
G01*
G37*
D11*
X34060000Y-15300000D03*
G04 #@! TD*
G04 #@! TO.C,D2*
X34090000Y-35560000D03*
G36*
G01*
X37730000Y-34660000D02*
X37730000Y-36460000D01*
G75*
G02*
X37530000Y-36660000I-200000J0D01*
G01*
X35730000Y-36660000D01*
G75*
G02*
X35530000Y-36460000I0J200000D01*
G01*
X35530000Y-34660000D01*
G75*
G02*
X35730000Y-34460000I200000J0D01*
G01*
X37530000Y-34460000D01*
G75*
G02*
X37730000Y-34660000I0J-200000D01*
G01*
G37*
G04 #@! TD*
G04 #@! TO.C,D3*
X53900000Y-35810000D03*
G36*
G01*
X57540000Y-34910000D02*
X57540000Y-36710000D01*
G75*
G02*
X57340000Y-36910000I-200000J0D01*
G01*
X55540000Y-36910000D01*
G75*
G02*
X55340000Y-36710000I0J200000D01*
G01*
X55340000Y-34910000D01*
G75*
G02*
X55540000Y-34710000I200000J0D01*
G01*
X57340000Y-34710000D01*
G75*
G02*
X57540000Y-34910000I0J-200000D01*
G01*
G37*
G04 #@! TD*
G04 #@! TO.C,D4*
X53880000Y-15240000D03*
G36*
G01*
X57520000Y-14340000D02*
X57520000Y-16140000D01*
G75*
G02*
X57320000Y-16340000I-200000J0D01*
G01*
X55520000Y-16340000D01*
G75*
G02*
X55320000Y-16140000I0J200000D01*
G01*
X55320000Y-14340000D01*
G75*
G02*
X55520000Y-14140000I200000J0D01*
G01*
X57320000Y-14140000D01*
G75*
G02*
X57520000Y-14340000I0J-200000D01*
G01*
G37*
G04 #@! TD*
D12*
G04 #@! TO.C,D5*
X20066000Y-30226000D03*
G36*
G01*
X31526000Y-29126000D02*
X31526000Y-31326000D01*
G75*
G02*
X31326000Y-31526000I-200000J0D01*
G01*
X29126000Y-31526000D01*
G75*
G02*
X28926000Y-31326000I0J200000D01*
G01*
X28926000Y-29126000D01*
G75*
G02*
X29126000Y-28926000I200000J0D01*
G01*
X31326000Y-28926000D01*
G75*
G02*
X31526000Y-29126000I0J-200000D01*
G01*
G37*
G04 #@! TD*
G04 #@! TO.C,D6*
G36*
G01*
X38960000Y-13350000D02*
X41160000Y-13350000D01*
G75*
G02*
X41360000Y-13550000I0J-200000D01*
G01*
X41360000Y-15750000D01*
G75*
G02*
X41160000Y-15950000I-200000J0D01*
G01*
X38960000Y-15950000D01*
G75*
G02*
X38760000Y-15750000I0J200000D01*
G01*
X38760000Y-13550000D01*
G75*
G02*
X38960000Y-13350000I200000J0D01*
G01*
G37*
X40060000Y-24810000D03*
G04 #@! TD*
D13*
G04 #@! TO.C,F1*
X45600000Y-55200000D03*
X40600000Y-55200000D03*
G04 #@! TD*
G04 #@! TO.C,F2*
X45700000Y-58700000D03*
X40700000Y-58700000D03*
G04 #@! TD*
G04 #@! TO.C,J1*
X42756666Y-86012000D03*
D11*
X42756666Y-96732000D03*
D13*
X42756666Y-94312000D03*
G04 #@! TD*
G04 #@! TO.C,J2*
X22606000Y-94312000D03*
D11*
X22606000Y-96732000D03*
D13*
X22606000Y-86012000D03*
G04 #@! TD*
G04 #@! TO.C,J3*
X22606000Y-110584000D03*
D11*
X22606000Y-99864000D03*
D13*
X22606000Y-102284000D03*
G04 #@! TD*
G04 #@! TO.C,J4*
X42756666Y-102284000D03*
D11*
X42756666Y-99864000D03*
D13*
X42756666Y-110584000D03*
G04 #@! TD*
G04 #@! TO.C,J5*
X32681333Y-94312000D03*
D11*
X32681333Y-96732000D03*
D13*
X32681333Y-86012000D03*
G04 #@! TD*
G04 #@! TO.C,J6*
X52832000Y-86012000D03*
D11*
X52832000Y-96732000D03*
D13*
X52832000Y-94312000D03*
G04 #@! TD*
G04 #@! TO.C,J7*
X32681333Y-102284000D03*
D11*
X32681333Y-99864000D03*
D13*
X32681333Y-110584000D03*
G04 #@! TD*
G04 #@! TO.C,J8*
X52832000Y-110584000D03*
D11*
X52832000Y-99864000D03*
D13*
X52832000Y-102284000D03*
G04 #@! TD*
G04 #@! TO.C,J9*
G36*
G01*
X50036400Y-65363600D02*
X50036400Y-63636400D01*
G75*
G02*
X50236400Y-63436400I200000J0D01*
G01*
X51963600Y-63436400D01*
G75*
G02*
X52163600Y-63636400I0J-200000D01*
G01*
X52163600Y-65363600D01*
G75*
G02*
X51963600Y-65563600I-200000J0D01*
G01*
X50236400Y-65563600D01*
G75*
G02*
X50036400Y-65363600I0J200000D01*
G01*
G37*
D14*
X53640000Y-64500000D03*
X51100000Y-61960000D03*
X53640000Y-61960000D03*
X51100000Y-59420000D03*
X53640000Y-59420000D03*
X51100000Y-56880000D03*
X53640000Y-56880000D03*
X51100000Y-54340000D03*
X53640000Y-54340000D03*
G04 #@! TD*
D13*
G04 #@! TO.C,RV1*
X47511223Y-17037319D03*
X47511223Y-26637319D03*
D15*
X55011223Y-19337319D03*
X55011223Y-21837319D03*
X55011223Y-24337319D03*
G04 #@! TD*
G04 #@! TO.C,RV2*
X35193832Y-24358377D03*
X35193832Y-21858377D03*
X35193832Y-19358377D03*
D13*
X27693832Y-26658377D03*
X27693832Y-17058377D03*
G04 #@! TD*
D15*
G04 #@! TO.C,RV3*
X35209078Y-44899704D03*
X35209078Y-42399704D03*
X35209078Y-39899704D03*
D13*
X27709078Y-47199704D03*
X27709078Y-37599704D03*
G04 #@! TD*
G04 #@! TO.C,RV4*
X47522000Y-37612000D03*
X47522000Y-47212000D03*
D15*
X55022000Y-39912000D03*
X55022000Y-42412000D03*
X55022000Y-44912000D03*
G04 #@! TD*
D16*
G04 #@! TO.C,RV5*
X48500000Y-80100000D03*
X48500000Y-77560000D03*
X48500000Y-75020000D03*
G04 #@! TD*
G04 #@! TO.C,RV6*
X54625000Y-80200000D03*
X54625000Y-77660000D03*
X54625000Y-75120000D03*
G04 #@! TD*
G04 #@! TO.C,RV7*
X42500000Y-63920000D03*
X42500000Y-66460000D03*
X42500000Y-69000000D03*
G04 #@! TD*
G04 #@! TO.C,RV8*
X42500000Y-74920000D03*
X42500000Y-77460000D03*
X42500000Y-80000000D03*
G04 #@! TD*
G04 #@! TO.C,C13*
G36*
G01*
X45900000Y-98900000D02*
X45900000Y-97300000D01*
G75*
G02*
X46100000Y-97100000I200000J0D01*
G01*
X47700000Y-97100000D01*
G75*
G02*
X47900000Y-97300000I0J-200000D01*
G01*
X47900000Y-98900000D01*
G75*
G02*
X47700000Y-99100000I-200000J0D01*
G01*
X46100000Y-99100000D01*
G75*
G02*
X45900000Y-98900000I0J200000D01*
G01*
G37*
D17*
X48900000Y-98100000D03*
G04 #@! TD*
G04 #@! TO.C,C17*
G36*
G01*
X22360000Y-38580000D02*
X23960000Y-38580000D01*
G75*
G02*
X24160000Y-38780000I0J-200000D01*
G01*
X24160000Y-40380000D01*
G75*
G02*
X23960000Y-40580000I-200000J0D01*
G01*
X22360000Y-40580000D01*
G75*
G02*
X22160000Y-40380000I0J200000D01*
G01*
X22160000Y-38780000D01*
G75*
G02*
X22360000Y-38580000I200000J0D01*
G01*
G37*
X23160000Y-42080000D03*
G04 #@! TD*
G04 #@! TO.C,C18*
X41020000Y-45350000D03*
G36*
G01*
X40220000Y-41850000D02*
X41820000Y-41850000D01*
G75*
G02*
X42020000Y-42050000I0J-200000D01*
G01*
X42020000Y-43650000D01*
G75*
G02*
X41820000Y-43850000I-200000J0D01*
G01*
X40220000Y-43850000D01*
G75*
G02*
X40020000Y-43650000I0J200000D01*
G01*
X40020000Y-42050000D01*
G75*
G02*
X40220000Y-41850000I200000J0D01*
G01*
G37*
G04 #@! TD*
M02*
