%TF.GenerationSoftware,KiCad,Pcbnew,(5.0.1)-3*%
%TF.CreationDate,2020-04-13T21:00:07+01:00*%
%TF.ProjectId,pcb,7063622E6B696361645F706362000000,rev?*%
%TF.SameCoordinates,Original*%
%TF.FileFunction,Legend,Top*%
%TF.FilePolarity,Positive*%
%FSLAX46Y46*%
G04 Gerber Fmt 4.6, Leading zero omitted, Abs format (unit mm)*
G04 Created by KiCad (PCBNEW (5.0.1)-3) date 13/04/2020 21:00:07*
%MOMM*%
%LPD*%
G01*
G04 APERTURE LIST*
%ADD10C,0.150000*%
%ADD11C,0.120000*%
G04 APERTURE END LIST*
D10*
X19200000Y-28300000D02*
X19200000Y-73300000D01*
X16200000Y-28300000D02*
X19200000Y-28300000D01*
X16200000Y-73300000D02*
X16200000Y-28300000D01*
X19200000Y-73300000D02*
X16200000Y-73300000D01*
X12700000Y-73300000D02*
X22700000Y-73300000D01*
X12700000Y-28300000D02*
X12700000Y-73300000D01*
X22700000Y-28300000D02*
X12700000Y-28300000D01*
X22700000Y-73300000D02*
X22700000Y-28300000D01*
D11*
X29224477Y-92171392D02*
G75*
G03X25992142Y-92014484I-1672335J-1078608D01*
G01*
X29224477Y-94328608D02*
G75*
G02X25992142Y-94485516I-1672335J1078608D01*
G01*
X28593272Y-92170163D02*
G75*
G03X26511181Y-92170000I-1041130J-1079837D01*
G01*
X28593272Y-94329837D02*
G75*
G02X26511181Y-94330000I-1041130J1079837D01*
G01*
X25992142Y-92014000D02*
X25992142Y-92170000D01*
X25992142Y-94330000D02*
X25992142Y-94486000D01*
X24278335Y-74867392D02*
G75*
G03X21046000Y-74710484I-1672335J-1078608D01*
G01*
X24278335Y-77024608D02*
G75*
G02X21046000Y-77181516I-1672335J1078608D01*
G01*
X23647130Y-74866163D02*
G75*
G03X21565039Y-74866000I-1041130J-1079837D01*
G01*
X23647130Y-77025837D02*
G75*
G02X21565039Y-77026000I-1041130J1079837D01*
G01*
X21046000Y-74710000D02*
X21046000Y-74866000D01*
X21046000Y-77026000D02*
X21046000Y-77182000D01*
X46306426Y-94330000D02*
X46306426Y-94486000D01*
X46306426Y-92014000D02*
X46306426Y-92170000D01*
X48907556Y-94329837D02*
G75*
G02X46825465Y-94330000I-1041130J1079837D01*
G01*
X48907556Y-92170163D02*
G75*
G03X46825465Y-92170000I-1041130J-1079837D01*
G01*
X49538761Y-94328608D02*
G75*
G02X46306426Y-94485516I-1672335J1078608D01*
G01*
X49538761Y-92171392D02*
G75*
G03X46306426Y-92014484I-1672335J-1078608D01*
G01*
X41160000Y-77026000D02*
X41160000Y-77182000D01*
X41160000Y-74710000D02*
X41160000Y-74866000D01*
X43761130Y-77025837D02*
G75*
G02X41679039Y-77026000I-1041130J1079837D01*
G01*
X43761130Y-74866163D02*
G75*
G03X41679039Y-74866000I-1041130J-1079837D01*
G01*
X44392335Y-77024608D02*
G75*
G02X41160000Y-77181516I-1672335J1078608D01*
G01*
X44392335Y-74867392D02*
G75*
G03X41160000Y-74710484I-1672335J-1078608D01*
G01*
X69853045Y-92171392D02*
G75*
G03X66620710Y-92014484I-1672335J-1078608D01*
G01*
X69853045Y-94328608D02*
G75*
G02X66620710Y-94485516I-1672335J1078608D01*
G01*
X69221840Y-92170163D02*
G75*
G03X67139749Y-92170000I-1041130J-1079837D01*
G01*
X69221840Y-94329837D02*
G75*
G02X67139749Y-94330000I-1041130J1079837D01*
G01*
X66620710Y-92014000D02*
X66620710Y-92170000D01*
X66620710Y-94330000D02*
X66620710Y-94486000D01*
X61510000Y-77026000D02*
X61510000Y-77182000D01*
X61510000Y-74710000D02*
X61510000Y-74866000D01*
X64111130Y-77025837D02*
G75*
G02X62029039Y-77026000I-1041130J1079837D01*
G01*
X64111130Y-74866163D02*
G75*
G03X62029039Y-74866000I-1041130J-1079837D01*
G01*
X64742335Y-77024608D02*
G75*
G02X61510000Y-77181516I-1672335J1078608D01*
G01*
X64742335Y-74867392D02*
G75*
G03X61510000Y-74710484I-1672335J-1078608D01*
G01*
X90167335Y-92171392D02*
G75*
G03X86935000Y-92014484I-1672335J-1078608D01*
G01*
X90167335Y-94328608D02*
G75*
G02X86935000Y-94485516I-1672335J1078608D01*
G01*
X89536130Y-92170163D02*
G75*
G03X87454039Y-92170000I-1041130J-1079837D01*
G01*
X89536130Y-94329837D02*
G75*
G02X87454039Y-94330000I-1041130J1079837D01*
G01*
X86935000Y-92014000D02*
X86935000Y-92170000D01*
X86935000Y-94330000D02*
X86935000Y-94486000D01*
X81890000Y-77026000D02*
X81890000Y-77182000D01*
X81890000Y-74710000D02*
X81890000Y-74866000D01*
X84491130Y-77025837D02*
G75*
G02X82409039Y-77026000I-1041130J1079837D01*
G01*
X84491130Y-74866163D02*
G75*
G03X82409039Y-74866000I-1041130J-1079837D01*
G01*
X85122335Y-77024608D02*
G75*
G02X81890000Y-77181516I-1672335J1078608D01*
G01*
X85122335Y-74867392D02*
G75*
G03X81890000Y-74710484I-1672335J-1078608D01*
G01*
D10*
X15700000Y-19000000D02*
X19300000Y-19000000D01*
X17500000Y-17200000D02*
X17500000Y-20800000D01*
X19300000Y-19000000D02*
G75*
G03X19300000Y-19000000I-1800000J0D01*
G01*
X22000000Y-12800000D02*
X22000000Y-23700000D01*
X13000000Y-12800000D02*
X13000000Y-23700000D01*
X13000000Y-23700000D02*
X22000000Y-23700000D01*
X13000000Y-12800000D02*
X22000000Y-12800000D01*
X83850000Y-12800000D02*
X92850000Y-12800000D01*
X83850000Y-23700000D02*
X92850000Y-23700000D01*
X83850000Y-12800000D02*
X83850000Y-23700000D01*
X92850000Y-12800000D02*
X92850000Y-23700000D01*
X90150000Y-19000000D02*
G75*
G03X90150000Y-19000000I-1800000J0D01*
G01*
X88350000Y-17200000D02*
X88350000Y-20800000D01*
X86550000Y-19000000D02*
X90150000Y-19000000D01*
X19200000Y-115900000D02*
X15600000Y-115900000D01*
X17400000Y-117700000D02*
X17400000Y-114100000D01*
X19200000Y-115900000D02*
G75*
G03X19200000Y-115900000I-1800000J0D01*
G01*
X12900000Y-122100000D02*
X12900000Y-111200000D01*
X21900000Y-122100000D02*
X21900000Y-111200000D01*
X21900000Y-111200000D02*
X12900000Y-111200000D01*
X21900000Y-122100000D02*
X12900000Y-122100000D01*
X32057142Y-122100000D02*
X23057142Y-122100000D01*
X32057142Y-111200000D02*
X23057142Y-111200000D01*
X32057142Y-122100000D02*
X32057142Y-111200000D01*
X23057142Y-122100000D02*
X23057142Y-111200000D01*
X29357142Y-115900000D02*
G75*
G03X29357142Y-115900000I-1800000J0D01*
G01*
X27557142Y-117700000D02*
X27557142Y-114100000D01*
X29357142Y-115900000D02*
X25757142Y-115900000D01*
X15600000Y-103000000D02*
X19200000Y-103000000D01*
X17400000Y-101200000D02*
X17400000Y-104800000D01*
X19200000Y-103000000D02*
G75*
G03X19200000Y-103000000I-1800000J0D01*
G01*
X21900000Y-96800000D02*
X21900000Y-107700000D01*
X12900000Y-96800000D02*
X12900000Y-107700000D01*
X12900000Y-107700000D02*
X21900000Y-107700000D01*
X12900000Y-96800000D02*
X21900000Y-96800000D01*
X25757142Y-103000000D02*
X29357142Y-103000000D01*
X27557142Y-101200000D02*
X27557142Y-104800000D01*
X29357142Y-103000000D02*
G75*
G03X29357142Y-103000000I-1800000J0D01*
G01*
X32057142Y-96800000D02*
X32057142Y-107700000D01*
X23057142Y-96800000D02*
X23057142Y-107700000D01*
X23057142Y-107700000D02*
X32057142Y-107700000D01*
X23057142Y-96800000D02*
X32057142Y-96800000D01*
X42214284Y-122100000D02*
X33214284Y-122100000D01*
X42214284Y-111200000D02*
X33214284Y-111200000D01*
X42214284Y-122100000D02*
X42214284Y-111200000D01*
X33214284Y-122100000D02*
X33214284Y-111200000D01*
X39514284Y-115900000D02*
G75*
G03X39514284Y-115900000I-1800000J0D01*
G01*
X37714284Y-117700000D02*
X37714284Y-114100000D01*
X39514284Y-115900000D02*
X35914284Y-115900000D01*
X49671426Y-115900000D02*
X46071426Y-115900000D01*
X47871426Y-117700000D02*
X47871426Y-114100000D01*
X49671426Y-115900000D02*
G75*
G03X49671426Y-115900000I-1800000J0D01*
G01*
X43371426Y-122100000D02*
X43371426Y-111200000D01*
X52371426Y-122100000D02*
X52371426Y-111200000D01*
X52371426Y-111200000D02*
X43371426Y-111200000D01*
X52371426Y-122100000D02*
X43371426Y-122100000D01*
X35914284Y-103000000D02*
X39514284Y-103000000D01*
X37714284Y-101200000D02*
X37714284Y-104800000D01*
X39514284Y-103000000D02*
G75*
G03X39514284Y-103000000I-1800000J0D01*
G01*
X42214284Y-96800000D02*
X42214284Y-107700000D01*
X33214284Y-96800000D02*
X33214284Y-107700000D01*
X33214284Y-107700000D02*
X42214284Y-107700000D01*
X33214284Y-96800000D02*
X42214284Y-96800000D01*
X43371426Y-96800000D02*
X52371426Y-96800000D01*
X43371426Y-107700000D02*
X52371426Y-107700000D01*
X43371426Y-96800000D02*
X43371426Y-107700000D01*
X52371426Y-96800000D02*
X52371426Y-107700000D01*
X49671426Y-103000000D02*
G75*
G03X49671426Y-103000000I-1800000J0D01*
G01*
X47871426Y-101200000D02*
X47871426Y-104800000D01*
X46071426Y-103000000D02*
X49671426Y-103000000D01*
X59828568Y-115900000D02*
X56228568Y-115900000D01*
X58028568Y-117700000D02*
X58028568Y-114100000D01*
X59828568Y-115900000D02*
G75*
G03X59828568Y-115900000I-1800000J0D01*
G01*
X53528568Y-122100000D02*
X53528568Y-111200000D01*
X62528568Y-122100000D02*
X62528568Y-111200000D01*
X62528568Y-111200000D02*
X53528568Y-111200000D01*
X62528568Y-122100000D02*
X53528568Y-122100000D01*
X72685710Y-122100000D02*
X63685710Y-122100000D01*
X72685710Y-111200000D02*
X63685710Y-111200000D01*
X72685710Y-122100000D02*
X72685710Y-111200000D01*
X63685710Y-122100000D02*
X63685710Y-111200000D01*
X69985710Y-115900000D02*
G75*
G03X69985710Y-115900000I-1800000J0D01*
G01*
X68185710Y-117700000D02*
X68185710Y-114100000D01*
X69985710Y-115900000D02*
X66385710Y-115900000D01*
X53528568Y-96800000D02*
X62528568Y-96800000D01*
X53528568Y-107700000D02*
X62528568Y-107700000D01*
X53528568Y-96800000D02*
X53528568Y-107700000D01*
X62528568Y-96800000D02*
X62528568Y-107700000D01*
X59828568Y-103000000D02*
G75*
G03X59828568Y-103000000I-1800000J0D01*
G01*
X58028568Y-101200000D02*
X58028568Y-104800000D01*
X56228568Y-103000000D02*
X59828568Y-103000000D01*
X63685710Y-96800000D02*
X72685710Y-96800000D01*
X63685710Y-107700000D02*
X72685710Y-107700000D01*
X63685710Y-96800000D02*
X63685710Y-107700000D01*
X72685710Y-96800000D02*
X72685710Y-107700000D01*
X69985710Y-103000000D02*
G75*
G03X69985710Y-103000000I-1800000J0D01*
G01*
X68185710Y-101200000D02*
X68185710Y-104800000D01*
X66385710Y-103000000D02*
X69985710Y-103000000D01*
X80142852Y-115900000D02*
X76542852Y-115900000D01*
X78342852Y-117700000D02*
X78342852Y-114100000D01*
X80142852Y-115900000D02*
G75*
G03X80142852Y-115900000I-1800000J0D01*
G01*
X73842852Y-122100000D02*
X73842852Y-111200000D01*
X82842852Y-122100000D02*
X82842852Y-111200000D01*
X82842852Y-111200000D02*
X73842852Y-111200000D01*
X82842852Y-122100000D02*
X73842852Y-122100000D01*
X93000000Y-122100000D02*
X84000000Y-122100000D01*
X93000000Y-111200000D02*
X84000000Y-111200000D01*
X93000000Y-122100000D02*
X93000000Y-111200000D01*
X84000000Y-122100000D02*
X84000000Y-111200000D01*
X90300000Y-115900000D02*
G75*
G03X90300000Y-115900000I-1800000J0D01*
G01*
X88500000Y-117700000D02*
X88500000Y-114100000D01*
X90300000Y-115900000D02*
X86700000Y-115900000D01*
X73842852Y-96800000D02*
X82842852Y-96800000D01*
X73842852Y-107700000D02*
X82842852Y-107700000D01*
X73842852Y-96800000D02*
X73842852Y-107700000D01*
X82842852Y-96800000D02*
X82842852Y-107700000D01*
X80142852Y-103000000D02*
G75*
G03X80142852Y-103000000I-1800000J0D01*
G01*
X78342852Y-101200000D02*
X78342852Y-104800000D01*
X76542852Y-103000000D02*
X80142852Y-103000000D01*
X86700000Y-103000000D02*
X90300000Y-103000000D01*
X88500000Y-101200000D02*
X88500000Y-104800000D01*
X90300000Y-103000000D02*
G75*
G03X90300000Y-103000000I-1800000J0D01*
G01*
X93000000Y-96800000D02*
X93000000Y-107700000D01*
X84000000Y-96800000D02*
X84000000Y-107700000D01*
X84000000Y-107700000D02*
X93000000Y-107700000D01*
X84000000Y-96800000D02*
X93000000Y-96800000D01*
X73824997Y-19000000D02*
X76364997Y-19000000D01*
X75094997Y-17730000D02*
X75094997Y-20270000D01*
X78269997Y-19000000D02*
G75*
G03X78269997Y-19000000I-3175000J0D01*
G01*
X70344997Y-14150000D02*
X70344997Y-25500000D01*
X79844997Y-14150000D02*
X79844997Y-25500000D01*
X70344997Y-25500000D02*
X79844997Y-25500000D01*
X70344997Y-14150000D02*
X79844997Y-14150000D01*
X29485000Y-19000000D02*
X32025000Y-19000000D01*
X30755000Y-17730000D02*
X30755000Y-20270000D01*
X33930000Y-19000000D02*
G75*
G03X33930000Y-19000000I-3175000J0D01*
G01*
X26005000Y-14150000D02*
X26005000Y-25500000D01*
X35505000Y-14150000D02*
X35505000Y-25500000D01*
X26005000Y-25500000D02*
X35505000Y-25500000D01*
X26005000Y-14150000D02*
X35505000Y-14150000D01*
X40784999Y-14150000D02*
X50284999Y-14150000D01*
X40784999Y-25500000D02*
X50284999Y-25500000D01*
X50284999Y-14150000D02*
X50284999Y-25500000D01*
X40784999Y-14150000D02*
X40784999Y-25500000D01*
X48709999Y-19000000D02*
G75*
G03X48709999Y-19000000I-3175000J0D01*
G01*
X45534999Y-17730000D02*
X45534999Y-20270000D01*
X44264999Y-19000000D02*
X46804999Y-19000000D01*
X55564998Y-14150000D02*
X65064998Y-14150000D01*
X55564998Y-25500000D02*
X65064998Y-25500000D01*
X65064998Y-14150000D02*
X65064998Y-25500000D01*
X55564998Y-14150000D02*
X55564998Y-25500000D01*
X63489998Y-19000000D02*
G75*
G03X63489998Y-19000000I-3175000J0D01*
G01*
X60314998Y-17730000D02*
X60314998Y-20270000D01*
X59044998Y-19000000D02*
X61584998Y-19000000D01*
X32771428Y-73300000D02*
X32771428Y-28300000D01*
X32771428Y-28300000D02*
X22771428Y-28300000D01*
X22771428Y-28300000D02*
X22771428Y-73300000D01*
X22771428Y-73300000D02*
X32771428Y-73300000D01*
X29271428Y-73300000D02*
X26271428Y-73300000D01*
X26271428Y-73300000D02*
X26271428Y-28300000D01*
X26271428Y-28300000D02*
X29271428Y-28300000D01*
X29271428Y-28300000D02*
X29271428Y-73300000D01*
X17750000Y-78900000D02*
X27250000Y-78900000D01*
X17750000Y-90250000D02*
X27250000Y-90250000D01*
X27250000Y-78900000D02*
X27250000Y-90250000D01*
X17750000Y-78900000D02*
X17750000Y-90250000D01*
X25675000Y-83750000D02*
G75*
G03X25675000Y-83750000I-3175000J0D01*
G01*
X22500000Y-82480000D02*
X22500000Y-85020000D01*
X21230000Y-83750000D02*
X23770000Y-83750000D01*
X42842856Y-73300000D02*
X42842856Y-28300000D01*
X42842856Y-28300000D02*
X32842856Y-28300000D01*
X32842856Y-28300000D02*
X32842856Y-73300000D01*
X32842856Y-73300000D02*
X42842856Y-73300000D01*
X39342856Y-73300000D02*
X36342856Y-73300000D01*
X36342856Y-73300000D02*
X36342856Y-28300000D01*
X36342856Y-28300000D02*
X39342856Y-28300000D01*
X39342856Y-28300000D02*
X39342856Y-73300000D01*
X52914284Y-73300000D02*
X52914284Y-28300000D01*
X52914284Y-28300000D02*
X42914284Y-28300000D01*
X42914284Y-28300000D02*
X42914284Y-73300000D01*
X42914284Y-73300000D02*
X52914284Y-73300000D01*
X49414284Y-73300000D02*
X46414284Y-73300000D01*
X46414284Y-73300000D02*
X46414284Y-28300000D01*
X46414284Y-28300000D02*
X49414284Y-28300000D01*
X49414284Y-28300000D02*
X49414284Y-73300000D01*
X38066666Y-78900000D02*
X47566666Y-78900000D01*
X38066666Y-90250000D02*
X47566666Y-90250000D01*
X47566666Y-78900000D02*
X47566666Y-90250000D01*
X38066666Y-78900000D02*
X38066666Y-90250000D01*
X45991666Y-83750000D02*
G75*
G03X45991666Y-83750000I-3175000J0D01*
G01*
X42816666Y-82480000D02*
X42816666Y-85020000D01*
X41546666Y-83750000D02*
X44086666Y-83750000D01*
X59485712Y-28300000D02*
X59485712Y-73300000D01*
X56485712Y-28300000D02*
X59485712Y-28300000D01*
X56485712Y-73300000D02*
X56485712Y-28300000D01*
X59485712Y-73300000D02*
X56485712Y-73300000D01*
X52985712Y-73300000D02*
X62985712Y-73300000D01*
X52985712Y-28300000D02*
X52985712Y-73300000D01*
X62985712Y-28300000D02*
X52985712Y-28300000D01*
X62985712Y-73300000D02*
X62985712Y-28300000D01*
X69557140Y-28300000D02*
X69557140Y-73300000D01*
X66557140Y-28300000D02*
X69557140Y-28300000D01*
X66557140Y-73300000D02*
X66557140Y-28300000D01*
X69557140Y-73300000D02*
X66557140Y-73300000D01*
X63057140Y-73300000D02*
X73057140Y-73300000D01*
X63057140Y-28300000D02*
X63057140Y-73300000D01*
X73057140Y-28300000D02*
X63057140Y-28300000D01*
X73057140Y-73300000D02*
X73057140Y-28300000D01*
X61863332Y-83750000D02*
X64403332Y-83750000D01*
X63133332Y-82480000D02*
X63133332Y-85020000D01*
X66308332Y-83750000D02*
G75*
G03X66308332Y-83750000I-3175000J0D01*
G01*
X58383332Y-78900000D02*
X58383332Y-90250000D01*
X67883332Y-78900000D02*
X67883332Y-90250000D01*
X58383332Y-90250000D02*
X67883332Y-90250000D01*
X58383332Y-78900000D02*
X67883332Y-78900000D01*
X79628568Y-28300000D02*
X79628568Y-73300000D01*
X76628568Y-28300000D02*
X79628568Y-28300000D01*
X76628568Y-73300000D02*
X76628568Y-28300000D01*
X79628568Y-73300000D02*
X76628568Y-73300000D01*
X73128568Y-73300000D02*
X83128568Y-73300000D01*
X73128568Y-28300000D02*
X73128568Y-73300000D01*
X83128568Y-28300000D02*
X73128568Y-28300000D01*
X83128568Y-73300000D02*
X83128568Y-28300000D01*
X93199996Y-73300000D02*
X93199996Y-28300000D01*
X93199996Y-28300000D02*
X83199996Y-28300000D01*
X83199996Y-28300000D02*
X83199996Y-73300000D01*
X83199996Y-73300000D02*
X93199996Y-73300000D01*
X89699996Y-73300000D02*
X86699996Y-73300000D01*
X86699996Y-73300000D02*
X86699996Y-28300000D01*
X86699996Y-28300000D02*
X89699996Y-28300000D01*
X89699996Y-28300000D02*
X89699996Y-73300000D01*
X82180000Y-83750000D02*
X84720000Y-83750000D01*
X83450000Y-82480000D02*
X83450000Y-85020000D01*
X86625000Y-83750000D02*
G75*
G03X86625000Y-83750000I-3175000J0D01*
G01*
X78700000Y-78900000D02*
X78700000Y-90250000D01*
X88200000Y-78900000D02*
X88200000Y-90250000D01*
X78700000Y-90250000D02*
X88200000Y-90250000D01*
X78700000Y-78900000D02*
X88200000Y-78900000D01*
X24402380Y-47895238D02*
X23926190Y-48228571D01*
X24402380Y-48466666D02*
X23402380Y-48466666D01*
X23402380Y-48085714D01*
X23450000Y-47990476D01*
X23497619Y-47942857D01*
X23592857Y-47895238D01*
X23735714Y-47895238D01*
X23830952Y-47942857D01*
X23878571Y-47990476D01*
X23926190Y-48085714D01*
X23926190Y-48466666D01*
X23402380Y-47609523D02*
X24402380Y-47276190D01*
X23402380Y-46942857D01*
X23402380Y-46133333D02*
X23402380Y-46609523D01*
X23878571Y-46657142D01*
X23830952Y-46609523D01*
X23783333Y-46514285D01*
X23783333Y-46276190D01*
X23830952Y-46180952D01*
X23878571Y-46133333D01*
X23973809Y-46085714D01*
X24211904Y-46085714D01*
X24307142Y-46133333D01*
X24354761Y-46180952D01*
X24402380Y-46276190D01*
X24402380Y-46514285D01*
X24354761Y-46609523D01*
X24307142Y-46657142D01*
X30503904Y-93924380D02*
X30503904Y-92924380D01*
X30742000Y-92924380D01*
X30884857Y-92972000D01*
X30980095Y-93067238D01*
X31027714Y-93162476D01*
X31075333Y-93352952D01*
X31075333Y-93495809D01*
X31027714Y-93686285D01*
X30980095Y-93781523D01*
X30884857Y-93876761D01*
X30742000Y-93924380D01*
X30503904Y-93924380D01*
X32027714Y-93924380D02*
X31456285Y-93924380D01*
X31742000Y-93924380D02*
X31742000Y-92924380D01*
X31646761Y-93067238D01*
X31551523Y-93162476D01*
X31456285Y-93210095D01*
X25169904Y-76398380D02*
X25169904Y-75398380D01*
X25408000Y-75398380D01*
X25550857Y-75446000D01*
X25646095Y-75541238D01*
X25693714Y-75636476D01*
X25741333Y-75826952D01*
X25741333Y-75969809D01*
X25693714Y-76160285D01*
X25646095Y-76255523D01*
X25550857Y-76350761D01*
X25408000Y-76398380D01*
X25169904Y-76398380D01*
X26122285Y-75493619D02*
X26169904Y-75446000D01*
X26265142Y-75398380D01*
X26503238Y-75398380D01*
X26598476Y-75446000D01*
X26646095Y-75493619D01*
X26693714Y-75588857D01*
X26693714Y-75684095D01*
X26646095Y-75826952D01*
X26074666Y-76398380D01*
X26693714Y-76398380D01*
X50823904Y-93924380D02*
X50823904Y-92924380D01*
X51062000Y-92924380D01*
X51204857Y-92972000D01*
X51300095Y-93067238D01*
X51347714Y-93162476D01*
X51395333Y-93352952D01*
X51395333Y-93495809D01*
X51347714Y-93686285D01*
X51300095Y-93781523D01*
X51204857Y-93876761D01*
X51062000Y-93924380D01*
X50823904Y-93924380D01*
X51728666Y-92924380D02*
X52347714Y-92924380D01*
X52014380Y-93305333D01*
X52157238Y-93305333D01*
X52252476Y-93352952D01*
X52300095Y-93400571D01*
X52347714Y-93495809D01*
X52347714Y-93733904D01*
X52300095Y-93829142D01*
X52252476Y-93876761D01*
X52157238Y-93924380D01*
X51871523Y-93924380D01*
X51776285Y-93876761D01*
X51728666Y-93829142D01*
X45489904Y-76652380D02*
X45489904Y-75652380D01*
X45728000Y-75652380D01*
X45870857Y-75700000D01*
X45966095Y-75795238D01*
X46013714Y-75890476D01*
X46061333Y-76080952D01*
X46061333Y-76223809D01*
X46013714Y-76414285D01*
X45966095Y-76509523D01*
X45870857Y-76604761D01*
X45728000Y-76652380D01*
X45489904Y-76652380D01*
X46918476Y-75985714D02*
X46918476Y-76652380D01*
X46680380Y-75604761D02*
X46442285Y-76319047D01*
X47061333Y-76319047D01*
X70635904Y-93416380D02*
X70635904Y-92416380D01*
X70874000Y-92416380D01*
X71016857Y-92464000D01*
X71112095Y-92559238D01*
X71159714Y-92654476D01*
X71207333Y-92844952D01*
X71207333Y-92987809D01*
X71159714Y-93178285D01*
X71112095Y-93273523D01*
X71016857Y-93368761D01*
X70874000Y-93416380D01*
X70635904Y-93416380D01*
X72112095Y-92416380D02*
X71635904Y-92416380D01*
X71588285Y-92892571D01*
X71635904Y-92844952D01*
X71731142Y-92797333D01*
X71969238Y-92797333D01*
X72064476Y-92844952D01*
X72112095Y-92892571D01*
X72159714Y-92987809D01*
X72159714Y-93225904D01*
X72112095Y-93321142D01*
X72064476Y-93368761D01*
X71969238Y-93416380D01*
X71731142Y-93416380D01*
X71635904Y-93368761D01*
X71588285Y-93321142D01*
X65809904Y-75890380D02*
X65809904Y-74890380D01*
X66048000Y-74890380D01*
X66190857Y-74938000D01*
X66286095Y-75033238D01*
X66333714Y-75128476D01*
X66381333Y-75318952D01*
X66381333Y-75461809D01*
X66333714Y-75652285D01*
X66286095Y-75747523D01*
X66190857Y-75842761D01*
X66048000Y-75890380D01*
X65809904Y-75890380D01*
X67238476Y-74890380D02*
X67048000Y-74890380D01*
X66952761Y-74938000D01*
X66905142Y-74985619D01*
X66809904Y-75128476D01*
X66762285Y-75318952D01*
X66762285Y-75699904D01*
X66809904Y-75795142D01*
X66857523Y-75842761D01*
X66952761Y-75890380D01*
X67143238Y-75890380D01*
X67238476Y-75842761D01*
X67286095Y-75795142D01*
X67333714Y-75699904D01*
X67333714Y-75461809D01*
X67286095Y-75366571D01*
X67238476Y-75318952D01*
X67143238Y-75271333D01*
X66952761Y-75271333D01*
X66857523Y-75318952D01*
X66809904Y-75366571D01*
X66762285Y-75461809D01*
X90701904Y-93670380D02*
X90701904Y-92670380D01*
X90940000Y-92670380D01*
X91082857Y-92718000D01*
X91178095Y-92813238D01*
X91225714Y-92908476D01*
X91273333Y-93098952D01*
X91273333Y-93241809D01*
X91225714Y-93432285D01*
X91178095Y-93527523D01*
X91082857Y-93622761D01*
X90940000Y-93670380D01*
X90701904Y-93670380D01*
X91606666Y-92670380D02*
X92273333Y-92670380D01*
X91844761Y-93670380D01*
X86409904Y-76398380D02*
X86409904Y-75398380D01*
X86648000Y-75398380D01*
X86790857Y-75446000D01*
X86886095Y-75541238D01*
X86933714Y-75636476D01*
X86981333Y-75826952D01*
X86981333Y-75969809D01*
X86933714Y-76160285D01*
X86886095Y-76255523D01*
X86790857Y-76350761D01*
X86648000Y-76398380D01*
X86409904Y-76398380D01*
X87552761Y-75826952D02*
X87457523Y-75779333D01*
X87409904Y-75731714D01*
X87362285Y-75636476D01*
X87362285Y-75588857D01*
X87409904Y-75493619D01*
X87457523Y-75446000D01*
X87552761Y-75398380D01*
X87743238Y-75398380D01*
X87838476Y-75446000D01*
X87886095Y-75493619D01*
X87933714Y-75588857D01*
X87933714Y-75636476D01*
X87886095Y-75731714D01*
X87838476Y-75779333D01*
X87743238Y-75826952D01*
X87552761Y-75826952D01*
X87457523Y-75874571D01*
X87409904Y-75922190D01*
X87362285Y-76017428D01*
X87362285Y-76207904D01*
X87409904Y-76303142D01*
X87457523Y-76350761D01*
X87552761Y-76398380D01*
X87743238Y-76398380D01*
X87838476Y-76350761D01*
X87886095Y-76303142D01*
X87933714Y-76207904D01*
X87933714Y-76017428D01*
X87886095Y-75922190D01*
X87838476Y-75874571D01*
X87743238Y-75826952D01*
X74499758Y-27376380D02*
X74166425Y-26900190D01*
X73928330Y-27376380D02*
X73928330Y-26376380D01*
X74309282Y-26376380D01*
X74404520Y-26424000D01*
X74452139Y-26471619D01*
X74499758Y-26566857D01*
X74499758Y-26709714D01*
X74452139Y-26804952D01*
X74404520Y-26852571D01*
X74309282Y-26900190D01*
X73928330Y-26900190D01*
X74785473Y-26376380D02*
X75118806Y-27376380D01*
X75452139Y-26376380D01*
X76309282Y-27376380D02*
X75737854Y-27376380D01*
X76023568Y-27376380D02*
X76023568Y-26376380D01*
X75928330Y-26519238D01*
X75833092Y-26614476D01*
X75737854Y-26662095D01*
X30138761Y-27376380D02*
X29805428Y-26900190D01*
X29567333Y-27376380D02*
X29567333Y-26376380D01*
X29948285Y-26376380D01*
X30043523Y-26424000D01*
X30091142Y-26471619D01*
X30138761Y-26566857D01*
X30138761Y-26709714D01*
X30091142Y-26804952D01*
X30043523Y-26852571D01*
X29948285Y-26900190D01*
X29567333Y-26900190D01*
X30424476Y-26376380D02*
X30757809Y-27376380D01*
X31091142Y-26376380D01*
X31376857Y-26471619D02*
X31424476Y-26424000D01*
X31519714Y-26376380D01*
X31757809Y-26376380D01*
X31853047Y-26424000D01*
X31900666Y-26471619D01*
X31948285Y-26566857D01*
X31948285Y-26662095D01*
X31900666Y-26804952D01*
X31329238Y-27376380D01*
X31948285Y-27376380D01*
X44616761Y-27376380D02*
X44283428Y-26900190D01*
X44045333Y-27376380D02*
X44045333Y-26376380D01*
X44426285Y-26376380D01*
X44521523Y-26424000D01*
X44569142Y-26471619D01*
X44616761Y-26566857D01*
X44616761Y-26709714D01*
X44569142Y-26804952D01*
X44521523Y-26852571D01*
X44426285Y-26900190D01*
X44045333Y-26900190D01*
X44902476Y-26376380D02*
X45235809Y-27376380D01*
X45569142Y-26376380D01*
X45807238Y-26376380D02*
X46426285Y-26376380D01*
X46092952Y-26757333D01*
X46235809Y-26757333D01*
X46331047Y-26804952D01*
X46378666Y-26852571D01*
X46426285Y-26947809D01*
X46426285Y-27185904D01*
X46378666Y-27281142D01*
X46331047Y-27328761D01*
X46235809Y-27376380D01*
X45950095Y-27376380D01*
X45854857Y-27328761D01*
X45807238Y-27281142D01*
X59856761Y-27376380D02*
X59523428Y-26900190D01*
X59285333Y-27376380D02*
X59285333Y-26376380D01*
X59666285Y-26376380D01*
X59761523Y-26424000D01*
X59809142Y-26471619D01*
X59856761Y-26566857D01*
X59856761Y-26709714D01*
X59809142Y-26804952D01*
X59761523Y-26852571D01*
X59666285Y-26900190D01*
X59285333Y-26900190D01*
X60142476Y-26376380D02*
X60475809Y-27376380D01*
X60809142Y-26376380D01*
X61571047Y-26709714D02*
X61571047Y-27376380D01*
X61332952Y-26328761D02*
X61094857Y-27043047D01*
X61713904Y-27043047D01*
X34473808Y-47895238D02*
X33997618Y-48228571D01*
X34473808Y-48466666D02*
X33473808Y-48466666D01*
X33473808Y-48085714D01*
X33521428Y-47990476D01*
X33569047Y-47942857D01*
X33664285Y-47895238D01*
X33807142Y-47895238D01*
X33902380Y-47942857D01*
X33949999Y-47990476D01*
X33997618Y-48085714D01*
X33997618Y-48466666D01*
X33473808Y-47609523D02*
X34473808Y-47276190D01*
X33473808Y-46942857D01*
X33473808Y-46180952D02*
X33473808Y-46371428D01*
X33521428Y-46466666D01*
X33569047Y-46514285D01*
X33711904Y-46609523D01*
X33902380Y-46657142D01*
X34283332Y-46657142D01*
X34378570Y-46609523D01*
X34426189Y-46561904D01*
X34473808Y-46466666D01*
X34473808Y-46276190D01*
X34426189Y-46180952D01*
X34378570Y-46133333D01*
X34283332Y-46085714D01*
X34045237Y-46085714D01*
X33949999Y-46133333D01*
X33902380Y-46180952D01*
X33854761Y-46276190D01*
X33854761Y-46466666D01*
X33902380Y-46561904D01*
X33949999Y-46609523D01*
X34045237Y-46657142D01*
X21502761Y-91892380D02*
X21169428Y-91416190D01*
X20931333Y-91892380D02*
X20931333Y-90892380D01*
X21312285Y-90892380D01*
X21407523Y-90940000D01*
X21455142Y-90987619D01*
X21502761Y-91082857D01*
X21502761Y-91225714D01*
X21455142Y-91320952D01*
X21407523Y-91368571D01*
X21312285Y-91416190D01*
X20931333Y-91416190D01*
X21788476Y-90892380D02*
X22121809Y-91892380D01*
X22455142Y-90892380D01*
X22693238Y-90892380D02*
X23359904Y-90892380D01*
X22931333Y-91892380D01*
X44545236Y-47895238D02*
X44069046Y-48228571D01*
X44545236Y-48466666D02*
X43545236Y-48466666D01*
X43545236Y-48085714D01*
X43592856Y-47990476D01*
X43640475Y-47942857D01*
X43735713Y-47895238D01*
X43878570Y-47895238D01*
X43973808Y-47942857D01*
X44021427Y-47990476D01*
X44069046Y-48085714D01*
X44069046Y-48466666D01*
X43545236Y-47609523D02*
X44545236Y-47276190D01*
X43545236Y-46942857D01*
X43973808Y-46466666D02*
X43926189Y-46561904D01*
X43878570Y-46609523D01*
X43783332Y-46657142D01*
X43735713Y-46657142D01*
X43640475Y-46609523D01*
X43592856Y-46561904D01*
X43545236Y-46466666D01*
X43545236Y-46276190D01*
X43592856Y-46180952D01*
X43640475Y-46133333D01*
X43735713Y-46085714D01*
X43783332Y-46085714D01*
X43878570Y-46133333D01*
X43926189Y-46180952D01*
X43973808Y-46276190D01*
X43973808Y-46466666D01*
X44021427Y-46561904D01*
X44069046Y-46609523D01*
X44164284Y-46657142D01*
X44354760Y-46657142D01*
X44449998Y-46609523D01*
X44497617Y-46561904D01*
X44545236Y-46466666D01*
X44545236Y-46276190D01*
X44497617Y-46180952D01*
X44449998Y-46133333D01*
X44354760Y-46085714D01*
X44164284Y-46085714D01*
X44069046Y-46133333D01*
X44021427Y-46180952D01*
X43973808Y-46276190D01*
X54616664Y-47895238D02*
X54140474Y-48228571D01*
X54616664Y-48466666D02*
X53616664Y-48466666D01*
X53616664Y-48085714D01*
X53664284Y-47990476D01*
X53711903Y-47942857D01*
X53807141Y-47895238D01*
X53949998Y-47895238D01*
X54045236Y-47942857D01*
X54092855Y-47990476D01*
X54140474Y-48085714D01*
X54140474Y-48466666D01*
X53616664Y-47609523D02*
X54616664Y-47276190D01*
X53616664Y-46942857D01*
X54616664Y-46561904D02*
X54616664Y-46371428D01*
X54569045Y-46276190D01*
X54521426Y-46228571D01*
X54378569Y-46133333D01*
X54188093Y-46085714D01*
X53807141Y-46085714D01*
X53711903Y-46133333D01*
X53664284Y-46180952D01*
X53616664Y-46276190D01*
X53616664Y-46466666D01*
X53664284Y-46561904D01*
X53711903Y-46609523D01*
X53807141Y-46657142D01*
X54045236Y-46657142D01*
X54140474Y-46609523D01*
X54188093Y-46561904D01*
X54235712Y-46466666D01*
X54235712Y-46276190D01*
X54188093Y-46180952D01*
X54140474Y-46133333D01*
X54045236Y-46085714D01*
X38806571Y-91638380D02*
X38473238Y-91162190D01*
X38235142Y-91638380D02*
X38235142Y-90638380D01*
X38616095Y-90638380D01*
X38711333Y-90686000D01*
X38758952Y-90733619D01*
X38806571Y-90828857D01*
X38806571Y-90971714D01*
X38758952Y-91066952D01*
X38711333Y-91114571D01*
X38616095Y-91162190D01*
X38235142Y-91162190D01*
X39092285Y-90638380D02*
X39425619Y-91638380D01*
X39758952Y-90638380D01*
X40616095Y-91638380D02*
X40044666Y-91638380D01*
X40330380Y-91638380D02*
X40330380Y-90638380D01*
X40235142Y-90781238D01*
X40139904Y-90876476D01*
X40044666Y-90924095D01*
X41235142Y-90638380D02*
X41330380Y-90638380D01*
X41425619Y-90686000D01*
X41473238Y-90733619D01*
X41520857Y-90828857D01*
X41568476Y-91019333D01*
X41568476Y-91257428D01*
X41520857Y-91447904D01*
X41473238Y-91543142D01*
X41425619Y-91590761D01*
X41330380Y-91638380D01*
X41235142Y-91638380D01*
X41139904Y-91590761D01*
X41092285Y-91543142D01*
X41044666Y-91447904D01*
X40997047Y-91257428D01*
X40997047Y-91019333D01*
X41044666Y-90828857D01*
X41092285Y-90733619D01*
X41139904Y-90686000D01*
X41235142Y-90638380D01*
X64688092Y-48371428D02*
X64211902Y-48704761D01*
X64688092Y-48942857D02*
X63688092Y-48942857D01*
X63688092Y-48561904D01*
X63735712Y-48466666D01*
X63783331Y-48419047D01*
X63878569Y-48371428D01*
X64021426Y-48371428D01*
X64116664Y-48419047D01*
X64164283Y-48466666D01*
X64211902Y-48561904D01*
X64211902Y-48942857D01*
X63688092Y-48085714D02*
X64688092Y-47752380D01*
X63688092Y-47419047D01*
X64688092Y-46561904D02*
X64688092Y-47133333D01*
X64688092Y-46847619D02*
X63688092Y-46847619D01*
X63830950Y-46942857D01*
X63926188Y-47038095D01*
X63973807Y-47133333D01*
X64688092Y-45609523D02*
X64688092Y-46180952D01*
X64688092Y-45895238D02*
X63688092Y-45895238D01*
X63830950Y-45990476D01*
X63926188Y-46085714D01*
X63973807Y-46180952D01*
X74759520Y-48371428D02*
X74283330Y-48704761D01*
X74759520Y-48942857D02*
X73759520Y-48942857D01*
X73759520Y-48561904D01*
X73807140Y-48466666D01*
X73854759Y-48419047D01*
X73949997Y-48371428D01*
X74092854Y-48371428D01*
X74188092Y-48419047D01*
X74235711Y-48466666D01*
X74283330Y-48561904D01*
X74283330Y-48942857D01*
X73759520Y-48085714D02*
X74759520Y-47752380D01*
X73759520Y-47419047D01*
X74759520Y-46561904D02*
X74759520Y-47133333D01*
X74759520Y-46847619D02*
X73759520Y-46847619D01*
X73902378Y-46942857D01*
X73997616Y-47038095D01*
X74045235Y-47133333D01*
X73854759Y-46180952D02*
X73807140Y-46133333D01*
X73759520Y-46038095D01*
X73759520Y-45800000D01*
X73807140Y-45704761D01*
X73854759Y-45657142D01*
X73949997Y-45609523D01*
X74045235Y-45609523D01*
X74188092Y-45657142D01*
X74759520Y-46228571D01*
X74759520Y-45609523D01*
X58618571Y-91892380D02*
X58285238Y-91416190D01*
X58047142Y-91892380D02*
X58047142Y-90892380D01*
X58428095Y-90892380D01*
X58523333Y-90940000D01*
X58570952Y-90987619D01*
X58618571Y-91082857D01*
X58618571Y-91225714D01*
X58570952Y-91320952D01*
X58523333Y-91368571D01*
X58428095Y-91416190D01*
X58047142Y-91416190D01*
X58904285Y-90892380D02*
X59237619Y-91892380D01*
X59570952Y-90892380D01*
X60428095Y-91892380D02*
X59856666Y-91892380D01*
X60142380Y-91892380D02*
X60142380Y-90892380D01*
X60047142Y-91035238D01*
X59951904Y-91130476D01*
X59856666Y-91178095D01*
X60761428Y-90892380D02*
X61380476Y-90892380D01*
X61047142Y-91273333D01*
X61190000Y-91273333D01*
X61285238Y-91320952D01*
X61332857Y-91368571D01*
X61380476Y-91463809D01*
X61380476Y-91701904D01*
X61332857Y-91797142D01*
X61285238Y-91844761D01*
X61190000Y-91892380D01*
X60904285Y-91892380D01*
X60809047Y-91844761D01*
X60761428Y-91797142D01*
X84830948Y-48371428D02*
X84354758Y-48704761D01*
X84830948Y-48942857D02*
X83830948Y-48942857D01*
X83830948Y-48561904D01*
X83878568Y-48466666D01*
X83926187Y-48419047D01*
X84021425Y-48371428D01*
X84164282Y-48371428D01*
X84259520Y-48419047D01*
X84307139Y-48466666D01*
X84354758Y-48561904D01*
X84354758Y-48942857D01*
X83830948Y-48085714D02*
X84830948Y-47752380D01*
X83830948Y-47419047D01*
X84830948Y-46561904D02*
X84830948Y-47133333D01*
X84830948Y-46847619D02*
X83830948Y-46847619D01*
X83973806Y-46942857D01*
X84069044Y-47038095D01*
X84116663Y-47133333D01*
X84164282Y-45704761D02*
X84830948Y-45704761D01*
X83783329Y-45942857D02*
X84497615Y-46180952D01*
X84497615Y-45561904D01*
X91202380Y-51296428D02*
X90726190Y-51629761D01*
X91202380Y-51867857D02*
X90202380Y-51867857D01*
X90202380Y-51486904D01*
X90250000Y-51391666D01*
X90297619Y-51344047D01*
X90392857Y-51296428D01*
X90535714Y-51296428D01*
X90630952Y-51344047D01*
X90678571Y-51391666D01*
X90726190Y-51486904D01*
X90726190Y-51867857D01*
X90202380Y-51010714D02*
X91202380Y-50677380D01*
X90202380Y-50344047D01*
X91202380Y-49486904D02*
X91202380Y-50058333D01*
X91202380Y-49772619D02*
X90202380Y-49772619D01*
X90345238Y-49867857D01*
X90440476Y-49963095D01*
X90488095Y-50058333D01*
X90202380Y-48582142D02*
X90202380Y-49058333D01*
X90678571Y-49105952D01*
X90630952Y-49058333D01*
X90583333Y-48963095D01*
X90583333Y-48725000D01*
X90630952Y-48629761D01*
X90678571Y-48582142D01*
X90773809Y-48534523D01*
X91011904Y-48534523D01*
X91107142Y-48582142D01*
X91154761Y-48629761D01*
X91202380Y-48725000D01*
X91202380Y-48963095D01*
X91154761Y-49058333D01*
X91107142Y-49105952D01*
X79446571Y-91892380D02*
X79113238Y-91416190D01*
X78875142Y-91892380D02*
X78875142Y-90892380D01*
X79256095Y-90892380D01*
X79351333Y-90940000D01*
X79398952Y-90987619D01*
X79446571Y-91082857D01*
X79446571Y-91225714D01*
X79398952Y-91320952D01*
X79351333Y-91368571D01*
X79256095Y-91416190D01*
X78875142Y-91416190D01*
X79732285Y-90892380D02*
X80065619Y-91892380D01*
X80398952Y-90892380D01*
X81256095Y-91892380D02*
X80684666Y-91892380D01*
X80970380Y-91892380D02*
X80970380Y-90892380D01*
X80875142Y-91035238D01*
X80779904Y-91130476D01*
X80684666Y-91178095D01*
X82113238Y-90892380D02*
X81922761Y-90892380D01*
X81827523Y-90940000D01*
X81779904Y-90987619D01*
X81684666Y-91130476D01*
X81637047Y-91320952D01*
X81637047Y-91701904D01*
X81684666Y-91797142D01*
X81732285Y-91844761D01*
X81827523Y-91892380D01*
X82018000Y-91892380D01*
X82113238Y-91844761D01*
X82160857Y-91797142D01*
X82208476Y-91701904D01*
X82208476Y-91463809D01*
X82160857Y-91368571D01*
X82113238Y-91320952D01*
X82018000Y-91273333D01*
X81827523Y-91273333D01*
X81732285Y-91320952D01*
X81684666Y-91368571D01*
X81637047Y-91463809D01*
M02*
