M48
;DRILL file {KiCad (5.0.1)-3} date 13/04/2020 21:00:25
;FORMAT={-:-/ absolute / inch / decimal}
FMAT,2
INCH,TZ
T1C0.0157
T2C0.0295
T3C0.0315
T4C0.0354
T5C0.0394
T6C0.0400
T7C0.0433
T8C0.0472
T9C0.0630
T10C0.0866
%
G90
G05
M72
T1
X0.5187Y-2.81
X0.53Y-1.15
X0.56Y-2.72
X0.6185Y-2.32
X0.62Y-2.09
X0.6265Y-1.12
X0.6407Y-2.7362
X0.65Y-0.67
X0.66Y-1.09
X0.66Y-1.19
X0.67Y-2.92
X0.69Y-3.03
X0.7Y-2.42
X0.7515Y-3.0581
X0.7624Y-2.3324
X0.77Y-2.54
X0.78Y-2.4
X0.78Y-3.9509
X0.784Y-1.2746
X0.79Y-0.93
X0.79Y-1.05
X0.7909Y-1.922
X0.7909Y-1.5583
X0.81Y-1.6276
X0.82Y-4.08
X0.8307Y-3.2884
X0.84Y-1.0827
X0.8574Y-1.3134
X0.86Y-1.76
X0.86Y-2.72
X0.91Y-1.54
X0.91Y-2.13
X0.92Y-0.98
X0.92Y-1.94
X0.93Y-1.5
X0.93Y-2.08
X0.9426Y-2.18
X0.9441Y-1.26
X0.9441Y-1.4627
X0.9482Y-1.0541
X0.9535Y-2.0304
X0.9685Y-2.47
X0.98Y-1.5061
X1.Y-1.98
X1.0037Y-2.0237
X1.01Y-2.2779
X1.01Y-3.1715
X1.02Y-1.42
X1.0205Y-1.2402
X1.0275Y-1.5125
X1.0365Y-2.7194
X1.0371Y-2.2
X1.0668Y-2.2259
X1.08Y-0.63
X1.0802Y-3.1428
X1.1Y-0.78
X1.12Y-1.599
X1.12Y-3.1065
X1.13Y-0.82
X1.1693Y-0.5522
X1.17Y-2.48
X1.2Y-3.92
X1.2019Y-3.18
X1.22Y-2.71
X1.26Y-2.74
X1.27Y-3.8
X1.28Y-2.44
X1.2815Y-3.51
X1.3Y-0.82
X1.3Y-3.95
X1.3Y-4.19
X1.31Y-1.32
X1.31Y-1.66
X1.3115Y-2.5785
X1.3198Y-2.6498
X1.32Y-0.63
X1.32Y-2.1
X1.33Y-3.99
X1.3315Y-2.17
X1.35Y-0.95
X1.3585Y-3.78
X1.4Y-1.15
X1.41Y-1.07
X1.41Y-2.77
X1.4128Y-1.75
X1.4128Y-2.26
X1.4128Y-2.61
X1.43Y-1.0235
X1.43Y-2.47
X1.4305Y-1.79
X1.4305Y-2.17
X1.4365Y-1.46
X1.4365Y-1.7142
X1.44Y-2.4
X1.44Y-2.58
X1.44Y-3.21
X1.46Y-2.94
X1.47Y-1.18
X1.52Y-1.06
X1.5302Y-4.6398
X1.57Y-1.02
X1.58Y-3.9516
X1.59Y-2.3089
X1.61Y-1.92
X1.6241Y-1.2991
X1.63Y-0.9212
X1.63Y-2.28
X1.63Y-3.7904
X1.64Y-2.77
X1.69Y-0.86
X1.69Y-1.25
X1.7028Y-1.73
X1.71Y-0.8
X1.7118Y-1.2828
X1.72Y-1.6
X1.7215Y-2.2773
X1.73Y-1.97
X1.73Y-2.11
X1.74Y-2.24
X1.7497Y-1.0671
X1.75Y-0.5522
X1.7655Y-1.538
X1.77Y-1.24
X1.77Y-1.59
X1.7758Y-2.0426
X1.78Y-3.06
X1.79Y-1.5
X1.8Y-1.43
X1.8094Y-1.24
X1.81Y-1.98
X1.8137Y-2.0237
X1.83Y-1.51
X1.83Y-2.79
X1.87Y-1.32
X1.88Y-3.13
X1.89Y-0.86
X1.89Y-2.84
X1.8985Y-2.25
X1.91Y-3.05
X1.9271Y-2.2811
X1.93Y-1.58
X1.94Y-0.89
X1.97Y-3.91
X1.99Y-0.63
X2.Y-2.47
X2.04Y-0.939
X2.05Y-2.93
X2.0798Y-0.6702
X2.1065Y-2.72
X2.11Y-2.47
X2.11Y-2.98
X2.1415Y-2.58
X2.15Y-1.1437
X2.1563Y-1.66
X2.16Y-1.08
X2.16Y-2.29
X2.1698Y-1.4302
X2.17Y-4.73
X2.1715Y-4.0411
X2.174Y-1.8166
X2.174Y-2.16
X2.18Y-0.5522
X2.18Y-2.42
X2.18Y-2.52
X2.1815Y-1.4678
X2.1815Y-1.75
X2.2Y-3.71
X2.2Y-4.17
X2.2185Y-2.71
X2.2299Y-1.06
X2.23Y-1.33
X2.26Y-3.1
X2.29Y-1.17
X2.29Y-4.67
X2.32Y-2.59
X2.3327Y-0.5522
X2.35Y-3.79
X2.35Y-4.0129
X2.4015Y-2.2
X2.41Y-1.93
X2.41Y-3.94
X2.4113Y-2.813
X2.42Y-2.26
X2.43Y-0.98
X2.4595Y-2.2318
X2.4632Y-2.8454
X2.47Y-1.34
X2.48Y-4.66
X2.49Y-3.5
X2.49Y-4.3
X2.5Y-1.58
X2.5008Y-2.23
X2.5052Y-1.46
X2.51Y-1.63
X2.51Y-3.1
X2.5165Y-1.96
X2.5338Y-1.2619
X2.5348Y-1.0276
X2.55Y-2.05
X2.57Y-1.01
X2.5715Y-1.2505
X2.59Y-1.99
X2.5937Y-3.0637
X2.5953Y-2.13
X2.6Y-2.67
X2.6091Y-1.6309
X2.61Y-2.03
X2.6195Y-1.5105
X2.6352Y-3.5348
X2.6525Y-1.31
X2.6571Y-2.21
X2.69Y-2.44
X2.72Y-1.59
X2.72Y-2.6599
X2.7582Y-0.929
X2.77Y-2.6
X2.7785Y-3.8362
X2.79Y-2.37
X2.79Y-2.56
X2.81Y-3.91
X2.8185Y-2.3328
X2.82Y-2.53
X2.8315Y-2.2956
X2.8488Y-2.5
X2.86Y-0.63
X2.8982Y-2.9118
X2.9Y-1.31
X2.9Y-1.65
X2.9Y-3.61
X2.9059Y-2.6053
X2.9193Y-0.5522
X2.92Y-1.93
X2.92Y-2.13
X2.93Y-2.34
X2.94Y-2.21
X2.94Y-2.25
X2.96Y-2.07
X2.96Y-3.87
X2.96Y-4.01
X2.9615Y-1.79
X2.9615Y-2.17
X2.99Y-1.73
X2.99Y-2.26
X2.9915Y-1.45
X3.02Y-0.98
X3.05Y-1.1
X3.05Y-1.18
X3.065Y-0.5443
X3.0725Y-0.6757
X3.074Y-2.88
X3.08Y-4.66
X3.09Y-1.19
X3.1015Y-3.5
X3.131Y-2.92
X3.1583Y-3.0794
X3.1598Y-2.9638
X3.18Y-1.47
X3.18Y-1.58
X3.18Y-1.92
X3.1802Y-2.2302
X3.1815Y-4.1752
X3.1815Y-4.35
X3.2053Y-3.5244
X3.21Y-4.46
X3.23Y-1.
X3.2337Y-1.3437
X3.2352Y-2.2648
X3.2463Y-1.038
X3.27Y-1.31
X3.28Y-1.63
X3.2914Y-1.98
X3.2914Y-2.75
X3.2914Y-2.8886
X3.2957Y-2.13
X3.2957Y-2.25
X3.3085Y-1.57
X3.3164Y-1.53
X3.33Y-1.99
X3.33Y-2.35
X3.3425Y-1.2324
X3.35Y-3.0794
X3.3515Y-1.42
X3.36Y-2.75
X3.3652Y-1.97
X3.38Y-1.05
X3.38Y-1.2204
X3.39Y-1.48
X3.3969Y-1.5648
X3.3969Y-1.63
X3.4Y-3.15
X3.4Y-3.19
X3.4085Y-1.26
X3.4093Y-3.0431
X3.44Y-3.11
X3.4472Y-2.2182
X3.48Y-2.24
X3.48Y-3.11
X3.49Y-1.96
X3.51Y-3.07
X3.54Y-0.66
X3.57Y-2.2
X3.5744Y-3.2195
X3.58Y-1.53
X3.58Y-2.35
X3.61Y-2.94
X3.63Y-2.56
X3.63Y-2.6185
X3.6315Y-3.1229
X3.64Y-1.97
X3.6427Y-2.2973
X3.65Y-1.35
X3.65Y-1.65
X3.65Y-3.17
X3.65Y-3.22
T2
X0.61Y-3.08
X0.61Y-3.13
X0.61Y-3.18
T3
X0.62Y-3.4513
X0.62Y-3.53
X2.8516Y-3.56
X2.95Y-3.56
X2.9Y-3.04
X2.9984Y-3.04
T4
X2.6343Y-3.6713
X2.7343Y-3.6713
X1.6319Y-2.99
X1.7319Y-2.99
X3.2354Y-2.99
X3.3354Y-2.99
X2.4331Y-2.99
X2.5331Y-2.99
X1.0347Y-3.6713
X1.1347Y-3.6713
X0.84Y-2.99
X0.94Y-2.99
X3.4341Y-3.6713
X3.5341Y-3.6713
X1.8345Y-3.6713
X1.9345Y-3.6713
T5
X2.2762Y-1.0433
X2.3746Y-1.0433
X2.473Y-1.0433
X2.3871Y-3.5925
X2.4856Y-3.5925
X2.584Y-3.5925
X3.2244Y-0.5906
X1.5873Y-3.5925
X1.6857Y-3.5925
X1.7841Y-3.5925
X0.7874Y-3.5925
X0.8858Y-3.5925
X0.9843Y-3.5925
X3.187Y-3.5925
X3.2854Y-3.5925
X3.3839Y-3.5925
X0.9449Y-0.5827
X0.59Y-3.73
X0.69Y-3.73
X0.79Y-3.73
X1.1124Y-1.0433
X1.2108Y-1.0433
X1.3093Y-1.0433
X1.6943Y-1.0433
X1.7927Y-1.0433
X1.8911Y-1.0433
X2.7931Y-3.25
X2.99Y-3.25
X2.7931Y-3.37
X2.99Y-3.37
X2.8581Y-1.0433
X2.9565Y-1.0433
X3.0549Y-1.0433
T6
X2.02Y-3.09
X2.02Y-3.19
X2.02Y-3.29
X2.02Y-3.39
X2.02Y-3.49
X2.12Y-3.09
X2.12Y-3.19
X2.12Y-3.29
X2.12Y-3.39
X2.12Y-3.49
T7
X2.74Y-3.02
X2.74Y-3.12
X2.88Y-3.75
X2.98Y-3.75
T8
X2.6007Y-2.8563
X2.7582Y-1.1437
X2.7582Y-2.8563
X3.3937Y-2.8563
X3.5512Y-1.1437
X3.5512Y-2.8563
X1.8076Y-2.8563
X1.9651Y-1.1437
X1.9651Y-2.8563
X2.9972Y-2.8563
X3.1547Y-1.1437
X3.1547Y-2.8563
X1.4111Y-2.8563
X1.5686Y-1.1437
X1.5686Y-2.8563
X1.0146Y-2.8563
X1.1721Y-1.1437
X1.1721Y-2.8563
X0.6181Y-2.8563
X0.7756Y-1.1437
X0.7756Y-2.8563
X2.2042Y-2.8563
X2.3616Y-1.1437
X2.3616Y-2.8563
T9
X3.4843Y-4.3079
X3.4843Y-4.4299
X3.4843Y-4.7567
X1.8847Y-3.8614
X1.8847Y-4.1882
X1.8847Y-4.3102
X2.6845Y-4.3079
X2.6845Y-4.4299
X2.6845Y-4.7567
X2.2846Y-4.3079
X2.2846Y-4.4299
X2.2846Y-4.7567
X0.689Y-0.5543
X0.689Y-0.8811
X0.689Y-1.0031
X2.2846Y-3.8614
X2.2846Y-4.1882
X2.2846Y-4.3102
X3.4783Y-0.5543
X3.4783Y-0.8811
X3.4783Y-1.0031
X2.6845Y-3.8614
X2.6845Y-4.1882
X2.6845Y-4.3102
X1.0849Y-4.3079
X1.0849Y-4.4299
X1.0849Y-4.7567
X3.4843Y-3.8614
X3.4843Y-4.1882
X3.4843Y-4.3102
X0.685Y-3.8614
X0.685Y-4.1882
X0.685Y-4.3102
X1.0849Y-3.8614
X1.0849Y-4.1882
X1.0849Y-4.3102
X3.0844Y-3.8614
X3.0844Y-4.1882
X3.0844Y-4.3102
X0.685Y-4.3079
X0.685Y-4.4299
X0.685Y-4.7567
X1.8847Y-4.3079
X1.8847Y-4.4299
X1.8847Y-4.7567
X1.4848Y-3.8614
X1.4848Y-4.1882
X1.4848Y-4.3102
X3.0844Y-4.3079
X3.0844Y-4.4299
X3.0844Y-4.7567
X1.4848Y-4.3079
X1.4848Y-4.4299
X1.4848Y-4.7567
T10
X2.7675Y-0.748
X3.1455Y-0.748
X2.1856Y-0.748
X2.5636Y-0.748
X2.2966Y-3.2972
X2.6745Y-3.2972
X1.4967Y-3.2972
X1.8747Y-3.2972
X0.6969Y-3.2972
X1.0748Y-3.2972
X3.0965Y-3.2972
X3.4744Y-3.2972
X1.0219Y-0.748
X1.3998Y-0.748
X1.6037Y-0.748
X1.9817Y-0.748
T0
M30
