%TF.GenerationSoftware,KiCad,Pcbnew,(5.0.1)-3*%
%TF.CreationDate,2020-04-22T20:28:29+01:00*%
%TF.ProjectId,Front,46726F6E742E6B696361645F70636200,rev?*%
%TF.SameCoordinates,Original*%
%TF.FileFunction,Legend,Bot*%
%TF.FilePolarity,Positive*%
%FSLAX46Y46*%
G04 Gerber Fmt 4.6, Leading zero omitted, Abs format (unit mm)*
G04 Created by KiCad (PCBNEW (5.0.1)-3) date 22/04/2020 20:28:29*
%MOMM*%
%LPD*%
G01*
G04 APERTURE LIST*
%ADD10C,0.300000*%
%ADD11C,0.120000*%
%ADD12C,0.150000*%
G04 APERTURE END LIST*
D10*
X48148571Y-109293571D02*
X48148571Y-107793571D01*
X47577142Y-107793571D01*
X47434285Y-107865000D01*
X47362857Y-107936428D01*
X47291428Y-108079285D01*
X47291428Y-108293571D01*
X47362857Y-108436428D01*
X47434285Y-108507857D01*
X47577142Y-108579285D01*
X48148571Y-108579285D01*
X46648571Y-109293571D02*
X46648571Y-108293571D01*
X46648571Y-108579285D02*
X46577142Y-108436428D01*
X46505714Y-108365000D01*
X46362857Y-108293571D01*
X46220000Y-108293571D01*
X45148571Y-109222142D02*
X45291428Y-109293571D01*
X45577142Y-109293571D01*
X45720000Y-109222142D01*
X45791428Y-109079285D01*
X45791428Y-108507857D01*
X45720000Y-108365000D01*
X45577142Y-108293571D01*
X45291428Y-108293571D01*
X45148571Y-108365000D01*
X45077142Y-108507857D01*
X45077142Y-108650714D01*
X45791428Y-108793571D01*
X43791428Y-109222142D02*
X43934285Y-109293571D01*
X44220000Y-109293571D01*
X44362857Y-109222142D01*
X44434285Y-109150714D01*
X44505714Y-109007857D01*
X44505714Y-108579285D01*
X44434285Y-108436428D01*
X44362857Y-108365000D01*
X44220000Y-108293571D01*
X43934285Y-108293571D01*
X43791428Y-108365000D01*
X43148571Y-109293571D02*
X43148571Y-108293571D01*
X43148571Y-107793571D02*
X43220000Y-107865000D01*
X43148571Y-107936428D01*
X43077142Y-107865000D01*
X43148571Y-107793571D01*
X43148571Y-107936428D01*
X42505714Y-109222142D02*
X42362857Y-109293571D01*
X42077142Y-109293571D01*
X41934285Y-109222142D01*
X41862857Y-109079285D01*
X41862857Y-109007857D01*
X41934285Y-108865000D01*
X42077142Y-108793571D01*
X42291428Y-108793571D01*
X42434285Y-108722142D01*
X42505714Y-108579285D01*
X42505714Y-108507857D01*
X42434285Y-108365000D01*
X42291428Y-108293571D01*
X42077142Y-108293571D01*
X41934285Y-108365000D01*
X41220000Y-109293571D02*
X41220000Y-108293571D01*
X41220000Y-107793571D02*
X41291428Y-107865000D01*
X41220000Y-107936428D01*
X41148571Y-107865000D01*
X41220000Y-107793571D01*
X41220000Y-107936428D01*
X40291428Y-109293571D02*
X40434285Y-109222142D01*
X40505714Y-109150714D01*
X40577142Y-109007857D01*
X40577142Y-108579285D01*
X40505714Y-108436428D01*
X40434285Y-108365000D01*
X40291428Y-108293571D01*
X40077142Y-108293571D01*
X39934285Y-108365000D01*
X39862857Y-108436428D01*
X39791428Y-108579285D01*
X39791428Y-109007857D01*
X39862857Y-109150714D01*
X39934285Y-109222142D01*
X40077142Y-109293571D01*
X40291428Y-109293571D01*
X39148571Y-108293571D02*
X39148571Y-109293571D01*
X39148571Y-108436428D02*
X39077142Y-108365000D01*
X38934285Y-108293571D01*
X38720000Y-108293571D01*
X38577142Y-108365000D01*
X38505714Y-108507857D01*
X38505714Y-109293571D01*
X36648571Y-109293571D02*
X36648571Y-107793571D01*
X36148571Y-108865000D01*
X35648571Y-107793571D01*
X35648571Y-109293571D01*
X34291428Y-108293571D02*
X34291428Y-109293571D01*
X34934285Y-108293571D02*
X34934285Y-109079285D01*
X34862857Y-109222142D01*
X34720000Y-109293571D01*
X34505714Y-109293571D01*
X34362857Y-109222142D01*
X34291428Y-109150714D01*
X33362857Y-109293571D02*
X33505714Y-109222142D01*
X33577142Y-109079285D01*
X33577142Y-107793571D01*
X33005714Y-108293571D02*
X32434285Y-108293571D01*
X32791428Y-107793571D02*
X32791428Y-109079285D01*
X32720000Y-109222142D01*
X32577142Y-109293571D01*
X32434285Y-109293571D01*
X30934285Y-108293571D02*
X30577142Y-109293571D01*
X30219999Y-108293571D01*
X28862857Y-109293571D02*
X29720000Y-109293571D01*
X29291428Y-109293571D02*
X29291428Y-107793571D01*
X29434285Y-108007857D01*
X29577142Y-108150714D01*
X29720000Y-108222142D01*
X28220000Y-109150714D02*
X28148571Y-109222142D01*
X28220000Y-109293571D01*
X28291428Y-109222142D01*
X28220000Y-109150714D01*
X28220000Y-109293571D01*
X27220000Y-107793571D02*
X27077142Y-107793571D01*
X26934285Y-107865000D01*
X26862857Y-107936428D01*
X26791428Y-108079285D01*
X26720000Y-108365000D01*
X26720000Y-108722142D01*
X26791428Y-109007857D01*
X26862857Y-109150714D01*
X26934285Y-109222142D01*
X27077142Y-109293571D01*
X27220000Y-109293571D01*
X27362857Y-109222142D01*
X27434285Y-109150714D01*
X27505714Y-109007857D01*
X27577142Y-108722142D01*
X27577142Y-108365000D01*
X27505714Y-108079285D01*
X27434285Y-107936428D01*
X27362857Y-107865000D01*
X27220000Y-107793571D01*
X49505714Y-111772142D02*
X49291428Y-111843571D01*
X48934285Y-111843571D01*
X48791428Y-111772142D01*
X48720000Y-111700714D01*
X48648571Y-111557857D01*
X48648571Y-111415000D01*
X48720000Y-111272142D01*
X48791428Y-111200714D01*
X48934285Y-111129285D01*
X49220000Y-111057857D01*
X49362857Y-110986428D01*
X49434285Y-110915000D01*
X49505714Y-110772142D01*
X49505714Y-110629285D01*
X49434285Y-110486428D01*
X49362857Y-110415000D01*
X49220000Y-110343571D01*
X48862857Y-110343571D01*
X48648571Y-110415000D01*
X47362857Y-111843571D02*
X47362857Y-111057857D01*
X47434285Y-110915000D01*
X47577142Y-110843571D01*
X47862857Y-110843571D01*
X48005714Y-110915000D01*
X47362857Y-111772142D02*
X47505714Y-111843571D01*
X47862857Y-111843571D01*
X48005714Y-111772142D01*
X48077142Y-111629285D01*
X48077142Y-111486428D01*
X48005714Y-111343571D01*
X47862857Y-111272142D01*
X47505714Y-111272142D01*
X47362857Y-111200714D01*
X46648571Y-111843571D02*
X46648571Y-110843571D01*
X46648571Y-110986428D02*
X46577142Y-110915000D01*
X46434285Y-110843571D01*
X46220000Y-110843571D01*
X46077142Y-110915000D01*
X46005714Y-111057857D01*
X46005714Y-111843571D01*
X46005714Y-111057857D02*
X45934285Y-110915000D01*
X45791428Y-110843571D01*
X45577142Y-110843571D01*
X45434285Y-110915000D01*
X45362857Y-111057857D01*
X45362857Y-111843571D01*
X43720000Y-110343571D02*
X42862857Y-110343571D01*
X43291428Y-111843571D02*
X43291428Y-110343571D01*
X41720000Y-110843571D02*
X41720000Y-111843571D01*
X42362857Y-110843571D02*
X42362857Y-111629285D01*
X42291428Y-111772142D01*
X42148571Y-111843571D01*
X41934285Y-111843571D01*
X41791428Y-111772142D01*
X41720000Y-111700714D01*
X41077142Y-111772142D02*
X40934285Y-111843571D01*
X40648571Y-111843571D01*
X40505714Y-111772142D01*
X40434285Y-111629285D01*
X40434285Y-111557857D01*
X40505714Y-111415000D01*
X40648571Y-111343571D01*
X40862857Y-111343571D01*
X41005714Y-111272142D01*
X41077142Y-111129285D01*
X41077142Y-111057857D01*
X41005714Y-110915000D01*
X40862857Y-110843571D01*
X40648571Y-110843571D01*
X40505714Y-110915000D01*
X39791428Y-111843571D02*
X39791428Y-110343571D01*
X39648571Y-111272142D02*
X39220000Y-111843571D01*
X39220000Y-110843571D02*
X39791428Y-111415000D01*
X38505714Y-111772142D02*
X38505714Y-111843571D01*
X38577142Y-111986428D01*
X38648571Y-112057857D01*
X36791428Y-111415000D02*
X36077142Y-111415000D01*
X36934285Y-111843571D02*
X36434285Y-110343571D01*
X35934285Y-111843571D01*
X35434285Y-110843571D02*
X35434285Y-112343571D01*
X35434285Y-110915000D02*
X35291428Y-110843571D01*
X35005714Y-110843571D01*
X34862857Y-110915000D01*
X34791428Y-110986428D01*
X34720000Y-111129285D01*
X34720000Y-111557857D01*
X34791428Y-111700714D01*
X34862857Y-111772142D01*
X35005714Y-111843571D01*
X35291428Y-111843571D01*
X35434285Y-111772142D01*
X34077142Y-111843571D02*
X34077142Y-110843571D01*
X34077142Y-111129285D02*
X34005714Y-110986428D01*
X33934285Y-110915000D01*
X33791428Y-110843571D01*
X33648571Y-110843571D01*
X33148571Y-111843571D02*
X33148571Y-110843571D01*
X33148571Y-110343571D02*
X33220000Y-110415000D01*
X33148571Y-110486428D01*
X33077142Y-110415000D01*
X33148571Y-110343571D01*
X33148571Y-110486428D01*
X32220000Y-111843571D02*
X32362857Y-111772142D01*
X32434285Y-111629285D01*
X32434285Y-110343571D01*
X30577142Y-110486428D02*
X30505714Y-110415000D01*
X30362857Y-110343571D01*
X30005714Y-110343571D01*
X29862857Y-110415000D01*
X29791428Y-110486428D01*
X29720000Y-110629285D01*
X29720000Y-110772142D01*
X29791428Y-110986428D01*
X30648571Y-111843571D01*
X29720000Y-111843571D01*
X28791428Y-110343571D02*
X28648571Y-110343571D01*
X28505714Y-110415000D01*
X28434285Y-110486428D01*
X28362857Y-110629285D01*
X28291428Y-110915000D01*
X28291428Y-111272142D01*
X28362857Y-111557857D01*
X28434285Y-111700714D01*
X28505714Y-111772142D01*
X28648571Y-111843571D01*
X28791428Y-111843571D01*
X28934285Y-111772142D01*
X29005714Y-111700714D01*
X29077142Y-111557857D01*
X29148571Y-111272142D01*
X29148571Y-110915000D01*
X29077142Y-110629285D01*
X29005714Y-110486428D01*
X28934285Y-110415000D01*
X28791428Y-110343571D01*
X27720000Y-110486428D02*
X27648571Y-110415000D01*
X27505714Y-110343571D01*
X27148571Y-110343571D01*
X27005714Y-110415000D01*
X26934285Y-110486428D01*
X26862857Y-110629285D01*
X26862857Y-110772142D01*
X26934285Y-110986428D01*
X27791428Y-111843571D01*
X26862857Y-111843571D01*
X25934285Y-110343571D02*
X25791428Y-110343571D01*
X25648571Y-110415000D01*
X25577142Y-110486428D01*
X25505714Y-110629285D01*
X25434285Y-110915000D01*
X25434285Y-111272142D01*
X25505714Y-111557857D01*
X25577142Y-111700714D01*
X25648571Y-111772142D01*
X25791428Y-111843571D01*
X25934285Y-111843571D01*
X26077142Y-111772142D01*
X26148571Y-111700714D01*
X26220000Y-111557857D01*
X26291428Y-111272142D01*
X26291428Y-110915000D01*
X26220000Y-110629285D01*
X26148571Y-110486428D01*
X26077142Y-110415000D01*
X25934285Y-110343571D01*
X44148571Y-101148571D02*
X44148571Y-102220000D01*
X44220000Y-102434285D01*
X44362857Y-102577142D01*
X44577142Y-102648571D01*
X44720000Y-102648571D01*
X42720000Y-102648571D02*
X43434285Y-102648571D01*
X43434285Y-101148571D01*
X41362857Y-102505714D02*
X41434285Y-102577142D01*
X41648571Y-102648571D01*
X41791428Y-102648571D01*
X42005714Y-102577142D01*
X42148571Y-102434285D01*
X42220000Y-102291428D01*
X42291428Y-102005714D01*
X42291428Y-101791428D01*
X42220000Y-101505714D01*
X42148571Y-101362857D01*
X42005714Y-101220000D01*
X41791428Y-101148571D01*
X41648571Y-101148571D01*
X41434285Y-101220000D01*
X41362857Y-101291428D01*
X40291428Y-101148571D02*
X40291428Y-102220000D01*
X40362857Y-102434285D01*
X40505714Y-102577142D01*
X40720000Y-102648571D01*
X40862857Y-102648571D01*
X38862857Y-102648571D02*
X39577142Y-102648571D01*
X39577142Y-101148571D01*
X37505714Y-102505714D02*
X37577142Y-102577142D01*
X37791428Y-102648571D01*
X37934285Y-102648571D01*
X38148571Y-102577142D01*
X38291428Y-102434285D01*
X38362857Y-102291428D01*
X38434285Y-102005714D01*
X38434285Y-101791428D01*
X38362857Y-101505714D01*
X38291428Y-101362857D01*
X38148571Y-101220000D01*
X37934285Y-101148571D01*
X37791428Y-101148571D01*
X37577142Y-101220000D01*
X37505714Y-101291428D01*
X36434285Y-101148571D02*
X36434285Y-102220000D01*
X36505714Y-102434285D01*
X36648571Y-102577142D01*
X36862857Y-102648571D01*
X37005714Y-102648571D01*
X35005714Y-102648571D02*
X35720000Y-102648571D01*
X35720000Y-101148571D01*
X33648571Y-102505714D02*
X33720000Y-102577142D01*
X33934285Y-102648571D01*
X34077142Y-102648571D01*
X34291428Y-102577142D01*
X34434285Y-102434285D01*
X34505714Y-102291428D01*
X34577142Y-102005714D01*
X34577142Y-101791428D01*
X34505714Y-101505714D01*
X34434285Y-101362857D01*
X34291428Y-101220000D01*
X34077142Y-101148571D01*
X33934285Y-101148571D01*
X33720000Y-101220000D01*
X33648571Y-101291428D01*
X32577142Y-101148571D02*
X32577142Y-102220000D01*
X32648571Y-102434285D01*
X32791428Y-102577142D01*
X33005714Y-102648571D01*
X33148571Y-102648571D01*
X31148571Y-102648571D02*
X31862857Y-102648571D01*
X31862857Y-101148571D01*
X29791428Y-102505714D02*
X29862857Y-102577142D01*
X30077142Y-102648571D01*
X30220000Y-102648571D01*
X30434285Y-102577142D01*
X30577142Y-102434285D01*
X30648571Y-102291428D01*
X30720000Y-102005714D01*
X30720000Y-101791428D01*
X30648571Y-101505714D01*
X30577142Y-101362857D01*
X30434285Y-101220000D01*
X30220000Y-101148571D01*
X30077142Y-101148571D01*
X29862857Y-101220000D01*
X29791428Y-101291428D01*
D11*
X38830000Y-23270000D02*
X36170000Y-23270000D01*
X38830000Y-23270000D02*
X38830000Y-76670000D01*
X38830000Y-76670000D02*
X36170000Y-76670000D01*
X36170000Y-23270000D02*
X36170000Y-76670000D01*
X36170000Y-20670000D02*
X36170000Y-22000000D01*
X37500000Y-20670000D02*
X36170000Y-20670000D01*
X34710000Y-22761252D02*
X34710000Y-22238748D01*
X33290000Y-22761252D02*
X33290000Y-22238748D01*
X40290000Y-22761252D02*
X40290000Y-22238748D01*
X41710000Y-22761252D02*
X41710000Y-22238748D01*
X27790000Y-90736252D02*
X27790000Y-90213748D01*
X29210000Y-90736252D02*
X29210000Y-90213748D01*
X31210000Y-90761252D02*
X31210000Y-90238748D01*
X29790000Y-90761252D02*
X29790000Y-90238748D01*
X31790000Y-90761252D02*
X31790000Y-90238748D01*
X33210000Y-90761252D02*
X33210000Y-90238748D01*
X28210000Y-78261252D02*
X28210000Y-77738748D01*
X26790000Y-78261252D02*
X26790000Y-77738748D01*
X30210000Y-82738748D02*
X30210000Y-83261252D01*
X28790000Y-82738748D02*
X28790000Y-83261252D01*
X30790000Y-83261252D02*
X30790000Y-82738748D01*
X32210000Y-83261252D02*
X32210000Y-82738748D01*
X46210000Y-90761252D02*
X46210000Y-90238748D01*
X44790000Y-90761252D02*
X44790000Y-90238748D01*
X42790000Y-90761252D02*
X42790000Y-90238748D01*
X44210000Y-90761252D02*
X44210000Y-90238748D01*
X42210000Y-90761252D02*
X42210000Y-90238748D01*
X40790000Y-90761252D02*
X40790000Y-90238748D01*
X46290000Y-77761252D02*
X46290000Y-77238748D01*
X47710000Y-77761252D02*
X47710000Y-77238748D01*
X45710000Y-82738748D02*
X45710000Y-83261252D01*
X44290000Y-82738748D02*
X44290000Y-83261252D01*
X43710000Y-83286252D02*
X43710000Y-82763748D01*
X42290000Y-83286252D02*
X42290000Y-82763748D01*
D12*
X41859523Y-28202380D02*
X41859523Y-28916666D01*
X41907142Y-29059523D01*
X42002380Y-29154761D01*
X42145238Y-29202380D01*
X42240476Y-29202380D01*
X40859523Y-29202380D02*
X41430952Y-29202380D01*
X41145238Y-29202380D02*
X41145238Y-28202380D01*
X41240476Y-28345238D01*
X41335714Y-28440476D01*
X41430952Y-28488095D01*
X40288095Y-28630952D02*
X40383333Y-28583333D01*
X40430952Y-28535714D01*
X40478571Y-28440476D01*
X40478571Y-28392857D01*
X40430952Y-28297619D01*
X40383333Y-28250000D01*
X40288095Y-28202380D01*
X40097619Y-28202380D01*
X40002380Y-28250000D01*
X39954761Y-28297619D01*
X39907142Y-28392857D01*
X39907142Y-28440476D01*
X39954761Y-28535714D01*
X40002380Y-28583333D01*
X40097619Y-28630952D01*
X40288095Y-28630952D01*
X40383333Y-28678571D01*
X40430952Y-28726190D01*
X40478571Y-28821428D01*
X40478571Y-29011904D01*
X40430952Y-29107142D01*
X40383333Y-29154761D01*
X40288095Y-29202380D01*
X40097619Y-29202380D01*
X40002380Y-29154761D01*
X39954761Y-29107142D01*
X39907142Y-29011904D01*
X39907142Y-28821428D01*
X39954761Y-28726190D01*
X40002380Y-28678571D01*
X40097619Y-28630952D01*
X34452380Y-25333333D02*
X33976190Y-25000000D01*
X34452380Y-24761904D02*
X33452380Y-24761904D01*
X33452380Y-25142857D01*
X33500000Y-25238095D01*
X33547619Y-25285714D01*
X33642857Y-25333333D01*
X33785714Y-25333333D01*
X33880952Y-25285714D01*
X33928571Y-25238095D01*
X33976190Y-25142857D01*
X33976190Y-24761904D01*
X33452380Y-25666666D02*
X33452380Y-26333333D01*
X34452380Y-25904761D01*
X43102380Y-21857142D02*
X42626190Y-21523809D01*
X43102380Y-21285714D02*
X42102380Y-21285714D01*
X42102380Y-21666666D01*
X42150000Y-21761904D01*
X42197619Y-21809523D01*
X42292857Y-21857142D01*
X42435714Y-21857142D01*
X42530952Y-21809523D01*
X42578571Y-21761904D01*
X42626190Y-21666666D01*
X42626190Y-21285714D01*
X42197619Y-22238095D02*
X42150000Y-22285714D01*
X42102380Y-22380952D01*
X42102380Y-22619047D01*
X42150000Y-22714285D01*
X42197619Y-22761904D01*
X42292857Y-22809523D01*
X42388095Y-22809523D01*
X42530952Y-22761904D01*
X43102380Y-22190476D01*
X43102380Y-22809523D01*
X42435714Y-23666666D02*
X43102380Y-23666666D01*
X42054761Y-23428571D02*
X42769047Y-23190476D01*
X42769047Y-23809523D01*
X28952380Y-93357142D02*
X28476190Y-93023809D01*
X28952380Y-92785714D02*
X27952380Y-92785714D01*
X27952380Y-93166666D01*
X28000000Y-93261904D01*
X28047619Y-93309523D01*
X28142857Y-93357142D01*
X28285714Y-93357142D01*
X28380952Y-93309523D01*
X28428571Y-93261904D01*
X28476190Y-93166666D01*
X28476190Y-92785714D01*
X27952380Y-93690476D02*
X27952380Y-94309523D01*
X28333333Y-93976190D01*
X28333333Y-94119047D01*
X28380952Y-94214285D01*
X28428571Y-94261904D01*
X28523809Y-94309523D01*
X28761904Y-94309523D01*
X28857142Y-94261904D01*
X28904761Y-94214285D01*
X28952380Y-94119047D01*
X28952380Y-93833333D01*
X28904761Y-93738095D01*
X28857142Y-93690476D01*
X27952380Y-95166666D02*
X27952380Y-94976190D01*
X28000000Y-94880952D01*
X28047619Y-94833333D01*
X28190476Y-94738095D01*
X28380952Y-94690476D01*
X28761904Y-94690476D01*
X28857142Y-94738095D01*
X28904761Y-94785714D01*
X28952380Y-94880952D01*
X28952380Y-95071428D01*
X28904761Y-95166666D01*
X28857142Y-95214285D01*
X28761904Y-95261904D01*
X28523809Y-95261904D01*
X28428571Y-95214285D01*
X28380952Y-95166666D01*
X28333333Y-95071428D01*
X28333333Y-94880952D01*
X28380952Y-94785714D01*
X28428571Y-94738095D01*
X28523809Y-94690476D01*
X30952380Y-93357142D02*
X30476190Y-93023809D01*
X30952380Y-92785714D02*
X29952380Y-92785714D01*
X29952380Y-93166666D01*
X30000000Y-93261904D01*
X30047619Y-93309523D01*
X30142857Y-93357142D01*
X30285714Y-93357142D01*
X30380952Y-93309523D01*
X30428571Y-93261904D01*
X30476190Y-93166666D01*
X30476190Y-92785714D01*
X29952380Y-93690476D02*
X29952380Y-94309523D01*
X30333333Y-93976190D01*
X30333333Y-94119047D01*
X30380952Y-94214285D01*
X30428571Y-94261904D01*
X30523809Y-94309523D01*
X30761904Y-94309523D01*
X30857142Y-94261904D01*
X30904761Y-94214285D01*
X30952380Y-94119047D01*
X30952380Y-93833333D01*
X30904761Y-93738095D01*
X30857142Y-93690476D01*
X29952380Y-94642857D02*
X29952380Y-95309523D01*
X30952380Y-94880952D01*
X32952380Y-93357142D02*
X32476190Y-93023809D01*
X32952380Y-92785714D02*
X31952380Y-92785714D01*
X31952380Y-93166666D01*
X32000000Y-93261904D01*
X32047619Y-93309523D01*
X32142857Y-93357142D01*
X32285714Y-93357142D01*
X32380952Y-93309523D01*
X32428571Y-93261904D01*
X32476190Y-93166666D01*
X32476190Y-92785714D01*
X31952380Y-93690476D02*
X31952380Y-94309523D01*
X32333333Y-93976190D01*
X32333333Y-94119047D01*
X32380952Y-94214285D01*
X32428571Y-94261904D01*
X32523809Y-94309523D01*
X32761904Y-94309523D01*
X32857142Y-94261904D01*
X32904761Y-94214285D01*
X32952380Y-94119047D01*
X32952380Y-93833333D01*
X32904761Y-93738095D01*
X32857142Y-93690476D01*
X32380952Y-94880952D02*
X32333333Y-94785714D01*
X32285714Y-94738095D01*
X32190476Y-94690476D01*
X32142857Y-94690476D01*
X32047619Y-94738095D01*
X32000000Y-94785714D01*
X31952380Y-94880952D01*
X31952380Y-95071428D01*
X32000000Y-95166666D01*
X32047619Y-95214285D01*
X32142857Y-95261904D01*
X32190476Y-95261904D01*
X32285714Y-95214285D01*
X32333333Y-95166666D01*
X32380952Y-95071428D01*
X32380952Y-94880952D01*
X32428571Y-94785714D01*
X32476190Y-94738095D01*
X32571428Y-94690476D01*
X32761904Y-94690476D01*
X32857142Y-94738095D01*
X32904761Y-94785714D01*
X32952380Y-94880952D01*
X32952380Y-95071428D01*
X32904761Y-95166666D01*
X32857142Y-95214285D01*
X32761904Y-95261904D01*
X32571428Y-95261904D01*
X32476190Y-95214285D01*
X32428571Y-95166666D01*
X32380952Y-95071428D01*
X29602380Y-77357142D02*
X29126190Y-77023809D01*
X29602380Y-76785714D02*
X28602380Y-76785714D01*
X28602380Y-77166666D01*
X28650000Y-77261904D01*
X28697619Y-77309523D01*
X28792857Y-77357142D01*
X28935714Y-77357142D01*
X29030952Y-77309523D01*
X29078571Y-77261904D01*
X29126190Y-77166666D01*
X29126190Y-76785714D01*
X28602380Y-77690476D02*
X28602380Y-78309523D01*
X28983333Y-77976190D01*
X28983333Y-78119047D01*
X29030952Y-78214285D01*
X29078571Y-78261904D01*
X29173809Y-78309523D01*
X29411904Y-78309523D01*
X29507142Y-78261904D01*
X29554761Y-78214285D01*
X29602380Y-78119047D01*
X29602380Y-77833333D01*
X29554761Y-77738095D01*
X29507142Y-77690476D01*
X29602380Y-78785714D02*
X29602380Y-78976190D01*
X29554761Y-79071428D01*
X29507142Y-79119047D01*
X29364285Y-79214285D01*
X29173809Y-79261904D01*
X28792857Y-79261904D01*
X28697619Y-79214285D01*
X28650000Y-79166666D01*
X28602380Y-79071428D01*
X28602380Y-78880952D01*
X28650000Y-78785714D01*
X28697619Y-78738095D01*
X28792857Y-78690476D01*
X29030952Y-78690476D01*
X29126190Y-78738095D01*
X29173809Y-78785714D01*
X29221428Y-78880952D01*
X29221428Y-79071428D01*
X29173809Y-79166666D01*
X29126190Y-79214285D01*
X29030952Y-79261904D01*
X28302380Y-82357142D02*
X27826190Y-82023809D01*
X28302380Y-81785714D02*
X27302380Y-81785714D01*
X27302380Y-82166666D01*
X27350000Y-82261904D01*
X27397619Y-82309523D01*
X27492857Y-82357142D01*
X27635714Y-82357142D01*
X27730952Y-82309523D01*
X27778571Y-82261904D01*
X27826190Y-82166666D01*
X27826190Y-81785714D01*
X27635714Y-83214285D02*
X28302380Y-83214285D01*
X27254761Y-82976190D02*
X27969047Y-82738095D01*
X27969047Y-83357142D01*
X27302380Y-83642857D02*
X27302380Y-84261904D01*
X27683333Y-83928571D01*
X27683333Y-84071428D01*
X27730952Y-84166666D01*
X27778571Y-84214285D01*
X27873809Y-84261904D01*
X28111904Y-84261904D01*
X28207142Y-84214285D01*
X28254761Y-84166666D01*
X28302380Y-84071428D01*
X28302380Y-83785714D01*
X28254761Y-83690476D01*
X28207142Y-83642857D01*
X33602380Y-82357142D02*
X33126190Y-82023809D01*
X33602380Y-81785714D02*
X32602380Y-81785714D01*
X32602380Y-82166666D01*
X32650000Y-82261904D01*
X32697619Y-82309523D01*
X32792857Y-82357142D01*
X32935714Y-82357142D01*
X33030952Y-82309523D01*
X33078571Y-82261904D01*
X33126190Y-82166666D01*
X33126190Y-81785714D01*
X32935714Y-83214285D02*
X33602380Y-83214285D01*
X32554761Y-82976190D02*
X33269047Y-82738095D01*
X33269047Y-83357142D01*
X32935714Y-84166666D02*
X33602380Y-84166666D01*
X32554761Y-83928571D02*
X33269047Y-83690476D01*
X33269047Y-84309523D01*
X45952380Y-93357142D02*
X45476190Y-93023809D01*
X45952380Y-92785714D02*
X44952380Y-92785714D01*
X44952380Y-93166666D01*
X45000000Y-93261904D01*
X45047619Y-93309523D01*
X45142857Y-93357142D01*
X45285714Y-93357142D01*
X45380952Y-93309523D01*
X45428571Y-93261904D01*
X45476190Y-93166666D01*
X45476190Y-92785714D01*
X45285714Y-94214285D02*
X45952380Y-94214285D01*
X44904761Y-93976190D02*
X45619047Y-93738095D01*
X45619047Y-94357142D01*
X44952380Y-95166666D02*
X44952380Y-94976190D01*
X45000000Y-94880952D01*
X45047619Y-94833333D01*
X45190476Y-94738095D01*
X45380952Y-94690476D01*
X45761904Y-94690476D01*
X45857142Y-94738095D01*
X45904761Y-94785714D01*
X45952380Y-94880952D01*
X45952380Y-95071428D01*
X45904761Y-95166666D01*
X45857142Y-95214285D01*
X45761904Y-95261904D01*
X45523809Y-95261904D01*
X45428571Y-95214285D01*
X45380952Y-95166666D01*
X45333333Y-95071428D01*
X45333333Y-94880952D01*
X45380952Y-94785714D01*
X45428571Y-94738095D01*
X45523809Y-94690476D01*
X43952380Y-93357142D02*
X43476190Y-93023809D01*
X43952380Y-92785714D02*
X42952380Y-92785714D01*
X42952380Y-93166666D01*
X43000000Y-93261904D01*
X43047619Y-93309523D01*
X43142857Y-93357142D01*
X43285714Y-93357142D01*
X43380952Y-93309523D01*
X43428571Y-93261904D01*
X43476190Y-93166666D01*
X43476190Y-92785714D01*
X43285714Y-94214285D02*
X43952380Y-94214285D01*
X42904761Y-93976190D02*
X43619047Y-93738095D01*
X43619047Y-94357142D01*
X42952380Y-94642857D02*
X42952380Y-95309523D01*
X43952380Y-94880952D01*
X41952380Y-93357142D02*
X41476190Y-93023809D01*
X41952380Y-92785714D02*
X40952380Y-92785714D01*
X40952380Y-93166666D01*
X41000000Y-93261904D01*
X41047619Y-93309523D01*
X41142857Y-93357142D01*
X41285714Y-93357142D01*
X41380952Y-93309523D01*
X41428571Y-93261904D01*
X41476190Y-93166666D01*
X41476190Y-92785714D01*
X41285714Y-94214285D02*
X41952380Y-94214285D01*
X40904761Y-93976190D02*
X41619047Y-93738095D01*
X41619047Y-94357142D01*
X41380952Y-94880952D02*
X41333333Y-94785714D01*
X41285714Y-94738095D01*
X41190476Y-94690476D01*
X41142857Y-94690476D01*
X41047619Y-94738095D01*
X41000000Y-94785714D01*
X40952380Y-94880952D01*
X40952380Y-95071428D01*
X41000000Y-95166666D01*
X41047619Y-95214285D01*
X41142857Y-95261904D01*
X41190476Y-95261904D01*
X41285714Y-95214285D01*
X41333333Y-95166666D01*
X41380952Y-95071428D01*
X41380952Y-94880952D01*
X41428571Y-94785714D01*
X41476190Y-94738095D01*
X41571428Y-94690476D01*
X41761904Y-94690476D01*
X41857142Y-94738095D01*
X41904761Y-94785714D01*
X41952380Y-94880952D01*
X41952380Y-95071428D01*
X41904761Y-95166666D01*
X41857142Y-95214285D01*
X41761904Y-95261904D01*
X41571428Y-95261904D01*
X41476190Y-95214285D01*
X41428571Y-95166666D01*
X41380952Y-95071428D01*
X49102380Y-76857142D02*
X48626190Y-76523809D01*
X49102380Y-76285714D02*
X48102380Y-76285714D01*
X48102380Y-76666666D01*
X48150000Y-76761904D01*
X48197619Y-76809523D01*
X48292857Y-76857142D01*
X48435714Y-76857142D01*
X48530952Y-76809523D01*
X48578571Y-76761904D01*
X48626190Y-76666666D01*
X48626190Y-76285714D01*
X48435714Y-77714285D02*
X49102380Y-77714285D01*
X48054761Y-77476190D02*
X48769047Y-77238095D01*
X48769047Y-77857142D01*
X49102380Y-78285714D02*
X49102380Y-78476190D01*
X49054761Y-78571428D01*
X49007142Y-78619047D01*
X48864285Y-78714285D01*
X48673809Y-78761904D01*
X48292857Y-78761904D01*
X48197619Y-78714285D01*
X48150000Y-78666666D01*
X48102380Y-78571428D01*
X48102380Y-78380952D01*
X48150000Y-78285714D01*
X48197619Y-78238095D01*
X48292857Y-78190476D01*
X48530952Y-78190476D01*
X48626190Y-78238095D01*
X48673809Y-78285714D01*
X48721428Y-78380952D01*
X48721428Y-78571428D01*
X48673809Y-78666666D01*
X48626190Y-78714285D01*
X48530952Y-78761904D01*
X47452380Y-82357142D02*
X46976190Y-82023809D01*
X47452380Y-81785714D02*
X46452380Y-81785714D01*
X46452380Y-82166666D01*
X46500000Y-82261904D01*
X46547619Y-82309523D01*
X46642857Y-82357142D01*
X46785714Y-82357142D01*
X46880952Y-82309523D01*
X46928571Y-82261904D01*
X46976190Y-82166666D01*
X46976190Y-81785714D01*
X46452380Y-83261904D02*
X46452380Y-82785714D01*
X46928571Y-82738095D01*
X46880952Y-82785714D01*
X46833333Y-82880952D01*
X46833333Y-83119047D01*
X46880952Y-83214285D01*
X46928571Y-83261904D01*
X47023809Y-83309523D01*
X47261904Y-83309523D01*
X47357142Y-83261904D01*
X47404761Y-83214285D01*
X47452380Y-83119047D01*
X47452380Y-82880952D01*
X47404761Y-82785714D01*
X47357142Y-82738095D01*
X46452380Y-83642857D02*
X46452380Y-84261904D01*
X46833333Y-83928571D01*
X46833333Y-84071428D01*
X46880952Y-84166666D01*
X46928571Y-84214285D01*
X47023809Y-84261904D01*
X47261904Y-84261904D01*
X47357142Y-84214285D01*
X47404761Y-84166666D01*
X47452380Y-84071428D01*
X47452380Y-83785714D01*
X47404761Y-83690476D01*
X47357142Y-83642857D01*
X41952380Y-82357142D02*
X41476190Y-82023809D01*
X41952380Y-81785714D02*
X40952380Y-81785714D01*
X40952380Y-82166666D01*
X41000000Y-82261904D01*
X41047619Y-82309523D01*
X41142857Y-82357142D01*
X41285714Y-82357142D01*
X41380952Y-82309523D01*
X41428571Y-82261904D01*
X41476190Y-82166666D01*
X41476190Y-81785714D01*
X40952380Y-83261904D02*
X40952380Y-82785714D01*
X41428571Y-82738095D01*
X41380952Y-82785714D01*
X41333333Y-82880952D01*
X41333333Y-83119047D01*
X41380952Y-83214285D01*
X41428571Y-83261904D01*
X41523809Y-83309523D01*
X41761904Y-83309523D01*
X41857142Y-83261904D01*
X41904761Y-83214285D01*
X41952380Y-83119047D01*
X41952380Y-82880952D01*
X41904761Y-82785714D01*
X41857142Y-82738095D01*
X41285714Y-84166666D02*
X41952380Y-84166666D01*
X40904761Y-83928571D02*
X41619047Y-83690476D01*
X41619047Y-84309523D01*
M02*
