M48
;DRILL file {KiCad (5.0.1)-3} date 22/04/2020 20:28:34
;FORMAT={-:-/ absolute / inch / decimal}
FMAT,2
INCH,TZ
T1C0.0157
T2C0.0354
T3C0.0394
T4C0.0433
T5C0.0551
%
G90
G05
M72
T1
X1.0866Y-2.9646
X1.2077Y-3.3819
X1.7274Y-3.374
T2
X1.6929Y-3.0315
X1.6929Y-3.1315
X1.1811Y-0.8449
X1.1811Y-0.9449
X1.7717Y-0.8449
X1.7717Y-0.9449
X1.2402Y-3.0315
X1.2402Y-3.1315
T3
X1.4764Y-0.8661
X1.4764Y-0.9661
X1.4764Y-1.0661
X1.4764Y-1.1661
X1.4764Y-1.2661
X1.4764Y-1.3661
X1.4764Y-1.4661
X1.4764Y-1.5661
X1.4764Y-1.6661
X1.4764Y-1.7661
X1.4764Y-1.8661
X1.4764Y-1.9661
X1.4764Y-2.0661
X1.4764Y-2.1661
X1.4764Y-2.2661
X1.4764Y-2.3661
X1.4764Y-2.4661
X1.4764Y-2.5661
X1.4764Y-2.6661
X1.4764Y-2.7661
X1.4764Y-2.8661
X1.4764Y-2.9661
T4
X1.7717Y-1.4843
X1.7717Y-2.4528
X1.4685Y-3.7598
X1.4646Y-4.5079
X1.1811Y-1.4843
X1.7717Y-1.4882
X1.4685Y-3.3858
X1.4646Y-4.1339
X1.1811Y-2.4488
X1.4685Y-4.5079
X1.1811Y-2.4528
X1.7717Y-2.4488
X1.4646Y-3.3858
X1.4685Y-4.1339
X1.4646Y-3.7598
X1.1811Y-1.4882
T5
X1.7717Y-1.5795
X1.7717Y-1.9063
X1.7717Y-2.0307
X1.7717Y-2.3575
X1.0465Y-3.7598
X1.3732Y-3.7598
X1.5598Y-4.5079
X1.8866Y-4.5079
X1.1811Y-1.5795
X1.1811Y-1.9063
X1.7717Y-1.0661
X1.7717Y-1.3929
X1.0465Y-3.3858
X1.3732Y-3.3858
X1.5598Y-4.1339
X1.8866Y-4.1339
X1.1811Y-2.5441
X1.1811Y-2.8709
X1.0465Y-4.5079
X1.3732Y-4.5079
X1.1811Y-2.0307
X1.1811Y-2.3575
X1.7717Y-2.5441
X1.7717Y-2.8709
X1.5598Y-3.3858
X1.8866Y-3.3858
X1.0465Y-4.1339
X1.3732Y-4.1339
X1.5598Y-3.7598
X1.8866Y-3.7598
X1.1811Y-1.0661
X1.1811Y-1.3929
T0
M30
