%TF.GenerationSoftware,KiCad,Pcbnew,(5.0.1)-3*%
%TF.CreationDate,2020-04-22T20:28:29+01:00*%
%TF.ProjectId,Front,46726F6E742E6B696361645F70636200,rev?*%
%TF.SameCoordinates,Original*%
%TF.FileFunction,Copper,L2,Bot,Signal*%
%TF.FilePolarity,Positive*%
%FSLAX46Y46*%
G04 Gerber Fmt 4.6, Leading zero omitted, Abs format (unit mm)*
G04 Created by KiCad (PCBNEW (5.0.1)-3) date 22/04/2020 20:28:29*
%MOMM*%
%LPD*%
G01*
G04 APERTURE LIST*
%ADD10R,1.800000X1.800000*%
%ADD11C,1.800000*%
%ADD12C,2.000000*%
%ADD13R,1.700000X1.700000*%
%ADD14O,1.700000X1.700000*%
%ADD15C,0.400000*%
%ADD16C,1.150000*%
%ADD17C,0.800000*%
%ADD18C,0.650000*%
%ADD19C,0.350000*%
%ADD20C,0.300000*%
%ADD21C,0.250000*%
%ADD22C,0.254000*%
G04 APERTURE END LIST*
D10*
X30000000Y-24000000D03*
D11*
X30000000Y-21460000D03*
X45000000Y-21460000D03*
D10*
X45000000Y-24000000D03*
D11*
X31500000Y-79540000D03*
D10*
X31500000Y-77000000D03*
X43000000Y-77000000D03*
D11*
X43000000Y-79540000D03*
D12*
X30000000Y-35380000D03*
D11*
X30000000Y-37800000D03*
D12*
X30000000Y-27080000D03*
X30000000Y-48420000D03*
D11*
X30000000Y-37700000D03*
D12*
X30000000Y-40120000D03*
X30000000Y-59880000D03*
D11*
X30000000Y-62300000D03*
D12*
X30000000Y-51580000D03*
X30000000Y-72920000D03*
D11*
X30000000Y-62200000D03*
D12*
X30000000Y-64620000D03*
X45000000Y-35380000D03*
D11*
X45000000Y-37800000D03*
D12*
X45000000Y-27080000D03*
X45000000Y-40120000D03*
D11*
X45000000Y-37700000D03*
D12*
X45000000Y-48420000D03*
X45000000Y-51580000D03*
D11*
X45000000Y-62300000D03*
D12*
X45000000Y-59880000D03*
X45000000Y-64620000D03*
D11*
X45000000Y-62200000D03*
D12*
X45000000Y-72920000D03*
X26580000Y-86000000D03*
D11*
X37300000Y-86000000D03*
D12*
X34880000Y-86000000D03*
X26580000Y-95500000D03*
D11*
X37300000Y-95500000D03*
D12*
X34880000Y-95500000D03*
X26580000Y-105000000D03*
D11*
X37300000Y-105000000D03*
D12*
X34880000Y-105000000D03*
X26580000Y-114500000D03*
D11*
X37300000Y-114500000D03*
D12*
X34880000Y-114500000D03*
X39620000Y-86000000D03*
D11*
X37200000Y-86000000D03*
D12*
X47920000Y-86000000D03*
X39620000Y-95500000D03*
D11*
X37200000Y-95500000D03*
D12*
X47920000Y-95500000D03*
X47920000Y-105000000D03*
D11*
X37200000Y-105000000D03*
D12*
X39620000Y-105000000D03*
X39620000Y-114500000D03*
D11*
X37200000Y-114500000D03*
D12*
X47920000Y-114500000D03*
D13*
X37500000Y-22000000D03*
D14*
X37500000Y-24540000D03*
X37500000Y-27080000D03*
X37500000Y-29620000D03*
X37500000Y-32160000D03*
X37500000Y-34700000D03*
X37500000Y-37240000D03*
X37500000Y-39780000D03*
X37500000Y-42320000D03*
X37500000Y-44860000D03*
X37500000Y-47400000D03*
X37500000Y-49940000D03*
X37500000Y-52480000D03*
X37500000Y-55020000D03*
X37500000Y-57560000D03*
X37500000Y-60100000D03*
X37500000Y-62640000D03*
X37500000Y-65180000D03*
X37500000Y-67720000D03*
X37500000Y-70260000D03*
X37500000Y-72800000D03*
X37500000Y-75340000D03*
D15*
G36*
X34474505Y-22951204D02*
X34498773Y-22954804D01*
X34522572Y-22960765D01*
X34545671Y-22969030D01*
X34567850Y-22979520D01*
X34588893Y-22992132D01*
X34608599Y-23006747D01*
X34626777Y-23023223D01*
X34643253Y-23041401D01*
X34657868Y-23061107D01*
X34670480Y-23082150D01*
X34680970Y-23104329D01*
X34689235Y-23127428D01*
X34695196Y-23151227D01*
X34698796Y-23175495D01*
X34700000Y-23199999D01*
X34700000Y-23850001D01*
X34698796Y-23874505D01*
X34695196Y-23898773D01*
X34689235Y-23922572D01*
X34680970Y-23945671D01*
X34670480Y-23967850D01*
X34657868Y-23988893D01*
X34643253Y-24008599D01*
X34626777Y-24026777D01*
X34608599Y-24043253D01*
X34588893Y-24057868D01*
X34567850Y-24070480D01*
X34545671Y-24080970D01*
X34522572Y-24089235D01*
X34498773Y-24095196D01*
X34474505Y-24098796D01*
X34450001Y-24100000D01*
X33549999Y-24100000D01*
X33525495Y-24098796D01*
X33501227Y-24095196D01*
X33477428Y-24089235D01*
X33454329Y-24080970D01*
X33432150Y-24070480D01*
X33411107Y-24057868D01*
X33391401Y-24043253D01*
X33373223Y-24026777D01*
X33356747Y-24008599D01*
X33342132Y-23988893D01*
X33329520Y-23967850D01*
X33319030Y-23945671D01*
X33310765Y-23922572D01*
X33304804Y-23898773D01*
X33301204Y-23874505D01*
X33300000Y-23850001D01*
X33300000Y-23199999D01*
X33301204Y-23175495D01*
X33304804Y-23151227D01*
X33310765Y-23127428D01*
X33319030Y-23104329D01*
X33329520Y-23082150D01*
X33342132Y-23061107D01*
X33356747Y-23041401D01*
X33373223Y-23023223D01*
X33391401Y-23006747D01*
X33411107Y-22992132D01*
X33432150Y-22979520D01*
X33454329Y-22969030D01*
X33477428Y-22960765D01*
X33501227Y-22954804D01*
X33525495Y-22951204D01*
X33549999Y-22950000D01*
X34450001Y-22950000D01*
X34474505Y-22951204D01*
X34474505Y-22951204D01*
G37*
D16*
X34000000Y-23525000D03*
D15*
G36*
X34474505Y-20901204D02*
X34498773Y-20904804D01*
X34522572Y-20910765D01*
X34545671Y-20919030D01*
X34567850Y-20929520D01*
X34588893Y-20942132D01*
X34608599Y-20956747D01*
X34626777Y-20973223D01*
X34643253Y-20991401D01*
X34657868Y-21011107D01*
X34670480Y-21032150D01*
X34680970Y-21054329D01*
X34689235Y-21077428D01*
X34695196Y-21101227D01*
X34698796Y-21125495D01*
X34700000Y-21149999D01*
X34700000Y-21800001D01*
X34698796Y-21824505D01*
X34695196Y-21848773D01*
X34689235Y-21872572D01*
X34680970Y-21895671D01*
X34670480Y-21917850D01*
X34657868Y-21938893D01*
X34643253Y-21958599D01*
X34626777Y-21976777D01*
X34608599Y-21993253D01*
X34588893Y-22007868D01*
X34567850Y-22020480D01*
X34545671Y-22030970D01*
X34522572Y-22039235D01*
X34498773Y-22045196D01*
X34474505Y-22048796D01*
X34450001Y-22050000D01*
X33549999Y-22050000D01*
X33525495Y-22048796D01*
X33501227Y-22045196D01*
X33477428Y-22039235D01*
X33454329Y-22030970D01*
X33432150Y-22020480D01*
X33411107Y-22007868D01*
X33391401Y-21993253D01*
X33373223Y-21976777D01*
X33356747Y-21958599D01*
X33342132Y-21938893D01*
X33329520Y-21917850D01*
X33319030Y-21895671D01*
X33310765Y-21872572D01*
X33304804Y-21848773D01*
X33301204Y-21824505D01*
X33300000Y-21800001D01*
X33300000Y-21149999D01*
X33301204Y-21125495D01*
X33304804Y-21101227D01*
X33310765Y-21077428D01*
X33319030Y-21054329D01*
X33329520Y-21032150D01*
X33342132Y-21011107D01*
X33356747Y-20991401D01*
X33373223Y-20973223D01*
X33391401Y-20956747D01*
X33411107Y-20942132D01*
X33432150Y-20929520D01*
X33454329Y-20919030D01*
X33477428Y-20910765D01*
X33501227Y-20904804D01*
X33525495Y-20901204D01*
X33549999Y-20900000D01*
X34450001Y-20900000D01*
X34474505Y-20901204D01*
X34474505Y-20901204D01*
G37*
D16*
X34000000Y-21475000D03*
D15*
G36*
X41474505Y-20901204D02*
X41498773Y-20904804D01*
X41522572Y-20910765D01*
X41545671Y-20919030D01*
X41567850Y-20929520D01*
X41588893Y-20942132D01*
X41608599Y-20956747D01*
X41626777Y-20973223D01*
X41643253Y-20991401D01*
X41657868Y-21011107D01*
X41670480Y-21032150D01*
X41680970Y-21054329D01*
X41689235Y-21077428D01*
X41695196Y-21101227D01*
X41698796Y-21125495D01*
X41700000Y-21149999D01*
X41700000Y-21800001D01*
X41698796Y-21824505D01*
X41695196Y-21848773D01*
X41689235Y-21872572D01*
X41680970Y-21895671D01*
X41670480Y-21917850D01*
X41657868Y-21938893D01*
X41643253Y-21958599D01*
X41626777Y-21976777D01*
X41608599Y-21993253D01*
X41588893Y-22007868D01*
X41567850Y-22020480D01*
X41545671Y-22030970D01*
X41522572Y-22039235D01*
X41498773Y-22045196D01*
X41474505Y-22048796D01*
X41450001Y-22050000D01*
X40549999Y-22050000D01*
X40525495Y-22048796D01*
X40501227Y-22045196D01*
X40477428Y-22039235D01*
X40454329Y-22030970D01*
X40432150Y-22020480D01*
X40411107Y-22007868D01*
X40391401Y-21993253D01*
X40373223Y-21976777D01*
X40356747Y-21958599D01*
X40342132Y-21938893D01*
X40329520Y-21917850D01*
X40319030Y-21895671D01*
X40310765Y-21872572D01*
X40304804Y-21848773D01*
X40301204Y-21824505D01*
X40300000Y-21800001D01*
X40300000Y-21149999D01*
X40301204Y-21125495D01*
X40304804Y-21101227D01*
X40310765Y-21077428D01*
X40319030Y-21054329D01*
X40329520Y-21032150D01*
X40342132Y-21011107D01*
X40356747Y-20991401D01*
X40373223Y-20973223D01*
X40391401Y-20956747D01*
X40411107Y-20942132D01*
X40432150Y-20929520D01*
X40454329Y-20919030D01*
X40477428Y-20910765D01*
X40501227Y-20904804D01*
X40525495Y-20901204D01*
X40549999Y-20900000D01*
X41450001Y-20900000D01*
X41474505Y-20901204D01*
X41474505Y-20901204D01*
G37*
D16*
X41000000Y-21475000D03*
D15*
G36*
X41474505Y-22951204D02*
X41498773Y-22954804D01*
X41522572Y-22960765D01*
X41545671Y-22969030D01*
X41567850Y-22979520D01*
X41588893Y-22992132D01*
X41608599Y-23006747D01*
X41626777Y-23023223D01*
X41643253Y-23041401D01*
X41657868Y-23061107D01*
X41670480Y-23082150D01*
X41680970Y-23104329D01*
X41689235Y-23127428D01*
X41695196Y-23151227D01*
X41698796Y-23175495D01*
X41700000Y-23199999D01*
X41700000Y-23850001D01*
X41698796Y-23874505D01*
X41695196Y-23898773D01*
X41689235Y-23922572D01*
X41680970Y-23945671D01*
X41670480Y-23967850D01*
X41657868Y-23988893D01*
X41643253Y-24008599D01*
X41626777Y-24026777D01*
X41608599Y-24043253D01*
X41588893Y-24057868D01*
X41567850Y-24070480D01*
X41545671Y-24080970D01*
X41522572Y-24089235D01*
X41498773Y-24095196D01*
X41474505Y-24098796D01*
X41450001Y-24100000D01*
X40549999Y-24100000D01*
X40525495Y-24098796D01*
X40501227Y-24095196D01*
X40477428Y-24089235D01*
X40454329Y-24080970D01*
X40432150Y-24070480D01*
X40411107Y-24057868D01*
X40391401Y-24043253D01*
X40373223Y-24026777D01*
X40356747Y-24008599D01*
X40342132Y-23988893D01*
X40329520Y-23967850D01*
X40319030Y-23945671D01*
X40310765Y-23922572D01*
X40304804Y-23898773D01*
X40301204Y-23874505D01*
X40300000Y-23850001D01*
X40300000Y-23199999D01*
X40301204Y-23175495D01*
X40304804Y-23151227D01*
X40310765Y-23127428D01*
X40319030Y-23104329D01*
X40329520Y-23082150D01*
X40342132Y-23061107D01*
X40356747Y-23041401D01*
X40373223Y-23023223D01*
X40391401Y-23006747D01*
X40411107Y-22992132D01*
X40432150Y-22979520D01*
X40454329Y-22969030D01*
X40477428Y-22960765D01*
X40501227Y-22954804D01*
X40525495Y-22951204D01*
X40549999Y-22950000D01*
X41450001Y-22950000D01*
X41474505Y-22951204D01*
X41474505Y-22951204D01*
G37*
D16*
X41000000Y-23525000D03*
D15*
G36*
X28974505Y-88876204D02*
X28998773Y-88879804D01*
X29022572Y-88885765D01*
X29045671Y-88894030D01*
X29067850Y-88904520D01*
X29088893Y-88917132D01*
X29108599Y-88931747D01*
X29126777Y-88948223D01*
X29143253Y-88966401D01*
X29157868Y-88986107D01*
X29170480Y-89007150D01*
X29180970Y-89029329D01*
X29189235Y-89052428D01*
X29195196Y-89076227D01*
X29198796Y-89100495D01*
X29200000Y-89124999D01*
X29200000Y-89775001D01*
X29198796Y-89799505D01*
X29195196Y-89823773D01*
X29189235Y-89847572D01*
X29180970Y-89870671D01*
X29170480Y-89892850D01*
X29157868Y-89913893D01*
X29143253Y-89933599D01*
X29126777Y-89951777D01*
X29108599Y-89968253D01*
X29088893Y-89982868D01*
X29067850Y-89995480D01*
X29045671Y-90005970D01*
X29022572Y-90014235D01*
X28998773Y-90020196D01*
X28974505Y-90023796D01*
X28950001Y-90025000D01*
X28049999Y-90025000D01*
X28025495Y-90023796D01*
X28001227Y-90020196D01*
X27977428Y-90014235D01*
X27954329Y-90005970D01*
X27932150Y-89995480D01*
X27911107Y-89982868D01*
X27891401Y-89968253D01*
X27873223Y-89951777D01*
X27856747Y-89933599D01*
X27842132Y-89913893D01*
X27829520Y-89892850D01*
X27819030Y-89870671D01*
X27810765Y-89847572D01*
X27804804Y-89823773D01*
X27801204Y-89799505D01*
X27800000Y-89775001D01*
X27800000Y-89124999D01*
X27801204Y-89100495D01*
X27804804Y-89076227D01*
X27810765Y-89052428D01*
X27819030Y-89029329D01*
X27829520Y-89007150D01*
X27842132Y-88986107D01*
X27856747Y-88966401D01*
X27873223Y-88948223D01*
X27891401Y-88931747D01*
X27911107Y-88917132D01*
X27932150Y-88904520D01*
X27954329Y-88894030D01*
X27977428Y-88885765D01*
X28001227Y-88879804D01*
X28025495Y-88876204D01*
X28049999Y-88875000D01*
X28950001Y-88875000D01*
X28974505Y-88876204D01*
X28974505Y-88876204D01*
G37*
D16*
X28500000Y-89450000D03*
D15*
G36*
X28974505Y-90926204D02*
X28998773Y-90929804D01*
X29022572Y-90935765D01*
X29045671Y-90944030D01*
X29067850Y-90954520D01*
X29088893Y-90967132D01*
X29108599Y-90981747D01*
X29126777Y-90998223D01*
X29143253Y-91016401D01*
X29157868Y-91036107D01*
X29170480Y-91057150D01*
X29180970Y-91079329D01*
X29189235Y-91102428D01*
X29195196Y-91126227D01*
X29198796Y-91150495D01*
X29200000Y-91174999D01*
X29200000Y-91825001D01*
X29198796Y-91849505D01*
X29195196Y-91873773D01*
X29189235Y-91897572D01*
X29180970Y-91920671D01*
X29170480Y-91942850D01*
X29157868Y-91963893D01*
X29143253Y-91983599D01*
X29126777Y-92001777D01*
X29108599Y-92018253D01*
X29088893Y-92032868D01*
X29067850Y-92045480D01*
X29045671Y-92055970D01*
X29022572Y-92064235D01*
X28998773Y-92070196D01*
X28974505Y-92073796D01*
X28950001Y-92075000D01*
X28049999Y-92075000D01*
X28025495Y-92073796D01*
X28001227Y-92070196D01*
X27977428Y-92064235D01*
X27954329Y-92055970D01*
X27932150Y-92045480D01*
X27911107Y-92032868D01*
X27891401Y-92018253D01*
X27873223Y-92001777D01*
X27856747Y-91983599D01*
X27842132Y-91963893D01*
X27829520Y-91942850D01*
X27819030Y-91920671D01*
X27810765Y-91897572D01*
X27804804Y-91873773D01*
X27801204Y-91849505D01*
X27800000Y-91825001D01*
X27800000Y-91174999D01*
X27801204Y-91150495D01*
X27804804Y-91126227D01*
X27810765Y-91102428D01*
X27819030Y-91079329D01*
X27829520Y-91057150D01*
X27842132Y-91036107D01*
X27856747Y-91016401D01*
X27873223Y-90998223D01*
X27891401Y-90981747D01*
X27911107Y-90967132D01*
X27932150Y-90954520D01*
X27954329Y-90944030D01*
X27977428Y-90935765D01*
X28001227Y-90929804D01*
X28025495Y-90926204D01*
X28049999Y-90925000D01*
X28950001Y-90925000D01*
X28974505Y-90926204D01*
X28974505Y-90926204D01*
G37*
D16*
X28500000Y-91500000D03*
D15*
G36*
X30974505Y-90951204D02*
X30998773Y-90954804D01*
X31022572Y-90960765D01*
X31045671Y-90969030D01*
X31067850Y-90979520D01*
X31088893Y-90992132D01*
X31108599Y-91006747D01*
X31126777Y-91023223D01*
X31143253Y-91041401D01*
X31157868Y-91061107D01*
X31170480Y-91082150D01*
X31180970Y-91104329D01*
X31189235Y-91127428D01*
X31195196Y-91151227D01*
X31198796Y-91175495D01*
X31200000Y-91199999D01*
X31200000Y-91850001D01*
X31198796Y-91874505D01*
X31195196Y-91898773D01*
X31189235Y-91922572D01*
X31180970Y-91945671D01*
X31170480Y-91967850D01*
X31157868Y-91988893D01*
X31143253Y-92008599D01*
X31126777Y-92026777D01*
X31108599Y-92043253D01*
X31088893Y-92057868D01*
X31067850Y-92070480D01*
X31045671Y-92080970D01*
X31022572Y-92089235D01*
X30998773Y-92095196D01*
X30974505Y-92098796D01*
X30950001Y-92100000D01*
X30049999Y-92100000D01*
X30025495Y-92098796D01*
X30001227Y-92095196D01*
X29977428Y-92089235D01*
X29954329Y-92080970D01*
X29932150Y-92070480D01*
X29911107Y-92057868D01*
X29891401Y-92043253D01*
X29873223Y-92026777D01*
X29856747Y-92008599D01*
X29842132Y-91988893D01*
X29829520Y-91967850D01*
X29819030Y-91945671D01*
X29810765Y-91922572D01*
X29804804Y-91898773D01*
X29801204Y-91874505D01*
X29800000Y-91850001D01*
X29800000Y-91199999D01*
X29801204Y-91175495D01*
X29804804Y-91151227D01*
X29810765Y-91127428D01*
X29819030Y-91104329D01*
X29829520Y-91082150D01*
X29842132Y-91061107D01*
X29856747Y-91041401D01*
X29873223Y-91023223D01*
X29891401Y-91006747D01*
X29911107Y-90992132D01*
X29932150Y-90979520D01*
X29954329Y-90969030D01*
X29977428Y-90960765D01*
X30001227Y-90954804D01*
X30025495Y-90951204D01*
X30049999Y-90950000D01*
X30950001Y-90950000D01*
X30974505Y-90951204D01*
X30974505Y-90951204D01*
G37*
D16*
X30500000Y-91525000D03*
D15*
G36*
X30974505Y-88901204D02*
X30998773Y-88904804D01*
X31022572Y-88910765D01*
X31045671Y-88919030D01*
X31067850Y-88929520D01*
X31088893Y-88942132D01*
X31108599Y-88956747D01*
X31126777Y-88973223D01*
X31143253Y-88991401D01*
X31157868Y-89011107D01*
X31170480Y-89032150D01*
X31180970Y-89054329D01*
X31189235Y-89077428D01*
X31195196Y-89101227D01*
X31198796Y-89125495D01*
X31200000Y-89149999D01*
X31200000Y-89800001D01*
X31198796Y-89824505D01*
X31195196Y-89848773D01*
X31189235Y-89872572D01*
X31180970Y-89895671D01*
X31170480Y-89917850D01*
X31157868Y-89938893D01*
X31143253Y-89958599D01*
X31126777Y-89976777D01*
X31108599Y-89993253D01*
X31088893Y-90007868D01*
X31067850Y-90020480D01*
X31045671Y-90030970D01*
X31022572Y-90039235D01*
X30998773Y-90045196D01*
X30974505Y-90048796D01*
X30950001Y-90050000D01*
X30049999Y-90050000D01*
X30025495Y-90048796D01*
X30001227Y-90045196D01*
X29977428Y-90039235D01*
X29954329Y-90030970D01*
X29932150Y-90020480D01*
X29911107Y-90007868D01*
X29891401Y-89993253D01*
X29873223Y-89976777D01*
X29856747Y-89958599D01*
X29842132Y-89938893D01*
X29829520Y-89917850D01*
X29819030Y-89895671D01*
X29810765Y-89872572D01*
X29804804Y-89848773D01*
X29801204Y-89824505D01*
X29800000Y-89800001D01*
X29800000Y-89149999D01*
X29801204Y-89125495D01*
X29804804Y-89101227D01*
X29810765Y-89077428D01*
X29819030Y-89054329D01*
X29829520Y-89032150D01*
X29842132Y-89011107D01*
X29856747Y-88991401D01*
X29873223Y-88973223D01*
X29891401Y-88956747D01*
X29911107Y-88942132D01*
X29932150Y-88929520D01*
X29954329Y-88919030D01*
X29977428Y-88910765D01*
X30001227Y-88904804D01*
X30025495Y-88901204D01*
X30049999Y-88900000D01*
X30950001Y-88900000D01*
X30974505Y-88901204D01*
X30974505Y-88901204D01*
G37*
D16*
X30500000Y-89475000D03*
D15*
G36*
X32974505Y-88901204D02*
X32998773Y-88904804D01*
X33022572Y-88910765D01*
X33045671Y-88919030D01*
X33067850Y-88929520D01*
X33088893Y-88942132D01*
X33108599Y-88956747D01*
X33126777Y-88973223D01*
X33143253Y-88991401D01*
X33157868Y-89011107D01*
X33170480Y-89032150D01*
X33180970Y-89054329D01*
X33189235Y-89077428D01*
X33195196Y-89101227D01*
X33198796Y-89125495D01*
X33200000Y-89149999D01*
X33200000Y-89800001D01*
X33198796Y-89824505D01*
X33195196Y-89848773D01*
X33189235Y-89872572D01*
X33180970Y-89895671D01*
X33170480Y-89917850D01*
X33157868Y-89938893D01*
X33143253Y-89958599D01*
X33126777Y-89976777D01*
X33108599Y-89993253D01*
X33088893Y-90007868D01*
X33067850Y-90020480D01*
X33045671Y-90030970D01*
X33022572Y-90039235D01*
X32998773Y-90045196D01*
X32974505Y-90048796D01*
X32950001Y-90050000D01*
X32049999Y-90050000D01*
X32025495Y-90048796D01*
X32001227Y-90045196D01*
X31977428Y-90039235D01*
X31954329Y-90030970D01*
X31932150Y-90020480D01*
X31911107Y-90007868D01*
X31891401Y-89993253D01*
X31873223Y-89976777D01*
X31856747Y-89958599D01*
X31842132Y-89938893D01*
X31829520Y-89917850D01*
X31819030Y-89895671D01*
X31810765Y-89872572D01*
X31804804Y-89848773D01*
X31801204Y-89824505D01*
X31800000Y-89800001D01*
X31800000Y-89149999D01*
X31801204Y-89125495D01*
X31804804Y-89101227D01*
X31810765Y-89077428D01*
X31819030Y-89054329D01*
X31829520Y-89032150D01*
X31842132Y-89011107D01*
X31856747Y-88991401D01*
X31873223Y-88973223D01*
X31891401Y-88956747D01*
X31911107Y-88942132D01*
X31932150Y-88929520D01*
X31954329Y-88919030D01*
X31977428Y-88910765D01*
X32001227Y-88904804D01*
X32025495Y-88901204D01*
X32049999Y-88900000D01*
X32950001Y-88900000D01*
X32974505Y-88901204D01*
X32974505Y-88901204D01*
G37*
D16*
X32500000Y-89475000D03*
D15*
G36*
X32974505Y-90951204D02*
X32998773Y-90954804D01*
X33022572Y-90960765D01*
X33045671Y-90969030D01*
X33067850Y-90979520D01*
X33088893Y-90992132D01*
X33108599Y-91006747D01*
X33126777Y-91023223D01*
X33143253Y-91041401D01*
X33157868Y-91061107D01*
X33170480Y-91082150D01*
X33180970Y-91104329D01*
X33189235Y-91127428D01*
X33195196Y-91151227D01*
X33198796Y-91175495D01*
X33200000Y-91199999D01*
X33200000Y-91850001D01*
X33198796Y-91874505D01*
X33195196Y-91898773D01*
X33189235Y-91922572D01*
X33180970Y-91945671D01*
X33170480Y-91967850D01*
X33157868Y-91988893D01*
X33143253Y-92008599D01*
X33126777Y-92026777D01*
X33108599Y-92043253D01*
X33088893Y-92057868D01*
X33067850Y-92070480D01*
X33045671Y-92080970D01*
X33022572Y-92089235D01*
X32998773Y-92095196D01*
X32974505Y-92098796D01*
X32950001Y-92100000D01*
X32049999Y-92100000D01*
X32025495Y-92098796D01*
X32001227Y-92095196D01*
X31977428Y-92089235D01*
X31954329Y-92080970D01*
X31932150Y-92070480D01*
X31911107Y-92057868D01*
X31891401Y-92043253D01*
X31873223Y-92026777D01*
X31856747Y-92008599D01*
X31842132Y-91988893D01*
X31829520Y-91967850D01*
X31819030Y-91945671D01*
X31810765Y-91922572D01*
X31804804Y-91898773D01*
X31801204Y-91874505D01*
X31800000Y-91850001D01*
X31800000Y-91199999D01*
X31801204Y-91175495D01*
X31804804Y-91151227D01*
X31810765Y-91127428D01*
X31819030Y-91104329D01*
X31829520Y-91082150D01*
X31842132Y-91061107D01*
X31856747Y-91041401D01*
X31873223Y-91023223D01*
X31891401Y-91006747D01*
X31911107Y-90992132D01*
X31932150Y-90979520D01*
X31954329Y-90969030D01*
X31977428Y-90960765D01*
X32001227Y-90954804D01*
X32025495Y-90951204D01*
X32049999Y-90950000D01*
X32950001Y-90950000D01*
X32974505Y-90951204D01*
X32974505Y-90951204D01*
G37*
D16*
X32500000Y-91525000D03*
D15*
G36*
X27974505Y-78451204D02*
X27998773Y-78454804D01*
X28022572Y-78460765D01*
X28045671Y-78469030D01*
X28067850Y-78479520D01*
X28088893Y-78492132D01*
X28108599Y-78506747D01*
X28126777Y-78523223D01*
X28143253Y-78541401D01*
X28157868Y-78561107D01*
X28170480Y-78582150D01*
X28180970Y-78604329D01*
X28189235Y-78627428D01*
X28195196Y-78651227D01*
X28198796Y-78675495D01*
X28200000Y-78699999D01*
X28200000Y-79350001D01*
X28198796Y-79374505D01*
X28195196Y-79398773D01*
X28189235Y-79422572D01*
X28180970Y-79445671D01*
X28170480Y-79467850D01*
X28157868Y-79488893D01*
X28143253Y-79508599D01*
X28126777Y-79526777D01*
X28108599Y-79543253D01*
X28088893Y-79557868D01*
X28067850Y-79570480D01*
X28045671Y-79580970D01*
X28022572Y-79589235D01*
X27998773Y-79595196D01*
X27974505Y-79598796D01*
X27950001Y-79600000D01*
X27049999Y-79600000D01*
X27025495Y-79598796D01*
X27001227Y-79595196D01*
X26977428Y-79589235D01*
X26954329Y-79580970D01*
X26932150Y-79570480D01*
X26911107Y-79557868D01*
X26891401Y-79543253D01*
X26873223Y-79526777D01*
X26856747Y-79508599D01*
X26842132Y-79488893D01*
X26829520Y-79467850D01*
X26819030Y-79445671D01*
X26810765Y-79422572D01*
X26804804Y-79398773D01*
X26801204Y-79374505D01*
X26800000Y-79350001D01*
X26800000Y-78699999D01*
X26801204Y-78675495D01*
X26804804Y-78651227D01*
X26810765Y-78627428D01*
X26819030Y-78604329D01*
X26829520Y-78582150D01*
X26842132Y-78561107D01*
X26856747Y-78541401D01*
X26873223Y-78523223D01*
X26891401Y-78506747D01*
X26911107Y-78492132D01*
X26932150Y-78479520D01*
X26954329Y-78469030D01*
X26977428Y-78460765D01*
X27001227Y-78454804D01*
X27025495Y-78451204D01*
X27049999Y-78450000D01*
X27950001Y-78450000D01*
X27974505Y-78451204D01*
X27974505Y-78451204D01*
G37*
D16*
X27500000Y-79025000D03*
D15*
G36*
X27974505Y-76401204D02*
X27998773Y-76404804D01*
X28022572Y-76410765D01*
X28045671Y-76419030D01*
X28067850Y-76429520D01*
X28088893Y-76442132D01*
X28108599Y-76456747D01*
X28126777Y-76473223D01*
X28143253Y-76491401D01*
X28157868Y-76511107D01*
X28170480Y-76532150D01*
X28180970Y-76554329D01*
X28189235Y-76577428D01*
X28195196Y-76601227D01*
X28198796Y-76625495D01*
X28200000Y-76649999D01*
X28200000Y-77300001D01*
X28198796Y-77324505D01*
X28195196Y-77348773D01*
X28189235Y-77372572D01*
X28180970Y-77395671D01*
X28170480Y-77417850D01*
X28157868Y-77438893D01*
X28143253Y-77458599D01*
X28126777Y-77476777D01*
X28108599Y-77493253D01*
X28088893Y-77507868D01*
X28067850Y-77520480D01*
X28045671Y-77530970D01*
X28022572Y-77539235D01*
X27998773Y-77545196D01*
X27974505Y-77548796D01*
X27950001Y-77550000D01*
X27049999Y-77550000D01*
X27025495Y-77548796D01*
X27001227Y-77545196D01*
X26977428Y-77539235D01*
X26954329Y-77530970D01*
X26932150Y-77520480D01*
X26911107Y-77507868D01*
X26891401Y-77493253D01*
X26873223Y-77476777D01*
X26856747Y-77458599D01*
X26842132Y-77438893D01*
X26829520Y-77417850D01*
X26819030Y-77395671D01*
X26810765Y-77372572D01*
X26804804Y-77348773D01*
X26801204Y-77324505D01*
X26800000Y-77300001D01*
X26800000Y-76649999D01*
X26801204Y-76625495D01*
X26804804Y-76601227D01*
X26810765Y-76577428D01*
X26819030Y-76554329D01*
X26829520Y-76532150D01*
X26842132Y-76511107D01*
X26856747Y-76491401D01*
X26873223Y-76473223D01*
X26891401Y-76456747D01*
X26911107Y-76442132D01*
X26932150Y-76429520D01*
X26954329Y-76419030D01*
X26977428Y-76410765D01*
X27001227Y-76404804D01*
X27025495Y-76401204D01*
X27049999Y-76400000D01*
X27950001Y-76400000D01*
X27974505Y-76401204D01*
X27974505Y-76401204D01*
G37*
D16*
X27500000Y-76975000D03*
D15*
G36*
X29974505Y-83451204D02*
X29998773Y-83454804D01*
X30022572Y-83460765D01*
X30045671Y-83469030D01*
X30067850Y-83479520D01*
X30088893Y-83492132D01*
X30108599Y-83506747D01*
X30126777Y-83523223D01*
X30143253Y-83541401D01*
X30157868Y-83561107D01*
X30170480Y-83582150D01*
X30180970Y-83604329D01*
X30189235Y-83627428D01*
X30195196Y-83651227D01*
X30198796Y-83675495D01*
X30200000Y-83699999D01*
X30200000Y-84350001D01*
X30198796Y-84374505D01*
X30195196Y-84398773D01*
X30189235Y-84422572D01*
X30180970Y-84445671D01*
X30170480Y-84467850D01*
X30157868Y-84488893D01*
X30143253Y-84508599D01*
X30126777Y-84526777D01*
X30108599Y-84543253D01*
X30088893Y-84557868D01*
X30067850Y-84570480D01*
X30045671Y-84580970D01*
X30022572Y-84589235D01*
X29998773Y-84595196D01*
X29974505Y-84598796D01*
X29950001Y-84600000D01*
X29049999Y-84600000D01*
X29025495Y-84598796D01*
X29001227Y-84595196D01*
X28977428Y-84589235D01*
X28954329Y-84580970D01*
X28932150Y-84570480D01*
X28911107Y-84557868D01*
X28891401Y-84543253D01*
X28873223Y-84526777D01*
X28856747Y-84508599D01*
X28842132Y-84488893D01*
X28829520Y-84467850D01*
X28819030Y-84445671D01*
X28810765Y-84422572D01*
X28804804Y-84398773D01*
X28801204Y-84374505D01*
X28800000Y-84350001D01*
X28800000Y-83699999D01*
X28801204Y-83675495D01*
X28804804Y-83651227D01*
X28810765Y-83627428D01*
X28819030Y-83604329D01*
X28829520Y-83582150D01*
X28842132Y-83561107D01*
X28856747Y-83541401D01*
X28873223Y-83523223D01*
X28891401Y-83506747D01*
X28911107Y-83492132D01*
X28932150Y-83479520D01*
X28954329Y-83469030D01*
X28977428Y-83460765D01*
X29001227Y-83454804D01*
X29025495Y-83451204D01*
X29049999Y-83450000D01*
X29950001Y-83450000D01*
X29974505Y-83451204D01*
X29974505Y-83451204D01*
G37*
D16*
X29500000Y-84025000D03*
D15*
G36*
X29974505Y-81401204D02*
X29998773Y-81404804D01*
X30022572Y-81410765D01*
X30045671Y-81419030D01*
X30067850Y-81429520D01*
X30088893Y-81442132D01*
X30108599Y-81456747D01*
X30126777Y-81473223D01*
X30143253Y-81491401D01*
X30157868Y-81511107D01*
X30170480Y-81532150D01*
X30180970Y-81554329D01*
X30189235Y-81577428D01*
X30195196Y-81601227D01*
X30198796Y-81625495D01*
X30200000Y-81649999D01*
X30200000Y-82300001D01*
X30198796Y-82324505D01*
X30195196Y-82348773D01*
X30189235Y-82372572D01*
X30180970Y-82395671D01*
X30170480Y-82417850D01*
X30157868Y-82438893D01*
X30143253Y-82458599D01*
X30126777Y-82476777D01*
X30108599Y-82493253D01*
X30088893Y-82507868D01*
X30067850Y-82520480D01*
X30045671Y-82530970D01*
X30022572Y-82539235D01*
X29998773Y-82545196D01*
X29974505Y-82548796D01*
X29950001Y-82550000D01*
X29049999Y-82550000D01*
X29025495Y-82548796D01*
X29001227Y-82545196D01*
X28977428Y-82539235D01*
X28954329Y-82530970D01*
X28932150Y-82520480D01*
X28911107Y-82507868D01*
X28891401Y-82493253D01*
X28873223Y-82476777D01*
X28856747Y-82458599D01*
X28842132Y-82438893D01*
X28829520Y-82417850D01*
X28819030Y-82395671D01*
X28810765Y-82372572D01*
X28804804Y-82348773D01*
X28801204Y-82324505D01*
X28800000Y-82300001D01*
X28800000Y-81649999D01*
X28801204Y-81625495D01*
X28804804Y-81601227D01*
X28810765Y-81577428D01*
X28819030Y-81554329D01*
X28829520Y-81532150D01*
X28842132Y-81511107D01*
X28856747Y-81491401D01*
X28873223Y-81473223D01*
X28891401Y-81456747D01*
X28911107Y-81442132D01*
X28932150Y-81429520D01*
X28954329Y-81419030D01*
X28977428Y-81410765D01*
X29001227Y-81404804D01*
X29025495Y-81401204D01*
X29049999Y-81400000D01*
X29950001Y-81400000D01*
X29974505Y-81401204D01*
X29974505Y-81401204D01*
G37*
D16*
X29500000Y-81975000D03*
D15*
G36*
X31974505Y-81401204D02*
X31998773Y-81404804D01*
X32022572Y-81410765D01*
X32045671Y-81419030D01*
X32067850Y-81429520D01*
X32088893Y-81442132D01*
X32108599Y-81456747D01*
X32126777Y-81473223D01*
X32143253Y-81491401D01*
X32157868Y-81511107D01*
X32170480Y-81532150D01*
X32180970Y-81554329D01*
X32189235Y-81577428D01*
X32195196Y-81601227D01*
X32198796Y-81625495D01*
X32200000Y-81649999D01*
X32200000Y-82300001D01*
X32198796Y-82324505D01*
X32195196Y-82348773D01*
X32189235Y-82372572D01*
X32180970Y-82395671D01*
X32170480Y-82417850D01*
X32157868Y-82438893D01*
X32143253Y-82458599D01*
X32126777Y-82476777D01*
X32108599Y-82493253D01*
X32088893Y-82507868D01*
X32067850Y-82520480D01*
X32045671Y-82530970D01*
X32022572Y-82539235D01*
X31998773Y-82545196D01*
X31974505Y-82548796D01*
X31950001Y-82550000D01*
X31049999Y-82550000D01*
X31025495Y-82548796D01*
X31001227Y-82545196D01*
X30977428Y-82539235D01*
X30954329Y-82530970D01*
X30932150Y-82520480D01*
X30911107Y-82507868D01*
X30891401Y-82493253D01*
X30873223Y-82476777D01*
X30856747Y-82458599D01*
X30842132Y-82438893D01*
X30829520Y-82417850D01*
X30819030Y-82395671D01*
X30810765Y-82372572D01*
X30804804Y-82348773D01*
X30801204Y-82324505D01*
X30800000Y-82300001D01*
X30800000Y-81649999D01*
X30801204Y-81625495D01*
X30804804Y-81601227D01*
X30810765Y-81577428D01*
X30819030Y-81554329D01*
X30829520Y-81532150D01*
X30842132Y-81511107D01*
X30856747Y-81491401D01*
X30873223Y-81473223D01*
X30891401Y-81456747D01*
X30911107Y-81442132D01*
X30932150Y-81429520D01*
X30954329Y-81419030D01*
X30977428Y-81410765D01*
X31001227Y-81404804D01*
X31025495Y-81401204D01*
X31049999Y-81400000D01*
X31950001Y-81400000D01*
X31974505Y-81401204D01*
X31974505Y-81401204D01*
G37*
D16*
X31500000Y-81975000D03*
D15*
G36*
X31974505Y-83451204D02*
X31998773Y-83454804D01*
X32022572Y-83460765D01*
X32045671Y-83469030D01*
X32067850Y-83479520D01*
X32088893Y-83492132D01*
X32108599Y-83506747D01*
X32126777Y-83523223D01*
X32143253Y-83541401D01*
X32157868Y-83561107D01*
X32170480Y-83582150D01*
X32180970Y-83604329D01*
X32189235Y-83627428D01*
X32195196Y-83651227D01*
X32198796Y-83675495D01*
X32200000Y-83699999D01*
X32200000Y-84350001D01*
X32198796Y-84374505D01*
X32195196Y-84398773D01*
X32189235Y-84422572D01*
X32180970Y-84445671D01*
X32170480Y-84467850D01*
X32157868Y-84488893D01*
X32143253Y-84508599D01*
X32126777Y-84526777D01*
X32108599Y-84543253D01*
X32088893Y-84557868D01*
X32067850Y-84570480D01*
X32045671Y-84580970D01*
X32022572Y-84589235D01*
X31998773Y-84595196D01*
X31974505Y-84598796D01*
X31950001Y-84600000D01*
X31049999Y-84600000D01*
X31025495Y-84598796D01*
X31001227Y-84595196D01*
X30977428Y-84589235D01*
X30954329Y-84580970D01*
X30932150Y-84570480D01*
X30911107Y-84557868D01*
X30891401Y-84543253D01*
X30873223Y-84526777D01*
X30856747Y-84508599D01*
X30842132Y-84488893D01*
X30829520Y-84467850D01*
X30819030Y-84445671D01*
X30810765Y-84422572D01*
X30804804Y-84398773D01*
X30801204Y-84374505D01*
X30800000Y-84350001D01*
X30800000Y-83699999D01*
X30801204Y-83675495D01*
X30804804Y-83651227D01*
X30810765Y-83627428D01*
X30819030Y-83604329D01*
X30829520Y-83582150D01*
X30842132Y-83561107D01*
X30856747Y-83541401D01*
X30873223Y-83523223D01*
X30891401Y-83506747D01*
X30911107Y-83492132D01*
X30932150Y-83479520D01*
X30954329Y-83469030D01*
X30977428Y-83460765D01*
X31001227Y-83454804D01*
X31025495Y-83451204D01*
X31049999Y-83450000D01*
X31950001Y-83450000D01*
X31974505Y-83451204D01*
X31974505Y-83451204D01*
G37*
D16*
X31500000Y-84025000D03*
D15*
G36*
X45974505Y-90951204D02*
X45998773Y-90954804D01*
X46022572Y-90960765D01*
X46045671Y-90969030D01*
X46067850Y-90979520D01*
X46088893Y-90992132D01*
X46108599Y-91006747D01*
X46126777Y-91023223D01*
X46143253Y-91041401D01*
X46157868Y-91061107D01*
X46170480Y-91082150D01*
X46180970Y-91104329D01*
X46189235Y-91127428D01*
X46195196Y-91151227D01*
X46198796Y-91175495D01*
X46200000Y-91199999D01*
X46200000Y-91850001D01*
X46198796Y-91874505D01*
X46195196Y-91898773D01*
X46189235Y-91922572D01*
X46180970Y-91945671D01*
X46170480Y-91967850D01*
X46157868Y-91988893D01*
X46143253Y-92008599D01*
X46126777Y-92026777D01*
X46108599Y-92043253D01*
X46088893Y-92057868D01*
X46067850Y-92070480D01*
X46045671Y-92080970D01*
X46022572Y-92089235D01*
X45998773Y-92095196D01*
X45974505Y-92098796D01*
X45950001Y-92100000D01*
X45049999Y-92100000D01*
X45025495Y-92098796D01*
X45001227Y-92095196D01*
X44977428Y-92089235D01*
X44954329Y-92080970D01*
X44932150Y-92070480D01*
X44911107Y-92057868D01*
X44891401Y-92043253D01*
X44873223Y-92026777D01*
X44856747Y-92008599D01*
X44842132Y-91988893D01*
X44829520Y-91967850D01*
X44819030Y-91945671D01*
X44810765Y-91922572D01*
X44804804Y-91898773D01*
X44801204Y-91874505D01*
X44800000Y-91850001D01*
X44800000Y-91199999D01*
X44801204Y-91175495D01*
X44804804Y-91151227D01*
X44810765Y-91127428D01*
X44819030Y-91104329D01*
X44829520Y-91082150D01*
X44842132Y-91061107D01*
X44856747Y-91041401D01*
X44873223Y-91023223D01*
X44891401Y-91006747D01*
X44911107Y-90992132D01*
X44932150Y-90979520D01*
X44954329Y-90969030D01*
X44977428Y-90960765D01*
X45001227Y-90954804D01*
X45025495Y-90951204D01*
X45049999Y-90950000D01*
X45950001Y-90950000D01*
X45974505Y-90951204D01*
X45974505Y-90951204D01*
G37*
D16*
X45500000Y-91525000D03*
D15*
G36*
X45974505Y-88901204D02*
X45998773Y-88904804D01*
X46022572Y-88910765D01*
X46045671Y-88919030D01*
X46067850Y-88929520D01*
X46088893Y-88942132D01*
X46108599Y-88956747D01*
X46126777Y-88973223D01*
X46143253Y-88991401D01*
X46157868Y-89011107D01*
X46170480Y-89032150D01*
X46180970Y-89054329D01*
X46189235Y-89077428D01*
X46195196Y-89101227D01*
X46198796Y-89125495D01*
X46200000Y-89149999D01*
X46200000Y-89800001D01*
X46198796Y-89824505D01*
X46195196Y-89848773D01*
X46189235Y-89872572D01*
X46180970Y-89895671D01*
X46170480Y-89917850D01*
X46157868Y-89938893D01*
X46143253Y-89958599D01*
X46126777Y-89976777D01*
X46108599Y-89993253D01*
X46088893Y-90007868D01*
X46067850Y-90020480D01*
X46045671Y-90030970D01*
X46022572Y-90039235D01*
X45998773Y-90045196D01*
X45974505Y-90048796D01*
X45950001Y-90050000D01*
X45049999Y-90050000D01*
X45025495Y-90048796D01*
X45001227Y-90045196D01*
X44977428Y-90039235D01*
X44954329Y-90030970D01*
X44932150Y-90020480D01*
X44911107Y-90007868D01*
X44891401Y-89993253D01*
X44873223Y-89976777D01*
X44856747Y-89958599D01*
X44842132Y-89938893D01*
X44829520Y-89917850D01*
X44819030Y-89895671D01*
X44810765Y-89872572D01*
X44804804Y-89848773D01*
X44801204Y-89824505D01*
X44800000Y-89800001D01*
X44800000Y-89149999D01*
X44801204Y-89125495D01*
X44804804Y-89101227D01*
X44810765Y-89077428D01*
X44819030Y-89054329D01*
X44829520Y-89032150D01*
X44842132Y-89011107D01*
X44856747Y-88991401D01*
X44873223Y-88973223D01*
X44891401Y-88956747D01*
X44911107Y-88942132D01*
X44932150Y-88929520D01*
X44954329Y-88919030D01*
X44977428Y-88910765D01*
X45001227Y-88904804D01*
X45025495Y-88901204D01*
X45049999Y-88900000D01*
X45950001Y-88900000D01*
X45974505Y-88901204D01*
X45974505Y-88901204D01*
G37*
D16*
X45500000Y-89475000D03*
D15*
G36*
X43974505Y-88901204D02*
X43998773Y-88904804D01*
X44022572Y-88910765D01*
X44045671Y-88919030D01*
X44067850Y-88929520D01*
X44088893Y-88942132D01*
X44108599Y-88956747D01*
X44126777Y-88973223D01*
X44143253Y-88991401D01*
X44157868Y-89011107D01*
X44170480Y-89032150D01*
X44180970Y-89054329D01*
X44189235Y-89077428D01*
X44195196Y-89101227D01*
X44198796Y-89125495D01*
X44200000Y-89149999D01*
X44200000Y-89800001D01*
X44198796Y-89824505D01*
X44195196Y-89848773D01*
X44189235Y-89872572D01*
X44180970Y-89895671D01*
X44170480Y-89917850D01*
X44157868Y-89938893D01*
X44143253Y-89958599D01*
X44126777Y-89976777D01*
X44108599Y-89993253D01*
X44088893Y-90007868D01*
X44067850Y-90020480D01*
X44045671Y-90030970D01*
X44022572Y-90039235D01*
X43998773Y-90045196D01*
X43974505Y-90048796D01*
X43950001Y-90050000D01*
X43049999Y-90050000D01*
X43025495Y-90048796D01*
X43001227Y-90045196D01*
X42977428Y-90039235D01*
X42954329Y-90030970D01*
X42932150Y-90020480D01*
X42911107Y-90007868D01*
X42891401Y-89993253D01*
X42873223Y-89976777D01*
X42856747Y-89958599D01*
X42842132Y-89938893D01*
X42829520Y-89917850D01*
X42819030Y-89895671D01*
X42810765Y-89872572D01*
X42804804Y-89848773D01*
X42801204Y-89824505D01*
X42800000Y-89800001D01*
X42800000Y-89149999D01*
X42801204Y-89125495D01*
X42804804Y-89101227D01*
X42810765Y-89077428D01*
X42819030Y-89054329D01*
X42829520Y-89032150D01*
X42842132Y-89011107D01*
X42856747Y-88991401D01*
X42873223Y-88973223D01*
X42891401Y-88956747D01*
X42911107Y-88942132D01*
X42932150Y-88929520D01*
X42954329Y-88919030D01*
X42977428Y-88910765D01*
X43001227Y-88904804D01*
X43025495Y-88901204D01*
X43049999Y-88900000D01*
X43950001Y-88900000D01*
X43974505Y-88901204D01*
X43974505Y-88901204D01*
G37*
D16*
X43500000Y-89475000D03*
D15*
G36*
X43974505Y-90951204D02*
X43998773Y-90954804D01*
X44022572Y-90960765D01*
X44045671Y-90969030D01*
X44067850Y-90979520D01*
X44088893Y-90992132D01*
X44108599Y-91006747D01*
X44126777Y-91023223D01*
X44143253Y-91041401D01*
X44157868Y-91061107D01*
X44170480Y-91082150D01*
X44180970Y-91104329D01*
X44189235Y-91127428D01*
X44195196Y-91151227D01*
X44198796Y-91175495D01*
X44200000Y-91199999D01*
X44200000Y-91850001D01*
X44198796Y-91874505D01*
X44195196Y-91898773D01*
X44189235Y-91922572D01*
X44180970Y-91945671D01*
X44170480Y-91967850D01*
X44157868Y-91988893D01*
X44143253Y-92008599D01*
X44126777Y-92026777D01*
X44108599Y-92043253D01*
X44088893Y-92057868D01*
X44067850Y-92070480D01*
X44045671Y-92080970D01*
X44022572Y-92089235D01*
X43998773Y-92095196D01*
X43974505Y-92098796D01*
X43950001Y-92100000D01*
X43049999Y-92100000D01*
X43025495Y-92098796D01*
X43001227Y-92095196D01*
X42977428Y-92089235D01*
X42954329Y-92080970D01*
X42932150Y-92070480D01*
X42911107Y-92057868D01*
X42891401Y-92043253D01*
X42873223Y-92026777D01*
X42856747Y-92008599D01*
X42842132Y-91988893D01*
X42829520Y-91967850D01*
X42819030Y-91945671D01*
X42810765Y-91922572D01*
X42804804Y-91898773D01*
X42801204Y-91874505D01*
X42800000Y-91850001D01*
X42800000Y-91199999D01*
X42801204Y-91175495D01*
X42804804Y-91151227D01*
X42810765Y-91127428D01*
X42819030Y-91104329D01*
X42829520Y-91082150D01*
X42842132Y-91061107D01*
X42856747Y-91041401D01*
X42873223Y-91023223D01*
X42891401Y-91006747D01*
X42911107Y-90992132D01*
X42932150Y-90979520D01*
X42954329Y-90969030D01*
X42977428Y-90960765D01*
X43001227Y-90954804D01*
X43025495Y-90951204D01*
X43049999Y-90950000D01*
X43950001Y-90950000D01*
X43974505Y-90951204D01*
X43974505Y-90951204D01*
G37*
D16*
X43500000Y-91525000D03*
D15*
G36*
X41974505Y-90951204D02*
X41998773Y-90954804D01*
X42022572Y-90960765D01*
X42045671Y-90969030D01*
X42067850Y-90979520D01*
X42088893Y-90992132D01*
X42108599Y-91006747D01*
X42126777Y-91023223D01*
X42143253Y-91041401D01*
X42157868Y-91061107D01*
X42170480Y-91082150D01*
X42180970Y-91104329D01*
X42189235Y-91127428D01*
X42195196Y-91151227D01*
X42198796Y-91175495D01*
X42200000Y-91199999D01*
X42200000Y-91850001D01*
X42198796Y-91874505D01*
X42195196Y-91898773D01*
X42189235Y-91922572D01*
X42180970Y-91945671D01*
X42170480Y-91967850D01*
X42157868Y-91988893D01*
X42143253Y-92008599D01*
X42126777Y-92026777D01*
X42108599Y-92043253D01*
X42088893Y-92057868D01*
X42067850Y-92070480D01*
X42045671Y-92080970D01*
X42022572Y-92089235D01*
X41998773Y-92095196D01*
X41974505Y-92098796D01*
X41950001Y-92100000D01*
X41049999Y-92100000D01*
X41025495Y-92098796D01*
X41001227Y-92095196D01*
X40977428Y-92089235D01*
X40954329Y-92080970D01*
X40932150Y-92070480D01*
X40911107Y-92057868D01*
X40891401Y-92043253D01*
X40873223Y-92026777D01*
X40856747Y-92008599D01*
X40842132Y-91988893D01*
X40829520Y-91967850D01*
X40819030Y-91945671D01*
X40810765Y-91922572D01*
X40804804Y-91898773D01*
X40801204Y-91874505D01*
X40800000Y-91850001D01*
X40800000Y-91199999D01*
X40801204Y-91175495D01*
X40804804Y-91151227D01*
X40810765Y-91127428D01*
X40819030Y-91104329D01*
X40829520Y-91082150D01*
X40842132Y-91061107D01*
X40856747Y-91041401D01*
X40873223Y-91023223D01*
X40891401Y-91006747D01*
X40911107Y-90992132D01*
X40932150Y-90979520D01*
X40954329Y-90969030D01*
X40977428Y-90960765D01*
X41001227Y-90954804D01*
X41025495Y-90951204D01*
X41049999Y-90950000D01*
X41950001Y-90950000D01*
X41974505Y-90951204D01*
X41974505Y-90951204D01*
G37*
D16*
X41500000Y-91525000D03*
D15*
G36*
X41974505Y-88901204D02*
X41998773Y-88904804D01*
X42022572Y-88910765D01*
X42045671Y-88919030D01*
X42067850Y-88929520D01*
X42088893Y-88942132D01*
X42108599Y-88956747D01*
X42126777Y-88973223D01*
X42143253Y-88991401D01*
X42157868Y-89011107D01*
X42170480Y-89032150D01*
X42180970Y-89054329D01*
X42189235Y-89077428D01*
X42195196Y-89101227D01*
X42198796Y-89125495D01*
X42200000Y-89149999D01*
X42200000Y-89800001D01*
X42198796Y-89824505D01*
X42195196Y-89848773D01*
X42189235Y-89872572D01*
X42180970Y-89895671D01*
X42170480Y-89917850D01*
X42157868Y-89938893D01*
X42143253Y-89958599D01*
X42126777Y-89976777D01*
X42108599Y-89993253D01*
X42088893Y-90007868D01*
X42067850Y-90020480D01*
X42045671Y-90030970D01*
X42022572Y-90039235D01*
X41998773Y-90045196D01*
X41974505Y-90048796D01*
X41950001Y-90050000D01*
X41049999Y-90050000D01*
X41025495Y-90048796D01*
X41001227Y-90045196D01*
X40977428Y-90039235D01*
X40954329Y-90030970D01*
X40932150Y-90020480D01*
X40911107Y-90007868D01*
X40891401Y-89993253D01*
X40873223Y-89976777D01*
X40856747Y-89958599D01*
X40842132Y-89938893D01*
X40829520Y-89917850D01*
X40819030Y-89895671D01*
X40810765Y-89872572D01*
X40804804Y-89848773D01*
X40801204Y-89824505D01*
X40800000Y-89800001D01*
X40800000Y-89149999D01*
X40801204Y-89125495D01*
X40804804Y-89101227D01*
X40810765Y-89077428D01*
X40819030Y-89054329D01*
X40829520Y-89032150D01*
X40842132Y-89011107D01*
X40856747Y-88991401D01*
X40873223Y-88973223D01*
X40891401Y-88956747D01*
X40911107Y-88942132D01*
X40932150Y-88929520D01*
X40954329Y-88919030D01*
X40977428Y-88910765D01*
X41001227Y-88904804D01*
X41025495Y-88901204D01*
X41049999Y-88900000D01*
X41950001Y-88900000D01*
X41974505Y-88901204D01*
X41974505Y-88901204D01*
G37*
D16*
X41500000Y-89475000D03*
D15*
G36*
X47474505Y-75901204D02*
X47498773Y-75904804D01*
X47522572Y-75910765D01*
X47545671Y-75919030D01*
X47567850Y-75929520D01*
X47588893Y-75942132D01*
X47608599Y-75956747D01*
X47626777Y-75973223D01*
X47643253Y-75991401D01*
X47657868Y-76011107D01*
X47670480Y-76032150D01*
X47680970Y-76054329D01*
X47689235Y-76077428D01*
X47695196Y-76101227D01*
X47698796Y-76125495D01*
X47700000Y-76149999D01*
X47700000Y-76800001D01*
X47698796Y-76824505D01*
X47695196Y-76848773D01*
X47689235Y-76872572D01*
X47680970Y-76895671D01*
X47670480Y-76917850D01*
X47657868Y-76938893D01*
X47643253Y-76958599D01*
X47626777Y-76976777D01*
X47608599Y-76993253D01*
X47588893Y-77007868D01*
X47567850Y-77020480D01*
X47545671Y-77030970D01*
X47522572Y-77039235D01*
X47498773Y-77045196D01*
X47474505Y-77048796D01*
X47450001Y-77050000D01*
X46549999Y-77050000D01*
X46525495Y-77048796D01*
X46501227Y-77045196D01*
X46477428Y-77039235D01*
X46454329Y-77030970D01*
X46432150Y-77020480D01*
X46411107Y-77007868D01*
X46391401Y-76993253D01*
X46373223Y-76976777D01*
X46356747Y-76958599D01*
X46342132Y-76938893D01*
X46329520Y-76917850D01*
X46319030Y-76895671D01*
X46310765Y-76872572D01*
X46304804Y-76848773D01*
X46301204Y-76824505D01*
X46300000Y-76800001D01*
X46300000Y-76149999D01*
X46301204Y-76125495D01*
X46304804Y-76101227D01*
X46310765Y-76077428D01*
X46319030Y-76054329D01*
X46329520Y-76032150D01*
X46342132Y-76011107D01*
X46356747Y-75991401D01*
X46373223Y-75973223D01*
X46391401Y-75956747D01*
X46411107Y-75942132D01*
X46432150Y-75929520D01*
X46454329Y-75919030D01*
X46477428Y-75910765D01*
X46501227Y-75904804D01*
X46525495Y-75901204D01*
X46549999Y-75900000D01*
X47450001Y-75900000D01*
X47474505Y-75901204D01*
X47474505Y-75901204D01*
G37*
D16*
X47000000Y-76475000D03*
D15*
G36*
X47474505Y-77951204D02*
X47498773Y-77954804D01*
X47522572Y-77960765D01*
X47545671Y-77969030D01*
X47567850Y-77979520D01*
X47588893Y-77992132D01*
X47608599Y-78006747D01*
X47626777Y-78023223D01*
X47643253Y-78041401D01*
X47657868Y-78061107D01*
X47670480Y-78082150D01*
X47680970Y-78104329D01*
X47689235Y-78127428D01*
X47695196Y-78151227D01*
X47698796Y-78175495D01*
X47700000Y-78199999D01*
X47700000Y-78850001D01*
X47698796Y-78874505D01*
X47695196Y-78898773D01*
X47689235Y-78922572D01*
X47680970Y-78945671D01*
X47670480Y-78967850D01*
X47657868Y-78988893D01*
X47643253Y-79008599D01*
X47626777Y-79026777D01*
X47608599Y-79043253D01*
X47588893Y-79057868D01*
X47567850Y-79070480D01*
X47545671Y-79080970D01*
X47522572Y-79089235D01*
X47498773Y-79095196D01*
X47474505Y-79098796D01*
X47450001Y-79100000D01*
X46549999Y-79100000D01*
X46525495Y-79098796D01*
X46501227Y-79095196D01*
X46477428Y-79089235D01*
X46454329Y-79080970D01*
X46432150Y-79070480D01*
X46411107Y-79057868D01*
X46391401Y-79043253D01*
X46373223Y-79026777D01*
X46356747Y-79008599D01*
X46342132Y-78988893D01*
X46329520Y-78967850D01*
X46319030Y-78945671D01*
X46310765Y-78922572D01*
X46304804Y-78898773D01*
X46301204Y-78874505D01*
X46300000Y-78850001D01*
X46300000Y-78199999D01*
X46301204Y-78175495D01*
X46304804Y-78151227D01*
X46310765Y-78127428D01*
X46319030Y-78104329D01*
X46329520Y-78082150D01*
X46342132Y-78061107D01*
X46356747Y-78041401D01*
X46373223Y-78023223D01*
X46391401Y-78006747D01*
X46411107Y-77992132D01*
X46432150Y-77979520D01*
X46454329Y-77969030D01*
X46477428Y-77960765D01*
X46501227Y-77954804D01*
X46525495Y-77951204D01*
X46549999Y-77950000D01*
X47450001Y-77950000D01*
X47474505Y-77951204D01*
X47474505Y-77951204D01*
G37*
D16*
X47000000Y-78525000D03*
D15*
G36*
X45474505Y-83451204D02*
X45498773Y-83454804D01*
X45522572Y-83460765D01*
X45545671Y-83469030D01*
X45567850Y-83479520D01*
X45588893Y-83492132D01*
X45608599Y-83506747D01*
X45626777Y-83523223D01*
X45643253Y-83541401D01*
X45657868Y-83561107D01*
X45670480Y-83582150D01*
X45680970Y-83604329D01*
X45689235Y-83627428D01*
X45695196Y-83651227D01*
X45698796Y-83675495D01*
X45700000Y-83699999D01*
X45700000Y-84350001D01*
X45698796Y-84374505D01*
X45695196Y-84398773D01*
X45689235Y-84422572D01*
X45680970Y-84445671D01*
X45670480Y-84467850D01*
X45657868Y-84488893D01*
X45643253Y-84508599D01*
X45626777Y-84526777D01*
X45608599Y-84543253D01*
X45588893Y-84557868D01*
X45567850Y-84570480D01*
X45545671Y-84580970D01*
X45522572Y-84589235D01*
X45498773Y-84595196D01*
X45474505Y-84598796D01*
X45450001Y-84600000D01*
X44549999Y-84600000D01*
X44525495Y-84598796D01*
X44501227Y-84595196D01*
X44477428Y-84589235D01*
X44454329Y-84580970D01*
X44432150Y-84570480D01*
X44411107Y-84557868D01*
X44391401Y-84543253D01*
X44373223Y-84526777D01*
X44356747Y-84508599D01*
X44342132Y-84488893D01*
X44329520Y-84467850D01*
X44319030Y-84445671D01*
X44310765Y-84422572D01*
X44304804Y-84398773D01*
X44301204Y-84374505D01*
X44300000Y-84350001D01*
X44300000Y-83699999D01*
X44301204Y-83675495D01*
X44304804Y-83651227D01*
X44310765Y-83627428D01*
X44319030Y-83604329D01*
X44329520Y-83582150D01*
X44342132Y-83561107D01*
X44356747Y-83541401D01*
X44373223Y-83523223D01*
X44391401Y-83506747D01*
X44411107Y-83492132D01*
X44432150Y-83479520D01*
X44454329Y-83469030D01*
X44477428Y-83460765D01*
X44501227Y-83454804D01*
X44525495Y-83451204D01*
X44549999Y-83450000D01*
X45450001Y-83450000D01*
X45474505Y-83451204D01*
X45474505Y-83451204D01*
G37*
D16*
X45000000Y-84025000D03*
D15*
G36*
X45474505Y-81401204D02*
X45498773Y-81404804D01*
X45522572Y-81410765D01*
X45545671Y-81419030D01*
X45567850Y-81429520D01*
X45588893Y-81442132D01*
X45608599Y-81456747D01*
X45626777Y-81473223D01*
X45643253Y-81491401D01*
X45657868Y-81511107D01*
X45670480Y-81532150D01*
X45680970Y-81554329D01*
X45689235Y-81577428D01*
X45695196Y-81601227D01*
X45698796Y-81625495D01*
X45700000Y-81649999D01*
X45700000Y-82300001D01*
X45698796Y-82324505D01*
X45695196Y-82348773D01*
X45689235Y-82372572D01*
X45680970Y-82395671D01*
X45670480Y-82417850D01*
X45657868Y-82438893D01*
X45643253Y-82458599D01*
X45626777Y-82476777D01*
X45608599Y-82493253D01*
X45588893Y-82507868D01*
X45567850Y-82520480D01*
X45545671Y-82530970D01*
X45522572Y-82539235D01*
X45498773Y-82545196D01*
X45474505Y-82548796D01*
X45450001Y-82550000D01*
X44549999Y-82550000D01*
X44525495Y-82548796D01*
X44501227Y-82545196D01*
X44477428Y-82539235D01*
X44454329Y-82530970D01*
X44432150Y-82520480D01*
X44411107Y-82507868D01*
X44391401Y-82493253D01*
X44373223Y-82476777D01*
X44356747Y-82458599D01*
X44342132Y-82438893D01*
X44329520Y-82417850D01*
X44319030Y-82395671D01*
X44310765Y-82372572D01*
X44304804Y-82348773D01*
X44301204Y-82324505D01*
X44300000Y-82300001D01*
X44300000Y-81649999D01*
X44301204Y-81625495D01*
X44304804Y-81601227D01*
X44310765Y-81577428D01*
X44319030Y-81554329D01*
X44329520Y-81532150D01*
X44342132Y-81511107D01*
X44356747Y-81491401D01*
X44373223Y-81473223D01*
X44391401Y-81456747D01*
X44411107Y-81442132D01*
X44432150Y-81429520D01*
X44454329Y-81419030D01*
X44477428Y-81410765D01*
X44501227Y-81404804D01*
X44525495Y-81401204D01*
X44549999Y-81400000D01*
X45450001Y-81400000D01*
X45474505Y-81401204D01*
X45474505Y-81401204D01*
G37*
D16*
X45000000Y-81975000D03*
D15*
G36*
X43474505Y-83476204D02*
X43498773Y-83479804D01*
X43522572Y-83485765D01*
X43545671Y-83494030D01*
X43567850Y-83504520D01*
X43588893Y-83517132D01*
X43608599Y-83531747D01*
X43626777Y-83548223D01*
X43643253Y-83566401D01*
X43657868Y-83586107D01*
X43670480Y-83607150D01*
X43680970Y-83629329D01*
X43689235Y-83652428D01*
X43695196Y-83676227D01*
X43698796Y-83700495D01*
X43700000Y-83724999D01*
X43700000Y-84375001D01*
X43698796Y-84399505D01*
X43695196Y-84423773D01*
X43689235Y-84447572D01*
X43680970Y-84470671D01*
X43670480Y-84492850D01*
X43657868Y-84513893D01*
X43643253Y-84533599D01*
X43626777Y-84551777D01*
X43608599Y-84568253D01*
X43588893Y-84582868D01*
X43567850Y-84595480D01*
X43545671Y-84605970D01*
X43522572Y-84614235D01*
X43498773Y-84620196D01*
X43474505Y-84623796D01*
X43450001Y-84625000D01*
X42549999Y-84625000D01*
X42525495Y-84623796D01*
X42501227Y-84620196D01*
X42477428Y-84614235D01*
X42454329Y-84605970D01*
X42432150Y-84595480D01*
X42411107Y-84582868D01*
X42391401Y-84568253D01*
X42373223Y-84551777D01*
X42356747Y-84533599D01*
X42342132Y-84513893D01*
X42329520Y-84492850D01*
X42319030Y-84470671D01*
X42310765Y-84447572D01*
X42304804Y-84423773D01*
X42301204Y-84399505D01*
X42300000Y-84375001D01*
X42300000Y-83724999D01*
X42301204Y-83700495D01*
X42304804Y-83676227D01*
X42310765Y-83652428D01*
X42319030Y-83629329D01*
X42329520Y-83607150D01*
X42342132Y-83586107D01*
X42356747Y-83566401D01*
X42373223Y-83548223D01*
X42391401Y-83531747D01*
X42411107Y-83517132D01*
X42432150Y-83504520D01*
X42454329Y-83494030D01*
X42477428Y-83485765D01*
X42501227Y-83479804D01*
X42525495Y-83476204D01*
X42549999Y-83475000D01*
X43450001Y-83475000D01*
X43474505Y-83476204D01*
X43474505Y-83476204D01*
G37*
D16*
X43000000Y-84050000D03*
D15*
G36*
X43474505Y-81426204D02*
X43498773Y-81429804D01*
X43522572Y-81435765D01*
X43545671Y-81444030D01*
X43567850Y-81454520D01*
X43588893Y-81467132D01*
X43608599Y-81481747D01*
X43626777Y-81498223D01*
X43643253Y-81516401D01*
X43657868Y-81536107D01*
X43670480Y-81557150D01*
X43680970Y-81579329D01*
X43689235Y-81602428D01*
X43695196Y-81626227D01*
X43698796Y-81650495D01*
X43700000Y-81674999D01*
X43700000Y-82325001D01*
X43698796Y-82349505D01*
X43695196Y-82373773D01*
X43689235Y-82397572D01*
X43680970Y-82420671D01*
X43670480Y-82442850D01*
X43657868Y-82463893D01*
X43643253Y-82483599D01*
X43626777Y-82501777D01*
X43608599Y-82518253D01*
X43588893Y-82532868D01*
X43567850Y-82545480D01*
X43545671Y-82555970D01*
X43522572Y-82564235D01*
X43498773Y-82570196D01*
X43474505Y-82573796D01*
X43450001Y-82575000D01*
X42549999Y-82575000D01*
X42525495Y-82573796D01*
X42501227Y-82570196D01*
X42477428Y-82564235D01*
X42454329Y-82555970D01*
X42432150Y-82545480D01*
X42411107Y-82532868D01*
X42391401Y-82518253D01*
X42373223Y-82501777D01*
X42356747Y-82483599D01*
X42342132Y-82463893D01*
X42329520Y-82442850D01*
X42319030Y-82420671D01*
X42310765Y-82397572D01*
X42304804Y-82373773D01*
X42301204Y-82349505D01*
X42300000Y-82325001D01*
X42300000Y-81674999D01*
X42301204Y-81650495D01*
X42304804Y-81626227D01*
X42310765Y-81602428D01*
X42319030Y-81579329D01*
X42329520Y-81557150D01*
X42342132Y-81536107D01*
X42356747Y-81516401D01*
X42373223Y-81498223D01*
X42391401Y-81481747D01*
X42411107Y-81467132D01*
X42432150Y-81454520D01*
X42454329Y-81444030D01*
X42477428Y-81435765D01*
X42501227Y-81429804D01*
X42525495Y-81426204D01*
X42549999Y-81425000D01*
X43450001Y-81425000D01*
X43474505Y-81426204D01*
X43474505Y-81426204D01*
G37*
D16*
X43000000Y-82000000D03*
D17*
X43875000Y-85700000D03*
X30675000Y-85900000D03*
X27600000Y-75300000D03*
D18*
X38025000Y-21475000D02*
X37500000Y-22000000D01*
X41000000Y-21475000D02*
X38025000Y-21475000D01*
X34525000Y-22000000D02*
X34000000Y-21475000D01*
X37500000Y-22000000D02*
X34525000Y-22000000D01*
X43000000Y-84050000D02*
X43000000Y-84825000D01*
X43000000Y-84825000D02*
X43875000Y-85700000D01*
X31500000Y-84025000D02*
X31500000Y-85075000D01*
X31500000Y-85075000D02*
X30675000Y-85900000D01*
X27500000Y-76975000D02*
X27500000Y-75400000D01*
X27500000Y-75400000D02*
X27600000Y-75300000D01*
D19*
X36297919Y-27080000D02*
X37500000Y-27080000D01*
X34330000Y-27080000D02*
X36297919Y-27080000D01*
X31250000Y-24000000D02*
X34330000Y-27080000D01*
X30000000Y-24000000D02*
X31250000Y-24000000D01*
X36485000Y-23525000D02*
X34000000Y-23525000D01*
X37500000Y-24540000D02*
X36485000Y-23525000D01*
X32065000Y-23525000D02*
X30000000Y-21460000D01*
X34000000Y-23525000D02*
X32065000Y-23525000D01*
X39500000Y-24225000D02*
X39500000Y-27620000D01*
X40200000Y-23525000D02*
X39500000Y-24225000D01*
X41000000Y-23525000D02*
X40200000Y-23525000D01*
X37500000Y-29620000D02*
X39500000Y-27620000D01*
X43065000Y-21460000D02*
X41000000Y-23525000D01*
X45000000Y-21460000D02*
X43065000Y-21460000D01*
D20*
X41200000Y-24800000D02*
X41000000Y-25000000D01*
X43000000Y-24800000D02*
X41200000Y-24800000D01*
X41200000Y-24800000D02*
X40500000Y-25500000D01*
D19*
X43000000Y-24750000D02*
X43000000Y-24800000D01*
X43750000Y-24000000D02*
X43000000Y-24750000D01*
X45000000Y-24000000D02*
X43750000Y-24000000D01*
X41250000Y-24750000D02*
X41000000Y-25000000D01*
X43000000Y-24750000D02*
X41250000Y-24750000D01*
X41000000Y-25000000D02*
X40500000Y-25500000D01*
X40500000Y-29160000D02*
X37500000Y-32160000D01*
X40500000Y-25500000D02*
X40500000Y-29160000D01*
X32399999Y-78640001D02*
X31500000Y-79540000D01*
X32775001Y-78264999D02*
X32399999Y-78640001D01*
X32775001Y-62284999D02*
X32775001Y-78264999D01*
X37500000Y-57560000D02*
X32775001Y-62284999D01*
X28015000Y-79540000D02*
X27500000Y-79025000D01*
X31500000Y-79540000D02*
X28015000Y-79540000D01*
X31500000Y-61020000D02*
X31500000Y-77000000D01*
X37500000Y-55020000D02*
X31500000Y-61020000D01*
X43000000Y-65600000D02*
X43000000Y-77000000D01*
X37500000Y-60100000D02*
X43000000Y-65600000D01*
D21*
X45985000Y-79540000D02*
X43000000Y-79540000D01*
X47000000Y-78525000D02*
X45985000Y-79540000D01*
D19*
X42100001Y-78640001D02*
X43000000Y-79540000D01*
X41724999Y-78264999D02*
X42100001Y-78640001D01*
X41724999Y-66864999D02*
X41724999Y-78264999D01*
X37500000Y-62640000D02*
X41724999Y-66864999D01*
X30000000Y-27200000D02*
X30000000Y-27080000D01*
X37500000Y-34700000D02*
X30000000Y-27200000D01*
D21*
X37500000Y-39780000D02*
X33220000Y-39780000D01*
D19*
X30000000Y-43000000D02*
X30000000Y-48420000D01*
X33220000Y-39780000D02*
X30000000Y-43000000D01*
X30780000Y-51580000D02*
X30000000Y-51580000D01*
X37500000Y-44860000D02*
X30780000Y-51580000D01*
X29000001Y-71920001D02*
X30000000Y-72920000D01*
X28624999Y-71544999D02*
X29000001Y-71920001D01*
X28624999Y-58815001D02*
X28624999Y-71544999D01*
X37500000Y-49940000D02*
X28624999Y-58815001D01*
X45000000Y-35380000D02*
X47050000Y-37430000D01*
X45660001Y-52955001D02*
X41230001Y-52955001D01*
X47050000Y-37430000D02*
X47050000Y-51565002D01*
X47050000Y-51565002D02*
X45660001Y-52955001D01*
X38349999Y-50789999D02*
X37500000Y-49940000D01*
X39064999Y-50789999D02*
X38349999Y-50789999D01*
X41230001Y-52955001D02*
X39064999Y-50789999D01*
X45000000Y-29740000D02*
X37500000Y-37240000D01*
X45000000Y-27080000D02*
X45000000Y-29740000D01*
X43820000Y-42320000D02*
X45000000Y-43500000D01*
X37500000Y-42320000D02*
X43820000Y-42320000D01*
X45000000Y-43500000D02*
X45000000Y-48420000D01*
X41680000Y-51580000D02*
X45000000Y-51580000D01*
X37500000Y-47400000D02*
X41680000Y-51580000D01*
D21*
X38349999Y-53329999D02*
X40829999Y-53329999D01*
X37500000Y-52480000D02*
X38349999Y-53329999D01*
X40829999Y-53329999D02*
X46500000Y-59000000D01*
X46500000Y-71420000D02*
X45000000Y-72920000D01*
X46500000Y-59000000D02*
X46500000Y-71420000D01*
X28555000Y-84025000D02*
X26580000Y-86000000D01*
X29500000Y-84025000D02*
X28555000Y-84025000D01*
X46975000Y-86000000D02*
X47920000Y-86000000D01*
X45000000Y-84025000D02*
X46975000Y-86000000D01*
X31500000Y-81975000D02*
X29500000Y-81975000D01*
D19*
X32123372Y-81351628D02*
X31500000Y-81975000D01*
X33325011Y-80149989D02*
X32123372Y-81351628D01*
X33325011Y-68152908D02*
X33325011Y-80149989D01*
X36297919Y-65180000D02*
X33325011Y-68152908D01*
X37500000Y-65180000D02*
X36297919Y-65180000D01*
X29525000Y-81975000D02*
X31500000Y-81975000D01*
X42376628Y-81376628D02*
X43000000Y-82000000D01*
X40500008Y-79500008D02*
X42376628Y-81376628D01*
X40500008Y-70720008D02*
X40500008Y-79500008D01*
X37500000Y-67720000D02*
X40500008Y-70720008D01*
X44975000Y-82000000D02*
X45000000Y-81975000D01*
X43000000Y-82000000D02*
X44975000Y-82000000D01*
X30500000Y-88800000D02*
X30500000Y-89475000D01*
X30500000Y-88344998D02*
X30500000Y-88800000D01*
X33875021Y-84969977D02*
X30500000Y-88344998D01*
X37500000Y-70260000D02*
X33875021Y-73884979D01*
X28525000Y-89475000D02*
X28500000Y-89450000D01*
X32500000Y-89475000D02*
X28525000Y-89475000D01*
X36440000Y-82820000D02*
X39620000Y-86000000D01*
X33875021Y-82820000D02*
X36440000Y-82820000D01*
X33875021Y-82820000D02*
X33875021Y-84969977D01*
X33875021Y-73884979D02*
X33875021Y-82820000D01*
X43500000Y-88800000D02*
X43500000Y-89475000D01*
X43500000Y-87844998D02*
X43500000Y-88800000D01*
X39949998Y-84294996D02*
X43500000Y-87844998D01*
X39949998Y-75249998D02*
X39949998Y-84294996D01*
X37500000Y-72800000D02*
X39949998Y-75249998D01*
X45500000Y-89475000D02*
X41500000Y-89475000D01*
X26580000Y-93420000D02*
X26580000Y-95500000D01*
X28500000Y-91500000D02*
X26580000Y-93420000D01*
X30500000Y-101080000D02*
X26580000Y-105000000D01*
X30500000Y-91525000D02*
X30500000Y-101080000D01*
X27579999Y-113500001D02*
X26580000Y-114500000D01*
X31876628Y-109203372D02*
X27579999Y-113500001D01*
X31876628Y-92148372D02*
X31876628Y-109203372D01*
X32500000Y-91525000D02*
X31876628Y-92148372D01*
X45500000Y-93080000D02*
X47920000Y-95500000D01*
X45500000Y-91525000D02*
X45500000Y-93080000D01*
X43500000Y-100580000D02*
X47920000Y-105000000D01*
X43500000Y-91525000D02*
X43500000Y-100580000D01*
X41500000Y-108080000D02*
X47920000Y-114500000D01*
X41500000Y-91525000D02*
X41500000Y-108080000D01*
D22*
G36*
X36948688Y-84474200D02*
X36830540Y-84479161D01*
X36385852Y-84663357D01*
X36299446Y-84919841D01*
X37200000Y-85820395D01*
X37214143Y-85806253D01*
X37393748Y-85985858D01*
X37379605Y-86000000D01*
X38183113Y-86803508D01*
X38233914Y-86926153D01*
X38693847Y-87386086D01*
X39294778Y-87635000D01*
X39945222Y-87635000D01*
X40546153Y-87386086D01*
X41006086Y-86926153D01*
X41131900Y-86622411D01*
X42690000Y-88180511D01*
X42690001Y-88331940D01*
X42500000Y-88458895D01*
X42293436Y-88320873D01*
X41950001Y-88252560D01*
X41049999Y-88252560D01*
X40706564Y-88320873D01*
X40415414Y-88515414D01*
X40220873Y-88806564D01*
X40152560Y-89149999D01*
X40152560Y-89800001D01*
X40220873Y-90143436D01*
X40415414Y-90434586D01*
X40513313Y-90500000D01*
X40415414Y-90565414D01*
X40220873Y-90856564D01*
X40152560Y-91199999D01*
X40152560Y-91850001D01*
X40220873Y-92193436D01*
X40415414Y-92484586D01*
X40690000Y-92668059D01*
X40690000Y-94257761D01*
X40546153Y-94113914D01*
X39945222Y-93865000D01*
X39294778Y-93865000D01*
X38693847Y-94113914D01*
X38233914Y-94573847D01*
X38183113Y-94696492D01*
X37379605Y-95500000D01*
X38183113Y-96303508D01*
X38233914Y-96426153D01*
X38693847Y-96886086D01*
X39294778Y-97135000D01*
X39945222Y-97135000D01*
X40546153Y-96886086D01*
X40690000Y-96742239D01*
X40690001Y-103757762D01*
X40546153Y-103613914D01*
X39945222Y-103365000D01*
X39294778Y-103365000D01*
X38693847Y-103613914D01*
X38233914Y-104073847D01*
X38183113Y-104196492D01*
X37379605Y-105000000D01*
X38183113Y-105803508D01*
X38233914Y-105926153D01*
X38693847Y-106386086D01*
X39294778Y-106635000D01*
X39945222Y-106635000D01*
X40546153Y-106386086D01*
X40690001Y-106242238D01*
X40690001Y-108000222D01*
X40674132Y-108080000D01*
X40733310Y-108377504D01*
X40736998Y-108396046D01*
X40916024Y-108663977D01*
X40983654Y-108709166D01*
X46333112Y-114058625D01*
X46285000Y-114174778D01*
X46285000Y-114825222D01*
X46533914Y-115426153D01*
X46993847Y-115886086D01*
X47594778Y-116135000D01*
X48245222Y-116135000D01*
X48846153Y-115886086D01*
X49265001Y-115467238D01*
X49265001Y-118765000D01*
X25735000Y-118765000D01*
X25735000Y-115919701D01*
X26254778Y-116135000D01*
X26905222Y-116135000D01*
X27506153Y-115886086D01*
X27966086Y-115426153D01*
X28215000Y-114825222D01*
X28215000Y-114174778D01*
X33245000Y-114174778D01*
X33245000Y-114825222D01*
X33493914Y-115426153D01*
X33953847Y-115886086D01*
X34554778Y-116135000D01*
X35205222Y-116135000D01*
X35806153Y-115886086D01*
X36112080Y-115580159D01*
X36299446Y-115580159D01*
X36385852Y-115836643D01*
X36959336Y-116046458D01*
X37049041Y-116042691D01*
X37059336Y-116046458D01*
X37669460Y-116020839D01*
X38114148Y-115836643D01*
X38200554Y-115580159D01*
X37300000Y-114679605D01*
X37250000Y-114729605D01*
X37200000Y-114679605D01*
X36299446Y-115580159D01*
X36112080Y-115580159D01*
X36266086Y-115426153D01*
X36316887Y-115303508D01*
X37120395Y-114500000D01*
X37379605Y-114500000D01*
X38183113Y-115303508D01*
X38233914Y-115426153D01*
X38693847Y-115886086D01*
X39294778Y-116135000D01*
X39945222Y-116135000D01*
X40546153Y-115886086D01*
X41006086Y-115426153D01*
X41255000Y-114825222D01*
X41255000Y-114174778D01*
X41006086Y-113573847D01*
X40546153Y-113113914D01*
X39945222Y-112865000D01*
X39294778Y-112865000D01*
X38693847Y-113113914D01*
X38233914Y-113573847D01*
X38183113Y-113696492D01*
X37379605Y-114500000D01*
X37120395Y-114500000D01*
X36316887Y-113696492D01*
X36266086Y-113573847D01*
X36112080Y-113419841D01*
X36299446Y-113419841D01*
X37200000Y-114320395D01*
X37250000Y-114270395D01*
X37300000Y-114320395D01*
X38200554Y-113419841D01*
X38114148Y-113163357D01*
X37540664Y-112953542D01*
X37450959Y-112957309D01*
X37440664Y-112953542D01*
X36830540Y-112979161D01*
X36385852Y-113163357D01*
X36299446Y-113419841D01*
X36112080Y-113419841D01*
X35806153Y-113113914D01*
X35205222Y-112865000D01*
X34554778Y-112865000D01*
X33953847Y-113113914D01*
X33493914Y-113573847D01*
X33245000Y-114174778D01*
X28215000Y-114174778D01*
X28166888Y-114058625D01*
X28209164Y-114016349D01*
X28209166Y-114016346D01*
X32392975Y-109832538D01*
X32460605Y-109787349D01*
X32639631Y-109519418D01*
X32686628Y-109283146D01*
X32702496Y-109203373D01*
X32686628Y-109123600D01*
X32686628Y-104674778D01*
X33245000Y-104674778D01*
X33245000Y-105325222D01*
X33493914Y-105926153D01*
X33953847Y-106386086D01*
X34554778Y-106635000D01*
X35205222Y-106635000D01*
X35806153Y-106386086D01*
X36112080Y-106080159D01*
X36299446Y-106080159D01*
X36385852Y-106336643D01*
X36959336Y-106546458D01*
X37049041Y-106542691D01*
X37059336Y-106546458D01*
X37669460Y-106520839D01*
X38114148Y-106336643D01*
X38200554Y-106080159D01*
X37300000Y-105179605D01*
X37250000Y-105229605D01*
X37200000Y-105179605D01*
X36299446Y-106080159D01*
X36112080Y-106080159D01*
X36266086Y-105926153D01*
X36316887Y-105803508D01*
X37120395Y-105000000D01*
X36316887Y-104196492D01*
X36266086Y-104073847D01*
X36112080Y-103919841D01*
X36299446Y-103919841D01*
X37200000Y-104820395D01*
X37250000Y-104770395D01*
X37300000Y-104820395D01*
X38200554Y-103919841D01*
X38114148Y-103663357D01*
X37540664Y-103453542D01*
X37450959Y-103457309D01*
X37440664Y-103453542D01*
X36830540Y-103479161D01*
X36385852Y-103663357D01*
X36299446Y-103919841D01*
X36112080Y-103919841D01*
X35806153Y-103613914D01*
X35205222Y-103365000D01*
X34554778Y-103365000D01*
X33953847Y-103613914D01*
X33493914Y-104073847D01*
X33245000Y-104674778D01*
X32686628Y-104674778D01*
X32686628Y-95174778D01*
X33245000Y-95174778D01*
X33245000Y-95825222D01*
X33493914Y-96426153D01*
X33953847Y-96886086D01*
X34554778Y-97135000D01*
X35205222Y-97135000D01*
X35806153Y-96886086D01*
X36112080Y-96580159D01*
X36299446Y-96580159D01*
X36385852Y-96836643D01*
X36959336Y-97046458D01*
X37049041Y-97042691D01*
X37059336Y-97046458D01*
X37669460Y-97020839D01*
X38114148Y-96836643D01*
X38200554Y-96580159D01*
X37300000Y-95679605D01*
X37250000Y-95729605D01*
X37200000Y-95679605D01*
X36299446Y-96580159D01*
X36112080Y-96580159D01*
X36266086Y-96426153D01*
X36316887Y-96303508D01*
X37120395Y-95500000D01*
X36316887Y-94696492D01*
X36266086Y-94573847D01*
X36112080Y-94419841D01*
X36299446Y-94419841D01*
X37200000Y-95320395D01*
X37250000Y-95270395D01*
X37300000Y-95320395D01*
X38200554Y-94419841D01*
X38114148Y-94163357D01*
X37540664Y-93953542D01*
X37450959Y-93957309D01*
X37440664Y-93953542D01*
X36830540Y-93979161D01*
X36385852Y-94163357D01*
X36299446Y-94419841D01*
X36112080Y-94419841D01*
X35806153Y-94113914D01*
X35205222Y-93865000D01*
X34554778Y-93865000D01*
X33953847Y-94113914D01*
X33493914Y-94573847D01*
X33245000Y-95174778D01*
X32686628Y-95174778D01*
X32686628Y-92747440D01*
X32950001Y-92747440D01*
X33293436Y-92679127D01*
X33584586Y-92484586D01*
X33779127Y-92193436D01*
X33847440Y-91850001D01*
X33847440Y-91199999D01*
X33779127Y-90856564D01*
X33584586Y-90565414D01*
X33486687Y-90500000D01*
X33584586Y-90434586D01*
X33779127Y-90143436D01*
X33847440Y-89800001D01*
X33847440Y-89149999D01*
X33779127Y-88806564D01*
X33584586Y-88515414D01*
X33293436Y-88320873D01*
X32950001Y-88252560D01*
X32049999Y-88252560D01*
X31706564Y-88320873D01*
X31595278Y-88395232D01*
X33368100Y-86622411D01*
X33493914Y-86926153D01*
X33953847Y-87386086D01*
X34554778Y-87635000D01*
X35205222Y-87635000D01*
X35806153Y-87386086D01*
X36112080Y-87080159D01*
X36299446Y-87080159D01*
X36385852Y-87336643D01*
X36959336Y-87546458D01*
X37049041Y-87542691D01*
X37059336Y-87546458D01*
X37669460Y-87520839D01*
X38114148Y-87336643D01*
X38200554Y-87080159D01*
X37300000Y-86179605D01*
X37250000Y-86229605D01*
X37200000Y-86179605D01*
X36299446Y-87080159D01*
X36112080Y-87080159D01*
X36266086Y-86926153D01*
X36316887Y-86803508D01*
X37120395Y-86000000D01*
X36316887Y-85196492D01*
X36266086Y-85073847D01*
X35806153Y-84613914D01*
X35205222Y-84365000D01*
X34685021Y-84365000D01*
X34685021Y-83630000D01*
X36104488Y-83630000D01*
X36948688Y-84474200D01*
X36948688Y-84474200D01*
G37*
X36948688Y-84474200D02*
X36830540Y-84479161D01*
X36385852Y-84663357D01*
X36299446Y-84919841D01*
X37200000Y-85820395D01*
X37214143Y-85806253D01*
X37393748Y-85985858D01*
X37379605Y-86000000D01*
X38183113Y-86803508D01*
X38233914Y-86926153D01*
X38693847Y-87386086D01*
X39294778Y-87635000D01*
X39945222Y-87635000D01*
X40546153Y-87386086D01*
X41006086Y-86926153D01*
X41131900Y-86622411D01*
X42690000Y-88180511D01*
X42690001Y-88331940D01*
X42500000Y-88458895D01*
X42293436Y-88320873D01*
X41950001Y-88252560D01*
X41049999Y-88252560D01*
X40706564Y-88320873D01*
X40415414Y-88515414D01*
X40220873Y-88806564D01*
X40152560Y-89149999D01*
X40152560Y-89800001D01*
X40220873Y-90143436D01*
X40415414Y-90434586D01*
X40513313Y-90500000D01*
X40415414Y-90565414D01*
X40220873Y-90856564D01*
X40152560Y-91199999D01*
X40152560Y-91850001D01*
X40220873Y-92193436D01*
X40415414Y-92484586D01*
X40690000Y-92668059D01*
X40690000Y-94257761D01*
X40546153Y-94113914D01*
X39945222Y-93865000D01*
X39294778Y-93865000D01*
X38693847Y-94113914D01*
X38233914Y-94573847D01*
X38183113Y-94696492D01*
X37379605Y-95500000D01*
X38183113Y-96303508D01*
X38233914Y-96426153D01*
X38693847Y-96886086D01*
X39294778Y-97135000D01*
X39945222Y-97135000D01*
X40546153Y-96886086D01*
X40690000Y-96742239D01*
X40690001Y-103757762D01*
X40546153Y-103613914D01*
X39945222Y-103365000D01*
X39294778Y-103365000D01*
X38693847Y-103613914D01*
X38233914Y-104073847D01*
X38183113Y-104196492D01*
X37379605Y-105000000D01*
X38183113Y-105803508D01*
X38233914Y-105926153D01*
X38693847Y-106386086D01*
X39294778Y-106635000D01*
X39945222Y-106635000D01*
X40546153Y-106386086D01*
X40690001Y-106242238D01*
X40690001Y-108000222D01*
X40674132Y-108080000D01*
X40733310Y-108377504D01*
X40736998Y-108396046D01*
X40916024Y-108663977D01*
X40983654Y-108709166D01*
X46333112Y-114058625D01*
X46285000Y-114174778D01*
X46285000Y-114825222D01*
X46533914Y-115426153D01*
X46993847Y-115886086D01*
X47594778Y-116135000D01*
X48245222Y-116135000D01*
X48846153Y-115886086D01*
X49265001Y-115467238D01*
X49265001Y-118765000D01*
X25735000Y-118765000D01*
X25735000Y-115919701D01*
X26254778Y-116135000D01*
X26905222Y-116135000D01*
X27506153Y-115886086D01*
X27966086Y-115426153D01*
X28215000Y-114825222D01*
X28215000Y-114174778D01*
X33245000Y-114174778D01*
X33245000Y-114825222D01*
X33493914Y-115426153D01*
X33953847Y-115886086D01*
X34554778Y-116135000D01*
X35205222Y-116135000D01*
X35806153Y-115886086D01*
X36112080Y-115580159D01*
X36299446Y-115580159D01*
X36385852Y-115836643D01*
X36959336Y-116046458D01*
X37049041Y-116042691D01*
X37059336Y-116046458D01*
X37669460Y-116020839D01*
X38114148Y-115836643D01*
X38200554Y-115580159D01*
X37300000Y-114679605D01*
X37250000Y-114729605D01*
X37200000Y-114679605D01*
X36299446Y-115580159D01*
X36112080Y-115580159D01*
X36266086Y-115426153D01*
X36316887Y-115303508D01*
X37120395Y-114500000D01*
X37379605Y-114500000D01*
X38183113Y-115303508D01*
X38233914Y-115426153D01*
X38693847Y-115886086D01*
X39294778Y-116135000D01*
X39945222Y-116135000D01*
X40546153Y-115886086D01*
X41006086Y-115426153D01*
X41255000Y-114825222D01*
X41255000Y-114174778D01*
X41006086Y-113573847D01*
X40546153Y-113113914D01*
X39945222Y-112865000D01*
X39294778Y-112865000D01*
X38693847Y-113113914D01*
X38233914Y-113573847D01*
X38183113Y-113696492D01*
X37379605Y-114500000D01*
X37120395Y-114500000D01*
X36316887Y-113696492D01*
X36266086Y-113573847D01*
X36112080Y-113419841D01*
X36299446Y-113419841D01*
X37200000Y-114320395D01*
X37250000Y-114270395D01*
X37300000Y-114320395D01*
X38200554Y-113419841D01*
X38114148Y-113163357D01*
X37540664Y-112953542D01*
X37450959Y-112957309D01*
X37440664Y-112953542D01*
X36830540Y-112979161D01*
X36385852Y-113163357D01*
X36299446Y-113419841D01*
X36112080Y-113419841D01*
X35806153Y-113113914D01*
X35205222Y-112865000D01*
X34554778Y-112865000D01*
X33953847Y-113113914D01*
X33493914Y-113573847D01*
X33245000Y-114174778D01*
X28215000Y-114174778D01*
X28166888Y-114058625D01*
X28209164Y-114016349D01*
X28209166Y-114016346D01*
X32392975Y-109832538D01*
X32460605Y-109787349D01*
X32639631Y-109519418D01*
X32686628Y-109283146D01*
X32702496Y-109203373D01*
X32686628Y-109123600D01*
X32686628Y-104674778D01*
X33245000Y-104674778D01*
X33245000Y-105325222D01*
X33493914Y-105926153D01*
X33953847Y-106386086D01*
X34554778Y-106635000D01*
X35205222Y-106635000D01*
X35806153Y-106386086D01*
X36112080Y-106080159D01*
X36299446Y-106080159D01*
X36385852Y-106336643D01*
X36959336Y-106546458D01*
X37049041Y-106542691D01*
X37059336Y-106546458D01*
X37669460Y-106520839D01*
X38114148Y-106336643D01*
X38200554Y-106080159D01*
X37300000Y-105179605D01*
X37250000Y-105229605D01*
X37200000Y-105179605D01*
X36299446Y-106080159D01*
X36112080Y-106080159D01*
X36266086Y-105926153D01*
X36316887Y-105803508D01*
X37120395Y-105000000D01*
X36316887Y-104196492D01*
X36266086Y-104073847D01*
X36112080Y-103919841D01*
X36299446Y-103919841D01*
X37200000Y-104820395D01*
X37250000Y-104770395D01*
X37300000Y-104820395D01*
X38200554Y-103919841D01*
X38114148Y-103663357D01*
X37540664Y-103453542D01*
X37450959Y-103457309D01*
X37440664Y-103453542D01*
X36830540Y-103479161D01*
X36385852Y-103663357D01*
X36299446Y-103919841D01*
X36112080Y-103919841D01*
X35806153Y-103613914D01*
X35205222Y-103365000D01*
X34554778Y-103365000D01*
X33953847Y-103613914D01*
X33493914Y-104073847D01*
X33245000Y-104674778D01*
X32686628Y-104674778D01*
X32686628Y-95174778D01*
X33245000Y-95174778D01*
X33245000Y-95825222D01*
X33493914Y-96426153D01*
X33953847Y-96886086D01*
X34554778Y-97135000D01*
X35205222Y-97135000D01*
X35806153Y-96886086D01*
X36112080Y-96580159D01*
X36299446Y-96580159D01*
X36385852Y-96836643D01*
X36959336Y-97046458D01*
X37049041Y-97042691D01*
X37059336Y-97046458D01*
X37669460Y-97020839D01*
X38114148Y-96836643D01*
X38200554Y-96580159D01*
X37300000Y-95679605D01*
X37250000Y-95729605D01*
X37200000Y-95679605D01*
X36299446Y-96580159D01*
X36112080Y-96580159D01*
X36266086Y-96426153D01*
X36316887Y-96303508D01*
X37120395Y-95500000D01*
X36316887Y-94696492D01*
X36266086Y-94573847D01*
X36112080Y-94419841D01*
X36299446Y-94419841D01*
X37200000Y-95320395D01*
X37250000Y-95270395D01*
X37300000Y-95320395D01*
X38200554Y-94419841D01*
X38114148Y-94163357D01*
X37540664Y-93953542D01*
X37450959Y-93957309D01*
X37440664Y-93953542D01*
X36830540Y-93979161D01*
X36385852Y-94163357D01*
X36299446Y-94419841D01*
X36112080Y-94419841D01*
X35806153Y-94113914D01*
X35205222Y-93865000D01*
X34554778Y-93865000D01*
X33953847Y-94113914D01*
X33493914Y-94573847D01*
X33245000Y-95174778D01*
X32686628Y-95174778D01*
X32686628Y-92747440D01*
X32950001Y-92747440D01*
X33293436Y-92679127D01*
X33584586Y-92484586D01*
X33779127Y-92193436D01*
X33847440Y-91850001D01*
X33847440Y-91199999D01*
X33779127Y-90856564D01*
X33584586Y-90565414D01*
X33486687Y-90500000D01*
X33584586Y-90434586D01*
X33779127Y-90143436D01*
X33847440Y-89800001D01*
X33847440Y-89149999D01*
X33779127Y-88806564D01*
X33584586Y-88515414D01*
X33293436Y-88320873D01*
X32950001Y-88252560D01*
X32049999Y-88252560D01*
X31706564Y-88320873D01*
X31595278Y-88395232D01*
X33368100Y-86622411D01*
X33493914Y-86926153D01*
X33953847Y-87386086D01*
X34554778Y-87635000D01*
X35205222Y-87635000D01*
X35806153Y-87386086D01*
X36112080Y-87080159D01*
X36299446Y-87080159D01*
X36385852Y-87336643D01*
X36959336Y-87546458D01*
X37049041Y-87542691D01*
X37059336Y-87546458D01*
X37669460Y-87520839D01*
X38114148Y-87336643D01*
X38200554Y-87080159D01*
X37300000Y-86179605D01*
X37250000Y-86229605D01*
X37200000Y-86179605D01*
X36299446Y-87080159D01*
X36112080Y-87080159D01*
X36266086Y-86926153D01*
X36316887Y-86803508D01*
X37120395Y-86000000D01*
X36316887Y-85196492D01*
X36266086Y-85073847D01*
X35806153Y-84613914D01*
X35205222Y-84365000D01*
X34685021Y-84365000D01*
X34685021Y-83630000D01*
X36104488Y-83630000D01*
X36948688Y-84474200D01*
G36*
X41652560Y-81798073D02*
X41652560Y-82325001D01*
X41720873Y-82668436D01*
X41915414Y-82959586D01*
X41916597Y-82960377D01*
X41761673Y-83115302D01*
X41665000Y-83348691D01*
X41665000Y-83764250D01*
X41823750Y-83923000D01*
X42873000Y-83923000D01*
X42873000Y-83903000D01*
X43127000Y-83903000D01*
X43127000Y-83923000D01*
X43147000Y-83923000D01*
X43147000Y-84177000D01*
X43127000Y-84177000D01*
X43127000Y-85101250D01*
X43285750Y-85260000D01*
X43826310Y-85260000D01*
X44059699Y-85163327D01*
X44109053Y-85113972D01*
X44206564Y-85179127D01*
X44549999Y-85247440D01*
X45147639Y-85247440D01*
X46327129Y-86426931D01*
X46533914Y-86926153D01*
X46993847Y-87386086D01*
X47594778Y-87635000D01*
X48245222Y-87635000D01*
X48846153Y-87386086D01*
X49265001Y-86967238D01*
X49265001Y-94532762D01*
X48846153Y-94113914D01*
X48245222Y-93865000D01*
X47594778Y-93865000D01*
X47478625Y-93913112D01*
X46310000Y-92744488D01*
X46310000Y-92668059D01*
X46584586Y-92484586D01*
X46779127Y-92193436D01*
X46847440Y-91850001D01*
X46847440Y-91199999D01*
X46779127Y-90856564D01*
X46584586Y-90565414D01*
X46486687Y-90500000D01*
X46584586Y-90434586D01*
X46779127Y-90143436D01*
X46847440Y-89800001D01*
X46847440Y-89149999D01*
X46779127Y-88806564D01*
X46584586Y-88515414D01*
X46293436Y-88320873D01*
X45950001Y-88252560D01*
X45049999Y-88252560D01*
X44706564Y-88320873D01*
X44500000Y-88458895D01*
X44310000Y-88331941D01*
X44310000Y-87924771D01*
X44325868Y-87844998D01*
X44284097Y-87635000D01*
X44263003Y-87528952D01*
X44083977Y-87261021D01*
X44016347Y-87215833D01*
X41980487Y-85179973D01*
X42173690Y-85260000D01*
X42714250Y-85260000D01*
X42873000Y-85101250D01*
X42873000Y-84177000D01*
X41823750Y-84177000D01*
X41665000Y-84335750D01*
X41665000Y-84751309D01*
X41745028Y-84944514D01*
X40759998Y-83959484D01*
X40759998Y-80905510D01*
X41652560Y-81798073D01*
X41652560Y-81798073D01*
G37*
X41652560Y-81798073D02*
X41652560Y-82325001D01*
X41720873Y-82668436D01*
X41915414Y-82959586D01*
X41916597Y-82960377D01*
X41761673Y-83115302D01*
X41665000Y-83348691D01*
X41665000Y-83764250D01*
X41823750Y-83923000D01*
X42873000Y-83923000D01*
X42873000Y-83903000D01*
X43127000Y-83903000D01*
X43127000Y-83923000D01*
X43147000Y-83923000D01*
X43147000Y-84177000D01*
X43127000Y-84177000D01*
X43127000Y-85101250D01*
X43285750Y-85260000D01*
X43826310Y-85260000D01*
X44059699Y-85163327D01*
X44109053Y-85113972D01*
X44206564Y-85179127D01*
X44549999Y-85247440D01*
X45147639Y-85247440D01*
X46327129Y-86426931D01*
X46533914Y-86926153D01*
X46993847Y-87386086D01*
X47594778Y-87635000D01*
X48245222Y-87635000D01*
X48846153Y-87386086D01*
X49265001Y-86967238D01*
X49265001Y-94532762D01*
X48846153Y-94113914D01*
X48245222Y-93865000D01*
X47594778Y-93865000D01*
X47478625Y-93913112D01*
X46310000Y-92744488D01*
X46310000Y-92668059D01*
X46584586Y-92484586D01*
X46779127Y-92193436D01*
X46847440Y-91850001D01*
X46847440Y-91199999D01*
X46779127Y-90856564D01*
X46584586Y-90565414D01*
X46486687Y-90500000D01*
X46584586Y-90434586D01*
X46779127Y-90143436D01*
X46847440Y-89800001D01*
X46847440Y-89149999D01*
X46779127Y-88806564D01*
X46584586Y-88515414D01*
X46293436Y-88320873D01*
X45950001Y-88252560D01*
X45049999Y-88252560D01*
X44706564Y-88320873D01*
X44500000Y-88458895D01*
X44310000Y-88331941D01*
X44310000Y-87924771D01*
X44325868Y-87844998D01*
X44284097Y-87635000D01*
X44263003Y-87528952D01*
X44083977Y-87261021D01*
X44016347Y-87215833D01*
X41980487Y-85179973D01*
X42173690Y-85260000D01*
X42714250Y-85260000D01*
X42873000Y-85101250D01*
X42873000Y-84177000D01*
X41823750Y-84177000D01*
X41665000Y-84335750D01*
X41665000Y-84751309D01*
X41745028Y-84944514D01*
X40759998Y-83959484D01*
X40759998Y-80905510D01*
X41652560Y-81798073D01*
G36*
X33065022Y-82740221D02*
X33049153Y-82820000D01*
X33065021Y-82899774D01*
X33065022Y-84634463D01*
X29983656Y-87715830D01*
X29916023Y-87761021D01*
X29736997Y-88028953D01*
X29710723Y-88161044D01*
X29674695Y-88342167D01*
X29518707Y-88446395D01*
X29293436Y-88295873D01*
X28950001Y-88227560D01*
X28049999Y-88227560D01*
X27706564Y-88295873D01*
X27415414Y-88490414D01*
X27220873Y-88781564D01*
X27152560Y-89124999D01*
X27152560Y-89775001D01*
X27220873Y-90118436D01*
X27415414Y-90409586D01*
X27513313Y-90475000D01*
X27415414Y-90540414D01*
X27220873Y-90831564D01*
X27152560Y-91174999D01*
X27152560Y-91701927D01*
X26063656Y-92790832D01*
X25996023Y-92836023D01*
X25816997Y-93103955D01*
X25771528Y-93332544D01*
X25754132Y-93420000D01*
X25770000Y-93499773D01*
X25770000Y-94065802D01*
X25735000Y-94080299D01*
X25735000Y-87419701D01*
X26254778Y-87635000D01*
X26905222Y-87635000D01*
X27506153Y-87386086D01*
X27966086Y-86926153D01*
X28215000Y-86325222D01*
X28215000Y-85674778D01*
X28146177Y-85508625D01*
X28568156Y-85086646D01*
X28706564Y-85179127D01*
X29049999Y-85247440D01*
X29950001Y-85247440D01*
X30293436Y-85179127D01*
X30405933Y-85103959D01*
X30440301Y-85138327D01*
X30673690Y-85235000D01*
X31214250Y-85235000D01*
X31373000Y-85076250D01*
X31373000Y-84152000D01*
X31627000Y-84152000D01*
X31627000Y-85076250D01*
X31785750Y-85235000D01*
X32326310Y-85235000D01*
X32559699Y-85138327D01*
X32738327Y-84959698D01*
X32835000Y-84726309D01*
X32835000Y-84310750D01*
X32676250Y-84152000D01*
X31627000Y-84152000D01*
X31373000Y-84152000D01*
X31353000Y-84152000D01*
X31353000Y-83898000D01*
X31373000Y-83898000D01*
X31373000Y-83878000D01*
X31627000Y-83878000D01*
X31627000Y-83898000D01*
X32676250Y-83898000D01*
X32835000Y-83739250D01*
X32835000Y-83323691D01*
X32738327Y-83090302D01*
X32583403Y-82935377D01*
X32584586Y-82934586D01*
X32779127Y-82643436D01*
X32847440Y-82300001D01*
X32847440Y-81773072D01*
X33065022Y-81555490D01*
X33065022Y-82740221D01*
X33065022Y-82740221D01*
G37*
X33065022Y-82740221D02*
X33049153Y-82820000D01*
X33065021Y-82899774D01*
X33065022Y-84634463D01*
X29983656Y-87715830D01*
X29916023Y-87761021D01*
X29736997Y-88028953D01*
X29710723Y-88161044D01*
X29674695Y-88342167D01*
X29518707Y-88446395D01*
X29293436Y-88295873D01*
X28950001Y-88227560D01*
X28049999Y-88227560D01*
X27706564Y-88295873D01*
X27415414Y-88490414D01*
X27220873Y-88781564D01*
X27152560Y-89124999D01*
X27152560Y-89775001D01*
X27220873Y-90118436D01*
X27415414Y-90409586D01*
X27513313Y-90475000D01*
X27415414Y-90540414D01*
X27220873Y-90831564D01*
X27152560Y-91174999D01*
X27152560Y-91701927D01*
X26063656Y-92790832D01*
X25996023Y-92836023D01*
X25816997Y-93103955D01*
X25771528Y-93332544D01*
X25754132Y-93420000D01*
X25770000Y-93499773D01*
X25770000Y-94065802D01*
X25735000Y-94080299D01*
X25735000Y-87419701D01*
X26254778Y-87635000D01*
X26905222Y-87635000D01*
X27506153Y-87386086D01*
X27966086Y-86926153D01*
X28215000Y-86325222D01*
X28215000Y-85674778D01*
X28146177Y-85508625D01*
X28568156Y-85086646D01*
X28706564Y-85179127D01*
X29049999Y-85247440D01*
X29950001Y-85247440D01*
X30293436Y-85179127D01*
X30405933Y-85103959D01*
X30440301Y-85138327D01*
X30673690Y-85235000D01*
X31214250Y-85235000D01*
X31373000Y-85076250D01*
X31373000Y-84152000D01*
X31627000Y-84152000D01*
X31627000Y-85076250D01*
X31785750Y-85235000D01*
X32326310Y-85235000D01*
X32559699Y-85138327D01*
X32738327Y-84959698D01*
X32835000Y-84726309D01*
X32835000Y-84310750D01*
X32676250Y-84152000D01*
X31627000Y-84152000D01*
X31373000Y-84152000D01*
X31353000Y-84152000D01*
X31353000Y-83898000D01*
X31373000Y-83898000D01*
X31373000Y-83878000D01*
X31627000Y-83878000D01*
X31627000Y-83898000D01*
X32676250Y-83898000D01*
X32835000Y-83739250D01*
X32835000Y-83323691D01*
X32738327Y-83090302D01*
X32583403Y-82935377D01*
X32584586Y-82934586D01*
X32779127Y-82643436D01*
X32847440Y-82300001D01*
X32847440Y-81773072D01*
X33065022Y-81555490D01*
X33065022Y-82740221D01*
G36*
X49265001Y-85032762D02*
X48846153Y-84613914D01*
X48245222Y-84365000D01*
X47594778Y-84365000D01*
X46993847Y-84613914D01*
X46828781Y-84778980D01*
X46347440Y-84297639D01*
X46347440Y-83699999D01*
X46279127Y-83356564D01*
X46084586Y-83065414D01*
X45986687Y-83000000D01*
X46084586Y-82934586D01*
X46279127Y-82643436D01*
X46347440Y-82300001D01*
X46347440Y-81649999D01*
X46279127Y-81306564D01*
X46084586Y-81015414D01*
X45793436Y-80820873D01*
X45450001Y-80752560D01*
X44549999Y-80752560D01*
X44206564Y-80820873D01*
X43981293Y-80971395D01*
X43818331Y-80862508D01*
X43869507Y-80841310D01*
X44301310Y-80409507D01*
X44346669Y-80300000D01*
X45910153Y-80300000D01*
X45985000Y-80314888D01*
X46059847Y-80300000D01*
X46059852Y-80300000D01*
X46281537Y-80255904D01*
X46532929Y-80087929D01*
X46575331Y-80024470D01*
X46852361Y-79747440D01*
X47450001Y-79747440D01*
X47793436Y-79679127D01*
X48084586Y-79484586D01*
X48279127Y-79193436D01*
X48347440Y-78850001D01*
X48347440Y-78199999D01*
X48279127Y-77856564D01*
X48084586Y-77565414D01*
X48083403Y-77564623D01*
X48238327Y-77409698D01*
X48335000Y-77176309D01*
X48335000Y-76760750D01*
X48176250Y-76602000D01*
X47127000Y-76602000D01*
X47127000Y-76622000D01*
X46873000Y-76622000D01*
X46873000Y-76602000D01*
X45823750Y-76602000D01*
X45665000Y-76760750D01*
X45665000Y-77176309D01*
X45761673Y-77409698D01*
X45916597Y-77564623D01*
X45915414Y-77565414D01*
X45720873Y-77856564D01*
X45652560Y-78199999D01*
X45652560Y-78780000D01*
X44346669Y-78780000D01*
X44301310Y-78670493D01*
X44132092Y-78501275D01*
X44147765Y-78498157D01*
X44357809Y-78357809D01*
X44498157Y-78147765D01*
X44547440Y-77900000D01*
X44547440Y-76100000D01*
X44498157Y-75852235D01*
X44445676Y-75773691D01*
X45665000Y-75773691D01*
X45665000Y-76189250D01*
X45823750Y-76348000D01*
X46873000Y-76348000D01*
X46873000Y-75423750D01*
X47127000Y-75423750D01*
X47127000Y-76348000D01*
X48176250Y-76348000D01*
X48335000Y-76189250D01*
X48335000Y-75773691D01*
X48238327Y-75540302D01*
X48059699Y-75361673D01*
X47826310Y-75265000D01*
X47285750Y-75265000D01*
X47127000Y-75423750D01*
X46873000Y-75423750D01*
X46714250Y-75265000D01*
X46173690Y-75265000D01*
X45940301Y-75361673D01*
X45761673Y-75540302D01*
X45665000Y-75773691D01*
X44445676Y-75773691D01*
X44357809Y-75642191D01*
X44147765Y-75501843D01*
X43900000Y-75452560D01*
X43810000Y-75452560D01*
X43810000Y-74042239D01*
X44073847Y-74306086D01*
X44674778Y-74555000D01*
X45325222Y-74555000D01*
X45926153Y-74306086D01*
X46386086Y-73846153D01*
X46635000Y-73245222D01*
X46635000Y-72594778D01*
X46566177Y-72428625D01*
X46984476Y-72010327D01*
X47047929Y-71967929D01*
X47090327Y-71904476D01*
X47090329Y-71904474D01*
X47174102Y-71779098D01*
X47215904Y-71716537D01*
X47260000Y-71494852D01*
X47260000Y-71494848D01*
X47274888Y-71420001D01*
X47260000Y-71345154D01*
X47260000Y-59074846D01*
X47274888Y-58999999D01*
X47260000Y-58925152D01*
X47260000Y-58925148D01*
X47215904Y-58703463D01*
X47156795Y-58615000D01*
X47090329Y-58515526D01*
X47090327Y-58515524D01*
X47047929Y-58452071D01*
X46984476Y-58409673D01*
X42339802Y-53765001D01*
X45580228Y-53765001D01*
X45660001Y-53780869D01*
X45739774Y-53765001D01*
X45739775Y-53765001D01*
X45976047Y-53718004D01*
X46243978Y-53538978D01*
X46289169Y-53471345D01*
X47566347Y-52194168D01*
X47633977Y-52148979D01*
X47813003Y-51881048D01*
X47860000Y-51644776D01*
X47860000Y-51644772D01*
X47875867Y-51565003D01*
X47860000Y-51485233D01*
X47860000Y-37509774D01*
X47875868Y-37430000D01*
X47813003Y-37113953D01*
X47679165Y-36913652D01*
X47633977Y-36846023D01*
X47566347Y-36800834D01*
X46586888Y-35821375D01*
X46635000Y-35705222D01*
X46635000Y-35054778D01*
X46386086Y-34453847D01*
X45926153Y-33993914D01*
X45325222Y-33745000D01*
X44674778Y-33745000D01*
X44073847Y-33993914D01*
X43613914Y-34453847D01*
X43365000Y-35054778D01*
X43365000Y-35705222D01*
X43613914Y-36306153D01*
X44073847Y-36766086D01*
X44196492Y-36816887D01*
X45000000Y-37620395D01*
X45014143Y-37606253D01*
X45193748Y-37785858D01*
X45179605Y-37800000D01*
X46080159Y-38700554D01*
X46240000Y-38646706D01*
X46240000Y-39047761D01*
X45926153Y-38733914D01*
X45803508Y-38683113D01*
X45000000Y-37879605D01*
X44196492Y-38683113D01*
X44073847Y-38733914D01*
X43613914Y-39193847D01*
X43365000Y-39794778D01*
X43365000Y-40445222D01*
X43613914Y-41046153D01*
X44073847Y-41506086D01*
X44674778Y-41755000D01*
X45325222Y-41755000D01*
X45926153Y-41506086D01*
X46240000Y-41192239D01*
X46240001Y-47347762D01*
X45926153Y-47033914D01*
X45810000Y-46985802D01*
X45810000Y-43579772D01*
X45825868Y-43499999D01*
X45789277Y-43316046D01*
X45763003Y-43183954D01*
X45583977Y-42916023D01*
X45516347Y-42870834D01*
X44449168Y-41803656D01*
X44403977Y-41736023D01*
X44136046Y-41556997D01*
X43899774Y-41510000D01*
X43899773Y-41510000D01*
X43820000Y-41494132D01*
X43740227Y-41510000D01*
X38744769Y-41510000D01*
X38570625Y-41249375D01*
X38272239Y-41050000D01*
X38570625Y-40850625D01*
X38898839Y-40359418D01*
X39014092Y-39780000D01*
X38898839Y-39200582D01*
X38570625Y-38709375D01*
X38272239Y-38510000D01*
X38570625Y-38310625D01*
X38898839Y-37819418D01*
X38970463Y-37459336D01*
X43453542Y-37459336D01*
X43457309Y-37549041D01*
X43453542Y-37559336D01*
X43479161Y-38169460D01*
X43663357Y-38614148D01*
X43919841Y-38700554D01*
X44820395Y-37800000D01*
X44770395Y-37750000D01*
X44820395Y-37700000D01*
X43919841Y-36799446D01*
X43663357Y-36885852D01*
X43453542Y-37459336D01*
X38970463Y-37459336D01*
X39014092Y-37240000D01*
X38952941Y-36932571D01*
X45516347Y-30369166D01*
X45583977Y-30323977D01*
X45671673Y-30192730D01*
X45763003Y-30056047D01*
X45825868Y-29740000D01*
X45810000Y-29660226D01*
X45810000Y-28514198D01*
X45926153Y-28466086D01*
X46386086Y-28006153D01*
X46635000Y-27405222D01*
X46635000Y-26754778D01*
X46386086Y-26153847D01*
X45926153Y-25693914D01*
X45572534Y-25547440D01*
X45900000Y-25547440D01*
X46147765Y-25498157D01*
X46357809Y-25357809D01*
X46498157Y-25147765D01*
X46547440Y-24900000D01*
X46547440Y-23100000D01*
X46498157Y-22852235D01*
X46357809Y-22642191D01*
X46147765Y-22501843D01*
X46132092Y-22498725D01*
X46301310Y-22329507D01*
X46535000Y-21765330D01*
X46535000Y-21154670D01*
X46361167Y-20735000D01*
X49265000Y-20735000D01*
X49265001Y-85032762D01*
X49265001Y-85032762D01*
G37*
X49265001Y-85032762D02*
X48846153Y-84613914D01*
X48245222Y-84365000D01*
X47594778Y-84365000D01*
X46993847Y-84613914D01*
X46828781Y-84778980D01*
X46347440Y-84297639D01*
X46347440Y-83699999D01*
X46279127Y-83356564D01*
X46084586Y-83065414D01*
X45986687Y-83000000D01*
X46084586Y-82934586D01*
X46279127Y-82643436D01*
X46347440Y-82300001D01*
X46347440Y-81649999D01*
X46279127Y-81306564D01*
X46084586Y-81015414D01*
X45793436Y-80820873D01*
X45450001Y-80752560D01*
X44549999Y-80752560D01*
X44206564Y-80820873D01*
X43981293Y-80971395D01*
X43818331Y-80862508D01*
X43869507Y-80841310D01*
X44301310Y-80409507D01*
X44346669Y-80300000D01*
X45910153Y-80300000D01*
X45985000Y-80314888D01*
X46059847Y-80300000D01*
X46059852Y-80300000D01*
X46281537Y-80255904D01*
X46532929Y-80087929D01*
X46575331Y-80024470D01*
X46852361Y-79747440D01*
X47450001Y-79747440D01*
X47793436Y-79679127D01*
X48084586Y-79484586D01*
X48279127Y-79193436D01*
X48347440Y-78850001D01*
X48347440Y-78199999D01*
X48279127Y-77856564D01*
X48084586Y-77565414D01*
X48083403Y-77564623D01*
X48238327Y-77409698D01*
X48335000Y-77176309D01*
X48335000Y-76760750D01*
X48176250Y-76602000D01*
X47127000Y-76602000D01*
X47127000Y-76622000D01*
X46873000Y-76622000D01*
X46873000Y-76602000D01*
X45823750Y-76602000D01*
X45665000Y-76760750D01*
X45665000Y-77176309D01*
X45761673Y-77409698D01*
X45916597Y-77564623D01*
X45915414Y-77565414D01*
X45720873Y-77856564D01*
X45652560Y-78199999D01*
X45652560Y-78780000D01*
X44346669Y-78780000D01*
X44301310Y-78670493D01*
X44132092Y-78501275D01*
X44147765Y-78498157D01*
X44357809Y-78357809D01*
X44498157Y-78147765D01*
X44547440Y-77900000D01*
X44547440Y-76100000D01*
X44498157Y-75852235D01*
X44445676Y-75773691D01*
X45665000Y-75773691D01*
X45665000Y-76189250D01*
X45823750Y-76348000D01*
X46873000Y-76348000D01*
X46873000Y-75423750D01*
X47127000Y-75423750D01*
X47127000Y-76348000D01*
X48176250Y-76348000D01*
X48335000Y-76189250D01*
X48335000Y-75773691D01*
X48238327Y-75540302D01*
X48059699Y-75361673D01*
X47826310Y-75265000D01*
X47285750Y-75265000D01*
X47127000Y-75423750D01*
X46873000Y-75423750D01*
X46714250Y-75265000D01*
X46173690Y-75265000D01*
X45940301Y-75361673D01*
X45761673Y-75540302D01*
X45665000Y-75773691D01*
X44445676Y-75773691D01*
X44357809Y-75642191D01*
X44147765Y-75501843D01*
X43900000Y-75452560D01*
X43810000Y-75452560D01*
X43810000Y-74042239D01*
X44073847Y-74306086D01*
X44674778Y-74555000D01*
X45325222Y-74555000D01*
X45926153Y-74306086D01*
X46386086Y-73846153D01*
X46635000Y-73245222D01*
X46635000Y-72594778D01*
X46566177Y-72428625D01*
X46984476Y-72010327D01*
X47047929Y-71967929D01*
X47090327Y-71904476D01*
X47090329Y-71904474D01*
X47174102Y-71779098D01*
X47215904Y-71716537D01*
X47260000Y-71494852D01*
X47260000Y-71494848D01*
X47274888Y-71420001D01*
X47260000Y-71345154D01*
X47260000Y-59074846D01*
X47274888Y-58999999D01*
X47260000Y-58925152D01*
X47260000Y-58925148D01*
X47215904Y-58703463D01*
X47156795Y-58615000D01*
X47090329Y-58515526D01*
X47090327Y-58515524D01*
X47047929Y-58452071D01*
X46984476Y-58409673D01*
X42339802Y-53765001D01*
X45580228Y-53765001D01*
X45660001Y-53780869D01*
X45739774Y-53765001D01*
X45739775Y-53765001D01*
X45976047Y-53718004D01*
X46243978Y-53538978D01*
X46289169Y-53471345D01*
X47566347Y-52194168D01*
X47633977Y-52148979D01*
X47813003Y-51881048D01*
X47860000Y-51644776D01*
X47860000Y-51644772D01*
X47875867Y-51565003D01*
X47860000Y-51485233D01*
X47860000Y-37509774D01*
X47875868Y-37430000D01*
X47813003Y-37113953D01*
X47679165Y-36913652D01*
X47633977Y-36846023D01*
X47566347Y-36800834D01*
X46586888Y-35821375D01*
X46635000Y-35705222D01*
X46635000Y-35054778D01*
X46386086Y-34453847D01*
X45926153Y-33993914D01*
X45325222Y-33745000D01*
X44674778Y-33745000D01*
X44073847Y-33993914D01*
X43613914Y-34453847D01*
X43365000Y-35054778D01*
X43365000Y-35705222D01*
X43613914Y-36306153D01*
X44073847Y-36766086D01*
X44196492Y-36816887D01*
X45000000Y-37620395D01*
X45014143Y-37606253D01*
X45193748Y-37785858D01*
X45179605Y-37800000D01*
X46080159Y-38700554D01*
X46240000Y-38646706D01*
X46240000Y-39047761D01*
X45926153Y-38733914D01*
X45803508Y-38683113D01*
X45000000Y-37879605D01*
X44196492Y-38683113D01*
X44073847Y-38733914D01*
X43613914Y-39193847D01*
X43365000Y-39794778D01*
X43365000Y-40445222D01*
X43613914Y-41046153D01*
X44073847Y-41506086D01*
X44674778Y-41755000D01*
X45325222Y-41755000D01*
X45926153Y-41506086D01*
X46240000Y-41192239D01*
X46240001Y-47347762D01*
X45926153Y-47033914D01*
X45810000Y-46985802D01*
X45810000Y-43579772D01*
X45825868Y-43499999D01*
X45789277Y-43316046D01*
X45763003Y-43183954D01*
X45583977Y-42916023D01*
X45516347Y-42870834D01*
X44449168Y-41803656D01*
X44403977Y-41736023D01*
X44136046Y-41556997D01*
X43899774Y-41510000D01*
X43899773Y-41510000D01*
X43820000Y-41494132D01*
X43740227Y-41510000D01*
X38744769Y-41510000D01*
X38570625Y-41249375D01*
X38272239Y-41050000D01*
X38570625Y-40850625D01*
X38898839Y-40359418D01*
X39014092Y-39780000D01*
X38898839Y-39200582D01*
X38570625Y-38709375D01*
X38272239Y-38510000D01*
X38570625Y-38310625D01*
X38898839Y-37819418D01*
X38970463Y-37459336D01*
X43453542Y-37459336D01*
X43457309Y-37549041D01*
X43453542Y-37559336D01*
X43479161Y-38169460D01*
X43663357Y-38614148D01*
X43919841Y-38700554D01*
X44820395Y-37800000D01*
X44770395Y-37750000D01*
X44820395Y-37700000D01*
X43919841Y-36799446D01*
X43663357Y-36885852D01*
X43453542Y-37459336D01*
X38970463Y-37459336D01*
X39014092Y-37240000D01*
X38952941Y-36932571D01*
X45516347Y-30369166D01*
X45583977Y-30323977D01*
X45671673Y-30192730D01*
X45763003Y-30056047D01*
X45825868Y-29740000D01*
X45810000Y-29660226D01*
X45810000Y-28514198D01*
X45926153Y-28466086D01*
X46386086Y-28006153D01*
X46635000Y-27405222D01*
X46635000Y-26754778D01*
X46386086Y-26153847D01*
X45926153Y-25693914D01*
X45572534Y-25547440D01*
X45900000Y-25547440D01*
X46147765Y-25498157D01*
X46357809Y-25357809D01*
X46498157Y-25147765D01*
X46547440Y-24900000D01*
X46547440Y-23100000D01*
X46498157Y-22852235D01*
X46357809Y-22642191D01*
X46147765Y-22501843D01*
X46132092Y-22498725D01*
X46301310Y-22329507D01*
X46535000Y-21765330D01*
X46535000Y-21154670D01*
X46361167Y-20735000D01*
X49265000Y-20735000D01*
X49265001Y-85032762D01*
G36*
X28465000Y-21154670D02*
X28465000Y-21765330D01*
X28698690Y-22329507D01*
X28867908Y-22498725D01*
X28852235Y-22501843D01*
X28642191Y-22642191D01*
X28501843Y-22852235D01*
X28452560Y-23100000D01*
X28452560Y-24900000D01*
X28501843Y-25147765D01*
X28642191Y-25357809D01*
X28852235Y-25498157D01*
X29100000Y-25547440D01*
X29427466Y-25547440D01*
X29073847Y-25693914D01*
X28613914Y-26153847D01*
X28365000Y-26754778D01*
X28365000Y-27405222D01*
X28613914Y-28006153D01*
X29073847Y-28466086D01*
X29674778Y-28715000D01*
X30325222Y-28715000D01*
X30356523Y-28702035D01*
X36047059Y-34392572D01*
X35985908Y-34700000D01*
X36101161Y-35279418D01*
X36429375Y-35770625D01*
X36727761Y-35970000D01*
X36429375Y-36169375D01*
X36101161Y-36660582D01*
X35985908Y-37240000D01*
X36101161Y-37819418D01*
X36429375Y-38310625D01*
X36727761Y-38510000D01*
X36429375Y-38709375D01*
X36221822Y-39020000D01*
X33540540Y-39020000D01*
X33536046Y-39016997D01*
X33220000Y-38954132D01*
X32903953Y-39016997D01*
X32703652Y-39150835D01*
X31635000Y-40219487D01*
X31635000Y-39794778D01*
X31386086Y-39193847D01*
X30926153Y-38733914D01*
X30803508Y-38683113D01*
X30000000Y-37879605D01*
X29196492Y-38683113D01*
X29073847Y-38733914D01*
X28613914Y-39193847D01*
X28365000Y-39794778D01*
X28365000Y-40445222D01*
X28613914Y-41046153D01*
X29073847Y-41506086D01*
X29674778Y-41755000D01*
X30099488Y-41755000D01*
X29483656Y-42370832D01*
X29416023Y-42416023D01*
X29236997Y-42683955D01*
X29206685Y-42836347D01*
X29174132Y-43000000D01*
X29190000Y-43079773D01*
X29190001Y-46985802D01*
X29073847Y-47033914D01*
X28613914Y-47493847D01*
X28365000Y-48094778D01*
X28365000Y-48745222D01*
X28613914Y-49346153D01*
X29073847Y-49806086D01*
X29541996Y-50000000D01*
X29073847Y-50193914D01*
X28613914Y-50653847D01*
X28365000Y-51254778D01*
X28365000Y-51905222D01*
X28613914Y-52506153D01*
X29073847Y-52966086D01*
X29674778Y-53215000D01*
X30325222Y-53215000D01*
X30926153Y-52966086D01*
X31386086Y-52506153D01*
X31635000Y-51905222D01*
X31635000Y-51870512D01*
X36005752Y-47499761D01*
X36101161Y-47979418D01*
X36429375Y-48470625D01*
X36727761Y-48670000D01*
X36429375Y-48869375D01*
X36101161Y-49360582D01*
X35985908Y-49940000D01*
X36047059Y-50247428D01*
X28108655Y-58185833D01*
X28041022Y-58231024D01*
X27861996Y-58498956D01*
X27838914Y-58615000D01*
X27799131Y-58815001D01*
X27814999Y-58894774D01*
X27815000Y-71465221D01*
X27799131Y-71544999D01*
X27833253Y-71716538D01*
X27861997Y-71861045D01*
X28041023Y-72128976D01*
X28108653Y-72174165D01*
X28413112Y-72478624D01*
X28365000Y-72594778D01*
X28365000Y-73245222D01*
X28613914Y-73846153D01*
X29073847Y-74306086D01*
X29674778Y-74555000D01*
X30325222Y-74555000D01*
X30690001Y-74403904D01*
X30690001Y-75452560D01*
X30600000Y-75452560D01*
X30352235Y-75501843D01*
X30142191Y-75642191D01*
X30001843Y-75852235D01*
X29952560Y-76100000D01*
X29952560Y-77900000D01*
X30001843Y-78147765D01*
X30142191Y-78357809D01*
X30352235Y-78498157D01*
X30367908Y-78501275D01*
X30198690Y-78670493D01*
X30174041Y-78730000D01*
X28847440Y-78730000D01*
X28847440Y-78699999D01*
X28779127Y-78356564D01*
X28584586Y-78065414D01*
X28583403Y-78064623D01*
X28738327Y-77909698D01*
X28835000Y-77676309D01*
X28835000Y-77260750D01*
X28676250Y-77102000D01*
X27627000Y-77102000D01*
X27627000Y-77122000D01*
X27373000Y-77122000D01*
X27373000Y-77102000D01*
X26323750Y-77102000D01*
X26165000Y-77260750D01*
X26165000Y-77676309D01*
X26261673Y-77909698D01*
X26416597Y-78064623D01*
X26415414Y-78065414D01*
X26220873Y-78356564D01*
X26152560Y-78699999D01*
X26152560Y-79350001D01*
X26220873Y-79693436D01*
X26415414Y-79984586D01*
X26706564Y-80179127D01*
X27049999Y-80247440D01*
X27615798Y-80247440D01*
X27698954Y-80303003D01*
X27935226Y-80350000D01*
X27935227Y-80350000D01*
X28015000Y-80365868D01*
X28094773Y-80350000D01*
X30174041Y-80350000D01*
X30198690Y-80409507D01*
X30630493Y-80841310D01*
X30658572Y-80852941D01*
X30500000Y-80958895D01*
X30293436Y-80820873D01*
X29950001Y-80752560D01*
X29049999Y-80752560D01*
X28706564Y-80820873D01*
X28415414Y-81015414D01*
X28220873Y-81306564D01*
X28152560Y-81649999D01*
X28152560Y-82300001D01*
X28220873Y-82643436D01*
X28415414Y-82934586D01*
X28513313Y-83000000D01*
X28415414Y-83065414D01*
X28247854Y-83316184D01*
X28187422Y-83356564D01*
X28007071Y-83477071D01*
X27964671Y-83540527D01*
X27071375Y-84433823D01*
X26905222Y-84365000D01*
X26254778Y-84365000D01*
X25735000Y-84580299D01*
X25735000Y-76273691D01*
X26165000Y-76273691D01*
X26165000Y-76689250D01*
X26323750Y-76848000D01*
X27373000Y-76848000D01*
X27373000Y-75923750D01*
X27627000Y-75923750D01*
X27627000Y-76848000D01*
X28676250Y-76848000D01*
X28835000Y-76689250D01*
X28835000Y-76273691D01*
X28738327Y-76040302D01*
X28559699Y-75861673D01*
X28326310Y-75765000D01*
X27785750Y-75765000D01*
X27627000Y-75923750D01*
X27373000Y-75923750D01*
X27214250Y-75765000D01*
X26673690Y-75765000D01*
X26440301Y-75861673D01*
X26261673Y-76040302D01*
X26165000Y-76273691D01*
X25735000Y-76273691D01*
X25735000Y-37459336D01*
X28453542Y-37459336D01*
X28457309Y-37549041D01*
X28453542Y-37559336D01*
X28479161Y-38169460D01*
X28663357Y-38614148D01*
X28919841Y-38700554D01*
X29820395Y-37800000D01*
X29770395Y-37750000D01*
X29820395Y-37700000D01*
X30179605Y-37700000D01*
X30229605Y-37750000D01*
X30179605Y-37800000D01*
X31080159Y-38700554D01*
X31336643Y-38614148D01*
X31546458Y-38040664D01*
X31542691Y-37950959D01*
X31546458Y-37940664D01*
X31520839Y-37330540D01*
X31336643Y-36885852D01*
X31080159Y-36799446D01*
X30179605Y-37700000D01*
X29820395Y-37700000D01*
X28919841Y-36799446D01*
X28663357Y-36885852D01*
X28453542Y-37459336D01*
X25735000Y-37459336D01*
X25735000Y-35054778D01*
X28365000Y-35054778D01*
X28365000Y-35705222D01*
X28613914Y-36306153D01*
X29073847Y-36766086D01*
X29196492Y-36816887D01*
X30000000Y-37620395D01*
X30803508Y-36816887D01*
X30926153Y-36766086D01*
X31386086Y-36306153D01*
X31635000Y-35705222D01*
X31635000Y-35054778D01*
X31386086Y-34453847D01*
X30926153Y-33993914D01*
X30325222Y-33745000D01*
X29674778Y-33745000D01*
X29073847Y-33993914D01*
X28613914Y-34453847D01*
X28365000Y-35054778D01*
X25735000Y-35054778D01*
X25735000Y-20735000D01*
X28638833Y-20735000D01*
X28465000Y-21154670D01*
X28465000Y-21154670D01*
G37*
X28465000Y-21154670D02*
X28465000Y-21765330D01*
X28698690Y-22329507D01*
X28867908Y-22498725D01*
X28852235Y-22501843D01*
X28642191Y-22642191D01*
X28501843Y-22852235D01*
X28452560Y-23100000D01*
X28452560Y-24900000D01*
X28501843Y-25147765D01*
X28642191Y-25357809D01*
X28852235Y-25498157D01*
X29100000Y-25547440D01*
X29427466Y-25547440D01*
X29073847Y-25693914D01*
X28613914Y-26153847D01*
X28365000Y-26754778D01*
X28365000Y-27405222D01*
X28613914Y-28006153D01*
X29073847Y-28466086D01*
X29674778Y-28715000D01*
X30325222Y-28715000D01*
X30356523Y-28702035D01*
X36047059Y-34392572D01*
X35985908Y-34700000D01*
X36101161Y-35279418D01*
X36429375Y-35770625D01*
X36727761Y-35970000D01*
X36429375Y-36169375D01*
X36101161Y-36660582D01*
X35985908Y-37240000D01*
X36101161Y-37819418D01*
X36429375Y-38310625D01*
X36727761Y-38510000D01*
X36429375Y-38709375D01*
X36221822Y-39020000D01*
X33540540Y-39020000D01*
X33536046Y-39016997D01*
X33220000Y-38954132D01*
X32903953Y-39016997D01*
X32703652Y-39150835D01*
X31635000Y-40219487D01*
X31635000Y-39794778D01*
X31386086Y-39193847D01*
X30926153Y-38733914D01*
X30803508Y-38683113D01*
X30000000Y-37879605D01*
X29196492Y-38683113D01*
X29073847Y-38733914D01*
X28613914Y-39193847D01*
X28365000Y-39794778D01*
X28365000Y-40445222D01*
X28613914Y-41046153D01*
X29073847Y-41506086D01*
X29674778Y-41755000D01*
X30099488Y-41755000D01*
X29483656Y-42370832D01*
X29416023Y-42416023D01*
X29236997Y-42683955D01*
X29206685Y-42836347D01*
X29174132Y-43000000D01*
X29190000Y-43079773D01*
X29190001Y-46985802D01*
X29073847Y-47033914D01*
X28613914Y-47493847D01*
X28365000Y-48094778D01*
X28365000Y-48745222D01*
X28613914Y-49346153D01*
X29073847Y-49806086D01*
X29541996Y-50000000D01*
X29073847Y-50193914D01*
X28613914Y-50653847D01*
X28365000Y-51254778D01*
X28365000Y-51905222D01*
X28613914Y-52506153D01*
X29073847Y-52966086D01*
X29674778Y-53215000D01*
X30325222Y-53215000D01*
X30926153Y-52966086D01*
X31386086Y-52506153D01*
X31635000Y-51905222D01*
X31635000Y-51870512D01*
X36005752Y-47499761D01*
X36101161Y-47979418D01*
X36429375Y-48470625D01*
X36727761Y-48670000D01*
X36429375Y-48869375D01*
X36101161Y-49360582D01*
X35985908Y-49940000D01*
X36047059Y-50247428D01*
X28108655Y-58185833D01*
X28041022Y-58231024D01*
X27861996Y-58498956D01*
X27838914Y-58615000D01*
X27799131Y-58815001D01*
X27814999Y-58894774D01*
X27815000Y-71465221D01*
X27799131Y-71544999D01*
X27833253Y-71716538D01*
X27861997Y-71861045D01*
X28041023Y-72128976D01*
X28108653Y-72174165D01*
X28413112Y-72478624D01*
X28365000Y-72594778D01*
X28365000Y-73245222D01*
X28613914Y-73846153D01*
X29073847Y-74306086D01*
X29674778Y-74555000D01*
X30325222Y-74555000D01*
X30690001Y-74403904D01*
X30690001Y-75452560D01*
X30600000Y-75452560D01*
X30352235Y-75501843D01*
X30142191Y-75642191D01*
X30001843Y-75852235D01*
X29952560Y-76100000D01*
X29952560Y-77900000D01*
X30001843Y-78147765D01*
X30142191Y-78357809D01*
X30352235Y-78498157D01*
X30367908Y-78501275D01*
X30198690Y-78670493D01*
X30174041Y-78730000D01*
X28847440Y-78730000D01*
X28847440Y-78699999D01*
X28779127Y-78356564D01*
X28584586Y-78065414D01*
X28583403Y-78064623D01*
X28738327Y-77909698D01*
X28835000Y-77676309D01*
X28835000Y-77260750D01*
X28676250Y-77102000D01*
X27627000Y-77102000D01*
X27627000Y-77122000D01*
X27373000Y-77122000D01*
X27373000Y-77102000D01*
X26323750Y-77102000D01*
X26165000Y-77260750D01*
X26165000Y-77676309D01*
X26261673Y-77909698D01*
X26416597Y-78064623D01*
X26415414Y-78065414D01*
X26220873Y-78356564D01*
X26152560Y-78699999D01*
X26152560Y-79350001D01*
X26220873Y-79693436D01*
X26415414Y-79984586D01*
X26706564Y-80179127D01*
X27049999Y-80247440D01*
X27615798Y-80247440D01*
X27698954Y-80303003D01*
X27935226Y-80350000D01*
X27935227Y-80350000D01*
X28015000Y-80365868D01*
X28094773Y-80350000D01*
X30174041Y-80350000D01*
X30198690Y-80409507D01*
X30630493Y-80841310D01*
X30658572Y-80852941D01*
X30500000Y-80958895D01*
X30293436Y-80820873D01*
X29950001Y-80752560D01*
X29049999Y-80752560D01*
X28706564Y-80820873D01*
X28415414Y-81015414D01*
X28220873Y-81306564D01*
X28152560Y-81649999D01*
X28152560Y-82300001D01*
X28220873Y-82643436D01*
X28415414Y-82934586D01*
X28513313Y-83000000D01*
X28415414Y-83065414D01*
X28247854Y-83316184D01*
X28187422Y-83356564D01*
X28007071Y-83477071D01*
X27964671Y-83540527D01*
X27071375Y-84433823D01*
X26905222Y-84365000D01*
X26254778Y-84365000D01*
X25735000Y-84580299D01*
X25735000Y-76273691D01*
X26165000Y-76273691D01*
X26165000Y-76689250D01*
X26323750Y-76848000D01*
X27373000Y-76848000D01*
X27373000Y-75923750D01*
X27627000Y-75923750D01*
X27627000Y-76848000D01*
X28676250Y-76848000D01*
X28835000Y-76689250D01*
X28835000Y-76273691D01*
X28738327Y-76040302D01*
X28559699Y-75861673D01*
X28326310Y-75765000D01*
X27785750Y-75765000D01*
X27627000Y-75923750D01*
X27373000Y-75923750D01*
X27214250Y-75765000D01*
X26673690Y-75765000D01*
X26440301Y-75861673D01*
X26261673Y-76040302D01*
X26165000Y-76273691D01*
X25735000Y-76273691D01*
X25735000Y-37459336D01*
X28453542Y-37459336D01*
X28457309Y-37549041D01*
X28453542Y-37559336D01*
X28479161Y-38169460D01*
X28663357Y-38614148D01*
X28919841Y-38700554D01*
X29820395Y-37800000D01*
X29770395Y-37750000D01*
X29820395Y-37700000D01*
X30179605Y-37700000D01*
X30229605Y-37750000D01*
X30179605Y-37800000D01*
X31080159Y-38700554D01*
X31336643Y-38614148D01*
X31546458Y-38040664D01*
X31542691Y-37950959D01*
X31546458Y-37940664D01*
X31520839Y-37330540D01*
X31336643Y-36885852D01*
X31080159Y-36799446D01*
X30179605Y-37700000D01*
X29820395Y-37700000D01*
X28919841Y-36799446D01*
X28663357Y-36885852D01*
X28453542Y-37459336D01*
X25735000Y-37459336D01*
X25735000Y-35054778D01*
X28365000Y-35054778D01*
X28365000Y-35705222D01*
X28613914Y-36306153D01*
X29073847Y-36766086D01*
X29196492Y-36816887D01*
X30000000Y-37620395D01*
X30803508Y-36816887D01*
X30926153Y-36766086D01*
X31386086Y-36306153D01*
X31635000Y-35705222D01*
X31635000Y-35054778D01*
X31386086Y-34453847D01*
X30926153Y-33993914D01*
X30325222Y-33745000D01*
X29674778Y-33745000D01*
X29073847Y-33993914D01*
X28613914Y-34453847D01*
X28365000Y-35054778D01*
X25735000Y-35054778D01*
X25735000Y-20735000D01*
X28638833Y-20735000D01*
X28465000Y-21154670D01*
G36*
X36101161Y-73379418D02*
X36429375Y-73870625D01*
X36748478Y-74083843D01*
X36618642Y-74144817D01*
X36228355Y-74573076D01*
X36058524Y-74983110D01*
X36179845Y-75213000D01*
X37373000Y-75213000D01*
X37373000Y-75193000D01*
X37627000Y-75193000D01*
X37627000Y-75213000D01*
X37647000Y-75213000D01*
X37647000Y-75467000D01*
X37627000Y-75467000D01*
X37627000Y-76660819D01*
X37856892Y-76781486D01*
X38381358Y-76535183D01*
X38771645Y-76106924D01*
X38941476Y-75696890D01*
X38820156Y-75467002D01*
X38985000Y-75467002D01*
X38985000Y-75430513D01*
X39139998Y-75585511D01*
X39139999Y-84215218D01*
X39124130Y-84294996D01*
X39139928Y-84374415D01*
X37069168Y-82303656D01*
X37023977Y-82236023D01*
X36756046Y-82056997D01*
X36519774Y-82010000D01*
X36519773Y-82010000D01*
X36440000Y-81994132D01*
X36360227Y-82010000D01*
X34685021Y-82010000D01*
X34685021Y-75696890D01*
X36058524Y-75696890D01*
X36228355Y-76106924D01*
X36618642Y-76535183D01*
X37143108Y-76781486D01*
X37373000Y-76660819D01*
X37373000Y-75467000D01*
X36179845Y-75467000D01*
X36058524Y-75696890D01*
X34685021Y-75696890D01*
X34685021Y-74220491D01*
X36005752Y-72899761D01*
X36101161Y-73379418D01*
X36101161Y-73379418D01*
G37*
X36101161Y-73379418D02*
X36429375Y-73870625D01*
X36748478Y-74083843D01*
X36618642Y-74144817D01*
X36228355Y-74573076D01*
X36058524Y-74983110D01*
X36179845Y-75213000D01*
X37373000Y-75213000D01*
X37373000Y-75193000D01*
X37627000Y-75193000D01*
X37627000Y-75213000D01*
X37647000Y-75213000D01*
X37647000Y-75467000D01*
X37627000Y-75467000D01*
X37627000Y-76660819D01*
X37856892Y-76781486D01*
X38381358Y-76535183D01*
X38771645Y-76106924D01*
X38941476Y-75696890D01*
X38820156Y-75467002D01*
X38985000Y-75467002D01*
X38985000Y-75430513D01*
X39139998Y-75585511D01*
X39139999Y-84215218D01*
X39124130Y-84294996D01*
X39139928Y-84374415D01*
X37069168Y-82303656D01*
X37023977Y-82236023D01*
X36756046Y-82056997D01*
X36519774Y-82010000D01*
X36519773Y-82010000D01*
X36440000Y-81994132D01*
X36360227Y-82010000D01*
X34685021Y-82010000D01*
X34685021Y-75696890D01*
X36058524Y-75696890D01*
X36228355Y-76106924D01*
X36618642Y-76535183D01*
X37143108Y-76781486D01*
X37373000Y-76660819D01*
X37373000Y-75467000D01*
X36179845Y-75467000D01*
X36058524Y-75696890D01*
X34685021Y-75696890D01*
X34685021Y-74220491D01*
X36005752Y-72899761D01*
X36101161Y-73379418D01*
G36*
X44671539Y-58246342D02*
X44073847Y-58493914D01*
X43613914Y-58953847D01*
X43365000Y-59554778D01*
X43365000Y-60205222D01*
X43613914Y-60806153D01*
X44073847Y-61266086D01*
X44196492Y-61316887D01*
X45000000Y-62120395D01*
X45014143Y-62106253D01*
X45157890Y-62250000D01*
X45014143Y-62393748D01*
X45000000Y-62379605D01*
X44196492Y-63183113D01*
X44073847Y-63233914D01*
X43613914Y-63693847D01*
X43365000Y-64294778D01*
X43365000Y-64819487D01*
X40504849Y-61959336D01*
X43453542Y-61959336D01*
X43457309Y-62049041D01*
X43453542Y-62059336D01*
X43479161Y-62669460D01*
X43663357Y-63114148D01*
X43919841Y-63200554D01*
X44820395Y-62300000D01*
X44770395Y-62250000D01*
X44820395Y-62200000D01*
X43919841Y-61299446D01*
X43663357Y-61385852D01*
X43453542Y-61959336D01*
X40504849Y-61959336D01*
X38952941Y-60407429D01*
X39014092Y-60100000D01*
X38898839Y-59520582D01*
X38570625Y-59029375D01*
X38272239Y-58830000D01*
X38570625Y-58630625D01*
X38898839Y-58139418D01*
X39014092Y-57560000D01*
X38898839Y-56980582D01*
X38570625Y-56489375D01*
X38272239Y-56290000D01*
X38570625Y-56090625D01*
X38898839Y-55599418D01*
X39014092Y-55020000D01*
X38898839Y-54440582D01*
X38664587Y-54089999D01*
X40515198Y-54089999D01*
X44671539Y-58246342D01*
X44671539Y-58246342D01*
G37*
X44671539Y-58246342D02*
X44073847Y-58493914D01*
X43613914Y-58953847D01*
X43365000Y-59554778D01*
X43365000Y-60205222D01*
X43613914Y-60806153D01*
X44073847Y-61266086D01*
X44196492Y-61316887D01*
X45000000Y-62120395D01*
X45014143Y-62106253D01*
X45157890Y-62250000D01*
X45014143Y-62393748D01*
X45000000Y-62379605D01*
X44196492Y-63183113D01*
X44073847Y-63233914D01*
X43613914Y-63693847D01*
X43365000Y-64294778D01*
X43365000Y-64819487D01*
X40504849Y-61959336D01*
X43453542Y-61959336D01*
X43457309Y-62049041D01*
X43453542Y-62059336D01*
X43479161Y-62669460D01*
X43663357Y-63114148D01*
X43919841Y-63200554D01*
X44820395Y-62300000D01*
X44770395Y-62250000D01*
X44820395Y-62200000D01*
X43919841Y-61299446D01*
X43663357Y-61385852D01*
X43453542Y-61959336D01*
X40504849Y-61959336D01*
X38952941Y-60407429D01*
X39014092Y-60100000D01*
X38898839Y-59520582D01*
X38570625Y-59029375D01*
X38272239Y-58830000D01*
X38570625Y-58630625D01*
X38898839Y-58139418D01*
X39014092Y-57560000D01*
X38898839Y-56980582D01*
X38570625Y-56489375D01*
X38272239Y-56290000D01*
X38570625Y-56090625D01*
X38898839Y-55599418D01*
X39014092Y-55020000D01*
X38898839Y-54440582D01*
X38664587Y-54089999D01*
X40515198Y-54089999D01*
X44671539Y-58246342D01*
G36*
X30157890Y-62250000D02*
X30014143Y-62393748D01*
X30000000Y-62379605D01*
X29985858Y-62393748D01*
X29842110Y-62250000D01*
X29985858Y-62106253D01*
X30000000Y-62120395D01*
X30014143Y-62106253D01*
X30157890Y-62250000D01*
X30157890Y-62250000D01*
G37*
X30157890Y-62250000D02*
X30014143Y-62393748D01*
X30000000Y-62379605D01*
X29985858Y-62393748D01*
X29842110Y-62250000D01*
X29985858Y-62106253D01*
X30000000Y-62120395D01*
X30014143Y-62106253D01*
X30157890Y-62250000D01*
G36*
X32665000Y-20773691D02*
X32665000Y-21189250D01*
X32823750Y-21348000D01*
X33873000Y-21348000D01*
X33873000Y-21328000D01*
X34127000Y-21328000D01*
X34127000Y-21348000D01*
X35176250Y-21348000D01*
X35335000Y-21189250D01*
X35335000Y-20773691D01*
X35318974Y-20735000D01*
X36166974Y-20735000D01*
X36111673Y-20790301D01*
X36015000Y-21023690D01*
X36015000Y-21714250D01*
X36173750Y-21873000D01*
X37373000Y-21873000D01*
X37373000Y-21853000D01*
X37627000Y-21853000D01*
X37627000Y-21873000D01*
X38826250Y-21873000D01*
X38985000Y-21714250D01*
X38985000Y-21023690D01*
X38888327Y-20790301D01*
X38833026Y-20735000D01*
X39681026Y-20735000D01*
X39665000Y-20773691D01*
X39665000Y-21189250D01*
X39823750Y-21348000D01*
X40873000Y-21348000D01*
X40873000Y-21328000D01*
X41127000Y-21328000D01*
X41127000Y-21348000D01*
X41147000Y-21348000D01*
X41147000Y-21602000D01*
X41127000Y-21602000D01*
X41127000Y-21622000D01*
X40873000Y-21622000D01*
X40873000Y-21602000D01*
X39823750Y-21602000D01*
X39665000Y-21760750D01*
X39665000Y-22176309D01*
X39761673Y-22409698D01*
X39916597Y-22564623D01*
X39915414Y-22565414D01*
X39720873Y-22856564D01*
X39717570Y-22873172D01*
X39616023Y-22941023D01*
X39570835Y-23008652D01*
X38983656Y-23595832D01*
X38916023Y-23641023D01*
X38800670Y-23813662D01*
X38570625Y-23469375D01*
X38548967Y-23454904D01*
X38709698Y-23388327D01*
X38888327Y-23209699D01*
X38985000Y-22976310D01*
X38985000Y-22285750D01*
X38826250Y-22127000D01*
X37627000Y-22127000D01*
X37627000Y-22147000D01*
X37373000Y-22147000D01*
X37373000Y-22127000D01*
X36173750Y-22127000D01*
X36015000Y-22285750D01*
X36015000Y-22715000D01*
X35184537Y-22715000D01*
X35084586Y-22565414D01*
X35083403Y-22564623D01*
X35238327Y-22409698D01*
X35335000Y-22176309D01*
X35335000Y-21760750D01*
X35176250Y-21602000D01*
X34127000Y-21602000D01*
X34127000Y-21622000D01*
X33873000Y-21622000D01*
X33873000Y-21602000D01*
X32823750Y-21602000D01*
X32665000Y-21760750D01*
X32665000Y-22176309D01*
X32761673Y-22409698D01*
X32916597Y-22564623D01*
X32915414Y-22565414D01*
X32815463Y-22715000D01*
X32400513Y-22715000D01*
X31510351Y-21824838D01*
X31535000Y-21765330D01*
X31535000Y-21154670D01*
X31361167Y-20735000D01*
X32681026Y-20735000D01*
X32665000Y-20773691D01*
X32665000Y-20773691D01*
G37*
X32665000Y-20773691D02*
X32665000Y-21189250D01*
X32823750Y-21348000D01*
X33873000Y-21348000D01*
X33873000Y-21328000D01*
X34127000Y-21328000D01*
X34127000Y-21348000D01*
X35176250Y-21348000D01*
X35335000Y-21189250D01*
X35335000Y-20773691D01*
X35318974Y-20735000D01*
X36166974Y-20735000D01*
X36111673Y-20790301D01*
X36015000Y-21023690D01*
X36015000Y-21714250D01*
X36173750Y-21873000D01*
X37373000Y-21873000D01*
X37373000Y-21853000D01*
X37627000Y-21853000D01*
X37627000Y-21873000D01*
X38826250Y-21873000D01*
X38985000Y-21714250D01*
X38985000Y-21023690D01*
X38888327Y-20790301D01*
X38833026Y-20735000D01*
X39681026Y-20735000D01*
X39665000Y-20773691D01*
X39665000Y-21189250D01*
X39823750Y-21348000D01*
X40873000Y-21348000D01*
X40873000Y-21328000D01*
X41127000Y-21328000D01*
X41127000Y-21348000D01*
X41147000Y-21348000D01*
X41147000Y-21602000D01*
X41127000Y-21602000D01*
X41127000Y-21622000D01*
X40873000Y-21622000D01*
X40873000Y-21602000D01*
X39823750Y-21602000D01*
X39665000Y-21760750D01*
X39665000Y-22176309D01*
X39761673Y-22409698D01*
X39916597Y-22564623D01*
X39915414Y-22565414D01*
X39720873Y-22856564D01*
X39717570Y-22873172D01*
X39616023Y-22941023D01*
X39570835Y-23008652D01*
X38983656Y-23595832D01*
X38916023Y-23641023D01*
X38800670Y-23813662D01*
X38570625Y-23469375D01*
X38548967Y-23454904D01*
X38709698Y-23388327D01*
X38888327Y-23209699D01*
X38985000Y-22976310D01*
X38985000Y-22285750D01*
X38826250Y-22127000D01*
X37627000Y-22127000D01*
X37627000Y-22147000D01*
X37373000Y-22147000D01*
X37373000Y-22127000D01*
X36173750Y-22127000D01*
X36015000Y-22285750D01*
X36015000Y-22715000D01*
X35184537Y-22715000D01*
X35084586Y-22565414D01*
X35083403Y-22564623D01*
X35238327Y-22409698D01*
X35335000Y-22176309D01*
X35335000Y-21760750D01*
X35176250Y-21602000D01*
X34127000Y-21602000D01*
X34127000Y-21622000D01*
X33873000Y-21622000D01*
X33873000Y-21602000D01*
X32823750Y-21602000D01*
X32665000Y-21760750D01*
X32665000Y-22176309D01*
X32761673Y-22409698D01*
X32916597Y-22564623D01*
X32915414Y-22565414D01*
X32815463Y-22715000D01*
X32400513Y-22715000D01*
X31510351Y-21824838D01*
X31535000Y-21765330D01*
X31535000Y-21154670D01*
X31361167Y-20735000D01*
X32681026Y-20735000D01*
X32665000Y-20773691D01*
M02*
