G04 #@! TF.GenerationSoftware,KiCad,Pcbnew,(5.0.1)-3*
G04 #@! TF.CreationDate,2020-01-29T22:52:41+00:00*
G04 #@! TF.ProjectId,SSv2 Power Board,5353763220506F77657220426F617264,rev?*
G04 #@! TF.SameCoordinates,Original*
G04 #@! TF.FileFunction,Copper,L1,Top,Signal*
G04 #@! TF.FilePolarity,Positive*
%FSLAX46Y46*%
G04 Gerber Fmt 4.6, Leading zero omitted, Abs format (unit mm)*
G04 Created by KiCad (PCBNEW (5.0.1)-3) date 29/01/2020 22:52:41*
%MOMM*%
%LPD*%
G01*
G04 APERTURE LIST*
G04 #@! TA.AperFunction,ComponentPad*
%ADD10O,1.700000X1.700000*%
G04 #@! TD*
G04 #@! TA.AperFunction,ComponentPad*
%ADD11R,1.700000X1.700000*%
G04 #@! TD*
G04 #@! TA.AperFunction,ComponentPad*
%ADD12C,1.600000*%
G04 #@! TD*
G04 #@! TA.AperFunction,ComponentPad*
%ADD13R,1.600000X1.600000*%
G04 #@! TD*
G04 #@! TA.AperFunction,ComponentPad*
%ADD14O,2.200000X2.200000*%
G04 #@! TD*
G04 #@! TA.AperFunction,ComponentPad*
%ADD15R,2.200000X2.200000*%
G04 #@! TD*
G04 #@! TA.AperFunction,ComponentPad*
%ADD16O,1.727200X1.727200*%
G04 #@! TD*
G04 #@! TA.AperFunction,ComponentPad*
%ADD17R,1.727200X1.727200*%
G04 #@! TD*
G04 #@! TA.AperFunction,ComponentPad*
%ADD18O,1.905000X2.000000*%
G04 #@! TD*
G04 #@! TA.AperFunction,ComponentPad*
%ADD19R,1.905000X2.000000*%
G04 #@! TD*
G04 #@! TA.AperFunction,ComponentPad*
%ADD20C,1.524000*%
G04 #@! TD*
G04 #@! TA.AperFunction,ViaPad*
%ADD21C,1.000000*%
G04 #@! TD*
G04 #@! TA.AperFunction,ViaPad*
%ADD22C,0.800000*%
G04 #@! TD*
G04 #@! TA.AperFunction,Conductor*
%ADD23C,1.000000*%
G04 #@! TD*
G04 #@! TA.AperFunction,Conductor*
%ADD24C,0.300000*%
G04 #@! TD*
G04 #@! TA.AperFunction,Conductor*
%ADD25C,0.160000*%
G04 #@! TD*
G04 #@! TA.AperFunction,Conductor*
%ADD26C,0.254000*%
G04 #@! TD*
G04 APERTURE END LIST*
D10*
G04 #@! TO.P,J39,37*
G04 #@! TO.N,DAC_B_LDACpin_p*
X138961192Y-117885039D03*
G04 #@! TO.P,J39,36*
G04 #@! TO.N,DAC_A_LDACpin_p*
X138961192Y-115345039D03*
G04 #@! TO.P,J39,35*
G04 #@! TO.N,DAC_C_LDACpin_p*
X138961192Y-112805039D03*
G04 #@! TO.P,J39,34*
G04 #@! TO.N,DAC_SDApin_p*
X138961192Y-110265039D03*
G04 #@! TO.P,J39,33*
G04 #@! TO.N,DAC_SCLpin_p*
X138961192Y-107725039D03*
G04 #@! TO.P,J39,32*
G04 #@! TO.N,Dout_SERpin_p*
X138961192Y-105185039D03*
G04 #@! TO.P,J39,31*
G04 #@! TO.N,Dout_LATCHpin_p*
X138961192Y-102645039D03*
G04 #@! TO.P,J39,30*
G04 #@! TO.N,Dout_CLKpin_p*
X138961192Y-100105039D03*
G04 #@! TO.P,J39,29*
G04 #@! TO.N,Din_CLKpin_p*
X138961192Y-97565039D03*
G04 #@! TO.P,J39,28*
G04 #@! TO.N,Din_latchPin_p*
X138961192Y-95025039D03*
G04 #@! TO.P,J39,27*
G04 #@! TO.N,AreadCon1_p*
X138961192Y-92485039D03*
G04 #@! TO.P,J39,26*
G04 #@! TO.N,AreadCon2_p*
X138961192Y-89945039D03*
G04 #@! TO.P,J39,25*
G04 #@! TO.N,AreadCon3_p*
X138961192Y-87405039D03*
G04 #@! TO.P,J39,24*
G04 #@! TO.N,Din_SERpin_p*
X138961192Y-84865039D03*
G04 #@! TO.P,J39,23*
G04 #@! TO.N,AreadMuxControlPin3_p*
X138961192Y-82325039D03*
G04 #@! TO.P,J39,22*
G04 #@! TO.N,AreadMuxControlPin2_p*
X138961192Y-79785039D03*
G04 #@! TO.P,J39,21*
G04 #@! TO.N,AreadMuxControlPin1_p*
X138961192Y-77245039D03*
G04 #@! TO.P,J39,20*
G04 #@! TO.N,-5V*
X138961192Y-74705039D03*
G04 #@! TO.P,J39,19*
G04 #@! TO.N,+12V*
X138961192Y-72165039D03*
G04 #@! TO.P,J39,18*
G04 #@! TO.N,3.3V_Analogue*
X138961192Y-69625039D03*
G04 #@! TO.P,J39,17*
G04 #@! TO.N,3.3V_Digital*
X138961192Y-67085039D03*
G04 #@! TO.P,J39,16*
G04 #@! TO.N,-12V*
X138961192Y-64545039D03*
G04 #@! TO.P,J39,15*
G04 #@! TO.N,+5V*
X138961192Y-62005039D03*
G04 #@! TO.P,J39,14*
G04 #@! TO.N,GND*
X138961192Y-59465039D03*
G04 #@! TO.P,J39,13*
G04 #@! TO.N,Touch0_p*
X138961192Y-56925039D03*
G04 #@! TO.P,J39,12*
G04 #@! TO.N,Touch1_p*
X138961192Y-54385039D03*
G04 #@! TO.P,J39,11*
G04 #@! TO.N,Touch2_p*
X138961192Y-51845039D03*
G04 #@! TO.P,J39,10*
G04 #@! TO.N,Touch3_p*
X138961192Y-49305039D03*
G04 #@! TO.P,J39,9*
G04 #@! TO.N,Touch4_p*
X138961192Y-46765039D03*
G04 #@! TO.P,J39,8*
G04 #@! TO.N,Touch5_p*
X138961192Y-44225039D03*
G04 #@! TO.P,J39,7*
G04 #@! TO.N,Touch6_p*
X138961192Y-41685039D03*
G04 #@! TO.P,J39,6*
G04 #@! TO.N,Touch7_p*
X138961192Y-39145039D03*
G04 #@! TO.P,J39,5*
G04 #@! TO.N,Touch8_p*
X138961192Y-36605039D03*
G04 #@! TO.P,J39,4*
G04 #@! TO.N,Touch9_p*
X138961192Y-34065039D03*
G04 #@! TO.P,J39,3*
G04 #@! TO.N,Touch10_p*
X138961192Y-31525039D03*
G04 #@! TO.P,J39,2*
G04 #@! TO.N,Touch11_p*
X138961192Y-28985039D03*
D11*
G04 #@! TO.P,J39,1*
G04 #@! TO.N,WS2812_serial_p*
X138961192Y-26445039D03*
G04 #@! TD*
D12*
G04 #@! TO.P,C62,2*
G04 #@! TO.N,GND*
X98661192Y-54885039D03*
D13*
G04 #@! TO.P,C62,1*
G04 #@! TO.N,+5V*
X100661192Y-54885039D03*
G04 #@! TD*
D12*
G04 #@! TO.P,C63,2*
G04 #@! TO.N,GND*
X95561192Y-76485039D03*
D13*
G04 #@! TO.P,C63,1*
G04 #@! TO.N,3.3V_Analogue*
X93561192Y-76485039D03*
G04 #@! TD*
D12*
G04 #@! TO.P,C64,2*
G04 #@! TO.N,GND*
X110761192Y-76885039D03*
D13*
G04 #@! TO.P,C64,1*
G04 #@! TO.N,3.3V_Digital*
X108761192Y-76885039D03*
G04 #@! TD*
D12*
G04 #@! TO.P,C65,2*
G04 #@! TO.N,-5V*
X109861192Y-59085039D03*
D13*
G04 #@! TO.P,C65,1*
G04 #@! TO.N,GND*
X111861192Y-59085039D03*
G04 #@! TD*
D14*
G04 #@! TO.P,D9,2*
G04 #@! TO.N,/Power/+12V_in*
X94061192Y-38875039D03*
D15*
G04 #@! TO.P,D9,1*
G04 #@! TO.N,+12V*
X94061192Y-42685039D03*
G04 #@! TD*
D14*
G04 #@! TO.P,D10,2*
G04 #@! TO.N,-12V*
X110761192Y-43295039D03*
D15*
G04 #@! TO.P,D10,1*
G04 #@! TO.N,/Power/-12V_in*
X110761192Y-39485039D03*
G04 #@! TD*
D16*
G04 #@! TO.P,J38,10*
G04 #@! TO.N,/Power/-12V_in*
X107808622Y-33550500D03*
G04 #@! TO.P,J38,9*
X107808622Y-31010500D03*
G04 #@! TO.P,J38,8*
G04 #@! TO.N,GND*
X105268622Y-33550500D03*
G04 #@! TO.P,J38,7*
X105268622Y-31010500D03*
G04 #@! TO.P,J38,6*
X102728622Y-33550500D03*
G04 #@! TO.P,J38,5*
X102728622Y-31010500D03*
G04 #@! TO.P,J38,4*
X100188622Y-33550500D03*
G04 #@! TO.P,J38,3*
X100188622Y-31010500D03*
G04 #@! TO.P,J38,2*
G04 #@! TO.N,/Power/+12V_in*
X97648622Y-33550500D03*
D17*
G04 #@! TO.P,J38,1*
X97648622Y-31010500D03*
G04 #@! TD*
D13*
G04 #@! TO.P,U1,1*
G04 #@! TO.N,N/C*
X130471192Y-107005039D03*
D12*
G04 #@! TO.P,U1,2*
G04 #@! TO.N,Dout_SERpin_p*
X127931192Y-107005039D03*
G04 #@! TO.P,U1,3*
G04 #@! TO.N,N/C*
X125391192Y-107005039D03*
G04 #@! TO.P,U1,4*
G04 #@! TO.N,Dout_LATCHpin_p*
X122851192Y-107005039D03*
G04 #@! TO.P,U1,5*
G04 #@! TO.N,Din_latchPin_p*
X120311192Y-107005039D03*
G04 #@! TO.P,U1,6*
G04 #@! TO.N,/WS2812_level_boost*
X117771192Y-107005039D03*
G04 #@! TO.P,U1,7*
G04 #@! TO.N,N/C*
X115231192Y-107005039D03*
G04 #@! TO.P,U1,8*
G04 #@! TO.N,DAC_C_LDACpin_p*
X112691192Y-107005039D03*
G04 #@! TO.P,U1,9*
G04 #@! TO.N,DAC_B_LDACpin_p*
X110151192Y-107005039D03*
G04 #@! TO.P,U1,10*
G04 #@! TO.N,AreadMuxControlPin1_p*
X107611192Y-107005039D03*
G04 #@! TO.P,U1,11*
G04 #@! TO.N,AreadMuxControlPin2_p*
X105071192Y-107005039D03*
G04 #@! TO.P,U1,12*
G04 #@! TO.N,AreadMuxControlPin3_p*
X102531192Y-107005039D03*
G04 #@! TO.P,U1,13*
G04 #@! TO.N,N/C*
X99991192Y-107005039D03*
G04 #@! TO.P,U1,37*
X117771192Y-94305039D03*
G04 #@! TO.P,U1,36*
X120311192Y-94305039D03*
G04 #@! TO.P,U1,35*
X122851192Y-94305039D03*
G04 #@! TO.P,U1,34*
X127931192Y-94305039D03*
G04 #@! TO.P,U1,33*
G04 #@! TO.N,+5V*
X130471192Y-91765039D03*
G04 #@! TO.P,U1,32*
G04 #@! TO.N,GND*
X127931192Y-91765039D03*
G04 #@! TO.P,U1,31*
G04 #@! TO.N,N/C*
X125391192Y-91765039D03*
G04 #@! TO.P,U1,30*
G04 #@! TO.N,DAC_SDApin_p*
X122851192Y-91765039D03*
G04 #@! TO.P,U1,29*
G04 #@! TO.N,DAC_SCLpin_p*
X120311192Y-91765039D03*
G04 #@! TO.P,U1,28*
G04 #@! TO.N,DAC_A_LDACpin_p*
X117771192Y-91765039D03*
G04 #@! TO.P,U1,27*
G04 #@! TO.N,Dout_CLKpin_p*
X115231192Y-91765039D03*
G04 #@! TO.P,U1,26*
G04 #@! TO.N,TouchI2C_SCL_p*
X112691192Y-91765039D03*
G04 #@! TO.P,U1,25*
G04 #@! TO.N,TouchI2C_SDA_p*
X110151192Y-91765039D03*
G04 #@! TO.P,U1,24*
G04 #@! TO.N,/WS2812_level_boost*
X107611192Y-91765039D03*
G04 #@! TO.P,U1,23*
G04 #@! TO.N,AreadPin3_p*
X105071192Y-91765039D03*
G04 #@! TO.P,U1,22*
G04 #@! TO.N,AreadPin2_p*
X102531192Y-91765039D03*
G04 #@! TO.P,U1,21*
G04 #@! TO.N,AreadPin1_p*
X99991192Y-91765039D03*
G04 #@! TO.P,U1,14*
G04 #@! TO.N,Din_SERpin_p*
X97451192Y-107005039D03*
G04 #@! TO.P,U1,15*
G04 #@! TO.N,WS2812_serial_p*
X97451192Y-104465039D03*
G04 #@! TO.P,U1,16*
G04 #@! TO.N,N/C*
X97451192Y-101925039D03*
G04 #@! TO.P,U1,20*
G04 #@! TO.N,Din_CLKpin_p*
X97451192Y-91765039D03*
G04 #@! TO.P,U1,19*
G04 #@! TO.N,N/C*
X97451192Y-94305039D03*
G04 #@! TO.P,U1,18*
X97451192Y-96845039D03*
G04 #@! TO.P,U1,17*
X97451192Y-99385039D03*
G04 #@! TD*
D18*
G04 #@! TO.P,U29,3*
G04 #@! TO.N,+5V*
X99041192Y-48485039D03*
G04 #@! TO.P,U29,2*
G04 #@! TO.N,GND*
X96501192Y-48485039D03*
D19*
G04 #@! TO.P,U29,1*
G04 #@! TO.N,+12V*
X93961192Y-48485039D03*
G04 #@! TD*
D18*
G04 #@! TO.P,U30,3*
G04 #@! TO.N,-5V*
X105281192Y-51085039D03*
G04 #@! TO.P,U30,2*
G04 #@! TO.N,-12V*
X107821192Y-51085039D03*
D19*
G04 #@! TO.P,U30,1*
G04 #@! TO.N,GND*
X110361192Y-51085039D03*
G04 #@! TD*
D20*
G04 #@! TO.P,U17,12*
G04 #@! TO.N,Touch0_p*
X131801192Y-59225039D03*
G04 #@! TO.P,U17,19*
G04 #@! TO.N,3.3V_Digital*
X116561192Y-36365039D03*
G04 #@! TO.P,U17,18*
G04 #@! TO.N,N/C*
X116561192Y-38905039D03*
G04 #@! TO.P,U17,17*
G04 #@! TO.N,GND*
X116561192Y-41445039D03*
G04 #@! TO.P,U17,13*
G04 #@! TO.N,N/C*
X116561192Y-51605039D03*
G04 #@! TO.P,U17,14*
G04 #@! TO.N,TouchI2C_SCL_p*
X116561192Y-49065039D03*
G04 #@! TO.P,U17,15*
G04 #@! TO.N,TouchI2C_SDA_p*
X116561192Y-46525039D03*
G04 #@! TO.P,U17,16*
G04 #@! TO.N,N/C*
X116561192Y-43985039D03*
G04 #@! TO.P,U17,0*
G04 #@! TO.N,GND*
X131801192Y-28745039D03*
G04 #@! TO.P,U17,1*
G04 #@! TO.N,Touch11_p*
X131801192Y-31285039D03*
G04 #@! TO.P,U17,2*
G04 #@! TO.N,Touch10_p*
X131801192Y-33825039D03*
G04 #@! TO.P,U17,3*
G04 #@! TO.N,Touch9_p*
X131801192Y-36365039D03*
G04 #@! TO.P,U17,4*
G04 #@! TO.N,Touch8_p*
X131801192Y-38905039D03*
G04 #@! TO.P,U17,5*
G04 #@! TO.N,Touch7_p*
X131801192Y-41445039D03*
G04 #@! TO.P,U17,11*
G04 #@! TO.N,Touch1_p*
X131801192Y-56685039D03*
G04 #@! TO.P,U17,10*
G04 #@! TO.N,Touch2_p*
X131801192Y-54145039D03*
G04 #@! TO.P,U17,9*
G04 #@! TO.N,Touch3_p*
X131801192Y-51605039D03*
G04 #@! TO.P,U17,8*
G04 #@! TO.N,Touch4_p*
X131801192Y-49065039D03*
G04 #@! TO.P,U17,7*
G04 #@! TO.N,Touch5_p*
X131801192Y-46525039D03*
G04 #@! TO.P,U17,6*
G04 #@! TO.N,Touch6_p*
X131801192Y-43985039D03*
G04 #@! TD*
D18*
G04 #@! TO.P,U31,3*
G04 #@! TO.N,Net-(C59-Pad1)*
X94581192Y-71685039D03*
G04 #@! TO.P,U31,2*
G04 #@! TO.N,3.3V_Analogue*
X97121192Y-71685039D03*
D19*
G04 #@! TO.P,U31,1*
G04 #@! TO.N,GND*
X99661192Y-71685039D03*
G04 #@! TD*
D18*
G04 #@! TO.P,U32,3*
G04 #@! TO.N,Net-(C60-Pad1)*
X106281192Y-71885039D03*
G04 #@! TO.P,U32,2*
G04 #@! TO.N,3.3V_Digital*
X108821192Y-71885039D03*
D19*
G04 #@! TO.P,U32,1*
G04 #@! TO.N,GND*
X111361192Y-71885039D03*
G04 #@! TD*
D12*
G04 #@! TO.P,C56,2*
G04 #@! TO.N,GND*
X100161192Y-40885039D03*
D13*
G04 #@! TO.P,C56,1*
G04 #@! TO.N,+12V*
X97661192Y-40885039D03*
G04 #@! TD*
D12*
G04 #@! TO.P,C57,2*
G04 #@! TO.N,-12V*
X106061192Y-41085039D03*
D13*
G04 #@! TO.P,C57,1*
G04 #@! TO.N,GND*
X103561192Y-41085039D03*
G04 #@! TD*
D21*
G04 #@! TO.N,GND*
X98060000Y-64962000D03*
X106442000Y-63184000D03*
X129048000Y-87060000D03*
X130318000Y-78424000D03*
G04 #@! TO.N,3.3V_Digital*
X123623192Y-77279039D03*
X123623192Y-66285039D03*
G04 #@! TO.N,+12V*
X92261192Y-73585039D03*
X112661192Y-74185039D03*
G04 #@! TO.N,-12V*
X134636000Y-64454000D03*
X132350000Y-61914000D03*
G04 #@! TO.N,+5V*
X132513192Y-64385039D03*
G04 #@! TO.N,3.3V_Analogue*
X104361192Y-69285039D03*
X110961192Y-69285039D03*
G04 #@! TO.N,-5V*
X114316000Y-62676000D03*
X117872000Y-72074000D03*
X134890000Y-72328000D03*
D22*
G04 #@! TO.N,/WS2812_level_boost*
X114479192Y-103187039D03*
X117781192Y-103187039D03*
G04 #@! TO.N,DAC_B_LDACpin_p*
X110669192Y-117665039D03*
G04 #@! TO.N,DAC_A_LDACpin_p*
X116511192Y-115125039D03*
G04 #@! TO.N,DAC_C_LDACpin_p*
X112701192Y-112839039D03*
G04 #@! TO.N,DAC_SDApin_p*
X124385192Y-110045039D03*
X126671192Y-81089039D03*
G04 #@! TO.N,DAC_SCLpin_p*
X121083192Y-104203039D03*
X123877192Y-80581039D03*
G04 #@! TO.N,Dout_SERpin_p*
X128195192Y-103463039D03*
G04 #@! TO.N,Dout_LATCHpin_p*
X123115192Y-102933039D03*
G04 #@! TO.N,Dout_CLKpin_p*
X115495192Y-100139039D03*
G04 #@! TO.N,Din_latchPin_p*
X120321192Y-96789039D03*
G04 #@! TO.N,AreadCon1_p*
X106859192Y-84645039D03*
X100763192Y-82613039D03*
G04 #@! TO.N,AreadCon2_p*
X106859192Y-83121039D03*
X103049192Y-82359039D03*
G04 #@! TO.N,Din_SERpin_p*
X136323192Y-106743039D03*
G04 #@! TO.N,AreadMuxControlPin3_p*
X136577192Y-101663039D03*
X103049192Y-102171039D03*
G04 #@! TO.N,AreadMuxControlPin2_p*
X135767192Y-99123039D03*
X105589192Y-100139039D03*
G04 #@! TO.N,AreadMuxControlPin1_p*
X134545192Y-95567039D03*
X108383192Y-96075039D03*
G04 #@! TO.N,WS2812_serial_p*
X119650000Y-78678000D03*
X119904000Y-42356000D03*
G04 #@! TO.N,TouchI2C_SCL_p*
X122061192Y-49485039D03*
G04 #@! TO.N,TouchI2C_SDA_p*
X121061192Y-46885039D03*
G04 #@! TD*
D23*
G04 #@! TO.N,GND*
X105268622Y-31010500D02*
X100188622Y-31010500D01*
X100188622Y-31010500D02*
X100188622Y-33550500D01*
X100188622Y-33550500D02*
X105268622Y-33550500D01*
X105268622Y-31010500D02*
X105268622Y-33550500D01*
X129048000Y-87060000D02*
X129048000Y-79694000D01*
X129048000Y-79694000D02*
X130318000Y-78424000D01*
G04 #@! TO.N,3.3V_Digital*
X123261192Y-43065039D02*
X116561192Y-36365039D01*
X123361192Y-43065039D02*
X123261192Y-43065039D01*
X123623192Y-77279039D02*
X123623192Y-66285039D01*
X123623192Y-43327039D02*
X123623192Y-66285039D01*
X123361192Y-43065039D02*
X123623192Y-43327039D01*
G04 #@! TO.N,+12V*
X95861192Y-40885039D02*
X94061192Y-42685039D01*
X97661192Y-40885039D02*
X95861192Y-40885039D01*
X94061192Y-48385039D02*
X93961192Y-48485039D01*
X94061192Y-42685039D02*
X94061192Y-48385039D01*
X92261192Y-73585039D02*
X92861192Y-74185039D01*
X92861192Y-74185039D02*
X112661192Y-74185039D01*
G04 #@! TO.N,-12V*
X108271192Y-43295039D02*
X106061192Y-41085039D01*
X110761192Y-43295039D02*
X108271192Y-43295039D01*
X107821192Y-43745039D02*
X108271192Y-43295039D01*
X107821192Y-51085039D02*
X107821192Y-43745039D01*
X134636000Y-64454000D02*
X134636000Y-64200000D01*
X134636000Y-64200000D02*
X132350000Y-61914000D01*
G04 #@! TO.N,+5V*
X132513192Y-89723039D02*
X132513192Y-64385039D01*
X130471192Y-91765039D02*
X132513192Y-89723039D01*
G04 #@! TO.N,3.3V_Analogue*
X110961192Y-69285039D02*
X109998000Y-69285039D01*
X104361192Y-69285039D02*
X109998000Y-69285039D01*
G04 #@! TO.N,-5V*
X114316000Y-62676000D02*
X117872000Y-66232000D01*
X117872000Y-66232000D02*
X117872000Y-72074000D01*
X137267039Y-74705039D02*
X134890000Y-72328000D01*
X138961192Y-74705039D02*
X137267039Y-74705039D01*
G04 #@! TO.N,/Power/+12V_in*
X94061192Y-37137930D02*
X97648622Y-33550500D01*
X94061192Y-38875039D02*
X94061192Y-37137930D01*
X97648622Y-31010500D02*
X97648622Y-33550500D01*
G04 #@! TO.N,/Power/-12V_in*
X107808622Y-31010500D02*
X107808622Y-33550500D01*
X107808622Y-36532469D02*
X110761192Y-39485039D01*
X107808622Y-33550500D02*
X107808622Y-36532469D01*
D24*
G04 #@! TO.N,/WS2812_level_boost*
X114225192Y-102933039D02*
X114479192Y-103187039D01*
X107611192Y-91765039D02*
X114225192Y-98379039D01*
X114225192Y-98379039D02*
X114225192Y-102933039D01*
X117781192Y-106995039D02*
X117771192Y-107005039D01*
X117781192Y-103187039D02*
X117781192Y-106995039D01*
D25*
G04 #@! TO.N,DAC_B_LDACpin_p*
X110669192Y-107523039D02*
X110151192Y-107005039D01*
X110669192Y-117665039D02*
X110669192Y-107523039D01*
G04 #@! TO.N,DAC_A_LDACpin_p*
X116511192Y-93025039D02*
X117771192Y-91765039D01*
X116511192Y-115125039D02*
X116511192Y-93025039D01*
G04 #@! TO.N,DAC_C_LDACpin_p*
X112691192Y-108003039D02*
X112701192Y-108013039D01*
X112691192Y-107005039D02*
X112691192Y-108003039D01*
X112701192Y-112839039D02*
X112701192Y-108013039D01*
G04 #@! TO.N,DAC_SDApin_p*
X123651191Y-92565038D02*
X122851192Y-91765039D01*
X123991193Y-92905040D02*
X123651191Y-92565038D01*
X123991193Y-107552240D02*
X123991193Y-92905040D01*
X124385192Y-107946239D02*
X123991193Y-107552240D01*
X124385192Y-110045039D02*
X124385192Y-107946239D01*
D24*
X123651191Y-90965040D02*
X122851192Y-91765039D01*
X126271193Y-88345038D02*
X123651191Y-90965040D01*
X126271193Y-81489038D02*
X126271193Y-88345038D01*
X126671192Y-81089039D02*
X126271193Y-81489038D01*
D25*
G04 #@! TO.N,DAC_SCLpin_p*
X121111191Y-92565038D02*
X120311192Y-91765039D01*
X121451193Y-92905040D02*
X121111191Y-92565038D01*
X121451193Y-94852240D02*
X121451193Y-92905040D01*
X121083192Y-95220241D02*
X121451193Y-94852240D01*
X121083192Y-104203039D02*
X121083192Y-95220241D01*
D24*
X123877192Y-88199039D02*
X120311192Y-91765039D01*
X123877192Y-80581039D02*
X123877192Y-88199039D01*
G04 #@! TO.N,Dout_SERpin_p*
X128195192Y-106741039D02*
X127931192Y-107005039D01*
X128195192Y-103463039D02*
X128195192Y-106741039D01*
G04 #@! TO.N,Dout_LATCHpin_p*
X123115192Y-106741039D02*
X122851192Y-107005039D01*
X123115192Y-102933039D02*
X123115192Y-106741039D01*
G04 #@! TO.N,Dout_CLKpin_p*
X115231192Y-92896409D02*
X115231192Y-91765039D01*
X115100562Y-93027039D02*
X115231192Y-92896409D01*
X114987192Y-93027039D02*
X115100562Y-93027039D01*
X114987192Y-99631039D02*
X114987192Y-93027039D01*
X115495192Y-100139039D02*
X114987192Y-99631039D01*
G04 #@! TO.N,Din_latchPin_p*
X120311192Y-105873669D02*
X120311192Y-107005039D01*
X119921193Y-105483670D02*
X120311192Y-105873669D01*
X119921193Y-97189038D02*
X119921193Y-105483670D01*
X120321192Y-96789039D02*
X119921193Y-97189038D01*
G04 #@! TO.N,AreadCon1_p*
X106859192Y-84645039D02*
X102795192Y-84645039D01*
X102795192Y-84645039D02*
X100763192Y-82613039D01*
G04 #@! TO.N,AreadCon2_p*
X106859192Y-83121039D02*
X106097192Y-82359039D01*
X106097192Y-82359039D02*
X103049192Y-82359039D01*
G04 #@! TO.N,Din_SERpin_p*
X137701191Y-105365040D02*
X136323192Y-106743039D01*
X138961192Y-84865039D02*
X137701191Y-86125040D01*
X137701191Y-86125040D02*
X137701191Y-105365040D01*
G04 #@! TO.N,AreadMuxControlPin3_p*
X138961192Y-82325039D02*
X136577192Y-84709039D01*
X136577192Y-84709039D02*
X136577192Y-101663039D01*
X102531192Y-102689039D02*
X102531192Y-107005039D01*
X103049192Y-102171039D02*
X102531192Y-102689039D01*
G04 #@! TO.N,AreadMuxControlPin2_p*
X138961192Y-79785039D02*
X135767192Y-82979039D01*
X135767192Y-82979039D02*
X135767192Y-99123039D01*
X105589192Y-106487039D02*
X105071192Y-107005039D01*
X105589192Y-100139039D02*
X105589192Y-106487039D01*
G04 #@! TO.N,AreadMuxControlPin1_p*
X138961192Y-77245039D02*
X134545192Y-81661039D01*
X134545192Y-81661039D02*
X134545192Y-95567039D01*
X107611192Y-96847039D02*
X107611192Y-107005039D01*
X108383192Y-96075039D02*
X107611192Y-96847039D01*
G04 #@! TO.N,WS2812_serial_p*
X119650000Y-78678000D02*
X119650000Y-42610000D01*
X119650000Y-42610000D02*
X119904000Y-42356000D01*
G04 #@! TO.N,TouchI2C_SCL_p*
X122161192Y-49585039D02*
X122061192Y-49485039D01*
X112691192Y-91765039D02*
X122161192Y-82295039D01*
X122161192Y-82295039D02*
X122161192Y-49585039D01*
G04 #@! TO.N,TouchI2C_SDA_p*
X110151192Y-91765039D02*
X112131192Y-89785039D01*
X112131192Y-89785039D02*
X113661192Y-89785039D01*
X113661192Y-89785039D02*
X121361192Y-82085039D01*
X121061192Y-49683841D02*
X121061192Y-46885039D01*
X121361192Y-82085039D02*
X121061192Y-81785039D01*
X121061192Y-81785039D02*
X121061192Y-49683841D01*
G04 #@! TD*
D26*
G04 #@! TO.N,GND*
G36*
X137463752Y-25595039D02*
X137463752Y-27295039D01*
X137513035Y-27542804D01*
X137653383Y-27752848D01*
X137863427Y-27893196D01*
X137908811Y-27902223D01*
X137890567Y-27914414D01*
X137562353Y-28405621D01*
X137447100Y-28985039D01*
X137562353Y-29564457D01*
X137890567Y-30055664D01*
X138188953Y-30255039D01*
X137890567Y-30454414D01*
X137562353Y-30945621D01*
X137447100Y-31525039D01*
X137562353Y-32104457D01*
X137890567Y-32595664D01*
X138188953Y-32795039D01*
X137890567Y-32994414D01*
X137562353Y-33485621D01*
X137447100Y-34065039D01*
X137562353Y-34644457D01*
X137890567Y-35135664D01*
X138188953Y-35335039D01*
X137890567Y-35534414D01*
X137562353Y-36025621D01*
X137447100Y-36605039D01*
X137562353Y-37184457D01*
X137890567Y-37675664D01*
X138188953Y-37875039D01*
X137890567Y-38074414D01*
X137562353Y-38565621D01*
X137447100Y-39145039D01*
X137562353Y-39724457D01*
X137890567Y-40215664D01*
X138188953Y-40415039D01*
X137890567Y-40614414D01*
X137562353Y-41105621D01*
X137447100Y-41685039D01*
X137562353Y-42264457D01*
X137890567Y-42755664D01*
X138188953Y-42955039D01*
X137890567Y-43154414D01*
X137562353Y-43645621D01*
X137447100Y-44225039D01*
X137562353Y-44804457D01*
X137890567Y-45295664D01*
X138188953Y-45495039D01*
X137890567Y-45694414D01*
X137562353Y-46185621D01*
X137447100Y-46765039D01*
X137562353Y-47344457D01*
X137890567Y-47835664D01*
X138188953Y-48035039D01*
X137890567Y-48234414D01*
X137562353Y-48725621D01*
X137447100Y-49305039D01*
X137562353Y-49884457D01*
X137890567Y-50375664D01*
X138188953Y-50575039D01*
X137890567Y-50774414D01*
X137562353Y-51265621D01*
X137447100Y-51845039D01*
X137562353Y-52424457D01*
X137890567Y-52915664D01*
X138188953Y-53115039D01*
X137890567Y-53314414D01*
X137562353Y-53805621D01*
X137447100Y-54385039D01*
X137562353Y-54964457D01*
X137890567Y-55455664D01*
X138188953Y-55655039D01*
X137890567Y-55854414D01*
X137562353Y-56345621D01*
X137447100Y-56925039D01*
X137562353Y-57504457D01*
X137890567Y-57995664D01*
X138209670Y-58208882D01*
X138079834Y-58269856D01*
X137689547Y-58698115D01*
X137519716Y-59108149D01*
X137641037Y-59338039D01*
X138834192Y-59338039D01*
X138834192Y-59318039D01*
X139088192Y-59318039D01*
X139088192Y-59338039D01*
X139108192Y-59338039D01*
X139108192Y-59592039D01*
X139088192Y-59592039D01*
X139088192Y-59612039D01*
X138834192Y-59612039D01*
X138834192Y-59592039D01*
X137641037Y-59592039D01*
X137519716Y-59821929D01*
X137689547Y-60231963D01*
X138079834Y-60660222D01*
X138209670Y-60721196D01*
X137890567Y-60934414D01*
X137562353Y-61425621D01*
X137447100Y-62005039D01*
X137562353Y-62584457D01*
X137890567Y-63075664D01*
X138188953Y-63275039D01*
X137890567Y-63474414D01*
X137562353Y-63965621D01*
X137447100Y-64545039D01*
X137562353Y-65124457D01*
X137890567Y-65615664D01*
X138188953Y-65815039D01*
X137890567Y-66014414D01*
X137562353Y-66505621D01*
X137447100Y-67085039D01*
X137562353Y-67664457D01*
X137890567Y-68155664D01*
X138188953Y-68355039D01*
X137890567Y-68554414D01*
X137562353Y-69045621D01*
X137447100Y-69625039D01*
X137562353Y-70204457D01*
X137890567Y-70695664D01*
X138188953Y-70895039D01*
X137890567Y-71094414D01*
X137562353Y-71585621D01*
X137447100Y-72165039D01*
X137562353Y-72744457D01*
X137890567Y-73235664D01*
X138188953Y-73435039D01*
X137986911Y-73570039D01*
X137737171Y-73570039D01*
X135852208Y-71685077D01*
X135852207Y-71685074D01*
X135532926Y-71365793D01*
X135427616Y-71322172D01*
X135332854Y-71258854D01*
X135221073Y-71236619D01*
X135115766Y-71193000D01*
X135001783Y-71193000D01*
X134890000Y-71170765D01*
X134778217Y-71193000D01*
X134664234Y-71193000D01*
X134558927Y-71236619D01*
X134447146Y-71258854D01*
X134352384Y-71322172D01*
X134247074Y-71365793D01*
X134166472Y-71446395D01*
X134071712Y-71509712D01*
X134008395Y-71604472D01*
X133927793Y-71685074D01*
X133884172Y-71790384D01*
X133820854Y-71885146D01*
X133798619Y-71996927D01*
X133755000Y-72102234D01*
X133755000Y-72216217D01*
X133732765Y-72328000D01*
X133755000Y-72439783D01*
X133755000Y-72553766D01*
X133798619Y-72659073D01*
X133820854Y-72770854D01*
X133884172Y-72865616D01*
X133927793Y-72970926D01*
X134247074Y-73290207D01*
X134247077Y-73290208D01*
X136385428Y-75428560D01*
X136448750Y-75523328D01*
X136690768Y-75685039D01*
X136824184Y-75774185D01*
X137267039Y-75862274D01*
X137378822Y-75840039D01*
X137986911Y-75840039D01*
X138188953Y-75975039D01*
X137890567Y-76174414D01*
X137562353Y-76665621D01*
X137447100Y-77245039D01*
X137514117Y-77581956D01*
X134044784Y-81051290D01*
X133979239Y-81095086D01*
X133805738Y-81354748D01*
X133760192Y-81583724D01*
X133760192Y-81583727D01*
X133744814Y-81661039D01*
X133760192Y-81738351D01*
X133760193Y-94888327D01*
X133667761Y-94980759D01*
X133510192Y-95361165D01*
X133510192Y-95772913D01*
X133667761Y-96153319D01*
X133958912Y-96444470D01*
X134339318Y-96602039D01*
X134751066Y-96602039D01*
X134982193Y-96506303D01*
X134982193Y-98444327D01*
X134889761Y-98536759D01*
X134732192Y-98917165D01*
X134732192Y-99328913D01*
X134889761Y-99709319D01*
X135180912Y-100000470D01*
X135561318Y-100158039D01*
X135792193Y-100158039D01*
X135792193Y-100984327D01*
X135699761Y-101076759D01*
X135542192Y-101457165D01*
X135542192Y-101868913D01*
X135699761Y-102249319D01*
X135990912Y-102540470D01*
X136371318Y-102698039D01*
X136783066Y-102698039D01*
X136916192Y-102642897D01*
X136916192Y-105039881D01*
X136248035Y-105708039D01*
X136117318Y-105708039D01*
X135736912Y-105865608D01*
X135445761Y-106156759D01*
X135288192Y-106537165D01*
X135288192Y-106948913D01*
X135445761Y-107329319D01*
X135736912Y-107620470D01*
X136117318Y-107778039D01*
X136529066Y-107778039D01*
X136909472Y-107620470D01*
X137200623Y-107329319D01*
X137358192Y-106948913D01*
X137358192Y-106818196D01*
X137908645Y-106267743D01*
X138188953Y-106455039D01*
X137890567Y-106654414D01*
X137562353Y-107145621D01*
X137447100Y-107725039D01*
X137562353Y-108304457D01*
X137890567Y-108795664D01*
X138188953Y-108995039D01*
X137890567Y-109194414D01*
X137562353Y-109685621D01*
X137447100Y-110265039D01*
X137562353Y-110844457D01*
X137890567Y-111335664D01*
X138188953Y-111535039D01*
X137890567Y-111734414D01*
X137562353Y-112225621D01*
X137447100Y-112805039D01*
X137562353Y-113384457D01*
X137890567Y-113875664D01*
X138188953Y-114075039D01*
X137890567Y-114274414D01*
X137562353Y-114765621D01*
X137447100Y-115345039D01*
X137562353Y-115924457D01*
X137890567Y-116415664D01*
X138188953Y-116615039D01*
X137890567Y-116814414D01*
X137562353Y-117305621D01*
X137447100Y-117885039D01*
X137562353Y-118464457D01*
X137890567Y-118955664D01*
X137937523Y-118987039D01*
X91567192Y-118987039D01*
X91567192Y-91479600D01*
X96016192Y-91479600D01*
X96016192Y-92050478D01*
X96234658Y-92577901D01*
X96638330Y-92981573D01*
X96767408Y-93035039D01*
X96638330Y-93088505D01*
X96234658Y-93492177D01*
X96016192Y-94019600D01*
X96016192Y-94590478D01*
X96234658Y-95117901D01*
X96638330Y-95521573D01*
X96767408Y-95575039D01*
X96638330Y-95628505D01*
X96234658Y-96032177D01*
X96016192Y-96559600D01*
X96016192Y-97130478D01*
X96234658Y-97657901D01*
X96638330Y-98061573D01*
X96767408Y-98115039D01*
X96638330Y-98168505D01*
X96234658Y-98572177D01*
X96016192Y-99099600D01*
X96016192Y-99670478D01*
X96234658Y-100197901D01*
X96638330Y-100601573D01*
X96767408Y-100655039D01*
X96638330Y-100708505D01*
X96234658Y-101112177D01*
X96016192Y-101639600D01*
X96016192Y-102210478D01*
X96234658Y-102737901D01*
X96638330Y-103141573D01*
X96767408Y-103195039D01*
X96638330Y-103248505D01*
X96234658Y-103652177D01*
X96016192Y-104179600D01*
X96016192Y-104750478D01*
X96234658Y-105277901D01*
X96638330Y-105681573D01*
X96767408Y-105735039D01*
X96638330Y-105788505D01*
X96234658Y-106192177D01*
X96016192Y-106719600D01*
X96016192Y-107290478D01*
X96234658Y-107817901D01*
X96638330Y-108221573D01*
X97165753Y-108440039D01*
X97736631Y-108440039D01*
X98264054Y-108221573D01*
X98667726Y-107817901D01*
X98721192Y-107688823D01*
X98774658Y-107817901D01*
X99178330Y-108221573D01*
X99705753Y-108440039D01*
X100276631Y-108440039D01*
X100804054Y-108221573D01*
X101207726Y-107817901D01*
X101261192Y-107688823D01*
X101314658Y-107817901D01*
X101718330Y-108221573D01*
X102245753Y-108440039D01*
X102816631Y-108440039D01*
X103344054Y-108221573D01*
X103747726Y-107817901D01*
X103801192Y-107688823D01*
X103854658Y-107817901D01*
X104258330Y-108221573D01*
X104785753Y-108440039D01*
X105356631Y-108440039D01*
X105884054Y-108221573D01*
X106287726Y-107817901D01*
X106341192Y-107688823D01*
X106394658Y-107817901D01*
X106798330Y-108221573D01*
X107325753Y-108440039D01*
X107896631Y-108440039D01*
X108424054Y-108221573D01*
X108827726Y-107817901D01*
X108881192Y-107688823D01*
X108934658Y-107817901D01*
X109338330Y-108221573D01*
X109865753Y-108440039D01*
X109954193Y-108440039D01*
X109954192Y-116916328D01*
X109791761Y-117078759D01*
X109634192Y-117459165D01*
X109634192Y-117870913D01*
X109791761Y-118251319D01*
X110082912Y-118542470D01*
X110463318Y-118700039D01*
X110875066Y-118700039D01*
X111255472Y-118542470D01*
X111546623Y-118251319D01*
X111704192Y-117870913D01*
X111704192Y-117459165D01*
X111546623Y-117078759D01*
X111384192Y-116916328D01*
X111384192Y-107778149D01*
X111421192Y-107688823D01*
X111474658Y-107817901D01*
X111878330Y-108221573D01*
X111986193Y-108266251D01*
X111986192Y-112090328D01*
X111823761Y-112252759D01*
X111666192Y-112633165D01*
X111666192Y-113044913D01*
X111823761Y-113425319D01*
X112114912Y-113716470D01*
X112495318Y-113874039D01*
X112907066Y-113874039D01*
X113287472Y-113716470D01*
X113578623Y-113425319D01*
X113736192Y-113044913D01*
X113736192Y-112633165D01*
X113578623Y-112252759D01*
X113416192Y-112090328D01*
X113416192Y-108257967D01*
X113504054Y-108221573D01*
X113907726Y-107817901D01*
X113961192Y-107688823D01*
X114014658Y-107817901D01*
X114418330Y-108221573D01*
X114945753Y-108440039D01*
X115516631Y-108440039D01*
X115796192Y-108324241D01*
X115796192Y-114376328D01*
X115633761Y-114538759D01*
X115476192Y-114919165D01*
X115476192Y-115330913D01*
X115633761Y-115711319D01*
X115924912Y-116002470D01*
X116305318Y-116160039D01*
X116717066Y-116160039D01*
X117097472Y-116002470D01*
X117388623Y-115711319D01*
X117546192Y-115330913D01*
X117546192Y-114919165D01*
X117388623Y-114538759D01*
X117226192Y-114376328D01*
X117226192Y-108332525D01*
X117485753Y-108440039D01*
X118056631Y-108440039D01*
X118584054Y-108221573D01*
X118987726Y-107817901D01*
X119041192Y-107688823D01*
X119094658Y-107817901D01*
X119498330Y-108221573D01*
X120025753Y-108440039D01*
X120596631Y-108440039D01*
X121124054Y-108221573D01*
X121527726Y-107817901D01*
X121581192Y-107688823D01*
X121634658Y-107817901D01*
X122038330Y-108221573D01*
X122565753Y-108440039D01*
X123136631Y-108440039D01*
X123653667Y-108225876D01*
X123670193Y-108242402D01*
X123670192Y-109296328D01*
X123507761Y-109458759D01*
X123350192Y-109839165D01*
X123350192Y-110250913D01*
X123507761Y-110631319D01*
X123798912Y-110922470D01*
X124179318Y-111080039D01*
X124591066Y-111080039D01*
X124971472Y-110922470D01*
X125262623Y-110631319D01*
X125420192Y-110250913D01*
X125420192Y-109839165D01*
X125262623Y-109458759D01*
X125100192Y-109296328D01*
X125100192Y-108437736D01*
X125105753Y-108440039D01*
X125676631Y-108440039D01*
X126204054Y-108221573D01*
X126607726Y-107817901D01*
X126661192Y-107688823D01*
X126714658Y-107817901D01*
X127118330Y-108221573D01*
X127645753Y-108440039D01*
X128216631Y-108440039D01*
X128744054Y-108221573D01*
X129046454Y-107919173D01*
X129073035Y-108052804D01*
X129213383Y-108262848D01*
X129423427Y-108403196D01*
X129671192Y-108452479D01*
X131271192Y-108452479D01*
X131518957Y-108403196D01*
X131729001Y-108262848D01*
X131869349Y-108052804D01*
X131918632Y-107805039D01*
X131918632Y-106205039D01*
X131869349Y-105957274D01*
X131729001Y-105747230D01*
X131518957Y-105606882D01*
X131271192Y-105557599D01*
X129671192Y-105557599D01*
X129423427Y-105606882D01*
X129213383Y-105747230D01*
X129073035Y-105957274D01*
X129046454Y-106090905D01*
X128980192Y-106024643D01*
X128980192Y-104141750D01*
X129072623Y-104049319D01*
X129230192Y-103668913D01*
X129230192Y-103257165D01*
X129072623Y-102876759D01*
X128781472Y-102585608D01*
X128401066Y-102428039D01*
X127989318Y-102428039D01*
X127608912Y-102585608D01*
X127317761Y-102876759D01*
X127160192Y-103257165D01*
X127160192Y-103668913D01*
X127317761Y-104049319D01*
X127410192Y-104141750D01*
X127410193Y-105667611D01*
X127118330Y-105788505D01*
X126714658Y-106192177D01*
X126661192Y-106321255D01*
X126607726Y-106192177D01*
X126204054Y-105788505D01*
X125676631Y-105570039D01*
X125105753Y-105570039D01*
X124706193Y-105735542D01*
X124706193Y-94019600D01*
X126496192Y-94019600D01*
X126496192Y-94590478D01*
X126714658Y-95117901D01*
X127118330Y-95521573D01*
X127645753Y-95740039D01*
X128216631Y-95740039D01*
X128744054Y-95521573D01*
X129147726Y-95117901D01*
X129366192Y-94590478D01*
X129366192Y-94019600D01*
X129147726Y-93492177D01*
X128744054Y-93088505D01*
X128630609Y-93041514D01*
X128685197Y-93018903D01*
X128759331Y-92772784D01*
X127931192Y-91944644D01*
X127103053Y-92772784D01*
X127177187Y-93018903D01*
X127235640Y-93039913D01*
X127118330Y-93088505D01*
X126714658Y-93492177D01*
X126496192Y-94019600D01*
X124706193Y-94019600D01*
X124706193Y-93034536D01*
X125105753Y-93200039D01*
X125676631Y-93200039D01*
X126204054Y-92981573D01*
X126607726Y-92577901D01*
X126654717Y-92464456D01*
X126677328Y-92519044D01*
X126923447Y-92593178D01*
X127751587Y-91765039D01*
X128110797Y-91765039D01*
X128938937Y-92593178D01*
X129185056Y-92519044D01*
X129206066Y-92460591D01*
X129254658Y-92577901D01*
X129658330Y-92981573D01*
X130185753Y-93200039D01*
X130756631Y-93200039D01*
X131284054Y-92981573D01*
X131687726Y-92577901D01*
X131906192Y-92050478D01*
X131906192Y-91935170D01*
X133236713Y-90604650D01*
X133331481Y-90541328D01*
X133582338Y-90165894D01*
X133648192Y-89834822D01*
X133648192Y-89834821D01*
X133670427Y-89723040D01*
X133648192Y-89611257D01*
X133648192Y-65035120D01*
X133673793Y-65096926D01*
X133754392Y-65177525D01*
X133817711Y-65272289D01*
X133912476Y-65335609D01*
X133993074Y-65416207D01*
X134098380Y-65459826D01*
X134193145Y-65523146D01*
X134304928Y-65545381D01*
X134410234Y-65589000D01*
X134524217Y-65589000D01*
X134636000Y-65611235D01*
X134747783Y-65589000D01*
X134861766Y-65589000D01*
X134967073Y-65545381D01*
X135078854Y-65523146D01*
X135173618Y-65459827D01*
X135278926Y-65416207D01*
X135359525Y-65335608D01*
X135454289Y-65272289D01*
X135517609Y-65177524D01*
X135598207Y-65096926D01*
X135641826Y-64991620D01*
X135705146Y-64896855D01*
X135727381Y-64785072D01*
X135771000Y-64679766D01*
X135771000Y-64311782D01*
X135793235Y-64199999D01*
X135705146Y-63757145D01*
X135618935Y-63628121D01*
X135454289Y-63381711D01*
X135359521Y-63318389D01*
X133312208Y-61271077D01*
X133312207Y-61271074D01*
X132992926Y-60951793D01*
X132887616Y-60908172D01*
X132792854Y-60844854D01*
X132681073Y-60822619D01*
X132575766Y-60779000D01*
X132461783Y-60779000D01*
X132350000Y-60756765D01*
X132238217Y-60779000D01*
X132124234Y-60779000D01*
X132018927Y-60822619D01*
X131907146Y-60844854D01*
X131812384Y-60908172D01*
X131707074Y-60951793D01*
X131626472Y-61032395D01*
X131531712Y-61095712D01*
X131468395Y-61190472D01*
X131387793Y-61271074D01*
X131344172Y-61376384D01*
X131280854Y-61471146D01*
X131258619Y-61582927D01*
X131215000Y-61688234D01*
X131215000Y-61802217D01*
X131192765Y-61914000D01*
X131215000Y-62025783D01*
X131215000Y-62139766D01*
X131258619Y-62245073D01*
X131280854Y-62356854D01*
X131344172Y-62451616D01*
X131387793Y-62556926D01*
X131707074Y-62876207D01*
X131707077Y-62876208D01*
X132134082Y-63303214D01*
X132070338Y-63315893D01*
X131975575Y-63379212D01*
X131870266Y-63422832D01*
X131789666Y-63503432D01*
X131694904Y-63566750D01*
X131631586Y-63661512D01*
X131550985Y-63742113D01*
X131507364Y-63847423D01*
X131444047Y-63942184D01*
X131421813Y-64053962D01*
X131378192Y-64159273D01*
X131378192Y-64610805D01*
X131378193Y-64610807D01*
X131378192Y-89252907D01*
X130301061Y-90330039D01*
X130185753Y-90330039D01*
X129658330Y-90548505D01*
X129254658Y-90952177D01*
X129207667Y-91065622D01*
X129185056Y-91011034D01*
X128938937Y-90936900D01*
X128110797Y-91765039D01*
X127751587Y-91765039D01*
X126923447Y-90936900D01*
X126677328Y-91011034D01*
X126656318Y-91069487D01*
X126607726Y-90952177D01*
X126412843Y-90757294D01*
X127103053Y-90757294D01*
X127931192Y-91585434D01*
X128759331Y-90757294D01*
X128685197Y-90511175D01*
X128147969Y-90318074D01*
X127577738Y-90345261D01*
X127177187Y-90511175D01*
X127103053Y-90757294D01*
X126412843Y-90757294D01*
X126204054Y-90548505D01*
X125676631Y-90330039D01*
X125396349Y-90330039D01*
X126771604Y-88954785D01*
X126837146Y-88910991D01*
X126880940Y-88845449D01*
X126880942Y-88845447D01*
X127010646Y-88651331D01*
X127010647Y-88651330D01*
X127056193Y-88422354D01*
X127056193Y-88422350D01*
X127071571Y-88345039D01*
X127056193Y-88267728D01*
X127056193Y-82049842D01*
X127257472Y-81966470D01*
X127548623Y-81675319D01*
X127706192Y-81294913D01*
X127706192Y-80883165D01*
X127548623Y-80502759D01*
X127257472Y-80211608D01*
X126877066Y-80054039D01*
X126465318Y-80054039D01*
X126084912Y-80211608D01*
X125793761Y-80502759D01*
X125636192Y-80883165D01*
X125636192Y-81026422D01*
X125531739Y-81182747D01*
X125486193Y-81411723D01*
X125486193Y-81411726D01*
X125470815Y-81489038D01*
X125486193Y-81566350D01*
X125486194Y-88019879D01*
X123164494Y-90341580D01*
X123136631Y-90330039D01*
X122856349Y-90330039D01*
X124377600Y-88808788D01*
X124443145Y-88764992D01*
X124616646Y-88505331D01*
X124662192Y-88276355D01*
X124662192Y-88276351D01*
X124677570Y-88199039D01*
X124662192Y-88121727D01*
X124662192Y-81259750D01*
X124754623Y-81167319D01*
X124912192Y-80786913D01*
X124912192Y-80375165D01*
X124754623Y-79994759D01*
X124463472Y-79703608D01*
X124083066Y-79546039D01*
X123671318Y-79546039D01*
X123290912Y-79703608D01*
X122999761Y-79994759D01*
X122946192Y-80124086D01*
X122946192Y-78207172D01*
X122980266Y-78241246D01*
X123085572Y-78284865D01*
X123180337Y-78348185D01*
X123292120Y-78370420D01*
X123397426Y-78414039D01*
X123511409Y-78414039D01*
X123623192Y-78436274D01*
X123734975Y-78414039D01*
X123848958Y-78414039D01*
X123954265Y-78370420D01*
X124066046Y-78348185D01*
X124160810Y-78284866D01*
X124266118Y-78241246D01*
X124346717Y-78160647D01*
X124441481Y-78097328D01*
X124504801Y-78002563D01*
X124585399Y-77921965D01*
X124629018Y-77816659D01*
X124692338Y-77721894D01*
X124714573Y-77610111D01*
X124758192Y-77504805D01*
X124758192Y-43438822D01*
X124780427Y-43327039D01*
X124746090Y-43154414D01*
X124692338Y-42884184D01*
X124441481Y-42508750D01*
X124346711Y-42445427D01*
X124242805Y-42341521D01*
X124179481Y-42246750D01*
X123804047Y-41995893D01*
X123795472Y-41994187D01*
X117958192Y-36156908D01*
X117958192Y-36087158D01*
X117745512Y-35573702D01*
X117352529Y-35180719D01*
X116839073Y-34968039D01*
X116283311Y-34968039D01*
X115769855Y-35180719D01*
X115376872Y-35573702D01*
X115164192Y-36087158D01*
X115164192Y-36642920D01*
X115376872Y-37156376D01*
X115769855Y-37549359D01*
X115976705Y-37635039D01*
X115769855Y-37720719D01*
X115376872Y-38113702D01*
X115164192Y-38627158D01*
X115164192Y-39182920D01*
X115376872Y-39696376D01*
X115769855Y-40089359D01*
X115960839Y-40168467D01*
X115830049Y-40222642D01*
X115760584Y-40464826D01*
X116561192Y-41265434D01*
X117361800Y-40464826D01*
X117292335Y-40222642D01*
X117151799Y-40172504D01*
X117352529Y-40089359D01*
X117745512Y-39696376D01*
X117904226Y-39313205D01*
X119912021Y-41321000D01*
X119698126Y-41321000D01*
X119317720Y-41478569D01*
X119026569Y-41769720D01*
X118869000Y-42150126D01*
X118869000Y-42512579D01*
X118849622Y-42610000D01*
X118865001Y-42687317D01*
X118865000Y-65675185D01*
X118690289Y-65413711D01*
X118595522Y-65350390D01*
X115278208Y-62033077D01*
X115278207Y-62033074D01*
X114958926Y-61713793D01*
X114853616Y-61670172D01*
X114758854Y-61606854D01*
X114647073Y-61584619D01*
X114541766Y-61541000D01*
X114427783Y-61541000D01*
X114316000Y-61518765D01*
X114204217Y-61541000D01*
X114090234Y-61541000D01*
X113984927Y-61584619D01*
X113873146Y-61606854D01*
X113778384Y-61670172D01*
X113673074Y-61713793D01*
X113592472Y-61794395D01*
X113497712Y-61857712D01*
X113434395Y-61952472D01*
X113353793Y-62033074D01*
X113310172Y-62138384D01*
X113246854Y-62233146D01*
X113224619Y-62344927D01*
X113181000Y-62450234D01*
X113181000Y-62564217D01*
X113158765Y-62676000D01*
X113181000Y-62787783D01*
X113181000Y-62901766D01*
X113224619Y-63007073D01*
X113246854Y-63118854D01*
X113310172Y-63213616D01*
X113353793Y-63318926D01*
X113673074Y-63638207D01*
X113673077Y-63638208D01*
X116737000Y-66702132D01*
X116737001Y-71848232D01*
X116737000Y-71848234D01*
X116737000Y-72299766D01*
X116780621Y-72405077D01*
X116802855Y-72516855D01*
X116866172Y-72611616D01*
X116909793Y-72716926D01*
X116990394Y-72797527D01*
X117053712Y-72892289D01*
X117148474Y-72955607D01*
X117229074Y-73036207D01*
X117334383Y-73079827D01*
X117429146Y-73143146D01*
X117540927Y-73165381D01*
X117646234Y-73209000D01*
X117760217Y-73209000D01*
X117872000Y-73231235D01*
X117983783Y-73209000D01*
X118097766Y-73209000D01*
X118203072Y-73165381D01*
X118314855Y-73143146D01*
X118409620Y-73079826D01*
X118514926Y-73036207D01*
X118595524Y-72955609D01*
X118690289Y-72892289D01*
X118753609Y-72797524D01*
X118834207Y-72716926D01*
X118865000Y-72642585D01*
X118865000Y-77999289D01*
X118772569Y-78091720D01*
X118615000Y-78472126D01*
X118615000Y-78883874D01*
X118772569Y-79264280D01*
X119063720Y-79555431D01*
X119444126Y-79713000D01*
X119855874Y-79713000D01*
X120236280Y-79555431D01*
X120276192Y-79515519D01*
X120276192Y-81707727D01*
X120260814Y-81785039D01*
X120276192Y-81862351D01*
X120276192Y-81862354D01*
X120304226Y-82003290D01*
X120308964Y-82027109D01*
X113336035Y-89000039D01*
X112208504Y-89000039D01*
X112131192Y-88984661D01*
X112053880Y-89000039D01*
X112053876Y-89000039D01*
X111824900Y-89045585D01*
X111630783Y-89175290D01*
X111630781Y-89175292D01*
X111565239Y-89219086D01*
X111521445Y-89284628D01*
X110464494Y-90341580D01*
X110436631Y-90330039D01*
X109865753Y-90330039D01*
X109338330Y-90548505D01*
X108934658Y-90952177D01*
X108881192Y-91081255D01*
X108827726Y-90952177D01*
X108424054Y-90548505D01*
X107896631Y-90330039D01*
X107325753Y-90330039D01*
X106798330Y-90548505D01*
X106394658Y-90952177D01*
X106341192Y-91081255D01*
X106287726Y-90952177D01*
X105884054Y-90548505D01*
X105356631Y-90330039D01*
X104785753Y-90330039D01*
X104258330Y-90548505D01*
X103854658Y-90952177D01*
X103801192Y-91081255D01*
X103747726Y-90952177D01*
X103344054Y-90548505D01*
X102816631Y-90330039D01*
X102245753Y-90330039D01*
X101718330Y-90548505D01*
X101314658Y-90952177D01*
X101261192Y-91081255D01*
X101207726Y-90952177D01*
X100804054Y-90548505D01*
X100276631Y-90330039D01*
X99705753Y-90330039D01*
X99178330Y-90548505D01*
X98774658Y-90952177D01*
X98721192Y-91081255D01*
X98667726Y-90952177D01*
X98264054Y-90548505D01*
X97736631Y-90330039D01*
X97165753Y-90330039D01*
X96638330Y-90548505D01*
X96234658Y-90952177D01*
X96016192Y-91479600D01*
X91567192Y-91479600D01*
X91567192Y-82407165D01*
X99728192Y-82407165D01*
X99728192Y-82818913D01*
X99885761Y-83199319D01*
X100176912Y-83490470D01*
X100557318Y-83648039D01*
X100688035Y-83648039D01*
X102185445Y-85145450D01*
X102229239Y-85210992D01*
X102294781Y-85254786D01*
X102294783Y-85254788D01*
X102460396Y-85365447D01*
X102488900Y-85384493D01*
X102717876Y-85430039D01*
X102717880Y-85430039D01*
X102795192Y-85445417D01*
X102872504Y-85430039D01*
X106180481Y-85430039D01*
X106272912Y-85522470D01*
X106653318Y-85680039D01*
X107065066Y-85680039D01*
X107445472Y-85522470D01*
X107736623Y-85231319D01*
X107894192Y-84850913D01*
X107894192Y-84439165D01*
X107736623Y-84058759D01*
X107560903Y-83883039D01*
X107736623Y-83707319D01*
X107894192Y-83326913D01*
X107894192Y-82915165D01*
X107736623Y-82534759D01*
X107445472Y-82243608D01*
X107065066Y-82086039D01*
X106934349Y-82086039D01*
X106706941Y-81858631D01*
X106663145Y-81793086D01*
X106403484Y-81619585D01*
X106174508Y-81574039D01*
X106174504Y-81574039D01*
X106097192Y-81558661D01*
X106019880Y-81574039D01*
X103727903Y-81574039D01*
X103635472Y-81481608D01*
X103255066Y-81324039D01*
X102843318Y-81324039D01*
X102462912Y-81481608D01*
X102171761Y-81772759D01*
X102014192Y-82153165D01*
X102014192Y-82564913D01*
X102147812Y-82887502D01*
X101798192Y-82537882D01*
X101798192Y-82407165D01*
X101640623Y-82026759D01*
X101349472Y-81735608D01*
X100969066Y-81578039D01*
X100557318Y-81578039D01*
X100176912Y-81735608D01*
X99885761Y-82026759D01*
X99728192Y-82407165D01*
X91567192Y-82407165D01*
X91567192Y-74496172D01*
X91618266Y-74547246D01*
X91618269Y-74547247D01*
X91979579Y-74908557D01*
X92042903Y-75003328D01*
X92340689Y-75202302D01*
X92303383Y-75227230D01*
X92163035Y-75437274D01*
X92113752Y-75685039D01*
X92113752Y-77285039D01*
X92163035Y-77532804D01*
X92303383Y-77742848D01*
X92513427Y-77883196D01*
X92761192Y-77932479D01*
X94361192Y-77932479D01*
X94608957Y-77883196D01*
X94818708Y-77743044D01*
X95344415Y-77932004D01*
X95914646Y-77904817D01*
X96315197Y-77738903D01*
X96389331Y-77492784D01*
X95561192Y-76664644D01*
X95547050Y-76678787D01*
X95367445Y-76499182D01*
X95381587Y-76485039D01*
X95740797Y-76485039D01*
X96568937Y-77313178D01*
X96815056Y-77239044D01*
X97008157Y-76701816D01*
X96980970Y-76131585D01*
X96961690Y-76085039D01*
X107313752Y-76085039D01*
X107313752Y-77685039D01*
X107363035Y-77932804D01*
X107503383Y-78142848D01*
X107713427Y-78283196D01*
X107961192Y-78332479D01*
X109561192Y-78332479D01*
X109808957Y-78283196D01*
X110018708Y-78143044D01*
X110544415Y-78332004D01*
X111114646Y-78304817D01*
X111515197Y-78138903D01*
X111589331Y-77892784D01*
X110761192Y-77064644D01*
X110747050Y-77078787D01*
X110567445Y-76899182D01*
X110581587Y-76885039D01*
X110940797Y-76885039D01*
X111768937Y-77713178D01*
X112015056Y-77639044D01*
X112208157Y-77101816D01*
X112180970Y-76531585D01*
X112015056Y-76131034D01*
X111768937Y-76056900D01*
X110940797Y-76885039D01*
X110581587Y-76885039D01*
X110567445Y-76870897D01*
X110747050Y-76691291D01*
X110761192Y-76705434D01*
X111589331Y-75877294D01*
X111515197Y-75631175D01*
X110977969Y-75438074D01*
X110407738Y-75465261D01*
X110018125Y-75626644D01*
X109808957Y-75486882D01*
X109561192Y-75437599D01*
X107961192Y-75437599D01*
X107713427Y-75486882D01*
X107503383Y-75627230D01*
X107363035Y-75837274D01*
X107313752Y-76085039D01*
X96961690Y-76085039D01*
X96815056Y-75731034D01*
X96568937Y-75656900D01*
X95740797Y-76485039D01*
X95381587Y-76485039D01*
X95367445Y-76470897D01*
X95547050Y-76291291D01*
X95561192Y-76305434D01*
X96389331Y-75477294D01*
X96341964Y-75320039D01*
X112886958Y-75320039D01*
X112992264Y-75276420D01*
X113104047Y-75254185D01*
X113198812Y-75190865D01*
X113304118Y-75147246D01*
X113384717Y-75066647D01*
X113479481Y-75003328D01*
X113542801Y-74908563D01*
X113623399Y-74827965D01*
X113667018Y-74722659D01*
X113730338Y-74627894D01*
X113752573Y-74516111D01*
X113796192Y-74410805D01*
X113796192Y-74296822D01*
X113818427Y-74185039D01*
X113796192Y-74073256D01*
X113796192Y-73959273D01*
X113752573Y-73853967D01*
X113730338Y-73742184D01*
X113667018Y-73647419D01*
X113623399Y-73542113D01*
X113542801Y-73461515D01*
X113479481Y-73366750D01*
X113384716Y-73303430D01*
X113304118Y-73222832D01*
X113198812Y-73179213D01*
X113104047Y-73115893D01*
X112992264Y-73093658D01*
X112925972Y-73066199D01*
X112948692Y-73011349D01*
X112948692Y-72170789D01*
X112789942Y-72012039D01*
X111488192Y-72012039D01*
X111488192Y-72032039D01*
X111234192Y-72032039D01*
X111234192Y-72012039D01*
X111214192Y-72012039D01*
X111214192Y-71758039D01*
X111234192Y-71758039D01*
X111234192Y-71738039D01*
X111488192Y-71738039D01*
X111488192Y-71758039D01*
X112789942Y-71758039D01*
X112948692Y-71599289D01*
X112948692Y-70758729D01*
X112852019Y-70525340D01*
X112673390Y-70346712D01*
X112440001Y-70250039D01*
X111646942Y-70250039D01*
X111488194Y-70408787D01*
X111488194Y-70297960D01*
X111498812Y-70290865D01*
X111604118Y-70247246D01*
X111684716Y-70166648D01*
X111779481Y-70103328D01*
X111842801Y-70008563D01*
X111923399Y-69927965D01*
X111967018Y-69822659D01*
X112030338Y-69727894D01*
X112052573Y-69616111D01*
X112096192Y-69510805D01*
X112096192Y-69396822D01*
X112118427Y-69285039D01*
X112096192Y-69173256D01*
X112096192Y-69059273D01*
X112052573Y-68953967D01*
X112030338Y-68842184D01*
X111967018Y-68747419D01*
X111923399Y-68642113D01*
X111842801Y-68561515D01*
X111779481Y-68466750D01*
X111684716Y-68403430D01*
X111604118Y-68322832D01*
X111498812Y-68279213D01*
X111404047Y-68215893D01*
X111292264Y-68193658D01*
X111186958Y-68150039D01*
X104135426Y-68150039D01*
X104030120Y-68193658D01*
X103918337Y-68215893D01*
X103823572Y-68279213D01*
X103718266Y-68322832D01*
X103637668Y-68403430D01*
X103542903Y-68466750D01*
X103479583Y-68561515D01*
X103398985Y-68642113D01*
X103355366Y-68747419D01*
X103292046Y-68842184D01*
X103269811Y-68953967D01*
X103226192Y-69059273D01*
X103226192Y-69173256D01*
X103203957Y-69285039D01*
X103226192Y-69396822D01*
X103226192Y-69510805D01*
X103269811Y-69616111D01*
X103292046Y-69727894D01*
X103355366Y-69822659D01*
X103398985Y-69927965D01*
X103479583Y-70008563D01*
X103542903Y-70103328D01*
X103637668Y-70166648D01*
X103718266Y-70247246D01*
X103823572Y-70290865D01*
X103918337Y-70354185D01*
X104030120Y-70376420D01*
X104135426Y-70420039D01*
X105545209Y-70420039D01*
X105136669Y-70693016D01*
X104785801Y-71218128D01*
X104693692Y-71681189D01*
X104693692Y-72088888D01*
X104785801Y-72551949D01*
X105118613Y-73050039D01*
X101146718Y-73050039D01*
X101152019Y-73044738D01*
X101248692Y-72811349D01*
X101248692Y-71970789D01*
X101089942Y-71812039D01*
X99788192Y-71812039D01*
X99788192Y-71832039D01*
X99534192Y-71832039D01*
X99534192Y-71812039D01*
X99514192Y-71812039D01*
X99514192Y-71558039D01*
X99534192Y-71558039D01*
X99534192Y-70208789D01*
X99788192Y-70208789D01*
X99788192Y-71558039D01*
X101089942Y-71558039D01*
X101248692Y-71399289D01*
X101248692Y-70558729D01*
X101152019Y-70325340D01*
X100973390Y-70146712D01*
X100740001Y-70050039D01*
X99946942Y-70050039D01*
X99788192Y-70208789D01*
X99534192Y-70208789D01*
X99375442Y-70050039D01*
X98582383Y-70050039D01*
X98348994Y-70146712D01*
X98170365Y-70325340D01*
X98136636Y-70406768D01*
X97740603Y-70142148D01*
X97121192Y-70018939D01*
X96501782Y-70142148D01*
X95976669Y-70493016D01*
X95851192Y-70680806D01*
X95725715Y-70493016D01*
X95200603Y-70142148D01*
X94581192Y-70018939D01*
X93961782Y-70142148D01*
X93436669Y-70493016D01*
X93085801Y-71018128D01*
X92993692Y-71481189D01*
X92993692Y-71888888D01*
X93085801Y-72351949D01*
X93436669Y-72877062D01*
X93695548Y-73050039D01*
X93331323Y-73050039D01*
X93223400Y-72942116D01*
X93223399Y-72942113D01*
X92904118Y-72622832D01*
X92798808Y-72579211D01*
X92704046Y-72515893D01*
X92592265Y-72493658D01*
X92486958Y-72450039D01*
X92372975Y-72450039D01*
X92261192Y-72427804D01*
X92149409Y-72450039D01*
X92035426Y-72450039D01*
X91930119Y-72493658D01*
X91818338Y-72515893D01*
X91723576Y-72579211D01*
X91618266Y-72622832D01*
X91567192Y-72673906D01*
X91567192Y-58799600D01*
X108426192Y-58799600D01*
X108426192Y-59370478D01*
X108644658Y-59897901D01*
X109048330Y-60301573D01*
X109575753Y-60520039D01*
X110146631Y-60520039D01*
X110607336Y-60329209D01*
X110701494Y-60423366D01*
X110934883Y-60520039D01*
X111575442Y-60520039D01*
X111734192Y-60361289D01*
X111734192Y-59212039D01*
X111988192Y-59212039D01*
X111988192Y-60361289D01*
X112146942Y-60520039D01*
X112787501Y-60520039D01*
X113020890Y-60423366D01*
X113199519Y-60244738D01*
X113296192Y-60011349D01*
X113296192Y-59370789D01*
X113137442Y-59212039D01*
X111988192Y-59212039D01*
X111734192Y-59212039D01*
X111714192Y-59212039D01*
X111714192Y-58958039D01*
X111734192Y-58958039D01*
X111734192Y-57808789D01*
X111988192Y-57808789D01*
X111988192Y-58958039D01*
X113137442Y-58958039D01*
X113296192Y-58799289D01*
X113296192Y-58158729D01*
X113199519Y-57925340D01*
X113020890Y-57746712D01*
X112787501Y-57650039D01*
X112146942Y-57650039D01*
X111988192Y-57808789D01*
X111734192Y-57808789D01*
X111575442Y-57650039D01*
X110934883Y-57650039D01*
X110701494Y-57746712D01*
X110607336Y-57840869D01*
X110146631Y-57650039D01*
X109575753Y-57650039D01*
X109048330Y-57868505D01*
X108644658Y-58272177D01*
X108426192Y-58799600D01*
X91567192Y-58799600D01*
X91567192Y-54668262D01*
X97214227Y-54668262D01*
X97241414Y-55238493D01*
X97407328Y-55639044D01*
X97653447Y-55713178D01*
X98481587Y-54885039D01*
X97653447Y-54056900D01*
X97407328Y-54131034D01*
X97214227Y-54668262D01*
X91567192Y-54668262D01*
X91567192Y-53877294D01*
X97833053Y-53877294D01*
X98661192Y-54705434D01*
X98675334Y-54691291D01*
X98854940Y-54870897D01*
X98840797Y-54885039D01*
X98854940Y-54899182D01*
X98675334Y-55078787D01*
X98661192Y-55064644D01*
X97833053Y-55892784D01*
X97907187Y-56138903D01*
X98444415Y-56332004D01*
X99014646Y-56304817D01*
X99404259Y-56143434D01*
X99613427Y-56283196D01*
X99861192Y-56332479D01*
X101461192Y-56332479D01*
X101708957Y-56283196D01*
X101919001Y-56142848D01*
X102059349Y-55932804D01*
X102108632Y-55685039D01*
X102108632Y-54085039D01*
X102059349Y-53837274D01*
X101919001Y-53627230D01*
X101708957Y-53486882D01*
X101461192Y-53437599D01*
X99861192Y-53437599D01*
X99613427Y-53486882D01*
X99403676Y-53627034D01*
X98877969Y-53438074D01*
X98307738Y-53465261D01*
X97907187Y-53631175D01*
X97833053Y-53877294D01*
X91567192Y-53877294D01*
X91567192Y-38875039D01*
X92292202Y-38875039D01*
X92426858Y-39552002D01*
X92810327Y-40125904D01*
X93384229Y-40509373D01*
X93890312Y-40610039D01*
X94232072Y-40610039D01*
X94605300Y-40535800D01*
X94203500Y-40937599D01*
X92961192Y-40937599D01*
X92713427Y-40986882D01*
X92503383Y-41127230D01*
X92363035Y-41337274D01*
X92313752Y-41585039D01*
X92313752Y-43785039D01*
X92363035Y-44032804D01*
X92503383Y-44242848D01*
X92713427Y-44383196D01*
X92926192Y-44425517D01*
X92926193Y-46854009D01*
X92760927Y-46886882D01*
X92550883Y-47027230D01*
X92410535Y-47237274D01*
X92361252Y-47485039D01*
X92361252Y-49485039D01*
X92410535Y-49732804D01*
X92550883Y-49942848D01*
X92760927Y-50083196D01*
X93008692Y-50132479D01*
X94913692Y-50132479D01*
X95161457Y-50083196D01*
X95371501Y-49942848D01*
X95508447Y-49737896D01*
X95634268Y-49861012D01*
X96128212Y-50075602D01*
X96374192Y-49955633D01*
X96374192Y-48612039D01*
X96354192Y-48612039D01*
X96354192Y-48358039D01*
X96374192Y-48358039D01*
X96374192Y-47014445D01*
X96628192Y-47014445D01*
X96628192Y-48358039D01*
X96648192Y-48358039D01*
X96648192Y-48612039D01*
X96628192Y-48612039D01*
X96628192Y-49955633D01*
X96874172Y-50075602D01*
X97368116Y-49861012D01*
X97762033Y-49475565D01*
X97896669Y-49677062D01*
X98421782Y-50027930D01*
X99041192Y-50151139D01*
X99660603Y-50027930D01*
X100185715Y-49677062D01*
X100536583Y-49151949D01*
X100628692Y-48688888D01*
X100628692Y-48281189D01*
X100536583Y-47818128D01*
X100185715Y-47293016D01*
X99660602Y-46942148D01*
X99041192Y-46818939D01*
X98421781Y-46942148D01*
X97896669Y-47293016D01*
X97762033Y-47494513D01*
X97368116Y-47109066D01*
X96874172Y-46894476D01*
X96628192Y-47014445D01*
X96374192Y-47014445D01*
X96128212Y-46894476D01*
X95634268Y-47109066D01*
X95508447Y-47232182D01*
X95371501Y-47027230D01*
X95196192Y-46910091D01*
X95196192Y-44425517D01*
X95408957Y-44383196D01*
X95619001Y-44242848D01*
X95759349Y-44032804D01*
X95808632Y-43785039D01*
X95808632Y-42542731D01*
X96325329Y-42026033D01*
X96403383Y-42142848D01*
X96613427Y-42283196D01*
X96861192Y-42332479D01*
X98461192Y-42332479D01*
X98708957Y-42283196D01*
X98919001Y-42142848D01*
X99059349Y-41932804D01*
X99067309Y-41892784D01*
X99333053Y-41892784D01*
X99407187Y-42138903D01*
X99944415Y-42332004D01*
X100514646Y-42304817D01*
X100915197Y-42138903D01*
X100989331Y-41892784D01*
X100161192Y-41064644D01*
X99333053Y-41892784D01*
X99067309Y-41892784D01*
X99105885Y-41698852D01*
X99153447Y-41713178D01*
X99981587Y-40885039D01*
X100340797Y-40885039D01*
X101168937Y-41713178D01*
X101415056Y-41639044D01*
X101511477Y-41370789D01*
X102126192Y-41370789D01*
X102126192Y-42011349D01*
X102222865Y-42244738D01*
X102401494Y-42423366D01*
X102634883Y-42520039D01*
X103275442Y-42520039D01*
X103434192Y-42361289D01*
X103434192Y-41212039D01*
X102284942Y-41212039D01*
X102126192Y-41370789D01*
X101511477Y-41370789D01*
X101608157Y-41101816D01*
X101580970Y-40531585D01*
X101426528Y-40158729D01*
X102126192Y-40158729D01*
X102126192Y-40799289D01*
X102284942Y-40958039D01*
X103434192Y-40958039D01*
X103434192Y-39808789D01*
X103688192Y-39808789D01*
X103688192Y-40958039D01*
X103708192Y-40958039D01*
X103708192Y-41212039D01*
X103688192Y-41212039D01*
X103688192Y-42361289D01*
X103846942Y-42520039D01*
X104487501Y-42520039D01*
X104720890Y-42423366D01*
X104899519Y-42244738D01*
X104985037Y-42038280D01*
X105248330Y-42301573D01*
X105775753Y-42520039D01*
X105891061Y-42520039D01*
X106738966Y-43367944D01*
X106663957Y-43745039D01*
X106686193Y-43856827D01*
X106686192Y-49886653D01*
X106676669Y-49893016D01*
X106551192Y-50080806D01*
X106425715Y-49893016D01*
X105900603Y-49542148D01*
X105281192Y-49418939D01*
X104661782Y-49542148D01*
X104136669Y-49893016D01*
X103785801Y-50418128D01*
X103693692Y-50881189D01*
X103693692Y-51288888D01*
X103785801Y-51751949D01*
X104136669Y-52277062D01*
X104661781Y-52627930D01*
X105281192Y-52751139D01*
X105900602Y-52627930D01*
X106425715Y-52277062D01*
X106551192Y-52089272D01*
X106676669Y-52277062D01*
X107201781Y-52627930D01*
X107821192Y-52751139D01*
X108440602Y-52627930D01*
X108836636Y-52363309D01*
X108870365Y-52444738D01*
X109048994Y-52623366D01*
X109282383Y-52720039D01*
X110075442Y-52720039D01*
X110234192Y-52561289D01*
X110234192Y-51212039D01*
X110488192Y-51212039D01*
X110488192Y-52561289D01*
X110646942Y-52720039D01*
X111440001Y-52720039D01*
X111673390Y-52623366D01*
X111852019Y-52444738D01*
X111948692Y-52211349D01*
X111948692Y-51370789D01*
X111789942Y-51212039D01*
X110488192Y-51212039D01*
X110234192Y-51212039D01*
X110214192Y-51212039D01*
X110214192Y-50958039D01*
X110234192Y-50958039D01*
X110234192Y-49608789D01*
X110488192Y-49608789D01*
X110488192Y-50958039D01*
X111789942Y-50958039D01*
X111948692Y-50799289D01*
X111948692Y-49958729D01*
X111852019Y-49725340D01*
X111673390Y-49546712D01*
X111440001Y-49450039D01*
X110646942Y-49450039D01*
X110488192Y-49608789D01*
X110234192Y-49608789D01*
X110075442Y-49450039D01*
X109282383Y-49450039D01*
X109048994Y-49546712D01*
X108956192Y-49639513D01*
X108956192Y-44430039D01*
X109432908Y-44430039D01*
X109510327Y-44545904D01*
X110084229Y-44929373D01*
X110590312Y-45030039D01*
X110932072Y-45030039D01*
X111438155Y-44929373D01*
X112012057Y-44545904D01*
X112395526Y-43972002D01*
X112448206Y-43707158D01*
X115164192Y-43707158D01*
X115164192Y-44262920D01*
X115376872Y-44776376D01*
X115769855Y-45169359D01*
X115976705Y-45255039D01*
X115769855Y-45340719D01*
X115376872Y-45733702D01*
X115164192Y-46247158D01*
X115164192Y-46802920D01*
X115376872Y-47316376D01*
X115769855Y-47709359D01*
X115976705Y-47795039D01*
X115769855Y-47880719D01*
X115376872Y-48273702D01*
X115164192Y-48787158D01*
X115164192Y-49342920D01*
X115376872Y-49856376D01*
X115769855Y-50249359D01*
X115976705Y-50335039D01*
X115769855Y-50420719D01*
X115376872Y-50813702D01*
X115164192Y-51327158D01*
X115164192Y-51882920D01*
X115376872Y-52396376D01*
X115769855Y-52789359D01*
X116283311Y-53002039D01*
X116839073Y-53002039D01*
X117352529Y-52789359D01*
X117745512Y-52396376D01*
X117958192Y-51882920D01*
X117958192Y-51327158D01*
X117745512Y-50813702D01*
X117352529Y-50420719D01*
X117145679Y-50335039D01*
X117352529Y-50249359D01*
X117745512Y-49856376D01*
X117958192Y-49342920D01*
X117958192Y-48787158D01*
X117745512Y-48273702D01*
X117352529Y-47880719D01*
X117145679Y-47795039D01*
X117352529Y-47709359D01*
X117745512Y-47316376D01*
X117958192Y-46802920D01*
X117958192Y-46247158D01*
X117745512Y-45733702D01*
X117352529Y-45340719D01*
X117145679Y-45255039D01*
X117352529Y-45169359D01*
X117745512Y-44776376D01*
X117958192Y-44262920D01*
X117958192Y-43707158D01*
X117745512Y-43193702D01*
X117352529Y-42800719D01*
X117161545Y-42721611D01*
X117292335Y-42667436D01*
X117361800Y-42425252D01*
X116561192Y-41624644D01*
X115760584Y-42425252D01*
X115830049Y-42667436D01*
X115970585Y-42717574D01*
X115769855Y-42800719D01*
X115376872Y-43193702D01*
X115164192Y-43707158D01*
X112448206Y-43707158D01*
X112530182Y-43295039D01*
X112395526Y-42618076D01*
X112012057Y-42044174D01*
X111438155Y-41660705D01*
X110932072Y-41560039D01*
X110590312Y-41560039D01*
X110084229Y-41660705D01*
X109510327Y-42044174D01*
X109432908Y-42160039D01*
X108741324Y-42160039D01*
X107818626Y-41237341D01*
X115152048Y-41237341D01*
X115179830Y-41792407D01*
X115338795Y-42176182D01*
X115580979Y-42245647D01*
X116381587Y-41445039D01*
X116740797Y-41445039D01*
X117541405Y-42245647D01*
X117783589Y-42176182D01*
X117970336Y-41652737D01*
X117942554Y-41097671D01*
X117783589Y-40713896D01*
X117541405Y-40644431D01*
X116740797Y-41445039D01*
X116381587Y-41445039D01*
X115580979Y-40644431D01*
X115338795Y-40713896D01*
X115152048Y-41237341D01*
X107818626Y-41237341D01*
X107496192Y-40914908D01*
X107496192Y-40799600D01*
X107277726Y-40272177D01*
X106874054Y-39868505D01*
X106346631Y-39650039D01*
X105775753Y-39650039D01*
X105248330Y-39868505D01*
X104985037Y-40131798D01*
X104899519Y-39925340D01*
X104720890Y-39746712D01*
X104487501Y-39650039D01*
X103846942Y-39650039D01*
X103688192Y-39808789D01*
X103434192Y-39808789D01*
X103275442Y-39650039D01*
X102634883Y-39650039D01*
X102401494Y-39746712D01*
X102222865Y-39925340D01*
X102126192Y-40158729D01*
X101426528Y-40158729D01*
X101415056Y-40131034D01*
X101168937Y-40056900D01*
X100340797Y-40885039D01*
X99981587Y-40885039D01*
X99153447Y-40056900D01*
X99105885Y-40071226D01*
X99067310Y-39877294D01*
X99333053Y-39877294D01*
X100161192Y-40705434D01*
X100989331Y-39877294D01*
X100915197Y-39631175D01*
X100377969Y-39438074D01*
X99807738Y-39465261D01*
X99407187Y-39631175D01*
X99333053Y-39877294D01*
X99067310Y-39877294D01*
X99059349Y-39837274D01*
X98919001Y-39627230D01*
X98708957Y-39486882D01*
X98461192Y-39437599D01*
X96861192Y-39437599D01*
X96613427Y-39486882D01*
X96403383Y-39627230D01*
X96321324Y-39750039D01*
X95972973Y-39750039D01*
X95861191Y-39727804D01*
X95749409Y-39750039D01*
X95534660Y-39792755D01*
X95695526Y-39552002D01*
X95830182Y-38875039D01*
X95695526Y-38198076D01*
X95312057Y-37624174D01*
X95232942Y-37571311D01*
X97755154Y-35049100D01*
X97796220Y-35049100D01*
X98233347Y-34962150D01*
X98729052Y-34630930D01*
X98930476Y-34329479D01*
X98981801Y-34438990D01*
X99413675Y-34833188D01*
X99829596Y-35005458D01*
X100061622Y-34884317D01*
X100061622Y-33677500D01*
X100315622Y-33677500D01*
X100315622Y-34884317D01*
X100547648Y-35005458D01*
X100963569Y-34833188D01*
X101395443Y-34438990D01*
X101458622Y-34304187D01*
X101521801Y-34438990D01*
X101953675Y-34833188D01*
X102369596Y-35005458D01*
X102601622Y-34884317D01*
X102601622Y-33677500D01*
X102855622Y-33677500D01*
X102855622Y-34884317D01*
X103087648Y-35005458D01*
X103503569Y-34833188D01*
X103935443Y-34438990D01*
X103998622Y-34304187D01*
X104061801Y-34438990D01*
X104493675Y-34833188D01*
X104909596Y-35005458D01*
X105141622Y-34884317D01*
X105141622Y-33677500D01*
X102855622Y-33677500D01*
X102601622Y-33677500D01*
X100315622Y-33677500D01*
X100061622Y-33677500D01*
X100041622Y-33677500D01*
X100041622Y-33423500D01*
X100061622Y-33423500D01*
X100061622Y-31137500D01*
X100315622Y-31137500D01*
X100315622Y-33423500D01*
X102601622Y-33423500D01*
X102601622Y-31137500D01*
X102855622Y-31137500D01*
X102855622Y-33423500D01*
X105141622Y-33423500D01*
X105141622Y-31137500D01*
X102855622Y-31137500D01*
X102601622Y-31137500D01*
X100315622Y-31137500D01*
X100061622Y-31137500D01*
X100041622Y-31137500D01*
X100041622Y-30883500D01*
X100061622Y-30883500D01*
X100061622Y-29676683D01*
X100315622Y-29676683D01*
X100315622Y-30883500D01*
X102601622Y-30883500D01*
X102601622Y-29676683D01*
X102855622Y-29676683D01*
X102855622Y-30883500D01*
X105141622Y-30883500D01*
X105141622Y-29676683D01*
X105395622Y-29676683D01*
X105395622Y-30883500D01*
X105415622Y-30883500D01*
X105415622Y-31137500D01*
X105395622Y-31137500D01*
X105395622Y-33423500D01*
X105415622Y-33423500D01*
X105415622Y-33677500D01*
X105395622Y-33677500D01*
X105395622Y-34884317D01*
X105627648Y-35005458D01*
X106043569Y-34833188D01*
X106475443Y-34438990D01*
X106526768Y-34329479D01*
X106673622Y-34549261D01*
X106673623Y-36420681D01*
X106651387Y-36532469D01*
X106739476Y-36975323D01*
X106739477Y-36975324D01*
X106990334Y-37350758D01*
X107085102Y-37414080D01*
X109013752Y-39342731D01*
X109013752Y-40585039D01*
X109063035Y-40832804D01*
X109203383Y-41042848D01*
X109413427Y-41183196D01*
X109661192Y-41232479D01*
X111861192Y-41232479D01*
X112108957Y-41183196D01*
X112319001Y-41042848D01*
X112459349Y-40832804D01*
X112508632Y-40585039D01*
X112508632Y-38385039D01*
X112459349Y-38137274D01*
X112319001Y-37927230D01*
X112108957Y-37786882D01*
X111861192Y-37737599D01*
X110618884Y-37737599D01*
X108943622Y-36062338D01*
X108943622Y-34549260D01*
X109220272Y-34135225D01*
X109336581Y-33550500D01*
X109220272Y-32965775D01*
X108943622Y-32551740D01*
X108943622Y-32009260D01*
X109220272Y-31595225D01*
X109336581Y-31010500D01*
X109335917Y-31007158D01*
X130404192Y-31007158D01*
X130404192Y-31562920D01*
X130616872Y-32076376D01*
X131009855Y-32469359D01*
X131216705Y-32555039D01*
X131009855Y-32640719D01*
X130616872Y-33033702D01*
X130404192Y-33547158D01*
X130404192Y-34102920D01*
X130616872Y-34616376D01*
X131009855Y-35009359D01*
X131216705Y-35095039D01*
X131009855Y-35180719D01*
X130616872Y-35573702D01*
X130404192Y-36087158D01*
X130404192Y-36642920D01*
X130616872Y-37156376D01*
X131009855Y-37549359D01*
X131216705Y-37635039D01*
X131009855Y-37720719D01*
X130616872Y-38113702D01*
X130404192Y-38627158D01*
X130404192Y-39182920D01*
X130616872Y-39696376D01*
X131009855Y-40089359D01*
X131216705Y-40175039D01*
X131009855Y-40260719D01*
X130616872Y-40653702D01*
X130404192Y-41167158D01*
X130404192Y-41722920D01*
X130616872Y-42236376D01*
X131009855Y-42629359D01*
X131216705Y-42715039D01*
X131009855Y-42800719D01*
X130616872Y-43193702D01*
X130404192Y-43707158D01*
X130404192Y-44262920D01*
X130616872Y-44776376D01*
X131009855Y-45169359D01*
X131216705Y-45255039D01*
X131009855Y-45340719D01*
X130616872Y-45733702D01*
X130404192Y-46247158D01*
X130404192Y-46802920D01*
X130616872Y-47316376D01*
X131009855Y-47709359D01*
X131216705Y-47795039D01*
X131009855Y-47880719D01*
X130616872Y-48273702D01*
X130404192Y-48787158D01*
X130404192Y-49342920D01*
X130616872Y-49856376D01*
X131009855Y-50249359D01*
X131216705Y-50335039D01*
X131009855Y-50420719D01*
X130616872Y-50813702D01*
X130404192Y-51327158D01*
X130404192Y-51882920D01*
X130616872Y-52396376D01*
X131009855Y-52789359D01*
X131216705Y-52875039D01*
X131009855Y-52960719D01*
X130616872Y-53353702D01*
X130404192Y-53867158D01*
X130404192Y-54422920D01*
X130616872Y-54936376D01*
X131009855Y-55329359D01*
X131216705Y-55415039D01*
X131009855Y-55500719D01*
X130616872Y-55893702D01*
X130404192Y-56407158D01*
X130404192Y-56962920D01*
X130616872Y-57476376D01*
X131009855Y-57869359D01*
X131216705Y-57955039D01*
X131009855Y-58040719D01*
X130616872Y-58433702D01*
X130404192Y-58947158D01*
X130404192Y-59502920D01*
X130616872Y-60016376D01*
X131009855Y-60409359D01*
X131523311Y-60622039D01*
X132079073Y-60622039D01*
X132592529Y-60409359D01*
X132985512Y-60016376D01*
X133198192Y-59502920D01*
X133198192Y-58947158D01*
X132985512Y-58433702D01*
X132592529Y-58040719D01*
X132385679Y-57955039D01*
X132592529Y-57869359D01*
X132985512Y-57476376D01*
X133198192Y-56962920D01*
X133198192Y-56407158D01*
X132985512Y-55893702D01*
X132592529Y-55500719D01*
X132385679Y-55415039D01*
X132592529Y-55329359D01*
X132985512Y-54936376D01*
X133198192Y-54422920D01*
X133198192Y-53867158D01*
X132985512Y-53353702D01*
X132592529Y-52960719D01*
X132385679Y-52875039D01*
X132592529Y-52789359D01*
X132985512Y-52396376D01*
X133198192Y-51882920D01*
X133198192Y-51327158D01*
X132985512Y-50813702D01*
X132592529Y-50420719D01*
X132385679Y-50335039D01*
X132592529Y-50249359D01*
X132985512Y-49856376D01*
X133198192Y-49342920D01*
X133198192Y-48787158D01*
X132985512Y-48273702D01*
X132592529Y-47880719D01*
X132385679Y-47795039D01*
X132592529Y-47709359D01*
X132985512Y-47316376D01*
X133198192Y-46802920D01*
X133198192Y-46247158D01*
X132985512Y-45733702D01*
X132592529Y-45340719D01*
X132385679Y-45255039D01*
X132592529Y-45169359D01*
X132985512Y-44776376D01*
X133198192Y-44262920D01*
X133198192Y-43707158D01*
X132985512Y-43193702D01*
X132592529Y-42800719D01*
X132385679Y-42715039D01*
X132592529Y-42629359D01*
X132985512Y-42236376D01*
X133198192Y-41722920D01*
X133198192Y-41167158D01*
X132985512Y-40653702D01*
X132592529Y-40260719D01*
X132385679Y-40175039D01*
X132592529Y-40089359D01*
X132985512Y-39696376D01*
X133198192Y-39182920D01*
X133198192Y-38627158D01*
X132985512Y-38113702D01*
X132592529Y-37720719D01*
X132385679Y-37635039D01*
X132592529Y-37549359D01*
X132985512Y-37156376D01*
X133198192Y-36642920D01*
X133198192Y-36087158D01*
X132985512Y-35573702D01*
X132592529Y-35180719D01*
X132385679Y-35095039D01*
X132592529Y-35009359D01*
X132985512Y-34616376D01*
X133198192Y-34102920D01*
X133198192Y-33547158D01*
X132985512Y-33033702D01*
X132592529Y-32640719D01*
X132385679Y-32555039D01*
X132592529Y-32469359D01*
X132985512Y-32076376D01*
X133198192Y-31562920D01*
X133198192Y-31007158D01*
X132985512Y-30493702D01*
X132592529Y-30100719D01*
X132401545Y-30021611D01*
X132532335Y-29967436D01*
X132601800Y-29725252D01*
X131801192Y-28924644D01*
X131000584Y-29725252D01*
X131070049Y-29967436D01*
X131210585Y-30017574D01*
X131009855Y-30100719D01*
X130616872Y-30493702D01*
X130404192Y-31007158D01*
X109335917Y-31007158D01*
X109220272Y-30425775D01*
X108889052Y-29930070D01*
X108393347Y-29598850D01*
X107956220Y-29511900D01*
X107661024Y-29511900D01*
X107223897Y-29598850D01*
X106728192Y-29930070D01*
X106526768Y-30231521D01*
X106475443Y-30122010D01*
X106043569Y-29727812D01*
X105627648Y-29555542D01*
X105395622Y-29676683D01*
X105141622Y-29676683D01*
X104909596Y-29555542D01*
X104493675Y-29727812D01*
X104061801Y-30122010D01*
X103998622Y-30256813D01*
X103935443Y-30122010D01*
X103503569Y-29727812D01*
X103087648Y-29555542D01*
X102855622Y-29676683D01*
X102601622Y-29676683D01*
X102369596Y-29555542D01*
X101953675Y-29727812D01*
X101521801Y-30122010D01*
X101458622Y-30256813D01*
X101395443Y-30122010D01*
X100963569Y-29727812D01*
X100547648Y-29555542D01*
X100315622Y-29676683D01*
X100061622Y-29676683D01*
X99829596Y-29555542D01*
X99413675Y-29727812D01*
X99128142Y-29988436D01*
X99110379Y-29899135D01*
X98970031Y-29689091D01*
X98759987Y-29548743D01*
X98512222Y-29499460D01*
X96785022Y-29499460D01*
X96537257Y-29548743D01*
X96327213Y-29689091D01*
X96186865Y-29899135D01*
X96137582Y-30146900D01*
X96137582Y-31874100D01*
X96186865Y-32121865D01*
X96327213Y-32331909D01*
X96513623Y-32456465D01*
X96513623Y-32551739D01*
X96236972Y-32965775D01*
X96139825Y-33454165D01*
X93337672Y-36256319D01*
X93242904Y-36319641D01*
X93100697Y-36532469D01*
X92992046Y-36695076D01*
X92903957Y-37137930D01*
X92926192Y-37249713D01*
X92926192Y-37546755D01*
X92810327Y-37624174D01*
X92426858Y-38198076D01*
X92292202Y-38875039D01*
X91567192Y-38875039D01*
X91567192Y-28537341D01*
X130392048Y-28537341D01*
X130419830Y-29092407D01*
X130578795Y-29476182D01*
X130820979Y-29545647D01*
X131621587Y-28745039D01*
X131980797Y-28745039D01*
X132781405Y-29545647D01*
X133023589Y-29476182D01*
X133210336Y-28952737D01*
X133182554Y-28397671D01*
X133023589Y-28013896D01*
X132781405Y-27944431D01*
X131980797Y-28745039D01*
X131621587Y-28745039D01*
X130820979Y-27944431D01*
X130578795Y-28013896D01*
X130392048Y-28537341D01*
X91567192Y-28537341D01*
X91567192Y-27764826D01*
X131000584Y-27764826D01*
X131801192Y-28565434D01*
X132601800Y-27764826D01*
X132532335Y-27522642D01*
X132008890Y-27335895D01*
X131453824Y-27363677D01*
X131070049Y-27522642D01*
X131000584Y-27764826D01*
X91567192Y-27764826D01*
X91567192Y-25411039D01*
X137500351Y-25411039D01*
X137463752Y-25595039D01*
X137463752Y-25595039D01*
G37*
X137463752Y-25595039D02*
X137463752Y-27295039D01*
X137513035Y-27542804D01*
X137653383Y-27752848D01*
X137863427Y-27893196D01*
X137908811Y-27902223D01*
X137890567Y-27914414D01*
X137562353Y-28405621D01*
X137447100Y-28985039D01*
X137562353Y-29564457D01*
X137890567Y-30055664D01*
X138188953Y-30255039D01*
X137890567Y-30454414D01*
X137562353Y-30945621D01*
X137447100Y-31525039D01*
X137562353Y-32104457D01*
X137890567Y-32595664D01*
X138188953Y-32795039D01*
X137890567Y-32994414D01*
X137562353Y-33485621D01*
X137447100Y-34065039D01*
X137562353Y-34644457D01*
X137890567Y-35135664D01*
X138188953Y-35335039D01*
X137890567Y-35534414D01*
X137562353Y-36025621D01*
X137447100Y-36605039D01*
X137562353Y-37184457D01*
X137890567Y-37675664D01*
X138188953Y-37875039D01*
X137890567Y-38074414D01*
X137562353Y-38565621D01*
X137447100Y-39145039D01*
X137562353Y-39724457D01*
X137890567Y-40215664D01*
X138188953Y-40415039D01*
X137890567Y-40614414D01*
X137562353Y-41105621D01*
X137447100Y-41685039D01*
X137562353Y-42264457D01*
X137890567Y-42755664D01*
X138188953Y-42955039D01*
X137890567Y-43154414D01*
X137562353Y-43645621D01*
X137447100Y-44225039D01*
X137562353Y-44804457D01*
X137890567Y-45295664D01*
X138188953Y-45495039D01*
X137890567Y-45694414D01*
X137562353Y-46185621D01*
X137447100Y-46765039D01*
X137562353Y-47344457D01*
X137890567Y-47835664D01*
X138188953Y-48035039D01*
X137890567Y-48234414D01*
X137562353Y-48725621D01*
X137447100Y-49305039D01*
X137562353Y-49884457D01*
X137890567Y-50375664D01*
X138188953Y-50575039D01*
X137890567Y-50774414D01*
X137562353Y-51265621D01*
X137447100Y-51845039D01*
X137562353Y-52424457D01*
X137890567Y-52915664D01*
X138188953Y-53115039D01*
X137890567Y-53314414D01*
X137562353Y-53805621D01*
X137447100Y-54385039D01*
X137562353Y-54964457D01*
X137890567Y-55455664D01*
X138188953Y-55655039D01*
X137890567Y-55854414D01*
X137562353Y-56345621D01*
X137447100Y-56925039D01*
X137562353Y-57504457D01*
X137890567Y-57995664D01*
X138209670Y-58208882D01*
X138079834Y-58269856D01*
X137689547Y-58698115D01*
X137519716Y-59108149D01*
X137641037Y-59338039D01*
X138834192Y-59338039D01*
X138834192Y-59318039D01*
X139088192Y-59318039D01*
X139088192Y-59338039D01*
X139108192Y-59338039D01*
X139108192Y-59592039D01*
X139088192Y-59592039D01*
X139088192Y-59612039D01*
X138834192Y-59612039D01*
X138834192Y-59592039D01*
X137641037Y-59592039D01*
X137519716Y-59821929D01*
X137689547Y-60231963D01*
X138079834Y-60660222D01*
X138209670Y-60721196D01*
X137890567Y-60934414D01*
X137562353Y-61425621D01*
X137447100Y-62005039D01*
X137562353Y-62584457D01*
X137890567Y-63075664D01*
X138188953Y-63275039D01*
X137890567Y-63474414D01*
X137562353Y-63965621D01*
X137447100Y-64545039D01*
X137562353Y-65124457D01*
X137890567Y-65615664D01*
X138188953Y-65815039D01*
X137890567Y-66014414D01*
X137562353Y-66505621D01*
X137447100Y-67085039D01*
X137562353Y-67664457D01*
X137890567Y-68155664D01*
X138188953Y-68355039D01*
X137890567Y-68554414D01*
X137562353Y-69045621D01*
X137447100Y-69625039D01*
X137562353Y-70204457D01*
X137890567Y-70695664D01*
X138188953Y-70895039D01*
X137890567Y-71094414D01*
X137562353Y-71585621D01*
X137447100Y-72165039D01*
X137562353Y-72744457D01*
X137890567Y-73235664D01*
X138188953Y-73435039D01*
X137986911Y-73570039D01*
X137737171Y-73570039D01*
X135852208Y-71685077D01*
X135852207Y-71685074D01*
X135532926Y-71365793D01*
X135427616Y-71322172D01*
X135332854Y-71258854D01*
X135221073Y-71236619D01*
X135115766Y-71193000D01*
X135001783Y-71193000D01*
X134890000Y-71170765D01*
X134778217Y-71193000D01*
X134664234Y-71193000D01*
X134558927Y-71236619D01*
X134447146Y-71258854D01*
X134352384Y-71322172D01*
X134247074Y-71365793D01*
X134166472Y-71446395D01*
X134071712Y-71509712D01*
X134008395Y-71604472D01*
X133927793Y-71685074D01*
X133884172Y-71790384D01*
X133820854Y-71885146D01*
X133798619Y-71996927D01*
X133755000Y-72102234D01*
X133755000Y-72216217D01*
X133732765Y-72328000D01*
X133755000Y-72439783D01*
X133755000Y-72553766D01*
X133798619Y-72659073D01*
X133820854Y-72770854D01*
X133884172Y-72865616D01*
X133927793Y-72970926D01*
X134247074Y-73290207D01*
X134247077Y-73290208D01*
X136385428Y-75428560D01*
X136448750Y-75523328D01*
X136690768Y-75685039D01*
X136824184Y-75774185D01*
X137267039Y-75862274D01*
X137378822Y-75840039D01*
X137986911Y-75840039D01*
X138188953Y-75975039D01*
X137890567Y-76174414D01*
X137562353Y-76665621D01*
X137447100Y-77245039D01*
X137514117Y-77581956D01*
X134044784Y-81051290D01*
X133979239Y-81095086D01*
X133805738Y-81354748D01*
X133760192Y-81583724D01*
X133760192Y-81583727D01*
X133744814Y-81661039D01*
X133760192Y-81738351D01*
X133760193Y-94888327D01*
X133667761Y-94980759D01*
X133510192Y-95361165D01*
X133510192Y-95772913D01*
X133667761Y-96153319D01*
X133958912Y-96444470D01*
X134339318Y-96602039D01*
X134751066Y-96602039D01*
X134982193Y-96506303D01*
X134982193Y-98444327D01*
X134889761Y-98536759D01*
X134732192Y-98917165D01*
X134732192Y-99328913D01*
X134889761Y-99709319D01*
X135180912Y-100000470D01*
X135561318Y-100158039D01*
X135792193Y-100158039D01*
X135792193Y-100984327D01*
X135699761Y-101076759D01*
X135542192Y-101457165D01*
X135542192Y-101868913D01*
X135699761Y-102249319D01*
X135990912Y-102540470D01*
X136371318Y-102698039D01*
X136783066Y-102698039D01*
X136916192Y-102642897D01*
X136916192Y-105039881D01*
X136248035Y-105708039D01*
X136117318Y-105708039D01*
X135736912Y-105865608D01*
X135445761Y-106156759D01*
X135288192Y-106537165D01*
X135288192Y-106948913D01*
X135445761Y-107329319D01*
X135736912Y-107620470D01*
X136117318Y-107778039D01*
X136529066Y-107778039D01*
X136909472Y-107620470D01*
X137200623Y-107329319D01*
X137358192Y-106948913D01*
X137358192Y-106818196D01*
X137908645Y-106267743D01*
X138188953Y-106455039D01*
X137890567Y-106654414D01*
X137562353Y-107145621D01*
X137447100Y-107725039D01*
X137562353Y-108304457D01*
X137890567Y-108795664D01*
X138188953Y-108995039D01*
X137890567Y-109194414D01*
X137562353Y-109685621D01*
X137447100Y-110265039D01*
X137562353Y-110844457D01*
X137890567Y-111335664D01*
X138188953Y-111535039D01*
X137890567Y-111734414D01*
X137562353Y-112225621D01*
X137447100Y-112805039D01*
X137562353Y-113384457D01*
X137890567Y-113875664D01*
X138188953Y-114075039D01*
X137890567Y-114274414D01*
X137562353Y-114765621D01*
X137447100Y-115345039D01*
X137562353Y-115924457D01*
X137890567Y-116415664D01*
X138188953Y-116615039D01*
X137890567Y-116814414D01*
X137562353Y-117305621D01*
X137447100Y-117885039D01*
X137562353Y-118464457D01*
X137890567Y-118955664D01*
X137937523Y-118987039D01*
X91567192Y-118987039D01*
X91567192Y-91479600D01*
X96016192Y-91479600D01*
X96016192Y-92050478D01*
X96234658Y-92577901D01*
X96638330Y-92981573D01*
X96767408Y-93035039D01*
X96638330Y-93088505D01*
X96234658Y-93492177D01*
X96016192Y-94019600D01*
X96016192Y-94590478D01*
X96234658Y-95117901D01*
X96638330Y-95521573D01*
X96767408Y-95575039D01*
X96638330Y-95628505D01*
X96234658Y-96032177D01*
X96016192Y-96559600D01*
X96016192Y-97130478D01*
X96234658Y-97657901D01*
X96638330Y-98061573D01*
X96767408Y-98115039D01*
X96638330Y-98168505D01*
X96234658Y-98572177D01*
X96016192Y-99099600D01*
X96016192Y-99670478D01*
X96234658Y-100197901D01*
X96638330Y-100601573D01*
X96767408Y-100655039D01*
X96638330Y-100708505D01*
X96234658Y-101112177D01*
X96016192Y-101639600D01*
X96016192Y-102210478D01*
X96234658Y-102737901D01*
X96638330Y-103141573D01*
X96767408Y-103195039D01*
X96638330Y-103248505D01*
X96234658Y-103652177D01*
X96016192Y-104179600D01*
X96016192Y-104750478D01*
X96234658Y-105277901D01*
X96638330Y-105681573D01*
X96767408Y-105735039D01*
X96638330Y-105788505D01*
X96234658Y-106192177D01*
X96016192Y-106719600D01*
X96016192Y-107290478D01*
X96234658Y-107817901D01*
X96638330Y-108221573D01*
X97165753Y-108440039D01*
X97736631Y-108440039D01*
X98264054Y-108221573D01*
X98667726Y-107817901D01*
X98721192Y-107688823D01*
X98774658Y-107817901D01*
X99178330Y-108221573D01*
X99705753Y-108440039D01*
X100276631Y-108440039D01*
X100804054Y-108221573D01*
X101207726Y-107817901D01*
X101261192Y-107688823D01*
X101314658Y-107817901D01*
X101718330Y-108221573D01*
X102245753Y-108440039D01*
X102816631Y-108440039D01*
X103344054Y-108221573D01*
X103747726Y-107817901D01*
X103801192Y-107688823D01*
X103854658Y-107817901D01*
X104258330Y-108221573D01*
X104785753Y-108440039D01*
X105356631Y-108440039D01*
X105884054Y-108221573D01*
X106287726Y-107817901D01*
X106341192Y-107688823D01*
X106394658Y-107817901D01*
X106798330Y-108221573D01*
X107325753Y-108440039D01*
X107896631Y-108440039D01*
X108424054Y-108221573D01*
X108827726Y-107817901D01*
X108881192Y-107688823D01*
X108934658Y-107817901D01*
X109338330Y-108221573D01*
X109865753Y-108440039D01*
X109954193Y-108440039D01*
X109954192Y-116916328D01*
X109791761Y-117078759D01*
X109634192Y-117459165D01*
X109634192Y-117870913D01*
X109791761Y-118251319D01*
X110082912Y-118542470D01*
X110463318Y-118700039D01*
X110875066Y-118700039D01*
X111255472Y-118542470D01*
X111546623Y-118251319D01*
X111704192Y-117870913D01*
X111704192Y-117459165D01*
X111546623Y-117078759D01*
X111384192Y-116916328D01*
X111384192Y-107778149D01*
X111421192Y-107688823D01*
X111474658Y-107817901D01*
X111878330Y-108221573D01*
X111986193Y-108266251D01*
X111986192Y-112090328D01*
X111823761Y-112252759D01*
X111666192Y-112633165D01*
X111666192Y-113044913D01*
X111823761Y-113425319D01*
X112114912Y-113716470D01*
X112495318Y-113874039D01*
X112907066Y-113874039D01*
X113287472Y-113716470D01*
X113578623Y-113425319D01*
X113736192Y-113044913D01*
X113736192Y-112633165D01*
X113578623Y-112252759D01*
X113416192Y-112090328D01*
X113416192Y-108257967D01*
X113504054Y-108221573D01*
X113907726Y-107817901D01*
X113961192Y-107688823D01*
X114014658Y-107817901D01*
X114418330Y-108221573D01*
X114945753Y-108440039D01*
X115516631Y-108440039D01*
X115796192Y-108324241D01*
X115796192Y-114376328D01*
X115633761Y-114538759D01*
X115476192Y-114919165D01*
X115476192Y-115330913D01*
X115633761Y-115711319D01*
X115924912Y-116002470D01*
X116305318Y-116160039D01*
X116717066Y-116160039D01*
X117097472Y-116002470D01*
X117388623Y-115711319D01*
X117546192Y-115330913D01*
X117546192Y-114919165D01*
X117388623Y-114538759D01*
X117226192Y-114376328D01*
X117226192Y-108332525D01*
X117485753Y-108440039D01*
X118056631Y-108440039D01*
X118584054Y-108221573D01*
X118987726Y-107817901D01*
X119041192Y-107688823D01*
X119094658Y-107817901D01*
X119498330Y-108221573D01*
X120025753Y-108440039D01*
X120596631Y-108440039D01*
X121124054Y-108221573D01*
X121527726Y-107817901D01*
X121581192Y-107688823D01*
X121634658Y-107817901D01*
X122038330Y-108221573D01*
X122565753Y-108440039D01*
X123136631Y-108440039D01*
X123653667Y-108225876D01*
X123670193Y-108242402D01*
X123670192Y-109296328D01*
X123507761Y-109458759D01*
X123350192Y-109839165D01*
X123350192Y-110250913D01*
X123507761Y-110631319D01*
X123798912Y-110922470D01*
X124179318Y-111080039D01*
X124591066Y-111080039D01*
X124971472Y-110922470D01*
X125262623Y-110631319D01*
X125420192Y-110250913D01*
X125420192Y-109839165D01*
X125262623Y-109458759D01*
X125100192Y-109296328D01*
X125100192Y-108437736D01*
X125105753Y-108440039D01*
X125676631Y-108440039D01*
X126204054Y-108221573D01*
X126607726Y-107817901D01*
X126661192Y-107688823D01*
X126714658Y-107817901D01*
X127118330Y-108221573D01*
X127645753Y-108440039D01*
X128216631Y-108440039D01*
X128744054Y-108221573D01*
X129046454Y-107919173D01*
X129073035Y-108052804D01*
X129213383Y-108262848D01*
X129423427Y-108403196D01*
X129671192Y-108452479D01*
X131271192Y-108452479D01*
X131518957Y-108403196D01*
X131729001Y-108262848D01*
X131869349Y-108052804D01*
X131918632Y-107805039D01*
X131918632Y-106205039D01*
X131869349Y-105957274D01*
X131729001Y-105747230D01*
X131518957Y-105606882D01*
X131271192Y-105557599D01*
X129671192Y-105557599D01*
X129423427Y-105606882D01*
X129213383Y-105747230D01*
X129073035Y-105957274D01*
X129046454Y-106090905D01*
X128980192Y-106024643D01*
X128980192Y-104141750D01*
X129072623Y-104049319D01*
X129230192Y-103668913D01*
X129230192Y-103257165D01*
X129072623Y-102876759D01*
X128781472Y-102585608D01*
X128401066Y-102428039D01*
X127989318Y-102428039D01*
X127608912Y-102585608D01*
X127317761Y-102876759D01*
X127160192Y-103257165D01*
X127160192Y-103668913D01*
X127317761Y-104049319D01*
X127410192Y-104141750D01*
X127410193Y-105667611D01*
X127118330Y-105788505D01*
X126714658Y-106192177D01*
X126661192Y-106321255D01*
X126607726Y-106192177D01*
X126204054Y-105788505D01*
X125676631Y-105570039D01*
X125105753Y-105570039D01*
X124706193Y-105735542D01*
X124706193Y-94019600D01*
X126496192Y-94019600D01*
X126496192Y-94590478D01*
X126714658Y-95117901D01*
X127118330Y-95521573D01*
X127645753Y-95740039D01*
X128216631Y-95740039D01*
X128744054Y-95521573D01*
X129147726Y-95117901D01*
X129366192Y-94590478D01*
X129366192Y-94019600D01*
X129147726Y-93492177D01*
X128744054Y-93088505D01*
X128630609Y-93041514D01*
X128685197Y-93018903D01*
X128759331Y-92772784D01*
X127931192Y-91944644D01*
X127103053Y-92772784D01*
X127177187Y-93018903D01*
X127235640Y-93039913D01*
X127118330Y-93088505D01*
X126714658Y-93492177D01*
X126496192Y-94019600D01*
X124706193Y-94019600D01*
X124706193Y-93034536D01*
X125105753Y-93200039D01*
X125676631Y-93200039D01*
X126204054Y-92981573D01*
X126607726Y-92577901D01*
X126654717Y-92464456D01*
X126677328Y-92519044D01*
X126923447Y-92593178D01*
X127751587Y-91765039D01*
X128110797Y-91765039D01*
X128938937Y-92593178D01*
X129185056Y-92519044D01*
X129206066Y-92460591D01*
X129254658Y-92577901D01*
X129658330Y-92981573D01*
X130185753Y-93200039D01*
X130756631Y-93200039D01*
X131284054Y-92981573D01*
X131687726Y-92577901D01*
X131906192Y-92050478D01*
X131906192Y-91935170D01*
X133236713Y-90604650D01*
X133331481Y-90541328D01*
X133582338Y-90165894D01*
X133648192Y-89834822D01*
X133648192Y-89834821D01*
X133670427Y-89723040D01*
X133648192Y-89611257D01*
X133648192Y-65035120D01*
X133673793Y-65096926D01*
X133754392Y-65177525D01*
X133817711Y-65272289D01*
X133912476Y-65335609D01*
X133993074Y-65416207D01*
X134098380Y-65459826D01*
X134193145Y-65523146D01*
X134304928Y-65545381D01*
X134410234Y-65589000D01*
X134524217Y-65589000D01*
X134636000Y-65611235D01*
X134747783Y-65589000D01*
X134861766Y-65589000D01*
X134967073Y-65545381D01*
X135078854Y-65523146D01*
X135173618Y-65459827D01*
X135278926Y-65416207D01*
X135359525Y-65335608D01*
X135454289Y-65272289D01*
X135517609Y-65177524D01*
X135598207Y-65096926D01*
X135641826Y-64991620D01*
X135705146Y-64896855D01*
X135727381Y-64785072D01*
X135771000Y-64679766D01*
X135771000Y-64311782D01*
X135793235Y-64199999D01*
X135705146Y-63757145D01*
X135618935Y-63628121D01*
X135454289Y-63381711D01*
X135359521Y-63318389D01*
X133312208Y-61271077D01*
X133312207Y-61271074D01*
X132992926Y-60951793D01*
X132887616Y-60908172D01*
X132792854Y-60844854D01*
X132681073Y-60822619D01*
X132575766Y-60779000D01*
X132461783Y-60779000D01*
X132350000Y-60756765D01*
X132238217Y-60779000D01*
X132124234Y-60779000D01*
X132018927Y-60822619D01*
X131907146Y-60844854D01*
X131812384Y-60908172D01*
X131707074Y-60951793D01*
X131626472Y-61032395D01*
X131531712Y-61095712D01*
X131468395Y-61190472D01*
X131387793Y-61271074D01*
X131344172Y-61376384D01*
X131280854Y-61471146D01*
X131258619Y-61582927D01*
X131215000Y-61688234D01*
X131215000Y-61802217D01*
X131192765Y-61914000D01*
X131215000Y-62025783D01*
X131215000Y-62139766D01*
X131258619Y-62245073D01*
X131280854Y-62356854D01*
X131344172Y-62451616D01*
X131387793Y-62556926D01*
X131707074Y-62876207D01*
X131707077Y-62876208D01*
X132134082Y-63303214D01*
X132070338Y-63315893D01*
X131975575Y-63379212D01*
X131870266Y-63422832D01*
X131789666Y-63503432D01*
X131694904Y-63566750D01*
X131631586Y-63661512D01*
X131550985Y-63742113D01*
X131507364Y-63847423D01*
X131444047Y-63942184D01*
X131421813Y-64053962D01*
X131378192Y-64159273D01*
X131378192Y-64610805D01*
X131378193Y-64610807D01*
X131378192Y-89252907D01*
X130301061Y-90330039D01*
X130185753Y-90330039D01*
X129658330Y-90548505D01*
X129254658Y-90952177D01*
X129207667Y-91065622D01*
X129185056Y-91011034D01*
X128938937Y-90936900D01*
X128110797Y-91765039D01*
X127751587Y-91765039D01*
X126923447Y-90936900D01*
X126677328Y-91011034D01*
X126656318Y-91069487D01*
X126607726Y-90952177D01*
X126412843Y-90757294D01*
X127103053Y-90757294D01*
X127931192Y-91585434D01*
X128759331Y-90757294D01*
X128685197Y-90511175D01*
X128147969Y-90318074D01*
X127577738Y-90345261D01*
X127177187Y-90511175D01*
X127103053Y-90757294D01*
X126412843Y-90757294D01*
X126204054Y-90548505D01*
X125676631Y-90330039D01*
X125396349Y-90330039D01*
X126771604Y-88954785D01*
X126837146Y-88910991D01*
X126880940Y-88845449D01*
X126880942Y-88845447D01*
X127010646Y-88651331D01*
X127010647Y-88651330D01*
X127056193Y-88422354D01*
X127056193Y-88422350D01*
X127071571Y-88345039D01*
X127056193Y-88267728D01*
X127056193Y-82049842D01*
X127257472Y-81966470D01*
X127548623Y-81675319D01*
X127706192Y-81294913D01*
X127706192Y-80883165D01*
X127548623Y-80502759D01*
X127257472Y-80211608D01*
X126877066Y-80054039D01*
X126465318Y-80054039D01*
X126084912Y-80211608D01*
X125793761Y-80502759D01*
X125636192Y-80883165D01*
X125636192Y-81026422D01*
X125531739Y-81182747D01*
X125486193Y-81411723D01*
X125486193Y-81411726D01*
X125470815Y-81489038D01*
X125486193Y-81566350D01*
X125486194Y-88019879D01*
X123164494Y-90341580D01*
X123136631Y-90330039D01*
X122856349Y-90330039D01*
X124377600Y-88808788D01*
X124443145Y-88764992D01*
X124616646Y-88505331D01*
X124662192Y-88276355D01*
X124662192Y-88276351D01*
X124677570Y-88199039D01*
X124662192Y-88121727D01*
X124662192Y-81259750D01*
X124754623Y-81167319D01*
X124912192Y-80786913D01*
X124912192Y-80375165D01*
X124754623Y-79994759D01*
X124463472Y-79703608D01*
X124083066Y-79546039D01*
X123671318Y-79546039D01*
X123290912Y-79703608D01*
X122999761Y-79994759D01*
X122946192Y-80124086D01*
X122946192Y-78207172D01*
X122980266Y-78241246D01*
X123085572Y-78284865D01*
X123180337Y-78348185D01*
X123292120Y-78370420D01*
X123397426Y-78414039D01*
X123511409Y-78414039D01*
X123623192Y-78436274D01*
X123734975Y-78414039D01*
X123848958Y-78414039D01*
X123954265Y-78370420D01*
X124066046Y-78348185D01*
X124160810Y-78284866D01*
X124266118Y-78241246D01*
X124346717Y-78160647D01*
X124441481Y-78097328D01*
X124504801Y-78002563D01*
X124585399Y-77921965D01*
X124629018Y-77816659D01*
X124692338Y-77721894D01*
X124714573Y-77610111D01*
X124758192Y-77504805D01*
X124758192Y-43438822D01*
X124780427Y-43327039D01*
X124746090Y-43154414D01*
X124692338Y-42884184D01*
X124441481Y-42508750D01*
X124346711Y-42445427D01*
X124242805Y-42341521D01*
X124179481Y-42246750D01*
X123804047Y-41995893D01*
X123795472Y-41994187D01*
X117958192Y-36156908D01*
X117958192Y-36087158D01*
X117745512Y-35573702D01*
X117352529Y-35180719D01*
X116839073Y-34968039D01*
X116283311Y-34968039D01*
X115769855Y-35180719D01*
X115376872Y-35573702D01*
X115164192Y-36087158D01*
X115164192Y-36642920D01*
X115376872Y-37156376D01*
X115769855Y-37549359D01*
X115976705Y-37635039D01*
X115769855Y-37720719D01*
X115376872Y-38113702D01*
X115164192Y-38627158D01*
X115164192Y-39182920D01*
X115376872Y-39696376D01*
X115769855Y-40089359D01*
X115960839Y-40168467D01*
X115830049Y-40222642D01*
X115760584Y-40464826D01*
X116561192Y-41265434D01*
X117361800Y-40464826D01*
X117292335Y-40222642D01*
X117151799Y-40172504D01*
X117352529Y-40089359D01*
X117745512Y-39696376D01*
X117904226Y-39313205D01*
X119912021Y-41321000D01*
X119698126Y-41321000D01*
X119317720Y-41478569D01*
X119026569Y-41769720D01*
X118869000Y-42150126D01*
X118869000Y-42512579D01*
X118849622Y-42610000D01*
X118865001Y-42687317D01*
X118865000Y-65675185D01*
X118690289Y-65413711D01*
X118595522Y-65350390D01*
X115278208Y-62033077D01*
X115278207Y-62033074D01*
X114958926Y-61713793D01*
X114853616Y-61670172D01*
X114758854Y-61606854D01*
X114647073Y-61584619D01*
X114541766Y-61541000D01*
X114427783Y-61541000D01*
X114316000Y-61518765D01*
X114204217Y-61541000D01*
X114090234Y-61541000D01*
X113984927Y-61584619D01*
X113873146Y-61606854D01*
X113778384Y-61670172D01*
X113673074Y-61713793D01*
X113592472Y-61794395D01*
X113497712Y-61857712D01*
X113434395Y-61952472D01*
X113353793Y-62033074D01*
X113310172Y-62138384D01*
X113246854Y-62233146D01*
X113224619Y-62344927D01*
X113181000Y-62450234D01*
X113181000Y-62564217D01*
X113158765Y-62676000D01*
X113181000Y-62787783D01*
X113181000Y-62901766D01*
X113224619Y-63007073D01*
X113246854Y-63118854D01*
X113310172Y-63213616D01*
X113353793Y-63318926D01*
X113673074Y-63638207D01*
X113673077Y-63638208D01*
X116737000Y-66702132D01*
X116737001Y-71848232D01*
X116737000Y-71848234D01*
X116737000Y-72299766D01*
X116780621Y-72405077D01*
X116802855Y-72516855D01*
X116866172Y-72611616D01*
X116909793Y-72716926D01*
X116990394Y-72797527D01*
X117053712Y-72892289D01*
X117148474Y-72955607D01*
X117229074Y-73036207D01*
X117334383Y-73079827D01*
X117429146Y-73143146D01*
X117540927Y-73165381D01*
X117646234Y-73209000D01*
X117760217Y-73209000D01*
X117872000Y-73231235D01*
X117983783Y-73209000D01*
X118097766Y-73209000D01*
X118203072Y-73165381D01*
X118314855Y-73143146D01*
X118409620Y-73079826D01*
X118514926Y-73036207D01*
X118595524Y-72955609D01*
X118690289Y-72892289D01*
X118753609Y-72797524D01*
X118834207Y-72716926D01*
X118865000Y-72642585D01*
X118865000Y-77999289D01*
X118772569Y-78091720D01*
X118615000Y-78472126D01*
X118615000Y-78883874D01*
X118772569Y-79264280D01*
X119063720Y-79555431D01*
X119444126Y-79713000D01*
X119855874Y-79713000D01*
X120236280Y-79555431D01*
X120276192Y-79515519D01*
X120276192Y-81707727D01*
X120260814Y-81785039D01*
X120276192Y-81862351D01*
X120276192Y-81862354D01*
X120304226Y-82003290D01*
X120308964Y-82027109D01*
X113336035Y-89000039D01*
X112208504Y-89000039D01*
X112131192Y-88984661D01*
X112053880Y-89000039D01*
X112053876Y-89000039D01*
X111824900Y-89045585D01*
X111630783Y-89175290D01*
X111630781Y-89175292D01*
X111565239Y-89219086D01*
X111521445Y-89284628D01*
X110464494Y-90341580D01*
X110436631Y-90330039D01*
X109865753Y-90330039D01*
X109338330Y-90548505D01*
X108934658Y-90952177D01*
X108881192Y-91081255D01*
X108827726Y-90952177D01*
X108424054Y-90548505D01*
X107896631Y-90330039D01*
X107325753Y-90330039D01*
X106798330Y-90548505D01*
X106394658Y-90952177D01*
X106341192Y-91081255D01*
X106287726Y-90952177D01*
X105884054Y-90548505D01*
X105356631Y-90330039D01*
X104785753Y-90330039D01*
X104258330Y-90548505D01*
X103854658Y-90952177D01*
X103801192Y-91081255D01*
X103747726Y-90952177D01*
X103344054Y-90548505D01*
X102816631Y-90330039D01*
X102245753Y-90330039D01*
X101718330Y-90548505D01*
X101314658Y-90952177D01*
X101261192Y-91081255D01*
X101207726Y-90952177D01*
X100804054Y-90548505D01*
X100276631Y-90330039D01*
X99705753Y-90330039D01*
X99178330Y-90548505D01*
X98774658Y-90952177D01*
X98721192Y-91081255D01*
X98667726Y-90952177D01*
X98264054Y-90548505D01*
X97736631Y-90330039D01*
X97165753Y-90330039D01*
X96638330Y-90548505D01*
X96234658Y-90952177D01*
X96016192Y-91479600D01*
X91567192Y-91479600D01*
X91567192Y-82407165D01*
X99728192Y-82407165D01*
X99728192Y-82818913D01*
X99885761Y-83199319D01*
X100176912Y-83490470D01*
X100557318Y-83648039D01*
X100688035Y-83648039D01*
X102185445Y-85145450D01*
X102229239Y-85210992D01*
X102294781Y-85254786D01*
X102294783Y-85254788D01*
X102460396Y-85365447D01*
X102488900Y-85384493D01*
X102717876Y-85430039D01*
X102717880Y-85430039D01*
X102795192Y-85445417D01*
X102872504Y-85430039D01*
X106180481Y-85430039D01*
X106272912Y-85522470D01*
X106653318Y-85680039D01*
X107065066Y-85680039D01*
X107445472Y-85522470D01*
X107736623Y-85231319D01*
X107894192Y-84850913D01*
X107894192Y-84439165D01*
X107736623Y-84058759D01*
X107560903Y-83883039D01*
X107736623Y-83707319D01*
X107894192Y-83326913D01*
X107894192Y-82915165D01*
X107736623Y-82534759D01*
X107445472Y-82243608D01*
X107065066Y-82086039D01*
X106934349Y-82086039D01*
X106706941Y-81858631D01*
X106663145Y-81793086D01*
X106403484Y-81619585D01*
X106174508Y-81574039D01*
X106174504Y-81574039D01*
X106097192Y-81558661D01*
X106019880Y-81574039D01*
X103727903Y-81574039D01*
X103635472Y-81481608D01*
X103255066Y-81324039D01*
X102843318Y-81324039D01*
X102462912Y-81481608D01*
X102171761Y-81772759D01*
X102014192Y-82153165D01*
X102014192Y-82564913D01*
X102147812Y-82887502D01*
X101798192Y-82537882D01*
X101798192Y-82407165D01*
X101640623Y-82026759D01*
X101349472Y-81735608D01*
X100969066Y-81578039D01*
X100557318Y-81578039D01*
X100176912Y-81735608D01*
X99885761Y-82026759D01*
X99728192Y-82407165D01*
X91567192Y-82407165D01*
X91567192Y-74496172D01*
X91618266Y-74547246D01*
X91618269Y-74547247D01*
X91979579Y-74908557D01*
X92042903Y-75003328D01*
X92340689Y-75202302D01*
X92303383Y-75227230D01*
X92163035Y-75437274D01*
X92113752Y-75685039D01*
X92113752Y-77285039D01*
X92163035Y-77532804D01*
X92303383Y-77742848D01*
X92513427Y-77883196D01*
X92761192Y-77932479D01*
X94361192Y-77932479D01*
X94608957Y-77883196D01*
X94818708Y-77743044D01*
X95344415Y-77932004D01*
X95914646Y-77904817D01*
X96315197Y-77738903D01*
X96389331Y-77492784D01*
X95561192Y-76664644D01*
X95547050Y-76678787D01*
X95367445Y-76499182D01*
X95381587Y-76485039D01*
X95740797Y-76485039D01*
X96568937Y-77313178D01*
X96815056Y-77239044D01*
X97008157Y-76701816D01*
X96980970Y-76131585D01*
X96961690Y-76085039D01*
X107313752Y-76085039D01*
X107313752Y-77685039D01*
X107363035Y-77932804D01*
X107503383Y-78142848D01*
X107713427Y-78283196D01*
X107961192Y-78332479D01*
X109561192Y-78332479D01*
X109808957Y-78283196D01*
X110018708Y-78143044D01*
X110544415Y-78332004D01*
X111114646Y-78304817D01*
X111515197Y-78138903D01*
X111589331Y-77892784D01*
X110761192Y-77064644D01*
X110747050Y-77078787D01*
X110567445Y-76899182D01*
X110581587Y-76885039D01*
X110940797Y-76885039D01*
X111768937Y-77713178D01*
X112015056Y-77639044D01*
X112208157Y-77101816D01*
X112180970Y-76531585D01*
X112015056Y-76131034D01*
X111768937Y-76056900D01*
X110940797Y-76885039D01*
X110581587Y-76885039D01*
X110567445Y-76870897D01*
X110747050Y-76691291D01*
X110761192Y-76705434D01*
X111589331Y-75877294D01*
X111515197Y-75631175D01*
X110977969Y-75438074D01*
X110407738Y-75465261D01*
X110018125Y-75626644D01*
X109808957Y-75486882D01*
X109561192Y-75437599D01*
X107961192Y-75437599D01*
X107713427Y-75486882D01*
X107503383Y-75627230D01*
X107363035Y-75837274D01*
X107313752Y-76085039D01*
X96961690Y-76085039D01*
X96815056Y-75731034D01*
X96568937Y-75656900D01*
X95740797Y-76485039D01*
X95381587Y-76485039D01*
X95367445Y-76470897D01*
X95547050Y-76291291D01*
X95561192Y-76305434D01*
X96389331Y-75477294D01*
X96341964Y-75320039D01*
X112886958Y-75320039D01*
X112992264Y-75276420D01*
X113104047Y-75254185D01*
X113198812Y-75190865D01*
X113304118Y-75147246D01*
X113384717Y-75066647D01*
X113479481Y-75003328D01*
X113542801Y-74908563D01*
X113623399Y-74827965D01*
X113667018Y-74722659D01*
X113730338Y-74627894D01*
X113752573Y-74516111D01*
X113796192Y-74410805D01*
X113796192Y-74296822D01*
X113818427Y-74185039D01*
X113796192Y-74073256D01*
X113796192Y-73959273D01*
X113752573Y-73853967D01*
X113730338Y-73742184D01*
X113667018Y-73647419D01*
X113623399Y-73542113D01*
X113542801Y-73461515D01*
X113479481Y-73366750D01*
X113384716Y-73303430D01*
X113304118Y-73222832D01*
X113198812Y-73179213D01*
X113104047Y-73115893D01*
X112992264Y-73093658D01*
X112925972Y-73066199D01*
X112948692Y-73011349D01*
X112948692Y-72170789D01*
X112789942Y-72012039D01*
X111488192Y-72012039D01*
X111488192Y-72032039D01*
X111234192Y-72032039D01*
X111234192Y-72012039D01*
X111214192Y-72012039D01*
X111214192Y-71758039D01*
X111234192Y-71758039D01*
X111234192Y-71738039D01*
X111488192Y-71738039D01*
X111488192Y-71758039D01*
X112789942Y-71758039D01*
X112948692Y-71599289D01*
X112948692Y-70758729D01*
X112852019Y-70525340D01*
X112673390Y-70346712D01*
X112440001Y-70250039D01*
X111646942Y-70250039D01*
X111488194Y-70408787D01*
X111488194Y-70297960D01*
X111498812Y-70290865D01*
X111604118Y-70247246D01*
X111684716Y-70166648D01*
X111779481Y-70103328D01*
X111842801Y-70008563D01*
X111923399Y-69927965D01*
X111967018Y-69822659D01*
X112030338Y-69727894D01*
X112052573Y-69616111D01*
X112096192Y-69510805D01*
X112096192Y-69396822D01*
X112118427Y-69285039D01*
X112096192Y-69173256D01*
X112096192Y-69059273D01*
X112052573Y-68953967D01*
X112030338Y-68842184D01*
X111967018Y-68747419D01*
X111923399Y-68642113D01*
X111842801Y-68561515D01*
X111779481Y-68466750D01*
X111684716Y-68403430D01*
X111604118Y-68322832D01*
X111498812Y-68279213D01*
X111404047Y-68215893D01*
X111292264Y-68193658D01*
X111186958Y-68150039D01*
X104135426Y-68150039D01*
X104030120Y-68193658D01*
X103918337Y-68215893D01*
X103823572Y-68279213D01*
X103718266Y-68322832D01*
X103637668Y-68403430D01*
X103542903Y-68466750D01*
X103479583Y-68561515D01*
X103398985Y-68642113D01*
X103355366Y-68747419D01*
X103292046Y-68842184D01*
X103269811Y-68953967D01*
X103226192Y-69059273D01*
X103226192Y-69173256D01*
X103203957Y-69285039D01*
X103226192Y-69396822D01*
X103226192Y-69510805D01*
X103269811Y-69616111D01*
X103292046Y-69727894D01*
X103355366Y-69822659D01*
X103398985Y-69927965D01*
X103479583Y-70008563D01*
X103542903Y-70103328D01*
X103637668Y-70166648D01*
X103718266Y-70247246D01*
X103823572Y-70290865D01*
X103918337Y-70354185D01*
X104030120Y-70376420D01*
X104135426Y-70420039D01*
X105545209Y-70420039D01*
X105136669Y-70693016D01*
X104785801Y-71218128D01*
X104693692Y-71681189D01*
X104693692Y-72088888D01*
X104785801Y-72551949D01*
X105118613Y-73050039D01*
X101146718Y-73050039D01*
X101152019Y-73044738D01*
X101248692Y-72811349D01*
X101248692Y-71970789D01*
X101089942Y-71812039D01*
X99788192Y-71812039D01*
X99788192Y-71832039D01*
X99534192Y-71832039D01*
X99534192Y-71812039D01*
X99514192Y-71812039D01*
X99514192Y-71558039D01*
X99534192Y-71558039D01*
X99534192Y-70208789D01*
X99788192Y-70208789D01*
X99788192Y-71558039D01*
X101089942Y-71558039D01*
X101248692Y-71399289D01*
X101248692Y-70558729D01*
X101152019Y-70325340D01*
X100973390Y-70146712D01*
X100740001Y-70050039D01*
X99946942Y-70050039D01*
X99788192Y-70208789D01*
X99534192Y-70208789D01*
X99375442Y-70050039D01*
X98582383Y-70050039D01*
X98348994Y-70146712D01*
X98170365Y-70325340D01*
X98136636Y-70406768D01*
X97740603Y-70142148D01*
X97121192Y-70018939D01*
X96501782Y-70142148D01*
X95976669Y-70493016D01*
X95851192Y-70680806D01*
X95725715Y-70493016D01*
X95200603Y-70142148D01*
X94581192Y-70018939D01*
X93961782Y-70142148D01*
X93436669Y-70493016D01*
X93085801Y-71018128D01*
X92993692Y-71481189D01*
X92993692Y-71888888D01*
X93085801Y-72351949D01*
X93436669Y-72877062D01*
X93695548Y-73050039D01*
X93331323Y-73050039D01*
X93223400Y-72942116D01*
X93223399Y-72942113D01*
X92904118Y-72622832D01*
X92798808Y-72579211D01*
X92704046Y-72515893D01*
X92592265Y-72493658D01*
X92486958Y-72450039D01*
X92372975Y-72450039D01*
X92261192Y-72427804D01*
X92149409Y-72450039D01*
X92035426Y-72450039D01*
X91930119Y-72493658D01*
X91818338Y-72515893D01*
X91723576Y-72579211D01*
X91618266Y-72622832D01*
X91567192Y-72673906D01*
X91567192Y-58799600D01*
X108426192Y-58799600D01*
X108426192Y-59370478D01*
X108644658Y-59897901D01*
X109048330Y-60301573D01*
X109575753Y-60520039D01*
X110146631Y-60520039D01*
X110607336Y-60329209D01*
X110701494Y-60423366D01*
X110934883Y-60520039D01*
X111575442Y-60520039D01*
X111734192Y-60361289D01*
X111734192Y-59212039D01*
X111988192Y-59212039D01*
X111988192Y-60361289D01*
X112146942Y-60520039D01*
X112787501Y-60520039D01*
X113020890Y-60423366D01*
X113199519Y-60244738D01*
X113296192Y-60011349D01*
X113296192Y-59370789D01*
X113137442Y-59212039D01*
X111988192Y-59212039D01*
X111734192Y-59212039D01*
X111714192Y-59212039D01*
X111714192Y-58958039D01*
X111734192Y-58958039D01*
X111734192Y-57808789D01*
X111988192Y-57808789D01*
X111988192Y-58958039D01*
X113137442Y-58958039D01*
X113296192Y-58799289D01*
X113296192Y-58158729D01*
X113199519Y-57925340D01*
X113020890Y-57746712D01*
X112787501Y-57650039D01*
X112146942Y-57650039D01*
X111988192Y-57808789D01*
X111734192Y-57808789D01*
X111575442Y-57650039D01*
X110934883Y-57650039D01*
X110701494Y-57746712D01*
X110607336Y-57840869D01*
X110146631Y-57650039D01*
X109575753Y-57650039D01*
X109048330Y-57868505D01*
X108644658Y-58272177D01*
X108426192Y-58799600D01*
X91567192Y-58799600D01*
X91567192Y-54668262D01*
X97214227Y-54668262D01*
X97241414Y-55238493D01*
X97407328Y-55639044D01*
X97653447Y-55713178D01*
X98481587Y-54885039D01*
X97653447Y-54056900D01*
X97407328Y-54131034D01*
X97214227Y-54668262D01*
X91567192Y-54668262D01*
X91567192Y-53877294D01*
X97833053Y-53877294D01*
X98661192Y-54705434D01*
X98675334Y-54691291D01*
X98854940Y-54870897D01*
X98840797Y-54885039D01*
X98854940Y-54899182D01*
X98675334Y-55078787D01*
X98661192Y-55064644D01*
X97833053Y-55892784D01*
X97907187Y-56138903D01*
X98444415Y-56332004D01*
X99014646Y-56304817D01*
X99404259Y-56143434D01*
X99613427Y-56283196D01*
X99861192Y-56332479D01*
X101461192Y-56332479D01*
X101708957Y-56283196D01*
X101919001Y-56142848D01*
X102059349Y-55932804D01*
X102108632Y-55685039D01*
X102108632Y-54085039D01*
X102059349Y-53837274D01*
X101919001Y-53627230D01*
X101708957Y-53486882D01*
X101461192Y-53437599D01*
X99861192Y-53437599D01*
X99613427Y-53486882D01*
X99403676Y-53627034D01*
X98877969Y-53438074D01*
X98307738Y-53465261D01*
X97907187Y-53631175D01*
X97833053Y-53877294D01*
X91567192Y-53877294D01*
X91567192Y-38875039D01*
X92292202Y-38875039D01*
X92426858Y-39552002D01*
X92810327Y-40125904D01*
X93384229Y-40509373D01*
X93890312Y-40610039D01*
X94232072Y-40610039D01*
X94605300Y-40535800D01*
X94203500Y-40937599D01*
X92961192Y-40937599D01*
X92713427Y-40986882D01*
X92503383Y-41127230D01*
X92363035Y-41337274D01*
X92313752Y-41585039D01*
X92313752Y-43785039D01*
X92363035Y-44032804D01*
X92503383Y-44242848D01*
X92713427Y-44383196D01*
X92926192Y-44425517D01*
X92926193Y-46854009D01*
X92760927Y-46886882D01*
X92550883Y-47027230D01*
X92410535Y-47237274D01*
X92361252Y-47485039D01*
X92361252Y-49485039D01*
X92410535Y-49732804D01*
X92550883Y-49942848D01*
X92760927Y-50083196D01*
X93008692Y-50132479D01*
X94913692Y-50132479D01*
X95161457Y-50083196D01*
X95371501Y-49942848D01*
X95508447Y-49737896D01*
X95634268Y-49861012D01*
X96128212Y-50075602D01*
X96374192Y-49955633D01*
X96374192Y-48612039D01*
X96354192Y-48612039D01*
X96354192Y-48358039D01*
X96374192Y-48358039D01*
X96374192Y-47014445D01*
X96628192Y-47014445D01*
X96628192Y-48358039D01*
X96648192Y-48358039D01*
X96648192Y-48612039D01*
X96628192Y-48612039D01*
X96628192Y-49955633D01*
X96874172Y-50075602D01*
X97368116Y-49861012D01*
X97762033Y-49475565D01*
X97896669Y-49677062D01*
X98421782Y-50027930D01*
X99041192Y-50151139D01*
X99660603Y-50027930D01*
X100185715Y-49677062D01*
X100536583Y-49151949D01*
X100628692Y-48688888D01*
X100628692Y-48281189D01*
X100536583Y-47818128D01*
X100185715Y-47293016D01*
X99660602Y-46942148D01*
X99041192Y-46818939D01*
X98421781Y-46942148D01*
X97896669Y-47293016D01*
X97762033Y-47494513D01*
X97368116Y-47109066D01*
X96874172Y-46894476D01*
X96628192Y-47014445D01*
X96374192Y-47014445D01*
X96128212Y-46894476D01*
X95634268Y-47109066D01*
X95508447Y-47232182D01*
X95371501Y-47027230D01*
X95196192Y-46910091D01*
X95196192Y-44425517D01*
X95408957Y-44383196D01*
X95619001Y-44242848D01*
X95759349Y-44032804D01*
X95808632Y-43785039D01*
X95808632Y-42542731D01*
X96325329Y-42026033D01*
X96403383Y-42142848D01*
X96613427Y-42283196D01*
X96861192Y-42332479D01*
X98461192Y-42332479D01*
X98708957Y-42283196D01*
X98919001Y-42142848D01*
X99059349Y-41932804D01*
X99067309Y-41892784D01*
X99333053Y-41892784D01*
X99407187Y-42138903D01*
X99944415Y-42332004D01*
X100514646Y-42304817D01*
X100915197Y-42138903D01*
X100989331Y-41892784D01*
X100161192Y-41064644D01*
X99333053Y-41892784D01*
X99067309Y-41892784D01*
X99105885Y-41698852D01*
X99153447Y-41713178D01*
X99981587Y-40885039D01*
X100340797Y-40885039D01*
X101168937Y-41713178D01*
X101415056Y-41639044D01*
X101511477Y-41370789D01*
X102126192Y-41370789D01*
X102126192Y-42011349D01*
X102222865Y-42244738D01*
X102401494Y-42423366D01*
X102634883Y-42520039D01*
X103275442Y-42520039D01*
X103434192Y-42361289D01*
X103434192Y-41212039D01*
X102284942Y-41212039D01*
X102126192Y-41370789D01*
X101511477Y-41370789D01*
X101608157Y-41101816D01*
X101580970Y-40531585D01*
X101426528Y-40158729D01*
X102126192Y-40158729D01*
X102126192Y-40799289D01*
X102284942Y-40958039D01*
X103434192Y-40958039D01*
X103434192Y-39808789D01*
X103688192Y-39808789D01*
X103688192Y-40958039D01*
X103708192Y-40958039D01*
X103708192Y-41212039D01*
X103688192Y-41212039D01*
X103688192Y-42361289D01*
X103846942Y-42520039D01*
X104487501Y-42520039D01*
X104720890Y-42423366D01*
X104899519Y-42244738D01*
X104985037Y-42038280D01*
X105248330Y-42301573D01*
X105775753Y-42520039D01*
X105891061Y-42520039D01*
X106738966Y-43367944D01*
X106663957Y-43745039D01*
X106686193Y-43856827D01*
X106686192Y-49886653D01*
X106676669Y-49893016D01*
X106551192Y-50080806D01*
X106425715Y-49893016D01*
X105900603Y-49542148D01*
X105281192Y-49418939D01*
X104661782Y-49542148D01*
X104136669Y-49893016D01*
X103785801Y-50418128D01*
X103693692Y-50881189D01*
X103693692Y-51288888D01*
X103785801Y-51751949D01*
X104136669Y-52277062D01*
X104661781Y-52627930D01*
X105281192Y-52751139D01*
X105900602Y-52627930D01*
X106425715Y-52277062D01*
X106551192Y-52089272D01*
X106676669Y-52277062D01*
X107201781Y-52627930D01*
X107821192Y-52751139D01*
X108440602Y-52627930D01*
X108836636Y-52363309D01*
X108870365Y-52444738D01*
X109048994Y-52623366D01*
X109282383Y-52720039D01*
X110075442Y-52720039D01*
X110234192Y-52561289D01*
X110234192Y-51212039D01*
X110488192Y-51212039D01*
X110488192Y-52561289D01*
X110646942Y-52720039D01*
X111440001Y-52720039D01*
X111673390Y-52623366D01*
X111852019Y-52444738D01*
X111948692Y-52211349D01*
X111948692Y-51370789D01*
X111789942Y-51212039D01*
X110488192Y-51212039D01*
X110234192Y-51212039D01*
X110214192Y-51212039D01*
X110214192Y-50958039D01*
X110234192Y-50958039D01*
X110234192Y-49608789D01*
X110488192Y-49608789D01*
X110488192Y-50958039D01*
X111789942Y-50958039D01*
X111948692Y-50799289D01*
X111948692Y-49958729D01*
X111852019Y-49725340D01*
X111673390Y-49546712D01*
X111440001Y-49450039D01*
X110646942Y-49450039D01*
X110488192Y-49608789D01*
X110234192Y-49608789D01*
X110075442Y-49450039D01*
X109282383Y-49450039D01*
X109048994Y-49546712D01*
X108956192Y-49639513D01*
X108956192Y-44430039D01*
X109432908Y-44430039D01*
X109510327Y-44545904D01*
X110084229Y-44929373D01*
X110590312Y-45030039D01*
X110932072Y-45030039D01*
X111438155Y-44929373D01*
X112012057Y-44545904D01*
X112395526Y-43972002D01*
X112448206Y-43707158D01*
X115164192Y-43707158D01*
X115164192Y-44262920D01*
X115376872Y-44776376D01*
X115769855Y-45169359D01*
X115976705Y-45255039D01*
X115769855Y-45340719D01*
X115376872Y-45733702D01*
X115164192Y-46247158D01*
X115164192Y-46802920D01*
X115376872Y-47316376D01*
X115769855Y-47709359D01*
X115976705Y-47795039D01*
X115769855Y-47880719D01*
X115376872Y-48273702D01*
X115164192Y-48787158D01*
X115164192Y-49342920D01*
X115376872Y-49856376D01*
X115769855Y-50249359D01*
X115976705Y-50335039D01*
X115769855Y-50420719D01*
X115376872Y-50813702D01*
X115164192Y-51327158D01*
X115164192Y-51882920D01*
X115376872Y-52396376D01*
X115769855Y-52789359D01*
X116283311Y-53002039D01*
X116839073Y-53002039D01*
X117352529Y-52789359D01*
X117745512Y-52396376D01*
X117958192Y-51882920D01*
X117958192Y-51327158D01*
X117745512Y-50813702D01*
X117352529Y-50420719D01*
X117145679Y-50335039D01*
X117352529Y-50249359D01*
X117745512Y-49856376D01*
X117958192Y-49342920D01*
X117958192Y-48787158D01*
X117745512Y-48273702D01*
X117352529Y-47880719D01*
X117145679Y-47795039D01*
X117352529Y-47709359D01*
X117745512Y-47316376D01*
X117958192Y-46802920D01*
X117958192Y-46247158D01*
X117745512Y-45733702D01*
X117352529Y-45340719D01*
X117145679Y-45255039D01*
X117352529Y-45169359D01*
X117745512Y-44776376D01*
X117958192Y-44262920D01*
X117958192Y-43707158D01*
X117745512Y-43193702D01*
X117352529Y-42800719D01*
X117161545Y-42721611D01*
X117292335Y-42667436D01*
X117361800Y-42425252D01*
X116561192Y-41624644D01*
X115760584Y-42425252D01*
X115830049Y-42667436D01*
X115970585Y-42717574D01*
X115769855Y-42800719D01*
X115376872Y-43193702D01*
X115164192Y-43707158D01*
X112448206Y-43707158D01*
X112530182Y-43295039D01*
X112395526Y-42618076D01*
X112012057Y-42044174D01*
X111438155Y-41660705D01*
X110932072Y-41560039D01*
X110590312Y-41560039D01*
X110084229Y-41660705D01*
X109510327Y-42044174D01*
X109432908Y-42160039D01*
X108741324Y-42160039D01*
X107818626Y-41237341D01*
X115152048Y-41237341D01*
X115179830Y-41792407D01*
X115338795Y-42176182D01*
X115580979Y-42245647D01*
X116381587Y-41445039D01*
X116740797Y-41445039D01*
X117541405Y-42245647D01*
X117783589Y-42176182D01*
X117970336Y-41652737D01*
X117942554Y-41097671D01*
X117783589Y-40713896D01*
X117541405Y-40644431D01*
X116740797Y-41445039D01*
X116381587Y-41445039D01*
X115580979Y-40644431D01*
X115338795Y-40713896D01*
X115152048Y-41237341D01*
X107818626Y-41237341D01*
X107496192Y-40914908D01*
X107496192Y-40799600D01*
X107277726Y-40272177D01*
X106874054Y-39868505D01*
X106346631Y-39650039D01*
X105775753Y-39650039D01*
X105248330Y-39868505D01*
X104985037Y-40131798D01*
X104899519Y-39925340D01*
X104720890Y-39746712D01*
X104487501Y-39650039D01*
X103846942Y-39650039D01*
X103688192Y-39808789D01*
X103434192Y-39808789D01*
X103275442Y-39650039D01*
X102634883Y-39650039D01*
X102401494Y-39746712D01*
X102222865Y-39925340D01*
X102126192Y-40158729D01*
X101426528Y-40158729D01*
X101415056Y-40131034D01*
X101168937Y-40056900D01*
X100340797Y-40885039D01*
X99981587Y-40885039D01*
X99153447Y-40056900D01*
X99105885Y-40071226D01*
X99067310Y-39877294D01*
X99333053Y-39877294D01*
X100161192Y-40705434D01*
X100989331Y-39877294D01*
X100915197Y-39631175D01*
X100377969Y-39438074D01*
X99807738Y-39465261D01*
X99407187Y-39631175D01*
X99333053Y-39877294D01*
X99067310Y-39877294D01*
X99059349Y-39837274D01*
X98919001Y-39627230D01*
X98708957Y-39486882D01*
X98461192Y-39437599D01*
X96861192Y-39437599D01*
X96613427Y-39486882D01*
X96403383Y-39627230D01*
X96321324Y-39750039D01*
X95972973Y-39750039D01*
X95861191Y-39727804D01*
X95749409Y-39750039D01*
X95534660Y-39792755D01*
X95695526Y-39552002D01*
X95830182Y-38875039D01*
X95695526Y-38198076D01*
X95312057Y-37624174D01*
X95232942Y-37571311D01*
X97755154Y-35049100D01*
X97796220Y-35049100D01*
X98233347Y-34962150D01*
X98729052Y-34630930D01*
X98930476Y-34329479D01*
X98981801Y-34438990D01*
X99413675Y-34833188D01*
X99829596Y-35005458D01*
X100061622Y-34884317D01*
X100061622Y-33677500D01*
X100315622Y-33677500D01*
X100315622Y-34884317D01*
X100547648Y-35005458D01*
X100963569Y-34833188D01*
X101395443Y-34438990D01*
X101458622Y-34304187D01*
X101521801Y-34438990D01*
X101953675Y-34833188D01*
X102369596Y-35005458D01*
X102601622Y-34884317D01*
X102601622Y-33677500D01*
X102855622Y-33677500D01*
X102855622Y-34884317D01*
X103087648Y-35005458D01*
X103503569Y-34833188D01*
X103935443Y-34438990D01*
X103998622Y-34304187D01*
X104061801Y-34438990D01*
X104493675Y-34833188D01*
X104909596Y-35005458D01*
X105141622Y-34884317D01*
X105141622Y-33677500D01*
X102855622Y-33677500D01*
X102601622Y-33677500D01*
X100315622Y-33677500D01*
X100061622Y-33677500D01*
X100041622Y-33677500D01*
X100041622Y-33423500D01*
X100061622Y-33423500D01*
X100061622Y-31137500D01*
X100315622Y-31137500D01*
X100315622Y-33423500D01*
X102601622Y-33423500D01*
X102601622Y-31137500D01*
X102855622Y-31137500D01*
X102855622Y-33423500D01*
X105141622Y-33423500D01*
X105141622Y-31137500D01*
X102855622Y-31137500D01*
X102601622Y-31137500D01*
X100315622Y-31137500D01*
X100061622Y-31137500D01*
X100041622Y-31137500D01*
X100041622Y-30883500D01*
X100061622Y-30883500D01*
X100061622Y-29676683D01*
X100315622Y-29676683D01*
X100315622Y-30883500D01*
X102601622Y-30883500D01*
X102601622Y-29676683D01*
X102855622Y-29676683D01*
X102855622Y-30883500D01*
X105141622Y-30883500D01*
X105141622Y-29676683D01*
X105395622Y-29676683D01*
X105395622Y-30883500D01*
X105415622Y-30883500D01*
X105415622Y-31137500D01*
X105395622Y-31137500D01*
X105395622Y-33423500D01*
X105415622Y-33423500D01*
X105415622Y-33677500D01*
X105395622Y-33677500D01*
X105395622Y-34884317D01*
X105627648Y-35005458D01*
X106043569Y-34833188D01*
X106475443Y-34438990D01*
X106526768Y-34329479D01*
X106673622Y-34549261D01*
X106673623Y-36420681D01*
X106651387Y-36532469D01*
X106739476Y-36975323D01*
X106739477Y-36975324D01*
X106990334Y-37350758D01*
X107085102Y-37414080D01*
X109013752Y-39342731D01*
X109013752Y-40585039D01*
X109063035Y-40832804D01*
X109203383Y-41042848D01*
X109413427Y-41183196D01*
X109661192Y-41232479D01*
X111861192Y-41232479D01*
X112108957Y-41183196D01*
X112319001Y-41042848D01*
X112459349Y-40832804D01*
X112508632Y-40585039D01*
X112508632Y-38385039D01*
X112459349Y-38137274D01*
X112319001Y-37927230D01*
X112108957Y-37786882D01*
X111861192Y-37737599D01*
X110618884Y-37737599D01*
X108943622Y-36062338D01*
X108943622Y-34549260D01*
X109220272Y-34135225D01*
X109336581Y-33550500D01*
X109220272Y-32965775D01*
X108943622Y-32551740D01*
X108943622Y-32009260D01*
X109220272Y-31595225D01*
X109336581Y-31010500D01*
X109335917Y-31007158D01*
X130404192Y-31007158D01*
X130404192Y-31562920D01*
X130616872Y-32076376D01*
X131009855Y-32469359D01*
X131216705Y-32555039D01*
X131009855Y-32640719D01*
X130616872Y-33033702D01*
X130404192Y-33547158D01*
X130404192Y-34102920D01*
X130616872Y-34616376D01*
X131009855Y-35009359D01*
X131216705Y-35095039D01*
X131009855Y-35180719D01*
X130616872Y-35573702D01*
X130404192Y-36087158D01*
X130404192Y-36642920D01*
X130616872Y-37156376D01*
X131009855Y-37549359D01*
X131216705Y-37635039D01*
X131009855Y-37720719D01*
X130616872Y-38113702D01*
X130404192Y-38627158D01*
X130404192Y-39182920D01*
X130616872Y-39696376D01*
X131009855Y-40089359D01*
X131216705Y-40175039D01*
X131009855Y-40260719D01*
X130616872Y-40653702D01*
X130404192Y-41167158D01*
X130404192Y-41722920D01*
X130616872Y-42236376D01*
X131009855Y-42629359D01*
X131216705Y-42715039D01*
X131009855Y-42800719D01*
X130616872Y-43193702D01*
X130404192Y-43707158D01*
X130404192Y-44262920D01*
X130616872Y-44776376D01*
X131009855Y-45169359D01*
X131216705Y-45255039D01*
X131009855Y-45340719D01*
X130616872Y-45733702D01*
X130404192Y-46247158D01*
X130404192Y-46802920D01*
X130616872Y-47316376D01*
X131009855Y-47709359D01*
X131216705Y-47795039D01*
X131009855Y-47880719D01*
X130616872Y-48273702D01*
X130404192Y-48787158D01*
X130404192Y-49342920D01*
X130616872Y-49856376D01*
X131009855Y-50249359D01*
X131216705Y-50335039D01*
X131009855Y-50420719D01*
X130616872Y-50813702D01*
X130404192Y-51327158D01*
X130404192Y-51882920D01*
X130616872Y-52396376D01*
X131009855Y-52789359D01*
X131216705Y-52875039D01*
X131009855Y-52960719D01*
X130616872Y-53353702D01*
X130404192Y-53867158D01*
X130404192Y-54422920D01*
X130616872Y-54936376D01*
X131009855Y-55329359D01*
X131216705Y-55415039D01*
X131009855Y-55500719D01*
X130616872Y-55893702D01*
X130404192Y-56407158D01*
X130404192Y-56962920D01*
X130616872Y-57476376D01*
X131009855Y-57869359D01*
X131216705Y-57955039D01*
X131009855Y-58040719D01*
X130616872Y-58433702D01*
X130404192Y-58947158D01*
X130404192Y-59502920D01*
X130616872Y-60016376D01*
X131009855Y-60409359D01*
X131523311Y-60622039D01*
X132079073Y-60622039D01*
X132592529Y-60409359D01*
X132985512Y-60016376D01*
X133198192Y-59502920D01*
X133198192Y-58947158D01*
X132985512Y-58433702D01*
X132592529Y-58040719D01*
X132385679Y-57955039D01*
X132592529Y-57869359D01*
X132985512Y-57476376D01*
X133198192Y-56962920D01*
X133198192Y-56407158D01*
X132985512Y-55893702D01*
X132592529Y-55500719D01*
X132385679Y-55415039D01*
X132592529Y-55329359D01*
X132985512Y-54936376D01*
X133198192Y-54422920D01*
X133198192Y-53867158D01*
X132985512Y-53353702D01*
X132592529Y-52960719D01*
X132385679Y-52875039D01*
X132592529Y-52789359D01*
X132985512Y-52396376D01*
X133198192Y-51882920D01*
X133198192Y-51327158D01*
X132985512Y-50813702D01*
X132592529Y-50420719D01*
X132385679Y-50335039D01*
X132592529Y-50249359D01*
X132985512Y-49856376D01*
X133198192Y-49342920D01*
X133198192Y-48787158D01*
X132985512Y-48273702D01*
X132592529Y-47880719D01*
X132385679Y-47795039D01*
X132592529Y-47709359D01*
X132985512Y-47316376D01*
X133198192Y-46802920D01*
X133198192Y-46247158D01*
X132985512Y-45733702D01*
X132592529Y-45340719D01*
X132385679Y-45255039D01*
X132592529Y-45169359D01*
X132985512Y-44776376D01*
X133198192Y-44262920D01*
X133198192Y-43707158D01*
X132985512Y-43193702D01*
X132592529Y-42800719D01*
X132385679Y-42715039D01*
X132592529Y-42629359D01*
X132985512Y-42236376D01*
X133198192Y-41722920D01*
X133198192Y-41167158D01*
X132985512Y-40653702D01*
X132592529Y-40260719D01*
X132385679Y-40175039D01*
X132592529Y-40089359D01*
X132985512Y-39696376D01*
X133198192Y-39182920D01*
X133198192Y-38627158D01*
X132985512Y-38113702D01*
X132592529Y-37720719D01*
X132385679Y-37635039D01*
X132592529Y-37549359D01*
X132985512Y-37156376D01*
X133198192Y-36642920D01*
X133198192Y-36087158D01*
X132985512Y-35573702D01*
X132592529Y-35180719D01*
X132385679Y-35095039D01*
X132592529Y-35009359D01*
X132985512Y-34616376D01*
X133198192Y-34102920D01*
X133198192Y-33547158D01*
X132985512Y-33033702D01*
X132592529Y-32640719D01*
X132385679Y-32555039D01*
X132592529Y-32469359D01*
X132985512Y-32076376D01*
X133198192Y-31562920D01*
X133198192Y-31007158D01*
X132985512Y-30493702D01*
X132592529Y-30100719D01*
X132401545Y-30021611D01*
X132532335Y-29967436D01*
X132601800Y-29725252D01*
X131801192Y-28924644D01*
X131000584Y-29725252D01*
X131070049Y-29967436D01*
X131210585Y-30017574D01*
X131009855Y-30100719D01*
X130616872Y-30493702D01*
X130404192Y-31007158D01*
X109335917Y-31007158D01*
X109220272Y-30425775D01*
X108889052Y-29930070D01*
X108393347Y-29598850D01*
X107956220Y-29511900D01*
X107661024Y-29511900D01*
X107223897Y-29598850D01*
X106728192Y-29930070D01*
X106526768Y-30231521D01*
X106475443Y-30122010D01*
X106043569Y-29727812D01*
X105627648Y-29555542D01*
X105395622Y-29676683D01*
X105141622Y-29676683D01*
X104909596Y-29555542D01*
X104493675Y-29727812D01*
X104061801Y-30122010D01*
X103998622Y-30256813D01*
X103935443Y-30122010D01*
X103503569Y-29727812D01*
X103087648Y-29555542D01*
X102855622Y-29676683D01*
X102601622Y-29676683D01*
X102369596Y-29555542D01*
X101953675Y-29727812D01*
X101521801Y-30122010D01*
X101458622Y-30256813D01*
X101395443Y-30122010D01*
X100963569Y-29727812D01*
X100547648Y-29555542D01*
X100315622Y-29676683D01*
X100061622Y-29676683D01*
X99829596Y-29555542D01*
X99413675Y-29727812D01*
X99128142Y-29988436D01*
X99110379Y-29899135D01*
X98970031Y-29689091D01*
X98759987Y-29548743D01*
X98512222Y-29499460D01*
X96785022Y-29499460D01*
X96537257Y-29548743D01*
X96327213Y-29689091D01*
X96186865Y-29899135D01*
X96137582Y-30146900D01*
X96137582Y-31874100D01*
X96186865Y-32121865D01*
X96327213Y-32331909D01*
X96513623Y-32456465D01*
X96513623Y-32551739D01*
X96236972Y-32965775D01*
X96139825Y-33454165D01*
X93337672Y-36256319D01*
X93242904Y-36319641D01*
X93100697Y-36532469D01*
X92992046Y-36695076D01*
X92903957Y-37137930D01*
X92926192Y-37249713D01*
X92926192Y-37546755D01*
X92810327Y-37624174D01*
X92426858Y-38198076D01*
X92292202Y-38875039D01*
X91567192Y-38875039D01*
X91567192Y-28537341D01*
X130392048Y-28537341D01*
X130419830Y-29092407D01*
X130578795Y-29476182D01*
X130820979Y-29545647D01*
X131621587Y-28745039D01*
X131980797Y-28745039D01*
X132781405Y-29545647D01*
X133023589Y-29476182D01*
X133210336Y-28952737D01*
X133182554Y-28397671D01*
X133023589Y-28013896D01*
X132781405Y-27944431D01*
X131980797Y-28745039D01*
X131621587Y-28745039D01*
X130820979Y-27944431D01*
X130578795Y-28013896D01*
X130392048Y-28537341D01*
X91567192Y-28537341D01*
X91567192Y-27764826D01*
X131000584Y-27764826D01*
X131801192Y-28565434D01*
X132601800Y-27764826D01*
X132532335Y-27522642D01*
X132008890Y-27335895D01*
X131453824Y-27363677D01*
X131070049Y-27522642D01*
X131000584Y-27764826D01*
X91567192Y-27764826D01*
X91567192Y-25411039D01*
X137500351Y-25411039D01*
X137463752Y-25595039D01*
G04 #@! TD*
M02*
