G04 #@! TF.GenerationSoftware,KiCad,Pcbnew,(5.0.1)-3*
G04 #@! TF.CreationDate,2020-01-29T22:52:42+00:00*
G04 #@! TF.ProjectId,SSv2 Power Board,5353763220506F77657220426F617264,rev?*
G04 #@! TF.SameCoordinates,Original*
G04 #@! TF.FileFunction,Legend,Top*
G04 #@! TF.FilePolarity,Positive*
%FSLAX46Y46*%
G04 Gerber Fmt 4.6, Leading zero omitted, Abs format (unit mm)*
G04 Created by KiCad (PCBNEW (5.0.1)-3) date 29/01/2020 22:52:42*
%MOMM*%
%LPD*%
G01*
G04 APERTURE LIST*
%ADD10C,0.120000*%
%ADD11C,0.150000*%
G04 APERTURE END LIST*
D10*
G04 #@! TO.C,J39*
X137631192Y-25115039D02*
X138961192Y-25115039D01*
X137631192Y-26445039D02*
X137631192Y-25115039D01*
X137631192Y-27715039D02*
X140291192Y-27715039D01*
X140291192Y-27715039D02*
X140291192Y-119215039D01*
X137631192Y-27715039D02*
X137631192Y-119215039D01*
X137631192Y-119215039D02*
X140291192Y-119215039D01*
D11*
X138151668Y-23567419D02*
X138151668Y-24281705D01*
X138104049Y-24424562D01*
X138008811Y-24519800D01*
X137865953Y-24567419D01*
X137770715Y-24567419D01*
X138532620Y-23567419D02*
X139151668Y-23567419D01*
X138818334Y-23948372D01*
X138961192Y-23948372D01*
X139056430Y-23995991D01*
X139104049Y-24043610D01*
X139151668Y-24138848D01*
X139151668Y-24376943D01*
X139104049Y-24472181D01*
X139056430Y-24519800D01*
X138961192Y-24567419D01*
X138675477Y-24567419D01*
X138580239Y-24519800D01*
X138532620Y-24472181D01*
X139627858Y-24567419D02*
X139818334Y-24567419D01*
X139913572Y-24519800D01*
X139961192Y-24472181D01*
X140056430Y-24329324D01*
X140104049Y-24138848D01*
X140104049Y-23757896D01*
X140056430Y-23662658D01*
X140008811Y-23615039D01*
X139913572Y-23567419D01*
X139723096Y-23567419D01*
X139627858Y-23615039D01*
X139580239Y-23662658D01*
X139532620Y-23757896D01*
X139532620Y-23995991D01*
X139580239Y-24091229D01*
X139627858Y-24138848D01*
X139723096Y-24186467D01*
X139913572Y-24186467D01*
X140008811Y-24138848D01*
X140056430Y-24091229D01*
X140104049Y-23995991D01*
G04 #@! TD*
M02*
