G04 #@! TF.GenerationSoftware,KiCad,Pcbnew,(5.0.1)-3*
G04 #@! TF.CreationDate,2020-01-29T22:52:42+00:00*
G04 #@! TF.ProjectId,SSv2 Power Board,5353763220506F77657220426F617264,rev?*
G04 #@! TF.SameCoordinates,Original*
G04 #@! TF.FileFunction,Legend,Bot*
G04 #@! TF.FilePolarity,Positive*
%FSLAX46Y46*%
G04 Gerber Fmt 4.6, Leading zero omitted, Abs format (unit mm)*
G04 Created by KiCad (PCBNEW (5.0.1)-3) date 29/01/2020 22:52:42*
%MOMM*%
%LPD*%
G01*
G04 APERTURE LIST*
%ADD10C,0.180000*%
%ADD11C,0.300000*%
%ADD12C,0.120000*%
%ADD13C,0.150000*%
G04 APERTURE END LIST*
D10*
X110319047Y-113164761D02*
X110176190Y-113212380D01*
X109938095Y-113212380D01*
X109842857Y-113164761D01*
X109795238Y-113117142D01*
X109747619Y-113021904D01*
X109747619Y-112926666D01*
X109795238Y-112831428D01*
X109842857Y-112783809D01*
X109938095Y-112736190D01*
X110128571Y-112688571D01*
X110223809Y-112640952D01*
X110271428Y-112593333D01*
X110319047Y-112498095D01*
X110319047Y-112402857D01*
X110271428Y-112307619D01*
X110223809Y-112260000D01*
X110128571Y-112212380D01*
X109890476Y-112212380D01*
X109747619Y-112260000D01*
X109461904Y-112545714D02*
X109080952Y-112545714D01*
X109319047Y-112212380D02*
X109319047Y-113069523D01*
X109271428Y-113164761D01*
X109176190Y-113212380D01*
X109080952Y-113212380D01*
X108604761Y-113212380D02*
X108700000Y-113164761D01*
X108747619Y-113117142D01*
X108795238Y-113021904D01*
X108795238Y-112736190D01*
X108747619Y-112640952D01*
X108700000Y-112593333D01*
X108604761Y-112545714D01*
X108461904Y-112545714D01*
X108366666Y-112593333D01*
X108319047Y-112640952D01*
X108271428Y-112736190D01*
X108271428Y-113021904D01*
X108319047Y-113117142D01*
X108366666Y-113164761D01*
X108461904Y-113212380D01*
X108604761Y-113212380D01*
X107414285Y-113164761D02*
X107509523Y-113212380D01*
X107700000Y-113212380D01*
X107795238Y-113164761D01*
X107842857Y-113117142D01*
X107890476Y-113021904D01*
X107890476Y-112736190D01*
X107842857Y-112640952D01*
X107795238Y-112593333D01*
X107700000Y-112545714D01*
X107509523Y-112545714D01*
X107414285Y-112593333D01*
X106985714Y-113212380D02*
X106985714Y-112212380D01*
X106557142Y-113212380D02*
X106557142Y-112688571D01*
X106604761Y-112593333D01*
X106700000Y-112545714D01*
X106842857Y-112545714D01*
X106938095Y-112593333D01*
X106985714Y-112640952D01*
X105652380Y-113212380D02*
X105652380Y-112688571D01*
X105700000Y-112593333D01*
X105795238Y-112545714D01*
X105985714Y-112545714D01*
X106080952Y-112593333D01*
X105652380Y-113164761D02*
X105747619Y-113212380D01*
X105985714Y-113212380D01*
X106080952Y-113164761D01*
X106128571Y-113069523D01*
X106128571Y-112974285D01*
X106080952Y-112879047D01*
X105985714Y-112831428D01*
X105747619Y-112831428D01*
X105652380Y-112783809D01*
X105223809Y-113164761D02*
X105128571Y-113212380D01*
X104938095Y-113212380D01*
X104842857Y-113164761D01*
X104795238Y-113069523D01*
X104795238Y-113021904D01*
X104842857Y-112926666D01*
X104938095Y-112879047D01*
X105080952Y-112879047D01*
X105176190Y-112831428D01*
X105223809Y-112736190D01*
X105223809Y-112688571D01*
X105176190Y-112593333D01*
X105080952Y-112545714D01*
X104938095Y-112545714D01*
X104842857Y-112593333D01*
X104509523Y-112545714D02*
X104128571Y-112545714D01*
X104366666Y-112212380D02*
X104366666Y-113069523D01*
X104319047Y-113164761D01*
X104223809Y-113212380D01*
X104128571Y-113212380D01*
X103795238Y-113212380D02*
X103795238Y-112545714D01*
X103795238Y-112212380D02*
X103842857Y-112260000D01*
X103795238Y-112307619D01*
X103747619Y-112260000D01*
X103795238Y-112212380D01*
X103795238Y-112307619D01*
X102890476Y-113164761D02*
X102985714Y-113212380D01*
X103176190Y-113212380D01*
X103271428Y-113164761D01*
X103319047Y-113117142D01*
X103366666Y-113021904D01*
X103366666Y-112736190D01*
X103319047Y-112640952D01*
X103271428Y-112593333D01*
X103176190Y-112545714D01*
X102985714Y-112545714D01*
X102890476Y-112593333D01*
X101747619Y-113164761D02*
X101652380Y-113212380D01*
X101461904Y-113212380D01*
X101366666Y-113164761D01*
X101319047Y-113069523D01*
X101319047Y-113021904D01*
X101366666Y-112926666D01*
X101461904Y-112879047D01*
X101604761Y-112879047D01*
X101700000Y-112831428D01*
X101747619Y-112736190D01*
X101747619Y-112688571D01*
X101700000Y-112593333D01*
X101604761Y-112545714D01*
X101461904Y-112545714D01*
X101366666Y-112593333D01*
X100509523Y-113164761D02*
X100604761Y-113212380D01*
X100795238Y-113212380D01*
X100890476Y-113164761D01*
X100938095Y-113069523D01*
X100938095Y-112688571D01*
X100890476Y-112593333D01*
X100795238Y-112545714D01*
X100604761Y-112545714D01*
X100509523Y-112593333D01*
X100461904Y-112688571D01*
X100461904Y-112783809D01*
X100938095Y-112879047D01*
X99604761Y-112545714D02*
X99604761Y-113545714D01*
X99604761Y-113164761D02*
X99700000Y-113212380D01*
X99890476Y-113212380D01*
X99985714Y-113164761D01*
X100033333Y-113117142D01*
X100080952Y-113021904D01*
X100080952Y-112736190D01*
X100033333Y-112640952D01*
X99985714Y-112593333D01*
X99890476Y-112545714D01*
X99700000Y-112545714D01*
X99604761Y-112593333D01*
X98700000Y-112545714D02*
X98700000Y-113212380D01*
X99128571Y-112545714D02*
X99128571Y-113069523D01*
X99080952Y-113164761D01*
X98985714Y-113212380D01*
X98842857Y-113212380D01*
X98747619Y-113164761D01*
X98700000Y-113117142D01*
X97842857Y-113164761D02*
X97938095Y-113212380D01*
X98128571Y-113212380D01*
X98223809Y-113164761D01*
X98271428Y-113069523D01*
X98271428Y-112688571D01*
X98223809Y-112593333D01*
X98128571Y-112545714D01*
X97938095Y-112545714D01*
X97842857Y-112593333D01*
X97795238Y-112688571D01*
X97795238Y-112783809D01*
X98271428Y-112879047D01*
X97366666Y-112545714D02*
X97366666Y-113212380D01*
X97366666Y-112640952D02*
X97319047Y-112593333D01*
X97223809Y-112545714D01*
X97080952Y-112545714D01*
X96985714Y-112593333D01*
X96938095Y-112688571D01*
X96938095Y-113212380D01*
X96033333Y-113164761D02*
X96128571Y-113212380D01*
X96319047Y-113212380D01*
X96414285Y-113164761D01*
X96461904Y-113117142D01*
X96509523Y-113021904D01*
X96509523Y-112736190D01*
X96461904Y-112640952D01*
X96414285Y-112593333D01*
X96319047Y-112545714D01*
X96128571Y-112545714D01*
X96033333Y-112593333D01*
X95223809Y-113164761D02*
X95319047Y-113212380D01*
X95509523Y-113212380D01*
X95604761Y-113164761D01*
X95652380Y-113069523D01*
X95652380Y-112688571D01*
X95604761Y-112593333D01*
X95509523Y-112545714D01*
X95319047Y-112545714D01*
X95223809Y-112593333D01*
X95176190Y-112688571D01*
X95176190Y-112783809D01*
X95652380Y-112879047D01*
X94747619Y-113212380D02*
X94747619Y-112545714D01*
X94747619Y-112736190D02*
X94700000Y-112640952D01*
X94652380Y-112593333D01*
X94557142Y-112545714D01*
X94461904Y-112545714D01*
X93461904Y-112545714D02*
X93223809Y-113212380D01*
X92985714Y-112545714D01*
X92652380Y-112307619D02*
X92604761Y-112260000D01*
X92509523Y-112212380D01*
X92271428Y-112212380D01*
X92176190Y-112260000D01*
X92128571Y-112307619D01*
X92080952Y-112402857D01*
X92080952Y-112498095D01*
X92128571Y-112640952D01*
X92700000Y-113212380D01*
X92080952Y-113212380D01*
X108819047Y-114844761D02*
X108676190Y-114892380D01*
X108438095Y-114892380D01*
X108342857Y-114844761D01*
X108295238Y-114797142D01*
X108247619Y-114701904D01*
X108247619Y-114606666D01*
X108295238Y-114511428D01*
X108342857Y-114463809D01*
X108438095Y-114416190D01*
X108628571Y-114368571D01*
X108723809Y-114320952D01*
X108771428Y-114273333D01*
X108819047Y-114178095D01*
X108819047Y-114082857D01*
X108771428Y-113987619D01*
X108723809Y-113940000D01*
X108628571Y-113892380D01*
X108390476Y-113892380D01*
X108247619Y-113940000D01*
X107390476Y-114892380D02*
X107390476Y-114368571D01*
X107438095Y-114273333D01*
X107533333Y-114225714D01*
X107723809Y-114225714D01*
X107819047Y-114273333D01*
X107390476Y-114844761D02*
X107485714Y-114892380D01*
X107723809Y-114892380D01*
X107819047Y-114844761D01*
X107866666Y-114749523D01*
X107866666Y-114654285D01*
X107819047Y-114559047D01*
X107723809Y-114511428D01*
X107485714Y-114511428D01*
X107390476Y-114463809D01*
X106914285Y-114892380D02*
X106914285Y-114225714D01*
X106914285Y-114320952D02*
X106866666Y-114273333D01*
X106771428Y-114225714D01*
X106628571Y-114225714D01*
X106533333Y-114273333D01*
X106485714Y-114368571D01*
X106485714Y-114892380D01*
X106485714Y-114368571D02*
X106438095Y-114273333D01*
X106342857Y-114225714D01*
X106200000Y-114225714D01*
X106104761Y-114273333D01*
X106057142Y-114368571D01*
X106057142Y-114892380D01*
X104961904Y-113892380D02*
X104390476Y-113892380D01*
X104676190Y-114892380D02*
X104676190Y-113892380D01*
X103628571Y-114225714D02*
X103628571Y-114892380D01*
X104057142Y-114225714D02*
X104057142Y-114749523D01*
X104009523Y-114844761D01*
X103914285Y-114892380D01*
X103771428Y-114892380D01*
X103676190Y-114844761D01*
X103628571Y-114797142D01*
X103200000Y-114844761D02*
X103104761Y-114892380D01*
X102914285Y-114892380D01*
X102819047Y-114844761D01*
X102771428Y-114749523D01*
X102771428Y-114701904D01*
X102819047Y-114606666D01*
X102914285Y-114559047D01*
X103057142Y-114559047D01*
X103152380Y-114511428D01*
X103200000Y-114416190D01*
X103200000Y-114368571D01*
X103152380Y-114273333D01*
X103057142Y-114225714D01*
X102914285Y-114225714D01*
X102819047Y-114273333D01*
X102342857Y-114892380D02*
X102342857Y-113892380D01*
X102247619Y-114511428D02*
X101961904Y-114892380D01*
X101961904Y-114225714D02*
X102342857Y-114606666D01*
X101485714Y-114844761D02*
X101485714Y-114892380D01*
X101533333Y-114987619D01*
X101580952Y-115035238D01*
X100009523Y-113892380D02*
X100009523Y-114606666D01*
X100057142Y-114749523D01*
X100152380Y-114844761D01*
X100295238Y-114892380D01*
X100390476Y-114892380D01*
X99104761Y-114892380D02*
X99104761Y-114368571D01*
X99152380Y-114273333D01*
X99247619Y-114225714D01*
X99438095Y-114225714D01*
X99533333Y-114273333D01*
X99104761Y-114844761D02*
X99200000Y-114892380D01*
X99438095Y-114892380D01*
X99533333Y-114844761D01*
X99580952Y-114749523D01*
X99580952Y-114654285D01*
X99533333Y-114559047D01*
X99438095Y-114511428D01*
X99200000Y-114511428D01*
X99104761Y-114463809D01*
X98628571Y-114225714D02*
X98628571Y-114892380D01*
X98628571Y-114320952D02*
X98580952Y-114273333D01*
X98485714Y-114225714D01*
X98342857Y-114225714D01*
X98247619Y-114273333D01*
X98200000Y-114368571D01*
X98200000Y-114892380D01*
X97009523Y-113987619D02*
X96961904Y-113940000D01*
X96866666Y-113892380D01*
X96628571Y-113892380D01*
X96533333Y-113940000D01*
X96485714Y-113987619D01*
X96438095Y-114082857D01*
X96438095Y-114178095D01*
X96485714Y-114320952D01*
X97057142Y-114892380D01*
X96438095Y-114892380D01*
X95819047Y-113892380D02*
X95723809Y-113892380D01*
X95628571Y-113940000D01*
X95580952Y-113987619D01*
X95533333Y-114082857D01*
X95485714Y-114273333D01*
X95485714Y-114511428D01*
X95533333Y-114701904D01*
X95580952Y-114797142D01*
X95628571Y-114844761D01*
X95723809Y-114892380D01*
X95819047Y-114892380D01*
X95914285Y-114844761D01*
X95961904Y-114797142D01*
X96009523Y-114701904D01*
X96057142Y-114511428D01*
X96057142Y-114273333D01*
X96009523Y-114082857D01*
X95961904Y-113987619D01*
X95914285Y-113940000D01*
X95819047Y-113892380D01*
X95104761Y-113987619D02*
X95057142Y-113940000D01*
X94961904Y-113892380D01*
X94723809Y-113892380D01*
X94628571Y-113940000D01*
X94580952Y-113987619D01*
X94533333Y-114082857D01*
X94533333Y-114178095D01*
X94580952Y-114320952D01*
X95152380Y-114892380D01*
X94533333Y-114892380D01*
X93914285Y-113892380D02*
X93819047Y-113892380D01*
X93723809Y-113940000D01*
X93676190Y-113987619D01*
X93628571Y-114082857D01*
X93580952Y-114273333D01*
X93580952Y-114511428D01*
X93628571Y-114701904D01*
X93676190Y-114797142D01*
X93723809Y-114844761D01*
X93819047Y-114892380D01*
X93914285Y-114892380D01*
X94009523Y-114844761D01*
X94057142Y-114797142D01*
X94104761Y-114701904D01*
X94152380Y-114511428D01*
X94152380Y-114273333D01*
X94104761Y-114082857D01*
X94057142Y-113987619D01*
X94009523Y-113940000D01*
X93914285Y-113892380D01*
D11*
X106778571Y-109728571D02*
X106778571Y-110800000D01*
X106850000Y-111014285D01*
X106992857Y-111157142D01*
X107207142Y-111228571D01*
X107350000Y-111228571D01*
X105350000Y-111228571D02*
X106064285Y-111228571D01*
X106064285Y-109728571D01*
X103992857Y-111085714D02*
X104064285Y-111157142D01*
X104278571Y-111228571D01*
X104421428Y-111228571D01*
X104635714Y-111157142D01*
X104778571Y-111014285D01*
X104850000Y-110871428D01*
X104921428Y-110585714D01*
X104921428Y-110371428D01*
X104850000Y-110085714D01*
X104778571Y-109942857D01*
X104635714Y-109800000D01*
X104421428Y-109728571D01*
X104278571Y-109728571D01*
X104064285Y-109800000D01*
X103992857Y-109871428D01*
X102921428Y-109728571D02*
X102921428Y-110800000D01*
X102992857Y-111014285D01*
X103135714Y-111157142D01*
X103350000Y-111228571D01*
X103492857Y-111228571D01*
X101492857Y-111228571D02*
X102207142Y-111228571D01*
X102207142Y-109728571D01*
X100135714Y-111085714D02*
X100207142Y-111157142D01*
X100421428Y-111228571D01*
X100564285Y-111228571D01*
X100778571Y-111157142D01*
X100921428Y-111014285D01*
X100992857Y-110871428D01*
X101064285Y-110585714D01*
X101064285Y-110371428D01*
X100992857Y-110085714D01*
X100921428Y-109942857D01*
X100778571Y-109800000D01*
X100564285Y-109728571D01*
X100421428Y-109728571D01*
X100207142Y-109800000D01*
X100135714Y-109871428D01*
X99064285Y-109728571D02*
X99064285Y-110800000D01*
X99135714Y-111014285D01*
X99278571Y-111157142D01*
X99492857Y-111228571D01*
X99635714Y-111228571D01*
X97635714Y-111228571D02*
X98350000Y-111228571D01*
X98350000Y-109728571D01*
X96278571Y-111085714D02*
X96350000Y-111157142D01*
X96564285Y-111228571D01*
X96707142Y-111228571D01*
X96921428Y-111157142D01*
X97064285Y-111014285D01*
X97135714Y-110871428D01*
X97207142Y-110585714D01*
X97207142Y-110371428D01*
X97135714Y-110085714D01*
X97064285Y-109942857D01*
X96921428Y-109800000D01*
X96707142Y-109728571D01*
X96564285Y-109728571D01*
X96350000Y-109800000D01*
X96278571Y-109871428D01*
X95207142Y-109728571D02*
X95207142Y-110800000D01*
X95278571Y-111014285D01*
X95421428Y-111157142D01*
X95635714Y-111228571D01*
X95778571Y-111228571D01*
X93778571Y-111228571D02*
X94492857Y-111228571D01*
X94492857Y-109728571D01*
X92421428Y-111085714D02*
X92492857Y-111157142D01*
X92707142Y-111228571D01*
X92850000Y-111228571D01*
X93064285Y-111157142D01*
X93207142Y-111014285D01*
X93278571Y-110871428D01*
X93350000Y-110585714D01*
X93350000Y-110371428D01*
X93278571Y-110085714D01*
X93207142Y-109942857D01*
X93064285Y-109800000D01*
X92850000Y-109728571D01*
X92707142Y-109728571D01*
X92492857Y-109800000D01*
X92421428Y-109871428D01*
D12*
G04 #@! TO.C,C58*
X93771192Y-54323787D02*
X93771192Y-54846291D01*
X92351192Y-54323787D02*
X92351192Y-54846291D01*
G04 #@! TO.C,C59*
X94699940Y-66375039D02*
X95222444Y-66375039D01*
X94699940Y-67795039D02*
X95222444Y-67795039D01*
G04 #@! TO.C,C60*
X105322444Y-67795039D02*
X104799940Y-67795039D01*
X105322444Y-66375039D02*
X104799940Y-66375039D01*
G04 #@! TO.C,C61*
X110022444Y-54495039D02*
X109499940Y-54495039D01*
X110022444Y-53075039D02*
X109499940Y-53075039D01*
G04 #@! TO.C,C62*
X102215967Y-53160039D02*
X102215967Y-53660039D01*
X102465967Y-53410039D02*
X101965967Y-53410039D01*
X97060192Y-54601039D02*
X97060192Y-55169039D01*
X97100192Y-54367039D02*
X97100192Y-55403039D01*
X97140192Y-54208039D02*
X97140192Y-55562039D01*
X97180192Y-54080039D02*
X97180192Y-55690039D01*
X97220192Y-53970039D02*
X97220192Y-55800039D01*
X97260192Y-53874039D02*
X97260192Y-55896039D01*
X97300192Y-53787039D02*
X97300192Y-55983039D01*
X97340192Y-53707039D02*
X97340192Y-56063039D01*
X97380192Y-53634039D02*
X97380192Y-56136039D01*
X97420192Y-53566039D02*
X97420192Y-56204039D01*
X97460192Y-53502039D02*
X97460192Y-56268039D01*
X97500192Y-53442039D02*
X97500192Y-56328039D01*
X97540192Y-53385039D02*
X97540192Y-56385039D01*
X97580192Y-53331039D02*
X97580192Y-56439039D01*
X97620192Y-53280039D02*
X97620192Y-56490039D01*
X97660192Y-55925039D02*
X97660192Y-56538039D01*
X97660192Y-53232039D02*
X97660192Y-53845039D01*
X97700192Y-55925039D02*
X97700192Y-56584039D01*
X97700192Y-53186039D02*
X97700192Y-53845039D01*
X97740192Y-55925039D02*
X97740192Y-56628039D01*
X97740192Y-53142039D02*
X97740192Y-53845039D01*
X97780192Y-55925039D02*
X97780192Y-56670039D01*
X97780192Y-53100039D02*
X97780192Y-53845039D01*
X97820192Y-55925039D02*
X97820192Y-56711039D01*
X97820192Y-53059039D02*
X97820192Y-53845039D01*
X97860192Y-55925039D02*
X97860192Y-56749039D01*
X97860192Y-53021039D02*
X97860192Y-53845039D01*
X97900192Y-55925039D02*
X97900192Y-56786039D01*
X97900192Y-52984039D02*
X97900192Y-53845039D01*
X97940192Y-55925039D02*
X97940192Y-56822039D01*
X97940192Y-52948039D02*
X97940192Y-53845039D01*
X97980192Y-55925039D02*
X97980192Y-56856039D01*
X97980192Y-52914039D02*
X97980192Y-53845039D01*
X98020192Y-55925039D02*
X98020192Y-56889039D01*
X98020192Y-52881039D02*
X98020192Y-53845039D01*
X98060192Y-55925039D02*
X98060192Y-56920039D01*
X98060192Y-52850039D02*
X98060192Y-53845039D01*
X98100192Y-55925039D02*
X98100192Y-56950039D01*
X98100192Y-52820039D02*
X98100192Y-53845039D01*
X98140192Y-55925039D02*
X98140192Y-56980039D01*
X98140192Y-52790039D02*
X98140192Y-53845039D01*
X98180192Y-55925039D02*
X98180192Y-57007039D01*
X98180192Y-52763039D02*
X98180192Y-53845039D01*
X98220192Y-55925039D02*
X98220192Y-57034039D01*
X98220192Y-52736039D02*
X98220192Y-53845039D01*
X98260192Y-55925039D02*
X98260192Y-57060039D01*
X98260192Y-52710039D02*
X98260192Y-53845039D01*
X98300192Y-55925039D02*
X98300192Y-57085039D01*
X98300192Y-52685039D02*
X98300192Y-53845039D01*
X98340192Y-55925039D02*
X98340192Y-57109039D01*
X98340192Y-52661039D02*
X98340192Y-53845039D01*
X98380192Y-55925039D02*
X98380192Y-57132039D01*
X98380192Y-52638039D02*
X98380192Y-53845039D01*
X98420192Y-55925039D02*
X98420192Y-57153039D01*
X98420192Y-52617039D02*
X98420192Y-53845039D01*
X98460192Y-55925039D02*
X98460192Y-57175039D01*
X98460192Y-52595039D02*
X98460192Y-53845039D01*
X98500192Y-55925039D02*
X98500192Y-57195039D01*
X98500192Y-52575039D02*
X98500192Y-53845039D01*
X98540192Y-55925039D02*
X98540192Y-57214039D01*
X98540192Y-52556039D02*
X98540192Y-53845039D01*
X98580192Y-55925039D02*
X98580192Y-57233039D01*
X98580192Y-52537039D02*
X98580192Y-53845039D01*
X98620192Y-55925039D02*
X98620192Y-57250039D01*
X98620192Y-52520039D02*
X98620192Y-53845039D01*
X98660192Y-55925039D02*
X98660192Y-57267039D01*
X98660192Y-52503039D02*
X98660192Y-53845039D01*
X98700192Y-55925039D02*
X98700192Y-57283039D01*
X98700192Y-52487039D02*
X98700192Y-53845039D01*
X98740192Y-55925039D02*
X98740192Y-57299039D01*
X98740192Y-52471039D02*
X98740192Y-53845039D01*
X98780192Y-55925039D02*
X98780192Y-57313039D01*
X98780192Y-52457039D02*
X98780192Y-53845039D01*
X98820192Y-55925039D02*
X98820192Y-57327039D01*
X98820192Y-52443039D02*
X98820192Y-53845039D01*
X98860192Y-55925039D02*
X98860192Y-57340039D01*
X98860192Y-52430039D02*
X98860192Y-53845039D01*
X98900192Y-55925039D02*
X98900192Y-57353039D01*
X98900192Y-52417039D02*
X98900192Y-53845039D01*
X98940192Y-55925039D02*
X98940192Y-57365039D01*
X98940192Y-52405039D02*
X98940192Y-53845039D01*
X98981192Y-55925039D02*
X98981192Y-57376039D01*
X98981192Y-52394039D02*
X98981192Y-53845039D01*
X99021192Y-55925039D02*
X99021192Y-57386039D01*
X99021192Y-52384039D02*
X99021192Y-53845039D01*
X99061192Y-55925039D02*
X99061192Y-57396039D01*
X99061192Y-52374039D02*
X99061192Y-53845039D01*
X99101192Y-55925039D02*
X99101192Y-57405039D01*
X99101192Y-52365039D02*
X99101192Y-53845039D01*
X99141192Y-55925039D02*
X99141192Y-57413039D01*
X99141192Y-52357039D02*
X99141192Y-53845039D01*
X99181192Y-55925039D02*
X99181192Y-57421039D01*
X99181192Y-52349039D02*
X99181192Y-53845039D01*
X99221192Y-55925039D02*
X99221192Y-57428039D01*
X99221192Y-52342039D02*
X99221192Y-53845039D01*
X99261192Y-55925039D02*
X99261192Y-57435039D01*
X99261192Y-52335039D02*
X99261192Y-53845039D01*
X99301192Y-55925039D02*
X99301192Y-57441039D01*
X99301192Y-52329039D02*
X99301192Y-53845039D01*
X99341192Y-55925039D02*
X99341192Y-57446039D01*
X99341192Y-52324039D02*
X99341192Y-53845039D01*
X99381192Y-55925039D02*
X99381192Y-57450039D01*
X99381192Y-52320039D02*
X99381192Y-53845039D01*
X99421192Y-55925039D02*
X99421192Y-57454039D01*
X99421192Y-52316039D02*
X99421192Y-53845039D01*
X99461192Y-55925039D02*
X99461192Y-57458039D01*
X99461192Y-52312039D02*
X99461192Y-53845039D01*
X99501192Y-55925039D02*
X99501192Y-57461039D01*
X99501192Y-52309039D02*
X99501192Y-53845039D01*
X99541192Y-55925039D02*
X99541192Y-57463039D01*
X99541192Y-52307039D02*
X99541192Y-53845039D01*
X99581192Y-55925039D02*
X99581192Y-57464039D01*
X99581192Y-52306039D02*
X99581192Y-53845039D01*
X99621192Y-52305039D02*
X99621192Y-53845039D01*
X99621192Y-55925039D02*
X99621192Y-57465039D01*
X99661192Y-52305039D02*
X99661192Y-53845039D01*
X99661192Y-55925039D02*
X99661192Y-57465039D01*
X102281192Y-54885039D02*
G75*
G03X102281192Y-54885039I-2620000J0D01*
G01*
G04 #@! TO.C,C63*
X92006417Y-78210039D02*
X92006417Y-77710039D01*
X91756417Y-77960039D02*
X92256417Y-77960039D01*
X97162192Y-76769039D02*
X97162192Y-76201039D01*
X97122192Y-77003039D02*
X97122192Y-75967039D01*
X97082192Y-77162039D02*
X97082192Y-75808039D01*
X97042192Y-77290039D02*
X97042192Y-75680039D01*
X97002192Y-77400039D02*
X97002192Y-75570039D01*
X96962192Y-77496039D02*
X96962192Y-75474039D01*
X96922192Y-77583039D02*
X96922192Y-75387039D01*
X96882192Y-77663039D02*
X96882192Y-75307039D01*
X96842192Y-77736039D02*
X96842192Y-75234039D01*
X96802192Y-77804039D02*
X96802192Y-75166039D01*
X96762192Y-77868039D02*
X96762192Y-75102039D01*
X96722192Y-77928039D02*
X96722192Y-75042039D01*
X96682192Y-77985039D02*
X96682192Y-74985039D01*
X96642192Y-78039039D02*
X96642192Y-74931039D01*
X96602192Y-78090039D02*
X96602192Y-74880039D01*
X96562192Y-75445039D02*
X96562192Y-74832039D01*
X96562192Y-78138039D02*
X96562192Y-77525039D01*
X96522192Y-75445039D02*
X96522192Y-74786039D01*
X96522192Y-78184039D02*
X96522192Y-77525039D01*
X96482192Y-75445039D02*
X96482192Y-74742039D01*
X96482192Y-78228039D02*
X96482192Y-77525039D01*
X96442192Y-75445039D02*
X96442192Y-74700039D01*
X96442192Y-78270039D02*
X96442192Y-77525039D01*
X96402192Y-75445039D02*
X96402192Y-74659039D01*
X96402192Y-78311039D02*
X96402192Y-77525039D01*
X96362192Y-75445039D02*
X96362192Y-74621039D01*
X96362192Y-78349039D02*
X96362192Y-77525039D01*
X96322192Y-75445039D02*
X96322192Y-74584039D01*
X96322192Y-78386039D02*
X96322192Y-77525039D01*
X96282192Y-75445039D02*
X96282192Y-74548039D01*
X96282192Y-78422039D02*
X96282192Y-77525039D01*
X96242192Y-75445039D02*
X96242192Y-74514039D01*
X96242192Y-78456039D02*
X96242192Y-77525039D01*
X96202192Y-75445039D02*
X96202192Y-74481039D01*
X96202192Y-78489039D02*
X96202192Y-77525039D01*
X96162192Y-75445039D02*
X96162192Y-74450039D01*
X96162192Y-78520039D02*
X96162192Y-77525039D01*
X96122192Y-75445039D02*
X96122192Y-74420039D01*
X96122192Y-78550039D02*
X96122192Y-77525039D01*
X96082192Y-75445039D02*
X96082192Y-74390039D01*
X96082192Y-78580039D02*
X96082192Y-77525039D01*
X96042192Y-75445039D02*
X96042192Y-74363039D01*
X96042192Y-78607039D02*
X96042192Y-77525039D01*
X96002192Y-75445039D02*
X96002192Y-74336039D01*
X96002192Y-78634039D02*
X96002192Y-77525039D01*
X95962192Y-75445039D02*
X95962192Y-74310039D01*
X95962192Y-78660039D02*
X95962192Y-77525039D01*
X95922192Y-75445039D02*
X95922192Y-74285039D01*
X95922192Y-78685039D02*
X95922192Y-77525039D01*
X95882192Y-75445039D02*
X95882192Y-74261039D01*
X95882192Y-78709039D02*
X95882192Y-77525039D01*
X95842192Y-75445039D02*
X95842192Y-74238039D01*
X95842192Y-78732039D02*
X95842192Y-77525039D01*
X95802192Y-75445039D02*
X95802192Y-74217039D01*
X95802192Y-78753039D02*
X95802192Y-77525039D01*
X95762192Y-75445039D02*
X95762192Y-74195039D01*
X95762192Y-78775039D02*
X95762192Y-77525039D01*
X95722192Y-75445039D02*
X95722192Y-74175039D01*
X95722192Y-78795039D02*
X95722192Y-77525039D01*
X95682192Y-75445039D02*
X95682192Y-74156039D01*
X95682192Y-78814039D02*
X95682192Y-77525039D01*
X95642192Y-75445039D02*
X95642192Y-74137039D01*
X95642192Y-78833039D02*
X95642192Y-77525039D01*
X95602192Y-75445039D02*
X95602192Y-74120039D01*
X95602192Y-78850039D02*
X95602192Y-77525039D01*
X95562192Y-75445039D02*
X95562192Y-74103039D01*
X95562192Y-78867039D02*
X95562192Y-77525039D01*
X95522192Y-75445039D02*
X95522192Y-74087039D01*
X95522192Y-78883039D02*
X95522192Y-77525039D01*
X95482192Y-75445039D02*
X95482192Y-74071039D01*
X95482192Y-78899039D02*
X95482192Y-77525039D01*
X95442192Y-75445039D02*
X95442192Y-74057039D01*
X95442192Y-78913039D02*
X95442192Y-77525039D01*
X95402192Y-75445039D02*
X95402192Y-74043039D01*
X95402192Y-78927039D02*
X95402192Y-77525039D01*
X95362192Y-75445039D02*
X95362192Y-74030039D01*
X95362192Y-78940039D02*
X95362192Y-77525039D01*
X95322192Y-75445039D02*
X95322192Y-74017039D01*
X95322192Y-78953039D02*
X95322192Y-77525039D01*
X95282192Y-75445039D02*
X95282192Y-74005039D01*
X95282192Y-78965039D02*
X95282192Y-77525039D01*
X95241192Y-75445039D02*
X95241192Y-73994039D01*
X95241192Y-78976039D02*
X95241192Y-77525039D01*
X95201192Y-75445039D02*
X95201192Y-73984039D01*
X95201192Y-78986039D02*
X95201192Y-77525039D01*
X95161192Y-75445039D02*
X95161192Y-73974039D01*
X95161192Y-78996039D02*
X95161192Y-77525039D01*
X95121192Y-75445039D02*
X95121192Y-73965039D01*
X95121192Y-79005039D02*
X95121192Y-77525039D01*
X95081192Y-75445039D02*
X95081192Y-73957039D01*
X95081192Y-79013039D02*
X95081192Y-77525039D01*
X95041192Y-75445039D02*
X95041192Y-73949039D01*
X95041192Y-79021039D02*
X95041192Y-77525039D01*
X95001192Y-75445039D02*
X95001192Y-73942039D01*
X95001192Y-79028039D02*
X95001192Y-77525039D01*
X94961192Y-75445039D02*
X94961192Y-73935039D01*
X94961192Y-79035039D02*
X94961192Y-77525039D01*
X94921192Y-75445039D02*
X94921192Y-73929039D01*
X94921192Y-79041039D02*
X94921192Y-77525039D01*
X94881192Y-75445039D02*
X94881192Y-73924039D01*
X94881192Y-79046039D02*
X94881192Y-77525039D01*
X94841192Y-75445039D02*
X94841192Y-73920039D01*
X94841192Y-79050039D02*
X94841192Y-77525039D01*
X94801192Y-75445039D02*
X94801192Y-73916039D01*
X94801192Y-79054039D02*
X94801192Y-77525039D01*
X94761192Y-75445039D02*
X94761192Y-73912039D01*
X94761192Y-79058039D02*
X94761192Y-77525039D01*
X94721192Y-75445039D02*
X94721192Y-73909039D01*
X94721192Y-79061039D02*
X94721192Y-77525039D01*
X94681192Y-75445039D02*
X94681192Y-73907039D01*
X94681192Y-79063039D02*
X94681192Y-77525039D01*
X94641192Y-75445039D02*
X94641192Y-73906039D01*
X94641192Y-79064039D02*
X94641192Y-77525039D01*
X94601192Y-79065039D02*
X94601192Y-77525039D01*
X94601192Y-75445039D02*
X94601192Y-73905039D01*
X94561192Y-79065039D02*
X94561192Y-77525039D01*
X94561192Y-75445039D02*
X94561192Y-73905039D01*
X97181192Y-76485039D02*
G75*
G03X97181192Y-76485039I-2620000J0D01*
G01*
G04 #@! TO.C,C64*
X107206417Y-78610039D02*
X107206417Y-78110039D01*
X106956417Y-78360039D02*
X107456417Y-78360039D01*
X112362192Y-77169039D02*
X112362192Y-76601039D01*
X112322192Y-77403039D02*
X112322192Y-76367039D01*
X112282192Y-77562039D02*
X112282192Y-76208039D01*
X112242192Y-77690039D02*
X112242192Y-76080039D01*
X112202192Y-77800039D02*
X112202192Y-75970039D01*
X112162192Y-77896039D02*
X112162192Y-75874039D01*
X112122192Y-77983039D02*
X112122192Y-75787039D01*
X112082192Y-78063039D02*
X112082192Y-75707039D01*
X112042192Y-78136039D02*
X112042192Y-75634039D01*
X112002192Y-78204039D02*
X112002192Y-75566039D01*
X111962192Y-78268039D02*
X111962192Y-75502039D01*
X111922192Y-78328039D02*
X111922192Y-75442039D01*
X111882192Y-78385039D02*
X111882192Y-75385039D01*
X111842192Y-78439039D02*
X111842192Y-75331039D01*
X111802192Y-78490039D02*
X111802192Y-75280039D01*
X111762192Y-75845039D02*
X111762192Y-75232039D01*
X111762192Y-78538039D02*
X111762192Y-77925039D01*
X111722192Y-75845039D02*
X111722192Y-75186039D01*
X111722192Y-78584039D02*
X111722192Y-77925039D01*
X111682192Y-75845039D02*
X111682192Y-75142039D01*
X111682192Y-78628039D02*
X111682192Y-77925039D01*
X111642192Y-75845039D02*
X111642192Y-75100039D01*
X111642192Y-78670039D02*
X111642192Y-77925039D01*
X111602192Y-75845039D02*
X111602192Y-75059039D01*
X111602192Y-78711039D02*
X111602192Y-77925039D01*
X111562192Y-75845039D02*
X111562192Y-75021039D01*
X111562192Y-78749039D02*
X111562192Y-77925039D01*
X111522192Y-75845039D02*
X111522192Y-74984039D01*
X111522192Y-78786039D02*
X111522192Y-77925039D01*
X111482192Y-75845039D02*
X111482192Y-74948039D01*
X111482192Y-78822039D02*
X111482192Y-77925039D01*
X111442192Y-75845039D02*
X111442192Y-74914039D01*
X111442192Y-78856039D02*
X111442192Y-77925039D01*
X111402192Y-75845039D02*
X111402192Y-74881039D01*
X111402192Y-78889039D02*
X111402192Y-77925039D01*
X111362192Y-75845039D02*
X111362192Y-74850039D01*
X111362192Y-78920039D02*
X111362192Y-77925039D01*
X111322192Y-75845039D02*
X111322192Y-74820039D01*
X111322192Y-78950039D02*
X111322192Y-77925039D01*
X111282192Y-75845039D02*
X111282192Y-74790039D01*
X111282192Y-78980039D02*
X111282192Y-77925039D01*
X111242192Y-75845039D02*
X111242192Y-74763039D01*
X111242192Y-79007039D02*
X111242192Y-77925039D01*
X111202192Y-75845039D02*
X111202192Y-74736039D01*
X111202192Y-79034039D02*
X111202192Y-77925039D01*
X111162192Y-75845039D02*
X111162192Y-74710039D01*
X111162192Y-79060039D02*
X111162192Y-77925039D01*
X111122192Y-75845039D02*
X111122192Y-74685039D01*
X111122192Y-79085039D02*
X111122192Y-77925039D01*
X111082192Y-75845039D02*
X111082192Y-74661039D01*
X111082192Y-79109039D02*
X111082192Y-77925039D01*
X111042192Y-75845039D02*
X111042192Y-74638039D01*
X111042192Y-79132039D02*
X111042192Y-77925039D01*
X111002192Y-75845039D02*
X111002192Y-74617039D01*
X111002192Y-79153039D02*
X111002192Y-77925039D01*
X110962192Y-75845039D02*
X110962192Y-74595039D01*
X110962192Y-79175039D02*
X110962192Y-77925039D01*
X110922192Y-75845039D02*
X110922192Y-74575039D01*
X110922192Y-79195039D02*
X110922192Y-77925039D01*
X110882192Y-75845039D02*
X110882192Y-74556039D01*
X110882192Y-79214039D02*
X110882192Y-77925039D01*
X110842192Y-75845039D02*
X110842192Y-74537039D01*
X110842192Y-79233039D02*
X110842192Y-77925039D01*
X110802192Y-75845039D02*
X110802192Y-74520039D01*
X110802192Y-79250039D02*
X110802192Y-77925039D01*
X110762192Y-75845039D02*
X110762192Y-74503039D01*
X110762192Y-79267039D02*
X110762192Y-77925039D01*
X110722192Y-75845039D02*
X110722192Y-74487039D01*
X110722192Y-79283039D02*
X110722192Y-77925039D01*
X110682192Y-75845039D02*
X110682192Y-74471039D01*
X110682192Y-79299039D02*
X110682192Y-77925039D01*
X110642192Y-75845039D02*
X110642192Y-74457039D01*
X110642192Y-79313039D02*
X110642192Y-77925039D01*
X110602192Y-75845039D02*
X110602192Y-74443039D01*
X110602192Y-79327039D02*
X110602192Y-77925039D01*
X110562192Y-75845039D02*
X110562192Y-74430039D01*
X110562192Y-79340039D02*
X110562192Y-77925039D01*
X110522192Y-75845039D02*
X110522192Y-74417039D01*
X110522192Y-79353039D02*
X110522192Y-77925039D01*
X110482192Y-75845039D02*
X110482192Y-74405039D01*
X110482192Y-79365039D02*
X110482192Y-77925039D01*
X110441192Y-75845039D02*
X110441192Y-74394039D01*
X110441192Y-79376039D02*
X110441192Y-77925039D01*
X110401192Y-75845039D02*
X110401192Y-74384039D01*
X110401192Y-79386039D02*
X110401192Y-77925039D01*
X110361192Y-75845039D02*
X110361192Y-74374039D01*
X110361192Y-79396039D02*
X110361192Y-77925039D01*
X110321192Y-75845039D02*
X110321192Y-74365039D01*
X110321192Y-79405039D02*
X110321192Y-77925039D01*
X110281192Y-75845039D02*
X110281192Y-74357039D01*
X110281192Y-79413039D02*
X110281192Y-77925039D01*
X110241192Y-75845039D02*
X110241192Y-74349039D01*
X110241192Y-79421039D02*
X110241192Y-77925039D01*
X110201192Y-75845039D02*
X110201192Y-74342039D01*
X110201192Y-79428039D02*
X110201192Y-77925039D01*
X110161192Y-75845039D02*
X110161192Y-74335039D01*
X110161192Y-79435039D02*
X110161192Y-77925039D01*
X110121192Y-75845039D02*
X110121192Y-74329039D01*
X110121192Y-79441039D02*
X110121192Y-77925039D01*
X110081192Y-75845039D02*
X110081192Y-74324039D01*
X110081192Y-79446039D02*
X110081192Y-77925039D01*
X110041192Y-75845039D02*
X110041192Y-74320039D01*
X110041192Y-79450039D02*
X110041192Y-77925039D01*
X110001192Y-75845039D02*
X110001192Y-74316039D01*
X110001192Y-79454039D02*
X110001192Y-77925039D01*
X109961192Y-75845039D02*
X109961192Y-74312039D01*
X109961192Y-79458039D02*
X109961192Y-77925039D01*
X109921192Y-75845039D02*
X109921192Y-74309039D01*
X109921192Y-79461039D02*
X109921192Y-77925039D01*
X109881192Y-75845039D02*
X109881192Y-74307039D01*
X109881192Y-79463039D02*
X109881192Y-77925039D01*
X109841192Y-75845039D02*
X109841192Y-74306039D01*
X109841192Y-79464039D02*
X109841192Y-77925039D01*
X109801192Y-79465039D02*
X109801192Y-77925039D01*
X109801192Y-75845039D02*
X109801192Y-74305039D01*
X109761192Y-79465039D02*
X109761192Y-77925039D01*
X109761192Y-75845039D02*
X109761192Y-74305039D01*
X112381192Y-76885039D02*
G75*
G03X112381192Y-76885039I-2620000J0D01*
G01*
G04 #@! TO.C,C65*
X113415967Y-57360039D02*
X113415967Y-57860039D01*
X113665967Y-57610039D02*
X113165967Y-57610039D01*
X108260192Y-58801039D02*
X108260192Y-59369039D01*
X108300192Y-58567039D02*
X108300192Y-59603039D01*
X108340192Y-58408039D02*
X108340192Y-59762039D01*
X108380192Y-58280039D02*
X108380192Y-59890039D01*
X108420192Y-58170039D02*
X108420192Y-60000039D01*
X108460192Y-58074039D02*
X108460192Y-60096039D01*
X108500192Y-57987039D02*
X108500192Y-60183039D01*
X108540192Y-57907039D02*
X108540192Y-60263039D01*
X108580192Y-57834039D02*
X108580192Y-60336039D01*
X108620192Y-57766039D02*
X108620192Y-60404039D01*
X108660192Y-57702039D02*
X108660192Y-60468039D01*
X108700192Y-57642039D02*
X108700192Y-60528039D01*
X108740192Y-57585039D02*
X108740192Y-60585039D01*
X108780192Y-57531039D02*
X108780192Y-60639039D01*
X108820192Y-57480039D02*
X108820192Y-60690039D01*
X108860192Y-60125039D02*
X108860192Y-60738039D01*
X108860192Y-57432039D02*
X108860192Y-58045039D01*
X108900192Y-60125039D02*
X108900192Y-60784039D01*
X108900192Y-57386039D02*
X108900192Y-58045039D01*
X108940192Y-60125039D02*
X108940192Y-60828039D01*
X108940192Y-57342039D02*
X108940192Y-58045039D01*
X108980192Y-60125039D02*
X108980192Y-60870039D01*
X108980192Y-57300039D02*
X108980192Y-58045039D01*
X109020192Y-60125039D02*
X109020192Y-60911039D01*
X109020192Y-57259039D02*
X109020192Y-58045039D01*
X109060192Y-60125039D02*
X109060192Y-60949039D01*
X109060192Y-57221039D02*
X109060192Y-58045039D01*
X109100192Y-60125039D02*
X109100192Y-60986039D01*
X109100192Y-57184039D02*
X109100192Y-58045039D01*
X109140192Y-60125039D02*
X109140192Y-61022039D01*
X109140192Y-57148039D02*
X109140192Y-58045039D01*
X109180192Y-60125039D02*
X109180192Y-61056039D01*
X109180192Y-57114039D02*
X109180192Y-58045039D01*
X109220192Y-60125039D02*
X109220192Y-61089039D01*
X109220192Y-57081039D02*
X109220192Y-58045039D01*
X109260192Y-60125039D02*
X109260192Y-61120039D01*
X109260192Y-57050039D02*
X109260192Y-58045039D01*
X109300192Y-60125039D02*
X109300192Y-61150039D01*
X109300192Y-57020039D02*
X109300192Y-58045039D01*
X109340192Y-60125039D02*
X109340192Y-61180039D01*
X109340192Y-56990039D02*
X109340192Y-58045039D01*
X109380192Y-60125039D02*
X109380192Y-61207039D01*
X109380192Y-56963039D02*
X109380192Y-58045039D01*
X109420192Y-60125039D02*
X109420192Y-61234039D01*
X109420192Y-56936039D02*
X109420192Y-58045039D01*
X109460192Y-60125039D02*
X109460192Y-61260039D01*
X109460192Y-56910039D02*
X109460192Y-58045039D01*
X109500192Y-60125039D02*
X109500192Y-61285039D01*
X109500192Y-56885039D02*
X109500192Y-58045039D01*
X109540192Y-60125039D02*
X109540192Y-61309039D01*
X109540192Y-56861039D02*
X109540192Y-58045039D01*
X109580192Y-60125039D02*
X109580192Y-61332039D01*
X109580192Y-56838039D02*
X109580192Y-58045039D01*
X109620192Y-60125039D02*
X109620192Y-61353039D01*
X109620192Y-56817039D02*
X109620192Y-58045039D01*
X109660192Y-60125039D02*
X109660192Y-61375039D01*
X109660192Y-56795039D02*
X109660192Y-58045039D01*
X109700192Y-60125039D02*
X109700192Y-61395039D01*
X109700192Y-56775039D02*
X109700192Y-58045039D01*
X109740192Y-60125039D02*
X109740192Y-61414039D01*
X109740192Y-56756039D02*
X109740192Y-58045039D01*
X109780192Y-60125039D02*
X109780192Y-61433039D01*
X109780192Y-56737039D02*
X109780192Y-58045039D01*
X109820192Y-60125039D02*
X109820192Y-61450039D01*
X109820192Y-56720039D02*
X109820192Y-58045039D01*
X109860192Y-60125039D02*
X109860192Y-61467039D01*
X109860192Y-56703039D02*
X109860192Y-58045039D01*
X109900192Y-60125039D02*
X109900192Y-61483039D01*
X109900192Y-56687039D02*
X109900192Y-58045039D01*
X109940192Y-60125039D02*
X109940192Y-61499039D01*
X109940192Y-56671039D02*
X109940192Y-58045039D01*
X109980192Y-60125039D02*
X109980192Y-61513039D01*
X109980192Y-56657039D02*
X109980192Y-58045039D01*
X110020192Y-60125039D02*
X110020192Y-61527039D01*
X110020192Y-56643039D02*
X110020192Y-58045039D01*
X110060192Y-60125039D02*
X110060192Y-61540039D01*
X110060192Y-56630039D02*
X110060192Y-58045039D01*
X110100192Y-60125039D02*
X110100192Y-61553039D01*
X110100192Y-56617039D02*
X110100192Y-58045039D01*
X110140192Y-60125039D02*
X110140192Y-61565039D01*
X110140192Y-56605039D02*
X110140192Y-58045039D01*
X110181192Y-60125039D02*
X110181192Y-61576039D01*
X110181192Y-56594039D02*
X110181192Y-58045039D01*
X110221192Y-60125039D02*
X110221192Y-61586039D01*
X110221192Y-56584039D02*
X110221192Y-58045039D01*
X110261192Y-60125039D02*
X110261192Y-61596039D01*
X110261192Y-56574039D02*
X110261192Y-58045039D01*
X110301192Y-60125039D02*
X110301192Y-61605039D01*
X110301192Y-56565039D02*
X110301192Y-58045039D01*
X110341192Y-60125039D02*
X110341192Y-61613039D01*
X110341192Y-56557039D02*
X110341192Y-58045039D01*
X110381192Y-60125039D02*
X110381192Y-61621039D01*
X110381192Y-56549039D02*
X110381192Y-58045039D01*
X110421192Y-60125039D02*
X110421192Y-61628039D01*
X110421192Y-56542039D02*
X110421192Y-58045039D01*
X110461192Y-60125039D02*
X110461192Y-61635039D01*
X110461192Y-56535039D02*
X110461192Y-58045039D01*
X110501192Y-60125039D02*
X110501192Y-61641039D01*
X110501192Y-56529039D02*
X110501192Y-58045039D01*
X110541192Y-60125039D02*
X110541192Y-61646039D01*
X110541192Y-56524039D02*
X110541192Y-58045039D01*
X110581192Y-60125039D02*
X110581192Y-61650039D01*
X110581192Y-56520039D02*
X110581192Y-58045039D01*
X110621192Y-60125039D02*
X110621192Y-61654039D01*
X110621192Y-56516039D02*
X110621192Y-58045039D01*
X110661192Y-60125039D02*
X110661192Y-61658039D01*
X110661192Y-56512039D02*
X110661192Y-58045039D01*
X110701192Y-60125039D02*
X110701192Y-61661039D01*
X110701192Y-56509039D02*
X110701192Y-58045039D01*
X110741192Y-60125039D02*
X110741192Y-61663039D01*
X110741192Y-56507039D02*
X110741192Y-58045039D01*
X110781192Y-60125039D02*
X110781192Y-61664039D01*
X110781192Y-56506039D02*
X110781192Y-58045039D01*
X110821192Y-56505039D02*
X110821192Y-58045039D01*
X110821192Y-60125039D02*
X110821192Y-61665039D01*
X110861192Y-56505039D02*
X110861192Y-58045039D01*
X110861192Y-60125039D02*
X110861192Y-61665039D01*
X113481192Y-59085039D02*
G75*
G03X113481192Y-59085039I-2620000J0D01*
G01*
G04 #@! TO.C,C66*
X95971192Y-54323787D02*
X95971192Y-54846291D01*
X94551192Y-54323787D02*
X94551192Y-54846291D01*
G04 #@! TO.C,C67*
X99222444Y-67795039D02*
X98699940Y-67795039D01*
X99222444Y-66375039D02*
X98699940Y-66375039D01*
G04 #@! TO.C,C68*
X108551192Y-66146291D02*
X108551192Y-65623787D01*
X109971192Y-66146291D02*
X109971192Y-65623787D01*
G04 #@! TO.C,C69*
X106022444Y-54495039D02*
X105499940Y-54495039D01*
X106022444Y-53075039D02*
X105499940Y-53075039D01*
G04 #@! TO.C,D9*
X94061192Y-40934404D02*
X94061192Y-40275039D01*
X95811827Y-42685039D02*
G75*
G03X95811827Y-42685039I-1750635J0D01*
G01*
G04 #@! TO.C,D10*
X110761192Y-41235674D02*
X110761192Y-41895039D01*
X112511827Y-39485039D02*
G75*
G03X112511827Y-39485039I-1750635J0D01*
G01*
G04 #@! TO.C,FB1*
X98283195Y-58436815D02*
X98805699Y-58436815D01*
X98283195Y-59856815D02*
X98805699Y-59856815D01*
G04 #@! TO.C,FB2*
X98283195Y-60536815D02*
X98805699Y-60536815D01*
X98283195Y-61956815D02*
X98805699Y-61956815D01*
D13*
G04 #@! TO.C,J38*
X105268622Y-37360500D02*
X100188622Y-37360500D01*
X105268622Y-34820500D02*
X105268622Y-37360500D01*
X100188622Y-34820500D02*
X105268622Y-34820500D01*
X100188622Y-36090500D02*
X100188622Y-34820500D01*
X100188622Y-37360500D02*
X100188622Y-36090500D01*
X107808622Y-27200500D02*
X107808622Y-23390500D01*
X107808622Y-37360500D02*
X107808622Y-39900500D01*
D12*
X92048622Y-27355500D02*
X92048622Y-29895500D01*
X92048622Y-27355500D02*
X94588622Y-27355500D01*
X92298622Y-27605500D02*
X92298622Y-36955500D01*
X113158622Y-27605500D02*
X92298622Y-27605500D01*
X113158622Y-36955500D02*
X113158622Y-27605500D01*
X92298622Y-36955500D02*
X113158622Y-36955500D01*
D13*
G04 #@! TO.C,U1*
X131741192Y-108275039D02*
X131741192Y-90495039D01*
X96181192Y-108275039D02*
X131741192Y-108275039D01*
X96181192Y-90495039D02*
X96181192Y-108275039D01*
X131741192Y-90495039D02*
X96181192Y-90495039D01*
X105071192Y-104465039D02*
X113961192Y-104465039D01*
X105071192Y-94305039D02*
X113961192Y-94305039D01*
X113961192Y-94305039D02*
X113961192Y-104465039D01*
X105071192Y-104465039D02*
X105071192Y-94305039D01*
X101261192Y-101925039D02*
X101261192Y-96845039D01*
X98721192Y-101925039D02*
X101261192Y-101925039D01*
X98721192Y-96845039D02*
X98721192Y-101925039D01*
X125391192Y-101925039D02*
X125391192Y-104465039D01*
X122851192Y-101925039D02*
X125391192Y-101925039D01*
X122851192Y-104465039D02*
X122851192Y-101925039D01*
X125391192Y-104465039D02*
X122851192Y-104465039D01*
X126661192Y-103195039D02*
X131741192Y-103195039D01*
X126661192Y-95575039D02*
X131741192Y-95575039D01*
X126661192Y-103195039D02*
X126661192Y-95575039D01*
X120311192Y-101925039D02*
X120311192Y-104465039D01*
X116501192Y-101925039D02*
X120311192Y-101925039D01*
X116501192Y-104465039D02*
X116501192Y-101925039D01*
X120311192Y-104465039D02*
X116501192Y-104465039D01*
X133011192Y-95575039D02*
X131741192Y-95575039D01*
X133011192Y-103195039D02*
X133011192Y-95575039D01*
X131741192Y-103195039D02*
X133011192Y-103195039D01*
D12*
G04 #@! TO.C,U29*
X98352192Y-51755039D02*
X98352192Y-50245039D01*
X94651192Y-51755039D02*
X94651192Y-50245039D01*
X91381192Y-50245039D02*
X101621192Y-50245039D01*
X101621192Y-51755039D02*
X101621192Y-47114039D01*
X91381192Y-51755039D02*
X91381192Y-47114039D01*
X91381192Y-47114039D02*
X101621192Y-47114039D01*
X91381192Y-51755039D02*
X101621192Y-51755039D01*
G04 #@! TO.C,U30*
X105970192Y-47815039D02*
X105970192Y-49325039D01*
X109671192Y-47815039D02*
X109671192Y-49325039D01*
X112941192Y-49325039D02*
X102701192Y-49325039D01*
X102701192Y-47815039D02*
X102701192Y-52456039D01*
X112941192Y-47815039D02*
X112941192Y-52456039D01*
X112941192Y-52456039D02*
X102701192Y-52456039D01*
X112941192Y-47815039D02*
X102701192Y-47815039D01*
D13*
G04 #@! TO.C,U17*
X133161192Y-28185039D02*
X133061192Y-28085039D01*
X133061192Y-27585039D02*
X133061192Y-28085039D01*
X113861192Y-27585039D02*
X133061192Y-27585039D01*
X113861192Y-60485039D02*
X113861192Y-27585039D01*
X115561192Y-60485039D02*
X113861192Y-60485039D01*
X133161192Y-60485039D02*
X115561192Y-60485039D01*
X133161192Y-27685039D02*
X133161192Y-60485039D01*
D12*
G04 #@! TO.C,U31*
X95270192Y-68415039D02*
X95270192Y-69925039D01*
X98971192Y-68415039D02*
X98971192Y-69925039D01*
X102241192Y-69925039D02*
X92001192Y-69925039D01*
X92001192Y-68415039D02*
X92001192Y-73056039D01*
X102241192Y-68415039D02*
X102241192Y-73056039D01*
X102241192Y-73056039D02*
X92001192Y-73056039D01*
X102241192Y-68415039D02*
X92001192Y-68415039D01*
G04 #@! TO.C,U32*
X106970192Y-68615039D02*
X106970192Y-70125039D01*
X110671192Y-68615039D02*
X110671192Y-70125039D01*
X113941192Y-70125039D02*
X103701192Y-70125039D01*
X103701192Y-68615039D02*
X103701192Y-73256039D01*
X113941192Y-68615039D02*
X113941192Y-73256039D01*
X113941192Y-73256039D02*
X103701192Y-73256039D01*
X113941192Y-68615039D02*
X103701192Y-68615039D01*
G04 #@! TO.C,R65*
X100623878Y-84957695D02*
X100623878Y-85480199D01*
X99203878Y-84957695D02*
X99203878Y-85480199D01*
G04 #@! TO.C,R66*
X105703878Y-84957695D02*
X105703878Y-85480199D01*
X104283878Y-84957695D02*
X104283878Y-85480199D01*
G04 #@! TO.C,R67*
X103163878Y-84957695D02*
X103163878Y-85480199D01*
X101743878Y-84957695D02*
X101743878Y-85480199D01*
G04 #@! TO.C,R84*
X126111192Y-78287787D02*
X126111192Y-78810291D01*
X124691192Y-78287787D02*
X124691192Y-78810291D01*
G04 #@! TO.C,R85*
X128651192Y-78287787D02*
X128651192Y-78810291D01*
X127231192Y-78287787D02*
X127231192Y-78810291D01*
G04 #@! TO.C,C56*
X96356417Y-42610039D02*
X96356417Y-42110039D01*
X96106417Y-42360039D02*
X96606417Y-42360039D01*
X101512192Y-41169039D02*
X101512192Y-40601039D01*
X101472192Y-41403039D02*
X101472192Y-40367039D01*
X101432192Y-41562039D02*
X101432192Y-40208039D01*
X101392192Y-41690039D02*
X101392192Y-40080039D01*
X101352192Y-41800039D02*
X101352192Y-39970039D01*
X101312192Y-41896039D02*
X101312192Y-39874039D01*
X101272192Y-41983039D02*
X101272192Y-39787039D01*
X101232192Y-42063039D02*
X101232192Y-39707039D01*
X101192192Y-39845039D02*
X101192192Y-39634039D01*
X101192192Y-42136039D02*
X101192192Y-41925039D01*
X101152192Y-39845039D02*
X101152192Y-39566039D01*
X101152192Y-42204039D02*
X101152192Y-41925039D01*
X101112192Y-39845039D02*
X101112192Y-39502039D01*
X101112192Y-42268039D02*
X101112192Y-41925039D01*
X101072192Y-39845039D02*
X101072192Y-39442039D01*
X101072192Y-42328039D02*
X101072192Y-41925039D01*
X101032192Y-39845039D02*
X101032192Y-39385039D01*
X101032192Y-42385039D02*
X101032192Y-41925039D01*
X100992192Y-39845039D02*
X100992192Y-39331039D01*
X100992192Y-42439039D02*
X100992192Y-41925039D01*
X100952192Y-39845039D02*
X100952192Y-39280039D01*
X100952192Y-42490039D02*
X100952192Y-41925039D01*
X100912192Y-39845039D02*
X100912192Y-39232039D01*
X100912192Y-42538039D02*
X100912192Y-41925039D01*
X100872192Y-39845039D02*
X100872192Y-39186039D01*
X100872192Y-42584039D02*
X100872192Y-41925039D01*
X100832192Y-39845039D02*
X100832192Y-39142039D01*
X100832192Y-42628039D02*
X100832192Y-41925039D01*
X100792192Y-39845039D02*
X100792192Y-39100039D01*
X100792192Y-42670039D02*
X100792192Y-41925039D01*
X100752192Y-39845039D02*
X100752192Y-39059039D01*
X100752192Y-42711039D02*
X100752192Y-41925039D01*
X100712192Y-39845039D02*
X100712192Y-39021039D01*
X100712192Y-42749039D02*
X100712192Y-41925039D01*
X100672192Y-39845039D02*
X100672192Y-38984039D01*
X100672192Y-42786039D02*
X100672192Y-41925039D01*
X100632192Y-39845039D02*
X100632192Y-38948039D01*
X100632192Y-42822039D02*
X100632192Y-41925039D01*
X100592192Y-39845039D02*
X100592192Y-38914039D01*
X100592192Y-42856039D02*
X100592192Y-41925039D01*
X100552192Y-39845039D02*
X100552192Y-38881039D01*
X100552192Y-42889039D02*
X100552192Y-41925039D01*
X100512192Y-39845039D02*
X100512192Y-38850039D01*
X100512192Y-42920039D02*
X100512192Y-41925039D01*
X100472192Y-39845039D02*
X100472192Y-38820039D01*
X100472192Y-42950039D02*
X100472192Y-41925039D01*
X100432192Y-39845039D02*
X100432192Y-38790039D01*
X100432192Y-42980039D02*
X100432192Y-41925039D01*
X100392192Y-39845039D02*
X100392192Y-38763039D01*
X100392192Y-43007039D02*
X100392192Y-41925039D01*
X100352192Y-39845039D02*
X100352192Y-38736039D01*
X100352192Y-43034039D02*
X100352192Y-41925039D01*
X100312192Y-39845039D02*
X100312192Y-38710039D01*
X100312192Y-43060039D02*
X100312192Y-41925039D01*
X100272192Y-39845039D02*
X100272192Y-38685039D01*
X100272192Y-43085039D02*
X100272192Y-41925039D01*
X100232192Y-39845039D02*
X100232192Y-38661039D01*
X100232192Y-43109039D02*
X100232192Y-41925039D01*
X100192192Y-39845039D02*
X100192192Y-38638039D01*
X100192192Y-43132039D02*
X100192192Y-41925039D01*
X100152192Y-39845039D02*
X100152192Y-38617039D01*
X100152192Y-43153039D02*
X100152192Y-41925039D01*
X100112192Y-39845039D02*
X100112192Y-38595039D01*
X100112192Y-43175039D02*
X100112192Y-41925039D01*
X100072192Y-39845039D02*
X100072192Y-38575039D01*
X100072192Y-43195039D02*
X100072192Y-41925039D01*
X100032192Y-39845039D02*
X100032192Y-38556039D01*
X100032192Y-43214039D02*
X100032192Y-41925039D01*
X99992192Y-39845039D02*
X99992192Y-38537039D01*
X99992192Y-43233039D02*
X99992192Y-41925039D01*
X99952192Y-39845039D02*
X99952192Y-38520039D01*
X99952192Y-43250039D02*
X99952192Y-41925039D01*
X99912192Y-39845039D02*
X99912192Y-38503039D01*
X99912192Y-43267039D02*
X99912192Y-41925039D01*
X99872192Y-39845039D02*
X99872192Y-38487039D01*
X99872192Y-43283039D02*
X99872192Y-41925039D01*
X99832192Y-39845039D02*
X99832192Y-38471039D01*
X99832192Y-43299039D02*
X99832192Y-41925039D01*
X99792192Y-39845039D02*
X99792192Y-38457039D01*
X99792192Y-43313039D02*
X99792192Y-41925039D01*
X99752192Y-39845039D02*
X99752192Y-38443039D01*
X99752192Y-43327039D02*
X99752192Y-41925039D01*
X99712192Y-39845039D02*
X99712192Y-38430039D01*
X99712192Y-43340039D02*
X99712192Y-41925039D01*
X99672192Y-39845039D02*
X99672192Y-38417039D01*
X99672192Y-43353039D02*
X99672192Y-41925039D01*
X99632192Y-39845039D02*
X99632192Y-38405039D01*
X99632192Y-43365039D02*
X99632192Y-41925039D01*
X99591192Y-39845039D02*
X99591192Y-38394039D01*
X99591192Y-43376039D02*
X99591192Y-41925039D01*
X99551192Y-39845039D02*
X99551192Y-38384039D01*
X99551192Y-43386039D02*
X99551192Y-41925039D01*
X99511192Y-39845039D02*
X99511192Y-38374039D01*
X99511192Y-43396039D02*
X99511192Y-41925039D01*
X99471192Y-39845039D02*
X99471192Y-38365039D01*
X99471192Y-43405039D02*
X99471192Y-41925039D01*
X99431192Y-39845039D02*
X99431192Y-38357039D01*
X99431192Y-43413039D02*
X99431192Y-41925039D01*
X99391192Y-39845039D02*
X99391192Y-38349039D01*
X99391192Y-43421039D02*
X99391192Y-41925039D01*
X99351192Y-39845039D02*
X99351192Y-38342039D01*
X99351192Y-43428039D02*
X99351192Y-41925039D01*
X99311192Y-39845039D02*
X99311192Y-38335039D01*
X99311192Y-43435039D02*
X99311192Y-41925039D01*
X99271192Y-39845039D02*
X99271192Y-38329039D01*
X99271192Y-43441039D02*
X99271192Y-41925039D01*
X99231192Y-39845039D02*
X99231192Y-38324039D01*
X99231192Y-43446039D02*
X99231192Y-41925039D01*
X99191192Y-39845039D02*
X99191192Y-38320039D01*
X99191192Y-43450039D02*
X99191192Y-41925039D01*
X99151192Y-39845039D02*
X99151192Y-38316039D01*
X99151192Y-43454039D02*
X99151192Y-41925039D01*
X99111192Y-43458039D02*
X99111192Y-38312039D01*
X99071192Y-43461039D02*
X99071192Y-38309039D01*
X99031192Y-43463039D02*
X99031192Y-38307039D01*
X98991192Y-43464039D02*
X98991192Y-38306039D01*
X98951192Y-43465039D02*
X98951192Y-38305039D01*
X98911192Y-43465039D02*
X98911192Y-38305039D01*
X101531192Y-40885039D02*
G75*
G03X101531192Y-40885039I-2620000J0D01*
G01*
G04 #@! TO.C,C57*
X102256417Y-42810039D02*
X102256417Y-42310039D01*
X102006417Y-42560039D02*
X102506417Y-42560039D01*
X107412192Y-41369039D02*
X107412192Y-40801039D01*
X107372192Y-41603039D02*
X107372192Y-40567039D01*
X107332192Y-41762039D02*
X107332192Y-40408039D01*
X107292192Y-41890039D02*
X107292192Y-40280039D01*
X107252192Y-42000039D02*
X107252192Y-40170039D01*
X107212192Y-42096039D02*
X107212192Y-40074039D01*
X107172192Y-42183039D02*
X107172192Y-39987039D01*
X107132192Y-42263039D02*
X107132192Y-39907039D01*
X107092192Y-40045039D02*
X107092192Y-39834039D01*
X107092192Y-42336039D02*
X107092192Y-42125039D01*
X107052192Y-40045039D02*
X107052192Y-39766039D01*
X107052192Y-42404039D02*
X107052192Y-42125039D01*
X107012192Y-40045039D02*
X107012192Y-39702039D01*
X107012192Y-42468039D02*
X107012192Y-42125039D01*
X106972192Y-40045039D02*
X106972192Y-39642039D01*
X106972192Y-42528039D02*
X106972192Y-42125039D01*
X106932192Y-40045039D02*
X106932192Y-39585039D01*
X106932192Y-42585039D02*
X106932192Y-42125039D01*
X106892192Y-40045039D02*
X106892192Y-39531039D01*
X106892192Y-42639039D02*
X106892192Y-42125039D01*
X106852192Y-40045039D02*
X106852192Y-39480039D01*
X106852192Y-42690039D02*
X106852192Y-42125039D01*
X106812192Y-40045039D02*
X106812192Y-39432039D01*
X106812192Y-42738039D02*
X106812192Y-42125039D01*
X106772192Y-40045039D02*
X106772192Y-39386039D01*
X106772192Y-42784039D02*
X106772192Y-42125039D01*
X106732192Y-40045039D02*
X106732192Y-39342039D01*
X106732192Y-42828039D02*
X106732192Y-42125039D01*
X106692192Y-40045039D02*
X106692192Y-39300039D01*
X106692192Y-42870039D02*
X106692192Y-42125039D01*
X106652192Y-40045039D02*
X106652192Y-39259039D01*
X106652192Y-42911039D02*
X106652192Y-42125039D01*
X106612192Y-40045039D02*
X106612192Y-39221039D01*
X106612192Y-42949039D02*
X106612192Y-42125039D01*
X106572192Y-40045039D02*
X106572192Y-39184039D01*
X106572192Y-42986039D02*
X106572192Y-42125039D01*
X106532192Y-40045039D02*
X106532192Y-39148039D01*
X106532192Y-43022039D02*
X106532192Y-42125039D01*
X106492192Y-40045039D02*
X106492192Y-39114039D01*
X106492192Y-43056039D02*
X106492192Y-42125039D01*
X106452192Y-40045039D02*
X106452192Y-39081039D01*
X106452192Y-43089039D02*
X106452192Y-42125039D01*
X106412192Y-40045039D02*
X106412192Y-39050039D01*
X106412192Y-43120039D02*
X106412192Y-42125039D01*
X106372192Y-40045039D02*
X106372192Y-39020039D01*
X106372192Y-43150039D02*
X106372192Y-42125039D01*
X106332192Y-40045039D02*
X106332192Y-38990039D01*
X106332192Y-43180039D02*
X106332192Y-42125039D01*
X106292192Y-40045039D02*
X106292192Y-38963039D01*
X106292192Y-43207039D02*
X106292192Y-42125039D01*
X106252192Y-40045039D02*
X106252192Y-38936039D01*
X106252192Y-43234039D02*
X106252192Y-42125039D01*
X106212192Y-40045039D02*
X106212192Y-38910039D01*
X106212192Y-43260039D02*
X106212192Y-42125039D01*
X106172192Y-40045039D02*
X106172192Y-38885039D01*
X106172192Y-43285039D02*
X106172192Y-42125039D01*
X106132192Y-40045039D02*
X106132192Y-38861039D01*
X106132192Y-43309039D02*
X106132192Y-42125039D01*
X106092192Y-40045039D02*
X106092192Y-38838039D01*
X106092192Y-43332039D02*
X106092192Y-42125039D01*
X106052192Y-40045039D02*
X106052192Y-38817039D01*
X106052192Y-43353039D02*
X106052192Y-42125039D01*
X106012192Y-40045039D02*
X106012192Y-38795039D01*
X106012192Y-43375039D02*
X106012192Y-42125039D01*
X105972192Y-40045039D02*
X105972192Y-38775039D01*
X105972192Y-43395039D02*
X105972192Y-42125039D01*
X105932192Y-40045039D02*
X105932192Y-38756039D01*
X105932192Y-43414039D02*
X105932192Y-42125039D01*
X105892192Y-40045039D02*
X105892192Y-38737039D01*
X105892192Y-43433039D02*
X105892192Y-42125039D01*
X105852192Y-40045039D02*
X105852192Y-38720039D01*
X105852192Y-43450039D02*
X105852192Y-42125039D01*
X105812192Y-40045039D02*
X105812192Y-38703039D01*
X105812192Y-43467039D02*
X105812192Y-42125039D01*
X105772192Y-40045039D02*
X105772192Y-38687039D01*
X105772192Y-43483039D02*
X105772192Y-42125039D01*
X105732192Y-40045039D02*
X105732192Y-38671039D01*
X105732192Y-43499039D02*
X105732192Y-42125039D01*
X105692192Y-40045039D02*
X105692192Y-38657039D01*
X105692192Y-43513039D02*
X105692192Y-42125039D01*
X105652192Y-40045039D02*
X105652192Y-38643039D01*
X105652192Y-43527039D02*
X105652192Y-42125039D01*
X105612192Y-40045039D02*
X105612192Y-38630039D01*
X105612192Y-43540039D02*
X105612192Y-42125039D01*
X105572192Y-40045039D02*
X105572192Y-38617039D01*
X105572192Y-43553039D02*
X105572192Y-42125039D01*
X105532192Y-40045039D02*
X105532192Y-38605039D01*
X105532192Y-43565039D02*
X105532192Y-42125039D01*
X105491192Y-40045039D02*
X105491192Y-38594039D01*
X105491192Y-43576039D02*
X105491192Y-42125039D01*
X105451192Y-40045039D02*
X105451192Y-38584039D01*
X105451192Y-43586039D02*
X105451192Y-42125039D01*
X105411192Y-40045039D02*
X105411192Y-38574039D01*
X105411192Y-43596039D02*
X105411192Y-42125039D01*
X105371192Y-40045039D02*
X105371192Y-38565039D01*
X105371192Y-43605039D02*
X105371192Y-42125039D01*
X105331192Y-40045039D02*
X105331192Y-38557039D01*
X105331192Y-43613039D02*
X105331192Y-42125039D01*
X105291192Y-40045039D02*
X105291192Y-38549039D01*
X105291192Y-43621039D02*
X105291192Y-42125039D01*
X105251192Y-40045039D02*
X105251192Y-38542039D01*
X105251192Y-43628039D02*
X105251192Y-42125039D01*
X105211192Y-40045039D02*
X105211192Y-38535039D01*
X105211192Y-43635039D02*
X105211192Y-42125039D01*
X105171192Y-40045039D02*
X105171192Y-38529039D01*
X105171192Y-43641039D02*
X105171192Y-42125039D01*
X105131192Y-40045039D02*
X105131192Y-38524039D01*
X105131192Y-43646039D02*
X105131192Y-42125039D01*
X105091192Y-40045039D02*
X105091192Y-38520039D01*
X105091192Y-43650039D02*
X105091192Y-42125039D01*
X105051192Y-40045039D02*
X105051192Y-38516039D01*
X105051192Y-43654039D02*
X105051192Y-42125039D01*
X105011192Y-43658039D02*
X105011192Y-38512039D01*
X104971192Y-43661039D02*
X104971192Y-38509039D01*
X104931192Y-43663039D02*
X104931192Y-38507039D01*
X104891192Y-43664039D02*
X104891192Y-38506039D01*
X104851192Y-43665039D02*
X104851192Y-38505039D01*
X104811192Y-43665039D02*
X104811192Y-38505039D01*
X107431192Y-41085039D02*
G75*
G03X107431192Y-41085039I-2620000J0D01*
G01*
G04 #@! TO.C,C58*
D13*
X93418334Y-57342181D02*
X93465953Y-57294562D01*
X93513572Y-57151705D01*
X93513572Y-57056467D01*
X93465953Y-56913610D01*
X93370715Y-56818372D01*
X93275477Y-56770753D01*
X93085001Y-56723134D01*
X92942144Y-56723134D01*
X92751668Y-56770753D01*
X92656430Y-56818372D01*
X92561192Y-56913610D01*
X92513572Y-57056467D01*
X92513572Y-57151705D01*
X92561192Y-57294562D01*
X92608811Y-57342181D01*
X92513572Y-58246943D02*
X92513572Y-57770753D01*
X92989763Y-57723134D01*
X92942144Y-57770753D01*
X92894525Y-57865991D01*
X92894525Y-58104086D01*
X92942144Y-58199324D01*
X92989763Y-58246943D01*
X93085001Y-58294562D01*
X93323096Y-58294562D01*
X93418334Y-58246943D01*
X93465953Y-58199324D01*
X93513572Y-58104086D01*
X93513572Y-57865991D01*
X93465953Y-57770753D01*
X93418334Y-57723134D01*
X92942144Y-58865991D02*
X92894525Y-58770753D01*
X92846906Y-58723134D01*
X92751668Y-58675515D01*
X92704049Y-58675515D01*
X92608811Y-58723134D01*
X92561192Y-58770753D01*
X92513572Y-58865991D01*
X92513572Y-59056467D01*
X92561192Y-59151705D01*
X92608811Y-59199324D01*
X92704049Y-59246943D01*
X92751668Y-59246943D01*
X92846906Y-59199324D01*
X92894525Y-59151705D01*
X92942144Y-59056467D01*
X92942144Y-58865991D01*
X92989763Y-58770753D01*
X93037382Y-58723134D01*
X93132620Y-58675515D01*
X93323096Y-58675515D01*
X93418334Y-58723134D01*
X93465953Y-58770753D01*
X93513572Y-58865991D01*
X93513572Y-59056467D01*
X93465953Y-59151705D01*
X93418334Y-59199324D01*
X93323096Y-59246943D01*
X93132620Y-59246943D01*
X93037382Y-59199324D01*
X92989763Y-59151705D01*
X92942144Y-59056467D01*
G04 #@! TO.C,C59*
X95529489Y-65557618D02*
X95577108Y-65605237D01*
X95719965Y-65652856D01*
X95815203Y-65652856D01*
X95958060Y-65605237D01*
X96053298Y-65509999D01*
X96100917Y-65414761D01*
X96148536Y-65224285D01*
X96148536Y-65081428D01*
X96100917Y-64890952D01*
X96053298Y-64795714D01*
X95958060Y-64700476D01*
X95815203Y-64652856D01*
X95719965Y-64652856D01*
X95577108Y-64700476D01*
X95529489Y-64748095D01*
X94624727Y-64652856D02*
X95100917Y-64652856D01*
X95148536Y-65129047D01*
X95100917Y-65081428D01*
X95005679Y-65033809D01*
X94767584Y-65033809D01*
X94672346Y-65081428D01*
X94624727Y-65129047D01*
X94577108Y-65224285D01*
X94577108Y-65462380D01*
X94624727Y-65557618D01*
X94672346Y-65605237D01*
X94767584Y-65652856D01*
X95005679Y-65652856D01*
X95100917Y-65605237D01*
X95148536Y-65557618D01*
X94100917Y-65652856D02*
X93910441Y-65652856D01*
X93815203Y-65605237D01*
X93767584Y-65557618D01*
X93672346Y-65414761D01*
X93624727Y-65224285D01*
X93624727Y-64843333D01*
X93672346Y-64748095D01*
X93719965Y-64700476D01*
X93815203Y-64652856D01*
X94005679Y-64652856D01*
X94100917Y-64700476D01*
X94148536Y-64748095D01*
X94196155Y-64843333D01*
X94196155Y-65081428D01*
X94148536Y-65176666D01*
X94100917Y-65224285D01*
X94005679Y-65271904D01*
X93815203Y-65271904D01*
X93719965Y-65224285D01*
X93672346Y-65176666D01*
X93624727Y-65081428D01*
G04 #@! TO.C,C60*
X102304049Y-67542181D02*
X102351668Y-67589800D01*
X102494525Y-67637419D01*
X102589763Y-67637419D01*
X102732620Y-67589800D01*
X102827858Y-67494562D01*
X102875477Y-67399324D01*
X102923096Y-67208848D01*
X102923096Y-67065991D01*
X102875477Y-66875515D01*
X102827858Y-66780277D01*
X102732620Y-66685039D01*
X102589763Y-66637419D01*
X102494525Y-66637419D01*
X102351668Y-66685039D01*
X102304049Y-66732658D01*
X101446906Y-66637419D02*
X101637382Y-66637419D01*
X101732620Y-66685039D01*
X101780239Y-66732658D01*
X101875477Y-66875515D01*
X101923096Y-67065991D01*
X101923096Y-67446943D01*
X101875477Y-67542181D01*
X101827858Y-67589800D01*
X101732620Y-67637419D01*
X101542144Y-67637419D01*
X101446906Y-67589800D01*
X101399287Y-67542181D01*
X101351668Y-67446943D01*
X101351668Y-67208848D01*
X101399287Y-67113610D01*
X101446906Y-67065991D01*
X101542144Y-67018372D01*
X101732620Y-67018372D01*
X101827858Y-67065991D01*
X101875477Y-67113610D01*
X101923096Y-67208848D01*
X100732620Y-66637419D02*
X100637382Y-66637419D01*
X100542144Y-66685039D01*
X100494525Y-66732658D01*
X100446906Y-66827896D01*
X100399287Y-67018372D01*
X100399287Y-67256467D01*
X100446906Y-67446943D01*
X100494525Y-67542181D01*
X100542144Y-67589800D01*
X100637382Y-67637419D01*
X100732620Y-67637419D01*
X100827858Y-67589800D01*
X100875477Y-67542181D01*
X100923096Y-67446943D01*
X100970715Y-67256467D01*
X100970715Y-67018372D01*
X100923096Y-66827896D01*
X100875477Y-66732658D01*
X100827858Y-66685039D01*
X100732620Y-66637419D01*
G04 #@! TO.C,C61*
X110504049Y-55942181D02*
X110551668Y-55989800D01*
X110694525Y-56037419D01*
X110789763Y-56037419D01*
X110932620Y-55989800D01*
X111027858Y-55894562D01*
X111075477Y-55799324D01*
X111123096Y-55608848D01*
X111123096Y-55465991D01*
X111075477Y-55275515D01*
X111027858Y-55180277D01*
X110932620Y-55085039D01*
X110789763Y-55037419D01*
X110694525Y-55037419D01*
X110551668Y-55085039D01*
X110504049Y-55132658D01*
X109646906Y-55037419D02*
X109837382Y-55037419D01*
X109932620Y-55085039D01*
X109980239Y-55132658D01*
X110075477Y-55275515D01*
X110123096Y-55465991D01*
X110123096Y-55846943D01*
X110075477Y-55942181D01*
X110027858Y-55989800D01*
X109932620Y-56037419D01*
X109742144Y-56037419D01*
X109646906Y-55989800D01*
X109599287Y-55942181D01*
X109551668Y-55846943D01*
X109551668Y-55608848D01*
X109599287Y-55513610D01*
X109646906Y-55465991D01*
X109742144Y-55418372D01*
X109932620Y-55418372D01*
X110027858Y-55465991D01*
X110075477Y-55513610D01*
X110123096Y-55608848D01*
X108599287Y-56037419D02*
X109170715Y-56037419D01*
X108885001Y-56037419D02*
X108885001Y-55037419D01*
X108980239Y-55180277D01*
X109075477Y-55275515D01*
X109170715Y-55323134D01*
G04 #@! TO.C,C62*
X97204049Y-52842181D02*
X97251668Y-52889800D01*
X97394525Y-52937419D01*
X97489763Y-52937419D01*
X97632620Y-52889800D01*
X97727858Y-52794562D01*
X97775477Y-52699324D01*
X97823096Y-52508848D01*
X97823096Y-52365991D01*
X97775477Y-52175515D01*
X97727858Y-52080277D01*
X97632620Y-51985039D01*
X97489763Y-51937419D01*
X97394525Y-51937419D01*
X97251668Y-51985039D01*
X97204049Y-52032658D01*
X96346906Y-51937419D02*
X96537382Y-51937419D01*
X96632620Y-51985039D01*
X96680239Y-52032658D01*
X96775477Y-52175515D01*
X96823096Y-52365991D01*
X96823096Y-52746943D01*
X96775477Y-52842181D01*
X96727858Y-52889800D01*
X96632620Y-52937419D01*
X96442144Y-52937419D01*
X96346906Y-52889800D01*
X96299287Y-52842181D01*
X96251668Y-52746943D01*
X96251668Y-52508848D01*
X96299287Y-52413610D01*
X96346906Y-52365991D01*
X96442144Y-52318372D01*
X96632620Y-52318372D01*
X96727858Y-52365991D01*
X96775477Y-52413610D01*
X96823096Y-52508848D01*
X95870715Y-52032658D02*
X95823096Y-51985039D01*
X95727858Y-51937419D01*
X95489763Y-51937419D01*
X95394525Y-51985039D01*
X95346906Y-52032658D01*
X95299287Y-52127896D01*
X95299287Y-52223134D01*
X95346906Y-52365991D01*
X95918334Y-52937419D01*
X95299287Y-52937419D01*
G04 #@! TO.C,C63*
X98618334Y-75942181D02*
X98665953Y-75894562D01*
X98713572Y-75751705D01*
X98713572Y-75656467D01*
X98665953Y-75513610D01*
X98570715Y-75418372D01*
X98475477Y-75370753D01*
X98285001Y-75323134D01*
X98142144Y-75323134D01*
X97951668Y-75370753D01*
X97856430Y-75418372D01*
X97761192Y-75513610D01*
X97713572Y-75656467D01*
X97713572Y-75751705D01*
X97761192Y-75894562D01*
X97808811Y-75942181D01*
X97713572Y-76799324D02*
X97713572Y-76608848D01*
X97761192Y-76513610D01*
X97808811Y-76465991D01*
X97951668Y-76370753D01*
X98142144Y-76323134D01*
X98523096Y-76323134D01*
X98618334Y-76370753D01*
X98665953Y-76418372D01*
X98713572Y-76513610D01*
X98713572Y-76704086D01*
X98665953Y-76799324D01*
X98618334Y-76846943D01*
X98523096Y-76894562D01*
X98285001Y-76894562D01*
X98189763Y-76846943D01*
X98142144Y-76799324D01*
X98094525Y-76704086D01*
X98094525Y-76513610D01*
X98142144Y-76418372D01*
X98189763Y-76370753D01*
X98285001Y-76323134D01*
X97713572Y-77227896D02*
X97713572Y-77846943D01*
X98094525Y-77513610D01*
X98094525Y-77656467D01*
X98142144Y-77751705D01*
X98189763Y-77799324D01*
X98285001Y-77846943D01*
X98523096Y-77846943D01*
X98618334Y-77799324D01*
X98665953Y-77751705D01*
X98713572Y-77656467D01*
X98713572Y-77370753D01*
X98665953Y-77275515D01*
X98618334Y-77227896D01*
G04 #@! TO.C,C64*
X113618334Y-76342181D02*
X113665953Y-76294562D01*
X113713572Y-76151705D01*
X113713572Y-76056467D01*
X113665953Y-75913610D01*
X113570715Y-75818372D01*
X113475477Y-75770753D01*
X113285001Y-75723134D01*
X113142144Y-75723134D01*
X112951668Y-75770753D01*
X112856430Y-75818372D01*
X112761192Y-75913610D01*
X112713572Y-76056467D01*
X112713572Y-76151705D01*
X112761192Y-76294562D01*
X112808811Y-76342181D01*
X112713572Y-77199324D02*
X112713572Y-77008848D01*
X112761192Y-76913610D01*
X112808811Y-76865991D01*
X112951668Y-76770753D01*
X113142144Y-76723134D01*
X113523096Y-76723134D01*
X113618334Y-76770753D01*
X113665953Y-76818372D01*
X113713572Y-76913610D01*
X113713572Y-77104086D01*
X113665953Y-77199324D01*
X113618334Y-77246943D01*
X113523096Y-77294562D01*
X113285001Y-77294562D01*
X113189763Y-77246943D01*
X113142144Y-77199324D01*
X113094525Y-77104086D01*
X113094525Y-76913610D01*
X113142144Y-76818372D01*
X113189763Y-76770753D01*
X113285001Y-76723134D01*
X113046906Y-78151705D02*
X113713572Y-78151705D01*
X112665953Y-77913610D02*
X113380239Y-77675515D01*
X113380239Y-78294562D01*
G04 #@! TO.C,C65*
X107718334Y-59042181D02*
X107765953Y-58994562D01*
X107813572Y-58851705D01*
X107813572Y-58756467D01*
X107765953Y-58613610D01*
X107670715Y-58518372D01*
X107575477Y-58470753D01*
X107385001Y-58423134D01*
X107242144Y-58423134D01*
X107051668Y-58470753D01*
X106956430Y-58518372D01*
X106861192Y-58613610D01*
X106813572Y-58756467D01*
X106813572Y-58851705D01*
X106861192Y-58994562D01*
X106908811Y-59042181D01*
X106813572Y-59899324D02*
X106813572Y-59708848D01*
X106861192Y-59613610D01*
X106908811Y-59565991D01*
X107051668Y-59470753D01*
X107242144Y-59423134D01*
X107623096Y-59423134D01*
X107718334Y-59470753D01*
X107765953Y-59518372D01*
X107813572Y-59613610D01*
X107813572Y-59804086D01*
X107765953Y-59899324D01*
X107718334Y-59946943D01*
X107623096Y-59994562D01*
X107385001Y-59994562D01*
X107289763Y-59946943D01*
X107242144Y-59899324D01*
X107194525Y-59804086D01*
X107194525Y-59613610D01*
X107242144Y-59518372D01*
X107289763Y-59470753D01*
X107385001Y-59423134D01*
X106813572Y-60899324D02*
X106813572Y-60423134D01*
X107289763Y-60375515D01*
X107242144Y-60423134D01*
X107194525Y-60518372D01*
X107194525Y-60756467D01*
X107242144Y-60851705D01*
X107289763Y-60899324D01*
X107385001Y-60946943D01*
X107623096Y-60946943D01*
X107718334Y-60899324D01*
X107765953Y-60851705D01*
X107813572Y-60756467D01*
X107813572Y-60518372D01*
X107765953Y-60423134D01*
X107718334Y-60375515D01*
G04 #@! TO.C,C66*
X95618334Y-57442181D02*
X95665953Y-57394562D01*
X95713572Y-57251705D01*
X95713572Y-57156467D01*
X95665953Y-57013610D01*
X95570715Y-56918372D01*
X95475477Y-56870753D01*
X95285001Y-56823134D01*
X95142144Y-56823134D01*
X94951668Y-56870753D01*
X94856430Y-56918372D01*
X94761192Y-57013610D01*
X94713572Y-57156467D01*
X94713572Y-57251705D01*
X94761192Y-57394562D01*
X94808811Y-57442181D01*
X94713572Y-58299324D02*
X94713572Y-58108848D01*
X94761192Y-58013610D01*
X94808811Y-57965991D01*
X94951668Y-57870753D01*
X95142144Y-57823134D01*
X95523096Y-57823134D01*
X95618334Y-57870753D01*
X95665953Y-57918372D01*
X95713572Y-58013610D01*
X95713572Y-58204086D01*
X95665953Y-58299324D01*
X95618334Y-58346943D01*
X95523096Y-58394562D01*
X95285001Y-58394562D01*
X95189763Y-58346943D01*
X95142144Y-58299324D01*
X95094525Y-58204086D01*
X95094525Y-58013610D01*
X95142144Y-57918372D01*
X95189763Y-57870753D01*
X95285001Y-57823134D01*
X94713572Y-59251705D02*
X94713572Y-59061229D01*
X94761192Y-58965991D01*
X94808811Y-58918372D01*
X94951668Y-58823134D01*
X95142144Y-58775515D01*
X95523096Y-58775515D01*
X95618334Y-58823134D01*
X95665953Y-58870753D01*
X95713572Y-58965991D01*
X95713572Y-59156467D01*
X95665953Y-59251705D01*
X95618334Y-59299324D01*
X95523096Y-59346943D01*
X95285001Y-59346943D01*
X95189763Y-59299324D01*
X95142144Y-59251705D01*
X95094525Y-59156467D01*
X95094525Y-58965991D01*
X95142144Y-58870753D01*
X95189763Y-58823134D01*
X95285001Y-58775515D01*
G04 #@! TO.C,C67*
X99604049Y-65542181D02*
X99651668Y-65589800D01*
X99794525Y-65637419D01*
X99889763Y-65637419D01*
X100032620Y-65589800D01*
X100127858Y-65494562D01*
X100175477Y-65399324D01*
X100223096Y-65208848D01*
X100223096Y-65065991D01*
X100175477Y-64875515D01*
X100127858Y-64780277D01*
X100032620Y-64685039D01*
X99889763Y-64637419D01*
X99794525Y-64637419D01*
X99651668Y-64685039D01*
X99604049Y-64732658D01*
X98746906Y-64637419D02*
X98937382Y-64637419D01*
X99032620Y-64685039D01*
X99080239Y-64732658D01*
X99175477Y-64875515D01*
X99223096Y-65065991D01*
X99223096Y-65446943D01*
X99175477Y-65542181D01*
X99127858Y-65589800D01*
X99032620Y-65637419D01*
X98842144Y-65637419D01*
X98746906Y-65589800D01*
X98699287Y-65542181D01*
X98651668Y-65446943D01*
X98651668Y-65208848D01*
X98699287Y-65113610D01*
X98746906Y-65065991D01*
X98842144Y-65018372D01*
X99032620Y-65018372D01*
X99127858Y-65065991D01*
X99175477Y-65113610D01*
X99223096Y-65208848D01*
X98318334Y-64637419D02*
X97651668Y-64637419D01*
X98080239Y-65637419D01*
G04 #@! TO.C,C68*
X107818334Y-65342181D02*
X107865953Y-65294562D01*
X107913572Y-65151705D01*
X107913572Y-65056467D01*
X107865953Y-64913610D01*
X107770715Y-64818372D01*
X107675477Y-64770753D01*
X107485001Y-64723134D01*
X107342144Y-64723134D01*
X107151668Y-64770753D01*
X107056430Y-64818372D01*
X106961192Y-64913610D01*
X106913572Y-65056467D01*
X106913572Y-65151705D01*
X106961192Y-65294562D01*
X107008811Y-65342181D01*
X106913572Y-66199324D02*
X106913572Y-66008848D01*
X106961192Y-65913610D01*
X107008811Y-65865991D01*
X107151668Y-65770753D01*
X107342144Y-65723134D01*
X107723096Y-65723134D01*
X107818334Y-65770753D01*
X107865953Y-65818372D01*
X107913572Y-65913610D01*
X107913572Y-66104086D01*
X107865953Y-66199324D01*
X107818334Y-66246943D01*
X107723096Y-66294562D01*
X107485001Y-66294562D01*
X107389763Y-66246943D01*
X107342144Y-66199324D01*
X107294525Y-66104086D01*
X107294525Y-65913610D01*
X107342144Y-65818372D01*
X107389763Y-65770753D01*
X107485001Y-65723134D01*
X107342144Y-66865991D02*
X107294525Y-66770753D01*
X107246906Y-66723134D01*
X107151668Y-66675515D01*
X107104049Y-66675515D01*
X107008811Y-66723134D01*
X106961192Y-66770753D01*
X106913572Y-66865991D01*
X106913572Y-67056467D01*
X106961192Y-67151705D01*
X107008811Y-67199324D01*
X107104049Y-67246943D01*
X107151668Y-67246943D01*
X107246906Y-67199324D01*
X107294525Y-67151705D01*
X107342144Y-67056467D01*
X107342144Y-66865991D01*
X107389763Y-66770753D01*
X107437382Y-66723134D01*
X107532620Y-66675515D01*
X107723096Y-66675515D01*
X107818334Y-66723134D01*
X107865953Y-66770753D01*
X107913572Y-66865991D01*
X107913572Y-67056467D01*
X107865953Y-67151705D01*
X107818334Y-67199324D01*
X107723096Y-67246943D01*
X107532620Y-67246943D01*
X107437382Y-67199324D01*
X107389763Y-67151705D01*
X107342144Y-67056467D01*
G04 #@! TO.C,C69*
X106804049Y-56042181D02*
X106851668Y-56089800D01*
X106994525Y-56137419D01*
X107089763Y-56137419D01*
X107232620Y-56089800D01*
X107327858Y-55994562D01*
X107375477Y-55899324D01*
X107423096Y-55708848D01*
X107423096Y-55565991D01*
X107375477Y-55375515D01*
X107327858Y-55280277D01*
X107232620Y-55185039D01*
X107089763Y-55137419D01*
X106994525Y-55137419D01*
X106851668Y-55185039D01*
X106804049Y-55232658D01*
X105946906Y-55137419D02*
X106137382Y-55137419D01*
X106232620Y-55185039D01*
X106280239Y-55232658D01*
X106375477Y-55375515D01*
X106423096Y-55565991D01*
X106423096Y-55946943D01*
X106375477Y-56042181D01*
X106327858Y-56089800D01*
X106232620Y-56137419D01*
X106042144Y-56137419D01*
X105946906Y-56089800D01*
X105899287Y-56042181D01*
X105851668Y-55946943D01*
X105851668Y-55708848D01*
X105899287Y-55613610D01*
X105946906Y-55565991D01*
X106042144Y-55518372D01*
X106232620Y-55518372D01*
X106327858Y-55565991D01*
X106375477Y-55613610D01*
X106423096Y-55708848D01*
X105375477Y-56137419D02*
X105185001Y-56137419D01*
X105089763Y-56089800D01*
X105042144Y-56042181D01*
X104946906Y-55899324D01*
X104899287Y-55708848D01*
X104899287Y-55327896D01*
X104946906Y-55232658D01*
X104994525Y-55185039D01*
X105089763Y-55137419D01*
X105280239Y-55137419D01*
X105375477Y-55185039D01*
X105423096Y-55232658D01*
X105470715Y-55327896D01*
X105470715Y-55565991D01*
X105423096Y-55661229D01*
X105375477Y-55708848D01*
X105280239Y-55756467D01*
X105089763Y-55756467D01*
X104994525Y-55708848D01*
X104946906Y-55661229D01*
X104899287Y-55565991D01*
G04 #@! TO.C,D9*
X93113572Y-44759513D02*
X92113572Y-44759513D01*
X92113572Y-44997609D01*
X92161192Y-45140466D01*
X92256430Y-45235704D01*
X92351668Y-45283323D01*
X92542144Y-45330942D01*
X92685001Y-45330942D01*
X92875477Y-45283323D01*
X92970715Y-45235704D01*
X93065953Y-45140466D01*
X93113572Y-44997609D01*
X93113572Y-44759513D01*
X93113572Y-45807132D02*
X93113572Y-45997609D01*
X93065953Y-46092847D01*
X93018334Y-46140466D01*
X92875477Y-46235704D01*
X92685001Y-46283323D01*
X92304049Y-46283323D01*
X92208811Y-46235704D01*
X92161192Y-46188085D01*
X92113572Y-46092847D01*
X92113572Y-45902370D01*
X92161192Y-45807132D01*
X92208811Y-45759513D01*
X92304049Y-45711894D01*
X92542144Y-45711894D01*
X92637382Y-45759513D01*
X92685001Y-45807132D01*
X92732620Y-45902370D01*
X92732620Y-46092847D01*
X92685001Y-46188085D01*
X92637382Y-46235704D01*
X92542144Y-46283323D01*
X93127858Y-40436943D02*
X93127858Y-40913134D01*
X93413572Y-40341705D02*
X92413572Y-40675039D01*
X93413572Y-41008372D01*
G04 #@! TO.C,D10*
X109013572Y-43070753D02*
X108013572Y-43070753D01*
X108013572Y-43308848D01*
X108061192Y-43451705D01*
X108156430Y-43546943D01*
X108251668Y-43594562D01*
X108442144Y-43642181D01*
X108585001Y-43642181D01*
X108775477Y-43594562D01*
X108870715Y-43546943D01*
X108965953Y-43451705D01*
X109013572Y-43308848D01*
X109013572Y-43070753D01*
X109013572Y-44594562D02*
X109013572Y-44023134D01*
X109013572Y-44308848D02*
X108013572Y-44308848D01*
X108156430Y-44213610D01*
X108251668Y-44118372D01*
X108299287Y-44023134D01*
X108013572Y-45213610D02*
X108013572Y-45308848D01*
X108061192Y-45404086D01*
X108108811Y-45451705D01*
X108204049Y-45499324D01*
X108394525Y-45546943D01*
X108632620Y-45546943D01*
X108823096Y-45499324D01*
X108918334Y-45451705D01*
X108965953Y-45404086D01*
X109013572Y-45308848D01*
X109013572Y-45213610D01*
X108965953Y-45118372D01*
X108918334Y-45070753D01*
X108823096Y-45023134D01*
X108632620Y-44975515D01*
X108394525Y-44975515D01*
X108204049Y-45023134D01*
X108108811Y-45070753D01*
X108061192Y-45118372D01*
X108013572Y-45213610D01*
X112027858Y-41256943D02*
X112027858Y-41733134D01*
X112313572Y-41161705D02*
X111313572Y-41495039D01*
X112313572Y-41828372D01*
G04 #@! TO.C,FB1*
X102877780Y-59075386D02*
X103211113Y-59075386D01*
X103211113Y-59599195D02*
X103211113Y-58599195D01*
X102734923Y-58599195D01*
X102020637Y-59075386D02*
X101877780Y-59123005D01*
X101830161Y-59170624D01*
X101782542Y-59265862D01*
X101782542Y-59408719D01*
X101830161Y-59503957D01*
X101877780Y-59551576D01*
X101973018Y-59599195D01*
X102353970Y-59599195D01*
X102353970Y-58599195D01*
X102020637Y-58599195D01*
X101925399Y-58646815D01*
X101877780Y-58694434D01*
X101830161Y-58789672D01*
X101830161Y-58884910D01*
X101877780Y-58980148D01*
X101925399Y-59027767D01*
X102020637Y-59075386D01*
X102353970Y-59075386D01*
X100830161Y-59599195D02*
X101401589Y-59599195D01*
X101115875Y-59599195D02*
X101115875Y-58599195D01*
X101211113Y-58742053D01*
X101306351Y-58837291D01*
X101401589Y-58884910D01*
G04 #@! TO.C,FB2*
X102877780Y-61275386D02*
X103211113Y-61275386D01*
X103211113Y-61799195D02*
X103211113Y-60799195D01*
X102734923Y-60799195D01*
X102020637Y-61275386D02*
X101877780Y-61323005D01*
X101830161Y-61370624D01*
X101782542Y-61465862D01*
X101782542Y-61608719D01*
X101830161Y-61703957D01*
X101877780Y-61751576D01*
X101973018Y-61799195D01*
X102353970Y-61799195D01*
X102353970Y-60799195D01*
X102020637Y-60799195D01*
X101925399Y-60846815D01*
X101877780Y-60894434D01*
X101830161Y-60989672D01*
X101830161Y-61084910D01*
X101877780Y-61180148D01*
X101925399Y-61227767D01*
X102020637Y-61275386D01*
X102353970Y-61275386D01*
X101401589Y-60894434D02*
X101353970Y-60846815D01*
X101258732Y-60799195D01*
X101020637Y-60799195D01*
X100925399Y-60846815D01*
X100877780Y-60894434D01*
X100830161Y-60989672D01*
X100830161Y-61084910D01*
X100877780Y-61227767D01*
X101449208Y-61799195D01*
X100830161Y-61799195D01*
G04 #@! TO.C,J38*
X103870715Y-26037419D02*
X103870715Y-26751705D01*
X103918334Y-26894562D01*
X104013572Y-26989800D01*
X104156430Y-27037419D01*
X104251668Y-27037419D01*
X103489763Y-26037419D02*
X102870715Y-26037419D01*
X103204049Y-26418372D01*
X103061192Y-26418372D01*
X102965953Y-26465991D01*
X102918334Y-26513610D01*
X102870715Y-26608848D01*
X102870715Y-26846943D01*
X102918334Y-26942181D01*
X102965953Y-26989800D01*
X103061192Y-27037419D01*
X103346906Y-27037419D01*
X103442144Y-26989800D01*
X103489763Y-26942181D01*
X102299287Y-26465991D02*
X102394525Y-26418372D01*
X102442144Y-26370753D01*
X102489763Y-26275515D01*
X102489763Y-26227896D01*
X102442144Y-26132658D01*
X102394525Y-26085039D01*
X102299287Y-26037419D01*
X102108811Y-26037419D01*
X102013572Y-26085039D01*
X101965953Y-26132658D01*
X101918334Y-26227896D01*
X101918334Y-26275515D01*
X101965953Y-26370753D01*
X102013572Y-26418372D01*
X102108811Y-26465991D01*
X102299287Y-26465991D01*
X102394525Y-26513610D01*
X102442144Y-26561229D01*
X102489763Y-26656467D01*
X102489763Y-26846943D01*
X102442144Y-26942181D01*
X102394525Y-26989800D01*
X102299287Y-27037419D01*
X102108811Y-27037419D01*
X102013572Y-26989800D01*
X101965953Y-26942181D01*
X101918334Y-26846943D01*
X101918334Y-26656467D01*
X101965953Y-26561229D01*
X102013572Y-26513610D01*
X102108811Y-26465991D01*
X109150050Y-38138595D02*
X109150050Y-38900500D01*
X109531002Y-39900500D02*
X109531002Y-39329071D01*
X109531002Y-39614785D02*
X108531002Y-39614785D01*
X108673860Y-39519547D01*
X108769098Y-39424309D01*
X108816717Y-39329071D01*
X108626241Y-40281452D02*
X108578622Y-40329071D01*
X108531002Y-40424309D01*
X108531002Y-40662404D01*
X108578622Y-40757642D01*
X108626241Y-40805261D01*
X108721479Y-40852880D01*
X108816717Y-40852880D01*
X108959574Y-40805261D01*
X109531002Y-40233833D01*
X109531002Y-40852880D01*
X108531002Y-41138595D02*
X109531002Y-41471928D01*
X108531002Y-41805261D01*
G04 #@! TO.C,U1*
X114723096Y-88677419D02*
X114723096Y-89486943D01*
X114675477Y-89582181D01*
X114627858Y-89629800D01*
X114532620Y-89677419D01*
X114342144Y-89677419D01*
X114246906Y-89629800D01*
X114199287Y-89582181D01*
X114151668Y-89486943D01*
X114151668Y-88677419D01*
X113151668Y-89677419D02*
X113723096Y-89677419D01*
X113437382Y-89677419D02*
X113437382Y-88677419D01*
X113532620Y-88820277D01*
X113627858Y-88915515D01*
X113723096Y-88963134D01*
G04 #@! TO.C,U29*
X97299287Y-45637419D02*
X97299287Y-46446943D01*
X97251668Y-46542181D01*
X97204049Y-46589800D01*
X97108811Y-46637419D01*
X96918334Y-46637419D01*
X96823096Y-46589800D01*
X96775477Y-46542181D01*
X96727858Y-46446943D01*
X96727858Y-45637419D01*
X96299287Y-45732658D02*
X96251668Y-45685039D01*
X96156430Y-45637419D01*
X95918334Y-45637419D01*
X95823096Y-45685039D01*
X95775477Y-45732658D01*
X95727858Y-45827896D01*
X95727858Y-45923134D01*
X95775477Y-46065991D01*
X96346906Y-46637419D01*
X95727858Y-46637419D01*
X95251668Y-46637419D02*
X95061192Y-46637419D01*
X94965953Y-46589800D01*
X94918334Y-46542181D01*
X94823096Y-46399324D01*
X94775477Y-46208848D01*
X94775477Y-45827896D01*
X94823096Y-45732658D01*
X94870715Y-45685039D01*
X94965953Y-45637419D01*
X95156430Y-45637419D01*
X95251668Y-45685039D01*
X95299287Y-45732658D01*
X95346906Y-45827896D01*
X95346906Y-46065991D01*
X95299287Y-46161229D01*
X95251668Y-46208848D01*
X95156430Y-46256467D01*
X94965953Y-46256467D01*
X94870715Y-46208848D01*
X94823096Y-46161229D01*
X94775477Y-46065991D01*
G04 #@! TO.C,U30*
X109059287Y-46267419D02*
X109059287Y-47076943D01*
X109011668Y-47172181D01*
X108964049Y-47219800D01*
X108868811Y-47267419D01*
X108678334Y-47267419D01*
X108583096Y-47219800D01*
X108535477Y-47172181D01*
X108487858Y-47076943D01*
X108487858Y-46267419D01*
X108106906Y-46267419D02*
X107487858Y-46267419D01*
X107821192Y-46648372D01*
X107678334Y-46648372D01*
X107583096Y-46695991D01*
X107535477Y-46743610D01*
X107487858Y-46838848D01*
X107487858Y-47076943D01*
X107535477Y-47172181D01*
X107583096Y-47219800D01*
X107678334Y-47267419D01*
X107964049Y-47267419D01*
X108059287Y-47219800D01*
X108106906Y-47172181D01*
X106868811Y-46267419D02*
X106773572Y-46267419D01*
X106678334Y-46315039D01*
X106630715Y-46362658D01*
X106583096Y-46457896D01*
X106535477Y-46648372D01*
X106535477Y-46886467D01*
X106583096Y-47076943D01*
X106630715Y-47172181D01*
X106678334Y-47219800D01*
X106773572Y-47267419D01*
X106868811Y-47267419D01*
X106964049Y-47219800D01*
X107011668Y-47172181D01*
X107059287Y-47076943D01*
X107106906Y-46886467D01*
X107106906Y-46648372D01*
X107059287Y-46457896D01*
X107011668Y-46362658D01*
X106964049Y-46315039D01*
X106868811Y-46267419D01*
G04 #@! TO.C,U17*
X123633572Y-42746943D02*
X124443096Y-42746943D01*
X124538334Y-42794562D01*
X124585953Y-42842181D01*
X124633572Y-42937419D01*
X124633572Y-43127896D01*
X124585953Y-43223134D01*
X124538334Y-43270753D01*
X124443096Y-43318372D01*
X123633572Y-43318372D01*
X124633572Y-44318372D02*
X124633572Y-43746943D01*
X124633572Y-44032658D02*
X123633572Y-44032658D01*
X123776430Y-43937419D01*
X123871668Y-43842181D01*
X123919287Y-43746943D01*
X123633572Y-44651705D02*
X123633572Y-45318372D01*
X124633572Y-44889800D01*
X114308811Y-46246943D02*
X115308811Y-46246943D01*
X114594525Y-45913610D01*
X115308811Y-45580277D01*
X114308811Y-45580277D01*
X114308811Y-45104086D02*
X115308811Y-45104086D01*
X115308811Y-44723134D01*
X115261192Y-44627896D01*
X115213572Y-44580277D01*
X115118334Y-44532658D01*
X114975477Y-44532658D01*
X114880239Y-44580277D01*
X114832620Y-44627896D01*
X114785001Y-44723134D01*
X114785001Y-45104086D01*
X114308811Y-43532658D02*
X114785001Y-43865991D01*
X114308811Y-44104086D02*
X115308811Y-44104086D01*
X115308811Y-43723134D01*
X115261192Y-43627896D01*
X115213572Y-43580277D01*
X115118334Y-43532658D01*
X114975477Y-43532658D01*
X114880239Y-43580277D01*
X114832620Y-43627896D01*
X114785001Y-43723134D01*
X114785001Y-44104086D01*
X114308811Y-42580277D02*
X114308811Y-43151705D01*
X114308811Y-42865991D02*
X115308811Y-42865991D01*
X115165953Y-42961229D01*
X115070715Y-43056467D01*
X115023096Y-43151705D01*
X115213572Y-42199324D02*
X115261192Y-42151705D01*
X115308811Y-42056467D01*
X115308811Y-41818372D01*
X115261192Y-41723134D01*
X115213572Y-41675515D01*
X115118334Y-41627896D01*
X115023096Y-41627896D01*
X114880239Y-41675515D01*
X114308811Y-42246943D01*
X114308811Y-41627896D01*
X114308811Y-40675515D02*
X114308811Y-41246943D01*
X114308811Y-40961229D02*
X115308811Y-40961229D01*
X115165953Y-41056467D01*
X115070715Y-41151705D01*
X115023096Y-41246943D01*
G04 #@! TO.C,U31*
X90313572Y-69946943D02*
X91123096Y-69946943D01*
X91218334Y-69994562D01*
X91265953Y-70042181D01*
X91313572Y-70137419D01*
X91313572Y-70327896D01*
X91265953Y-70423134D01*
X91218334Y-70470753D01*
X91123096Y-70518372D01*
X90313572Y-70518372D01*
X90313572Y-70899324D02*
X90313572Y-71518372D01*
X90694525Y-71185039D01*
X90694525Y-71327896D01*
X90742144Y-71423134D01*
X90789763Y-71470753D01*
X90885001Y-71518372D01*
X91123096Y-71518372D01*
X91218334Y-71470753D01*
X91265953Y-71423134D01*
X91313572Y-71327896D01*
X91313572Y-71042181D01*
X91265953Y-70946943D01*
X91218334Y-70899324D01*
X91313572Y-72470753D02*
X91313572Y-71899324D01*
X91313572Y-72185039D02*
X90313572Y-72185039D01*
X90456430Y-72089800D01*
X90551668Y-71994562D01*
X90599287Y-71899324D01*
G04 #@! TO.C,U32*
X102213572Y-69546943D02*
X103023096Y-69546943D01*
X103118334Y-69594562D01*
X103165953Y-69642181D01*
X103213572Y-69737419D01*
X103213572Y-69927896D01*
X103165953Y-70023134D01*
X103118334Y-70070753D01*
X103023096Y-70118372D01*
X102213572Y-70118372D01*
X102213572Y-70499324D02*
X102213572Y-71118372D01*
X102594525Y-70785039D01*
X102594525Y-70927896D01*
X102642144Y-71023134D01*
X102689763Y-71070753D01*
X102785001Y-71118372D01*
X103023096Y-71118372D01*
X103118334Y-71070753D01*
X103165953Y-71023134D01*
X103213572Y-70927896D01*
X103213572Y-70642181D01*
X103165953Y-70546943D01*
X103118334Y-70499324D01*
X102308811Y-71499324D02*
X102261192Y-71546943D01*
X102213572Y-71642181D01*
X102213572Y-71880277D01*
X102261192Y-71975515D01*
X102308811Y-72023134D01*
X102404049Y-72070753D01*
X102499287Y-72070753D01*
X102642144Y-72023134D01*
X103213572Y-71451705D01*
X103213572Y-72070753D01*
G04 #@! TO.C,R65*
X100366258Y-81020089D02*
X99890068Y-80686756D01*
X100366258Y-80448661D02*
X99366258Y-80448661D01*
X99366258Y-80829613D01*
X99413878Y-80924851D01*
X99461497Y-80972470D01*
X99556735Y-81020089D01*
X99699592Y-81020089D01*
X99794830Y-80972470D01*
X99842449Y-80924851D01*
X99890068Y-80829613D01*
X99890068Y-80448661D01*
X99366258Y-81877232D02*
X99366258Y-81686756D01*
X99413878Y-81591518D01*
X99461497Y-81543899D01*
X99604354Y-81448661D01*
X99794830Y-81401042D01*
X100175782Y-81401042D01*
X100271020Y-81448661D01*
X100318639Y-81496280D01*
X100366258Y-81591518D01*
X100366258Y-81781994D01*
X100318639Y-81877232D01*
X100271020Y-81924851D01*
X100175782Y-81972470D01*
X99937687Y-81972470D01*
X99842449Y-81924851D01*
X99794830Y-81877232D01*
X99747211Y-81781994D01*
X99747211Y-81591518D01*
X99794830Y-81496280D01*
X99842449Y-81448661D01*
X99937687Y-81401042D01*
X99366258Y-82877232D02*
X99366258Y-82401042D01*
X99842449Y-82353423D01*
X99794830Y-82401042D01*
X99747211Y-82496280D01*
X99747211Y-82734375D01*
X99794830Y-82829613D01*
X99842449Y-82877232D01*
X99937687Y-82924851D01*
X100175782Y-82924851D01*
X100271020Y-82877232D01*
X100318639Y-82829613D01*
X100366258Y-82734375D01*
X100366258Y-82496280D01*
X100318639Y-82401042D01*
X100271020Y-82353423D01*
G04 #@! TO.C,R66*
X105446258Y-81020089D02*
X104970068Y-80686756D01*
X105446258Y-80448661D02*
X104446258Y-80448661D01*
X104446258Y-80829613D01*
X104493878Y-80924851D01*
X104541497Y-80972470D01*
X104636735Y-81020089D01*
X104779592Y-81020089D01*
X104874830Y-80972470D01*
X104922449Y-80924851D01*
X104970068Y-80829613D01*
X104970068Y-80448661D01*
X104446258Y-81877232D02*
X104446258Y-81686756D01*
X104493878Y-81591518D01*
X104541497Y-81543899D01*
X104684354Y-81448661D01*
X104874830Y-81401042D01*
X105255782Y-81401042D01*
X105351020Y-81448661D01*
X105398639Y-81496280D01*
X105446258Y-81591518D01*
X105446258Y-81781994D01*
X105398639Y-81877232D01*
X105351020Y-81924851D01*
X105255782Y-81972470D01*
X105017687Y-81972470D01*
X104922449Y-81924851D01*
X104874830Y-81877232D01*
X104827211Y-81781994D01*
X104827211Y-81591518D01*
X104874830Y-81496280D01*
X104922449Y-81448661D01*
X105017687Y-81401042D01*
X104446258Y-82829613D02*
X104446258Y-82639137D01*
X104493878Y-82543899D01*
X104541497Y-82496280D01*
X104684354Y-82401042D01*
X104874830Y-82353423D01*
X105255782Y-82353423D01*
X105351020Y-82401042D01*
X105398639Y-82448661D01*
X105446258Y-82543899D01*
X105446258Y-82734375D01*
X105398639Y-82829613D01*
X105351020Y-82877232D01*
X105255782Y-82924851D01*
X105017687Y-82924851D01*
X104922449Y-82877232D01*
X104874830Y-82829613D01*
X104827211Y-82734375D01*
X104827211Y-82543899D01*
X104874830Y-82448661D01*
X104922449Y-82401042D01*
X105017687Y-82353423D01*
G04 #@! TO.C,R67*
X102906258Y-81020089D02*
X102430068Y-80686756D01*
X102906258Y-80448661D02*
X101906258Y-80448661D01*
X101906258Y-80829613D01*
X101953878Y-80924851D01*
X102001497Y-80972470D01*
X102096735Y-81020089D01*
X102239592Y-81020089D01*
X102334830Y-80972470D01*
X102382449Y-80924851D01*
X102430068Y-80829613D01*
X102430068Y-80448661D01*
X101906258Y-81877232D02*
X101906258Y-81686756D01*
X101953878Y-81591518D01*
X102001497Y-81543899D01*
X102144354Y-81448661D01*
X102334830Y-81401042D01*
X102715782Y-81401042D01*
X102811020Y-81448661D01*
X102858639Y-81496280D01*
X102906258Y-81591518D01*
X102906258Y-81781994D01*
X102858639Y-81877232D01*
X102811020Y-81924851D01*
X102715782Y-81972470D01*
X102477687Y-81972470D01*
X102382449Y-81924851D01*
X102334830Y-81877232D01*
X102287211Y-81781994D01*
X102287211Y-81591518D01*
X102334830Y-81496280D01*
X102382449Y-81448661D01*
X102477687Y-81401042D01*
X101906258Y-82305804D02*
X101906258Y-82972470D01*
X102906258Y-82543899D01*
G04 #@! TO.C,R84*
X124203572Y-77906181D02*
X123727382Y-77572848D01*
X124203572Y-77334753D02*
X123203572Y-77334753D01*
X123203572Y-77715705D01*
X123251192Y-77810943D01*
X123298811Y-77858562D01*
X123394049Y-77906181D01*
X123536906Y-77906181D01*
X123632144Y-77858562D01*
X123679763Y-77810943D01*
X123727382Y-77715705D01*
X123727382Y-77334753D01*
X123632144Y-78477610D02*
X123584525Y-78382372D01*
X123536906Y-78334753D01*
X123441668Y-78287134D01*
X123394049Y-78287134D01*
X123298811Y-78334753D01*
X123251192Y-78382372D01*
X123203572Y-78477610D01*
X123203572Y-78668086D01*
X123251192Y-78763324D01*
X123298811Y-78810943D01*
X123394049Y-78858562D01*
X123441668Y-78858562D01*
X123536906Y-78810943D01*
X123584525Y-78763324D01*
X123632144Y-78668086D01*
X123632144Y-78477610D01*
X123679763Y-78382372D01*
X123727382Y-78334753D01*
X123822620Y-78287134D01*
X124013096Y-78287134D01*
X124108334Y-78334753D01*
X124155953Y-78382372D01*
X124203572Y-78477610D01*
X124203572Y-78668086D01*
X124155953Y-78763324D01*
X124108334Y-78810943D01*
X124013096Y-78858562D01*
X123822620Y-78858562D01*
X123727382Y-78810943D01*
X123679763Y-78763324D01*
X123632144Y-78668086D01*
X123536906Y-79715705D02*
X124203572Y-79715705D01*
X123155953Y-79477610D02*
X123870239Y-79239515D01*
X123870239Y-79858562D01*
G04 #@! TO.C,R85*
X128393572Y-74350181D02*
X127917382Y-74016848D01*
X128393572Y-73778753D02*
X127393572Y-73778753D01*
X127393572Y-74159705D01*
X127441192Y-74254943D01*
X127488811Y-74302562D01*
X127584049Y-74350181D01*
X127726906Y-74350181D01*
X127822144Y-74302562D01*
X127869763Y-74254943D01*
X127917382Y-74159705D01*
X127917382Y-73778753D01*
X127822144Y-74921610D02*
X127774525Y-74826372D01*
X127726906Y-74778753D01*
X127631668Y-74731134D01*
X127584049Y-74731134D01*
X127488811Y-74778753D01*
X127441192Y-74826372D01*
X127393572Y-74921610D01*
X127393572Y-75112086D01*
X127441192Y-75207324D01*
X127488811Y-75254943D01*
X127584049Y-75302562D01*
X127631668Y-75302562D01*
X127726906Y-75254943D01*
X127774525Y-75207324D01*
X127822144Y-75112086D01*
X127822144Y-74921610D01*
X127869763Y-74826372D01*
X127917382Y-74778753D01*
X128012620Y-74731134D01*
X128203096Y-74731134D01*
X128298334Y-74778753D01*
X128345953Y-74826372D01*
X128393572Y-74921610D01*
X128393572Y-75112086D01*
X128345953Y-75207324D01*
X128298334Y-75254943D01*
X128203096Y-75302562D01*
X128012620Y-75302562D01*
X127917382Y-75254943D01*
X127869763Y-75207324D01*
X127822144Y-75112086D01*
X127393572Y-76207324D02*
X127393572Y-75731134D01*
X127869763Y-75683515D01*
X127822144Y-75731134D01*
X127774525Y-75826372D01*
X127774525Y-76064467D01*
X127822144Y-76159705D01*
X127869763Y-76207324D01*
X127965001Y-76254943D01*
X128203096Y-76254943D01*
X128298334Y-76207324D01*
X128345953Y-76159705D01*
X128393572Y-76064467D01*
X128393572Y-75826372D01*
X128345953Y-75731134D01*
X128298334Y-75683515D01*
G04 #@! TO.C,C56*
X100104049Y-44842181D02*
X100151668Y-44889800D01*
X100294525Y-44937419D01*
X100389763Y-44937419D01*
X100532620Y-44889800D01*
X100627858Y-44794562D01*
X100675477Y-44699324D01*
X100723096Y-44508848D01*
X100723096Y-44365991D01*
X100675477Y-44175515D01*
X100627858Y-44080277D01*
X100532620Y-43985039D01*
X100389763Y-43937419D01*
X100294525Y-43937419D01*
X100151668Y-43985039D01*
X100104049Y-44032658D01*
X99199287Y-43937419D02*
X99675477Y-43937419D01*
X99723096Y-44413610D01*
X99675477Y-44365991D01*
X99580239Y-44318372D01*
X99342144Y-44318372D01*
X99246906Y-44365991D01*
X99199287Y-44413610D01*
X99151668Y-44508848D01*
X99151668Y-44746943D01*
X99199287Y-44842181D01*
X99246906Y-44889800D01*
X99342144Y-44937419D01*
X99580239Y-44937419D01*
X99675477Y-44889800D01*
X99723096Y-44842181D01*
X98294525Y-43937419D02*
X98485001Y-43937419D01*
X98580239Y-43985039D01*
X98627858Y-44032658D01*
X98723096Y-44175515D01*
X98770715Y-44365991D01*
X98770715Y-44746943D01*
X98723096Y-44842181D01*
X98675477Y-44889800D01*
X98580239Y-44937419D01*
X98389763Y-44937419D01*
X98294525Y-44889800D01*
X98246906Y-44842181D01*
X98199287Y-44746943D01*
X98199287Y-44508848D01*
X98246906Y-44413610D01*
X98294525Y-44365991D01*
X98389763Y-44318372D01*
X98580239Y-44318372D01*
X98675477Y-44365991D01*
X98723096Y-44413610D01*
X98770715Y-44508848D01*
G04 #@! TO.C,C57*
X105604049Y-45042181D02*
X105651668Y-45089800D01*
X105794525Y-45137419D01*
X105889763Y-45137419D01*
X106032620Y-45089800D01*
X106127858Y-44994562D01*
X106175477Y-44899324D01*
X106223096Y-44708848D01*
X106223096Y-44565991D01*
X106175477Y-44375515D01*
X106127858Y-44280277D01*
X106032620Y-44185039D01*
X105889763Y-44137419D01*
X105794525Y-44137419D01*
X105651668Y-44185039D01*
X105604049Y-44232658D01*
X104699287Y-44137419D02*
X105175477Y-44137419D01*
X105223096Y-44613610D01*
X105175477Y-44565991D01*
X105080239Y-44518372D01*
X104842144Y-44518372D01*
X104746906Y-44565991D01*
X104699287Y-44613610D01*
X104651668Y-44708848D01*
X104651668Y-44946943D01*
X104699287Y-45042181D01*
X104746906Y-45089800D01*
X104842144Y-45137419D01*
X105080239Y-45137419D01*
X105175477Y-45089800D01*
X105223096Y-45042181D01*
X104318334Y-44137419D02*
X103651668Y-44137419D01*
X104080239Y-45137419D01*
G04 #@! TD*
M02*
