G04 #@! TF.GenerationSoftware,KiCad,Pcbnew,(5.0.1)-3*
G04 #@! TF.CreationDate,2020-01-29T22:52:41+00:00*
G04 #@! TF.ProjectId,SSv2 Power Board,5353763220506F77657220426F617264,rev?*
G04 #@! TF.SameCoordinates,Original*
G04 #@! TF.FileFunction,Copper,L2,Bot,Signal*
G04 #@! TF.FilePolarity,Positive*
%FSLAX46Y46*%
G04 Gerber Fmt 4.6, Leading zero omitted, Abs format (unit mm)*
G04 Created by KiCad (PCBNEW (5.0.1)-3) date 29/01/2020 22:52:41*
%MOMM*%
%LPD*%
G01*
G04 APERTURE LIST*
G04 #@! TA.AperFunction,ComponentPad*
%ADD10O,1.700000X1.700000*%
G04 #@! TD*
G04 #@! TA.AperFunction,ComponentPad*
%ADD11R,1.700000X1.700000*%
G04 #@! TD*
G04 #@! TA.AperFunction,Conductor*
%ADD12C,0.100000*%
G04 #@! TD*
G04 #@! TA.AperFunction,SMDPad,CuDef*
%ADD13C,1.150000*%
G04 #@! TD*
G04 #@! TA.AperFunction,ComponentPad*
%ADD14C,1.600000*%
G04 #@! TD*
G04 #@! TA.AperFunction,ComponentPad*
%ADD15R,1.600000X1.600000*%
G04 #@! TD*
G04 #@! TA.AperFunction,ComponentPad*
%ADD16O,2.200000X2.200000*%
G04 #@! TD*
G04 #@! TA.AperFunction,ComponentPad*
%ADD17R,2.200000X2.200000*%
G04 #@! TD*
G04 #@! TA.AperFunction,ComponentPad*
%ADD18O,1.727200X1.727200*%
G04 #@! TD*
G04 #@! TA.AperFunction,ComponentPad*
%ADD19R,1.727200X1.727200*%
G04 #@! TD*
G04 #@! TA.AperFunction,ComponentPad*
%ADD20O,1.905000X2.000000*%
G04 #@! TD*
G04 #@! TA.AperFunction,ComponentPad*
%ADD21R,1.905000X2.000000*%
G04 #@! TD*
G04 #@! TA.AperFunction,ComponentPad*
%ADD22C,1.524000*%
G04 #@! TD*
G04 #@! TA.AperFunction,ViaPad*
%ADD23C,1.000000*%
G04 #@! TD*
G04 #@! TA.AperFunction,ViaPad*
%ADD24C,0.800000*%
G04 #@! TD*
G04 #@! TA.AperFunction,Conductor*
%ADD25C,1.000000*%
G04 #@! TD*
G04 #@! TA.AperFunction,Conductor*
%ADD26C,0.300000*%
G04 #@! TD*
G04 #@! TA.AperFunction,Conductor*
%ADD27C,0.160000*%
G04 #@! TD*
G04 #@! TA.AperFunction,Conductor*
%ADD28C,0.254000*%
G04 #@! TD*
G04 APERTURE END LIST*
D10*
G04 #@! TO.P,J39,37*
G04 #@! TO.N,DAC_B_LDACpin_p*
X138961192Y-117885039D03*
G04 #@! TO.P,J39,36*
G04 #@! TO.N,DAC_A_LDACpin_p*
X138961192Y-115345039D03*
G04 #@! TO.P,J39,35*
G04 #@! TO.N,DAC_C_LDACpin_p*
X138961192Y-112805039D03*
G04 #@! TO.P,J39,34*
G04 #@! TO.N,DAC_SDApin_p*
X138961192Y-110265039D03*
G04 #@! TO.P,J39,33*
G04 #@! TO.N,DAC_SCLpin_p*
X138961192Y-107725039D03*
G04 #@! TO.P,J39,32*
G04 #@! TO.N,Dout_SERpin_p*
X138961192Y-105185039D03*
G04 #@! TO.P,J39,31*
G04 #@! TO.N,Dout_LATCHpin_p*
X138961192Y-102645039D03*
G04 #@! TO.P,J39,30*
G04 #@! TO.N,Dout_CLKpin_p*
X138961192Y-100105039D03*
G04 #@! TO.P,J39,29*
G04 #@! TO.N,Din_CLKpin_p*
X138961192Y-97565039D03*
G04 #@! TO.P,J39,28*
G04 #@! TO.N,Din_latchPin_p*
X138961192Y-95025039D03*
G04 #@! TO.P,J39,27*
G04 #@! TO.N,AreadCon1_p*
X138961192Y-92485039D03*
G04 #@! TO.P,J39,26*
G04 #@! TO.N,AreadCon2_p*
X138961192Y-89945039D03*
G04 #@! TO.P,J39,25*
G04 #@! TO.N,AreadCon3_p*
X138961192Y-87405039D03*
G04 #@! TO.P,J39,24*
G04 #@! TO.N,Din_SERpin_p*
X138961192Y-84865039D03*
G04 #@! TO.P,J39,23*
G04 #@! TO.N,AreadMuxControlPin3_p*
X138961192Y-82325039D03*
G04 #@! TO.P,J39,22*
G04 #@! TO.N,AreadMuxControlPin2_p*
X138961192Y-79785039D03*
G04 #@! TO.P,J39,21*
G04 #@! TO.N,AreadMuxControlPin1_p*
X138961192Y-77245039D03*
G04 #@! TO.P,J39,20*
G04 #@! TO.N,-5V*
X138961192Y-74705039D03*
G04 #@! TO.P,J39,19*
G04 #@! TO.N,+12V*
X138961192Y-72165039D03*
G04 #@! TO.P,J39,18*
G04 #@! TO.N,3.3V_Analogue*
X138961192Y-69625039D03*
G04 #@! TO.P,J39,17*
G04 #@! TO.N,3.3V_Digital*
X138961192Y-67085039D03*
G04 #@! TO.P,J39,16*
G04 #@! TO.N,-12V*
X138961192Y-64545039D03*
G04 #@! TO.P,J39,15*
G04 #@! TO.N,+5V*
X138961192Y-62005039D03*
G04 #@! TO.P,J39,14*
G04 #@! TO.N,GND*
X138961192Y-59465039D03*
G04 #@! TO.P,J39,13*
G04 #@! TO.N,Touch0_p*
X138961192Y-56925039D03*
G04 #@! TO.P,J39,12*
G04 #@! TO.N,Touch1_p*
X138961192Y-54385039D03*
G04 #@! TO.P,J39,11*
G04 #@! TO.N,Touch2_p*
X138961192Y-51845039D03*
G04 #@! TO.P,J39,10*
G04 #@! TO.N,Touch3_p*
X138961192Y-49305039D03*
G04 #@! TO.P,J39,9*
G04 #@! TO.N,Touch4_p*
X138961192Y-46765039D03*
G04 #@! TO.P,J39,8*
G04 #@! TO.N,Touch5_p*
X138961192Y-44225039D03*
G04 #@! TO.P,J39,7*
G04 #@! TO.N,Touch6_p*
X138961192Y-41685039D03*
G04 #@! TO.P,J39,6*
G04 #@! TO.N,Touch7_p*
X138961192Y-39145039D03*
G04 #@! TO.P,J39,5*
G04 #@! TO.N,Touch8_p*
X138961192Y-36605039D03*
G04 #@! TO.P,J39,4*
G04 #@! TO.N,Touch9_p*
X138961192Y-34065039D03*
G04 #@! TO.P,J39,3*
G04 #@! TO.N,Touch10_p*
X138961192Y-31525039D03*
G04 #@! TO.P,J39,2*
G04 #@! TO.N,Touch11_p*
X138961192Y-28985039D03*
D11*
G04 #@! TO.P,J39,1*
G04 #@! TO.N,WS2812_serial_p*
X138961192Y-26445039D03*
G04 #@! TD*
D12*
G04 #@! TO.N,GND*
G04 #@! TO.C,C58*
G36*
X93535697Y-55036243D02*
X93559965Y-55039843D01*
X93583764Y-55045804D01*
X93606863Y-55054069D01*
X93629042Y-55064559D01*
X93650085Y-55077171D01*
X93669791Y-55091786D01*
X93687969Y-55108262D01*
X93704445Y-55126440D01*
X93719060Y-55146146D01*
X93731672Y-55167189D01*
X93742162Y-55189368D01*
X93750427Y-55212467D01*
X93756388Y-55236266D01*
X93759988Y-55260534D01*
X93761192Y-55285038D01*
X93761192Y-55935040D01*
X93759988Y-55959544D01*
X93756388Y-55983812D01*
X93750427Y-56007611D01*
X93742162Y-56030710D01*
X93731672Y-56052889D01*
X93719060Y-56073932D01*
X93704445Y-56093638D01*
X93687969Y-56111816D01*
X93669791Y-56128292D01*
X93650085Y-56142907D01*
X93629042Y-56155519D01*
X93606863Y-56166009D01*
X93583764Y-56174274D01*
X93559965Y-56180235D01*
X93535697Y-56183835D01*
X93511193Y-56185039D01*
X92611191Y-56185039D01*
X92586687Y-56183835D01*
X92562419Y-56180235D01*
X92538620Y-56174274D01*
X92515521Y-56166009D01*
X92493342Y-56155519D01*
X92472299Y-56142907D01*
X92452593Y-56128292D01*
X92434415Y-56111816D01*
X92417939Y-56093638D01*
X92403324Y-56073932D01*
X92390712Y-56052889D01*
X92380222Y-56030710D01*
X92371957Y-56007611D01*
X92365996Y-55983812D01*
X92362396Y-55959544D01*
X92361192Y-55935040D01*
X92361192Y-55285038D01*
X92362396Y-55260534D01*
X92365996Y-55236266D01*
X92371957Y-55212467D01*
X92380222Y-55189368D01*
X92390712Y-55167189D01*
X92403324Y-55146146D01*
X92417939Y-55126440D01*
X92434415Y-55108262D01*
X92452593Y-55091786D01*
X92472299Y-55077171D01*
X92493342Y-55064559D01*
X92515521Y-55054069D01*
X92538620Y-55045804D01*
X92562419Y-55039843D01*
X92586687Y-55036243D01*
X92611191Y-55035039D01*
X93511193Y-55035039D01*
X93535697Y-55036243D01*
X93535697Y-55036243D01*
G37*
D13*
G04 #@! TD*
G04 #@! TO.P,C58,2*
G04 #@! TO.N,GND*
X93061192Y-55610039D03*
D12*
G04 #@! TO.N,+12V*
G04 #@! TO.C,C58*
G36*
X93535697Y-52986243D02*
X93559965Y-52989843D01*
X93583764Y-52995804D01*
X93606863Y-53004069D01*
X93629042Y-53014559D01*
X93650085Y-53027171D01*
X93669791Y-53041786D01*
X93687969Y-53058262D01*
X93704445Y-53076440D01*
X93719060Y-53096146D01*
X93731672Y-53117189D01*
X93742162Y-53139368D01*
X93750427Y-53162467D01*
X93756388Y-53186266D01*
X93759988Y-53210534D01*
X93761192Y-53235038D01*
X93761192Y-53885040D01*
X93759988Y-53909544D01*
X93756388Y-53933812D01*
X93750427Y-53957611D01*
X93742162Y-53980710D01*
X93731672Y-54002889D01*
X93719060Y-54023932D01*
X93704445Y-54043638D01*
X93687969Y-54061816D01*
X93669791Y-54078292D01*
X93650085Y-54092907D01*
X93629042Y-54105519D01*
X93606863Y-54116009D01*
X93583764Y-54124274D01*
X93559965Y-54130235D01*
X93535697Y-54133835D01*
X93511193Y-54135039D01*
X92611191Y-54135039D01*
X92586687Y-54133835D01*
X92562419Y-54130235D01*
X92538620Y-54124274D01*
X92515521Y-54116009D01*
X92493342Y-54105519D01*
X92472299Y-54092907D01*
X92452593Y-54078292D01*
X92434415Y-54061816D01*
X92417939Y-54043638D01*
X92403324Y-54023932D01*
X92390712Y-54002889D01*
X92380222Y-53980710D01*
X92371957Y-53957611D01*
X92365996Y-53933812D01*
X92362396Y-53909544D01*
X92361192Y-53885040D01*
X92361192Y-53235038D01*
X92362396Y-53210534D01*
X92365996Y-53186266D01*
X92371957Y-53162467D01*
X92380222Y-53139368D01*
X92390712Y-53117189D01*
X92403324Y-53096146D01*
X92417939Y-53076440D01*
X92434415Y-53058262D01*
X92452593Y-53041786D01*
X92472299Y-53027171D01*
X92493342Y-53014559D01*
X92515521Y-53004069D01*
X92538620Y-52995804D01*
X92562419Y-52989843D01*
X92586687Y-52986243D01*
X92611191Y-52985039D01*
X93511193Y-52985039D01*
X93535697Y-52986243D01*
X93535697Y-52986243D01*
G37*
D13*
G04 #@! TD*
G04 #@! TO.P,C58,1*
G04 #@! TO.N,+12V*
X93061192Y-53560039D03*
D12*
G04 #@! TO.N,GND*
G04 #@! TO.C,C59*
G36*
X96335697Y-66386243D02*
X96359965Y-66389843D01*
X96383764Y-66395804D01*
X96406863Y-66404069D01*
X96429042Y-66414559D01*
X96450085Y-66427171D01*
X96469791Y-66441786D01*
X96487969Y-66458262D01*
X96504445Y-66476440D01*
X96519060Y-66496146D01*
X96531672Y-66517189D01*
X96542162Y-66539368D01*
X96550427Y-66562467D01*
X96556388Y-66586266D01*
X96559988Y-66610534D01*
X96561192Y-66635038D01*
X96561192Y-67535040D01*
X96559988Y-67559544D01*
X96556388Y-67583812D01*
X96550427Y-67607611D01*
X96542162Y-67630710D01*
X96531672Y-67652889D01*
X96519060Y-67673932D01*
X96504445Y-67693638D01*
X96487969Y-67711816D01*
X96469791Y-67728292D01*
X96450085Y-67742907D01*
X96429042Y-67755519D01*
X96406863Y-67766009D01*
X96383764Y-67774274D01*
X96359965Y-67780235D01*
X96335697Y-67783835D01*
X96311193Y-67785039D01*
X95661191Y-67785039D01*
X95636687Y-67783835D01*
X95612419Y-67780235D01*
X95588620Y-67774274D01*
X95565521Y-67766009D01*
X95543342Y-67755519D01*
X95522299Y-67742907D01*
X95502593Y-67728292D01*
X95484415Y-67711816D01*
X95467939Y-67693638D01*
X95453324Y-67673932D01*
X95440712Y-67652889D01*
X95430222Y-67630710D01*
X95421957Y-67607611D01*
X95415996Y-67583812D01*
X95412396Y-67559544D01*
X95411192Y-67535040D01*
X95411192Y-66635038D01*
X95412396Y-66610534D01*
X95415996Y-66586266D01*
X95421957Y-66562467D01*
X95430222Y-66539368D01*
X95440712Y-66517189D01*
X95453324Y-66496146D01*
X95467939Y-66476440D01*
X95484415Y-66458262D01*
X95502593Y-66441786D01*
X95522299Y-66427171D01*
X95543342Y-66414559D01*
X95565521Y-66404069D01*
X95588620Y-66395804D01*
X95612419Y-66389843D01*
X95636687Y-66386243D01*
X95661191Y-66385039D01*
X96311193Y-66385039D01*
X96335697Y-66386243D01*
X96335697Y-66386243D01*
G37*
D13*
G04 #@! TD*
G04 #@! TO.P,C59,2*
G04 #@! TO.N,GND*
X95986192Y-67085039D03*
D12*
G04 #@! TO.N,Net-(C59-Pad1)*
G04 #@! TO.C,C59*
G36*
X94285697Y-66386243D02*
X94309965Y-66389843D01*
X94333764Y-66395804D01*
X94356863Y-66404069D01*
X94379042Y-66414559D01*
X94400085Y-66427171D01*
X94419791Y-66441786D01*
X94437969Y-66458262D01*
X94454445Y-66476440D01*
X94469060Y-66496146D01*
X94481672Y-66517189D01*
X94492162Y-66539368D01*
X94500427Y-66562467D01*
X94506388Y-66586266D01*
X94509988Y-66610534D01*
X94511192Y-66635038D01*
X94511192Y-67535040D01*
X94509988Y-67559544D01*
X94506388Y-67583812D01*
X94500427Y-67607611D01*
X94492162Y-67630710D01*
X94481672Y-67652889D01*
X94469060Y-67673932D01*
X94454445Y-67693638D01*
X94437969Y-67711816D01*
X94419791Y-67728292D01*
X94400085Y-67742907D01*
X94379042Y-67755519D01*
X94356863Y-67766009D01*
X94333764Y-67774274D01*
X94309965Y-67780235D01*
X94285697Y-67783835D01*
X94261193Y-67785039D01*
X93611191Y-67785039D01*
X93586687Y-67783835D01*
X93562419Y-67780235D01*
X93538620Y-67774274D01*
X93515521Y-67766009D01*
X93493342Y-67755519D01*
X93472299Y-67742907D01*
X93452593Y-67728292D01*
X93434415Y-67711816D01*
X93417939Y-67693638D01*
X93403324Y-67673932D01*
X93390712Y-67652889D01*
X93380222Y-67630710D01*
X93371957Y-67607611D01*
X93365996Y-67583812D01*
X93362396Y-67559544D01*
X93361192Y-67535040D01*
X93361192Y-66635038D01*
X93362396Y-66610534D01*
X93365996Y-66586266D01*
X93371957Y-66562467D01*
X93380222Y-66539368D01*
X93390712Y-66517189D01*
X93403324Y-66496146D01*
X93417939Y-66476440D01*
X93434415Y-66458262D01*
X93452593Y-66441786D01*
X93472299Y-66427171D01*
X93493342Y-66414559D01*
X93515521Y-66404069D01*
X93538620Y-66395804D01*
X93562419Y-66389843D01*
X93586687Y-66386243D01*
X93611191Y-66385039D01*
X94261193Y-66385039D01*
X94285697Y-66386243D01*
X94285697Y-66386243D01*
G37*
D13*
G04 #@! TD*
G04 #@! TO.P,C59,1*
G04 #@! TO.N,Net-(C59-Pad1)*
X93936192Y-67085039D03*
D12*
G04 #@! TO.N,GND*
G04 #@! TO.C,C60*
G36*
X104385697Y-66386243D02*
X104409965Y-66389843D01*
X104433764Y-66395804D01*
X104456863Y-66404069D01*
X104479042Y-66414559D01*
X104500085Y-66427171D01*
X104519791Y-66441786D01*
X104537969Y-66458262D01*
X104554445Y-66476440D01*
X104569060Y-66496146D01*
X104581672Y-66517189D01*
X104592162Y-66539368D01*
X104600427Y-66562467D01*
X104606388Y-66586266D01*
X104609988Y-66610534D01*
X104611192Y-66635038D01*
X104611192Y-67535040D01*
X104609988Y-67559544D01*
X104606388Y-67583812D01*
X104600427Y-67607611D01*
X104592162Y-67630710D01*
X104581672Y-67652889D01*
X104569060Y-67673932D01*
X104554445Y-67693638D01*
X104537969Y-67711816D01*
X104519791Y-67728292D01*
X104500085Y-67742907D01*
X104479042Y-67755519D01*
X104456863Y-67766009D01*
X104433764Y-67774274D01*
X104409965Y-67780235D01*
X104385697Y-67783835D01*
X104361193Y-67785039D01*
X103711191Y-67785039D01*
X103686687Y-67783835D01*
X103662419Y-67780235D01*
X103638620Y-67774274D01*
X103615521Y-67766009D01*
X103593342Y-67755519D01*
X103572299Y-67742907D01*
X103552593Y-67728292D01*
X103534415Y-67711816D01*
X103517939Y-67693638D01*
X103503324Y-67673932D01*
X103490712Y-67652889D01*
X103480222Y-67630710D01*
X103471957Y-67607611D01*
X103465996Y-67583812D01*
X103462396Y-67559544D01*
X103461192Y-67535040D01*
X103461192Y-66635038D01*
X103462396Y-66610534D01*
X103465996Y-66586266D01*
X103471957Y-66562467D01*
X103480222Y-66539368D01*
X103490712Y-66517189D01*
X103503324Y-66496146D01*
X103517939Y-66476440D01*
X103534415Y-66458262D01*
X103552593Y-66441786D01*
X103572299Y-66427171D01*
X103593342Y-66414559D01*
X103615521Y-66404069D01*
X103638620Y-66395804D01*
X103662419Y-66389843D01*
X103686687Y-66386243D01*
X103711191Y-66385039D01*
X104361193Y-66385039D01*
X104385697Y-66386243D01*
X104385697Y-66386243D01*
G37*
D13*
G04 #@! TD*
G04 #@! TO.P,C60,2*
G04 #@! TO.N,GND*
X104036192Y-67085039D03*
D12*
G04 #@! TO.N,Net-(C60-Pad1)*
G04 #@! TO.C,C60*
G36*
X106435697Y-66386243D02*
X106459965Y-66389843D01*
X106483764Y-66395804D01*
X106506863Y-66404069D01*
X106529042Y-66414559D01*
X106550085Y-66427171D01*
X106569791Y-66441786D01*
X106587969Y-66458262D01*
X106604445Y-66476440D01*
X106619060Y-66496146D01*
X106631672Y-66517189D01*
X106642162Y-66539368D01*
X106650427Y-66562467D01*
X106656388Y-66586266D01*
X106659988Y-66610534D01*
X106661192Y-66635038D01*
X106661192Y-67535040D01*
X106659988Y-67559544D01*
X106656388Y-67583812D01*
X106650427Y-67607611D01*
X106642162Y-67630710D01*
X106631672Y-67652889D01*
X106619060Y-67673932D01*
X106604445Y-67693638D01*
X106587969Y-67711816D01*
X106569791Y-67728292D01*
X106550085Y-67742907D01*
X106529042Y-67755519D01*
X106506863Y-67766009D01*
X106483764Y-67774274D01*
X106459965Y-67780235D01*
X106435697Y-67783835D01*
X106411193Y-67785039D01*
X105761191Y-67785039D01*
X105736687Y-67783835D01*
X105712419Y-67780235D01*
X105688620Y-67774274D01*
X105665521Y-67766009D01*
X105643342Y-67755519D01*
X105622299Y-67742907D01*
X105602593Y-67728292D01*
X105584415Y-67711816D01*
X105567939Y-67693638D01*
X105553324Y-67673932D01*
X105540712Y-67652889D01*
X105530222Y-67630710D01*
X105521957Y-67607611D01*
X105515996Y-67583812D01*
X105512396Y-67559544D01*
X105511192Y-67535040D01*
X105511192Y-66635038D01*
X105512396Y-66610534D01*
X105515996Y-66586266D01*
X105521957Y-66562467D01*
X105530222Y-66539368D01*
X105540712Y-66517189D01*
X105553324Y-66496146D01*
X105567939Y-66476440D01*
X105584415Y-66458262D01*
X105602593Y-66441786D01*
X105622299Y-66427171D01*
X105643342Y-66414559D01*
X105665521Y-66404069D01*
X105688620Y-66395804D01*
X105712419Y-66389843D01*
X105736687Y-66386243D01*
X105761191Y-66385039D01*
X106411193Y-66385039D01*
X106435697Y-66386243D01*
X106435697Y-66386243D01*
G37*
D13*
G04 #@! TD*
G04 #@! TO.P,C60,1*
G04 #@! TO.N,Net-(C60-Pad1)*
X106086192Y-67085039D03*
D12*
G04 #@! TO.N,-12V*
G04 #@! TO.C,C61*
G36*
X109085697Y-53086243D02*
X109109965Y-53089843D01*
X109133764Y-53095804D01*
X109156863Y-53104069D01*
X109179042Y-53114559D01*
X109200085Y-53127171D01*
X109219791Y-53141786D01*
X109237969Y-53158262D01*
X109254445Y-53176440D01*
X109269060Y-53196146D01*
X109281672Y-53217189D01*
X109292162Y-53239368D01*
X109300427Y-53262467D01*
X109306388Y-53286266D01*
X109309988Y-53310534D01*
X109311192Y-53335038D01*
X109311192Y-54235040D01*
X109309988Y-54259544D01*
X109306388Y-54283812D01*
X109300427Y-54307611D01*
X109292162Y-54330710D01*
X109281672Y-54352889D01*
X109269060Y-54373932D01*
X109254445Y-54393638D01*
X109237969Y-54411816D01*
X109219791Y-54428292D01*
X109200085Y-54442907D01*
X109179042Y-54455519D01*
X109156863Y-54466009D01*
X109133764Y-54474274D01*
X109109965Y-54480235D01*
X109085697Y-54483835D01*
X109061193Y-54485039D01*
X108411191Y-54485039D01*
X108386687Y-54483835D01*
X108362419Y-54480235D01*
X108338620Y-54474274D01*
X108315521Y-54466009D01*
X108293342Y-54455519D01*
X108272299Y-54442907D01*
X108252593Y-54428292D01*
X108234415Y-54411816D01*
X108217939Y-54393638D01*
X108203324Y-54373932D01*
X108190712Y-54352889D01*
X108180222Y-54330710D01*
X108171957Y-54307611D01*
X108165996Y-54283812D01*
X108162396Y-54259544D01*
X108161192Y-54235040D01*
X108161192Y-53335038D01*
X108162396Y-53310534D01*
X108165996Y-53286266D01*
X108171957Y-53262467D01*
X108180222Y-53239368D01*
X108190712Y-53217189D01*
X108203324Y-53196146D01*
X108217939Y-53176440D01*
X108234415Y-53158262D01*
X108252593Y-53141786D01*
X108272299Y-53127171D01*
X108293342Y-53114559D01*
X108315521Y-53104069D01*
X108338620Y-53095804D01*
X108362419Y-53089843D01*
X108386687Y-53086243D01*
X108411191Y-53085039D01*
X109061193Y-53085039D01*
X109085697Y-53086243D01*
X109085697Y-53086243D01*
G37*
D13*
G04 #@! TD*
G04 #@! TO.P,C61,2*
G04 #@! TO.N,-12V*
X108736192Y-53785039D03*
D12*
G04 #@! TO.N,GND*
G04 #@! TO.C,C61*
G36*
X111135697Y-53086243D02*
X111159965Y-53089843D01*
X111183764Y-53095804D01*
X111206863Y-53104069D01*
X111229042Y-53114559D01*
X111250085Y-53127171D01*
X111269791Y-53141786D01*
X111287969Y-53158262D01*
X111304445Y-53176440D01*
X111319060Y-53196146D01*
X111331672Y-53217189D01*
X111342162Y-53239368D01*
X111350427Y-53262467D01*
X111356388Y-53286266D01*
X111359988Y-53310534D01*
X111361192Y-53335038D01*
X111361192Y-54235040D01*
X111359988Y-54259544D01*
X111356388Y-54283812D01*
X111350427Y-54307611D01*
X111342162Y-54330710D01*
X111331672Y-54352889D01*
X111319060Y-54373932D01*
X111304445Y-54393638D01*
X111287969Y-54411816D01*
X111269791Y-54428292D01*
X111250085Y-54442907D01*
X111229042Y-54455519D01*
X111206863Y-54466009D01*
X111183764Y-54474274D01*
X111159965Y-54480235D01*
X111135697Y-54483835D01*
X111111193Y-54485039D01*
X110461191Y-54485039D01*
X110436687Y-54483835D01*
X110412419Y-54480235D01*
X110388620Y-54474274D01*
X110365521Y-54466009D01*
X110343342Y-54455519D01*
X110322299Y-54442907D01*
X110302593Y-54428292D01*
X110284415Y-54411816D01*
X110267939Y-54393638D01*
X110253324Y-54373932D01*
X110240712Y-54352889D01*
X110230222Y-54330710D01*
X110221957Y-54307611D01*
X110215996Y-54283812D01*
X110212396Y-54259544D01*
X110211192Y-54235040D01*
X110211192Y-53335038D01*
X110212396Y-53310534D01*
X110215996Y-53286266D01*
X110221957Y-53262467D01*
X110230222Y-53239368D01*
X110240712Y-53217189D01*
X110253324Y-53196146D01*
X110267939Y-53176440D01*
X110284415Y-53158262D01*
X110302593Y-53141786D01*
X110322299Y-53127171D01*
X110343342Y-53114559D01*
X110365521Y-53104069D01*
X110388620Y-53095804D01*
X110412419Y-53089843D01*
X110436687Y-53086243D01*
X110461191Y-53085039D01*
X111111193Y-53085039D01*
X111135697Y-53086243D01*
X111135697Y-53086243D01*
G37*
D13*
G04 #@! TD*
G04 #@! TO.P,C61,1*
G04 #@! TO.N,GND*
X110786192Y-53785039D03*
D14*
G04 #@! TO.P,C62,2*
G04 #@! TO.N,GND*
X98661192Y-54885039D03*
D15*
G04 #@! TO.P,C62,1*
G04 #@! TO.N,+5V*
X100661192Y-54885039D03*
G04 #@! TD*
D14*
G04 #@! TO.P,C63,2*
G04 #@! TO.N,GND*
X95561192Y-76485039D03*
D15*
G04 #@! TO.P,C63,1*
G04 #@! TO.N,3.3V_Analogue*
X93561192Y-76485039D03*
G04 #@! TD*
D14*
G04 #@! TO.P,C64,2*
G04 #@! TO.N,GND*
X110761192Y-76885039D03*
D15*
G04 #@! TO.P,C64,1*
G04 #@! TO.N,3.3V_Digital*
X108761192Y-76885039D03*
G04 #@! TD*
D14*
G04 #@! TO.P,C65,2*
G04 #@! TO.N,-5V*
X109861192Y-59085039D03*
D15*
G04 #@! TO.P,C65,1*
G04 #@! TO.N,GND*
X111861192Y-59085039D03*
G04 #@! TD*
D12*
G04 #@! TO.N,GND*
G04 #@! TO.C,C66*
G36*
X95735697Y-55036243D02*
X95759965Y-55039843D01*
X95783764Y-55045804D01*
X95806863Y-55054069D01*
X95829042Y-55064559D01*
X95850085Y-55077171D01*
X95869791Y-55091786D01*
X95887969Y-55108262D01*
X95904445Y-55126440D01*
X95919060Y-55146146D01*
X95931672Y-55167189D01*
X95942162Y-55189368D01*
X95950427Y-55212467D01*
X95956388Y-55236266D01*
X95959988Y-55260534D01*
X95961192Y-55285038D01*
X95961192Y-55935040D01*
X95959988Y-55959544D01*
X95956388Y-55983812D01*
X95950427Y-56007611D01*
X95942162Y-56030710D01*
X95931672Y-56052889D01*
X95919060Y-56073932D01*
X95904445Y-56093638D01*
X95887969Y-56111816D01*
X95869791Y-56128292D01*
X95850085Y-56142907D01*
X95829042Y-56155519D01*
X95806863Y-56166009D01*
X95783764Y-56174274D01*
X95759965Y-56180235D01*
X95735697Y-56183835D01*
X95711193Y-56185039D01*
X94811191Y-56185039D01*
X94786687Y-56183835D01*
X94762419Y-56180235D01*
X94738620Y-56174274D01*
X94715521Y-56166009D01*
X94693342Y-56155519D01*
X94672299Y-56142907D01*
X94652593Y-56128292D01*
X94634415Y-56111816D01*
X94617939Y-56093638D01*
X94603324Y-56073932D01*
X94590712Y-56052889D01*
X94580222Y-56030710D01*
X94571957Y-56007611D01*
X94565996Y-55983812D01*
X94562396Y-55959544D01*
X94561192Y-55935040D01*
X94561192Y-55285038D01*
X94562396Y-55260534D01*
X94565996Y-55236266D01*
X94571957Y-55212467D01*
X94580222Y-55189368D01*
X94590712Y-55167189D01*
X94603324Y-55146146D01*
X94617939Y-55126440D01*
X94634415Y-55108262D01*
X94652593Y-55091786D01*
X94672299Y-55077171D01*
X94693342Y-55064559D01*
X94715521Y-55054069D01*
X94738620Y-55045804D01*
X94762419Y-55039843D01*
X94786687Y-55036243D01*
X94811191Y-55035039D01*
X95711193Y-55035039D01*
X95735697Y-55036243D01*
X95735697Y-55036243D01*
G37*
D13*
G04 #@! TD*
G04 #@! TO.P,C66,2*
G04 #@! TO.N,GND*
X95261192Y-55610039D03*
D12*
G04 #@! TO.N,+5V*
G04 #@! TO.C,C66*
G36*
X95735697Y-52986243D02*
X95759965Y-52989843D01*
X95783764Y-52995804D01*
X95806863Y-53004069D01*
X95829042Y-53014559D01*
X95850085Y-53027171D01*
X95869791Y-53041786D01*
X95887969Y-53058262D01*
X95904445Y-53076440D01*
X95919060Y-53096146D01*
X95931672Y-53117189D01*
X95942162Y-53139368D01*
X95950427Y-53162467D01*
X95956388Y-53186266D01*
X95959988Y-53210534D01*
X95961192Y-53235038D01*
X95961192Y-53885040D01*
X95959988Y-53909544D01*
X95956388Y-53933812D01*
X95950427Y-53957611D01*
X95942162Y-53980710D01*
X95931672Y-54002889D01*
X95919060Y-54023932D01*
X95904445Y-54043638D01*
X95887969Y-54061816D01*
X95869791Y-54078292D01*
X95850085Y-54092907D01*
X95829042Y-54105519D01*
X95806863Y-54116009D01*
X95783764Y-54124274D01*
X95759965Y-54130235D01*
X95735697Y-54133835D01*
X95711193Y-54135039D01*
X94811191Y-54135039D01*
X94786687Y-54133835D01*
X94762419Y-54130235D01*
X94738620Y-54124274D01*
X94715521Y-54116009D01*
X94693342Y-54105519D01*
X94672299Y-54092907D01*
X94652593Y-54078292D01*
X94634415Y-54061816D01*
X94617939Y-54043638D01*
X94603324Y-54023932D01*
X94590712Y-54002889D01*
X94580222Y-53980710D01*
X94571957Y-53957611D01*
X94565996Y-53933812D01*
X94562396Y-53909544D01*
X94561192Y-53885040D01*
X94561192Y-53235038D01*
X94562396Y-53210534D01*
X94565996Y-53186266D01*
X94571957Y-53162467D01*
X94580222Y-53139368D01*
X94590712Y-53117189D01*
X94603324Y-53096146D01*
X94617939Y-53076440D01*
X94634415Y-53058262D01*
X94652593Y-53041786D01*
X94672299Y-53027171D01*
X94693342Y-53014559D01*
X94715521Y-53004069D01*
X94738620Y-52995804D01*
X94762419Y-52989843D01*
X94786687Y-52986243D01*
X94811191Y-52985039D01*
X95711193Y-52985039D01*
X95735697Y-52986243D01*
X95735697Y-52986243D01*
G37*
D13*
G04 #@! TD*
G04 #@! TO.P,C66,1*
G04 #@! TO.N,+5V*
X95261192Y-53560039D03*
D12*
G04 #@! TO.N,GND*
G04 #@! TO.C,C67*
G36*
X98285697Y-66386243D02*
X98309965Y-66389843D01*
X98333764Y-66395804D01*
X98356863Y-66404069D01*
X98379042Y-66414559D01*
X98400085Y-66427171D01*
X98419791Y-66441786D01*
X98437969Y-66458262D01*
X98454445Y-66476440D01*
X98469060Y-66496146D01*
X98481672Y-66517189D01*
X98492162Y-66539368D01*
X98500427Y-66562467D01*
X98506388Y-66586266D01*
X98509988Y-66610534D01*
X98511192Y-66635038D01*
X98511192Y-67535040D01*
X98509988Y-67559544D01*
X98506388Y-67583812D01*
X98500427Y-67607611D01*
X98492162Y-67630710D01*
X98481672Y-67652889D01*
X98469060Y-67673932D01*
X98454445Y-67693638D01*
X98437969Y-67711816D01*
X98419791Y-67728292D01*
X98400085Y-67742907D01*
X98379042Y-67755519D01*
X98356863Y-67766009D01*
X98333764Y-67774274D01*
X98309965Y-67780235D01*
X98285697Y-67783835D01*
X98261193Y-67785039D01*
X97611191Y-67785039D01*
X97586687Y-67783835D01*
X97562419Y-67780235D01*
X97538620Y-67774274D01*
X97515521Y-67766009D01*
X97493342Y-67755519D01*
X97472299Y-67742907D01*
X97452593Y-67728292D01*
X97434415Y-67711816D01*
X97417939Y-67693638D01*
X97403324Y-67673932D01*
X97390712Y-67652889D01*
X97380222Y-67630710D01*
X97371957Y-67607611D01*
X97365996Y-67583812D01*
X97362396Y-67559544D01*
X97361192Y-67535040D01*
X97361192Y-66635038D01*
X97362396Y-66610534D01*
X97365996Y-66586266D01*
X97371957Y-66562467D01*
X97380222Y-66539368D01*
X97390712Y-66517189D01*
X97403324Y-66496146D01*
X97417939Y-66476440D01*
X97434415Y-66458262D01*
X97452593Y-66441786D01*
X97472299Y-66427171D01*
X97493342Y-66414559D01*
X97515521Y-66404069D01*
X97538620Y-66395804D01*
X97562419Y-66389843D01*
X97586687Y-66386243D01*
X97611191Y-66385039D01*
X98261193Y-66385039D01*
X98285697Y-66386243D01*
X98285697Y-66386243D01*
G37*
D13*
G04 #@! TD*
G04 #@! TO.P,C67,2*
G04 #@! TO.N,GND*
X97936192Y-67085039D03*
D12*
G04 #@! TO.N,3.3V_Analogue*
G04 #@! TO.C,C67*
G36*
X100335697Y-66386243D02*
X100359965Y-66389843D01*
X100383764Y-66395804D01*
X100406863Y-66404069D01*
X100429042Y-66414559D01*
X100450085Y-66427171D01*
X100469791Y-66441786D01*
X100487969Y-66458262D01*
X100504445Y-66476440D01*
X100519060Y-66496146D01*
X100531672Y-66517189D01*
X100542162Y-66539368D01*
X100550427Y-66562467D01*
X100556388Y-66586266D01*
X100559988Y-66610534D01*
X100561192Y-66635038D01*
X100561192Y-67535040D01*
X100559988Y-67559544D01*
X100556388Y-67583812D01*
X100550427Y-67607611D01*
X100542162Y-67630710D01*
X100531672Y-67652889D01*
X100519060Y-67673932D01*
X100504445Y-67693638D01*
X100487969Y-67711816D01*
X100469791Y-67728292D01*
X100450085Y-67742907D01*
X100429042Y-67755519D01*
X100406863Y-67766009D01*
X100383764Y-67774274D01*
X100359965Y-67780235D01*
X100335697Y-67783835D01*
X100311193Y-67785039D01*
X99661191Y-67785039D01*
X99636687Y-67783835D01*
X99612419Y-67780235D01*
X99588620Y-67774274D01*
X99565521Y-67766009D01*
X99543342Y-67755519D01*
X99522299Y-67742907D01*
X99502593Y-67728292D01*
X99484415Y-67711816D01*
X99467939Y-67693638D01*
X99453324Y-67673932D01*
X99440712Y-67652889D01*
X99430222Y-67630710D01*
X99421957Y-67607611D01*
X99415996Y-67583812D01*
X99412396Y-67559544D01*
X99411192Y-67535040D01*
X99411192Y-66635038D01*
X99412396Y-66610534D01*
X99415996Y-66586266D01*
X99421957Y-66562467D01*
X99430222Y-66539368D01*
X99440712Y-66517189D01*
X99453324Y-66496146D01*
X99467939Y-66476440D01*
X99484415Y-66458262D01*
X99502593Y-66441786D01*
X99522299Y-66427171D01*
X99543342Y-66414559D01*
X99565521Y-66404069D01*
X99588620Y-66395804D01*
X99612419Y-66389843D01*
X99636687Y-66386243D01*
X99661191Y-66385039D01*
X100311193Y-66385039D01*
X100335697Y-66386243D01*
X100335697Y-66386243D01*
G37*
D13*
G04 #@! TD*
G04 #@! TO.P,C67,1*
G04 #@! TO.N,3.3V_Analogue*
X99986192Y-67085039D03*
D12*
G04 #@! TO.N,GND*
G04 #@! TO.C,C68*
G36*
X109735697Y-64286243D02*
X109759965Y-64289843D01*
X109783764Y-64295804D01*
X109806863Y-64304069D01*
X109829042Y-64314559D01*
X109850085Y-64327171D01*
X109869791Y-64341786D01*
X109887969Y-64358262D01*
X109904445Y-64376440D01*
X109919060Y-64396146D01*
X109931672Y-64417189D01*
X109942162Y-64439368D01*
X109950427Y-64462467D01*
X109956388Y-64486266D01*
X109959988Y-64510534D01*
X109961192Y-64535038D01*
X109961192Y-65185040D01*
X109959988Y-65209544D01*
X109956388Y-65233812D01*
X109950427Y-65257611D01*
X109942162Y-65280710D01*
X109931672Y-65302889D01*
X109919060Y-65323932D01*
X109904445Y-65343638D01*
X109887969Y-65361816D01*
X109869791Y-65378292D01*
X109850085Y-65392907D01*
X109829042Y-65405519D01*
X109806863Y-65416009D01*
X109783764Y-65424274D01*
X109759965Y-65430235D01*
X109735697Y-65433835D01*
X109711193Y-65435039D01*
X108811191Y-65435039D01*
X108786687Y-65433835D01*
X108762419Y-65430235D01*
X108738620Y-65424274D01*
X108715521Y-65416009D01*
X108693342Y-65405519D01*
X108672299Y-65392907D01*
X108652593Y-65378292D01*
X108634415Y-65361816D01*
X108617939Y-65343638D01*
X108603324Y-65323932D01*
X108590712Y-65302889D01*
X108580222Y-65280710D01*
X108571957Y-65257611D01*
X108565996Y-65233812D01*
X108562396Y-65209544D01*
X108561192Y-65185040D01*
X108561192Y-64535038D01*
X108562396Y-64510534D01*
X108565996Y-64486266D01*
X108571957Y-64462467D01*
X108580222Y-64439368D01*
X108590712Y-64417189D01*
X108603324Y-64396146D01*
X108617939Y-64376440D01*
X108634415Y-64358262D01*
X108652593Y-64341786D01*
X108672299Y-64327171D01*
X108693342Y-64314559D01*
X108715521Y-64304069D01*
X108738620Y-64295804D01*
X108762419Y-64289843D01*
X108786687Y-64286243D01*
X108811191Y-64285039D01*
X109711193Y-64285039D01*
X109735697Y-64286243D01*
X109735697Y-64286243D01*
G37*
D13*
G04 #@! TD*
G04 #@! TO.P,C68,2*
G04 #@! TO.N,GND*
X109261192Y-64860039D03*
D12*
G04 #@! TO.N,3.3V_Digital*
G04 #@! TO.C,C68*
G36*
X109735697Y-66336243D02*
X109759965Y-66339843D01*
X109783764Y-66345804D01*
X109806863Y-66354069D01*
X109829042Y-66364559D01*
X109850085Y-66377171D01*
X109869791Y-66391786D01*
X109887969Y-66408262D01*
X109904445Y-66426440D01*
X109919060Y-66446146D01*
X109931672Y-66467189D01*
X109942162Y-66489368D01*
X109950427Y-66512467D01*
X109956388Y-66536266D01*
X109959988Y-66560534D01*
X109961192Y-66585038D01*
X109961192Y-67235040D01*
X109959988Y-67259544D01*
X109956388Y-67283812D01*
X109950427Y-67307611D01*
X109942162Y-67330710D01*
X109931672Y-67352889D01*
X109919060Y-67373932D01*
X109904445Y-67393638D01*
X109887969Y-67411816D01*
X109869791Y-67428292D01*
X109850085Y-67442907D01*
X109829042Y-67455519D01*
X109806863Y-67466009D01*
X109783764Y-67474274D01*
X109759965Y-67480235D01*
X109735697Y-67483835D01*
X109711193Y-67485039D01*
X108811191Y-67485039D01*
X108786687Y-67483835D01*
X108762419Y-67480235D01*
X108738620Y-67474274D01*
X108715521Y-67466009D01*
X108693342Y-67455519D01*
X108672299Y-67442907D01*
X108652593Y-67428292D01*
X108634415Y-67411816D01*
X108617939Y-67393638D01*
X108603324Y-67373932D01*
X108590712Y-67352889D01*
X108580222Y-67330710D01*
X108571957Y-67307611D01*
X108565996Y-67283812D01*
X108562396Y-67259544D01*
X108561192Y-67235040D01*
X108561192Y-66585038D01*
X108562396Y-66560534D01*
X108565996Y-66536266D01*
X108571957Y-66512467D01*
X108580222Y-66489368D01*
X108590712Y-66467189D01*
X108603324Y-66446146D01*
X108617939Y-66426440D01*
X108634415Y-66408262D01*
X108652593Y-66391786D01*
X108672299Y-66377171D01*
X108693342Y-66364559D01*
X108715521Y-66354069D01*
X108738620Y-66345804D01*
X108762419Y-66339843D01*
X108786687Y-66336243D01*
X108811191Y-66335039D01*
X109711193Y-66335039D01*
X109735697Y-66336243D01*
X109735697Y-66336243D01*
G37*
D13*
G04 #@! TD*
G04 #@! TO.P,C68,1*
G04 #@! TO.N,3.3V_Digital*
X109261192Y-66910039D03*
D12*
G04 #@! TO.N,-5V*
G04 #@! TO.C,C69*
G36*
X105085697Y-53086243D02*
X105109965Y-53089843D01*
X105133764Y-53095804D01*
X105156863Y-53104069D01*
X105179042Y-53114559D01*
X105200085Y-53127171D01*
X105219791Y-53141786D01*
X105237969Y-53158262D01*
X105254445Y-53176440D01*
X105269060Y-53196146D01*
X105281672Y-53217189D01*
X105292162Y-53239368D01*
X105300427Y-53262467D01*
X105306388Y-53286266D01*
X105309988Y-53310534D01*
X105311192Y-53335038D01*
X105311192Y-54235040D01*
X105309988Y-54259544D01*
X105306388Y-54283812D01*
X105300427Y-54307611D01*
X105292162Y-54330710D01*
X105281672Y-54352889D01*
X105269060Y-54373932D01*
X105254445Y-54393638D01*
X105237969Y-54411816D01*
X105219791Y-54428292D01*
X105200085Y-54442907D01*
X105179042Y-54455519D01*
X105156863Y-54466009D01*
X105133764Y-54474274D01*
X105109965Y-54480235D01*
X105085697Y-54483835D01*
X105061193Y-54485039D01*
X104411191Y-54485039D01*
X104386687Y-54483835D01*
X104362419Y-54480235D01*
X104338620Y-54474274D01*
X104315521Y-54466009D01*
X104293342Y-54455519D01*
X104272299Y-54442907D01*
X104252593Y-54428292D01*
X104234415Y-54411816D01*
X104217939Y-54393638D01*
X104203324Y-54373932D01*
X104190712Y-54352889D01*
X104180222Y-54330710D01*
X104171957Y-54307611D01*
X104165996Y-54283812D01*
X104162396Y-54259544D01*
X104161192Y-54235040D01*
X104161192Y-53335038D01*
X104162396Y-53310534D01*
X104165996Y-53286266D01*
X104171957Y-53262467D01*
X104180222Y-53239368D01*
X104190712Y-53217189D01*
X104203324Y-53196146D01*
X104217939Y-53176440D01*
X104234415Y-53158262D01*
X104252593Y-53141786D01*
X104272299Y-53127171D01*
X104293342Y-53114559D01*
X104315521Y-53104069D01*
X104338620Y-53095804D01*
X104362419Y-53089843D01*
X104386687Y-53086243D01*
X104411191Y-53085039D01*
X105061193Y-53085039D01*
X105085697Y-53086243D01*
X105085697Y-53086243D01*
G37*
D13*
G04 #@! TD*
G04 #@! TO.P,C69,2*
G04 #@! TO.N,-5V*
X104736192Y-53785039D03*
D12*
G04 #@! TO.N,GND*
G04 #@! TO.C,C69*
G36*
X107135697Y-53086243D02*
X107159965Y-53089843D01*
X107183764Y-53095804D01*
X107206863Y-53104069D01*
X107229042Y-53114559D01*
X107250085Y-53127171D01*
X107269791Y-53141786D01*
X107287969Y-53158262D01*
X107304445Y-53176440D01*
X107319060Y-53196146D01*
X107331672Y-53217189D01*
X107342162Y-53239368D01*
X107350427Y-53262467D01*
X107356388Y-53286266D01*
X107359988Y-53310534D01*
X107361192Y-53335038D01*
X107361192Y-54235040D01*
X107359988Y-54259544D01*
X107356388Y-54283812D01*
X107350427Y-54307611D01*
X107342162Y-54330710D01*
X107331672Y-54352889D01*
X107319060Y-54373932D01*
X107304445Y-54393638D01*
X107287969Y-54411816D01*
X107269791Y-54428292D01*
X107250085Y-54442907D01*
X107229042Y-54455519D01*
X107206863Y-54466009D01*
X107183764Y-54474274D01*
X107159965Y-54480235D01*
X107135697Y-54483835D01*
X107111193Y-54485039D01*
X106461191Y-54485039D01*
X106436687Y-54483835D01*
X106412419Y-54480235D01*
X106388620Y-54474274D01*
X106365521Y-54466009D01*
X106343342Y-54455519D01*
X106322299Y-54442907D01*
X106302593Y-54428292D01*
X106284415Y-54411816D01*
X106267939Y-54393638D01*
X106253324Y-54373932D01*
X106240712Y-54352889D01*
X106230222Y-54330710D01*
X106221957Y-54307611D01*
X106215996Y-54283812D01*
X106212396Y-54259544D01*
X106211192Y-54235040D01*
X106211192Y-53335038D01*
X106212396Y-53310534D01*
X106215996Y-53286266D01*
X106221957Y-53262467D01*
X106230222Y-53239368D01*
X106240712Y-53217189D01*
X106253324Y-53196146D01*
X106267939Y-53176440D01*
X106284415Y-53158262D01*
X106302593Y-53141786D01*
X106322299Y-53127171D01*
X106343342Y-53114559D01*
X106365521Y-53104069D01*
X106388620Y-53095804D01*
X106412419Y-53089843D01*
X106436687Y-53086243D01*
X106461191Y-53085039D01*
X107111193Y-53085039D01*
X107135697Y-53086243D01*
X107135697Y-53086243D01*
G37*
D13*
G04 #@! TD*
G04 #@! TO.P,C69,1*
G04 #@! TO.N,GND*
X106786192Y-53785039D03*
D16*
G04 #@! TO.P,D9,2*
G04 #@! TO.N,/Power/+12V_in*
X94061192Y-38875039D03*
D17*
G04 #@! TO.P,D9,1*
G04 #@! TO.N,+12V*
X94061192Y-42685039D03*
G04 #@! TD*
D16*
G04 #@! TO.P,D10,2*
G04 #@! TO.N,-12V*
X110761192Y-43295039D03*
D17*
G04 #@! TO.P,D10,1*
G04 #@! TO.N,/Power/-12V_in*
X110761192Y-39485039D03*
G04 #@! TD*
D12*
G04 #@! TO.N,+5V*
G04 #@! TO.C,FB1*
G36*
X99918952Y-58448019D02*
X99943220Y-58451619D01*
X99967019Y-58457580D01*
X99990118Y-58465845D01*
X100012297Y-58476335D01*
X100033340Y-58488947D01*
X100053046Y-58503562D01*
X100071224Y-58520038D01*
X100087700Y-58538216D01*
X100102315Y-58557922D01*
X100114927Y-58578965D01*
X100125417Y-58601144D01*
X100133682Y-58624243D01*
X100139643Y-58648042D01*
X100143243Y-58672310D01*
X100144447Y-58696814D01*
X100144447Y-59596816D01*
X100143243Y-59621320D01*
X100139643Y-59645588D01*
X100133682Y-59669387D01*
X100125417Y-59692486D01*
X100114927Y-59714665D01*
X100102315Y-59735708D01*
X100087700Y-59755414D01*
X100071224Y-59773592D01*
X100053046Y-59790068D01*
X100033340Y-59804683D01*
X100012297Y-59817295D01*
X99990118Y-59827785D01*
X99967019Y-59836050D01*
X99943220Y-59842011D01*
X99918952Y-59845611D01*
X99894448Y-59846815D01*
X99244446Y-59846815D01*
X99219942Y-59845611D01*
X99195674Y-59842011D01*
X99171875Y-59836050D01*
X99148776Y-59827785D01*
X99126597Y-59817295D01*
X99105554Y-59804683D01*
X99085848Y-59790068D01*
X99067670Y-59773592D01*
X99051194Y-59755414D01*
X99036579Y-59735708D01*
X99023967Y-59714665D01*
X99013477Y-59692486D01*
X99005212Y-59669387D01*
X98999251Y-59645588D01*
X98995651Y-59621320D01*
X98994447Y-59596816D01*
X98994447Y-58696814D01*
X98995651Y-58672310D01*
X98999251Y-58648042D01*
X99005212Y-58624243D01*
X99013477Y-58601144D01*
X99023967Y-58578965D01*
X99036579Y-58557922D01*
X99051194Y-58538216D01*
X99067670Y-58520038D01*
X99085848Y-58503562D01*
X99105554Y-58488947D01*
X99126597Y-58476335D01*
X99148776Y-58465845D01*
X99171875Y-58457580D01*
X99195674Y-58451619D01*
X99219942Y-58448019D01*
X99244446Y-58446815D01*
X99894448Y-58446815D01*
X99918952Y-58448019D01*
X99918952Y-58448019D01*
G37*
D13*
G04 #@! TD*
G04 #@! TO.P,FB1,2*
G04 #@! TO.N,+5V*
X99569447Y-59146815D03*
D12*
G04 #@! TO.N,Net-(C59-Pad1)*
G04 #@! TO.C,FB1*
G36*
X97868952Y-58448019D02*
X97893220Y-58451619D01*
X97917019Y-58457580D01*
X97940118Y-58465845D01*
X97962297Y-58476335D01*
X97983340Y-58488947D01*
X98003046Y-58503562D01*
X98021224Y-58520038D01*
X98037700Y-58538216D01*
X98052315Y-58557922D01*
X98064927Y-58578965D01*
X98075417Y-58601144D01*
X98083682Y-58624243D01*
X98089643Y-58648042D01*
X98093243Y-58672310D01*
X98094447Y-58696814D01*
X98094447Y-59596816D01*
X98093243Y-59621320D01*
X98089643Y-59645588D01*
X98083682Y-59669387D01*
X98075417Y-59692486D01*
X98064927Y-59714665D01*
X98052315Y-59735708D01*
X98037700Y-59755414D01*
X98021224Y-59773592D01*
X98003046Y-59790068D01*
X97983340Y-59804683D01*
X97962297Y-59817295D01*
X97940118Y-59827785D01*
X97917019Y-59836050D01*
X97893220Y-59842011D01*
X97868952Y-59845611D01*
X97844448Y-59846815D01*
X97194446Y-59846815D01*
X97169942Y-59845611D01*
X97145674Y-59842011D01*
X97121875Y-59836050D01*
X97098776Y-59827785D01*
X97076597Y-59817295D01*
X97055554Y-59804683D01*
X97035848Y-59790068D01*
X97017670Y-59773592D01*
X97001194Y-59755414D01*
X96986579Y-59735708D01*
X96973967Y-59714665D01*
X96963477Y-59692486D01*
X96955212Y-59669387D01*
X96949251Y-59645588D01*
X96945651Y-59621320D01*
X96944447Y-59596816D01*
X96944447Y-58696814D01*
X96945651Y-58672310D01*
X96949251Y-58648042D01*
X96955212Y-58624243D01*
X96963477Y-58601144D01*
X96973967Y-58578965D01*
X96986579Y-58557922D01*
X97001194Y-58538216D01*
X97017670Y-58520038D01*
X97035848Y-58503562D01*
X97055554Y-58488947D01*
X97076597Y-58476335D01*
X97098776Y-58465845D01*
X97121875Y-58457580D01*
X97145674Y-58451619D01*
X97169942Y-58448019D01*
X97194446Y-58446815D01*
X97844448Y-58446815D01*
X97868952Y-58448019D01*
X97868952Y-58448019D01*
G37*
D13*
G04 #@! TD*
G04 #@! TO.P,FB1,1*
G04 #@! TO.N,Net-(C59-Pad1)*
X97519447Y-59146815D03*
D12*
G04 #@! TO.N,+5V*
G04 #@! TO.C,FB2*
G36*
X99918952Y-60548019D02*
X99943220Y-60551619D01*
X99967019Y-60557580D01*
X99990118Y-60565845D01*
X100012297Y-60576335D01*
X100033340Y-60588947D01*
X100053046Y-60603562D01*
X100071224Y-60620038D01*
X100087700Y-60638216D01*
X100102315Y-60657922D01*
X100114927Y-60678965D01*
X100125417Y-60701144D01*
X100133682Y-60724243D01*
X100139643Y-60748042D01*
X100143243Y-60772310D01*
X100144447Y-60796814D01*
X100144447Y-61696816D01*
X100143243Y-61721320D01*
X100139643Y-61745588D01*
X100133682Y-61769387D01*
X100125417Y-61792486D01*
X100114927Y-61814665D01*
X100102315Y-61835708D01*
X100087700Y-61855414D01*
X100071224Y-61873592D01*
X100053046Y-61890068D01*
X100033340Y-61904683D01*
X100012297Y-61917295D01*
X99990118Y-61927785D01*
X99967019Y-61936050D01*
X99943220Y-61942011D01*
X99918952Y-61945611D01*
X99894448Y-61946815D01*
X99244446Y-61946815D01*
X99219942Y-61945611D01*
X99195674Y-61942011D01*
X99171875Y-61936050D01*
X99148776Y-61927785D01*
X99126597Y-61917295D01*
X99105554Y-61904683D01*
X99085848Y-61890068D01*
X99067670Y-61873592D01*
X99051194Y-61855414D01*
X99036579Y-61835708D01*
X99023967Y-61814665D01*
X99013477Y-61792486D01*
X99005212Y-61769387D01*
X98999251Y-61745588D01*
X98995651Y-61721320D01*
X98994447Y-61696816D01*
X98994447Y-60796814D01*
X98995651Y-60772310D01*
X98999251Y-60748042D01*
X99005212Y-60724243D01*
X99013477Y-60701144D01*
X99023967Y-60678965D01*
X99036579Y-60657922D01*
X99051194Y-60638216D01*
X99067670Y-60620038D01*
X99085848Y-60603562D01*
X99105554Y-60588947D01*
X99126597Y-60576335D01*
X99148776Y-60565845D01*
X99171875Y-60557580D01*
X99195674Y-60551619D01*
X99219942Y-60548019D01*
X99244446Y-60546815D01*
X99894448Y-60546815D01*
X99918952Y-60548019D01*
X99918952Y-60548019D01*
G37*
D13*
G04 #@! TD*
G04 #@! TO.P,FB2,2*
G04 #@! TO.N,+5V*
X99569447Y-61246815D03*
D12*
G04 #@! TO.N,Net-(C60-Pad1)*
G04 #@! TO.C,FB2*
G36*
X97868952Y-60548019D02*
X97893220Y-60551619D01*
X97917019Y-60557580D01*
X97940118Y-60565845D01*
X97962297Y-60576335D01*
X97983340Y-60588947D01*
X98003046Y-60603562D01*
X98021224Y-60620038D01*
X98037700Y-60638216D01*
X98052315Y-60657922D01*
X98064927Y-60678965D01*
X98075417Y-60701144D01*
X98083682Y-60724243D01*
X98089643Y-60748042D01*
X98093243Y-60772310D01*
X98094447Y-60796814D01*
X98094447Y-61696816D01*
X98093243Y-61721320D01*
X98089643Y-61745588D01*
X98083682Y-61769387D01*
X98075417Y-61792486D01*
X98064927Y-61814665D01*
X98052315Y-61835708D01*
X98037700Y-61855414D01*
X98021224Y-61873592D01*
X98003046Y-61890068D01*
X97983340Y-61904683D01*
X97962297Y-61917295D01*
X97940118Y-61927785D01*
X97917019Y-61936050D01*
X97893220Y-61942011D01*
X97868952Y-61945611D01*
X97844448Y-61946815D01*
X97194446Y-61946815D01*
X97169942Y-61945611D01*
X97145674Y-61942011D01*
X97121875Y-61936050D01*
X97098776Y-61927785D01*
X97076597Y-61917295D01*
X97055554Y-61904683D01*
X97035848Y-61890068D01*
X97017670Y-61873592D01*
X97001194Y-61855414D01*
X96986579Y-61835708D01*
X96973967Y-61814665D01*
X96963477Y-61792486D01*
X96955212Y-61769387D01*
X96949251Y-61745588D01*
X96945651Y-61721320D01*
X96944447Y-61696816D01*
X96944447Y-60796814D01*
X96945651Y-60772310D01*
X96949251Y-60748042D01*
X96955212Y-60724243D01*
X96963477Y-60701144D01*
X96973967Y-60678965D01*
X96986579Y-60657922D01*
X97001194Y-60638216D01*
X97017670Y-60620038D01*
X97035848Y-60603562D01*
X97055554Y-60588947D01*
X97076597Y-60576335D01*
X97098776Y-60565845D01*
X97121875Y-60557580D01*
X97145674Y-60551619D01*
X97169942Y-60548019D01*
X97194446Y-60546815D01*
X97844448Y-60546815D01*
X97868952Y-60548019D01*
X97868952Y-60548019D01*
G37*
D13*
G04 #@! TD*
G04 #@! TO.P,FB2,1*
G04 #@! TO.N,Net-(C60-Pad1)*
X97519447Y-61246815D03*
D18*
G04 #@! TO.P,J38,10*
G04 #@! TO.N,/Power/-12V_in*
X107808622Y-33550500D03*
G04 #@! TO.P,J38,9*
X107808622Y-31010500D03*
G04 #@! TO.P,J38,8*
G04 #@! TO.N,GND*
X105268622Y-33550500D03*
G04 #@! TO.P,J38,7*
X105268622Y-31010500D03*
G04 #@! TO.P,J38,6*
X102728622Y-33550500D03*
G04 #@! TO.P,J38,5*
X102728622Y-31010500D03*
G04 #@! TO.P,J38,4*
X100188622Y-33550500D03*
G04 #@! TO.P,J38,3*
X100188622Y-31010500D03*
G04 #@! TO.P,J38,2*
G04 #@! TO.N,/Power/+12V_in*
X97648622Y-33550500D03*
D19*
G04 #@! TO.P,J38,1*
X97648622Y-31010500D03*
G04 #@! TD*
D15*
G04 #@! TO.P,U1,1*
G04 #@! TO.N,N/C*
X130471192Y-107005039D03*
D14*
G04 #@! TO.P,U1,2*
G04 #@! TO.N,Dout_SERpin_p*
X127931192Y-107005039D03*
G04 #@! TO.P,U1,3*
G04 #@! TO.N,N/C*
X125391192Y-107005039D03*
G04 #@! TO.P,U1,4*
G04 #@! TO.N,Dout_LATCHpin_p*
X122851192Y-107005039D03*
G04 #@! TO.P,U1,5*
G04 #@! TO.N,Din_latchPin_p*
X120311192Y-107005039D03*
G04 #@! TO.P,U1,6*
G04 #@! TO.N,/WS2812_level_boost*
X117771192Y-107005039D03*
G04 #@! TO.P,U1,7*
G04 #@! TO.N,N/C*
X115231192Y-107005039D03*
G04 #@! TO.P,U1,8*
G04 #@! TO.N,DAC_C_LDACpin_p*
X112691192Y-107005039D03*
G04 #@! TO.P,U1,9*
G04 #@! TO.N,DAC_B_LDACpin_p*
X110151192Y-107005039D03*
G04 #@! TO.P,U1,10*
G04 #@! TO.N,AreadMuxControlPin1_p*
X107611192Y-107005039D03*
G04 #@! TO.P,U1,11*
G04 #@! TO.N,AreadMuxControlPin2_p*
X105071192Y-107005039D03*
G04 #@! TO.P,U1,12*
G04 #@! TO.N,AreadMuxControlPin3_p*
X102531192Y-107005039D03*
G04 #@! TO.P,U1,13*
G04 #@! TO.N,N/C*
X99991192Y-107005039D03*
G04 #@! TO.P,U1,37*
X117771192Y-94305039D03*
G04 #@! TO.P,U1,36*
X120311192Y-94305039D03*
G04 #@! TO.P,U1,35*
X122851192Y-94305039D03*
G04 #@! TO.P,U1,34*
X127931192Y-94305039D03*
G04 #@! TO.P,U1,33*
G04 #@! TO.N,+5V*
X130471192Y-91765039D03*
G04 #@! TO.P,U1,32*
G04 #@! TO.N,GND*
X127931192Y-91765039D03*
G04 #@! TO.P,U1,31*
G04 #@! TO.N,N/C*
X125391192Y-91765039D03*
G04 #@! TO.P,U1,30*
G04 #@! TO.N,DAC_SDApin_p*
X122851192Y-91765039D03*
G04 #@! TO.P,U1,29*
G04 #@! TO.N,DAC_SCLpin_p*
X120311192Y-91765039D03*
G04 #@! TO.P,U1,28*
G04 #@! TO.N,DAC_A_LDACpin_p*
X117771192Y-91765039D03*
G04 #@! TO.P,U1,27*
G04 #@! TO.N,Dout_CLKpin_p*
X115231192Y-91765039D03*
G04 #@! TO.P,U1,26*
G04 #@! TO.N,TouchI2C_SCL_p*
X112691192Y-91765039D03*
G04 #@! TO.P,U1,25*
G04 #@! TO.N,TouchI2C_SDA_p*
X110151192Y-91765039D03*
G04 #@! TO.P,U1,24*
G04 #@! TO.N,/WS2812_level_boost*
X107611192Y-91765039D03*
G04 #@! TO.P,U1,23*
G04 #@! TO.N,AreadPin3_p*
X105071192Y-91765039D03*
G04 #@! TO.P,U1,22*
G04 #@! TO.N,AreadPin2_p*
X102531192Y-91765039D03*
G04 #@! TO.P,U1,21*
G04 #@! TO.N,AreadPin1_p*
X99991192Y-91765039D03*
G04 #@! TO.P,U1,14*
G04 #@! TO.N,Din_SERpin_p*
X97451192Y-107005039D03*
G04 #@! TO.P,U1,15*
G04 #@! TO.N,WS2812_serial_p*
X97451192Y-104465039D03*
G04 #@! TO.P,U1,16*
G04 #@! TO.N,N/C*
X97451192Y-101925039D03*
G04 #@! TO.P,U1,20*
G04 #@! TO.N,Din_CLKpin_p*
X97451192Y-91765039D03*
G04 #@! TO.P,U1,19*
G04 #@! TO.N,N/C*
X97451192Y-94305039D03*
G04 #@! TO.P,U1,18*
X97451192Y-96845039D03*
G04 #@! TO.P,U1,17*
X97451192Y-99385039D03*
G04 #@! TD*
D20*
G04 #@! TO.P,U29,3*
G04 #@! TO.N,+5V*
X99041192Y-48485039D03*
G04 #@! TO.P,U29,2*
G04 #@! TO.N,GND*
X96501192Y-48485039D03*
D21*
G04 #@! TO.P,U29,1*
G04 #@! TO.N,+12V*
X93961192Y-48485039D03*
G04 #@! TD*
D20*
G04 #@! TO.P,U30,3*
G04 #@! TO.N,-5V*
X105281192Y-51085039D03*
G04 #@! TO.P,U30,2*
G04 #@! TO.N,-12V*
X107821192Y-51085039D03*
D21*
G04 #@! TO.P,U30,1*
G04 #@! TO.N,GND*
X110361192Y-51085039D03*
G04 #@! TD*
D22*
G04 #@! TO.P,U17,12*
G04 #@! TO.N,Touch0_p*
X131801192Y-59225039D03*
G04 #@! TO.P,U17,19*
G04 #@! TO.N,3.3V_Digital*
X116561192Y-36365039D03*
G04 #@! TO.P,U17,18*
G04 #@! TO.N,N/C*
X116561192Y-38905039D03*
G04 #@! TO.P,U17,17*
G04 #@! TO.N,GND*
X116561192Y-41445039D03*
G04 #@! TO.P,U17,13*
G04 #@! TO.N,N/C*
X116561192Y-51605039D03*
G04 #@! TO.P,U17,14*
G04 #@! TO.N,TouchI2C_SCL_p*
X116561192Y-49065039D03*
G04 #@! TO.P,U17,15*
G04 #@! TO.N,TouchI2C_SDA_p*
X116561192Y-46525039D03*
G04 #@! TO.P,U17,16*
G04 #@! TO.N,N/C*
X116561192Y-43985039D03*
G04 #@! TO.P,U17,0*
G04 #@! TO.N,GND*
X131801192Y-28745039D03*
G04 #@! TO.P,U17,1*
G04 #@! TO.N,Touch11_p*
X131801192Y-31285039D03*
G04 #@! TO.P,U17,2*
G04 #@! TO.N,Touch10_p*
X131801192Y-33825039D03*
G04 #@! TO.P,U17,3*
G04 #@! TO.N,Touch9_p*
X131801192Y-36365039D03*
G04 #@! TO.P,U17,4*
G04 #@! TO.N,Touch8_p*
X131801192Y-38905039D03*
G04 #@! TO.P,U17,5*
G04 #@! TO.N,Touch7_p*
X131801192Y-41445039D03*
G04 #@! TO.P,U17,11*
G04 #@! TO.N,Touch1_p*
X131801192Y-56685039D03*
G04 #@! TO.P,U17,10*
G04 #@! TO.N,Touch2_p*
X131801192Y-54145039D03*
G04 #@! TO.P,U17,9*
G04 #@! TO.N,Touch3_p*
X131801192Y-51605039D03*
G04 #@! TO.P,U17,8*
G04 #@! TO.N,Touch4_p*
X131801192Y-49065039D03*
G04 #@! TO.P,U17,7*
G04 #@! TO.N,Touch5_p*
X131801192Y-46525039D03*
G04 #@! TO.P,U17,6*
G04 #@! TO.N,Touch6_p*
X131801192Y-43985039D03*
G04 #@! TD*
D20*
G04 #@! TO.P,U31,3*
G04 #@! TO.N,Net-(C59-Pad1)*
X94581192Y-71685039D03*
G04 #@! TO.P,U31,2*
G04 #@! TO.N,3.3V_Analogue*
X97121192Y-71685039D03*
D21*
G04 #@! TO.P,U31,1*
G04 #@! TO.N,GND*
X99661192Y-71685039D03*
G04 #@! TD*
D20*
G04 #@! TO.P,U32,3*
G04 #@! TO.N,Net-(C60-Pad1)*
X106281192Y-71885039D03*
G04 #@! TO.P,U32,2*
G04 #@! TO.N,3.3V_Digital*
X108821192Y-71885039D03*
D21*
G04 #@! TO.P,U32,1*
G04 #@! TO.N,GND*
X111361192Y-71885039D03*
G04 #@! TD*
D12*
G04 #@! TO.N,AreadPin1_p*
G04 #@! TO.C,R65*
G36*
X100388383Y-85670151D02*
X100412651Y-85673751D01*
X100436450Y-85679712D01*
X100459549Y-85687977D01*
X100481728Y-85698467D01*
X100502771Y-85711079D01*
X100522477Y-85725694D01*
X100540655Y-85742170D01*
X100557131Y-85760348D01*
X100571746Y-85780054D01*
X100584358Y-85801097D01*
X100594848Y-85823276D01*
X100603113Y-85846375D01*
X100609074Y-85870174D01*
X100612674Y-85894442D01*
X100613878Y-85918946D01*
X100613878Y-86568948D01*
X100612674Y-86593452D01*
X100609074Y-86617720D01*
X100603113Y-86641519D01*
X100594848Y-86664618D01*
X100584358Y-86686797D01*
X100571746Y-86707840D01*
X100557131Y-86727546D01*
X100540655Y-86745724D01*
X100522477Y-86762200D01*
X100502771Y-86776815D01*
X100481728Y-86789427D01*
X100459549Y-86799917D01*
X100436450Y-86808182D01*
X100412651Y-86814143D01*
X100388383Y-86817743D01*
X100363879Y-86818947D01*
X99463877Y-86818947D01*
X99439373Y-86817743D01*
X99415105Y-86814143D01*
X99391306Y-86808182D01*
X99368207Y-86799917D01*
X99346028Y-86789427D01*
X99324985Y-86776815D01*
X99305279Y-86762200D01*
X99287101Y-86745724D01*
X99270625Y-86727546D01*
X99256010Y-86707840D01*
X99243398Y-86686797D01*
X99232908Y-86664618D01*
X99224643Y-86641519D01*
X99218682Y-86617720D01*
X99215082Y-86593452D01*
X99213878Y-86568948D01*
X99213878Y-85918946D01*
X99215082Y-85894442D01*
X99218682Y-85870174D01*
X99224643Y-85846375D01*
X99232908Y-85823276D01*
X99243398Y-85801097D01*
X99256010Y-85780054D01*
X99270625Y-85760348D01*
X99287101Y-85742170D01*
X99305279Y-85725694D01*
X99324985Y-85711079D01*
X99346028Y-85698467D01*
X99368207Y-85687977D01*
X99391306Y-85679712D01*
X99415105Y-85673751D01*
X99439373Y-85670151D01*
X99463877Y-85668947D01*
X100363879Y-85668947D01*
X100388383Y-85670151D01*
X100388383Y-85670151D01*
G37*
D13*
G04 #@! TD*
G04 #@! TO.P,R65,2*
G04 #@! TO.N,AreadPin1_p*
X99913878Y-86243947D03*
D12*
G04 #@! TO.N,AreadCon1_p*
G04 #@! TO.C,R65*
G36*
X100388383Y-83620151D02*
X100412651Y-83623751D01*
X100436450Y-83629712D01*
X100459549Y-83637977D01*
X100481728Y-83648467D01*
X100502771Y-83661079D01*
X100522477Y-83675694D01*
X100540655Y-83692170D01*
X100557131Y-83710348D01*
X100571746Y-83730054D01*
X100584358Y-83751097D01*
X100594848Y-83773276D01*
X100603113Y-83796375D01*
X100609074Y-83820174D01*
X100612674Y-83844442D01*
X100613878Y-83868946D01*
X100613878Y-84518948D01*
X100612674Y-84543452D01*
X100609074Y-84567720D01*
X100603113Y-84591519D01*
X100594848Y-84614618D01*
X100584358Y-84636797D01*
X100571746Y-84657840D01*
X100557131Y-84677546D01*
X100540655Y-84695724D01*
X100522477Y-84712200D01*
X100502771Y-84726815D01*
X100481728Y-84739427D01*
X100459549Y-84749917D01*
X100436450Y-84758182D01*
X100412651Y-84764143D01*
X100388383Y-84767743D01*
X100363879Y-84768947D01*
X99463877Y-84768947D01*
X99439373Y-84767743D01*
X99415105Y-84764143D01*
X99391306Y-84758182D01*
X99368207Y-84749917D01*
X99346028Y-84739427D01*
X99324985Y-84726815D01*
X99305279Y-84712200D01*
X99287101Y-84695724D01*
X99270625Y-84677546D01*
X99256010Y-84657840D01*
X99243398Y-84636797D01*
X99232908Y-84614618D01*
X99224643Y-84591519D01*
X99218682Y-84567720D01*
X99215082Y-84543452D01*
X99213878Y-84518948D01*
X99213878Y-83868946D01*
X99215082Y-83844442D01*
X99218682Y-83820174D01*
X99224643Y-83796375D01*
X99232908Y-83773276D01*
X99243398Y-83751097D01*
X99256010Y-83730054D01*
X99270625Y-83710348D01*
X99287101Y-83692170D01*
X99305279Y-83675694D01*
X99324985Y-83661079D01*
X99346028Y-83648467D01*
X99368207Y-83637977D01*
X99391306Y-83629712D01*
X99415105Y-83623751D01*
X99439373Y-83620151D01*
X99463877Y-83618947D01*
X100363879Y-83618947D01*
X100388383Y-83620151D01*
X100388383Y-83620151D01*
G37*
D13*
G04 #@! TD*
G04 #@! TO.P,R65,1*
G04 #@! TO.N,AreadCon1_p*
X99913878Y-84193947D03*
D12*
G04 #@! TO.N,AreadPin3_p*
G04 #@! TO.C,R66*
G36*
X105468383Y-85670151D02*
X105492651Y-85673751D01*
X105516450Y-85679712D01*
X105539549Y-85687977D01*
X105561728Y-85698467D01*
X105582771Y-85711079D01*
X105602477Y-85725694D01*
X105620655Y-85742170D01*
X105637131Y-85760348D01*
X105651746Y-85780054D01*
X105664358Y-85801097D01*
X105674848Y-85823276D01*
X105683113Y-85846375D01*
X105689074Y-85870174D01*
X105692674Y-85894442D01*
X105693878Y-85918946D01*
X105693878Y-86568948D01*
X105692674Y-86593452D01*
X105689074Y-86617720D01*
X105683113Y-86641519D01*
X105674848Y-86664618D01*
X105664358Y-86686797D01*
X105651746Y-86707840D01*
X105637131Y-86727546D01*
X105620655Y-86745724D01*
X105602477Y-86762200D01*
X105582771Y-86776815D01*
X105561728Y-86789427D01*
X105539549Y-86799917D01*
X105516450Y-86808182D01*
X105492651Y-86814143D01*
X105468383Y-86817743D01*
X105443879Y-86818947D01*
X104543877Y-86818947D01*
X104519373Y-86817743D01*
X104495105Y-86814143D01*
X104471306Y-86808182D01*
X104448207Y-86799917D01*
X104426028Y-86789427D01*
X104404985Y-86776815D01*
X104385279Y-86762200D01*
X104367101Y-86745724D01*
X104350625Y-86727546D01*
X104336010Y-86707840D01*
X104323398Y-86686797D01*
X104312908Y-86664618D01*
X104304643Y-86641519D01*
X104298682Y-86617720D01*
X104295082Y-86593452D01*
X104293878Y-86568948D01*
X104293878Y-85918946D01*
X104295082Y-85894442D01*
X104298682Y-85870174D01*
X104304643Y-85846375D01*
X104312908Y-85823276D01*
X104323398Y-85801097D01*
X104336010Y-85780054D01*
X104350625Y-85760348D01*
X104367101Y-85742170D01*
X104385279Y-85725694D01*
X104404985Y-85711079D01*
X104426028Y-85698467D01*
X104448207Y-85687977D01*
X104471306Y-85679712D01*
X104495105Y-85673751D01*
X104519373Y-85670151D01*
X104543877Y-85668947D01*
X105443879Y-85668947D01*
X105468383Y-85670151D01*
X105468383Y-85670151D01*
G37*
D13*
G04 #@! TD*
G04 #@! TO.P,R66,2*
G04 #@! TO.N,AreadPin3_p*
X104993878Y-86243947D03*
D12*
G04 #@! TO.N,AreadCon3_p*
G04 #@! TO.C,R66*
G36*
X105468383Y-83620151D02*
X105492651Y-83623751D01*
X105516450Y-83629712D01*
X105539549Y-83637977D01*
X105561728Y-83648467D01*
X105582771Y-83661079D01*
X105602477Y-83675694D01*
X105620655Y-83692170D01*
X105637131Y-83710348D01*
X105651746Y-83730054D01*
X105664358Y-83751097D01*
X105674848Y-83773276D01*
X105683113Y-83796375D01*
X105689074Y-83820174D01*
X105692674Y-83844442D01*
X105693878Y-83868946D01*
X105693878Y-84518948D01*
X105692674Y-84543452D01*
X105689074Y-84567720D01*
X105683113Y-84591519D01*
X105674848Y-84614618D01*
X105664358Y-84636797D01*
X105651746Y-84657840D01*
X105637131Y-84677546D01*
X105620655Y-84695724D01*
X105602477Y-84712200D01*
X105582771Y-84726815D01*
X105561728Y-84739427D01*
X105539549Y-84749917D01*
X105516450Y-84758182D01*
X105492651Y-84764143D01*
X105468383Y-84767743D01*
X105443879Y-84768947D01*
X104543877Y-84768947D01*
X104519373Y-84767743D01*
X104495105Y-84764143D01*
X104471306Y-84758182D01*
X104448207Y-84749917D01*
X104426028Y-84739427D01*
X104404985Y-84726815D01*
X104385279Y-84712200D01*
X104367101Y-84695724D01*
X104350625Y-84677546D01*
X104336010Y-84657840D01*
X104323398Y-84636797D01*
X104312908Y-84614618D01*
X104304643Y-84591519D01*
X104298682Y-84567720D01*
X104295082Y-84543452D01*
X104293878Y-84518948D01*
X104293878Y-83868946D01*
X104295082Y-83844442D01*
X104298682Y-83820174D01*
X104304643Y-83796375D01*
X104312908Y-83773276D01*
X104323398Y-83751097D01*
X104336010Y-83730054D01*
X104350625Y-83710348D01*
X104367101Y-83692170D01*
X104385279Y-83675694D01*
X104404985Y-83661079D01*
X104426028Y-83648467D01*
X104448207Y-83637977D01*
X104471306Y-83629712D01*
X104495105Y-83623751D01*
X104519373Y-83620151D01*
X104543877Y-83618947D01*
X105443879Y-83618947D01*
X105468383Y-83620151D01*
X105468383Y-83620151D01*
G37*
D13*
G04 #@! TD*
G04 #@! TO.P,R66,1*
G04 #@! TO.N,AreadCon3_p*
X104993878Y-84193947D03*
D12*
G04 #@! TO.N,AreadPin2_p*
G04 #@! TO.C,R67*
G36*
X102928383Y-85670151D02*
X102952651Y-85673751D01*
X102976450Y-85679712D01*
X102999549Y-85687977D01*
X103021728Y-85698467D01*
X103042771Y-85711079D01*
X103062477Y-85725694D01*
X103080655Y-85742170D01*
X103097131Y-85760348D01*
X103111746Y-85780054D01*
X103124358Y-85801097D01*
X103134848Y-85823276D01*
X103143113Y-85846375D01*
X103149074Y-85870174D01*
X103152674Y-85894442D01*
X103153878Y-85918946D01*
X103153878Y-86568948D01*
X103152674Y-86593452D01*
X103149074Y-86617720D01*
X103143113Y-86641519D01*
X103134848Y-86664618D01*
X103124358Y-86686797D01*
X103111746Y-86707840D01*
X103097131Y-86727546D01*
X103080655Y-86745724D01*
X103062477Y-86762200D01*
X103042771Y-86776815D01*
X103021728Y-86789427D01*
X102999549Y-86799917D01*
X102976450Y-86808182D01*
X102952651Y-86814143D01*
X102928383Y-86817743D01*
X102903879Y-86818947D01*
X102003877Y-86818947D01*
X101979373Y-86817743D01*
X101955105Y-86814143D01*
X101931306Y-86808182D01*
X101908207Y-86799917D01*
X101886028Y-86789427D01*
X101864985Y-86776815D01*
X101845279Y-86762200D01*
X101827101Y-86745724D01*
X101810625Y-86727546D01*
X101796010Y-86707840D01*
X101783398Y-86686797D01*
X101772908Y-86664618D01*
X101764643Y-86641519D01*
X101758682Y-86617720D01*
X101755082Y-86593452D01*
X101753878Y-86568948D01*
X101753878Y-85918946D01*
X101755082Y-85894442D01*
X101758682Y-85870174D01*
X101764643Y-85846375D01*
X101772908Y-85823276D01*
X101783398Y-85801097D01*
X101796010Y-85780054D01*
X101810625Y-85760348D01*
X101827101Y-85742170D01*
X101845279Y-85725694D01*
X101864985Y-85711079D01*
X101886028Y-85698467D01*
X101908207Y-85687977D01*
X101931306Y-85679712D01*
X101955105Y-85673751D01*
X101979373Y-85670151D01*
X102003877Y-85668947D01*
X102903879Y-85668947D01*
X102928383Y-85670151D01*
X102928383Y-85670151D01*
G37*
D13*
G04 #@! TD*
G04 #@! TO.P,R67,2*
G04 #@! TO.N,AreadPin2_p*
X102453878Y-86243947D03*
D12*
G04 #@! TO.N,AreadCon2_p*
G04 #@! TO.C,R67*
G36*
X102928383Y-83620151D02*
X102952651Y-83623751D01*
X102976450Y-83629712D01*
X102999549Y-83637977D01*
X103021728Y-83648467D01*
X103042771Y-83661079D01*
X103062477Y-83675694D01*
X103080655Y-83692170D01*
X103097131Y-83710348D01*
X103111746Y-83730054D01*
X103124358Y-83751097D01*
X103134848Y-83773276D01*
X103143113Y-83796375D01*
X103149074Y-83820174D01*
X103152674Y-83844442D01*
X103153878Y-83868946D01*
X103153878Y-84518948D01*
X103152674Y-84543452D01*
X103149074Y-84567720D01*
X103143113Y-84591519D01*
X103134848Y-84614618D01*
X103124358Y-84636797D01*
X103111746Y-84657840D01*
X103097131Y-84677546D01*
X103080655Y-84695724D01*
X103062477Y-84712200D01*
X103042771Y-84726815D01*
X103021728Y-84739427D01*
X102999549Y-84749917D01*
X102976450Y-84758182D01*
X102952651Y-84764143D01*
X102928383Y-84767743D01*
X102903879Y-84768947D01*
X102003877Y-84768947D01*
X101979373Y-84767743D01*
X101955105Y-84764143D01*
X101931306Y-84758182D01*
X101908207Y-84749917D01*
X101886028Y-84739427D01*
X101864985Y-84726815D01*
X101845279Y-84712200D01*
X101827101Y-84695724D01*
X101810625Y-84677546D01*
X101796010Y-84657840D01*
X101783398Y-84636797D01*
X101772908Y-84614618D01*
X101764643Y-84591519D01*
X101758682Y-84567720D01*
X101755082Y-84543452D01*
X101753878Y-84518948D01*
X101753878Y-83868946D01*
X101755082Y-83844442D01*
X101758682Y-83820174D01*
X101764643Y-83796375D01*
X101772908Y-83773276D01*
X101783398Y-83751097D01*
X101796010Y-83730054D01*
X101810625Y-83710348D01*
X101827101Y-83692170D01*
X101845279Y-83675694D01*
X101864985Y-83661079D01*
X101886028Y-83648467D01*
X101908207Y-83637977D01*
X101931306Y-83629712D01*
X101955105Y-83623751D01*
X101979373Y-83620151D01*
X102003877Y-83618947D01*
X102903879Y-83618947D01*
X102928383Y-83620151D01*
X102928383Y-83620151D01*
G37*
D13*
G04 #@! TD*
G04 #@! TO.P,R67,1*
G04 #@! TO.N,AreadCon2_p*
X102453878Y-84193947D03*
D12*
G04 #@! TO.N,DAC_SCLpin_p*
G04 #@! TO.C,R84*
G36*
X125875697Y-79000243D02*
X125899965Y-79003843D01*
X125923764Y-79009804D01*
X125946863Y-79018069D01*
X125969042Y-79028559D01*
X125990085Y-79041171D01*
X126009791Y-79055786D01*
X126027969Y-79072262D01*
X126044445Y-79090440D01*
X126059060Y-79110146D01*
X126071672Y-79131189D01*
X126082162Y-79153368D01*
X126090427Y-79176467D01*
X126096388Y-79200266D01*
X126099988Y-79224534D01*
X126101192Y-79249038D01*
X126101192Y-79899040D01*
X126099988Y-79923544D01*
X126096388Y-79947812D01*
X126090427Y-79971611D01*
X126082162Y-79994710D01*
X126071672Y-80016889D01*
X126059060Y-80037932D01*
X126044445Y-80057638D01*
X126027969Y-80075816D01*
X126009791Y-80092292D01*
X125990085Y-80106907D01*
X125969042Y-80119519D01*
X125946863Y-80130009D01*
X125923764Y-80138274D01*
X125899965Y-80144235D01*
X125875697Y-80147835D01*
X125851193Y-80149039D01*
X124951191Y-80149039D01*
X124926687Y-80147835D01*
X124902419Y-80144235D01*
X124878620Y-80138274D01*
X124855521Y-80130009D01*
X124833342Y-80119519D01*
X124812299Y-80106907D01*
X124792593Y-80092292D01*
X124774415Y-80075816D01*
X124757939Y-80057638D01*
X124743324Y-80037932D01*
X124730712Y-80016889D01*
X124720222Y-79994710D01*
X124711957Y-79971611D01*
X124705996Y-79947812D01*
X124702396Y-79923544D01*
X124701192Y-79899040D01*
X124701192Y-79249038D01*
X124702396Y-79224534D01*
X124705996Y-79200266D01*
X124711957Y-79176467D01*
X124720222Y-79153368D01*
X124730712Y-79131189D01*
X124743324Y-79110146D01*
X124757939Y-79090440D01*
X124774415Y-79072262D01*
X124792593Y-79055786D01*
X124812299Y-79041171D01*
X124833342Y-79028559D01*
X124855521Y-79018069D01*
X124878620Y-79009804D01*
X124902419Y-79003843D01*
X124926687Y-79000243D01*
X124951191Y-78999039D01*
X125851193Y-78999039D01*
X125875697Y-79000243D01*
X125875697Y-79000243D01*
G37*
D13*
G04 #@! TD*
G04 #@! TO.P,R84,2*
G04 #@! TO.N,DAC_SCLpin_p*
X125401192Y-79574039D03*
D12*
G04 #@! TO.N,3.3V_Digital*
G04 #@! TO.C,R84*
G36*
X125875697Y-76950243D02*
X125899965Y-76953843D01*
X125923764Y-76959804D01*
X125946863Y-76968069D01*
X125969042Y-76978559D01*
X125990085Y-76991171D01*
X126009791Y-77005786D01*
X126027969Y-77022262D01*
X126044445Y-77040440D01*
X126059060Y-77060146D01*
X126071672Y-77081189D01*
X126082162Y-77103368D01*
X126090427Y-77126467D01*
X126096388Y-77150266D01*
X126099988Y-77174534D01*
X126101192Y-77199038D01*
X126101192Y-77849040D01*
X126099988Y-77873544D01*
X126096388Y-77897812D01*
X126090427Y-77921611D01*
X126082162Y-77944710D01*
X126071672Y-77966889D01*
X126059060Y-77987932D01*
X126044445Y-78007638D01*
X126027969Y-78025816D01*
X126009791Y-78042292D01*
X125990085Y-78056907D01*
X125969042Y-78069519D01*
X125946863Y-78080009D01*
X125923764Y-78088274D01*
X125899965Y-78094235D01*
X125875697Y-78097835D01*
X125851193Y-78099039D01*
X124951191Y-78099039D01*
X124926687Y-78097835D01*
X124902419Y-78094235D01*
X124878620Y-78088274D01*
X124855521Y-78080009D01*
X124833342Y-78069519D01*
X124812299Y-78056907D01*
X124792593Y-78042292D01*
X124774415Y-78025816D01*
X124757939Y-78007638D01*
X124743324Y-77987932D01*
X124730712Y-77966889D01*
X124720222Y-77944710D01*
X124711957Y-77921611D01*
X124705996Y-77897812D01*
X124702396Y-77873544D01*
X124701192Y-77849040D01*
X124701192Y-77199038D01*
X124702396Y-77174534D01*
X124705996Y-77150266D01*
X124711957Y-77126467D01*
X124720222Y-77103368D01*
X124730712Y-77081189D01*
X124743324Y-77060146D01*
X124757939Y-77040440D01*
X124774415Y-77022262D01*
X124792593Y-77005786D01*
X124812299Y-76991171D01*
X124833342Y-76978559D01*
X124855521Y-76968069D01*
X124878620Y-76959804D01*
X124902419Y-76953843D01*
X124926687Y-76950243D01*
X124951191Y-76949039D01*
X125851193Y-76949039D01*
X125875697Y-76950243D01*
X125875697Y-76950243D01*
G37*
D13*
G04 #@! TD*
G04 #@! TO.P,R84,1*
G04 #@! TO.N,3.3V_Digital*
X125401192Y-77524039D03*
D12*
G04 #@! TO.N,DAC_SDApin_p*
G04 #@! TO.C,R85*
G36*
X128415697Y-79000243D02*
X128439965Y-79003843D01*
X128463764Y-79009804D01*
X128486863Y-79018069D01*
X128509042Y-79028559D01*
X128530085Y-79041171D01*
X128549791Y-79055786D01*
X128567969Y-79072262D01*
X128584445Y-79090440D01*
X128599060Y-79110146D01*
X128611672Y-79131189D01*
X128622162Y-79153368D01*
X128630427Y-79176467D01*
X128636388Y-79200266D01*
X128639988Y-79224534D01*
X128641192Y-79249038D01*
X128641192Y-79899040D01*
X128639988Y-79923544D01*
X128636388Y-79947812D01*
X128630427Y-79971611D01*
X128622162Y-79994710D01*
X128611672Y-80016889D01*
X128599060Y-80037932D01*
X128584445Y-80057638D01*
X128567969Y-80075816D01*
X128549791Y-80092292D01*
X128530085Y-80106907D01*
X128509042Y-80119519D01*
X128486863Y-80130009D01*
X128463764Y-80138274D01*
X128439965Y-80144235D01*
X128415697Y-80147835D01*
X128391193Y-80149039D01*
X127491191Y-80149039D01*
X127466687Y-80147835D01*
X127442419Y-80144235D01*
X127418620Y-80138274D01*
X127395521Y-80130009D01*
X127373342Y-80119519D01*
X127352299Y-80106907D01*
X127332593Y-80092292D01*
X127314415Y-80075816D01*
X127297939Y-80057638D01*
X127283324Y-80037932D01*
X127270712Y-80016889D01*
X127260222Y-79994710D01*
X127251957Y-79971611D01*
X127245996Y-79947812D01*
X127242396Y-79923544D01*
X127241192Y-79899040D01*
X127241192Y-79249038D01*
X127242396Y-79224534D01*
X127245996Y-79200266D01*
X127251957Y-79176467D01*
X127260222Y-79153368D01*
X127270712Y-79131189D01*
X127283324Y-79110146D01*
X127297939Y-79090440D01*
X127314415Y-79072262D01*
X127332593Y-79055786D01*
X127352299Y-79041171D01*
X127373342Y-79028559D01*
X127395521Y-79018069D01*
X127418620Y-79009804D01*
X127442419Y-79003843D01*
X127466687Y-79000243D01*
X127491191Y-78999039D01*
X128391193Y-78999039D01*
X128415697Y-79000243D01*
X128415697Y-79000243D01*
G37*
D13*
G04 #@! TD*
G04 #@! TO.P,R85,2*
G04 #@! TO.N,DAC_SDApin_p*
X127941192Y-79574039D03*
D12*
G04 #@! TO.N,3.3V_Digital*
G04 #@! TO.C,R85*
G36*
X128415697Y-76950243D02*
X128439965Y-76953843D01*
X128463764Y-76959804D01*
X128486863Y-76968069D01*
X128509042Y-76978559D01*
X128530085Y-76991171D01*
X128549791Y-77005786D01*
X128567969Y-77022262D01*
X128584445Y-77040440D01*
X128599060Y-77060146D01*
X128611672Y-77081189D01*
X128622162Y-77103368D01*
X128630427Y-77126467D01*
X128636388Y-77150266D01*
X128639988Y-77174534D01*
X128641192Y-77199038D01*
X128641192Y-77849040D01*
X128639988Y-77873544D01*
X128636388Y-77897812D01*
X128630427Y-77921611D01*
X128622162Y-77944710D01*
X128611672Y-77966889D01*
X128599060Y-77987932D01*
X128584445Y-78007638D01*
X128567969Y-78025816D01*
X128549791Y-78042292D01*
X128530085Y-78056907D01*
X128509042Y-78069519D01*
X128486863Y-78080009D01*
X128463764Y-78088274D01*
X128439965Y-78094235D01*
X128415697Y-78097835D01*
X128391193Y-78099039D01*
X127491191Y-78099039D01*
X127466687Y-78097835D01*
X127442419Y-78094235D01*
X127418620Y-78088274D01*
X127395521Y-78080009D01*
X127373342Y-78069519D01*
X127352299Y-78056907D01*
X127332593Y-78042292D01*
X127314415Y-78025816D01*
X127297939Y-78007638D01*
X127283324Y-77987932D01*
X127270712Y-77966889D01*
X127260222Y-77944710D01*
X127251957Y-77921611D01*
X127245996Y-77897812D01*
X127242396Y-77873544D01*
X127241192Y-77849040D01*
X127241192Y-77199038D01*
X127242396Y-77174534D01*
X127245996Y-77150266D01*
X127251957Y-77126467D01*
X127260222Y-77103368D01*
X127270712Y-77081189D01*
X127283324Y-77060146D01*
X127297939Y-77040440D01*
X127314415Y-77022262D01*
X127332593Y-77005786D01*
X127352299Y-76991171D01*
X127373342Y-76978559D01*
X127395521Y-76968069D01*
X127418620Y-76959804D01*
X127442419Y-76953843D01*
X127466687Y-76950243D01*
X127491191Y-76949039D01*
X128391193Y-76949039D01*
X128415697Y-76950243D01*
X128415697Y-76950243D01*
G37*
D13*
G04 #@! TD*
G04 #@! TO.P,R85,1*
G04 #@! TO.N,3.3V_Digital*
X127941192Y-77524039D03*
D14*
G04 #@! TO.P,C56,2*
G04 #@! TO.N,GND*
X100161192Y-40885039D03*
D15*
G04 #@! TO.P,C56,1*
G04 #@! TO.N,+12V*
X97661192Y-40885039D03*
G04 #@! TD*
D14*
G04 #@! TO.P,C57,2*
G04 #@! TO.N,-12V*
X106061192Y-41085039D03*
D15*
G04 #@! TO.P,C57,1*
G04 #@! TO.N,GND*
X103561192Y-41085039D03*
G04 #@! TD*
D23*
G04 #@! TO.N,GND*
X98060000Y-64962000D03*
X106442000Y-63184000D03*
X129048000Y-87060000D03*
X130318000Y-78424000D03*
G04 #@! TO.N,3.3V_Digital*
X123623192Y-77279039D03*
X123623192Y-66285039D03*
G04 #@! TO.N,+12V*
X92261192Y-73585039D03*
X112661192Y-74185039D03*
G04 #@! TO.N,-12V*
X134636000Y-64454000D03*
X132350000Y-61914000D03*
G04 #@! TO.N,+5V*
X132513192Y-64385039D03*
G04 #@! TO.N,3.3V_Analogue*
X104361192Y-69285039D03*
X110961192Y-69285039D03*
G04 #@! TO.N,-5V*
X114316000Y-62676000D03*
X117872000Y-72074000D03*
X134890000Y-72328000D03*
D24*
G04 #@! TO.N,/WS2812_level_boost*
X114479192Y-103187039D03*
X117781192Y-103187039D03*
G04 #@! TO.N,DAC_B_LDACpin_p*
X110669192Y-117665039D03*
G04 #@! TO.N,DAC_A_LDACpin_p*
X116511192Y-115125039D03*
G04 #@! TO.N,DAC_C_LDACpin_p*
X112701192Y-112839039D03*
G04 #@! TO.N,DAC_SDApin_p*
X124385192Y-110045039D03*
X126671192Y-81089039D03*
G04 #@! TO.N,DAC_SCLpin_p*
X121083192Y-104203039D03*
X123877192Y-80581039D03*
G04 #@! TO.N,Dout_SERpin_p*
X128195192Y-103463039D03*
G04 #@! TO.N,Dout_LATCHpin_p*
X123115192Y-102933039D03*
G04 #@! TO.N,Dout_CLKpin_p*
X115495192Y-100139039D03*
G04 #@! TO.N,Din_latchPin_p*
X120321192Y-96789039D03*
G04 #@! TO.N,AreadCon1_p*
X106859192Y-84645039D03*
X100763192Y-82613039D03*
G04 #@! TO.N,AreadCon2_p*
X106859192Y-83121039D03*
X103049192Y-82359039D03*
G04 #@! TO.N,Din_SERpin_p*
X136323192Y-106743039D03*
G04 #@! TO.N,AreadMuxControlPin3_p*
X136577192Y-101663039D03*
X103049192Y-102171039D03*
G04 #@! TO.N,AreadMuxControlPin2_p*
X135767192Y-99123039D03*
X105589192Y-100139039D03*
G04 #@! TO.N,AreadMuxControlPin1_p*
X134545192Y-95567039D03*
X108383192Y-96075039D03*
G04 #@! TO.N,WS2812_serial_p*
X119650000Y-78678000D03*
X119904000Y-42356000D03*
G04 #@! TO.N,TouchI2C_SCL_p*
X122061192Y-49485039D03*
G04 #@! TO.N,TouchI2C_SDA_p*
X121061192Y-46885039D03*
G04 #@! TD*
D25*
G04 #@! TO.N,GND*
X97936192Y-67085039D02*
X97936192Y-65085808D01*
X97936192Y-65085808D02*
X98060000Y-64962000D01*
X109261192Y-64860039D02*
X108118039Y-64860039D01*
X108118039Y-64860039D02*
X106442000Y-63184000D01*
X127931192Y-91765039D02*
X127931192Y-88176808D01*
X127931192Y-88176808D02*
X129048000Y-87060000D01*
G04 #@! TO.N,3.3V_Digital*
X108821192Y-76825039D02*
X108761192Y-76885039D01*
X108821192Y-71885039D02*
X108821192Y-76825039D01*
X109236192Y-71470039D02*
X108821192Y-71885039D01*
X109261192Y-71445039D02*
X108821192Y-71885039D01*
X109261192Y-66910039D02*
X109261192Y-71445039D01*
X109261192Y-66910039D02*
X110636192Y-66910039D01*
X110636192Y-66910039D02*
X111261192Y-66285039D01*
X125401192Y-77524039D02*
X123868192Y-77524039D01*
X123868192Y-77524039D02*
X123623192Y-77279039D01*
X111261192Y-66285039D02*
X123623192Y-66285039D01*
X123623192Y-66285039D02*
X129973192Y-66285039D01*
X130773192Y-67085039D02*
X129973192Y-66285039D01*
X138961192Y-67085039D02*
X130773192Y-67085039D01*
X125401192Y-77524039D02*
X127941192Y-77524039D01*
G04 #@! TO.N,+12V*
X93961192Y-52660039D02*
X93061192Y-53560039D01*
X93961192Y-48485039D02*
X93961192Y-52660039D01*
X91601182Y-72925029D02*
X92261192Y-73585039D01*
X91601182Y-54220049D02*
X91601182Y-72925029D01*
X93061192Y-53560039D02*
X92261192Y-53560039D01*
X92261192Y-53560039D02*
X91601182Y-54220049D01*
X112661192Y-74185039D02*
X113368298Y-74185039D01*
X113368298Y-74185039D02*
X113888298Y-74705039D01*
X136421192Y-74705039D02*
X138961192Y-72165039D01*
X113888298Y-74705039D02*
X136421192Y-74705039D01*
G04 #@! TO.N,-12V*
X108736192Y-52985039D02*
X108736192Y-53785039D01*
X107821192Y-52070039D02*
X108736192Y-52985039D01*
X107821192Y-51085039D02*
X107821192Y-52070039D01*
X117161192Y-55685039D02*
X122523193Y-61047040D01*
X109836192Y-55685039D02*
X117161192Y-55685039D01*
X108736192Y-53785039D02*
X108736192Y-54585039D01*
X108736192Y-54585039D02*
X109836192Y-55685039D01*
X138961192Y-64545039D02*
X134727039Y-64545039D01*
X134727039Y-64545039D02*
X134636000Y-64454000D01*
X131483040Y-61047040D02*
X122523193Y-61047040D01*
X132350000Y-61914000D02*
X131483040Y-61047040D01*
G04 #@! TO.N,+5V*
X99041192Y-49780039D02*
X95261192Y-53560039D01*
X99041192Y-48485039D02*
X99041192Y-49780039D01*
X100661192Y-51400039D02*
X99041192Y-49780039D01*
X100661192Y-54885039D02*
X100661192Y-51400039D01*
X100661192Y-58055070D02*
X99569447Y-59146815D01*
X99569447Y-59146815D02*
X99569447Y-61246815D01*
X100661192Y-56185039D02*
X100661192Y-58055070D01*
X100661192Y-54885039D02*
X100661192Y-56185039D01*
X102696202Y-58220049D02*
X104214280Y-58220049D01*
X100661192Y-56185039D02*
X102696202Y-58220049D01*
X104214280Y-58220049D02*
X106779270Y-60785039D01*
X106779270Y-60785039D02*
X108261192Y-60785039D01*
X108261192Y-60785039D02*
X111861192Y-64385039D01*
X111861192Y-64385039D02*
X132513192Y-64385039D01*
X134893192Y-62005039D02*
X132513192Y-64385039D01*
X138961192Y-62005039D02*
X134893192Y-62005039D01*
G04 #@! TO.N,Net-(C59-Pad1)*
X93936192Y-66285039D02*
X93936192Y-67085039D01*
X93936192Y-62055070D02*
X93936192Y-66285039D01*
X96844447Y-59146815D02*
X93936192Y-62055070D01*
X97519447Y-59146815D02*
X96844447Y-59146815D01*
X94581192Y-67730039D02*
X93936192Y-67085039D01*
X94581192Y-71685039D02*
X94581192Y-67730039D01*
G04 #@! TO.N,Net-(C60-Pad1)*
X97519447Y-62046815D02*
X98357671Y-62885039D01*
X97519447Y-61246815D02*
X97519447Y-62046815D01*
X106086192Y-66285039D02*
X106086192Y-67085039D01*
X102686192Y-62885039D02*
X106086192Y-66285039D01*
X98357671Y-62885039D02*
X102686192Y-62885039D01*
X106281192Y-67280039D02*
X106086192Y-67085039D01*
X106281192Y-71885039D02*
X106281192Y-67280039D01*
G04 #@! TO.N,3.3V_Analogue*
X99986192Y-67885039D02*
X99986192Y-67085039D01*
X97121192Y-70750039D02*
X99986192Y-67885039D01*
X97121192Y-71685039D02*
X97121192Y-70750039D01*
X93561192Y-75245039D02*
X97121192Y-71685039D01*
X93561192Y-76485039D02*
X93561192Y-75245039D01*
X97121192Y-70904537D02*
X98740690Y-69285039D01*
X97121192Y-71685039D02*
X97121192Y-70904537D01*
X98740690Y-69285039D02*
X104361192Y-69285039D01*
X111301192Y-69625039D02*
X110961192Y-69285039D01*
X138961192Y-69625039D02*
X111301192Y-69625039D01*
G04 #@! TO.N,-5V*
X105281192Y-53240039D02*
X104736192Y-53785039D01*
X105281192Y-51085039D02*
X105281192Y-53240039D01*
X104736192Y-53785039D02*
X104736192Y-56960039D01*
X106861192Y-59085039D02*
X104736192Y-56960039D01*
X109861192Y-59085039D02*
X106861192Y-59085039D01*
X109861192Y-59085039D02*
X109861192Y-60216409D01*
X109861192Y-60216409D02*
X112329822Y-62685039D01*
X112329822Y-62685039D02*
X114306961Y-62685039D01*
X114306961Y-62685039D02*
X114316000Y-62676000D01*
X117872000Y-72074000D02*
X134636000Y-72074000D01*
X134636000Y-72074000D02*
X134890000Y-72328000D01*
D26*
G04 #@! TO.N,/WS2812_level_boost*
X114479192Y-103187039D02*
X117781192Y-103187039D01*
D27*
G04 #@! TO.N,DAC_B_LDACpin_p*
X137759111Y-117885039D02*
X137725111Y-117919039D01*
X138961192Y-117885039D02*
X137759111Y-117885039D01*
X137725111Y-117919039D02*
X111177192Y-117919039D01*
X111177192Y-117919039D02*
X110923192Y-117919039D01*
X110923192Y-117919039D02*
X110669192Y-117665039D01*
G04 #@! TO.N,DAC_A_LDACpin_p*
X138961192Y-115345039D02*
X116731192Y-115345039D01*
X116731192Y-115345039D02*
X116511192Y-115125039D01*
G04 #@! TO.N,DAC_C_LDACpin_p*
X138961192Y-112805039D02*
X112735192Y-112805039D01*
X112735192Y-112805039D02*
X112701192Y-112839039D01*
G04 #@! TO.N,DAC_SDApin_p*
X138961192Y-110265039D02*
X124605192Y-110265039D01*
X124605192Y-110265039D02*
X124385192Y-110045039D01*
D26*
X127941192Y-79574039D02*
X127941192Y-79819039D01*
X127941192Y-79819039D02*
X126671192Y-81089039D01*
D27*
G04 #@! TO.N,DAC_SCLpin_p*
X138961192Y-107725039D02*
X135439192Y-104203039D01*
X135439192Y-104203039D02*
X121083192Y-104203039D01*
D26*
X125401192Y-79574039D02*
X124884192Y-79574039D01*
X124884192Y-79574039D02*
X123877192Y-80581039D01*
G04 #@! TO.N,Dout_SERpin_p*
X138961192Y-105185039D02*
X137239192Y-103463039D01*
X137239192Y-103463039D02*
X128195192Y-103463039D01*
G04 #@! TO.N,Dout_LATCHpin_p*
X138961192Y-102645039D02*
X123403192Y-102645039D01*
X123403192Y-102645039D02*
X123115192Y-102933039D01*
G04 #@! TO.N,Dout_CLKpin_p*
X138961192Y-100105039D02*
X115529192Y-100105039D01*
X115529192Y-100105039D02*
X115495192Y-100139039D01*
G04 #@! TO.N,Din_CLKpin_p*
X137759111Y-97565039D02*
X137725111Y-97599039D01*
X138961192Y-97565039D02*
X137759111Y-97565039D01*
X103285192Y-97599039D02*
X97451192Y-91765039D01*
X137725111Y-97599039D02*
X103285192Y-97599039D01*
G04 #@! TO.N,Din_latchPin_p*
X127237994Y-96789039D02*
X120321192Y-96789039D01*
X138961192Y-95025039D02*
X137197192Y-96789039D01*
X137197192Y-96789039D02*
X127237994Y-96789039D01*
G04 #@! TO.N,AreadCon1_p*
X138961192Y-92485039D02*
X132137192Y-85661039D01*
X132137192Y-85661039D02*
X125909192Y-85661039D01*
X125909192Y-85661039D02*
X109399192Y-85661039D01*
X109399192Y-85661039D02*
X107875192Y-85661039D01*
X107875192Y-85661039D02*
X106859192Y-84645039D01*
X100763192Y-82613039D02*
X100001192Y-82613039D01*
X99913878Y-82700353D02*
X99913878Y-84193947D01*
X100001192Y-82613039D02*
X99913878Y-82700353D01*
G04 #@! TO.N,AreadCon2_p*
X138961192Y-89945039D02*
X132899192Y-83883039D01*
X107621192Y-83883039D02*
X106859192Y-83121039D01*
X108383192Y-83883039D02*
X107621192Y-83883039D01*
X108383192Y-83883039D02*
X108129192Y-83883039D01*
X132899192Y-83883039D02*
X108383192Y-83883039D01*
X102453878Y-82954353D02*
X103049192Y-82359039D01*
X102453878Y-84193947D02*
X102453878Y-82954353D01*
G04 #@! TO.N,AreadCon3_p*
X138111193Y-86555040D02*
X138111193Y-86433040D01*
X138961192Y-87405039D02*
X138111193Y-86555040D01*
X138111193Y-86433040D02*
X133761202Y-82083049D01*
X108361202Y-82083049D02*
X108129192Y-81851039D01*
X106429776Y-82083049D02*
X108891192Y-82083049D01*
X104993878Y-83518947D02*
X106429776Y-82083049D01*
X104993878Y-84193947D02*
X104993878Y-83518947D01*
X133761202Y-82083049D02*
X108891192Y-82083049D01*
X108891192Y-82083049D02*
X108361202Y-82083049D01*
G04 #@! TO.N,Din_SERpin_p*
X98251191Y-106205040D02*
X97451192Y-107005039D01*
X99443191Y-105013040D02*
X98251191Y-106205040D01*
X134593193Y-105013040D02*
X99443191Y-105013040D01*
X136323192Y-106743039D02*
X134593193Y-105013040D01*
G04 #@! TO.N,AreadMuxControlPin3_p*
X136577192Y-101663039D02*
X103557192Y-101663039D01*
X103557192Y-101663039D02*
X103049192Y-102171039D01*
G04 #@! TO.N,AreadMuxControlPin2_p*
X135767192Y-99123039D02*
X106605192Y-99123039D01*
X106605192Y-99123039D02*
X105589192Y-100139039D01*
G04 #@! TO.N,AreadMuxControlPin1_p*
X134545192Y-95567039D02*
X108891192Y-95567039D01*
X108891192Y-95567039D02*
X108383192Y-96075039D01*
D25*
G04 #@! TO.N,Touch0_p*
X134101192Y-56925039D02*
X131801192Y-59225039D01*
X138961192Y-56925039D02*
X134101192Y-56925039D01*
G04 #@! TO.N,Touch1_p*
X134101192Y-54385039D02*
X131801192Y-56685039D01*
X138961192Y-54385039D02*
X134101192Y-54385039D01*
G04 #@! TO.N,Touch2_p*
X134101192Y-51845039D02*
X131801192Y-54145039D01*
X138961192Y-51845039D02*
X134101192Y-51845039D01*
G04 #@! TO.N,Touch3_p*
X134101192Y-49305039D02*
X131801192Y-51605039D01*
X138961192Y-49305039D02*
X134101192Y-49305039D01*
G04 #@! TO.N,Touch4_p*
X134101192Y-46765039D02*
X131801192Y-49065039D01*
X138961192Y-46765039D02*
X134101192Y-46765039D01*
G04 #@! TO.N,Touch5_p*
X134101192Y-44225039D02*
X131801192Y-46525039D01*
X138961192Y-44225039D02*
X134101192Y-44225039D01*
G04 #@! TO.N,Touch6_p*
X134101192Y-41685039D02*
X131801192Y-43985039D01*
X138961192Y-41685039D02*
X134101192Y-41685039D01*
G04 #@! TO.N,Touch7_p*
X134101192Y-39145039D02*
X131801192Y-41445039D01*
X138961192Y-39145039D02*
X134101192Y-39145039D01*
G04 #@! TO.N,Touch8_p*
X134101192Y-36605039D02*
X131801192Y-38905039D01*
X138961192Y-36605039D02*
X134101192Y-36605039D01*
G04 #@! TO.N,Touch9_p*
X134101192Y-34065039D02*
X131801192Y-36365039D01*
X138961192Y-34065039D02*
X134101192Y-34065039D01*
G04 #@! TO.N,Touch10_p*
X134101192Y-31525039D02*
X131801192Y-33825039D01*
X138961192Y-31525039D02*
X134101192Y-31525039D01*
G04 #@! TO.N,Touch11_p*
X134101192Y-28985039D02*
X131801192Y-31285039D01*
X138961192Y-28985039D02*
X134101192Y-28985039D01*
D26*
G04 #@! TO.N,WS2812_serial_p*
X96319822Y-104465039D02*
X94504000Y-102649217D01*
X97451192Y-104465039D02*
X96319822Y-104465039D01*
X94504000Y-102649217D02*
X94504000Y-85282000D01*
X94504000Y-85282000D02*
X99330000Y-80456000D01*
X99330000Y-80456000D02*
X117872000Y-80456000D01*
X117872000Y-80456000D02*
X119650000Y-78678000D01*
X130734961Y-26445039D02*
X138961192Y-26445039D01*
X119904000Y-42356000D02*
X119904000Y-37276000D01*
X119904000Y-37276000D02*
X130734961Y-26445039D01*
G04 #@! TO.N,AreadPin1_p*
X99913878Y-91687725D02*
X99991192Y-91765039D01*
X99913878Y-86243947D02*
X99913878Y-91687725D01*
G04 #@! TO.N,AreadPin3_p*
X104993878Y-91687725D02*
X105071192Y-91765039D01*
X104993878Y-86243947D02*
X104993878Y-91687725D01*
G04 #@! TO.N,AreadPin2_p*
X102453878Y-91687725D02*
X102531192Y-91765039D01*
X102453878Y-86243947D02*
X102453878Y-91687725D01*
G04 #@! TO.N,TouchI2C_SCL_p*
X121641192Y-49065039D02*
X116561192Y-49065039D01*
X122061192Y-49485039D02*
X121641192Y-49065039D01*
G04 #@! TO.N,TouchI2C_SDA_p*
X116921192Y-46885039D02*
X116561192Y-46525039D01*
X121061192Y-46885039D02*
X116921192Y-46885039D01*
G04 #@! TD*
D28*
G04 #@! TO.N,GND*
G36*
X105146192Y-70686653D02*
X105136669Y-70693016D01*
X104785801Y-71218128D01*
X104693692Y-71681189D01*
X104693692Y-72088888D01*
X104785801Y-72551949D01*
X105136669Y-73077062D01*
X105661781Y-73427930D01*
X106281192Y-73551139D01*
X106900602Y-73427930D01*
X107425715Y-73077062D01*
X107551192Y-72889272D01*
X107676669Y-73077062D01*
X107686192Y-73083425D01*
X107686193Y-75505080D01*
X107503383Y-75627230D01*
X107363035Y-75837274D01*
X107313752Y-76085039D01*
X107313752Y-77685039D01*
X107363035Y-77932804D01*
X107503383Y-78142848D01*
X107713427Y-78283196D01*
X107961192Y-78332479D01*
X109561192Y-78332479D01*
X109808957Y-78283196D01*
X110018708Y-78143044D01*
X110544415Y-78332004D01*
X111114646Y-78304817D01*
X111515197Y-78138903D01*
X111589331Y-77892784D01*
X110761192Y-77064644D01*
X110747050Y-77078787D01*
X110567445Y-76899182D01*
X110581587Y-76885039D01*
X110940797Y-76885039D01*
X111768937Y-77713178D01*
X112015056Y-77639044D01*
X112208157Y-77101816D01*
X112180970Y-76531585D01*
X112015056Y-76131034D01*
X111768937Y-76056900D01*
X110940797Y-76885039D01*
X110581587Y-76885039D01*
X110567445Y-76870897D01*
X110747050Y-76691291D01*
X110761192Y-76705434D01*
X111589331Y-75877294D01*
X111515197Y-75631175D01*
X110977969Y-75438074D01*
X110407738Y-75465261D01*
X110018125Y-75626644D01*
X109956192Y-75585262D01*
X109956192Y-73330565D01*
X110048994Y-73423366D01*
X110282383Y-73520039D01*
X111075442Y-73520039D01*
X111234192Y-73361289D01*
X111234192Y-72012039D01*
X111214192Y-72012039D01*
X111214192Y-71758039D01*
X111234192Y-71758039D01*
X111234192Y-71738039D01*
X111488192Y-71738039D01*
X111488192Y-71758039D01*
X112789942Y-71758039D01*
X112948692Y-71599289D01*
X112948692Y-70760039D01*
X137986911Y-70760039D01*
X138188953Y-70895039D01*
X137890567Y-71094414D01*
X137562353Y-71585621D01*
X137469705Y-72051394D01*
X135951061Y-73570039D01*
X114358429Y-73570039D01*
X114249911Y-73461521D01*
X114186587Y-73366750D01*
X113811153Y-73115893D01*
X113480081Y-73050039D01*
X113368298Y-73027804D01*
X113256515Y-73050039D01*
X112932666Y-73050039D01*
X112948692Y-73011349D01*
X112948692Y-72170789D01*
X112851903Y-72074000D01*
X116714765Y-72074000D01*
X116737000Y-72185783D01*
X116737000Y-72299766D01*
X116780619Y-72405072D01*
X116802854Y-72516855D01*
X116866174Y-72611620D01*
X116909793Y-72716926D01*
X116990390Y-72797523D01*
X117053711Y-72892289D01*
X117148476Y-72955609D01*
X117229074Y-73036207D01*
X117334380Y-73079826D01*
X117429145Y-73143146D01*
X117540928Y-73165381D01*
X117646234Y-73209000D01*
X134165867Y-73209000D01*
X134247074Y-73290207D01*
X134352387Y-73333829D01*
X134447146Y-73397145D01*
X134558924Y-73419379D01*
X134664234Y-73463000D01*
X134778217Y-73463000D01*
X134889999Y-73485235D01*
X135001781Y-73463000D01*
X135115766Y-73463000D01*
X135221076Y-73419379D01*
X135332854Y-73397145D01*
X135427613Y-73333829D01*
X135532926Y-73290207D01*
X135613529Y-73209604D01*
X135708288Y-73146288D01*
X135771604Y-73051529D01*
X135852207Y-72970926D01*
X135895829Y-72865613D01*
X135959145Y-72770854D01*
X135981379Y-72659076D01*
X136025000Y-72553766D01*
X136025000Y-72439781D01*
X136047235Y-72327999D01*
X136025000Y-72216217D01*
X136025000Y-72102234D01*
X135981379Y-71996924D01*
X135959145Y-71885146D01*
X135895829Y-71790387D01*
X135852207Y-71685074D01*
X135532926Y-71365793D01*
X135532923Y-71365792D01*
X135517613Y-71350482D01*
X135454289Y-71255711D01*
X135078855Y-71004854D01*
X134747783Y-70939000D01*
X134636000Y-70916765D01*
X134524217Y-70939000D01*
X117646234Y-70939000D01*
X117540928Y-70982619D01*
X117429145Y-71004854D01*
X117334380Y-71068174D01*
X117229074Y-71111793D01*
X117148476Y-71192391D01*
X117053711Y-71255711D01*
X116990391Y-71350476D01*
X116909793Y-71431074D01*
X116866174Y-71536380D01*
X116802854Y-71631145D01*
X116780619Y-71742928D01*
X116737000Y-71848234D01*
X116737000Y-71962217D01*
X116714765Y-72074000D01*
X112851903Y-72074000D01*
X112789942Y-72012039D01*
X111488192Y-72012039D01*
X111488192Y-73361289D01*
X111646942Y-73520039D01*
X111721059Y-73520039D01*
X111698985Y-73542113D01*
X111655366Y-73647419D01*
X111592046Y-73742184D01*
X111569811Y-73853967D01*
X111526192Y-73959273D01*
X111526192Y-74073256D01*
X111503957Y-74185039D01*
X111526192Y-74296822D01*
X111526192Y-74410805D01*
X111569811Y-74516111D01*
X111592046Y-74627894D01*
X111655366Y-74722659D01*
X111698985Y-74827965D01*
X111779582Y-74908562D01*
X111842903Y-75003328D01*
X111937668Y-75066648D01*
X112018266Y-75147246D01*
X112123572Y-75190865D01*
X112218337Y-75254185D01*
X112330120Y-75276420D01*
X112435426Y-75320039D01*
X112898167Y-75320039D01*
X113006685Y-75428557D01*
X113070009Y-75523328D01*
X113418067Y-75755893D01*
X113445443Y-75774185D01*
X113888297Y-75862274D01*
X114000080Y-75840039D01*
X136309409Y-75840039D01*
X136421192Y-75862274D01*
X136532975Y-75840039D01*
X136864047Y-75774185D01*
X137239481Y-75523328D01*
X137302805Y-75428557D01*
X137543199Y-75188163D01*
X137562353Y-75284457D01*
X137890567Y-75775664D01*
X138188953Y-75975039D01*
X137890567Y-76174414D01*
X137562353Y-76665621D01*
X137447100Y-77245039D01*
X137562353Y-77824457D01*
X137890567Y-78315664D01*
X138188953Y-78515039D01*
X137890567Y-78714414D01*
X137562353Y-79205621D01*
X137447100Y-79785039D01*
X137562353Y-80364457D01*
X137890567Y-80855664D01*
X138188953Y-81055039D01*
X137890567Y-81254414D01*
X137562353Y-81745621D01*
X137447100Y-82325039D01*
X137562353Y-82904457D01*
X137890567Y-83395664D01*
X138188953Y-83595039D01*
X137890567Y-83794414D01*
X137562353Y-84285621D01*
X137481319Y-84693008D01*
X134370951Y-81582641D01*
X134327155Y-81517096D01*
X134067494Y-81343595D01*
X133838518Y-81298049D01*
X133838514Y-81298049D01*
X133761202Y-81282671D01*
X133683890Y-81298049D01*
X127704893Y-81298049D01*
X127706192Y-81294913D01*
X127706192Y-81164196D01*
X128073910Y-80796479D01*
X128391193Y-80796479D01*
X128734628Y-80728166D01*
X129025778Y-80533625D01*
X129220319Y-80242475D01*
X129288632Y-79899040D01*
X129288632Y-79249038D01*
X129220319Y-78905603D01*
X129025778Y-78614453D01*
X128927879Y-78549039D01*
X129025778Y-78483625D01*
X129220319Y-78192475D01*
X129288632Y-77849040D01*
X129288632Y-77199038D01*
X129220319Y-76855603D01*
X129025778Y-76564453D01*
X128734628Y-76369912D01*
X128391193Y-76301599D01*
X127491191Y-76301599D01*
X127147756Y-76369912D01*
X127119131Y-76389039D01*
X126223253Y-76389039D01*
X126194628Y-76369912D01*
X125851193Y-76301599D01*
X124951191Y-76301599D01*
X124607756Y-76369912D01*
X124579131Y-76389039D01*
X124338325Y-76389039D01*
X124266118Y-76316832D01*
X124160808Y-76273211D01*
X124066046Y-76209893D01*
X123954265Y-76187658D01*
X123848958Y-76144039D01*
X123734975Y-76144039D01*
X123623192Y-76121804D01*
X123511409Y-76144039D01*
X123397426Y-76144039D01*
X123292119Y-76187658D01*
X123180338Y-76209893D01*
X123085576Y-76273211D01*
X122980266Y-76316832D01*
X122899664Y-76397434D01*
X122804904Y-76460751D01*
X122741587Y-76555511D01*
X122660985Y-76636113D01*
X122617364Y-76741423D01*
X122554046Y-76836185D01*
X122531811Y-76947966D01*
X122488192Y-77053273D01*
X122488192Y-77167256D01*
X122465957Y-77279039D01*
X122488192Y-77390822D01*
X122488192Y-77504805D01*
X122531811Y-77610112D01*
X122554046Y-77721893D01*
X122617364Y-77816655D01*
X122660985Y-77921965D01*
X122980266Y-78241246D01*
X122980269Y-78241247D01*
X122986579Y-78247557D01*
X123049903Y-78342328D01*
X123425337Y-78593185D01*
X123756409Y-78659039D01*
X123868191Y-78681274D01*
X123979973Y-78659039D01*
X124286814Y-78659039D01*
X124122065Y-78905603D01*
X124053752Y-79249038D01*
X124053752Y-79294321D01*
X123802035Y-79546039D01*
X123671318Y-79546039D01*
X123290912Y-79703608D01*
X122999761Y-79994759D01*
X122842192Y-80375165D01*
X122842192Y-80786913D01*
X122999761Y-81167319D01*
X123130491Y-81298049D01*
X108686359Y-81298049D01*
X108629600Y-81241290D01*
X108629166Y-81241000D01*
X117794688Y-81241000D01*
X117872000Y-81256378D01*
X117949312Y-81241000D01*
X117949316Y-81241000D01*
X118178292Y-81195454D01*
X118437953Y-81021953D01*
X118481749Y-80956408D01*
X119725157Y-79713000D01*
X119855874Y-79713000D01*
X120236280Y-79555431D01*
X120527431Y-79264280D01*
X120685000Y-78883874D01*
X120685000Y-78472126D01*
X120527431Y-78091720D01*
X120236280Y-77800569D01*
X119855874Y-77643000D01*
X119444126Y-77643000D01*
X119063720Y-77800569D01*
X118772569Y-78091720D01*
X118615000Y-78472126D01*
X118615000Y-78602843D01*
X117546843Y-79671000D01*
X99407312Y-79671000D01*
X99330000Y-79655622D01*
X99252688Y-79671000D01*
X99252684Y-79671000D01*
X99023708Y-79716546D01*
X98764047Y-79890047D01*
X98720251Y-79955592D01*
X94003590Y-84672253D01*
X93938048Y-84716047D01*
X93894254Y-84781589D01*
X93894251Y-84781592D01*
X93764546Y-84975709D01*
X93703622Y-85282000D01*
X93719001Y-85359317D01*
X93719000Y-102571905D01*
X93703622Y-102649217D01*
X93719000Y-102726529D01*
X93719000Y-102726532D01*
X93744214Y-102853290D01*
X93764546Y-102955508D01*
X93887094Y-103138913D01*
X93938047Y-103215170D01*
X94003592Y-103258966D01*
X95710075Y-104965450D01*
X95753869Y-105030992D01*
X95819411Y-105074786D01*
X95819413Y-105074788D01*
X95984415Y-105185039D01*
X96013530Y-105204493D01*
X96221376Y-105245836D01*
X96234658Y-105277901D01*
X96638330Y-105681573D01*
X96767408Y-105735039D01*
X96638330Y-105788505D01*
X96234658Y-106192177D01*
X96016192Y-106719600D01*
X96016192Y-107290478D01*
X96234658Y-107817901D01*
X96638330Y-108221573D01*
X97165753Y-108440039D01*
X97736631Y-108440039D01*
X98264054Y-108221573D01*
X98667726Y-107817901D01*
X98721192Y-107688823D01*
X98774658Y-107817901D01*
X99178330Y-108221573D01*
X99705753Y-108440039D01*
X100276631Y-108440039D01*
X100804054Y-108221573D01*
X101207726Y-107817901D01*
X101261192Y-107688823D01*
X101314658Y-107817901D01*
X101718330Y-108221573D01*
X102245753Y-108440039D01*
X102816631Y-108440039D01*
X103344054Y-108221573D01*
X103747726Y-107817901D01*
X103801192Y-107688823D01*
X103854658Y-107817901D01*
X104258330Y-108221573D01*
X104785753Y-108440039D01*
X105356631Y-108440039D01*
X105884054Y-108221573D01*
X106287726Y-107817901D01*
X106341192Y-107688823D01*
X106394658Y-107817901D01*
X106798330Y-108221573D01*
X107325753Y-108440039D01*
X107896631Y-108440039D01*
X108424054Y-108221573D01*
X108827726Y-107817901D01*
X108881192Y-107688823D01*
X108934658Y-107817901D01*
X109338330Y-108221573D01*
X109865753Y-108440039D01*
X110436631Y-108440039D01*
X110964054Y-108221573D01*
X111367726Y-107817901D01*
X111421192Y-107688823D01*
X111474658Y-107817901D01*
X111878330Y-108221573D01*
X112405753Y-108440039D01*
X112976631Y-108440039D01*
X113504054Y-108221573D01*
X113907726Y-107817901D01*
X113961192Y-107688823D01*
X114014658Y-107817901D01*
X114418330Y-108221573D01*
X114945753Y-108440039D01*
X115516631Y-108440039D01*
X116044054Y-108221573D01*
X116447726Y-107817901D01*
X116501192Y-107688823D01*
X116554658Y-107817901D01*
X116958330Y-108221573D01*
X117485753Y-108440039D01*
X118056631Y-108440039D01*
X118584054Y-108221573D01*
X118987726Y-107817901D01*
X119041192Y-107688823D01*
X119094658Y-107817901D01*
X119498330Y-108221573D01*
X120025753Y-108440039D01*
X120596631Y-108440039D01*
X121124054Y-108221573D01*
X121527726Y-107817901D01*
X121581192Y-107688823D01*
X121634658Y-107817901D01*
X122038330Y-108221573D01*
X122565753Y-108440039D01*
X123136631Y-108440039D01*
X123664054Y-108221573D01*
X124067726Y-107817901D01*
X124121192Y-107688823D01*
X124174658Y-107817901D01*
X124578330Y-108221573D01*
X125105753Y-108440039D01*
X125676631Y-108440039D01*
X126204054Y-108221573D01*
X126607726Y-107817901D01*
X126661192Y-107688823D01*
X126714658Y-107817901D01*
X127118330Y-108221573D01*
X127645753Y-108440039D01*
X128216631Y-108440039D01*
X128744054Y-108221573D01*
X129046454Y-107919173D01*
X129073035Y-108052804D01*
X129213383Y-108262848D01*
X129423427Y-108403196D01*
X129671192Y-108452479D01*
X131271192Y-108452479D01*
X131518957Y-108403196D01*
X131729001Y-108262848D01*
X131869349Y-108052804D01*
X131918632Y-107805039D01*
X131918632Y-106205039D01*
X131869349Y-105957274D01*
X131762951Y-105798040D01*
X134268036Y-105798040D01*
X135288192Y-106818197D01*
X135288192Y-106948913D01*
X135445761Y-107329319D01*
X135736912Y-107620470D01*
X136117318Y-107778039D01*
X136529066Y-107778039D01*
X136909472Y-107620470D01*
X137200623Y-107329319D01*
X137304215Y-107079225D01*
X137530541Y-107305551D01*
X137447100Y-107725039D01*
X137562353Y-108304457D01*
X137890567Y-108795664D01*
X138188953Y-108995039D01*
X137890567Y-109194414D01*
X137652946Y-109550039D01*
X125300432Y-109550039D01*
X125262623Y-109458759D01*
X124971472Y-109167608D01*
X124591066Y-109010039D01*
X124179318Y-109010039D01*
X123798912Y-109167608D01*
X123507761Y-109458759D01*
X123350192Y-109839165D01*
X123350192Y-110250913D01*
X123507761Y-110631319D01*
X123798912Y-110922470D01*
X124179318Y-111080039D01*
X124591066Y-111080039D01*
X124832488Y-110980039D01*
X137652946Y-110980039D01*
X137890567Y-111335664D01*
X138188953Y-111535039D01*
X137890567Y-111734414D01*
X137652946Y-112090039D01*
X113415903Y-112090039D01*
X113287472Y-111961608D01*
X112907066Y-111804039D01*
X112495318Y-111804039D01*
X112114912Y-111961608D01*
X111823761Y-112252759D01*
X111666192Y-112633165D01*
X111666192Y-113044913D01*
X111823761Y-113425319D01*
X112114912Y-113716470D01*
X112495318Y-113874039D01*
X112907066Y-113874039D01*
X113287472Y-113716470D01*
X113483903Y-113520039D01*
X137652946Y-113520039D01*
X137890567Y-113875664D01*
X138188953Y-114075039D01*
X137890567Y-114274414D01*
X137652946Y-114630039D01*
X117426432Y-114630039D01*
X117388623Y-114538759D01*
X117097472Y-114247608D01*
X116717066Y-114090039D01*
X116305318Y-114090039D01*
X115924912Y-114247608D01*
X115633761Y-114538759D01*
X115476192Y-114919165D01*
X115476192Y-115330913D01*
X115633761Y-115711319D01*
X115924912Y-116002470D01*
X116305318Y-116160039D01*
X116717066Y-116160039D01*
X116958488Y-116060039D01*
X137652946Y-116060039D01*
X137890567Y-116415664D01*
X138188953Y-116615039D01*
X137890567Y-116814414D01*
X137647467Y-117178239D01*
X137517762Y-117204039D01*
X111598516Y-117204039D01*
X111546623Y-117078759D01*
X111255472Y-116787608D01*
X110875066Y-116630039D01*
X110463318Y-116630039D01*
X110082912Y-116787608D01*
X109791761Y-117078759D01*
X109634192Y-117459165D01*
X109634192Y-117870913D01*
X109791761Y-118251319D01*
X110082912Y-118542470D01*
X110463318Y-118700039D01*
X110875066Y-118700039D01*
X111034404Y-118634039D01*
X137654694Y-118634039D01*
X137678878Y-118638850D01*
X137890567Y-118955664D01*
X137937523Y-118987039D01*
X91567192Y-118987039D01*
X91567192Y-74496172D01*
X91618266Y-74547246D01*
X91723574Y-74590866D01*
X91818337Y-74654185D01*
X91930120Y-74676420D01*
X92035426Y-74720039D01*
X92149408Y-74720039D01*
X92261191Y-74742274D01*
X92372974Y-74720039D01*
X92486958Y-74720039D01*
X92569886Y-74685689D01*
X92492046Y-74802184D01*
X92492046Y-74802185D01*
X92423459Y-75146997D01*
X92303383Y-75227230D01*
X92163035Y-75437274D01*
X92113752Y-75685039D01*
X92113752Y-77285039D01*
X92163035Y-77532804D01*
X92303383Y-77742848D01*
X92513427Y-77883196D01*
X92761192Y-77932479D01*
X94361192Y-77932479D01*
X94608957Y-77883196D01*
X94818708Y-77743044D01*
X95344415Y-77932004D01*
X95914646Y-77904817D01*
X96315197Y-77738903D01*
X96389331Y-77492784D01*
X95561192Y-76664644D01*
X95547050Y-76678787D01*
X95367445Y-76499182D01*
X95381587Y-76485039D01*
X95740797Y-76485039D01*
X96568937Y-77313178D01*
X96815056Y-77239044D01*
X97008157Y-76701816D01*
X96980970Y-76131585D01*
X96815056Y-75731034D01*
X96568937Y-75656900D01*
X95740797Y-76485039D01*
X95381587Y-76485039D01*
X95367445Y-76470897D01*
X95547050Y-76291291D01*
X95561192Y-76305434D01*
X96389331Y-75477294D01*
X96315197Y-75231175D01*
X95777969Y-75038074D01*
X95353028Y-75058334D01*
X97070339Y-73341024D01*
X97121192Y-73351139D01*
X97740602Y-73227930D01*
X98136636Y-72963309D01*
X98170365Y-73044738D01*
X98348994Y-73223366D01*
X98582383Y-73320039D01*
X99375442Y-73320039D01*
X99534192Y-73161289D01*
X99534192Y-71812039D01*
X99788192Y-71812039D01*
X99788192Y-73161289D01*
X99946942Y-73320039D01*
X100740001Y-73320039D01*
X100973390Y-73223366D01*
X101152019Y-73044738D01*
X101248692Y-72811349D01*
X101248692Y-71970789D01*
X101089942Y-71812039D01*
X99788192Y-71812039D01*
X99534192Y-71812039D01*
X99514192Y-71812039D01*
X99514192Y-71558039D01*
X99534192Y-71558039D01*
X99534192Y-71538039D01*
X99788192Y-71538039D01*
X99788192Y-71558039D01*
X101089942Y-71558039D01*
X101248692Y-71399289D01*
X101248692Y-70558729D01*
X101191245Y-70420039D01*
X104586958Y-70420039D01*
X104692264Y-70376420D01*
X104804047Y-70354185D01*
X104898812Y-70290865D01*
X105004118Y-70247246D01*
X105084716Y-70166648D01*
X105146192Y-70125571D01*
X105146192Y-70686653D01*
X105146192Y-70686653D01*
G37*
X105146192Y-70686653D02*
X105136669Y-70693016D01*
X104785801Y-71218128D01*
X104693692Y-71681189D01*
X104693692Y-72088888D01*
X104785801Y-72551949D01*
X105136669Y-73077062D01*
X105661781Y-73427930D01*
X106281192Y-73551139D01*
X106900602Y-73427930D01*
X107425715Y-73077062D01*
X107551192Y-72889272D01*
X107676669Y-73077062D01*
X107686192Y-73083425D01*
X107686193Y-75505080D01*
X107503383Y-75627230D01*
X107363035Y-75837274D01*
X107313752Y-76085039D01*
X107313752Y-77685039D01*
X107363035Y-77932804D01*
X107503383Y-78142848D01*
X107713427Y-78283196D01*
X107961192Y-78332479D01*
X109561192Y-78332479D01*
X109808957Y-78283196D01*
X110018708Y-78143044D01*
X110544415Y-78332004D01*
X111114646Y-78304817D01*
X111515197Y-78138903D01*
X111589331Y-77892784D01*
X110761192Y-77064644D01*
X110747050Y-77078787D01*
X110567445Y-76899182D01*
X110581587Y-76885039D01*
X110940797Y-76885039D01*
X111768937Y-77713178D01*
X112015056Y-77639044D01*
X112208157Y-77101816D01*
X112180970Y-76531585D01*
X112015056Y-76131034D01*
X111768937Y-76056900D01*
X110940797Y-76885039D01*
X110581587Y-76885039D01*
X110567445Y-76870897D01*
X110747050Y-76691291D01*
X110761192Y-76705434D01*
X111589331Y-75877294D01*
X111515197Y-75631175D01*
X110977969Y-75438074D01*
X110407738Y-75465261D01*
X110018125Y-75626644D01*
X109956192Y-75585262D01*
X109956192Y-73330565D01*
X110048994Y-73423366D01*
X110282383Y-73520039D01*
X111075442Y-73520039D01*
X111234192Y-73361289D01*
X111234192Y-72012039D01*
X111214192Y-72012039D01*
X111214192Y-71758039D01*
X111234192Y-71758039D01*
X111234192Y-71738039D01*
X111488192Y-71738039D01*
X111488192Y-71758039D01*
X112789942Y-71758039D01*
X112948692Y-71599289D01*
X112948692Y-70760039D01*
X137986911Y-70760039D01*
X138188953Y-70895039D01*
X137890567Y-71094414D01*
X137562353Y-71585621D01*
X137469705Y-72051394D01*
X135951061Y-73570039D01*
X114358429Y-73570039D01*
X114249911Y-73461521D01*
X114186587Y-73366750D01*
X113811153Y-73115893D01*
X113480081Y-73050039D01*
X113368298Y-73027804D01*
X113256515Y-73050039D01*
X112932666Y-73050039D01*
X112948692Y-73011349D01*
X112948692Y-72170789D01*
X112851903Y-72074000D01*
X116714765Y-72074000D01*
X116737000Y-72185783D01*
X116737000Y-72299766D01*
X116780619Y-72405072D01*
X116802854Y-72516855D01*
X116866174Y-72611620D01*
X116909793Y-72716926D01*
X116990390Y-72797523D01*
X117053711Y-72892289D01*
X117148476Y-72955609D01*
X117229074Y-73036207D01*
X117334380Y-73079826D01*
X117429145Y-73143146D01*
X117540928Y-73165381D01*
X117646234Y-73209000D01*
X134165867Y-73209000D01*
X134247074Y-73290207D01*
X134352387Y-73333829D01*
X134447146Y-73397145D01*
X134558924Y-73419379D01*
X134664234Y-73463000D01*
X134778217Y-73463000D01*
X134889999Y-73485235D01*
X135001781Y-73463000D01*
X135115766Y-73463000D01*
X135221076Y-73419379D01*
X135332854Y-73397145D01*
X135427613Y-73333829D01*
X135532926Y-73290207D01*
X135613529Y-73209604D01*
X135708288Y-73146288D01*
X135771604Y-73051529D01*
X135852207Y-72970926D01*
X135895829Y-72865613D01*
X135959145Y-72770854D01*
X135981379Y-72659076D01*
X136025000Y-72553766D01*
X136025000Y-72439781D01*
X136047235Y-72327999D01*
X136025000Y-72216217D01*
X136025000Y-72102234D01*
X135981379Y-71996924D01*
X135959145Y-71885146D01*
X135895829Y-71790387D01*
X135852207Y-71685074D01*
X135532926Y-71365793D01*
X135532923Y-71365792D01*
X135517613Y-71350482D01*
X135454289Y-71255711D01*
X135078855Y-71004854D01*
X134747783Y-70939000D01*
X134636000Y-70916765D01*
X134524217Y-70939000D01*
X117646234Y-70939000D01*
X117540928Y-70982619D01*
X117429145Y-71004854D01*
X117334380Y-71068174D01*
X117229074Y-71111793D01*
X117148476Y-71192391D01*
X117053711Y-71255711D01*
X116990391Y-71350476D01*
X116909793Y-71431074D01*
X116866174Y-71536380D01*
X116802854Y-71631145D01*
X116780619Y-71742928D01*
X116737000Y-71848234D01*
X116737000Y-71962217D01*
X116714765Y-72074000D01*
X112851903Y-72074000D01*
X112789942Y-72012039D01*
X111488192Y-72012039D01*
X111488192Y-73361289D01*
X111646942Y-73520039D01*
X111721059Y-73520039D01*
X111698985Y-73542113D01*
X111655366Y-73647419D01*
X111592046Y-73742184D01*
X111569811Y-73853967D01*
X111526192Y-73959273D01*
X111526192Y-74073256D01*
X111503957Y-74185039D01*
X111526192Y-74296822D01*
X111526192Y-74410805D01*
X111569811Y-74516111D01*
X111592046Y-74627894D01*
X111655366Y-74722659D01*
X111698985Y-74827965D01*
X111779582Y-74908562D01*
X111842903Y-75003328D01*
X111937668Y-75066648D01*
X112018266Y-75147246D01*
X112123572Y-75190865D01*
X112218337Y-75254185D01*
X112330120Y-75276420D01*
X112435426Y-75320039D01*
X112898167Y-75320039D01*
X113006685Y-75428557D01*
X113070009Y-75523328D01*
X113418067Y-75755893D01*
X113445443Y-75774185D01*
X113888297Y-75862274D01*
X114000080Y-75840039D01*
X136309409Y-75840039D01*
X136421192Y-75862274D01*
X136532975Y-75840039D01*
X136864047Y-75774185D01*
X137239481Y-75523328D01*
X137302805Y-75428557D01*
X137543199Y-75188163D01*
X137562353Y-75284457D01*
X137890567Y-75775664D01*
X138188953Y-75975039D01*
X137890567Y-76174414D01*
X137562353Y-76665621D01*
X137447100Y-77245039D01*
X137562353Y-77824457D01*
X137890567Y-78315664D01*
X138188953Y-78515039D01*
X137890567Y-78714414D01*
X137562353Y-79205621D01*
X137447100Y-79785039D01*
X137562353Y-80364457D01*
X137890567Y-80855664D01*
X138188953Y-81055039D01*
X137890567Y-81254414D01*
X137562353Y-81745621D01*
X137447100Y-82325039D01*
X137562353Y-82904457D01*
X137890567Y-83395664D01*
X138188953Y-83595039D01*
X137890567Y-83794414D01*
X137562353Y-84285621D01*
X137481319Y-84693008D01*
X134370951Y-81582641D01*
X134327155Y-81517096D01*
X134067494Y-81343595D01*
X133838518Y-81298049D01*
X133838514Y-81298049D01*
X133761202Y-81282671D01*
X133683890Y-81298049D01*
X127704893Y-81298049D01*
X127706192Y-81294913D01*
X127706192Y-81164196D01*
X128073910Y-80796479D01*
X128391193Y-80796479D01*
X128734628Y-80728166D01*
X129025778Y-80533625D01*
X129220319Y-80242475D01*
X129288632Y-79899040D01*
X129288632Y-79249038D01*
X129220319Y-78905603D01*
X129025778Y-78614453D01*
X128927879Y-78549039D01*
X129025778Y-78483625D01*
X129220319Y-78192475D01*
X129288632Y-77849040D01*
X129288632Y-77199038D01*
X129220319Y-76855603D01*
X129025778Y-76564453D01*
X128734628Y-76369912D01*
X128391193Y-76301599D01*
X127491191Y-76301599D01*
X127147756Y-76369912D01*
X127119131Y-76389039D01*
X126223253Y-76389039D01*
X126194628Y-76369912D01*
X125851193Y-76301599D01*
X124951191Y-76301599D01*
X124607756Y-76369912D01*
X124579131Y-76389039D01*
X124338325Y-76389039D01*
X124266118Y-76316832D01*
X124160808Y-76273211D01*
X124066046Y-76209893D01*
X123954265Y-76187658D01*
X123848958Y-76144039D01*
X123734975Y-76144039D01*
X123623192Y-76121804D01*
X123511409Y-76144039D01*
X123397426Y-76144039D01*
X123292119Y-76187658D01*
X123180338Y-76209893D01*
X123085576Y-76273211D01*
X122980266Y-76316832D01*
X122899664Y-76397434D01*
X122804904Y-76460751D01*
X122741587Y-76555511D01*
X122660985Y-76636113D01*
X122617364Y-76741423D01*
X122554046Y-76836185D01*
X122531811Y-76947966D01*
X122488192Y-77053273D01*
X122488192Y-77167256D01*
X122465957Y-77279039D01*
X122488192Y-77390822D01*
X122488192Y-77504805D01*
X122531811Y-77610112D01*
X122554046Y-77721893D01*
X122617364Y-77816655D01*
X122660985Y-77921965D01*
X122980266Y-78241246D01*
X122980269Y-78241247D01*
X122986579Y-78247557D01*
X123049903Y-78342328D01*
X123425337Y-78593185D01*
X123756409Y-78659039D01*
X123868191Y-78681274D01*
X123979973Y-78659039D01*
X124286814Y-78659039D01*
X124122065Y-78905603D01*
X124053752Y-79249038D01*
X124053752Y-79294321D01*
X123802035Y-79546039D01*
X123671318Y-79546039D01*
X123290912Y-79703608D01*
X122999761Y-79994759D01*
X122842192Y-80375165D01*
X122842192Y-80786913D01*
X122999761Y-81167319D01*
X123130491Y-81298049D01*
X108686359Y-81298049D01*
X108629600Y-81241290D01*
X108629166Y-81241000D01*
X117794688Y-81241000D01*
X117872000Y-81256378D01*
X117949312Y-81241000D01*
X117949316Y-81241000D01*
X118178292Y-81195454D01*
X118437953Y-81021953D01*
X118481749Y-80956408D01*
X119725157Y-79713000D01*
X119855874Y-79713000D01*
X120236280Y-79555431D01*
X120527431Y-79264280D01*
X120685000Y-78883874D01*
X120685000Y-78472126D01*
X120527431Y-78091720D01*
X120236280Y-77800569D01*
X119855874Y-77643000D01*
X119444126Y-77643000D01*
X119063720Y-77800569D01*
X118772569Y-78091720D01*
X118615000Y-78472126D01*
X118615000Y-78602843D01*
X117546843Y-79671000D01*
X99407312Y-79671000D01*
X99330000Y-79655622D01*
X99252688Y-79671000D01*
X99252684Y-79671000D01*
X99023708Y-79716546D01*
X98764047Y-79890047D01*
X98720251Y-79955592D01*
X94003590Y-84672253D01*
X93938048Y-84716047D01*
X93894254Y-84781589D01*
X93894251Y-84781592D01*
X93764546Y-84975709D01*
X93703622Y-85282000D01*
X93719001Y-85359317D01*
X93719000Y-102571905D01*
X93703622Y-102649217D01*
X93719000Y-102726529D01*
X93719000Y-102726532D01*
X93744214Y-102853290D01*
X93764546Y-102955508D01*
X93887094Y-103138913D01*
X93938047Y-103215170D01*
X94003592Y-103258966D01*
X95710075Y-104965450D01*
X95753869Y-105030992D01*
X95819411Y-105074786D01*
X95819413Y-105074788D01*
X95984415Y-105185039D01*
X96013530Y-105204493D01*
X96221376Y-105245836D01*
X96234658Y-105277901D01*
X96638330Y-105681573D01*
X96767408Y-105735039D01*
X96638330Y-105788505D01*
X96234658Y-106192177D01*
X96016192Y-106719600D01*
X96016192Y-107290478D01*
X96234658Y-107817901D01*
X96638330Y-108221573D01*
X97165753Y-108440039D01*
X97736631Y-108440039D01*
X98264054Y-108221573D01*
X98667726Y-107817901D01*
X98721192Y-107688823D01*
X98774658Y-107817901D01*
X99178330Y-108221573D01*
X99705753Y-108440039D01*
X100276631Y-108440039D01*
X100804054Y-108221573D01*
X101207726Y-107817901D01*
X101261192Y-107688823D01*
X101314658Y-107817901D01*
X101718330Y-108221573D01*
X102245753Y-108440039D01*
X102816631Y-108440039D01*
X103344054Y-108221573D01*
X103747726Y-107817901D01*
X103801192Y-107688823D01*
X103854658Y-107817901D01*
X104258330Y-108221573D01*
X104785753Y-108440039D01*
X105356631Y-108440039D01*
X105884054Y-108221573D01*
X106287726Y-107817901D01*
X106341192Y-107688823D01*
X106394658Y-107817901D01*
X106798330Y-108221573D01*
X107325753Y-108440039D01*
X107896631Y-108440039D01*
X108424054Y-108221573D01*
X108827726Y-107817901D01*
X108881192Y-107688823D01*
X108934658Y-107817901D01*
X109338330Y-108221573D01*
X109865753Y-108440039D01*
X110436631Y-108440039D01*
X110964054Y-108221573D01*
X111367726Y-107817901D01*
X111421192Y-107688823D01*
X111474658Y-107817901D01*
X111878330Y-108221573D01*
X112405753Y-108440039D01*
X112976631Y-108440039D01*
X113504054Y-108221573D01*
X113907726Y-107817901D01*
X113961192Y-107688823D01*
X114014658Y-107817901D01*
X114418330Y-108221573D01*
X114945753Y-108440039D01*
X115516631Y-108440039D01*
X116044054Y-108221573D01*
X116447726Y-107817901D01*
X116501192Y-107688823D01*
X116554658Y-107817901D01*
X116958330Y-108221573D01*
X117485753Y-108440039D01*
X118056631Y-108440039D01*
X118584054Y-108221573D01*
X118987726Y-107817901D01*
X119041192Y-107688823D01*
X119094658Y-107817901D01*
X119498330Y-108221573D01*
X120025753Y-108440039D01*
X120596631Y-108440039D01*
X121124054Y-108221573D01*
X121527726Y-107817901D01*
X121581192Y-107688823D01*
X121634658Y-107817901D01*
X122038330Y-108221573D01*
X122565753Y-108440039D01*
X123136631Y-108440039D01*
X123664054Y-108221573D01*
X124067726Y-107817901D01*
X124121192Y-107688823D01*
X124174658Y-107817901D01*
X124578330Y-108221573D01*
X125105753Y-108440039D01*
X125676631Y-108440039D01*
X126204054Y-108221573D01*
X126607726Y-107817901D01*
X126661192Y-107688823D01*
X126714658Y-107817901D01*
X127118330Y-108221573D01*
X127645753Y-108440039D01*
X128216631Y-108440039D01*
X128744054Y-108221573D01*
X129046454Y-107919173D01*
X129073035Y-108052804D01*
X129213383Y-108262848D01*
X129423427Y-108403196D01*
X129671192Y-108452479D01*
X131271192Y-108452479D01*
X131518957Y-108403196D01*
X131729001Y-108262848D01*
X131869349Y-108052804D01*
X131918632Y-107805039D01*
X131918632Y-106205039D01*
X131869349Y-105957274D01*
X131762951Y-105798040D01*
X134268036Y-105798040D01*
X135288192Y-106818197D01*
X135288192Y-106948913D01*
X135445761Y-107329319D01*
X135736912Y-107620470D01*
X136117318Y-107778039D01*
X136529066Y-107778039D01*
X136909472Y-107620470D01*
X137200623Y-107329319D01*
X137304215Y-107079225D01*
X137530541Y-107305551D01*
X137447100Y-107725039D01*
X137562353Y-108304457D01*
X137890567Y-108795664D01*
X138188953Y-108995039D01*
X137890567Y-109194414D01*
X137652946Y-109550039D01*
X125300432Y-109550039D01*
X125262623Y-109458759D01*
X124971472Y-109167608D01*
X124591066Y-109010039D01*
X124179318Y-109010039D01*
X123798912Y-109167608D01*
X123507761Y-109458759D01*
X123350192Y-109839165D01*
X123350192Y-110250913D01*
X123507761Y-110631319D01*
X123798912Y-110922470D01*
X124179318Y-111080039D01*
X124591066Y-111080039D01*
X124832488Y-110980039D01*
X137652946Y-110980039D01*
X137890567Y-111335664D01*
X138188953Y-111535039D01*
X137890567Y-111734414D01*
X137652946Y-112090039D01*
X113415903Y-112090039D01*
X113287472Y-111961608D01*
X112907066Y-111804039D01*
X112495318Y-111804039D01*
X112114912Y-111961608D01*
X111823761Y-112252759D01*
X111666192Y-112633165D01*
X111666192Y-113044913D01*
X111823761Y-113425319D01*
X112114912Y-113716470D01*
X112495318Y-113874039D01*
X112907066Y-113874039D01*
X113287472Y-113716470D01*
X113483903Y-113520039D01*
X137652946Y-113520039D01*
X137890567Y-113875664D01*
X138188953Y-114075039D01*
X137890567Y-114274414D01*
X137652946Y-114630039D01*
X117426432Y-114630039D01*
X117388623Y-114538759D01*
X117097472Y-114247608D01*
X116717066Y-114090039D01*
X116305318Y-114090039D01*
X115924912Y-114247608D01*
X115633761Y-114538759D01*
X115476192Y-114919165D01*
X115476192Y-115330913D01*
X115633761Y-115711319D01*
X115924912Y-116002470D01*
X116305318Y-116160039D01*
X116717066Y-116160039D01*
X116958488Y-116060039D01*
X137652946Y-116060039D01*
X137890567Y-116415664D01*
X138188953Y-116615039D01*
X137890567Y-116814414D01*
X137647467Y-117178239D01*
X137517762Y-117204039D01*
X111598516Y-117204039D01*
X111546623Y-117078759D01*
X111255472Y-116787608D01*
X110875066Y-116630039D01*
X110463318Y-116630039D01*
X110082912Y-116787608D01*
X109791761Y-117078759D01*
X109634192Y-117459165D01*
X109634192Y-117870913D01*
X109791761Y-118251319D01*
X110082912Y-118542470D01*
X110463318Y-118700039D01*
X110875066Y-118700039D01*
X111034404Y-118634039D01*
X137654694Y-118634039D01*
X137678878Y-118638850D01*
X137890567Y-118955664D01*
X137937523Y-118987039D01*
X91567192Y-118987039D01*
X91567192Y-74496172D01*
X91618266Y-74547246D01*
X91723574Y-74590866D01*
X91818337Y-74654185D01*
X91930120Y-74676420D01*
X92035426Y-74720039D01*
X92149408Y-74720039D01*
X92261191Y-74742274D01*
X92372974Y-74720039D01*
X92486958Y-74720039D01*
X92569886Y-74685689D01*
X92492046Y-74802184D01*
X92492046Y-74802185D01*
X92423459Y-75146997D01*
X92303383Y-75227230D01*
X92163035Y-75437274D01*
X92113752Y-75685039D01*
X92113752Y-77285039D01*
X92163035Y-77532804D01*
X92303383Y-77742848D01*
X92513427Y-77883196D01*
X92761192Y-77932479D01*
X94361192Y-77932479D01*
X94608957Y-77883196D01*
X94818708Y-77743044D01*
X95344415Y-77932004D01*
X95914646Y-77904817D01*
X96315197Y-77738903D01*
X96389331Y-77492784D01*
X95561192Y-76664644D01*
X95547050Y-76678787D01*
X95367445Y-76499182D01*
X95381587Y-76485039D01*
X95740797Y-76485039D01*
X96568937Y-77313178D01*
X96815056Y-77239044D01*
X97008157Y-76701816D01*
X96980970Y-76131585D01*
X96815056Y-75731034D01*
X96568937Y-75656900D01*
X95740797Y-76485039D01*
X95381587Y-76485039D01*
X95367445Y-76470897D01*
X95547050Y-76291291D01*
X95561192Y-76305434D01*
X96389331Y-75477294D01*
X96315197Y-75231175D01*
X95777969Y-75038074D01*
X95353028Y-75058334D01*
X97070339Y-73341024D01*
X97121192Y-73351139D01*
X97740602Y-73227930D01*
X98136636Y-72963309D01*
X98170365Y-73044738D01*
X98348994Y-73223366D01*
X98582383Y-73320039D01*
X99375442Y-73320039D01*
X99534192Y-73161289D01*
X99534192Y-71812039D01*
X99788192Y-71812039D01*
X99788192Y-73161289D01*
X99946942Y-73320039D01*
X100740001Y-73320039D01*
X100973390Y-73223366D01*
X101152019Y-73044738D01*
X101248692Y-72811349D01*
X101248692Y-71970789D01*
X101089942Y-71812039D01*
X99788192Y-71812039D01*
X99534192Y-71812039D01*
X99514192Y-71812039D01*
X99514192Y-71558039D01*
X99534192Y-71558039D01*
X99534192Y-71538039D01*
X99788192Y-71538039D01*
X99788192Y-71558039D01*
X101089942Y-71558039D01*
X101248692Y-71399289D01*
X101248692Y-70558729D01*
X101191245Y-70420039D01*
X104586958Y-70420039D01*
X104692264Y-70376420D01*
X104804047Y-70354185D01*
X104898812Y-70290865D01*
X105004118Y-70247246D01*
X105084716Y-70166648D01*
X105146192Y-70125571D01*
X105146192Y-70686653D01*
G36*
X106272912Y-85522470D02*
X106653318Y-85680039D01*
X106784035Y-85680039D01*
X107265445Y-86161450D01*
X107309239Y-86226992D01*
X107374781Y-86270786D01*
X107374783Y-86270788D01*
X107501899Y-86355724D01*
X107568900Y-86400493D01*
X107797876Y-86446039D01*
X107797880Y-86446039D01*
X107875192Y-86461417D01*
X107952504Y-86446039D01*
X131812035Y-86446039D01*
X137514117Y-92148122D01*
X137447100Y-92485039D01*
X137562353Y-93064457D01*
X137890567Y-93555664D01*
X138188953Y-93755039D01*
X137890567Y-93954414D01*
X137562353Y-94445621D01*
X137447100Y-95025039D01*
X137514117Y-95361957D01*
X136872035Y-96004039D01*
X135484457Y-96004039D01*
X135580192Y-95772913D01*
X135580192Y-95361165D01*
X135422623Y-94980759D01*
X135131472Y-94689608D01*
X134751066Y-94532039D01*
X134339318Y-94532039D01*
X133958912Y-94689608D01*
X133866481Y-94782039D01*
X129286845Y-94782039D01*
X129366192Y-94590478D01*
X129366192Y-94019600D01*
X129147726Y-93492177D01*
X128744054Y-93088505D01*
X128630609Y-93041514D01*
X128685197Y-93018903D01*
X128759331Y-92772784D01*
X127931192Y-91944644D01*
X127103053Y-92772784D01*
X127177187Y-93018903D01*
X127235640Y-93039913D01*
X127118330Y-93088505D01*
X126714658Y-93492177D01*
X126496192Y-94019600D01*
X126496192Y-94590478D01*
X126575539Y-94782039D01*
X124206845Y-94782039D01*
X124286192Y-94590478D01*
X124286192Y-94019600D01*
X124067726Y-93492177D01*
X123664054Y-93088505D01*
X123534976Y-93035039D01*
X123664054Y-92981573D01*
X124067726Y-92577901D01*
X124121192Y-92448823D01*
X124174658Y-92577901D01*
X124578330Y-92981573D01*
X125105753Y-93200039D01*
X125676631Y-93200039D01*
X126204054Y-92981573D01*
X126607726Y-92577901D01*
X126654717Y-92464456D01*
X126677328Y-92519044D01*
X126923447Y-92593178D01*
X127751587Y-91765039D01*
X128110797Y-91765039D01*
X128938937Y-92593178D01*
X129185056Y-92519044D01*
X129206066Y-92460591D01*
X129254658Y-92577901D01*
X129658330Y-92981573D01*
X130185753Y-93200039D01*
X130756631Y-93200039D01*
X131284054Y-92981573D01*
X131687726Y-92577901D01*
X131906192Y-92050478D01*
X131906192Y-91479600D01*
X131687726Y-90952177D01*
X131284054Y-90548505D01*
X130756631Y-90330039D01*
X130185753Y-90330039D01*
X129658330Y-90548505D01*
X129254658Y-90952177D01*
X129207667Y-91065622D01*
X129185056Y-91011034D01*
X128938937Y-90936900D01*
X128110797Y-91765039D01*
X127751587Y-91765039D01*
X126923447Y-90936900D01*
X126677328Y-91011034D01*
X126656318Y-91069487D01*
X126607726Y-90952177D01*
X126412843Y-90757294D01*
X127103053Y-90757294D01*
X127931192Y-91585434D01*
X128759331Y-90757294D01*
X128685197Y-90511175D01*
X128147969Y-90318074D01*
X127577738Y-90345261D01*
X127177187Y-90511175D01*
X127103053Y-90757294D01*
X126412843Y-90757294D01*
X126204054Y-90548505D01*
X125676631Y-90330039D01*
X125105753Y-90330039D01*
X124578330Y-90548505D01*
X124174658Y-90952177D01*
X124121192Y-91081255D01*
X124067726Y-90952177D01*
X123664054Y-90548505D01*
X123136631Y-90330039D01*
X122565753Y-90330039D01*
X122038330Y-90548505D01*
X121634658Y-90952177D01*
X121581192Y-91081255D01*
X121527726Y-90952177D01*
X121124054Y-90548505D01*
X120596631Y-90330039D01*
X120025753Y-90330039D01*
X119498330Y-90548505D01*
X119094658Y-90952177D01*
X119041192Y-91081255D01*
X118987726Y-90952177D01*
X118584054Y-90548505D01*
X118056631Y-90330039D01*
X117485753Y-90330039D01*
X116958330Y-90548505D01*
X116554658Y-90952177D01*
X116501192Y-91081255D01*
X116447726Y-90952177D01*
X116044054Y-90548505D01*
X115516631Y-90330039D01*
X114945753Y-90330039D01*
X114418330Y-90548505D01*
X114014658Y-90952177D01*
X113961192Y-91081255D01*
X113907726Y-90952177D01*
X113504054Y-90548505D01*
X112976631Y-90330039D01*
X112405753Y-90330039D01*
X111878330Y-90548505D01*
X111474658Y-90952177D01*
X111421192Y-91081255D01*
X111367726Y-90952177D01*
X110964054Y-90548505D01*
X110436631Y-90330039D01*
X109865753Y-90330039D01*
X109338330Y-90548505D01*
X108934658Y-90952177D01*
X108881192Y-91081255D01*
X108827726Y-90952177D01*
X108424054Y-90548505D01*
X107896631Y-90330039D01*
X107325753Y-90330039D01*
X106798330Y-90548505D01*
X106394658Y-90952177D01*
X106341192Y-91081255D01*
X106287726Y-90952177D01*
X105884054Y-90548505D01*
X105778878Y-90504940D01*
X105778878Y-87399752D01*
X105787314Y-87398074D01*
X106078464Y-87203533D01*
X106273005Y-86912383D01*
X106341318Y-86568948D01*
X106341318Y-85918946D01*
X106273005Y-85575511D01*
X106166384Y-85415942D01*
X106272912Y-85522470D01*
X106272912Y-85522470D01*
G37*
X106272912Y-85522470D02*
X106653318Y-85680039D01*
X106784035Y-85680039D01*
X107265445Y-86161450D01*
X107309239Y-86226992D01*
X107374781Y-86270786D01*
X107374783Y-86270788D01*
X107501899Y-86355724D01*
X107568900Y-86400493D01*
X107797876Y-86446039D01*
X107797880Y-86446039D01*
X107875192Y-86461417D01*
X107952504Y-86446039D01*
X131812035Y-86446039D01*
X137514117Y-92148122D01*
X137447100Y-92485039D01*
X137562353Y-93064457D01*
X137890567Y-93555664D01*
X138188953Y-93755039D01*
X137890567Y-93954414D01*
X137562353Y-94445621D01*
X137447100Y-95025039D01*
X137514117Y-95361957D01*
X136872035Y-96004039D01*
X135484457Y-96004039D01*
X135580192Y-95772913D01*
X135580192Y-95361165D01*
X135422623Y-94980759D01*
X135131472Y-94689608D01*
X134751066Y-94532039D01*
X134339318Y-94532039D01*
X133958912Y-94689608D01*
X133866481Y-94782039D01*
X129286845Y-94782039D01*
X129366192Y-94590478D01*
X129366192Y-94019600D01*
X129147726Y-93492177D01*
X128744054Y-93088505D01*
X128630609Y-93041514D01*
X128685197Y-93018903D01*
X128759331Y-92772784D01*
X127931192Y-91944644D01*
X127103053Y-92772784D01*
X127177187Y-93018903D01*
X127235640Y-93039913D01*
X127118330Y-93088505D01*
X126714658Y-93492177D01*
X126496192Y-94019600D01*
X126496192Y-94590478D01*
X126575539Y-94782039D01*
X124206845Y-94782039D01*
X124286192Y-94590478D01*
X124286192Y-94019600D01*
X124067726Y-93492177D01*
X123664054Y-93088505D01*
X123534976Y-93035039D01*
X123664054Y-92981573D01*
X124067726Y-92577901D01*
X124121192Y-92448823D01*
X124174658Y-92577901D01*
X124578330Y-92981573D01*
X125105753Y-93200039D01*
X125676631Y-93200039D01*
X126204054Y-92981573D01*
X126607726Y-92577901D01*
X126654717Y-92464456D01*
X126677328Y-92519044D01*
X126923447Y-92593178D01*
X127751587Y-91765039D01*
X128110797Y-91765039D01*
X128938937Y-92593178D01*
X129185056Y-92519044D01*
X129206066Y-92460591D01*
X129254658Y-92577901D01*
X129658330Y-92981573D01*
X130185753Y-93200039D01*
X130756631Y-93200039D01*
X131284054Y-92981573D01*
X131687726Y-92577901D01*
X131906192Y-92050478D01*
X131906192Y-91479600D01*
X131687726Y-90952177D01*
X131284054Y-90548505D01*
X130756631Y-90330039D01*
X130185753Y-90330039D01*
X129658330Y-90548505D01*
X129254658Y-90952177D01*
X129207667Y-91065622D01*
X129185056Y-91011034D01*
X128938937Y-90936900D01*
X128110797Y-91765039D01*
X127751587Y-91765039D01*
X126923447Y-90936900D01*
X126677328Y-91011034D01*
X126656318Y-91069487D01*
X126607726Y-90952177D01*
X126412843Y-90757294D01*
X127103053Y-90757294D01*
X127931192Y-91585434D01*
X128759331Y-90757294D01*
X128685197Y-90511175D01*
X128147969Y-90318074D01*
X127577738Y-90345261D01*
X127177187Y-90511175D01*
X127103053Y-90757294D01*
X126412843Y-90757294D01*
X126204054Y-90548505D01*
X125676631Y-90330039D01*
X125105753Y-90330039D01*
X124578330Y-90548505D01*
X124174658Y-90952177D01*
X124121192Y-91081255D01*
X124067726Y-90952177D01*
X123664054Y-90548505D01*
X123136631Y-90330039D01*
X122565753Y-90330039D01*
X122038330Y-90548505D01*
X121634658Y-90952177D01*
X121581192Y-91081255D01*
X121527726Y-90952177D01*
X121124054Y-90548505D01*
X120596631Y-90330039D01*
X120025753Y-90330039D01*
X119498330Y-90548505D01*
X119094658Y-90952177D01*
X119041192Y-91081255D01*
X118987726Y-90952177D01*
X118584054Y-90548505D01*
X118056631Y-90330039D01*
X117485753Y-90330039D01*
X116958330Y-90548505D01*
X116554658Y-90952177D01*
X116501192Y-91081255D01*
X116447726Y-90952177D01*
X116044054Y-90548505D01*
X115516631Y-90330039D01*
X114945753Y-90330039D01*
X114418330Y-90548505D01*
X114014658Y-90952177D01*
X113961192Y-91081255D01*
X113907726Y-90952177D01*
X113504054Y-90548505D01*
X112976631Y-90330039D01*
X112405753Y-90330039D01*
X111878330Y-90548505D01*
X111474658Y-90952177D01*
X111421192Y-91081255D01*
X111367726Y-90952177D01*
X110964054Y-90548505D01*
X110436631Y-90330039D01*
X109865753Y-90330039D01*
X109338330Y-90548505D01*
X108934658Y-90952177D01*
X108881192Y-91081255D01*
X108827726Y-90952177D01*
X108424054Y-90548505D01*
X107896631Y-90330039D01*
X107325753Y-90330039D01*
X106798330Y-90548505D01*
X106394658Y-90952177D01*
X106341192Y-91081255D01*
X106287726Y-90952177D01*
X105884054Y-90548505D01*
X105778878Y-90504940D01*
X105778878Y-87399752D01*
X105787314Y-87398074D01*
X106078464Y-87203533D01*
X106273005Y-86912383D01*
X106341318Y-86568948D01*
X106341318Y-85918946D01*
X106273005Y-85575511D01*
X106166384Y-85415942D01*
X106272912Y-85522470D01*
G36*
X101814591Y-58943570D02*
X101877913Y-59038338D01*
X102157331Y-59225039D01*
X102253347Y-59289195D01*
X102696202Y-59377284D01*
X102807985Y-59355049D01*
X103744149Y-59355049D01*
X105897659Y-61508560D01*
X105960981Y-61603328D01*
X106279107Y-61815893D01*
X106336415Y-61854185D01*
X106779270Y-61942274D01*
X106891053Y-61920039D01*
X107791061Y-61920039D01*
X109534001Y-63662980D01*
X109388192Y-63808789D01*
X109388192Y-64733039D01*
X110437442Y-64733039D01*
X110520751Y-64649730D01*
X110979581Y-65108560D01*
X111023969Y-65174991D01*
X110818337Y-65215893D01*
X110596192Y-65364326D01*
X110596192Y-65145789D01*
X110437442Y-64987039D01*
X109388192Y-64987039D01*
X109388192Y-65007039D01*
X109134192Y-65007039D01*
X109134192Y-64987039D01*
X108084942Y-64987039D01*
X107926192Y-65145789D01*
X107926192Y-65561348D01*
X108022865Y-65794737D01*
X108177789Y-65949662D01*
X108176606Y-65950453D01*
X107982065Y-66241603D01*
X107913752Y-66585038D01*
X107913752Y-67235040D01*
X107982065Y-67578475D01*
X108126192Y-67794176D01*
X108126193Y-70392655D01*
X107676669Y-70693016D01*
X107551192Y-70880806D01*
X107425715Y-70693016D01*
X107416192Y-70686653D01*
X107416192Y-67391822D01*
X107438427Y-67280039D01*
X107350338Y-66837185D01*
X107350338Y-66837184D01*
X107308632Y-66774767D01*
X107308632Y-66635038D01*
X107241220Y-66296133D01*
X107243427Y-66285038D01*
X107155338Y-65842184D01*
X107095616Y-65752804D01*
X106904481Y-65466750D01*
X106809713Y-65403429D01*
X105565014Y-64158730D01*
X107926192Y-64158730D01*
X107926192Y-64574289D01*
X108084942Y-64733039D01*
X109134192Y-64733039D01*
X109134192Y-63808789D01*
X108975442Y-63650039D01*
X108434882Y-63650039D01*
X108201493Y-63746712D01*
X108022865Y-63925341D01*
X107926192Y-64158730D01*
X105565014Y-64158730D01*
X103567805Y-62161521D01*
X103504481Y-62066750D01*
X103129047Y-61815893D01*
X102797975Y-61750039D01*
X102686192Y-61727804D01*
X102574409Y-61750039D01*
X100781300Y-61750039D01*
X100791887Y-61696816D01*
X100791887Y-60796814D01*
X100723574Y-60453379D01*
X100704447Y-60424754D01*
X100704447Y-59968876D01*
X100723574Y-59940251D01*
X100791887Y-59596816D01*
X100791887Y-59529507D01*
X101384715Y-58936679D01*
X101479481Y-58873359D01*
X101585585Y-58714564D01*
X101814591Y-58943570D01*
X101814591Y-58943570D01*
G37*
X101814591Y-58943570D02*
X101877913Y-59038338D01*
X102157331Y-59225039D01*
X102253347Y-59289195D01*
X102696202Y-59377284D01*
X102807985Y-59355049D01*
X103744149Y-59355049D01*
X105897659Y-61508560D01*
X105960981Y-61603328D01*
X106279107Y-61815893D01*
X106336415Y-61854185D01*
X106779270Y-61942274D01*
X106891053Y-61920039D01*
X107791061Y-61920039D01*
X109534001Y-63662980D01*
X109388192Y-63808789D01*
X109388192Y-64733039D01*
X110437442Y-64733039D01*
X110520751Y-64649730D01*
X110979581Y-65108560D01*
X111023969Y-65174991D01*
X110818337Y-65215893D01*
X110596192Y-65364326D01*
X110596192Y-65145789D01*
X110437442Y-64987039D01*
X109388192Y-64987039D01*
X109388192Y-65007039D01*
X109134192Y-65007039D01*
X109134192Y-64987039D01*
X108084942Y-64987039D01*
X107926192Y-65145789D01*
X107926192Y-65561348D01*
X108022865Y-65794737D01*
X108177789Y-65949662D01*
X108176606Y-65950453D01*
X107982065Y-66241603D01*
X107913752Y-66585038D01*
X107913752Y-67235040D01*
X107982065Y-67578475D01*
X108126192Y-67794176D01*
X108126193Y-70392655D01*
X107676669Y-70693016D01*
X107551192Y-70880806D01*
X107425715Y-70693016D01*
X107416192Y-70686653D01*
X107416192Y-67391822D01*
X107438427Y-67280039D01*
X107350338Y-66837185D01*
X107350338Y-66837184D01*
X107308632Y-66774767D01*
X107308632Y-66635038D01*
X107241220Y-66296133D01*
X107243427Y-66285038D01*
X107155338Y-65842184D01*
X107095616Y-65752804D01*
X106904481Y-65466750D01*
X106809713Y-65403429D01*
X105565014Y-64158730D01*
X107926192Y-64158730D01*
X107926192Y-64574289D01*
X108084942Y-64733039D01*
X109134192Y-64733039D01*
X109134192Y-63808789D01*
X108975442Y-63650039D01*
X108434882Y-63650039D01*
X108201493Y-63746712D01*
X108022865Y-63925341D01*
X107926192Y-64158730D01*
X105565014Y-64158730D01*
X103567805Y-62161521D01*
X103504481Y-62066750D01*
X103129047Y-61815893D01*
X102797975Y-61750039D01*
X102686192Y-61727804D01*
X102574409Y-61750039D01*
X100781300Y-61750039D01*
X100791887Y-61696816D01*
X100791887Y-60796814D01*
X100723574Y-60453379D01*
X100704447Y-60424754D01*
X100704447Y-59968876D01*
X100723574Y-59940251D01*
X100791887Y-59596816D01*
X100791887Y-59529507D01*
X101384715Y-58936679D01*
X101479481Y-58873359D01*
X101585585Y-58714564D01*
X101814591Y-58943570D01*
G36*
X96297007Y-61696816D02*
X96364419Y-62035720D01*
X96362212Y-62046815D01*
X96384447Y-62158597D01*
X96384447Y-62158598D01*
X96450301Y-62489670D01*
X96701159Y-62865104D01*
X96795926Y-62928426D01*
X97476060Y-63608560D01*
X97539382Y-63703328D01*
X97871648Y-63925341D01*
X97914816Y-63954185D01*
X98357671Y-64042274D01*
X98469454Y-64020039D01*
X102216061Y-64020039D01*
X103946060Y-65750039D01*
X103909190Y-65750039D01*
X103909190Y-65908787D01*
X103750442Y-65750039D01*
X103334883Y-65750039D01*
X103101494Y-65846712D01*
X102922865Y-66025340D01*
X102826192Y-66258729D01*
X102826192Y-66799289D01*
X102984942Y-66958039D01*
X103909192Y-66958039D01*
X103909192Y-66938039D01*
X104163192Y-66938039D01*
X104163192Y-66958039D01*
X104183192Y-66958039D01*
X104183192Y-67212039D01*
X104163192Y-67212039D01*
X104163192Y-67232039D01*
X103909192Y-67232039D01*
X103909192Y-67212039D01*
X102984942Y-67212039D01*
X102826192Y-67370789D01*
X102826192Y-67911349D01*
X102922865Y-68144738D01*
X102928166Y-68150039D01*
X101090715Y-68150039D01*
X101143427Y-67885039D01*
X101141220Y-67873944D01*
X101208632Y-67535040D01*
X101208632Y-66635038D01*
X101140319Y-66291603D01*
X100945778Y-66000453D01*
X100654628Y-65805912D01*
X100311193Y-65737599D01*
X99661191Y-65737599D01*
X99317756Y-65805912D01*
X99026606Y-66000453D01*
X99025815Y-66001636D01*
X98870890Y-65846712D01*
X98637501Y-65750039D01*
X98221942Y-65750039D01*
X98063192Y-65908789D01*
X98063192Y-66958039D01*
X98083192Y-66958039D01*
X98083192Y-67212039D01*
X98063192Y-67212039D01*
X98063192Y-67232039D01*
X97809192Y-67232039D01*
X97809192Y-67212039D01*
X96113192Y-67212039D01*
X96113192Y-68261289D01*
X96271942Y-68420039D01*
X96687501Y-68420039D01*
X96920890Y-68323366D01*
X96961192Y-68283064D01*
X97001494Y-68323366D01*
X97234883Y-68420039D01*
X97650442Y-68420039D01*
X97809190Y-68261291D01*
X97809190Y-68420039D01*
X97846060Y-68420039D01*
X96397672Y-69868428D01*
X96302904Y-69931750D01*
X96052046Y-70307184D01*
X96021315Y-70461682D01*
X96020970Y-70463415D01*
X95976669Y-70493016D01*
X95851192Y-70680806D01*
X95725715Y-70493016D01*
X95716192Y-70486653D01*
X95716192Y-68404289D01*
X95859192Y-68261289D01*
X95859192Y-67212039D01*
X95839192Y-67212039D01*
X95839192Y-66958039D01*
X95859192Y-66958039D01*
X95859192Y-65908789D01*
X96113192Y-65908789D01*
X96113192Y-66958039D01*
X97809192Y-66958039D01*
X97809192Y-65908789D01*
X97650442Y-65750039D01*
X97234883Y-65750039D01*
X97001494Y-65846712D01*
X96961192Y-65887014D01*
X96920890Y-65846712D01*
X96687501Y-65750039D01*
X96271942Y-65750039D01*
X96113192Y-65908789D01*
X95859192Y-65908789D01*
X95700442Y-65750039D01*
X95284883Y-65750039D01*
X95071192Y-65838553D01*
X95071192Y-62525201D01*
X96297007Y-61299387D01*
X96297007Y-61696816D01*
X96297007Y-61696816D01*
G37*
X96297007Y-61696816D02*
X96364419Y-62035720D01*
X96362212Y-62046815D01*
X96384447Y-62158597D01*
X96384447Y-62158598D01*
X96450301Y-62489670D01*
X96701159Y-62865104D01*
X96795926Y-62928426D01*
X97476060Y-63608560D01*
X97539382Y-63703328D01*
X97871648Y-63925341D01*
X97914816Y-63954185D01*
X98357671Y-64042274D01*
X98469454Y-64020039D01*
X102216061Y-64020039D01*
X103946060Y-65750039D01*
X103909190Y-65750039D01*
X103909190Y-65908787D01*
X103750442Y-65750039D01*
X103334883Y-65750039D01*
X103101494Y-65846712D01*
X102922865Y-66025340D01*
X102826192Y-66258729D01*
X102826192Y-66799289D01*
X102984942Y-66958039D01*
X103909192Y-66958039D01*
X103909192Y-66938039D01*
X104163192Y-66938039D01*
X104163192Y-66958039D01*
X104183192Y-66958039D01*
X104183192Y-67212039D01*
X104163192Y-67212039D01*
X104163192Y-67232039D01*
X103909192Y-67232039D01*
X103909192Y-67212039D01*
X102984942Y-67212039D01*
X102826192Y-67370789D01*
X102826192Y-67911349D01*
X102922865Y-68144738D01*
X102928166Y-68150039D01*
X101090715Y-68150039D01*
X101143427Y-67885039D01*
X101141220Y-67873944D01*
X101208632Y-67535040D01*
X101208632Y-66635038D01*
X101140319Y-66291603D01*
X100945778Y-66000453D01*
X100654628Y-65805912D01*
X100311193Y-65737599D01*
X99661191Y-65737599D01*
X99317756Y-65805912D01*
X99026606Y-66000453D01*
X99025815Y-66001636D01*
X98870890Y-65846712D01*
X98637501Y-65750039D01*
X98221942Y-65750039D01*
X98063192Y-65908789D01*
X98063192Y-66958039D01*
X98083192Y-66958039D01*
X98083192Y-67212039D01*
X98063192Y-67212039D01*
X98063192Y-67232039D01*
X97809192Y-67232039D01*
X97809192Y-67212039D01*
X96113192Y-67212039D01*
X96113192Y-68261289D01*
X96271942Y-68420039D01*
X96687501Y-68420039D01*
X96920890Y-68323366D01*
X96961192Y-68283064D01*
X97001494Y-68323366D01*
X97234883Y-68420039D01*
X97650442Y-68420039D01*
X97809190Y-68261291D01*
X97809190Y-68420039D01*
X97846060Y-68420039D01*
X96397672Y-69868428D01*
X96302904Y-69931750D01*
X96052046Y-70307184D01*
X96021315Y-70461682D01*
X96020970Y-70463415D01*
X95976669Y-70493016D01*
X95851192Y-70680806D01*
X95725715Y-70493016D01*
X95716192Y-70486653D01*
X95716192Y-68404289D01*
X95859192Y-68261289D01*
X95859192Y-67212039D01*
X95839192Y-67212039D01*
X95839192Y-66958039D01*
X95859192Y-66958039D01*
X95859192Y-65908789D01*
X96113192Y-65908789D01*
X96113192Y-66958039D01*
X97809192Y-66958039D01*
X97809192Y-65908789D01*
X97650442Y-65750039D01*
X97234883Y-65750039D01*
X97001494Y-65846712D01*
X96961192Y-65887014D01*
X96920890Y-65846712D01*
X96687501Y-65750039D01*
X96271942Y-65750039D01*
X96113192Y-65908789D01*
X95859192Y-65908789D01*
X95700442Y-65750039D01*
X95284883Y-65750039D01*
X95071192Y-65838553D01*
X95071192Y-62525201D01*
X96297007Y-61299387D01*
X96297007Y-61696816D01*
G36*
X99526193Y-51870172D02*
X99526192Y-53545171D01*
X99403676Y-53627034D01*
X98877969Y-53438074D01*
X98307738Y-53465261D01*
X97907187Y-53631175D01*
X97833053Y-53877294D01*
X98661192Y-54705434D01*
X98675334Y-54691291D01*
X98854940Y-54870897D01*
X98840797Y-54885039D01*
X98854940Y-54899182D01*
X98675334Y-55078787D01*
X98661192Y-55064644D01*
X97833053Y-55892784D01*
X97907187Y-56138903D01*
X98444415Y-56332004D01*
X99014646Y-56304817D01*
X99404259Y-56143434D01*
X99509695Y-56213884D01*
X99526192Y-56296822D01*
X99526193Y-57584937D01*
X99311755Y-57799375D01*
X99244446Y-57799375D01*
X98901011Y-57867688D01*
X98609861Y-58062229D01*
X98544447Y-58160128D01*
X98479033Y-58062229D01*
X98187883Y-57867688D01*
X97844448Y-57799375D01*
X97194446Y-57799375D01*
X96851011Y-57867688D01*
X96594045Y-58039388D01*
X96587353Y-58040719D01*
X96401592Y-58077669D01*
X96026158Y-58328526D01*
X95962836Y-58423294D01*
X93212674Y-61173457D01*
X93117903Y-61236781D01*
X92900476Y-61562184D01*
X92867046Y-61612216D01*
X92778957Y-62055070D01*
X92801192Y-62166853D01*
X92801193Y-66173252D01*
X92801192Y-66173257D01*
X92801192Y-66262978D01*
X92782065Y-66291603D01*
X92736182Y-66522274D01*
X92736182Y-56820039D01*
X92775442Y-56820039D01*
X92934192Y-56661289D01*
X92934192Y-55737039D01*
X93188192Y-55737039D01*
X93188192Y-56661289D01*
X93346942Y-56820039D01*
X93887502Y-56820039D01*
X94120891Y-56723366D01*
X94161192Y-56683065D01*
X94201493Y-56723366D01*
X94434882Y-56820039D01*
X94975442Y-56820039D01*
X95134192Y-56661289D01*
X95134192Y-55737039D01*
X95388192Y-55737039D01*
X95388192Y-56661289D01*
X95546942Y-56820039D01*
X96087502Y-56820039D01*
X96320891Y-56723366D01*
X96499519Y-56544737D01*
X96596192Y-56311348D01*
X96596192Y-55895789D01*
X96437442Y-55737039D01*
X95388192Y-55737039D01*
X95134192Y-55737039D01*
X93188192Y-55737039D01*
X92934192Y-55737039D01*
X92914192Y-55737039D01*
X92914192Y-55483039D01*
X92934192Y-55483039D01*
X92934192Y-55463039D01*
X93188192Y-55463039D01*
X93188192Y-55483039D01*
X95134192Y-55483039D01*
X95134192Y-55463039D01*
X95388192Y-55463039D01*
X95388192Y-55483039D01*
X96437442Y-55483039D01*
X96596192Y-55324289D01*
X96596192Y-54908730D01*
X96499519Y-54675341D01*
X96492441Y-54668262D01*
X97214227Y-54668262D01*
X97241414Y-55238493D01*
X97407328Y-55639044D01*
X97653447Y-55713178D01*
X98481587Y-54885039D01*
X97653447Y-54056900D01*
X97407328Y-54131034D01*
X97214227Y-54668262D01*
X96492441Y-54668262D01*
X96344595Y-54520416D01*
X96345778Y-54519625D01*
X96540319Y-54228475D01*
X96608632Y-53885040D01*
X96608632Y-53817730D01*
X99041192Y-51385171D01*
X99526193Y-51870172D01*
X99526193Y-51870172D01*
G37*
X99526193Y-51870172D02*
X99526192Y-53545171D01*
X99403676Y-53627034D01*
X98877969Y-53438074D01*
X98307738Y-53465261D01*
X97907187Y-53631175D01*
X97833053Y-53877294D01*
X98661192Y-54705434D01*
X98675334Y-54691291D01*
X98854940Y-54870897D01*
X98840797Y-54885039D01*
X98854940Y-54899182D01*
X98675334Y-55078787D01*
X98661192Y-55064644D01*
X97833053Y-55892784D01*
X97907187Y-56138903D01*
X98444415Y-56332004D01*
X99014646Y-56304817D01*
X99404259Y-56143434D01*
X99509695Y-56213884D01*
X99526192Y-56296822D01*
X99526193Y-57584937D01*
X99311755Y-57799375D01*
X99244446Y-57799375D01*
X98901011Y-57867688D01*
X98609861Y-58062229D01*
X98544447Y-58160128D01*
X98479033Y-58062229D01*
X98187883Y-57867688D01*
X97844448Y-57799375D01*
X97194446Y-57799375D01*
X96851011Y-57867688D01*
X96594045Y-58039388D01*
X96587353Y-58040719D01*
X96401592Y-58077669D01*
X96026158Y-58328526D01*
X95962836Y-58423294D01*
X93212674Y-61173457D01*
X93117903Y-61236781D01*
X92900476Y-61562184D01*
X92867046Y-61612216D01*
X92778957Y-62055070D01*
X92801192Y-62166853D01*
X92801193Y-66173252D01*
X92801192Y-66173257D01*
X92801192Y-66262978D01*
X92782065Y-66291603D01*
X92736182Y-66522274D01*
X92736182Y-56820039D01*
X92775442Y-56820039D01*
X92934192Y-56661289D01*
X92934192Y-55737039D01*
X93188192Y-55737039D01*
X93188192Y-56661289D01*
X93346942Y-56820039D01*
X93887502Y-56820039D01*
X94120891Y-56723366D01*
X94161192Y-56683065D01*
X94201493Y-56723366D01*
X94434882Y-56820039D01*
X94975442Y-56820039D01*
X95134192Y-56661289D01*
X95134192Y-55737039D01*
X95388192Y-55737039D01*
X95388192Y-56661289D01*
X95546942Y-56820039D01*
X96087502Y-56820039D01*
X96320891Y-56723366D01*
X96499519Y-56544737D01*
X96596192Y-56311348D01*
X96596192Y-55895789D01*
X96437442Y-55737039D01*
X95388192Y-55737039D01*
X95134192Y-55737039D01*
X93188192Y-55737039D01*
X92934192Y-55737039D01*
X92914192Y-55737039D01*
X92914192Y-55483039D01*
X92934192Y-55483039D01*
X92934192Y-55463039D01*
X93188192Y-55463039D01*
X93188192Y-55483039D01*
X95134192Y-55483039D01*
X95134192Y-55463039D01*
X95388192Y-55463039D01*
X95388192Y-55483039D01*
X96437442Y-55483039D01*
X96596192Y-55324289D01*
X96596192Y-54908730D01*
X96499519Y-54675341D01*
X96492441Y-54668262D01*
X97214227Y-54668262D01*
X97241414Y-55238493D01*
X97407328Y-55639044D01*
X97653447Y-55713178D01*
X98481587Y-54885039D01*
X97653447Y-54056900D01*
X97407328Y-54131034D01*
X97214227Y-54668262D01*
X96492441Y-54668262D01*
X96344595Y-54520416D01*
X96345778Y-54519625D01*
X96540319Y-54228475D01*
X96608632Y-53885040D01*
X96608632Y-53817730D01*
X99041192Y-51385171D01*
X99526193Y-51870172D01*
G36*
X106913192Y-53658039D02*
X106933192Y-53658039D01*
X106933192Y-53912039D01*
X106913192Y-53912039D01*
X106913192Y-54961289D01*
X107071942Y-55120039D01*
X107487501Y-55120039D01*
X107676348Y-55041816D01*
X107917904Y-55403328D01*
X108012671Y-55466650D01*
X108954581Y-56408560D01*
X109017903Y-56503328D01*
X109289853Y-56685039D01*
X109393337Y-56754185D01*
X109836192Y-56842274D01*
X109947975Y-56820039D01*
X116691061Y-56820039D01*
X121641583Y-61770563D01*
X121704904Y-61865329D01*
X121799669Y-61928649D01*
X122080338Y-62116186D01*
X122523193Y-62204275D01*
X122634976Y-62182040D01*
X131012908Y-62182040D01*
X131387793Y-62556925D01*
X131387793Y-62556926D01*
X131707074Y-62876207D01*
X131812380Y-62919826D01*
X131907145Y-62983146D01*
X132018928Y-63005381D01*
X132124234Y-63049000D01*
X132238217Y-63049000D01*
X132243124Y-63049976D01*
X132043061Y-63250039D01*
X115306741Y-63250039D01*
X115321828Y-63213616D01*
X115385146Y-63118854D01*
X115407381Y-63007072D01*
X115451000Y-62901766D01*
X115451000Y-62787784D01*
X115473235Y-62676001D01*
X115451000Y-62564218D01*
X115451000Y-62450234D01*
X115407381Y-62344927D01*
X115385146Y-62233146D01*
X115321828Y-62138384D01*
X115278207Y-62033074D01*
X115197605Y-61952472D01*
X115134288Y-61857712D01*
X115039528Y-61794395D01*
X114958926Y-61713793D01*
X114853616Y-61670172D01*
X114758854Y-61606854D01*
X114647073Y-61584619D01*
X114541766Y-61541000D01*
X114427782Y-61541000D01*
X114315999Y-61518765D01*
X114204216Y-61541000D01*
X114090234Y-61541000D01*
X114068412Y-61550039D01*
X112799954Y-61550039D01*
X111672698Y-60422783D01*
X111734192Y-60361289D01*
X111734192Y-59212039D01*
X111988192Y-59212039D01*
X111988192Y-60361289D01*
X112146942Y-60520039D01*
X112787501Y-60520039D01*
X113020890Y-60423366D01*
X113199519Y-60244738D01*
X113296192Y-60011349D01*
X113296192Y-59370789D01*
X113137442Y-59212039D01*
X111988192Y-59212039D01*
X111734192Y-59212039D01*
X111714192Y-59212039D01*
X111714192Y-58958039D01*
X111734192Y-58958039D01*
X111734192Y-57808789D01*
X111988192Y-57808789D01*
X111988192Y-58958039D01*
X113137442Y-58958039D01*
X113296192Y-58799289D01*
X113296192Y-58158729D01*
X113199519Y-57925340D01*
X113020890Y-57746712D01*
X112787501Y-57650039D01*
X112146942Y-57650039D01*
X111988192Y-57808789D01*
X111734192Y-57808789D01*
X111575442Y-57650039D01*
X110934883Y-57650039D01*
X110701494Y-57746712D01*
X110607336Y-57840869D01*
X110146631Y-57650039D01*
X109575753Y-57650039D01*
X109048330Y-57868505D01*
X108966796Y-57950039D01*
X107331324Y-57950039D01*
X105871192Y-56489908D01*
X105871192Y-55031525D01*
X106084883Y-55120039D01*
X106500442Y-55120039D01*
X106659192Y-54961289D01*
X106659192Y-53912039D01*
X106639192Y-53912039D01*
X106639192Y-53658039D01*
X106659192Y-53658039D01*
X106659192Y-53638039D01*
X106913192Y-53638039D01*
X106913192Y-53658039D01*
X106913192Y-53658039D01*
G37*
X106913192Y-53658039D02*
X106933192Y-53658039D01*
X106933192Y-53912039D01*
X106913192Y-53912039D01*
X106913192Y-54961289D01*
X107071942Y-55120039D01*
X107487501Y-55120039D01*
X107676348Y-55041816D01*
X107917904Y-55403328D01*
X108012671Y-55466650D01*
X108954581Y-56408560D01*
X109017903Y-56503328D01*
X109289853Y-56685039D01*
X109393337Y-56754185D01*
X109836192Y-56842274D01*
X109947975Y-56820039D01*
X116691061Y-56820039D01*
X121641583Y-61770563D01*
X121704904Y-61865329D01*
X121799669Y-61928649D01*
X122080338Y-62116186D01*
X122523193Y-62204275D01*
X122634976Y-62182040D01*
X131012908Y-62182040D01*
X131387793Y-62556925D01*
X131387793Y-62556926D01*
X131707074Y-62876207D01*
X131812380Y-62919826D01*
X131907145Y-62983146D01*
X132018928Y-63005381D01*
X132124234Y-63049000D01*
X132238217Y-63049000D01*
X132243124Y-63049976D01*
X132043061Y-63250039D01*
X115306741Y-63250039D01*
X115321828Y-63213616D01*
X115385146Y-63118854D01*
X115407381Y-63007072D01*
X115451000Y-62901766D01*
X115451000Y-62787784D01*
X115473235Y-62676001D01*
X115451000Y-62564218D01*
X115451000Y-62450234D01*
X115407381Y-62344927D01*
X115385146Y-62233146D01*
X115321828Y-62138384D01*
X115278207Y-62033074D01*
X115197605Y-61952472D01*
X115134288Y-61857712D01*
X115039528Y-61794395D01*
X114958926Y-61713793D01*
X114853616Y-61670172D01*
X114758854Y-61606854D01*
X114647073Y-61584619D01*
X114541766Y-61541000D01*
X114427782Y-61541000D01*
X114315999Y-61518765D01*
X114204216Y-61541000D01*
X114090234Y-61541000D01*
X114068412Y-61550039D01*
X112799954Y-61550039D01*
X111672698Y-60422783D01*
X111734192Y-60361289D01*
X111734192Y-59212039D01*
X111988192Y-59212039D01*
X111988192Y-60361289D01*
X112146942Y-60520039D01*
X112787501Y-60520039D01*
X113020890Y-60423366D01*
X113199519Y-60244738D01*
X113296192Y-60011349D01*
X113296192Y-59370789D01*
X113137442Y-59212039D01*
X111988192Y-59212039D01*
X111734192Y-59212039D01*
X111714192Y-59212039D01*
X111714192Y-58958039D01*
X111734192Y-58958039D01*
X111734192Y-57808789D01*
X111988192Y-57808789D01*
X111988192Y-58958039D01*
X113137442Y-58958039D01*
X113296192Y-58799289D01*
X113296192Y-58158729D01*
X113199519Y-57925340D01*
X113020890Y-57746712D01*
X112787501Y-57650039D01*
X112146942Y-57650039D01*
X111988192Y-57808789D01*
X111734192Y-57808789D01*
X111575442Y-57650039D01*
X110934883Y-57650039D01*
X110701494Y-57746712D01*
X110607336Y-57840869D01*
X110146631Y-57650039D01*
X109575753Y-57650039D01*
X109048330Y-57868505D01*
X108966796Y-57950039D01*
X107331324Y-57950039D01*
X105871192Y-56489908D01*
X105871192Y-55031525D01*
X106084883Y-55120039D01*
X106500442Y-55120039D01*
X106659192Y-54961289D01*
X106659192Y-53912039D01*
X106639192Y-53912039D01*
X106639192Y-53658039D01*
X106659192Y-53658039D01*
X106659192Y-53638039D01*
X106913192Y-53638039D01*
X106913192Y-53658039D01*
G36*
X138209670Y-58208882D02*
X138079834Y-58269856D01*
X137689547Y-58698115D01*
X137519716Y-59108149D01*
X137641037Y-59338039D01*
X138834192Y-59338039D01*
X138834192Y-59318039D01*
X139088192Y-59318039D01*
X139088192Y-59338039D01*
X139108192Y-59338039D01*
X139108192Y-59592039D01*
X139088192Y-59592039D01*
X139088192Y-59612039D01*
X138834192Y-59612039D01*
X138834192Y-59592039D01*
X137641037Y-59592039D01*
X137519716Y-59821929D01*
X137689547Y-60231963D01*
X138079834Y-60660222D01*
X138209670Y-60721196D01*
X137986911Y-60870039D01*
X135004973Y-60870039D01*
X134893191Y-60847804D01*
X134781409Y-60870039D01*
X134450337Y-60935893D01*
X134074903Y-61186750D01*
X134011581Y-61281518D01*
X133485976Y-61807123D01*
X133485000Y-61802217D01*
X133485000Y-61688234D01*
X133441381Y-61582928D01*
X133419146Y-61471145D01*
X133355826Y-61376380D01*
X133312207Y-61271074D01*
X132992926Y-60951793D01*
X132992925Y-60951793D01*
X132492093Y-60450961D01*
X132592529Y-60409359D01*
X132985512Y-60016376D01*
X133198192Y-59502920D01*
X133198192Y-59433170D01*
X134571324Y-58060039D01*
X137986911Y-58060039D01*
X138209670Y-58208882D01*
X138209670Y-58208882D01*
G37*
X138209670Y-58208882D02*
X138079834Y-58269856D01*
X137689547Y-58698115D01*
X137519716Y-59108149D01*
X137641037Y-59338039D01*
X138834192Y-59338039D01*
X138834192Y-59318039D01*
X139088192Y-59318039D01*
X139088192Y-59338039D01*
X139108192Y-59338039D01*
X139108192Y-59592039D01*
X139088192Y-59592039D01*
X139088192Y-59612039D01*
X138834192Y-59612039D01*
X138834192Y-59592039D01*
X137641037Y-59592039D01*
X137519716Y-59821929D01*
X137689547Y-60231963D01*
X138079834Y-60660222D01*
X138209670Y-60721196D01*
X137986911Y-60870039D01*
X135004973Y-60870039D01*
X134893191Y-60847804D01*
X134781409Y-60870039D01*
X134450337Y-60935893D01*
X134074903Y-61186750D01*
X134011581Y-61281518D01*
X133485976Y-61807123D01*
X133485000Y-61802217D01*
X133485000Y-61688234D01*
X133441381Y-61582928D01*
X133419146Y-61471145D01*
X133355826Y-61376380D01*
X133312207Y-61271074D01*
X132992926Y-60951793D01*
X132992925Y-60951793D01*
X132492093Y-60450961D01*
X132592529Y-60409359D01*
X132985512Y-60016376D01*
X133198192Y-59502920D01*
X133198192Y-59433170D01*
X134571324Y-58060039D01*
X137986911Y-58060039D01*
X138209670Y-58208882D01*
G36*
X137463752Y-25595039D02*
X137463752Y-25660039D01*
X130812273Y-25660039D01*
X130734961Y-25644661D01*
X130657649Y-25660039D01*
X130657645Y-25660039D01*
X130428669Y-25705585D01*
X130234552Y-25835290D01*
X130234550Y-25835292D01*
X130169008Y-25879086D01*
X130125214Y-25944628D01*
X119403590Y-36666253D01*
X119338048Y-36710047D01*
X119294254Y-36775589D01*
X119294251Y-36775592D01*
X119164546Y-36969709D01*
X119103622Y-37276000D01*
X119119001Y-37353317D01*
X119119000Y-41677289D01*
X119026569Y-41769720D01*
X118869000Y-42150126D01*
X118869000Y-42561874D01*
X119026569Y-42942280D01*
X119317720Y-43233431D01*
X119698126Y-43391000D01*
X120109874Y-43391000D01*
X120490280Y-43233431D01*
X120781431Y-42942280D01*
X120939000Y-42561874D01*
X120939000Y-42150126D01*
X120781431Y-41769720D01*
X120689000Y-41677289D01*
X120689000Y-37601157D01*
X129752816Y-28537341D01*
X130392048Y-28537341D01*
X130419830Y-29092407D01*
X130578795Y-29476182D01*
X130820979Y-29545647D01*
X131621587Y-28745039D01*
X130820979Y-27944431D01*
X130578795Y-28013896D01*
X130392048Y-28537341D01*
X129752816Y-28537341D01*
X130525331Y-27764826D01*
X131000584Y-27764826D01*
X131801192Y-28565434D01*
X132601800Y-27764826D01*
X132532335Y-27522642D01*
X132008890Y-27335895D01*
X131453824Y-27363677D01*
X131070049Y-27522642D01*
X131000584Y-27764826D01*
X130525331Y-27764826D01*
X131060119Y-27230039D01*
X137463752Y-27230039D01*
X137463752Y-27295039D01*
X137513035Y-27542804D01*
X137653383Y-27752848D01*
X137798838Y-27850039D01*
X134212974Y-27850039D01*
X134101191Y-27827804D01*
X133772443Y-27893196D01*
X133658337Y-27915893D01*
X133282903Y-28166750D01*
X133219581Y-28261518D01*
X133153521Y-28327578D01*
X133023589Y-28013896D01*
X132781405Y-27944431D01*
X131980797Y-28745039D01*
X131994940Y-28759182D01*
X131815335Y-28938787D01*
X131801192Y-28924644D01*
X131000584Y-29725252D01*
X131070049Y-29967436D01*
X131210585Y-30017574D01*
X131009855Y-30100719D01*
X130616872Y-30493702D01*
X130404192Y-31007158D01*
X130404192Y-31562920D01*
X130616872Y-32076376D01*
X131009855Y-32469359D01*
X131216705Y-32555039D01*
X131009855Y-32640719D01*
X130616872Y-33033702D01*
X130404192Y-33547158D01*
X130404192Y-34102920D01*
X130616872Y-34616376D01*
X131009855Y-35009359D01*
X131216705Y-35095039D01*
X131009855Y-35180719D01*
X130616872Y-35573702D01*
X130404192Y-36087158D01*
X130404192Y-36642920D01*
X130616872Y-37156376D01*
X131009855Y-37549359D01*
X131216705Y-37635039D01*
X131009855Y-37720719D01*
X130616872Y-38113702D01*
X130404192Y-38627158D01*
X130404192Y-39182920D01*
X130616872Y-39696376D01*
X131009855Y-40089359D01*
X131216705Y-40175039D01*
X131009855Y-40260719D01*
X130616872Y-40653702D01*
X130404192Y-41167158D01*
X130404192Y-41722920D01*
X130616872Y-42236376D01*
X131009855Y-42629359D01*
X131216705Y-42715039D01*
X131009855Y-42800719D01*
X130616872Y-43193702D01*
X130404192Y-43707158D01*
X130404192Y-44262920D01*
X130616872Y-44776376D01*
X131009855Y-45169359D01*
X131216705Y-45255039D01*
X131009855Y-45340719D01*
X130616872Y-45733702D01*
X130404192Y-46247158D01*
X130404192Y-46802920D01*
X130616872Y-47316376D01*
X131009855Y-47709359D01*
X131216705Y-47795039D01*
X131009855Y-47880719D01*
X130616872Y-48273702D01*
X130404192Y-48787158D01*
X130404192Y-49342920D01*
X130616872Y-49856376D01*
X131009855Y-50249359D01*
X131216705Y-50335039D01*
X131009855Y-50420719D01*
X130616872Y-50813702D01*
X130404192Y-51327158D01*
X130404192Y-51882920D01*
X130616872Y-52396376D01*
X131009855Y-52789359D01*
X131216705Y-52875039D01*
X131009855Y-52960719D01*
X130616872Y-53353702D01*
X130404192Y-53867158D01*
X130404192Y-54422920D01*
X130616872Y-54936376D01*
X131009855Y-55329359D01*
X131216705Y-55415039D01*
X131009855Y-55500719D01*
X130616872Y-55893702D01*
X130404192Y-56407158D01*
X130404192Y-56962920D01*
X130616872Y-57476376D01*
X131009855Y-57869359D01*
X131216705Y-57955039D01*
X131009855Y-58040719D01*
X130616872Y-58433702D01*
X130404192Y-58947158D01*
X130404192Y-59502920D01*
X130573655Y-59912040D01*
X122993326Y-59912040D01*
X118042805Y-54961521D01*
X117979481Y-54866750D01*
X117604047Y-54615893D01*
X117272975Y-54550039D01*
X117161192Y-54527804D01*
X117049409Y-54550039D01*
X111996192Y-54550039D01*
X111996192Y-54070789D01*
X111837442Y-53912039D01*
X110913192Y-53912039D01*
X110913192Y-53932039D01*
X110659192Y-53932039D01*
X110659192Y-53912039D01*
X110639192Y-53912039D01*
X110639192Y-53658039D01*
X110659192Y-53658039D01*
X110659192Y-53638039D01*
X110913192Y-53638039D01*
X110913192Y-53658039D01*
X111837442Y-53658039D01*
X111996192Y-53499289D01*
X111996192Y-52958729D01*
X111899519Y-52725340D01*
X111735467Y-52561289D01*
X111852019Y-52444738D01*
X111948692Y-52211349D01*
X111948692Y-51370789D01*
X111789942Y-51212039D01*
X110488192Y-51212039D01*
X110488192Y-51232039D01*
X110234192Y-51232039D01*
X110234192Y-51212039D01*
X110214192Y-51212039D01*
X110214192Y-50958039D01*
X110234192Y-50958039D01*
X110234192Y-49608789D01*
X110488192Y-49608789D01*
X110488192Y-50958039D01*
X111789942Y-50958039D01*
X111948692Y-50799289D01*
X111948692Y-49958729D01*
X111852019Y-49725340D01*
X111673390Y-49546712D01*
X111440001Y-49450039D01*
X110646942Y-49450039D01*
X110488192Y-49608789D01*
X110234192Y-49608789D01*
X110075442Y-49450039D01*
X109282383Y-49450039D01*
X109048994Y-49546712D01*
X108870365Y-49725340D01*
X108836636Y-49806768D01*
X108440603Y-49542148D01*
X107821192Y-49418939D01*
X107201782Y-49542148D01*
X106676669Y-49893016D01*
X106551192Y-50080806D01*
X106425715Y-49893016D01*
X105900603Y-49542148D01*
X105281192Y-49418939D01*
X104661782Y-49542148D01*
X104136669Y-49893016D01*
X103785801Y-50418128D01*
X103693692Y-50881189D01*
X103693692Y-51288888D01*
X103785801Y-51751949D01*
X104136669Y-52277062D01*
X104146193Y-52283425D01*
X104146193Y-52490310D01*
X104067756Y-52505912D01*
X103776606Y-52700453D01*
X103582065Y-52991603D01*
X103513752Y-53335038D01*
X103513752Y-54235040D01*
X103582065Y-54578475D01*
X103601192Y-54607101D01*
X103601193Y-56848251D01*
X103578957Y-56960039D01*
X103603823Y-57085049D01*
X103166334Y-57085049D01*
X102041220Y-55959936D01*
X102059349Y-55932804D01*
X102108632Y-55685039D01*
X102108632Y-54085039D01*
X102059349Y-53837274D01*
X101919001Y-53627230D01*
X101796192Y-53545171D01*
X101796192Y-51511822D01*
X101818427Y-51400039D01*
X101730338Y-50957184D01*
X101479481Y-50581750D01*
X101384713Y-50518428D01*
X100328962Y-49462677D01*
X100536583Y-49151949D01*
X100628692Y-48688888D01*
X100628692Y-48281189D01*
X100536583Y-47818128D01*
X100185715Y-47293016D01*
X99660602Y-46942148D01*
X99041192Y-46818939D01*
X98421781Y-46942148D01*
X97896669Y-47293016D01*
X97762033Y-47494513D01*
X97368116Y-47109066D01*
X96874172Y-46894476D01*
X96628192Y-47014445D01*
X96628192Y-48358039D01*
X96648192Y-48358039D01*
X96648192Y-48612039D01*
X96628192Y-48612039D01*
X96628192Y-49955633D01*
X96874172Y-50075602D01*
X97345079Y-49871020D01*
X95096192Y-52119908D01*
X95096192Y-50096178D01*
X95161457Y-50083196D01*
X95371501Y-49942848D01*
X95508447Y-49737896D01*
X95634268Y-49861012D01*
X96128212Y-50075602D01*
X96374192Y-49955633D01*
X96374192Y-48612039D01*
X96354192Y-48612039D01*
X96354192Y-48358039D01*
X96374192Y-48358039D01*
X96374192Y-47014445D01*
X96128212Y-46894476D01*
X95634268Y-47109066D01*
X95508447Y-47232182D01*
X95371501Y-47027230D01*
X95161457Y-46886882D01*
X94913692Y-46837599D01*
X93008692Y-46837599D01*
X92760927Y-46886882D01*
X92550883Y-47027230D01*
X92410535Y-47237274D01*
X92361252Y-47485039D01*
X92361252Y-49485039D01*
X92410535Y-49732804D01*
X92550883Y-49942848D01*
X92760927Y-50083196D01*
X92826192Y-50096178D01*
X92826193Y-52189907D01*
X92678501Y-52337599D01*
X92611191Y-52337599D01*
X92272286Y-52405011D01*
X92261191Y-52402804D01*
X91927471Y-52469185D01*
X91818337Y-52490893D01*
X91567192Y-52658703D01*
X91567192Y-41585039D01*
X92313752Y-41585039D01*
X92313752Y-43785039D01*
X92363035Y-44032804D01*
X92503383Y-44242848D01*
X92713427Y-44383196D01*
X92961192Y-44432479D01*
X95161192Y-44432479D01*
X95408957Y-44383196D01*
X95619001Y-44242848D01*
X95759349Y-44032804D01*
X95808632Y-43785039D01*
X95808632Y-43295039D01*
X108992202Y-43295039D01*
X109126858Y-43972002D01*
X109510327Y-44545904D01*
X110084229Y-44929373D01*
X110590312Y-45030039D01*
X110932072Y-45030039D01*
X111438155Y-44929373D01*
X112012057Y-44545904D01*
X112395526Y-43972002D01*
X112448206Y-43707158D01*
X115164192Y-43707158D01*
X115164192Y-44262920D01*
X115376872Y-44776376D01*
X115769855Y-45169359D01*
X115976705Y-45255039D01*
X115769855Y-45340719D01*
X115376872Y-45733702D01*
X115164192Y-46247158D01*
X115164192Y-46802920D01*
X115376872Y-47316376D01*
X115769855Y-47709359D01*
X115976705Y-47795039D01*
X115769855Y-47880719D01*
X115376872Y-48273702D01*
X115164192Y-48787158D01*
X115164192Y-49342920D01*
X115376872Y-49856376D01*
X115769855Y-50249359D01*
X115976705Y-50335039D01*
X115769855Y-50420719D01*
X115376872Y-50813702D01*
X115164192Y-51327158D01*
X115164192Y-51882920D01*
X115376872Y-52396376D01*
X115769855Y-52789359D01*
X116283311Y-53002039D01*
X116839073Y-53002039D01*
X117352529Y-52789359D01*
X117745512Y-52396376D01*
X117958192Y-51882920D01*
X117958192Y-51327158D01*
X117745512Y-50813702D01*
X117352529Y-50420719D01*
X117145679Y-50335039D01*
X117352529Y-50249359D01*
X117745512Y-49856376D01*
X117748137Y-49850039D01*
X121092104Y-49850039D01*
X121183761Y-50071319D01*
X121474912Y-50362470D01*
X121855318Y-50520039D01*
X122267066Y-50520039D01*
X122647472Y-50362470D01*
X122938623Y-50071319D01*
X123096192Y-49690913D01*
X123096192Y-49279165D01*
X122938623Y-48898759D01*
X122647472Y-48607608D01*
X122267066Y-48450039D01*
X122133741Y-48450039D01*
X121947484Y-48325585D01*
X121718508Y-48280039D01*
X121718504Y-48280039D01*
X121641192Y-48264661D01*
X121563880Y-48280039D01*
X117748137Y-48280039D01*
X117745512Y-48273702D01*
X117352529Y-47880719D01*
X117145679Y-47795039D01*
X117352529Y-47709359D01*
X117391849Y-47670039D01*
X120382481Y-47670039D01*
X120474912Y-47762470D01*
X120855318Y-47920039D01*
X121267066Y-47920039D01*
X121647472Y-47762470D01*
X121938623Y-47471319D01*
X122096192Y-47090913D01*
X122096192Y-46679165D01*
X121938623Y-46298759D01*
X121647472Y-46007608D01*
X121267066Y-45850039D01*
X120855318Y-45850039D01*
X120474912Y-46007608D01*
X120382481Y-46100039D01*
X117897253Y-46100039D01*
X117745512Y-45733702D01*
X117352529Y-45340719D01*
X117145679Y-45255039D01*
X117352529Y-45169359D01*
X117745512Y-44776376D01*
X117958192Y-44262920D01*
X117958192Y-43707158D01*
X117745512Y-43193702D01*
X117352529Y-42800719D01*
X117161545Y-42721611D01*
X117292335Y-42667436D01*
X117361800Y-42425252D01*
X116561192Y-41624644D01*
X115760584Y-42425252D01*
X115830049Y-42667436D01*
X115970585Y-42717574D01*
X115769855Y-42800719D01*
X115376872Y-43193702D01*
X115164192Y-43707158D01*
X112448206Y-43707158D01*
X112530182Y-43295039D01*
X112395526Y-42618076D01*
X112012057Y-42044174D01*
X111438155Y-41660705D01*
X110932072Y-41560039D01*
X110590312Y-41560039D01*
X110084229Y-41660705D01*
X109510327Y-42044174D01*
X109126858Y-42618076D01*
X108992202Y-43295039D01*
X95808632Y-43295039D01*
X95808632Y-41585039D01*
X95759349Y-41337274D01*
X95619001Y-41127230D01*
X95408957Y-40986882D01*
X95161192Y-40937599D01*
X92961192Y-40937599D01*
X92713427Y-40986882D01*
X92503383Y-41127230D01*
X92363035Y-41337274D01*
X92313752Y-41585039D01*
X91567192Y-41585039D01*
X91567192Y-38875039D01*
X92292202Y-38875039D01*
X92426858Y-39552002D01*
X92810327Y-40125904D01*
X93384229Y-40509373D01*
X93890312Y-40610039D01*
X94232072Y-40610039D01*
X94738155Y-40509373D01*
X95312057Y-40125904D01*
X95339362Y-40085039D01*
X96213752Y-40085039D01*
X96213752Y-41685039D01*
X96263035Y-41932804D01*
X96403383Y-42142848D01*
X96613427Y-42283196D01*
X96861192Y-42332479D01*
X98461192Y-42332479D01*
X98708957Y-42283196D01*
X98919001Y-42142848D01*
X99059349Y-41932804D01*
X99067309Y-41892784D01*
X99333053Y-41892784D01*
X99407187Y-42138903D01*
X99944415Y-42332004D01*
X100514646Y-42304817D01*
X100915197Y-42138903D01*
X100989331Y-41892784D01*
X100161192Y-41064644D01*
X99333053Y-41892784D01*
X99067309Y-41892784D01*
X99105885Y-41698852D01*
X99153447Y-41713178D01*
X99981587Y-40885039D01*
X100340797Y-40885039D01*
X101168937Y-41713178D01*
X101415056Y-41639044D01*
X101511477Y-41370789D01*
X102126192Y-41370789D01*
X102126192Y-42011349D01*
X102222865Y-42244738D01*
X102401494Y-42423366D01*
X102634883Y-42520039D01*
X103275442Y-42520039D01*
X103434192Y-42361289D01*
X103434192Y-41212039D01*
X102284942Y-41212039D01*
X102126192Y-41370789D01*
X101511477Y-41370789D01*
X101608157Y-41101816D01*
X101580970Y-40531585D01*
X101426528Y-40158729D01*
X102126192Y-40158729D01*
X102126192Y-40799289D01*
X102284942Y-40958039D01*
X103434192Y-40958039D01*
X103434192Y-39808789D01*
X103688192Y-39808789D01*
X103688192Y-40958039D01*
X103708192Y-40958039D01*
X103708192Y-41212039D01*
X103688192Y-41212039D01*
X103688192Y-42361289D01*
X103846942Y-42520039D01*
X104487501Y-42520039D01*
X104720890Y-42423366D01*
X104899519Y-42244738D01*
X104985037Y-42038280D01*
X105248330Y-42301573D01*
X105775753Y-42520039D01*
X106346631Y-42520039D01*
X106874054Y-42301573D01*
X107277726Y-41897901D01*
X107496192Y-41370478D01*
X107496192Y-41237341D01*
X115152048Y-41237341D01*
X115179830Y-41792407D01*
X115338795Y-42176182D01*
X115580979Y-42245647D01*
X116381587Y-41445039D01*
X116740797Y-41445039D01*
X117541405Y-42245647D01*
X117783589Y-42176182D01*
X117970336Y-41652737D01*
X117942554Y-41097671D01*
X117783589Y-40713896D01*
X117541405Y-40644431D01*
X116740797Y-41445039D01*
X116381587Y-41445039D01*
X115580979Y-40644431D01*
X115338795Y-40713896D01*
X115152048Y-41237341D01*
X107496192Y-41237341D01*
X107496192Y-40799600D01*
X107277726Y-40272177D01*
X106874054Y-39868505D01*
X106346631Y-39650039D01*
X105775753Y-39650039D01*
X105248330Y-39868505D01*
X104985037Y-40131798D01*
X104899519Y-39925340D01*
X104720890Y-39746712D01*
X104487501Y-39650039D01*
X103846942Y-39650039D01*
X103688192Y-39808789D01*
X103434192Y-39808789D01*
X103275442Y-39650039D01*
X102634883Y-39650039D01*
X102401494Y-39746712D01*
X102222865Y-39925340D01*
X102126192Y-40158729D01*
X101426528Y-40158729D01*
X101415056Y-40131034D01*
X101168937Y-40056900D01*
X100340797Y-40885039D01*
X99981587Y-40885039D01*
X99153447Y-40056900D01*
X99105885Y-40071226D01*
X99067310Y-39877294D01*
X99333053Y-39877294D01*
X100161192Y-40705434D01*
X100989331Y-39877294D01*
X100915197Y-39631175D01*
X100377969Y-39438074D01*
X99807738Y-39465261D01*
X99407187Y-39631175D01*
X99333053Y-39877294D01*
X99067310Y-39877294D01*
X99059349Y-39837274D01*
X98919001Y-39627230D01*
X98708957Y-39486882D01*
X98461192Y-39437599D01*
X96861192Y-39437599D01*
X96613427Y-39486882D01*
X96403383Y-39627230D01*
X96263035Y-39837274D01*
X96213752Y-40085039D01*
X95339362Y-40085039D01*
X95695526Y-39552002D01*
X95830182Y-38875039D01*
X95732716Y-38385039D01*
X109013752Y-38385039D01*
X109013752Y-40585039D01*
X109063035Y-40832804D01*
X109203383Y-41042848D01*
X109413427Y-41183196D01*
X109661192Y-41232479D01*
X111861192Y-41232479D01*
X112108957Y-41183196D01*
X112319001Y-41042848D01*
X112459349Y-40832804D01*
X112508632Y-40585039D01*
X112508632Y-38385039D01*
X112459349Y-38137274D01*
X112319001Y-37927230D01*
X112108957Y-37786882D01*
X111861192Y-37737599D01*
X109661192Y-37737599D01*
X109413427Y-37786882D01*
X109203383Y-37927230D01*
X109063035Y-38137274D01*
X109013752Y-38385039D01*
X95732716Y-38385039D01*
X95695526Y-38198076D01*
X95312057Y-37624174D01*
X94738155Y-37240705D01*
X94232072Y-37140039D01*
X93890312Y-37140039D01*
X93384229Y-37240705D01*
X92810327Y-37624174D01*
X92426858Y-38198076D01*
X92292202Y-38875039D01*
X91567192Y-38875039D01*
X91567192Y-36087158D01*
X115164192Y-36087158D01*
X115164192Y-36642920D01*
X115376872Y-37156376D01*
X115769855Y-37549359D01*
X115976705Y-37635039D01*
X115769855Y-37720719D01*
X115376872Y-38113702D01*
X115164192Y-38627158D01*
X115164192Y-39182920D01*
X115376872Y-39696376D01*
X115769855Y-40089359D01*
X115960839Y-40168467D01*
X115830049Y-40222642D01*
X115760584Y-40464826D01*
X116561192Y-41265434D01*
X117361800Y-40464826D01*
X117292335Y-40222642D01*
X117151799Y-40172504D01*
X117352529Y-40089359D01*
X117745512Y-39696376D01*
X117958192Y-39182920D01*
X117958192Y-38627158D01*
X117745512Y-38113702D01*
X117352529Y-37720719D01*
X117145679Y-37635039D01*
X117352529Y-37549359D01*
X117745512Y-37156376D01*
X117958192Y-36642920D01*
X117958192Y-36087158D01*
X117745512Y-35573702D01*
X117352529Y-35180719D01*
X116839073Y-34968039D01*
X116283311Y-34968039D01*
X115769855Y-35180719D01*
X115376872Y-35573702D01*
X115164192Y-36087158D01*
X91567192Y-36087158D01*
X91567192Y-33550500D01*
X96120663Y-33550500D01*
X96236972Y-34135225D01*
X96568192Y-34630930D01*
X97063897Y-34962150D01*
X97501024Y-35049100D01*
X97796220Y-35049100D01*
X98233347Y-34962150D01*
X98729052Y-34630930D01*
X98930476Y-34329479D01*
X98981801Y-34438990D01*
X99413675Y-34833188D01*
X99829596Y-35005458D01*
X100061622Y-34884317D01*
X100061622Y-33677500D01*
X100315622Y-33677500D01*
X100315622Y-34884317D01*
X100547648Y-35005458D01*
X100963569Y-34833188D01*
X101395443Y-34438990D01*
X101458622Y-34304187D01*
X101521801Y-34438990D01*
X101953675Y-34833188D01*
X102369596Y-35005458D01*
X102601622Y-34884317D01*
X102601622Y-33677500D01*
X102855622Y-33677500D01*
X102855622Y-34884317D01*
X103087648Y-35005458D01*
X103503569Y-34833188D01*
X103935443Y-34438990D01*
X103998622Y-34304187D01*
X104061801Y-34438990D01*
X104493675Y-34833188D01*
X104909596Y-35005458D01*
X105141622Y-34884317D01*
X105141622Y-33677500D01*
X102855622Y-33677500D01*
X102601622Y-33677500D01*
X100315622Y-33677500D01*
X100061622Y-33677500D01*
X100041622Y-33677500D01*
X100041622Y-33423500D01*
X100061622Y-33423500D01*
X100061622Y-31137500D01*
X100315622Y-31137500D01*
X100315622Y-33423500D01*
X102601622Y-33423500D01*
X102601622Y-31137500D01*
X102855622Y-31137500D01*
X102855622Y-33423500D01*
X105141622Y-33423500D01*
X105141622Y-31137500D01*
X102855622Y-31137500D01*
X102601622Y-31137500D01*
X100315622Y-31137500D01*
X100061622Y-31137500D01*
X100041622Y-31137500D01*
X100041622Y-30883500D01*
X100061622Y-30883500D01*
X100061622Y-29676683D01*
X100315622Y-29676683D01*
X100315622Y-30883500D01*
X102601622Y-30883500D01*
X102601622Y-29676683D01*
X102855622Y-29676683D01*
X102855622Y-30883500D01*
X105141622Y-30883500D01*
X105141622Y-29676683D01*
X105395622Y-29676683D01*
X105395622Y-30883500D01*
X105415622Y-30883500D01*
X105415622Y-31137500D01*
X105395622Y-31137500D01*
X105395622Y-33423500D01*
X105415622Y-33423500D01*
X105415622Y-33677500D01*
X105395622Y-33677500D01*
X105395622Y-34884317D01*
X105627648Y-35005458D01*
X106043569Y-34833188D01*
X106475443Y-34438990D01*
X106526768Y-34329479D01*
X106728192Y-34630930D01*
X107223897Y-34962150D01*
X107661024Y-35049100D01*
X107956220Y-35049100D01*
X108393347Y-34962150D01*
X108889052Y-34630930D01*
X109220272Y-34135225D01*
X109336581Y-33550500D01*
X109220272Y-32965775D01*
X108889052Y-32470070D01*
X108605341Y-32280500D01*
X108889052Y-32090930D01*
X109220272Y-31595225D01*
X109336581Y-31010500D01*
X109220272Y-30425775D01*
X108889052Y-29930070D01*
X108393347Y-29598850D01*
X107956220Y-29511900D01*
X107661024Y-29511900D01*
X107223897Y-29598850D01*
X106728192Y-29930070D01*
X106526768Y-30231521D01*
X106475443Y-30122010D01*
X106043569Y-29727812D01*
X105627648Y-29555542D01*
X105395622Y-29676683D01*
X105141622Y-29676683D01*
X104909596Y-29555542D01*
X104493675Y-29727812D01*
X104061801Y-30122010D01*
X103998622Y-30256813D01*
X103935443Y-30122010D01*
X103503569Y-29727812D01*
X103087648Y-29555542D01*
X102855622Y-29676683D01*
X102601622Y-29676683D01*
X102369596Y-29555542D01*
X101953675Y-29727812D01*
X101521801Y-30122010D01*
X101458622Y-30256813D01*
X101395443Y-30122010D01*
X100963569Y-29727812D01*
X100547648Y-29555542D01*
X100315622Y-29676683D01*
X100061622Y-29676683D01*
X99829596Y-29555542D01*
X99413675Y-29727812D01*
X99128142Y-29988436D01*
X99110379Y-29899135D01*
X98970031Y-29689091D01*
X98759987Y-29548743D01*
X98512222Y-29499460D01*
X96785022Y-29499460D01*
X96537257Y-29548743D01*
X96327213Y-29689091D01*
X96186865Y-29899135D01*
X96137582Y-30146900D01*
X96137582Y-31874100D01*
X96186865Y-32121865D01*
X96327213Y-32331909D01*
X96537257Y-32472257D01*
X96563273Y-32477432D01*
X96236972Y-32965775D01*
X96120663Y-33550500D01*
X91567192Y-33550500D01*
X91567192Y-25411039D01*
X137500351Y-25411039D01*
X137463752Y-25595039D01*
X137463752Y-25595039D01*
G37*
X137463752Y-25595039D02*
X137463752Y-25660039D01*
X130812273Y-25660039D01*
X130734961Y-25644661D01*
X130657649Y-25660039D01*
X130657645Y-25660039D01*
X130428669Y-25705585D01*
X130234552Y-25835290D01*
X130234550Y-25835292D01*
X130169008Y-25879086D01*
X130125214Y-25944628D01*
X119403590Y-36666253D01*
X119338048Y-36710047D01*
X119294254Y-36775589D01*
X119294251Y-36775592D01*
X119164546Y-36969709D01*
X119103622Y-37276000D01*
X119119001Y-37353317D01*
X119119000Y-41677289D01*
X119026569Y-41769720D01*
X118869000Y-42150126D01*
X118869000Y-42561874D01*
X119026569Y-42942280D01*
X119317720Y-43233431D01*
X119698126Y-43391000D01*
X120109874Y-43391000D01*
X120490280Y-43233431D01*
X120781431Y-42942280D01*
X120939000Y-42561874D01*
X120939000Y-42150126D01*
X120781431Y-41769720D01*
X120689000Y-41677289D01*
X120689000Y-37601157D01*
X129752816Y-28537341D01*
X130392048Y-28537341D01*
X130419830Y-29092407D01*
X130578795Y-29476182D01*
X130820979Y-29545647D01*
X131621587Y-28745039D01*
X130820979Y-27944431D01*
X130578795Y-28013896D01*
X130392048Y-28537341D01*
X129752816Y-28537341D01*
X130525331Y-27764826D01*
X131000584Y-27764826D01*
X131801192Y-28565434D01*
X132601800Y-27764826D01*
X132532335Y-27522642D01*
X132008890Y-27335895D01*
X131453824Y-27363677D01*
X131070049Y-27522642D01*
X131000584Y-27764826D01*
X130525331Y-27764826D01*
X131060119Y-27230039D01*
X137463752Y-27230039D01*
X137463752Y-27295039D01*
X137513035Y-27542804D01*
X137653383Y-27752848D01*
X137798838Y-27850039D01*
X134212974Y-27850039D01*
X134101191Y-27827804D01*
X133772443Y-27893196D01*
X133658337Y-27915893D01*
X133282903Y-28166750D01*
X133219581Y-28261518D01*
X133153521Y-28327578D01*
X133023589Y-28013896D01*
X132781405Y-27944431D01*
X131980797Y-28745039D01*
X131994940Y-28759182D01*
X131815335Y-28938787D01*
X131801192Y-28924644D01*
X131000584Y-29725252D01*
X131070049Y-29967436D01*
X131210585Y-30017574D01*
X131009855Y-30100719D01*
X130616872Y-30493702D01*
X130404192Y-31007158D01*
X130404192Y-31562920D01*
X130616872Y-32076376D01*
X131009855Y-32469359D01*
X131216705Y-32555039D01*
X131009855Y-32640719D01*
X130616872Y-33033702D01*
X130404192Y-33547158D01*
X130404192Y-34102920D01*
X130616872Y-34616376D01*
X131009855Y-35009359D01*
X131216705Y-35095039D01*
X131009855Y-35180719D01*
X130616872Y-35573702D01*
X130404192Y-36087158D01*
X130404192Y-36642920D01*
X130616872Y-37156376D01*
X131009855Y-37549359D01*
X131216705Y-37635039D01*
X131009855Y-37720719D01*
X130616872Y-38113702D01*
X130404192Y-38627158D01*
X130404192Y-39182920D01*
X130616872Y-39696376D01*
X131009855Y-40089359D01*
X131216705Y-40175039D01*
X131009855Y-40260719D01*
X130616872Y-40653702D01*
X130404192Y-41167158D01*
X130404192Y-41722920D01*
X130616872Y-42236376D01*
X131009855Y-42629359D01*
X131216705Y-42715039D01*
X131009855Y-42800719D01*
X130616872Y-43193702D01*
X130404192Y-43707158D01*
X130404192Y-44262920D01*
X130616872Y-44776376D01*
X131009855Y-45169359D01*
X131216705Y-45255039D01*
X131009855Y-45340719D01*
X130616872Y-45733702D01*
X130404192Y-46247158D01*
X130404192Y-46802920D01*
X130616872Y-47316376D01*
X131009855Y-47709359D01*
X131216705Y-47795039D01*
X131009855Y-47880719D01*
X130616872Y-48273702D01*
X130404192Y-48787158D01*
X130404192Y-49342920D01*
X130616872Y-49856376D01*
X131009855Y-50249359D01*
X131216705Y-50335039D01*
X131009855Y-50420719D01*
X130616872Y-50813702D01*
X130404192Y-51327158D01*
X130404192Y-51882920D01*
X130616872Y-52396376D01*
X131009855Y-52789359D01*
X131216705Y-52875039D01*
X131009855Y-52960719D01*
X130616872Y-53353702D01*
X130404192Y-53867158D01*
X130404192Y-54422920D01*
X130616872Y-54936376D01*
X131009855Y-55329359D01*
X131216705Y-55415039D01*
X131009855Y-55500719D01*
X130616872Y-55893702D01*
X130404192Y-56407158D01*
X130404192Y-56962920D01*
X130616872Y-57476376D01*
X131009855Y-57869359D01*
X131216705Y-57955039D01*
X131009855Y-58040719D01*
X130616872Y-58433702D01*
X130404192Y-58947158D01*
X130404192Y-59502920D01*
X130573655Y-59912040D01*
X122993326Y-59912040D01*
X118042805Y-54961521D01*
X117979481Y-54866750D01*
X117604047Y-54615893D01*
X117272975Y-54550039D01*
X117161192Y-54527804D01*
X117049409Y-54550039D01*
X111996192Y-54550039D01*
X111996192Y-54070789D01*
X111837442Y-53912039D01*
X110913192Y-53912039D01*
X110913192Y-53932039D01*
X110659192Y-53932039D01*
X110659192Y-53912039D01*
X110639192Y-53912039D01*
X110639192Y-53658039D01*
X110659192Y-53658039D01*
X110659192Y-53638039D01*
X110913192Y-53638039D01*
X110913192Y-53658039D01*
X111837442Y-53658039D01*
X111996192Y-53499289D01*
X111996192Y-52958729D01*
X111899519Y-52725340D01*
X111735467Y-52561289D01*
X111852019Y-52444738D01*
X111948692Y-52211349D01*
X111948692Y-51370789D01*
X111789942Y-51212039D01*
X110488192Y-51212039D01*
X110488192Y-51232039D01*
X110234192Y-51232039D01*
X110234192Y-51212039D01*
X110214192Y-51212039D01*
X110214192Y-50958039D01*
X110234192Y-50958039D01*
X110234192Y-49608789D01*
X110488192Y-49608789D01*
X110488192Y-50958039D01*
X111789942Y-50958039D01*
X111948692Y-50799289D01*
X111948692Y-49958729D01*
X111852019Y-49725340D01*
X111673390Y-49546712D01*
X111440001Y-49450039D01*
X110646942Y-49450039D01*
X110488192Y-49608789D01*
X110234192Y-49608789D01*
X110075442Y-49450039D01*
X109282383Y-49450039D01*
X109048994Y-49546712D01*
X108870365Y-49725340D01*
X108836636Y-49806768D01*
X108440603Y-49542148D01*
X107821192Y-49418939D01*
X107201782Y-49542148D01*
X106676669Y-49893016D01*
X106551192Y-50080806D01*
X106425715Y-49893016D01*
X105900603Y-49542148D01*
X105281192Y-49418939D01*
X104661782Y-49542148D01*
X104136669Y-49893016D01*
X103785801Y-50418128D01*
X103693692Y-50881189D01*
X103693692Y-51288888D01*
X103785801Y-51751949D01*
X104136669Y-52277062D01*
X104146193Y-52283425D01*
X104146193Y-52490310D01*
X104067756Y-52505912D01*
X103776606Y-52700453D01*
X103582065Y-52991603D01*
X103513752Y-53335038D01*
X103513752Y-54235040D01*
X103582065Y-54578475D01*
X103601192Y-54607101D01*
X103601193Y-56848251D01*
X103578957Y-56960039D01*
X103603823Y-57085049D01*
X103166334Y-57085049D01*
X102041220Y-55959936D01*
X102059349Y-55932804D01*
X102108632Y-55685039D01*
X102108632Y-54085039D01*
X102059349Y-53837274D01*
X101919001Y-53627230D01*
X101796192Y-53545171D01*
X101796192Y-51511822D01*
X101818427Y-51400039D01*
X101730338Y-50957184D01*
X101479481Y-50581750D01*
X101384713Y-50518428D01*
X100328962Y-49462677D01*
X100536583Y-49151949D01*
X100628692Y-48688888D01*
X100628692Y-48281189D01*
X100536583Y-47818128D01*
X100185715Y-47293016D01*
X99660602Y-46942148D01*
X99041192Y-46818939D01*
X98421781Y-46942148D01*
X97896669Y-47293016D01*
X97762033Y-47494513D01*
X97368116Y-47109066D01*
X96874172Y-46894476D01*
X96628192Y-47014445D01*
X96628192Y-48358039D01*
X96648192Y-48358039D01*
X96648192Y-48612039D01*
X96628192Y-48612039D01*
X96628192Y-49955633D01*
X96874172Y-50075602D01*
X97345079Y-49871020D01*
X95096192Y-52119908D01*
X95096192Y-50096178D01*
X95161457Y-50083196D01*
X95371501Y-49942848D01*
X95508447Y-49737896D01*
X95634268Y-49861012D01*
X96128212Y-50075602D01*
X96374192Y-49955633D01*
X96374192Y-48612039D01*
X96354192Y-48612039D01*
X96354192Y-48358039D01*
X96374192Y-48358039D01*
X96374192Y-47014445D01*
X96128212Y-46894476D01*
X95634268Y-47109066D01*
X95508447Y-47232182D01*
X95371501Y-47027230D01*
X95161457Y-46886882D01*
X94913692Y-46837599D01*
X93008692Y-46837599D01*
X92760927Y-46886882D01*
X92550883Y-47027230D01*
X92410535Y-47237274D01*
X92361252Y-47485039D01*
X92361252Y-49485039D01*
X92410535Y-49732804D01*
X92550883Y-49942848D01*
X92760927Y-50083196D01*
X92826192Y-50096178D01*
X92826193Y-52189907D01*
X92678501Y-52337599D01*
X92611191Y-52337599D01*
X92272286Y-52405011D01*
X92261191Y-52402804D01*
X91927471Y-52469185D01*
X91818337Y-52490893D01*
X91567192Y-52658703D01*
X91567192Y-41585039D01*
X92313752Y-41585039D01*
X92313752Y-43785039D01*
X92363035Y-44032804D01*
X92503383Y-44242848D01*
X92713427Y-44383196D01*
X92961192Y-44432479D01*
X95161192Y-44432479D01*
X95408957Y-44383196D01*
X95619001Y-44242848D01*
X95759349Y-44032804D01*
X95808632Y-43785039D01*
X95808632Y-43295039D01*
X108992202Y-43295039D01*
X109126858Y-43972002D01*
X109510327Y-44545904D01*
X110084229Y-44929373D01*
X110590312Y-45030039D01*
X110932072Y-45030039D01*
X111438155Y-44929373D01*
X112012057Y-44545904D01*
X112395526Y-43972002D01*
X112448206Y-43707158D01*
X115164192Y-43707158D01*
X115164192Y-44262920D01*
X115376872Y-44776376D01*
X115769855Y-45169359D01*
X115976705Y-45255039D01*
X115769855Y-45340719D01*
X115376872Y-45733702D01*
X115164192Y-46247158D01*
X115164192Y-46802920D01*
X115376872Y-47316376D01*
X115769855Y-47709359D01*
X115976705Y-47795039D01*
X115769855Y-47880719D01*
X115376872Y-48273702D01*
X115164192Y-48787158D01*
X115164192Y-49342920D01*
X115376872Y-49856376D01*
X115769855Y-50249359D01*
X115976705Y-50335039D01*
X115769855Y-50420719D01*
X115376872Y-50813702D01*
X115164192Y-51327158D01*
X115164192Y-51882920D01*
X115376872Y-52396376D01*
X115769855Y-52789359D01*
X116283311Y-53002039D01*
X116839073Y-53002039D01*
X117352529Y-52789359D01*
X117745512Y-52396376D01*
X117958192Y-51882920D01*
X117958192Y-51327158D01*
X117745512Y-50813702D01*
X117352529Y-50420719D01*
X117145679Y-50335039D01*
X117352529Y-50249359D01*
X117745512Y-49856376D01*
X117748137Y-49850039D01*
X121092104Y-49850039D01*
X121183761Y-50071319D01*
X121474912Y-50362470D01*
X121855318Y-50520039D01*
X122267066Y-50520039D01*
X122647472Y-50362470D01*
X122938623Y-50071319D01*
X123096192Y-49690913D01*
X123096192Y-49279165D01*
X122938623Y-48898759D01*
X122647472Y-48607608D01*
X122267066Y-48450039D01*
X122133741Y-48450039D01*
X121947484Y-48325585D01*
X121718508Y-48280039D01*
X121718504Y-48280039D01*
X121641192Y-48264661D01*
X121563880Y-48280039D01*
X117748137Y-48280039D01*
X117745512Y-48273702D01*
X117352529Y-47880719D01*
X117145679Y-47795039D01*
X117352529Y-47709359D01*
X117391849Y-47670039D01*
X120382481Y-47670039D01*
X120474912Y-47762470D01*
X120855318Y-47920039D01*
X121267066Y-47920039D01*
X121647472Y-47762470D01*
X121938623Y-47471319D01*
X122096192Y-47090913D01*
X122096192Y-46679165D01*
X121938623Y-46298759D01*
X121647472Y-46007608D01*
X121267066Y-45850039D01*
X120855318Y-45850039D01*
X120474912Y-46007608D01*
X120382481Y-46100039D01*
X117897253Y-46100039D01*
X117745512Y-45733702D01*
X117352529Y-45340719D01*
X117145679Y-45255039D01*
X117352529Y-45169359D01*
X117745512Y-44776376D01*
X117958192Y-44262920D01*
X117958192Y-43707158D01*
X117745512Y-43193702D01*
X117352529Y-42800719D01*
X117161545Y-42721611D01*
X117292335Y-42667436D01*
X117361800Y-42425252D01*
X116561192Y-41624644D01*
X115760584Y-42425252D01*
X115830049Y-42667436D01*
X115970585Y-42717574D01*
X115769855Y-42800719D01*
X115376872Y-43193702D01*
X115164192Y-43707158D01*
X112448206Y-43707158D01*
X112530182Y-43295039D01*
X112395526Y-42618076D01*
X112012057Y-42044174D01*
X111438155Y-41660705D01*
X110932072Y-41560039D01*
X110590312Y-41560039D01*
X110084229Y-41660705D01*
X109510327Y-42044174D01*
X109126858Y-42618076D01*
X108992202Y-43295039D01*
X95808632Y-43295039D01*
X95808632Y-41585039D01*
X95759349Y-41337274D01*
X95619001Y-41127230D01*
X95408957Y-40986882D01*
X95161192Y-40937599D01*
X92961192Y-40937599D01*
X92713427Y-40986882D01*
X92503383Y-41127230D01*
X92363035Y-41337274D01*
X92313752Y-41585039D01*
X91567192Y-41585039D01*
X91567192Y-38875039D01*
X92292202Y-38875039D01*
X92426858Y-39552002D01*
X92810327Y-40125904D01*
X93384229Y-40509373D01*
X93890312Y-40610039D01*
X94232072Y-40610039D01*
X94738155Y-40509373D01*
X95312057Y-40125904D01*
X95339362Y-40085039D01*
X96213752Y-40085039D01*
X96213752Y-41685039D01*
X96263035Y-41932804D01*
X96403383Y-42142848D01*
X96613427Y-42283196D01*
X96861192Y-42332479D01*
X98461192Y-42332479D01*
X98708957Y-42283196D01*
X98919001Y-42142848D01*
X99059349Y-41932804D01*
X99067309Y-41892784D01*
X99333053Y-41892784D01*
X99407187Y-42138903D01*
X99944415Y-42332004D01*
X100514646Y-42304817D01*
X100915197Y-42138903D01*
X100989331Y-41892784D01*
X100161192Y-41064644D01*
X99333053Y-41892784D01*
X99067309Y-41892784D01*
X99105885Y-41698852D01*
X99153447Y-41713178D01*
X99981587Y-40885039D01*
X100340797Y-40885039D01*
X101168937Y-41713178D01*
X101415056Y-41639044D01*
X101511477Y-41370789D01*
X102126192Y-41370789D01*
X102126192Y-42011349D01*
X102222865Y-42244738D01*
X102401494Y-42423366D01*
X102634883Y-42520039D01*
X103275442Y-42520039D01*
X103434192Y-42361289D01*
X103434192Y-41212039D01*
X102284942Y-41212039D01*
X102126192Y-41370789D01*
X101511477Y-41370789D01*
X101608157Y-41101816D01*
X101580970Y-40531585D01*
X101426528Y-40158729D01*
X102126192Y-40158729D01*
X102126192Y-40799289D01*
X102284942Y-40958039D01*
X103434192Y-40958039D01*
X103434192Y-39808789D01*
X103688192Y-39808789D01*
X103688192Y-40958039D01*
X103708192Y-40958039D01*
X103708192Y-41212039D01*
X103688192Y-41212039D01*
X103688192Y-42361289D01*
X103846942Y-42520039D01*
X104487501Y-42520039D01*
X104720890Y-42423366D01*
X104899519Y-42244738D01*
X104985037Y-42038280D01*
X105248330Y-42301573D01*
X105775753Y-42520039D01*
X106346631Y-42520039D01*
X106874054Y-42301573D01*
X107277726Y-41897901D01*
X107496192Y-41370478D01*
X107496192Y-41237341D01*
X115152048Y-41237341D01*
X115179830Y-41792407D01*
X115338795Y-42176182D01*
X115580979Y-42245647D01*
X116381587Y-41445039D01*
X116740797Y-41445039D01*
X117541405Y-42245647D01*
X117783589Y-42176182D01*
X117970336Y-41652737D01*
X117942554Y-41097671D01*
X117783589Y-40713896D01*
X117541405Y-40644431D01*
X116740797Y-41445039D01*
X116381587Y-41445039D01*
X115580979Y-40644431D01*
X115338795Y-40713896D01*
X115152048Y-41237341D01*
X107496192Y-41237341D01*
X107496192Y-40799600D01*
X107277726Y-40272177D01*
X106874054Y-39868505D01*
X106346631Y-39650039D01*
X105775753Y-39650039D01*
X105248330Y-39868505D01*
X104985037Y-40131798D01*
X104899519Y-39925340D01*
X104720890Y-39746712D01*
X104487501Y-39650039D01*
X103846942Y-39650039D01*
X103688192Y-39808789D01*
X103434192Y-39808789D01*
X103275442Y-39650039D01*
X102634883Y-39650039D01*
X102401494Y-39746712D01*
X102222865Y-39925340D01*
X102126192Y-40158729D01*
X101426528Y-40158729D01*
X101415056Y-40131034D01*
X101168937Y-40056900D01*
X100340797Y-40885039D01*
X99981587Y-40885039D01*
X99153447Y-40056900D01*
X99105885Y-40071226D01*
X99067310Y-39877294D01*
X99333053Y-39877294D01*
X100161192Y-40705434D01*
X100989331Y-39877294D01*
X100915197Y-39631175D01*
X100377969Y-39438074D01*
X99807738Y-39465261D01*
X99407187Y-39631175D01*
X99333053Y-39877294D01*
X99067310Y-39877294D01*
X99059349Y-39837274D01*
X98919001Y-39627230D01*
X98708957Y-39486882D01*
X98461192Y-39437599D01*
X96861192Y-39437599D01*
X96613427Y-39486882D01*
X96403383Y-39627230D01*
X96263035Y-39837274D01*
X96213752Y-40085039D01*
X95339362Y-40085039D01*
X95695526Y-39552002D01*
X95830182Y-38875039D01*
X95732716Y-38385039D01*
X109013752Y-38385039D01*
X109013752Y-40585039D01*
X109063035Y-40832804D01*
X109203383Y-41042848D01*
X109413427Y-41183196D01*
X109661192Y-41232479D01*
X111861192Y-41232479D01*
X112108957Y-41183196D01*
X112319001Y-41042848D01*
X112459349Y-40832804D01*
X112508632Y-40585039D01*
X112508632Y-38385039D01*
X112459349Y-38137274D01*
X112319001Y-37927230D01*
X112108957Y-37786882D01*
X111861192Y-37737599D01*
X109661192Y-37737599D01*
X109413427Y-37786882D01*
X109203383Y-37927230D01*
X109063035Y-38137274D01*
X109013752Y-38385039D01*
X95732716Y-38385039D01*
X95695526Y-38198076D01*
X95312057Y-37624174D01*
X94738155Y-37240705D01*
X94232072Y-37140039D01*
X93890312Y-37140039D01*
X93384229Y-37240705D01*
X92810327Y-37624174D01*
X92426858Y-38198076D01*
X92292202Y-38875039D01*
X91567192Y-38875039D01*
X91567192Y-36087158D01*
X115164192Y-36087158D01*
X115164192Y-36642920D01*
X115376872Y-37156376D01*
X115769855Y-37549359D01*
X115976705Y-37635039D01*
X115769855Y-37720719D01*
X115376872Y-38113702D01*
X115164192Y-38627158D01*
X115164192Y-39182920D01*
X115376872Y-39696376D01*
X115769855Y-40089359D01*
X115960839Y-40168467D01*
X115830049Y-40222642D01*
X115760584Y-40464826D01*
X116561192Y-41265434D01*
X117361800Y-40464826D01*
X117292335Y-40222642D01*
X117151799Y-40172504D01*
X117352529Y-40089359D01*
X117745512Y-39696376D01*
X117958192Y-39182920D01*
X117958192Y-38627158D01*
X117745512Y-38113702D01*
X117352529Y-37720719D01*
X117145679Y-37635039D01*
X117352529Y-37549359D01*
X117745512Y-37156376D01*
X117958192Y-36642920D01*
X117958192Y-36087158D01*
X117745512Y-35573702D01*
X117352529Y-35180719D01*
X116839073Y-34968039D01*
X116283311Y-34968039D01*
X115769855Y-35180719D01*
X115376872Y-35573702D01*
X115164192Y-36087158D01*
X91567192Y-36087158D01*
X91567192Y-33550500D01*
X96120663Y-33550500D01*
X96236972Y-34135225D01*
X96568192Y-34630930D01*
X97063897Y-34962150D01*
X97501024Y-35049100D01*
X97796220Y-35049100D01*
X98233347Y-34962150D01*
X98729052Y-34630930D01*
X98930476Y-34329479D01*
X98981801Y-34438990D01*
X99413675Y-34833188D01*
X99829596Y-35005458D01*
X100061622Y-34884317D01*
X100061622Y-33677500D01*
X100315622Y-33677500D01*
X100315622Y-34884317D01*
X100547648Y-35005458D01*
X100963569Y-34833188D01*
X101395443Y-34438990D01*
X101458622Y-34304187D01*
X101521801Y-34438990D01*
X101953675Y-34833188D01*
X102369596Y-35005458D01*
X102601622Y-34884317D01*
X102601622Y-33677500D01*
X102855622Y-33677500D01*
X102855622Y-34884317D01*
X103087648Y-35005458D01*
X103503569Y-34833188D01*
X103935443Y-34438990D01*
X103998622Y-34304187D01*
X104061801Y-34438990D01*
X104493675Y-34833188D01*
X104909596Y-35005458D01*
X105141622Y-34884317D01*
X105141622Y-33677500D01*
X102855622Y-33677500D01*
X102601622Y-33677500D01*
X100315622Y-33677500D01*
X100061622Y-33677500D01*
X100041622Y-33677500D01*
X100041622Y-33423500D01*
X100061622Y-33423500D01*
X100061622Y-31137500D01*
X100315622Y-31137500D01*
X100315622Y-33423500D01*
X102601622Y-33423500D01*
X102601622Y-31137500D01*
X102855622Y-31137500D01*
X102855622Y-33423500D01*
X105141622Y-33423500D01*
X105141622Y-31137500D01*
X102855622Y-31137500D01*
X102601622Y-31137500D01*
X100315622Y-31137500D01*
X100061622Y-31137500D01*
X100041622Y-31137500D01*
X100041622Y-30883500D01*
X100061622Y-30883500D01*
X100061622Y-29676683D01*
X100315622Y-29676683D01*
X100315622Y-30883500D01*
X102601622Y-30883500D01*
X102601622Y-29676683D01*
X102855622Y-29676683D01*
X102855622Y-30883500D01*
X105141622Y-30883500D01*
X105141622Y-29676683D01*
X105395622Y-29676683D01*
X105395622Y-30883500D01*
X105415622Y-30883500D01*
X105415622Y-31137500D01*
X105395622Y-31137500D01*
X105395622Y-33423500D01*
X105415622Y-33423500D01*
X105415622Y-33677500D01*
X105395622Y-33677500D01*
X105395622Y-34884317D01*
X105627648Y-35005458D01*
X106043569Y-34833188D01*
X106475443Y-34438990D01*
X106526768Y-34329479D01*
X106728192Y-34630930D01*
X107223897Y-34962150D01*
X107661024Y-35049100D01*
X107956220Y-35049100D01*
X108393347Y-34962150D01*
X108889052Y-34630930D01*
X109220272Y-34135225D01*
X109336581Y-33550500D01*
X109220272Y-32965775D01*
X108889052Y-32470070D01*
X108605341Y-32280500D01*
X108889052Y-32090930D01*
X109220272Y-31595225D01*
X109336581Y-31010500D01*
X109220272Y-30425775D01*
X108889052Y-29930070D01*
X108393347Y-29598850D01*
X107956220Y-29511900D01*
X107661024Y-29511900D01*
X107223897Y-29598850D01*
X106728192Y-29930070D01*
X106526768Y-30231521D01*
X106475443Y-30122010D01*
X106043569Y-29727812D01*
X105627648Y-29555542D01*
X105395622Y-29676683D01*
X105141622Y-29676683D01*
X104909596Y-29555542D01*
X104493675Y-29727812D01*
X104061801Y-30122010D01*
X103998622Y-30256813D01*
X103935443Y-30122010D01*
X103503569Y-29727812D01*
X103087648Y-29555542D01*
X102855622Y-29676683D01*
X102601622Y-29676683D01*
X102369596Y-29555542D01*
X101953675Y-29727812D01*
X101521801Y-30122010D01*
X101458622Y-30256813D01*
X101395443Y-30122010D01*
X100963569Y-29727812D01*
X100547648Y-29555542D01*
X100315622Y-29676683D01*
X100061622Y-29676683D01*
X99829596Y-29555542D01*
X99413675Y-29727812D01*
X99128142Y-29988436D01*
X99110379Y-29899135D01*
X98970031Y-29689091D01*
X98759987Y-29548743D01*
X98512222Y-29499460D01*
X96785022Y-29499460D01*
X96537257Y-29548743D01*
X96327213Y-29689091D01*
X96186865Y-29899135D01*
X96137582Y-30146900D01*
X96137582Y-31874100D01*
X96186865Y-32121865D01*
X96327213Y-32331909D01*
X96537257Y-32472257D01*
X96563273Y-32477432D01*
X96236972Y-32965775D01*
X96120663Y-33550500D01*
X91567192Y-33550500D01*
X91567192Y-25411039D01*
X137500351Y-25411039D01*
X137463752Y-25595039D01*
G04 #@! TD*
M02*
