M48
;DRILL file {KiCad (5.0.1)-3} date 29/01/2020 22:52:50
;FORMAT={-:-/ absolute / inch / decimal}
FMAT,2
INCH,TZ
T1C0.0157
T2C0.0300
T3C0.0315
T4C0.0394
T5C0.0400
T6C0.0433
%
G90
G05
M72
T1
X3.6323Y-2.897
X3.8606Y-2.5576
X3.9671Y-3.2525
X4.0571Y-3.2425
X4.0571Y-4.0225
X4.1087Y-2.7278
X4.1571Y-3.9425
X4.1906Y-2.4876
X4.2071Y-3.2725
X4.2071Y-3.3325
X4.2671Y-3.7825
X4.3571Y-4.6325
X4.3686Y-2.7278
X4.4355Y-2.9207
X4.4371Y-4.4425
X4.5006Y-2.4676
X4.5071Y-4.0625
X4.5471Y-3.9425
X4.5871Y-4.5325
X4.6371Y-4.0625
X4.6406Y-2.8376
X4.7106Y-3.0976
X4.7206Y-1.6676
X4.7371Y-3.8106
X4.7662Y-1.8459
X4.7671Y-4.1025
X4.8056Y-1.9482
X4.8471Y-4.0525
X4.8671Y-2.6096
X4.8671Y-3.0425
X4.8771Y-3.1725
X4.8971Y-4.3325
X4.9871Y-3.1925
X5.0471Y-4.0733
X5.0806Y-3.4276
X5.1306Y-3.0876
X5.2106Y-2.4376
X5.2171Y-2.5348
X5.2971Y-3.7625
X5.3006Y-2.5376
X5.3106Y-2.8476
X5.3452Y-3.9025
X5.3671Y-4.2025
X5.3771Y-4.0025
T2
X5.189Y-1.3317
T3
X3.6835Y-3.0112
X3.7623Y-3.0112
X3.8449Y-1.6096
X3.9434Y-1.6096
X4.589Y-1.4317
X4.589Y-1.5317
X4.589Y-1.6317
X4.589Y-1.7317
X4.589Y-1.8317
X4.589Y-1.9317
X4.589Y-2.0317
X5.189Y-1.1317
X5.189Y-1.2317
X5.189Y-1.4317
X5.189Y-1.5317
X5.189Y-1.6317
X5.189Y-1.7317
X5.189Y-1.8317
X5.189Y-1.9317
X5.189Y-2.0317
X5.189Y-2.1317
X5.189Y-2.2317
X5.189Y-2.3317
X4.0772Y-1.6175
X4.1756Y-1.6175
X4.3252Y-2.3262
X4.404Y-2.3262
X4.2819Y-3.027
X4.3607Y-3.027
X3.8843Y-2.1608
X3.963Y-2.1608
T4
X5.4709Y-1.0411
X5.4709Y-1.1411
X5.4709Y-1.2411
X5.4709Y-1.3411
X5.4709Y-1.4411
X5.4709Y-1.5411
X5.4709Y-1.6411
X5.4709Y-1.7411
X5.4709Y-1.8411
X5.4709Y-1.9411
X5.4709Y-2.0411
X5.4709Y-2.1411
X5.4709Y-2.2411
X5.4709Y-2.3411
X5.4709Y-2.4411
X5.4709Y-2.5411
X5.4709Y-2.6411
X5.4709Y-2.7411
X5.4709Y-2.8411
X5.4709Y-2.9411
X5.4709Y-3.0411
X5.4709Y-3.1411
X5.4709Y-3.2411
X5.4709Y-3.3411
X5.4709Y-3.4411
X5.4709Y-3.5411
X5.4709Y-3.6411
X5.4709Y-3.7411
X5.4709Y-3.8411
X5.4709Y-3.9411
X5.4709Y-4.0411
X5.4709Y-4.1411
X5.4709Y-4.2411
X5.4709Y-4.3411
X5.4709Y-4.4411
X5.4709Y-4.5411
X5.4709Y-4.6411
T5
X3.8444Y-1.2209
X3.8444Y-1.3209
X3.9444Y-1.2209
X3.9444Y-1.3209
X4.0444Y-1.2209
X4.0444Y-1.3209
X4.1444Y-1.2209
X4.1444Y-1.3209
X4.2444Y-1.2209
X4.2444Y-1.3209
T6
X3.6993Y-1.9089
X3.7993Y-1.9089
X3.8993Y-1.9089
X4.1449Y-2.0112
X4.2449Y-2.0112
X4.3449Y-2.0112
X3.8367Y-3.6128
X3.8367Y-3.7128
X3.8367Y-3.8128
X3.8367Y-3.9128
X3.8367Y-4.0128
X3.8367Y-4.1128
X3.8367Y-4.2128
X3.9367Y-3.6128
X3.9367Y-4.2128
X4.0367Y-3.6128
X4.0367Y-4.2128
X4.1367Y-3.6128
X4.1367Y-4.2128
X4.2367Y-3.6128
X4.2367Y-4.2128
X4.3367Y-3.6128
X4.3367Y-4.2128
X4.4367Y-3.6128
X4.4367Y-4.2128
X4.5367Y-3.6128
X4.5367Y-4.2128
X4.6367Y-3.6128
X4.6367Y-3.7128
X4.6367Y-4.2128
X4.7367Y-3.6128
X4.7367Y-3.7128
X4.7367Y-4.2128
X4.8367Y-3.6128
X4.8367Y-3.7128
X4.8367Y-4.2128
X4.9367Y-3.6128
X4.9367Y-4.2128
X5.0367Y-3.6128
X5.0367Y-3.7128
X5.0367Y-4.2128
X5.1367Y-3.6128
X5.1367Y-4.2128
X4.3607Y-1.5545
X4.3607Y-1.7045
X4.1843Y-2.8301
X4.2843Y-2.8301
X4.3843Y-2.8301
X3.7237Y-2.8222
X3.8237Y-2.8222
X3.9237Y-2.8222
X3.7032Y-1.5305
X3.7032Y-1.6805
T0
M30
