G04 #@! TF.GenerationSoftware,KiCad,Pcbnew,(5.0.1)-3*
G04 #@! TF.CreationDate,2020-01-29T22:52:42+00:00*
G04 #@! TF.ProjectId,SSv2 Power Board,5353763220506F77657220426F617264,rev?*
G04 #@! TF.SameCoordinates,Original*
G04 #@! TF.FileFunction,Soldermask,Bot*
G04 #@! TF.FilePolarity,Negative*
%FSLAX46Y46*%
G04 Gerber Fmt 4.6, Leading zero omitted, Abs format (unit mm)*
G04 Created by KiCad (PCBNEW (5.0.1)-3) date 29/01/2020 22:52:42*
%MOMM*%
%LPD*%
G01*
G04 APERTURE LIST*
%ADD10C,0.100000*%
G04 APERTURE END LIST*
D10*
G36*
X139071634Y-116990557D02*
X139137819Y-116997076D01*
X139251045Y-117031423D01*
X139307659Y-117048596D01*
X139446279Y-117122691D01*
X139464183Y-117132261D01*
X139499921Y-117161591D01*
X139601378Y-117244853D01*
X139684640Y-117346310D01*
X139713970Y-117382048D01*
X139713971Y-117382050D01*
X139797635Y-117538572D01*
X139797635Y-117538573D01*
X139849155Y-117708412D01*
X139866551Y-117885039D01*
X139849155Y-118061666D01*
X139814808Y-118174892D01*
X139797635Y-118231506D01*
X139723540Y-118370126D01*
X139713970Y-118388030D01*
X139684640Y-118423768D01*
X139601378Y-118525225D01*
X139499921Y-118608487D01*
X139464183Y-118637817D01*
X139464181Y-118637818D01*
X139307659Y-118721482D01*
X139251045Y-118738655D01*
X139137819Y-118773002D01*
X139071634Y-118779521D01*
X139005452Y-118786039D01*
X138916932Y-118786039D01*
X138850750Y-118779521D01*
X138784565Y-118773002D01*
X138671339Y-118738655D01*
X138614725Y-118721482D01*
X138458203Y-118637818D01*
X138458201Y-118637817D01*
X138422463Y-118608487D01*
X138321006Y-118525225D01*
X138237744Y-118423768D01*
X138208414Y-118388030D01*
X138198844Y-118370126D01*
X138124749Y-118231506D01*
X138107576Y-118174892D01*
X138073229Y-118061666D01*
X138055833Y-117885039D01*
X138073229Y-117708412D01*
X138124749Y-117538573D01*
X138124749Y-117538572D01*
X138208413Y-117382050D01*
X138208414Y-117382048D01*
X138237744Y-117346310D01*
X138321006Y-117244853D01*
X138422463Y-117161591D01*
X138458201Y-117132261D01*
X138476105Y-117122691D01*
X138614725Y-117048596D01*
X138671339Y-117031423D01*
X138784565Y-116997076D01*
X138850750Y-116990557D01*
X138916932Y-116984039D01*
X139005452Y-116984039D01*
X139071634Y-116990557D01*
X139071634Y-116990557D01*
G37*
G36*
X139071635Y-114450558D02*
X139137819Y-114457076D01*
X139251045Y-114491423D01*
X139307659Y-114508596D01*
X139446279Y-114582691D01*
X139464183Y-114592261D01*
X139499921Y-114621591D01*
X139601378Y-114704853D01*
X139684640Y-114806310D01*
X139713970Y-114842048D01*
X139713971Y-114842050D01*
X139797635Y-114998572D01*
X139797635Y-114998573D01*
X139849155Y-115168412D01*
X139866551Y-115345039D01*
X139849155Y-115521666D01*
X139814808Y-115634892D01*
X139797635Y-115691506D01*
X139723540Y-115830126D01*
X139713970Y-115848030D01*
X139684640Y-115883768D01*
X139601378Y-115985225D01*
X139499921Y-116068487D01*
X139464183Y-116097817D01*
X139464181Y-116097818D01*
X139307659Y-116181482D01*
X139251045Y-116198655D01*
X139137819Y-116233002D01*
X139071634Y-116239521D01*
X139005452Y-116246039D01*
X138916932Y-116246039D01*
X138850750Y-116239521D01*
X138784565Y-116233002D01*
X138671339Y-116198655D01*
X138614725Y-116181482D01*
X138458203Y-116097818D01*
X138458201Y-116097817D01*
X138422463Y-116068487D01*
X138321006Y-115985225D01*
X138237744Y-115883768D01*
X138208414Y-115848030D01*
X138198844Y-115830126D01*
X138124749Y-115691506D01*
X138107576Y-115634892D01*
X138073229Y-115521666D01*
X138055833Y-115345039D01*
X138073229Y-115168412D01*
X138124749Y-114998573D01*
X138124749Y-114998572D01*
X138208413Y-114842050D01*
X138208414Y-114842048D01*
X138237744Y-114806310D01*
X138321006Y-114704853D01*
X138422463Y-114621591D01*
X138458201Y-114592261D01*
X138476105Y-114582691D01*
X138614725Y-114508596D01*
X138671339Y-114491423D01*
X138784565Y-114457076D01*
X138850749Y-114450558D01*
X138916932Y-114444039D01*
X139005452Y-114444039D01*
X139071635Y-114450558D01*
X139071635Y-114450558D01*
G37*
G36*
X139071635Y-111910558D02*
X139137819Y-111917076D01*
X139251045Y-111951423D01*
X139307659Y-111968596D01*
X139446279Y-112042691D01*
X139464183Y-112052261D01*
X139499921Y-112081591D01*
X139601378Y-112164853D01*
X139684640Y-112266310D01*
X139713970Y-112302048D01*
X139713971Y-112302050D01*
X139797635Y-112458572D01*
X139797635Y-112458573D01*
X139849155Y-112628412D01*
X139866551Y-112805039D01*
X139849155Y-112981666D01*
X139814808Y-113094892D01*
X139797635Y-113151506D01*
X139723540Y-113290126D01*
X139713970Y-113308030D01*
X139684640Y-113343768D01*
X139601378Y-113445225D01*
X139499921Y-113528487D01*
X139464183Y-113557817D01*
X139464181Y-113557818D01*
X139307659Y-113641482D01*
X139251045Y-113658655D01*
X139137819Y-113693002D01*
X139071635Y-113699520D01*
X139005452Y-113706039D01*
X138916932Y-113706039D01*
X138850749Y-113699520D01*
X138784565Y-113693002D01*
X138671339Y-113658655D01*
X138614725Y-113641482D01*
X138458203Y-113557818D01*
X138458201Y-113557817D01*
X138422463Y-113528487D01*
X138321006Y-113445225D01*
X138237744Y-113343768D01*
X138208414Y-113308030D01*
X138198844Y-113290126D01*
X138124749Y-113151506D01*
X138107576Y-113094892D01*
X138073229Y-112981666D01*
X138055833Y-112805039D01*
X138073229Y-112628412D01*
X138124749Y-112458573D01*
X138124749Y-112458572D01*
X138208413Y-112302050D01*
X138208414Y-112302048D01*
X138237744Y-112266310D01*
X138321006Y-112164853D01*
X138422463Y-112081591D01*
X138458201Y-112052261D01*
X138476105Y-112042691D01*
X138614725Y-111968596D01*
X138671339Y-111951423D01*
X138784565Y-111917076D01*
X138850749Y-111910558D01*
X138916932Y-111904039D01*
X139005452Y-111904039D01*
X139071635Y-111910558D01*
X139071635Y-111910558D01*
G37*
G36*
X139071634Y-109370557D02*
X139137819Y-109377076D01*
X139251045Y-109411423D01*
X139307659Y-109428596D01*
X139446279Y-109502691D01*
X139464183Y-109512261D01*
X139499921Y-109541591D01*
X139601378Y-109624853D01*
X139684640Y-109726310D01*
X139713970Y-109762048D01*
X139713971Y-109762050D01*
X139797635Y-109918572D01*
X139797635Y-109918573D01*
X139849155Y-110088412D01*
X139866551Y-110265039D01*
X139849155Y-110441666D01*
X139814808Y-110554892D01*
X139797635Y-110611506D01*
X139723540Y-110750126D01*
X139713970Y-110768030D01*
X139684640Y-110803768D01*
X139601378Y-110905225D01*
X139499921Y-110988487D01*
X139464183Y-111017817D01*
X139464181Y-111017818D01*
X139307659Y-111101482D01*
X139251045Y-111118655D01*
X139137819Y-111153002D01*
X139071634Y-111159521D01*
X139005452Y-111166039D01*
X138916932Y-111166039D01*
X138850750Y-111159521D01*
X138784565Y-111153002D01*
X138671339Y-111118655D01*
X138614725Y-111101482D01*
X138458203Y-111017818D01*
X138458201Y-111017817D01*
X138422463Y-110988487D01*
X138321006Y-110905225D01*
X138237744Y-110803768D01*
X138208414Y-110768030D01*
X138198844Y-110750126D01*
X138124749Y-110611506D01*
X138107576Y-110554892D01*
X138073229Y-110441666D01*
X138055833Y-110265039D01*
X138073229Y-110088412D01*
X138124749Y-109918573D01*
X138124749Y-109918572D01*
X138208413Y-109762050D01*
X138208414Y-109762048D01*
X138237744Y-109726310D01*
X138321006Y-109624853D01*
X138422463Y-109541591D01*
X138458201Y-109512261D01*
X138476105Y-109502691D01*
X138614725Y-109428596D01*
X138671339Y-109411423D01*
X138784565Y-109377076D01*
X138850750Y-109370557D01*
X138916932Y-109364039D01*
X139005452Y-109364039D01*
X139071634Y-109370557D01*
X139071634Y-109370557D01*
G37*
G36*
X139071635Y-106830558D02*
X139137819Y-106837076D01*
X139251045Y-106871423D01*
X139307659Y-106888596D01*
X139446279Y-106962691D01*
X139464183Y-106972261D01*
X139499921Y-107001591D01*
X139601378Y-107084853D01*
X139684640Y-107186310D01*
X139713970Y-107222048D01*
X139713971Y-107222050D01*
X139797635Y-107378572D01*
X139797635Y-107378573D01*
X139849155Y-107548412D01*
X139866551Y-107725039D01*
X139849155Y-107901666D01*
X139814808Y-108014892D01*
X139797635Y-108071506D01*
X139723540Y-108210126D01*
X139713970Y-108228030D01*
X139684640Y-108263768D01*
X139601378Y-108365225D01*
X139499921Y-108448487D01*
X139464183Y-108477817D01*
X139464181Y-108477818D01*
X139307659Y-108561482D01*
X139251045Y-108578655D01*
X139137819Y-108613002D01*
X139071634Y-108619521D01*
X139005452Y-108626039D01*
X138916932Y-108626039D01*
X138850750Y-108619521D01*
X138784565Y-108613002D01*
X138671339Y-108578655D01*
X138614725Y-108561482D01*
X138458203Y-108477818D01*
X138458201Y-108477817D01*
X138422463Y-108448487D01*
X138321006Y-108365225D01*
X138237744Y-108263768D01*
X138208414Y-108228030D01*
X138198844Y-108210126D01*
X138124749Y-108071506D01*
X138107576Y-108014892D01*
X138073229Y-107901666D01*
X138055833Y-107725039D01*
X138073229Y-107548412D01*
X138124749Y-107378573D01*
X138124749Y-107378572D01*
X138208413Y-107222050D01*
X138208414Y-107222048D01*
X138237744Y-107186310D01*
X138321006Y-107084853D01*
X138422463Y-107001591D01*
X138458201Y-106972261D01*
X138476105Y-106962691D01*
X138614725Y-106888596D01*
X138671339Y-106871423D01*
X138784565Y-106837076D01*
X138850749Y-106830558D01*
X138916932Y-106824039D01*
X139005452Y-106824039D01*
X139071635Y-106830558D01*
X139071635Y-106830558D01*
G37*
G36*
X128179420Y-106186742D02*
X128334292Y-106250892D01*
X128473673Y-106344024D01*
X128592207Y-106462558D01*
X128685339Y-106601939D01*
X128749489Y-106756811D01*
X128782192Y-106921223D01*
X128782192Y-107088855D01*
X128749489Y-107253267D01*
X128685339Y-107408139D01*
X128592207Y-107547520D01*
X128473673Y-107666054D01*
X128334292Y-107759186D01*
X128179420Y-107823336D01*
X128015008Y-107856039D01*
X127847376Y-107856039D01*
X127682964Y-107823336D01*
X127528092Y-107759186D01*
X127388711Y-107666054D01*
X127270177Y-107547520D01*
X127177045Y-107408139D01*
X127112895Y-107253267D01*
X127080192Y-107088855D01*
X127080192Y-106921223D01*
X127112895Y-106756811D01*
X127177045Y-106601939D01*
X127270177Y-106462558D01*
X127388711Y-106344024D01*
X127528092Y-106250892D01*
X127682964Y-106186742D01*
X127847376Y-106154039D01*
X128015008Y-106154039D01*
X128179420Y-106186742D01*
X128179420Y-106186742D01*
G37*
G36*
X97699420Y-106186742D02*
X97854292Y-106250892D01*
X97993673Y-106344024D01*
X98112207Y-106462558D01*
X98205339Y-106601939D01*
X98269489Y-106756811D01*
X98302192Y-106921223D01*
X98302192Y-107088855D01*
X98269489Y-107253267D01*
X98205339Y-107408139D01*
X98112207Y-107547520D01*
X97993673Y-107666054D01*
X97854292Y-107759186D01*
X97699420Y-107823336D01*
X97535008Y-107856039D01*
X97367376Y-107856039D01*
X97202964Y-107823336D01*
X97048092Y-107759186D01*
X96908711Y-107666054D01*
X96790177Y-107547520D01*
X96697045Y-107408139D01*
X96632895Y-107253267D01*
X96600192Y-107088855D01*
X96600192Y-106921223D01*
X96632895Y-106756811D01*
X96697045Y-106601939D01*
X96790177Y-106462558D01*
X96908711Y-106344024D01*
X97048092Y-106250892D01*
X97202964Y-106186742D01*
X97367376Y-106154039D01*
X97535008Y-106154039D01*
X97699420Y-106186742D01*
X97699420Y-106186742D01*
G37*
G36*
X100239420Y-106186742D02*
X100394292Y-106250892D01*
X100533673Y-106344024D01*
X100652207Y-106462558D01*
X100745339Y-106601939D01*
X100809489Y-106756811D01*
X100842192Y-106921223D01*
X100842192Y-107088855D01*
X100809489Y-107253267D01*
X100745339Y-107408139D01*
X100652207Y-107547520D01*
X100533673Y-107666054D01*
X100394292Y-107759186D01*
X100239420Y-107823336D01*
X100075008Y-107856039D01*
X99907376Y-107856039D01*
X99742964Y-107823336D01*
X99588092Y-107759186D01*
X99448711Y-107666054D01*
X99330177Y-107547520D01*
X99237045Y-107408139D01*
X99172895Y-107253267D01*
X99140192Y-107088855D01*
X99140192Y-106921223D01*
X99172895Y-106756811D01*
X99237045Y-106601939D01*
X99330177Y-106462558D01*
X99448711Y-106344024D01*
X99588092Y-106250892D01*
X99742964Y-106186742D01*
X99907376Y-106154039D01*
X100075008Y-106154039D01*
X100239420Y-106186742D01*
X100239420Y-106186742D01*
G37*
G36*
X102779420Y-106186742D02*
X102934292Y-106250892D01*
X103073673Y-106344024D01*
X103192207Y-106462558D01*
X103285339Y-106601939D01*
X103349489Y-106756811D01*
X103382192Y-106921223D01*
X103382192Y-107088855D01*
X103349489Y-107253267D01*
X103285339Y-107408139D01*
X103192207Y-107547520D01*
X103073673Y-107666054D01*
X102934292Y-107759186D01*
X102779420Y-107823336D01*
X102615008Y-107856039D01*
X102447376Y-107856039D01*
X102282964Y-107823336D01*
X102128092Y-107759186D01*
X101988711Y-107666054D01*
X101870177Y-107547520D01*
X101777045Y-107408139D01*
X101712895Y-107253267D01*
X101680192Y-107088855D01*
X101680192Y-106921223D01*
X101712895Y-106756811D01*
X101777045Y-106601939D01*
X101870177Y-106462558D01*
X101988711Y-106344024D01*
X102128092Y-106250892D01*
X102282964Y-106186742D01*
X102447376Y-106154039D01*
X102615008Y-106154039D01*
X102779420Y-106186742D01*
X102779420Y-106186742D01*
G37*
G36*
X105319420Y-106186742D02*
X105474292Y-106250892D01*
X105613673Y-106344024D01*
X105732207Y-106462558D01*
X105825339Y-106601939D01*
X105889489Y-106756811D01*
X105922192Y-106921223D01*
X105922192Y-107088855D01*
X105889489Y-107253267D01*
X105825339Y-107408139D01*
X105732207Y-107547520D01*
X105613673Y-107666054D01*
X105474292Y-107759186D01*
X105319420Y-107823336D01*
X105155008Y-107856039D01*
X104987376Y-107856039D01*
X104822964Y-107823336D01*
X104668092Y-107759186D01*
X104528711Y-107666054D01*
X104410177Y-107547520D01*
X104317045Y-107408139D01*
X104252895Y-107253267D01*
X104220192Y-107088855D01*
X104220192Y-106921223D01*
X104252895Y-106756811D01*
X104317045Y-106601939D01*
X104410177Y-106462558D01*
X104528711Y-106344024D01*
X104668092Y-106250892D01*
X104822964Y-106186742D01*
X104987376Y-106154039D01*
X105155008Y-106154039D01*
X105319420Y-106186742D01*
X105319420Y-106186742D01*
G37*
G36*
X131322192Y-107856039D02*
X129620192Y-107856039D01*
X129620192Y-106154039D01*
X131322192Y-106154039D01*
X131322192Y-107856039D01*
X131322192Y-107856039D01*
G37*
G36*
X125639420Y-106186742D02*
X125794292Y-106250892D01*
X125933673Y-106344024D01*
X126052207Y-106462558D01*
X126145339Y-106601939D01*
X126209489Y-106756811D01*
X126242192Y-106921223D01*
X126242192Y-107088855D01*
X126209489Y-107253267D01*
X126145339Y-107408139D01*
X126052207Y-107547520D01*
X125933673Y-107666054D01*
X125794292Y-107759186D01*
X125639420Y-107823336D01*
X125475008Y-107856039D01*
X125307376Y-107856039D01*
X125142964Y-107823336D01*
X124988092Y-107759186D01*
X124848711Y-107666054D01*
X124730177Y-107547520D01*
X124637045Y-107408139D01*
X124572895Y-107253267D01*
X124540192Y-107088855D01*
X124540192Y-106921223D01*
X124572895Y-106756811D01*
X124637045Y-106601939D01*
X124730177Y-106462558D01*
X124848711Y-106344024D01*
X124988092Y-106250892D01*
X125142964Y-106186742D01*
X125307376Y-106154039D01*
X125475008Y-106154039D01*
X125639420Y-106186742D01*
X125639420Y-106186742D01*
G37*
G36*
X123099420Y-106186742D02*
X123254292Y-106250892D01*
X123393673Y-106344024D01*
X123512207Y-106462558D01*
X123605339Y-106601939D01*
X123669489Y-106756811D01*
X123702192Y-106921223D01*
X123702192Y-107088855D01*
X123669489Y-107253267D01*
X123605339Y-107408139D01*
X123512207Y-107547520D01*
X123393673Y-107666054D01*
X123254292Y-107759186D01*
X123099420Y-107823336D01*
X122935008Y-107856039D01*
X122767376Y-107856039D01*
X122602964Y-107823336D01*
X122448092Y-107759186D01*
X122308711Y-107666054D01*
X122190177Y-107547520D01*
X122097045Y-107408139D01*
X122032895Y-107253267D01*
X122000192Y-107088855D01*
X122000192Y-106921223D01*
X122032895Y-106756811D01*
X122097045Y-106601939D01*
X122190177Y-106462558D01*
X122308711Y-106344024D01*
X122448092Y-106250892D01*
X122602964Y-106186742D01*
X122767376Y-106154039D01*
X122935008Y-106154039D01*
X123099420Y-106186742D01*
X123099420Y-106186742D01*
G37*
G36*
X120559420Y-106186742D02*
X120714292Y-106250892D01*
X120853673Y-106344024D01*
X120972207Y-106462558D01*
X121065339Y-106601939D01*
X121129489Y-106756811D01*
X121162192Y-106921223D01*
X121162192Y-107088855D01*
X121129489Y-107253267D01*
X121065339Y-107408139D01*
X120972207Y-107547520D01*
X120853673Y-107666054D01*
X120714292Y-107759186D01*
X120559420Y-107823336D01*
X120395008Y-107856039D01*
X120227376Y-107856039D01*
X120062964Y-107823336D01*
X119908092Y-107759186D01*
X119768711Y-107666054D01*
X119650177Y-107547520D01*
X119557045Y-107408139D01*
X119492895Y-107253267D01*
X119460192Y-107088855D01*
X119460192Y-106921223D01*
X119492895Y-106756811D01*
X119557045Y-106601939D01*
X119650177Y-106462558D01*
X119768711Y-106344024D01*
X119908092Y-106250892D01*
X120062964Y-106186742D01*
X120227376Y-106154039D01*
X120395008Y-106154039D01*
X120559420Y-106186742D01*
X120559420Y-106186742D01*
G37*
G36*
X118019420Y-106186742D02*
X118174292Y-106250892D01*
X118313673Y-106344024D01*
X118432207Y-106462558D01*
X118525339Y-106601939D01*
X118589489Y-106756811D01*
X118622192Y-106921223D01*
X118622192Y-107088855D01*
X118589489Y-107253267D01*
X118525339Y-107408139D01*
X118432207Y-107547520D01*
X118313673Y-107666054D01*
X118174292Y-107759186D01*
X118019420Y-107823336D01*
X117855008Y-107856039D01*
X117687376Y-107856039D01*
X117522964Y-107823336D01*
X117368092Y-107759186D01*
X117228711Y-107666054D01*
X117110177Y-107547520D01*
X117017045Y-107408139D01*
X116952895Y-107253267D01*
X116920192Y-107088855D01*
X116920192Y-106921223D01*
X116952895Y-106756811D01*
X117017045Y-106601939D01*
X117110177Y-106462558D01*
X117228711Y-106344024D01*
X117368092Y-106250892D01*
X117522964Y-106186742D01*
X117687376Y-106154039D01*
X117855008Y-106154039D01*
X118019420Y-106186742D01*
X118019420Y-106186742D01*
G37*
G36*
X115479420Y-106186742D02*
X115634292Y-106250892D01*
X115773673Y-106344024D01*
X115892207Y-106462558D01*
X115985339Y-106601939D01*
X116049489Y-106756811D01*
X116082192Y-106921223D01*
X116082192Y-107088855D01*
X116049489Y-107253267D01*
X115985339Y-107408139D01*
X115892207Y-107547520D01*
X115773673Y-107666054D01*
X115634292Y-107759186D01*
X115479420Y-107823336D01*
X115315008Y-107856039D01*
X115147376Y-107856039D01*
X114982964Y-107823336D01*
X114828092Y-107759186D01*
X114688711Y-107666054D01*
X114570177Y-107547520D01*
X114477045Y-107408139D01*
X114412895Y-107253267D01*
X114380192Y-107088855D01*
X114380192Y-106921223D01*
X114412895Y-106756811D01*
X114477045Y-106601939D01*
X114570177Y-106462558D01*
X114688711Y-106344024D01*
X114828092Y-106250892D01*
X114982964Y-106186742D01*
X115147376Y-106154039D01*
X115315008Y-106154039D01*
X115479420Y-106186742D01*
X115479420Y-106186742D01*
G37*
G36*
X112939420Y-106186742D02*
X113094292Y-106250892D01*
X113233673Y-106344024D01*
X113352207Y-106462558D01*
X113445339Y-106601939D01*
X113509489Y-106756811D01*
X113542192Y-106921223D01*
X113542192Y-107088855D01*
X113509489Y-107253267D01*
X113445339Y-107408139D01*
X113352207Y-107547520D01*
X113233673Y-107666054D01*
X113094292Y-107759186D01*
X112939420Y-107823336D01*
X112775008Y-107856039D01*
X112607376Y-107856039D01*
X112442964Y-107823336D01*
X112288092Y-107759186D01*
X112148711Y-107666054D01*
X112030177Y-107547520D01*
X111937045Y-107408139D01*
X111872895Y-107253267D01*
X111840192Y-107088855D01*
X111840192Y-106921223D01*
X111872895Y-106756811D01*
X111937045Y-106601939D01*
X112030177Y-106462558D01*
X112148711Y-106344024D01*
X112288092Y-106250892D01*
X112442964Y-106186742D01*
X112607376Y-106154039D01*
X112775008Y-106154039D01*
X112939420Y-106186742D01*
X112939420Y-106186742D01*
G37*
G36*
X110399420Y-106186742D02*
X110554292Y-106250892D01*
X110693673Y-106344024D01*
X110812207Y-106462558D01*
X110905339Y-106601939D01*
X110969489Y-106756811D01*
X111002192Y-106921223D01*
X111002192Y-107088855D01*
X110969489Y-107253267D01*
X110905339Y-107408139D01*
X110812207Y-107547520D01*
X110693673Y-107666054D01*
X110554292Y-107759186D01*
X110399420Y-107823336D01*
X110235008Y-107856039D01*
X110067376Y-107856039D01*
X109902964Y-107823336D01*
X109748092Y-107759186D01*
X109608711Y-107666054D01*
X109490177Y-107547520D01*
X109397045Y-107408139D01*
X109332895Y-107253267D01*
X109300192Y-107088855D01*
X109300192Y-106921223D01*
X109332895Y-106756811D01*
X109397045Y-106601939D01*
X109490177Y-106462558D01*
X109608711Y-106344024D01*
X109748092Y-106250892D01*
X109902964Y-106186742D01*
X110067376Y-106154039D01*
X110235008Y-106154039D01*
X110399420Y-106186742D01*
X110399420Y-106186742D01*
G37*
G36*
X107859420Y-106186742D02*
X108014292Y-106250892D01*
X108153673Y-106344024D01*
X108272207Y-106462558D01*
X108365339Y-106601939D01*
X108429489Y-106756811D01*
X108462192Y-106921223D01*
X108462192Y-107088855D01*
X108429489Y-107253267D01*
X108365339Y-107408139D01*
X108272207Y-107547520D01*
X108153673Y-107666054D01*
X108014292Y-107759186D01*
X107859420Y-107823336D01*
X107695008Y-107856039D01*
X107527376Y-107856039D01*
X107362964Y-107823336D01*
X107208092Y-107759186D01*
X107068711Y-107666054D01*
X106950177Y-107547520D01*
X106857045Y-107408139D01*
X106792895Y-107253267D01*
X106760192Y-107088855D01*
X106760192Y-106921223D01*
X106792895Y-106756811D01*
X106857045Y-106601939D01*
X106950177Y-106462558D01*
X107068711Y-106344024D01*
X107208092Y-106250892D01*
X107362964Y-106186742D01*
X107527376Y-106154039D01*
X107695008Y-106154039D01*
X107859420Y-106186742D01*
X107859420Y-106186742D01*
G37*
G36*
X139071634Y-104290557D02*
X139137819Y-104297076D01*
X139251045Y-104331423D01*
X139307659Y-104348596D01*
X139446279Y-104422691D01*
X139464183Y-104432261D01*
X139499921Y-104461591D01*
X139601378Y-104544853D01*
X139684640Y-104646310D01*
X139713970Y-104682048D01*
X139713971Y-104682050D01*
X139797635Y-104838572D01*
X139797635Y-104838573D01*
X139849155Y-105008412D01*
X139866551Y-105185039D01*
X139849155Y-105361666D01*
X139814808Y-105474892D01*
X139797635Y-105531506D01*
X139723540Y-105670126D01*
X139713970Y-105688030D01*
X139684640Y-105723768D01*
X139601378Y-105825225D01*
X139499921Y-105908487D01*
X139464183Y-105937817D01*
X139464181Y-105937818D01*
X139307659Y-106021482D01*
X139251045Y-106038655D01*
X139137819Y-106073002D01*
X139071635Y-106079520D01*
X139005452Y-106086039D01*
X138916932Y-106086039D01*
X138850749Y-106079520D01*
X138784565Y-106073002D01*
X138671339Y-106038655D01*
X138614725Y-106021482D01*
X138458203Y-105937818D01*
X138458201Y-105937817D01*
X138422463Y-105908487D01*
X138321006Y-105825225D01*
X138237744Y-105723768D01*
X138208414Y-105688030D01*
X138198844Y-105670126D01*
X138124749Y-105531506D01*
X138107576Y-105474892D01*
X138073229Y-105361666D01*
X138055833Y-105185039D01*
X138073229Y-105008412D01*
X138124749Y-104838573D01*
X138124749Y-104838572D01*
X138208413Y-104682050D01*
X138208414Y-104682048D01*
X138237744Y-104646310D01*
X138321006Y-104544853D01*
X138422463Y-104461591D01*
X138458201Y-104432261D01*
X138476105Y-104422691D01*
X138614725Y-104348596D01*
X138671339Y-104331423D01*
X138784565Y-104297076D01*
X138850749Y-104290558D01*
X138916932Y-104284039D01*
X139005452Y-104284039D01*
X139071634Y-104290557D01*
X139071634Y-104290557D01*
G37*
G36*
X97699420Y-103646742D02*
X97854292Y-103710892D01*
X97993673Y-103804024D01*
X98112207Y-103922558D01*
X98205339Y-104061939D01*
X98269489Y-104216811D01*
X98302192Y-104381223D01*
X98302192Y-104548855D01*
X98269489Y-104713267D01*
X98205339Y-104868139D01*
X98112207Y-105007520D01*
X97993673Y-105126054D01*
X97854292Y-105219186D01*
X97699420Y-105283336D01*
X97535008Y-105316039D01*
X97367376Y-105316039D01*
X97202964Y-105283336D01*
X97048092Y-105219186D01*
X96908711Y-105126054D01*
X96790177Y-105007520D01*
X96697045Y-104868139D01*
X96632895Y-104713267D01*
X96600192Y-104548855D01*
X96600192Y-104381223D01*
X96632895Y-104216811D01*
X96697045Y-104061939D01*
X96790177Y-103922558D01*
X96908711Y-103804024D01*
X97048092Y-103710892D01*
X97202964Y-103646742D01*
X97367376Y-103614039D01*
X97535008Y-103614039D01*
X97699420Y-103646742D01*
X97699420Y-103646742D01*
G37*
G36*
X139071634Y-101750557D02*
X139137819Y-101757076D01*
X139251045Y-101791423D01*
X139307659Y-101808596D01*
X139446279Y-101882691D01*
X139464183Y-101892261D01*
X139499921Y-101921591D01*
X139601378Y-102004853D01*
X139684640Y-102106310D01*
X139713970Y-102142048D01*
X139713971Y-102142050D01*
X139797635Y-102298572D01*
X139797635Y-102298573D01*
X139849155Y-102468412D01*
X139866551Y-102645039D01*
X139849155Y-102821666D01*
X139814808Y-102934892D01*
X139797635Y-102991506D01*
X139723540Y-103130126D01*
X139713970Y-103148030D01*
X139684640Y-103183768D01*
X139601378Y-103285225D01*
X139499921Y-103368487D01*
X139464183Y-103397817D01*
X139464181Y-103397818D01*
X139307659Y-103481482D01*
X139251045Y-103498655D01*
X139137819Y-103533002D01*
X139071634Y-103539521D01*
X139005452Y-103546039D01*
X138916932Y-103546039D01*
X138850750Y-103539521D01*
X138784565Y-103533002D01*
X138671339Y-103498655D01*
X138614725Y-103481482D01*
X138458203Y-103397818D01*
X138458201Y-103397817D01*
X138422463Y-103368487D01*
X138321006Y-103285225D01*
X138237744Y-103183768D01*
X138208414Y-103148030D01*
X138198844Y-103130126D01*
X138124749Y-102991506D01*
X138107576Y-102934892D01*
X138073229Y-102821666D01*
X138055833Y-102645039D01*
X138073229Y-102468412D01*
X138124749Y-102298573D01*
X138124749Y-102298572D01*
X138208413Y-102142050D01*
X138208414Y-102142048D01*
X138237744Y-102106310D01*
X138321006Y-102004853D01*
X138422463Y-101921591D01*
X138458201Y-101892261D01*
X138476105Y-101882691D01*
X138614725Y-101808596D01*
X138671339Y-101791423D01*
X138784565Y-101757076D01*
X138850750Y-101750557D01*
X138916932Y-101744039D01*
X139005452Y-101744039D01*
X139071634Y-101750557D01*
X139071634Y-101750557D01*
G37*
G36*
X97699420Y-101106742D02*
X97854292Y-101170892D01*
X97993673Y-101264024D01*
X98112207Y-101382558D01*
X98205339Y-101521939D01*
X98269489Y-101676811D01*
X98302192Y-101841223D01*
X98302192Y-102008855D01*
X98269489Y-102173267D01*
X98205339Y-102328139D01*
X98112207Y-102467520D01*
X97993673Y-102586054D01*
X97854292Y-102679186D01*
X97699420Y-102743336D01*
X97535008Y-102776039D01*
X97367376Y-102776039D01*
X97202964Y-102743336D01*
X97048092Y-102679186D01*
X96908711Y-102586054D01*
X96790177Y-102467520D01*
X96697045Y-102328139D01*
X96632895Y-102173267D01*
X96600192Y-102008855D01*
X96600192Y-101841223D01*
X96632895Y-101676811D01*
X96697045Y-101521939D01*
X96790177Y-101382558D01*
X96908711Y-101264024D01*
X97048092Y-101170892D01*
X97202964Y-101106742D01*
X97367376Y-101074039D01*
X97535008Y-101074039D01*
X97699420Y-101106742D01*
X97699420Y-101106742D01*
G37*
G36*
X139071635Y-99210558D02*
X139137819Y-99217076D01*
X139251045Y-99251423D01*
X139307659Y-99268596D01*
X139446279Y-99342691D01*
X139464183Y-99352261D01*
X139499921Y-99381591D01*
X139601378Y-99464853D01*
X139684640Y-99566310D01*
X139713970Y-99602048D01*
X139713971Y-99602050D01*
X139797635Y-99758572D01*
X139797635Y-99758573D01*
X139849155Y-99928412D01*
X139866551Y-100105039D01*
X139849155Y-100281666D01*
X139814808Y-100394892D01*
X139797635Y-100451506D01*
X139723540Y-100590126D01*
X139713970Y-100608030D01*
X139684640Y-100643768D01*
X139601378Y-100745225D01*
X139499921Y-100828487D01*
X139464183Y-100857817D01*
X139464181Y-100857818D01*
X139307659Y-100941482D01*
X139251045Y-100958655D01*
X139137819Y-100993002D01*
X139071635Y-100999520D01*
X139005452Y-101006039D01*
X138916932Y-101006039D01*
X138850749Y-100999520D01*
X138784565Y-100993002D01*
X138671339Y-100958655D01*
X138614725Y-100941482D01*
X138458203Y-100857818D01*
X138458201Y-100857817D01*
X138422463Y-100828487D01*
X138321006Y-100745225D01*
X138237744Y-100643768D01*
X138208414Y-100608030D01*
X138198844Y-100590126D01*
X138124749Y-100451506D01*
X138107576Y-100394892D01*
X138073229Y-100281666D01*
X138055833Y-100105039D01*
X138073229Y-99928412D01*
X138124749Y-99758573D01*
X138124749Y-99758572D01*
X138208413Y-99602050D01*
X138208414Y-99602048D01*
X138237744Y-99566310D01*
X138321006Y-99464853D01*
X138422463Y-99381591D01*
X138458201Y-99352261D01*
X138476105Y-99342691D01*
X138614725Y-99268596D01*
X138671339Y-99251423D01*
X138784565Y-99217076D01*
X138850749Y-99210558D01*
X138916932Y-99204039D01*
X139005452Y-99204039D01*
X139071635Y-99210558D01*
X139071635Y-99210558D01*
G37*
G36*
X97699420Y-98566742D02*
X97854292Y-98630892D01*
X97993673Y-98724024D01*
X98112207Y-98842558D01*
X98205339Y-98981939D01*
X98269489Y-99136811D01*
X98302192Y-99301223D01*
X98302192Y-99468855D01*
X98269489Y-99633267D01*
X98205339Y-99788139D01*
X98112207Y-99927520D01*
X97993673Y-100046054D01*
X97854292Y-100139186D01*
X97699420Y-100203336D01*
X97535008Y-100236039D01*
X97367376Y-100236039D01*
X97202964Y-100203336D01*
X97048092Y-100139186D01*
X96908711Y-100046054D01*
X96790177Y-99927520D01*
X96697045Y-99788139D01*
X96632895Y-99633267D01*
X96600192Y-99468855D01*
X96600192Y-99301223D01*
X96632895Y-99136811D01*
X96697045Y-98981939D01*
X96790177Y-98842558D01*
X96908711Y-98724024D01*
X97048092Y-98630892D01*
X97202964Y-98566742D01*
X97367376Y-98534039D01*
X97535008Y-98534039D01*
X97699420Y-98566742D01*
X97699420Y-98566742D01*
G37*
G36*
X139071635Y-96670558D02*
X139137819Y-96677076D01*
X139251045Y-96711423D01*
X139307659Y-96728596D01*
X139446279Y-96802691D01*
X139464183Y-96812261D01*
X139499921Y-96841591D01*
X139601378Y-96924853D01*
X139684640Y-97026310D01*
X139713970Y-97062048D01*
X139713971Y-97062050D01*
X139797635Y-97218572D01*
X139797635Y-97218573D01*
X139849155Y-97388412D01*
X139866551Y-97565039D01*
X139849155Y-97741666D01*
X139814808Y-97854892D01*
X139797635Y-97911506D01*
X139723540Y-98050126D01*
X139713970Y-98068030D01*
X139684640Y-98103768D01*
X139601378Y-98205225D01*
X139499921Y-98288487D01*
X139464183Y-98317817D01*
X139464181Y-98317818D01*
X139307659Y-98401482D01*
X139251045Y-98418655D01*
X139137819Y-98453002D01*
X139071634Y-98459521D01*
X139005452Y-98466039D01*
X138916932Y-98466039D01*
X138850750Y-98459521D01*
X138784565Y-98453002D01*
X138671339Y-98418655D01*
X138614725Y-98401482D01*
X138458203Y-98317818D01*
X138458201Y-98317817D01*
X138422463Y-98288487D01*
X138321006Y-98205225D01*
X138237744Y-98103768D01*
X138208414Y-98068030D01*
X138198844Y-98050126D01*
X138124749Y-97911506D01*
X138107576Y-97854892D01*
X138073229Y-97741666D01*
X138055833Y-97565039D01*
X138073229Y-97388412D01*
X138124749Y-97218573D01*
X138124749Y-97218572D01*
X138208413Y-97062050D01*
X138208414Y-97062048D01*
X138237744Y-97026310D01*
X138321006Y-96924853D01*
X138422463Y-96841591D01*
X138458201Y-96812261D01*
X138476105Y-96802691D01*
X138614725Y-96728596D01*
X138671339Y-96711423D01*
X138784565Y-96677076D01*
X138850750Y-96670557D01*
X138916932Y-96664039D01*
X139005452Y-96664039D01*
X139071635Y-96670558D01*
X139071635Y-96670558D01*
G37*
G36*
X97699420Y-96026742D02*
X97854292Y-96090892D01*
X97993673Y-96184024D01*
X98112207Y-96302558D01*
X98205339Y-96441939D01*
X98269489Y-96596811D01*
X98302192Y-96761223D01*
X98302192Y-96928855D01*
X98269489Y-97093267D01*
X98205339Y-97248139D01*
X98112207Y-97387520D01*
X97993673Y-97506054D01*
X97854292Y-97599186D01*
X97699420Y-97663336D01*
X97535008Y-97696039D01*
X97367376Y-97696039D01*
X97202964Y-97663336D01*
X97048092Y-97599186D01*
X96908711Y-97506054D01*
X96790177Y-97387520D01*
X96697045Y-97248139D01*
X96632895Y-97093267D01*
X96600192Y-96928855D01*
X96600192Y-96761223D01*
X96632895Y-96596811D01*
X96697045Y-96441939D01*
X96790177Y-96302558D01*
X96908711Y-96184024D01*
X97048092Y-96090892D01*
X97202964Y-96026742D01*
X97367376Y-95994039D01*
X97535008Y-95994039D01*
X97699420Y-96026742D01*
X97699420Y-96026742D01*
G37*
G36*
X139071634Y-94130557D02*
X139137819Y-94137076D01*
X139251045Y-94171423D01*
X139307659Y-94188596D01*
X139446279Y-94262691D01*
X139464183Y-94272261D01*
X139499921Y-94301591D01*
X139601378Y-94384853D01*
X139684640Y-94486310D01*
X139713970Y-94522048D01*
X139713971Y-94522050D01*
X139797635Y-94678572D01*
X139797635Y-94678573D01*
X139849155Y-94848412D01*
X139866551Y-95025039D01*
X139849155Y-95201666D01*
X139814808Y-95314892D01*
X139797635Y-95371506D01*
X139723540Y-95510126D01*
X139713970Y-95528030D01*
X139684640Y-95563768D01*
X139601378Y-95665225D01*
X139499921Y-95748487D01*
X139464183Y-95777817D01*
X139464181Y-95777818D01*
X139307659Y-95861482D01*
X139251045Y-95878655D01*
X139137819Y-95913002D01*
X139071635Y-95919520D01*
X139005452Y-95926039D01*
X138916932Y-95926039D01*
X138850749Y-95919520D01*
X138784565Y-95913002D01*
X138671339Y-95878655D01*
X138614725Y-95861482D01*
X138458203Y-95777818D01*
X138458201Y-95777817D01*
X138422463Y-95748487D01*
X138321006Y-95665225D01*
X138237744Y-95563768D01*
X138208414Y-95528030D01*
X138198844Y-95510126D01*
X138124749Y-95371506D01*
X138107576Y-95314892D01*
X138073229Y-95201666D01*
X138055833Y-95025039D01*
X138073229Y-94848412D01*
X138124749Y-94678573D01*
X138124749Y-94678572D01*
X138208413Y-94522050D01*
X138208414Y-94522048D01*
X138237744Y-94486310D01*
X138321006Y-94384853D01*
X138422463Y-94301591D01*
X138458201Y-94272261D01*
X138476105Y-94262691D01*
X138614725Y-94188596D01*
X138671339Y-94171423D01*
X138784565Y-94137076D01*
X138850750Y-94130557D01*
X138916932Y-94124039D01*
X139005452Y-94124039D01*
X139071634Y-94130557D01*
X139071634Y-94130557D01*
G37*
G36*
X118019420Y-93486742D02*
X118174292Y-93550892D01*
X118313673Y-93644024D01*
X118432207Y-93762558D01*
X118525339Y-93901939D01*
X118589489Y-94056811D01*
X118622192Y-94221223D01*
X118622192Y-94388855D01*
X118589489Y-94553267D01*
X118525339Y-94708139D01*
X118432207Y-94847520D01*
X118313673Y-94966054D01*
X118174292Y-95059186D01*
X118019420Y-95123336D01*
X117855008Y-95156039D01*
X117687376Y-95156039D01*
X117522964Y-95123336D01*
X117368092Y-95059186D01*
X117228711Y-94966054D01*
X117110177Y-94847520D01*
X117017045Y-94708139D01*
X116952895Y-94553267D01*
X116920192Y-94388855D01*
X116920192Y-94221223D01*
X116952895Y-94056811D01*
X117017045Y-93901939D01*
X117110177Y-93762558D01*
X117228711Y-93644024D01*
X117368092Y-93550892D01*
X117522964Y-93486742D01*
X117687376Y-93454039D01*
X117855008Y-93454039D01*
X118019420Y-93486742D01*
X118019420Y-93486742D01*
G37*
G36*
X120559420Y-93486742D02*
X120714292Y-93550892D01*
X120853673Y-93644024D01*
X120972207Y-93762558D01*
X121065339Y-93901939D01*
X121129489Y-94056811D01*
X121162192Y-94221223D01*
X121162192Y-94388855D01*
X121129489Y-94553267D01*
X121065339Y-94708139D01*
X120972207Y-94847520D01*
X120853673Y-94966054D01*
X120714292Y-95059186D01*
X120559420Y-95123336D01*
X120395008Y-95156039D01*
X120227376Y-95156039D01*
X120062964Y-95123336D01*
X119908092Y-95059186D01*
X119768711Y-94966054D01*
X119650177Y-94847520D01*
X119557045Y-94708139D01*
X119492895Y-94553267D01*
X119460192Y-94388855D01*
X119460192Y-94221223D01*
X119492895Y-94056811D01*
X119557045Y-93901939D01*
X119650177Y-93762558D01*
X119768711Y-93644024D01*
X119908092Y-93550892D01*
X120062964Y-93486742D01*
X120227376Y-93454039D01*
X120395008Y-93454039D01*
X120559420Y-93486742D01*
X120559420Y-93486742D01*
G37*
G36*
X123099420Y-93486742D02*
X123254292Y-93550892D01*
X123393673Y-93644024D01*
X123512207Y-93762558D01*
X123605339Y-93901939D01*
X123669489Y-94056811D01*
X123702192Y-94221223D01*
X123702192Y-94388855D01*
X123669489Y-94553267D01*
X123605339Y-94708139D01*
X123512207Y-94847520D01*
X123393673Y-94966054D01*
X123254292Y-95059186D01*
X123099420Y-95123336D01*
X122935008Y-95156039D01*
X122767376Y-95156039D01*
X122602964Y-95123336D01*
X122448092Y-95059186D01*
X122308711Y-94966054D01*
X122190177Y-94847520D01*
X122097045Y-94708139D01*
X122032895Y-94553267D01*
X122000192Y-94388855D01*
X122000192Y-94221223D01*
X122032895Y-94056811D01*
X122097045Y-93901939D01*
X122190177Y-93762558D01*
X122308711Y-93644024D01*
X122448092Y-93550892D01*
X122602964Y-93486742D01*
X122767376Y-93454039D01*
X122935008Y-93454039D01*
X123099420Y-93486742D01*
X123099420Y-93486742D01*
G37*
G36*
X128179420Y-93486742D02*
X128334292Y-93550892D01*
X128473673Y-93644024D01*
X128592207Y-93762558D01*
X128685339Y-93901939D01*
X128749489Y-94056811D01*
X128782192Y-94221223D01*
X128782192Y-94388855D01*
X128749489Y-94553267D01*
X128685339Y-94708139D01*
X128592207Y-94847520D01*
X128473673Y-94966054D01*
X128334292Y-95059186D01*
X128179420Y-95123336D01*
X128015008Y-95156039D01*
X127847376Y-95156039D01*
X127682964Y-95123336D01*
X127528092Y-95059186D01*
X127388711Y-94966054D01*
X127270177Y-94847520D01*
X127177045Y-94708139D01*
X127112895Y-94553267D01*
X127080192Y-94388855D01*
X127080192Y-94221223D01*
X127112895Y-94056811D01*
X127177045Y-93901939D01*
X127270177Y-93762558D01*
X127388711Y-93644024D01*
X127528092Y-93550892D01*
X127682964Y-93486742D01*
X127847376Y-93454039D01*
X128015008Y-93454039D01*
X128179420Y-93486742D01*
X128179420Y-93486742D01*
G37*
G36*
X97699420Y-93486742D02*
X97854292Y-93550892D01*
X97993673Y-93644024D01*
X98112207Y-93762558D01*
X98205339Y-93901939D01*
X98269489Y-94056811D01*
X98302192Y-94221223D01*
X98302192Y-94388855D01*
X98269489Y-94553267D01*
X98205339Y-94708139D01*
X98112207Y-94847520D01*
X97993673Y-94966054D01*
X97854292Y-95059186D01*
X97699420Y-95123336D01*
X97535008Y-95156039D01*
X97367376Y-95156039D01*
X97202964Y-95123336D01*
X97048092Y-95059186D01*
X96908711Y-94966054D01*
X96790177Y-94847520D01*
X96697045Y-94708139D01*
X96632895Y-94553267D01*
X96600192Y-94388855D01*
X96600192Y-94221223D01*
X96632895Y-94056811D01*
X96697045Y-93901939D01*
X96790177Y-93762558D01*
X96908711Y-93644024D01*
X97048092Y-93550892D01*
X97202964Y-93486742D01*
X97367376Y-93454039D01*
X97535008Y-93454039D01*
X97699420Y-93486742D01*
X97699420Y-93486742D01*
G37*
G36*
X139071634Y-91590557D02*
X139137819Y-91597076D01*
X139251045Y-91631423D01*
X139307659Y-91648596D01*
X139446279Y-91722691D01*
X139464183Y-91732261D01*
X139499921Y-91761591D01*
X139601378Y-91844853D01*
X139684640Y-91946310D01*
X139713970Y-91982048D01*
X139713971Y-91982050D01*
X139797635Y-92138572D01*
X139797635Y-92138573D01*
X139849155Y-92308412D01*
X139866551Y-92485039D01*
X139849155Y-92661666D01*
X139814808Y-92774892D01*
X139797635Y-92831506D01*
X139723540Y-92970126D01*
X139713970Y-92988030D01*
X139684640Y-93023768D01*
X139601378Y-93125225D01*
X139499921Y-93208487D01*
X139464183Y-93237817D01*
X139464181Y-93237818D01*
X139307659Y-93321482D01*
X139251045Y-93338655D01*
X139137819Y-93373002D01*
X139071635Y-93379520D01*
X139005452Y-93386039D01*
X138916932Y-93386039D01*
X138850750Y-93379521D01*
X138784565Y-93373002D01*
X138671339Y-93338655D01*
X138614725Y-93321482D01*
X138458203Y-93237818D01*
X138458201Y-93237817D01*
X138422463Y-93208487D01*
X138321006Y-93125225D01*
X138237744Y-93023768D01*
X138208414Y-92988030D01*
X138198844Y-92970126D01*
X138124749Y-92831506D01*
X138107576Y-92774892D01*
X138073229Y-92661666D01*
X138055833Y-92485039D01*
X138073229Y-92308412D01*
X138124749Y-92138573D01*
X138124749Y-92138572D01*
X138208413Y-91982050D01*
X138208414Y-91982048D01*
X138237744Y-91946310D01*
X138321006Y-91844853D01*
X138422463Y-91761591D01*
X138458201Y-91732261D01*
X138476105Y-91722691D01*
X138614725Y-91648596D01*
X138671339Y-91631423D01*
X138784565Y-91597076D01*
X138850750Y-91590557D01*
X138916932Y-91584039D01*
X139005452Y-91584039D01*
X139071634Y-91590557D01*
X139071634Y-91590557D01*
G37*
G36*
X97699420Y-90946742D02*
X97854292Y-91010892D01*
X97993673Y-91104024D01*
X98112207Y-91222558D01*
X98205339Y-91361939D01*
X98269489Y-91516811D01*
X98302192Y-91681223D01*
X98302192Y-91848855D01*
X98269489Y-92013267D01*
X98205339Y-92168139D01*
X98112207Y-92307520D01*
X97993673Y-92426054D01*
X97854292Y-92519186D01*
X97699420Y-92583336D01*
X97535008Y-92616039D01*
X97367376Y-92616039D01*
X97202964Y-92583336D01*
X97048092Y-92519186D01*
X96908711Y-92426054D01*
X96790177Y-92307520D01*
X96697045Y-92168139D01*
X96632895Y-92013267D01*
X96600192Y-91848855D01*
X96600192Y-91681223D01*
X96632895Y-91516811D01*
X96697045Y-91361939D01*
X96790177Y-91222558D01*
X96908711Y-91104024D01*
X97048092Y-91010892D01*
X97202964Y-90946742D01*
X97367376Y-90914039D01*
X97535008Y-90914039D01*
X97699420Y-90946742D01*
X97699420Y-90946742D01*
G37*
G36*
X107859420Y-90946742D02*
X108014292Y-91010892D01*
X108153673Y-91104024D01*
X108272207Y-91222558D01*
X108365339Y-91361939D01*
X108429489Y-91516811D01*
X108462192Y-91681223D01*
X108462192Y-91848855D01*
X108429489Y-92013267D01*
X108365339Y-92168139D01*
X108272207Y-92307520D01*
X108153673Y-92426054D01*
X108014292Y-92519186D01*
X107859420Y-92583336D01*
X107695008Y-92616039D01*
X107527376Y-92616039D01*
X107362964Y-92583336D01*
X107208092Y-92519186D01*
X107068711Y-92426054D01*
X106950177Y-92307520D01*
X106857045Y-92168139D01*
X106792895Y-92013267D01*
X106760192Y-91848855D01*
X106760192Y-91681223D01*
X106792895Y-91516811D01*
X106857045Y-91361939D01*
X106950177Y-91222558D01*
X107068711Y-91104024D01*
X107208092Y-91010892D01*
X107362964Y-90946742D01*
X107527376Y-90914039D01*
X107695008Y-90914039D01*
X107859420Y-90946742D01*
X107859420Y-90946742D01*
G37*
G36*
X100239420Y-90946742D02*
X100394292Y-91010892D01*
X100533673Y-91104024D01*
X100652207Y-91222558D01*
X100745339Y-91361939D01*
X100809489Y-91516811D01*
X100842192Y-91681223D01*
X100842192Y-91848855D01*
X100809489Y-92013267D01*
X100745339Y-92168139D01*
X100652207Y-92307520D01*
X100533673Y-92426054D01*
X100394292Y-92519186D01*
X100239420Y-92583336D01*
X100075008Y-92616039D01*
X99907376Y-92616039D01*
X99742964Y-92583336D01*
X99588092Y-92519186D01*
X99448711Y-92426054D01*
X99330177Y-92307520D01*
X99237045Y-92168139D01*
X99172895Y-92013267D01*
X99140192Y-91848855D01*
X99140192Y-91681223D01*
X99172895Y-91516811D01*
X99237045Y-91361939D01*
X99330177Y-91222558D01*
X99448711Y-91104024D01*
X99588092Y-91010892D01*
X99742964Y-90946742D01*
X99907376Y-90914039D01*
X100075008Y-90914039D01*
X100239420Y-90946742D01*
X100239420Y-90946742D01*
G37*
G36*
X105319420Y-90946742D02*
X105474292Y-91010892D01*
X105613673Y-91104024D01*
X105732207Y-91222558D01*
X105825339Y-91361939D01*
X105889489Y-91516811D01*
X105922192Y-91681223D01*
X105922192Y-91848855D01*
X105889489Y-92013267D01*
X105825339Y-92168139D01*
X105732207Y-92307520D01*
X105613673Y-92426054D01*
X105474292Y-92519186D01*
X105319420Y-92583336D01*
X105155008Y-92616039D01*
X104987376Y-92616039D01*
X104822964Y-92583336D01*
X104668092Y-92519186D01*
X104528711Y-92426054D01*
X104410177Y-92307520D01*
X104317045Y-92168139D01*
X104252895Y-92013267D01*
X104220192Y-91848855D01*
X104220192Y-91681223D01*
X104252895Y-91516811D01*
X104317045Y-91361939D01*
X104410177Y-91222558D01*
X104528711Y-91104024D01*
X104668092Y-91010892D01*
X104822964Y-90946742D01*
X104987376Y-90914039D01*
X105155008Y-90914039D01*
X105319420Y-90946742D01*
X105319420Y-90946742D01*
G37*
G36*
X110399420Y-90946742D02*
X110554292Y-91010892D01*
X110693673Y-91104024D01*
X110812207Y-91222558D01*
X110905339Y-91361939D01*
X110969489Y-91516811D01*
X111002192Y-91681223D01*
X111002192Y-91848855D01*
X110969489Y-92013267D01*
X110905339Y-92168139D01*
X110812207Y-92307520D01*
X110693673Y-92426054D01*
X110554292Y-92519186D01*
X110399420Y-92583336D01*
X110235008Y-92616039D01*
X110067376Y-92616039D01*
X109902964Y-92583336D01*
X109748092Y-92519186D01*
X109608711Y-92426054D01*
X109490177Y-92307520D01*
X109397045Y-92168139D01*
X109332895Y-92013267D01*
X109300192Y-91848855D01*
X109300192Y-91681223D01*
X109332895Y-91516811D01*
X109397045Y-91361939D01*
X109490177Y-91222558D01*
X109608711Y-91104024D01*
X109748092Y-91010892D01*
X109902964Y-90946742D01*
X110067376Y-90914039D01*
X110235008Y-90914039D01*
X110399420Y-90946742D01*
X110399420Y-90946742D01*
G37*
G36*
X112939420Y-90946742D02*
X113094292Y-91010892D01*
X113233673Y-91104024D01*
X113352207Y-91222558D01*
X113445339Y-91361939D01*
X113509489Y-91516811D01*
X113542192Y-91681223D01*
X113542192Y-91848855D01*
X113509489Y-92013267D01*
X113445339Y-92168139D01*
X113352207Y-92307520D01*
X113233673Y-92426054D01*
X113094292Y-92519186D01*
X112939420Y-92583336D01*
X112775008Y-92616039D01*
X112607376Y-92616039D01*
X112442964Y-92583336D01*
X112288092Y-92519186D01*
X112148711Y-92426054D01*
X112030177Y-92307520D01*
X111937045Y-92168139D01*
X111872895Y-92013267D01*
X111840192Y-91848855D01*
X111840192Y-91681223D01*
X111872895Y-91516811D01*
X111937045Y-91361939D01*
X112030177Y-91222558D01*
X112148711Y-91104024D01*
X112288092Y-91010892D01*
X112442964Y-90946742D01*
X112607376Y-90914039D01*
X112775008Y-90914039D01*
X112939420Y-90946742D01*
X112939420Y-90946742D01*
G37*
G36*
X115479420Y-90946742D02*
X115634292Y-91010892D01*
X115773673Y-91104024D01*
X115892207Y-91222558D01*
X115985339Y-91361939D01*
X116049489Y-91516811D01*
X116082192Y-91681223D01*
X116082192Y-91848855D01*
X116049489Y-92013267D01*
X115985339Y-92168139D01*
X115892207Y-92307520D01*
X115773673Y-92426054D01*
X115634292Y-92519186D01*
X115479420Y-92583336D01*
X115315008Y-92616039D01*
X115147376Y-92616039D01*
X114982964Y-92583336D01*
X114828092Y-92519186D01*
X114688711Y-92426054D01*
X114570177Y-92307520D01*
X114477045Y-92168139D01*
X114412895Y-92013267D01*
X114380192Y-91848855D01*
X114380192Y-91681223D01*
X114412895Y-91516811D01*
X114477045Y-91361939D01*
X114570177Y-91222558D01*
X114688711Y-91104024D01*
X114828092Y-91010892D01*
X114982964Y-90946742D01*
X115147376Y-90914039D01*
X115315008Y-90914039D01*
X115479420Y-90946742D01*
X115479420Y-90946742D01*
G37*
G36*
X120559420Y-90946742D02*
X120714292Y-91010892D01*
X120853673Y-91104024D01*
X120972207Y-91222558D01*
X121065339Y-91361939D01*
X121129489Y-91516811D01*
X121162192Y-91681223D01*
X121162192Y-91848855D01*
X121129489Y-92013267D01*
X121065339Y-92168139D01*
X120972207Y-92307520D01*
X120853673Y-92426054D01*
X120714292Y-92519186D01*
X120559420Y-92583336D01*
X120395008Y-92616039D01*
X120227376Y-92616039D01*
X120062964Y-92583336D01*
X119908092Y-92519186D01*
X119768711Y-92426054D01*
X119650177Y-92307520D01*
X119557045Y-92168139D01*
X119492895Y-92013267D01*
X119460192Y-91848855D01*
X119460192Y-91681223D01*
X119492895Y-91516811D01*
X119557045Y-91361939D01*
X119650177Y-91222558D01*
X119768711Y-91104024D01*
X119908092Y-91010892D01*
X120062964Y-90946742D01*
X120227376Y-90914039D01*
X120395008Y-90914039D01*
X120559420Y-90946742D01*
X120559420Y-90946742D01*
G37*
G36*
X118019420Y-90946742D02*
X118174292Y-91010892D01*
X118313673Y-91104024D01*
X118432207Y-91222558D01*
X118525339Y-91361939D01*
X118589489Y-91516811D01*
X118622192Y-91681223D01*
X118622192Y-91848855D01*
X118589489Y-92013267D01*
X118525339Y-92168139D01*
X118432207Y-92307520D01*
X118313673Y-92426054D01*
X118174292Y-92519186D01*
X118019420Y-92583336D01*
X117855008Y-92616039D01*
X117687376Y-92616039D01*
X117522964Y-92583336D01*
X117368092Y-92519186D01*
X117228711Y-92426054D01*
X117110177Y-92307520D01*
X117017045Y-92168139D01*
X116952895Y-92013267D01*
X116920192Y-91848855D01*
X116920192Y-91681223D01*
X116952895Y-91516811D01*
X117017045Y-91361939D01*
X117110177Y-91222558D01*
X117228711Y-91104024D01*
X117368092Y-91010892D01*
X117522964Y-90946742D01*
X117687376Y-90914039D01*
X117855008Y-90914039D01*
X118019420Y-90946742D01*
X118019420Y-90946742D01*
G37*
G36*
X125639420Y-90946742D02*
X125794292Y-91010892D01*
X125933673Y-91104024D01*
X126052207Y-91222558D01*
X126145339Y-91361939D01*
X126209489Y-91516811D01*
X126242192Y-91681223D01*
X126242192Y-91848855D01*
X126209489Y-92013267D01*
X126145339Y-92168139D01*
X126052207Y-92307520D01*
X125933673Y-92426054D01*
X125794292Y-92519186D01*
X125639420Y-92583336D01*
X125475008Y-92616039D01*
X125307376Y-92616039D01*
X125142964Y-92583336D01*
X124988092Y-92519186D01*
X124848711Y-92426054D01*
X124730177Y-92307520D01*
X124637045Y-92168139D01*
X124572895Y-92013267D01*
X124540192Y-91848855D01*
X124540192Y-91681223D01*
X124572895Y-91516811D01*
X124637045Y-91361939D01*
X124730177Y-91222558D01*
X124848711Y-91104024D01*
X124988092Y-91010892D01*
X125142964Y-90946742D01*
X125307376Y-90914039D01*
X125475008Y-90914039D01*
X125639420Y-90946742D01*
X125639420Y-90946742D01*
G37*
G36*
X123099420Y-90946742D02*
X123254292Y-91010892D01*
X123393673Y-91104024D01*
X123512207Y-91222558D01*
X123605339Y-91361939D01*
X123669489Y-91516811D01*
X123702192Y-91681223D01*
X123702192Y-91848855D01*
X123669489Y-92013267D01*
X123605339Y-92168139D01*
X123512207Y-92307520D01*
X123393673Y-92426054D01*
X123254292Y-92519186D01*
X123099420Y-92583336D01*
X122935008Y-92616039D01*
X122767376Y-92616039D01*
X122602964Y-92583336D01*
X122448092Y-92519186D01*
X122308711Y-92426054D01*
X122190177Y-92307520D01*
X122097045Y-92168139D01*
X122032895Y-92013267D01*
X122000192Y-91848855D01*
X122000192Y-91681223D01*
X122032895Y-91516811D01*
X122097045Y-91361939D01*
X122190177Y-91222558D01*
X122308711Y-91104024D01*
X122448092Y-91010892D01*
X122602964Y-90946742D01*
X122767376Y-90914039D01*
X122935008Y-90914039D01*
X123099420Y-90946742D01*
X123099420Y-90946742D01*
G37*
G36*
X102779420Y-90946742D02*
X102934292Y-91010892D01*
X103073673Y-91104024D01*
X103192207Y-91222558D01*
X103285339Y-91361939D01*
X103349489Y-91516811D01*
X103382192Y-91681223D01*
X103382192Y-91848855D01*
X103349489Y-92013267D01*
X103285339Y-92168139D01*
X103192207Y-92307520D01*
X103073673Y-92426054D01*
X102934292Y-92519186D01*
X102779420Y-92583336D01*
X102615008Y-92616039D01*
X102447376Y-92616039D01*
X102282964Y-92583336D01*
X102128092Y-92519186D01*
X101988711Y-92426054D01*
X101870177Y-92307520D01*
X101777045Y-92168139D01*
X101712895Y-92013267D01*
X101680192Y-91848855D01*
X101680192Y-91681223D01*
X101712895Y-91516811D01*
X101777045Y-91361939D01*
X101870177Y-91222558D01*
X101988711Y-91104024D01*
X102128092Y-91010892D01*
X102282964Y-90946742D01*
X102447376Y-90914039D01*
X102615008Y-90914039D01*
X102779420Y-90946742D01*
X102779420Y-90946742D01*
G37*
G36*
X130719420Y-90946742D02*
X130874292Y-91010892D01*
X131013673Y-91104024D01*
X131132207Y-91222558D01*
X131225339Y-91361939D01*
X131289489Y-91516811D01*
X131322192Y-91681223D01*
X131322192Y-91848855D01*
X131289489Y-92013267D01*
X131225339Y-92168139D01*
X131132207Y-92307520D01*
X131013673Y-92426054D01*
X130874292Y-92519186D01*
X130719420Y-92583336D01*
X130555008Y-92616039D01*
X130387376Y-92616039D01*
X130222964Y-92583336D01*
X130068092Y-92519186D01*
X129928711Y-92426054D01*
X129810177Y-92307520D01*
X129717045Y-92168139D01*
X129652895Y-92013267D01*
X129620192Y-91848855D01*
X129620192Y-91681223D01*
X129652895Y-91516811D01*
X129717045Y-91361939D01*
X129810177Y-91222558D01*
X129928711Y-91104024D01*
X130068092Y-91010892D01*
X130222964Y-90946742D01*
X130387376Y-90914039D01*
X130555008Y-90914039D01*
X130719420Y-90946742D01*
X130719420Y-90946742D01*
G37*
G36*
X128179420Y-90946742D02*
X128334292Y-91010892D01*
X128473673Y-91104024D01*
X128592207Y-91222558D01*
X128685339Y-91361939D01*
X128749489Y-91516811D01*
X128782192Y-91681223D01*
X128782192Y-91848855D01*
X128749489Y-92013267D01*
X128685339Y-92168139D01*
X128592207Y-92307520D01*
X128473673Y-92426054D01*
X128334292Y-92519186D01*
X128179420Y-92583336D01*
X128015008Y-92616039D01*
X127847376Y-92616039D01*
X127682964Y-92583336D01*
X127528092Y-92519186D01*
X127388711Y-92426054D01*
X127270177Y-92307520D01*
X127177045Y-92168139D01*
X127112895Y-92013267D01*
X127080192Y-91848855D01*
X127080192Y-91681223D01*
X127112895Y-91516811D01*
X127177045Y-91361939D01*
X127270177Y-91222558D01*
X127388711Y-91104024D01*
X127528092Y-91010892D01*
X127682964Y-90946742D01*
X127847376Y-90914039D01*
X128015008Y-90914039D01*
X128179420Y-90946742D01*
X128179420Y-90946742D01*
G37*
G36*
X139071635Y-89050558D02*
X139137819Y-89057076D01*
X139251045Y-89091423D01*
X139307659Y-89108596D01*
X139446279Y-89182691D01*
X139464183Y-89192261D01*
X139499921Y-89221591D01*
X139601378Y-89304853D01*
X139684640Y-89406310D01*
X139713970Y-89442048D01*
X139713971Y-89442050D01*
X139797635Y-89598572D01*
X139797635Y-89598573D01*
X139849155Y-89768412D01*
X139866551Y-89945039D01*
X139849155Y-90121666D01*
X139814808Y-90234892D01*
X139797635Y-90291506D01*
X139723540Y-90430126D01*
X139713970Y-90448030D01*
X139684640Y-90483768D01*
X139601378Y-90585225D01*
X139499921Y-90668487D01*
X139464183Y-90697817D01*
X139464181Y-90697818D01*
X139307659Y-90781482D01*
X139251045Y-90798655D01*
X139137819Y-90833002D01*
X139071635Y-90839520D01*
X139005452Y-90846039D01*
X138916932Y-90846039D01*
X138850749Y-90839520D01*
X138784565Y-90833002D01*
X138671339Y-90798655D01*
X138614725Y-90781482D01*
X138458203Y-90697818D01*
X138458201Y-90697817D01*
X138422463Y-90668487D01*
X138321006Y-90585225D01*
X138237744Y-90483768D01*
X138208414Y-90448030D01*
X138198844Y-90430126D01*
X138124749Y-90291506D01*
X138107576Y-90234892D01*
X138073229Y-90121666D01*
X138055833Y-89945039D01*
X138073229Y-89768412D01*
X138124749Y-89598573D01*
X138124749Y-89598572D01*
X138208413Y-89442050D01*
X138208414Y-89442048D01*
X138237744Y-89406310D01*
X138321006Y-89304853D01*
X138422463Y-89221591D01*
X138458201Y-89192261D01*
X138476105Y-89182691D01*
X138614725Y-89108596D01*
X138671339Y-89091423D01*
X138784565Y-89057076D01*
X138850749Y-89050558D01*
X138916932Y-89044039D01*
X139005452Y-89044039D01*
X139071635Y-89050558D01*
X139071635Y-89050558D01*
G37*
G36*
X139071634Y-86510557D02*
X139137819Y-86517076D01*
X139251045Y-86551423D01*
X139307659Y-86568596D01*
X139362246Y-86597774D01*
X139464183Y-86652261D01*
X139476398Y-86662286D01*
X139601378Y-86764853D01*
X139674578Y-86854049D01*
X139713970Y-86902048D01*
X139713971Y-86902050D01*
X139797635Y-87058572D01*
X139797635Y-87058573D01*
X139849155Y-87228412D01*
X139866551Y-87405039D01*
X139849155Y-87581666D01*
X139814808Y-87694892D01*
X139797635Y-87751506D01*
X139723540Y-87890126D01*
X139713970Y-87908030D01*
X139684640Y-87943768D01*
X139601378Y-88045225D01*
X139499921Y-88128487D01*
X139464183Y-88157817D01*
X139464181Y-88157818D01*
X139307659Y-88241482D01*
X139251045Y-88258655D01*
X139137819Y-88293002D01*
X139071635Y-88299520D01*
X139005452Y-88306039D01*
X138916932Y-88306039D01*
X138850749Y-88299520D01*
X138784565Y-88293002D01*
X138671339Y-88258655D01*
X138614725Y-88241482D01*
X138458203Y-88157818D01*
X138458201Y-88157817D01*
X138422463Y-88128487D01*
X138321006Y-88045225D01*
X138237744Y-87943768D01*
X138208414Y-87908030D01*
X138198844Y-87890126D01*
X138124749Y-87751506D01*
X138107576Y-87694892D01*
X138073229Y-87581666D01*
X138055833Y-87405039D01*
X138073229Y-87228412D01*
X138124749Y-87058573D01*
X138124749Y-87058572D01*
X138208413Y-86902050D01*
X138208414Y-86902048D01*
X138247806Y-86854049D01*
X138321006Y-86764853D01*
X138445986Y-86662286D01*
X138458201Y-86652261D01*
X138560138Y-86597774D01*
X138614725Y-86568596D01*
X138671339Y-86551423D01*
X138784565Y-86517076D01*
X138850750Y-86510557D01*
X138916932Y-86504039D01*
X139005452Y-86504039D01*
X139071634Y-86510557D01*
X139071634Y-86510557D01*
G37*
G36*
X100502555Y-85622412D02*
X100540242Y-85633845D01*
X100574981Y-85652413D01*
X100605426Y-85677399D01*
X100630412Y-85707844D01*
X100648980Y-85742583D01*
X100660413Y-85780270D01*
X100664878Y-85825608D01*
X100664878Y-86662286D01*
X100660413Y-86707624D01*
X100648980Y-86745311D01*
X100630412Y-86780050D01*
X100605426Y-86810495D01*
X100574981Y-86835481D01*
X100540242Y-86854049D01*
X100502555Y-86865482D01*
X100457217Y-86869947D01*
X99370539Y-86869947D01*
X99325201Y-86865482D01*
X99287514Y-86854049D01*
X99252775Y-86835481D01*
X99222330Y-86810495D01*
X99197344Y-86780050D01*
X99178776Y-86745311D01*
X99167343Y-86707624D01*
X99162878Y-86662286D01*
X99162878Y-85825608D01*
X99167343Y-85780270D01*
X99178776Y-85742583D01*
X99197344Y-85707844D01*
X99222330Y-85677399D01*
X99252775Y-85652413D01*
X99287514Y-85633845D01*
X99325201Y-85622412D01*
X99370539Y-85617947D01*
X100457217Y-85617947D01*
X100502555Y-85622412D01*
X100502555Y-85622412D01*
G37*
G36*
X103042555Y-85622412D02*
X103080242Y-85633845D01*
X103114981Y-85652413D01*
X103145426Y-85677399D01*
X103170412Y-85707844D01*
X103188980Y-85742583D01*
X103200413Y-85780270D01*
X103204878Y-85825608D01*
X103204878Y-86662286D01*
X103200413Y-86707624D01*
X103188980Y-86745311D01*
X103170412Y-86780050D01*
X103145426Y-86810495D01*
X103114981Y-86835481D01*
X103080242Y-86854049D01*
X103042555Y-86865482D01*
X102997217Y-86869947D01*
X101910539Y-86869947D01*
X101865201Y-86865482D01*
X101827514Y-86854049D01*
X101792775Y-86835481D01*
X101762330Y-86810495D01*
X101737344Y-86780050D01*
X101718776Y-86745311D01*
X101707343Y-86707624D01*
X101702878Y-86662286D01*
X101702878Y-85825608D01*
X101707343Y-85780270D01*
X101718776Y-85742583D01*
X101737344Y-85707844D01*
X101762330Y-85677399D01*
X101792775Y-85652413D01*
X101827514Y-85633845D01*
X101865201Y-85622412D01*
X101910539Y-85617947D01*
X102997217Y-85617947D01*
X103042555Y-85622412D01*
X103042555Y-85622412D01*
G37*
G36*
X105582555Y-85622412D02*
X105620242Y-85633845D01*
X105654981Y-85652413D01*
X105685426Y-85677399D01*
X105710412Y-85707844D01*
X105728980Y-85742583D01*
X105740413Y-85780270D01*
X105744878Y-85825608D01*
X105744878Y-86662286D01*
X105740413Y-86707624D01*
X105728980Y-86745311D01*
X105710412Y-86780050D01*
X105685426Y-86810495D01*
X105654981Y-86835481D01*
X105620242Y-86854049D01*
X105582555Y-86865482D01*
X105537217Y-86869947D01*
X104450539Y-86869947D01*
X104405201Y-86865482D01*
X104367514Y-86854049D01*
X104332775Y-86835481D01*
X104302330Y-86810495D01*
X104277344Y-86780050D01*
X104258776Y-86745311D01*
X104247343Y-86707624D01*
X104242878Y-86662286D01*
X104242878Y-85825608D01*
X104247343Y-85780270D01*
X104258776Y-85742583D01*
X104277344Y-85707844D01*
X104302330Y-85677399D01*
X104332775Y-85652413D01*
X104367514Y-85633845D01*
X104405201Y-85622412D01*
X104450539Y-85617947D01*
X105537217Y-85617947D01*
X105582555Y-85622412D01*
X105582555Y-85622412D01*
G37*
G36*
X139071635Y-83970558D02*
X139137819Y-83977076D01*
X139251045Y-84011423D01*
X139307659Y-84028596D01*
X139446279Y-84102691D01*
X139464183Y-84112261D01*
X139499921Y-84141591D01*
X139601378Y-84224853D01*
X139684640Y-84326310D01*
X139713970Y-84362048D01*
X139713971Y-84362050D01*
X139797635Y-84518572D01*
X139797635Y-84518573D01*
X139849155Y-84688412D01*
X139866551Y-84865039D01*
X139849155Y-85041666D01*
X139814808Y-85154892D01*
X139797635Y-85211506D01*
X139723540Y-85350126D01*
X139713970Y-85368030D01*
X139684640Y-85403768D01*
X139601378Y-85505225D01*
X139499921Y-85588487D01*
X139464183Y-85617817D01*
X139464181Y-85617818D01*
X139307659Y-85701482D01*
X139251045Y-85718655D01*
X139137819Y-85753002D01*
X139071634Y-85759521D01*
X139005452Y-85766039D01*
X138916932Y-85766039D01*
X138850750Y-85759521D01*
X138784565Y-85753002D01*
X138671339Y-85718655D01*
X138614725Y-85701482D01*
X138458203Y-85617818D01*
X138458201Y-85617817D01*
X138422463Y-85588487D01*
X138321006Y-85505225D01*
X138237744Y-85403768D01*
X138208414Y-85368030D01*
X138198844Y-85350126D01*
X138124749Y-85211506D01*
X138107576Y-85154892D01*
X138073229Y-85041666D01*
X138055833Y-84865039D01*
X138073229Y-84688412D01*
X138124749Y-84518573D01*
X138124749Y-84518572D01*
X138208413Y-84362050D01*
X138208414Y-84362048D01*
X138237744Y-84326310D01*
X138321006Y-84224853D01*
X138422463Y-84141591D01*
X138458201Y-84112261D01*
X138476105Y-84102691D01*
X138614725Y-84028596D01*
X138671339Y-84011423D01*
X138784565Y-83977076D01*
X138850749Y-83970558D01*
X138916932Y-83964039D01*
X139005452Y-83964039D01*
X139071635Y-83970558D01*
X139071635Y-83970558D01*
G37*
G36*
X105582555Y-83572412D02*
X105620242Y-83583845D01*
X105654981Y-83602413D01*
X105685426Y-83627399D01*
X105710412Y-83657844D01*
X105728980Y-83692583D01*
X105740413Y-83730270D01*
X105744878Y-83775608D01*
X105744878Y-84612286D01*
X105740413Y-84657624D01*
X105728980Y-84695311D01*
X105710412Y-84730050D01*
X105685426Y-84760495D01*
X105654981Y-84785481D01*
X105620242Y-84804049D01*
X105582555Y-84815482D01*
X105537217Y-84819947D01*
X104450539Y-84819947D01*
X104405201Y-84815482D01*
X104367514Y-84804049D01*
X104332775Y-84785481D01*
X104302330Y-84760495D01*
X104277344Y-84730050D01*
X104258776Y-84695311D01*
X104247343Y-84657624D01*
X104242878Y-84612286D01*
X104242878Y-83775608D01*
X104247343Y-83730270D01*
X104258776Y-83692583D01*
X104277344Y-83657844D01*
X104302330Y-83627399D01*
X104332775Y-83602413D01*
X104367514Y-83583845D01*
X104405201Y-83572412D01*
X104450539Y-83567947D01*
X105537217Y-83567947D01*
X105582555Y-83572412D01*
X105582555Y-83572412D01*
G37*
G36*
X100502555Y-83572412D02*
X100540242Y-83583845D01*
X100574981Y-83602413D01*
X100605426Y-83627399D01*
X100630412Y-83657844D01*
X100648980Y-83692583D01*
X100660413Y-83730270D01*
X100664878Y-83775608D01*
X100664878Y-84612286D01*
X100660413Y-84657624D01*
X100648980Y-84695311D01*
X100630412Y-84730050D01*
X100605426Y-84760495D01*
X100574981Y-84785481D01*
X100540242Y-84804049D01*
X100502555Y-84815482D01*
X100457217Y-84819947D01*
X99370539Y-84819947D01*
X99325201Y-84815482D01*
X99287514Y-84804049D01*
X99252775Y-84785481D01*
X99222330Y-84760495D01*
X99197344Y-84730050D01*
X99178776Y-84695311D01*
X99167343Y-84657624D01*
X99162878Y-84612286D01*
X99162878Y-83775608D01*
X99167343Y-83730270D01*
X99178776Y-83692583D01*
X99197344Y-83657844D01*
X99222330Y-83627399D01*
X99252775Y-83602413D01*
X99287514Y-83583845D01*
X99325201Y-83572412D01*
X99370539Y-83567947D01*
X100457217Y-83567947D01*
X100502555Y-83572412D01*
X100502555Y-83572412D01*
G37*
G36*
X103042555Y-83572412D02*
X103080242Y-83583845D01*
X103114981Y-83602413D01*
X103145426Y-83627399D01*
X103170412Y-83657844D01*
X103188980Y-83692583D01*
X103200413Y-83730270D01*
X103204878Y-83775608D01*
X103204878Y-84612286D01*
X103200413Y-84657624D01*
X103188980Y-84695311D01*
X103170412Y-84730050D01*
X103145426Y-84760495D01*
X103114981Y-84785481D01*
X103080242Y-84804049D01*
X103042555Y-84815482D01*
X102997217Y-84819947D01*
X101910539Y-84819947D01*
X101865201Y-84815482D01*
X101827514Y-84804049D01*
X101792775Y-84785481D01*
X101762330Y-84760495D01*
X101737344Y-84730050D01*
X101718776Y-84695311D01*
X101707343Y-84657624D01*
X101702878Y-84612286D01*
X101702878Y-83775608D01*
X101707343Y-83730270D01*
X101718776Y-83692583D01*
X101737344Y-83657844D01*
X101762330Y-83627399D01*
X101792775Y-83602413D01*
X101827514Y-83583845D01*
X101865201Y-83572412D01*
X101910539Y-83567947D01*
X102997217Y-83567947D01*
X103042555Y-83572412D01*
X103042555Y-83572412D01*
G37*
G36*
X139071634Y-81430557D02*
X139137819Y-81437076D01*
X139251045Y-81471423D01*
X139307659Y-81488596D01*
X139446279Y-81562691D01*
X139464183Y-81572261D01*
X139499921Y-81601591D01*
X139601378Y-81684853D01*
X139684640Y-81786310D01*
X139713970Y-81822048D01*
X139713971Y-81822050D01*
X139797635Y-81978572D01*
X139797635Y-81978573D01*
X139849155Y-82148412D01*
X139866551Y-82325039D01*
X139849155Y-82501666D01*
X139814808Y-82614892D01*
X139797635Y-82671506D01*
X139723540Y-82810126D01*
X139713970Y-82828030D01*
X139684640Y-82863768D01*
X139601378Y-82965225D01*
X139499921Y-83048487D01*
X139464183Y-83077817D01*
X139464181Y-83077818D01*
X139307659Y-83161482D01*
X139251045Y-83178655D01*
X139137819Y-83213002D01*
X139071634Y-83219521D01*
X139005452Y-83226039D01*
X138916932Y-83226039D01*
X138850750Y-83219521D01*
X138784565Y-83213002D01*
X138671339Y-83178655D01*
X138614725Y-83161482D01*
X138458203Y-83077818D01*
X138458201Y-83077817D01*
X138422463Y-83048487D01*
X138321006Y-82965225D01*
X138237744Y-82863768D01*
X138208414Y-82828030D01*
X138198844Y-82810126D01*
X138124749Y-82671506D01*
X138107576Y-82614892D01*
X138073229Y-82501666D01*
X138055833Y-82325039D01*
X138073229Y-82148412D01*
X138124749Y-81978573D01*
X138124749Y-81978572D01*
X138208413Y-81822050D01*
X138208414Y-81822048D01*
X138237744Y-81786310D01*
X138321006Y-81684853D01*
X138422463Y-81601591D01*
X138458201Y-81572261D01*
X138476105Y-81562691D01*
X138614725Y-81488596D01*
X138671339Y-81471423D01*
X138784565Y-81437076D01*
X138850750Y-81430557D01*
X138916932Y-81424039D01*
X139005452Y-81424039D01*
X139071634Y-81430557D01*
X139071634Y-81430557D01*
G37*
G36*
X139071635Y-78890558D02*
X139137819Y-78897076D01*
X139251045Y-78931423D01*
X139307659Y-78948596D01*
X139417842Y-79007491D01*
X139464183Y-79032261D01*
X139499921Y-79061591D01*
X139601378Y-79144853D01*
X139684640Y-79246310D01*
X139713970Y-79282048D01*
X139713971Y-79282050D01*
X139797635Y-79438572D01*
X139797635Y-79438573D01*
X139849155Y-79608412D01*
X139866551Y-79785039D01*
X139849155Y-79961666D01*
X139814808Y-80074892D01*
X139797635Y-80131506D01*
X139763798Y-80194809D01*
X139713970Y-80288030D01*
X139684640Y-80323768D01*
X139601378Y-80425225D01*
X139499921Y-80508487D01*
X139464183Y-80537817D01*
X139464181Y-80537818D01*
X139307659Y-80621482D01*
X139251045Y-80638655D01*
X139137819Y-80673002D01*
X139071635Y-80679520D01*
X139005452Y-80686039D01*
X138916932Y-80686039D01*
X138850749Y-80679520D01*
X138784565Y-80673002D01*
X138671339Y-80638655D01*
X138614725Y-80621482D01*
X138458203Y-80537818D01*
X138458201Y-80537817D01*
X138422463Y-80508487D01*
X138321006Y-80425225D01*
X138237744Y-80323768D01*
X138208414Y-80288030D01*
X138158586Y-80194809D01*
X138124749Y-80131506D01*
X138107576Y-80074892D01*
X138073229Y-79961666D01*
X138055833Y-79785039D01*
X138073229Y-79608412D01*
X138124749Y-79438573D01*
X138124749Y-79438572D01*
X138208413Y-79282050D01*
X138208414Y-79282048D01*
X138237744Y-79246310D01*
X138321006Y-79144853D01*
X138422463Y-79061591D01*
X138458201Y-79032261D01*
X138504542Y-79007491D01*
X138614725Y-78948596D01*
X138671339Y-78931423D01*
X138784565Y-78897076D01*
X138850749Y-78890558D01*
X138916932Y-78884039D01*
X139005452Y-78884039D01*
X139071635Y-78890558D01*
X139071635Y-78890558D01*
G37*
G36*
X125989869Y-78952504D02*
X126027556Y-78963937D01*
X126062295Y-78982505D01*
X126092740Y-79007491D01*
X126117726Y-79037936D01*
X126136294Y-79072675D01*
X126147727Y-79110362D01*
X126152192Y-79155700D01*
X126152192Y-79992378D01*
X126147727Y-80037716D01*
X126136294Y-80075403D01*
X126117726Y-80110142D01*
X126092740Y-80140587D01*
X126062295Y-80165573D01*
X126027556Y-80184141D01*
X125989869Y-80195574D01*
X125944531Y-80200039D01*
X124857853Y-80200039D01*
X124812515Y-80195574D01*
X124774828Y-80184141D01*
X124740089Y-80165573D01*
X124709644Y-80140587D01*
X124684658Y-80110142D01*
X124666090Y-80075403D01*
X124654657Y-80037716D01*
X124650192Y-79992378D01*
X124650192Y-79155700D01*
X124654657Y-79110362D01*
X124666090Y-79072675D01*
X124684658Y-79037936D01*
X124709644Y-79007491D01*
X124740089Y-78982505D01*
X124774828Y-78963937D01*
X124812515Y-78952504D01*
X124857853Y-78948039D01*
X125944531Y-78948039D01*
X125989869Y-78952504D01*
X125989869Y-78952504D01*
G37*
G36*
X128529869Y-78952504D02*
X128567556Y-78963937D01*
X128602295Y-78982505D01*
X128632740Y-79007491D01*
X128657726Y-79037936D01*
X128676294Y-79072675D01*
X128687727Y-79110362D01*
X128692192Y-79155700D01*
X128692192Y-79992378D01*
X128687727Y-80037716D01*
X128676294Y-80075403D01*
X128657726Y-80110142D01*
X128632740Y-80140587D01*
X128602295Y-80165573D01*
X128567556Y-80184141D01*
X128529869Y-80195574D01*
X128484531Y-80200039D01*
X127397853Y-80200039D01*
X127352515Y-80195574D01*
X127314828Y-80184141D01*
X127280089Y-80165573D01*
X127249644Y-80140587D01*
X127224658Y-80110142D01*
X127206090Y-80075403D01*
X127194657Y-80037716D01*
X127190192Y-79992378D01*
X127190192Y-79155700D01*
X127194657Y-79110362D01*
X127206090Y-79072675D01*
X127224658Y-79037936D01*
X127249644Y-79007491D01*
X127280089Y-78982505D01*
X127314828Y-78963937D01*
X127352515Y-78952504D01*
X127397853Y-78948039D01*
X128484531Y-78948039D01*
X128529869Y-78952504D01*
X128529869Y-78952504D01*
G37*
G36*
X125989869Y-76902504D02*
X126027556Y-76913937D01*
X126062295Y-76932505D01*
X126092740Y-76957491D01*
X126117726Y-76987936D01*
X126136294Y-77022675D01*
X126147727Y-77060362D01*
X126152192Y-77105700D01*
X126152192Y-77942378D01*
X126147727Y-77987716D01*
X126136294Y-78025403D01*
X126117726Y-78060142D01*
X126092740Y-78090587D01*
X126062295Y-78115573D01*
X126027556Y-78134141D01*
X125989869Y-78145574D01*
X125944531Y-78150039D01*
X124857853Y-78150039D01*
X124812515Y-78145574D01*
X124774828Y-78134141D01*
X124740089Y-78115573D01*
X124709644Y-78090587D01*
X124684658Y-78060142D01*
X124666090Y-78025403D01*
X124654657Y-77987716D01*
X124650192Y-77942378D01*
X124650192Y-77105700D01*
X124654657Y-77060362D01*
X124666090Y-77022675D01*
X124684658Y-76987936D01*
X124709644Y-76957491D01*
X124740089Y-76932505D01*
X124774828Y-76913937D01*
X124812515Y-76902504D01*
X124857853Y-76898039D01*
X125944531Y-76898039D01*
X125989869Y-76902504D01*
X125989869Y-76902504D01*
G37*
G36*
X128529869Y-76902504D02*
X128567556Y-76913937D01*
X128602295Y-76932505D01*
X128632740Y-76957491D01*
X128657726Y-76987936D01*
X128676294Y-77022675D01*
X128687727Y-77060362D01*
X128692192Y-77105700D01*
X128692192Y-77942378D01*
X128687727Y-77987716D01*
X128676294Y-78025403D01*
X128657726Y-78060142D01*
X128632740Y-78090587D01*
X128602295Y-78115573D01*
X128567556Y-78134141D01*
X128529869Y-78145574D01*
X128484531Y-78150039D01*
X127397853Y-78150039D01*
X127352515Y-78145574D01*
X127314828Y-78134141D01*
X127280089Y-78115573D01*
X127249644Y-78090587D01*
X127224658Y-78060142D01*
X127206090Y-78025403D01*
X127194657Y-77987716D01*
X127190192Y-77942378D01*
X127190192Y-77105700D01*
X127194657Y-77060362D01*
X127206090Y-77022675D01*
X127224658Y-76987936D01*
X127249644Y-76957491D01*
X127280089Y-76932505D01*
X127314828Y-76913937D01*
X127352515Y-76902504D01*
X127397853Y-76898039D01*
X128484531Y-76898039D01*
X128529869Y-76902504D01*
X128529869Y-76902504D01*
G37*
G36*
X139071634Y-76350557D02*
X139137819Y-76357076D01*
X139251045Y-76391423D01*
X139307659Y-76408596D01*
X139444872Y-76481939D01*
X139464183Y-76492261D01*
X139499921Y-76521591D01*
X139601378Y-76604853D01*
X139684640Y-76706310D01*
X139713970Y-76742048D01*
X139713971Y-76742050D01*
X139797635Y-76898572D01*
X139799060Y-76903269D01*
X139849155Y-77068412D01*
X139866551Y-77245039D01*
X139849155Y-77421666D01*
X139847379Y-77427520D01*
X139797635Y-77591506D01*
X139772149Y-77639186D01*
X139713970Y-77748030D01*
X139684640Y-77783768D01*
X139601378Y-77885225D01*
X139499921Y-77968487D01*
X139464183Y-77997817D01*
X139464181Y-77997818D01*
X139307659Y-78081482D01*
X139277643Y-78090587D01*
X139137819Y-78133002D01*
X139071635Y-78139520D01*
X139005452Y-78146039D01*
X138916932Y-78146039D01*
X138850749Y-78139520D01*
X138784565Y-78133002D01*
X138644741Y-78090587D01*
X138614725Y-78081482D01*
X138458203Y-77997818D01*
X138458201Y-77997817D01*
X138422463Y-77968487D01*
X138321006Y-77885225D01*
X138237744Y-77783768D01*
X138208414Y-77748030D01*
X138150235Y-77639186D01*
X138124749Y-77591506D01*
X138075005Y-77427520D01*
X138073229Y-77421666D01*
X138055833Y-77245039D01*
X138073229Y-77068412D01*
X138123324Y-76903269D01*
X138124749Y-76898572D01*
X138208413Y-76742050D01*
X138208414Y-76742048D01*
X138237744Y-76706310D01*
X138321006Y-76604853D01*
X138422463Y-76521591D01*
X138458201Y-76492261D01*
X138477512Y-76481939D01*
X138614725Y-76408596D01*
X138671339Y-76391423D01*
X138784565Y-76357076D01*
X138850750Y-76350557D01*
X138916932Y-76344039D01*
X139005452Y-76344039D01*
X139071634Y-76350557D01*
X139071634Y-76350557D01*
G37*
G36*
X109612192Y-77736039D02*
X107910192Y-77736039D01*
X107910192Y-76034039D01*
X109612192Y-76034039D01*
X109612192Y-77736039D01*
X109612192Y-77736039D01*
G37*
G36*
X111009420Y-76066742D02*
X111164292Y-76130892D01*
X111303673Y-76224024D01*
X111422207Y-76342558D01*
X111515339Y-76481939D01*
X111579489Y-76636811D01*
X111612192Y-76801223D01*
X111612192Y-76968855D01*
X111579489Y-77133267D01*
X111515339Y-77288139D01*
X111422207Y-77427520D01*
X111303673Y-77546054D01*
X111164292Y-77639186D01*
X111009420Y-77703336D01*
X110845008Y-77736039D01*
X110677376Y-77736039D01*
X110512964Y-77703336D01*
X110358092Y-77639186D01*
X110218711Y-77546054D01*
X110100177Y-77427520D01*
X110007045Y-77288139D01*
X109942895Y-77133267D01*
X109910192Y-76968855D01*
X109910192Y-76801223D01*
X109942895Y-76636811D01*
X110007045Y-76481939D01*
X110100177Y-76342558D01*
X110218711Y-76224024D01*
X110358092Y-76130892D01*
X110512964Y-76066742D01*
X110677376Y-76034039D01*
X110845008Y-76034039D01*
X111009420Y-76066742D01*
X111009420Y-76066742D01*
G37*
G36*
X95809420Y-75666742D02*
X95964292Y-75730892D01*
X96103673Y-75824024D01*
X96222207Y-75942558D01*
X96315339Y-76081939D01*
X96379489Y-76236811D01*
X96412192Y-76401223D01*
X96412192Y-76568855D01*
X96379489Y-76733267D01*
X96315339Y-76888139D01*
X96222207Y-77027520D01*
X96103673Y-77146054D01*
X95964292Y-77239186D01*
X95809420Y-77303336D01*
X95645008Y-77336039D01*
X95477376Y-77336039D01*
X95312964Y-77303336D01*
X95158092Y-77239186D01*
X95018711Y-77146054D01*
X94900177Y-77027520D01*
X94807045Y-76888139D01*
X94742895Y-76733267D01*
X94710192Y-76568855D01*
X94710192Y-76401223D01*
X94742895Y-76236811D01*
X94807045Y-76081939D01*
X94900177Y-75942558D01*
X95018711Y-75824024D01*
X95158092Y-75730892D01*
X95312964Y-75666742D01*
X95477376Y-75634039D01*
X95645008Y-75634039D01*
X95809420Y-75666742D01*
X95809420Y-75666742D01*
G37*
G36*
X94412192Y-77336039D02*
X92710192Y-77336039D01*
X92710192Y-75634039D01*
X94412192Y-75634039D01*
X94412192Y-77336039D01*
X94412192Y-77336039D01*
G37*
G36*
X139071635Y-73810558D02*
X139137819Y-73817076D01*
X139251045Y-73851423D01*
X139307659Y-73868596D01*
X139446279Y-73942691D01*
X139464183Y-73952261D01*
X139499921Y-73981591D01*
X139601378Y-74064853D01*
X139684640Y-74166310D01*
X139713970Y-74202048D01*
X139713971Y-74202050D01*
X139797635Y-74358572D01*
X139797635Y-74358573D01*
X139849155Y-74528412D01*
X139866551Y-74705039D01*
X139849155Y-74881666D01*
X139814808Y-74994892D01*
X139797635Y-75051506D01*
X139723540Y-75190126D01*
X139713970Y-75208030D01*
X139684640Y-75243768D01*
X139601378Y-75345225D01*
X139499921Y-75428487D01*
X139464183Y-75457817D01*
X139464181Y-75457818D01*
X139307659Y-75541482D01*
X139251045Y-75558655D01*
X139137819Y-75593002D01*
X139071634Y-75599521D01*
X139005452Y-75606039D01*
X138916932Y-75606039D01*
X138850750Y-75599521D01*
X138784565Y-75593002D01*
X138671339Y-75558655D01*
X138614725Y-75541482D01*
X138458203Y-75457818D01*
X138458201Y-75457817D01*
X138422463Y-75428487D01*
X138321006Y-75345225D01*
X138237744Y-75243768D01*
X138208414Y-75208030D01*
X138198844Y-75190126D01*
X138124749Y-75051506D01*
X138107576Y-74994892D01*
X138073229Y-74881666D01*
X138055833Y-74705039D01*
X138073229Y-74528412D01*
X138124749Y-74358573D01*
X138124749Y-74358572D01*
X138208413Y-74202050D01*
X138208414Y-74202048D01*
X138237744Y-74166310D01*
X138321006Y-74064853D01*
X138422463Y-73981591D01*
X138458201Y-73952261D01*
X138476105Y-73942691D01*
X138614725Y-73868596D01*
X138671339Y-73851423D01*
X138784565Y-73817076D01*
X138850749Y-73810558D01*
X138916932Y-73804039D01*
X139005452Y-73804039D01*
X139071635Y-73810558D01*
X139071635Y-73810558D01*
G37*
G36*
X139071634Y-71270557D02*
X139137819Y-71277076D01*
X139251045Y-71311423D01*
X139307659Y-71328596D01*
X139446279Y-71402691D01*
X139464183Y-71412261D01*
X139498981Y-71440819D01*
X139601378Y-71524853D01*
X139684640Y-71626310D01*
X139713970Y-71662048D01*
X139713971Y-71662050D01*
X139797635Y-71818572D01*
X139797635Y-71818573D01*
X139849155Y-71988412D01*
X139866551Y-72165039D01*
X139849155Y-72341666D01*
X139817641Y-72445554D01*
X139797635Y-72511506D01*
X139725984Y-72645554D01*
X139713970Y-72668030D01*
X139684640Y-72703768D01*
X139601378Y-72805225D01*
X139529591Y-72864138D01*
X139464183Y-72917817D01*
X139464181Y-72917818D01*
X139307659Y-73001482D01*
X139251045Y-73018655D01*
X139137819Y-73053002D01*
X139071634Y-73059521D01*
X139005452Y-73066039D01*
X138916932Y-73066039D01*
X138850750Y-73059521D01*
X138784565Y-73053002D01*
X138671339Y-73018655D01*
X138614725Y-73001482D01*
X138458203Y-72917818D01*
X138458201Y-72917817D01*
X138392793Y-72864138D01*
X138321006Y-72805225D01*
X138237744Y-72703768D01*
X138208414Y-72668030D01*
X138196400Y-72645554D01*
X138124749Y-72511506D01*
X138104743Y-72445554D01*
X138073229Y-72341666D01*
X138055833Y-72165039D01*
X138073229Y-71988412D01*
X138124749Y-71818573D01*
X138124749Y-71818572D01*
X138208413Y-71662050D01*
X138208414Y-71662048D01*
X138237744Y-71626310D01*
X138321006Y-71524853D01*
X138423403Y-71440819D01*
X138458201Y-71412261D01*
X138476105Y-71402691D01*
X138614725Y-71328596D01*
X138671339Y-71311423D01*
X138784565Y-71277076D01*
X138850750Y-71270557D01*
X138916932Y-71264039D01*
X139005452Y-71264039D01*
X139071634Y-71270557D01*
X139071634Y-71270557D01*
G37*
G36*
X106477912Y-70848559D02*
X106667073Y-70905940D01*
X106841404Y-70999122D01*
X106994207Y-71124524D01*
X107119609Y-71277327D01*
X107212791Y-71451659D01*
X107270172Y-71640820D01*
X107270172Y-71640823D01*
X107284061Y-71781834D01*
X107284692Y-71788246D01*
X107284692Y-71981833D01*
X107270172Y-72129259D01*
X107212791Y-72318420D01*
X107119609Y-72492751D01*
X106994207Y-72645554D01*
X106841404Y-72770956D01*
X106667072Y-72864138D01*
X106477911Y-72921519D01*
X106281192Y-72940894D01*
X106084472Y-72921519D01*
X105895311Y-72864138D01*
X105720980Y-72770956D01*
X105568177Y-72645554D01*
X105442775Y-72492751D01*
X105349593Y-72318419D01*
X105292212Y-72129258D01*
X105277692Y-71981832D01*
X105277692Y-71788245D01*
X105278324Y-71781833D01*
X105292212Y-71640822D01*
X105292212Y-71640819D01*
X105349593Y-71451658D01*
X105442775Y-71277327D01*
X105568177Y-71124524D01*
X105720980Y-70999122D01*
X105895312Y-70905940D01*
X106084473Y-70848559D01*
X106281192Y-70829184D01*
X106477912Y-70848559D01*
X106477912Y-70848559D01*
G37*
G36*
X109017912Y-70848559D02*
X109207073Y-70905940D01*
X109381404Y-70999122D01*
X109534207Y-71124524D01*
X109659609Y-71277327D01*
X109752791Y-71451659D01*
X109810172Y-71640820D01*
X109810172Y-71640823D01*
X109824061Y-71781834D01*
X109824692Y-71788246D01*
X109824692Y-71981833D01*
X109810172Y-72129259D01*
X109752791Y-72318420D01*
X109659609Y-72492751D01*
X109534207Y-72645554D01*
X109381404Y-72770956D01*
X109207072Y-72864138D01*
X109017911Y-72921519D01*
X108821192Y-72940894D01*
X108624472Y-72921519D01*
X108435311Y-72864138D01*
X108260980Y-72770956D01*
X108108177Y-72645554D01*
X107982775Y-72492751D01*
X107889593Y-72318419D01*
X107832212Y-72129258D01*
X107817692Y-71981832D01*
X107817692Y-71788245D01*
X107818324Y-71781833D01*
X107832212Y-71640822D01*
X107832212Y-71640819D01*
X107889593Y-71451658D01*
X107982775Y-71277327D01*
X108108177Y-71124524D01*
X108260980Y-70999122D01*
X108435312Y-70905940D01*
X108624473Y-70848559D01*
X108821192Y-70829184D01*
X109017912Y-70848559D01*
X109017912Y-70848559D01*
G37*
G36*
X112364692Y-72936039D02*
X110357692Y-72936039D01*
X110357692Y-70834039D01*
X112364692Y-70834039D01*
X112364692Y-72936039D01*
X112364692Y-72936039D01*
G37*
G36*
X97317912Y-70648559D02*
X97507073Y-70705940D01*
X97681404Y-70799122D01*
X97834207Y-70924524D01*
X97959609Y-71077327D01*
X98052791Y-71251659D01*
X98110172Y-71440820D01*
X98118448Y-71524853D01*
X98124692Y-71588244D01*
X98124692Y-71781835D01*
X98118884Y-71840803D01*
X98110172Y-71929259D01*
X98052791Y-72118420D01*
X97959609Y-72292751D01*
X97834207Y-72445554D01*
X97681404Y-72570956D01*
X97507072Y-72664138D01*
X97317911Y-72721519D01*
X97121192Y-72740894D01*
X96924472Y-72721519D01*
X96735311Y-72664138D01*
X96560980Y-72570956D01*
X96408177Y-72445554D01*
X96282775Y-72292751D01*
X96189593Y-72118419D01*
X96132212Y-71929258D01*
X96121311Y-71818573D01*
X96117692Y-71781834D01*
X96117692Y-71588243D01*
X96123935Y-71524853D01*
X96132212Y-71440819D01*
X96189593Y-71251658D01*
X96282775Y-71077327D01*
X96408177Y-70924524D01*
X96560980Y-70799122D01*
X96735312Y-70705940D01*
X96924473Y-70648559D01*
X97121192Y-70629184D01*
X97317912Y-70648559D01*
X97317912Y-70648559D01*
G37*
G36*
X94777912Y-70648559D02*
X94967073Y-70705940D01*
X95141404Y-70799122D01*
X95294207Y-70924524D01*
X95419609Y-71077327D01*
X95512791Y-71251659D01*
X95570172Y-71440820D01*
X95578448Y-71524853D01*
X95584692Y-71588244D01*
X95584692Y-71781835D01*
X95578884Y-71840803D01*
X95570172Y-71929259D01*
X95512791Y-72118420D01*
X95419609Y-72292751D01*
X95294207Y-72445554D01*
X95141404Y-72570956D01*
X94967072Y-72664138D01*
X94777911Y-72721519D01*
X94581192Y-72740894D01*
X94384472Y-72721519D01*
X94195311Y-72664138D01*
X94020980Y-72570956D01*
X93868177Y-72445554D01*
X93742775Y-72292751D01*
X93649593Y-72118419D01*
X93592212Y-71929258D01*
X93581311Y-71818573D01*
X93577692Y-71781834D01*
X93577692Y-71588243D01*
X93583935Y-71524853D01*
X93592212Y-71440819D01*
X93649593Y-71251658D01*
X93742775Y-71077327D01*
X93868177Y-70924524D01*
X94020980Y-70799122D01*
X94195312Y-70705940D01*
X94384473Y-70648559D01*
X94581192Y-70629184D01*
X94777912Y-70648559D01*
X94777912Y-70648559D01*
G37*
G36*
X100664692Y-72736039D02*
X98657692Y-72736039D01*
X98657692Y-70634039D01*
X100664692Y-70634039D01*
X100664692Y-72736039D01*
X100664692Y-72736039D01*
G37*
G36*
X139071634Y-68730557D02*
X139137819Y-68737076D01*
X139251045Y-68771423D01*
X139307659Y-68788596D01*
X139446279Y-68862691D01*
X139464183Y-68872261D01*
X139499921Y-68901591D01*
X139601378Y-68984853D01*
X139684640Y-69086310D01*
X139713970Y-69122048D01*
X139713971Y-69122050D01*
X139797635Y-69278572D01*
X139797635Y-69278573D01*
X139849155Y-69448412D01*
X139866551Y-69625039D01*
X139849155Y-69801666D01*
X139814808Y-69914892D01*
X139797635Y-69971506D01*
X139723540Y-70110126D01*
X139713970Y-70128030D01*
X139684640Y-70163768D01*
X139601378Y-70265225D01*
X139499921Y-70348487D01*
X139464183Y-70377817D01*
X139464181Y-70377818D01*
X139307659Y-70461482D01*
X139251045Y-70478655D01*
X139137819Y-70513002D01*
X139071635Y-70519520D01*
X139005452Y-70526039D01*
X138916932Y-70526039D01*
X138850749Y-70519520D01*
X138784565Y-70513002D01*
X138671339Y-70478655D01*
X138614725Y-70461482D01*
X138458203Y-70377818D01*
X138458201Y-70377817D01*
X138422463Y-70348487D01*
X138321006Y-70265225D01*
X138237744Y-70163768D01*
X138208414Y-70128030D01*
X138198844Y-70110126D01*
X138124749Y-69971506D01*
X138107576Y-69914892D01*
X138073229Y-69801666D01*
X138055833Y-69625039D01*
X138073229Y-69448412D01*
X138124749Y-69278573D01*
X138124749Y-69278572D01*
X138208413Y-69122050D01*
X138208414Y-69122048D01*
X138237744Y-69086310D01*
X138321006Y-68984853D01*
X138422463Y-68901591D01*
X138458201Y-68872261D01*
X138476105Y-68862691D01*
X138614725Y-68788596D01*
X138671339Y-68771423D01*
X138784565Y-68737076D01*
X138850750Y-68730557D01*
X138916932Y-68724039D01*
X139005452Y-68724039D01*
X139071634Y-68730557D01*
X139071634Y-68730557D01*
G37*
G36*
X139071634Y-66190557D02*
X139137819Y-66197076D01*
X139251045Y-66231423D01*
X139307659Y-66248596D01*
X139403710Y-66299937D01*
X139464183Y-66332261D01*
X139485721Y-66349937D01*
X139601378Y-66444853D01*
X139680857Y-66541700D01*
X139713970Y-66582048D01*
X139713971Y-66582050D01*
X139797635Y-66738572D01*
X139797635Y-66738573D01*
X139849155Y-66908412D01*
X139866551Y-67085039D01*
X139849155Y-67261666D01*
X139828918Y-67328378D01*
X139797635Y-67431506D01*
X139744147Y-67531574D01*
X139713970Y-67588030D01*
X139690224Y-67616964D01*
X139601378Y-67725225D01*
X139522241Y-67790170D01*
X139464183Y-67837817D01*
X139464181Y-67837818D01*
X139307659Y-67921482D01*
X139251045Y-67938655D01*
X139137819Y-67973002D01*
X139071635Y-67979520D01*
X139005452Y-67986039D01*
X138916932Y-67986039D01*
X138850749Y-67979520D01*
X138784565Y-67973002D01*
X138671339Y-67938655D01*
X138614725Y-67921482D01*
X138458203Y-67837818D01*
X138458201Y-67837817D01*
X138400143Y-67790170D01*
X138321006Y-67725225D01*
X138232160Y-67616964D01*
X138208414Y-67588030D01*
X138178237Y-67531574D01*
X138124749Y-67431506D01*
X138093466Y-67328378D01*
X138073229Y-67261666D01*
X138055833Y-67085039D01*
X138073229Y-66908412D01*
X138124749Y-66738573D01*
X138124749Y-66738572D01*
X138208413Y-66582050D01*
X138208414Y-66582048D01*
X138241527Y-66541700D01*
X138321006Y-66444853D01*
X138436663Y-66349937D01*
X138458201Y-66332261D01*
X138518674Y-66299937D01*
X138614725Y-66248596D01*
X138671339Y-66231423D01*
X138784565Y-66197076D01*
X138850750Y-66190557D01*
X138916932Y-66184039D01*
X139005452Y-66184039D01*
X139071634Y-66190557D01*
X139071634Y-66190557D01*
G37*
G36*
X96449869Y-66338504D02*
X96487556Y-66349937D01*
X96522295Y-66368505D01*
X96552740Y-66393491D01*
X96577726Y-66423936D01*
X96596294Y-66458675D01*
X96607727Y-66496362D01*
X96612192Y-66541700D01*
X96612192Y-67628378D01*
X96607727Y-67673716D01*
X96596294Y-67711403D01*
X96577726Y-67746142D01*
X96552740Y-67776587D01*
X96522295Y-67801573D01*
X96487556Y-67820141D01*
X96449869Y-67831574D01*
X96404531Y-67836039D01*
X95567853Y-67836039D01*
X95522515Y-67831574D01*
X95484828Y-67820141D01*
X95450089Y-67801573D01*
X95419644Y-67776587D01*
X95394658Y-67746142D01*
X95376090Y-67711403D01*
X95364657Y-67673716D01*
X95360192Y-67628378D01*
X95360192Y-66541700D01*
X95364657Y-66496362D01*
X95376090Y-66458675D01*
X95394658Y-66423936D01*
X95419644Y-66393491D01*
X95450089Y-66368505D01*
X95484828Y-66349937D01*
X95522515Y-66338504D01*
X95567853Y-66334039D01*
X96404531Y-66334039D01*
X96449869Y-66338504D01*
X96449869Y-66338504D01*
G37*
G36*
X106549869Y-66338504D02*
X106587556Y-66349937D01*
X106622295Y-66368505D01*
X106652740Y-66393491D01*
X106677726Y-66423936D01*
X106696294Y-66458675D01*
X106707727Y-66496362D01*
X106712192Y-66541700D01*
X106712192Y-67628378D01*
X106707727Y-67673716D01*
X106696294Y-67711403D01*
X106677726Y-67746142D01*
X106652740Y-67776587D01*
X106622295Y-67801573D01*
X106587556Y-67820141D01*
X106549869Y-67831574D01*
X106504531Y-67836039D01*
X105667853Y-67836039D01*
X105622515Y-67831574D01*
X105584828Y-67820141D01*
X105550089Y-67801573D01*
X105519644Y-67776587D01*
X105494658Y-67746142D01*
X105476090Y-67711403D01*
X105464657Y-67673716D01*
X105460192Y-67628378D01*
X105460192Y-66541700D01*
X105464657Y-66496362D01*
X105476090Y-66458675D01*
X105494658Y-66423936D01*
X105519644Y-66393491D01*
X105550089Y-66368505D01*
X105584828Y-66349937D01*
X105622515Y-66338504D01*
X105667853Y-66334039D01*
X106504531Y-66334039D01*
X106549869Y-66338504D01*
X106549869Y-66338504D01*
G37*
G36*
X98399869Y-66338504D02*
X98437556Y-66349937D01*
X98472295Y-66368505D01*
X98502740Y-66393491D01*
X98527726Y-66423936D01*
X98546294Y-66458675D01*
X98557727Y-66496362D01*
X98562192Y-66541700D01*
X98562192Y-67628378D01*
X98557727Y-67673716D01*
X98546294Y-67711403D01*
X98527726Y-67746142D01*
X98502740Y-67776587D01*
X98472295Y-67801573D01*
X98437556Y-67820141D01*
X98399869Y-67831574D01*
X98354531Y-67836039D01*
X97517853Y-67836039D01*
X97472515Y-67831574D01*
X97434828Y-67820141D01*
X97400089Y-67801573D01*
X97369644Y-67776587D01*
X97344658Y-67746142D01*
X97326090Y-67711403D01*
X97314657Y-67673716D01*
X97310192Y-67628378D01*
X97310192Y-66541700D01*
X97314657Y-66496362D01*
X97326090Y-66458675D01*
X97344658Y-66423936D01*
X97369644Y-66393491D01*
X97400089Y-66368505D01*
X97434828Y-66349937D01*
X97472515Y-66338504D01*
X97517853Y-66334039D01*
X98354531Y-66334039D01*
X98399869Y-66338504D01*
X98399869Y-66338504D01*
G37*
G36*
X104499869Y-66338504D02*
X104537556Y-66349937D01*
X104572295Y-66368505D01*
X104602740Y-66393491D01*
X104627726Y-66423936D01*
X104646294Y-66458675D01*
X104657727Y-66496362D01*
X104662192Y-66541700D01*
X104662192Y-67628378D01*
X104657727Y-67673716D01*
X104646294Y-67711403D01*
X104627726Y-67746142D01*
X104602740Y-67776587D01*
X104572295Y-67801573D01*
X104537556Y-67820141D01*
X104499869Y-67831574D01*
X104454531Y-67836039D01*
X103617853Y-67836039D01*
X103572515Y-67831574D01*
X103534828Y-67820141D01*
X103500089Y-67801573D01*
X103469644Y-67776587D01*
X103444658Y-67746142D01*
X103426090Y-67711403D01*
X103414657Y-67673716D01*
X103410192Y-67628378D01*
X103410192Y-66541700D01*
X103414657Y-66496362D01*
X103426090Y-66458675D01*
X103444658Y-66423936D01*
X103469644Y-66393491D01*
X103500089Y-66368505D01*
X103534828Y-66349937D01*
X103572515Y-66338504D01*
X103617853Y-66334039D01*
X104454531Y-66334039D01*
X104499869Y-66338504D01*
X104499869Y-66338504D01*
G37*
G36*
X100449869Y-66338504D02*
X100487556Y-66349937D01*
X100522295Y-66368505D01*
X100552740Y-66393491D01*
X100577726Y-66423936D01*
X100596294Y-66458675D01*
X100607727Y-66496362D01*
X100612192Y-66541700D01*
X100612192Y-67628378D01*
X100607727Y-67673716D01*
X100596294Y-67711403D01*
X100577726Y-67746142D01*
X100552740Y-67776587D01*
X100522295Y-67801573D01*
X100487556Y-67820141D01*
X100449869Y-67831574D01*
X100404531Y-67836039D01*
X99567853Y-67836039D01*
X99522515Y-67831574D01*
X99484828Y-67820141D01*
X99450089Y-67801573D01*
X99419644Y-67776587D01*
X99394658Y-67746142D01*
X99376090Y-67711403D01*
X99364657Y-67673716D01*
X99360192Y-67628378D01*
X99360192Y-66541700D01*
X99364657Y-66496362D01*
X99376090Y-66458675D01*
X99394658Y-66423936D01*
X99419644Y-66393491D01*
X99450089Y-66368505D01*
X99484828Y-66349937D01*
X99522515Y-66338504D01*
X99567853Y-66334039D01*
X100404531Y-66334039D01*
X100449869Y-66338504D01*
X100449869Y-66338504D01*
G37*
G36*
X94399869Y-66338504D02*
X94437556Y-66349937D01*
X94472295Y-66368505D01*
X94502740Y-66393491D01*
X94527726Y-66423936D01*
X94546294Y-66458675D01*
X94557727Y-66496362D01*
X94562192Y-66541700D01*
X94562192Y-67628378D01*
X94557727Y-67673716D01*
X94546294Y-67711403D01*
X94527726Y-67746142D01*
X94502740Y-67776587D01*
X94472295Y-67801573D01*
X94437556Y-67820141D01*
X94399869Y-67831574D01*
X94354531Y-67836039D01*
X93517853Y-67836039D01*
X93472515Y-67831574D01*
X93434828Y-67820141D01*
X93400089Y-67801573D01*
X93369644Y-67776587D01*
X93344658Y-67746142D01*
X93326090Y-67711403D01*
X93314657Y-67673716D01*
X93310192Y-67628378D01*
X93310192Y-66541700D01*
X93314657Y-66496362D01*
X93326090Y-66458675D01*
X93344658Y-66423936D01*
X93369644Y-66393491D01*
X93400089Y-66368505D01*
X93434828Y-66349937D01*
X93472515Y-66338504D01*
X93517853Y-66334039D01*
X94354531Y-66334039D01*
X94399869Y-66338504D01*
X94399869Y-66338504D01*
G37*
G36*
X109849869Y-66288504D02*
X109887556Y-66299937D01*
X109922295Y-66318505D01*
X109952740Y-66343491D01*
X109977726Y-66373936D01*
X109996294Y-66408675D01*
X110007727Y-66446362D01*
X110012192Y-66491700D01*
X110012192Y-67328378D01*
X110007727Y-67373716D01*
X109996294Y-67411403D01*
X109977726Y-67446142D01*
X109952740Y-67476587D01*
X109922295Y-67501573D01*
X109887556Y-67520141D01*
X109849869Y-67531574D01*
X109804531Y-67536039D01*
X108717853Y-67536039D01*
X108672515Y-67531574D01*
X108634828Y-67520141D01*
X108600089Y-67501573D01*
X108569644Y-67476587D01*
X108544658Y-67446142D01*
X108526090Y-67411403D01*
X108514657Y-67373716D01*
X108510192Y-67328378D01*
X108510192Y-66491700D01*
X108514657Y-66446362D01*
X108526090Y-66408675D01*
X108544658Y-66373936D01*
X108569644Y-66343491D01*
X108600089Y-66318505D01*
X108634828Y-66299937D01*
X108672515Y-66288504D01*
X108717853Y-66284039D01*
X109804531Y-66284039D01*
X109849869Y-66288504D01*
X109849869Y-66288504D01*
G37*
G36*
X109849869Y-64238504D02*
X109887556Y-64249937D01*
X109922295Y-64268505D01*
X109952740Y-64293491D01*
X109977726Y-64323936D01*
X109996294Y-64358675D01*
X110007727Y-64396362D01*
X110012192Y-64441700D01*
X110012192Y-65278378D01*
X110007727Y-65323716D01*
X109996294Y-65361403D01*
X109977726Y-65396142D01*
X109952740Y-65426587D01*
X109922295Y-65451573D01*
X109887556Y-65470141D01*
X109849869Y-65481574D01*
X109804531Y-65486039D01*
X108717853Y-65486039D01*
X108672515Y-65481574D01*
X108634828Y-65470141D01*
X108600089Y-65451573D01*
X108569644Y-65426587D01*
X108544658Y-65396142D01*
X108526090Y-65361403D01*
X108514657Y-65323716D01*
X108510192Y-65278378D01*
X108510192Y-64441700D01*
X108514657Y-64396362D01*
X108526090Y-64358675D01*
X108544658Y-64323936D01*
X108569644Y-64293491D01*
X108600089Y-64268505D01*
X108634828Y-64249937D01*
X108672515Y-64238504D01*
X108717853Y-64234039D01*
X109804531Y-64234039D01*
X109849869Y-64238504D01*
X109849869Y-64238504D01*
G37*
G36*
X139071635Y-63650558D02*
X139137819Y-63657076D01*
X139251045Y-63691423D01*
X139307659Y-63708596D01*
X139446279Y-63782691D01*
X139464183Y-63792261D01*
X139499921Y-63821591D01*
X139601378Y-63904853D01*
X139684640Y-64006310D01*
X139713970Y-64042048D01*
X139713971Y-64042050D01*
X139797635Y-64198572D01*
X139809748Y-64238504D01*
X139849155Y-64368412D01*
X139866551Y-64545039D01*
X139849155Y-64721666D01*
X139814808Y-64834892D01*
X139797635Y-64891506D01*
X139723540Y-65030126D01*
X139713970Y-65048030D01*
X139684640Y-65083768D01*
X139601378Y-65185225D01*
X139501777Y-65266964D01*
X139464183Y-65297817D01*
X139464181Y-65297818D01*
X139307659Y-65381482D01*
X139251045Y-65398655D01*
X139137819Y-65433002D01*
X139071634Y-65439521D01*
X139005452Y-65446039D01*
X138916932Y-65446039D01*
X138850750Y-65439521D01*
X138784565Y-65433002D01*
X138671339Y-65398655D01*
X138614725Y-65381482D01*
X138458203Y-65297818D01*
X138458201Y-65297817D01*
X138420607Y-65266964D01*
X138321006Y-65185225D01*
X138237744Y-65083768D01*
X138208414Y-65048030D01*
X138198844Y-65030126D01*
X138124749Y-64891506D01*
X138107576Y-64834892D01*
X138073229Y-64721666D01*
X138055833Y-64545039D01*
X138073229Y-64368412D01*
X138112636Y-64238504D01*
X138124749Y-64198572D01*
X138208413Y-64042050D01*
X138208414Y-64042048D01*
X138237744Y-64006310D01*
X138321006Y-63904853D01*
X138422463Y-63821591D01*
X138458201Y-63792261D01*
X138476105Y-63782691D01*
X138614725Y-63708596D01*
X138671339Y-63691423D01*
X138784565Y-63657076D01*
X138850749Y-63650558D01*
X138916932Y-63644039D01*
X139005452Y-63644039D01*
X139071635Y-63650558D01*
X139071635Y-63650558D01*
G37*
G36*
X139071635Y-61110558D02*
X139137819Y-61117076D01*
X139251045Y-61151423D01*
X139307659Y-61168596D01*
X139446279Y-61242691D01*
X139464183Y-61252261D01*
X139499921Y-61281591D01*
X139601378Y-61364853D01*
X139684640Y-61466310D01*
X139713970Y-61502048D01*
X139713971Y-61502050D01*
X139797635Y-61658572D01*
X139797635Y-61658573D01*
X139849155Y-61828412D01*
X139866551Y-62005039D01*
X139849155Y-62181666D01*
X139814808Y-62294892D01*
X139797635Y-62351506D01*
X139723540Y-62490126D01*
X139713970Y-62508030D01*
X139684640Y-62543768D01*
X139601378Y-62645225D01*
X139499921Y-62728487D01*
X139464183Y-62757817D01*
X139464181Y-62757818D01*
X139307659Y-62841482D01*
X139251045Y-62858655D01*
X139137819Y-62893002D01*
X139071635Y-62899520D01*
X139005452Y-62906039D01*
X138916932Y-62906039D01*
X138850749Y-62899520D01*
X138784565Y-62893002D01*
X138671339Y-62858655D01*
X138614725Y-62841482D01*
X138458203Y-62757818D01*
X138458201Y-62757817D01*
X138422463Y-62728487D01*
X138321006Y-62645225D01*
X138237744Y-62543768D01*
X138208414Y-62508030D01*
X138198844Y-62490126D01*
X138124749Y-62351506D01*
X138107576Y-62294892D01*
X138073229Y-62181666D01*
X138055833Y-62005039D01*
X138073229Y-61828412D01*
X138124749Y-61658573D01*
X138124749Y-61658572D01*
X138208413Y-61502050D01*
X138208414Y-61502048D01*
X138237744Y-61466310D01*
X138321006Y-61364853D01*
X138422463Y-61281591D01*
X138458201Y-61252261D01*
X138476105Y-61242691D01*
X138614725Y-61168596D01*
X138671339Y-61151423D01*
X138784565Y-61117076D01*
X138850749Y-61110558D01*
X138916932Y-61104039D01*
X139005452Y-61104039D01*
X139071635Y-61110558D01*
X139071635Y-61110558D01*
G37*
G36*
X100033124Y-60500280D02*
X100070811Y-60511713D01*
X100105550Y-60530281D01*
X100135995Y-60555267D01*
X100160981Y-60585712D01*
X100179549Y-60620451D01*
X100190982Y-60658138D01*
X100195447Y-60703476D01*
X100195447Y-61790154D01*
X100190982Y-61835492D01*
X100179549Y-61873179D01*
X100160981Y-61907918D01*
X100135995Y-61938363D01*
X100105550Y-61963349D01*
X100070811Y-61981917D01*
X100033124Y-61993350D01*
X99987786Y-61997815D01*
X99151108Y-61997815D01*
X99105770Y-61993350D01*
X99068083Y-61981917D01*
X99033344Y-61963349D01*
X99002899Y-61938363D01*
X98977913Y-61907918D01*
X98959345Y-61873179D01*
X98947912Y-61835492D01*
X98943447Y-61790154D01*
X98943447Y-60703476D01*
X98947912Y-60658138D01*
X98959345Y-60620451D01*
X98977913Y-60585712D01*
X99002899Y-60555267D01*
X99033344Y-60530281D01*
X99068083Y-60511713D01*
X99105770Y-60500280D01*
X99151108Y-60495815D01*
X99987786Y-60495815D01*
X100033124Y-60500280D01*
X100033124Y-60500280D01*
G37*
G36*
X97983124Y-60500280D02*
X98020811Y-60511713D01*
X98055550Y-60530281D01*
X98085995Y-60555267D01*
X98110981Y-60585712D01*
X98129549Y-60620451D01*
X98140982Y-60658138D01*
X98145447Y-60703476D01*
X98145447Y-61790154D01*
X98140982Y-61835492D01*
X98129549Y-61873179D01*
X98110981Y-61907918D01*
X98085995Y-61938363D01*
X98055550Y-61963349D01*
X98020811Y-61981917D01*
X97983124Y-61993350D01*
X97937786Y-61997815D01*
X97101108Y-61997815D01*
X97055770Y-61993350D01*
X97018083Y-61981917D01*
X96983344Y-61963349D01*
X96952899Y-61938363D01*
X96927913Y-61907918D01*
X96909345Y-61873179D01*
X96897912Y-61835492D01*
X96893447Y-61790154D01*
X96893447Y-60703476D01*
X96897912Y-60658138D01*
X96909345Y-60620451D01*
X96927913Y-60585712D01*
X96952899Y-60555267D01*
X96983344Y-60530281D01*
X97018083Y-60511713D01*
X97055770Y-60500280D01*
X97101108Y-60495815D01*
X97937786Y-60495815D01*
X97983124Y-60500280D01*
X97983124Y-60500280D01*
G37*
G36*
X139071634Y-58570557D02*
X139137819Y-58577076D01*
X139224848Y-58603476D01*
X139307659Y-58628596D01*
X139381355Y-58667988D01*
X139464183Y-58712261D01*
X139499921Y-58741591D01*
X139601378Y-58824853D01*
X139684640Y-58926310D01*
X139713970Y-58962048D01*
X139713971Y-58962050D01*
X139797635Y-59118572D01*
X139797635Y-59118573D01*
X139849155Y-59288412D01*
X139866551Y-59465039D01*
X139849155Y-59641666D01*
X139820693Y-59735492D01*
X139797635Y-59811506D01*
X139748550Y-59903336D01*
X139713970Y-59968030D01*
X139684640Y-60003768D01*
X139601378Y-60105225D01*
X139499921Y-60188487D01*
X139464183Y-60217817D01*
X139464181Y-60217818D01*
X139307659Y-60301482D01*
X139251045Y-60318655D01*
X139137819Y-60353002D01*
X139071634Y-60359521D01*
X139005452Y-60366039D01*
X138916932Y-60366039D01*
X138850750Y-60359521D01*
X138784565Y-60353002D01*
X138671339Y-60318655D01*
X138614725Y-60301482D01*
X138458203Y-60217818D01*
X138458201Y-60217817D01*
X138422463Y-60188487D01*
X138321006Y-60105225D01*
X138237744Y-60003768D01*
X138208414Y-59968030D01*
X138173834Y-59903336D01*
X138124749Y-59811506D01*
X138101691Y-59735492D01*
X138073229Y-59641666D01*
X138055833Y-59465039D01*
X138073229Y-59288412D01*
X138124749Y-59118573D01*
X138124749Y-59118572D01*
X138208413Y-58962050D01*
X138208414Y-58962048D01*
X138237744Y-58926310D01*
X138321006Y-58824853D01*
X138422463Y-58741591D01*
X138458201Y-58712261D01*
X138541029Y-58667988D01*
X138614725Y-58628596D01*
X138697536Y-58603476D01*
X138784565Y-58577076D01*
X138850750Y-58570557D01*
X138916932Y-58564039D01*
X139005452Y-58564039D01*
X139071634Y-58570557D01*
X139071634Y-58570557D01*
G37*
G36*
X132038334Y-58443281D02*
X132186294Y-58504569D01*
X132253322Y-58549356D01*
X132294809Y-58577076D01*
X132319450Y-58593541D01*
X132432690Y-58706781D01*
X132521662Y-58839937D01*
X132582950Y-58987897D01*
X132614192Y-59144964D01*
X132614192Y-59305114D01*
X132582950Y-59462181D01*
X132521662Y-59610141D01*
X132476875Y-59677169D01*
X132432691Y-59743296D01*
X132319449Y-59856538D01*
X132257673Y-59897815D01*
X132186294Y-59945509D01*
X132038334Y-60006797D01*
X131881267Y-60038039D01*
X131721117Y-60038039D01*
X131564050Y-60006797D01*
X131416090Y-59945509D01*
X131344711Y-59897815D01*
X131282935Y-59856538D01*
X131169693Y-59743296D01*
X131125509Y-59677169D01*
X131080722Y-59610141D01*
X131019434Y-59462181D01*
X130988192Y-59305114D01*
X130988192Y-59144964D01*
X131019434Y-58987897D01*
X131080722Y-58839937D01*
X131169694Y-58706781D01*
X131282934Y-58593541D01*
X131307576Y-58577076D01*
X131349062Y-58549356D01*
X131416090Y-58504569D01*
X131564050Y-58443281D01*
X131721117Y-58412039D01*
X131881267Y-58412039D01*
X132038334Y-58443281D01*
X132038334Y-58443281D01*
G37*
G36*
X112712192Y-59936039D02*
X111010192Y-59936039D01*
X111010192Y-58234039D01*
X112712192Y-58234039D01*
X112712192Y-59936039D01*
X112712192Y-59936039D01*
G37*
G36*
X110109420Y-58266742D02*
X110264292Y-58330892D01*
X110403673Y-58424024D01*
X110522207Y-58542558D01*
X110615339Y-58681939D01*
X110679489Y-58836811D01*
X110712192Y-59001223D01*
X110712192Y-59168855D01*
X110679489Y-59333267D01*
X110615339Y-59488139D01*
X110522207Y-59627520D01*
X110403673Y-59746054D01*
X110264292Y-59839186D01*
X110109420Y-59903336D01*
X109945008Y-59936039D01*
X109777376Y-59936039D01*
X109612964Y-59903336D01*
X109458092Y-59839186D01*
X109318711Y-59746054D01*
X109200177Y-59627520D01*
X109107045Y-59488139D01*
X109042895Y-59333267D01*
X109010192Y-59168855D01*
X109010192Y-59001223D01*
X109042895Y-58836811D01*
X109107045Y-58681939D01*
X109200177Y-58542558D01*
X109318711Y-58424024D01*
X109458092Y-58330892D01*
X109612964Y-58266742D01*
X109777376Y-58234039D01*
X109945008Y-58234039D01*
X110109420Y-58266742D01*
X110109420Y-58266742D01*
G37*
G36*
X97983124Y-58400280D02*
X98020811Y-58411713D01*
X98055550Y-58430281D01*
X98085995Y-58455267D01*
X98110981Y-58485712D01*
X98129549Y-58520451D01*
X98140982Y-58558138D01*
X98145447Y-58603476D01*
X98145447Y-59690154D01*
X98140982Y-59735492D01*
X98129549Y-59773179D01*
X98110981Y-59807918D01*
X98085995Y-59838363D01*
X98055550Y-59863349D01*
X98020811Y-59881917D01*
X97983124Y-59893350D01*
X97937786Y-59897815D01*
X97101108Y-59897815D01*
X97055770Y-59893350D01*
X97018083Y-59881917D01*
X96983344Y-59863349D01*
X96952899Y-59838363D01*
X96927913Y-59807918D01*
X96909345Y-59773179D01*
X96897912Y-59735492D01*
X96893447Y-59690154D01*
X96893447Y-58603476D01*
X96897912Y-58558138D01*
X96909345Y-58520451D01*
X96927913Y-58485712D01*
X96952899Y-58455267D01*
X96983344Y-58430281D01*
X97018083Y-58411713D01*
X97055770Y-58400280D01*
X97101108Y-58395815D01*
X97937786Y-58395815D01*
X97983124Y-58400280D01*
X97983124Y-58400280D01*
G37*
G36*
X100033124Y-58400280D02*
X100070811Y-58411713D01*
X100105550Y-58430281D01*
X100135995Y-58455267D01*
X100160981Y-58485712D01*
X100179549Y-58520451D01*
X100190982Y-58558138D01*
X100195447Y-58603476D01*
X100195447Y-59690154D01*
X100190982Y-59735492D01*
X100179549Y-59773179D01*
X100160981Y-59807918D01*
X100135995Y-59838363D01*
X100105550Y-59863349D01*
X100070811Y-59881917D01*
X100033124Y-59893350D01*
X99987786Y-59897815D01*
X99151108Y-59897815D01*
X99105770Y-59893350D01*
X99068083Y-59881917D01*
X99033344Y-59863349D01*
X99002899Y-59838363D01*
X98977913Y-59807918D01*
X98959345Y-59773179D01*
X98947912Y-59735492D01*
X98943447Y-59690154D01*
X98943447Y-58603476D01*
X98947912Y-58558138D01*
X98959345Y-58520451D01*
X98977913Y-58485712D01*
X99002899Y-58455267D01*
X99033344Y-58430281D01*
X99068083Y-58411713D01*
X99105770Y-58400280D01*
X99151108Y-58395815D01*
X99987786Y-58395815D01*
X100033124Y-58400280D01*
X100033124Y-58400280D01*
G37*
G36*
X139071635Y-56030558D02*
X139137819Y-56037076D01*
X139239834Y-56068022D01*
X139307659Y-56088596D01*
X139415318Y-56146142D01*
X139464183Y-56172261D01*
X139469454Y-56176587D01*
X139601378Y-56284853D01*
X139684640Y-56386310D01*
X139713970Y-56422048D01*
X139713971Y-56422050D01*
X139797635Y-56578572D01*
X139797635Y-56578573D01*
X139849155Y-56748412D01*
X139866551Y-56925039D01*
X139849155Y-57101666D01*
X139818326Y-57203296D01*
X139797635Y-57271506D01*
X139726008Y-57405509D01*
X139713970Y-57428030D01*
X139684640Y-57463768D01*
X139601378Y-57565225D01*
X139499921Y-57648487D01*
X139464183Y-57677817D01*
X139464181Y-57677818D01*
X139307659Y-57761482D01*
X139251045Y-57778655D01*
X139137819Y-57813002D01*
X139071635Y-57819520D01*
X139005452Y-57826039D01*
X138916932Y-57826039D01*
X138850749Y-57819520D01*
X138784565Y-57813002D01*
X138671339Y-57778655D01*
X138614725Y-57761482D01*
X138458203Y-57677818D01*
X138458201Y-57677817D01*
X138422463Y-57648487D01*
X138321006Y-57565225D01*
X138237744Y-57463768D01*
X138208414Y-57428030D01*
X138196376Y-57405509D01*
X138124749Y-57271506D01*
X138104058Y-57203296D01*
X138073229Y-57101666D01*
X138055833Y-56925039D01*
X138073229Y-56748412D01*
X138124749Y-56578573D01*
X138124749Y-56578572D01*
X138208413Y-56422050D01*
X138208414Y-56422048D01*
X138237744Y-56386310D01*
X138321006Y-56284853D01*
X138452930Y-56176587D01*
X138458201Y-56172261D01*
X138507066Y-56146142D01*
X138614725Y-56088596D01*
X138682550Y-56068022D01*
X138784565Y-56037076D01*
X138850749Y-56030558D01*
X138916932Y-56024039D01*
X139005452Y-56024039D01*
X139071635Y-56030558D01*
X139071635Y-56030558D01*
G37*
G36*
X132038334Y-55903281D02*
X132186294Y-55964569D01*
X132253322Y-56009356D01*
X132294809Y-56037076D01*
X132319450Y-56053541D01*
X132432690Y-56166781D01*
X132521662Y-56299937D01*
X132582950Y-56447897D01*
X132614192Y-56604964D01*
X132614192Y-56765114D01*
X132582950Y-56922181D01*
X132521662Y-57070141D01*
X132432690Y-57203297D01*
X132319450Y-57316537D01*
X132186294Y-57405509D01*
X132038334Y-57466797D01*
X131881267Y-57498039D01*
X131721117Y-57498039D01*
X131564050Y-57466797D01*
X131416090Y-57405509D01*
X131282934Y-57316537D01*
X131169694Y-57203297D01*
X131080722Y-57070141D01*
X131019434Y-56922181D01*
X130988192Y-56765114D01*
X130988192Y-56604964D01*
X131019434Y-56447897D01*
X131080722Y-56299937D01*
X131169694Y-56166781D01*
X131282934Y-56053541D01*
X131307576Y-56037076D01*
X131349062Y-56009356D01*
X131416090Y-55964569D01*
X131564050Y-55903281D01*
X131721117Y-55872039D01*
X131881267Y-55872039D01*
X132038334Y-55903281D01*
X132038334Y-55903281D01*
G37*
G36*
X95849869Y-54988504D02*
X95887556Y-54999937D01*
X95922295Y-55018505D01*
X95952740Y-55043491D01*
X95977726Y-55073936D01*
X95996294Y-55108675D01*
X96007727Y-55146362D01*
X96012192Y-55191700D01*
X96012192Y-56028378D01*
X96007727Y-56073716D01*
X95996294Y-56111403D01*
X95977726Y-56146142D01*
X95952740Y-56176587D01*
X95922295Y-56201573D01*
X95887556Y-56220141D01*
X95849869Y-56231574D01*
X95804531Y-56236039D01*
X94717853Y-56236039D01*
X94672515Y-56231574D01*
X94634828Y-56220141D01*
X94600089Y-56201573D01*
X94569644Y-56176587D01*
X94544658Y-56146142D01*
X94526090Y-56111403D01*
X94514657Y-56073716D01*
X94510192Y-56028378D01*
X94510192Y-55191700D01*
X94514657Y-55146362D01*
X94526090Y-55108675D01*
X94544658Y-55073936D01*
X94569644Y-55043491D01*
X94600089Y-55018505D01*
X94634828Y-54999937D01*
X94672515Y-54988504D01*
X94717853Y-54984039D01*
X95804531Y-54984039D01*
X95849869Y-54988504D01*
X95849869Y-54988504D01*
G37*
G36*
X93649869Y-54988504D02*
X93687556Y-54999937D01*
X93722295Y-55018505D01*
X93752740Y-55043491D01*
X93777726Y-55073936D01*
X93796294Y-55108675D01*
X93807727Y-55146362D01*
X93812192Y-55191700D01*
X93812192Y-56028378D01*
X93807727Y-56073716D01*
X93796294Y-56111403D01*
X93777726Y-56146142D01*
X93752740Y-56176587D01*
X93722295Y-56201573D01*
X93687556Y-56220141D01*
X93649869Y-56231574D01*
X93604531Y-56236039D01*
X92517853Y-56236039D01*
X92472515Y-56231574D01*
X92434828Y-56220141D01*
X92400089Y-56201573D01*
X92369644Y-56176587D01*
X92344658Y-56146142D01*
X92326090Y-56111403D01*
X92314657Y-56073716D01*
X92310192Y-56028378D01*
X92310192Y-55191700D01*
X92314657Y-55146362D01*
X92326090Y-55108675D01*
X92344658Y-55073936D01*
X92369644Y-55043491D01*
X92400089Y-55018505D01*
X92434828Y-54999937D01*
X92472515Y-54988504D01*
X92517853Y-54984039D01*
X93604531Y-54984039D01*
X93649869Y-54988504D01*
X93649869Y-54988504D01*
G37*
G36*
X101512192Y-55736039D02*
X99810192Y-55736039D01*
X99810192Y-54034039D01*
X101512192Y-54034039D01*
X101512192Y-55736039D01*
X101512192Y-55736039D01*
G37*
G36*
X98909420Y-54066742D02*
X99064292Y-54130892D01*
X99203673Y-54224024D01*
X99322207Y-54342558D01*
X99415339Y-54481939D01*
X99479489Y-54636811D01*
X99512192Y-54801223D01*
X99512192Y-54968855D01*
X99479489Y-55133267D01*
X99415339Y-55288139D01*
X99322207Y-55427520D01*
X99203673Y-55546054D01*
X99064292Y-55639186D01*
X98909420Y-55703336D01*
X98745008Y-55736039D01*
X98577376Y-55736039D01*
X98412964Y-55703336D01*
X98258092Y-55639186D01*
X98118711Y-55546054D01*
X98000177Y-55427520D01*
X97907045Y-55288139D01*
X97842895Y-55133267D01*
X97810192Y-54968855D01*
X97810192Y-54801223D01*
X97842895Y-54636811D01*
X97907045Y-54481939D01*
X98000177Y-54342558D01*
X98118711Y-54224024D01*
X98258092Y-54130892D01*
X98412964Y-54066742D01*
X98577376Y-54034039D01*
X98745008Y-54034039D01*
X98909420Y-54066742D01*
X98909420Y-54066742D01*
G37*
G36*
X139071635Y-53490558D02*
X139137819Y-53497076D01*
X139251045Y-53531423D01*
X139307659Y-53548596D01*
X139446279Y-53622691D01*
X139464183Y-53632261D01*
X139499921Y-53661591D01*
X139601378Y-53744853D01*
X139684640Y-53846310D01*
X139713970Y-53882048D01*
X139713971Y-53882050D01*
X139797635Y-54038572D01*
X139805641Y-54064964D01*
X139849155Y-54208412D01*
X139866551Y-54385039D01*
X139849155Y-54561666D01*
X139826360Y-54636811D01*
X139797635Y-54731506D01*
X139760370Y-54801223D01*
X139713970Y-54888030D01*
X139684640Y-54923768D01*
X139601378Y-55025225D01*
X139504169Y-55105001D01*
X139464183Y-55137817D01*
X139464181Y-55137818D01*
X139307659Y-55221482D01*
X139251045Y-55238655D01*
X139137819Y-55273002D01*
X139071634Y-55279521D01*
X139005452Y-55286039D01*
X138916932Y-55286039D01*
X138850750Y-55279521D01*
X138784565Y-55273002D01*
X138671339Y-55238655D01*
X138614725Y-55221482D01*
X138458203Y-55137818D01*
X138458201Y-55137817D01*
X138418215Y-55105001D01*
X138321006Y-55025225D01*
X138237744Y-54923768D01*
X138208414Y-54888030D01*
X138162014Y-54801223D01*
X138124749Y-54731506D01*
X138096024Y-54636811D01*
X138073229Y-54561666D01*
X138055833Y-54385039D01*
X138073229Y-54208412D01*
X138116743Y-54064964D01*
X138124749Y-54038572D01*
X138208413Y-53882050D01*
X138208414Y-53882048D01*
X138237744Y-53846310D01*
X138321006Y-53744853D01*
X138422463Y-53661591D01*
X138458201Y-53632261D01*
X138476105Y-53622691D01*
X138614725Y-53548596D01*
X138671339Y-53531423D01*
X138784565Y-53497076D01*
X138850749Y-53490558D01*
X138916932Y-53484039D01*
X139005452Y-53484039D01*
X139071635Y-53490558D01*
X139071635Y-53490558D01*
G37*
G36*
X132038334Y-53363281D02*
X132186294Y-53424569D01*
X132253322Y-53469356D01*
X132294809Y-53497076D01*
X132319450Y-53513541D01*
X132432690Y-53626781D01*
X132521662Y-53759937D01*
X132582950Y-53907897D01*
X132614192Y-54064964D01*
X132614192Y-54225114D01*
X132582950Y-54382181D01*
X132521662Y-54530141D01*
X132476875Y-54597169D01*
X132450388Y-54636811D01*
X132432690Y-54663297D01*
X132319450Y-54776537D01*
X132186294Y-54865509D01*
X132038334Y-54926797D01*
X131881267Y-54958039D01*
X131721117Y-54958039D01*
X131564050Y-54926797D01*
X131416090Y-54865509D01*
X131282934Y-54776537D01*
X131169694Y-54663297D01*
X131151997Y-54636811D01*
X131125509Y-54597169D01*
X131080722Y-54530141D01*
X131019434Y-54382181D01*
X130988192Y-54225114D01*
X130988192Y-54064964D01*
X131019434Y-53907897D01*
X131080722Y-53759937D01*
X131169694Y-53626781D01*
X131282934Y-53513541D01*
X131307576Y-53497076D01*
X131349062Y-53469356D01*
X131416090Y-53424569D01*
X131564050Y-53363281D01*
X131721117Y-53332039D01*
X131881267Y-53332039D01*
X132038334Y-53363281D01*
X132038334Y-53363281D01*
G37*
G36*
X109199869Y-53038504D02*
X109237556Y-53049937D01*
X109272295Y-53068505D01*
X109302740Y-53093491D01*
X109327726Y-53123936D01*
X109346294Y-53158675D01*
X109357727Y-53196362D01*
X109362192Y-53241700D01*
X109362192Y-54328378D01*
X109357727Y-54373716D01*
X109346294Y-54411403D01*
X109327726Y-54446142D01*
X109302740Y-54476587D01*
X109272295Y-54501573D01*
X109237556Y-54520141D01*
X109199869Y-54531574D01*
X109154531Y-54536039D01*
X108317853Y-54536039D01*
X108272515Y-54531574D01*
X108234828Y-54520141D01*
X108200089Y-54501573D01*
X108169644Y-54476587D01*
X108144658Y-54446142D01*
X108126090Y-54411403D01*
X108114657Y-54373716D01*
X108110192Y-54328378D01*
X108110192Y-53241700D01*
X108114657Y-53196362D01*
X108126090Y-53158675D01*
X108144658Y-53123936D01*
X108169644Y-53093491D01*
X108200089Y-53068505D01*
X108234828Y-53049937D01*
X108272515Y-53038504D01*
X108317853Y-53034039D01*
X109154531Y-53034039D01*
X109199869Y-53038504D01*
X109199869Y-53038504D01*
G37*
G36*
X111249869Y-53038504D02*
X111287556Y-53049937D01*
X111322295Y-53068505D01*
X111352740Y-53093491D01*
X111377726Y-53123936D01*
X111396294Y-53158675D01*
X111407727Y-53196362D01*
X111412192Y-53241700D01*
X111412192Y-54328378D01*
X111407727Y-54373716D01*
X111396294Y-54411403D01*
X111377726Y-54446142D01*
X111352740Y-54476587D01*
X111322295Y-54501573D01*
X111287556Y-54520141D01*
X111249869Y-54531574D01*
X111204531Y-54536039D01*
X110367853Y-54536039D01*
X110322515Y-54531574D01*
X110284828Y-54520141D01*
X110250089Y-54501573D01*
X110219644Y-54476587D01*
X110194658Y-54446142D01*
X110176090Y-54411403D01*
X110164657Y-54373716D01*
X110160192Y-54328378D01*
X110160192Y-53241700D01*
X110164657Y-53196362D01*
X110176090Y-53158675D01*
X110194658Y-53123936D01*
X110219644Y-53093491D01*
X110250089Y-53068505D01*
X110284828Y-53049937D01*
X110322515Y-53038504D01*
X110367853Y-53034039D01*
X111204531Y-53034039D01*
X111249869Y-53038504D01*
X111249869Y-53038504D01*
G37*
G36*
X105199869Y-53038504D02*
X105237556Y-53049937D01*
X105272295Y-53068505D01*
X105302740Y-53093491D01*
X105327726Y-53123936D01*
X105346294Y-53158675D01*
X105357727Y-53196362D01*
X105362192Y-53241700D01*
X105362192Y-54328378D01*
X105357727Y-54373716D01*
X105346294Y-54411403D01*
X105327726Y-54446142D01*
X105302740Y-54476587D01*
X105272295Y-54501573D01*
X105237556Y-54520141D01*
X105199869Y-54531574D01*
X105154531Y-54536039D01*
X104317853Y-54536039D01*
X104272515Y-54531574D01*
X104234828Y-54520141D01*
X104200089Y-54501573D01*
X104169644Y-54476587D01*
X104144658Y-54446142D01*
X104126090Y-54411403D01*
X104114657Y-54373716D01*
X104110192Y-54328378D01*
X104110192Y-53241700D01*
X104114657Y-53196362D01*
X104126090Y-53158675D01*
X104144658Y-53123936D01*
X104169644Y-53093491D01*
X104200089Y-53068505D01*
X104234828Y-53049937D01*
X104272515Y-53038504D01*
X104317853Y-53034039D01*
X105154531Y-53034039D01*
X105199869Y-53038504D01*
X105199869Y-53038504D01*
G37*
G36*
X107249869Y-53038504D02*
X107287556Y-53049937D01*
X107322295Y-53068505D01*
X107352740Y-53093491D01*
X107377726Y-53123936D01*
X107396294Y-53158675D01*
X107407727Y-53196362D01*
X107412192Y-53241700D01*
X107412192Y-54328378D01*
X107407727Y-54373716D01*
X107396294Y-54411403D01*
X107377726Y-54446142D01*
X107352740Y-54476587D01*
X107322295Y-54501573D01*
X107287556Y-54520141D01*
X107249869Y-54531574D01*
X107204531Y-54536039D01*
X106367853Y-54536039D01*
X106322515Y-54531574D01*
X106284828Y-54520141D01*
X106250089Y-54501573D01*
X106219644Y-54476587D01*
X106194658Y-54446142D01*
X106176090Y-54411403D01*
X106164657Y-54373716D01*
X106160192Y-54328378D01*
X106160192Y-53241700D01*
X106164657Y-53196362D01*
X106176090Y-53158675D01*
X106194658Y-53123936D01*
X106219644Y-53093491D01*
X106250089Y-53068505D01*
X106284828Y-53049937D01*
X106322515Y-53038504D01*
X106367853Y-53034039D01*
X107204531Y-53034039D01*
X107249869Y-53038504D01*
X107249869Y-53038504D01*
G37*
G36*
X93649869Y-52938504D02*
X93687556Y-52949937D01*
X93722295Y-52968505D01*
X93752740Y-52993491D01*
X93777726Y-53023936D01*
X93796294Y-53058675D01*
X93807727Y-53096362D01*
X93812192Y-53141700D01*
X93812192Y-53978378D01*
X93807727Y-54023716D01*
X93796294Y-54061403D01*
X93777726Y-54096142D01*
X93752740Y-54126587D01*
X93722295Y-54151573D01*
X93687556Y-54170141D01*
X93649869Y-54181574D01*
X93604531Y-54186039D01*
X92517853Y-54186039D01*
X92472515Y-54181574D01*
X92434828Y-54170141D01*
X92400089Y-54151573D01*
X92369644Y-54126587D01*
X92344658Y-54096142D01*
X92326090Y-54061403D01*
X92314657Y-54023716D01*
X92310192Y-53978378D01*
X92310192Y-53141700D01*
X92314657Y-53096362D01*
X92326090Y-53058675D01*
X92344658Y-53023936D01*
X92369644Y-52993491D01*
X92400089Y-52968505D01*
X92434828Y-52949937D01*
X92472515Y-52938504D01*
X92517853Y-52934039D01*
X93604531Y-52934039D01*
X93649869Y-52938504D01*
X93649869Y-52938504D01*
G37*
G36*
X95849869Y-52938504D02*
X95887556Y-52949937D01*
X95922295Y-52968505D01*
X95952740Y-52993491D01*
X95977726Y-53023936D01*
X95996294Y-53058675D01*
X96007727Y-53096362D01*
X96012192Y-53141700D01*
X96012192Y-53978378D01*
X96007727Y-54023716D01*
X95996294Y-54061403D01*
X95977726Y-54096142D01*
X95952740Y-54126587D01*
X95922295Y-54151573D01*
X95887556Y-54170141D01*
X95849869Y-54181574D01*
X95804531Y-54186039D01*
X94717853Y-54186039D01*
X94672515Y-54181574D01*
X94634828Y-54170141D01*
X94600089Y-54151573D01*
X94569644Y-54126587D01*
X94544658Y-54096142D01*
X94526090Y-54061403D01*
X94514657Y-54023716D01*
X94510192Y-53978378D01*
X94510192Y-53141700D01*
X94514657Y-53096362D01*
X94526090Y-53058675D01*
X94544658Y-53023936D01*
X94569644Y-52993491D01*
X94600089Y-52968505D01*
X94634828Y-52949937D01*
X94672515Y-52938504D01*
X94717853Y-52934039D01*
X95804531Y-52934039D01*
X95849869Y-52938504D01*
X95849869Y-52938504D01*
G37*
G36*
X139071634Y-50950557D02*
X139137819Y-50957076D01*
X139240573Y-50988246D01*
X139307659Y-51008596D01*
X139446279Y-51082691D01*
X139464183Y-51092261D01*
X139499921Y-51121591D01*
X139601378Y-51204853D01*
X139684640Y-51306310D01*
X139713970Y-51342048D01*
X139713971Y-51342050D01*
X139797635Y-51498572D01*
X139797635Y-51498573D01*
X139849155Y-51668412D01*
X139866551Y-51845039D01*
X139849155Y-52021666D01*
X139836272Y-52064135D01*
X139797635Y-52191506D01*
X139726008Y-52325509D01*
X139713970Y-52348030D01*
X139684640Y-52383768D01*
X139601378Y-52485225D01*
X139499921Y-52568487D01*
X139464183Y-52597817D01*
X139464181Y-52597818D01*
X139307659Y-52681482D01*
X139251045Y-52698655D01*
X139137819Y-52733002D01*
X139071634Y-52739521D01*
X139005452Y-52746039D01*
X138916932Y-52746039D01*
X138850750Y-52739521D01*
X138784565Y-52733002D01*
X138671339Y-52698655D01*
X138614725Y-52681482D01*
X138458203Y-52597818D01*
X138458201Y-52597817D01*
X138422463Y-52568487D01*
X138321006Y-52485225D01*
X138237744Y-52383768D01*
X138208414Y-52348030D01*
X138196376Y-52325509D01*
X138124749Y-52191506D01*
X138086112Y-52064135D01*
X138073229Y-52021666D01*
X138055833Y-51845039D01*
X138073229Y-51668412D01*
X138124749Y-51498573D01*
X138124749Y-51498572D01*
X138208413Y-51342050D01*
X138208414Y-51342048D01*
X138237744Y-51306310D01*
X138321006Y-51204853D01*
X138422463Y-51121591D01*
X138458201Y-51092261D01*
X138476105Y-51082691D01*
X138614725Y-51008596D01*
X138681811Y-50988246D01*
X138784565Y-50957076D01*
X138850750Y-50950557D01*
X138916932Y-50944039D01*
X139005452Y-50944039D01*
X139071634Y-50950557D01*
X139071634Y-50950557D01*
G37*
G36*
X116798334Y-50823281D02*
X116946294Y-50884569D01*
X117013322Y-50929356D01*
X117054809Y-50957076D01*
X117079450Y-50973541D01*
X117192690Y-51086781D01*
X117281662Y-51219937D01*
X117342950Y-51367897D01*
X117374192Y-51524964D01*
X117374192Y-51685114D01*
X117342950Y-51842181D01*
X117281662Y-51990141D01*
X117192690Y-52123297D01*
X117079450Y-52236537D01*
X116946294Y-52325509D01*
X116798334Y-52386797D01*
X116641267Y-52418039D01*
X116481117Y-52418039D01*
X116324050Y-52386797D01*
X116176090Y-52325509D01*
X116042934Y-52236537D01*
X115929694Y-52123297D01*
X115840722Y-51990141D01*
X115779434Y-51842181D01*
X115748192Y-51685114D01*
X115748192Y-51524964D01*
X115779434Y-51367897D01*
X115840722Y-51219937D01*
X115929694Y-51086781D01*
X116042934Y-50973541D01*
X116067576Y-50957076D01*
X116109062Y-50929356D01*
X116176090Y-50884569D01*
X116324050Y-50823281D01*
X116481117Y-50792039D01*
X116641267Y-50792039D01*
X116798334Y-50823281D01*
X116798334Y-50823281D01*
G37*
G36*
X132038334Y-50823281D02*
X132186294Y-50884569D01*
X132253322Y-50929356D01*
X132294809Y-50957076D01*
X132319450Y-50973541D01*
X132432690Y-51086781D01*
X132521662Y-51219937D01*
X132582950Y-51367897D01*
X132614192Y-51524964D01*
X132614192Y-51685114D01*
X132582950Y-51842181D01*
X132521662Y-51990141D01*
X132432690Y-52123297D01*
X132319450Y-52236537D01*
X132186294Y-52325509D01*
X132038334Y-52386797D01*
X131881267Y-52418039D01*
X131721117Y-52418039D01*
X131564050Y-52386797D01*
X131416090Y-52325509D01*
X131282934Y-52236537D01*
X131169694Y-52123297D01*
X131080722Y-51990141D01*
X131019434Y-51842181D01*
X130988192Y-51685114D01*
X130988192Y-51524964D01*
X131019434Y-51367897D01*
X131080722Y-51219937D01*
X131169694Y-51086781D01*
X131282934Y-50973541D01*
X131307576Y-50957076D01*
X131349062Y-50929356D01*
X131416090Y-50884569D01*
X131564050Y-50823281D01*
X131721117Y-50792039D01*
X131881267Y-50792039D01*
X132038334Y-50823281D01*
X132038334Y-50823281D01*
G37*
G36*
X108017912Y-50048559D02*
X108207073Y-50105940D01*
X108381404Y-50199122D01*
X108534207Y-50324524D01*
X108659609Y-50477327D01*
X108752791Y-50651659D01*
X108810172Y-50840820D01*
X108824692Y-50988246D01*
X108824692Y-51181833D01*
X108810172Y-51329259D01*
X108752791Y-51518420D01*
X108659609Y-51692751D01*
X108534207Y-51845554D01*
X108381404Y-51970956D01*
X108207072Y-52064138D01*
X108017911Y-52121519D01*
X107821192Y-52140894D01*
X107624472Y-52121519D01*
X107435311Y-52064138D01*
X107260980Y-51970956D01*
X107108177Y-51845554D01*
X106982775Y-51692751D01*
X106889593Y-51518419D01*
X106832212Y-51329258D01*
X106817692Y-51181832D01*
X106817692Y-50988245D01*
X106832212Y-50840819D01*
X106889593Y-50651658D01*
X106982775Y-50477327D01*
X107108177Y-50324524D01*
X107260980Y-50199122D01*
X107435312Y-50105940D01*
X107624473Y-50048559D01*
X107821192Y-50029184D01*
X108017912Y-50048559D01*
X108017912Y-50048559D01*
G37*
G36*
X105477912Y-50048559D02*
X105667073Y-50105940D01*
X105841404Y-50199122D01*
X105994207Y-50324524D01*
X106119609Y-50477327D01*
X106212791Y-50651659D01*
X106270172Y-50840820D01*
X106284692Y-50988246D01*
X106284692Y-51181833D01*
X106270172Y-51329259D01*
X106212791Y-51518420D01*
X106119609Y-51692751D01*
X105994207Y-51845554D01*
X105841404Y-51970956D01*
X105667072Y-52064138D01*
X105477911Y-52121519D01*
X105281192Y-52140894D01*
X105084472Y-52121519D01*
X104895311Y-52064138D01*
X104720980Y-51970956D01*
X104568177Y-51845554D01*
X104442775Y-51692751D01*
X104349593Y-51518419D01*
X104292212Y-51329258D01*
X104277692Y-51181832D01*
X104277692Y-50988245D01*
X104292212Y-50840819D01*
X104349593Y-50651658D01*
X104442775Y-50477327D01*
X104568177Y-50324524D01*
X104720980Y-50199122D01*
X104895312Y-50105940D01*
X105084473Y-50048559D01*
X105281192Y-50029184D01*
X105477912Y-50048559D01*
X105477912Y-50048559D01*
G37*
G36*
X111364692Y-52136039D02*
X109357692Y-52136039D01*
X109357692Y-50034039D01*
X111364692Y-50034039D01*
X111364692Y-52136039D01*
X111364692Y-52136039D01*
G37*
G36*
X139071634Y-48410557D02*
X139137819Y-48417076D01*
X139251045Y-48451423D01*
X139307659Y-48468596D01*
X139446279Y-48542691D01*
X139464183Y-48552261D01*
X139499921Y-48581591D01*
X139601378Y-48664853D01*
X139684640Y-48766310D01*
X139713970Y-48802048D01*
X139713971Y-48802050D01*
X139797635Y-48958572D01*
X139797635Y-48958573D01*
X139849155Y-49128412D01*
X139866551Y-49305039D01*
X139849155Y-49481666D01*
X139832661Y-49536039D01*
X139797635Y-49651506D01*
X139726008Y-49785509D01*
X139713970Y-49808030D01*
X139684640Y-49843768D01*
X139601378Y-49945225D01*
X139499921Y-50028487D01*
X139464183Y-50057817D01*
X139464181Y-50057818D01*
X139307659Y-50141482D01*
X139251045Y-50158655D01*
X139137819Y-50193002D01*
X139071634Y-50199521D01*
X139005452Y-50206039D01*
X138916932Y-50206039D01*
X138850749Y-50199520D01*
X138784565Y-50193002D01*
X138671339Y-50158655D01*
X138614725Y-50141482D01*
X138458203Y-50057818D01*
X138458201Y-50057817D01*
X138422463Y-50028487D01*
X138321006Y-49945225D01*
X138237744Y-49843768D01*
X138208414Y-49808030D01*
X138196376Y-49785509D01*
X138124749Y-49651506D01*
X138089723Y-49536039D01*
X138073229Y-49481666D01*
X138055833Y-49305039D01*
X138073229Y-49128412D01*
X138124749Y-48958573D01*
X138124749Y-48958572D01*
X138208413Y-48802050D01*
X138208414Y-48802048D01*
X138237744Y-48766310D01*
X138321006Y-48664853D01*
X138422463Y-48581591D01*
X138458201Y-48552261D01*
X138476105Y-48542691D01*
X138614725Y-48468596D01*
X138671339Y-48451423D01*
X138784565Y-48417076D01*
X138850750Y-48410557D01*
X138916932Y-48404039D01*
X139005452Y-48404039D01*
X139071634Y-48410557D01*
X139071634Y-48410557D01*
G37*
G36*
X132038334Y-48283281D02*
X132186294Y-48344569D01*
X132251657Y-48388243D01*
X132294809Y-48417076D01*
X132319450Y-48433541D01*
X132432690Y-48546781D01*
X132521662Y-48679937D01*
X132582950Y-48827897D01*
X132614192Y-48984964D01*
X132614192Y-49145114D01*
X132582950Y-49302181D01*
X132521662Y-49450141D01*
X132432690Y-49583297D01*
X132319450Y-49696537D01*
X132186294Y-49785509D01*
X132038334Y-49846797D01*
X131881267Y-49878039D01*
X131721117Y-49878039D01*
X131564050Y-49846797D01*
X131416090Y-49785509D01*
X131282934Y-49696537D01*
X131169694Y-49583297D01*
X131080722Y-49450141D01*
X131019434Y-49302181D01*
X130988192Y-49145114D01*
X130988192Y-48984964D01*
X131019434Y-48827897D01*
X131080722Y-48679937D01*
X131169694Y-48546781D01*
X131282934Y-48433541D01*
X131307576Y-48417076D01*
X131350727Y-48388243D01*
X131416090Y-48344569D01*
X131564050Y-48283281D01*
X131721117Y-48252039D01*
X131881267Y-48252039D01*
X132038334Y-48283281D01*
X132038334Y-48283281D01*
G37*
G36*
X116798334Y-48283281D02*
X116946294Y-48344569D01*
X117011657Y-48388243D01*
X117054809Y-48417076D01*
X117079450Y-48433541D01*
X117192690Y-48546781D01*
X117281662Y-48679937D01*
X117342950Y-48827897D01*
X117374192Y-48984964D01*
X117374192Y-49145114D01*
X117342950Y-49302181D01*
X117281662Y-49450141D01*
X117192690Y-49583297D01*
X117079450Y-49696537D01*
X116946294Y-49785509D01*
X116798334Y-49846797D01*
X116641267Y-49878039D01*
X116481117Y-49878039D01*
X116324050Y-49846797D01*
X116176090Y-49785509D01*
X116042934Y-49696537D01*
X115929694Y-49583297D01*
X115840722Y-49450141D01*
X115779434Y-49302181D01*
X115748192Y-49145114D01*
X115748192Y-48984964D01*
X115779434Y-48827897D01*
X115840722Y-48679937D01*
X115929694Y-48546781D01*
X116042934Y-48433541D01*
X116067576Y-48417076D01*
X116110727Y-48388243D01*
X116176090Y-48344569D01*
X116324050Y-48283281D01*
X116481117Y-48252039D01*
X116641267Y-48252039D01*
X116798334Y-48283281D01*
X116798334Y-48283281D01*
G37*
G36*
X99237911Y-47448559D02*
X99427072Y-47505940D01*
X99601404Y-47599122D01*
X99754207Y-47724524D01*
X99879609Y-47877327D01*
X99972791Y-48051658D01*
X100030172Y-48240819D01*
X100044692Y-48388245D01*
X100044692Y-48581832D01*
X100030172Y-48729258D01*
X99972791Y-48918419D01*
X99879609Y-49092751D01*
X99754207Y-49245554D01*
X99601404Y-49370956D01*
X99427073Y-49464138D01*
X99237912Y-49521519D01*
X99041192Y-49540894D01*
X98844473Y-49521519D01*
X98655312Y-49464138D01*
X98480980Y-49370956D01*
X98328177Y-49245554D01*
X98202775Y-49092751D01*
X98109593Y-48918420D01*
X98052212Y-48729259D01*
X98037692Y-48581833D01*
X98037692Y-48388246D01*
X98052212Y-48240820D01*
X98109593Y-48051659D01*
X98202775Y-47877327D01*
X98328177Y-47724524D01*
X98480980Y-47599122D01*
X98655311Y-47505940D01*
X98844472Y-47448559D01*
X99041192Y-47429184D01*
X99237911Y-47448559D01*
X99237911Y-47448559D01*
G37*
G36*
X96697911Y-47448559D02*
X96887072Y-47505940D01*
X97061404Y-47599122D01*
X97214207Y-47724524D01*
X97339609Y-47877327D01*
X97432791Y-48051658D01*
X97490172Y-48240819D01*
X97504692Y-48388245D01*
X97504692Y-48581832D01*
X97490172Y-48729258D01*
X97432791Y-48918419D01*
X97339609Y-49092751D01*
X97214207Y-49245554D01*
X97061404Y-49370956D01*
X96887073Y-49464138D01*
X96697912Y-49521519D01*
X96501192Y-49540894D01*
X96304473Y-49521519D01*
X96115312Y-49464138D01*
X95940980Y-49370956D01*
X95788177Y-49245554D01*
X95662775Y-49092751D01*
X95569593Y-48918420D01*
X95512212Y-48729259D01*
X95497692Y-48581833D01*
X95497692Y-48388246D01*
X95512212Y-48240820D01*
X95569593Y-48051659D01*
X95662775Y-47877327D01*
X95788177Y-47724524D01*
X95940980Y-47599122D01*
X96115311Y-47505940D01*
X96304472Y-47448559D01*
X96501192Y-47429184D01*
X96697911Y-47448559D01*
X96697911Y-47448559D01*
G37*
G36*
X94964692Y-49536039D02*
X92957692Y-49536039D01*
X92957692Y-47434039D01*
X94964692Y-47434039D01*
X94964692Y-49536039D01*
X94964692Y-49536039D01*
G37*
G36*
X139071634Y-45870557D02*
X139137819Y-45877076D01*
X139251045Y-45911423D01*
X139307659Y-45928596D01*
X139446279Y-46002691D01*
X139464183Y-46012261D01*
X139499921Y-46041591D01*
X139601378Y-46124853D01*
X139684640Y-46226310D01*
X139713970Y-46262048D01*
X139713971Y-46262050D01*
X139797635Y-46418572D01*
X139797635Y-46418573D01*
X139849155Y-46588412D01*
X139866551Y-46765039D01*
X139849155Y-46941666D01*
X139818326Y-47043296D01*
X139797635Y-47111506D01*
X139726008Y-47245509D01*
X139713970Y-47268030D01*
X139684640Y-47303768D01*
X139601378Y-47405225D01*
X139499921Y-47488487D01*
X139464183Y-47517817D01*
X139464181Y-47517818D01*
X139307659Y-47601482D01*
X139251045Y-47618655D01*
X139137819Y-47653002D01*
X139071634Y-47659521D01*
X139005452Y-47666039D01*
X138916932Y-47666039D01*
X138850750Y-47659521D01*
X138784565Y-47653002D01*
X138671339Y-47618655D01*
X138614725Y-47601482D01*
X138458203Y-47517818D01*
X138458201Y-47517817D01*
X138422463Y-47488487D01*
X138321006Y-47405225D01*
X138237744Y-47303768D01*
X138208414Y-47268030D01*
X138196376Y-47245509D01*
X138124749Y-47111506D01*
X138104058Y-47043296D01*
X138073229Y-46941666D01*
X138055833Y-46765039D01*
X138073229Y-46588412D01*
X138124749Y-46418573D01*
X138124749Y-46418572D01*
X138208413Y-46262050D01*
X138208414Y-46262048D01*
X138237744Y-46226310D01*
X138321006Y-46124853D01*
X138422463Y-46041591D01*
X138458201Y-46012261D01*
X138476105Y-46002691D01*
X138614725Y-45928596D01*
X138671339Y-45911423D01*
X138784565Y-45877076D01*
X138850750Y-45870557D01*
X138916932Y-45864039D01*
X139005452Y-45864039D01*
X139071634Y-45870557D01*
X139071634Y-45870557D01*
G37*
G36*
X132038334Y-45743281D02*
X132186294Y-45804569D01*
X132253322Y-45849356D01*
X132294809Y-45877076D01*
X132319450Y-45893541D01*
X132432690Y-46006781D01*
X132521662Y-46139937D01*
X132582950Y-46287897D01*
X132614192Y-46444964D01*
X132614192Y-46605114D01*
X132582950Y-46762181D01*
X132521662Y-46910141D01*
X132432690Y-47043297D01*
X132319450Y-47156537D01*
X132186294Y-47245509D01*
X132038334Y-47306797D01*
X131881267Y-47338039D01*
X131721117Y-47338039D01*
X131564050Y-47306797D01*
X131416090Y-47245509D01*
X131282934Y-47156537D01*
X131169694Y-47043297D01*
X131080722Y-46910141D01*
X131019434Y-46762181D01*
X130988192Y-46605114D01*
X130988192Y-46444964D01*
X131019434Y-46287897D01*
X131080722Y-46139937D01*
X131169694Y-46006781D01*
X131282934Y-45893541D01*
X131307576Y-45877076D01*
X131349062Y-45849356D01*
X131416090Y-45804569D01*
X131564050Y-45743281D01*
X131721117Y-45712039D01*
X131881267Y-45712039D01*
X132038334Y-45743281D01*
X132038334Y-45743281D01*
G37*
G36*
X116798334Y-45743281D02*
X116946294Y-45804569D01*
X117013322Y-45849356D01*
X117054809Y-45877076D01*
X117079450Y-45893541D01*
X117192690Y-46006781D01*
X117281662Y-46139937D01*
X117342950Y-46287897D01*
X117374192Y-46444964D01*
X117374192Y-46605114D01*
X117342950Y-46762181D01*
X117281662Y-46910141D01*
X117192690Y-47043297D01*
X117079450Y-47156537D01*
X116946294Y-47245509D01*
X116798334Y-47306797D01*
X116641267Y-47338039D01*
X116481117Y-47338039D01*
X116324050Y-47306797D01*
X116176090Y-47245509D01*
X116042934Y-47156537D01*
X115929694Y-47043297D01*
X115840722Y-46910141D01*
X115779434Y-46762181D01*
X115748192Y-46605114D01*
X115748192Y-46444964D01*
X115779434Y-46287897D01*
X115840722Y-46139937D01*
X115929694Y-46006781D01*
X116042934Y-45893541D01*
X116067576Y-45877076D01*
X116109062Y-45849356D01*
X116176090Y-45804569D01*
X116324050Y-45743281D01*
X116481117Y-45712039D01*
X116641267Y-45712039D01*
X116798334Y-45743281D01*
X116798334Y-45743281D01*
G37*
G36*
X139071634Y-43330557D02*
X139137819Y-43337076D01*
X139251045Y-43371423D01*
X139307659Y-43388596D01*
X139446279Y-43462691D01*
X139464183Y-43472261D01*
X139499921Y-43501591D01*
X139601378Y-43584853D01*
X139684640Y-43686310D01*
X139713970Y-43722048D01*
X139713971Y-43722050D01*
X139797635Y-43878572D01*
X139797635Y-43878573D01*
X139849155Y-44048412D01*
X139866551Y-44225039D01*
X139849155Y-44401666D01*
X139818326Y-44503296D01*
X139797635Y-44571506D01*
X139726008Y-44705509D01*
X139713970Y-44728030D01*
X139684640Y-44763768D01*
X139601378Y-44865225D01*
X139499921Y-44948487D01*
X139464183Y-44977817D01*
X139464181Y-44977818D01*
X139307659Y-45061482D01*
X139251045Y-45078655D01*
X139137819Y-45113002D01*
X139071635Y-45119520D01*
X139005452Y-45126039D01*
X138916932Y-45126039D01*
X138850749Y-45119520D01*
X138784565Y-45113002D01*
X138671339Y-45078655D01*
X138614725Y-45061482D01*
X138458203Y-44977818D01*
X138458201Y-44977817D01*
X138422463Y-44948487D01*
X138321006Y-44865225D01*
X138237744Y-44763768D01*
X138208414Y-44728030D01*
X138196376Y-44705509D01*
X138124749Y-44571506D01*
X138104058Y-44503296D01*
X138073229Y-44401666D01*
X138055833Y-44225039D01*
X138073229Y-44048412D01*
X138124749Y-43878573D01*
X138124749Y-43878572D01*
X138208413Y-43722050D01*
X138208414Y-43722048D01*
X138237744Y-43686310D01*
X138321006Y-43584853D01*
X138422463Y-43501591D01*
X138458201Y-43472261D01*
X138476105Y-43462691D01*
X138614725Y-43388596D01*
X138671339Y-43371423D01*
X138784565Y-43337076D01*
X138850750Y-43330557D01*
X138916932Y-43324039D01*
X139005452Y-43324039D01*
X139071634Y-43330557D01*
X139071634Y-43330557D01*
G37*
G36*
X116798334Y-43203281D02*
X116946294Y-43264569D01*
X117013322Y-43309356D01*
X117054809Y-43337076D01*
X117079450Y-43353541D01*
X117192690Y-43466781D01*
X117281662Y-43599937D01*
X117342950Y-43747897D01*
X117374192Y-43904964D01*
X117374192Y-44065114D01*
X117342950Y-44222181D01*
X117281662Y-44370141D01*
X117192690Y-44503297D01*
X117079450Y-44616537D01*
X116946294Y-44705509D01*
X116798334Y-44766797D01*
X116641267Y-44798039D01*
X116481117Y-44798039D01*
X116324050Y-44766797D01*
X116176090Y-44705509D01*
X116042934Y-44616537D01*
X115929694Y-44503297D01*
X115840722Y-44370141D01*
X115779434Y-44222181D01*
X115748192Y-44065114D01*
X115748192Y-43904964D01*
X115779434Y-43747897D01*
X115840722Y-43599937D01*
X115929694Y-43466781D01*
X116042934Y-43353541D01*
X116067576Y-43337076D01*
X116109062Y-43309356D01*
X116176090Y-43264569D01*
X116324050Y-43203281D01*
X116481117Y-43172039D01*
X116641267Y-43172039D01*
X116798334Y-43203281D01*
X116798334Y-43203281D01*
G37*
G36*
X132038334Y-43203281D02*
X132186294Y-43264569D01*
X132253322Y-43309356D01*
X132294809Y-43337076D01*
X132319450Y-43353541D01*
X132432690Y-43466781D01*
X132521662Y-43599937D01*
X132582950Y-43747897D01*
X132614192Y-43904964D01*
X132614192Y-44065114D01*
X132582950Y-44222181D01*
X132521662Y-44370141D01*
X132432690Y-44503297D01*
X132319450Y-44616537D01*
X132186294Y-44705509D01*
X132038334Y-44766797D01*
X131881267Y-44798039D01*
X131721117Y-44798039D01*
X131564050Y-44766797D01*
X131416090Y-44705509D01*
X131282934Y-44616537D01*
X131169694Y-44503297D01*
X131080722Y-44370141D01*
X131019434Y-44222181D01*
X130988192Y-44065114D01*
X130988192Y-43904964D01*
X131019434Y-43747897D01*
X131080722Y-43599937D01*
X131169694Y-43466781D01*
X131282934Y-43353541D01*
X131307576Y-43337076D01*
X131349062Y-43309356D01*
X131416090Y-43264569D01*
X131564050Y-43203281D01*
X131721117Y-43172039D01*
X131881267Y-43172039D01*
X132038334Y-43203281D01*
X132038334Y-43203281D01*
G37*
G36*
X110885372Y-42150701D02*
X110986827Y-42160693D01*
X111203792Y-42226509D01*
X111203794Y-42226510D01*
X111203797Y-42226511D01*
X111403748Y-42333386D01*
X111579010Y-42477221D01*
X111722845Y-42652483D01*
X111829720Y-42852434D01*
X111829721Y-42852437D01*
X111829722Y-42852439D01*
X111895538Y-43069404D01*
X111917761Y-43295039D01*
X111895538Y-43520674D01*
X111829722Y-43737639D01*
X111829720Y-43737644D01*
X111722845Y-43937595D01*
X111579010Y-44112857D01*
X111403748Y-44256692D01*
X111203797Y-44363567D01*
X111203794Y-44363568D01*
X111203792Y-44363569D01*
X110986827Y-44429385D01*
X110885372Y-44439377D01*
X110817737Y-44446039D01*
X110704647Y-44446039D01*
X110637012Y-44439377D01*
X110535557Y-44429385D01*
X110318592Y-44363569D01*
X110318590Y-44363568D01*
X110318587Y-44363567D01*
X110118636Y-44256692D01*
X109943374Y-44112857D01*
X109799539Y-43937595D01*
X109692664Y-43737644D01*
X109692662Y-43737639D01*
X109626846Y-43520674D01*
X109604623Y-43295039D01*
X109626846Y-43069404D01*
X109692662Y-42852439D01*
X109692663Y-42852437D01*
X109692664Y-42852434D01*
X109799539Y-42652483D01*
X109943374Y-42477221D01*
X110118636Y-42333386D01*
X110318587Y-42226511D01*
X110318590Y-42226510D01*
X110318592Y-42226509D01*
X110535557Y-42160693D01*
X110637012Y-42150701D01*
X110704647Y-42144039D01*
X110817737Y-42144039D01*
X110885372Y-42150701D01*
X110885372Y-42150701D01*
G37*
G36*
X95212192Y-43836039D02*
X92910192Y-43836039D01*
X92910192Y-41534039D01*
X95212192Y-41534039D01*
X95212192Y-43836039D01*
X95212192Y-43836039D01*
G37*
G36*
X139071635Y-40790558D02*
X139137819Y-40797076D01*
X139251045Y-40831423D01*
X139307659Y-40848596D01*
X139446279Y-40922691D01*
X139464183Y-40932261D01*
X139499921Y-40961591D01*
X139601378Y-41044853D01*
X139673936Y-41133267D01*
X139713970Y-41182048D01*
X139713971Y-41182050D01*
X139797635Y-41338572D01*
X139797635Y-41338573D01*
X139849155Y-41508412D01*
X139866551Y-41685039D01*
X139849155Y-41861666D01*
X139826594Y-41936039D01*
X139797635Y-42031506D01*
X139737484Y-42144039D01*
X139713970Y-42188030D01*
X139684640Y-42223768D01*
X139601378Y-42325225D01*
X139499921Y-42408487D01*
X139464183Y-42437817D01*
X139464181Y-42437818D01*
X139307659Y-42521482D01*
X139251045Y-42538655D01*
X139137819Y-42573002D01*
X139071634Y-42579521D01*
X139005452Y-42586039D01*
X138916932Y-42586039D01*
X138850750Y-42579521D01*
X138784565Y-42573002D01*
X138671339Y-42538655D01*
X138614725Y-42521482D01*
X138458203Y-42437818D01*
X138458201Y-42437817D01*
X138422463Y-42408487D01*
X138321006Y-42325225D01*
X138237744Y-42223768D01*
X138208414Y-42188030D01*
X138184900Y-42144039D01*
X138124749Y-42031506D01*
X138095790Y-41936039D01*
X138073229Y-41861666D01*
X138055833Y-41685039D01*
X138073229Y-41508412D01*
X138124749Y-41338573D01*
X138124749Y-41338572D01*
X138208413Y-41182050D01*
X138208414Y-41182048D01*
X138248448Y-41133267D01*
X138321006Y-41044853D01*
X138422463Y-40961591D01*
X138458201Y-40932261D01*
X138476105Y-40922691D01*
X138614725Y-40848596D01*
X138671339Y-40831423D01*
X138784565Y-40797076D01*
X138850749Y-40790558D01*
X138916932Y-40784039D01*
X139005452Y-40784039D01*
X139071635Y-40790558D01*
X139071635Y-40790558D01*
G37*
G36*
X116798334Y-40663281D02*
X116946294Y-40724569D01*
X117013322Y-40769356D01*
X117054809Y-40797076D01*
X117079450Y-40813541D01*
X117192690Y-40926781D01*
X117281662Y-41059937D01*
X117342950Y-41207897D01*
X117374192Y-41364964D01*
X117374192Y-41525114D01*
X117342950Y-41682181D01*
X117281662Y-41830141D01*
X117192690Y-41963297D01*
X117079450Y-42076537D01*
X116946294Y-42165509D01*
X116798334Y-42226797D01*
X116641267Y-42258039D01*
X116481117Y-42258039D01*
X116324050Y-42226797D01*
X116176090Y-42165509D01*
X116042934Y-42076537D01*
X115929694Y-41963297D01*
X115840722Y-41830141D01*
X115779434Y-41682181D01*
X115748192Y-41525114D01*
X115748192Y-41364964D01*
X115779434Y-41207897D01*
X115840722Y-41059937D01*
X115929694Y-40926781D01*
X116042934Y-40813541D01*
X116067576Y-40797076D01*
X116109062Y-40769356D01*
X116176090Y-40724569D01*
X116324050Y-40663281D01*
X116481117Y-40632039D01*
X116641267Y-40632039D01*
X116798334Y-40663281D01*
X116798334Y-40663281D01*
G37*
G36*
X132038334Y-40663281D02*
X132186294Y-40724569D01*
X132253322Y-40769356D01*
X132294809Y-40797076D01*
X132319450Y-40813541D01*
X132432690Y-40926781D01*
X132521662Y-41059937D01*
X132582950Y-41207897D01*
X132614192Y-41364964D01*
X132614192Y-41525114D01*
X132582950Y-41682181D01*
X132521662Y-41830141D01*
X132432690Y-41963297D01*
X132319450Y-42076537D01*
X132186294Y-42165509D01*
X132038334Y-42226797D01*
X131881267Y-42258039D01*
X131721117Y-42258039D01*
X131564050Y-42226797D01*
X131416090Y-42165509D01*
X131282934Y-42076537D01*
X131169694Y-41963297D01*
X131080722Y-41830141D01*
X131019434Y-41682181D01*
X130988192Y-41525114D01*
X130988192Y-41364964D01*
X131019434Y-41207897D01*
X131080722Y-41059937D01*
X131169694Y-40926781D01*
X131282934Y-40813541D01*
X131307576Y-40797076D01*
X131349062Y-40769356D01*
X131416090Y-40724569D01*
X131564050Y-40663281D01*
X131721117Y-40632039D01*
X131881267Y-40632039D01*
X132038334Y-40663281D01*
X132038334Y-40663281D01*
G37*
G36*
X106309420Y-40266742D02*
X106464292Y-40330892D01*
X106603673Y-40424024D01*
X106722207Y-40542558D01*
X106815339Y-40681939D01*
X106879489Y-40836811D01*
X106912192Y-41001223D01*
X106912192Y-41168855D01*
X106879489Y-41333267D01*
X106815339Y-41488139D01*
X106722207Y-41627520D01*
X106603673Y-41746054D01*
X106464292Y-41839186D01*
X106309420Y-41903336D01*
X106145008Y-41936039D01*
X105977376Y-41936039D01*
X105812964Y-41903336D01*
X105658092Y-41839186D01*
X105518711Y-41746054D01*
X105400177Y-41627520D01*
X105307045Y-41488139D01*
X105242895Y-41333267D01*
X105210192Y-41168855D01*
X105210192Y-41001223D01*
X105242895Y-40836811D01*
X105307045Y-40681939D01*
X105400177Y-40542558D01*
X105518711Y-40424024D01*
X105658092Y-40330892D01*
X105812964Y-40266742D01*
X105977376Y-40234039D01*
X106145008Y-40234039D01*
X106309420Y-40266742D01*
X106309420Y-40266742D01*
G37*
G36*
X104412192Y-41936039D02*
X102710192Y-41936039D01*
X102710192Y-40234039D01*
X104412192Y-40234039D01*
X104412192Y-41936039D01*
X104412192Y-41936039D01*
G37*
G36*
X100409420Y-40066742D02*
X100564292Y-40130892D01*
X100703673Y-40224024D01*
X100822207Y-40342558D01*
X100915339Y-40481939D01*
X100979489Y-40636811D01*
X101012192Y-40801223D01*
X101012192Y-40968855D01*
X100979489Y-41133267D01*
X100915339Y-41288139D01*
X100822207Y-41427520D01*
X100703673Y-41546054D01*
X100564292Y-41639186D01*
X100409420Y-41703336D01*
X100245008Y-41736039D01*
X100077376Y-41736039D01*
X99912964Y-41703336D01*
X99758092Y-41639186D01*
X99618711Y-41546054D01*
X99500177Y-41427520D01*
X99407045Y-41288139D01*
X99342895Y-41133267D01*
X99310192Y-40968855D01*
X99310192Y-40801223D01*
X99342895Y-40636811D01*
X99407045Y-40481939D01*
X99500177Y-40342558D01*
X99618711Y-40224024D01*
X99758092Y-40130892D01*
X99912964Y-40066742D01*
X100077376Y-40034039D01*
X100245008Y-40034039D01*
X100409420Y-40066742D01*
X100409420Y-40066742D01*
G37*
G36*
X98512192Y-41736039D02*
X96810192Y-41736039D01*
X96810192Y-40034039D01*
X98512192Y-40034039D01*
X98512192Y-41736039D01*
X98512192Y-41736039D01*
G37*
G36*
X111912192Y-40636039D02*
X109610192Y-40636039D01*
X109610192Y-38334039D01*
X111912192Y-38334039D01*
X111912192Y-40636039D01*
X111912192Y-40636039D01*
G37*
G36*
X139071635Y-38250558D02*
X139137819Y-38257076D01*
X139251045Y-38291423D01*
X139307659Y-38308596D01*
X139446279Y-38382691D01*
X139464183Y-38392261D01*
X139499921Y-38421591D01*
X139601378Y-38504853D01*
X139684640Y-38606310D01*
X139713970Y-38642048D01*
X139713971Y-38642050D01*
X139797635Y-38798572D01*
X139797635Y-38798573D01*
X139849155Y-38968412D01*
X139866551Y-39145039D01*
X139849155Y-39321666D01*
X139818326Y-39423296D01*
X139797635Y-39491506D01*
X139726008Y-39625509D01*
X139713970Y-39648030D01*
X139684640Y-39683768D01*
X139601378Y-39785225D01*
X139538664Y-39836692D01*
X139464183Y-39897817D01*
X139464181Y-39897818D01*
X139307659Y-39981482D01*
X139251045Y-39998655D01*
X139137819Y-40033002D01*
X139071635Y-40039520D01*
X139005452Y-40046039D01*
X138916932Y-40046039D01*
X138850749Y-40039520D01*
X138784565Y-40033002D01*
X138671339Y-39998655D01*
X138614725Y-39981482D01*
X138458203Y-39897818D01*
X138458201Y-39897817D01*
X138383720Y-39836692D01*
X138321006Y-39785225D01*
X138237744Y-39683768D01*
X138208414Y-39648030D01*
X138196376Y-39625509D01*
X138124749Y-39491506D01*
X138104058Y-39423296D01*
X138073229Y-39321666D01*
X138055833Y-39145039D01*
X138073229Y-38968412D01*
X138124749Y-38798573D01*
X138124749Y-38798572D01*
X138208413Y-38642050D01*
X138208414Y-38642048D01*
X138237744Y-38606310D01*
X138321006Y-38504853D01*
X138422463Y-38421591D01*
X138458201Y-38392261D01*
X138476105Y-38382691D01*
X138614725Y-38308596D01*
X138671339Y-38291423D01*
X138784565Y-38257076D01*
X138850749Y-38250558D01*
X138916932Y-38244039D01*
X139005452Y-38244039D01*
X139071635Y-38250558D01*
X139071635Y-38250558D01*
G37*
G36*
X94185372Y-37730701D02*
X94286827Y-37740693D01*
X94503792Y-37806509D01*
X94503794Y-37806510D01*
X94503797Y-37806511D01*
X94703748Y-37913386D01*
X94879010Y-38057221D01*
X95022845Y-38232483D01*
X95129720Y-38432434D01*
X95129721Y-38432437D01*
X95129722Y-38432439D01*
X95195538Y-38649404D01*
X95217761Y-38875039D01*
X95195538Y-39100674D01*
X95138064Y-39290139D01*
X95129720Y-39317644D01*
X95022845Y-39517595D01*
X94879010Y-39692857D01*
X94703748Y-39836692D01*
X94503797Y-39943567D01*
X94503794Y-39943568D01*
X94503792Y-39943569D01*
X94286827Y-40009385D01*
X94185372Y-40019377D01*
X94117737Y-40026039D01*
X94004647Y-40026039D01*
X93937012Y-40019377D01*
X93835557Y-40009385D01*
X93618592Y-39943569D01*
X93618590Y-39943568D01*
X93618587Y-39943567D01*
X93418636Y-39836692D01*
X93243374Y-39692857D01*
X93099539Y-39517595D01*
X92992664Y-39317644D01*
X92984320Y-39290139D01*
X92926846Y-39100674D01*
X92904623Y-38875039D01*
X92926846Y-38649404D01*
X92992662Y-38432439D01*
X92992663Y-38432437D01*
X92992664Y-38432434D01*
X93099539Y-38232483D01*
X93243374Y-38057221D01*
X93418636Y-37913386D01*
X93618587Y-37806511D01*
X93618590Y-37806510D01*
X93618592Y-37806509D01*
X93835557Y-37740693D01*
X93937012Y-37730701D01*
X94004647Y-37724039D01*
X94117737Y-37724039D01*
X94185372Y-37730701D01*
X94185372Y-37730701D01*
G37*
G36*
X132038334Y-38123281D02*
X132186294Y-38184569D01*
X132253322Y-38229356D01*
X132294809Y-38257076D01*
X132319450Y-38273541D01*
X132432690Y-38386781D01*
X132521662Y-38519937D01*
X132582950Y-38667897D01*
X132614192Y-38824964D01*
X132614192Y-38985114D01*
X132582950Y-39142181D01*
X132521662Y-39290141D01*
X132432690Y-39423297D01*
X132319450Y-39536537D01*
X132186294Y-39625509D01*
X132038334Y-39686797D01*
X131881267Y-39718039D01*
X131721117Y-39718039D01*
X131564050Y-39686797D01*
X131416090Y-39625509D01*
X131282934Y-39536537D01*
X131169694Y-39423297D01*
X131080722Y-39290141D01*
X131019434Y-39142181D01*
X130988192Y-38985114D01*
X130988192Y-38824964D01*
X131019434Y-38667897D01*
X131080722Y-38519937D01*
X131169694Y-38386781D01*
X131282934Y-38273541D01*
X131307576Y-38257076D01*
X131349062Y-38229356D01*
X131416090Y-38184569D01*
X131564050Y-38123281D01*
X131721117Y-38092039D01*
X131881267Y-38092039D01*
X132038334Y-38123281D01*
X132038334Y-38123281D01*
G37*
G36*
X116798334Y-38123281D02*
X116946294Y-38184569D01*
X117013322Y-38229356D01*
X117054809Y-38257076D01*
X117079450Y-38273541D01*
X117192690Y-38386781D01*
X117281662Y-38519937D01*
X117342950Y-38667897D01*
X117374192Y-38824964D01*
X117374192Y-38985114D01*
X117342950Y-39142181D01*
X117281662Y-39290141D01*
X117192690Y-39423297D01*
X117079450Y-39536537D01*
X116946294Y-39625509D01*
X116798334Y-39686797D01*
X116641267Y-39718039D01*
X116481117Y-39718039D01*
X116324050Y-39686797D01*
X116176090Y-39625509D01*
X116042934Y-39536537D01*
X115929694Y-39423297D01*
X115840722Y-39290141D01*
X115779434Y-39142181D01*
X115748192Y-38985114D01*
X115748192Y-38824964D01*
X115779434Y-38667897D01*
X115840722Y-38519937D01*
X115929694Y-38386781D01*
X116042934Y-38273541D01*
X116067576Y-38257076D01*
X116109062Y-38229356D01*
X116176090Y-38184569D01*
X116324050Y-38123281D01*
X116481117Y-38092039D01*
X116641267Y-38092039D01*
X116798334Y-38123281D01*
X116798334Y-38123281D01*
G37*
G36*
X139071635Y-35710558D02*
X139137819Y-35717076D01*
X139251045Y-35751423D01*
X139307659Y-35768596D01*
X139446279Y-35842691D01*
X139464183Y-35852261D01*
X139499921Y-35881591D01*
X139601378Y-35964853D01*
X139684640Y-36066310D01*
X139713970Y-36102048D01*
X139713971Y-36102050D01*
X139797635Y-36258572D01*
X139797635Y-36258573D01*
X139849155Y-36428412D01*
X139866551Y-36605039D01*
X139849155Y-36781666D01*
X139818326Y-36883296D01*
X139797635Y-36951506D01*
X139726008Y-37085509D01*
X139713970Y-37108030D01*
X139684640Y-37143768D01*
X139601378Y-37245225D01*
X139499921Y-37328487D01*
X139464183Y-37357817D01*
X139464181Y-37357818D01*
X139307659Y-37441482D01*
X139251045Y-37458655D01*
X139137819Y-37493002D01*
X139071634Y-37499521D01*
X139005452Y-37506039D01*
X138916932Y-37506039D01*
X138850750Y-37499521D01*
X138784565Y-37493002D01*
X138671339Y-37458655D01*
X138614725Y-37441482D01*
X138458203Y-37357818D01*
X138458201Y-37357817D01*
X138422463Y-37328487D01*
X138321006Y-37245225D01*
X138237744Y-37143768D01*
X138208414Y-37108030D01*
X138196376Y-37085509D01*
X138124749Y-36951506D01*
X138104058Y-36883296D01*
X138073229Y-36781666D01*
X138055833Y-36605039D01*
X138073229Y-36428412D01*
X138124749Y-36258573D01*
X138124749Y-36258572D01*
X138208413Y-36102050D01*
X138208414Y-36102048D01*
X138237744Y-36066310D01*
X138321006Y-35964853D01*
X138422463Y-35881591D01*
X138458201Y-35852261D01*
X138476105Y-35842691D01*
X138614725Y-35768596D01*
X138671339Y-35751423D01*
X138784565Y-35717076D01*
X138850749Y-35710558D01*
X138916932Y-35704039D01*
X139005452Y-35704039D01*
X139071635Y-35710558D01*
X139071635Y-35710558D01*
G37*
G36*
X116798334Y-35583281D02*
X116946294Y-35644569D01*
X117013322Y-35689356D01*
X117054809Y-35717076D01*
X117079450Y-35733541D01*
X117192690Y-35846781D01*
X117281662Y-35979937D01*
X117342950Y-36127897D01*
X117374192Y-36284964D01*
X117374192Y-36445114D01*
X117342950Y-36602181D01*
X117281662Y-36750141D01*
X117192690Y-36883297D01*
X117079450Y-36996537D01*
X116946294Y-37085509D01*
X116798334Y-37146797D01*
X116641267Y-37178039D01*
X116481117Y-37178039D01*
X116324050Y-37146797D01*
X116176090Y-37085509D01*
X116042934Y-36996537D01*
X115929694Y-36883297D01*
X115840722Y-36750141D01*
X115779434Y-36602181D01*
X115748192Y-36445114D01*
X115748192Y-36284964D01*
X115779434Y-36127897D01*
X115840722Y-35979937D01*
X115929694Y-35846781D01*
X116042934Y-35733541D01*
X116067576Y-35717076D01*
X116109062Y-35689356D01*
X116176090Y-35644569D01*
X116324050Y-35583281D01*
X116481117Y-35552039D01*
X116641267Y-35552039D01*
X116798334Y-35583281D01*
X116798334Y-35583281D01*
G37*
G36*
X132038334Y-35583281D02*
X132186294Y-35644569D01*
X132253322Y-35689356D01*
X132294809Y-35717076D01*
X132319450Y-35733541D01*
X132432690Y-35846781D01*
X132521662Y-35979937D01*
X132582950Y-36127897D01*
X132614192Y-36284964D01*
X132614192Y-36445114D01*
X132582950Y-36602181D01*
X132521662Y-36750141D01*
X132432690Y-36883297D01*
X132319450Y-36996537D01*
X132186294Y-37085509D01*
X132038334Y-37146797D01*
X131881267Y-37178039D01*
X131721117Y-37178039D01*
X131564050Y-37146797D01*
X131416090Y-37085509D01*
X131282934Y-36996537D01*
X131169694Y-36883297D01*
X131080722Y-36750141D01*
X131019434Y-36602181D01*
X130988192Y-36445114D01*
X130988192Y-36284964D01*
X131019434Y-36127897D01*
X131080722Y-35979937D01*
X131169694Y-35846781D01*
X131282934Y-35733541D01*
X131307576Y-35717076D01*
X131349062Y-35689356D01*
X131416090Y-35644569D01*
X131564050Y-35583281D01*
X131721117Y-35552039D01*
X131881267Y-35552039D01*
X132038334Y-35583281D01*
X132038334Y-35583281D01*
G37*
G36*
X139071635Y-33170558D02*
X139137819Y-33177076D01*
X139209453Y-33198806D01*
X139307659Y-33228596D01*
X139446279Y-33302691D01*
X139464183Y-33312261D01*
X139499921Y-33341591D01*
X139601378Y-33424853D01*
X139684640Y-33526310D01*
X139713970Y-33562048D01*
X139713971Y-33562050D01*
X139797635Y-33718572D01*
X139797635Y-33718573D01*
X139849155Y-33888412D01*
X139866551Y-34065039D01*
X139849155Y-34241666D01*
X139827018Y-34314641D01*
X139797635Y-34411506D01*
X139768988Y-34465100D01*
X139713970Y-34568030D01*
X139684640Y-34603768D01*
X139601378Y-34705225D01*
X139499921Y-34788487D01*
X139464183Y-34817817D01*
X139464181Y-34817818D01*
X139307659Y-34901482D01*
X139251045Y-34918655D01*
X139137819Y-34953002D01*
X139071635Y-34959520D01*
X139005452Y-34966039D01*
X138916932Y-34966039D01*
X138850749Y-34959520D01*
X138784565Y-34953002D01*
X138671339Y-34918655D01*
X138614725Y-34901482D01*
X138458203Y-34817818D01*
X138458201Y-34817817D01*
X138422463Y-34788487D01*
X138321006Y-34705225D01*
X138237744Y-34603768D01*
X138208414Y-34568030D01*
X138153396Y-34465100D01*
X138124749Y-34411506D01*
X138095366Y-34314641D01*
X138073229Y-34241666D01*
X138055833Y-34065039D01*
X138073229Y-33888412D01*
X138124749Y-33718573D01*
X138124749Y-33718572D01*
X138208413Y-33562050D01*
X138208414Y-33562048D01*
X138237744Y-33526310D01*
X138321006Y-33424853D01*
X138422463Y-33341591D01*
X138458201Y-33312261D01*
X138476105Y-33302691D01*
X138614725Y-33228596D01*
X138712931Y-33198806D01*
X138784565Y-33177076D01*
X138850749Y-33170558D01*
X138916932Y-33164039D01*
X139005452Y-33164039D01*
X139071635Y-33170558D01*
X139071635Y-33170558D01*
G37*
G36*
X132038334Y-33043281D02*
X132186294Y-33104569D01*
X132253322Y-33149356D01*
X132294809Y-33177076D01*
X132319450Y-33193541D01*
X132432690Y-33306781D01*
X132521662Y-33439937D01*
X132582950Y-33587897D01*
X132614192Y-33744964D01*
X132614192Y-33905114D01*
X132582950Y-34062181D01*
X132521662Y-34210141D01*
X132476875Y-34277169D01*
X132451838Y-34314641D01*
X132432690Y-34343297D01*
X132319450Y-34456537D01*
X132186294Y-34545509D01*
X132038334Y-34606797D01*
X131881267Y-34638039D01*
X131721117Y-34638039D01*
X131564050Y-34606797D01*
X131416090Y-34545509D01*
X131282934Y-34456537D01*
X131169694Y-34343297D01*
X131150547Y-34314641D01*
X131125509Y-34277169D01*
X131080722Y-34210141D01*
X131019434Y-34062181D01*
X130988192Y-33905114D01*
X130988192Y-33744964D01*
X131019434Y-33587897D01*
X131080722Y-33439937D01*
X131169694Y-33306781D01*
X131282934Y-33193541D01*
X131307576Y-33177076D01*
X131349062Y-33149356D01*
X131416090Y-33104569D01*
X131564050Y-33043281D01*
X131721117Y-33012039D01*
X131881267Y-33012039D01*
X132038334Y-33043281D01*
X132038334Y-33043281D01*
G37*
G36*
X105447916Y-32649133D02*
X105620316Y-32701431D01*
X105620318Y-32701432D01*
X105779205Y-32786359D01*
X105918471Y-32900651D01*
X106032763Y-33039917D01*
X106067320Y-33104569D01*
X106117691Y-33198806D01*
X106169989Y-33371206D01*
X106187647Y-33550500D01*
X106169989Y-33729794D01*
X106121871Y-33888414D01*
X106117690Y-33902196D01*
X106032763Y-34061083D01*
X105918471Y-34200349D01*
X105779205Y-34314641D01*
X105725595Y-34343296D01*
X105620316Y-34399569D01*
X105447916Y-34451867D01*
X105313553Y-34465100D01*
X105223691Y-34465100D01*
X105089328Y-34451867D01*
X104916928Y-34399569D01*
X104811649Y-34343296D01*
X104758039Y-34314641D01*
X104618773Y-34200349D01*
X104504481Y-34061083D01*
X104419554Y-33902196D01*
X104415373Y-33888414D01*
X104367255Y-33729794D01*
X104349597Y-33550500D01*
X104367255Y-33371206D01*
X104419553Y-33198806D01*
X104469924Y-33104569D01*
X104504481Y-33039917D01*
X104618773Y-32900651D01*
X104758039Y-32786359D01*
X104916926Y-32701432D01*
X104916928Y-32701431D01*
X105089328Y-32649133D01*
X105223691Y-32635900D01*
X105313553Y-32635900D01*
X105447916Y-32649133D01*
X105447916Y-32649133D01*
G37*
G36*
X107987916Y-32649133D02*
X108160316Y-32701431D01*
X108160318Y-32701432D01*
X108319205Y-32786359D01*
X108458471Y-32900651D01*
X108572763Y-33039917D01*
X108607320Y-33104569D01*
X108657691Y-33198806D01*
X108709989Y-33371206D01*
X108727647Y-33550500D01*
X108709989Y-33729794D01*
X108661871Y-33888414D01*
X108657690Y-33902196D01*
X108572763Y-34061083D01*
X108458471Y-34200349D01*
X108319205Y-34314641D01*
X108265595Y-34343296D01*
X108160316Y-34399569D01*
X107987916Y-34451867D01*
X107853553Y-34465100D01*
X107763691Y-34465100D01*
X107629328Y-34451867D01*
X107456928Y-34399569D01*
X107351649Y-34343296D01*
X107298039Y-34314641D01*
X107158773Y-34200349D01*
X107044481Y-34061083D01*
X106959554Y-33902196D01*
X106955373Y-33888414D01*
X106907255Y-33729794D01*
X106889597Y-33550500D01*
X106907255Y-33371206D01*
X106959553Y-33198806D01*
X107009924Y-33104569D01*
X107044481Y-33039917D01*
X107158773Y-32900651D01*
X107298039Y-32786359D01*
X107456926Y-32701432D01*
X107456928Y-32701431D01*
X107629328Y-32649133D01*
X107763691Y-32635900D01*
X107853553Y-32635900D01*
X107987916Y-32649133D01*
X107987916Y-32649133D01*
G37*
G36*
X102907916Y-32649133D02*
X103080316Y-32701431D01*
X103080318Y-32701432D01*
X103239205Y-32786359D01*
X103378471Y-32900651D01*
X103492763Y-33039917D01*
X103527320Y-33104569D01*
X103577691Y-33198806D01*
X103629989Y-33371206D01*
X103647647Y-33550500D01*
X103629989Y-33729794D01*
X103581871Y-33888414D01*
X103577690Y-33902196D01*
X103492763Y-34061083D01*
X103378471Y-34200349D01*
X103239205Y-34314641D01*
X103185595Y-34343296D01*
X103080316Y-34399569D01*
X102907916Y-34451867D01*
X102773553Y-34465100D01*
X102683691Y-34465100D01*
X102549328Y-34451867D01*
X102376928Y-34399569D01*
X102271649Y-34343296D01*
X102218039Y-34314641D01*
X102078773Y-34200349D01*
X101964481Y-34061083D01*
X101879554Y-33902196D01*
X101875373Y-33888414D01*
X101827255Y-33729794D01*
X101809597Y-33550500D01*
X101827255Y-33371206D01*
X101879553Y-33198806D01*
X101929924Y-33104569D01*
X101964481Y-33039917D01*
X102078773Y-32900651D01*
X102218039Y-32786359D01*
X102376926Y-32701432D01*
X102376928Y-32701431D01*
X102549328Y-32649133D01*
X102683691Y-32635900D01*
X102773553Y-32635900D01*
X102907916Y-32649133D01*
X102907916Y-32649133D01*
G37*
G36*
X100367916Y-32649133D02*
X100540316Y-32701431D01*
X100540318Y-32701432D01*
X100699205Y-32786359D01*
X100838471Y-32900651D01*
X100952763Y-33039917D01*
X100987320Y-33104569D01*
X101037691Y-33198806D01*
X101089989Y-33371206D01*
X101107647Y-33550500D01*
X101089989Y-33729794D01*
X101041871Y-33888414D01*
X101037690Y-33902196D01*
X100952763Y-34061083D01*
X100838471Y-34200349D01*
X100699205Y-34314641D01*
X100645595Y-34343296D01*
X100540316Y-34399569D01*
X100367916Y-34451867D01*
X100233553Y-34465100D01*
X100143691Y-34465100D01*
X100009328Y-34451867D01*
X99836928Y-34399569D01*
X99731649Y-34343296D01*
X99678039Y-34314641D01*
X99538773Y-34200349D01*
X99424481Y-34061083D01*
X99339554Y-33902196D01*
X99335373Y-33888414D01*
X99287255Y-33729794D01*
X99269597Y-33550500D01*
X99287255Y-33371206D01*
X99339553Y-33198806D01*
X99389924Y-33104569D01*
X99424481Y-33039917D01*
X99538773Y-32900651D01*
X99678039Y-32786359D01*
X99836926Y-32701432D01*
X99836928Y-32701431D01*
X100009328Y-32649133D01*
X100143691Y-32635900D01*
X100233553Y-32635900D01*
X100367916Y-32649133D01*
X100367916Y-32649133D01*
G37*
G36*
X97827916Y-32649133D02*
X98000316Y-32701431D01*
X98000318Y-32701432D01*
X98159205Y-32786359D01*
X98298471Y-32900651D01*
X98412763Y-33039917D01*
X98447320Y-33104569D01*
X98497691Y-33198806D01*
X98549989Y-33371206D01*
X98567647Y-33550500D01*
X98549989Y-33729794D01*
X98501871Y-33888414D01*
X98497690Y-33902196D01*
X98412763Y-34061083D01*
X98298471Y-34200349D01*
X98159205Y-34314641D01*
X98105595Y-34343296D01*
X98000316Y-34399569D01*
X97827916Y-34451867D01*
X97693553Y-34465100D01*
X97603691Y-34465100D01*
X97469328Y-34451867D01*
X97296928Y-34399569D01*
X97191649Y-34343296D01*
X97138039Y-34314641D01*
X96998773Y-34200349D01*
X96884481Y-34061083D01*
X96799554Y-33902196D01*
X96795373Y-33888414D01*
X96747255Y-33729794D01*
X96729597Y-33550500D01*
X96747255Y-33371206D01*
X96799553Y-33198806D01*
X96849924Y-33104569D01*
X96884481Y-33039917D01*
X96998773Y-32900651D01*
X97138039Y-32786359D01*
X97296926Y-32701432D01*
X97296928Y-32701431D01*
X97469328Y-32649133D01*
X97603691Y-32635900D01*
X97693553Y-32635900D01*
X97827916Y-32649133D01*
X97827916Y-32649133D01*
G37*
G36*
X139071635Y-30630558D02*
X139137819Y-30637076D01*
X139209453Y-30658806D01*
X139307659Y-30688596D01*
X139446279Y-30762691D01*
X139464183Y-30772261D01*
X139499921Y-30801591D01*
X139601378Y-30884853D01*
X139684640Y-30986310D01*
X139713970Y-31022048D01*
X139713971Y-31022050D01*
X139797635Y-31178572D01*
X139797635Y-31178573D01*
X139849155Y-31348412D01*
X139866551Y-31525039D01*
X139849155Y-31701666D01*
X139827018Y-31774641D01*
X139797635Y-31871506D01*
X139768988Y-31925100D01*
X139713970Y-32028030D01*
X139684640Y-32063768D01*
X139601378Y-32165225D01*
X139499921Y-32248487D01*
X139464183Y-32277817D01*
X139464181Y-32277818D01*
X139307659Y-32361482D01*
X139251045Y-32378655D01*
X139137819Y-32413002D01*
X139071635Y-32419520D01*
X139005452Y-32426039D01*
X138916932Y-32426039D01*
X138850749Y-32419520D01*
X138784565Y-32413002D01*
X138671339Y-32378655D01*
X138614725Y-32361482D01*
X138458203Y-32277818D01*
X138458201Y-32277817D01*
X138422463Y-32248487D01*
X138321006Y-32165225D01*
X138237744Y-32063768D01*
X138208414Y-32028030D01*
X138153396Y-31925100D01*
X138124749Y-31871506D01*
X138095366Y-31774641D01*
X138073229Y-31701666D01*
X138055833Y-31525039D01*
X138073229Y-31348412D01*
X138124749Y-31178573D01*
X138124749Y-31178572D01*
X138208413Y-31022050D01*
X138208414Y-31022048D01*
X138237744Y-30986310D01*
X138321006Y-30884853D01*
X138422463Y-30801591D01*
X138458201Y-30772261D01*
X138476105Y-30762691D01*
X138614725Y-30688596D01*
X138712931Y-30658806D01*
X138784565Y-30637076D01*
X138850749Y-30630558D01*
X138916932Y-30624039D01*
X139005452Y-30624039D01*
X139071635Y-30630558D01*
X139071635Y-30630558D01*
G37*
G36*
X132038334Y-30503281D02*
X132186294Y-30564569D01*
X132253322Y-30609356D01*
X132294809Y-30637076D01*
X132319450Y-30653541D01*
X132432690Y-30766781D01*
X132521662Y-30899937D01*
X132582950Y-31047897D01*
X132614192Y-31204964D01*
X132614192Y-31365114D01*
X132582950Y-31522181D01*
X132521662Y-31670141D01*
X132476875Y-31737169D01*
X132451838Y-31774641D01*
X132432690Y-31803297D01*
X132319450Y-31916537D01*
X132186294Y-32005509D01*
X132038334Y-32066797D01*
X131881267Y-32098039D01*
X131721117Y-32098039D01*
X131564050Y-32066797D01*
X131416090Y-32005509D01*
X131282934Y-31916537D01*
X131169694Y-31803297D01*
X131150547Y-31774641D01*
X131125509Y-31737169D01*
X131080722Y-31670141D01*
X131019434Y-31522181D01*
X130988192Y-31365114D01*
X130988192Y-31204964D01*
X131019434Y-31047897D01*
X131080722Y-30899937D01*
X131169694Y-30766781D01*
X131282934Y-30653541D01*
X131307576Y-30637076D01*
X131349062Y-30609356D01*
X131416090Y-30564569D01*
X131564050Y-30503281D01*
X131721117Y-30472039D01*
X131881267Y-30472039D01*
X132038334Y-30503281D01*
X132038334Y-30503281D01*
G37*
G36*
X100367916Y-30109133D02*
X100540316Y-30161431D01*
X100540318Y-30161432D01*
X100699205Y-30246359D01*
X100838471Y-30360651D01*
X100952763Y-30499917D01*
X100987320Y-30564569D01*
X101037691Y-30658806D01*
X101089989Y-30831206D01*
X101107647Y-31010500D01*
X101089989Y-31189794D01*
X101041871Y-31348414D01*
X101037690Y-31362196D01*
X100952763Y-31521083D01*
X100838471Y-31660349D01*
X100699205Y-31774641D01*
X100645595Y-31803296D01*
X100540316Y-31859569D01*
X100367916Y-31911867D01*
X100233553Y-31925100D01*
X100143691Y-31925100D01*
X100009328Y-31911867D01*
X99836928Y-31859569D01*
X99731649Y-31803296D01*
X99678039Y-31774641D01*
X99538773Y-31660349D01*
X99424481Y-31521083D01*
X99339554Y-31362196D01*
X99335373Y-31348414D01*
X99287255Y-31189794D01*
X99269597Y-31010500D01*
X99287255Y-30831206D01*
X99339553Y-30658806D01*
X99389924Y-30564569D01*
X99424481Y-30499917D01*
X99538773Y-30360651D01*
X99678039Y-30246359D01*
X99836926Y-30161432D01*
X99836928Y-30161431D01*
X100009328Y-30109133D01*
X100143691Y-30095900D01*
X100233553Y-30095900D01*
X100367916Y-30109133D01*
X100367916Y-30109133D01*
G37*
G36*
X107987916Y-30109133D02*
X108160316Y-30161431D01*
X108160318Y-30161432D01*
X108319205Y-30246359D01*
X108458471Y-30360651D01*
X108572763Y-30499917D01*
X108607320Y-30564569D01*
X108657691Y-30658806D01*
X108709989Y-30831206D01*
X108727647Y-31010500D01*
X108709989Y-31189794D01*
X108661871Y-31348414D01*
X108657690Y-31362196D01*
X108572763Y-31521083D01*
X108458471Y-31660349D01*
X108319205Y-31774641D01*
X108265595Y-31803296D01*
X108160316Y-31859569D01*
X107987916Y-31911867D01*
X107853553Y-31925100D01*
X107763691Y-31925100D01*
X107629328Y-31911867D01*
X107456928Y-31859569D01*
X107351649Y-31803296D01*
X107298039Y-31774641D01*
X107158773Y-31660349D01*
X107044481Y-31521083D01*
X106959554Y-31362196D01*
X106955373Y-31348414D01*
X106907255Y-31189794D01*
X106889597Y-31010500D01*
X106907255Y-30831206D01*
X106959553Y-30658806D01*
X107009924Y-30564569D01*
X107044481Y-30499917D01*
X107158773Y-30360651D01*
X107298039Y-30246359D01*
X107456926Y-30161432D01*
X107456928Y-30161431D01*
X107629328Y-30109133D01*
X107763691Y-30095900D01*
X107853553Y-30095900D01*
X107987916Y-30109133D01*
X107987916Y-30109133D01*
G37*
G36*
X98563222Y-31925100D02*
X96734022Y-31925100D01*
X96734022Y-30095900D01*
X98563222Y-30095900D01*
X98563222Y-31925100D01*
X98563222Y-31925100D01*
G37*
G36*
X102907916Y-30109133D02*
X103080316Y-30161431D01*
X103080318Y-30161432D01*
X103239205Y-30246359D01*
X103378471Y-30360651D01*
X103492763Y-30499917D01*
X103527320Y-30564569D01*
X103577691Y-30658806D01*
X103629989Y-30831206D01*
X103647647Y-31010500D01*
X103629989Y-31189794D01*
X103581871Y-31348414D01*
X103577690Y-31362196D01*
X103492763Y-31521083D01*
X103378471Y-31660349D01*
X103239205Y-31774641D01*
X103185595Y-31803296D01*
X103080316Y-31859569D01*
X102907916Y-31911867D01*
X102773553Y-31925100D01*
X102683691Y-31925100D01*
X102549328Y-31911867D01*
X102376928Y-31859569D01*
X102271649Y-31803296D01*
X102218039Y-31774641D01*
X102078773Y-31660349D01*
X101964481Y-31521083D01*
X101879554Y-31362196D01*
X101875373Y-31348414D01*
X101827255Y-31189794D01*
X101809597Y-31010500D01*
X101827255Y-30831206D01*
X101879553Y-30658806D01*
X101929924Y-30564569D01*
X101964481Y-30499917D01*
X102078773Y-30360651D01*
X102218039Y-30246359D01*
X102376926Y-30161432D01*
X102376928Y-30161431D01*
X102549328Y-30109133D01*
X102683691Y-30095900D01*
X102773553Y-30095900D01*
X102907916Y-30109133D01*
X102907916Y-30109133D01*
G37*
G36*
X105447916Y-30109133D02*
X105620316Y-30161431D01*
X105620318Y-30161432D01*
X105779205Y-30246359D01*
X105918471Y-30360651D01*
X106032763Y-30499917D01*
X106067320Y-30564569D01*
X106117691Y-30658806D01*
X106169989Y-30831206D01*
X106187647Y-31010500D01*
X106169989Y-31189794D01*
X106121871Y-31348414D01*
X106117690Y-31362196D01*
X106032763Y-31521083D01*
X105918471Y-31660349D01*
X105779205Y-31774641D01*
X105725595Y-31803296D01*
X105620316Y-31859569D01*
X105447916Y-31911867D01*
X105313553Y-31925100D01*
X105223691Y-31925100D01*
X105089328Y-31911867D01*
X104916928Y-31859569D01*
X104811649Y-31803296D01*
X104758039Y-31774641D01*
X104618773Y-31660349D01*
X104504481Y-31521083D01*
X104419554Y-31362196D01*
X104415373Y-31348414D01*
X104367255Y-31189794D01*
X104349597Y-31010500D01*
X104367255Y-30831206D01*
X104419553Y-30658806D01*
X104469924Y-30564569D01*
X104504481Y-30499917D01*
X104618773Y-30360651D01*
X104758039Y-30246359D01*
X104916926Y-30161432D01*
X104916928Y-30161431D01*
X105089328Y-30109133D01*
X105223691Y-30095900D01*
X105313553Y-30095900D01*
X105447916Y-30109133D01*
X105447916Y-30109133D01*
G37*
G36*
X139071635Y-28090558D02*
X139137819Y-28097076D01*
X139251045Y-28131423D01*
X139307659Y-28148596D01*
X139446279Y-28222691D01*
X139464183Y-28232261D01*
X139499921Y-28261591D01*
X139601378Y-28344853D01*
X139684640Y-28446310D01*
X139713970Y-28482048D01*
X139713971Y-28482050D01*
X139797635Y-28638572D01*
X139797635Y-28638573D01*
X139849155Y-28808412D01*
X139866551Y-28985039D01*
X139849155Y-29161666D01*
X139818326Y-29263296D01*
X139797635Y-29331506D01*
X139726008Y-29465509D01*
X139713970Y-29488030D01*
X139684640Y-29523768D01*
X139601378Y-29625225D01*
X139499921Y-29708487D01*
X139464183Y-29737817D01*
X139464181Y-29737818D01*
X139307659Y-29821482D01*
X139251045Y-29838655D01*
X139137819Y-29873002D01*
X139071635Y-29879520D01*
X139005452Y-29886039D01*
X138916932Y-29886039D01*
X138850749Y-29879520D01*
X138784565Y-29873002D01*
X138671339Y-29838655D01*
X138614725Y-29821482D01*
X138458203Y-29737818D01*
X138458201Y-29737817D01*
X138422463Y-29708487D01*
X138321006Y-29625225D01*
X138237744Y-29523768D01*
X138208414Y-29488030D01*
X138196376Y-29465509D01*
X138124749Y-29331506D01*
X138104058Y-29263296D01*
X138073229Y-29161666D01*
X138055833Y-28985039D01*
X138073229Y-28808412D01*
X138124749Y-28638573D01*
X138124749Y-28638572D01*
X138208413Y-28482050D01*
X138208414Y-28482048D01*
X138237744Y-28446310D01*
X138321006Y-28344853D01*
X138422463Y-28261591D01*
X138458201Y-28232261D01*
X138476105Y-28222691D01*
X138614725Y-28148596D01*
X138671339Y-28131423D01*
X138784565Y-28097076D01*
X138850749Y-28090558D01*
X138916932Y-28084039D01*
X139005452Y-28084039D01*
X139071635Y-28090558D01*
X139071635Y-28090558D01*
G37*
G36*
X132038334Y-27963281D02*
X132186294Y-28024569D01*
X132253322Y-28069356D01*
X132294809Y-28097076D01*
X132319450Y-28113541D01*
X132432690Y-28226781D01*
X132521662Y-28359937D01*
X132582950Y-28507897D01*
X132614192Y-28664964D01*
X132614192Y-28825114D01*
X132582950Y-28982181D01*
X132521662Y-29130141D01*
X132432690Y-29263297D01*
X132319450Y-29376537D01*
X132186294Y-29465509D01*
X132038334Y-29526797D01*
X131881267Y-29558039D01*
X131721117Y-29558039D01*
X131564050Y-29526797D01*
X131416090Y-29465509D01*
X131282934Y-29376537D01*
X131169694Y-29263297D01*
X131080722Y-29130141D01*
X131019434Y-28982181D01*
X130988192Y-28825114D01*
X130988192Y-28664964D01*
X131019434Y-28507897D01*
X131080722Y-28359937D01*
X131169694Y-28226781D01*
X131282934Y-28113541D01*
X131307576Y-28097076D01*
X131349062Y-28069356D01*
X131416090Y-28024569D01*
X131564050Y-27963281D01*
X131721117Y-27932039D01*
X131881267Y-27932039D01*
X132038334Y-27963281D01*
X132038334Y-27963281D01*
G37*
G36*
X139862192Y-27346039D02*
X138060192Y-27346039D01*
X138060192Y-25544039D01*
X139862192Y-25544039D01*
X139862192Y-27346039D01*
X139862192Y-27346039D01*
G37*
M02*
