%TF.GenerationSoftware,KiCad,Pcbnew,(5.0.1)-3*%
%TF.CreationDate,2020-04-22T23:17:11+01:00*%
%TF.ProjectId,board,626F6172642E6B696361645F70636200,rev?*%
%TF.SameCoordinates,Original*%
%TF.FileFunction,Copper,L1,Top,Signal*%
%TF.FilePolarity,Positive*%
%FSLAX46Y46*%
G04 Gerber Fmt 4.6, Leading zero omitted, Abs format (unit mm)*
G04 Created by KiCad (PCBNEW (5.0.1)-3) date 22/04/2020 23:17:11*
%MOMM*%
%LPD*%
G01*
G04 APERTURE LIST*
%ADD10R,1.800000X1.800000*%
%ADD11C,1.800000*%
%ADD12O,2.200000X2.200000*%
%ADD13R,2.200000X2.200000*%
%ADD14C,2.000000*%
%ADD15R,1.727200X1.727200*%
%ADD16O,1.727200X1.727200*%
%ADD17C,1.300000*%
%ADD18O,1.050000X1.500000*%
%ADD19R,1.050000X1.500000*%
%ADD20C,1.440000*%
%ADD21R,1.600000X1.600000*%
%ADD22C,1.600000*%
%ADD23C,0.800000*%
%ADD24C,0.300000*%
%ADD25C,0.600000*%
%ADD26C,0.254000*%
G04 APERTURE END LIST*
D10*
X35306000Y-16764000D03*
D11*
X35306000Y-14224000D03*
X36576000Y-35814000D03*
D10*
X34036000Y-35814000D03*
D11*
X55075000Y-37315000D03*
D10*
X55075000Y-34775000D03*
D11*
X55118000Y-14224000D03*
D10*
X55118000Y-16764000D03*
D12*
X20066000Y-30226000D03*
D13*
X30226000Y-30226000D03*
X55118000Y-20828000D03*
D12*
X55118000Y-30988000D03*
D14*
X45600000Y-55200000D03*
X40600000Y-55200000D03*
X45700000Y-58700000D03*
X40700000Y-58700000D03*
X42756666Y-86012000D03*
D11*
X42756666Y-96732000D03*
D14*
X42756666Y-94312000D03*
X22606000Y-94312000D03*
D11*
X22606000Y-96732000D03*
D14*
X22606000Y-86012000D03*
X22606000Y-110584000D03*
D11*
X22606000Y-99864000D03*
D14*
X22606000Y-102284000D03*
X42756666Y-102284000D03*
D11*
X42756666Y-99864000D03*
D14*
X42756666Y-110584000D03*
X32681333Y-94312000D03*
D11*
X32681333Y-96732000D03*
D14*
X32681333Y-86012000D03*
X52832000Y-86012000D03*
D11*
X52832000Y-96732000D03*
D14*
X52832000Y-94312000D03*
X32681333Y-102284000D03*
D11*
X32681333Y-99864000D03*
D14*
X32681333Y-110584000D03*
X52832000Y-110584000D03*
D11*
X52832000Y-99864000D03*
D14*
X52832000Y-102284000D03*
D15*
X51100000Y-64500000D03*
D16*
X53640000Y-64500000D03*
X51100000Y-61960000D03*
X53640000Y-61960000D03*
X51100000Y-59420000D03*
X53640000Y-59420000D03*
X51100000Y-56880000D03*
X53640000Y-56880000D03*
X51100000Y-54340000D03*
X53640000Y-54340000D03*
D14*
X47498000Y-26644000D03*
X47498000Y-17044000D03*
D17*
X39998000Y-24344000D03*
X39998000Y-21844000D03*
X39998000Y-19344000D03*
X20186000Y-19344000D03*
X20186000Y-21844000D03*
X20186000Y-24344000D03*
D14*
X27686000Y-17044000D03*
X27686000Y-26644000D03*
D17*
X20186000Y-39918000D03*
X20186000Y-42418000D03*
X20186000Y-44918000D03*
D14*
X27686000Y-37618000D03*
X27686000Y-47218000D03*
X47498000Y-47218000D03*
X47498000Y-37618000D03*
D17*
X39998000Y-44918000D03*
X39998000Y-42418000D03*
X39998000Y-39918000D03*
D18*
X37846000Y-98552000D03*
X36576000Y-98552000D03*
D19*
X39116000Y-98552000D03*
D20*
X48500000Y-80100000D03*
X48500000Y-77560000D03*
X48500000Y-75020000D03*
X54625000Y-80200000D03*
X54625000Y-77660000D03*
X54625000Y-75120000D03*
X42500000Y-63920000D03*
X42500000Y-66460000D03*
X42500000Y-69000000D03*
X42500000Y-74920000D03*
X42500000Y-77460000D03*
X42500000Y-80000000D03*
D21*
X46900000Y-98100000D03*
D22*
X48900000Y-98100000D03*
D21*
X34300000Y-42600000D03*
D22*
X34300000Y-45100000D03*
X53900000Y-45500000D03*
D21*
X53900000Y-43000000D03*
D23*
X26700000Y-45575000D03*
X26325000Y-19900000D03*
X29300000Y-70725000D03*
X29350000Y-62850000D03*
X26575000Y-91100000D03*
X37875000Y-36900000D03*
X43700000Y-36700000D03*
X26300000Y-78350000D03*
X26425000Y-69475000D03*
X29536011Y-48500000D03*
X38050001Y-48500000D03*
X37900000Y-91375000D03*
X46550000Y-91450000D03*
X24975000Y-63675000D03*
X25000000Y-104100000D03*
X24842951Y-48976627D03*
X46775000Y-40725000D03*
X36525000Y-77450000D03*
X25800000Y-44725000D03*
X25225000Y-23400000D03*
X28525000Y-63500000D03*
X28750000Y-78275000D03*
X32725000Y-84400000D03*
X49625000Y-70025000D03*
X49675000Y-18225000D03*
X49640015Y-38043001D03*
X19450000Y-84425000D03*
X18955010Y-73650000D03*
X27675000Y-67175000D03*
X46775000Y-88575000D03*
X30875000Y-88575000D03*
X37150000Y-88525000D03*
X39350000Y-108625000D03*
X39325000Y-110825000D03*
X30775000Y-64300000D03*
X36550000Y-59575000D03*
X20200000Y-66700000D03*
X22175000Y-108825000D03*
X24900000Y-49975000D03*
X52500000Y-47025000D03*
X50857169Y-45867831D03*
X45425000Y-43425000D03*
X46450000Y-73500000D03*
X48500000Y-50000000D03*
X24150000Y-97900000D03*
X23625000Y-58020000D03*
X24125000Y-30100000D03*
X30350000Y-42700000D03*
X23625000Y-75225000D03*
X23700000Y-56875000D03*
X23675000Y-59400000D03*
X36825000Y-74225000D03*
X42175000Y-73000000D03*
X55475000Y-105350000D03*
X34875000Y-93200000D03*
X21400000Y-59300000D03*
X29225000Y-56800000D03*
X26175000Y-56750000D03*
X52200000Y-32150000D03*
X52150000Y-28225000D03*
X51975000Y-34500000D03*
X31875000Y-81825000D03*
X31925000Y-77250000D03*
X23250000Y-76814897D03*
X34575000Y-89925000D03*
X46400000Y-31750000D03*
X31975000Y-75499000D03*
X53950000Y-50225000D03*
X36041000Y-57075000D03*
X31975000Y-59775000D03*
X38600000Y-94525000D03*
X36900000Y-89600000D03*
X44750000Y-89550000D03*
X44300000Y-38325000D03*
X55025000Y-33050000D03*
X56882472Y-33093275D03*
X43325000Y-44725000D03*
X34175000Y-84100000D03*
X36505331Y-68294669D03*
X33325000Y-66600000D03*
X24525000Y-51000000D03*
X47200000Y-76550000D03*
X49100000Y-50875000D03*
X38650000Y-85825000D03*
X38165008Y-37857027D03*
X43457464Y-37670144D03*
X40025000Y-105100000D03*
D24*
X26700000Y-45575000D02*
X26700000Y-44675000D01*
X26700000Y-44675000D02*
X29425000Y-41950000D01*
X26335999Y-29166001D02*
X26335999Y-23889001D01*
X29425000Y-41950000D02*
X29425000Y-32255002D01*
X29425000Y-32255002D02*
X26335999Y-29166001D01*
X26335999Y-23889001D02*
X26325000Y-23878002D01*
X26325000Y-23878002D02*
X26325000Y-19900000D01*
X29300000Y-70725000D02*
X29300000Y-62900000D01*
X29300000Y-62900000D02*
X29350000Y-62850000D01*
X26400000Y-90925000D02*
X26575000Y-91100000D01*
X38000000Y-36775000D02*
X37875000Y-36900000D01*
X43100000Y-36734315D02*
X43100000Y-36775000D01*
X43134315Y-36700000D02*
X43100000Y-36734315D01*
X43700000Y-36700000D02*
X43134315Y-36700000D01*
X43334010Y-36775000D02*
X43100000Y-36775000D01*
X43100000Y-36775000D02*
X38000000Y-36775000D01*
X26400000Y-78450000D02*
X26300000Y-78350000D01*
X26400000Y-81325000D02*
X26400000Y-90925000D01*
X26400000Y-80700000D02*
X26400000Y-81325000D01*
X26400000Y-69500000D02*
X26425000Y-69475000D01*
X26400000Y-78975000D02*
X26400000Y-69500000D01*
X26400000Y-78975000D02*
X26400000Y-78450000D01*
X26400000Y-81325000D02*
X26400000Y-78975000D01*
X29536011Y-48500000D02*
X38050001Y-48500000D01*
X37900000Y-91375000D02*
X46475000Y-91375000D01*
X46475000Y-91375000D02*
X46550000Y-91450000D01*
X24975000Y-63675000D02*
X24975000Y-103225000D01*
X24975000Y-103225000D02*
X24975000Y-104075000D01*
X24975000Y-104075000D02*
X25000000Y-104100000D01*
X25682009Y-49250000D02*
X43750000Y-49250000D01*
X25408636Y-48976627D02*
X25682009Y-49250000D01*
X24842951Y-48976627D02*
X25408636Y-48976627D01*
X43750000Y-49250000D02*
X48825000Y-49250000D01*
X48825000Y-49250000D02*
X49050000Y-49025000D01*
X49050000Y-49025000D02*
X49075000Y-49025000D01*
X49075000Y-49025000D02*
X51900000Y-46200000D01*
X51900000Y-46200000D02*
X51900000Y-45850000D01*
X51900000Y-45850000D02*
X46775000Y-40725000D01*
X47780001Y-78279999D02*
X48500000Y-77560000D01*
X44989999Y-81070001D02*
X47780001Y-78279999D01*
X40145001Y-81070001D02*
X44989999Y-81070001D01*
X36525000Y-77450000D02*
X40145001Y-81070001D01*
X25800000Y-44725000D02*
X25800000Y-23975000D01*
X25800000Y-23975000D02*
X25225000Y-23400000D01*
X28525000Y-63500000D02*
X28525000Y-71725000D01*
X28525000Y-71725000D02*
X28500000Y-71750000D01*
X28525000Y-71725000D02*
X28525000Y-78050000D01*
X28525000Y-78050000D02*
X28750000Y-78275000D01*
X32393333Y-86300000D02*
X32681333Y-86012000D01*
X41524999Y-84850001D02*
X41824990Y-84550010D01*
X33740686Y-84850001D02*
X41524999Y-84850001D01*
X33290685Y-84400000D02*
X33740686Y-84850001D01*
X32725000Y-84400000D02*
X33290685Y-84400000D01*
X54625000Y-75120000D02*
X49625000Y-70120000D01*
X49625000Y-70120000D02*
X49625000Y-70025000D01*
X49625000Y-18275000D02*
X49675000Y-18225000D01*
X48375000Y-84550010D02*
X54199990Y-84550010D01*
X48375000Y-84550010D02*
X48532110Y-84550010D01*
X41824990Y-84550010D02*
X48375000Y-84550010D01*
X55344999Y-78379999D02*
X54625000Y-77660000D01*
X55695001Y-78730001D02*
X55344999Y-78379999D01*
X55695001Y-83054999D02*
X55695001Y-78730001D01*
X54199990Y-84550010D02*
X55695001Y-83054999D01*
X49640015Y-38043001D02*
X49625000Y-18275000D01*
X19450000Y-83859315D02*
X19450000Y-84425000D01*
X18250000Y-82659315D02*
X19450000Y-83859315D01*
X18955010Y-73650000D02*
X18250000Y-74355010D01*
X18250000Y-74355010D02*
X18250000Y-82659315D01*
X46575000Y-88575000D02*
X46775000Y-88575000D01*
X27675000Y-88425000D02*
X27825000Y-88575000D01*
X27675000Y-67175000D02*
X27675000Y-88425000D01*
X27825000Y-88575000D02*
X30875000Y-88575000D01*
X46725000Y-88525000D02*
X46775000Y-88575000D01*
X37150000Y-88525000D02*
X46725000Y-88525000D01*
X39350000Y-108625000D02*
X39350000Y-110800000D01*
X39350000Y-110800000D02*
X39325000Y-110825000D01*
X30984000Y-110584000D02*
X32681333Y-110584000D01*
X30775000Y-87364998D02*
X31625001Y-88214999D01*
X30775000Y-64300000D02*
X30775000Y-87364998D01*
X31625001Y-88214999D02*
X31625001Y-89574999D01*
X31625001Y-89574999D02*
X29550000Y-91650000D01*
X29550000Y-91650000D02*
X29550000Y-109150000D01*
X29550000Y-109150000D02*
X30984000Y-110584000D01*
X40895000Y-63920000D02*
X42500000Y-63920000D01*
X36550000Y-59575000D02*
X40895000Y-63920000D01*
X42500000Y-63920000D02*
X42500000Y-66460000D01*
X20300000Y-106950000D02*
X22175000Y-108825000D01*
X20200000Y-106950000D02*
X20300000Y-106950000D01*
X20200000Y-66700000D02*
X20200000Y-106950000D01*
X42500000Y-74920000D02*
X42500000Y-77460000D01*
X26225000Y-49975000D02*
X26250000Y-50000000D01*
X24900000Y-49975000D02*
X26225000Y-49975000D01*
X43225000Y-50000000D02*
X26250000Y-50000000D01*
X26250000Y-50000000D02*
X25975011Y-50000000D01*
X49625000Y-50000000D02*
X50400000Y-49225000D01*
X50400000Y-49225000D02*
X50400000Y-49125000D01*
X50400000Y-49125000D02*
X52500000Y-47025000D01*
X45990685Y-43425000D02*
X46065685Y-43500000D01*
X45425000Y-43425000D02*
X45990685Y-43425000D01*
X48489338Y-43500000D02*
X48800000Y-43810662D01*
X46065685Y-43500000D02*
X48489338Y-43500000D01*
X50857169Y-45867831D02*
X48800000Y-43810662D01*
X42500000Y-77460000D02*
X46450000Y-73510000D01*
X46450000Y-73510000D02*
X46450000Y-73500000D01*
X43225000Y-50000000D02*
X48500000Y-50000000D01*
X48500000Y-50000000D02*
X49625000Y-50000000D01*
D25*
X24150000Y-76399000D02*
X23525000Y-75774000D01*
X24150000Y-97900000D02*
X24150000Y-76399000D01*
X23525000Y-58120000D02*
X23625000Y-58020000D01*
X23625000Y-30600000D02*
X24125000Y-30100000D01*
X30226000Y-30226000D02*
X30226000Y-42576000D01*
X30226000Y-42576000D02*
X30350000Y-42700000D01*
X24190685Y-58020000D02*
X23625000Y-58020000D01*
X39285787Y-58700000D02*
X38605787Y-58020000D01*
X40700000Y-58700000D02*
X39285787Y-58700000D01*
X23625000Y-52975000D02*
X23625000Y-30600000D01*
X24050000Y-63200000D02*
X23525000Y-63200000D01*
X23525000Y-75774000D02*
X23525000Y-63200000D01*
X23625000Y-52975000D02*
X23725000Y-52975000D01*
X25050000Y-62200000D02*
X24050000Y-63200000D01*
X24800000Y-54050000D02*
X30375000Y-54050000D01*
X24800000Y-54050000D02*
X25050000Y-54300000D01*
X23725000Y-52975000D02*
X24800000Y-54050000D01*
X31875000Y-55550000D02*
X31875000Y-58020000D01*
X30375000Y-54050000D02*
X31875000Y-55550000D01*
X38605787Y-58020000D02*
X31875000Y-58020000D01*
X31875000Y-58020000D02*
X24190685Y-58020000D01*
X31875000Y-58020000D02*
X31875000Y-58550000D01*
X28225000Y-62200000D02*
X25050000Y-62200000D01*
X31875000Y-58550000D02*
X28225000Y-62200000D01*
X53640000Y-61960000D02*
X51100000Y-61960000D01*
X51100000Y-61960000D02*
X51100000Y-56880000D01*
X51100000Y-56880000D02*
X53640000Y-56880000D01*
X53640000Y-56880000D02*
X53640000Y-61960000D01*
X51100000Y-59420000D02*
X53640000Y-59420000D01*
X36825000Y-74225000D02*
X40950000Y-74225000D01*
X40950000Y-74225000D02*
X42175000Y-73000000D01*
X34875000Y-94538333D02*
X32681333Y-96732000D01*
X34875000Y-93200000D02*
X34875000Y-94538333D01*
X23575000Y-59300000D02*
X23675000Y-59400000D01*
X21400000Y-59300000D02*
X23575000Y-59300000D01*
X29175000Y-56750000D02*
X29225000Y-56800000D01*
X26175000Y-56750000D02*
X29175000Y-56750000D01*
X52200000Y-32150000D02*
X52200000Y-28275000D01*
X52200000Y-28275000D02*
X52150000Y-28225000D01*
X51975000Y-32375000D02*
X52200000Y-32150000D01*
X51975000Y-34500000D02*
X51975000Y-32375000D01*
X22850001Y-77214896D02*
X22850001Y-77599999D01*
X23250000Y-76814897D02*
X22850001Y-77214896D01*
X46400000Y-31750000D02*
X45997999Y-32152001D01*
X38775001Y-57024999D02*
X40600000Y-55200000D01*
X42014213Y-55200000D02*
X43514213Y-53700000D01*
X40600000Y-55200000D02*
X42014213Y-55200000D01*
X43514213Y-53700000D02*
X48500000Y-53700000D01*
X45997999Y-38250000D02*
X45997999Y-38347999D01*
X45997999Y-32152001D02*
X45997999Y-38250000D01*
X48500000Y-53700000D02*
X51975000Y-50225000D01*
X51975000Y-50225000D02*
X53950000Y-50225000D01*
X45997999Y-38250000D02*
X45997999Y-38597999D01*
X53100001Y-44700001D02*
X53900000Y-45500000D01*
X52100001Y-44700001D02*
X53100001Y-44700001D01*
X45997999Y-38597999D02*
X52100001Y-44700001D01*
X38725000Y-57075000D02*
X38775001Y-57024999D01*
X36041000Y-57075000D02*
X38725000Y-57075000D01*
X31975000Y-75499000D02*
X31975000Y-59775000D01*
X43112000Y-94312000D02*
X46900000Y-98100000D01*
X42756666Y-94312000D02*
X43112000Y-94312000D01*
X45500000Y-98100000D02*
X46900000Y-98100000D01*
X45467999Y-98132001D02*
X45500000Y-98100000D01*
X40660999Y-98132001D02*
X45467999Y-98132001D01*
X40241000Y-98552000D02*
X40660999Y-98132001D01*
X39116000Y-98552000D02*
X40241000Y-98552000D01*
X42756666Y-102192666D02*
X39116000Y-98552000D01*
X42756666Y-102284000D02*
X42756666Y-102192666D01*
X42543666Y-94525000D02*
X42756666Y-94312000D01*
X38600000Y-94525000D02*
X42543666Y-94525000D01*
X51100000Y-54340000D02*
X53640000Y-54340000D01*
X50240000Y-55200000D02*
X51100000Y-54340000D01*
X45600000Y-55200000D02*
X50240000Y-55200000D01*
X53640000Y-64500000D02*
X51100000Y-64500000D01*
X45700000Y-60114213D02*
X45700000Y-58700000D01*
X45700000Y-60563600D02*
X45700000Y-60114213D01*
X49636400Y-64500000D02*
X45700000Y-60563600D01*
X51100000Y-64500000D02*
X49636400Y-64500000D01*
D24*
X22606000Y-102284000D02*
X21075000Y-100753000D01*
X21075000Y-87543000D02*
X22606000Y-86012000D01*
X21075000Y-100753000D02*
X21075000Y-87543000D01*
X22606000Y-84597787D02*
X22325000Y-84316787D01*
X22606000Y-86012000D02*
X22606000Y-84597787D01*
X22325000Y-84316787D02*
X22316787Y-84316787D01*
X22316787Y-84316787D02*
X21100000Y-83100000D01*
X21100000Y-83100000D02*
X21100000Y-66075000D01*
X21100000Y-66075000D02*
X18400000Y-63375000D01*
X18400000Y-23630000D02*
X20186000Y-21844000D01*
X18400000Y-63375000D02*
X18400000Y-23630000D01*
X44100000Y-89550000D02*
X44750000Y-89550000D01*
X36900000Y-89600000D02*
X44050000Y-89600000D01*
X44050000Y-89600000D02*
X44100000Y-89550000D01*
X39998000Y-39918000D02*
X42707000Y-39918000D01*
X42707000Y-39918000D02*
X44300000Y-38325000D01*
X55025000Y-33050000D02*
X56839197Y-33050000D01*
X56839197Y-33050000D02*
X56882472Y-33093275D01*
X42566315Y-44918000D02*
X41975000Y-44918000D01*
X42759315Y-44725000D02*
X42566315Y-44918000D01*
X43325000Y-44725000D02*
X42759315Y-44725000D01*
X39998000Y-44918000D02*
X41975000Y-44918000D01*
X41975000Y-44918000D02*
X42257000Y-44918000D01*
X48350000Y-80250000D02*
X48500000Y-80100000D01*
X48325000Y-84050000D02*
X48325000Y-80550000D01*
X48325000Y-84050000D02*
X34225000Y-84050000D01*
X34225000Y-84050000D02*
X34175000Y-84100000D01*
X53905001Y-79480001D02*
X54625000Y-80200000D01*
X53554999Y-79129999D02*
X53905001Y-79480001D01*
X36505331Y-68294669D02*
X36905330Y-68694668D01*
X37244688Y-68694668D02*
X39200020Y-70650000D01*
X36905330Y-68694668D02*
X37244688Y-68694668D01*
X46300000Y-70650000D02*
X53554999Y-77904999D01*
X39200020Y-70650000D02*
X46300000Y-70650000D01*
X53554999Y-77904999D02*
X53554999Y-79129999D01*
X40100000Y-66600000D02*
X42500000Y-69000000D01*
X33325000Y-66600000D02*
X40100000Y-66600000D01*
X36885001Y-50599999D02*
X37128665Y-50843663D01*
X36164999Y-50599999D02*
X36885001Y-50599999D01*
X24525000Y-51000000D02*
X35764998Y-51000000D01*
X35764998Y-51000000D02*
X36164999Y-50599999D01*
X43575000Y-50843663D02*
X48581337Y-50843663D01*
X43575000Y-50843663D02*
X43761876Y-50843663D01*
X37128665Y-50843663D02*
X43575000Y-50843663D01*
X42500000Y-80000000D02*
X43750000Y-80000000D01*
X43750000Y-80000000D02*
X47200000Y-76550000D01*
X48612674Y-50875000D02*
X48581337Y-50843663D01*
X49100000Y-50875000D02*
X48612674Y-50875000D01*
X42756666Y-86012000D02*
X38837000Y-86012000D01*
X38837000Y-86012000D02*
X38650000Y-85825000D01*
X38351891Y-37670144D02*
X38165008Y-37857027D01*
X43457464Y-37670144D02*
X38351891Y-37670144D01*
X40025000Y-107852334D02*
X42756666Y-110584000D01*
X40025000Y-105100000D02*
X40025000Y-107852334D01*
D26*
G36*
X33771000Y-13918670D02*
X33771000Y-14529330D01*
X34004690Y-15093507D01*
X34173908Y-15262725D01*
X34158235Y-15265843D01*
X33948191Y-15406191D01*
X33807843Y-15616235D01*
X33758560Y-15864000D01*
X33758560Y-17664000D01*
X33807843Y-17911765D01*
X33948191Y-18121809D01*
X34158235Y-18262157D01*
X34406000Y-18311440D01*
X36206000Y-18311440D01*
X36453765Y-18262157D01*
X36663809Y-18121809D01*
X36804157Y-17911765D01*
X36853440Y-17664000D01*
X36853440Y-15864000D01*
X36804157Y-15616235D01*
X36663809Y-15406191D01*
X36453765Y-15265843D01*
X36438092Y-15262725D01*
X36607310Y-15093507D01*
X36841000Y-14529330D01*
X36841000Y-13918670D01*
X36630302Y-13410000D01*
X53793698Y-13410000D01*
X53583000Y-13918670D01*
X53583000Y-14529330D01*
X53816690Y-15093507D01*
X53985908Y-15262725D01*
X53970235Y-15265843D01*
X53760191Y-15406191D01*
X53619843Y-15616235D01*
X53570560Y-15864000D01*
X53570560Y-17664000D01*
X53619843Y-17911765D01*
X53760191Y-18121809D01*
X53970235Y-18262157D01*
X54218000Y-18311440D01*
X56018000Y-18311440D01*
X56265765Y-18262157D01*
X56475809Y-18121809D01*
X56616157Y-17911765D01*
X56665440Y-17664000D01*
X56665440Y-15864000D01*
X56616157Y-15616235D01*
X56475809Y-15406191D01*
X56265765Y-15265843D01*
X56250092Y-15262725D01*
X56419310Y-15093507D01*
X56653000Y-14529330D01*
X56653000Y-13918670D01*
X56442302Y-13410000D01*
X56948001Y-13410000D01*
X56948001Y-32058275D01*
X56676598Y-32058275D01*
X56417944Y-32165413D01*
X56752334Y-31664963D01*
X56886990Y-30988000D01*
X56752334Y-30311037D01*
X56368865Y-29737135D01*
X55794963Y-29353666D01*
X55288880Y-29253000D01*
X54947120Y-29253000D01*
X54441037Y-29353666D01*
X53867135Y-29737135D01*
X53483666Y-30311037D01*
X53349010Y-30988000D01*
X53483666Y-31664963D01*
X53867135Y-32238865D01*
X54170034Y-32441255D01*
X54147569Y-32463720D01*
X53990000Y-32844126D01*
X53990000Y-33255874D01*
X53993247Y-33263713D01*
X53927235Y-33276843D01*
X53717191Y-33417191D01*
X53576843Y-33627235D01*
X53527560Y-33875000D01*
X53527560Y-35675000D01*
X53576843Y-35922765D01*
X53717191Y-36132809D01*
X53927235Y-36273157D01*
X53942908Y-36276275D01*
X53773690Y-36445493D01*
X53540000Y-37009670D01*
X53540000Y-37620330D01*
X53773690Y-38184507D01*
X54205493Y-38616310D01*
X54769670Y-38850000D01*
X55380330Y-38850000D01*
X55944507Y-38616310D01*
X56376310Y-38184507D01*
X56610000Y-37620330D01*
X56610000Y-37009670D01*
X56376310Y-36445493D01*
X56207092Y-36276275D01*
X56222765Y-36273157D01*
X56432809Y-36132809D01*
X56573157Y-35922765D01*
X56622440Y-35675000D01*
X56622440Y-34105842D01*
X56676598Y-34128275D01*
X56948001Y-34128275D01*
X56948000Y-111558000D01*
X54170239Y-111558000D01*
X54218086Y-111510153D01*
X54467000Y-110909222D01*
X54467000Y-110258778D01*
X54218086Y-109657847D01*
X53758153Y-109197914D01*
X53157222Y-108949000D01*
X52506778Y-108949000D01*
X51905847Y-109197914D01*
X51445914Y-109657847D01*
X51197000Y-110258778D01*
X51197000Y-110909222D01*
X51445914Y-111510153D01*
X51493761Y-111558000D01*
X44094905Y-111558000D01*
X44142752Y-111510153D01*
X44391666Y-110909222D01*
X44391666Y-110258778D01*
X44142752Y-109657847D01*
X43682819Y-109197914D01*
X43081888Y-108949000D01*
X42431444Y-108949000D01*
X42290291Y-109007467D01*
X40810000Y-107527177D01*
X40810000Y-105778711D01*
X40902431Y-105686280D01*
X41060000Y-105305874D01*
X41060000Y-104894126D01*
X40902431Y-104513720D01*
X40611280Y-104222569D01*
X40230874Y-104065000D01*
X39819126Y-104065000D01*
X39438720Y-104222569D01*
X39147569Y-104513720D01*
X38990000Y-104894126D01*
X38990000Y-105305874D01*
X39147569Y-105686280D01*
X39240000Y-105778711D01*
X39240001Y-107590000D01*
X39144126Y-107590000D01*
X38763720Y-107747569D01*
X38472569Y-108038720D01*
X38315000Y-108419126D01*
X38315000Y-108830874D01*
X38472569Y-109211280D01*
X38565000Y-109303711D01*
X38565001Y-110121288D01*
X38447569Y-110238720D01*
X38290000Y-110619126D01*
X38290000Y-111030874D01*
X38447569Y-111411280D01*
X38594289Y-111558000D01*
X34019572Y-111558000D01*
X34067419Y-111510153D01*
X34316333Y-110909222D01*
X34316333Y-110258778D01*
X34067419Y-109657847D01*
X33607486Y-109197914D01*
X33006555Y-108949000D01*
X32356111Y-108949000D01*
X31755180Y-109197914D01*
X31295247Y-109657847D01*
X31257979Y-109747821D01*
X30335000Y-108824843D01*
X30335000Y-101958778D01*
X31046333Y-101958778D01*
X31046333Y-102609222D01*
X31295247Y-103210153D01*
X31755180Y-103670086D01*
X32356111Y-103919000D01*
X33006555Y-103919000D01*
X33607486Y-103670086D01*
X34067419Y-103210153D01*
X34316333Y-102609222D01*
X34316333Y-101958778D01*
X34067419Y-101357847D01*
X33607486Y-100897914D01*
X33484841Y-100847113D01*
X32681333Y-100043605D01*
X31877825Y-100847113D01*
X31755180Y-100897914D01*
X31295247Y-101357847D01*
X31046333Y-101958778D01*
X30335000Y-101958778D01*
X30335000Y-99623336D01*
X31134875Y-99623336D01*
X31160494Y-100233460D01*
X31344690Y-100678148D01*
X31601174Y-100764554D01*
X32501728Y-99864000D01*
X32860938Y-99864000D01*
X33761492Y-100764554D01*
X34017976Y-100678148D01*
X34227791Y-100104664D01*
X34202172Y-99494540D01*
X34017976Y-99049852D01*
X33761492Y-98963446D01*
X32860938Y-99864000D01*
X32501728Y-99864000D01*
X31601174Y-98963446D01*
X31344690Y-99049852D01*
X31134875Y-99623336D01*
X30335000Y-99623336D01*
X30335000Y-98783841D01*
X31780779Y-98783841D01*
X32681333Y-99684395D01*
X33581887Y-98783841D01*
X33495481Y-98527357D01*
X32921997Y-98317542D01*
X32311873Y-98343161D01*
X31867185Y-98527357D01*
X31780779Y-98783841D01*
X30335000Y-98783841D01*
X30335000Y-97812159D01*
X31780779Y-97812159D01*
X31867185Y-98068643D01*
X32440669Y-98278458D01*
X33050793Y-98252839D01*
X33147566Y-98212754D01*
X35416000Y-98212754D01*
X35416000Y-98891245D01*
X35483305Y-99229608D01*
X35739687Y-99613313D01*
X36123391Y-99869695D01*
X36576000Y-99959725D01*
X37028608Y-99869695D01*
X37220996Y-99741146D01*
X37478664Y-99887266D01*
X37540190Y-99895964D01*
X37719000Y-99770163D01*
X37719000Y-98976710D01*
X37736000Y-98891246D01*
X37736000Y-98212755D01*
X37719000Y-98127291D01*
X37719000Y-97333837D01*
X37540190Y-97208036D01*
X37478664Y-97216734D01*
X37220996Y-97362854D01*
X37028609Y-97234305D01*
X36576000Y-97144275D01*
X36123392Y-97234305D01*
X35739688Y-97490687D01*
X35483305Y-97874391D01*
X35416000Y-98212754D01*
X33147566Y-98212754D01*
X33495481Y-98068643D01*
X33581887Y-97812159D01*
X32681333Y-96911605D01*
X31780779Y-97812159D01*
X30335000Y-97812159D01*
X30335000Y-96491336D01*
X31134875Y-96491336D01*
X31160494Y-97101460D01*
X31344690Y-97546148D01*
X31601174Y-97632554D01*
X32501728Y-96732000D01*
X32860938Y-96732000D01*
X33761492Y-97632554D01*
X34017976Y-97546148D01*
X34227791Y-96972664D01*
X34202172Y-96362540D01*
X34017976Y-95917852D01*
X33761492Y-95831446D01*
X32860938Y-96732000D01*
X32501728Y-96732000D01*
X31601174Y-95831446D01*
X31344690Y-95917852D01*
X31134875Y-96491336D01*
X30335000Y-96491336D01*
X30335000Y-93986778D01*
X31046333Y-93986778D01*
X31046333Y-94637222D01*
X31295247Y-95238153D01*
X31755180Y-95698086D01*
X31877825Y-95748887D01*
X32681333Y-96552395D01*
X33484841Y-95748887D01*
X33607486Y-95698086D01*
X34067419Y-95238153D01*
X34316333Y-94637222D01*
X34316333Y-94319126D01*
X37565000Y-94319126D01*
X37565000Y-94730874D01*
X37722569Y-95111280D01*
X38013720Y-95402431D01*
X38394126Y-95560000D01*
X38805874Y-95560000D01*
X39047296Y-95460000D01*
X41592427Y-95460000D01*
X41830513Y-95698086D01*
X41953158Y-95748887D01*
X42756666Y-96552395D01*
X42770809Y-96538253D01*
X42950414Y-96717858D01*
X42936271Y-96732000D01*
X42950414Y-96746143D01*
X42770809Y-96925748D01*
X42756666Y-96911605D01*
X42742524Y-96925748D01*
X42562919Y-96746143D01*
X42577061Y-96732000D01*
X41676507Y-95831446D01*
X41420023Y-95917852D01*
X41210208Y-96491336D01*
X41235827Y-97101460D01*
X41275401Y-97197001D01*
X40753080Y-97197001D01*
X40660998Y-97178685D01*
X40568916Y-97197001D01*
X40568913Y-97197001D01*
X40296180Y-97251251D01*
X40116797Y-97371111D01*
X40098809Y-97344191D01*
X39888765Y-97203843D01*
X39641000Y-97154560D01*
X38591000Y-97154560D01*
X38343235Y-97203843D01*
X38273165Y-97250662D01*
X38213336Y-97216734D01*
X38151810Y-97208036D01*
X37973000Y-97333837D01*
X37973000Y-97653994D01*
X37943560Y-97802000D01*
X37943560Y-99302000D01*
X37973000Y-99450006D01*
X37973000Y-99770163D01*
X38151810Y-99895964D01*
X38213336Y-99887266D01*
X38273165Y-99853338D01*
X38343235Y-99900157D01*
X38591000Y-99949440D01*
X39191151Y-99949440D01*
X41144753Y-101903042D01*
X41121666Y-101958778D01*
X41121666Y-102609222D01*
X41370580Y-103210153D01*
X41830513Y-103670086D01*
X42431444Y-103919000D01*
X43081888Y-103919000D01*
X43682819Y-103670086D01*
X44142752Y-103210153D01*
X44391666Y-102609222D01*
X44391666Y-101958778D01*
X51197000Y-101958778D01*
X51197000Y-102609222D01*
X51445914Y-103210153D01*
X51905847Y-103670086D01*
X52506778Y-103919000D01*
X53157222Y-103919000D01*
X53758153Y-103670086D01*
X54218086Y-103210153D01*
X54467000Y-102609222D01*
X54467000Y-101958778D01*
X54218086Y-101357847D01*
X53758153Y-100897914D01*
X53635508Y-100847113D01*
X52832000Y-100043605D01*
X52028492Y-100847113D01*
X51905847Y-100897914D01*
X51445914Y-101357847D01*
X51197000Y-101958778D01*
X44391666Y-101958778D01*
X44142752Y-101357847D01*
X43682819Y-100897914D01*
X43560174Y-100847113D01*
X42756666Y-100043605D01*
X42742524Y-100057748D01*
X42562919Y-99878143D01*
X42577061Y-99864000D01*
X42562919Y-99849858D01*
X42742524Y-99670253D01*
X42756666Y-99684395D01*
X42770809Y-99670253D01*
X42950414Y-99849858D01*
X42936271Y-99864000D01*
X43836825Y-100764554D01*
X44093309Y-100678148D01*
X44303124Y-100104664D01*
X44282914Y-99623336D01*
X51285542Y-99623336D01*
X51311161Y-100233460D01*
X51495357Y-100678148D01*
X51751841Y-100764554D01*
X52652395Y-99864000D01*
X53011605Y-99864000D01*
X53912159Y-100764554D01*
X54168643Y-100678148D01*
X54378458Y-100104664D01*
X54352839Y-99494540D01*
X54168643Y-99049852D01*
X53912159Y-98963446D01*
X53011605Y-99864000D01*
X52652395Y-99864000D01*
X51751841Y-98963446D01*
X51495357Y-99049852D01*
X51285542Y-99623336D01*
X44282914Y-99623336D01*
X44277505Y-99494540D01*
X44100412Y-99067001D01*
X45375913Y-99067001D01*
X45467999Y-99085318D01*
X45488606Y-99081219D01*
X45501843Y-99147765D01*
X45642191Y-99357809D01*
X45852235Y-99498157D01*
X46100000Y-99547440D01*
X47700000Y-99547440D01*
X47947765Y-99498157D01*
X48157516Y-99358005D01*
X48683223Y-99546965D01*
X49253454Y-99519778D01*
X49654005Y-99353864D01*
X49728139Y-99107745D01*
X48900000Y-98279605D01*
X48885858Y-98293748D01*
X48706253Y-98114143D01*
X48720395Y-98100000D01*
X49079605Y-98100000D01*
X49907745Y-98928139D01*
X50153864Y-98854005D01*
X50179083Y-98783841D01*
X51931446Y-98783841D01*
X52832000Y-99684395D01*
X53732554Y-98783841D01*
X53646148Y-98527357D01*
X53072664Y-98317542D01*
X52462540Y-98343161D01*
X52017852Y-98527357D01*
X51931446Y-98783841D01*
X50179083Y-98783841D01*
X50346965Y-98316777D01*
X50322907Y-97812159D01*
X51931446Y-97812159D01*
X52017852Y-98068643D01*
X52591336Y-98278458D01*
X53201460Y-98252839D01*
X53646148Y-98068643D01*
X53732554Y-97812159D01*
X52832000Y-96911605D01*
X51931446Y-97812159D01*
X50322907Y-97812159D01*
X50319778Y-97746546D01*
X50153864Y-97345995D01*
X49907745Y-97271861D01*
X49079605Y-98100000D01*
X48720395Y-98100000D01*
X48706253Y-98085858D01*
X48885858Y-97906252D01*
X48900000Y-97920395D01*
X49728139Y-97092255D01*
X49654005Y-96846136D01*
X49116777Y-96653035D01*
X48546546Y-96680222D01*
X48156933Y-96841605D01*
X47947765Y-96701843D01*
X47700000Y-96652560D01*
X46774850Y-96652560D01*
X46613626Y-96491336D01*
X51285542Y-96491336D01*
X51311161Y-97101460D01*
X51495357Y-97546148D01*
X51751841Y-97632554D01*
X52652395Y-96732000D01*
X53011605Y-96732000D01*
X53912159Y-97632554D01*
X54168643Y-97546148D01*
X54378458Y-96972664D01*
X54352839Y-96362540D01*
X54168643Y-95917852D01*
X53912159Y-95831446D01*
X53011605Y-96732000D01*
X52652395Y-96732000D01*
X51751841Y-95831446D01*
X51495357Y-95917852D01*
X51285542Y-96491336D01*
X46613626Y-96491336D01*
X44391666Y-94269377D01*
X44391666Y-93986778D01*
X51197000Y-93986778D01*
X51197000Y-94637222D01*
X51445914Y-95238153D01*
X51905847Y-95698086D01*
X52028492Y-95748887D01*
X52832000Y-96552395D01*
X53635508Y-95748887D01*
X53758153Y-95698086D01*
X54218086Y-95238153D01*
X54467000Y-94637222D01*
X54467000Y-93986778D01*
X54218086Y-93385847D01*
X53758153Y-92925914D01*
X53157222Y-92677000D01*
X52506778Y-92677000D01*
X51905847Y-92925914D01*
X51445914Y-93385847D01*
X51197000Y-93986778D01*
X44391666Y-93986778D01*
X44142752Y-93385847D01*
X43682819Y-92925914D01*
X43081888Y-92677000D01*
X42431444Y-92677000D01*
X41830513Y-92925914D01*
X41370580Y-93385847D01*
X41286017Y-93590000D01*
X39047296Y-93590000D01*
X38805874Y-93490000D01*
X38394126Y-93490000D01*
X38013720Y-93647569D01*
X37722569Y-93938720D01*
X37565000Y-94319126D01*
X34316333Y-94319126D01*
X34316333Y-93986778D01*
X34067419Y-93385847D01*
X33607486Y-92925914D01*
X33006555Y-92677000D01*
X32356111Y-92677000D01*
X31755180Y-92925914D01*
X31295247Y-93385847D01*
X31046333Y-93986778D01*
X30335000Y-93986778D01*
X30335000Y-91975157D01*
X32125409Y-90184748D01*
X32190954Y-90140952D01*
X32364455Y-89881291D01*
X32410001Y-89652315D01*
X32410001Y-89652311D01*
X32425379Y-89574999D01*
X32410001Y-89497687D01*
X32410001Y-89394126D01*
X35865000Y-89394126D01*
X35865000Y-89805874D01*
X36022569Y-90186280D01*
X36313720Y-90477431D01*
X36694126Y-90635000D01*
X37105874Y-90635000D01*
X37226080Y-90585209D01*
X37022569Y-90788720D01*
X36865000Y-91169126D01*
X36865000Y-91580874D01*
X37022569Y-91961280D01*
X37313720Y-92252431D01*
X37694126Y-92410000D01*
X38105874Y-92410000D01*
X38486280Y-92252431D01*
X38578711Y-92160000D01*
X45796289Y-92160000D01*
X45963720Y-92327431D01*
X46344126Y-92485000D01*
X46755874Y-92485000D01*
X47136280Y-92327431D01*
X47427431Y-92036280D01*
X47585000Y-91655874D01*
X47585000Y-91244126D01*
X47427431Y-90863720D01*
X47136280Y-90572569D01*
X46755874Y-90415000D01*
X46344126Y-90415000D01*
X45963720Y-90572569D01*
X45946289Y-90590000D01*
X38578711Y-90590000D01*
X38486280Y-90497569D01*
X38214514Y-90385000D01*
X43972688Y-90385000D01*
X44050000Y-90400378D01*
X44122288Y-90385999D01*
X44163720Y-90427431D01*
X44544126Y-90585000D01*
X44955874Y-90585000D01*
X45336280Y-90427431D01*
X45627431Y-90136280D01*
X45785000Y-89755874D01*
X45785000Y-89344126D01*
X45770865Y-89310000D01*
X46046289Y-89310000D01*
X46188720Y-89452431D01*
X46569126Y-89610000D01*
X46980874Y-89610000D01*
X47361280Y-89452431D01*
X47652431Y-89161280D01*
X47810000Y-88780874D01*
X47810000Y-88369126D01*
X47652431Y-87988720D01*
X47361280Y-87697569D01*
X46980874Y-87540000D01*
X46569126Y-87540000D01*
X46188720Y-87697569D01*
X46146289Y-87740000D01*
X37828711Y-87740000D01*
X37736280Y-87647569D01*
X37355874Y-87490000D01*
X36944126Y-87490000D01*
X36563720Y-87647569D01*
X36272569Y-87938720D01*
X36115000Y-88319126D01*
X36115000Y-88730874D01*
X36170771Y-88865518D01*
X36022569Y-89013720D01*
X35865000Y-89394126D01*
X32410001Y-89394126D01*
X32410001Y-88292311D01*
X32425379Y-88214999D01*
X32410001Y-88137687D01*
X32410001Y-88137683D01*
X32364455Y-87908707D01*
X32315570Y-87835546D01*
X32234750Y-87714590D01*
X32234748Y-87714588D01*
X32190954Y-87649046D01*
X32125412Y-87605252D01*
X32033551Y-87513391D01*
X32356111Y-87647000D01*
X33006555Y-87647000D01*
X33607486Y-87398086D01*
X34067419Y-86938153D01*
X34316333Y-86337222D01*
X34316333Y-85686778D01*
X34294886Y-85635001D01*
X37615000Y-85635001D01*
X37615000Y-86030874D01*
X37772569Y-86411280D01*
X38063720Y-86702431D01*
X38444126Y-86860000D01*
X38855874Y-86860000D01*
X39007970Y-86797000D01*
X41312112Y-86797000D01*
X41370580Y-86938153D01*
X41830513Y-87398086D01*
X42431444Y-87647000D01*
X43081888Y-87647000D01*
X43682819Y-87398086D01*
X44142752Y-86938153D01*
X44391666Y-86337222D01*
X44391666Y-85686778D01*
X44245959Y-85335010D01*
X51342707Y-85335010D01*
X51197000Y-85686778D01*
X51197000Y-86337222D01*
X51445914Y-86938153D01*
X51905847Y-87398086D01*
X52506778Y-87647000D01*
X53157222Y-87647000D01*
X53758153Y-87398086D01*
X54218086Y-86938153D01*
X54467000Y-86337222D01*
X54467000Y-85686778D01*
X54317945Y-85326927D01*
X54506282Y-85289464D01*
X54765943Y-85115963D01*
X54809739Y-85050418D01*
X56195412Y-83664746D01*
X56260954Y-83620952D01*
X56304748Y-83555410D01*
X56304750Y-83555408D01*
X56434455Y-83361291D01*
X56456667Y-83249622D01*
X56480001Y-83132315D01*
X56480001Y-83132311D01*
X56495379Y-83054999D01*
X56480001Y-82977687D01*
X56480001Y-78807313D01*
X56495379Y-78730001D01*
X56480001Y-78652689D01*
X56480001Y-78652685D01*
X56434455Y-78423709D01*
X56260954Y-78164048D01*
X56195407Y-78120250D01*
X55980000Y-77904843D01*
X55980000Y-77390474D01*
X55773714Y-76892454D01*
X55392546Y-76511286D01*
X55099735Y-76390000D01*
X55392546Y-76268714D01*
X55773714Y-75887546D01*
X55980000Y-75389526D01*
X55980000Y-74850474D01*
X55773714Y-74352454D01*
X55392546Y-73971286D01*
X54894526Y-73765000D01*
X54380158Y-73765000D01*
X50660000Y-70044843D01*
X50660000Y-69819126D01*
X50502431Y-69438720D01*
X50211280Y-69147569D01*
X49830874Y-68990000D01*
X49419126Y-68990000D01*
X49038720Y-69147569D01*
X48747569Y-69438720D01*
X48590000Y-69819126D01*
X48590000Y-70230874D01*
X48747569Y-70611280D01*
X49038720Y-70902431D01*
X49419126Y-71060000D01*
X49454843Y-71060000D01*
X53270000Y-74875158D01*
X53270000Y-75389526D01*
X53476286Y-75887546D01*
X53857454Y-76268714D01*
X54150265Y-76390000D01*
X53857454Y-76511286D01*
X53564449Y-76804291D01*
X46909748Y-70149591D01*
X46865953Y-70084047D01*
X46606292Y-69910546D01*
X46377316Y-69865000D01*
X46377312Y-69865000D01*
X46300000Y-69849622D01*
X46222688Y-69865000D01*
X43551260Y-69865000D01*
X43648714Y-69767546D01*
X43855000Y-69269526D01*
X43855000Y-68730474D01*
X43648714Y-68232454D01*
X43267546Y-67851286D01*
X42974735Y-67730000D01*
X43267546Y-67608714D01*
X43648714Y-67227546D01*
X43855000Y-66729526D01*
X43855000Y-66190474D01*
X43648714Y-65692454D01*
X43285000Y-65328740D01*
X43285000Y-65051260D01*
X43648714Y-64687546D01*
X43855000Y-64189526D01*
X43855000Y-63650474D01*
X43648714Y-63152454D01*
X43267546Y-62771286D01*
X42769526Y-62565000D01*
X42230474Y-62565000D01*
X41732454Y-62771286D01*
X41368740Y-63135000D01*
X41220158Y-63135000D01*
X37585000Y-59499843D01*
X37585000Y-59369126D01*
X37427431Y-58988720D01*
X37393711Y-58955000D01*
X38218498Y-58955000D01*
X38559528Y-59296030D01*
X38611690Y-59374097D01*
X38920968Y-59580750D01*
X39193701Y-59635000D01*
X39193704Y-59635000D01*
X39285786Y-59653316D01*
X39331904Y-59644143D01*
X39773847Y-60086086D01*
X40374778Y-60335000D01*
X41025222Y-60335000D01*
X41626153Y-60086086D01*
X42086086Y-59626153D01*
X42335000Y-59025222D01*
X42335000Y-58374778D01*
X44065000Y-58374778D01*
X44065000Y-59025222D01*
X44313914Y-59626153D01*
X44765000Y-60077239D01*
X44765000Y-60471514D01*
X44746683Y-60563600D01*
X44765000Y-60655685D01*
X44819250Y-60928418D01*
X45025903Y-61237697D01*
X45103972Y-61289861D01*
X48910141Y-65096031D01*
X48962303Y-65174097D01*
X49271581Y-65380750D01*
X49544314Y-65435000D01*
X49544317Y-65435000D01*
X49605586Y-65447187D01*
X49638243Y-65611365D01*
X49778591Y-65821409D01*
X49988635Y-65961757D01*
X50236400Y-66011040D01*
X51963600Y-66011040D01*
X52211365Y-65961757D01*
X52421409Y-65821409D01*
X52561757Y-65611365D01*
X52566932Y-65585349D01*
X53055275Y-65911650D01*
X53492402Y-65998600D01*
X53787598Y-65998600D01*
X54224725Y-65911650D01*
X54720430Y-65580430D01*
X55051650Y-65084725D01*
X55167959Y-64500000D01*
X55051650Y-63915275D01*
X54720430Y-63419570D01*
X54418979Y-63218146D01*
X54528490Y-63166821D01*
X54922688Y-62734947D01*
X55094958Y-62319026D01*
X54973817Y-62087000D01*
X53767000Y-62087000D01*
X53767000Y-62107000D01*
X53513000Y-62107000D01*
X53513000Y-62087000D01*
X51227000Y-62087000D01*
X51227000Y-62107000D01*
X50973000Y-62107000D01*
X50973000Y-62087000D01*
X49766183Y-62087000D01*
X49645042Y-62319026D01*
X49817312Y-62734947D01*
X50077936Y-63020480D01*
X49988635Y-63038243D01*
X49778591Y-63178591D01*
X49721990Y-63263300D01*
X46635000Y-60176311D01*
X46635000Y-60077239D01*
X46933213Y-59779026D01*
X49645042Y-59779026D01*
X49817312Y-60194947D01*
X50211510Y-60626821D01*
X50346313Y-60690000D01*
X50211510Y-60753179D01*
X49817312Y-61185053D01*
X49645042Y-61600974D01*
X49766183Y-61833000D01*
X50973000Y-61833000D01*
X50973000Y-59547000D01*
X51227000Y-59547000D01*
X51227000Y-61833000D01*
X53513000Y-61833000D01*
X53513000Y-59547000D01*
X53767000Y-59547000D01*
X53767000Y-61833000D01*
X54973817Y-61833000D01*
X55094958Y-61600974D01*
X54922688Y-61185053D01*
X54528490Y-60753179D01*
X54393687Y-60690000D01*
X54528490Y-60626821D01*
X54922688Y-60194947D01*
X55094958Y-59779026D01*
X54973817Y-59547000D01*
X53767000Y-59547000D01*
X53513000Y-59547000D01*
X51227000Y-59547000D01*
X50973000Y-59547000D01*
X49766183Y-59547000D01*
X49645042Y-59779026D01*
X46933213Y-59779026D01*
X47086086Y-59626153D01*
X47335000Y-59025222D01*
X47335000Y-58374778D01*
X47086086Y-57773847D01*
X46626153Y-57313914D01*
X46445358Y-57239026D01*
X49645042Y-57239026D01*
X49817312Y-57654947D01*
X50211510Y-58086821D01*
X50346313Y-58150000D01*
X50211510Y-58213179D01*
X49817312Y-58645053D01*
X49645042Y-59060974D01*
X49766183Y-59293000D01*
X50973000Y-59293000D01*
X50973000Y-57007000D01*
X51227000Y-57007000D01*
X51227000Y-59293000D01*
X53513000Y-59293000D01*
X53513000Y-57007000D01*
X53767000Y-57007000D01*
X53767000Y-59293000D01*
X54973817Y-59293000D01*
X55094958Y-59060974D01*
X54922688Y-58645053D01*
X54528490Y-58213179D01*
X54393687Y-58150000D01*
X54528490Y-58086821D01*
X54922688Y-57654947D01*
X55094958Y-57239026D01*
X54973817Y-57007000D01*
X53767000Y-57007000D01*
X53513000Y-57007000D01*
X51227000Y-57007000D01*
X50973000Y-57007000D01*
X49766183Y-57007000D01*
X49645042Y-57239026D01*
X46445358Y-57239026D01*
X46025222Y-57065000D01*
X45374778Y-57065000D01*
X44773847Y-57313914D01*
X44313914Y-57773847D01*
X44065000Y-58374778D01*
X42335000Y-58374778D01*
X42086086Y-57773847D01*
X41626153Y-57313914D01*
X41025222Y-57065000D01*
X40374778Y-57065000D01*
X39832790Y-57289499D01*
X40287289Y-56835000D01*
X40925222Y-56835000D01*
X41526153Y-56586086D01*
X41968095Y-56144144D01*
X42014213Y-56153317D01*
X42106299Y-56135000D01*
X42379032Y-56080750D01*
X42688310Y-55874097D01*
X42740474Y-55796028D01*
X43901503Y-54635000D01*
X44064319Y-54635000D01*
X43965000Y-54874778D01*
X43965000Y-55525222D01*
X44213914Y-56126153D01*
X44673847Y-56586086D01*
X45274778Y-56835000D01*
X45925222Y-56835000D01*
X46526153Y-56586086D01*
X46977239Y-56135000D01*
X49804908Y-56135000D01*
X49645042Y-56520974D01*
X49766183Y-56753000D01*
X50973000Y-56753000D01*
X50973000Y-56733000D01*
X51227000Y-56733000D01*
X51227000Y-56753000D01*
X53513000Y-56753000D01*
X53513000Y-56733000D01*
X53767000Y-56733000D01*
X53767000Y-56753000D01*
X54973817Y-56753000D01*
X55094958Y-56520974D01*
X54922688Y-56105053D01*
X54528490Y-55673179D01*
X54418979Y-55621854D01*
X54720430Y-55420430D01*
X55051650Y-54924725D01*
X55167959Y-54340000D01*
X55051650Y-53755275D01*
X54720430Y-53259570D01*
X54224725Y-52928350D01*
X53787598Y-52841400D01*
X53492402Y-52841400D01*
X53055275Y-52928350D01*
X52559570Y-53259570D01*
X52462397Y-53405000D01*
X52277603Y-53405000D01*
X52180430Y-53259570D01*
X51684725Y-52928350D01*
X51247598Y-52841400D01*
X50952402Y-52841400D01*
X50613472Y-52908817D01*
X52362290Y-51160000D01*
X53502704Y-51160000D01*
X53744126Y-51260000D01*
X54155874Y-51260000D01*
X54536280Y-51102431D01*
X54827431Y-50811280D01*
X54985000Y-50430874D01*
X54985000Y-50019126D01*
X54827431Y-49638720D01*
X54536280Y-49347569D01*
X54155874Y-49190000D01*
X53744126Y-49190000D01*
X53502704Y-49290000D01*
X52067085Y-49290000D01*
X51974999Y-49271683D01*
X51821002Y-49302315D01*
X51610181Y-49344250D01*
X51300903Y-49550903D01*
X51248741Y-49628969D01*
X50135000Y-50742710D01*
X50135000Y-50669126D01*
X50113657Y-50617601D01*
X50190953Y-50565953D01*
X50234749Y-50500408D01*
X50900408Y-49834749D01*
X50965953Y-49790953D01*
X51139454Y-49531292D01*
X51148291Y-49486866D01*
X52575158Y-48060000D01*
X52705874Y-48060000D01*
X53086280Y-47902431D01*
X53377431Y-47611280D01*
X53535000Y-47230874D01*
X53535000Y-46902045D01*
X53614561Y-46935000D01*
X54185439Y-46935000D01*
X54712862Y-46716534D01*
X55116534Y-46312862D01*
X55335000Y-45785439D01*
X55335000Y-45214561D01*
X55116534Y-44687138D01*
X54853241Y-44423845D01*
X55059699Y-44338327D01*
X55238327Y-44159698D01*
X55335000Y-43926309D01*
X55335000Y-43285750D01*
X55176250Y-43127000D01*
X54027000Y-43127000D01*
X54027000Y-43147000D01*
X53773000Y-43147000D01*
X53773000Y-43127000D01*
X52623750Y-43127000D01*
X52465000Y-43285750D01*
X52465000Y-43742710D01*
X50795981Y-42073691D01*
X52465000Y-42073691D01*
X52465000Y-42714250D01*
X52623750Y-42873000D01*
X53773000Y-42873000D01*
X53773000Y-41723750D01*
X54027000Y-41723750D01*
X54027000Y-42873000D01*
X55176250Y-42873000D01*
X55335000Y-42714250D01*
X55335000Y-42073691D01*
X55238327Y-41840302D01*
X55059699Y-41661673D01*
X54826310Y-41565000D01*
X54185750Y-41565000D01*
X54027000Y-41723750D01*
X53773000Y-41723750D01*
X53614250Y-41565000D01*
X52973690Y-41565000D01*
X52740301Y-41661673D01*
X52561673Y-41840302D01*
X52465000Y-42073691D01*
X50795981Y-42073691D01*
X47930750Y-39208461D01*
X48424153Y-39004086D01*
X48780771Y-38647468D01*
X49053735Y-38920432D01*
X49434141Y-39078001D01*
X49845889Y-39078001D01*
X50226295Y-38920432D01*
X50517446Y-38629281D01*
X50675015Y-38248875D01*
X50675015Y-37837127D01*
X50517446Y-37456721D01*
X50424499Y-37363774D01*
X50412157Y-21113750D01*
X53383000Y-21113750D01*
X53383000Y-22054309D01*
X53479673Y-22287698D01*
X53658301Y-22466327D01*
X53891690Y-22563000D01*
X54832250Y-22563000D01*
X54991000Y-22404250D01*
X54991000Y-20955000D01*
X55245000Y-20955000D01*
X55245000Y-22404250D01*
X55403750Y-22563000D01*
X56344310Y-22563000D01*
X56577699Y-22466327D01*
X56756327Y-22287698D01*
X56853000Y-22054309D01*
X56853000Y-21113750D01*
X56694250Y-20955000D01*
X55245000Y-20955000D01*
X54991000Y-20955000D01*
X53541750Y-20955000D01*
X53383000Y-21113750D01*
X50412157Y-21113750D01*
X50411008Y-19601691D01*
X53383000Y-19601691D01*
X53383000Y-20542250D01*
X53541750Y-20701000D01*
X54991000Y-20701000D01*
X54991000Y-19251750D01*
X55245000Y-19251750D01*
X55245000Y-20701000D01*
X56694250Y-20701000D01*
X56853000Y-20542250D01*
X56853000Y-19601691D01*
X56756327Y-19368302D01*
X56577699Y-19189673D01*
X56344310Y-19093000D01*
X55403750Y-19093000D01*
X55245000Y-19251750D01*
X54991000Y-19251750D01*
X54832250Y-19093000D01*
X53891690Y-19093000D01*
X53658301Y-19189673D01*
X53479673Y-19368302D01*
X53383000Y-19601691D01*
X50411008Y-19601691D01*
X50410515Y-18953196D01*
X50552431Y-18811280D01*
X50710000Y-18430874D01*
X50710000Y-18019126D01*
X50552431Y-17638720D01*
X50261280Y-17347569D01*
X49880874Y-17190000D01*
X49469126Y-17190000D01*
X49133000Y-17329228D01*
X49133000Y-16718778D01*
X48884086Y-16117847D01*
X48424153Y-15657914D01*
X47823222Y-15409000D01*
X47172778Y-15409000D01*
X46571847Y-15657914D01*
X46111914Y-16117847D01*
X45863000Y-16718778D01*
X45863000Y-17369222D01*
X46111914Y-17970153D01*
X46571847Y-18430086D01*
X47172778Y-18679000D01*
X47823222Y-18679000D01*
X48424153Y-18430086D01*
X48640000Y-18214239D01*
X48640000Y-18430874D01*
X48797569Y-18811280D01*
X48840440Y-18854151D01*
X48845624Y-25679385D01*
X48424153Y-25257914D01*
X47823222Y-25009000D01*
X47172778Y-25009000D01*
X46571847Y-25257914D01*
X46111914Y-25717847D01*
X45863000Y-26318778D01*
X45863000Y-26969222D01*
X46111914Y-27570153D01*
X46571847Y-28030086D01*
X47172778Y-28279000D01*
X47823222Y-28279000D01*
X48424153Y-28030086D01*
X48847088Y-27607151D01*
X48853966Y-36661727D01*
X48424153Y-36231914D01*
X47823222Y-35983000D01*
X47172778Y-35983000D01*
X46932999Y-36082320D01*
X46932999Y-32649501D01*
X46986280Y-32627431D01*
X47277431Y-32336280D01*
X47435000Y-31955874D01*
X47435000Y-31544126D01*
X47277431Y-31163720D01*
X46986280Y-30872569D01*
X46605874Y-30715000D01*
X46194126Y-30715000D01*
X45813720Y-30872569D01*
X45522569Y-31163720D01*
X45422569Y-31405142D01*
X45401971Y-31425740D01*
X45323902Y-31477904D01*
X45259850Y-31573765D01*
X45117249Y-31787183D01*
X45044682Y-32152001D01*
X45062999Y-32244087D01*
X45063000Y-37624289D01*
X44886280Y-37447569D01*
X44553842Y-37309869D01*
X44577431Y-37286280D01*
X44735000Y-36905874D01*
X44735000Y-36494126D01*
X44577431Y-36113720D01*
X44286280Y-35822569D01*
X43905874Y-35665000D01*
X43494126Y-35665000D01*
X43113720Y-35822569D01*
X43012422Y-35923867D01*
X42828023Y-35960546D01*
X42783942Y-35990000D01*
X38382651Y-35990000D01*
X38111000Y-35877479D01*
X38111000Y-35508670D01*
X37877310Y-34944493D01*
X37445507Y-34512690D01*
X36881330Y-34279000D01*
X36270670Y-34279000D01*
X35706493Y-34512690D01*
X35537275Y-34681908D01*
X35534157Y-34666235D01*
X35393809Y-34456191D01*
X35183765Y-34315843D01*
X34936000Y-34266560D01*
X33136000Y-34266560D01*
X32888235Y-34315843D01*
X32678191Y-34456191D01*
X32537843Y-34666235D01*
X32488560Y-34914000D01*
X32488560Y-36714000D01*
X32537843Y-36961765D01*
X32678191Y-37171809D01*
X32888235Y-37312157D01*
X33136000Y-37361440D01*
X34936000Y-37361440D01*
X35183765Y-37312157D01*
X35393809Y-37171809D01*
X35534157Y-36961765D01*
X35537275Y-36946092D01*
X35706493Y-37115310D01*
X36270670Y-37349000D01*
X36881330Y-37349000D01*
X36932010Y-37328007D01*
X36997569Y-37486280D01*
X37139508Y-37628219D01*
X37130008Y-37651153D01*
X37130008Y-38062901D01*
X37287577Y-38443307D01*
X37578728Y-38734458D01*
X37959134Y-38892027D01*
X38370882Y-38892027D01*
X38751288Y-38734458D01*
X39030602Y-38455144D01*
X42778753Y-38455144D01*
X42871184Y-38547575D01*
X42939125Y-38575717D01*
X42381843Y-39133000D01*
X41030265Y-39133000D01*
X40725894Y-38828629D01*
X40253602Y-38633000D01*
X39742398Y-38633000D01*
X39270106Y-38828629D01*
X38908629Y-39190106D01*
X38713000Y-39662398D01*
X38713000Y-40173602D01*
X38908629Y-40645894D01*
X39270106Y-41007371D01*
X39657900Y-41168000D01*
X39270106Y-41328629D01*
X38908629Y-41690106D01*
X38713000Y-42162398D01*
X38713000Y-42673602D01*
X38908629Y-43145894D01*
X39270106Y-43507371D01*
X39657900Y-43668000D01*
X39270106Y-43828629D01*
X38908629Y-44190106D01*
X38713000Y-44662398D01*
X38713000Y-45173602D01*
X38908629Y-45645894D01*
X39270106Y-46007371D01*
X39742398Y-46203000D01*
X40253602Y-46203000D01*
X40725894Y-46007371D01*
X41030265Y-45703000D01*
X42489003Y-45703000D01*
X42566315Y-45718378D01*
X42643627Y-45703000D01*
X42643631Y-45703000D01*
X42871898Y-45657595D01*
X43119126Y-45760000D01*
X43530874Y-45760000D01*
X43911280Y-45602431D01*
X44202431Y-45311280D01*
X44360000Y-44930874D01*
X44360000Y-44519126D01*
X44202431Y-44138720D01*
X43911280Y-43847569D01*
X43530874Y-43690000D01*
X43119126Y-43690000D01*
X42738720Y-43847569D01*
X42637422Y-43948867D01*
X42453023Y-43985546D01*
X42232344Y-44133000D01*
X41030265Y-44133000D01*
X40725894Y-43828629D01*
X40338100Y-43668000D01*
X40725894Y-43507371D01*
X41087371Y-43145894D01*
X41283000Y-42673602D01*
X41283000Y-42162398D01*
X41087371Y-41690106D01*
X40725894Y-41328629D01*
X40338100Y-41168000D01*
X40725894Y-41007371D01*
X41030265Y-40703000D01*
X42629688Y-40703000D01*
X42707000Y-40718378D01*
X42784312Y-40703000D01*
X42784316Y-40703000D01*
X43013292Y-40657454D01*
X43272953Y-40483953D01*
X43316749Y-40418408D01*
X44375158Y-39360000D01*
X44505874Y-39360000D01*
X44886280Y-39202431D01*
X45120711Y-38968000D01*
X45323903Y-39272096D01*
X45401969Y-39324258D01*
X46057000Y-39979289D01*
X45897569Y-40138720D01*
X45740000Y-40519126D01*
X45740000Y-40930874D01*
X45897569Y-41311280D01*
X46188720Y-41602431D01*
X46569126Y-41760000D01*
X46699843Y-41760000D01*
X47654843Y-42715000D01*
X46341058Y-42715000D01*
X46296977Y-42685546D01*
X46112578Y-42648867D01*
X46011280Y-42547569D01*
X45630874Y-42390000D01*
X45219126Y-42390000D01*
X44838720Y-42547569D01*
X44547569Y-42838720D01*
X44390000Y-43219126D01*
X44390000Y-43630874D01*
X44547569Y-44011280D01*
X44838720Y-44302431D01*
X45219126Y-44460000D01*
X45630874Y-44460000D01*
X46011280Y-44302431D01*
X46022018Y-44291693D01*
X46065684Y-44300378D01*
X46142996Y-44285000D01*
X48164181Y-44285000D01*
X48190251Y-44311070D01*
X49822169Y-45942989D01*
X49822169Y-46073705D01*
X49979738Y-46454111D01*
X50257735Y-46732108D01*
X48911236Y-48078607D01*
X49133000Y-47543222D01*
X49133000Y-46892778D01*
X48884086Y-46291847D01*
X48424153Y-45831914D01*
X47823222Y-45583000D01*
X47172778Y-45583000D01*
X46571847Y-45831914D01*
X46111914Y-46291847D01*
X45863000Y-46892778D01*
X45863000Y-47543222D01*
X46111914Y-48144153D01*
X46432761Y-48465000D01*
X39085001Y-48465000D01*
X39085001Y-48294126D01*
X38927432Y-47913720D01*
X38636281Y-47622569D01*
X38255875Y-47465000D01*
X37844127Y-47465000D01*
X37463721Y-47622569D01*
X37371290Y-47715000D01*
X30214722Y-47715000D01*
X30122291Y-47622569D01*
X29741885Y-47465000D01*
X29330137Y-47465000D01*
X29321000Y-47468785D01*
X29321000Y-46892778D01*
X29072086Y-46291847D01*
X28887984Y-46107745D01*
X33471861Y-46107745D01*
X33545995Y-46353864D01*
X34083223Y-46546965D01*
X34653454Y-46519778D01*
X35054005Y-46353864D01*
X35128139Y-46107745D01*
X34300000Y-45279605D01*
X33471861Y-46107745D01*
X28887984Y-46107745D01*
X28612153Y-45831914D01*
X28011222Y-45583000D01*
X27735000Y-45583000D01*
X27735000Y-45369126D01*
X27577431Y-44988720D01*
X27536934Y-44948223D01*
X27601934Y-44883223D01*
X32853035Y-44883223D01*
X32880222Y-45453454D01*
X33046136Y-45854005D01*
X33292255Y-45928139D01*
X34120395Y-45100000D01*
X34479605Y-45100000D01*
X35307745Y-45928139D01*
X35553864Y-45854005D01*
X35746965Y-45316777D01*
X35719778Y-44746546D01*
X35553864Y-44345995D01*
X35307745Y-44271861D01*
X34479605Y-45100000D01*
X34120395Y-45100000D01*
X33292255Y-44271861D01*
X33046136Y-44345995D01*
X32853035Y-44883223D01*
X27601934Y-44883223D01*
X29392407Y-43092751D01*
X29472569Y-43286280D01*
X29763720Y-43577431D01*
X30144126Y-43735000D01*
X30555874Y-43735000D01*
X30936280Y-43577431D01*
X31227431Y-43286280D01*
X31385000Y-42905874D01*
X31385000Y-42494126D01*
X31227431Y-42113720D01*
X31161000Y-42047289D01*
X31161000Y-41800000D01*
X32852560Y-41800000D01*
X32852560Y-43400000D01*
X32901843Y-43647765D01*
X33042191Y-43857809D01*
X33252235Y-43998157D01*
X33486187Y-44044693D01*
X33471861Y-44092255D01*
X34300000Y-44920395D01*
X35128139Y-44092255D01*
X35113813Y-44044693D01*
X35347765Y-43998157D01*
X35557809Y-43857809D01*
X35698157Y-43647765D01*
X35747440Y-43400000D01*
X35747440Y-41800000D01*
X35698157Y-41552235D01*
X35557809Y-41342191D01*
X35347765Y-41201843D01*
X35100000Y-41152560D01*
X33500000Y-41152560D01*
X33252235Y-41201843D01*
X33042191Y-41342191D01*
X32901843Y-41552235D01*
X32852560Y-41800000D01*
X31161000Y-41800000D01*
X31161000Y-31973440D01*
X31326000Y-31973440D01*
X31573765Y-31924157D01*
X31783809Y-31783809D01*
X31924157Y-31573765D01*
X31973440Y-31326000D01*
X31973440Y-29126000D01*
X31924157Y-28878235D01*
X31783809Y-28668191D01*
X31573765Y-28527843D01*
X31326000Y-28478560D01*
X29126000Y-28478560D01*
X28878235Y-28527843D01*
X28668191Y-28668191D01*
X28527843Y-28878235D01*
X28478560Y-29126000D01*
X28478560Y-30198404D01*
X27120999Y-28840844D01*
X27120999Y-28179680D01*
X27360778Y-28279000D01*
X28011222Y-28279000D01*
X28612153Y-28030086D01*
X29072086Y-27570153D01*
X29321000Y-26969222D01*
X29321000Y-26318778D01*
X29072086Y-25717847D01*
X28612153Y-25257914D01*
X28011222Y-25009000D01*
X27360778Y-25009000D01*
X27120999Y-25108320D01*
X27120999Y-23966313D01*
X27136377Y-23889001D01*
X27120999Y-23811689D01*
X27120999Y-23811685D01*
X27110000Y-23756389D01*
X27110000Y-20578711D01*
X27202431Y-20486280D01*
X27360000Y-20105874D01*
X27360000Y-19694126D01*
X27202431Y-19313720D01*
X26977109Y-19088398D01*
X38713000Y-19088398D01*
X38713000Y-19599602D01*
X38908629Y-20071894D01*
X39270106Y-20433371D01*
X39657900Y-20594000D01*
X39270106Y-20754629D01*
X38908629Y-21116106D01*
X38713000Y-21588398D01*
X38713000Y-22099602D01*
X38908629Y-22571894D01*
X39270106Y-22933371D01*
X39657900Y-23094000D01*
X39270106Y-23254629D01*
X38908629Y-23616106D01*
X38713000Y-24088398D01*
X38713000Y-24599602D01*
X38908629Y-25071894D01*
X39270106Y-25433371D01*
X39742398Y-25629000D01*
X40253602Y-25629000D01*
X40725894Y-25433371D01*
X41087371Y-25071894D01*
X41283000Y-24599602D01*
X41283000Y-24088398D01*
X41087371Y-23616106D01*
X40725894Y-23254629D01*
X40338100Y-23094000D01*
X40725894Y-22933371D01*
X41087371Y-22571894D01*
X41283000Y-22099602D01*
X41283000Y-21588398D01*
X41087371Y-21116106D01*
X40725894Y-20754629D01*
X40338100Y-20594000D01*
X40725894Y-20433371D01*
X41087371Y-20071894D01*
X41283000Y-19599602D01*
X41283000Y-19088398D01*
X41087371Y-18616106D01*
X40725894Y-18254629D01*
X40253602Y-18059000D01*
X39742398Y-18059000D01*
X39270106Y-18254629D01*
X38908629Y-18616106D01*
X38713000Y-19088398D01*
X26977109Y-19088398D01*
X26911280Y-19022569D01*
X26530874Y-18865000D01*
X26119126Y-18865000D01*
X25738720Y-19022569D01*
X25447569Y-19313720D01*
X25290000Y-19694126D01*
X25290000Y-20105874D01*
X25447569Y-20486280D01*
X25540001Y-20578712D01*
X25540000Y-22410202D01*
X25430874Y-22365000D01*
X25019126Y-22365000D01*
X24638720Y-22522569D01*
X24347569Y-22813720D01*
X24190000Y-23194126D01*
X24190000Y-23605874D01*
X24347569Y-23986280D01*
X24638720Y-24277431D01*
X25015001Y-24433291D01*
X25015001Y-29544066D01*
X25002431Y-29513720D01*
X24711280Y-29222569D01*
X24330874Y-29065000D01*
X23919126Y-29065000D01*
X23538720Y-29222569D01*
X23247569Y-29513720D01*
X23147569Y-29755142D01*
X23028970Y-29873741D01*
X22950904Y-29925903D01*
X22898742Y-30003969D01*
X22898741Y-30003970D01*
X22744250Y-30235182D01*
X22671683Y-30600000D01*
X22690001Y-30692091D01*
X22690000Y-52882914D01*
X22671683Y-52975000D01*
X22744250Y-53339819D01*
X22894711Y-53565000D01*
X22950903Y-53649097D01*
X23260181Y-53855750D01*
X23289241Y-53861530D01*
X24073739Y-54646028D01*
X24125903Y-54724097D01*
X24203972Y-54776261D01*
X24453970Y-55026259D01*
X24685182Y-55180750D01*
X25049999Y-55253316D01*
X25414818Y-55180750D01*
X25707777Y-54985000D01*
X29987711Y-54985000D01*
X30940000Y-55937290D01*
X30940001Y-57085000D01*
X24072296Y-57085000D01*
X23830874Y-56985000D01*
X23419126Y-56985000D01*
X23038720Y-57142569D01*
X22747569Y-57433720D01*
X22590000Y-57814126D01*
X22590000Y-58027914D01*
X22571683Y-58120000D01*
X22590000Y-58212086D01*
X22590000Y-58225874D01*
X22595277Y-58238613D01*
X22644250Y-58484818D01*
X22850904Y-58794096D01*
X23160182Y-59000750D01*
X23406387Y-59049723D01*
X23419126Y-59055000D01*
X23432914Y-59055000D01*
X23525000Y-59073317D01*
X23617086Y-59055000D01*
X23830874Y-59055000D01*
X24072296Y-58955000D01*
X30147711Y-58955000D01*
X27837711Y-61265000D01*
X25142086Y-61265000D01*
X25050000Y-61246683D01*
X24957914Y-61265000D01*
X24685181Y-61319250D01*
X24375903Y-61525903D01*
X24323739Y-61603972D01*
X23662711Y-62265000D01*
X23617086Y-62265000D01*
X23525000Y-62246683D01*
X23432914Y-62265000D01*
X23160181Y-62319250D01*
X22850903Y-62525903D01*
X22644250Y-62835181D01*
X22571683Y-63200000D01*
X22590001Y-63292091D01*
X22590000Y-75681914D01*
X22571683Y-75774000D01*
X22609421Y-75963720D01*
X22644250Y-76138818D01*
X22850903Y-76448097D01*
X22928972Y-76500261D01*
X23215001Y-76786291D01*
X23215001Y-84096259D01*
X23171953Y-84031834D01*
X23106408Y-83988038D01*
X22934749Y-83816379D01*
X22890953Y-83750834D01*
X22800656Y-83690499D01*
X21885000Y-82774843D01*
X21885000Y-66152312D01*
X21900378Y-66075000D01*
X21885000Y-65997688D01*
X21885000Y-65997684D01*
X21839454Y-65768708D01*
X21665953Y-65509047D01*
X21600408Y-65465251D01*
X19185000Y-63049843D01*
X19185000Y-45734265D01*
X19458106Y-46007371D01*
X19930398Y-46203000D01*
X20441602Y-46203000D01*
X20913894Y-46007371D01*
X21275371Y-45645894D01*
X21471000Y-45173602D01*
X21471000Y-44662398D01*
X21275371Y-44190106D01*
X20913894Y-43828629D01*
X20526100Y-43668000D01*
X20913894Y-43507371D01*
X21275371Y-43145894D01*
X21471000Y-42673602D01*
X21471000Y-42162398D01*
X21275371Y-41690106D01*
X20913894Y-41328629D01*
X20526100Y-41168000D01*
X20913894Y-41007371D01*
X21275371Y-40645894D01*
X21471000Y-40173602D01*
X21471000Y-39662398D01*
X21275371Y-39190106D01*
X20913894Y-38828629D01*
X20441602Y-38633000D01*
X19930398Y-38633000D01*
X19458106Y-38828629D01*
X19185000Y-39101735D01*
X19185000Y-31694746D01*
X19669877Y-31915183D01*
X19939000Y-31797604D01*
X19939000Y-30353000D01*
X20193000Y-30353000D01*
X20193000Y-31797604D01*
X20462123Y-31915183D01*
X21078392Y-31635012D01*
X21540534Y-31140332D01*
X21755175Y-30622122D01*
X21637125Y-30353000D01*
X20193000Y-30353000D01*
X19939000Y-30353000D01*
X19919000Y-30353000D01*
X19919000Y-30099000D01*
X19939000Y-30099000D01*
X19939000Y-28654396D01*
X20193000Y-28654396D01*
X20193000Y-30099000D01*
X21637125Y-30099000D01*
X21755175Y-29829878D01*
X21540534Y-29311668D01*
X21078392Y-28816988D01*
X20462123Y-28536817D01*
X20193000Y-28654396D01*
X19939000Y-28654396D01*
X19669877Y-28536817D01*
X19185000Y-28757254D01*
X19185000Y-25160265D01*
X19458106Y-25433371D01*
X19930398Y-25629000D01*
X20441602Y-25629000D01*
X20913894Y-25433371D01*
X21275371Y-25071894D01*
X21471000Y-24599602D01*
X21471000Y-24088398D01*
X21275371Y-23616106D01*
X20913894Y-23254629D01*
X20526100Y-23094000D01*
X20913894Y-22933371D01*
X21275371Y-22571894D01*
X21471000Y-22099602D01*
X21471000Y-21588398D01*
X21275371Y-21116106D01*
X20913894Y-20754629D01*
X20526100Y-20594000D01*
X20913894Y-20433371D01*
X21275371Y-20071894D01*
X21471000Y-19599602D01*
X21471000Y-19088398D01*
X21275371Y-18616106D01*
X20913894Y-18254629D01*
X20441602Y-18059000D01*
X19930398Y-18059000D01*
X19458106Y-18254629D01*
X19096629Y-18616106D01*
X18901000Y-19088398D01*
X18901000Y-19599602D01*
X19096629Y-20071894D01*
X19458106Y-20433371D01*
X19845900Y-20594000D01*
X19458106Y-20754629D01*
X19096629Y-21116106D01*
X18901000Y-21588398D01*
X18901000Y-22018842D01*
X18490000Y-22429843D01*
X18490000Y-16718778D01*
X26051000Y-16718778D01*
X26051000Y-17369222D01*
X26299914Y-17970153D01*
X26759847Y-18430086D01*
X27360778Y-18679000D01*
X28011222Y-18679000D01*
X28612153Y-18430086D01*
X29072086Y-17970153D01*
X29321000Y-17369222D01*
X29321000Y-16718778D01*
X29072086Y-16117847D01*
X28612153Y-15657914D01*
X28011222Y-15409000D01*
X27360778Y-15409000D01*
X26759847Y-15657914D01*
X26299914Y-16117847D01*
X26051000Y-16718778D01*
X18490000Y-16718778D01*
X18490000Y-13410000D01*
X33981698Y-13410000D01*
X33771000Y-13918670D01*
X33771000Y-13918670D01*
G37*
X33771000Y-13918670D02*
X33771000Y-14529330D01*
X34004690Y-15093507D01*
X34173908Y-15262725D01*
X34158235Y-15265843D01*
X33948191Y-15406191D01*
X33807843Y-15616235D01*
X33758560Y-15864000D01*
X33758560Y-17664000D01*
X33807843Y-17911765D01*
X33948191Y-18121809D01*
X34158235Y-18262157D01*
X34406000Y-18311440D01*
X36206000Y-18311440D01*
X36453765Y-18262157D01*
X36663809Y-18121809D01*
X36804157Y-17911765D01*
X36853440Y-17664000D01*
X36853440Y-15864000D01*
X36804157Y-15616235D01*
X36663809Y-15406191D01*
X36453765Y-15265843D01*
X36438092Y-15262725D01*
X36607310Y-15093507D01*
X36841000Y-14529330D01*
X36841000Y-13918670D01*
X36630302Y-13410000D01*
X53793698Y-13410000D01*
X53583000Y-13918670D01*
X53583000Y-14529330D01*
X53816690Y-15093507D01*
X53985908Y-15262725D01*
X53970235Y-15265843D01*
X53760191Y-15406191D01*
X53619843Y-15616235D01*
X53570560Y-15864000D01*
X53570560Y-17664000D01*
X53619843Y-17911765D01*
X53760191Y-18121809D01*
X53970235Y-18262157D01*
X54218000Y-18311440D01*
X56018000Y-18311440D01*
X56265765Y-18262157D01*
X56475809Y-18121809D01*
X56616157Y-17911765D01*
X56665440Y-17664000D01*
X56665440Y-15864000D01*
X56616157Y-15616235D01*
X56475809Y-15406191D01*
X56265765Y-15265843D01*
X56250092Y-15262725D01*
X56419310Y-15093507D01*
X56653000Y-14529330D01*
X56653000Y-13918670D01*
X56442302Y-13410000D01*
X56948001Y-13410000D01*
X56948001Y-32058275D01*
X56676598Y-32058275D01*
X56417944Y-32165413D01*
X56752334Y-31664963D01*
X56886990Y-30988000D01*
X56752334Y-30311037D01*
X56368865Y-29737135D01*
X55794963Y-29353666D01*
X55288880Y-29253000D01*
X54947120Y-29253000D01*
X54441037Y-29353666D01*
X53867135Y-29737135D01*
X53483666Y-30311037D01*
X53349010Y-30988000D01*
X53483666Y-31664963D01*
X53867135Y-32238865D01*
X54170034Y-32441255D01*
X54147569Y-32463720D01*
X53990000Y-32844126D01*
X53990000Y-33255874D01*
X53993247Y-33263713D01*
X53927235Y-33276843D01*
X53717191Y-33417191D01*
X53576843Y-33627235D01*
X53527560Y-33875000D01*
X53527560Y-35675000D01*
X53576843Y-35922765D01*
X53717191Y-36132809D01*
X53927235Y-36273157D01*
X53942908Y-36276275D01*
X53773690Y-36445493D01*
X53540000Y-37009670D01*
X53540000Y-37620330D01*
X53773690Y-38184507D01*
X54205493Y-38616310D01*
X54769670Y-38850000D01*
X55380330Y-38850000D01*
X55944507Y-38616310D01*
X56376310Y-38184507D01*
X56610000Y-37620330D01*
X56610000Y-37009670D01*
X56376310Y-36445493D01*
X56207092Y-36276275D01*
X56222765Y-36273157D01*
X56432809Y-36132809D01*
X56573157Y-35922765D01*
X56622440Y-35675000D01*
X56622440Y-34105842D01*
X56676598Y-34128275D01*
X56948001Y-34128275D01*
X56948000Y-111558000D01*
X54170239Y-111558000D01*
X54218086Y-111510153D01*
X54467000Y-110909222D01*
X54467000Y-110258778D01*
X54218086Y-109657847D01*
X53758153Y-109197914D01*
X53157222Y-108949000D01*
X52506778Y-108949000D01*
X51905847Y-109197914D01*
X51445914Y-109657847D01*
X51197000Y-110258778D01*
X51197000Y-110909222D01*
X51445914Y-111510153D01*
X51493761Y-111558000D01*
X44094905Y-111558000D01*
X44142752Y-111510153D01*
X44391666Y-110909222D01*
X44391666Y-110258778D01*
X44142752Y-109657847D01*
X43682819Y-109197914D01*
X43081888Y-108949000D01*
X42431444Y-108949000D01*
X42290291Y-109007467D01*
X40810000Y-107527177D01*
X40810000Y-105778711D01*
X40902431Y-105686280D01*
X41060000Y-105305874D01*
X41060000Y-104894126D01*
X40902431Y-104513720D01*
X40611280Y-104222569D01*
X40230874Y-104065000D01*
X39819126Y-104065000D01*
X39438720Y-104222569D01*
X39147569Y-104513720D01*
X38990000Y-104894126D01*
X38990000Y-105305874D01*
X39147569Y-105686280D01*
X39240000Y-105778711D01*
X39240001Y-107590000D01*
X39144126Y-107590000D01*
X38763720Y-107747569D01*
X38472569Y-108038720D01*
X38315000Y-108419126D01*
X38315000Y-108830874D01*
X38472569Y-109211280D01*
X38565000Y-109303711D01*
X38565001Y-110121288D01*
X38447569Y-110238720D01*
X38290000Y-110619126D01*
X38290000Y-111030874D01*
X38447569Y-111411280D01*
X38594289Y-111558000D01*
X34019572Y-111558000D01*
X34067419Y-111510153D01*
X34316333Y-110909222D01*
X34316333Y-110258778D01*
X34067419Y-109657847D01*
X33607486Y-109197914D01*
X33006555Y-108949000D01*
X32356111Y-108949000D01*
X31755180Y-109197914D01*
X31295247Y-109657847D01*
X31257979Y-109747821D01*
X30335000Y-108824843D01*
X30335000Y-101958778D01*
X31046333Y-101958778D01*
X31046333Y-102609222D01*
X31295247Y-103210153D01*
X31755180Y-103670086D01*
X32356111Y-103919000D01*
X33006555Y-103919000D01*
X33607486Y-103670086D01*
X34067419Y-103210153D01*
X34316333Y-102609222D01*
X34316333Y-101958778D01*
X34067419Y-101357847D01*
X33607486Y-100897914D01*
X33484841Y-100847113D01*
X32681333Y-100043605D01*
X31877825Y-100847113D01*
X31755180Y-100897914D01*
X31295247Y-101357847D01*
X31046333Y-101958778D01*
X30335000Y-101958778D01*
X30335000Y-99623336D01*
X31134875Y-99623336D01*
X31160494Y-100233460D01*
X31344690Y-100678148D01*
X31601174Y-100764554D01*
X32501728Y-99864000D01*
X32860938Y-99864000D01*
X33761492Y-100764554D01*
X34017976Y-100678148D01*
X34227791Y-100104664D01*
X34202172Y-99494540D01*
X34017976Y-99049852D01*
X33761492Y-98963446D01*
X32860938Y-99864000D01*
X32501728Y-99864000D01*
X31601174Y-98963446D01*
X31344690Y-99049852D01*
X31134875Y-99623336D01*
X30335000Y-99623336D01*
X30335000Y-98783841D01*
X31780779Y-98783841D01*
X32681333Y-99684395D01*
X33581887Y-98783841D01*
X33495481Y-98527357D01*
X32921997Y-98317542D01*
X32311873Y-98343161D01*
X31867185Y-98527357D01*
X31780779Y-98783841D01*
X30335000Y-98783841D01*
X30335000Y-97812159D01*
X31780779Y-97812159D01*
X31867185Y-98068643D01*
X32440669Y-98278458D01*
X33050793Y-98252839D01*
X33147566Y-98212754D01*
X35416000Y-98212754D01*
X35416000Y-98891245D01*
X35483305Y-99229608D01*
X35739687Y-99613313D01*
X36123391Y-99869695D01*
X36576000Y-99959725D01*
X37028608Y-99869695D01*
X37220996Y-99741146D01*
X37478664Y-99887266D01*
X37540190Y-99895964D01*
X37719000Y-99770163D01*
X37719000Y-98976710D01*
X37736000Y-98891246D01*
X37736000Y-98212755D01*
X37719000Y-98127291D01*
X37719000Y-97333837D01*
X37540190Y-97208036D01*
X37478664Y-97216734D01*
X37220996Y-97362854D01*
X37028609Y-97234305D01*
X36576000Y-97144275D01*
X36123392Y-97234305D01*
X35739688Y-97490687D01*
X35483305Y-97874391D01*
X35416000Y-98212754D01*
X33147566Y-98212754D01*
X33495481Y-98068643D01*
X33581887Y-97812159D01*
X32681333Y-96911605D01*
X31780779Y-97812159D01*
X30335000Y-97812159D01*
X30335000Y-96491336D01*
X31134875Y-96491336D01*
X31160494Y-97101460D01*
X31344690Y-97546148D01*
X31601174Y-97632554D01*
X32501728Y-96732000D01*
X32860938Y-96732000D01*
X33761492Y-97632554D01*
X34017976Y-97546148D01*
X34227791Y-96972664D01*
X34202172Y-96362540D01*
X34017976Y-95917852D01*
X33761492Y-95831446D01*
X32860938Y-96732000D01*
X32501728Y-96732000D01*
X31601174Y-95831446D01*
X31344690Y-95917852D01*
X31134875Y-96491336D01*
X30335000Y-96491336D01*
X30335000Y-93986778D01*
X31046333Y-93986778D01*
X31046333Y-94637222D01*
X31295247Y-95238153D01*
X31755180Y-95698086D01*
X31877825Y-95748887D01*
X32681333Y-96552395D01*
X33484841Y-95748887D01*
X33607486Y-95698086D01*
X34067419Y-95238153D01*
X34316333Y-94637222D01*
X34316333Y-94319126D01*
X37565000Y-94319126D01*
X37565000Y-94730874D01*
X37722569Y-95111280D01*
X38013720Y-95402431D01*
X38394126Y-95560000D01*
X38805874Y-95560000D01*
X39047296Y-95460000D01*
X41592427Y-95460000D01*
X41830513Y-95698086D01*
X41953158Y-95748887D01*
X42756666Y-96552395D01*
X42770809Y-96538253D01*
X42950414Y-96717858D01*
X42936271Y-96732000D01*
X42950414Y-96746143D01*
X42770809Y-96925748D01*
X42756666Y-96911605D01*
X42742524Y-96925748D01*
X42562919Y-96746143D01*
X42577061Y-96732000D01*
X41676507Y-95831446D01*
X41420023Y-95917852D01*
X41210208Y-96491336D01*
X41235827Y-97101460D01*
X41275401Y-97197001D01*
X40753080Y-97197001D01*
X40660998Y-97178685D01*
X40568916Y-97197001D01*
X40568913Y-97197001D01*
X40296180Y-97251251D01*
X40116797Y-97371111D01*
X40098809Y-97344191D01*
X39888765Y-97203843D01*
X39641000Y-97154560D01*
X38591000Y-97154560D01*
X38343235Y-97203843D01*
X38273165Y-97250662D01*
X38213336Y-97216734D01*
X38151810Y-97208036D01*
X37973000Y-97333837D01*
X37973000Y-97653994D01*
X37943560Y-97802000D01*
X37943560Y-99302000D01*
X37973000Y-99450006D01*
X37973000Y-99770163D01*
X38151810Y-99895964D01*
X38213336Y-99887266D01*
X38273165Y-99853338D01*
X38343235Y-99900157D01*
X38591000Y-99949440D01*
X39191151Y-99949440D01*
X41144753Y-101903042D01*
X41121666Y-101958778D01*
X41121666Y-102609222D01*
X41370580Y-103210153D01*
X41830513Y-103670086D01*
X42431444Y-103919000D01*
X43081888Y-103919000D01*
X43682819Y-103670086D01*
X44142752Y-103210153D01*
X44391666Y-102609222D01*
X44391666Y-101958778D01*
X51197000Y-101958778D01*
X51197000Y-102609222D01*
X51445914Y-103210153D01*
X51905847Y-103670086D01*
X52506778Y-103919000D01*
X53157222Y-103919000D01*
X53758153Y-103670086D01*
X54218086Y-103210153D01*
X54467000Y-102609222D01*
X54467000Y-101958778D01*
X54218086Y-101357847D01*
X53758153Y-100897914D01*
X53635508Y-100847113D01*
X52832000Y-100043605D01*
X52028492Y-100847113D01*
X51905847Y-100897914D01*
X51445914Y-101357847D01*
X51197000Y-101958778D01*
X44391666Y-101958778D01*
X44142752Y-101357847D01*
X43682819Y-100897914D01*
X43560174Y-100847113D01*
X42756666Y-100043605D01*
X42742524Y-100057748D01*
X42562919Y-99878143D01*
X42577061Y-99864000D01*
X42562919Y-99849858D01*
X42742524Y-99670253D01*
X42756666Y-99684395D01*
X42770809Y-99670253D01*
X42950414Y-99849858D01*
X42936271Y-99864000D01*
X43836825Y-100764554D01*
X44093309Y-100678148D01*
X44303124Y-100104664D01*
X44282914Y-99623336D01*
X51285542Y-99623336D01*
X51311161Y-100233460D01*
X51495357Y-100678148D01*
X51751841Y-100764554D01*
X52652395Y-99864000D01*
X53011605Y-99864000D01*
X53912159Y-100764554D01*
X54168643Y-100678148D01*
X54378458Y-100104664D01*
X54352839Y-99494540D01*
X54168643Y-99049852D01*
X53912159Y-98963446D01*
X53011605Y-99864000D01*
X52652395Y-99864000D01*
X51751841Y-98963446D01*
X51495357Y-99049852D01*
X51285542Y-99623336D01*
X44282914Y-99623336D01*
X44277505Y-99494540D01*
X44100412Y-99067001D01*
X45375913Y-99067001D01*
X45467999Y-99085318D01*
X45488606Y-99081219D01*
X45501843Y-99147765D01*
X45642191Y-99357809D01*
X45852235Y-99498157D01*
X46100000Y-99547440D01*
X47700000Y-99547440D01*
X47947765Y-99498157D01*
X48157516Y-99358005D01*
X48683223Y-99546965D01*
X49253454Y-99519778D01*
X49654005Y-99353864D01*
X49728139Y-99107745D01*
X48900000Y-98279605D01*
X48885858Y-98293748D01*
X48706253Y-98114143D01*
X48720395Y-98100000D01*
X49079605Y-98100000D01*
X49907745Y-98928139D01*
X50153864Y-98854005D01*
X50179083Y-98783841D01*
X51931446Y-98783841D01*
X52832000Y-99684395D01*
X53732554Y-98783841D01*
X53646148Y-98527357D01*
X53072664Y-98317542D01*
X52462540Y-98343161D01*
X52017852Y-98527357D01*
X51931446Y-98783841D01*
X50179083Y-98783841D01*
X50346965Y-98316777D01*
X50322907Y-97812159D01*
X51931446Y-97812159D01*
X52017852Y-98068643D01*
X52591336Y-98278458D01*
X53201460Y-98252839D01*
X53646148Y-98068643D01*
X53732554Y-97812159D01*
X52832000Y-96911605D01*
X51931446Y-97812159D01*
X50322907Y-97812159D01*
X50319778Y-97746546D01*
X50153864Y-97345995D01*
X49907745Y-97271861D01*
X49079605Y-98100000D01*
X48720395Y-98100000D01*
X48706253Y-98085858D01*
X48885858Y-97906252D01*
X48900000Y-97920395D01*
X49728139Y-97092255D01*
X49654005Y-96846136D01*
X49116777Y-96653035D01*
X48546546Y-96680222D01*
X48156933Y-96841605D01*
X47947765Y-96701843D01*
X47700000Y-96652560D01*
X46774850Y-96652560D01*
X46613626Y-96491336D01*
X51285542Y-96491336D01*
X51311161Y-97101460D01*
X51495357Y-97546148D01*
X51751841Y-97632554D01*
X52652395Y-96732000D01*
X53011605Y-96732000D01*
X53912159Y-97632554D01*
X54168643Y-97546148D01*
X54378458Y-96972664D01*
X54352839Y-96362540D01*
X54168643Y-95917852D01*
X53912159Y-95831446D01*
X53011605Y-96732000D01*
X52652395Y-96732000D01*
X51751841Y-95831446D01*
X51495357Y-95917852D01*
X51285542Y-96491336D01*
X46613626Y-96491336D01*
X44391666Y-94269377D01*
X44391666Y-93986778D01*
X51197000Y-93986778D01*
X51197000Y-94637222D01*
X51445914Y-95238153D01*
X51905847Y-95698086D01*
X52028492Y-95748887D01*
X52832000Y-96552395D01*
X53635508Y-95748887D01*
X53758153Y-95698086D01*
X54218086Y-95238153D01*
X54467000Y-94637222D01*
X54467000Y-93986778D01*
X54218086Y-93385847D01*
X53758153Y-92925914D01*
X53157222Y-92677000D01*
X52506778Y-92677000D01*
X51905847Y-92925914D01*
X51445914Y-93385847D01*
X51197000Y-93986778D01*
X44391666Y-93986778D01*
X44142752Y-93385847D01*
X43682819Y-92925914D01*
X43081888Y-92677000D01*
X42431444Y-92677000D01*
X41830513Y-92925914D01*
X41370580Y-93385847D01*
X41286017Y-93590000D01*
X39047296Y-93590000D01*
X38805874Y-93490000D01*
X38394126Y-93490000D01*
X38013720Y-93647569D01*
X37722569Y-93938720D01*
X37565000Y-94319126D01*
X34316333Y-94319126D01*
X34316333Y-93986778D01*
X34067419Y-93385847D01*
X33607486Y-92925914D01*
X33006555Y-92677000D01*
X32356111Y-92677000D01*
X31755180Y-92925914D01*
X31295247Y-93385847D01*
X31046333Y-93986778D01*
X30335000Y-93986778D01*
X30335000Y-91975157D01*
X32125409Y-90184748D01*
X32190954Y-90140952D01*
X32364455Y-89881291D01*
X32410001Y-89652315D01*
X32410001Y-89652311D01*
X32425379Y-89574999D01*
X32410001Y-89497687D01*
X32410001Y-89394126D01*
X35865000Y-89394126D01*
X35865000Y-89805874D01*
X36022569Y-90186280D01*
X36313720Y-90477431D01*
X36694126Y-90635000D01*
X37105874Y-90635000D01*
X37226080Y-90585209D01*
X37022569Y-90788720D01*
X36865000Y-91169126D01*
X36865000Y-91580874D01*
X37022569Y-91961280D01*
X37313720Y-92252431D01*
X37694126Y-92410000D01*
X38105874Y-92410000D01*
X38486280Y-92252431D01*
X38578711Y-92160000D01*
X45796289Y-92160000D01*
X45963720Y-92327431D01*
X46344126Y-92485000D01*
X46755874Y-92485000D01*
X47136280Y-92327431D01*
X47427431Y-92036280D01*
X47585000Y-91655874D01*
X47585000Y-91244126D01*
X47427431Y-90863720D01*
X47136280Y-90572569D01*
X46755874Y-90415000D01*
X46344126Y-90415000D01*
X45963720Y-90572569D01*
X45946289Y-90590000D01*
X38578711Y-90590000D01*
X38486280Y-90497569D01*
X38214514Y-90385000D01*
X43972688Y-90385000D01*
X44050000Y-90400378D01*
X44122288Y-90385999D01*
X44163720Y-90427431D01*
X44544126Y-90585000D01*
X44955874Y-90585000D01*
X45336280Y-90427431D01*
X45627431Y-90136280D01*
X45785000Y-89755874D01*
X45785000Y-89344126D01*
X45770865Y-89310000D01*
X46046289Y-89310000D01*
X46188720Y-89452431D01*
X46569126Y-89610000D01*
X46980874Y-89610000D01*
X47361280Y-89452431D01*
X47652431Y-89161280D01*
X47810000Y-88780874D01*
X47810000Y-88369126D01*
X47652431Y-87988720D01*
X47361280Y-87697569D01*
X46980874Y-87540000D01*
X46569126Y-87540000D01*
X46188720Y-87697569D01*
X46146289Y-87740000D01*
X37828711Y-87740000D01*
X37736280Y-87647569D01*
X37355874Y-87490000D01*
X36944126Y-87490000D01*
X36563720Y-87647569D01*
X36272569Y-87938720D01*
X36115000Y-88319126D01*
X36115000Y-88730874D01*
X36170771Y-88865518D01*
X36022569Y-89013720D01*
X35865000Y-89394126D01*
X32410001Y-89394126D01*
X32410001Y-88292311D01*
X32425379Y-88214999D01*
X32410001Y-88137687D01*
X32410001Y-88137683D01*
X32364455Y-87908707D01*
X32315570Y-87835546D01*
X32234750Y-87714590D01*
X32234748Y-87714588D01*
X32190954Y-87649046D01*
X32125412Y-87605252D01*
X32033551Y-87513391D01*
X32356111Y-87647000D01*
X33006555Y-87647000D01*
X33607486Y-87398086D01*
X34067419Y-86938153D01*
X34316333Y-86337222D01*
X34316333Y-85686778D01*
X34294886Y-85635001D01*
X37615000Y-85635001D01*
X37615000Y-86030874D01*
X37772569Y-86411280D01*
X38063720Y-86702431D01*
X38444126Y-86860000D01*
X38855874Y-86860000D01*
X39007970Y-86797000D01*
X41312112Y-86797000D01*
X41370580Y-86938153D01*
X41830513Y-87398086D01*
X42431444Y-87647000D01*
X43081888Y-87647000D01*
X43682819Y-87398086D01*
X44142752Y-86938153D01*
X44391666Y-86337222D01*
X44391666Y-85686778D01*
X44245959Y-85335010D01*
X51342707Y-85335010D01*
X51197000Y-85686778D01*
X51197000Y-86337222D01*
X51445914Y-86938153D01*
X51905847Y-87398086D01*
X52506778Y-87647000D01*
X53157222Y-87647000D01*
X53758153Y-87398086D01*
X54218086Y-86938153D01*
X54467000Y-86337222D01*
X54467000Y-85686778D01*
X54317945Y-85326927D01*
X54506282Y-85289464D01*
X54765943Y-85115963D01*
X54809739Y-85050418D01*
X56195412Y-83664746D01*
X56260954Y-83620952D01*
X56304748Y-83555410D01*
X56304750Y-83555408D01*
X56434455Y-83361291D01*
X56456667Y-83249622D01*
X56480001Y-83132315D01*
X56480001Y-83132311D01*
X56495379Y-83054999D01*
X56480001Y-82977687D01*
X56480001Y-78807313D01*
X56495379Y-78730001D01*
X56480001Y-78652689D01*
X56480001Y-78652685D01*
X56434455Y-78423709D01*
X56260954Y-78164048D01*
X56195407Y-78120250D01*
X55980000Y-77904843D01*
X55980000Y-77390474D01*
X55773714Y-76892454D01*
X55392546Y-76511286D01*
X55099735Y-76390000D01*
X55392546Y-76268714D01*
X55773714Y-75887546D01*
X55980000Y-75389526D01*
X55980000Y-74850474D01*
X55773714Y-74352454D01*
X55392546Y-73971286D01*
X54894526Y-73765000D01*
X54380158Y-73765000D01*
X50660000Y-70044843D01*
X50660000Y-69819126D01*
X50502431Y-69438720D01*
X50211280Y-69147569D01*
X49830874Y-68990000D01*
X49419126Y-68990000D01*
X49038720Y-69147569D01*
X48747569Y-69438720D01*
X48590000Y-69819126D01*
X48590000Y-70230874D01*
X48747569Y-70611280D01*
X49038720Y-70902431D01*
X49419126Y-71060000D01*
X49454843Y-71060000D01*
X53270000Y-74875158D01*
X53270000Y-75389526D01*
X53476286Y-75887546D01*
X53857454Y-76268714D01*
X54150265Y-76390000D01*
X53857454Y-76511286D01*
X53564449Y-76804291D01*
X46909748Y-70149591D01*
X46865953Y-70084047D01*
X46606292Y-69910546D01*
X46377316Y-69865000D01*
X46377312Y-69865000D01*
X46300000Y-69849622D01*
X46222688Y-69865000D01*
X43551260Y-69865000D01*
X43648714Y-69767546D01*
X43855000Y-69269526D01*
X43855000Y-68730474D01*
X43648714Y-68232454D01*
X43267546Y-67851286D01*
X42974735Y-67730000D01*
X43267546Y-67608714D01*
X43648714Y-67227546D01*
X43855000Y-66729526D01*
X43855000Y-66190474D01*
X43648714Y-65692454D01*
X43285000Y-65328740D01*
X43285000Y-65051260D01*
X43648714Y-64687546D01*
X43855000Y-64189526D01*
X43855000Y-63650474D01*
X43648714Y-63152454D01*
X43267546Y-62771286D01*
X42769526Y-62565000D01*
X42230474Y-62565000D01*
X41732454Y-62771286D01*
X41368740Y-63135000D01*
X41220158Y-63135000D01*
X37585000Y-59499843D01*
X37585000Y-59369126D01*
X37427431Y-58988720D01*
X37393711Y-58955000D01*
X38218498Y-58955000D01*
X38559528Y-59296030D01*
X38611690Y-59374097D01*
X38920968Y-59580750D01*
X39193701Y-59635000D01*
X39193704Y-59635000D01*
X39285786Y-59653316D01*
X39331904Y-59644143D01*
X39773847Y-60086086D01*
X40374778Y-60335000D01*
X41025222Y-60335000D01*
X41626153Y-60086086D01*
X42086086Y-59626153D01*
X42335000Y-59025222D01*
X42335000Y-58374778D01*
X44065000Y-58374778D01*
X44065000Y-59025222D01*
X44313914Y-59626153D01*
X44765000Y-60077239D01*
X44765000Y-60471514D01*
X44746683Y-60563600D01*
X44765000Y-60655685D01*
X44819250Y-60928418D01*
X45025903Y-61237697D01*
X45103972Y-61289861D01*
X48910141Y-65096031D01*
X48962303Y-65174097D01*
X49271581Y-65380750D01*
X49544314Y-65435000D01*
X49544317Y-65435000D01*
X49605586Y-65447187D01*
X49638243Y-65611365D01*
X49778591Y-65821409D01*
X49988635Y-65961757D01*
X50236400Y-66011040D01*
X51963600Y-66011040D01*
X52211365Y-65961757D01*
X52421409Y-65821409D01*
X52561757Y-65611365D01*
X52566932Y-65585349D01*
X53055275Y-65911650D01*
X53492402Y-65998600D01*
X53787598Y-65998600D01*
X54224725Y-65911650D01*
X54720430Y-65580430D01*
X55051650Y-65084725D01*
X55167959Y-64500000D01*
X55051650Y-63915275D01*
X54720430Y-63419570D01*
X54418979Y-63218146D01*
X54528490Y-63166821D01*
X54922688Y-62734947D01*
X55094958Y-62319026D01*
X54973817Y-62087000D01*
X53767000Y-62087000D01*
X53767000Y-62107000D01*
X53513000Y-62107000D01*
X53513000Y-62087000D01*
X51227000Y-62087000D01*
X51227000Y-62107000D01*
X50973000Y-62107000D01*
X50973000Y-62087000D01*
X49766183Y-62087000D01*
X49645042Y-62319026D01*
X49817312Y-62734947D01*
X50077936Y-63020480D01*
X49988635Y-63038243D01*
X49778591Y-63178591D01*
X49721990Y-63263300D01*
X46635000Y-60176311D01*
X46635000Y-60077239D01*
X46933213Y-59779026D01*
X49645042Y-59779026D01*
X49817312Y-60194947D01*
X50211510Y-60626821D01*
X50346313Y-60690000D01*
X50211510Y-60753179D01*
X49817312Y-61185053D01*
X49645042Y-61600974D01*
X49766183Y-61833000D01*
X50973000Y-61833000D01*
X50973000Y-59547000D01*
X51227000Y-59547000D01*
X51227000Y-61833000D01*
X53513000Y-61833000D01*
X53513000Y-59547000D01*
X53767000Y-59547000D01*
X53767000Y-61833000D01*
X54973817Y-61833000D01*
X55094958Y-61600974D01*
X54922688Y-61185053D01*
X54528490Y-60753179D01*
X54393687Y-60690000D01*
X54528490Y-60626821D01*
X54922688Y-60194947D01*
X55094958Y-59779026D01*
X54973817Y-59547000D01*
X53767000Y-59547000D01*
X53513000Y-59547000D01*
X51227000Y-59547000D01*
X50973000Y-59547000D01*
X49766183Y-59547000D01*
X49645042Y-59779026D01*
X46933213Y-59779026D01*
X47086086Y-59626153D01*
X47335000Y-59025222D01*
X47335000Y-58374778D01*
X47086086Y-57773847D01*
X46626153Y-57313914D01*
X46445358Y-57239026D01*
X49645042Y-57239026D01*
X49817312Y-57654947D01*
X50211510Y-58086821D01*
X50346313Y-58150000D01*
X50211510Y-58213179D01*
X49817312Y-58645053D01*
X49645042Y-59060974D01*
X49766183Y-59293000D01*
X50973000Y-59293000D01*
X50973000Y-57007000D01*
X51227000Y-57007000D01*
X51227000Y-59293000D01*
X53513000Y-59293000D01*
X53513000Y-57007000D01*
X53767000Y-57007000D01*
X53767000Y-59293000D01*
X54973817Y-59293000D01*
X55094958Y-59060974D01*
X54922688Y-58645053D01*
X54528490Y-58213179D01*
X54393687Y-58150000D01*
X54528490Y-58086821D01*
X54922688Y-57654947D01*
X55094958Y-57239026D01*
X54973817Y-57007000D01*
X53767000Y-57007000D01*
X53513000Y-57007000D01*
X51227000Y-57007000D01*
X50973000Y-57007000D01*
X49766183Y-57007000D01*
X49645042Y-57239026D01*
X46445358Y-57239026D01*
X46025222Y-57065000D01*
X45374778Y-57065000D01*
X44773847Y-57313914D01*
X44313914Y-57773847D01*
X44065000Y-58374778D01*
X42335000Y-58374778D01*
X42086086Y-57773847D01*
X41626153Y-57313914D01*
X41025222Y-57065000D01*
X40374778Y-57065000D01*
X39832790Y-57289499D01*
X40287289Y-56835000D01*
X40925222Y-56835000D01*
X41526153Y-56586086D01*
X41968095Y-56144144D01*
X42014213Y-56153317D01*
X42106299Y-56135000D01*
X42379032Y-56080750D01*
X42688310Y-55874097D01*
X42740474Y-55796028D01*
X43901503Y-54635000D01*
X44064319Y-54635000D01*
X43965000Y-54874778D01*
X43965000Y-55525222D01*
X44213914Y-56126153D01*
X44673847Y-56586086D01*
X45274778Y-56835000D01*
X45925222Y-56835000D01*
X46526153Y-56586086D01*
X46977239Y-56135000D01*
X49804908Y-56135000D01*
X49645042Y-56520974D01*
X49766183Y-56753000D01*
X50973000Y-56753000D01*
X50973000Y-56733000D01*
X51227000Y-56733000D01*
X51227000Y-56753000D01*
X53513000Y-56753000D01*
X53513000Y-56733000D01*
X53767000Y-56733000D01*
X53767000Y-56753000D01*
X54973817Y-56753000D01*
X55094958Y-56520974D01*
X54922688Y-56105053D01*
X54528490Y-55673179D01*
X54418979Y-55621854D01*
X54720430Y-55420430D01*
X55051650Y-54924725D01*
X55167959Y-54340000D01*
X55051650Y-53755275D01*
X54720430Y-53259570D01*
X54224725Y-52928350D01*
X53787598Y-52841400D01*
X53492402Y-52841400D01*
X53055275Y-52928350D01*
X52559570Y-53259570D01*
X52462397Y-53405000D01*
X52277603Y-53405000D01*
X52180430Y-53259570D01*
X51684725Y-52928350D01*
X51247598Y-52841400D01*
X50952402Y-52841400D01*
X50613472Y-52908817D01*
X52362290Y-51160000D01*
X53502704Y-51160000D01*
X53744126Y-51260000D01*
X54155874Y-51260000D01*
X54536280Y-51102431D01*
X54827431Y-50811280D01*
X54985000Y-50430874D01*
X54985000Y-50019126D01*
X54827431Y-49638720D01*
X54536280Y-49347569D01*
X54155874Y-49190000D01*
X53744126Y-49190000D01*
X53502704Y-49290000D01*
X52067085Y-49290000D01*
X51974999Y-49271683D01*
X51821002Y-49302315D01*
X51610181Y-49344250D01*
X51300903Y-49550903D01*
X51248741Y-49628969D01*
X50135000Y-50742710D01*
X50135000Y-50669126D01*
X50113657Y-50617601D01*
X50190953Y-50565953D01*
X50234749Y-50500408D01*
X50900408Y-49834749D01*
X50965953Y-49790953D01*
X51139454Y-49531292D01*
X51148291Y-49486866D01*
X52575158Y-48060000D01*
X52705874Y-48060000D01*
X53086280Y-47902431D01*
X53377431Y-47611280D01*
X53535000Y-47230874D01*
X53535000Y-46902045D01*
X53614561Y-46935000D01*
X54185439Y-46935000D01*
X54712862Y-46716534D01*
X55116534Y-46312862D01*
X55335000Y-45785439D01*
X55335000Y-45214561D01*
X55116534Y-44687138D01*
X54853241Y-44423845D01*
X55059699Y-44338327D01*
X55238327Y-44159698D01*
X55335000Y-43926309D01*
X55335000Y-43285750D01*
X55176250Y-43127000D01*
X54027000Y-43127000D01*
X54027000Y-43147000D01*
X53773000Y-43147000D01*
X53773000Y-43127000D01*
X52623750Y-43127000D01*
X52465000Y-43285750D01*
X52465000Y-43742710D01*
X50795981Y-42073691D01*
X52465000Y-42073691D01*
X52465000Y-42714250D01*
X52623750Y-42873000D01*
X53773000Y-42873000D01*
X53773000Y-41723750D01*
X54027000Y-41723750D01*
X54027000Y-42873000D01*
X55176250Y-42873000D01*
X55335000Y-42714250D01*
X55335000Y-42073691D01*
X55238327Y-41840302D01*
X55059699Y-41661673D01*
X54826310Y-41565000D01*
X54185750Y-41565000D01*
X54027000Y-41723750D01*
X53773000Y-41723750D01*
X53614250Y-41565000D01*
X52973690Y-41565000D01*
X52740301Y-41661673D01*
X52561673Y-41840302D01*
X52465000Y-42073691D01*
X50795981Y-42073691D01*
X47930750Y-39208461D01*
X48424153Y-39004086D01*
X48780771Y-38647468D01*
X49053735Y-38920432D01*
X49434141Y-39078001D01*
X49845889Y-39078001D01*
X50226295Y-38920432D01*
X50517446Y-38629281D01*
X50675015Y-38248875D01*
X50675015Y-37837127D01*
X50517446Y-37456721D01*
X50424499Y-37363774D01*
X50412157Y-21113750D01*
X53383000Y-21113750D01*
X53383000Y-22054309D01*
X53479673Y-22287698D01*
X53658301Y-22466327D01*
X53891690Y-22563000D01*
X54832250Y-22563000D01*
X54991000Y-22404250D01*
X54991000Y-20955000D01*
X55245000Y-20955000D01*
X55245000Y-22404250D01*
X55403750Y-22563000D01*
X56344310Y-22563000D01*
X56577699Y-22466327D01*
X56756327Y-22287698D01*
X56853000Y-22054309D01*
X56853000Y-21113750D01*
X56694250Y-20955000D01*
X55245000Y-20955000D01*
X54991000Y-20955000D01*
X53541750Y-20955000D01*
X53383000Y-21113750D01*
X50412157Y-21113750D01*
X50411008Y-19601691D01*
X53383000Y-19601691D01*
X53383000Y-20542250D01*
X53541750Y-20701000D01*
X54991000Y-20701000D01*
X54991000Y-19251750D01*
X55245000Y-19251750D01*
X55245000Y-20701000D01*
X56694250Y-20701000D01*
X56853000Y-20542250D01*
X56853000Y-19601691D01*
X56756327Y-19368302D01*
X56577699Y-19189673D01*
X56344310Y-19093000D01*
X55403750Y-19093000D01*
X55245000Y-19251750D01*
X54991000Y-19251750D01*
X54832250Y-19093000D01*
X53891690Y-19093000D01*
X53658301Y-19189673D01*
X53479673Y-19368302D01*
X53383000Y-19601691D01*
X50411008Y-19601691D01*
X50410515Y-18953196D01*
X50552431Y-18811280D01*
X50710000Y-18430874D01*
X50710000Y-18019126D01*
X50552431Y-17638720D01*
X50261280Y-17347569D01*
X49880874Y-17190000D01*
X49469126Y-17190000D01*
X49133000Y-17329228D01*
X49133000Y-16718778D01*
X48884086Y-16117847D01*
X48424153Y-15657914D01*
X47823222Y-15409000D01*
X47172778Y-15409000D01*
X46571847Y-15657914D01*
X46111914Y-16117847D01*
X45863000Y-16718778D01*
X45863000Y-17369222D01*
X46111914Y-17970153D01*
X46571847Y-18430086D01*
X47172778Y-18679000D01*
X47823222Y-18679000D01*
X48424153Y-18430086D01*
X48640000Y-18214239D01*
X48640000Y-18430874D01*
X48797569Y-18811280D01*
X48840440Y-18854151D01*
X48845624Y-25679385D01*
X48424153Y-25257914D01*
X47823222Y-25009000D01*
X47172778Y-25009000D01*
X46571847Y-25257914D01*
X46111914Y-25717847D01*
X45863000Y-26318778D01*
X45863000Y-26969222D01*
X46111914Y-27570153D01*
X46571847Y-28030086D01*
X47172778Y-28279000D01*
X47823222Y-28279000D01*
X48424153Y-28030086D01*
X48847088Y-27607151D01*
X48853966Y-36661727D01*
X48424153Y-36231914D01*
X47823222Y-35983000D01*
X47172778Y-35983000D01*
X46932999Y-36082320D01*
X46932999Y-32649501D01*
X46986280Y-32627431D01*
X47277431Y-32336280D01*
X47435000Y-31955874D01*
X47435000Y-31544126D01*
X47277431Y-31163720D01*
X46986280Y-30872569D01*
X46605874Y-30715000D01*
X46194126Y-30715000D01*
X45813720Y-30872569D01*
X45522569Y-31163720D01*
X45422569Y-31405142D01*
X45401971Y-31425740D01*
X45323902Y-31477904D01*
X45259850Y-31573765D01*
X45117249Y-31787183D01*
X45044682Y-32152001D01*
X45062999Y-32244087D01*
X45063000Y-37624289D01*
X44886280Y-37447569D01*
X44553842Y-37309869D01*
X44577431Y-37286280D01*
X44735000Y-36905874D01*
X44735000Y-36494126D01*
X44577431Y-36113720D01*
X44286280Y-35822569D01*
X43905874Y-35665000D01*
X43494126Y-35665000D01*
X43113720Y-35822569D01*
X43012422Y-35923867D01*
X42828023Y-35960546D01*
X42783942Y-35990000D01*
X38382651Y-35990000D01*
X38111000Y-35877479D01*
X38111000Y-35508670D01*
X37877310Y-34944493D01*
X37445507Y-34512690D01*
X36881330Y-34279000D01*
X36270670Y-34279000D01*
X35706493Y-34512690D01*
X35537275Y-34681908D01*
X35534157Y-34666235D01*
X35393809Y-34456191D01*
X35183765Y-34315843D01*
X34936000Y-34266560D01*
X33136000Y-34266560D01*
X32888235Y-34315843D01*
X32678191Y-34456191D01*
X32537843Y-34666235D01*
X32488560Y-34914000D01*
X32488560Y-36714000D01*
X32537843Y-36961765D01*
X32678191Y-37171809D01*
X32888235Y-37312157D01*
X33136000Y-37361440D01*
X34936000Y-37361440D01*
X35183765Y-37312157D01*
X35393809Y-37171809D01*
X35534157Y-36961765D01*
X35537275Y-36946092D01*
X35706493Y-37115310D01*
X36270670Y-37349000D01*
X36881330Y-37349000D01*
X36932010Y-37328007D01*
X36997569Y-37486280D01*
X37139508Y-37628219D01*
X37130008Y-37651153D01*
X37130008Y-38062901D01*
X37287577Y-38443307D01*
X37578728Y-38734458D01*
X37959134Y-38892027D01*
X38370882Y-38892027D01*
X38751288Y-38734458D01*
X39030602Y-38455144D01*
X42778753Y-38455144D01*
X42871184Y-38547575D01*
X42939125Y-38575717D01*
X42381843Y-39133000D01*
X41030265Y-39133000D01*
X40725894Y-38828629D01*
X40253602Y-38633000D01*
X39742398Y-38633000D01*
X39270106Y-38828629D01*
X38908629Y-39190106D01*
X38713000Y-39662398D01*
X38713000Y-40173602D01*
X38908629Y-40645894D01*
X39270106Y-41007371D01*
X39657900Y-41168000D01*
X39270106Y-41328629D01*
X38908629Y-41690106D01*
X38713000Y-42162398D01*
X38713000Y-42673602D01*
X38908629Y-43145894D01*
X39270106Y-43507371D01*
X39657900Y-43668000D01*
X39270106Y-43828629D01*
X38908629Y-44190106D01*
X38713000Y-44662398D01*
X38713000Y-45173602D01*
X38908629Y-45645894D01*
X39270106Y-46007371D01*
X39742398Y-46203000D01*
X40253602Y-46203000D01*
X40725894Y-46007371D01*
X41030265Y-45703000D01*
X42489003Y-45703000D01*
X42566315Y-45718378D01*
X42643627Y-45703000D01*
X42643631Y-45703000D01*
X42871898Y-45657595D01*
X43119126Y-45760000D01*
X43530874Y-45760000D01*
X43911280Y-45602431D01*
X44202431Y-45311280D01*
X44360000Y-44930874D01*
X44360000Y-44519126D01*
X44202431Y-44138720D01*
X43911280Y-43847569D01*
X43530874Y-43690000D01*
X43119126Y-43690000D01*
X42738720Y-43847569D01*
X42637422Y-43948867D01*
X42453023Y-43985546D01*
X42232344Y-44133000D01*
X41030265Y-44133000D01*
X40725894Y-43828629D01*
X40338100Y-43668000D01*
X40725894Y-43507371D01*
X41087371Y-43145894D01*
X41283000Y-42673602D01*
X41283000Y-42162398D01*
X41087371Y-41690106D01*
X40725894Y-41328629D01*
X40338100Y-41168000D01*
X40725894Y-41007371D01*
X41030265Y-40703000D01*
X42629688Y-40703000D01*
X42707000Y-40718378D01*
X42784312Y-40703000D01*
X42784316Y-40703000D01*
X43013292Y-40657454D01*
X43272953Y-40483953D01*
X43316749Y-40418408D01*
X44375158Y-39360000D01*
X44505874Y-39360000D01*
X44886280Y-39202431D01*
X45120711Y-38968000D01*
X45323903Y-39272096D01*
X45401969Y-39324258D01*
X46057000Y-39979289D01*
X45897569Y-40138720D01*
X45740000Y-40519126D01*
X45740000Y-40930874D01*
X45897569Y-41311280D01*
X46188720Y-41602431D01*
X46569126Y-41760000D01*
X46699843Y-41760000D01*
X47654843Y-42715000D01*
X46341058Y-42715000D01*
X46296977Y-42685546D01*
X46112578Y-42648867D01*
X46011280Y-42547569D01*
X45630874Y-42390000D01*
X45219126Y-42390000D01*
X44838720Y-42547569D01*
X44547569Y-42838720D01*
X44390000Y-43219126D01*
X44390000Y-43630874D01*
X44547569Y-44011280D01*
X44838720Y-44302431D01*
X45219126Y-44460000D01*
X45630874Y-44460000D01*
X46011280Y-44302431D01*
X46022018Y-44291693D01*
X46065684Y-44300378D01*
X46142996Y-44285000D01*
X48164181Y-44285000D01*
X48190251Y-44311070D01*
X49822169Y-45942989D01*
X49822169Y-46073705D01*
X49979738Y-46454111D01*
X50257735Y-46732108D01*
X48911236Y-48078607D01*
X49133000Y-47543222D01*
X49133000Y-46892778D01*
X48884086Y-46291847D01*
X48424153Y-45831914D01*
X47823222Y-45583000D01*
X47172778Y-45583000D01*
X46571847Y-45831914D01*
X46111914Y-46291847D01*
X45863000Y-46892778D01*
X45863000Y-47543222D01*
X46111914Y-48144153D01*
X46432761Y-48465000D01*
X39085001Y-48465000D01*
X39085001Y-48294126D01*
X38927432Y-47913720D01*
X38636281Y-47622569D01*
X38255875Y-47465000D01*
X37844127Y-47465000D01*
X37463721Y-47622569D01*
X37371290Y-47715000D01*
X30214722Y-47715000D01*
X30122291Y-47622569D01*
X29741885Y-47465000D01*
X29330137Y-47465000D01*
X29321000Y-47468785D01*
X29321000Y-46892778D01*
X29072086Y-46291847D01*
X28887984Y-46107745D01*
X33471861Y-46107745D01*
X33545995Y-46353864D01*
X34083223Y-46546965D01*
X34653454Y-46519778D01*
X35054005Y-46353864D01*
X35128139Y-46107745D01*
X34300000Y-45279605D01*
X33471861Y-46107745D01*
X28887984Y-46107745D01*
X28612153Y-45831914D01*
X28011222Y-45583000D01*
X27735000Y-45583000D01*
X27735000Y-45369126D01*
X27577431Y-44988720D01*
X27536934Y-44948223D01*
X27601934Y-44883223D01*
X32853035Y-44883223D01*
X32880222Y-45453454D01*
X33046136Y-45854005D01*
X33292255Y-45928139D01*
X34120395Y-45100000D01*
X34479605Y-45100000D01*
X35307745Y-45928139D01*
X35553864Y-45854005D01*
X35746965Y-45316777D01*
X35719778Y-44746546D01*
X35553864Y-44345995D01*
X35307745Y-44271861D01*
X34479605Y-45100000D01*
X34120395Y-45100000D01*
X33292255Y-44271861D01*
X33046136Y-44345995D01*
X32853035Y-44883223D01*
X27601934Y-44883223D01*
X29392407Y-43092751D01*
X29472569Y-43286280D01*
X29763720Y-43577431D01*
X30144126Y-43735000D01*
X30555874Y-43735000D01*
X30936280Y-43577431D01*
X31227431Y-43286280D01*
X31385000Y-42905874D01*
X31385000Y-42494126D01*
X31227431Y-42113720D01*
X31161000Y-42047289D01*
X31161000Y-41800000D01*
X32852560Y-41800000D01*
X32852560Y-43400000D01*
X32901843Y-43647765D01*
X33042191Y-43857809D01*
X33252235Y-43998157D01*
X33486187Y-44044693D01*
X33471861Y-44092255D01*
X34300000Y-44920395D01*
X35128139Y-44092255D01*
X35113813Y-44044693D01*
X35347765Y-43998157D01*
X35557809Y-43857809D01*
X35698157Y-43647765D01*
X35747440Y-43400000D01*
X35747440Y-41800000D01*
X35698157Y-41552235D01*
X35557809Y-41342191D01*
X35347765Y-41201843D01*
X35100000Y-41152560D01*
X33500000Y-41152560D01*
X33252235Y-41201843D01*
X33042191Y-41342191D01*
X32901843Y-41552235D01*
X32852560Y-41800000D01*
X31161000Y-41800000D01*
X31161000Y-31973440D01*
X31326000Y-31973440D01*
X31573765Y-31924157D01*
X31783809Y-31783809D01*
X31924157Y-31573765D01*
X31973440Y-31326000D01*
X31973440Y-29126000D01*
X31924157Y-28878235D01*
X31783809Y-28668191D01*
X31573765Y-28527843D01*
X31326000Y-28478560D01*
X29126000Y-28478560D01*
X28878235Y-28527843D01*
X28668191Y-28668191D01*
X28527843Y-28878235D01*
X28478560Y-29126000D01*
X28478560Y-30198404D01*
X27120999Y-28840844D01*
X27120999Y-28179680D01*
X27360778Y-28279000D01*
X28011222Y-28279000D01*
X28612153Y-28030086D01*
X29072086Y-27570153D01*
X29321000Y-26969222D01*
X29321000Y-26318778D01*
X29072086Y-25717847D01*
X28612153Y-25257914D01*
X28011222Y-25009000D01*
X27360778Y-25009000D01*
X27120999Y-25108320D01*
X27120999Y-23966313D01*
X27136377Y-23889001D01*
X27120999Y-23811689D01*
X27120999Y-23811685D01*
X27110000Y-23756389D01*
X27110000Y-20578711D01*
X27202431Y-20486280D01*
X27360000Y-20105874D01*
X27360000Y-19694126D01*
X27202431Y-19313720D01*
X26977109Y-19088398D01*
X38713000Y-19088398D01*
X38713000Y-19599602D01*
X38908629Y-20071894D01*
X39270106Y-20433371D01*
X39657900Y-20594000D01*
X39270106Y-20754629D01*
X38908629Y-21116106D01*
X38713000Y-21588398D01*
X38713000Y-22099602D01*
X38908629Y-22571894D01*
X39270106Y-22933371D01*
X39657900Y-23094000D01*
X39270106Y-23254629D01*
X38908629Y-23616106D01*
X38713000Y-24088398D01*
X38713000Y-24599602D01*
X38908629Y-25071894D01*
X39270106Y-25433371D01*
X39742398Y-25629000D01*
X40253602Y-25629000D01*
X40725894Y-25433371D01*
X41087371Y-25071894D01*
X41283000Y-24599602D01*
X41283000Y-24088398D01*
X41087371Y-23616106D01*
X40725894Y-23254629D01*
X40338100Y-23094000D01*
X40725894Y-22933371D01*
X41087371Y-22571894D01*
X41283000Y-22099602D01*
X41283000Y-21588398D01*
X41087371Y-21116106D01*
X40725894Y-20754629D01*
X40338100Y-20594000D01*
X40725894Y-20433371D01*
X41087371Y-20071894D01*
X41283000Y-19599602D01*
X41283000Y-19088398D01*
X41087371Y-18616106D01*
X40725894Y-18254629D01*
X40253602Y-18059000D01*
X39742398Y-18059000D01*
X39270106Y-18254629D01*
X38908629Y-18616106D01*
X38713000Y-19088398D01*
X26977109Y-19088398D01*
X26911280Y-19022569D01*
X26530874Y-18865000D01*
X26119126Y-18865000D01*
X25738720Y-19022569D01*
X25447569Y-19313720D01*
X25290000Y-19694126D01*
X25290000Y-20105874D01*
X25447569Y-20486280D01*
X25540001Y-20578712D01*
X25540000Y-22410202D01*
X25430874Y-22365000D01*
X25019126Y-22365000D01*
X24638720Y-22522569D01*
X24347569Y-22813720D01*
X24190000Y-23194126D01*
X24190000Y-23605874D01*
X24347569Y-23986280D01*
X24638720Y-24277431D01*
X25015001Y-24433291D01*
X25015001Y-29544066D01*
X25002431Y-29513720D01*
X24711280Y-29222569D01*
X24330874Y-29065000D01*
X23919126Y-29065000D01*
X23538720Y-29222569D01*
X23247569Y-29513720D01*
X23147569Y-29755142D01*
X23028970Y-29873741D01*
X22950904Y-29925903D01*
X22898742Y-30003969D01*
X22898741Y-30003970D01*
X22744250Y-30235182D01*
X22671683Y-30600000D01*
X22690001Y-30692091D01*
X22690000Y-52882914D01*
X22671683Y-52975000D01*
X22744250Y-53339819D01*
X22894711Y-53565000D01*
X22950903Y-53649097D01*
X23260181Y-53855750D01*
X23289241Y-53861530D01*
X24073739Y-54646028D01*
X24125903Y-54724097D01*
X24203972Y-54776261D01*
X24453970Y-55026259D01*
X24685182Y-55180750D01*
X25049999Y-55253316D01*
X25414818Y-55180750D01*
X25707777Y-54985000D01*
X29987711Y-54985000D01*
X30940000Y-55937290D01*
X30940001Y-57085000D01*
X24072296Y-57085000D01*
X23830874Y-56985000D01*
X23419126Y-56985000D01*
X23038720Y-57142569D01*
X22747569Y-57433720D01*
X22590000Y-57814126D01*
X22590000Y-58027914D01*
X22571683Y-58120000D01*
X22590000Y-58212086D01*
X22590000Y-58225874D01*
X22595277Y-58238613D01*
X22644250Y-58484818D01*
X22850904Y-58794096D01*
X23160182Y-59000750D01*
X23406387Y-59049723D01*
X23419126Y-59055000D01*
X23432914Y-59055000D01*
X23525000Y-59073317D01*
X23617086Y-59055000D01*
X23830874Y-59055000D01*
X24072296Y-58955000D01*
X30147711Y-58955000D01*
X27837711Y-61265000D01*
X25142086Y-61265000D01*
X25050000Y-61246683D01*
X24957914Y-61265000D01*
X24685181Y-61319250D01*
X24375903Y-61525903D01*
X24323739Y-61603972D01*
X23662711Y-62265000D01*
X23617086Y-62265000D01*
X23525000Y-62246683D01*
X23432914Y-62265000D01*
X23160181Y-62319250D01*
X22850903Y-62525903D01*
X22644250Y-62835181D01*
X22571683Y-63200000D01*
X22590001Y-63292091D01*
X22590000Y-75681914D01*
X22571683Y-75774000D01*
X22609421Y-75963720D01*
X22644250Y-76138818D01*
X22850903Y-76448097D01*
X22928972Y-76500261D01*
X23215001Y-76786291D01*
X23215001Y-84096259D01*
X23171953Y-84031834D01*
X23106408Y-83988038D01*
X22934749Y-83816379D01*
X22890953Y-83750834D01*
X22800656Y-83690499D01*
X21885000Y-82774843D01*
X21885000Y-66152312D01*
X21900378Y-66075000D01*
X21885000Y-65997688D01*
X21885000Y-65997684D01*
X21839454Y-65768708D01*
X21665953Y-65509047D01*
X21600408Y-65465251D01*
X19185000Y-63049843D01*
X19185000Y-45734265D01*
X19458106Y-46007371D01*
X19930398Y-46203000D01*
X20441602Y-46203000D01*
X20913894Y-46007371D01*
X21275371Y-45645894D01*
X21471000Y-45173602D01*
X21471000Y-44662398D01*
X21275371Y-44190106D01*
X20913894Y-43828629D01*
X20526100Y-43668000D01*
X20913894Y-43507371D01*
X21275371Y-43145894D01*
X21471000Y-42673602D01*
X21471000Y-42162398D01*
X21275371Y-41690106D01*
X20913894Y-41328629D01*
X20526100Y-41168000D01*
X20913894Y-41007371D01*
X21275371Y-40645894D01*
X21471000Y-40173602D01*
X21471000Y-39662398D01*
X21275371Y-39190106D01*
X20913894Y-38828629D01*
X20441602Y-38633000D01*
X19930398Y-38633000D01*
X19458106Y-38828629D01*
X19185000Y-39101735D01*
X19185000Y-31694746D01*
X19669877Y-31915183D01*
X19939000Y-31797604D01*
X19939000Y-30353000D01*
X20193000Y-30353000D01*
X20193000Y-31797604D01*
X20462123Y-31915183D01*
X21078392Y-31635012D01*
X21540534Y-31140332D01*
X21755175Y-30622122D01*
X21637125Y-30353000D01*
X20193000Y-30353000D01*
X19939000Y-30353000D01*
X19919000Y-30353000D01*
X19919000Y-30099000D01*
X19939000Y-30099000D01*
X19939000Y-28654396D01*
X20193000Y-28654396D01*
X20193000Y-30099000D01*
X21637125Y-30099000D01*
X21755175Y-29829878D01*
X21540534Y-29311668D01*
X21078392Y-28816988D01*
X20462123Y-28536817D01*
X20193000Y-28654396D01*
X19939000Y-28654396D01*
X19669877Y-28536817D01*
X19185000Y-28757254D01*
X19185000Y-25160265D01*
X19458106Y-25433371D01*
X19930398Y-25629000D01*
X20441602Y-25629000D01*
X20913894Y-25433371D01*
X21275371Y-25071894D01*
X21471000Y-24599602D01*
X21471000Y-24088398D01*
X21275371Y-23616106D01*
X20913894Y-23254629D01*
X20526100Y-23094000D01*
X20913894Y-22933371D01*
X21275371Y-22571894D01*
X21471000Y-22099602D01*
X21471000Y-21588398D01*
X21275371Y-21116106D01*
X20913894Y-20754629D01*
X20526100Y-20594000D01*
X20913894Y-20433371D01*
X21275371Y-20071894D01*
X21471000Y-19599602D01*
X21471000Y-19088398D01*
X21275371Y-18616106D01*
X20913894Y-18254629D01*
X20441602Y-18059000D01*
X19930398Y-18059000D01*
X19458106Y-18254629D01*
X19096629Y-18616106D01*
X18901000Y-19088398D01*
X18901000Y-19599602D01*
X19096629Y-20071894D01*
X19458106Y-20433371D01*
X19845900Y-20594000D01*
X19458106Y-20754629D01*
X19096629Y-21116106D01*
X18901000Y-21588398D01*
X18901000Y-22018842D01*
X18490000Y-22429843D01*
X18490000Y-16718778D01*
X26051000Y-16718778D01*
X26051000Y-17369222D01*
X26299914Y-17970153D01*
X26759847Y-18430086D01*
X27360778Y-18679000D01*
X28011222Y-18679000D01*
X28612153Y-18430086D01*
X29072086Y-17970153D01*
X29321000Y-17369222D01*
X29321000Y-16718778D01*
X29072086Y-16117847D01*
X28612153Y-15657914D01*
X28011222Y-15409000D01*
X27360778Y-15409000D01*
X26759847Y-15657914D01*
X26299914Y-16117847D01*
X26051000Y-16718778D01*
X18490000Y-16718778D01*
X18490000Y-13410000D01*
X33981698Y-13410000D01*
X33771000Y-13918670D01*
G36*
X23944126Y-98935000D02*
X24190001Y-98935000D01*
X24190001Y-101835656D01*
X23992086Y-101357847D01*
X23532153Y-100897914D01*
X23409508Y-100847113D01*
X22606000Y-100043605D01*
X22591858Y-100057748D01*
X22412253Y-99878143D01*
X22426395Y-99864000D01*
X22412253Y-99849858D01*
X22591858Y-99670253D01*
X22606000Y-99684395D01*
X22620143Y-99670253D01*
X22799748Y-99849858D01*
X22785605Y-99864000D01*
X23686159Y-100764554D01*
X23942643Y-100678148D01*
X24152458Y-100104664D01*
X24126839Y-99494540D01*
X23942643Y-99049852D01*
X23686161Y-98963447D01*
X23781832Y-98867776D01*
X23944126Y-98935000D01*
X23944126Y-98935000D01*
G37*
X23944126Y-98935000D02*
X24190001Y-98935000D01*
X24190001Y-101835656D01*
X23992086Y-101357847D01*
X23532153Y-100897914D01*
X23409508Y-100847113D01*
X22606000Y-100043605D01*
X22591858Y-100057748D01*
X22412253Y-99878143D01*
X22426395Y-99864000D01*
X22412253Y-99849858D01*
X22591858Y-99670253D01*
X22606000Y-99684395D01*
X22620143Y-99670253D01*
X22799748Y-99849858D01*
X22785605Y-99864000D01*
X23686159Y-100764554D01*
X23942643Y-100678148D01*
X24152458Y-100104664D01*
X24126839Y-99494540D01*
X23942643Y-99049852D01*
X23686161Y-98963447D01*
X23781832Y-98867776D01*
X23944126Y-98935000D01*
G36*
X22799748Y-96717858D02*
X22785605Y-96732000D01*
X22799748Y-96746143D01*
X22620143Y-96925748D01*
X22606000Y-96911605D01*
X22591858Y-96925748D01*
X22412253Y-96746143D01*
X22426395Y-96732000D01*
X22412253Y-96717858D01*
X22591858Y-96538253D01*
X22606000Y-96552395D01*
X22620143Y-96538253D01*
X22799748Y-96717858D01*
X22799748Y-96717858D01*
G37*
X22799748Y-96717858D02*
X22785605Y-96732000D01*
X22799748Y-96746143D01*
X22620143Y-96925748D01*
X22606000Y-96911605D01*
X22591858Y-96925748D01*
X22412253Y-96746143D01*
X22426395Y-96732000D01*
X22412253Y-96717858D01*
X22591858Y-96538253D01*
X22606000Y-96552395D01*
X22620143Y-96538253D01*
X22799748Y-96717858D01*
G36*
X22799748Y-94297858D02*
X22785605Y-94312000D01*
X22799748Y-94326143D01*
X22620143Y-94505748D01*
X22606000Y-94491605D01*
X22591858Y-94505748D01*
X22412253Y-94326143D01*
X22426395Y-94312000D01*
X22412253Y-94297858D01*
X22591858Y-94118253D01*
X22606000Y-94132395D01*
X22620143Y-94118253D01*
X22799748Y-94297858D01*
X22799748Y-94297858D01*
G37*
X22799748Y-94297858D02*
X22785605Y-94312000D01*
X22799748Y-94326143D01*
X22620143Y-94505748D01*
X22606000Y-94491605D01*
X22591858Y-94505748D01*
X22412253Y-94326143D01*
X22426395Y-94312000D01*
X22412253Y-94297858D01*
X22591858Y-94118253D01*
X22606000Y-94132395D01*
X22620143Y-94118253D01*
X22799748Y-94297858D01*
G36*
X35919051Y-67417238D02*
X35627900Y-67708389D01*
X35470331Y-68088795D01*
X35470331Y-68500543D01*
X35627900Y-68880949D01*
X35919051Y-69172100D01*
X36299457Y-69329669D01*
X36442714Y-69329669D01*
X36599038Y-69434122D01*
X36828014Y-69479668D01*
X36828017Y-69479668D01*
X36905329Y-69495046D01*
X36930001Y-69490138D01*
X38590273Y-71150411D01*
X38634067Y-71215953D01*
X38699609Y-71259747D01*
X38699611Y-71259749D01*
X38893728Y-71389454D01*
X39122704Y-71435000D01*
X39122707Y-71435000D01*
X39200019Y-71450378D01*
X39277331Y-71435000D01*
X45974843Y-71435000D01*
X48212350Y-73672507D01*
X47732454Y-73871286D01*
X47351286Y-74252454D01*
X47145000Y-74750474D01*
X47145000Y-75289526D01*
X47238394Y-75515000D01*
X46994126Y-75515000D01*
X46613720Y-75672569D01*
X46322569Y-75963720D01*
X46165000Y-76344126D01*
X46165000Y-76474842D01*
X43528051Y-79111791D01*
X43267546Y-78851286D01*
X42974735Y-78730000D01*
X43267546Y-78608714D01*
X43648714Y-78227546D01*
X43855000Y-77729526D01*
X43855000Y-77215157D01*
X46535157Y-74535000D01*
X46655874Y-74535000D01*
X47036280Y-74377431D01*
X47327431Y-74086280D01*
X47485000Y-73705874D01*
X47485000Y-73294126D01*
X47327431Y-72913720D01*
X47036280Y-72622569D01*
X46655874Y-72465000D01*
X46244126Y-72465000D01*
X45863720Y-72622569D01*
X45572569Y-72913720D01*
X45415000Y-73294126D01*
X45415000Y-73434843D01*
X43855000Y-74994843D01*
X43855000Y-74650474D01*
X43648714Y-74152454D01*
X43267546Y-73771286D01*
X42769526Y-73565000D01*
X42230474Y-73565000D01*
X41732454Y-73771286D01*
X41351286Y-74152454D01*
X41145000Y-74650474D01*
X41145000Y-75189526D01*
X41351286Y-75687546D01*
X41715000Y-76051260D01*
X41715001Y-76328739D01*
X41351286Y-76692454D01*
X41145000Y-77190474D01*
X41145000Y-77729526D01*
X41351286Y-78227546D01*
X41732454Y-78608714D01*
X42025265Y-78730000D01*
X41732454Y-78851286D01*
X41351286Y-79232454D01*
X41145000Y-79730474D01*
X41145000Y-80269526D01*
X41151410Y-80285001D01*
X40470158Y-80285001D01*
X37560000Y-77374843D01*
X37560000Y-77244126D01*
X37402431Y-76863720D01*
X37111280Y-76572569D01*
X36730874Y-76415000D01*
X36319126Y-76415000D01*
X35938720Y-76572569D01*
X35647569Y-76863720D01*
X35490000Y-77244126D01*
X35490000Y-77655874D01*
X35647569Y-78036280D01*
X35938720Y-78327431D01*
X36319126Y-78485000D01*
X36449843Y-78485000D01*
X39535252Y-81570409D01*
X39579048Y-81635954D01*
X39838709Y-81809455D01*
X40067685Y-81855001D01*
X40067689Y-81855001D01*
X40145001Y-81870379D01*
X40222313Y-81855001D01*
X44912687Y-81855001D01*
X44989999Y-81870379D01*
X45067311Y-81855001D01*
X45067315Y-81855001D01*
X45296291Y-81809455D01*
X45555952Y-81635954D01*
X45599748Y-81570409D01*
X47145000Y-80025157D01*
X47145000Y-80369526D01*
X47351286Y-80867546D01*
X47540001Y-81056261D01*
X47540000Y-83265000D01*
X34803711Y-83265000D01*
X34761280Y-83222569D01*
X34380874Y-83065000D01*
X33969126Y-83065000D01*
X33588720Y-83222569D01*
X33297569Y-83513720D01*
X33296448Y-83516426D01*
X32930874Y-83365000D01*
X32519126Y-83365000D01*
X32138720Y-83522569D01*
X31847569Y-83813720D01*
X31690000Y-84194126D01*
X31690000Y-84605874D01*
X31714960Y-84666134D01*
X31560000Y-84821094D01*
X31560000Y-76447377D01*
X31769126Y-76534000D01*
X32180874Y-76534000D01*
X32561280Y-76376431D01*
X32852431Y-76085280D01*
X33010000Y-75704874D01*
X33010000Y-75293126D01*
X32910000Y-75051704D01*
X32910000Y-67548377D01*
X33119126Y-67635000D01*
X33530874Y-67635000D01*
X33911280Y-67477431D01*
X34003711Y-67385000D01*
X35996881Y-67385000D01*
X35919051Y-67417238D01*
X35919051Y-67417238D01*
G37*
X35919051Y-67417238D02*
X35627900Y-67708389D01*
X35470331Y-68088795D01*
X35470331Y-68500543D01*
X35627900Y-68880949D01*
X35919051Y-69172100D01*
X36299457Y-69329669D01*
X36442714Y-69329669D01*
X36599038Y-69434122D01*
X36828014Y-69479668D01*
X36828017Y-69479668D01*
X36905329Y-69495046D01*
X36930001Y-69490138D01*
X38590273Y-71150411D01*
X38634067Y-71215953D01*
X38699609Y-71259747D01*
X38699611Y-71259749D01*
X38893728Y-71389454D01*
X39122704Y-71435000D01*
X39122707Y-71435000D01*
X39200019Y-71450378D01*
X39277331Y-71435000D01*
X45974843Y-71435000D01*
X48212350Y-73672507D01*
X47732454Y-73871286D01*
X47351286Y-74252454D01*
X47145000Y-74750474D01*
X47145000Y-75289526D01*
X47238394Y-75515000D01*
X46994126Y-75515000D01*
X46613720Y-75672569D01*
X46322569Y-75963720D01*
X46165000Y-76344126D01*
X46165000Y-76474842D01*
X43528051Y-79111791D01*
X43267546Y-78851286D01*
X42974735Y-78730000D01*
X43267546Y-78608714D01*
X43648714Y-78227546D01*
X43855000Y-77729526D01*
X43855000Y-77215157D01*
X46535157Y-74535000D01*
X46655874Y-74535000D01*
X47036280Y-74377431D01*
X47327431Y-74086280D01*
X47485000Y-73705874D01*
X47485000Y-73294126D01*
X47327431Y-72913720D01*
X47036280Y-72622569D01*
X46655874Y-72465000D01*
X46244126Y-72465000D01*
X45863720Y-72622569D01*
X45572569Y-72913720D01*
X45415000Y-73294126D01*
X45415000Y-73434843D01*
X43855000Y-74994843D01*
X43855000Y-74650474D01*
X43648714Y-74152454D01*
X43267546Y-73771286D01*
X42769526Y-73565000D01*
X42230474Y-73565000D01*
X41732454Y-73771286D01*
X41351286Y-74152454D01*
X41145000Y-74650474D01*
X41145000Y-75189526D01*
X41351286Y-75687546D01*
X41715000Y-76051260D01*
X41715001Y-76328739D01*
X41351286Y-76692454D01*
X41145000Y-77190474D01*
X41145000Y-77729526D01*
X41351286Y-78227546D01*
X41732454Y-78608714D01*
X42025265Y-78730000D01*
X41732454Y-78851286D01*
X41351286Y-79232454D01*
X41145000Y-79730474D01*
X41145000Y-80269526D01*
X41151410Y-80285001D01*
X40470158Y-80285001D01*
X37560000Y-77374843D01*
X37560000Y-77244126D01*
X37402431Y-76863720D01*
X37111280Y-76572569D01*
X36730874Y-76415000D01*
X36319126Y-76415000D01*
X35938720Y-76572569D01*
X35647569Y-76863720D01*
X35490000Y-77244126D01*
X35490000Y-77655874D01*
X35647569Y-78036280D01*
X35938720Y-78327431D01*
X36319126Y-78485000D01*
X36449843Y-78485000D01*
X39535252Y-81570409D01*
X39579048Y-81635954D01*
X39838709Y-81809455D01*
X40067685Y-81855001D01*
X40067689Y-81855001D01*
X40145001Y-81870379D01*
X40222313Y-81855001D01*
X44912687Y-81855001D01*
X44989999Y-81870379D01*
X45067311Y-81855001D01*
X45067315Y-81855001D01*
X45296291Y-81809455D01*
X45555952Y-81635954D01*
X45599748Y-81570409D01*
X47145000Y-80025157D01*
X47145000Y-80369526D01*
X47351286Y-80867546D01*
X47540001Y-81056261D01*
X47540000Y-83265000D01*
X34803711Y-83265000D01*
X34761280Y-83222569D01*
X34380874Y-83065000D01*
X33969126Y-83065000D01*
X33588720Y-83222569D01*
X33297569Y-83513720D01*
X33296448Y-83516426D01*
X32930874Y-83365000D01*
X32519126Y-83365000D01*
X32138720Y-83522569D01*
X31847569Y-83813720D01*
X31690000Y-84194126D01*
X31690000Y-84605874D01*
X31714960Y-84666134D01*
X31560000Y-84821094D01*
X31560000Y-76447377D01*
X31769126Y-76534000D01*
X32180874Y-76534000D01*
X32561280Y-76376431D01*
X32852431Y-76085280D01*
X33010000Y-75704874D01*
X33010000Y-75293126D01*
X32910000Y-75051704D01*
X32910000Y-67548377D01*
X33119126Y-67635000D01*
X33530874Y-67635000D01*
X33911280Y-67477431D01*
X34003711Y-67385000D01*
X35996881Y-67385000D01*
X35919051Y-67417238D01*
M02*
