M48
;DRILL file {KiCad (5.0.1)-3} date 22/04/2020 23:17:15
;FORMAT={-:-/ absolute / inch / decimal}
FMAT,2
INCH,TZ
T1C0.0157
T2C0.0295
T3C0.0315
T4C0.0354
T5C0.0394
T6C0.0400
T7C0.0433
T8C0.0551
T9C0.0709
%
G90
G05
M72
T1
X0.7463Y-2.8996
X0.7657Y-3.3238
X0.7953Y-2.626
X0.8425Y-2.3346
X0.873Y-4.2844
X0.9154Y-3.0242
X0.9301Y-2.2843
X0.9301Y-2.9616
X0.9321Y-2.3386
X0.9331Y-2.2392
X0.9498Y-1.185
X0.9508Y-3.8543
X0.9656Y-2.0079
X0.9781Y-1.9282
X0.9803Y-1.9675
X0.9833Y-2.5069
X0.9843Y-4.0984
X0.9931Y-0.9213
X1.0157Y-1.7608
X1.0305Y-2.2343
X1.0354Y-3.0846
X1.0364Y-0.7835
X1.0404Y-2.7352
X1.0463Y-3.5866
X1.0512Y-1.7943
X1.0896Y-2.6447
X1.123Y-2.5
X1.1319Y-3.0817
X1.1506Y-2.2362
X1.1535Y-2.7844
X1.1555Y-2.4744
X1.1628Y-1.9094
X1.1949Y-1.6811
X1.2116Y-2.5315
X1.2156Y-3.4872
X1.2549Y-3.2215
X1.2569Y-3.0413
X1.2589Y-2.3533
X1.2589Y-2.9724
X1.2884Y-3.3228
X1.312Y-2.622
X1.3455Y-3.311
X1.3612Y-3.5404
X1.373Y-3.6693
X1.4189Y-2.247
X1.4372Y-2.6888
X1.438Y-3.0492
X1.439Y-2.3455
X1.4498Y-2.9222
X1.4528Y-3.5276
X1.4626Y-3.4852
X1.4911Y-1.4528
X1.4921Y-3.5974
X1.498Y-1.9094
X1.5026Y-1.4904
X1.5197Y-3.7215
X1.5217Y-3.3789
X1.5482Y-4.3632
X1.5492Y-4.2766
X1.5758Y-4.1378
X1.6604Y-2.874
X1.7057Y-1.7608
X1.7109Y-1.4831
X1.7205Y-1.4449
X1.7441Y-1.5089
X1.7618Y-3.5256
X1.7884Y-1.7096
X1.8268Y-1.25
X1.8287Y-2.8937
X1.8327Y-3.6004
X1.8415Y-1.6033
X1.8415Y-3.4872
X1.8583Y-3.0138
X1.9094Y-1.9685
X1.9331Y-2.003
X1.9537Y-2.7569
X1.9543Y-1.4978
X1.9557Y-0.7175
X2.0023Y-1.8058
X2.0463Y-1.3583
X2.0531Y-1.1112
X2.0551Y-1.2657
X2.0669Y-1.8514
X2.124Y-1.9774
X2.1663Y-1.3012
X2.1841Y-4.1476
X2.2395Y-1.3029
T2
X1.44Y-3.88
X1.49Y-3.88
X1.54Y-3.88
T3
X1.9094Y-2.9535
X1.9094Y-3.0535
X1.9094Y-3.1535
X2.122Y-1.6929
X2.122Y-1.7913
X1.3504Y-1.6772
X1.3504Y-1.7756
X1.8465Y-3.8622
X1.9252Y-3.8622
X1.6732Y-2.5165
X1.6732Y-2.6165
X1.6732Y-2.7165
X1.6732Y-2.9496
X1.6732Y-3.0496
X1.6732Y-3.1496
X2.1506Y-2.9575
X2.1506Y-3.0575
X2.1506Y-3.1575
T4
X2.17Y-0.56
X2.17Y-0.66
X1.34Y-1.41
X1.44Y-1.41
X1.39Y-0.56
X1.39Y-0.66
X2.1683Y-1.3691
X2.1683Y-1.4691
T5
X1.6024Y-2.311
X1.7992Y-2.311
X0.7947Y-1.5716
X0.7947Y-1.67
X0.7947Y-1.7684
X1.5984Y-2.1732
X1.7953Y-2.1732
X1.5747Y-1.5716
X1.5747Y-1.67
X1.5747Y-1.7684
X0.7947Y-0.7616
X0.7947Y-0.86
X0.7947Y-0.9584
X1.5747Y-0.7616
X1.5747Y-0.86
X1.5747Y-0.9584
T6
X2.0118Y-2.1394
X2.0118Y-2.2394
X2.0118Y-2.3394
X2.0118Y-2.4394
X2.0118Y-2.5394
X2.1118Y-2.1394
X2.1118Y-2.2394
X2.1118Y-2.3394
X2.1118Y-2.4394
X2.1118Y-2.5394
T7
X2.08Y-3.8083
X1.2867Y-3.9317
X2.08Y-3.9317
X0.89Y-3.9317
X0.89Y-3.8083
X2.17Y-0.82
X2.17Y-1.22
X1.2867Y-3.8083
X1.6833Y-3.8083
X0.79Y-1.19
X1.19Y-1.19
X1.6833Y-3.9317
T8
X1.6833Y-4.0269
X1.6833Y-4.3537
X2.08Y-3.3863
X2.08Y-3.7131
X1.2867Y-4.0269
X1.2867Y-4.3537
X2.08Y-4.0269
X2.08Y-4.3537
X0.89Y-4.0269
X0.89Y-4.3537
X0.89Y-3.3863
X0.89Y-3.7131
X1.2867Y-3.3863
X1.2867Y-3.7131
X1.6833Y-3.3863
X1.6833Y-3.7131
T9
X1.87Y-1.481
X1.87Y-1.859
X1.09Y-0.671
X1.09Y-1.049
X1.87Y-0.671
X1.87Y-1.049
X1.09Y-1.481
X1.09Y-1.859
T0
M30
