%TF.GenerationSoftware,KiCad,Pcbnew,(5.0.1)-3*%
%TF.CreationDate,2020-04-22T23:17:11+01:00*%
%TF.ProjectId,board,626F6172642E6B696361645F70636200,rev?*%
%TF.SameCoordinates,Original*%
%TF.FileFunction,Soldermask,Top*%
%TF.FilePolarity,Negative*%
%FSLAX46Y46*%
G04 Gerber Fmt 4.6, Leading zero omitted, Abs format (unit mm)*
G04 Created by KiCad (PCBNEW (5.0.1)-3) date 22/04/2020 23:17:11*
%MOMM*%
%LPD*%
G01*
G04 APERTURE LIST*
%ADD10C,0.400000*%
G04 APERTURE END LIST*
D10*
G36*
X53138565Y-109573389D02*
X53329834Y-109652615D01*
X53501976Y-109767637D01*
X53648363Y-109914024D01*
X53763385Y-110086166D01*
X53842611Y-110277435D01*
X53883000Y-110480484D01*
X53883000Y-110687516D01*
X53842611Y-110890565D01*
X53763385Y-111081834D01*
X53648363Y-111253976D01*
X53501976Y-111400363D01*
X53329834Y-111515385D01*
X53138565Y-111594611D01*
X52935516Y-111635000D01*
X52728484Y-111635000D01*
X52525435Y-111594611D01*
X52334166Y-111515385D01*
X52162024Y-111400363D01*
X52015637Y-111253976D01*
X51900615Y-111081834D01*
X51821389Y-110890565D01*
X51781000Y-110687516D01*
X51781000Y-110480484D01*
X51821389Y-110277435D01*
X51900615Y-110086166D01*
X52015637Y-109914024D01*
X52162024Y-109767637D01*
X52334166Y-109652615D01*
X52525435Y-109573389D01*
X52728484Y-109533000D01*
X52935516Y-109533000D01*
X53138565Y-109573389D01*
X53138565Y-109573389D01*
G37*
G36*
X43063231Y-109573389D02*
X43254500Y-109652615D01*
X43426642Y-109767637D01*
X43573029Y-109914024D01*
X43688051Y-110086166D01*
X43767277Y-110277435D01*
X43807666Y-110480484D01*
X43807666Y-110687516D01*
X43767277Y-110890565D01*
X43688051Y-111081834D01*
X43573029Y-111253976D01*
X43426642Y-111400363D01*
X43254500Y-111515385D01*
X43063231Y-111594611D01*
X42860182Y-111635000D01*
X42653150Y-111635000D01*
X42450101Y-111594611D01*
X42258832Y-111515385D01*
X42086690Y-111400363D01*
X41940303Y-111253976D01*
X41825281Y-111081834D01*
X41746055Y-110890565D01*
X41705666Y-110687516D01*
X41705666Y-110480484D01*
X41746055Y-110277435D01*
X41825281Y-110086166D01*
X41940303Y-109914024D01*
X42086690Y-109767637D01*
X42258832Y-109652615D01*
X42450101Y-109573389D01*
X42653150Y-109533000D01*
X42860182Y-109533000D01*
X43063231Y-109573389D01*
X43063231Y-109573389D01*
G37*
G36*
X22912565Y-109573389D02*
X23103834Y-109652615D01*
X23275976Y-109767637D01*
X23422363Y-109914024D01*
X23537385Y-110086166D01*
X23616611Y-110277435D01*
X23657000Y-110480484D01*
X23657000Y-110687516D01*
X23616611Y-110890565D01*
X23537385Y-111081834D01*
X23422363Y-111253976D01*
X23275976Y-111400363D01*
X23103834Y-111515385D01*
X22912565Y-111594611D01*
X22709516Y-111635000D01*
X22502484Y-111635000D01*
X22299435Y-111594611D01*
X22108166Y-111515385D01*
X21936024Y-111400363D01*
X21789637Y-111253976D01*
X21674615Y-111081834D01*
X21595389Y-110890565D01*
X21555000Y-110687516D01*
X21555000Y-110480484D01*
X21595389Y-110277435D01*
X21674615Y-110086166D01*
X21789637Y-109914024D01*
X21936024Y-109767637D01*
X22108166Y-109652615D01*
X22299435Y-109573389D01*
X22502484Y-109533000D01*
X22709516Y-109533000D01*
X22912565Y-109573389D01*
X22912565Y-109573389D01*
G37*
G36*
X32987898Y-109573389D02*
X33179167Y-109652615D01*
X33351309Y-109767637D01*
X33497696Y-109914024D01*
X33612718Y-110086166D01*
X33691944Y-110277435D01*
X33732333Y-110480484D01*
X33732333Y-110687516D01*
X33691944Y-110890565D01*
X33612718Y-111081834D01*
X33497696Y-111253976D01*
X33351309Y-111400363D01*
X33179167Y-111515385D01*
X32987898Y-111594611D01*
X32784849Y-111635000D01*
X32577817Y-111635000D01*
X32374768Y-111594611D01*
X32183499Y-111515385D01*
X32011357Y-111400363D01*
X31864970Y-111253976D01*
X31749948Y-111081834D01*
X31670722Y-110890565D01*
X31630333Y-110687516D01*
X31630333Y-110480484D01*
X31670722Y-110277435D01*
X31749948Y-110086166D01*
X31864970Y-109914024D01*
X32011357Y-109767637D01*
X32183499Y-109652615D01*
X32374768Y-109573389D01*
X32577817Y-109533000D01*
X32784849Y-109533000D01*
X32987898Y-109573389D01*
X32987898Y-109573389D01*
G37*
G36*
X22912565Y-101273389D02*
X23103834Y-101352615D01*
X23275976Y-101467637D01*
X23422363Y-101614024D01*
X23537385Y-101786166D01*
X23616611Y-101977435D01*
X23657000Y-102180484D01*
X23657000Y-102387516D01*
X23616611Y-102590565D01*
X23537385Y-102781834D01*
X23422363Y-102953976D01*
X23275976Y-103100363D01*
X23103834Y-103215385D01*
X22912565Y-103294611D01*
X22709516Y-103335000D01*
X22502484Y-103335000D01*
X22299435Y-103294611D01*
X22108166Y-103215385D01*
X21936024Y-103100363D01*
X21789637Y-102953976D01*
X21674615Y-102781834D01*
X21595389Y-102590565D01*
X21555000Y-102387516D01*
X21555000Y-102180484D01*
X21595389Y-101977435D01*
X21674615Y-101786166D01*
X21789637Y-101614024D01*
X21936024Y-101467637D01*
X22108166Y-101352615D01*
X22299435Y-101273389D01*
X22502484Y-101233000D01*
X22709516Y-101233000D01*
X22912565Y-101273389D01*
X22912565Y-101273389D01*
G37*
G36*
X43063231Y-101273389D02*
X43254500Y-101352615D01*
X43426642Y-101467637D01*
X43573029Y-101614024D01*
X43688051Y-101786166D01*
X43767277Y-101977435D01*
X43807666Y-102180484D01*
X43807666Y-102387516D01*
X43767277Y-102590565D01*
X43688051Y-102781834D01*
X43573029Y-102953976D01*
X43426642Y-103100363D01*
X43254500Y-103215385D01*
X43063231Y-103294611D01*
X42860182Y-103335000D01*
X42653150Y-103335000D01*
X42450101Y-103294611D01*
X42258832Y-103215385D01*
X42086690Y-103100363D01*
X41940303Y-102953976D01*
X41825281Y-102781834D01*
X41746055Y-102590565D01*
X41705666Y-102387516D01*
X41705666Y-102180484D01*
X41746055Y-101977435D01*
X41825281Y-101786166D01*
X41940303Y-101614024D01*
X42086690Y-101467637D01*
X42258832Y-101352615D01*
X42450101Y-101273389D01*
X42653150Y-101233000D01*
X42860182Y-101233000D01*
X43063231Y-101273389D01*
X43063231Y-101273389D01*
G37*
G36*
X53138565Y-101273389D02*
X53329834Y-101352615D01*
X53501976Y-101467637D01*
X53648363Y-101614024D01*
X53763385Y-101786166D01*
X53842611Y-101977435D01*
X53883000Y-102180484D01*
X53883000Y-102387516D01*
X53842611Y-102590565D01*
X53763385Y-102781834D01*
X53648363Y-102953976D01*
X53501976Y-103100363D01*
X53329834Y-103215385D01*
X53138565Y-103294611D01*
X52935516Y-103335000D01*
X52728484Y-103335000D01*
X52525435Y-103294611D01*
X52334166Y-103215385D01*
X52162024Y-103100363D01*
X52015637Y-102953976D01*
X51900615Y-102781834D01*
X51821389Y-102590565D01*
X51781000Y-102387516D01*
X51781000Y-102180484D01*
X51821389Y-101977435D01*
X51900615Y-101786166D01*
X52015637Y-101614024D01*
X52162024Y-101467637D01*
X52334166Y-101352615D01*
X52525435Y-101273389D01*
X52728484Y-101233000D01*
X52935516Y-101233000D01*
X53138565Y-101273389D01*
X53138565Y-101273389D01*
G37*
G36*
X32987898Y-101273389D02*
X33179167Y-101352615D01*
X33351309Y-101467637D01*
X33497696Y-101614024D01*
X33612718Y-101786166D01*
X33691944Y-101977435D01*
X33732333Y-102180484D01*
X33732333Y-102387516D01*
X33691944Y-102590565D01*
X33612718Y-102781834D01*
X33497696Y-102953976D01*
X33351309Y-103100363D01*
X33179167Y-103215385D01*
X32987898Y-103294611D01*
X32784849Y-103335000D01*
X32577817Y-103335000D01*
X32374768Y-103294611D01*
X32183499Y-103215385D01*
X32011357Y-103100363D01*
X31864970Y-102953976D01*
X31749948Y-102781834D01*
X31670722Y-102590565D01*
X31630333Y-102387516D01*
X31630333Y-102180484D01*
X31670722Y-101977435D01*
X31749948Y-101786166D01*
X31864970Y-101614024D01*
X32011357Y-101467637D01*
X32183499Y-101352615D01*
X32374768Y-101273389D01*
X32577817Y-101233000D01*
X32784849Y-101233000D01*
X32987898Y-101273389D01*
X32987898Y-101273389D01*
G37*
G36*
X43034062Y-98949546D02*
X43207132Y-99021234D01*
X43362896Y-99125312D01*
X43495354Y-99257770D01*
X43599432Y-99413534D01*
X43671120Y-99586604D01*
X43707666Y-99770333D01*
X43707666Y-99957667D01*
X43671120Y-100141396D01*
X43599432Y-100314466D01*
X43495354Y-100470230D01*
X43362896Y-100602688D01*
X43207132Y-100706766D01*
X43034062Y-100778454D01*
X42850333Y-100815000D01*
X42662999Y-100815000D01*
X42479270Y-100778454D01*
X42306200Y-100706766D01*
X42150436Y-100602688D01*
X42017978Y-100470230D01*
X41913900Y-100314466D01*
X41842212Y-100141396D01*
X41805666Y-99957667D01*
X41805666Y-99770333D01*
X41842212Y-99586604D01*
X41913900Y-99413534D01*
X42017978Y-99257770D01*
X42150436Y-99125312D01*
X42306200Y-99021234D01*
X42479270Y-98949546D01*
X42662999Y-98913000D01*
X42850333Y-98913000D01*
X43034062Y-98949546D01*
X43034062Y-98949546D01*
G37*
G36*
X53109396Y-98949546D02*
X53282466Y-99021234D01*
X53438230Y-99125312D01*
X53570688Y-99257770D01*
X53674766Y-99413534D01*
X53746454Y-99586604D01*
X53783000Y-99770333D01*
X53783000Y-99957667D01*
X53746454Y-100141396D01*
X53674766Y-100314466D01*
X53570688Y-100470230D01*
X53438230Y-100602688D01*
X53282466Y-100706766D01*
X53109396Y-100778454D01*
X52925667Y-100815000D01*
X52738333Y-100815000D01*
X52554604Y-100778454D01*
X52381534Y-100706766D01*
X52225770Y-100602688D01*
X52093312Y-100470230D01*
X51989234Y-100314466D01*
X51917546Y-100141396D01*
X51881000Y-99957667D01*
X51881000Y-99770333D01*
X51917546Y-99586604D01*
X51989234Y-99413534D01*
X52093312Y-99257770D01*
X52225770Y-99125312D01*
X52381534Y-99021234D01*
X52554604Y-98949546D01*
X52738333Y-98913000D01*
X52925667Y-98913000D01*
X53109396Y-98949546D01*
X53109396Y-98949546D01*
G37*
G36*
X32958729Y-98949546D02*
X33131799Y-99021234D01*
X33287563Y-99125312D01*
X33420021Y-99257770D01*
X33524099Y-99413534D01*
X33595787Y-99586604D01*
X33632333Y-99770333D01*
X33632333Y-99957667D01*
X33595787Y-100141396D01*
X33524099Y-100314466D01*
X33420021Y-100470230D01*
X33287563Y-100602688D01*
X33131799Y-100706766D01*
X32958729Y-100778454D01*
X32775000Y-100815000D01*
X32587666Y-100815000D01*
X32403937Y-100778454D01*
X32230867Y-100706766D01*
X32075103Y-100602688D01*
X31942645Y-100470230D01*
X31838567Y-100314466D01*
X31766879Y-100141396D01*
X31730333Y-99957667D01*
X31730333Y-99770333D01*
X31766879Y-99586604D01*
X31838567Y-99413534D01*
X31942645Y-99257770D01*
X32075103Y-99125312D01*
X32230867Y-99021234D01*
X32403937Y-98949546D01*
X32587666Y-98913000D01*
X32775000Y-98913000D01*
X32958729Y-98949546D01*
X32958729Y-98949546D01*
G37*
G36*
X22883396Y-98949546D02*
X23056466Y-99021234D01*
X23212230Y-99125312D01*
X23344688Y-99257770D01*
X23448766Y-99413534D01*
X23520454Y-99586604D01*
X23557000Y-99770333D01*
X23557000Y-99957667D01*
X23520454Y-100141396D01*
X23448766Y-100314466D01*
X23344688Y-100470230D01*
X23212230Y-100602688D01*
X23056466Y-100706766D01*
X22883396Y-100778454D01*
X22699667Y-100815000D01*
X22512333Y-100815000D01*
X22328604Y-100778454D01*
X22155534Y-100706766D01*
X21999770Y-100602688D01*
X21867312Y-100470230D01*
X21763234Y-100314466D01*
X21691546Y-100141396D01*
X21655000Y-99957667D01*
X21655000Y-99770333D01*
X21691546Y-99586604D01*
X21763234Y-99413534D01*
X21867312Y-99257770D01*
X21999770Y-99125312D01*
X22155534Y-99021234D01*
X22328604Y-98949546D01*
X22512333Y-98913000D01*
X22699667Y-98913000D01*
X22883396Y-98949546D01*
X22883396Y-98949546D01*
G37*
G36*
X37958916Y-97759334D02*
X38067492Y-97792271D01*
X38167557Y-97845756D01*
X38255264Y-97917736D01*
X38318374Y-97994635D01*
X38335701Y-98011962D01*
X38356076Y-98025576D01*
X38378715Y-98034954D01*
X38402748Y-98039734D01*
X38427252Y-98039734D01*
X38451286Y-98034953D01*
X38473925Y-98025576D01*
X38494299Y-98011962D01*
X38511626Y-97994635D01*
X38525240Y-97974260D01*
X38534618Y-97951621D01*
X38540000Y-97915336D01*
X38540000Y-97751000D01*
X39692000Y-97751000D01*
X39692000Y-99353000D01*
X38540000Y-99353000D01*
X38540000Y-99188663D01*
X38537598Y-99164277D01*
X38530485Y-99140828D01*
X38518934Y-99119217D01*
X38503388Y-99100275D01*
X38484446Y-99084729D01*
X38462835Y-99073178D01*
X38439386Y-99066065D01*
X38415000Y-99063663D01*
X38390614Y-99066065D01*
X38367165Y-99073178D01*
X38345554Y-99084729D01*
X38318377Y-99109361D01*
X38255264Y-99186264D01*
X38167556Y-99258244D01*
X38067491Y-99311729D01*
X37958915Y-99344666D01*
X37846000Y-99355787D01*
X37733084Y-99344666D01*
X37624508Y-99311729D01*
X37524443Y-99258244D01*
X37436736Y-99186264D01*
X37364756Y-99098556D01*
X37321240Y-99017142D01*
X37307627Y-98996767D01*
X37290299Y-98979440D01*
X37269925Y-98965826D01*
X37247286Y-98956449D01*
X37223253Y-98951668D01*
X37198748Y-98951668D01*
X37174715Y-98956448D01*
X37152076Y-98965826D01*
X37131701Y-98979439D01*
X37114374Y-98996767D01*
X37100767Y-99017131D01*
X37057244Y-99098557D01*
X36985264Y-99186264D01*
X36897556Y-99258244D01*
X36797491Y-99311729D01*
X36688915Y-99344666D01*
X36576000Y-99355787D01*
X36463084Y-99344666D01*
X36354508Y-99311729D01*
X36254443Y-99258244D01*
X36166736Y-99186264D01*
X36094756Y-99098556D01*
X36041271Y-98998491D01*
X36008334Y-98889915D01*
X36000000Y-98805297D01*
X36000000Y-98298702D01*
X36008334Y-98214084D01*
X36041271Y-98105508D01*
X36078983Y-98034954D01*
X36094755Y-98005446D01*
X36120349Y-97974260D01*
X36166737Y-97917736D01*
X36254444Y-97845756D01*
X36354509Y-97792271D01*
X36463085Y-97759334D01*
X36576000Y-97748213D01*
X36688916Y-97759334D01*
X36797492Y-97792271D01*
X36897557Y-97845756D01*
X36985264Y-97917736D01*
X37057244Y-98005443D01*
X37100760Y-98086857D01*
X37114373Y-98107232D01*
X37131701Y-98124559D01*
X37152075Y-98138173D01*
X37174714Y-98147550D01*
X37198747Y-98152331D01*
X37223252Y-98152331D01*
X37247285Y-98147551D01*
X37269924Y-98138173D01*
X37290299Y-98124560D01*
X37307626Y-98107232D01*
X37321240Y-98086857D01*
X37364755Y-98005446D01*
X37390349Y-97974260D01*
X37436737Y-97917736D01*
X37524444Y-97845756D01*
X37624509Y-97792271D01*
X37733085Y-97759334D01*
X37846000Y-97748213D01*
X37958916Y-97759334D01*
X37958916Y-97759334D01*
G37*
G36*
X49148228Y-97281703D02*
X49303100Y-97345853D01*
X49442481Y-97438985D01*
X49561015Y-97557519D01*
X49654147Y-97696900D01*
X49718297Y-97851772D01*
X49751000Y-98016184D01*
X49751000Y-98183816D01*
X49718297Y-98348228D01*
X49654147Y-98503100D01*
X49561015Y-98642481D01*
X49442481Y-98761015D01*
X49303100Y-98854147D01*
X49148228Y-98918297D01*
X48983816Y-98951000D01*
X48816184Y-98951000D01*
X48651772Y-98918297D01*
X48496900Y-98854147D01*
X48357519Y-98761015D01*
X48238985Y-98642481D01*
X48145853Y-98503100D01*
X48081703Y-98348228D01*
X48049000Y-98183816D01*
X48049000Y-98016184D01*
X48081703Y-97851772D01*
X48145853Y-97696900D01*
X48238985Y-97557519D01*
X48357519Y-97438985D01*
X48496900Y-97345853D01*
X48651772Y-97281703D01*
X48816184Y-97249000D01*
X48983816Y-97249000D01*
X49148228Y-97281703D01*
X49148228Y-97281703D01*
G37*
G36*
X47751000Y-98951000D02*
X46049000Y-98951000D01*
X46049000Y-97249000D01*
X47751000Y-97249000D01*
X47751000Y-98951000D01*
X47751000Y-98951000D01*
G37*
G36*
X53109396Y-95817546D02*
X53282466Y-95889234D01*
X53438230Y-95993312D01*
X53570688Y-96125770D01*
X53674766Y-96281534D01*
X53746454Y-96454604D01*
X53783000Y-96638333D01*
X53783000Y-96825667D01*
X53746454Y-97009396D01*
X53674766Y-97182466D01*
X53570688Y-97338230D01*
X53438230Y-97470688D01*
X53282466Y-97574766D01*
X53109396Y-97646454D01*
X52925667Y-97683000D01*
X52738333Y-97683000D01*
X52554604Y-97646454D01*
X52381534Y-97574766D01*
X52225770Y-97470688D01*
X52093312Y-97338230D01*
X51989234Y-97182466D01*
X51917546Y-97009396D01*
X51881000Y-96825667D01*
X51881000Y-96638333D01*
X51917546Y-96454604D01*
X51989234Y-96281534D01*
X52093312Y-96125770D01*
X52225770Y-95993312D01*
X52381534Y-95889234D01*
X52554604Y-95817546D01*
X52738333Y-95781000D01*
X52925667Y-95781000D01*
X53109396Y-95817546D01*
X53109396Y-95817546D01*
G37*
G36*
X32958729Y-95817546D02*
X33131799Y-95889234D01*
X33287563Y-95993312D01*
X33420021Y-96125770D01*
X33524099Y-96281534D01*
X33595787Y-96454604D01*
X33632333Y-96638333D01*
X33632333Y-96825667D01*
X33595787Y-97009396D01*
X33524099Y-97182466D01*
X33420021Y-97338230D01*
X33287563Y-97470688D01*
X33131799Y-97574766D01*
X32958729Y-97646454D01*
X32775000Y-97683000D01*
X32587666Y-97683000D01*
X32403937Y-97646454D01*
X32230867Y-97574766D01*
X32075103Y-97470688D01*
X31942645Y-97338230D01*
X31838567Y-97182466D01*
X31766879Y-97009396D01*
X31730333Y-96825667D01*
X31730333Y-96638333D01*
X31766879Y-96454604D01*
X31838567Y-96281534D01*
X31942645Y-96125770D01*
X32075103Y-95993312D01*
X32230867Y-95889234D01*
X32403937Y-95817546D01*
X32587666Y-95781000D01*
X32775000Y-95781000D01*
X32958729Y-95817546D01*
X32958729Y-95817546D01*
G37*
G36*
X22883396Y-95817546D02*
X23056466Y-95889234D01*
X23212230Y-95993312D01*
X23344688Y-96125770D01*
X23448766Y-96281534D01*
X23520454Y-96454604D01*
X23557000Y-96638333D01*
X23557000Y-96825667D01*
X23520454Y-97009396D01*
X23448766Y-97182466D01*
X23344688Y-97338230D01*
X23212230Y-97470688D01*
X23056466Y-97574766D01*
X22883396Y-97646454D01*
X22699667Y-97683000D01*
X22512333Y-97683000D01*
X22328604Y-97646454D01*
X22155534Y-97574766D01*
X21999770Y-97470688D01*
X21867312Y-97338230D01*
X21763234Y-97182466D01*
X21691546Y-97009396D01*
X21655000Y-96825667D01*
X21655000Y-96638333D01*
X21691546Y-96454604D01*
X21763234Y-96281534D01*
X21867312Y-96125770D01*
X21999770Y-95993312D01*
X22155534Y-95889234D01*
X22328604Y-95817546D01*
X22512333Y-95781000D01*
X22699667Y-95781000D01*
X22883396Y-95817546D01*
X22883396Y-95817546D01*
G37*
G36*
X43034062Y-95817546D02*
X43207132Y-95889234D01*
X43362896Y-95993312D01*
X43495354Y-96125770D01*
X43599432Y-96281534D01*
X43671120Y-96454604D01*
X43707666Y-96638333D01*
X43707666Y-96825667D01*
X43671120Y-97009396D01*
X43599432Y-97182466D01*
X43495354Y-97338230D01*
X43362896Y-97470688D01*
X43207132Y-97574766D01*
X43034062Y-97646454D01*
X42850333Y-97683000D01*
X42662999Y-97683000D01*
X42479270Y-97646454D01*
X42306200Y-97574766D01*
X42150436Y-97470688D01*
X42017978Y-97338230D01*
X41913900Y-97182466D01*
X41842212Y-97009396D01*
X41805666Y-96825667D01*
X41805666Y-96638333D01*
X41842212Y-96454604D01*
X41913900Y-96281534D01*
X42017978Y-96125770D01*
X42150436Y-95993312D01*
X42306200Y-95889234D01*
X42479270Y-95817546D01*
X42662999Y-95781000D01*
X42850333Y-95781000D01*
X43034062Y-95817546D01*
X43034062Y-95817546D01*
G37*
G36*
X32987898Y-93301389D02*
X33179167Y-93380615D01*
X33351309Y-93495637D01*
X33497696Y-93642024D01*
X33612718Y-93814166D01*
X33691944Y-94005435D01*
X33732333Y-94208484D01*
X33732333Y-94415516D01*
X33691944Y-94618565D01*
X33612718Y-94809834D01*
X33497696Y-94981976D01*
X33351309Y-95128363D01*
X33179167Y-95243385D01*
X32987898Y-95322611D01*
X32784849Y-95363000D01*
X32577817Y-95363000D01*
X32374768Y-95322611D01*
X32183499Y-95243385D01*
X32011357Y-95128363D01*
X31864970Y-94981976D01*
X31749948Y-94809834D01*
X31670722Y-94618565D01*
X31630333Y-94415516D01*
X31630333Y-94208484D01*
X31670722Y-94005435D01*
X31749948Y-93814166D01*
X31864970Y-93642024D01*
X32011357Y-93495637D01*
X32183499Y-93380615D01*
X32374768Y-93301389D01*
X32577817Y-93261000D01*
X32784849Y-93261000D01*
X32987898Y-93301389D01*
X32987898Y-93301389D01*
G37*
G36*
X53138565Y-93301389D02*
X53329834Y-93380615D01*
X53501976Y-93495637D01*
X53648363Y-93642024D01*
X53763385Y-93814166D01*
X53842611Y-94005435D01*
X53883000Y-94208484D01*
X53883000Y-94415516D01*
X53842611Y-94618565D01*
X53763385Y-94809834D01*
X53648363Y-94981976D01*
X53501976Y-95128363D01*
X53329834Y-95243385D01*
X53138565Y-95322611D01*
X52935516Y-95363000D01*
X52728484Y-95363000D01*
X52525435Y-95322611D01*
X52334166Y-95243385D01*
X52162024Y-95128363D01*
X52015637Y-94981976D01*
X51900615Y-94809834D01*
X51821389Y-94618565D01*
X51781000Y-94415516D01*
X51781000Y-94208484D01*
X51821389Y-94005435D01*
X51900615Y-93814166D01*
X52015637Y-93642024D01*
X52162024Y-93495637D01*
X52334166Y-93380615D01*
X52525435Y-93301389D01*
X52728484Y-93261000D01*
X52935516Y-93261000D01*
X53138565Y-93301389D01*
X53138565Y-93301389D01*
G37*
G36*
X22912565Y-93301389D02*
X23103834Y-93380615D01*
X23275976Y-93495637D01*
X23422363Y-93642024D01*
X23537385Y-93814166D01*
X23616611Y-94005435D01*
X23657000Y-94208484D01*
X23657000Y-94415516D01*
X23616611Y-94618565D01*
X23537385Y-94809834D01*
X23422363Y-94981976D01*
X23275976Y-95128363D01*
X23103834Y-95243385D01*
X22912565Y-95322611D01*
X22709516Y-95363000D01*
X22502484Y-95363000D01*
X22299435Y-95322611D01*
X22108166Y-95243385D01*
X21936024Y-95128363D01*
X21789637Y-94981976D01*
X21674615Y-94809834D01*
X21595389Y-94618565D01*
X21555000Y-94415516D01*
X21555000Y-94208484D01*
X21595389Y-94005435D01*
X21674615Y-93814166D01*
X21789637Y-93642024D01*
X21936024Y-93495637D01*
X22108166Y-93380615D01*
X22299435Y-93301389D01*
X22502484Y-93261000D01*
X22709516Y-93261000D01*
X22912565Y-93301389D01*
X22912565Y-93301389D01*
G37*
G36*
X43063231Y-93301389D02*
X43254500Y-93380615D01*
X43426642Y-93495637D01*
X43573029Y-93642024D01*
X43688051Y-93814166D01*
X43767277Y-94005435D01*
X43807666Y-94208484D01*
X43807666Y-94415516D01*
X43767277Y-94618565D01*
X43688051Y-94809834D01*
X43573029Y-94981976D01*
X43426642Y-95128363D01*
X43254500Y-95243385D01*
X43063231Y-95322611D01*
X42860182Y-95363000D01*
X42653150Y-95363000D01*
X42450101Y-95322611D01*
X42258832Y-95243385D01*
X42086690Y-95128363D01*
X41940303Y-94981976D01*
X41825281Y-94809834D01*
X41746055Y-94618565D01*
X41705666Y-94415516D01*
X41705666Y-94208484D01*
X41746055Y-94005435D01*
X41825281Y-93814166D01*
X41940303Y-93642024D01*
X42086690Y-93495637D01*
X42258832Y-93380615D01*
X42450101Y-93301389D01*
X42653150Y-93261000D01*
X42860182Y-93261000D01*
X43063231Y-93301389D01*
X43063231Y-93301389D01*
G37*
G36*
X43063231Y-85001389D02*
X43254500Y-85080615D01*
X43426642Y-85195637D01*
X43573029Y-85342024D01*
X43688051Y-85514166D01*
X43767277Y-85705435D01*
X43807666Y-85908484D01*
X43807666Y-86115516D01*
X43767277Y-86318565D01*
X43688051Y-86509834D01*
X43573029Y-86681976D01*
X43426642Y-86828363D01*
X43254500Y-86943385D01*
X43063231Y-87022611D01*
X42860182Y-87063000D01*
X42653150Y-87063000D01*
X42450101Y-87022611D01*
X42258832Y-86943385D01*
X42086690Y-86828363D01*
X41940303Y-86681976D01*
X41825281Y-86509834D01*
X41746055Y-86318565D01*
X41705666Y-86115516D01*
X41705666Y-85908484D01*
X41746055Y-85705435D01*
X41825281Y-85514166D01*
X41940303Y-85342024D01*
X42086690Y-85195637D01*
X42258832Y-85080615D01*
X42450101Y-85001389D01*
X42653150Y-84961000D01*
X42860182Y-84961000D01*
X43063231Y-85001389D01*
X43063231Y-85001389D01*
G37*
G36*
X22912565Y-85001389D02*
X23103834Y-85080615D01*
X23275976Y-85195637D01*
X23422363Y-85342024D01*
X23537385Y-85514166D01*
X23616611Y-85705435D01*
X23657000Y-85908484D01*
X23657000Y-86115516D01*
X23616611Y-86318565D01*
X23537385Y-86509834D01*
X23422363Y-86681976D01*
X23275976Y-86828363D01*
X23103834Y-86943385D01*
X22912565Y-87022611D01*
X22709516Y-87063000D01*
X22502484Y-87063000D01*
X22299435Y-87022611D01*
X22108166Y-86943385D01*
X21936024Y-86828363D01*
X21789637Y-86681976D01*
X21674615Y-86509834D01*
X21595389Y-86318565D01*
X21555000Y-86115516D01*
X21555000Y-85908484D01*
X21595389Y-85705435D01*
X21674615Y-85514166D01*
X21789637Y-85342024D01*
X21936024Y-85195637D01*
X22108166Y-85080615D01*
X22299435Y-85001389D01*
X22502484Y-84961000D01*
X22709516Y-84961000D01*
X22912565Y-85001389D01*
X22912565Y-85001389D01*
G37*
G36*
X32987898Y-85001389D02*
X33179167Y-85080615D01*
X33351309Y-85195637D01*
X33497696Y-85342024D01*
X33612718Y-85514166D01*
X33691944Y-85705435D01*
X33732333Y-85908484D01*
X33732333Y-86115516D01*
X33691944Y-86318565D01*
X33612718Y-86509834D01*
X33497696Y-86681976D01*
X33351309Y-86828363D01*
X33179167Y-86943385D01*
X32987898Y-87022611D01*
X32784849Y-87063000D01*
X32577817Y-87063000D01*
X32374768Y-87022611D01*
X32183499Y-86943385D01*
X32011357Y-86828363D01*
X31864970Y-86681976D01*
X31749948Y-86509834D01*
X31670722Y-86318565D01*
X31630333Y-86115516D01*
X31630333Y-85908484D01*
X31670722Y-85705435D01*
X31749948Y-85514166D01*
X31864970Y-85342024D01*
X32011357Y-85195637D01*
X32183499Y-85080615D01*
X32374768Y-85001389D01*
X32577817Y-84961000D01*
X32784849Y-84961000D01*
X32987898Y-85001389D01*
X32987898Y-85001389D01*
G37*
G36*
X53138565Y-85001389D02*
X53329834Y-85080615D01*
X53501976Y-85195637D01*
X53648363Y-85342024D01*
X53763385Y-85514166D01*
X53842611Y-85705435D01*
X53883000Y-85908484D01*
X53883000Y-86115516D01*
X53842611Y-86318565D01*
X53763385Y-86509834D01*
X53648363Y-86681976D01*
X53501976Y-86828363D01*
X53329834Y-86943385D01*
X53138565Y-87022611D01*
X52935516Y-87063000D01*
X52728484Y-87063000D01*
X52525435Y-87022611D01*
X52334166Y-86943385D01*
X52162024Y-86828363D01*
X52015637Y-86681976D01*
X51900615Y-86509834D01*
X51821389Y-86318565D01*
X51781000Y-86115516D01*
X51781000Y-85908484D01*
X51821389Y-85705435D01*
X51900615Y-85514166D01*
X52015637Y-85342024D01*
X52162024Y-85195637D01*
X52334166Y-85080615D01*
X52525435Y-85001389D01*
X52728484Y-84961000D01*
X52935516Y-84961000D01*
X53138565Y-85001389D01*
X53138565Y-85001389D01*
G37*
G36*
X54750589Y-79438876D02*
X54849893Y-79458629D01*
X54990206Y-79516748D01*
X55116484Y-79601125D01*
X55223875Y-79708516D01*
X55308252Y-79834794D01*
X55366371Y-79975107D01*
X55396000Y-80124063D01*
X55396000Y-80275937D01*
X55366371Y-80424893D01*
X55308252Y-80565206D01*
X55223875Y-80691484D01*
X55116484Y-80798875D01*
X54990206Y-80883252D01*
X54849893Y-80941371D01*
X54750589Y-80961124D01*
X54700938Y-80971000D01*
X54549062Y-80971000D01*
X54499411Y-80961124D01*
X54400107Y-80941371D01*
X54259794Y-80883252D01*
X54133516Y-80798875D01*
X54026125Y-80691484D01*
X53941748Y-80565206D01*
X53883629Y-80424893D01*
X53854000Y-80275937D01*
X53854000Y-80124063D01*
X53883629Y-79975107D01*
X53941748Y-79834794D01*
X54026125Y-79708516D01*
X54133516Y-79601125D01*
X54259794Y-79516748D01*
X54400107Y-79458629D01*
X54499411Y-79438876D01*
X54549062Y-79429000D01*
X54700938Y-79429000D01*
X54750589Y-79438876D01*
X54750589Y-79438876D01*
G37*
G36*
X48625589Y-79338876D02*
X48724893Y-79358629D01*
X48865206Y-79416748D01*
X48991484Y-79501125D01*
X49098875Y-79608516D01*
X49183252Y-79734794D01*
X49241371Y-79875107D01*
X49271000Y-80024063D01*
X49271000Y-80175937D01*
X49241371Y-80324893D01*
X49183252Y-80465206D01*
X49098875Y-80591484D01*
X48991484Y-80698875D01*
X48865206Y-80783252D01*
X48724893Y-80841371D01*
X48625589Y-80861124D01*
X48575938Y-80871000D01*
X48424062Y-80871000D01*
X48374411Y-80861124D01*
X48275107Y-80841371D01*
X48134794Y-80783252D01*
X48008516Y-80698875D01*
X47901125Y-80591484D01*
X47816748Y-80465206D01*
X47758629Y-80324893D01*
X47729000Y-80175937D01*
X47729000Y-80024063D01*
X47758629Y-79875107D01*
X47816748Y-79734794D01*
X47901125Y-79608516D01*
X48008516Y-79501125D01*
X48134794Y-79416748D01*
X48275107Y-79358629D01*
X48374411Y-79338876D01*
X48424062Y-79329000D01*
X48575938Y-79329000D01*
X48625589Y-79338876D01*
X48625589Y-79338876D01*
G37*
G36*
X42625589Y-79238876D02*
X42724893Y-79258629D01*
X42865206Y-79316748D01*
X42991484Y-79401125D01*
X43098875Y-79508516D01*
X43183252Y-79634794D01*
X43241371Y-79775107D01*
X43271000Y-79924063D01*
X43271000Y-80075937D01*
X43241371Y-80224893D01*
X43183252Y-80365206D01*
X43098875Y-80491484D01*
X42991484Y-80598875D01*
X42865206Y-80683252D01*
X42724893Y-80741371D01*
X42625589Y-80761124D01*
X42575938Y-80771000D01*
X42424062Y-80771000D01*
X42374411Y-80761124D01*
X42275107Y-80741371D01*
X42134794Y-80683252D01*
X42008516Y-80598875D01*
X41901125Y-80491484D01*
X41816748Y-80365206D01*
X41758629Y-80224893D01*
X41729000Y-80075937D01*
X41729000Y-79924063D01*
X41758629Y-79775107D01*
X41816748Y-79634794D01*
X41901125Y-79508516D01*
X42008516Y-79401125D01*
X42134794Y-79316748D01*
X42275107Y-79258629D01*
X42374411Y-79238876D01*
X42424062Y-79229000D01*
X42575938Y-79229000D01*
X42625589Y-79238876D01*
X42625589Y-79238876D01*
G37*
G36*
X54750589Y-76898876D02*
X54849893Y-76918629D01*
X54990206Y-76976748D01*
X55116484Y-77061125D01*
X55223875Y-77168516D01*
X55308252Y-77294794D01*
X55366371Y-77435107D01*
X55396000Y-77584063D01*
X55396000Y-77735937D01*
X55366371Y-77884893D01*
X55308252Y-78025206D01*
X55223875Y-78151484D01*
X55116484Y-78258875D01*
X54990206Y-78343252D01*
X54849893Y-78401371D01*
X54750589Y-78421124D01*
X54700938Y-78431000D01*
X54549062Y-78431000D01*
X54499411Y-78421124D01*
X54400107Y-78401371D01*
X54259794Y-78343252D01*
X54133516Y-78258875D01*
X54026125Y-78151484D01*
X53941748Y-78025206D01*
X53883629Y-77884893D01*
X53854000Y-77735937D01*
X53854000Y-77584063D01*
X53883629Y-77435107D01*
X53941748Y-77294794D01*
X54026125Y-77168516D01*
X54133516Y-77061125D01*
X54259794Y-76976748D01*
X54400107Y-76918629D01*
X54499411Y-76898876D01*
X54549062Y-76889000D01*
X54700938Y-76889000D01*
X54750589Y-76898876D01*
X54750589Y-76898876D01*
G37*
G36*
X48625589Y-76798876D02*
X48724893Y-76818629D01*
X48865206Y-76876748D01*
X48991484Y-76961125D01*
X49098875Y-77068516D01*
X49183252Y-77194794D01*
X49241371Y-77335107D01*
X49271000Y-77484063D01*
X49271000Y-77635937D01*
X49241371Y-77784893D01*
X49183252Y-77925206D01*
X49098875Y-78051484D01*
X48991484Y-78158875D01*
X48865206Y-78243252D01*
X48724893Y-78301371D01*
X48625589Y-78321124D01*
X48575938Y-78331000D01*
X48424062Y-78331000D01*
X48374411Y-78321124D01*
X48275107Y-78301371D01*
X48134794Y-78243252D01*
X48008516Y-78158875D01*
X47901125Y-78051484D01*
X47816748Y-77925206D01*
X47758629Y-77784893D01*
X47729000Y-77635937D01*
X47729000Y-77484063D01*
X47758629Y-77335107D01*
X47816748Y-77194794D01*
X47901125Y-77068516D01*
X48008516Y-76961125D01*
X48134794Y-76876748D01*
X48275107Y-76818629D01*
X48374411Y-76798876D01*
X48424062Y-76789000D01*
X48575938Y-76789000D01*
X48625589Y-76798876D01*
X48625589Y-76798876D01*
G37*
G36*
X42625589Y-76698876D02*
X42724893Y-76718629D01*
X42865206Y-76776748D01*
X42991484Y-76861125D01*
X43098875Y-76968516D01*
X43183252Y-77094794D01*
X43241371Y-77235107D01*
X43271000Y-77384063D01*
X43271000Y-77535937D01*
X43241371Y-77684893D01*
X43183252Y-77825206D01*
X43098875Y-77951484D01*
X42991484Y-78058875D01*
X42865206Y-78143252D01*
X42724893Y-78201371D01*
X42625589Y-78221124D01*
X42575938Y-78231000D01*
X42424062Y-78231000D01*
X42374411Y-78221124D01*
X42275107Y-78201371D01*
X42134794Y-78143252D01*
X42008516Y-78058875D01*
X41901125Y-77951484D01*
X41816748Y-77825206D01*
X41758629Y-77684893D01*
X41729000Y-77535937D01*
X41729000Y-77384063D01*
X41758629Y-77235107D01*
X41816748Y-77094794D01*
X41901125Y-76968516D01*
X42008516Y-76861125D01*
X42134794Y-76776748D01*
X42275107Y-76718629D01*
X42374411Y-76698876D01*
X42424062Y-76689000D01*
X42575938Y-76689000D01*
X42625589Y-76698876D01*
X42625589Y-76698876D01*
G37*
G36*
X54750589Y-74358876D02*
X54849893Y-74378629D01*
X54990206Y-74436748D01*
X55116484Y-74521125D01*
X55223875Y-74628516D01*
X55308252Y-74754794D01*
X55366371Y-74895107D01*
X55396000Y-75044063D01*
X55396000Y-75195937D01*
X55366371Y-75344893D01*
X55308252Y-75485206D01*
X55223875Y-75611484D01*
X55116484Y-75718875D01*
X54990206Y-75803252D01*
X54849893Y-75861371D01*
X54750589Y-75881124D01*
X54700938Y-75891000D01*
X54549062Y-75891000D01*
X54499411Y-75881124D01*
X54400107Y-75861371D01*
X54259794Y-75803252D01*
X54133516Y-75718875D01*
X54026125Y-75611484D01*
X53941748Y-75485206D01*
X53883629Y-75344893D01*
X53854000Y-75195937D01*
X53854000Y-75044063D01*
X53883629Y-74895107D01*
X53941748Y-74754794D01*
X54026125Y-74628516D01*
X54133516Y-74521125D01*
X54259794Y-74436748D01*
X54400107Y-74378629D01*
X54499411Y-74358876D01*
X54549062Y-74349000D01*
X54700938Y-74349000D01*
X54750589Y-74358876D01*
X54750589Y-74358876D01*
G37*
G36*
X48625589Y-74258876D02*
X48724893Y-74278629D01*
X48865206Y-74336748D01*
X48991484Y-74421125D01*
X49098875Y-74528516D01*
X49183252Y-74654794D01*
X49241371Y-74795107D01*
X49271000Y-74944063D01*
X49271000Y-75095937D01*
X49241371Y-75244893D01*
X49183252Y-75385206D01*
X49098875Y-75511484D01*
X48991484Y-75618875D01*
X48865206Y-75703252D01*
X48724893Y-75761371D01*
X48625589Y-75781124D01*
X48575938Y-75791000D01*
X48424062Y-75791000D01*
X48374411Y-75781124D01*
X48275107Y-75761371D01*
X48134794Y-75703252D01*
X48008516Y-75618875D01*
X47901125Y-75511484D01*
X47816748Y-75385206D01*
X47758629Y-75244893D01*
X47729000Y-75095937D01*
X47729000Y-74944063D01*
X47758629Y-74795107D01*
X47816748Y-74654794D01*
X47901125Y-74528516D01*
X48008516Y-74421125D01*
X48134794Y-74336748D01*
X48275107Y-74278629D01*
X48374411Y-74258876D01*
X48424062Y-74249000D01*
X48575938Y-74249000D01*
X48625589Y-74258876D01*
X48625589Y-74258876D01*
G37*
G36*
X42625589Y-74158876D02*
X42724893Y-74178629D01*
X42865206Y-74236748D01*
X42991484Y-74321125D01*
X43098875Y-74428516D01*
X43183252Y-74554794D01*
X43241371Y-74695107D01*
X43271000Y-74844063D01*
X43271000Y-74995937D01*
X43241371Y-75144893D01*
X43183252Y-75285206D01*
X43098875Y-75411484D01*
X42991484Y-75518875D01*
X42865206Y-75603252D01*
X42724893Y-75661371D01*
X42625589Y-75681124D01*
X42575938Y-75691000D01*
X42424062Y-75691000D01*
X42374411Y-75681124D01*
X42275107Y-75661371D01*
X42134794Y-75603252D01*
X42008516Y-75518875D01*
X41901125Y-75411484D01*
X41816748Y-75285206D01*
X41758629Y-75144893D01*
X41729000Y-74995937D01*
X41729000Y-74844063D01*
X41758629Y-74695107D01*
X41816748Y-74554794D01*
X41901125Y-74428516D01*
X42008516Y-74321125D01*
X42134794Y-74236748D01*
X42275107Y-74178629D01*
X42374411Y-74158876D01*
X42424062Y-74149000D01*
X42575938Y-74149000D01*
X42625589Y-74158876D01*
X42625589Y-74158876D01*
G37*
G36*
X42625589Y-68238876D02*
X42724893Y-68258629D01*
X42865206Y-68316748D01*
X42991484Y-68401125D01*
X43098875Y-68508516D01*
X43183252Y-68634794D01*
X43241371Y-68775107D01*
X43271000Y-68924063D01*
X43271000Y-69075937D01*
X43241371Y-69224893D01*
X43183252Y-69365206D01*
X43098875Y-69491484D01*
X42991484Y-69598875D01*
X42865206Y-69683252D01*
X42724893Y-69741371D01*
X42625589Y-69761124D01*
X42575938Y-69771000D01*
X42424062Y-69771000D01*
X42374411Y-69761124D01*
X42275107Y-69741371D01*
X42134794Y-69683252D01*
X42008516Y-69598875D01*
X41901125Y-69491484D01*
X41816748Y-69365206D01*
X41758629Y-69224893D01*
X41729000Y-69075937D01*
X41729000Y-68924063D01*
X41758629Y-68775107D01*
X41816748Y-68634794D01*
X41901125Y-68508516D01*
X42008516Y-68401125D01*
X42134794Y-68316748D01*
X42275107Y-68258629D01*
X42374411Y-68238876D01*
X42424062Y-68229000D01*
X42575938Y-68229000D01*
X42625589Y-68238876D01*
X42625589Y-68238876D01*
G37*
G36*
X42625589Y-65698876D02*
X42724893Y-65718629D01*
X42865206Y-65776748D01*
X42991484Y-65861125D01*
X43098875Y-65968516D01*
X43183252Y-66094794D01*
X43241371Y-66235107D01*
X43271000Y-66384063D01*
X43271000Y-66535937D01*
X43241371Y-66684893D01*
X43183252Y-66825206D01*
X43098875Y-66951484D01*
X42991484Y-67058875D01*
X42865206Y-67143252D01*
X42724893Y-67201371D01*
X42625589Y-67221124D01*
X42575938Y-67231000D01*
X42424062Y-67231000D01*
X42374411Y-67221124D01*
X42275107Y-67201371D01*
X42134794Y-67143252D01*
X42008516Y-67058875D01*
X41901125Y-66951484D01*
X41816748Y-66825206D01*
X41758629Y-66684893D01*
X41729000Y-66535937D01*
X41729000Y-66384063D01*
X41758629Y-66235107D01*
X41816748Y-66094794D01*
X41901125Y-65968516D01*
X42008516Y-65861125D01*
X42134794Y-65776748D01*
X42275107Y-65718629D01*
X42374411Y-65698876D01*
X42424062Y-65689000D01*
X42575938Y-65689000D01*
X42625589Y-65698876D01*
X42625589Y-65698876D01*
G37*
G36*
X53819294Y-63598633D02*
X53991694Y-63650931D01*
X53991696Y-63650932D01*
X54150583Y-63735859D01*
X54289849Y-63850151D01*
X54404141Y-63989417D01*
X54487244Y-64144891D01*
X54489069Y-64148306D01*
X54541367Y-64320706D01*
X54559025Y-64500000D01*
X54541367Y-64679294D01*
X54489069Y-64851694D01*
X54489068Y-64851696D01*
X54404141Y-65010583D01*
X54289849Y-65149849D01*
X54150583Y-65264141D01*
X53991696Y-65349068D01*
X53991694Y-65349069D01*
X53819294Y-65401367D01*
X53684931Y-65414600D01*
X53595069Y-65414600D01*
X53460706Y-65401367D01*
X53288306Y-65349069D01*
X53288304Y-65349068D01*
X53129417Y-65264141D01*
X52990151Y-65149849D01*
X52875859Y-65010583D01*
X52790932Y-64851696D01*
X52790931Y-64851694D01*
X52738633Y-64679294D01*
X52720975Y-64500000D01*
X52738633Y-64320706D01*
X52790931Y-64148306D01*
X52792756Y-64144891D01*
X52875859Y-63989417D01*
X52990151Y-63850151D01*
X53129417Y-63735859D01*
X53288304Y-63650932D01*
X53288306Y-63650931D01*
X53460706Y-63598633D01*
X53595069Y-63585400D01*
X53684931Y-63585400D01*
X53819294Y-63598633D01*
X53819294Y-63598633D01*
G37*
G36*
X52014600Y-65414600D02*
X50185400Y-65414600D01*
X50185400Y-63585400D01*
X52014600Y-63585400D01*
X52014600Y-65414600D01*
X52014600Y-65414600D01*
G37*
G36*
X42625589Y-63158876D02*
X42724893Y-63178629D01*
X42865206Y-63236748D01*
X42991484Y-63321125D01*
X43098875Y-63428516D01*
X43183252Y-63554794D01*
X43241371Y-63695107D01*
X43271000Y-63844063D01*
X43271000Y-63995937D01*
X43241371Y-64144893D01*
X43183252Y-64285206D01*
X43098875Y-64411484D01*
X42991484Y-64518875D01*
X42865206Y-64603252D01*
X42724893Y-64661371D01*
X42634792Y-64679293D01*
X42575938Y-64691000D01*
X42424062Y-64691000D01*
X42365208Y-64679293D01*
X42275107Y-64661371D01*
X42134794Y-64603252D01*
X42008516Y-64518875D01*
X41901125Y-64411484D01*
X41816748Y-64285206D01*
X41758629Y-64144893D01*
X41729000Y-63995937D01*
X41729000Y-63844063D01*
X41758629Y-63695107D01*
X41816748Y-63554794D01*
X41901125Y-63428516D01*
X42008516Y-63321125D01*
X42134794Y-63236748D01*
X42275107Y-63178629D01*
X42374411Y-63158876D01*
X42424062Y-63149000D01*
X42575938Y-63149000D01*
X42625589Y-63158876D01*
X42625589Y-63158876D01*
G37*
G36*
X53819294Y-61058633D02*
X53991694Y-61110931D01*
X53991696Y-61110932D01*
X54150583Y-61195859D01*
X54150585Y-61195860D01*
X54150584Y-61195860D01*
X54289849Y-61310151D01*
X54404140Y-61449416D01*
X54489069Y-61608306D01*
X54541367Y-61780706D01*
X54559025Y-61960000D01*
X54541367Y-62139294D01*
X54489069Y-62311694D01*
X54489068Y-62311696D01*
X54404141Y-62470583D01*
X54289849Y-62609849D01*
X54150583Y-62724141D01*
X53991696Y-62809068D01*
X53991694Y-62809069D01*
X53819294Y-62861367D01*
X53684931Y-62874600D01*
X53595069Y-62874600D01*
X53460706Y-62861367D01*
X53288306Y-62809069D01*
X53288304Y-62809068D01*
X53129417Y-62724141D01*
X52990151Y-62609849D01*
X52875859Y-62470583D01*
X52790932Y-62311696D01*
X52790931Y-62311694D01*
X52738633Y-62139294D01*
X52720975Y-61960000D01*
X52738633Y-61780706D01*
X52790931Y-61608306D01*
X52875860Y-61449416D01*
X52990151Y-61310151D01*
X53129416Y-61195860D01*
X53129415Y-61195860D01*
X53129417Y-61195859D01*
X53288304Y-61110932D01*
X53288306Y-61110931D01*
X53460706Y-61058633D01*
X53595069Y-61045400D01*
X53684931Y-61045400D01*
X53819294Y-61058633D01*
X53819294Y-61058633D01*
G37*
G36*
X51279294Y-61058633D02*
X51451694Y-61110931D01*
X51451696Y-61110932D01*
X51610583Y-61195859D01*
X51610585Y-61195860D01*
X51610584Y-61195860D01*
X51749849Y-61310151D01*
X51864140Y-61449416D01*
X51949069Y-61608306D01*
X52001367Y-61780706D01*
X52019025Y-61960000D01*
X52001367Y-62139294D01*
X51949069Y-62311694D01*
X51949068Y-62311696D01*
X51864141Y-62470583D01*
X51749849Y-62609849D01*
X51610583Y-62724141D01*
X51451696Y-62809068D01*
X51451694Y-62809069D01*
X51279294Y-62861367D01*
X51144931Y-62874600D01*
X51055069Y-62874600D01*
X50920706Y-62861367D01*
X50748306Y-62809069D01*
X50748304Y-62809068D01*
X50589417Y-62724141D01*
X50450151Y-62609849D01*
X50335859Y-62470583D01*
X50250932Y-62311696D01*
X50250931Y-62311694D01*
X50198633Y-62139294D01*
X50180975Y-61960000D01*
X50198633Y-61780706D01*
X50250931Y-61608306D01*
X50335860Y-61449416D01*
X50450151Y-61310151D01*
X50589416Y-61195860D01*
X50589415Y-61195860D01*
X50589417Y-61195859D01*
X50748304Y-61110932D01*
X50748306Y-61110931D01*
X50920706Y-61058633D01*
X51055069Y-61045400D01*
X51144931Y-61045400D01*
X51279294Y-61058633D01*
X51279294Y-61058633D01*
G37*
G36*
X53819294Y-58518633D02*
X53991694Y-58570931D01*
X53991696Y-58570932D01*
X54150583Y-58655859D01*
X54150585Y-58655860D01*
X54150584Y-58655860D01*
X54289849Y-58770151D01*
X54404140Y-58909416D01*
X54489069Y-59068306D01*
X54541367Y-59240706D01*
X54559025Y-59420000D01*
X54541367Y-59599294D01*
X54489069Y-59771694D01*
X54489068Y-59771696D01*
X54404141Y-59930583D01*
X54289849Y-60069849D01*
X54150583Y-60184141D01*
X53991696Y-60269068D01*
X53991694Y-60269069D01*
X53819294Y-60321367D01*
X53684931Y-60334600D01*
X53595069Y-60334600D01*
X53460706Y-60321367D01*
X53288306Y-60269069D01*
X53288304Y-60269068D01*
X53129417Y-60184141D01*
X52990151Y-60069849D01*
X52875859Y-59930583D01*
X52790932Y-59771696D01*
X52790931Y-59771694D01*
X52738633Y-59599294D01*
X52720975Y-59420000D01*
X52738633Y-59240706D01*
X52790931Y-59068306D01*
X52875860Y-58909416D01*
X52990151Y-58770151D01*
X53129416Y-58655860D01*
X53129415Y-58655860D01*
X53129417Y-58655859D01*
X53288304Y-58570932D01*
X53288306Y-58570931D01*
X53460706Y-58518633D01*
X53595069Y-58505400D01*
X53684931Y-58505400D01*
X53819294Y-58518633D01*
X53819294Y-58518633D01*
G37*
G36*
X51279294Y-58518633D02*
X51451694Y-58570931D01*
X51451696Y-58570932D01*
X51610583Y-58655859D01*
X51610585Y-58655860D01*
X51610584Y-58655860D01*
X51749849Y-58770151D01*
X51864140Y-58909416D01*
X51949069Y-59068306D01*
X52001367Y-59240706D01*
X52019025Y-59420000D01*
X52001367Y-59599294D01*
X51949069Y-59771694D01*
X51949068Y-59771696D01*
X51864141Y-59930583D01*
X51749849Y-60069849D01*
X51610583Y-60184141D01*
X51451696Y-60269068D01*
X51451694Y-60269069D01*
X51279294Y-60321367D01*
X51144931Y-60334600D01*
X51055069Y-60334600D01*
X50920706Y-60321367D01*
X50748306Y-60269069D01*
X50748304Y-60269068D01*
X50589417Y-60184141D01*
X50450151Y-60069849D01*
X50335859Y-59930583D01*
X50250932Y-59771696D01*
X50250931Y-59771694D01*
X50198633Y-59599294D01*
X50180975Y-59420000D01*
X50198633Y-59240706D01*
X50250931Y-59068306D01*
X50335860Y-58909416D01*
X50450151Y-58770151D01*
X50589416Y-58655860D01*
X50589415Y-58655860D01*
X50589417Y-58655859D01*
X50748304Y-58570932D01*
X50748306Y-58570931D01*
X50920706Y-58518633D01*
X51055069Y-58505400D01*
X51144931Y-58505400D01*
X51279294Y-58518633D01*
X51279294Y-58518633D01*
G37*
G36*
X41006565Y-57689389D02*
X41197834Y-57768615D01*
X41369976Y-57883637D01*
X41516363Y-58030024D01*
X41631385Y-58202166D01*
X41710611Y-58393435D01*
X41751000Y-58596484D01*
X41751000Y-58803516D01*
X41710611Y-59006565D01*
X41631385Y-59197834D01*
X41516363Y-59369976D01*
X41369976Y-59516363D01*
X41197834Y-59631385D01*
X41006565Y-59710611D01*
X40803516Y-59751000D01*
X40596484Y-59751000D01*
X40393435Y-59710611D01*
X40202166Y-59631385D01*
X40030024Y-59516363D01*
X39883637Y-59369976D01*
X39768615Y-59197834D01*
X39689389Y-59006565D01*
X39649000Y-58803516D01*
X39649000Y-58596484D01*
X39689389Y-58393435D01*
X39768615Y-58202166D01*
X39883637Y-58030024D01*
X40030024Y-57883637D01*
X40202166Y-57768615D01*
X40393435Y-57689389D01*
X40596484Y-57649000D01*
X40803516Y-57649000D01*
X41006565Y-57689389D01*
X41006565Y-57689389D01*
G37*
G36*
X46006565Y-57689389D02*
X46197834Y-57768615D01*
X46369976Y-57883637D01*
X46516363Y-58030024D01*
X46631385Y-58202166D01*
X46710611Y-58393435D01*
X46751000Y-58596484D01*
X46751000Y-58803516D01*
X46710611Y-59006565D01*
X46631385Y-59197834D01*
X46516363Y-59369976D01*
X46369976Y-59516363D01*
X46197834Y-59631385D01*
X46006565Y-59710611D01*
X45803516Y-59751000D01*
X45596484Y-59751000D01*
X45393435Y-59710611D01*
X45202166Y-59631385D01*
X45030024Y-59516363D01*
X44883637Y-59369976D01*
X44768615Y-59197834D01*
X44689389Y-59006565D01*
X44649000Y-58803516D01*
X44649000Y-58596484D01*
X44689389Y-58393435D01*
X44768615Y-58202166D01*
X44883637Y-58030024D01*
X45030024Y-57883637D01*
X45202166Y-57768615D01*
X45393435Y-57689389D01*
X45596484Y-57649000D01*
X45803516Y-57649000D01*
X46006565Y-57689389D01*
X46006565Y-57689389D01*
G37*
G36*
X53819294Y-55978633D02*
X53991694Y-56030931D01*
X53991696Y-56030932D01*
X54150583Y-56115859D01*
X54266038Y-56210610D01*
X54289849Y-56230151D01*
X54404140Y-56369416D01*
X54489069Y-56528306D01*
X54541367Y-56700706D01*
X54559025Y-56880000D01*
X54541367Y-57059294D01*
X54489069Y-57231694D01*
X54489068Y-57231696D01*
X54404141Y-57390583D01*
X54289849Y-57529849D01*
X54150583Y-57644141D01*
X54141492Y-57649000D01*
X53991694Y-57729069D01*
X53819294Y-57781367D01*
X53684931Y-57794600D01*
X53595069Y-57794600D01*
X53460706Y-57781367D01*
X53288306Y-57729069D01*
X53138508Y-57649000D01*
X53129417Y-57644141D01*
X52990151Y-57529849D01*
X52875859Y-57390583D01*
X52790932Y-57231696D01*
X52790931Y-57231694D01*
X52738633Y-57059294D01*
X52720975Y-56880000D01*
X52738633Y-56700706D01*
X52790931Y-56528306D01*
X52875860Y-56369416D01*
X52990151Y-56230151D01*
X53013962Y-56210610D01*
X53129417Y-56115859D01*
X53288304Y-56030932D01*
X53288306Y-56030931D01*
X53460706Y-55978633D01*
X53595069Y-55965400D01*
X53684931Y-55965400D01*
X53819294Y-55978633D01*
X53819294Y-55978633D01*
G37*
G36*
X51279294Y-55978633D02*
X51451694Y-56030931D01*
X51451696Y-56030932D01*
X51610583Y-56115859D01*
X51726038Y-56210610D01*
X51749849Y-56230151D01*
X51864140Y-56369416D01*
X51949069Y-56528306D01*
X52001367Y-56700706D01*
X52019025Y-56880000D01*
X52001367Y-57059294D01*
X51949069Y-57231694D01*
X51949068Y-57231696D01*
X51864141Y-57390583D01*
X51749849Y-57529849D01*
X51610583Y-57644141D01*
X51601492Y-57649000D01*
X51451694Y-57729069D01*
X51279294Y-57781367D01*
X51144931Y-57794600D01*
X51055069Y-57794600D01*
X50920706Y-57781367D01*
X50748306Y-57729069D01*
X50598508Y-57649000D01*
X50589417Y-57644141D01*
X50450151Y-57529849D01*
X50335859Y-57390583D01*
X50250932Y-57231696D01*
X50250931Y-57231694D01*
X50198633Y-57059294D01*
X50180975Y-56880000D01*
X50198633Y-56700706D01*
X50250931Y-56528306D01*
X50335860Y-56369416D01*
X50450151Y-56230151D01*
X50473962Y-56210610D01*
X50589417Y-56115859D01*
X50748304Y-56030932D01*
X50748306Y-56030931D01*
X50920706Y-55978633D01*
X51055069Y-55965400D01*
X51144931Y-55965400D01*
X51279294Y-55978633D01*
X51279294Y-55978633D01*
G37*
G36*
X40906565Y-54189389D02*
X41097834Y-54268615D01*
X41269976Y-54383637D01*
X41416363Y-54530024D01*
X41531385Y-54702166D01*
X41610611Y-54893435D01*
X41651000Y-55096484D01*
X41651000Y-55303516D01*
X41610611Y-55506565D01*
X41531385Y-55697834D01*
X41416363Y-55869976D01*
X41269976Y-56016363D01*
X41097834Y-56131385D01*
X40906565Y-56210611D01*
X40703516Y-56251000D01*
X40496484Y-56251000D01*
X40293435Y-56210611D01*
X40102166Y-56131385D01*
X39930024Y-56016363D01*
X39783637Y-55869976D01*
X39668615Y-55697834D01*
X39589389Y-55506565D01*
X39549000Y-55303516D01*
X39549000Y-55096484D01*
X39589389Y-54893435D01*
X39668615Y-54702166D01*
X39783637Y-54530024D01*
X39930024Y-54383637D01*
X40102166Y-54268615D01*
X40293435Y-54189389D01*
X40496484Y-54149000D01*
X40703516Y-54149000D01*
X40906565Y-54189389D01*
X40906565Y-54189389D01*
G37*
G36*
X45906565Y-54189389D02*
X46097834Y-54268615D01*
X46269976Y-54383637D01*
X46416363Y-54530024D01*
X46531385Y-54702166D01*
X46610611Y-54893435D01*
X46651000Y-55096484D01*
X46651000Y-55303516D01*
X46610611Y-55506565D01*
X46531385Y-55697834D01*
X46416363Y-55869976D01*
X46269976Y-56016363D01*
X46097834Y-56131385D01*
X45906565Y-56210611D01*
X45703516Y-56251000D01*
X45496484Y-56251000D01*
X45293435Y-56210611D01*
X45102166Y-56131385D01*
X44930024Y-56016363D01*
X44783637Y-55869976D01*
X44668615Y-55697834D01*
X44589389Y-55506565D01*
X44549000Y-55303516D01*
X44549000Y-55096484D01*
X44589389Y-54893435D01*
X44668615Y-54702166D01*
X44783637Y-54530024D01*
X44930024Y-54383637D01*
X45102166Y-54268615D01*
X45293435Y-54189389D01*
X45496484Y-54149000D01*
X45703516Y-54149000D01*
X45906565Y-54189389D01*
X45906565Y-54189389D01*
G37*
G36*
X53819294Y-53438633D02*
X53991694Y-53490931D01*
X53991696Y-53490932D01*
X54150583Y-53575859D01*
X54150585Y-53575860D01*
X54150584Y-53575860D01*
X54289849Y-53690151D01*
X54404140Y-53829416D01*
X54489069Y-53988306D01*
X54541367Y-54160706D01*
X54559025Y-54340000D01*
X54541367Y-54519294D01*
X54489069Y-54691694D01*
X54489068Y-54691696D01*
X54404141Y-54850583D01*
X54289849Y-54989849D01*
X54150583Y-55104141D01*
X53991696Y-55189068D01*
X53991694Y-55189069D01*
X53819294Y-55241367D01*
X53684931Y-55254600D01*
X53595069Y-55254600D01*
X53460706Y-55241367D01*
X53288306Y-55189069D01*
X53288304Y-55189068D01*
X53129417Y-55104141D01*
X52990151Y-54989849D01*
X52875859Y-54850583D01*
X52790932Y-54691696D01*
X52790931Y-54691694D01*
X52738633Y-54519294D01*
X52720975Y-54340000D01*
X52738633Y-54160706D01*
X52790931Y-53988306D01*
X52875860Y-53829416D01*
X52990151Y-53690151D01*
X53129416Y-53575860D01*
X53129415Y-53575860D01*
X53129417Y-53575859D01*
X53288304Y-53490932D01*
X53288306Y-53490931D01*
X53460706Y-53438633D01*
X53595069Y-53425400D01*
X53684931Y-53425400D01*
X53819294Y-53438633D01*
X53819294Y-53438633D01*
G37*
G36*
X51279294Y-53438633D02*
X51451694Y-53490931D01*
X51451696Y-53490932D01*
X51610583Y-53575859D01*
X51610585Y-53575860D01*
X51610584Y-53575860D01*
X51749849Y-53690151D01*
X51864140Y-53829416D01*
X51949069Y-53988306D01*
X52001367Y-54160706D01*
X52019025Y-54340000D01*
X52001367Y-54519294D01*
X51949069Y-54691694D01*
X51949068Y-54691696D01*
X51864141Y-54850583D01*
X51749849Y-54989849D01*
X51610583Y-55104141D01*
X51451696Y-55189068D01*
X51451694Y-55189069D01*
X51279294Y-55241367D01*
X51144931Y-55254600D01*
X51055069Y-55254600D01*
X50920706Y-55241367D01*
X50748306Y-55189069D01*
X50748304Y-55189068D01*
X50589417Y-55104141D01*
X50450151Y-54989849D01*
X50335859Y-54850583D01*
X50250932Y-54691696D01*
X50250931Y-54691694D01*
X50198633Y-54519294D01*
X50180975Y-54340000D01*
X50198633Y-54160706D01*
X50250931Y-53988306D01*
X50335860Y-53829416D01*
X50450151Y-53690151D01*
X50589416Y-53575860D01*
X50589415Y-53575860D01*
X50589417Y-53575859D01*
X50748304Y-53490932D01*
X50748306Y-53490931D01*
X50920706Y-53438633D01*
X51055069Y-53425400D01*
X51144931Y-53425400D01*
X51279294Y-53438633D01*
X51279294Y-53438633D01*
G37*
G36*
X47804565Y-46207389D02*
X47995834Y-46286615D01*
X48167976Y-46401637D01*
X48314363Y-46548024D01*
X48429385Y-46720166D01*
X48508611Y-46911435D01*
X48549000Y-47114484D01*
X48549000Y-47321516D01*
X48508611Y-47524565D01*
X48429385Y-47715834D01*
X48314363Y-47887976D01*
X48167976Y-48034363D01*
X47995834Y-48149385D01*
X47804565Y-48228611D01*
X47601516Y-48269000D01*
X47394484Y-48269000D01*
X47191435Y-48228611D01*
X47000166Y-48149385D01*
X46828024Y-48034363D01*
X46681637Y-47887976D01*
X46566615Y-47715834D01*
X46487389Y-47524565D01*
X46447000Y-47321516D01*
X46447000Y-47114484D01*
X46487389Y-46911435D01*
X46566615Y-46720166D01*
X46681637Y-46548024D01*
X46828024Y-46401637D01*
X47000166Y-46286615D01*
X47191435Y-46207389D01*
X47394484Y-46167000D01*
X47601516Y-46167000D01*
X47804565Y-46207389D01*
X47804565Y-46207389D01*
G37*
G36*
X27992565Y-46207389D02*
X28183834Y-46286615D01*
X28355976Y-46401637D01*
X28502363Y-46548024D01*
X28617385Y-46720166D01*
X28696611Y-46911435D01*
X28737000Y-47114484D01*
X28737000Y-47321516D01*
X28696611Y-47524565D01*
X28617385Y-47715834D01*
X28502363Y-47887976D01*
X28355976Y-48034363D01*
X28183834Y-48149385D01*
X27992565Y-48228611D01*
X27789516Y-48269000D01*
X27582484Y-48269000D01*
X27379435Y-48228611D01*
X27188166Y-48149385D01*
X27016024Y-48034363D01*
X26869637Y-47887976D01*
X26754615Y-47715834D01*
X26675389Y-47524565D01*
X26635000Y-47321516D01*
X26635000Y-47114484D01*
X26675389Y-46911435D01*
X26754615Y-46720166D01*
X26869637Y-46548024D01*
X27016024Y-46401637D01*
X27188166Y-46286615D01*
X27379435Y-46207389D01*
X27582484Y-46167000D01*
X27789516Y-46167000D01*
X27992565Y-46207389D01*
X27992565Y-46207389D01*
G37*
G36*
X54148228Y-44681703D02*
X54303100Y-44745853D01*
X54442481Y-44838985D01*
X54561015Y-44957519D01*
X54654147Y-45096900D01*
X54718297Y-45251772D01*
X54751000Y-45416184D01*
X54751000Y-45583816D01*
X54718297Y-45748228D01*
X54654147Y-45903100D01*
X54561015Y-46042481D01*
X54442481Y-46161015D01*
X54303100Y-46254147D01*
X54148228Y-46318297D01*
X53983816Y-46351000D01*
X53816184Y-46351000D01*
X53651772Y-46318297D01*
X53496900Y-46254147D01*
X53357519Y-46161015D01*
X53238985Y-46042481D01*
X53145853Y-45903100D01*
X53081703Y-45748228D01*
X53049000Y-45583816D01*
X53049000Y-45416184D01*
X53081703Y-45251772D01*
X53145853Y-45096900D01*
X53238985Y-44957519D01*
X53357519Y-44838985D01*
X53496900Y-44745853D01*
X53651772Y-44681703D01*
X53816184Y-44649000D01*
X53983816Y-44649000D01*
X54148228Y-44681703D01*
X54148228Y-44681703D01*
G37*
G36*
X34548228Y-44281703D02*
X34703100Y-44345853D01*
X34842481Y-44438985D01*
X34961015Y-44557519D01*
X35054147Y-44696900D01*
X35118297Y-44851772D01*
X35151000Y-45016184D01*
X35151000Y-45183816D01*
X35118297Y-45348228D01*
X35054147Y-45503100D01*
X34961015Y-45642481D01*
X34842481Y-45761015D01*
X34703100Y-45854147D01*
X34548228Y-45918297D01*
X34383816Y-45951000D01*
X34216184Y-45951000D01*
X34051772Y-45918297D01*
X33896900Y-45854147D01*
X33757519Y-45761015D01*
X33638985Y-45642481D01*
X33545853Y-45503100D01*
X33481703Y-45348228D01*
X33449000Y-45183816D01*
X33449000Y-45016184D01*
X33481703Y-44851772D01*
X33545853Y-44696900D01*
X33638985Y-44557519D01*
X33757519Y-44438985D01*
X33896900Y-44345853D01*
X34051772Y-44281703D01*
X34216184Y-44249000D01*
X34383816Y-44249000D01*
X34548228Y-44281703D01*
X34548228Y-44281703D01*
G37*
G36*
X20390472Y-44243938D02*
X20518049Y-44296782D01*
X20632865Y-44373500D01*
X20730500Y-44471135D01*
X20807218Y-44585951D01*
X20860062Y-44713528D01*
X20887000Y-44848956D01*
X20887000Y-44987044D01*
X20860062Y-45122472D01*
X20807218Y-45250049D01*
X20730500Y-45364865D01*
X20632865Y-45462500D01*
X20518049Y-45539218D01*
X20390472Y-45592062D01*
X20255044Y-45619000D01*
X20116956Y-45619000D01*
X19981528Y-45592062D01*
X19853951Y-45539218D01*
X19739135Y-45462500D01*
X19641500Y-45364865D01*
X19564782Y-45250049D01*
X19511938Y-45122472D01*
X19485000Y-44987044D01*
X19485000Y-44848956D01*
X19511938Y-44713528D01*
X19564782Y-44585951D01*
X19641500Y-44471135D01*
X19739135Y-44373500D01*
X19853951Y-44296782D01*
X19981528Y-44243938D01*
X20116956Y-44217000D01*
X20255044Y-44217000D01*
X20390472Y-44243938D01*
X20390472Y-44243938D01*
G37*
G36*
X40202472Y-44243938D02*
X40330049Y-44296782D01*
X40444865Y-44373500D01*
X40542500Y-44471135D01*
X40619218Y-44585951D01*
X40672062Y-44713528D01*
X40699000Y-44848956D01*
X40699000Y-44987044D01*
X40672062Y-45122472D01*
X40619218Y-45250049D01*
X40542500Y-45364865D01*
X40444865Y-45462500D01*
X40330049Y-45539218D01*
X40202472Y-45592062D01*
X40067044Y-45619000D01*
X39928956Y-45619000D01*
X39793528Y-45592062D01*
X39665951Y-45539218D01*
X39551135Y-45462500D01*
X39453500Y-45364865D01*
X39376782Y-45250049D01*
X39323938Y-45122472D01*
X39297000Y-44987044D01*
X39297000Y-44848956D01*
X39323938Y-44713528D01*
X39376782Y-44585951D01*
X39453500Y-44471135D01*
X39551135Y-44373500D01*
X39665951Y-44296782D01*
X39793528Y-44243938D01*
X39928956Y-44217000D01*
X40067044Y-44217000D01*
X40202472Y-44243938D01*
X40202472Y-44243938D01*
G37*
G36*
X54751000Y-43851000D02*
X53049000Y-43851000D01*
X53049000Y-42149000D01*
X54751000Y-42149000D01*
X54751000Y-43851000D01*
X54751000Y-43851000D01*
G37*
G36*
X35151000Y-43451000D02*
X33449000Y-43451000D01*
X33449000Y-41749000D01*
X35151000Y-41749000D01*
X35151000Y-43451000D01*
X35151000Y-43451000D01*
G37*
G36*
X20390472Y-41743938D02*
X20518049Y-41796782D01*
X20632865Y-41873500D01*
X20730500Y-41971135D01*
X20807218Y-42085951D01*
X20860062Y-42213528D01*
X20887000Y-42348956D01*
X20887000Y-42487044D01*
X20860062Y-42622472D01*
X20807218Y-42750049D01*
X20730500Y-42864865D01*
X20632865Y-42962500D01*
X20518049Y-43039218D01*
X20390472Y-43092062D01*
X20255044Y-43119000D01*
X20116956Y-43119000D01*
X19981528Y-43092062D01*
X19853951Y-43039218D01*
X19739135Y-42962500D01*
X19641500Y-42864865D01*
X19564782Y-42750049D01*
X19511938Y-42622472D01*
X19485000Y-42487044D01*
X19485000Y-42348956D01*
X19511938Y-42213528D01*
X19564782Y-42085951D01*
X19641500Y-41971135D01*
X19739135Y-41873500D01*
X19853951Y-41796782D01*
X19981528Y-41743938D01*
X20116956Y-41717000D01*
X20255044Y-41717000D01*
X20390472Y-41743938D01*
X20390472Y-41743938D01*
G37*
G36*
X40202472Y-41743938D02*
X40330049Y-41796782D01*
X40444865Y-41873500D01*
X40542500Y-41971135D01*
X40619218Y-42085951D01*
X40672062Y-42213528D01*
X40699000Y-42348956D01*
X40699000Y-42487044D01*
X40672062Y-42622472D01*
X40619218Y-42750049D01*
X40542500Y-42864865D01*
X40444865Y-42962500D01*
X40330049Y-43039218D01*
X40202472Y-43092062D01*
X40067044Y-43119000D01*
X39928956Y-43119000D01*
X39793528Y-43092062D01*
X39665951Y-43039218D01*
X39551135Y-42962500D01*
X39453500Y-42864865D01*
X39376782Y-42750049D01*
X39323938Y-42622472D01*
X39297000Y-42487044D01*
X39297000Y-42348956D01*
X39323938Y-42213528D01*
X39376782Y-42085951D01*
X39453500Y-41971135D01*
X39551135Y-41873500D01*
X39665951Y-41796782D01*
X39793528Y-41743938D01*
X39928956Y-41717000D01*
X40067044Y-41717000D01*
X40202472Y-41743938D01*
X40202472Y-41743938D01*
G37*
G36*
X20390472Y-39243938D02*
X20518049Y-39296782D01*
X20632865Y-39373500D01*
X20730500Y-39471135D01*
X20807218Y-39585951D01*
X20860062Y-39713528D01*
X20887000Y-39848956D01*
X20887000Y-39987044D01*
X20860062Y-40122472D01*
X20807218Y-40250049D01*
X20730500Y-40364865D01*
X20632865Y-40462500D01*
X20518049Y-40539218D01*
X20390472Y-40592062D01*
X20255044Y-40619000D01*
X20116956Y-40619000D01*
X19981528Y-40592062D01*
X19853951Y-40539218D01*
X19739135Y-40462500D01*
X19641500Y-40364865D01*
X19564782Y-40250049D01*
X19511938Y-40122472D01*
X19485000Y-39987044D01*
X19485000Y-39848956D01*
X19511938Y-39713528D01*
X19564782Y-39585951D01*
X19641500Y-39471135D01*
X19739135Y-39373500D01*
X19853951Y-39296782D01*
X19981528Y-39243938D01*
X20116956Y-39217000D01*
X20255044Y-39217000D01*
X20390472Y-39243938D01*
X20390472Y-39243938D01*
G37*
G36*
X40202472Y-39243938D02*
X40330049Y-39296782D01*
X40444865Y-39373500D01*
X40542500Y-39471135D01*
X40619218Y-39585951D01*
X40672062Y-39713528D01*
X40699000Y-39848956D01*
X40699000Y-39987044D01*
X40672062Y-40122472D01*
X40619218Y-40250049D01*
X40542500Y-40364865D01*
X40444865Y-40462500D01*
X40330049Y-40539218D01*
X40202472Y-40592062D01*
X40067044Y-40619000D01*
X39928956Y-40619000D01*
X39793528Y-40592062D01*
X39665951Y-40539218D01*
X39551135Y-40462500D01*
X39453500Y-40364865D01*
X39376782Y-40250049D01*
X39323938Y-40122472D01*
X39297000Y-39987044D01*
X39297000Y-39848956D01*
X39323938Y-39713528D01*
X39376782Y-39585951D01*
X39453500Y-39471135D01*
X39551135Y-39373500D01*
X39665951Y-39296782D01*
X39793528Y-39243938D01*
X39928956Y-39217000D01*
X40067044Y-39217000D01*
X40202472Y-39243938D01*
X40202472Y-39243938D01*
G37*
G36*
X27992565Y-36607389D02*
X28183834Y-36686615D01*
X28355976Y-36801637D01*
X28502363Y-36948024D01*
X28617385Y-37120166D01*
X28696611Y-37311435D01*
X28737000Y-37514484D01*
X28737000Y-37721516D01*
X28696611Y-37924565D01*
X28617385Y-38115834D01*
X28502363Y-38287976D01*
X28355976Y-38434363D01*
X28183834Y-38549385D01*
X27992565Y-38628611D01*
X27789516Y-38669000D01*
X27582484Y-38669000D01*
X27379435Y-38628611D01*
X27188166Y-38549385D01*
X27016024Y-38434363D01*
X26869637Y-38287976D01*
X26754615Y-38115834D01*
X26675389Y-37924565D01*
X26635000Y-37721516D01*
X26635000Y-37514484D01*
X26675389Y-37311435D01*
X26754615Y-37120166D01*
X26869637Y-36948024D01*
X27016024Y-36801637D01*
X27188166Y-36686615D01*
X27379435Y-36607389D01*
X27582484Y-36567000D01*
X27789516Y-36567000D01*
X27992565Y-36607389D01*
X27992565Y-36607389D01*
G37*
G36*
X47804565Y-36607389D02*
X47995834Y-36686615D01*
X48167976Y-36801637D01*
X48314363Y-36948024D01*
X48429385Y-37120166D01*
X48508611Y-37311435D01*
X48549000Y-37514484D01*
X48549000Y-37721516D01*
X48508611Y-37924565D01*
X48429385Y-38115834D01*
X48314363Y-38287976D01*
X48167976Y-38434363D01*
X47995834Y-38549385D01*
X47804565Y-38628611D01*
X47601516Y-38669000D01*
X47394484Y-38669000D01*
X47191435Y-38628611D01*
X47000166Y-38549385D01*
X46828024Y-38434363D01*
X46681637Y-38287976D01*
X46566615Y-38115834D01*
X46487389Y-37924565D01*
X46447000Y-37721516D01*
X46447000Y-37514484D01*
X46487389Y-37311435D01*
X46566615Y-37120166D01*
X46681637Y-36948024D01*
X46828024Y-36801637D01*
X47000166Y-36686615D01*
X47191435Y-36607389D01*
X47394484Y-36567000D01*
X47601516Y-36567000D01*
X47804565Y-36607389D01*
X47804565Y-36607389D01*
G37*
G36*
X55352396Y-36400546D02*
X55525466Y-36472234D01*
X55681230Y-36576312D01*
X55813688Y-36708770D01*
X55917766Y-36864534D01*
X55989454Y-37037604D01*
X56026000Y-37221333D01*
X56026000Y-37408667D01*
X55989454Y-37592396D01*
X55917766Y-37765466D01*
X55813688Y-37921230D01*
X55681230Y-38053688D01*
X55525466Y-38157766D01*
X55352396Y-38229454D01*
X55168667Y-38266000D01*
X54981333Y-38266000D01*
X54797604Y-38229454D01*
X54624534Y-38157766D01*
X54468770Y-38053688D01*
X54336312Y-37921230D01*
X54232234Y-37765466D01*
X54160546Y-37592396D01*
X54124000Y-37408667D01*
X54124000Y-37221333D01*
X54160546Y-37037604D01*
X54232234Y-36864534D01*
X54336312Y-36708770D01*
X54468770Y-36576312D01*
X54624534Y-36472234D01*
X54797604Y-36400546D01*
X54981333Y-36364000D01*
X55168667Y-36364000D01*
X55352396Y-36400546D01*
X55352396Y-36400546D01*
G37*
G36*
X34987000Y-36765000D02*
X33085000Y-36765000D01*
X33085000Y-34863000D01*
X34987000Y-34863000D01*
X34987000Y-36765000D01*
X34987000Y-36765000D01*
G37*
G36*
X36853396Y-34899546D02*
X37026466Y-34971234D01*
X37182230Y-35075312D01*
X37314688Y-35207770D01*
X37418766Y-35363534D01*
X37490454Y-35536604D01*
X37527000Y-35720333D01*
X37527000Y-35907667D01*
X37490454Y-36091396D01*
X37418766Y-36264466D01*
X37314688Y-36420230D01*
X37182230Y-36552688D01*
X37026466Y-36656766D01*
X36853396Y-36728454D01*
X36669667Y-36765000D01*
X36482333Y-36765000D01*
X36298604Y-36728454D01*
X36125534Y-36656766D01*
X35969770Y-36552688D01*
X35837312Y-36420230D01*
X35733234Y-36264466D01*
X35661546Y-36091396D01*
X35625000Y-35907667D01*
X35625000Y-35720333D01*
X35661546Y-35536604D01*
X35733234Y-35363534D01*
X35837312Y-35207770D01*
X35969770Y-35075312D01*
X36125534Y-34971234D01*
X36298604Y-34899546D01*
X36482333Y-34863000D01*
X36669667Y-34863000D01*
X36853396Y-34899546D01*
X36853396Y-34899546D01*
G37*
G36*
X56026000Y-35726000D02*
X54124000Y-35726000D01*
X54124000Y-33824000D01*
X56026000Y-33824000D01*
X56026000Y-35726000D01*
X56026000Y-35726000D01*
G37*
G36*
X55242180Y-29843662D02*
X55343635Y-29853654D01*
X55560600Y-29919470D01*
X55560602Y-29919471D01*
X55560605Y-29919472D01*
X55760556Y-30026347D01*
X55935818Y-30170182D01*
X56079653Y-30345444D01*
X56186528Y-30545395D01*
X56186529Y-30545398D01*
X56186530Y-30545400D01*
X56252346Y-30762365D01*
X56274569Y-30988000D01*
X56252346Y-31213635D01*
X56207841Y-31360346D01*
X56186528Y-31430605D01*
X56079653Y-31630556D01*
X55935818Y-31805818D01*
X55760556Y-31949653D01*
X55560605Y-32056528D01*
X55560602Y-32056529D01*
X55560600Y-32056530D01*
X55343635Y-32122346D01*
X55242180Y-32132338D01*
X55174545Y-32139000D01*
X55061455Y-32139000D01*
X54993820Y-32132338D01*
X54892365Y-32122346D01*
X54675400Y-32056530D01*
X54675398Y-32056529D01*
X54675395Y-32056528D01*
X54475444Y-31949653D01*
X54300182Y-31805818D01*
X54156347Y-31630556D01*
X54049472Y-31430605D01*
X54028159Y-31360346D01*
X53983654Y-31213635D01*
X53961431Y-30988000D01*
X53983654Y-30762365D01*
X54049470Y-30545400D01*
X54049471Y-30545398D01*
X54049472Y-30545395D01*
X54156347Y-30345444D01*
X54300182Y-30170182D01*
X54475444Y-30026347D01*
X54675395Y-29919472D01*
X54675398Y-29919471D01*
X54675400Y-29919470D01*
X54892365Y-29853654D01*
X54993820Y-29843662D01*
X55061455Y-29837000D01*
X55174545Y-29837000D01*
X55242180Y-29843662D01*
X55242180Y-29843662D01*
G37*
G36*
X20190180Y-29081662D02*
X20291635Y-29091654D01*
X20508600Y-29157470D01*
X20508602Y-29157471D01*
X20508605Y-29157472D01*
X20708556Y-29264347D01*
X20883818Y-29408182D01*
X21027653Y-29583444D01*
X21134528Y-29783395D01*
X21134529Y-29783398D01*
X21134530Y-29783400D01*
X21200346Y-30000365D01*
X21222569Y-30226000D01*
X21200346Y-30451635D01*
X21134530Y-30668600D01*
X21134528Y-30668605D01*
X21027653Y-30868556D01*
X20883818Y-31043818D01*
X20708556Y-31187653D01*
X20508605Y-31294528D01*
X20508602Y-31294529D01*
X20508600Y-31294530D01*
X20291635Y-31360346D01*
X20190180Y-31370338D01*
X20122545Y-31377000D01*
X20009455Y-31377000D01*
X19941820Y-31370338D01*
X19840365Y-31360346D01*
X19623400Y-31294530D01*
X19623398Y-31294529D01*
X19623395Y-31294528D01*
X19423444Y-31187653D01*
X19248182Y-31043818D01*
X19104347Y-30868556D01*
X18997472Y-30668605D01*
X18997470Y-30668600D01*
X18931654Y-30451635D01*
X18909431Y-30226000D01*
X18931654Y-30000365D01*
X18997470Y-29783400D01*
X18997471Y-29783398D01*
X18997472Y-29783395D01*
X19104347Y-29583444D01*
X19248182Y-29408182D01*
X19423444Y-29264347D01*
X19623395Y-29157472D01*
X19623398Y-29157471D01*
X19623400Y-29157470D01*
X19840365Y-29091654D01*
X19941820Y-29081662D01*
X20009455Y-29075000D01*
X20122545Y-29075000D01*
X20190180Y-29081662D01*
X20190180Y-29081662D01*
G37*
G36*
X31377000Y-31377000D02*
X29075000Y-31377000D01*
X29075000Y-29075000D01*
X31377000Y-29075000D01*
X31377000Y-31377000D01*
X31377000Y-31377000D01*
G37*
G36*
X47804565Y-25633389D02*
X47995834Y-25712615D01*
X48167976Y-25827637D01*
X48314363Y-25974024D01*
X48429385Y-26146166D01*
X48508611Y-26337435D01*
X48549000Y-26540484D01*
X48549000Y-26747516D01*
X48508611Y-26950565D01*
X48429385Y-27141834D01*
X48314363Y-27313976D01*
X48167976Y-27460363D01*
X47995834Y-27575385D01*
X47804565Y-27654611D01*
X47601516Y-27695000D01*
X47394484Y-27695000D01*
X47191435Y-27654611D01*
X47000166Y-27575385D01*
X46828024Y-27460363D01*
X46681637Y-27313976D01*
X46566615Y-27141834D01*
X46487389Y-26950565D01*
X46447000Y-26747516D01*
X46447000Y-26540484D01*
X46487389Y-26337435D01*
X46566615Y-26146166D01*
X46681637Y-25974024D01*
X46828024Y-25827637D01*
X47000166Y-25712615D01*
X47191435Y-25633389D01*
X47394484Y-25593000D01*
X47601516Y-25593000D01*
X47804565Y-25633389D01*
X47804565Y-25633389D01*
G37*
G36*
X27992565Y-25633389D02*
X28183834Y-25712615D01*
X28355976Y-25827637D01*
X28502363Y-25974024D01*
X28617385Y-26146166D01*
X28696611Y-26337435D01*
X28737000Y-26540484D01*
X28737000Y-26747516D01*
X28696611Y-26950565D01*
X28617385Y-27141834D01*
X28502363Y-27313976D01*
X28355976Y-27460363D01*
X28183834Y-27575385D01*
X27992565Y-27654611D01*
X27789516Y-27695000D01*
X27582484Y-27695000D01*
X27379435Y-27654611D01*
X27188166Y-27575385D01*
X27016024Y-27460363D01*
X26869637Y-27313976D01*
X26754615Y-27141834D01*
X26675389Y-26950565D01*
X26635000Y-26747516D01*
X26635000Y-26540484D01*
X26675389Y-26337435D01*
X26754615Y-26146166D01*
X26869637Y-25974024D01*
X27016024Y-25827637D01*
X27188166Y-25712615D01*
X27379435Y-25633389D01*
X27582484Y-25593000D01*
X27789516Y-25593000D01*
X27992565Y-25633389D01*
X27992565Y-25633389D01*
G37*
G36*
X40202472Y-23669938D02*
X40330049Y-23722782D01*
X40444865Y-23799500D01*
X40542500Y-23897135D01*
X40619218Y-24011951D01*
X40672062Y-24139528D01*
X40699000Y-24274956D01*
X40699000Y-24413044D01*
X40672062Y-24548472D01*
X40619218Y-24676049D01*
X40542500Y-24790865D01*
X40444865Y-24888500D01*
X40330049Y-24965218D01*
X40202472Y-25018062D01*
X40067044Y-25045000D01*
X39928956Y-25045000D01*
X39793528Y-25018062D01*
X39665951Y-24965218D01*
X39551135Y-24888500D01*
X39453500Y-24790865D01*
X39376782Y-24676049D01*
X39323938Y-24548472D01*
X39297000Y-24413044D01*
X39297000Y-24274956D01*
X39323938Y-24139528D01*
X39376782Y-24011951D01*
X39453500Y-23897135D01*
X39551135Y-23799500D01*
X39665951Y-23722782D01*
X39793528Y-23669938D01*
X39928956Y-23643000D01*
X40067044Y-23643000D01*
X40202472Y-23669938D01*
X40202472Y-23669938D01*
G37*
G36*
X20390472Y-23669938D02*
X20518049Y-23722782D01*
X20632865Y-23799500D01*
X20730500Y-23897135D01*
X20807218Y-24011951D01*
X20860062Y-24139528D01*
X20887000Y-24274956D01*
X20887000Y-24413044D01*
X20860062Y-24548472D01*
X20807218Y-24676049D01*
X20730500Y-24790865D01*
X20632865Y-24888500D01*
X20518049Y-24965218D01*
X20390472Y-25018062D01*
X20255044Y-25045000D01*
X20116956Y-25045000D01*
X19981528Y-25018062D01*
X19853951Y-24965218D01*
X19739135Y-24888500D01*
X19641500Y-24790865D01*
X19564782Y-24676049D01*
X19511938Y-24548472D01*
X19485000Y-24413044D01*
X19485000Y-24274956D01*
X19511938Y-24139528D01*
X19564782Y-24011951D01*
X19641500Y-23897135D01*
X19739135Y-23799500D01*
X19853951Y-23722782D01*
X19981528Y-23669938D01*
X20116956Y-23643000D01*
X20255044Y-23643000D01*
X20390472Y-23669938D01*
X20390472Y-23669938D01*
G37*
G36*
X20390472Y-21169938D02*
X20518049Y-21222782D01*
X20632865Y-21299500D01*
X20730500Y-21397135D01*
X20807218Y-21511951D01*
X20860062Y-21639528D01*
X20887000Y-21774956D01*
X20887000Y-21913044D01*
X20860062Y-22048472D01*
X20807218Y-22176049D01*
X20730500Y-22290865D01*
X20632865Y-22388500D01*
X20518049Y-22465218D01*
X20390472Y-22518062D01*
X20255044Y-22545000D01*
X20116956Y-22545000D01*
X19981528Y-22518062D01*
X19853951Y-22465218D01*
X19739135Y-22388500D01*
X19641500Y-22290865D01*
X19564782Y-22176049D01*
X19511938Y-22048472D01*
X19485000Y-21913044D01*
X19485000Y-21774956D01*
X19511938Y-21639528D01*
X19564782Y-21511951D01*
X19641500Y-21397135D01*
X19739135Y-21299500D01*
X19853951Y-21222782D01*
X19981528Y-21169938D01*
X20116956Y-21143000D01*
X20255044Y-21143000D01*
X20390472Y-21169938D01*
X20390472Y-21169938D01*
G37*
G36*
X40202472Y-21169938D02*
X40330049Y-21222782D01*
X40444865Y-21299500D01*
X40542500Y-21397135D01*
X40619218Y-21511951D01*
X40672062Y-21639528D01*
X40699000Y-21774956D01*
X40699000Y-21913044D01*
X40672062Y-22048472D01*
X40619218Y-22176049D01*
X40542500Y-22290865D01*
X40444865Y-22388500D01*
X40330049Y-22465218D01*
X40202472Y-22518062D01*
X40067044Y-22545000D01*
X39928956Y-22545000D01*
X39793528Y-22518062D01*
X39665951Y-22465218D01*
X39551135Y-22388500D01*
X39453500Y-22290865D01*
X39376782Y-22176049D01*
X39323938Y-22048472D01*
X39297000Y-21913044D01*
X39297000Y-21774956D01*
X39323938Y-21639528D01*
X39376782Y-21511951D01*
X39453500Y-21397135D01*
X39551135Y-21299500D01*
X39665951Y-21222782D01*
X39793528Y-21169938D01*
X39928956Y-21143000D01*
X40067044Y-21143000D01*
X40202472Y-21169938D01*
X40202472Y-21169938D01*
G37*
G36*
X56269000Y-21979000D02*
X53967000Y-21979000D01*
X53967000Y-19677000D01*
X56269000Y-19677000D01*
X56269000Y-21979000D01*
X56269000Y-21979000D01*
G37*
G36*
X40202472Y-18669938D02*
X40330049Y-18722782D01*
X40444865Y-18799500D01*
X40542500Y-18897135D01*
X40619218Y-19011951D01*
X40672062Y-19139528D01*
X40699000Y-19274956D01*
X40699000Y-19413044D01*
X40672062Y-19548472D01*
X40619218Y-19676049D01*
X40542500Y-19790865D01*
X40444865Y-19888500D01*
X40330049Y-19965218D01*
X40202472Y-20018062D01*
X40067044Y-20045000D01*
X39928956Y-20045000D01*
X39793528Y-20018062D01*
X39665951Y-19965218D01*
X39551135Y-19888500D01*
X39453500Y-19790865D01*
X39376782Y-19676049D01*
X39323938Y-19548472D01*
X39297000Y-19413044D01*
X39297000Y-19274956D01*
X39323938Y-19139528D01*
X39376782Y-19011951D01*
X39453500Y-18897135D01*
X39551135Y-18799500D01*
X39665951Y-18722782D01*
X39793528Y-18669938D01*
X39928956Y-18643000D01*
X40067044Y-18643000D01*
X40202472Y-18669938D01*
X40202472Y-18669938D01*
G37*
G36*
X20390472Y-18669938D02*
X20518049Y-18722782D01*
X20632865Y-18799500D01*
X20730500Y-18897135D01*
X20807218Y-19011951D01*
X20860062Y-19139528D01*
X20887000Y-19274956D01*
X20887000Y-19413044D01*
X20860062Y-19548472D01*
X20807218Y-19676049D01*
X20730500Y-19790865D01*
X20632865Y-19888500D01*
X20518049Y-19965218D01*
X20390472Y-20018062D01*
X20255044Y-20045000D01*
X20116956Y-20045000D01*
X19981528Y-20018062D01*
X19853951Y-19965218D01*
X19739135Y-19888500D01*
X19641500Y-19790865D01*
X19564782Y-19676049D01*
X19511938Y-19548472D01*
X19485000Y-19413044D01*
X19485000Y-19274956D01*
X19511938Y-19139528D01*
X19564782Y-19011951D01*
X19641500Y-18897135D01*
X19739135Y-18799500D01*
X19853951Y-18722782D01*
X19981528Y-18669938D01*
X20116956Y-18643000D01*
X20255044Y-18643000D01*
X20390472Y-18669938D01*
X20390472Y-18669938D01*
G37*
G36*
X27992565Y-16033389D02*
X28183834Y-16112615D01*
X28355976Y-16227637D01*
X28502363Y-16374024D01*
X28617385Y-16546166D01*
X28696611Y-16737435D01*
X28737000Y-16940484D01*
X28737000Y-17147516D01*
X28696611Y-17350565D01*
X28617385Y-17541834D01*
X28502363Y-17713976D01*
X28355976Y-17860363D01*
X28183834Y-17975385D01*
X27992565Y-18054611D01*
X27789516Y-18095000D01*
X27582484Y-18095000D01*
X27379435Y-18054611D01*
X27188166Y-17975385D01*
X27016024Y-17860363D01*
X26869637Y-17713976D01*
X26754615Y-17541834D01*
X26675389Y-17350565D01*
X26635000Y-17147516D01*
X26635000Y-16940484D01*
X26675389Y-16737435D01*
X26754615Y-16546166D01*
X26869637Y-16374024D01*
X27016024Y-16227637D01*
X27188166Y-16112615D01*
X27379435Y-16033389D01*
X27582484Y-15993000D01*
X27789516Y-15993000D01*
X27992565Y-16033389D01*
X27992565Y-16033389D01*
G37*
G36*
X47804565Y-16033389D02*
X47995834Y-16112615D01*
X48167976Y-16227637D01*
X48314363Y-16374024D01*
X48429385Y-16546166D01*
X48508611Y-16737435D01*
X48549000Y-16940484D01*
X48549000Y-17147516D01*
X48508611Y-17350565D01*
X48429385Y-17541834D01*
X48314363Y-17713976D01*
X48167976Y-17860363D01*
X47995834Y-17975385D01*
X47804565Y-18054611D01*
X47601516Y-18095000D01*
X47394484Y-18095000D01*
X47191435Y-18054611D01*
X47000166Y-17975385D01*
X46828024Y-17860363D01*
X46681637Y-17713976D01*
X46566615Y-17541834D01*
X46487389Y-17350565D01*
X46447000Y-17147516D01*
X46447000Y-16940484D01*
X46487389Y-16737435D01*
X46566615Y-16546166D01*
X46681637Y-16374024D01*
X46828024Y-16227637D01*
X47000166Y-16112615D01*
X47191435Y-16033389D01*
X47394484Y-15993000D01*
X47601516Y-15993000D01*
X47804565Y-16033389D01*
X47804565Y-16033389D01*
G37*
G36*
X56069000Y-17715000D02*
X54167000Y-17715000D01*
X54167000Y-15813000D01*
X56069000Y-15813000D01*
X56069000Y-17715000D01*
X56069000Y-17715000D01*
G37*
G36*
X36257000Y-17715000D02*
X34355000Y-17715000D01*
X34355000Y-15813000D01*
X36257000Y-15813000D01*
X36257000Y-17715000D01*
X36257000Y-17715000D01*
G37*
G36*
X55395396Y-13309546D02*
X55568466Y-13381234D01*
X55724230Y-13485312D01*
X55856688Y-13617770D01*
X55960766Y-13773534D01*
X56032454Y-13946604D01*
X56069000Y-14130333D01*
X56069000Y-14317667D01*
X56032454Y-14501396D01*
X55960766Y-14674466D01*
X55856688Y-14830230D01*
X55724230Y-14962688D01*
X55568466Y-15066766D01*
X55395396Y-15138454D01*
X55211667Y-15175000D01*
X55024333Y-15175000D01*
X54840604Y-15138454D01*
X54667534Y-15066766D01*
X54511770Y-14962688D01*
X54379312Y-14830230D01*
X54275234Y-14674466D01*
X54203546Y-14501396D01*
X54167000Y-14317667D01*
X54167000Y-14130333D01*
X54203546Y-13946604D01*
X54275234Y-13773534D01*
X54379312Y-13617770D01*
X54511770Y-13485312D01*
X54667534Y-13381234D01*
X54840604Y-13309546D01*
X55024333Y-13273000D01*
X55211667Y-13273000D01*
X55395396Y-13309546D01*
X55395396Y-13309546D01*
G37*
G36*
X35583396Y-13309546D02*
X35756466Y-13381234D01*
X35912230Y-13485312D01*
X36044688Y-13617770D01*
X36148766Y-13773534D01*
X36220454Y-13946604D01*
X36257000Y-14130333D01*
X36257000Y-14317667D01*
X36220454Y-14501396D01*
X36148766Y-14674466D01*
X36044688Y-14830230D01*
X35912230Y-14962688D01*
X35756466Y-15066766D01*
X35583396Y-15138454D01*
X35399667Y-15175000D01*
X35212333Y-15175000D01*
X35028604Y-15138454D01*
X34855534Y-15066766D01*
X34699770Y-14962688D01*
X34567312Y-14830230D01*
X34463234Y-14674466D01*
X34391546Y-14501396D01*
X34355000Y-14317667D01*
X34355000Y-14130333D01*
X34391546Y-13946604D01*
X34463234Y-13773534D01*
X34567312Y-13617770D01*
X34699770Y-13485312D01*
X34855534Y-13381234D01*
X35028604Y-13309546D01*
X35212333Y-13273000D01*
X35399667Y-13273000D01*
X35583396Y-13309546D01*
X35583396Y-13309546D01*
G37*
M02*
