%TF.GenerationSoftware,KiCad,Pcbnew,(5.0.1)-3*%
%TF.CreationDate,2020-01-29T23:15:48+00:00*%
%TF.ProjectId,SSv2 Panel,535376322050616E656C2E6B69636164,rev?*%
%TF.SameCoordinates,Original*%
%TF.FileFunction,Profile,NP*%
%FSLAX46Y46*%
G04 Gerber Fmt 4.6, Leading zero omitted, Abs format (unit mm)*
G04 Created by KiCad (PCBNEW (5.0.1)-3) date 29/01/2020 23:15:48*
%MOMM*%
%LPD*%
G01*
G04 APERTURE LIST*
%ADD10C,0.150000*%
%ADD11C,0.200000*%
G04 APERTURE END LIST*
D10*
X215000000Y-123850000D02*
X215000000Y-83850000D01*
X218000000Y-123850000D02*
X215000000Y-123850000D01*
X218000000Y-83850000D02*
X218000000Y-123850000D01*
X215000000Y-83850000D02*
X218000000Y-83850000D01*
X204000000Y-83900000D02*
X204000000Y-83850000D01*
X204000000Y-123850000D02*
X204000000Y-83900000D01*
X207000000Y-123850000D02*
X204000000Y-123850000D01*
X207000000Y-83850000D02*
X207000000Y-123850000D01*
X204000000Y-83850000D02*
X207000000Y-83850000D01*
X193150000Y-123850000D02*
X193150000Y-83850000D01*
X196150000Y-123850000D02*
X193150000Y-123850000D01*
X196150000Y-83850000D02*
X196150000Y-123850000D01*
X193150000Y-83850000D02*
X196150000Y-83850000D01*
X182250000Y-123850000D02*
X182250000Y-83850000D01*
X185250000Y-123850000D02*
X182250000Y-123850000D01*
X185250000Y-83850000D02*
X185250000Y-123850000D01*
X182250000Y-83850000D02*
X185250000Y-83850000D01*
X171400000Y-123850000D02*
X171400000Y-83850000D01*
X174400000Y-123850000D02*
X171400000Y-123850000D01*
X174400000Y-83850000D02*
X174400000Y-123850000D01*
X171400000Y-83850000D02*
X174400000Y-83850000D01*
X160500000Y-123850000D02*
X160500000Y-83850000D01*
X163500000Y-123850000D02*
X160500000Y-123850000D01*
X163500000Y-123800000D02*
X163500000Y-123850000D01*
X163500000Y-83850000D02*
X163500000Y-123800000D01*
X160500000Y-83850000D02*
X163500000Y-83850000D01*
X149650000Y-123850000D02*
X149650000Y-83850000D01*
X152650000Y-123850000D02*
X149650000Y-123850000D01*
X152650000Y-83850000D02*
X152650000Y-123850000D01*
X149650000Y-83850000D02*
X152650000Y-83850000D01*
X138800000Y-123850000D02*
X138800000Y-83850000D01*
X141800000Y-123850000D02*
X138800000Y-123850000D01*
X141800000Y-83850000D02*
X141800000Y-123850000D01*
X138800000Y-83850000D02*
X141800000Y-83850000D01*
X127850000Y-123850000D02*
X127850000Y-83850000D01*
X130850000Y-123850000D02*
X127850000Y-123850000D01*
X130850000Y-83850000D02*
X130850000Y-123850000D01*
X127850000Y-83850000D02*
X130850000Y-83850000D01*
X215050000Y-78850000D02*
X215050000Y-47350000D01*
X218050000Y-78850000D02*
X215050000Y-78850000D01*
X218050000Y-47350000D02*
X218050000Y-78850000D01*
X215050000Y-47350000D02*
X218050000Y-47350000D01*
X204000000Y-78850000D02*
X204000000Y-47350000D01*
X207000000Y-78850000D02*
X204000000Y-78850000D01*
X207000000Y-47350000D02*
X207000000Y-78850000D01*
X204000000Y-47350000D02*
X207000000Y-47350000D01*
X193100000Y-78850000D02*
X193100000Y-47350000D01*
X196100000Y-78850000D02*
X193100000Y-78850000D01*
X196100000Y-47350000D02*
X196100000Y-78850000D01*
X193100000Y-47350000D02*
X196100000Y-47350000D01*
X182250000Y-78850000D02*
X182250000Y-47350000D01*
X185250000Y-78850000D02*
X182250000Y-78850000D01*
X185250000Y-47350000D02*
X185250000Y-78850000D01*
X182250000Y-47350000D02*
X185250000Y-47350000D01*
X171350000Y-78850000D02*
X171350000Y-47350000D01*
X174350000Y-78850000D02*
X171350000Y-78850000D01*
X174350000Y-47350000D02*
X174350000Y-78850000D01*
X171350000Y-47350000D02*
X174350000Y-47350000D01*
X160500000Y-78850000D02*
X160500000Y-47350000D01*
X163500000Y-78850000D02*
X160500000Y-78850000D01*
X163500000Y-47350000D02*
X163500000Y-78850000D01*
X160500000Y-47350000D02*
X163500000Y-47350000D01*
X149650000Y-78850000D02*
X149650000Y-47400000D01*
X152650000Y-78850000D02*
X149650000Y-78850000D01*
X152650000Y-47350000D02*
X152650000Y-78850000D01*
X149650000Y-47350000D02*
X152650000Y-47350000D01*
D11*
X138750000Y-78850000D02*
X138750000Y-47400000D01*
X141750000Y-78850000D02*
X138750000Y-78850000D01*
X141750000Y-47350000D02*
X141750000Y-78850000D01*
X138750000Y-47350000D02*
X141750000Y-47350000D01*
X127900000Y-78850000D02*
X127900000Y-47350000D01*
X130900000Y-78850000D02*
X127900000Y-78850000D01*
X130900000Y-47350000D02*
X130900000Y-78850000D01*
X127900000Y-47350000D02*
X130900000Y-47350000D01*
D10*
X65400000Y-150100000D02*
X273650000Y-150100000D01*
X273650000Y-150100000D02*
X273650000Y-21650000D01*
X65400000Y-150100000D02*
X65400000Y-21650000D01*
X65400000Y-21650000D02*
X273650000Y-21650000D01*
M02*
