M48
;DRILL file {KiCad (5.0.1)-3} date 29/01/2020 23:15:54
;FORMAT={-:-/ absolute / inch / decimal}
FMAT,2
INCH,TZ
T1C0.1299
T2C0.2441
T3C0.2835
%
G90
G05
M72
T1
X2.8701Y-5.7913
X10.4783Y-5.7913
X10.498Y-0.9705
X2.8701Y-0.9705
T2
X7.6673Y-1.5098
X5.9537Y-1.5098
X8.0906Y-5.25
X3.3957Y-5.251
X3.8189Y-5.251
X3.8189Y-2.75
X4.252Y-1.5098
X7.2343Y-5.25
X4.6752Y-5.251
X10.437Y-3.8179
X3.3957Y-3.375
X4.6752Y-2.75
X8.0906Y-1.5098
X7.2343Y-1.5098
X5.9449Y-5.25
X3.3957Y-4.626
X4.6752Y-4.625
X6.3878Y-1.5089
X5.5118Y-5.25
X6.811Y-1.5098
X10.437Y-3.0719
X4.6752Y-4.
X10.437Y-2.3248
X10.437Y-4.565
X3.3957Y-2.75
X3.8189Y-4.
X4.252Y-5.251
X6.378Y-5.25
X3.8189Y-4.625
X3.3967Y-1.5108
X4.252Y-4.
X4.252Y-3.375
X4.252Y-4.625
X5.5217Y-1.5089
X5.0974Y-1.5098
X7.6673Y-5.25
X3.8189Y-3.375
X3.3957Y-4.
X4.6752Y-1.5108
X3.8189Y-1.5098
X5.0984Y-5.25
X6.8012Y-5.25
X4.6752Y-3.375
X4.252Y-2.75
T3
X9.4685Y-5.25
X9.4606Y-3.8179
X9.4606Y-3.0719
X2.9606Y-1.5374
X2.9606Y-2.1319
X3.3967Y-2.1299
X3.8287Y-2.1299
X4.6752Y-2.1299
X9.4803Y-1.498
X4.2717Y-2.1299
X9.4606Y-4.565
X9.4606Y-2.3248
T0
M30
