%TF.GenerationSoftware,KiCad,Pcbnew,(5.0.1)-3*%
%TF.CreationDate,2020-01-29T23:15:48+00:00*%
%TF.ProjectId,SSv2 Panel,535376322050616E656C2E6B69636164,rev?*%
%TF.SameCoordinates,Original*%
%TF.FileFunction,Soldermask,Top*%
%TF.FilePolarity,Negative*%
%FSLAX46Y46*%
G04 Gerber Fmt 4.6, Leading zero omitted, Abs format (unit mm)*
G04 Created by KiCad (PCBNEW (5.0.1)-3) date 29/01/2020 23:15:48*
%MOMM*%
%LPD*%
G01*
G04 APERTURE LIST*
%ADD10C,0.100000*%
G04 APERTURE END LIST*
D10*
G36*
X266646160Y-145464368D02*
X266646162Y-145464369D01*
X266646163Y-145464369D01*
X266760514Y-145511735D01*
X266955726Y-145592594D01*
X267234327Y-145778749D01*
X267471251Y-146015673D01*
X267657406Y-146294274D01*
X267785632Y-146603840D01*
X267851000Y-146932465D01*
X267851000Y-147267535D01*
X267785632Y-147596160D01*
X267657406Y-147905726D01*
X267471251Y-148184327D01*
X267234327Y-148421251D01*
X266955726Y-148607406D01*
X266760514Y-148688265D01*
X266646163Y-148735631D01*
X266646162Y-148735631D01*
X266646160Y-148735632D01*
X266317535Y-148801000D01*
X265982465Y-148801000D01*
X265653840Y-148735632D01*
X265653838Y-148735631D01*
X265653837Y-148735631D01*
X265539486Y-148688265D01*
X265344274Y-148607406D01*
X265065673Y-148421251D01*
X264828749Y-148184327D01*
X264642594Y-147905726D01*
X264514368Y-147596160D01*
X264449000Y-147267535D01*
X264449000Y-146932465D01*
X264514368Y-146603840D01*
X264642594Y-146294274D01*
X264828749Y-146015673D01*
X265065673Y-145778749D01*
X265344274Y-145592594D01*
X265539486Y-145511735D01*
X265653837Y-145464369D01*
X265653838Y-145464369D01*
X265653840Y-145464368D01*
X265982465Y-145399000D01*
X266317535Y-145399000D01*
X266646160Y-145464368D01*
X266646160Y-145464368D01*
G37*
G36*
X73396160Y-145464368D02*
X73396162Y-145464369D01*
X73396163Y-145464369D01*
X73510514Y-145511735D01*
X73705726Y-145592594D01*
X73984327Y-145778749D01*
X74221251Y-146015673D01*
X74407406Y-146294274D01*
X74535632Y-146603840D01*
X74601000Y-146932465D01*
X74601000Y-147267535D01*
X74535632Y-147596160D01*
X74407406Y-147905726D01*
X74221251Y-148184327D01*
X73984327Y-148421251D01*
X73705726Y-148607406D01*
X73510514Y-148688265D01*
X73396163Y-148735631D01*
X73396162Y-148735631D01*
X73396160Y-148735632D01*
X73067535Y-148801000D01*
X72732465Y-148801000D01*
X72403840Y-148735632D01*
X72403838Y-148735631D01*
X72403837Y-148735631D01*
X72289486Y-148688265D01*
X72094274Y-148607406D01*
X71815673Y-148421251D01*
X71578749Y-148184327D01*
X71392594Y-147905726D01*
X71264368Y-147596160D01*
X71199000Y-147267535D01*
X71199000Y-146932465D01*
X71264368Y-146603840D01*
X71392594Y-146294274D01*
X71578749Y-146015673D01*
X71815673Y-145778749D01*
X72094274Y-145592594D01*
X72289486Y-145511735D01*
X72403837Y-145464369D01*
X72403838Y-145464369D01*
X72403840Y-145464368D01*
X72732465Y-145399000D01*
X73067535Y-145399000D01*
X73396160Y-145464368D01*
X73396160Y-145464368D01*
G37*
G36*
X241094714Y-129745769D02*
X241564958Y-129839306D01*
X242229397Y-130114525D01*
X242827377Y-130514083D01*
X243335917Y-131022623D01*
X243735475Y-131620603D01*
X244010694Y-132285042D01*
X244151000Y-132990408D01*
X244151000Y-133709592D01*
X244010694Y-134414958D01*
X243735475Y-135079397D01*
X243335917Y-135677377D01*
X242827377Y-136185917D01*
X242229397Y-136585475D01*
X241564958Y-136860694D01*
X241094714Y-136954231D01*
X240859593Y-137001000D01*
X240140407Y-137001000D01*
X239905286Y-136954231D01*
X239435042Y-136860694D01*
X238770603Y-136585475D01*
X238172623Y-136185917D01*
X237664083Y-135677377D01*
X237264525Y-135079397D01*
X236989306Y-134414958D01*
X236849000Y-133709592D01*
X236849000Y-132990408D01*
X236989306Y-132285042D01*
X237264525Y-131620603D01*
X237664083Y-131022623D01*
X238172623Y-130514083D01*
X238770603Y-130114525D01*
X239435042Y-129839306D01*
X239905286Y-129745769D01*
X240140407Y-129699000D01*
X240859593Y-129699000D01*
X241094714Y-129745769D01*
X241094714Y-129745769D01*
G37*
G36*
X108716191Y-130304727D02*
X108919113Y-130345091D01*
X109492558Y-130582620D01*
X109971230Y-130902459D01*
X110008648Y-130927461D01*
X110447539Y-131366352D01*
X110447541Y-131366355D01*
X110792380Y-131882442D01*
X111019554Y-132430888D01*
X111029909Y-132455888D01*
X111151000Y-133064652D01*
X111151000Y-133685348D01*
X111146177Y-133709593D01*
X111029909Y-134294113D01*
X110792380Y-134867558D01*
X110650833Y-135079397D01*
X110447539Y-135383648D01*
X110008648Y-135822539D01*
X110008645Y-135822541D01*
X109492558Y-136167380D01*
X108919113Y-136404909D01*
X108716191Y-136445273D01*
X108310348Y-136526000D01*
X107689652Y-136526000D01*
X107283809Y-136445273D01*
X107080887Y-136404909D01*
X106507442Y-136167380D01*
X105991355Y-135822541D01*
X105991352Y-135822539D01*
X105552461Y-135383648D01*
X105349167Y-135079397D01*
X105207620Y-134867558D01*
X104970091Y-134294113D01*
X104853823Y-133709593D01*
X104849000Y-133685348D01*
X104849000Y-133064652D01*
X104970091Y-132455888D01*
X104980446Y-132430888D01*
X105207620Y-131882442D01*
X105552459Y-131366355D01*
X105552461Y-131366352D01*
X105991352Y-130927461D01*
X106028770Y-130902459D01*
X106507442Y-130582620D01*
X107080887Y-130345091D01*
X107283809Y-130304727D01*
X107689652Y-130224000D01*
X108310348Y-130224000D01*
X108716191Y-130304727D01*
X108716191Y-130304727D01*
G37*
G36*
X119466191Y-130304727D02*
X119669113Y-130345091D01*
X120242558Y-130582620D01*
X120721230Y-130902459D01*
X120758648Y-130927461D01*
X121197539Y-131366352D01*
X121197541Y-131366355D01*
X121542380Y-131882442D01*
X121769554Y-132430888D01*
X121779909Y-132455888D01*
X121901000Y-133064652D01*
X121901000Y-133685348D01*
X121896177Y-133709593D01*
X121779909Y-134294113D01*
X121542380Y-134867558D01*
X121400833Y-135079397D01*
X121197539Y-135383648D01*
X120758648Y-135822539D01*
X120758645Y-135822541D01*
X120242558Y-136167380D01*
X119669113Y-136404909D01*
X119466191Y-136445273D01*
X119060348Y-136526000D01*
X118439652Y-136526000D01*
X118033809Y-136445273D01*
X117830887Y-136404909D01*
X117257442Y-136167380D01*
X116741355Y-135822541D01*
X116741352Y-135822539D01*
X116302461Y-135383648D01*
X116099167Y-135079397D01*
X115957620Y-134867558D01*
X115720091Y-134294113D01*
X115603823Y-133709593D01*
X115599000Y-133685348D01*
X115599000Y-133064652D01*
X115720091Y-132455888D01*
X115730446Y-132430888D01*
X115957620Y-131882442D01*
X116302459Y-131366355D01*
X116302461Y-131366352D01*
X116741352Y-130927461D01*
X116778770Y-130902459D01*
X117257442Y-130582620D01*
X117830887Y-130345091D01*
X118033809Y-130304727D01*
X118439652Y-130224000D01*
X119060348Y-130224000D01*
X119466191Y-130304727D01*
X119466191Y-130304727D01*
G37*
G36*
X97716191Y-130304727D02*
X97919113Y-130345091D01*
X98492558Y-130582620D01*
X98971230Y-130902459D01*
X99008648Y-130927461D01*
X99447539Y-131366352D01*
X99447541Y-131366355D01*
X99792380Y-131882442D01*
X100019554Y-132430888D01*
X100029909Y-132455888D01*
X100151000Y-133064652D01*
X100151000Y-133685348D01*
X100146177Y-133709593D01*
X100029909Y-134294113D01*
X99792380Y-134867558D01*
X99650833Y-135079397D01*
X99447539Y-135383648D01*
X99008648Y-135822539D01*
X99008645Y-135822541D01*
X98492558Y-136167380D01*
X97919113Y-136404909D01*
X97716191Y-136445273D01*
X97310348Y-136526000D01*
X96689652Y-136526000D01*
X96283809Y-136445273D01*
X96080887Y-136404909D01*
X95507442Y-136167380D01*
X94991355Y-135822541D01*
X94991352Y-135822539D01*
X94552461Y-135383648D01*
X94349167Y-135079397D01*
X94207620Y-134867558D01*
X93970091Y-134294113D01*
X93853823Y-133709593D01*
X93849000Y-133685348D01*
X93849000Y-133064652D01*
X93970091Y-132455888D01*
X93980446Y-132430888D01*
X94207620Y-131882442D01*
X94552459Y-131366355D01*
X94552461Y-131366352D01*
X94991352Y-130927461D01*
X95028770Y-130902459D01*
X95507442Y-130582620D01*
X96080887Y-130345091D01*
X96283809Y-130304727D01*
X96689652Y-130224000D01*
X97310348Y-130224000D01*
X97716191Y-130304727D01*
X97716191Y-130304727D01*
G37*
G36*
X86966191Y-130304727D02*
X87169113Y-130345091D01*
X87742558Y-130582620D01*
X88221230Y-130902459D01*
X88258648Y-130927461D01*
X88697539Y-131366352D01*
X88697541Y-131366355D01*
X89042380Y-131882442D01*
X89269554Y-132430888D01*
X89279909Y-132455888D01*
X89401000Y-133064652D01*
X89401000Y-133685348D01*
X89396177Y-133709593D01*
X89279909Y-134294113D01*
X89042380Y-134867558D01*
X88900833Y-135079397D01*
X88697539Y-135383648D01*
X88258648Y-135822539D01*
X88258645Y-135822541D01*
X87742558Y-136167380D01*
X87169113Y-136404909D01*
X86966191Y-136445273D01*
X86560348Y-136526000D01*
X85939652Y-136526000D01*
X85533809Y-136445273D01*
X85330887Y-136404909D01*
X84757442Y-136167380D01*
X84241355Y-135822541D01*
X84241352Y-135822539D01*
X83802461Y-135383648D01*
X83599167Y-135079397D01*
X83457620Y-134867558D01*
X83220091Y-134294113D01*
X83103823Y-133709593D01*
X83099000Y-133685348D01*
X83099000Y-133064652D01*
X83220091Y-132455888D01*
X83230446Y-132430888D01*
X83457620Y-131882442D01*
X83802459Y-131366355D01*
X83802461Y-131366352D01*
X84241352Y-130927461D01*
X84278770Y-130902459D01*
X84757442Y-130582620D01*
X85330887Y-130345091D01*
X85533809Y-130304727D01*
X85939652Y-130224000D01*
X86560348Y-130224000D01*
X86966191Y-130304727D01*
X86966191Y-130304727D01*
G37*
G36*
X130216191Y-130279727D02*
X130419113Y-130320091D01*
X130992558Y-130557620D01*
X131505165Y-130900134D01*
X131508648Y-130902461D01*
X131947539Y-131341352D01*
X131947541Y-131341355D01*
X132292380Y-131857442D01*
X132529909Y-132430887D01*
X132529909Y-132430888D01*
X132651000Y-133039652D01*
X132651000Y-133660348D01*
X132570273Y-134066191D01*
X132529909Y-134269113D01*
X132292380Y-134842558D01*
X132134130Y-135079395D01*
X131947539Y-135358648D01*
X131508648Y-135797539D01*
X131508645Y-135797541D01*
X130992558Y-136142380D01*
X130419113Y-136379909D01*
X130293429Y-136404909D01*
X129810348Y-136501000D01*
X129189652Y-136501000D01*
X128706571Y-136404909D01*
X128580887Y-136379909D01*
X128007442Y-136142380D01*
X127491355Y-135797541D01*
X127491352Y-135797539D01*
X127052461Y-135358648D01*
X126865870Y-135079395D01*
X126707620Y-134842558D01*
X126470091Y-134269113D01*
X126429727Y-134066191D01*
X126349000Y-133660348D01*
X126349000Y-133039652D01*
X126470091Y-132430888D01*
X126470091Y-132430887D01*
X126707620Y-131857442D01*
X127052459Y-131341355D01*
X127052461Y-131341352D01*
X127491352Y-130902461D01*
X127494835Y-130900134D01*
X128007442Y-130557620D01*
X128580887Y-130320091D01*
X128783809Y-130279727D01*
X129189652Y-130199000D01*
X129810348Y-130199000D01*
X130216191Y-130279727D01*
X130216191Y-130279727D01*
G37*
G36*
X140716191Y-130279727D02*
X140919113Y-130320091D01*
X141492558Y-130557620D01*
X142005165Y-130900134D01*
X142008648Y-130902461D01*
X142447539Y-131341352D01*
X142447541Y-131341355D01*
X142792380Y-131857442D01*
X143029909Y-132430887D01*
X143029909Y-132430888D01*
X143151000Y-133039652D01*
X143151000Y-133660348D01*
X143070273Y-134066191D01*
X143029909Y-134269113D01*
X142792380Y-134842558D01*
X142634130Y-135079395D01*
X142447539Y-135358648D01*
X142008648Y-135797539D01*
X142008645Y-135797541D01*
X141492558Y-136142380D01*
X140919113Y-136379909D01*
X140793429Y-136404909D01*
X140310348Y-136501000D01*
X139689652Y-136501000D01*
X139206571Y-136404909D01*
X139080887Y-136379909D01*
X138507442Y-136142380D01*
X137991355Y-135797541D01*
X137991352Y-135797539D01*
X137552461Y-135358648D01*
X137365870Y-135079395D01*
X137207620Y-134842558D01*
X136970091Y-134269113D01*
X136929727Y-134066191D01*
X136849000Y-133660348D01*
X136849000Y-133039652D01*
X136970091Y-132430888D01*
X136970091Y-132430887D01*
X137207620Y-131857442D01*
X137552459Y-131341355D01*
X137552461Y-131341352D01*
X137991352Y-130902461D01*
X137994835Y-130900134D01*
X138507442Y-130557620D01*
X139080887Y-130320091D01*
X139283809Y-130279727D01*
X139689652Y-130199000D01*
X140310348Y-130199000D01*
X140716191Y-130279727D01*
X140716191Y-130279727D01*
G37*
G36*
X162716191Y-130279727D02*
X162919113Y-130320091D01*
X163492558Y-130557620D01*
X164005165Y-130900134D01*
X164008648Y-130902461D01*
X164447539Y-131341352D01*
X164447541Y-131341355D01*
X164792380Y-131857442D01*
X165029909Y-132430887D01*
X165029909Y-132430888D01*
X165151000Y-133039652D01*
X165151000Y-133660348D01*
X165070273Y-134066191D01*
X165029909Y-134269113D01*
X164792380Y-134842558D01*
X164634130Y-135079395D01*
X164447539Y-135358648D01*
X164008648Y-135797539D01*
X164008645Y-135797541D01*
X163492558Y-136142380D01*
X162919113Y-136379909D01*
X162793429Y-136404909D01*
X162310348Y-136501000D01*
X161689652Y-136501000D01*
X161206571Y-136404909D01*
X161080887Y-136379909D01*
X160507442Y-136142380D01*
X159991355Y-135797541D01*
X159991352Y-135797539D01*
X159552461Y-135358648D01*
X159365870Y-135079395D01*
X159207620Y-134842558D01*
X158970091Y-134269113D01*
X158929727Y-134066191D01*
X158849000Y-133660348D01*
X158849000Y-133039652D01*
X158970091Y-132430888D01*
X158970091Y-132430887D01*
X159207620Y-131857442D01*
X159552459Y-131341355D01*
X159552461Y-131341352D01*
X159991352Y-130902461D01*
X159994835Y-130900134D01*
X160507442Y-130557620D01*
X161080887Y-130320091D01*
X161283809Y-130279727D01*
X161689652Y-130199000D01*
X162310348Y-130199000D01*
X162716191Y-130279727D01*
X162716191Y-130279727D01*
G37*
G36*
X173466191Y-130279727D02*
X173669113Y-130320091D01*
X174242558Y-130557620D01*
X174755165Y-130900134D01*
X174758648Y-130902461D01*
X175197539Y-131341352D01*
X175197541Y-131341355D01*
X175542380Y-131857442D01*
X175779909Y-132430887D01*
X175779909Y-132430888D01*
X175901000Y-133039652D01*
X175901000Y-133660348D01*
X175820273Y-134066191D01*
X175779909Y-134269113D01*
X175542380Y-134842558D01*
X175384130Y-135079395D01*
X175197539Y-135358648D01*
X174758648Y-135797539D01*
X174758645Y-135797541D01*
X174242558Y-136142380D01*
X173669113Y-136379909D01*
X173543429Y-136404909D01*
X173060348Y-136501000D01*
X172439652Y-136501000D01*
X171956571Y-136404909D01*
X171830887Y-136379909D01*
X171257442Y-136142380D01*
X170741355Y-135797541D01*
X170741352Y-135797539D01*
X170302461Y-135358648D01*
X170115870Y-135079395D01*
X169957620Y-134842558D01*
X169720091Y-134269113D01*
X169679727Y-134066191D01*
X169599000Y-133660348D01*
X169599000Y-133039652D01*
X169720091Y-132430888D01*
X169720091Y-132430887D01*
X169957620Y-131857442D01*
X170302459Y-131341355D01*
X170302461Y-131341352D01*
X170741352Y-130902461D01*
X170744835Y-130900134D01*
X171257442Y-130557620D01*
X171830887Y-130320091D01*
X172033809Y-130279727D01*
X172439652Y-130199000D01*
X173060348Y-130199000D01*
X173466191Y-130279727D01*
X173466191Y-130279727D01*
G37*
G36*
X195466191Y-130279727D02*
X195669113Y-130320091D01*
X196242558Y-130557620D01*
X196755165Y-130900134D01*
X196758648Y-130902461D01*
X197197539Y-131341352D01*
X197197541Y-131341355D01*
X197542380Y-131857442D01*
X197779909Y-132430887D01*
X197779909Y-132430888D01*
X197901000Y-133039652D01*
X197901000Y-133660348D01*
X197820273Y-134066191D01*
X197779909Y-134269113D01*
X197542380Y-134842558D01*
X197384130Y-135079395D01*
X197197539Y-135358648D01*
X196758648Y-135797539D01*
X196758645Y-135797541D01*
X196242558Y-136142380D01*
X195669113Y-136379909D01*
X195543429Y-136404909D01*
X195060348Y-136501000D01*
X194439652Y-136501000D01*
X193956571Y-136404909D01*
X193830887Y-136379909D01*
X193257442Y-136142380D01*
X192741355Y-135797541D01*
X192741352Y-135797539D01*
X192302461Y-135358648D01*
X192115870Y-135079395D01*
X191957620Y-134842558D01*
X191720091Y-134269113D01*
X191679727Y-134066191D01*
X191599000Y-133660348D01*
X191599000Y-133039652D01*
X191720091Y-132430888D01*
X191720091Y-132430887D01*
X191957620Y-131857442D01*
X192302459Y-131341355D01*
X192302461Y-131341352D01*
X192741352Y-130902461D01*
X192744835Y-130900134D01*
X193257442Y-130557620D01*
X193830887Y-130320091D01*
X194033809Y-130279727D01*
X194439652Y-130199000D01*
X195060348Y-130199000D01*
X195466191Y-130279727D01*
X195466191Y-130279727D01*
G37*
G36*
X206216191Y-130279727D02*
X206419113Y-130320091D01*
X206992558Y-130557620D01*
X207505165Y-130900134D01*
X207508648Y-130902461D01*
X207947539Y-131341352D01*
X207947541Y-131341355D01*
X208292380Y-131857442D01*
X208529909Y-132430887D01*
X208529909Y-132430888D01*
X208651000Y-133039652D01*
X208651000Y-133660348D01*
X208570273Y-134066191D01*
X208529909Y-134269113D01*
X208292380Y-134842558D01*
X208134130Y-135079395D01*
X207947539Y-135358648D01*
X207508648Y-135797539D01*
X207508645Y-135797541D01*
X206992558Y-136142380D01*
X206419113Y-136379909D01*
X206293429Y-136404909D01*
X205810348Y-136501000D01*
X205189652Y-136501000D01*
X204706571Y-136404909D01*
X204580887Y-136379909D01*
X204007442Y-136142380D01*
X203491355Y-135797541D01*
X203491352Y-135797539D01*
X203052461Y-135358648D01*
X202865870Y-135079395D01*
X202707620Y-134842558D01*
X202470091Y-134269113D01*
X202429727Y-134066191D01*
X202349000Y-133660348D01*
X202349000Y-133039652D01*
X202470091Y-132430888D01*
X202470091Y-132430887D01*
X202707620Y-131857442D01*
X203052459Y-131341355D01*
X203052461Y-131341352D01*
X203491352Y-130902461D01*
X203494835Y-130900134D01*
X204007442Y-130557620D01*
X204580887Y-130320091D01*
X204783809Y-130279727D01*
X205189652Y-130199000D01*
X205810348Y-130199000D01*
X206216191Y-130279727D01*
X206216191Y-130279727D01*
G37*
G36*
X151716191Y-130279727D02*
X151919113Y-130320091D01*
X152492558Y-130557620D01*
X153005165Y-130900134D01*
X153008648Y-130902461D01*
X153447539Y-131341352D01*
X153447541Y-131341355D01*
X153792380Y-131857442D01*
X154029909Y-132430887D01*
X154029909Y-132430888D01*
X154151000Y-133039652D01*
X154151000Y-133660348D01*
X154070273Y-134066191D01*
X154029909Y-134269113D01*
X153792380Y-134842558D01*
X153634130Y-135079395D01*
X153447539Y-135358648D01*
X153008648Y-135797539D01*
X153008645Y-135797541D01*
X152492558Y-136142380D01*
X151919113Y-136379909D01*
X151793429Y-136404909D01*
X151310348Y-136501000D01*
X150689652Y-136501000D01*
X150206571Y-136404909D01*
X150080887Y-136379909D01*
X149507442Y-136142380D01*
X148991355Y-135797541D01*
X148991352Y-135797539D01*
X148552461Y-135358648D01*
X148365870Y-135079395D01*
X148207620Y-134842558D01*
X147970091Y-134269113D01*
X147929727Y-134066191D01*
X147849000Y-133660348D01*
X147849000Y-133039652D01*
X147970091Y-132430888D01*
X147970091Y-132430887D01*
X148207620Y-131857442D01*
X148552459Y-131341355D01*
X148552461Y-131341352D01*
X148991352Y-130902461D01*
X148994835Y-130900134D01*
X149507442Y-130557620D01*
X150080887Y-130320091D01*
X150283809Y-130279727D01*
X150689652Y-130199000D01*
X151310348Y-130199000D01*
X151716191Y-130279727D01*
X151716191Y-130279727D01*
G37*
G36*
X184466191Y-130279727D02*
X184669113Y-130320091D01*
X185242558Y-130557620D01*
X185755165Y-130900134D01*
X185758648Y-130902461D01*
X186197539Y-131341352D01*
X186197541Y-131341355D01*
X186542380Y-131857442D01*
X186779909Y-132430887D01*
X186779909Y-132430888D01*
X186901000Y-133039652D01*
X186901000Y-133660348D01*
X186820273Y-134066191D01*
X186779909Y-134269113D01*
X186542380Y-134842558D01*
X186384130Y-135079395D01*
X186197539Y-135358648D01*
X185758648Y-135797539D01*
X185758645Y-135797541D01*
X185242558Y-136142380D01*
X184669113Y-136379909D01*
X184543429Y-136404909D01*
X184060348Y-136501000D01*
X183439652Y-136501000D01*
X182956571Y-136404909D01*
X182830887Y-136379909D01*
X182257442Y-136142380D01*
X181741355Y-135797541D01*
X181741352Y-135797539D01*
X181302461Y-135358648D01*
X181115870Y-135079395D01*
X180957620Y-134842558D01*
X180720091Y-134269113D01*
X180679727Y-134066191D01*
X180599000Y-133660348D01*
X180599000Y-133039652D01*
X180720091Y-132430888D01*
X180720091Y-132430887D01*
X180957620Y-131857442D01*
X181302459Y-131341355D01*
X181302461Y-131341352D01*
X181741352Y-130902461D01*
X181744835Y-130900134D01*
X182257442Y-130557620D01*
X182830887Y-130320091D01*
X183033809Y-130279727D01*
X183439652Y-130199000D01*
X184060348Y-130199000D01*
X184466191Y-130279727D01*
X184466191Y-130279727D01*
G37*
G36*
X86966191Y-114429727D02*
X87169113Y-114470091D01*
X87742558Y-114707620D01*
X88008088Y-114885042D01*
X88258648Y-115052461D01*
X88697539Y-115491352D01*
X88697541Y-115491355D01*
X89042380Y-116007442D01*
X89269554Y-116555888D01*
X89279909Y-116580888D01*
X89396028Y-117164654D01*
X89401000Y-117189654D01*
X89401000Y-117810346D01*
X89279909Y-118419113D01*
X89042380Y-118992558D01*
X88729581Y-119460694D01*
X88697539Y-119508648D01*
X88258648Y-119947539D01*
X88258645Y-119947541D01*
X87742558Y-120292380D01*
X87169113Y-120529909D01*
X86966191Y-120570273D01*
X86560348Y-120651000D01*
X85939652Y-120651000D01*
X85533809Y-120570273D01*
X85330887Y-120529909D01*
X84757442Y-120292380D01*
X84241355Y-119947541D01*
X84241352Y-119947539D01*
X83802461Y-119508648D01*
X83770419Y-119460694D01*
X83457620Y-118992558D01*
X83220091Y-118419113D01*
X83099000Y-117810346D01*
X83099000Y-117189654D01*
X83103973Y-117164654D01*
X83220091Y-116580888D01*
X83230446Y-116555888D01*
X83457620Y-116007442D01*
X83802459Y-115491355D01*
X83802461Y-115491352D01*
X84241352Y-115052461D01*
X84491912Y-114885042D01*
X84757442Y-114707620D01*
X85330887Y-114470091D01*
X85533809Y-114429727D01*
X85939652Y-114349000D01*
X86560348Y-114349000D01*
X86966191Y-114429727D01*
X86966191Y-114429727D01*
G37*
G36*
X97716191Y-114404727D02*
X97919113Y-114445091D01*
X98492558Y-114682620D01*
X98795503Y-114885042D01*
X99008648Y-115027461D01*
X99447539Y-115466352D01*
X99447541Y-115466355D01*
X99792380Y-115982442D01*
X100029909Y-116555887D01*
X100029909Y-116555888D01*
X100151000Y-117164652D01*
X100151000Y-117785348D01*
X100146027Y-117810348D01*
X100029909Y-118394113D01*
X99792380Y-118967558D01*
X99646773Y-119185474D01*
X99447539Y-119483648D01*
X99008648Y-119922539D01*
X99008645Y-119922541D01*
X98492558Y-120267380D01*
X97919113Y-120504909D01*
X97793429Y-120529909D01*
X97310348Y-120626000D01*
X96689652Y-120626000D01*
X96206571Y-120529909D01*
X96080887Y-120504909D01*
X95507442Y-120267380D01*
X94991355Y-119922541D01*
X94991352Y-119922539D01*
X94552461Y-119483648D01*
X94353227Y-119185474D01*
X94207620Y-118967558D01*
X93970091Y-118394113D01*
X93853973Y-117810348D01*
X93849000Y-117785348D01*
X93849000Y-117164652D01*
X93970091Y-116555888D01*
X93970091Y-116555887D01*
X94207620Y-115982442D01*
X94552459Y-115466355D01*
X94552461Y-115466352D01*
X94991352Y-115027461D01*
X95204497Y-114885042D01*
X95507442Y-114682620D01*
X96080887Y-114445091D01*
X96283809Y-114404727D01*
X96689652Y-114324000D01*
X97310348Y-114324000D01*
X97716191Y-114404727D01*
X97716191Y-114404727D01*
G37*
G36*
X119466191Y-114404727D02*
X119669113Y-114445091D01*
X120242558Y-114682620D01*
X120545503Y-114885042D01*
X120758648Y-115027461D01*
X121197539Y-115466352D01*
X121197541Y-115466355D01*
X121542380Y-115982442D01*
X121779909Y-116555887D01*
X121779909Y-116555888D01*
X121901000Y-117164652D01*
X121901000Y-117785348D01*
X121896027Y-117810348D01*
X121779909Y-118394113D01*
X121542380Y-118967558D01*
X121396773Y-119185474D01*
X121197539Y-119483648D01*
X120758648Y-119922539D01*
X120758645Y-119922541D01*
X120242558Y-120267380D01*
X119669113Y-120504909D01*
X119543429Y-120529909D01*
X119060348Y-120626000D01*
X118439652Y-120626000D01*
X117956571Y-120529909D01*
X117830887Y-120504909D01*
X117257442Y-120267380D01*
X116741355Y-119922541D01*
X116741352Y-119922539D01*
X116302461Y-119483648D01*
X116103227Y-119185474D01*
X115957620Y-118967558D01*
X115720091Y-118394113D01*
X115603973Y-117810348D01*
X115599000Y-117785348D01*
X115599000Y-117164652D01*
X115720091Y-116555888D01*
X115720091Y-116555887D01*
X115957620Y-115982442D01*
X116302459Y-115466355D01*
X116302461Y-115466352D01*
X116741352Y-115027461D01*
X116954497Y-114885042D01*
X117257442Y-114682620D01*
X117830887Y-114445091D01*
X118033809Y-114404727D01*
X118439652Y-114324000D01*
X119060348Y-114324000D01*
X119466191Y-114404727D01*
X119466191Y-114404727D01*
G37*
G36*
X108716191Y-114404727D02*
X108919113Y-114445091D01*
X109492558Y-114682620D01*
X109795503Y-114885042D01*
X110008648Y-115027461D01*
X110447539Y-115466352D01*
X110447541Y-115466355D01*
X110792380Y-115982442D01*
X111029909Y-116555887D01*
X111029909Y-116555888D01*
X111151000Y-117164652D01*
X111151000Y-117785348D01*
X111146027Y-117810348D01*
X111029909Y-118394113D01*
X110792380Y-118967558D01*
X110646773Y-119185474D01*
X110447539Y-119483648D01*
X110008648Y-119922539D01*
X110008645Y-119922541D01*
X109492558Y-120267380D01*
X108919113Y-120504909D01*
X108793429Y-120529909D01*
X108310348Y-120626000D01*
X107689652Y-120626000D01*
X107206571Y-120529909D01*
X107080887Y-120504909D01*
X106507442Y-120267380D01*
X105991355Y-119922541D01*
X105991352Y-119922539D01*
X105552461Y-119483648D01*
X105353227Y-119185474D01*
X105207620Y-118967558D01*
X104970091Y-118394113D01*
X104853973Y-117810348D01*
X104849000Y-117785348D01*
X104849000Y-117164652D01*
X104970091Y-116555888D01*
X104970091Y-116555887D01*
X105207620Y-115982442D01*
X105552459Y-115466355D01*
X105552461Y-115466352D01*
X105991352Y-115027461D01*
X106204497Y-114885042D01*
X106507442Y-114682620D01*
X107080887Y-114445091D01*
X107283809Y-114404727D01*
X107689652Y-114324000D01*
X108310348Y-114324000D01*
X108716191Y-114404727D01*
X108716191Y-114404727D01*
G37*
G36*
X240894714Y-112345769D02*
X241364958Y-112439306D01*
X242029397Y-112714525D01*
X242627377Y-113114083D01*
X243135917Y-113622623D01*
X243535475Y-114220603D01*
X243810694Y-114885042D01*
X243951000Y-115590408D01*
X243951000Y-116309592D01*
X243810694Y-117014958D01*
X243535475Y-117679397D01*
X243135917Y-118277377D01*
X242627377Y-118785917D01*
X242029397Y-119185475D01*
X241364958Y-119460694D01*
X240894714Y-119554231D01*
X240659593Y-119601000D01*
X239940407Y-119601000D01*
X239705286Y-119554231D01*
X239235042Y-119460694D01*
X238570603Y-119185475D01*
X237972623Y-118785917D01*
X237464083Y-118277377D01*
X237064525Y-117679397D01*
X236789306Y-117014958D01*
X236649000Y-116309592D01*
X236649000Y-115590408D01*
X236789306Y-114885042D01*
X237064525Y-114220603D01*
X237464083Y-113622623D01*
X237972623Y-113114083D01*
X238570603Y-112714525D01*
X239235042Y-112439306D01*
X239705286Y-112345769D01*
X239940407Y-112299000D01*
X240659593Y-112299000D01*
X240894714Y-112345769D01*
X240894714Y-112345769D01*
G37*
G36*
X265816191Y-112879727D02*
X266019113Y-112920091D01*
X266592558Y-113157620D01*
X267105165Y-113500134D01*
X267108648Y-113502461D01*
X267547539Y-113941352D01*
X267547541Y-113941355D01*
X267892380Y-114457442D01*
X268129909Y-115030887D01*
X268129909Y-115030888D01*
X268251000Y-115639652D01*
X268251000Y-116260348D01*
X268192213Y-116555887D01*
X268129909Y-116869113D01*
X267892380Y-117442558D01*
X267646631Y-117810346D01*
X267547539Y-117958648D01*
X267108648Y-118397539D01*
X267108645Y-118397541D01*
X266592558Y-118742380D01*
X266019113Y-118979909D01*
X265816191Y-119020273D01*
X265410348Y-119101000D01*
X264789652Y-119101000D01*
X264383809Y-119020273D01*
X264180887Y-118979909D01*
X263607442Y-118742380D01*
X263091355Y-118397541D01*
X263091352Y-118397539D01*
X262652461Y-117958648D01*
X262553369Y-117810346D01*
X262307620Y-117442558D01*
X262070091Y-116869113D01*
X262007787Y-116555887D01*
X261949000Y-116260348D01*
X261949000Y-115639652D01*
X262070091Y-115030888D01*
X262070091Y-115030887D01*
X262307620Y-114457442D01*
X262652459Y-113941355D01*
X262652461Y-113941352D01*
X263091352Y-113502461D01*
X263094835Y-113500134D01*
X263607442Y-113157620D01*
X264180887Y-112920091D01*
X264383809Y-112879727D01*
X264789652Y-112799000D01*
X265410348Y-112799000D01*
X265816191Y-112879727D01*
X265816191Y-112879727D01*
G37*
G36*
X119466191Y-98529727D02*
X119669113Y-98570091D01*
X120242558Y-98807620D01*
X120506002Y-98983648D01*
X120758648Y-99152461D01*
X121197539Y-99591352D01*
X121197541Y-99591355D01*
X121542380Y-100107442D01*
X121779909Y-100680887D01*
X121901000Y-101289654D01*
X121901000Y-101910346D01*
X121779909Y-102519113D01*
X121542380Y-103092558D01*
X121199866Y-103605165D01*
X121197539Y-103608648D01*
X120758648Y-104047539D01*
X120758645Y-104047541D01*
X120242558Y-104392380D01*
X119669113Y-104629909D01*
X119466191Y-104670273D01*
X119060348Y-104751000D01*
X118439652Y-104751000D01*
X118033809Y-104670273D01*
X117830887Y-104629909D01*
X117257442Y-104392380D01*
X116741355Y-104047541D01*
X116741352Y-104047539D01*
X116302461Y-103608648D01*
X116300134Y-103605165D01*
X115957620Y-103092558D01*
X115720091Y-102519113D01*
X115599000Y-101910346D01*
X115599000Y-101289654D01*
X115720091Y-100680887D01*
X115957620Y-100107442D01*
X116302459Y-99591355D01*
X116302461Y-99591352D01*
X116741352Y-99152461D01*
X116993998Y-98983648D01*
X117257442Y-98807620D01*
X117830887Y-98570091D01*
X118033809Y-98529727D01*
X118439652Y-98449000D01*
X119060348Y-98449000D01*
X119466191Y-98529727D01*
X119466191Y-98529727D01*
G37*
G36*
X86966191Y-98529727D02*
X87169113Y-98570091D01*
X87742558Y-98807620D01*
X88006002Y-98983648D01*
X88258648Y-99152461D01*
X88697539Y-99591352D01*
X88697541Y-99591355D01*
X89042380Y-100107442D01*
X89279909Y-100680887D01*
X89401000Y-101289654D01*
X89401000Y-101910346D01*
X89279909Y-102519113D01*
X89042380Y-103092558D01*
X88699866Y-103605165D01*
X88697539Y-103608648D01*
X88258648Y-104047539D01*
X88258645Y-104047541D01*
X87742558Y-104392380D01*
X87169113Y-104629909D01*
X86966191Y-104670273D01*
X86560348Y-104751000D01*
X85939652Y-104751000D01*
X85533809Y-104670273D01*
X85330887Y-104629909D01*
X84757442Y-104392380D01*
X84241355Y-104047541D01*
X84241352Y-104047539D01*
X83802461Y-103608648D01*
X83800134Y-103605165D01*
X83457620Y-103092558D01*
X83220091Y-102519113D01*
X83099000Y-101910346D01*
X83099000Y-101289654D01*
X83220091Y-100680887D01*
X83457620Y-100107442D01*
X83802459Y-99591355D01*
X83802461Y-99591352D01*
X84241352Y-99152461D01*
X84493998Y-98983648D01*
X84757442Y-98807620D01*
X85330887Y-98570091D01*
X85533809Y-98529727D01*
X85939652Y-98449000D01*
X86560348Y-98449000D01*
X86966191Y-98529727D01*
X86966191Y-98529727D01*
G37*
G36*
X97716191Y-98529727D02*
X97919113Y-98570091D01*
X98492558Y-98807620D01*
X98756002Y-98983648D01*
X99008648Y-99152461D01*
X99447539Y-99591352D01*
X99447541Y-99591355D01*
X99792380Y-100107442D01*
X100029909Y-100680887D01*
X100151000Y-101289654D01*
X100151000Y-101910346D01*
X100029909Y-102519113D01*
X99792380Y-103092558D01*
X99449866Y-103605165D01*
X99447539Y-103608648D01*
X99008648Y-104047539D01*
X99008645Y-104047541D01*
X98492558Y-104392380D01*
X97919113Y-104629909D01*
X97716191Y-104670273D01*
X97310348Y-104751000D01*
X96689652Y-104751000D01*
X96283809Y-104670273D01*
X96080887Y-104629909D01*
X95507442Y-104392380D01*
X94991355Y-104047541D01*
X94991352Y-104047539D01*
X94552461Y-103608648D01*
X94550134Y-103605165D01*
X94207620Y-103092558D01*
X93970091Y-102519113D01*
X93849000Y-101910346D01*
X93849000Y-101289654D01*
X93970091Y-100680887D01*
X94207620Y-100107442D01*
X94552459Y-99591355D01*
X94552461Y-99591352D01*
X94991352Y-99152461D01*
X95243998Y-98983648D01*
X95507442Y-98807620D01*
X96080887Y-98570091D01*
X96283809Y-98529727D01*
X96689652Y-98449000D01*
X97310348Y-98449000D01*
X97716191Y-98529727D01*
X97716191Y-98529727D01*
G37*
G36*
X108716191Y-98529727D02*
X108919113Y-98570091D01*
X109492558Y-98807620D01*
X109756002Y-98983648D01*
X110008648Y-99152461D01*
X110447539Y-99591352D01*
X110447541Y-99591355D01*
X110792380Y-100107442D01*
X111029909Y-100680887D01*
X111151000Y-101289654D01*
X111151000Y-101910346D01*
X111029909Y-102519113D01*
X110792380Y-103092558D01*
X110449866Y-103605165D01*
X110447539Y-103608648D01*
X110008648Y-104047539D01*
X110008645Y-104047541D01*
X109492558Y-104392380D01*
X108919113Y-104629909D01*
X108716191Y-104670273D01*
X108310348Y-104751000D01*
X107689652Y-104751000D01*
X107283809Y-104670273D01*
X107080887Y-104629909D01*
X106507442Y-104392380D01*
X105991355Y-104047541D01*
X105991352Y-104047539D01*
X105552461Y-103608648D01*
X105550134Y-103605165D01*
X105207620Y-103092558D01*
X104970091Y-102519113D01*
X104849000Y-101910346D01*
X104849000Y-101289654D01*
X104970091Y-100680887D01*
X105207620Y-100107442D01*
X105552459Y-99591355D01*
X105552461Y-99591352D01*
X105991352Y-99152461D01*
X106243998Y-98983648D01*
X106507442Y-98807620D01*
X107080887Y-98570091D01*
X107283809Y-98529727D01*
X107689652Y-98449000D01*
X108310348Y-98449000D01*
X108716191Y-98529727D01*
X108716191Y-98529727D01*
G37*
G36*
X240894714Y-93370769D02*
X241364958Y-93464306D01*
X242029397Y-93739525D01*
X242627377Y-94139083D01*
X243135917Y-94647623D01*
X243535475Y-95245603D01*
X243810694Y-95910042D01*
X243951000Y-96615408D01*
X243951000Y-97334592D01*
X243810694Y-98039958D01*
X243535475Y-98704397D01*
X243135917Y-99302377D01*
X242627377Y-99810917D01*
X242029397Y-100210475D01*
X241364958Y-100485694D01*
X240894714Y-100579231D01*
X240659593Y-100626000D01*
X239940407Y-100626000D01*
X239705286Y-100579231D01*
X239235042Y-100485694D01*
X238570603Y-100210475D01*
X237972623Y-99810917D01*
X237464083Y-99302377D01*
X237064525Y-98704397D01*
X236789306Y-98039958D01*
X236649000Y-97334592D01*
X236649000Y-96615408D01*
X236789306Y-95910042D01*
X237064525Y-95245603D01*
X237464083Y-94647623D01*
X237972623Y-94139083D01*
X238570603Y-93739525D01*
X239235042Y-93464306D01*
X239705286Y-93370769D01*
X239940407Y-93324000D01*
X240659593Y-93324000D01*
X240894714Y-93370769D01*
X240894714Y-93370769D01*
G37*
G36*
X265816191Y-93904727D02*
X266019113Y-93945091D01*
X266592558Y-94182620D01*
X267105165Y-94525134D01*
X267108648Y-94527461D01*
X267547539Y-94966352D01*
X267547541Y-94966355D01*
X267892380Y-95482442D01*
X268129909Y-96055887D01*
X268129909Y-96055888D01*
X268251000Y-96664652D01*
X268251000Y-97285348D01*
X268170273Y-97691191D01*
X268129909Y-97894113D01*
X267892380Y-98467558D01*
X267734130Y-98704395D01*
X267547539Y-98983648D01*
X267108648Y-99422539D01*
X267108645Y-99422541D01*
X266592558Y-99767380D01*
X266019113Y-100004909D01*
X265816191Y-100045273D01*
X265410348Y-100126000D01*
X264789652Y-100126000D01*
X264383809Y-100045273D01*
X264180887Y-100004909D01*
X263607442Y-99767380D01*
X263091355Y-99422541D01*
X263091352Y-99422539D01*
X262652461Y-98983648D01*
X262465870Y-98704395D01*
X262307620Y-98467558D01*
X262070091Y-97894113D01*
X262029727Y-97691191D01*
X261949000Y-97285348D01*
X261949000Y-96664652D01*
X262070091Y-96055888D01*
X262070091Y-96055887D01*
X262307620Y-95482442D01*
X262652459Y-94966355D01*
X262652461Y-94966352D01*
X263091352Y-94527461D01*
X263094835Y-94525134D01*
X263607442Y-94182620D01*
X264180887Y-93945091D01*
X264383809Y-93904727D01*
X264789652Y-93824000D01*
X265410348Y-93824000D01*
X265816191Y-93904727D01*
X265816191Y-93904727D01*
G37*
G36*
X97716191Y-82654727D02*
X97919113Y-82695091D01*
X98492558Y-82932620D01*
X99005165Y-83275134D01*
X99008648Y-83277461D01*
X99447539Y-83716352D01*
X99447541Y-83716355D01*
X99792380Y-84232442D01*
X100029909Y-84805887D01*
X100151000Y-85414654D01*
X100151000Y-86035346D01*
X100029909Y-86644113D01*
X99792380Y-87217558D01*
X99449866Y-87730165D01*
X99447539Y-87733648D01*
X99008648Y-88172539D01*
X99008645Y-88172541D01*
X98492558Y-88517380D01*
X97919113Y-88754909D01*
X97716191Y-88795273D01*
X97310348Y-88876000D01*
X96689652Y-88876000D01*
X96283809Y-88795273D01*
X96080887Y-88754909D01*
X95507442Y-88517380D01*
X94991355Y-88172541D01*
X94991352Y-88172539D01*
X94552461Y-87733648D01*
X94550134Y-87730165D01*
X94207620Y-87217558D01*
X93970091Y-86644113D01*
X93849000Y-86035346D01*
X93849000Y-85414654D01*
X93970091Y-84805887D01*
X94207620Y-84232442D01*
X94552459Y-83716355D01*
X94552461Y-83716352D01*
X94991352Y-83277461D01*
X94994835Y-83275134D01*
X95507442Y-82932620D01*
X96080887Y-82695091D01*
X96283809Y-82654727D01*
X96689652Y-82574000D01*
X97310348Y-82574000D01*
X97716191Y-82654727D01*
X97716191Y-82654727D01*
G37*
G36*
X108716191Y-82654727D02*
X108919113Y-82695091D01*
X109492558Y-82932620D01*
X110005165Y-83275134D01*
X110008648Y-83277461D01*
X110447539Y-83716352D01*
X110447541Y-83716355D01*
X110792380Y-84232442D01*
X111029909Y-84805887D01*
X111151000Y-85414654D01*
X111151000Y-86035346D01*
X111029909Y-86644113D01*
X110792380Y-87217558D01*
X110449866Y-87730165D01*
X110447539Y-87733648D01*
X110008648Y-88172539D01*
X110008645Y-88172541D01*
X109492558Y-88517380D01*
X108919113Y-88754909D01*
X108716191Y-88795273D01*
X108310348Y-88876000D01*
X107689652Y-88876000D01*
X107283809Y-88795273D01*
X107080887Y-88754909D01*
X106507442Y-88517380D01*
X105991355Y-88172541D01*
X105991352Y-88172539D01*
X105552461Y-87733648D01*
X105550134Y-87730165D01*
X105207620Y-87217558D01*
X104970091Y-86644113D01*
X104849000Y-86035346D01*
X104849000Y-85414654D01*
X104970091Y-84805887D01*
X105207620Y-84232442D01*
X105552459Y-83716355D01*
X105552461Y-83716352D01*
X105991352Y-83277461D01*
X105994835Y-83275134D01*
X106507442Y-82932620D01*
X107080887Y-82695091D01*
X107283809Y-82654727D01*
X107689652Y-82574000D01*
X108310348Y-82574000D01*
X108716191Y-82654727D01*
X108716191Y-82654727D01*
G37*
G36*
X86966191Y-82654727D02*
X87169113Y-82695091D01*
X87742558Y-82932620D01*
X88255165Y-83275134D01*
X88258648Y-83277461D01*
X88697539Y-83716352D01*
X88697541Y-83716355D01*
X89042380Y-84232442D01*
X89279909Y-84805887D01*
X89401000Y-85414654D01*
X89401000Y-86035346D01*
X89279909Y-86644113D01*
X89042380Y-87217558D01*
X88699866Y-87730165D01*
X88697539Y-87733648D01*
X88258648Y-88172539D01*
X88258645Y-88172541D01*
X87742558Y-88517380D01*
X87169113Y-88754909D01*
X86966191Y-88795273D01*
X86560348Y-88876000D01*
X85939652Y-88876000D01*
X85533809Y-88795273D01*
X85330887Y-88754909D01*
X84757442Y-88517380D01*
X84241355Y-88172541D01*
X84241352Y-88172539D01*
X83802461Y-87733648D01*
X83800134Y-87730165D01*
X83457620Y-87217558D01*
X83220091Y-86644113D01*
X83099000Y-86035346D01*
X83099000Y-85414654D01*
X83220091Y-84805887D01*
X83457620Y-84232442D01*
X83802459Y-83716355D01*
X83802461Y-83716352D01*
X84241352Y-83277461D01*
X84244835Y-83275134D01*
X84757442Y-82932620D01*
X85330887Y-82695091D01*
X85533809Y-82654727D01*
X85939652Y-82574000D01*
X86560348Y-82574000D01*
X86966191Y-82654727D01*
X86966191Y-82654727D01*
G37*
G36*
X119466191Y-82654727D02*
X119669113Y-82695091D01*
X120242558Y-82932620D01*
X120755165Y-83275134D01*
X120758648Y-83277461D01*
X121197539Y-83716352D01*
X121197541Y-83716355D01*
X121542380Y-84232442D01*
X121779909Y-84805887D01*
X121901000Y-85414654D01*
X121901000Y-86035346D01*
X121779909Y-86644113D01*
X121542380Y-87217558D01*
X121199866Y-87730165D01*
X121197539Y-87733648D01*
X120758648Y-88172539D01*
X120758645Y-88172541D01*
X120242558Y-88517380D01*
X119669113Y-88754909D01*
X119466191Y-88795273D01*
X119060348Y-88876000D01*
X118439652Y-88876000D01*
X118033809Y-88795273D01*
X117830887Y-88754909D01*
X117257442Y-88517380D01*
X116741355Y-88172541D01*
X116741352Y-88172539D01*
X116302461Y-87733648D01*
X116300134Y-87730165D01*
X115957620Y-87217558D01*
X115720091Y-86644113D01*
X115599000Y-86035346D01*
X115599000Y-85414654D01*
X115720091Y-84805887D01*
X115957620Y-84232442D01*
X116302459Y-83716355D01*
X116302461Y-83716352D01*
X116741352Y-83277461D01*
X116744835Y-83275134D01*
X117257442Y-82932620D01*
X117830887Y-82695091D01*
X118033809Y-82654727D01*
X118439652Y-82574000D01*
X119060348Y-82574000D01*
X119466191Y-82654727D01*
X119466191Y-82654727D01*
G37*
G36*
X240894714Y-74420769D02*
X241364958Y-74514306D01*
X242029397Y-74789525D01*
X242627377Y-75189083D01*
X243135917Y-75697623D01*
X243535475Y-76295603D01*
X243810694Y-76960042D01*
X243951000Y-77665408D01*
X243951000Y-78384592D01*
X243810694Y-79089958D01*
X243535475Y-79754397D01*
X243135917Y-80352377D01*
X242627377Y-80860917D01*
X242029397Y-81260475D01*
X241364958Y-81535694D01*
X240894714Y-81629231D01*
X240659593Y-81676000D01*
X239940407Y-81676000D01*
X239705286Y-81629231D01*
X239235042Y-81535694D01*
X238570603Y-81260475D01*
X237972623Y-80860917D01*
X237464083Y-80352377D01*
X237064525Y-79754397D01*
X236789306Y-79089958D01*
X236649000Y-78384592D01*
X236649000Y-77665408D01*
X236789306Y-76960042D01*
X237064525Y-76295603D01*
X237464083Y-75697623D01*
X237972623Y-75189083D01*
X238570603Y-74789525D01*
X239235042Y-74514306D01*
X239705286Y-74420769D01*
X239940407Y-74374000D01*
X240659593Y-74374000D01*
X240894714Y-74420769D01*
X240894714Y-74420769D01*
G37*
G36*
X265816191Y-74954727D02*
X266019113Y-74995091D01*
X266592558Y-75232620D01*
X267105165Y-75575134D01*
X267108648Y-75577461D01*
X267547539Y-76016352D01*
X267547541Y-76016355D01*
X267892380Y-76532442D01*
X268129909Y-77105887D01*
X268129909Y-77105888D01*
X268251000Y-77714652D01*
X268251000Y-78335348D01*
X268170273Y-78741191D01*
X268129909Y-78944113D01*
X267892380Y-79517558D01*
X267734130Y-79754395D01*
X267547539Y-80033648D01*
X267108648Y-80472539D01*
X267108645Y-80472541D01*
X266592558Y-80817380D01*
X266019113Y-81054909D01*
X265816191Y-81095273D01*
X265410348Y-81176000D01*
X264789652Y-81176000D01*
X264383809Y-81095273D01*
X264180887Y-81054909D01*
X263607442Y-80817380D01*
X263091355Y-80472541D01*
X263091352Y-80472539D01*
X262652461Y-80033648D01*
X262465870Y-79754395D01*
X262307620Y-79517558D01*
X262070091Y-78944113D01*
X262029727Y-78741191D01*
X261949000Y-78335348D01*
X261949000Y-77714652D01*
X262070091Y-77105888D01*
X262070091Y-77105887D01*
X262307620Y-76532442D01*
X262652459Y-76016355D01*
X262652461Y-76016352D01*
X263091352Y-75577461D01*
X263094835Y-75575134D01*
X263607442Y-75232620D01*
X264180887Y-74995091D01*
X264383809Y-74954727D01*
X264789652Y-74874000D01*
X265410348Y-74874000D01*
X265816191Y-74954727D01*
X265816191Y-74954727D01*
G37*
G36*
X119466191Y-66779727D02*
X119669113Y-66820091D01*
X120242558Y-67057620D01*
X120755165Y-67400134D01*
X120758648Y-67402461D01*
X121197539Y-67841352D01*
X121197541Y-67841355D01*
X121542380Y-68357442D01*
X121779909Y-68930887D01*
X121901000Y-69539654D01*
X121901000Y-70160346D01*
X121779909Y-70769113D01*
X121542380Y-71342558D01*
X121199866Y-71855165D01*
X121197539Y-71858648D01*
X120758648Y-72297539D01*
X120758645Y-72297541D01*
X120242558Y-72642380D01*
X119669113Y-72879909D01*
X119466191Y-72920273D01*
X119060348Y-73001000D01*
X118439652Y-73001000D01*
X118033809Y-72920273D01*
X117830887Y-72879909D01*
X117257442Y-72642380D01*
X116741355Y-72297541D01*
X116741352Y-72297539D01*
X116302461Y-71858648D01*
X116300134Y-71855165D01*
X115957620Y-71342558D01*
X115720091Y-70769113D01*
X115599000Y-70160346D01*
X115599000Y-69539654D01*
X115720091Y-68930887D01*
X115957620Y-68357442D01*
X116302459Y-67841355D01*
X116302461Y-67841352D01*
X116741352Y-67402461D01*
X116744835Y-67400134D01*
X117257442Y-67057620D01*
X117830887Y-66820091D01*
X118033809Y-66779727D01*
X118439652Y-66699000D01*
X119060348Y-66699000D01*
X119466191Y-66779727D01*
X119466191Y-66779727D01*
G37*
G36*
X86966191Y-66779727D02*
X87169113Y-66820091D01*
X87742558Y-67057620D01*
X88255165Y-67400134D01*
X88258648Y-67402461D01*
X88697539Y-67841352D01*
X88697541Y-67841355D01*
X89042380Y-68357442D01*
X89279909Y-68930887D01*
X89401000Y-69539654D01*
X89401000Y-70160346D01*
X89279909Y-70769113D01*
X89042380Y-71342558D01*
X88699866Y-71855165D01*
X88697539Y-71858648D01*
X88258648Y-72297539D01*
X88258645Y-72297541D01*
X87742558Y-72642380D01*
X87169113Y-72879909D01*
X86966191Y-72920273D01*
X86560348Y-73001000D01*
X85939652Y-73001000D01*
X85533809Y-72920273D01*
X85330887Y-72879909D01*
X84757442Y-72642380D01*
X84241355Y-72297541D01*
X84241352Y-72297539D01*
X83802461Y-71858648D01*
X83800134Y-71855165D01*
X83457620Y-71342558D01*
X83220091Y-70769113D01*
X83099000Y-70160346D01*
X83099000Y-69539654D01*
X83220091Y-68930887D01*
X83457620Y-68357442D01*
X83802459Y-67841355D01*
X83802461Y-67841352D01*
X84241352Y-67402461D01*
X84244835Y-67400134D01*
X84757442Y-67057620D01*
X85330887Y-66820091D01*
X85533809Y-66779727D01*
X85939652Y-66699000D01*
X86560348Y-66699000D01*
X86966191Y-66779727D01*
X86966191Y-66779727D01*
G37*
G36*
X97716191Y-66779727D02*
X97919113Y-66820091D01*
X98492558Y-67057620D01*
X99005165Y-67400134D01*
X99008648Y-67402461D01*
X99447539Y-67841352D01*
X99447541Y-67841355D01*
X99792380Y-68357442D01*
X100029909Y-68930887D01*
X100151000Y-69539654D01*
X100151000Y-70160346D01*
X100029909Y-70769113D01*
X99792380Y-71342558D01*
X99449866Y-71855165D01*
X99447539Y-71858648D01*
X99008648Y-72297539D01*
X99008645Y-72297541D01*
X98492558Y-72642380D01*
X97919113Y-72879909D01*
X97716191Y-72920273D01*
X97310348Y-73001000D01*
X96689652Y-73001000D01*
X96283809Y-72920273D01*
X96080887Y-72879909D01*
X95507442Y-72642380D01*
X94991355Y-72297541D01*
X94991352Y-72297539D01*
X94552461Y-71858648D01*
X94550134Y-71855165D01*
X94207620Y-71342558D01*
X93970091Y-70769113D01*
X93849000Y-70160346D01*
X93849000Y-69539654D01*
X93970091Y-68930887D01*
X94207620Y-68357442D01*
X94552459Y-67841355D01*
X94552461Y-67841352D01*
X94991352Y-67402461D01*
X94994835Y-67400134D01*
X95507442Y-67057620D01*
X96080887Y-66820091D01*
X96283809Y-66779727D01*
X96689652Y-66699000D01*
X97310348Y-66699000D01*
X97716191Y-66779727D01*
X97716191Y-66779727D01*
G37*
G36*
X108716191Y-66779727D02*
X108919113Y-66820091D01*
X109492558Y-67057620D01*
X110005165Y-67400134D01*
X110008648Y-67402461D01*
X110447539Y-67841352D01*
X110447541Y-67841355D01*
X110792380Y-68357442D01*
X111029909Y-68930887D01*
X111151000Y-69539654D01*
X111151000Y-70160346D01*
X111029909Y-70769113D01*
X110792380Y-71342558D01*
X110449866Y-71855165D01*
X110447539Y-71858648D01*
X110008648Y-72297539D01*
X110008645Y-72297541D01*
X109492558Y-72642380D01*
X108919113Y-72879909D01*
X108716191Y-72920273D01*
X108310348Y-73001000D01*
X107689652Y-73001000D01*
X107283809Y-72920273D01*
X107080887Y-72879909D01*
X106507442Y-72642380D01*
X105991355Y-72297541D01*
X105991352Y-72297539D01*
X105552461Y-71858648D01*
X105550134Y-71855165D01*
X105207620Y-71342558D01*
X104970091Y-70769113D01*
X104849000Y-70160346D01*
X104849000Y-69539654D01*
X104970091Y-68930887D01*
X105207620Y-68357442D01*
X105552459Y-67841355D01*
X105552461Y-67841352D01*
X105991352Y-67402461D01*
X105994835Y-67400134D01*
X106507442Y-67057620D01*
X107080887Y-66820091D01*
X107283809Y-66779727D01*
X107689652Y-66699000D01*
X108310348Y-66699000D01*
X108716191Y-66779727D01*
X108716191Y-66779727D01*
G37*
G36*
X240894714Y-55445769D02*
X241364958Y-55539306D01*
X242029397Y-55814525D01*
X242627377Y-56214083D01*
X243135917Y-56722623D01*
X243535475Y-57320603D01*
X243810694Y-57985042D01*
X243951000Y-58690408D01*
X243951000Y-59409592D01*
X243810694Y-60114958D01*
X243535475Y-60779397D01*
X243135917Y-61377377D01*
X242627377Y-61885917D01*
X242029397Y-62285475D01*
X241364958Y-62560694D01*
X240894714Y-62654231D01*
X240659593Y-62701000D01*
X239940407Y-62701000D01*
X239705286Y-62654231D01*
X239235042Y-62560694D01*
X238570603Y-62285475D01*
X237972623Y-61885917D01*
X237464083Y-61377377D01*
X237064525Y-60779397D01*
X236789306Y-60114958D01*
X236649000Y-59409592D01*
X236649000Y-58690408D01*
X236789306Y-57985042D01*
X237064525Y-57320603D01*
X237464083Y-56722623D01*
X237972623Y-56214083D01*
X238570603Y-55814525D01*
X239235042Y-55539306D01*
X239705286Y-55445769D01*
X239940407Y-55399000D01*
X240659593Y-55399000D01*
X240894714Y-55445769D01*
X240894714Y-55445769D01*
G37*
G36*
X265816191Y-55979727D02*
X266019113Y-56020091D01*
X266592558Y-56257620D01*
X266921447Y-56477377D01*
X267108648Y-56602461D01*
X267547539Y-57041352D01*
X267547541Y-57041355D01*
X267892380Y-57557442D01*
X268129909Y-58130887D01*
X268129909Y-58130888D01*
X268251000Y-58739652D01*
X268251000Y-59360348D01*
X268170273Y-59766191D01*
X268129909Y-59969113D01*
X267892380Y-60542558D01*
X267734130Y-60779395D01*
X267547539Y-61058648D01*
X267108648Y-61497539D01*
X267108645Y-61497541D01*
X266592558Y-61842380D01*
X266019113Y-62079909D01*
X265816191Y-62120273D01*
X265410348Y-62201000D01*
X264789652Y-62201000D01*
X264383809Y-62120273D01*
X264180887Y-62079909D01*
X263607442Y-61842380D01*
X263091355Y-61497541D01*
X263091352Y-61497539D01*
X262652461Y-61058648D01*
X262465870Y-60779395D01*
X262307620Y-60542558D01*
X262070091Y-59969113D01*
X262029727Y-59766191D01*
X261949000Y-59360348D01*
X261949000Y-58739652D01*
X262070091Y-58130888D01*
X262070091Y-58130887D01*
X262307620Y-57557442D01*
X262652459Y-57041355D01*
X262652461Y-57041352D01*
X263091352Y-56602461D01*
X263278553Y-56477377D01*
X263607442Y-56257620D01*
X264180887Y-56020091D01*
X264383809Y-55979727D01*
X264789652Y-55899000D01*
X265410348Y-55899000D01*
X265816191Y-55979727D01*
X265816191Y-55979727D01*
G37*
G36*
X75794714Y-50545769D02*
X76264958Y-50639306D01*
X76929397Y-50914525D01*
X77527377Y-51314083D01*
X78035917Y-51822623D01*
X78435475Y-52420603D01*
X78710694Y-53085042D01*
X78710694Y-53085044D01*
X78841055Y-53740408D01*
X78851000Y-53790408D01*
X78851000Y-54509592D01*
X78710694Y-55214958D01*
X78435475Y-55879397D01*
X78035917Y-56477377D01*
X77527377Y-56985917D01*
X76929397Y-57385475D01*
X76264958Y-57660694D01*
X75810959Y-57751000D01*
X75559593Y-57801000D01*
X74840407Y-57801000D01*
X74589041Y-57751000D01*
X74135042Y-57660694D01*
X73470603Y-57385475D01*
X72872623Y-56985917D01*
X72364083Y-56477377D01*
X71964525Y-55879397D01*
X71689306Y-55214958D01*
X71549000Y-54509592D01*
X71549000Y-53790408D01*
X71558946Y-53740408D01*
X71689306Y-53085044D01*
X71689306Y-53085042D01*
X71964525Y-52420603D01*
X72364083Y-51822623D01*
X72872623Y-51314083D01*
X73470603Y-50914525D01*
X74135042Y-50639306D01*
X74605286Y-50545769D01*
X74840407Y-50499000D01*
X75559593Y-50499000D01*
X75794714Y-50545769D01*
X75794714Y-50545769D01*
G37*
G36*
X109094714Y-50495769D02*
X109564958Y-50589306D01*
X110229397Y-50864525D01*
X110827377Y-51264083D01*
X111335917Y-51772623D01*
X111735475Y-52370603D01*
X112010694Y-53035042D01*
X112020640Y-53085044D01*
X112151000Y-53740407D01*
X112151000Y-54459593D01*
X112141054Y-54509593D01*
X112010694Y-55164958D01*
X111735475Y-55829397D01*
X111335917Y-56427377D01*
X110827377Y-56935917D01*
X110229397Y-57335475D01*
X109564958Y-57610694D01*
X109094714Y-57704231D01*
X108859593Y-57751000D01*
X108140407Y-57751000D01*
X107905286Y-57704231D01*
X107435042Y-57610694D01*
X106770603Y-57335475D01*
X106172623Y-56935917D01*
X105664083Y-56427377D01*
X105264525Y-55829397D01*
X104989306Y-55164958D01*
X104858946Y-54509593D01*
X104849000Y-54459593D01*
X104849000Y-53740407D01*
X104979360Y-53085044D01*
X104989306Y-53035042D01*
X105264525Y-52370603D01*
X105664083Y-51772623D01*
X106172623Y-51264083D01*
X106770603Y-50864525D01*
X107435042Y-50589306D01*
X107905286Y-50495769D01*
X108140407Y-50449000D01*
X108859593Y-50449000D01*
X109094714Y-50495769D01*
X109094714Y-50495769D01*
G37*
G36*
X86869714Y-50495769D02*
X87339958Y-50589306D01*
X88004397Y-50864525D01*
X88602377Y-51264083D01*
X89110917Y-51772623D01*
X89510475Y-52370603D01*
X89785694Y-53035042D01*
X89795640Y-53085044D01*
X89926000Y-53740407D01*
X89926000Y-54459593D01*
X89916054Y-54509593D01*
X89785694Y-55164958D01*
X89510475Y-55829397D01*
X89110917Y-56427377D01*
X88602377Y-56935917D01*
X88004397Y-57335475D01*
X87339958Y-57610694D01*
X86869714Y-57704231D01*
X86634593Y-57751000D01*
X85915407Y-57751000D01*
X85680286Y-57704231D01*
X85210042Y-57610694D01*
X84545603Y-57335475D01*
X83947623Y-56935917D01*
X83439083Y-56427377D01*
X83039525Y-55829397D01*
X82764306Y-55164958D01*
X82633946Y-54509593D01*
X82624000Y-54459593D01*
X82624000Y-53740407D01*
X82754360Y-53085044D01*
X82764306Y-53035042D01*
X83039525Y-52370603D01*
X83439083Y-51772623D01*
X83947623Y-51264083D01*
X84545603Y-50864525D01*
X85210042Y-50589306D01*
X85680286Y-50495769D01*
X85915407Y-50449000D01*
X86634593Y-50449000D01*
X86869714Y-50495769D01*
X86869714Y-50495769D01*
G37*
G36*
X97844714Y-50495769D02*
X98314958Y-50589306D01*
X98979397Y-50864525D01*
X99577377Y-51264083D01*
X100085917Y-51772623D01*
X100485475Y-52370603D01*
X100760694Y-53035042D01*
X100770640Y-53085044D01*
X100901000Y-53740407D01*
X100901000Y-54459593D01*
X100891054Y-54509593D01*
X100760694Y-55164958D01*
X100485475Y-55829397D01*
X100085917Y-56427377D01*
X99577377Y-56935917D01*
X98979397Y-57335475D01*
X98314958Y-57610694D01*
X97844714Y-57704231D01*
X97609593Y-57751000D01*
X96890407Y-57751000D01*
X96655286Y-57704231D01*
X96185042Y-57610694D01*
X95520603Y-57335475D01*
X94922623Y-56935917D01*
X94414083Y-56427377D01*
X94014525Y-55829397D01*
X93739306Y-55164958D01*
X93608946Y-54509593D01*
X93599000Y-54459593D01*
X93599000Y-53740407D01*
X93729360Y-53085044D01*
X93739306Y-53035042D01*
X94014525Y-52370603D01*
X94414083Y-51772623D01*
X94922623Y-51264083D01*
X95520603Y-50864525D01*
X96185042Y-50589306D01*
X96655286Y-50495769D01*
X96890407Y-50449000D01*
X97609593Y-50449000D01*
X97844714Y-50495769D01*
X97844714Y-50495769D01*
G37*
G36*
X119344714Y-50495769D02*
X119814958Y-50589306D01*
X120479397Y-50864525D01*
X121077377Y-51264083D01*
X121585917Y-51772623D01*
X121985475Y-52370603D01*
X122260694Y-53035042D01*
X122270640Y-53085044D01*
X122401000Y-53740407D01*
X122401000Y-54459593D01*
X122391054Y-54509593D01*
X122260694Y-55164958D01*
X121985475Y-55829397D01*
X121585917Y-56427377D01*
X121077377Y-56935917D01*
X120479397Y-57335475D01*
X119814958Y-57610694D01*
X119344714Y-57704231D01*
X119109593Y-57751000D01*
X118390407Y-57751000D01*
X118155286Y-57704231D01*
X117685042Y-57610694D01*
X117020603Y-57335475D01*
X116422623Y-56935917D01*
X115914083Y-56427377D01*
X115514525Y-55829397D01*
X115239306Y-55164958D01*
X115108946Y-54509593D01*
X115099000Y-54459593D01*
X115099000Y-53740407D01*
X115229360Y-53085044D01*
X115239306Y-53035042D01*
X115514525Y-52370603D01*
X115914083Y-51772623D01*
X116422623Y-51264083D01*
X117020603Y-50864525D01*
X117685042Y-50589306D01*
X118155286Y-50495769D01*
X118390407Y-50449000D01*
X119109593Y-50449000D01*
X119344714Y-50495769D01*
X119344714Y-50495769D01*
G37*
G36*
X75794714Y-35445769D02*
X76264958Y-35539306D01*
X76929397Y-35814525D01*
X77527377Y-36214083D01*
X78035917Y-36722623D01*
X78435475Y-37320603D01*
X78710694Y-37985042D01*
X78795142Y-38409592D01*
X78840048Y-38635346D01*
X78851000Y-38690408D01*
X78851000Y-39409592D01*
X78710694Y-40114958D01*
X78435475Y-40779397D01*
X78035917Y-41377377D01*
X77527377Y-41885917D01*
X76929397Y-42285475D01*
X76264958Y-42560694D01*
X75794714Y-42654231D01*
X75559593Y-42701000D01*
X74840407Y-42701000D01*
X74605286Y-42654231D01*
X74135042Y-42560694D01*
X73470603Y-42285475D01*
X72872623Y-41885917D01*
X72364083Y-41377377D01*
X71964525Y-40779397D01*
X71689306Y-40114958D01*
X71549000Y-39409592D01*
X71549000Y-38690408D01*
X71559953Y-38635346D01*
X71604858Y-38409592D01*
X71689306Y-37985042D01*
X71964525Y-37320603D01*
X72364083Y-36722623D01*
X72872623Y-36214083D01*
X73470603Y-35814525D01*
X74135042Y-35539306D01*
X74605286Y-35445769D01*
X74840407Y-35399000D01*
X75559593Y-35399000D01*
X75794714Y-35445769D01*
X75794714Y-35445769D01*
G37*
G36*
X241394714Y-34445769D02*
X241864958Y-34539306D01*
X242529397Y-34814525D01*
X243127377Y-35214083D01*
X243635917Y-35722623D01*
X244035475Y-36320603D01*
X244310694Y-36985042D01*
X244451000Y-37690408D01*
X244451000Y-38409592D01*
X244310694Y-39114958D01*
X244035475Y-39779397D01*
X243635917Y-40377377D01*
X243127377Y-40885917D01*
X242529397Y-41285475D01*
X241864958Y-41560694D01*
X241394714Y-41654231D01*
X241159593Y-41701000D01*
X240440407Y-41701000D01*
X240205286Y-41654231D01*
X239735042Y-41560694D01*
X239070603Y-41285475D01*
X238472623Y-40885917D01*
X237964083Y-40377377D01*
X237564525Y-39779397D01*
X237289306Y-39114958D01*
X237149000Y-38409592D01*
X237149000Y-37690408D01*
X237289306Y-36985042D01*
X237564525Y-36320603D01*
X237964083Y-35722623D01*
X238472623Y-35214083D01*
X239070603Y-34814525D01*
X239735042Y-34539306D01*
X240205286Y-34445769D01*
X240440407Y-34399000D01*
X241159593Y-34399000D01*
X241394714Y-34445769D01*
X241394714Y-34445769D01*
G37*
G36*
X119466191Y-35304727D02*
X119669113Y-35345091D01*
X120242558Y-35582620D01*
X120589629Y-35814526D01*
X120758648Y-35927461D01*
X121197539Y-36366352D01*
X121197541Y-36366355D01*
X121542380Y-36882442D01*
X121769554Y-37430888D01*
X121779909Y-37455888D01*
X121901000Y-38064652D01*
X121901000Y-38685348D01*
X121820273Y-39091191D01*
X121779909Y-39294113D01*
X121542380Y-39867558D01*
X121377072Y-40114958D01*
X121197539Y-40383648D01*
X120758648Y-40822539D01*
X120758645Y-40822541D01*
X120242558Y-41167380D01*
X119669113Y-41404909D01*
X119466191Y-41445273D01*
X119060348Y-41526000D01*
X118439652Y-41526000D01*
X118033809Y-41445273D01*
X117830887Y-41404909D01*
X117257442Y-41167380D01*
X116741355Y-40822541D01*
X116741352Y-40822539D01*
X116302461Y-40383648D01*
X116122928Y-40114958D01*
X115957620Y-39867558D01*
X115720091Y-39294113D01*
X115679727Y-39091191D01*
X115599000Y-38685348D01*
X115599000Y-38064652D01*
X115720091Y-37455888D01*
X115730446Y-37430888D01*
X115957620Y-36882442D01*
X116302459Y-36366355D01*
X116302461Y-36366352D01*
X116741352Y-35927461D01*
X116910371Y-35814526D01*
X117257442Y-35582620D01*
X117830887Y-35345091D01*
X118033809Y-35304727D01*
X118439652Y-35224000D01*
X119060348Y-35224000D01*
X119466191Y-35304727D01*
X119466191Y-35304727D01*
G37*
G36*
X86991191Y-35304727D02*
X87194113Y-35345091D01*
X87767558Y-35582620D01*
X88114629Y-35814526D01*
X88283648Y-35927461D01*
X88722539Y-36366352D01*
X88722541Y-36366355D01*
X89067380Y-36882442D01*
X89294554Y-37430888D01*
X89304909Y-37455888D01*
X89426000Y-38064652D01*
X89426000Y-38685348D01*
X89345273Y-39091191D01*
X89304909Y-39294113D01*
X89067380Y-39867558D01*
X88902072Y-40114958D01*
X88722539Y-40383648D01*
X88283648Y-40822539D01*
X88283645Y-40822541D01*
X87767558Y-41167380D01*
X87194113Y-41404909D01*
X86991191Y-41445273D01*
X86585348Y-41526000D01*
X85964652Y-41526000D01*
X85558809Y-41445273D01*
X85355887Y-41404909D01*
X84782442Y-41167380D01*
X84266355Y-40822541D01*
X84266352Y-40822539D01*
X83827461Y-40383648D01*
X83647928Y-40114958D01*
X83482620Y-39867558D01*
X83245091Y-39294113D01*
X83204727Y-39091191D01*
X83124000Y-38685348D01*
X83124000Y-38064652D01*
X83245091Y-37455888D01*
X83255446Y-37430888D01*
X83482620Y-36882442D01*
X83827459Y-36366355D01*
X83827461Y-36366352D01*
X84266352Y-35927461D01*
X84435371Y-35814526D01*
X84782442Y-35582620D01*
X85355887Y-35345091D01*
X85558809Y-35304727D01*
X85964652Y-35224000D01*
X86585348Y-35224000D01*
X86991191Y-35304727D01*
X86991191Y-35304727D01*
G37*
G36*
X195466191Y-35279727D02*
X195669113Y-35320091D01*
X196242558Y-35557620D01*
X196627044Y-35814526D01*
X196758648Y-35902461D01*
X197197539Y-36341352D01*
X197197541Y-36341355D01*
X197542380Y-36857442D01*
X197769554Y-37405888D01*
X197779909Y-37430888D01*
X197901000Y-38039652D01*
X197901000Y-38660348D01*
X197820273Y-39066191D01*
X197779909Y-39269113D01*
X197542380Y-39842558D01*
X197214245Y-40333645D01*
X197197539Y-40358648D01*
X196758648Y-40797539D01*
X196758645Y-40797541D01*
X196242558Y-41142380D01*
X195669113Y-41379909D01*
X195543429Y-41404909D01*
X195060348Y-41501000D01*
X194439652Y-41501000D01*
X193956571Y-41404909D01*
X193830887Y-41379909D01*
X193257442Y-41142380D01*
X192741355Y-40797541D01*
X192741352Y-40797539D01*
X192302461Y-40358648D01*
X192285755Y-40333645D01*
X191957620Y-39842558D01*
X191720091Y-39269113D01*
X191679727Y-39066191D01*
X191599000Y-38660348D01*
X191599000Y-38039652D01*
X191720091Y-37430888D01*
X191730446Y-37405888D01*
X191957620Y-36857442D01*
X192302459Y-36341355D01*
X192302461Y-36341352D01*
X192741352Y-35902461D01*
X192872956Y-35814526D01*
X193257442Y-35557620D01*
X193830887Y-35320091D01*
X194033809Y-35279727D01*
X194439652Y-35199000D01*
X195060348Y-35199000D01*
X195466191Y-35279727D01*
X195466191Y-35279727D01*
G37*
G36*
X206216191Y-35279727D02*
X206419113Y-35320091D01*
X206992558Y-35557620D01*
X207377044Y-35814526D01*
X207508648Y-35902461D01*
X207947539Y-36341352D01*
X207947541Y-36341355D01*
X208292380Y-36857442D01*
X208519554Y-37405888D01*
X208529909Y-37430888D01*
X208651000Y-38039652D01*
X208651000Y-38660348D01*
X208570273Y-39066191D01*
X208529909Y-39269113D01*
X208292380Y-39842558D01*
X207964245Y-40333645D01*
X207947539Y-40358648D01*
X207508648Y-40797539D01*
X207508645Y-40797541D01*
X206992558Y-41142380D01*
X206419113Y-41379909D01*
X206293429Y-41404909D01*
X205810348Y-41501000D01*
X205189652Y-41501000D01*
X204706571Y-41404909D01*
X204580887Y-41379909D01*
X204007442Y-41142380D01*
X203491355Y-40797541D01*
X203491352Y-40797539D01*
X203052461Y-40358648D01*
X203035755Y-40333645D01*
X202707620Y-39842558D01*
X202470091Y-39269113D01*
X202429727Y-39066191D01*
X202349000Y-38660348D01*
X202349000Y-38039652D01*
X202470091Y-37430888D01*
X202480446Y-37405888D01*
X202707620Y-36857442D01*
X203052459Y-36341355D01*
X203052461Y-36341352D01*
X203491352Y-35902461D01*
X203622956Y-35814526D01*
X204007442Y-35557620D01*
X204580887Y-35320091D01*
X204783809Y-35279727D01*
X205189652Y-35199000D01*
X205810348Y-35199000D01*
X206216191Y-35279727D01*
X206216191Y-35279727D01*
G37*
G36*
X184466191Y-35279727D02*
X184669113Y-35320091D01*
X185242558Y-35557620D01*
X185627044Y-35814526D01*
X185758648Y-35902461D01*
X186197539Y-36341352D01*
X186197541Y-36341355D01*
X186542380Y-36857442D01*
X186769554Y-37405888D01*
X186779909Y-37430888D01*
X186901000Y-38039652D01*
X186901000Y-38660348D01*
X186820273Y-39066191D01*
X186779909Y-39269113D01*
X186542380Y-39842558D01*
X186214245Y-40333645D01*
X186197539Y-40358648D01*
X185758648Y-40797539D01*
X185758645Y-40797541D01*
X185242558Y-41142380D01*
X184669113Y-41379909D01*
X184543429Y-41404909D01*
X184060348Y-41501000D01*
X183439652Y-41501000D01*
X182956571Y-41404909D01*
X182830887Y-41379909D01*
X182257442Y-41142380D01*
X181741355Y-40797541D01*
X181741352Y-40797539D01*
X181302461Y-40358648D01*
X181285755Y-40333645D01*
X180957620Y-39842558D01*
X180720091Y-39269113D01*
X180679727Y-39066191D01*
X180599000Y-38660348D01*
X180599000Y-38039652D01*
X180720091Y-37430888D01*
X180730446Y-37405888D01*
X180957620Y-36857442D01*
X181302459Y-36341355D01*
X181302461Y-36341352D01*
X181741352Y-35902461D01*
X181872956Y-35814526D01*
X182257442Y-35557620D01*
X182830887Y-35320091D01*
X183033809Y-35279727D01*
X183439652Y-35199000D01*
X184060348Y-35199000D01*
X184466191Y-35279727D01*
X184466191Y-35279727D01*
G37*
G36*
X173716191Y-35279727D02*
X173919113Y-35320091D01*
X174492558Y-35557620D01*
X174877044Y-35814526D01*
X175008648Y-35902461D01*
X175447539Y-36341352D01*
X175447541Y-36341355D01*
X175792380Y-36857442D01*
X176019554Y-37405888D01*
X176029909Y-37430888D01*
X176151000Y-38039652D01*
X176151000Y-38660348D01*
X176070273Y-39066191D01*
X176029909Y-39269113D01*
X175792380Y-39842558D01*
X175464245Y-40333645D01*
X175447539Y-40358648D01*
X175008648Y-40797539D01*
X175008645Y-40797541D01*
X174492558Y-41142380D01*
X173919113Y-41379909D01*
X173793429Y-41404909D01*
X173310348Y-41501000D01*
X172689652Y-41501000D01*
X172206571Y-41404909D01*
X172080887Y-41379909D01*
X171507442Y-41142380D01*
X170991355Y-40797541D01*
X170991352Y-40797539D01*
X170552461Y-40358648D01*
X170535755Y-40333645D01*
X170207620Y-39842558D01*
X169970091Y-39269113D01*
X169929727Y-39066191D01*
X169849000Y-38660348D01*
X169849000Y-38039652D01*
X169970091Y-37430888D01*
X169980446Y-37405888D01*
X170207620Y-36857442D01*
X170552459Y-36341355D01*
X170552461Y-36341352D01*
X170991352Y-35902461D01*
X171122956Y-35814526D01*
X171507442Y-35557620D01*
X172080887Y-35320091D01*
X172283809Y-35279727D01*
X172689652Y-35199000D01*
X173310348Y-35199000D01*
X173716191Y-35279727D01*
X173716191Y-35279727D01*
G37*
G36*
X151941191Y-35279727D02*
X152144113Y-35320091D01*
X152717558Y-35557620D01*
X153102044Y-35814526D01*
X153233648Y-35902461D01*
X153672539Y-36341352D01*
X153672541Y-36341355D01*
X154017380Y-36857442D01*
X154244554Y-37405888D01*
X154254909Y-37430888D01*
X154376000Y-38039652D01*
X154376000Y-38660348D01*
X154295273Y-39066191D01*
X154254909Y-39269113D01*
X154017380Y-39842558D01*
X153689245Y-40333645D01*
X153672539Y-40358648D01*
X153233648Y-40797539D01*
X153233645Y-40797541D01*
X152717558Y-41142380D01*
X152144113Y-41379909D01*
X152018429Y-41404909D01*
X151535348Y-41501000D01*
X150914652Y-41501000D01*
X150431571Y-41404909D01*
X150305887Y-41379909D01*
X149732442Y-41142380D01*
X149216355Y-40797541D01*
X149216352Y-40797539D01*
X148777461Y-40358648D01*
X148760755Y-40333645D01*
X148432620Y-39842558D01*
X148195091Y-39269113D01*
X148154727Y-39066191D01*
X148074000Y-38660348D01*
X148074000Y-38039652D01*
X148195091Y-37430888D01*
X148205446Y-37405888D01*
X148432620Y-36857442D01*
X148777459Y-36341355D01*
X148777461Y-36341352D01*
X149216352Y-35902461D01*
X149347956Y-35814526D01*
X149732442Y-35557620D01*
X150305887Y-35320091D01*
X150508809Y-35279727D01*
X150914652Y-35199000D01*
X151535348Y-35199000D01*
X151941191Y-35279727D01*
X151941191Y-35279727D01*
G37*
G36*
X130191191Y-35279727D02*
X130394113Y-35320091D01*
X130967558Y-35557620D01*
X131352044Y-35814526D01*
X131483648Y-35902461D01*
X131922539Y-36341352D01*
X131922541Y-36341355D01*
X132267380Y-36857442D01*
X132494554Y-37405888D01*
X132504909Y-37430888D01*
X132626000Y-38039652D01*
X132626000Y-38660348D01*
X132545273Y-39066191D01*
X132504909Y-39269113D01*
X132267380Y-39842558D01*
X131939245Y-40333645D01*
X131922539Y-40358648D01*
X131483648Y-40797539D01*
X131483645Y-40797541D01*
X130967558Y-41142380D01*
X130394113Y-41379909D01*
X130268429Y-41404909D01*
X129785348Y-41501000D01*
X129164652Y-41501000D01*
X128681571Y-41404909D01*
X128555887Y-41379909D01*
X127982442Y-41142380D01*
X127466355Y-40797541D01*
X127466352Y-40797539D01*
X127027461Y-40358648D01*
X127010755Y-40333645D01*
X126682620Y-39842558D01*
X126445091Y-39269113D01*
X126404727Y-39066191D01*
X126324000Y-38660348D01*
X126324000Y-38039652D01*
X126445091Y-37430888D01*
X126455446Y-37405888D01*
X126682620Y-36857442D01*
X127027459Y-36341355D01*
X127027461Y-36341352D01*
X127466352Y-35902461D01*
X127597956Y-35814526D01*
X127982442Y-35557620D01*
X128555887Y-35320091D01*
X128758809Y-35279727D01*
X129164652Y-35199000D01*
X129785348Y-35199000D01*
X130191191Y-35279727D01*
X130191191Y-35279727D01*
G37*
G36*
X108716191Y-35279727D02*
X108919113Y-35320091D01*
X109492558Y-35557620D01*
X109877044Y-35814526D01*
X110008648Y-35902461D01*
X110447539Y-36341352D01*
X110447541Y-36341355D01*
X110792380Y-36857442D01*
X111019554Y-37405888D01*
X111029909Y-37430888D01*
X111151000Y-38039652D01*
X111151000Y-38660348D01*
X111070273Y-39066191D01*
X111029909Y-39269113D01*
X110792380Y-39842558D01*
X110464245Y-40333645D01*
X110447539Y-40358648D01*
X110008648Y-40797539D01*
X110008645Y-40797541D01*
X109492558Y-41142380D01*
X108919113Y-41379909D01*
X108793429Y-41404909D01*
X108310348Y-41501000D01*
X107689652Y-41501000D01*
X107206571Y-41404909D01*
X107080887Y-41379909D01*
X106507442Y-41142380D01*
X105991355Y-40797541D01*
X105991352Y-40797539D01*
X105552461Y-40358648D01*
X105535755Y-40333645D01*
X105207620Y-39842558D01*
X104970091Y-39269113D01*
X104929727Y-39066191D01*
X104849000Y-38660348D01*
X104849000Y-38039652D01*
X104970091Y-37430888D01*
X104980446Y-37405888D01*
X105207620Y-36857442D01*
X105552459Y-36341355D01*
X105552461Y-36341352D01*
X105991352Y-35902461D01*
X106122956Y-35814526D01*
X106507442Y-35557620D01*
X107080887Y-35320091D01*
X107283809Y-35279727D01*
X107689652Y-35199000D01*
X108310348Y-35199000D01*
X108716191Y-35279727D01*
X108716191Y-35279727D01*
G37*
G36*
X97716191Y-35279727D02*
X97919113Y-35320091D01*
X98492558Y-35557620D01*
X98877044Y-35814526D01*
X99008648Y-35902461D01*
X99447539Y-36341352D01*
X99447541Y-36341355D01*
X99792380Y-36857442D01*
X100019554Y-37405888D01*
X100029909Y-37430888D01*
X100151000Y-38039652D01*
X100151000Y-38660348D01*
X100070273Y-39066191D01*
X100029909Y-39269113D01*
X99792380Y-39842558D01*
X99464245Y-40333645D01*
X99447539Y-40358648D01*
X99008648Y-40797539D01*
X99008645Y-40797541D01*
X98492558Y-41142380D01*
X97919113Y-41379909D01*
X97793429Y-41404909D01*
X97310348Y-41501000D01*
X96689652Y-41501000D01*
X96206571Y-41404909D01*
X96080887Y-41379909D01*
X95507442Y-41142380D01*
X94991355Y-40797541D01*
X94991352Y-40797539D01*
X94552461Y-40358648D01*
X94535755Y-40333645D01*
X94207620Y-39842558D01*
X93970091Y-39269113D01*
X93929727Y-39066191D01*
X93849000Y-38660348D01*
X93849000Y-38039652D01*
X93970091Y-37430888D01*
X93980446Y-37405888D01*
X94207620Y-36857442D01*
X94552459Y-36341355D01*
X94552461Y-36341352D01*
X94991352Y-35902461D01*
X95122956Y-35814526D01*
X95507442Y-35557620D01*
X96080887Y-35320091D01*
X96283809Y-35279727D01*
X96689652Y-35199000D01*
X97310348Y-35199000D01*
X97716191Y-35279727D01*
X97716191Y-35279727D01*
G37*
G36*
X140811714Y-35224000D02*
X141169113Y-35295091D01*
X141742558Y-35532620D01*
X142026914Y-35722621D01*
X142258648Y-35877461D01*
X142697539Y-36316352D01*
X142697541Y-36316355D01*
X143042380Y-36832442D01*
X143279909Y-37405887D01*
X143289855Y-37455888D01*
X143401000Y-38014652D01*
X143401000Y-38635348D01*
X143391054Y-38685348D01*
X143279909Y-39244113D01*
X143042380Y-39817558D01*
X142843663Y-40114958D01*
X142697539Y-40333648D01*
X142258648Y-40772539D01*
X142258645Y-40772541D01*
X141742558Y-41117380D01*
X141169113Y-41354909D01*
X141056158Y-41377377D01*
X140560348Y-41476000D01*
X139939652Y-41476000D01*
X139443842Y-41377377D01*
X139330887Y-41354909D01*
X138757442Y-41117380D01*
X138241355Y-40772541D01*
X138241352Y-40772539D01*
X137802461Y-40333648D01*
X137656337Y-40114958D01*
X137457620Y-39817558D01*
X137220091Y-39244113D01*
X137108946Y-38685348D01*
X137099000Y-38635348D01*
X137099000Y-38014652D01*
X137210145Y-37455888D01*
X137220091Y-37405887D01*
X137457620Y-36832442D01*
X137802459Y-36316355D01*
X137802461Y-36316352D01*
X138241352Y-35877461D01*
X138473086Y-35722621D01*
X138757442Y-35532620D01*
X139330887Y-35295091D01*
X139688286Y-35224000D01*
X139939652Y-35174000D01*
X140560348Y-35174000D01*
X140811714Y-35224000D01*
X140811714Y-35224000D01*
G37*
G36*
X162811714Y-35224000D02*
X163169113Y-35295091D01*
X163742558Y-35532620D01*
X164026914Y-35722621D01*
X164258648Y-35877461D01*
X164697539Y-36316352D01*
X164697541Y-36316355D01*
X165042380Y-36832442D01*
X165279909Y-37405887D01*
X165289855Y-37455888D01*
X165401000Y-38014652D01*
X165401000Y-38635348D01*
X165391054Y-38685348D01*
X165279909Y-39244113D01*
X165042380Y-39817558D01*
X164843663Y-40114958D01*
X164697539Y-40333648D01*
X164258648Y-40772539D01*
X164258645Y-40772541D01*
X163742558Y-41117380D01*
X163169113Y-41354909D01*
X163056158Y-41377377D01*
X162560348Y-41476000D01*
X161939652Y-41476000D01*
X161443842Y-41377377D01*
X161330887Y-41354909D01*
X160757442Y-41117380D01*
X160241355Y-40772541D01*
X160241352Y-40772539D01*
X159802461Y-40333648D01*
X159656337Y-40114958D01*
X159457620Y-39817558D01*
X159220091Y-39244113D01*
X159108946Y-38685348D01*
X159099000Y-38635348D01*
X159099000Y-38014652D01*
X159210145Y-37455888D01*
X159220091Y-37405887D01*
X159457620Y-36832442D01*
X159802459Y-36316355D01*
X159802461Y-36316352D01*
X160241352Y-35877461D01*
X160473086Y-35722621D01*
X160757442Y-35532620D01*
X161330887Y-35295091D01*
X161688286Y-35224000D01*
X161939652Y-35174000D01*
X162560348Y-35174000D01*
X162811714Y-35224000D01*
X162811714Y-35224000D01*
G37*
G36*
X73396160Y-23014368D02*
X73396162Y-23014369D01*
X73396163Y-23014369D01*
X73510514Y-23061735D01*
X73705726Y-23142594D01*
X73984327Y-23328749D01*
X74221251Y-23565673D01*
X74407406Y-23844274D01*
X74535632Y-24153840D01*
X74601000Y-24482465D01*
X74601000Y-24817535D01*
X74535632Y-25146160D01*
X74407406Y-25455726D01*
X74221251Y-25734327D01*
X73984327Y-25971251D01*
X73705726Y-26157406D01*
X73510514Y-26238265D01*
X73396163Y-26285631D01*
X73396162Y-26285631D01*
X73396160Y-26285632D01*
X73067535Y-26351000D01*
X72732465Y-26351000D01*
X72403840Y-26285632D01*
X72403838Y-26285631D01*
X72403837Y-26285631D01*
X72289486Y-26238265D01*
X72094274Y-26157406D01*
X71815673Y-25971251D01*
X71578749Y-25734327D01*
X71392594Y-25455726D01*
X71264368Y-25146160D01*
X71199000Y-24817535D01*
X71199000Y-24482465D01*
X71264368Y-24153840D01*
X71392594Y-23844274D01*
X71578749Y-23565673D01*
X71815673Y-23328749D01*
X72094274Y-23142594D01*
X72289486Y-23061735D01*
X72403837Y-23014369D01*
X72403838Y-23014369D01*
X72403840Y-23014368D01*
X72732465Y-22949000D01*
X73067535Y-22949000D01*
X73396160Y-23014368D01*
X73396160Y-23014368D01*
G37*
G36*
X267146160Y-23014368D02*
X267146162Y-23014369D01*
X267146163Y-23014369D01*
X267260514Y-23061735D01*
X267455726Y-23142594D01*
X267734327Y-23328749D01*
X267971251Y-23565673D01*
X268157406Y-23844274D01*
X268285632Y-24153840D01*
X268351000Y-24482465D01*
X268351000Y-24817535D01*
X268285632Y-25146160D01*
X268157406Y-25455726D01*
X267971251Y-25734327D01*
X267734327Y-25971251D01*
X267455726Y-26157406D01*
X267260514Y-26238265D01*
X267146163Y-26285631D01*
X267146162Y-26285631D01*
X267146160Y-26285632D01*
X266817535Y-26351000D01*
X266482465Y-26351000D01*
X266153840Y-26285632D01*
X266153838Y-26285631D01*
X266153837Y-26285631D01*
X266039486Y-26238265D01*
X265844274Y-26157406D01*
X265565673Y-25971251D01*
X265328749Y-25734327D01*
X265142594Y-25455726D01*
X265014368Y-25146160D01*
X264949000Y-24817535D01*
X264949000Y-24482465D01*
X265014368Y-24153840D01*
X265142594Y-23844274D01*
X265328749Y-23565673D01*
X265565673Y-23328749D01*
X265844274Y-23142594D01*
X266039486Y-23061735D01*
X266153837Y-23014369D01*
X266153838Y-23014369D01*
X266153840Y-23014368D01*
X266482465Y-22949000D01*
X266817535Y-22949000D01*
X267146160Y-23014368D01*
X267146160Y-23014368D01*
G37*
M02*
