%TF.GenerationSoftware,KiCad,Pcbnew,(5.0.1)-3*%
%TF.CreationDate,2020-01-29T23:15:48+00:00*%
%TF.ProjectId,SSv2 Panel,535376322050616E656C2E6B69636164,rev?*%
%TF.SameCoordinates,Original*%
%TF.FileFunction,Legend,Bot*%
%TF.FilePolarity,Positive*%
%FSLAX46Y46*%
G04 Gerber Fmt 4.6, Leading zero omitted, Abs format (unit mm)*
G04 Created by KiCad (PCBNEW (5.0.1)-3) date 29/01/2020 23:15:48*
%MOMM*%
%LPD*%
G01*
G04 APERTURE LIST*
%ADD10C,0.300000*%
G04 APERTURE END LIST*
D10*
X271585714Y-34082142D02*
X271371428Y-34153571D01*
X271014285Y-34153571D01*
X270871428Y-34082142D01*
X270800000Y-34010714D01*
X270728571Y-33867857D01*
X270728571Y-33725000D01*
X270800000Y-33582142D01*
X270871428Y-33510714D01*
X271014285Y-33439285D01*
X271300000Y-33367857D01*
X271442857Y-33296428D01*
X271514285Y-33225000D01*
X271585714Y-33082142D01*
X271585714Y-32939285D01*
X271514285Y-32796428D01*
X271442857Y-32725000D01*
X271300000Y-32653571D01*
X270942857Y-32653571D01*
X270728571Y-32725000D01*
X270300000Y-33153571D02*
X269728571Y-33153571D01*
X270085714Y-32653571D02*
X270085714Y-33939285D01*
X270014285Y-34082142D01*
X269871428Y-34153571D01*
X269728571Y-34153571D01*
X269014285Y-34153571D02*
X269157142Y-34082142D01*
X269228571Y-34010714D01*
X269300000Y-33867857D01*
X269300000Y-33439285D01*
X269228571Y-33296428D01*
X269157142Y-33225000D01*
X269014285Y-33153571D01*
X268800000Y-33153571D01*
X268657142Y-33225000D01*
X268585714Y-33296428D01*
X268514285Y-33439285D01*
X268514285Y-33867857D01*
X268585714Y-34010714D01*
X268657142Y-34082142D01*
X268800000Y-34153571D01*
X269014285Y-34153571D01*
X267228571Y-34082142D02*
X267371428Y-34153571D01*
X267657142Y-34153571D01*
X267800000Y-34082142D01*
X267871428Y-34010714D01*
X267942857Y-33867857D01*
X267942857Y-33439285D01*
X267871428Y-33296428D01*
X267800000Y-33225000D01*
X267657142Y-33153571D01*
X267371428Y-33153571D01*
X267228571Y-33225000D01*
X266585714Y-34153571D02*
X266585714Y-32653571D01*
X265942857Y-34153571D02*
X265942857Y-33367857D01*
X266014285Y-33225000D01*
X266157142Y-33153571D01*
X266371428Y-33153571D01*
X266514285Y-33225000D01*
X266585714Y-33296428D01*
X264585714Y-34153571D02*
X264585714Y-33367857D01*
X264657142Y-33225000D01*
X264800000Y-33153571D01*
X265085714Y-33153571D01*
X265228571Y-33225000D01*
X264585714Y-34082142D02*
X264728571Y-34153571D01*
X265085714Y-34153571D01*
X265228571Y-34082142D01*
X265300000Y-33939285D01*
X265300000Y-33796428D01*
X265228571Y-33653571D01*
X265085714Y-33582142D01*
X264728571Y-33582142D01*
X264585714Y-33510714D01*
X263942857Y-34082142D02*
X263800000Y-34153571D01*
X263514285Y-34153571D01*
X263371428Y-34082142D01*
X263300000Y-33939285D01*
X263300000Y-33867857D01*
X263371428Y-33725000D01*
X263514285Y-33653571D01*
X263728571Y-33653571D01*
X263871428Y-33582142D01*
X263942857Y-33439285D01*
X263942857Y-33367857D01*
X263871428Y-33225000D01*
X263728571Y-33153571D01*
X263514285Y-33153571D01*
X263371428Y-33225000D01*
X262871428Y-33153571D02*
X262300000Y-33153571D01*
X262657142Y-32653571D02*
X262657142Y-33939285D01*
X262585714Y-34082142D01*
X262442857Y-34153571D01*
X262300000Y-34153571D01*
X261800000Y-34153571D02*
X261800000Y-33153571D01*
X261800000Y-32653571D02*
X261871428Y-32725000D01*
X261800000Y-32796428D01*
X261728571Y-32725000D01*
X261800000Y-32653571D01*
X261800000Y-32796428D01*
X260442857Y-34082142D02*
X260585714Y-34153571D01*
X260871428Y-34153571D01*
X261014285Y-34082142D01*
X261085714Y-34010714D01*
X261157142Y-33867857D01*
X261157142Y-33439285D01*
X261085714Y-33296428D01*
X261014285Y-33225000D01*
X260871428Y-33153571D01*
X260585714Y-33153571D01*
X260442857Y-33225000D01*
X258728571Y-34082142D02*
X258514285Y-34153571D01*
X258157142Y-34153571D01*
X258014285Y-34082142D01*
X257942857Y-34010714D01*
X257871428Y-33867857D01*
X257871428Y-33725000D01*
X257942857Y-33582142D01*
X258014285Y-33510714D01*
X258157142Y-33439285D01*
X258442857Y-33367857D01*
X258585714Y-33296428D01*
X258657142Y-33225000D01*
X258728571Y-33082142D01*
X258728571Y-32939285D01*
X258657142Y-32796428D01*
X258585714Y-32725000D01*
X258442857Y-32653571D01*
X258085714Y-32653571D01*
X257871428Y-32725000D01*
X256657142Y-34082142D02*
X256800000Y-34153571D01*
X257085714Y-34153571D01*
X257228571Y-34082142D01*
X257300000Y-33939285D01*
X257300000Y-33367857D01*
X257228571Y-33225000D01*
X257085714Y-33153571D01*
X256800000Y-33153571D01*
X256657142Y-33225000D01*
X256585714Y-33367857D01*
X256585714Y-33510714D01*
X257300000Y-33653571D01*
X255300000Y-33153571D02*
X255300000Y-34653571D01*
X255300000Y-34082142D02*
X255442857Y-34153571D01*
X255728571Y-34153571D01*
X255871428Y-34082142D01*
X255942857Y-34010714D01*
X256014285Y-33867857D01*
X256014285Y-33439285D01*
X255942857Y-33296428D01*
X255871428Y-33225000D01*
X255728571Y-33153571D01*
X255442857Y-33153571D01*
X255300000Y-33225000D01*
X253942857Y-33153571D02*
X253942857Y-34153571D01*
X254585714Y-33153571D02*
X254585714Y-33939285D01*
X254514285Y-34082142D01*
X254371428Y-34153571D01*
X254157142Y-34153571D01*
X254014285Y-34082142D01*
X253942857Y-34010714D01*
X252657142Y-34082142D02*
X252800000Y-34153571D01*
X253085714Y-34153571D01*
X253228571Y-34082142D01*
X253300000Y-33939285D01*
X253300000Y-33367857D01*
X253228571Y-33225000D01*
X253085714Y-33153571D01*
X252800000Y-33153571D01*
X252657142Y-33225000D01*
X252585714Y-33367857D01*
X252585714Y-33510714D01*
X253300000Y-33653571D01*
X251942857Y-33153571D02*
X251942857Y-34153571D01*
X251942857Y-33296428D02*
X251871428Y-33225000D01*
X251728571Y-33153571D01*
X251514285Y-33153571D01*
X251371428Y-33225000D01*
X251300000Y-33367857D01*
X251300000Y-34153571D01*
X249942857Y-34082142D02*
X250085714Y-34153571D01*
X250371428Y-34153571D01*
X250514285Y-34082142D01*
X250585714Y-34010714D01*
X250657142Y-33867857D01*
X250657142Y-33439285D01*
X250585714Y-33296428D01*
X250514285Y-33225000D01*
X250371428Y-33153571D01*
X250085714Y-33153571D01*
X249942857Y-33225000D01*
X248728571Y-34082142D02*
X248871428Y-34153571D01*
X249157142Y-34153571D01*
X249300000Y-34082142D01*
X249371428Y-33939285D01*
X249371428Y-33367857D01*
X249300000Y-33225000D01*
X249157142Y-33153571D01*
X248871428Y-33153571D01*
X248728571Y-33225000D01*
X248657142Y-33367857D01*
X248657142Y-33510714D01*
X249371428Y-33653571D01*
X248014285Y-34153571D02*
X248014285Y-33153571D01*
X248014285Y-33439285D02*
X247942857Y-33296428D01*
X247871428Y-33225000D01*
X247728571Y-33153571D01*
X247585714Y-33153571D01*
X246085714Y-33153571D02*
X245728571Y-34153571D01*
X245371428Y-33153571D01*
X244871428Y-32796428D02*
X244800000Y-32725000D01*
X244657142Y-32653571D01*
X244300000Y-32653571D01*
X244157142Y-32725000D01*
X244085714Y-32796428D01*
X244014285Y-32939285D01*
X244014285Y-33082142D01*
X244085714Y-33296428D01*
X244942857Y-34153571D01*
X244014285Y-34153571D01*
X269228571Y-36632142D02*
X269014285Y-36703571D01*
X268657142Y-36703571D01*
X268514285Y-36632142D01*
X268442857Y-36560714D01*
X268371428Y-36417857D01*
X268371428Y-36275000D01*
X268442857Y-36132142D01*
X268514285Y-36060714D01*
X268657142Y-35989285D01*
X268942857Y-35917857D01*
X269085714Y-35846428D01*
X269157142Y-35775000D01*
X269228571Y-35632142D01*
X269228571Y-35489285D01*
X269157142Y-35346428D01*
X269085714Y-35275000D01*
X268942857Y-35203571D01*
X268585714Y-35203571D01*
X268371428Y-35275000D01*
X267085714Y-36703571D02*
X267085714Y-35917857D01*
X267157142Y-35775000D01*
X267300000Y-35703571D01*
X267585714Y-35703571D01*
X267728571Y-35775000D01*
X267085714Y-36632142D02*
X267228571Y-36703571D01*
X267585714Y-36703571D01*
X267728571Y-36632142D01*
X267800000Y-36489285D01*
X267800000Y-36346428D01*
X267728571Y-36203571D01*
X267585714Y-36132142D01*
X267228571Y-36132142D01*
X267085714Y-36060714D01*
X266371428Y-36703571D02*
X266371428Y-35703571D01*
X266371428Y-35846428D02*
X266300000Y-35775000D01*
X266157142Y-35703571D01*
X265942857Y-35703571D01*
X265800000Y-35775000D01*
X265728571Y-35917857D01*
X265728571Y-36703571D01*
X265728571Y-35917857D02*
X265657142Y-35775000D01*
X265514285Y-35703571D01*
X265300000Y-35703571D01*
X265157142Y-35775000D01*
X265085714Y-35917857D01*
X265085714Y-36703571D01*
X263442857Y-35203571D02*
X262585714Y-35203571D01*
X263014285Y-36703571D02*
X263014285Y-35203571D01*
X261442857Y-35703571D02*
X261442857Y-36703571D01*
X262085714Y-35703571D02*
X262085714Y-36489285D01*
X262014285Y-36632142D01*
X261871428Y-36703571D01*
X261657142Y-36703571D01*
X261514285Y-36632142D01*
X261442857Y-36560714D01*
X260800000Y-36632142D02*
X260657142Y-36703571D01*
X260371428Y-36703571D01*
X260228571Y-36632142D01*
X260157142Y-36489285D01*
X260157142Y-36417857D01*
X260228571Y-36275000D01*
X260371428Y-36203571D01*
X260585714Y-36203571D01*
X260728571Y-36132142D01*
X260800000Y-35989285D01*
X260800000Y-35917857D01*
X260728571Y-35775000D01*
X260585714Y-35703571D01*
X260371428Y-35703571D01*
X260228571Y-35775000D01*
X259514285Y-36703571D02*
X259514285Y-35203571D01*
X259371428Y-36132142D02*
X258942857Y-36703571D01*
X258942857Y-35703571D02*
X259514285Y-36275000D01*
X258228571Y-36632142D02*
X258228571Y-36703571D01*
X258300000Y-36846428D01*
X258371428Y-36917857D01*
X256014285Y-35203571D02*
X256014285Y-36275000D01*
X256085714Y-36489285D01*
X256228571Y-36632142D01*
X256442857Y-36703571D01*
X256585714Y-36703571D01*
X254657142Y-36703571D02*
X254657142Y-35917857D01*
X254728571Y-35775000D01*
X254871428Y-35703571D01*
X255157142Y-35703571D01*
X255300000Y-35775000D01*
X254657142Y-36632142D02*
X254800000Y-36703571D01*
X255157142Y-36703571D01*
X255300000Y-36632142D01*
X255371428Y-36489285D01*
X255371428Y-36346428D01*
X255300000Y-36203571D01*
X255157142Y-36132142D01*
X254800000Y-36132142D01*
X254657142Y-36060714D01*
X253942857Y-35703571D02*
X253942857Y-36703571D01*
X253942857Y-35846428D02*
X253871428Y-35775000D01*
X253728571Y-35703571D01*
X253514285Y-35703571D01*
X253371428Y-35775000D01*
X253300000Y-35917857D01*
X253300000Y-36703571D01*
X251514285Y-35346428D02*
X251442857Y-35275000D01*
X251300000Y-35203571D01*
X250942857Y-35203571D01*
X250800000Y-35275000D01*
X250728571Y-35346428D01*
X250657142Y-35489285D01*
X250657142Y-35632142D01*
X250728571Y-35846428D01*
X251585714Y-36703571D01*
X250657142Y-36703571D01*
X249728571Y-35203571D02*
X249585714Y-35203571D01*
X249442857Y-35275000D01*
X249371428Y-35346428D01*
X249300000Y-35489285D01*
X249228571Y-35775000D01*
X249228571Y-36132142D01*
X249300000Y-36417857D01*
X249371428Y-36560714D01*
X249442857Y-36632142D01*
X249585714Y-36703571D01*
X249728571Y-36703571D01*
X249871428Y-36632142D01*
X249942857Y-36560714D01*
X250014285Y-36417857D01*
X250085714Y-36132142D01*
X250085714Y-35775000D01*
X250014285Y-35489285D01*
X249942857Y-35346428D01*
X249871428Y-35275000D01*
X249728571Y-35203571D01*
X248657142Y-35346428D02*
X248585714Y-35275000D01*
X248442857Y-35203571D01*
X248085714Y-35203571D01*
X247942857Y-35275000D01*
X247871428Y-35346428D01*
X247800000Y-35489285D01*
X247800000Y-35632142D01*
X247871428Y-35846428D01*
X248728571Y-36703571D01*
X247800000Y-36703571D01*
X246871428Y-35203571D02*
X246728571Y-35203571D01*
X246585714Y-35275000D01*
X246514285Y-35346428D01*
X246442857Y-35489285D01*
X246371428Y-35775000D01*
X246371428Y-36132142D01*
X246442857Y-36417857D01*
X246514285Y-36560714D01*
X246585714Y-36632142D01*
X246728571Y-36703571D01*
X246871428Y-36703571D01*
X247014285Y-36632142D01*
X247085714Y-36560714D01*
X247157142Y-36417857D01*
X247228571Y-36132142D01*
X247228571Y-35775000D01*
X247157142Y-35489285D01*
X247085714Y-35346428D01*
X247014285Y-35275000D01*
X246871428Y-35203571D01*
X270378571Y-30178571D02*
X270378571Y-31250000D01*
X270450000Y-31464285D01*
X270592857Y-31607142D01*
X270807142Y-31678571D01*
X270950000Y-31678571D01*
X268950000Y-31678571D02*
X269664285Y-31678571D01*
X269664285Y-30178571D01*
X267592857Y-31535714D02*
X267664285Y-31607142D01*
X267878571Y-31678571D01*
X268021428Y-31678571D01*
X268235714Y-31607142D01*
X268378571Y-31464285D01*
X268450000Y-31321428D01*
X268521428Y-31035714D01*
X268521428Y-30821428D01*
X268450000Y-30535714D01*
X268378571Y-30392857D01*
X268235714Y-30250000D01*
X268021428Y-30178571D01*
X267878571Y-30178571D01*
X267664285Y-30250000D01*
X267592857Y-30321428D01*
X266521428Y-30178571D02*
X266521428Y-31250000D01*
X266592857Y-31464285D01*
X266735714Y-31607142D01*
X266950000Y-31678571D01*
X267092857Y-31678571D01*
X265092857Y-31678571D02*
X265807142Y-31678571D01*
X265807142Y-30178571D01*
X263735714Y-31535714D02*
X263807142Y-31607142D01*
X264021428Y-31678571D01*
X264164285Y-31678571D01*
X264378571Y-31607142D01*
X264521428Y-31464285D01*
X264592857Y-31321428D01*
X264664285Y-31035714D01*
X264664285Y-30821428D01*
X264592857Y-30535714D01*
X264521428Y-30392857D01*
X264378571Y-30250000D01*
X264164285Y-30178571D01*
X264021428Y-30178571D01*
X263807142Y-30250000D01*
X263735714Y-30321428D01*
X262664285Y-30178571D02*
X262664285Y-31250000D01*
X262735714Y-31464285D01*
X262878571Y-31607142D01*
X263092857Y-31678571D01*
X263235714Y-31678571D01*
X261235714Y-31678571D02*
X261950000Y-31678571D01*
X261950000Y-30178571D01*
X259878571Y-31535714D02*
X259950000Y-31607142D01*
X260164285Y-31678571D01*
X260307142Y-31678571D01*
X260521428Y-31607142D01*
X260664285Y-31464285D01*
X260735714Y-31321428D01*
X260807142Y-31035714D01*
X260807142Y-30821428D01*
X260735714Y-30535714D01*
X260664285Y-30392857D01*
X260521428Y-30250000D01*
X260307142Y-30178571D01*
X260164285Y-30178571D01*
X259950000Y-30250000D01*
X259878571Y-30321428D01*
X258807142Y-30178571D02*
X258807142Y-31250000D01*
X258878571Y-31464285D01*
X259021428Y-31607142D01*
X259235714Y-31678571D01*
X259378571Y-31678571D01*
X257378571Y-31678571D02*
X258092857Y-31678571D01*
X258092857Y-30178571D01*
X256021428Y-31535714D02*
X256092857Y-31607142D01*
X256307142Y-31678571D01*
X256450000Y-31678571D01*
X256664285Y-31607142D01*
X256807142Y-31464285D01*
X256878571Y-31321428D01*
X256950000Y-31035714D01*
X256950000Y-30821428D01*
X256878571Y-30535714D01*
X256807142Y-30392857D01*
X256664285Y-30250000D01*
X256450000Y-30178571D01*
X256307142Y-30178571D01*
X256092857Y-30250000D01*
X256021428Y-30321428D01*
M02*
