0
SECTION
2
HEADER
9
$INSUNITS
70
4
9
$ACADVER
1
AC1014
9
$HANDSEED
5
FFFF
0
ENDSEC
0
SECTION
2
TABLES
0
TABLE
2
VPORT
5
8
100
AcDbSymbolTable
0
ENDTAB
0
TABLE
2
LTYPE
5
5
100
AcDbSymbolTable
0
LTYPE
5
14
100
AcDbSymbolTableRecord
100
AcDbLinetypeTableRecord
2
BYBLOCK
70
0
0
LTYPE
5
15
100
AcDbSymbolTableRecord
100
AcDbLinetypeTableRecord
2
BYLAYER
70
0
0
ENDTAB
0
TABLE
2
LAYER
5
2
100
AcDbSymbolTable
70
2
0
LAYER
5
50
100
AcDbSymbolTableRecord
100
AcDbLayerTableRecord
2
0
70
0
6
CONTINUOUS
0
ENDTAB
0
TABLE
2
STYLE
5
3
100
AcDbSymbolTable
70
1
0
STYLE
5
11
100
AcDbSymbolTableRecord
100
AcDbTextStyleTableRecord
2
STANDARD
70
0
0
ENDTAB
0
TABLE
2
VIEW
5
6
100
AcDbSymbolTable
70
0
0
ENDTAB
0
TABLE
2
UCS
5
7
100
AcDbSymbolTable
70
0
0
ENDTAB
0
TABLE
2
APPID
5
9
100
AcDbSymbolTable
70
2
0
APPID
5
12
100
AcDbSymbolTableRecord
100
AcDbRegAppTableRecord
2
ACAD
70
0
0
ENDTAB
0
TABLE
2
DIMSTYLE
5
A
100
AcDbSymbolTable
70
1
0
ENDTAB
0
TABLE
2
BLOCK_RECORD
5
1
100
AcDbSymbolTable
70
1
0
BLOCK_RECORD
5
1F
100
AcDbSymbolTableRecord
100
AcDbBlockTableRecord
2
*MODEL_SPACE
0
BLOCK_RECORD
5
1B
100
AcDbSymbolTableRecord
100
AcDbBlockTableRecord
2
*PAPER_SPACE
0
ENDTAB
0
ENDSEC
0
SECTION
2
BLOCKS
0
BLOCK
5
20
100
AcDbEntity
100
AcDbBlockBegin
2
*MODEL_SPACE
0
ENDBLK
5
21
100
AcDbEntity
100
AcDbBlockEnd
0
BLOCK
5
1C
100
AcDbEntity
100
AcDbBlockBegin
2
*PAPER_SPACE
0
ENDBLK
5
1D
100
AcDbEntity
100
AcDbBlockEnd
0
ENDSEC
0
SECTION
2
ENTITIES
0
LWPOLYLINE
5
100
100
AcDbEntity
8
0
100
AcDbPolyline
90
102
70
1
43
0.0
10
-12.000000000000002
20
294.21958319757221
10
0
20
294.21958319757221
10
0
20
320
10
-59.75
20
320
10
-59.75
20
308
10
-117.25000000000003
20
308
10
-117.25000000000003
20
320
10
-174.75
20
320
10
-174.75
20
308
10
-232.25
20
308
10
-232.25
20
320
10
-289.75
20
320
10
-289.75
20
308
10
-347.25
20
308
10
-347.25
20
320
10
-404.75
20
320
10
-404.75
20
308
10
-462.25
20
308
10
-462.25
20
320
10
-519.75
20
320
10
-519.75
20
308
10
-577.25
20
308
10
-577.25
20
320
10
-637
20
320
10
-637
20
294.21958319757221
10
-625
20
294.21958319757221
10
-625
20
259.21958319757221
10
-637
20
259.21958319757221
10
-637
20
214.21958319757223
10
-625
20
214.21958319757223
10
-625
20
179.21958319757223
10
-637
20
179.21958319757223
10
-637
20
134.21958319757221
10
-625
20
134.21958319757221
10
-625
20
99.21958319757222
10
-637
20
99.21958319757222
10
-637
20
54.21958319757222
10
-625
20
54.21958319757222
10
-625
20
19.219583197572216
10
-637
20
19.219583197572216
10
-637
20
-25.780416802427784
10
-625
20
-25.780416802427784
10
-625
20
-60.78041680242778
10
-637
20
-60.78041680242778
10
-637
20
-86.560833604855588
10
-596
20
-86.560833604855588
10
-596
20
-71.751401712534161
10
-561
20
-71.751401712534161
10
-561
20
-86.560833604855588
10
-509.33333333333337
20
-86.560833604855588
10
-509.33333333333337
20
-71.751401712534161
10
-474.33333333333337
20
-71.751401712534161
10
-474.33333333333337
20
-86.560833604855588
10
-422.66666666666663
20
-86.560833604855588
10
-422.66666666666663
20
-71.751401712534161
10
-387.66666666666663
20
-71.751401712534161
10
-387.66666666666663
20
-86.560833604855588
10
-336
20
-86.560833604855588
10
-336
20
-71.751401712534161
10
-301
20
-71.751401712534161
10
-301
20
-86.560833604855588
10
-249.33333333333337
20
-86.560833604855588
10
-249.33333333333337
20
-71.751401712534161
10
-214.33333333333337
20
-71.751401712534161
10
-214.33333333333337
20
-86.560833604855588
10
-162.66666666666666
20
-86.560833604855588
10
-162.66666666666669
20
-71.751401712534161
10
-127.66666666666669
20
-71.751401712534161
10
-127.66666666666666
20
-86.560833604855588
10
-76.000000000000014
20
-86.560833604855588
10
-76.000000000000014
20
-71.751401712534161
10
-41.000000000000014
20
-71.751401712534161
10
-41.000000000000014
20
-86.560833604855588
10
0
20
-86.560833604855588
10
0
20
-61.223540890930067
10
-11.999940187962361
20
-61.223540890930067
10
-11.999940187962361
20
-60.78041680242778
10
-12.000000000000002
20
-60.780416802427801
10
-12.000000000000002
20
-25.780416802427801
10
0
20
-25.780416802427784
10
0
20
18.776459109069936
10
-11.999940187962361
20
18.776459109069936
10
-11.999940187962361
20
19.219583197572216
10
-12.000000000000002
20
19.219583197572199
10
-12.000000000000002
20
54.219583197572199
10
0
20
54.21958319757222
10
0
20
98.776459109069933
10
-11.999940187962361
20
98.776459109069933
10
-11.999940187962361
20
99.21958319757222
10
-12.000000000000002
20
99.219583197572206
10
-12.000000000000002
20
134.21958319757221
10
0
20
134.21958319757221
10
0
20
178.77645910906992
10
-11.999940187962361
20
178.77645910906992
10
-11.999940187962361
20
179.21958319757223
10
-12.000000000000002
20
179.21958319757223
10
-12.000000000000002
20
214.21958319757223
10
0
20
214.21958319757223
10
0
20
258.77645910906995
10
-11.999940187962361
20
258.77645910906995
10
-11.999940187962361
20
259.21958319757221
10
-12.000000000000002
20
259.21958319757221
0
ENDSEC
0
SECTION
2
OBJECTS
0
DICTIONARY
5
C
100
AcDbDictionary
3
ACAD_GROUP
350
D
3
ACAD_MLINESTYLE
350
17
0
DICTIONARY
5
D
100
AcDbDictionary
0
DICTIONARY
5
1A
330
C
100
AcDbDictionary
0
DICTIONARY
5
17
100
AcDbDictionary
0
ENDSEC
0
EOF
