0
SECTION
2
HEADER
9
$INSUNITS
70
4
9
$ACADVER
1
AC1014
9
$HANDSEED
5
FFFF
0
ENDSEC
0
SECTION
2
TABLES
0
TABLE
2
VPORT
5
8
100
AcDbSymbolTable
0
ENDTAB
0
TABLE
2
LTYPE
5
5
100
AcDbSymbolTable
0
LTYPE
5
14
100
AcDbSymbolTableRecord
100
AcDbLinetypeTableRecord
2
BYBLOCK
70
0
0
LTYPE
5
15
100
AcDbSymbolTableRecord
100
AcDbLinetypeTableRecord
2
BYLAYER
70
0
0
ENDTAB
0
TABLE
2
LAYER
5
2
100
AcDbSymbolTable
70
2
0
LAYER
5
50
100
AcDbSymbolTableRecord
100
AcDbLayerTableRecord
2
0
70
0
6
CONTINUOUS
0
ENDTAB
0
TABLE
2
STYLE
5
3
100
AcDbSymbolTable
70
1
0
STYLE
5
11
100
AcDbSymbolTableRecord
100
AcDbTextStyleTableRecord
2
STANDARD
70
0
0
ENDTAB
0
TABLE
2
VIEW
5
6
100
AcDbSymbolTable
70
0
0
ENDTAB
0
TABLE
2
UCS
5
7
100
AcDbSymbolTable
70
0
0
ENDTAB
0
TABLE
2
APPID
5
9
100
AcDbSymbolTable
70
2
0
APPID
5
12
100
AcDbSymbolTableRecord
100
AcDbRegAppTableRecord
2
ACAD
70
0
0
ENDTAB
0
TABLE
2
DIMSTYLE
5
A
100
AcDbSymbolTable
70
1
0
ENDTAB
0
TABLE
2
BLOCK_RECORD
5
1
100
AcDbSymbolTable
70
1
0
BLOCK_RECORD
5
1F
100
AcDbSymbolTableRecord
100
AcDbBlockTableRecord
2
*MODEL_SPACE
0
BLOCK_RECORD
5
1B
100
AcDbSymbolTableRecord
100
AcDbBlockTableRecord
2
*PAPER_SPACE
0
ENDTAB
0
ENDSEC
0
SECTION
2
BLOCKS
0
BLOCK
5
20
100
AcDbEntity
100
AcDbBlockBegin
2
*MODEL_SPACE
0
ENDBLK
5
21
100
AcDbEntity
100
AcDbBlockEnd
0
BLOCK
5
1C
100
AcDbEntity
100
AcDbBlockBegin
2
*PAPER_SPACE
0
ENDBLK
5
1D
100
AcDbEntity
100
AcDbBlockEnd
0
ENDSEC
0
SECTION
2
ENTITIES
0
LWPOLYLINE
5
100
100
AcDbEntity
8
0
100
AcDbPolyline
90
4
70
1
43
0.0
10
-253.418766668252
20
128.4179961107809
10
-253.35572340758785
20
173.41799611078088
42
0.99999999999999989
10
-263.35571359413916
20
173.43200571051347
10
-263.41875685480295
20
128.43200571051349
42
0.99999999999999989
0
LWPOLYLINE
5
101
100
AcDbEntity
8
0
100
AcDbPolyline
90
4
70
1
43
0.0
10
-231.418766668252
20
128.4179961107809
10
-231.35572340758785
20
173.41799611078088
42
0.99999999999999989
10
-241.35571359413916
20
173.43200571051347
10
-241.41875685480298
20
128.43200571051349
42
0.99999999999999989
0
LWPOLYLINE
5
102
100
AcDbEntity
8
0
100
AcDbPolyline
90
4
70
1
43
0.0
10
-209.41876666825203
20
128.4179961107809
10
-209.35572340758785
20
173.41799611078088
42
0.99999999999999989
10
-219.35571359413916
20
173.43200571051347
10
-219.41875685480298
20
128.43200571051349
42
0.99999999999999989
0
CIRCLE
5
103
100
AcDbEntity
8
0
100
AcDbCircle
10
-39.875018053484233
20
154.43499066693047
30
0
40
2.7499999999999991
210
0
220
-0
230
1
0
CIRCLE
5
104
100
AcDbEntity
8
0
100
AcDbCircle
10
-53.824289340468347
20
159.40020755093045
30
0
40
2.7500000000000036
210
0
220
-0
230
1
0
CIRCLE
5
105
100
AcDbEntity
8
0
100
AcDbCircle
10
79.948063036405841
20
128.96580854175514
30
0
40
2.7500000000000036
210
0
220
-0
230
1
0
CIRCLE
5
106
100
AcDbEntity
8
0
100
AcDbCircle
10
-162.97258855354315
20
215.01404376902482
30
0
40
2.7500000000000115
210
0
220
-0
230
1
0
LWPOLYLINE
5
107
100
AcDbEntity
8
0
100
AcDbPolyline
90
48
70
1
43
0.0
10
-43.104187823120775
20
169.42614508603216
10
-42.00000062584877
20
169.00000251829624
10
100.73820089802304
20
138.7520000896605
10
96.002471833922627
20
116.40442685374697
10
84.263165107681587
20
118.89213213919189
10
79.557255942714946
20
96.685276915385799
10
91.296562668955971
20
94.197571629940896
10
86.560833604855588
20
71.849998394027352
10
74.293708978894159
20
71.846968037806562
10
74.294351149114533
20
71.849998394027352
10
60.78041680242778
20
71.849998394027352
10
60.78041680242778
20
59.849998394027352
10
25.780416802427784
20
59.849998394027352
10
25.780416802427784
20
71.849998394027352
10
-19.219583197572216
20
71.849998394027352
10
-19.219583197572216
20
59.849998394027352
10
-54.21958319757222
20
59.849998394027352
10
-54.21958319757222
20
71.849998394027352
10
-99.21958319757222
20
71.849998394027352
10
-99.21958319757222
20
59.849998394027352
10
-134.21958319757221
20
59.849998394027352
10
-134.21958319757221
20
71.849998394027352
10
-179.21958319757223
20
71.849998394027352
10
-179.21958319757223
20
59.849998394027352
10
-214.21958319757223
20
59.849998394027352
10
-214.21958319757223
20
71.849998394027352
10
-259.21958319757221
20
71.849998394027352
10
-259.21958319757221
20
59.849998394027352
10
-294.21958319757221
20
59.849998394027352
10
-294.21958319757221
20
71.849998394027352
10
-319.99999999999994
20
71.849998394027352
10
-319.99999999999994
20
110.84999839402735
10
-308
20
110.84999839402735
10
-308
20
149.84999839402735
10
-319.99999999999994
20
149.84999839402735
10
-319.99999999999994
20
188.84999839402738
10
-308
20
188.84999839402738
10
-308
20
230.00000342726707
10
-294.21958319757221
20
230.00000342726707
10
-294.21958319757221
20
242.00000342726707
10
-259.21958319757221
20
242.00000342726707
10
-259.21958319757221
20
230.00000342726707
10
-214.21958319757223
20
230.00000342726707
10
-214.21958319757223
20
242.00000342726707
10
-179.21958319757223
20
242.00000342726707
10
-179.21958319757223
20
230.00000342726707
10
-162.00000241398811
20
230.00000342726707
10
-156.47618569382328
20
227.19206326118328
0
ENDSEC
0
SECTION
2
OBJECTS
0
DICTIONARY
5
C
100
AcDbDictionary
3
ACAD_GROUP
350
D
3
ACAD_MLINESTYLE
350
17
0
DICTIONARY
5
D
100
AcDbDictionary
0
DICTIONARY
5
1A
330
C
100
AcDbDictionary
0
DICTIONARY
5
17
100
AcDbDictionary
0
ENDSEC
0
EOF
