0
SECTION
2
HEADER
9
$INSUNITS
70
4
9
$ACADVER
1
AC1014
9
$HANDSEED
5
FFFF
0
ENDSEC
0
SECTION
2
TABLES
0
TABLE
2
VPORT
5
8
100
AcDbSymbolTable
0
ENDTAB
0
TABLE
2
LTYPE
5
5
100
AcDbSymbolTable
0
LTYPE
5
14
100
AcDbSymbolTableRecord
100
AcDbLinetypeTableRecord
2
BYBLOCK
70
0
0
LTYPE
5
15
100
AcDbSymbolTableRecord
100
AcDbLinetypeTableRecord
2
BYLAYER
70
0
0
ENDTAB
0
TABLE
2
LAYER
5
2
100
AcDbSymbolTable
70
2
0
LAYER
5
50
100
AcDbSymbolTableRecord
100
AcDbLayerTableRecord
2
0
70
0
6
CONTINUOUS
0
ENDTAB
0
TABLE
2
STYLE
5
3
100
AcDbSymbolTable
70
1
0
STYLE
5
11
100
AcDbSymbolTableRecord
100
AcDbTextStyleTableRecord
2
STANDARD
70
0
0
ENDTAB
0
TABLE
2
VIEW
5
6
100
AcDbSymbolTable
70
0
0
ENDTAB
0
TABLE
2
UCS
5
7
100
AcDbSymbolTable
70
0
0
ENDTAB
0
TABLE
2
APPID
5
9
100
AcDbSymbolTable
70
2
0
APPID
5
12
100
AcDbSymbolTableRecord
100
AcDbRegAppTableRecord
2
ACAD
70
0
0
ENDTAB
0
TABLE
2
DIMSTYLE
5
A
100
AcDbSymbolTable
70
1
0
ENDTAB
0
TABLE
2
BLOCK_RECORD
5
1
100
AcDbSymbolTable
70
1
0
BLOCK_RECORD
5
1F
100
AcDbSymbolTableRecord
100
AcDbBlockTableRecord
2
*MODEL_SPACE
0
BLOCK_RECORD
5
1B
100
AcDbSymbolTableRecord
100
AcDbBlockTableRecord
2
*PAPER_SPACE
0
ENDTAB
0
ENDSEC
0
SECTION
2
BLOCKS
0
BLOCK
5
20
100
AcDbEntity
100
AcDbBlockBegin
2
*MODEL_SPACE
0
ENDBLK
5
21
100
AcDbEntity
100
AcDbBlockEnd
0
BLOCK
5
1C
100
AcDbEntity
100
AcDbBlockBegin
2
*PAPER_SPACE
0
ENDBLK
5
1D
100
AcDbEntity
100
AcDbBlockEnd
0
ENDSEC
0
SECTION
2
ENTITIES
0
LINE
5
100
100
AcDbEntity
8
0
100
AcDbLine
10
53.824289340468347
20
159.40020755093045
30
0
11
162.97258855354315
21
215.01404376902482
31
0
0
CIRCLE
5
101
100
AcDbEntity
8
0
100
AcDbCircle
10
162.97258855354315
20
215.01404376902482
30
0
40
2.75
210
-0
220
0
230
1
0
CIRCLE
5
102
100
AcDbEntity
8
0
100
AcDbCircle
10
53.824289340468347
20
159.40020755093045
30
0
40
2.75
210
-0
220
0
230
1
0
LINE
5
103
100
AcDbEntity
8
0
100
AcDbLine
10
162.97258855354315
20
215.01404376902482
30
0
11
167.42762117448495
21
217.28399626772256
31
0
0
LINE
5
104
100
AcDbEntity
8
0
100
AcDbLine
10
53.824289340468347
20
159.40020755093045
30
0
11
49.369256719526511
21
157.13025505223271
31
0
0
LINE
5
105
100
AcDbEntity
8
0
100
AcDbLine
10
49.369256719526511
20
157.13025505223271
30
0
11
43.104187823120775
21
169.42614508603216
31
0
0
LINE
5
106
100
AcDbEntity
8
0
100
AcDbLine
10
167.42762117448495
20
217.28399626772256
30
0
11
161.16255227807926
21
229.57988630152198
31
0
0
LINE
5
107
100
AcDbEntity
8
0
100
AcDbLine
10
161.16255227807926
20
229.57988630152198
30
0
11
43.104187823120775
21
169.42614508603216
31
0
0
LINE
5
108
100
AcDbEntity
8
0
100
AcDbLine
10
161.16255227807926
20
229.57988630152198
30
0
11
162.43372567734997
21
227.08506803379461
31
0
0
LINE
5
109
100
AcDbEntity
8
0
100
AcDbLine
10
162.43372567734997
20
227.08506803379461
30
0
11
160.91901458622971
21
226.31328418423735
31
0
0
LINE
5
110
100
AcDbEntity
8
0
100
AcDbLine
10
160.91901458622971
20
226.31328418423735
30
0
11
159.64784118695903
21
228.80810245196474
31
0
0
LINE
5
111
100
AcDbEntity
8
0
100
AcDbLine
10
159.64784118695903
20
228.80810245196474
30
0
11
161.16255227807926
21
229.57988630152198
31
0
0
LINE
5
112
100
AcDbEntity
8
0
100
AcDbLine
10
162.43372567734997
20
227.08506803379461
30
0
11
174.82766632023959
21
202.76058992345216
31
0
0
LINE
5
113
100
AcDbEntity
8
0
100
AcDbLine
10
174.82766632023959
20
202.76058992345216
30
0
11
165.91760107835594
21
198.22068492605672
31
0
0
LINE
5
114
100
AcDbEntity
8
0
100
AcDbLine
10
165.91760107835594
20
198.22068492605672
30
0
11
153.5236604354663
21
222.54516303639915
31
0
0
LINE
5
115
100
AcDbEntity
8
0
100
AcDbLine
10
153.5236604354663
20
222.54516303639915
30
0
11
162.43372567734997
21
227.08506803379461
31
0
0
LINE
5
116
100
AcDbEntity
8
0
100
AcDbLine
10
43.104187823120775
20
169.42614508603216
30
0
11
44.375361222391504
21
166.93132681830474
31
0
0
LINE
5
117
100
AcDbEntity
8
0
100
AcDbLine
10
44.375361222391504
20
166.93132681830474
30
0
11
45.890072313511709
21
167.70311066786201
31
0
0
LINE
5
118
100
AcDbEntity
8
0
100
AcDbLine
10
45.890072313511709
20
167.70311066786201
30
0
11
44.618898914240994
21
170.1979289355894
31
0
0
LINE
5
119
100
AcDbEntity
8
0
100
AcDbLine
10
44.618898914240994
20
170.1979289355894
30
0
11
43.104187823120775
21
169.42614508603216
31
0
0
LINE
5
120
100
AcDbEntity
8
0
100
AcDbLine
10
44.375361222391504
20
166.93132681830474
30
0
11
56.769301865281093
21
142.60684870796237
31
0
0
LINE
5
121
100
AcDbEntity
8
0
100
AcDbLine
10
56.769301865281093
20
142.60684870796237
30
0
11
65.679367107164751
21
147.14675370535784
31
0
0
LINE
5
122
100
AcDbEntity
8
0
100
AcDbLine
10
65.679367107164751
20
147.14675370535784
30
0
11
53.285426464275147
21
171.47123181570021
31
0
0
LINE
5
123
100
AcDbEntity
8
0
100
AcDbLine
10
53.285426464275147
20
171.47123181570021
30
0
11
44.375361222391504
21
166.93132681830474
31
0
0
LINE
5
124
100
AcDbEntity
8
0
100
AcDbLine
10
153.5236604354663
20
222.54516303639915
30
0
11
185.30299541723451
21
160.17470634321356
31
0
0
LINE
5
125
100
AcDbEntity
8
0
100
AcDbLine
10
185.30299541723451
20
160.17470634321356
30
0
11
85.510264708137527
21
109.32777037238439
31
0
0
LINE
5
126
100
AcDbEntity
8
0
100
AcDbLine
10
85.510264708137527
20
109.32777037238439
30
0
11
53.730929726369325
21
171.69822706556997
31
0
0
LINE
5
127
100
AcDbEntity
8
0
100
AcDbLine
10
53.730929726369325
20
171.69822706556997
30
0
11
153.5236604354663
21
222.54516303639915
31
0
0
LINE
5
128
100
AcDbEntity
8
0
100
AcDbLine
10
-87.125829639070162
20
138.68587369573814
30
0
11
-85.463008042798876
21
139.03946153329397
31
0
0
LINE
5
129
100
AcDbEntity
8
0
100
AcDbLine
10
-81.44984047974539
20
111.98244419570554
30
0
11
-71.668364472407418
21
114.06156110388309
31
0
0
LINE
5
130
100
AcDbEntity
8
0
100
AcDbLine
10
40.233723802620709
20
168.61953613675539
30
0
11
41.896574723868163
21
168.97298601114562
31
0
0
LINE
5
131
100
AcDbEntity
8
0
100
AcDbLine
10
42.478727458157891
20
166.23417272909103
30
0
11
40.81586021205748
21
165.88079965709539
31
0
0
LINE
5
132
100
AcDbEntity
8
0
100
AcDbLine
10
41.896574723868163
20
168.97298601114562
30
0
11
-87.707982373359883
21
141.42468697779276
31
0
0
LINE
5
133
100
AcDbEntity
8
0
100
AcDbLine
10
-62.301461474122291
20
72.398614397958866
30
0
11
-76.855279831365323
21
140.86894644932454
31
0
0
LINE
5
134
100
AcDbEntity
8
0
100
AcDbLine
10
-87.125829639070162
20
138.68587369573814
30
0
11
-81.44984047974539
21
111.98244419570554
31
0
0
LINE
5
135
100
AcDbEntity
8
0
100
AcDbLine
10
-86.045131452112429
20
141.77813685218294
30
0
11
-87.707982373359883
21
141.42468697779276
31
0
0
LINE
5
136
100
AcDbEntity
8
0
100
AcDbLine
10
38.019209889562639
20
137.5401340010263
30
0
11
32.697251450819913
21
164.15505582091342
31
0
0
LINE
5
137
100
AcDbEntity
8
0
100
AcDbLine
10
-87.707982373359883
20
141.42468697779276
30
0
11
-87.125829639070162
21
138.68587369573814
31
0
0
LINE
5
138
100
AcDbEntity
8
0
100
AcDbLine
10
32.697251450819913
20
164.15505582091342
30
0
11
42.478727458157891
21
166.23417272909103
31
0
0
LINE
5
139
100
AcDbEntity
8
0
100
AcDbLine
10
47.251069808062937
20
95.68472376954773
30
0
11
-62.301461474122291
21
72.398614397958866
31
0
0
LINE
5
140
100
AcDbEntity
8
0
100
AcDbLine
10
48.154716617482677
20
139.53074322905832
30
0
11
38.019209889562639
21
137.5401340010263
31
0
0
LINE
5
141
100
AcDbEntity
8
0
100
AcDbLine
10
39.875018053484233
20
154.43499066693047
30
0
11
44.765756057153197
21
155.47454912101924
31
0
0
LINE
5
142
100
AcDbEntity
8
0
100
AcDbLine
10
32.697251450819913
20
164.15505582091342
30
0
11
47.251069808062937
21
95.68472376954773
31
0
0
LINE
5
143
100
AcDbEntity
8
0
100
AcDbLine
10
42.478727458157891
20
166.23417272909103
30
0
11
48.154716617482677
21
139.53074322905832
31
0
0
LINE
5
144
100
AcDbEntity
8
0
100
AcDbLine
10
-79.948063036405841
20
128.96580854175514
30
0
11
39.875018053484233
21
154.43499066693047
31
0
0
CIRCLE
5
145
100
AcDbEntity
8
0
100
AcDbCircle
10
39.875018053484233
20
154.43499066693047
30
0
40
2.75
210
-0
220
0
230
1
0
LINE
5
146
100
AcDbEntity
8
0
100
AcDbLine
10
-79.948063036405841
20
128.96580854175514
30
0
11
-84.838801040074841
21
127.92625008766638
31
0
0
LINE
5
147
100
AcDbEntity
8
0
100
AcDbLine
10
44.765756057153197
20
155.47454912101924
30
0
11
41.896574723868163
21
168.97298601114562
31
0
0
LINE
5
148
100
AcDbEntity
8
0
100
AcDbLine
10
-76.855279831365323
20
140.86894644932454
30
0
11
32.697251450819913
21
164.15505582091342
31
0
0
LINE
5
149
100
AcDbEntity
8
0
100
AcDbLine
10
41.896574723868163
20
168.97298601114562
30
0
11
42.478727458157891
21
166.23417272909103
31
0
0
LINE
5
150
100
AcDbEntity
8
0
100
AcDbLine
10
-84.838801040074841
20
127.92625008766638
30
0
11
-87.707982373359883
21
141.42468697779276
31
0
0
LINE
5
151
100
AcDbEntity
8
0
100
AcDbLine
10
-71.668364472407418
20
114.06156110388309
30
0
11
-77.344353631732218
21
140.76499060391566
31
0
0
LINE
5
152
100
AcDbEntity
8
0
100
AcDbLine
10
-77.344353631732218
20
140.76499060391566
30
0
11
-87.125829639070162
21
138.68587369573814
31
0
0
CIRCLE
5
153
100
AcDbEntity
8
0
100
AcDbCircle
10
-79.948063036405841
20
128.96580854175514
30
0
40
2.75
210
-0
220
0
230
1
0
LINE
5
154
100
AcDbEntity
8
0
100
AcDbLine
10
-85.463008042798876
20
139.03946153329397
30
0
11
-86.045131452112429
21
141.77813685218294
31
0
0
LINE
5
155
100
AcDbEntity
8
0
100
AcDbLine
10
40.81586021205748
20
165.88079965709539
30
0
11
40.233723802620709
21
168.61953613675539
31
0
0
LINE
5
156
100
AcDbEntity
8
0
100
AcDbLine
10
43.104187823120775
20
169.42614508603216
30
0
11
161.16255227807926
21
229.57988630152198
31
0
0
LINE
5
157
100
AcDbEntity
8
0
100
AcDbLine
10
161.16255227807926
20
229.57988630152198
30
0
11
160.34849272208191
21
231.17756813822922
31
0
0
LINE
5
158
100
AcDbEntity
8
0
100
AcDbLine
10
160.34849272208191
20
231.17756813822922
30
0
11
42.290128267123428
21
171.02382692273943
31
0
0
LINE
5
159
100
AcDbEntity
8
0
100
AcDbLine
10
42.290128267123428
20
171.02382692273943
30
0
11
43.104187823120775
21
169.42614508603216
31
0
0
ENDSEC
0
SECTION
2
OBJECTS
0
DICTIONARY
5
C
100
AcDbDictionary
3
ACAD_GROUP
350
D
3
ACAD_MLINESTYLE
350
17
0
DICTIONARY
5
D
100
AcDbDictionary
0
DICTIONARY
5
1A
330
C
100
AcDbDictionary
0
DICTIONARY
5
17
100
AcDbDictionary
0
ENDSEC
0
EOF
