0
SECTION
2
HEADER
9
$INSUNITS
70
4
9
$ACADVER
1
AC1014
9
$HANDSEED
5
FFFF
0
ENDSEC
0
SECTION
2
TABLES
0
TABLE
2
VPORT
5
8
100
AcDbSymbolTable
0
ENDTAB
0
TABLE
2
LTYPE
5
5
100
AcDbSymbolTable
0
LTYPE
5
14
100
AcDbSymbolTableRecord
100
AcDbLinetypeTableRecord
2
BYBLOCK
70
0
0
LTYPE
5
15
100
AcDbSymbolTableRecord
100
AcDbLinetypeTableRecord
2
BYLAYER
70
0
0
ENDTAB
0
TABLE
2
LAYER
5
2
100
AcDbSymbolTable
70
2
0
LAYER
5
50
100
AcDbSymbolTableRecord
100
AcDbLayerTableRecord
2
0
70
0
6
CONTINUOUS
0
ENDTAB
0
TABLE
2
STYLE
5
3
100
AcDbSymbolTable
70
1
0
STYLE
5
11
100
AcDbSymbolTableRecord
100
AcDbTextStyleTableRecord
2
STANDARD
70
0
0
ENDTAB
0
TABLE
2
VIEW
5
6
100
AcDbSymbolTable
70
0
0
ENDTAB
0
TABLE
2
UCS
5
7
100
AcDbSymbolTable
70
0
0
ENDTAB
0
TABLE
2
APPID
5
9
100
AcDbSymbolTable
70
2
0
APPID
5
12
100
AcDbSymbolTableRecord
100
AcDbRegAppTableRecord
2
ACAD
70
0
0
ENDTAB
0
TABLE
2
DIMSTYLE
5
A
100
AcDbSymbolTable
70
1
0
ENDTAB
0
TABLE
2
BLOCK_RECORD
5
1
100
AcDbSymbolTable
70
1
0
BLOCK_RECORD
5
1F
100
AcDbSymbolTableRecord
100
AcDbBlockTableRecord
2
*MODEL_SPACE
0
BLOCK_RECORD
5
1B
100
AcDbSymbolTableRecord
100
AcDbBlockTableRecord
2
*PAPER_SPACE
0
ENDTAB
0
ENDSEC
0
SECTION
2
BLOCKS
0
BLOCK
5
20
100
AcDbEntity
100
AcDbBlockBegin
2
*MODEL_SPACE
0
ENDBLK
5
21
100
AcDbEntity
100
AcDbBlockEnd
0
BLOCK
5
1C
100
AcDbEntity
100
AcDbBlockBegin
2
*PAPER_SPACE
0
ENDBLK
5
1D
100
AcDbEntity
100
AcDbBlockEnd
0
ENDSEC
0
SECTION
2
ENTITIES
0
LWPOLYLINE
5
100
100
AcDbEntity
8
0
100
AcDbPolyline
90
4
70
1
43
0.0
10
458.14783393740299
20
172.34999839402735
10
458.14783393740299
20
127.34999839402734
42
0.99999999999999989
10
468.14783393740299
20
127.34999839402731
10
468.14783393740299
20
172.34999839402735
42
0.99999999999999989
0
LWPOLYLINE
5
101
100
AcDbEntity
8
0
100
AcDbPolyline
90
4
70
1
43
0.0
10
134.85216606259706
20
127.34999839402732
10
134.85216606259706
20
172.34999839402735
42
0.99999999999999989
10
124.85216606259698
20
172.34999839402735
10
124.85216606259698
20
127.34999839402732
42
0.99999999999999989
0
LWPOLYLINE
5
102
100
AcDbEntity
8
0
100
AcDbPolyline
90
4
70
1
43
0.0
10
480.14783393740294
20
172.34999839402735
10
480.14783393740294
20
127.34999839402734
42
0.99999999999999989
10
490.14783393740294
20
127.34999839402734
10
490.14783393740311
20
172.34999839402735
42
0.99999999999999989
0
LWPOLYLINE
5
103
100
AcDbEntity
8
0
100
AcDbPolyline
90
4
70
1
43
0.0
10
178.85216606259706
20
127.34999839402732
10
178.85216606259704
20
172.34999839402735
42
0.99999999999999989
10
168.85216606259701
20
172.34999839402735
10
168.85216606259701
20
127.34999839402732
42
0.99999999999999989
0
LWPOLYLINE
5
104
100
AcDbEntity
8
0
100
AcDbPolyline
90
4
70
1
43
0.0
10
156.85216606259706
20
127.34999839402732
10
156.85216606259706
20
172.34999839402735
42
0.99999999999999989
10
146.85216606259698
20
172.34999839402735
10
146.85216606259698
20
127.34999839402732
42
0.99999999999999989
0
LWPOLYLINE
5
105
100
AcDbEntity
8
0
100
AcDbPolyline
90
4
70
1
43
0.0
10
512.14783393740322
20
127.34999839402731
10
512.14783393740299
20
172.34999839402735
42
0.99999999999999989
10
502.14783393740305
20
172.34999839402735
10
502.14783393740288
20
127.34999839402734
42
0.99999999999999989
0
LWPOLYLINE
5
106
100
AcDbEntity
8
0
100
AcDbPolyline
90
56
70
1
43
0.0
10
0
20
149.84999839402735
10
12.000000000000002
20
149.84999839402735
10
12.000000000000002
20
188.84999839402738
10
0
20
188.84999839402738
10
0
20
230.00000342726707
10
59.75
20
230.00000342726707
10
59.75
20
242.00000342726707
10
117.25000000000003
20
242.00000342726707
10
117.25000000000003
20
230.00000342726707
10
174.75
20
230.00000342726707
10
174.75
20
242.00000342726707
10
232.25
20
242.00000342726707
10
232.25
20
230.00000342726707
10
289.75
20
230.00000342726707
10
289.75
20
242.00000342726707
10
347.25
20
242.00000342726707
10
347.25
20
230.00000342726707
10
404.75
20
230.00000342726707
10
404.75
20
242.00000342726707
10
462.25
20
242.00000342726707
10
462.25
20
230.00000342726707
10
519.75
20
230.00000342726707
10
519.75
20
242.00000342726707
10
577.25
20
242.00000342726707
10
577.25
20
230.00000342726707
10
637
20
230.00000342726707
10
637
20
188.84999839402738
10
625
20
188.84999839402738
10
625
20
149.84999839402735
10
637
20
149.84999839402735
10
637
20
110.84999839402735
10
625
20
110.84999839402735
10
625
20
71.849998394027352
10
577.25
20
71.849998394027352
10
577.25
20
59.849998394027352
10
519.75
20
59.849998394027352
10
519.75
20
71.849998394027352
10
462.25
20
71.849998394027352
10
462.25
20
59.849998394027352
10
404.75
20
59.849998394027352
10
404.75
20
71.849998394027352
10
347.25
20
71.849998394027352
10
347.25
20
59.849998394027352
10
289.75
20
59.849998394027352
10
289.75
20
71.849998394027352
10
232.25
20
71.849998394027352
10
232.25
20
59.849998394027352
10
174.75
20
59.849998394027352
10
174.75
20
71.849998394027352
10
117.25000000000003
20
71.849998394027352
10
117.25000000000003
20
59.849998394027352
10
59.75
20
59.849998394027352
10
59.75
20
71.849998394027352
10
12.000000000000002
20
71.849998394027352
10
12.000000000000002
20
110.84999839402735
10
0
20
110.84999839402735
0
ENDSEC
0
SECTION
2
OBJECTS
0
DICTIONARY
5
C
100
AcDbDictionary
3
ACAD_GROUP
350
D
3
ACAD_MLINESTYLE
350
17
0
DICTIONARY
5
D
100
AcDbDictionary
0
DICTIONARY
5
1A
330
C
100
AcDbDictionary
0
DICTIONARY
5
17
100
AcDbDictionary
0
ENDSEC
0
EOF
