%TF.GenerationSoftware,KiCad,Pcbnew,(5.0.1)-3*%
%TF.CreationDate,2019-09-01T21:44:45+01:00*%
%TF.ProjectId,Tap LFO v2,546170204C464F2076322E6B69636164,rev?*%
%TF.SameCoordinates,Original*%
%TF.FileFunction,Soldermask,Top*%
%TF.FilePolarity,Negative*%
%FSLAX46Y46*%
G04 Gerber Fmt 4.6, Leading zero omitted, Abs format (unit mm)*
G04 Created by KiCad (PCBNEW (5.0.1)-3) date 01/09/2019 21:44:45*
%MOMM*%
%LPD*%
G01*
G04 APERTURE LIST*
%ADD10C,0.100000*%
G04 APERTURE END LIST*
D10*
X70500000Y-20000000D02*
X20000000Y-20000000D01*
X70500000Y-128000000D02*
X70500000Y-20000000D01*
X20000000Y-128000000D02*
X70500000Y-128000000D01*
X20000000Y-20000000D02*
X20000000Y-128000000D01*
G36*
X64864612Y-124718037D02*
X65092096Y-124812264D01*
X65296831Y-124949064D01*
X65470936Y-125123169D01*
X65607736Y-125327904D01*
X65701963Y-125555388D01*
X65750000Y-125796885D01*
X65750000Y-126043115D01*
X65701963Y-126284612D01*
X65607736Y-126512096D01*
X65470936Y-126716831D01*
X65296831Y-126890936D01*
X65092096Y-127027736D01*
X64864612Y-127121963D01*
X64623115Y-127170000D01*
X64376885Y-127170000D01*
X64135388Y-127121963D01*
X63907904Y-127027736D01*
X63703169Y-126890936D01*
X63529064Y-126716831D01*
X63392264Y-126512096D01*
X63298037Y-126284612D01*
X63250000Y-126043115D01*
X63250000Y-125796885D01*
X63298037Y-125555388D01*
X63392264Y-125327904D01*
X63529064Y-125123169D01*
X63703169Y-124949064D01*
X63907904Y-124812264D01*
X64135388Y-124718037D01*
X64376885Y-124670000D01*
X64623115Y-124670000D01*
X64864612Y-124718037D01*
X64864612Y-124718037D01*
G37*
G36*
X51864612Y-124718037D02*
X52092096Y-124812264D01*
X52296831Y-124949064D01*
X52470936Y-125123169D01*
X52607736Y-125327904D01*
X52701963Y-125555388D01*
X52750000Y-125796885D01*
X52750000Y-126043115D01*
X52701963Y-126284612D01*
X52607736Y-126512096D01*
X52470936Y-126716831D01*
X52296831Y-126890936D01*
X52092096Y-127027736D01*
X51864612Y-127121963D01*
X51623115Y-127170000D01*
X51376885Y-127170000D01*
X51135388Y-127121963D01*
X50907904Y-127027736D01*
X50703169Y-126890936D01*
X50529064Y-126716831D01*
X50392264Y-126512096D01*
X50298037Y-126284612D01*
X50250000Y-126043115D01*
X50250000Y-125796885D01*
X50298037Y-125555388D01*
X50392264Y-125327904D01*
X50529064Y-125123169D01*
X50703169Y-124949064D01*
X50907904Y-124812264D01*
X51135388Y-124718037D01*
X51376885Y-124670000D01*
X51623115Y-124670000D01*
X51864612Y-124718037D01*
X51864612Y-124718037D01*
G37*
G36*
X38864612Y-124718037D02*
X39092096Y-124812264D01*
X39296831Y-124949064D01*
X39470936Y-125123169D01*
X39607736Y-125327904D01*
X39701963Y-125555388D01*
X39750000Y-125796885D01*
X39750000Y-126043115D01*
X39701963Y-126284612D01*
X39607736Y-126512096D01*
X39470936Y-126716831D01*
X39296831Y-126890936D01*
X39092096Y-127027736D01*
X38864612Y-127121963D01*
X38623115Y-127170000D01*
X38376885Y-127170000D01*
X38135388Y-127121963D01*
X37907904Y-127027736D01*
X37703169Y-126890936D01*
X37529064Y-126716831D01*
X37392264Y-126512096D01*
X37298037Y-126284612D01*
X37250000Y-126043115D01*
X37250000Y-125796885D01*
X37298037Y-125555388D01*
X37392264Y-125327904D01*
X37529064Y-125123169D01*
X37703169Y-124949064D01*
X37907904Y-124812264D01*
X38135388Y-124718037D01*
X38376885Y-124670000D01*
X38623115Y-124670000D01*
X38864612Y-124718037D01*
X38864612Y-124718037D01*
G37*
G36*
X25864612Y-124718037D02*
X26092096Y-124812264D01*
X26296831Y-124949064D01*
X26470936Y-125123169D01*
X26607736Y-125327904D01*
X26701963Y-125555388D01*
X26750000Y-125796885D01*
X26750000Y-126043115D01*
X26701963Y-126284612D01*
X26607736Y-126512096D01*
X26470936Y-126716831D01*
X26296831Y-126890936D01*
X26092096Y-127027736D01*
X25864612Y-127121963D01*
X25623115Y-127170000D01*
X25376885Y-127170000D01*
X25135388Y-127121963D01*
X24907904Y-127027736D01*
X24703169Y-126890936D01*
X24529064Y-126716831D01*
X24392264Y-126512096D01*
X24298037Y-126284612D01*
X24250000Y-126043115D01*
X24250000Y-125796885D01*
X24298037Y-125555388D01*
X24392264Y-125327904D01*
X24529064Y-125123169D01*
X24703169Y-124949064D01*
X24907904Y-124812264D01*
X25135388Y-124718037D01*
X25376885Y-124670000D01*
X25623115Y-124670000D01*
X25864612Y-124718037D01*
X25864612Y-124718037D01*
G37*
G36*
X58800000Y-121050000D02*
X57200000Y-121050000D01*
X57200000Y-119450000D01*
X58800000Y-119450000D01*
X58800000Y-121050000D01*
X58800000Y-121050000D01*
G37*
G36*
X64864612Y-116418037D02*
X65092096Y-116512264D01*
X65296831Y-116649064D01*
X65470936Y-116823169D01*
X65607736Y-117027904D01*
X65701963Y-117255388D01*
X65750000Y-117496885D01*
X65750000Y-117743115D01*
X65701963Y-117984612D01*
X65607736Y-118212096D01*
X65470936Y-118416831D01*
X65296831Y-118590936D01*
X65092096Y-118727736D01*
X64864612Y-118821963D01*
X64623115Y-118870000D01*
X64376885Y-118870000D01*
X64135388Y-118821963D01*
X63907904Y-118727736D01*
X63703169Y-118590936D01*
X63529064Y-118416831D01*
X63392264Y-118212096D01*
X63298037Y-117984612D01*
X63250000Y-117743115D01*
X63250000Y-117496885D01*
X63298037Y-117255388D01*
X63392264Y-117027904D01*
X63529064Y-116823169D01*
X63703169Y-116649064D01*
X63907904Y-116512264D01*
X64135388Y-116418037D01*
X64376885Y-116370000D01*
X64623115Y-116370000D01*
X64864612Y-116418037D01*
X64864612Y-116418037D01*
G37*
G36*
X25864612Y-116418037D02*
X26092096Y-116512264D01*
X26296831Y-116649064D01*
X26470936Y-116823169D01*
X26607736Y-117027904D01*
X26701963Y-117255388D01*
X26750000Y-117496885D01*
X26750000Y-117743115D01*
X26701963Y-117984612D01*
X26607736Y-118212096D01*
X26470936Y-118416831D01*
X26296831Y-118590936D01*
X26092096Y-118727736D01*
X25864612Y-118821963D01*
X25623115Y-118870000D01*
X25376885Y-118870000D01*
X25135388Y-118821963D01*
X24907904Y-118727736D01*
X24703169Y-118590936D01*
X24529064Y-118416831D01*
X24392264Y-118212096D01*
X24298037Y-117984612D01*
X24250000Y-117743115D01*
X24250000Y-117496885D01*
X24298037Y-117255388D01*
X24392264Y-117027904D01*
X24529064Y-116823169D01*
X24703169Y-116649064D01*
X24907904Y-116512264D01*
X25135388Y-116418037D01*
X25376885Y-116370000D01*
X25623115Y-116370000D01*
X25864612Y-116418037D01*
X25864612Y-116418037D01*
G37*
G36*
X38864612Y-116418037D02*
X39092096Y-116512264D01*
X39296831Y-116649064D01*
X39470936Y-116823169D01*
X39607736Y-117027904D01*
X39701963Y-117255388D01*
X39750000Y-117496885D01*
X39750000Y-117743115D01*
X39701963Y-117984612D01*
X39607736Y-118212096D01*
X39470936Y-118416831D01*
X39296831Y-118590936D01*
X39092096Y-118727736D01*
X38864612Y-118821963D01*
X38623115Y-118870000D01*
X38376885Y-118870000D01*
X38135388Y-118821963D01*
X37907904Y-118727736D01*
X37703169Y-118590936D01*
X37529064Y-118416831D01*
X37392264Y-118212096D01*
X37298037Y-117984612D01*
X37250000Y-117743115D01*
X37250000Y-117496885D01*
X37298037Y-117255388D01*
X37392264Y-117027904D01*
X37529064Y-116823169D01*
X37703169Y-116649064D01*
X37907904Y-116512264D01*
X38135388Y-116418037D01*
X38376885Y-116370000D01*
X38623115Y-116370000D01*
X38864612Y-116418037D01*
X38864612Y-116418037D01*
G37*
G36*
X51864612Y-116418037D02*
X52092096Y-116512264D01*
X52296831Y-116649064D01*
X52470936Y-116823169D01*
X52607736Y-117027904D01*
X52701963Y-117255388D01*
X52750000Y-117496885D01*
X52750000Y-117743115D01*
X52701963Y-117984612D01*
X52607736Y-118212096D01*
X52470936Y-118416831D01*
X52296831Y-118590936D01*
X52092096Y-118727736D01*
X51864612Y-118821963D01*
X51623115Y-118870000D01*
X51376885Y-118870000D01*
X51135388Y-118821963D01*
X50907904Y-118727736D01*
X50703169Y-118590936D01*
X50529064Y-118416831D01*
X50392264Y-118212096D01*
X50298037Y-117984612D01*
X50250000Y-117743115D01*
X50250000Y-117496885D01*
X50298037Y-117255388D01*
X50392264Y-117027904D01*
X50529064Y-116823169D01*
X50703169Y-116649064D01*
X50907904Y-116512264D01*
X51135388Y-116418037D01*
X51376885Y-116370000D01*
X51623115Y-116370000D01*
X51864612Y-116418037D01*
X51864612Y-116418037D01*
G37*
G36*
X58117649Y-115647717D02*
X58156827Y-115651576D01*
X58232227Y-115674448D01*
X58307629Y-115697321D01*
X58446608Y-115771608D01*
X58568422Y-115871578D01*
X58668392Y-115993392D01*
X58742679Y-116132371D01*
X58788424Y-116283174D01*
X58803870Y-116440000D01*
X58788424Y-116596826D01*
X58742679Y-116747629D01*
X58668392Y-116886608D01*
X58568422Y-117008422D01*
X58446608Y-117108392D01*
X58307629Y-117182679D01*
X58232227Y-117205552D01*
X58156827Y-117228424D01*
X58117649Y-117232283D01*
X58039295Y-117240000D01*
X57960705Y-117240000D01*
X57882351Y-117232283D01*
X57843173Y-117228424D01*
X57767773Y-117205552D01*
X57692371Y-117182679D01*
X57553392Y-117108392D01*
X57431578Y-117008422D01*
X57331608Y-116886608D01*
X57257321Y-116747629D01*
X57211576Y-116596826D01*
X57196130Y-116440000D01*
X57211576Y-116283174D01*
X57257321Y-116132371D01*
X57331608Y-115993392D01*
X57431578Y-115871578D01*
X57553392Y-115771608D01*
X57692371Y-115697321D01*
X57767773Y-115674448D01*
X57843173Y-115651576D01*
X57882351Y-115647717D01*
X57960705Y-115640000D01*
X58039295Y-115640000D01*
X58117649Y-115647717D01*
X58117649Y-115647717D01*
G37*
G36*
X64864612Y-113318037D02*
X65092096Y-113412264D01*
X65296831Y-113549064D01*
X65470936Y-113723169D01*
X65607736Y-113927904D01*
X65701963Y-114155388D01*
X65750000Y-114396885D01*
X65750000Y-114643115D01*
X65701963Y-114884612D01*
X65607736Y-115112096D01*
X65470936Y-115316831D01*
X65296831Y-115490936D01*
X65092096Y-115627736D01*
X64864612Y-115721963D01*
X64623115Y-115770000D01*
X64376885Y-115770000D01*
X64135388Y-115721963D01*
X63907904Y-115627736D01*
X63703169Y-115490936D01*
X63529064Y-115316831D01*
X63392264Y-115112096D01*
X63298037Y-114884612D01*
X63250000Y-114643115D01*
X63250000Y-114396885D01*
X63298037Y-114155388D01*
X63392264Y-113927904D01*
X63529064Y-113723169D01*
X63703169Y-113549064D01*
X63907904Y-113412264D01*
X64135388Y-113318037D01*
X64376885Y-113270000D01*
X64623115Y-113270000D01*
X64864612Y-113318037D01*
X64864612Y-113318037D01*
G37*
G36*
X38864612Y-113318037D02*
X39092096Y-113412264D01*
X39296831Y-113549064D01*
X39470936Y-113723169D01*
X39607736Y-113927904D01*
X39701963Y-114155388D01*
X39750000Y-114396885D01*
X39750000Y-114643115D01*
X39701963Y-114884612D01*
X39607736Y-115112096D01*
X39470936Y-115316831D01*
X39296831Y-115490936D01*
X39092096Y-115627736D01*
X38864612Y-115721963D01*
X38623115Y-115770000D01*
X38376885Y-115770000D01*
X38135388Y-115721963D01*
X37907904Y-115627736D01*
X37703169Y-115490936D01*
X37529064Y-115316831D01*
X37392264Y-115112096D01*
X37298037Y-114884612D01*
X37250000Y-114643115D01*
X37250000Y-114396885D01*
X37298037Y-114155388D01*
X37392264Y-113927904D01*
X37529064Y-113723169D01*
X37703169Y-113549064D01*
X37907904Y-113412264D01*
X38135388Y-113318037D01*
X38376885Y-113270000D01*
X38623115Y-113270000D01*
X38864612Y-113318037D01*
X38864612Y-113318037D01*
G37*
G36*
X25864612Y-113318037D02*
X26092096Y-113412264D01*
X26296831Y-113549064D01*
X26470936Y-113723169D01*
X26607736Y-113927904D01*
X26701963Y-114155388D01*
X26750000Y-114396885D01*
X26750000Y-114643115D01*
X26701963Y-114884612D01*
X26607736Y-115112096D01*
X26470936Y-115316831D01*
X26296831Y-115490936D01*
X26092096Y-115627736D01*
X25864612Y-115721963D01*
X25623115Y-115770000D01*
X25376885Y-115770000D01*
X25135388Y-115721963D01*
X24907904Y-115627736D01*
X24703169Y-115490936D01*
X24529064Y-115316831D01*
X24392264Y-115112096D01*
X24298037Y-114884612D01*
X24250000Y-114643115D01*
X24250000Y-114396885D01*
X24298037Y-114155388D01*
X24392264Y-113927904D01*
X24529064Y-113723169D01*
X24703169Y-113549064D01*
X24907904Y-113412264D01*
X25135388Y-113318037D01*
X25376885Y-113270000D01*
X25623115Y-113270000D01*
X25864612Y-113318037D01*
X25864612Y-113318037D01*
G37*
G36*
X51864612Y-113318037D02*
X52092096Y-113412264D01*
X52296831Y-113549064D01*
X52470936Y-113723169D01*
X52607736Y-113927904D01*
X52701963Y-114155388D01*
X52750000Y-114396885D01*
X52750000Y-114643115D01*
X52701963Y-114884612D01*
X52607736Y-115112096D01*
X52470936Y-115316831D01*
X52296831Y-115490936D01*
X52092096Y-115627736D01*
X51864612Y-115721963D01*
X51623115Y-115770000D01*
X51376885Y-115770000D01*
X51135388Y-115721963D01*
X50907904Y-115627736D01*
X50703169Y-115490936D01*
X50529064Y-115316831D01*
X50392264Y-115112096D01*
X50298037Y-114884612D01*
X50250000Y-114643115D01*
X50250000Y-114396885D01*
X50298037Y-114155388D01*
X50392264Y-113927904D01*
X50529064Y-113723169D01*
X50703169Y-113549064D01*
X50907904Y-113412264D01*
X51135388Y-113318037D01*
X51376885Y-113270000D01*
X51623115Y-113270000D01*
X51864612Y-113318037D01*
X51864612Y-113318037D01*
G37*
G36*
X38864612Y-109718037D02*
X39092096Y-109812264D01*
X39296831Y-109949064D01*
X39470936Y-110123169D01*
X39607736Y-110327904D01*
X39701963Y-110555388D01*
X39750000Y-110796885D01*
X39750000Y-111043115D01*
X39701963Y-111284612D01*
X39607736Y-111512096D01*
X39470936Y-111716831D01*
X39296831Y-111890936D01*
X39092096Y-112027736D01*
X38864612Y-112121963D01*
X38623115Y-112170000D01*
X38376885Y-112170000D01*
X38135388Y-112121963D01*
X37907904Y-112027736D01*
X37703169Y-111890936D01*
X37529064Y-111716831D01*
X37392264Y-111512096D01*
X37298037Y-111284612D01*
X37250000Y-111043115D01*
X37250000Y-110796885D01*
X37298037Y-110555388D01*
X37392264Y-110327904D01*
X37529064Y-110123169D01*
X37703169Y-109949064D01*
X37907904Y-109812264D01*
X38135388Y-109718037D01*
X38376885Y-109670000D01*
X38623115Y-109670000D01*
X38864612Y-109718037D01*
X38864612Y-109718037D01*
G37*
G36*
X51864612Y-109718037D02*
X52092096Y-109812264D01*
X52296831Y-109949064D01*
X52470936Y-110123169D01*
X52607736Y-110327904D01*
X52701963Y-110555388D01*
X52750000Y-110796885D01*
X52750000Y-111043115D01*
X52701963Y-111284612D01*
X52607736Y-111512096D01*
X52470936Y-111716831D01*
X52296831Y-111890936D01*
X52092096Y-112027736D01*
X51864612Y-112121963D01*
X51623115Y-112170000D01*
X51376885Y-112170000D01*
X51135388Y-112121963D01*
X50907904Y-112027736D01*
X50703169Y-111890936D01*
X50529064Y-111716831D01*
X50392264Y-111512096D01*
X50298037Y-111284612D01*
X50250000Y-111043115D01*
X50250000Y-110796885D01*
X50298037Y-110555388D01*
X50392264Y-110327904D01*
X50529064Y-110123169D01*
X50703169Y-109949064D01*
X50907904Y-109812264D01*
X51135388Y-109718037D01*
X51376885Y-109670000D01*
X51623115Y-109670000D01*
X51864612Y-109718037D01*
X51864612Y-109718037D01*
G37*
G36*
X64864612Y-109718037D02*
X65092096Y-109812264D01*
X65296831Y-109949064D01*
X65470936Y-110123169D01*
X65607736Y-110327904D01*
X65701963Y-110555388D01*
X65750000Y-110796885D01*
X65750000Y-111043115D01*
X65701963Y-111284612D01*
X65607736Y-111512096D01*
X65470936Y-111716831D01*
X65296831Y-111890936D01*
X65092096Y-112027736D01*
X64864612Y-112121963D01*
X64623115Y-112170000D01*
X64376885Y-112170000D01*
X64135388Y-112121963D01*
X63907904Y-112027736D01*
X63703169Y-111890936D01*
X63529064Y-111716831D01*
X63392264Y-111512096D01*
X63298037Y-111284612D01*
X63250000Y-111043115D01*
X63250000Y-110796885D01*
X63298037Y-110555388D01*
X63392264Y-110327904D01*
X63529064Y-110123169D01*
X63703169Y-109949064D01*
X63907904Y-109812264D01*
X64135388Y-109718037D01*
X64376885Y-109670000D01*
X64623115Y-109670000D01*
X64864612Y-109718037D01*
X64864612Y-109718037D01*
G37*
G36*
X29476059Y-103254782D02*
X29617099Y-103313203D01*
X29744037Y-103398020D01*
X29851980Y-103505963D01*
X29936797Y-103632901D01*
X29995218Y-103773941D01*
X30025000Y-103923668D01*
X30025000Y-104076332D01*
X29995218Y-104226059D01*
X29936797Y-104367099D01*
X29851980Y-104494037D01*
X29744037Y-104601980D01*
X29617099Y-104686797D01*
X29476059Y-104745218D01*
X29326332Y-104775000D01*
X29173668Y-104775000D01*
X29023941Y-104745218D01*
X28882901Y-104686797D01*
X28755963Y-104601980D01*
X28648020Y-104494037D01*
X28563203Y-104367099D01*
X28504782Y-104226059D01*
X28475000Y-104076332D01*
X28475000Y-103923668D01*
X28504782Y-103773941D01*
X28563203Y-103632901D01*
X28648020Y-103505963D01*
X28755963Y-103398020D01*
X28882901Y-103313203D01*
X29023941Y-103254782D01*
X29173668Y-103225000D01*
X29326332Y-103225000D01*
X29476059Y-103254782D01*
X29476059Y-103254782D01*
G37*
G36*
X25025000Y-104775000D02*
X23475000Y-104775000D01*
X23475000Y-103225000D01*
X25025000Y-103225000D01*
X25025000Y-104775000D01*
X25025000Y-104775000D01*
G37*
G36*
X64864612Y-101418037D02*
X65092096Y-101512264D01*
X65296831Y-101649064D01*
X65470936Y-101823169D01*
X65607736Y-102027904D01*
X65701963Y-102255388D01*
X65750000Y-102496885D01*
X65750000Y-102743115D01*
X65701963Y-102984612D01*
X65607736Y-103212096D01*
X65470936Y-103416831D01*
X65296831Y-103590936D01*
X65092096Y-103727736D01*
X64864612Y-103821963D01*
X64623115Y-103870000D01*
X64376885Y-103870000D01*
X64135388Y-103821963D01*
X63907904Y-103727736D01*
X63703169Y-103590936D01*
X63529064Y-103416831D01*
X63392264Y-103212096D01*
X63298037Y-102984612D01*
X63250000Y-102743115D01*
X63250000Y-102496885D01*
X63298037Y-102255388D01*
X63392264Y-102027904D01*
X63529064Y-101823169D01*
X63703169Y-101649064D01*
X63907904Y-101512264D01*
X64135388Y-101418037D01*
X64376885Y-101370000D01*
X64623115Y-101370000D01*
X64864612Y-101418037D01*
X64864612Y-101418037D01*
G37*
G36*
X51864612Y-101418037D02*
X52092096Y-101512264D01*
X52296831Y-101649064D01*
X52470936Y-101823169D01*
X52607736Y-102027904D01*
X52701963Y-102255388D01*
X52750000Y-102496885D01*
X52750000Y-102743115D01*
X52701963Y-102984612D01*
X52607736Y-103212096D01*
X52470936Y-103416831D01*
X52296831Y-103590936D01*
X52092096Y-103727736D01*
X51864612Y-103821963D01*
X51623115Y-103870000D01*
X51376885Y-103870000D01*
X51135388Y-103821963D01*
X50907904Y-103727736D01*
X50703169Y-103590936D01*
X50529064Y-103416831D01*
X50392264Y-103212096D01*
X50298037Y-102984612D01*
X50250000Y-102743115D01*
X50250000Y-102496885D01*
X50298037Y-102255388D01*
X50392264Y-102027904D01*
X50529064Y-101823169D01*
X50703169Y-101649064D01*
X50907904Y-101512264D01*
X51135388Y-101418037D01*
X51376885Y-101370000D01*
X51623115Y-101370000D01*
X51864612Y-101418037D01*
X51864612Y-101418037D01*
G37*
G36*
X38864612Y-101418037D02*
X39092096Y-101512264D01*
X39296831Y-101649064D01*
X39470936Y-101823169D01*
X39607736Y-102027904D01*
X39701963Y-102255388D01*
X39750000Y-102496885D01*
X39750000Y-102743115D01*
X39701963Y-102984612D01*
X39607736Y-103212096D01*
X39470936Y-103416831D01*
X39296831Y-103590936D01*
X39092096Y-103727736D01*
X38864612Y-103821963D01*
X38623115Y-103870000D01*
X38376885Y-103870000D01*
X38135388Y-103821963D01*
X37907904Y-103727736D01*
X37703169Y-103590936D01*
X37529064Y-103416831D01*
X37392264Y-103212096D01*
X37298037Y-102984612D01*
X37250000Y-102743115D01*
X37250000Y-102496885D01*
X37298037Y-102255388D01*
X37392264Y-102027904D01*
X37529064Y-101823169D01*
X37703169Y-101649064D01*
X37907904Y-101512264D01*
X38135388Y-101418037D01*
X38376885Y-101370000D01*
X38623115Y-101370000D01*
X38864612Y-101418037D01*
X38864612Y-101418037D01*
G37*
G36*
X51864612Y-98318037D02*
X52092096Y-98412264D01*
X52296831Y-98549064D01*
X52470936Y-98723169D01*
X52607736Y-98927904D01*
X52701963Y-99155388D01*
X52750000Y-99396885D01*
X52750000Y-99643115D01*
X52701963Y-99884612D01*
X52607736Y-100112096D01*
X52470936Y-100316831D01*
X52296831Y-100490936D01*
X52092096Y-100627736D01*
X51864612Y-100721963D01*
X51623115Y-100770000D01*
X51376885Y-100770000D01*
X51135388Y-100721963D01*
X50907904Y-100627736D01*
X50703169Y-100490936D01*
X50529064Y-100316831D01*
X50392264Y-100112096D01*
X50298037Y-99884612D01*
X50250000Y-99643115D01*
X50250000Y-99396885D01*
X50298037Y-99155388D01*
X50392264Y-98927904D01*
X50529064Y-98723169D01*
X50703169Y-98549064D01*
X50907904Y-98412264D01*
X51135388Y-98318037D01*
X51376885Y-98270000D01*
X51623115Y-98270000D01*
X51864612Y-98318037D01*
X51864612Y-98318037D01*
G37*
G36*
X64864612Y-98318037D02*
X65092096Y-98412264D01*
X65296831Y-98549064D01*
X65470936Y-98723169D01*
X65607736Y-98927904D01*
X65701963Y-99155388D01*
X65750000Y-99396885D01*
X65750000Y-99643115D01*
X65701963Y-99884612D01*
X65607736Y-100112096D01*
X65470936Y-100316831D01*
X65296831Y-100490936D01*
X65092096Y-100627736D01*
X64864612Y-100721963D01*
X64623115Y-100770000D01*
X64376885Y-100770000D01*
X64135388Y-100721963D01*
X63907904Y-100627736D01*
X63703169Y-100490936D01*
X63529064Y-100316831D01*
X63392264Y-100112096D01*
X63298037Y-99884612D01*
X63250000Y-99643115D01*
X63250000Y-99396885D01*
X63298037Y-99155388D01*
X63392264Y-98927904D01*
X63529064Y-98723169D01*
X63703169Y-98549064D01*
X63907904Y-98412264D01*
X64135388Y-98318037D01*
X64376885Y-98270000D01*
X64623115Y-98270000D01*
X64864612Y-98318037D01*
X64864612Y-98318037D01*
G37*
G36*
X38864612Y-98318037D02*
X39092096Y-98412264D01*
X39296831Y-98549064D01*
X39470936Y-98723169D01*
X39607736Y-98927904D01*
X39701963Y-99155388D01*
X39750000Y-99396885D01*
X39750000Y-99643115D01*
X39701963Y-99884612D01*
X39607736Y-100112096D01*
X39470936Y-100316831D01*
X39296831Y-100490936D01*
X39092096Y-100627736D01*
X38864612Y-100721963D01*
X38623115Y-100770000D01*
X38376885Y-100770000D01*
X38135388Y-100721963D01*
X37907904Y-100627736D01*
X37703169Y-100490936D01*
X37529064Y-100316831D01*
X37392264Y-100112096D01*
X37298037Y-99884612D01*
X37250000Y-99643115D01*
X37250000Y-99396885D01*
X37298037Y-99155388D01*
X37392264Y-98927904D01*
X37529064Y-98723169D01*
X37703169Y-98549064D01*
X37907904Y-98412264D01*
X38135388Y-98318037D01*
X38376885Y-98270000D01*
X38623115Y-98270000D01*
X38864612Y-98318037D01*
X38864612Y-98318037D01*
G37*
G36*
X26976059Y-98254782D02*
X27117099Y-98313203D01*
X27244037Y-98398020D01*
X27351980Y-98505963D01*
X27436797Y-98632901D01*
X27495218Y-98773941D01*
X27525000Y-98923668D01*
X27525000Y-99076332D01*
X27495218Y-99226059D01*
X27436797Y-99367099D01*
X27351980Y-99494037D01*
X27244037Y-99601980D01*
X27117099Y-99686797D01*
X26976059Y-99745218D01*
X26826332Y-99775000D01*
X26673668Y-99775000D01*
X26523941Y-99745218D01*
X26382901Y-99686797D01*
X26255963Y-99601980D01*
X26148020Y-99494037D01*
X26063203Y-99367099D01*
X26004782Y-99226059D01*
X25975000Y-99076332D01*
X25975000Y-98923668D01*
X26004782Y-98773941D01*
X26063203Y-98632901D01*
X26148020Y-98505963D01*
X26255963Y-98398020D01*
X26382901Y-98313203D01*
X26523941Y-98254782D01*
X26673668Y-98225000D01*
X26826332Y-98225000D01*
X26976059Y-98254782D01*
X26976059Y-98254782D01*
G37*
G36*
X58956630Y-97412299D02*
X59116855Y-97460903D01*
X59264520Y-97539831D01*
X59393949Y-97646051D01*
X59500169Y-97775480D01*
X59579097Y-97923145D01*
X59627701Y-98083370D01*
X59644112Y-98250000D01*
X59627701Y-98416630D01*
X59579097Y-98576855D01*
X59500169Y-98724520D01*
X59393949Y-98853949D01*
X59264520Y-98960169D01*
X59116855Y-99039097D01*
X58956630Y-99087701D01*
X58831752Y-99100000D01*
X58748248Y-99100000D01*
X58623370Y-99087701D01*
X58463145Y-99039097D01*
X58315480Y-98960169D01*
X58186051Y-98853949D01*
X58079831Y-98724520D01*
X58000903Y-98576855D01*
X57952299Y-98416630D01*
X57935888Y-98250000D01*
X57952299Y-98083370D01*
X58000903Y-97923145D01*
X58079831Y-97775480D01*
X58186051Y-97646051D01*
X58315480Y-97539831D01*
X58463145Y-97460903D01*
X58623370Y-97412299D01*
X58748248Y-97400000D01*
X58831752Y-97400000D01*
X58956630Y-97412299D01*
X58956630Y-97412299D01*
G37*
G36*
X57100000Y-99100000D02*
X55400000Y-99100000D01*
X55400000Y-97400000D01*
X57100000Y-97400000D01*
X57100000Y-99100000D01*
X57100000Y-99100000D01*
G37*
G36*
X32147738Y-94366653D02*
X32189598Y-94374979D01*
X32224245Y-94389330D01*
X32307890Y-94423977D01*
X32414354Y-94495114D01*
X32504886Y-94585646D01*
X32576023Y-94692110D01*
X32625021Y-94810403D01*
X32650000Y-94935979D01*
X32650000Y-95064021D01*
X32625021Y-95189597D01*
X32576023Y-95307890D01*
X32504886Y-95414354D01*
X32414354Y-95504886D01*
X32307890Y-95576023D01*
X32224245Y-95610670D01*
X32189598Y-95625021D01*
X32147738Y-95633347D01*
X32064021Y-95650000D01*
X31935979Y-95650000D01*
X31852262Y-95633347D01*
X31810402Y-95625021D01*
X31775755Y-95610670D01*
X31692110Y-95576023D01*
X31585646Y-95504886D01*
X31495114Y-95414354D01*
X31423977Y-95307890D01*
X31374979Y-95189597D01*
X31350000Y-95064021D01*
X31350000Y-94935979D01*
X31374979Y-94810403D01*
X31423977Y-94692110D01*
X31495114Y-94585646D01*
X31585646Y-94495114D01*
X31692110Y-94423977D01*
X31775755Y-94389330D01*
X31810402Y-94374979D01*
X31852262Y-94366653D01*
X31935979Y-94350000D01*
X32064021Y-94350000D01*
X32147738Y-94366653D01*
X32147738Y-94366653D01*
G37*
G36*
X34647738Y-94366653D02*
X34689598Y-94374979D01*
X34724245Y-94389330D01*
X34807890Y-94423977D01*
X34914354Y-94495114D01*
X35004886Y-94585646D01*
X35076023Y-94692110D01*
X35125021Y-94810403D01*
X35150000Y-94935979D01*
X35150000Y-95064021D01*
X35125021Y-95189597D01*
X35076023Y-95307890D01*
X35004886Y-95414354D01*
X34914354Y-95504886D01*
X34807890Y-95576023D01*
X34724245Y-95610670D01*
X34689598Y-95625021D01*
X34647738Y-95633347D01*
X34564021Y-95650000D01*
X34435979Y-95650000D01*
X34352262Y-95633347D01*
X34310402Y-95625021D01*
X34275755Y-95610670D01*
X34192110Y-95576023D01*
X34085646Y-95504886D01*
X33995114Y-95414354D01*
X33923977Y-95307890D01*
X33874979Y-95189597D01*
X33850000Y-95064021D01*
X33850000Y-94935979D01*
X33874979Y-94810403D01*
X33923977Y-94692110D01*
X33995114Y-94585646D01*
X34085646Y-94495114D01*
X34192110Y-94423977D01*
X34275755Y-94389330D01*
X34310402Y-94374979D01*
X34352262Y-94366653D01*
X34435979Y-94350000D01*
X34564021Y-94350000D01*
X34647738Y-94366653D01*
X34647738Y-94366653D01*
G37*
G36*
X29647738Y-94366653D02*
X29689598Y-94374979D01*
X29724245Y-94389330D01*
X29807890Y-94423977D01*
X29914354Y-94495114D01*
X30004886Y-94585646D01*
X30076023Y-94692110D01*
X30125021Y-94810403D01*
X30150000Y-94935979D01*
X30150000Y-95064021D01*
X30125021Y-95189597D01*
X30076023Y-95307890D01*
X30004886Y-95414354D01*
X29914354Y-95504886D01*
X29807890Y-95576023D01*
X29724245Y-95610670D01*
X29689598Y-95625021D01*
X29647738Y-95633347D01*
X29564021Y-95650000D01*
X29435979Y-95650000D01*
X29352262Y-95633347D01*
X29310402Y-95625021D01*
X29275755Y-95610670D01*
X29192110Y-95576023D01*
X29085646Y-95504886D01*
X28995114Y-95414354D01*
X28923977Y-95307890D01*
X28874979Y-95189597D01*
X28850000Y-95064021D01*
X28850000Y-94935979D01*
X28874979Y-94810403D01*
X28923977Y-94692110D01*
X28995114Y-94585646D01*
X29085646Y-94495114D01*
X29192110Y-94423977D01*
X29275755Y-94389330D01*
X29310402Y-94374979D01*
X29352262Y-94366653D01*
X29435979Y-94350000D01*
X29564021Y-94350000D01*
X29647738Y-94366653D01*
X29647738Y-94366653D01*
G37*
G36*
X58175770Y-91815372D02*
X58291689Y-91838429D01*
X58473678Y-91913811D01*
X58637463Y-92023249D01*
X58776751Y-92162537D01*
X58886189Y-92326322D01*
X58961571Y-92508311D01*
X59000000Y-92701509D01*
X59000000Y-92898491D01*
X58961571Y-93091689D01*
X58886189Y-93273678D01*
X58776751Y-93437463D01*
X58637463Y-93576751D01*
X58473678Y-93686189D01*
X58291689Y-93761571D01*
X58175770Y-93784628D01*
X58098493Y-93800000D01*
X57901507Y-93800000D01*
X57824230Y-93784628D01*
X57708311Y-93761571D01*
X57526322Y-93686189D01*
X57362537Y-93576751D01*
X57223249Y-93437463D01*
X57113811Y-93273678D01*
X57038429Y-93091689D01*
X57000000Y-92898491D01*
X57000000Y-92701509D01*
X57038429Y-92508311D01*
X57113811Y-92326322D01*
X57223249Y-92162537D01*
X57362537Y-92023249D01*
X57526322Y-91913811D01*
X57708311Y-91838429D01*
X57824230Y-91815372D01*
X57901507Y-91800000D01*
X58098493Y-91800000D01*
X58175770Y-91815372D01*
X58175770Y-91815372D01*
G37*
G36*
X65647738Y-89866653D02*
X65689598Y-89874979D01*
X65724245Y-89889330D01*
X65807890Y-89923977D01*
X65914354Y-89995114D01*
X66004886Y-90085646D01*
X66076023Y-90192110D01*
X66125021Y-90310403D01*
X66150000Y-90435979D01*
X66150000Y-90564021D01*
X66125021Y-90689597D01*
X66076023Y-90807890D01*
X66004886Y-90914354D01*
X65914354Y-91004886D01*
X65807890Y-91076023D01*
X65724245Y-91110670D01*
X65689598Y-91125021D01*
X65647738Y-91133347D01*
X65564021Y-91150000D01*
X65435979Y-91150000D01*
X65352262Y-91133347D01*
X65310402Y-91125021D01*
X65275755Y-91110670D01*
X65192110Y-91076023D01*
X65085646Y-91004886D01*
X64995114Y-90914354D01*
X64923977Y-90807890D01*
X64874979Y-90689597D01*
X64850000Y-90564021D01*
X64850000Y-90435979D01*
X64874979Y-90310403D01*
X64923977Y-90192110D01*
X64995114Y-90085646D01*
X65085646Y-89995114D01*
X65192110Y-89923977D01*
X65275755Y-89889330D01*
X65310402Y-89874979D01*
X65352262Y-89866653D01*
X65435979Y-89850000D01*
X65564021Y-89850000D01*
X65647738Y-89866653D01*
X65647738Y-89866653D01*
G37*
G36*
X65647738Y-87366653D02*
X65689598Y-87374979D01*
X65724245Y-87389330D01*
X65807890Y-87423977D01*
X65914354Y-87495114D01*
X66004886Y-87585646D01*
X66076023Y-87692110D01*
X66110670Y-87775755D01*
X66117270Y-87791689D01*
X66125021Y-87810403D01*
X66150000Y-87935979D01*
X66150000Y-88064021D01*
X66125021Y-88189597D01*
X66076023Y-88307890D01*
X66004886Y-88414354D01*
X65914354Y-88504886D01*
X65807890Y-88576023D01*
X65724245Y-88610670D01*
X65689598Y-88625021D01*
X65647738Y-88633347D01*
X65564021Y-88650000D01*
X65435979Y-88650000D01*
X65352262Y-88633347D01*
X65310402Y-88625021D01*
X65275755Y-88610670D01*
X65192110Y-88576023D01*
X65085646Y-88504886D01*
X64995114Y-88414354D01*
X64923977Y-88307890D01*
X64874979Y-88189597D01*
X64850000Y-88064021D01*
X64850000Y-87935979D01*
X64874979Y-87810403D01*
X64882731Y-87791689D01*
X64889330Y-87775755D01*
X64923977Y-87692110D01*
X64995114Y-87585646D01*
X65085646Y-87495114D01*
X65192110Y-87423977D01*
X65275755Y-87389330D01*
X65310402Y-87374979D01*
X65352262Y-87366653D01*
X65435979Y-87350000D01*
X65564021Y-87350000D01*
X65647738Y-87366653D01*
X65647738Y-87366653D01*
G37*
G36*
X27375770Y-86515372D02*
X27491689Y-86538429D01*
X27673678Y-86613811D01*
X27837463Y-86723249D01*
X27976751Y-86862537D01*
X28086189Y-87026322D01*
X28161571Y-87208311D01*
X28200000Y-87401509D01*
X28200000Y-87598491D01*
X28161571Y-87791689D01*
X28086189Y-87973678D01*
X27976751Y-88137463D01*
X27837463Y-88276751D01*
X27673678Y-88386189D01*
X27491689Y-88461571D01*
X27375770Y-88484628D01*
X27298493Y-88500000D01*
X27101507Y-88500000D01*
X27024230Y-88484628D01*
X26908311Y-88461571D01*
X26726322Y-88386189D01*
X26562537Y-88276751D01*
X26423249Y-88137463D01*
X26313811Y-87973678D01*
X26238429Y-87791689D01*
X26200000Y-87598491D01*
X26200000Y-87401509D01*
X26238429Y-87208311D01*
X26313811Y-87026322D01*
X26423249Y-86862537D01*
X26562537Y-86723249D01*
X26726322Y-86613811D01*
X26908311Y-86538429D01*
X27024230Y-86515372D01*
X27101507Y-86500000D01*
X27298493Y-86500000D01*
X27375770Y-86515372D01*
X27375770Y-86515372D01*
G37*
G36*
X36975770Y-86515372D02*
X37091689Y-86538429D01*
X37273678Y-86613811D01*
X37437463Y-86723249D01*
X37576751Y-86862537D01*
X37686189Y-87026322D01*
X37761571Y-87208311D01*
X37800000Y-87401509D01*
X37800000Y-87598491D01*
X37761571Y-87791689D01*
X37686189Y-87973678D01*
X37576751Y-88137463D01*
X37437463Y-88276751D01*
X37273678Y-88386189D01*
X37091689Y-88461571D01*
X36975770Y-88484628D01*
X36898493Y-88500000D01*
X36701507Y-88500000D01*
X36624230Y-88484628D01*
X36508311Y-88461571D01*
X36326322Y-88386189D01*
X36162537Y-88276751D01*
X36023249Y-88137463D01*
X35913811Y-87973678D01*
X35838429Y-87791689D01*
X35800000Y-87598491D01*
X35800000Y-87401509D01*
X35838429Y-87208311D01*
X35913811Y-87026322D01*
X36023249Y-86862537D01*
X36162537Y-86723249D01*
X36326322Y-86613811D01*
X36508311Y-86538429D01*
X36624230Y-86515372D01*
X36701507Y-86500000D01*
X36898493Y-86500000D01*
X36975770Y-86515372D01*
X36975770Y-86515372D01*
G37*
G36*
X65647738Y-84866653D02*
X65689598Y-84874979D01*
X65724245Y-84889330D01*
X65807890Y-84923977D01*
X65914354Y-84995114D01*
X66004886Y-85085646D01*
X66076023Y-85192110D01*
X66125021Y-85310403D01*
X66150000Y-85435979D01*
X66150000Y-85564021D01*
X66125021Y-85689597D01*
X66076023Y-85807890D01*
X66004886Y-85914354D01*
X65914354Y-86004886D01*
X65807890Y-86076023D01*
X65724245Y-86110670D01*
X65689598Y-86125021D01*
X65647738Y-86133347D01*
X65564021Y-86150000D01*
X65435979Y-86150000D01*
X65352262Y-86133347D01*
X65310402Y-86125021D01*
X65275755Y-86110670D01*
X65192110Y-86076023D01*
X65085646Y-86004886D01*
X64995114Y-85914354D01*
X64923977Y-85807890D01*
X64874979Y-85689597D01*
X64850000Y-85564021D01*
X64850000Y-85435979D01*
X64874979Y-85310403D01*
X64923977Y-85192110D01*
X64995114Y-85085646D01*
X65085646Y-84995114D01*
X65192110Y-84923977D01*
X65275755Y-84889330D01*
X65310402Y-84874979D01*
X65352262Y-84866653D01*
X65435979Y-84850000D01*
X65564021Y-84850000D01*
X65647738Y-84866653D01*
X65647738Y-84866653D01*
G37*
G36*
X58175770Y-82215372D02*
X58291689Y-82238429D01*
X58473678Y-82313811D01*
X58637463Y-82423249D01*
X58776751Y-82562537D01*
X58886189Y-82726322D01*
X58961571Y-82908311D01*
X59000000Y-83101509D01*
X59000000Y-83298491D01*
X58961571Y-83491689D01*
X58886189Y-83673678D01*
X58776751Y-83837463D01*
X58637463Y-83976751D01*
X58473678Y-84086189D01*
X58291689Y-84161571D01*
X58175770Y-84184628D01*
X58098493Y-84200000D01*
X57901507Y-84200000D01*
X57824230Y-84184628D01*
X57708311Y-84161571D01*
X57526322Y-84086189D01*
X57362537Y-83976751D01*
X57223249Y-83837463D01*
X57113811Y-83673678D01*
X57038429Y-83491689D01*
X57000000Y-83298491D01*
X57000000Y-83101509D01*
X57038429Y-82908311D01*
X57113811Y-82726322D01*
X57223249Y-82562537D01*
X57362537Y-82423249D01*
X57526322Y-82313811D01*
X57708311Y-82238429D01*
X57824230Y-82215372D01*
X57901507Y-82200000D01*
X58098493Y-82200000D01*
X58175770Y-82215372D01*
X58175770Y-82215372D01*
G37*
G36*
X65827914Y-74442596D02*
X65827917Y-74442597D01*
X65827918Y-74442597D01*
X65926881Y-74472617D01*
X66018086Y-74521367D01*
X66098027Y-74586973D01*
X66163633Y-74666914D01*
X66206087Y-74746340D01*
X66212382Y-74758117D01*
X66242404Y-74857086D01*
X66252540Y-74960000D01*
X66242404Y-75062914D01*
X66242403Y-75062917D01*
X66242403Y-75062918D01*
X66212383Y-75161881D01*
X66163633Y-75253086D01*
X66098027Y-75333027D01*
X66018086Y-75398633D01*
X65926881Y-75447383D01*
X65834580Y-75475382D01*
X65811941Y-75484760D01*
X65791567Y-75498374D01*
X65774240Y-75515701D01*
X65760626Y-75536075D01*
X65751248Y-75558714D01*
X65746468Y-75582748D01*
X65746468Y-75607252D01*
X65751248Y-75631286D01*
X65760626Y-75653925D01*
X65774240Y-75674299D01*
X65791567Y-75691626D01*
X65811941Y-75705240D01*
X65834579Y-75714618D01*
X65926881Y-75742617D01*
X66018086Y-75791367D01*
X66018088Y-75791368D01*
X66018087Y-75791368D01*
X66098027Y-75856973D01*
X66163632Y-75936913D01*
X66212382Y-76028117D01*
X66242404Y-76127086D01*
X66252540Y-76230000D01*
X66242404Y-76332914D01*
X66242403Y-76332917D01*
X66242403Y-76332918D01*
X66212383Y-76431881D01*
X66163633Y-76523086D01*
X66098027Y-76603027D01*
X66018086Y-76668633D01*
X65975632Y-76691325D01*
X65926882Y-76717383D01*
X65884029Y-76730382D01*
X65861389Y-76739760D01*
X65841015Y-76753374D01*
X65823688Y-76770701D01*
X65810074Y-76791075D01*
X65800696Y-76813714D01*
X65795916Y-76837748D01*
X65795916Y-76862252D01*
X65800696Y-76886285D01*
X65810074Y-76908925D01*
X65823688Y-76929299D01*
X65841015Y-76946626D01*
X65861389Y-76960240D01*
X65884028Y-76969618D01*
X65908062Y-76974398D01*
X65920314Y-76975000D01*
X66250000Y-76975000D01*
X66250000Y-78025000D01*
X64750000Y-78025000D01*
X64750000Y-76975000D01*
X65079686Y-76975000D01*
X65104072Y-76972598D01*
X65127521Y-76965485D01*
X65149132Y-76953934D01*
X65168074Y-76938388D01*
X65183620Y-76919446D01*
X65195171Y-76897835D01*
X65202284Y-76874386D01*
X65204686Y-76850000D01*
X65202284Y-76825614D01*
X65195171Y-76802165D01*
X65183620Y-76780554D01*
X65168074Y-76761612D01*
X65149132Y-76746066D01*
X65127521Y-76734515D01*
X65115971Y-76730382D01*
X65073118Y-76717383D01*
X65024368Y-76691325D01*
X64981914Y-76668633D01*
X64901973Y-76603027D01*
X64836367Y-76523086D01*
X64787617Y-76431881D01*
X64757597Y-76332918D01*
X64757597Y-76332917D01*
X64757596Y-76332914D01*
X64747460Y-76230000D01*
X64757596Y-76127086D01*
X64787618Y-76028117D01*
X64836368Y-75936913D01*
X64901973Y-75856973D01*
X64981913Y-75791368D01*
X64981912Y-75791368D01*
X64981914Y-75791367D01*
X65073119Y-75742617D01*
X65165421Y-75714618D01*
X65188059Y-75705240D01*
X65208433Y-75691626D01*
X65225760Y-75674299D01*
X65239374Y-75653925D01*
X65248752Y-75631286D01*
X65253532Y-75607252D01*
X65253532Y-75582748D01*
X65248752Y-75558714D01*
X65239374Y-75536075D01*
X65225760Y-75515701D01*
X65208433Y-75498374D01*
X65188059Y-75484760D01*
X65165420Y-75475382D01*
X65073119Y-75447383D01*
X64981914Y-75398633D01*
X64901973Y-75333027D01*
X64836367Y-75253086D01*
X64787617Y-75161881D01*
X64757597Y-75062918D01*
X64757597Y-75062917D01*
X64757596Y-75062914D01*
X64747460Y-74960000D01*
X64757596Y-74857086D01*
X64787618Y-74758117D01*
X64793913Y-74746340D01*
X64836367Y-74666914D01*
X64901973Y-74586973D01*
X64981914Y-74521367D01*
X65073119Y-74472617D01*
X65172082Y-74442597D01*
X65172083Y-74442597D01*
X65172086Y-74442596D01*
X65249208Y-74435000D01*
X65750792Y-74435000D01*
X65827914Y-74442596D01*
X65827914Y-74442596D01*
G37*
G36*
X34647738Y-73866653D02*
X34689598Y-73874979D01*
X34724245Y-73889330D01*
X34807890Y-73923977D01*
X34914354Y-73995114D01*
X35004886Y-74085646D01*
X35076023Y-74192110D01*
X35125021Y-74310403D01*
X35150000Y-74435979D01*
X35150000Y-74564021D01*
X35125021Y-74689597D01*
X35076023Y-74807890D01*
X35004886Y-74914354D01*
X34914354Y-75004886D01*
X34807890Y-75076023D01*
X34724245Y-75110670D01*
X34689598Y-75125021D01*
X34647738Y-75133347D01*
X34564021Y-75150000D01*
X34435979Y-75150000D01*
X34352262Y-75133347D01*
X34310402Y-75125021D01*
X34275755Y-75110670D01*
X34192110Y-75076023D01*
X34085646Y-75004886D01*
X33995114Y-74914354D01*
X33923977Y-74807890D01*
X33874979Y-74689597D01*
X33850000Y-74564021D01*
X33850000Y-74435979D01*
X33874979Y-74310403D01*
X33923977Y-74192110D01*
X33995114Y-74085646D01*
X34085646Y-73995114D01*
X34192110Y-73923977D01*
X34275755Y-73889330D01*
X34310402Y-73874979D01*
X34352262Y-73866653D01*
X34435979Y-73850000D01*
X34564021Y-73850000D01*
X34647738Y-73866653D01*
X34647738Y-73866653D01*
G37*
G36*
X29647738Y-73866653D02*
X29689598Y-73874979D01*
X29724245Y-73889330D01*
X29807890Y-73923977D01*
X29914354Y-73995114D01*
X30004886Y-74085646D01*
X30076023Y-74192110D01*
X30125021Y-74310403D01*
X30150000Y-74435979D01*
X30150000Y-74564021D01*
X30125021Y-74689597D01*
X30076023Y-74807890D01*
X30004886Y-74914354D01*
X29914354Y-75004886D01*
X29807890Y-75076023D01*
X29724245Y-75110670D01*
X29689598Y-75125021D01*
X29647738Y-75133347D01*
X29564021Y-75150000D01*
X29435979Y-75150000D01*
X29352262Y-75133347D01*
X29310402Y-75125021D01*
X29275755Y-75110670D01*
X29192110Y-75076023D01*
X29085646Y-75004886D01*
X28995114Y-74914354D01*
X28923977Y-74807890D01*
X28874979Y-74689597D01*
X28850000Y-74564021D01*
X28850000Y-74435979D01*
X28874979Y-74310403D01*
X28923977Y-74192110D01*
X28995114Y-74085646D01*
X29085646Y-73995114D01*
X29192110Y-73923977D01*
X29275755Y-73889330D01*
X29310402Y-73874979D01*
X29352262Y-73866653D01*
X29435979Y-73850000D01*
X29564021Y-73850000D01*
X29647738Y-73866653D01*
X29647738Y-73866653D01*
G37*
G36*
X32147738Y-73866653D02*
X32189598Y-73874979D01*
X32224245Y-73889330D01*
X32307890Y-73923977D01*
X32414354Y-73995114D01*
X32504886Y-74085646D01*
X32576023Y-74192110D01*
X32625021Y-74310403D01*
X32650000Y-74435979D01*
X32650000Y-74564021D01*
X32625021Y-74689597D01*
X32576023Y-74807890D01*
X32504886Y-74914354D01*
X32414354Y-75004886D01*
X32307890Y-75076023D01*
X32224245Y-75110670D01*
X32189598Y-75125021D01*
X32147738Y-75133347D01*
X32064021Y-75150000D01*
X31935979Y-75150000D01*
X31852262Y-75133347D01*
X31810402Y-75125021D01*
X31775755Y-75110670D01*
X31692110Y-75076023D01*
X31585646Y-75004886D01*
X31495114Y-74914354D01*
X31423977Y-74807890D01*
X31374979Y-74689597D01*
X31350000Y-74564021D01*
X31350000Y-74435979D01*
X31374979Y-74310403D01*
X31423977Y-74192110D01*
X31495114Y-74085646D01*
X31585646Y-73995114D01*
X31692110Y-73923977D01*
X31775755Y-73889330D01*
X31810402Y-73874979D01*
X31852262Y-73866653D01*
X31935979Y-73850000D01*
X32064021Y-73850000D01*
X32147738Y-73866653D01*
X32147738Y-73866653D01*
G37*
G36*
X58175770Y-71315372D02*
X58291689Y-71338429D01*
X58473678Y-71413811D01*
X58637463Y-71523249D01*
X58776751Y-71662537D01*
X58886189Y-71826322D01*
X58961571Y-72008311D01*
X59000000Y-72201509D01*
X59000000Y-72398491D01*
X58961571Y-72591689D01*
X58886189Y-72773678D01*
X58776751Y-72937463D01*
X58637463Y-73076751D01*
X58473678Y-73186189D01*
X58291689Y-73261571D01*
X58175770Y-73284628D01*
X58098493Y-73300000D01*
X57901507Y-73300000D01*
X57824230Y-73284628D01*
X57708311Y-73261571D01*
X57526322Y-73186189D01*
X57362537Y-73076751D01*
X57223249Y-72937463D01*
X57113811Y-72773678D01*
X57038429Y-72591689D01*
X57000000Y-72398491D01*
X57000000Y-72201509D01*
X57038429Y-72008311D01*
X57113811Y-71826322D01*
X57223249Y-71662537D01*
X57362537Y-71523249D01*
X57526322Y-71413811D01*
X57708311Y-71338429D01*
X57824230Y-71315372D01*
X57901507Y-71300000D01*
X58098493Y-71300000D01*
X58175770Y-71315372D01*
X58175770Y-71315372D01*
G37*
G36*
X65647738Y-69366653D02*
X65689598Y-69374979D01*
X65724245Y-69389330D01*
X65807890Y-69423977D01*
X65914354Y-69495114D01*
X66004886Y-69585646D01*
X66076023Y-69692110D01*
X66125021Y-69810403D01*
X66150000Y-69935979D01*
X66150000Y-70064021D01*
X66125021Y-70189597D01*
X66076023Y-70307890D01*
X66004886Y-70414354D01*
X65914354Y-70504886D01*
X65807890Y-70576023D01*
X65724245Y-70610670D01*
X65689598Y-70625021D01*
X65647738Y-70633347D01*
X65564021Y-70650000D01*
X65435979Y-70650000D01*
X65352262Y-70633347D01*
X65310402Y-70625021D01*
X65275755Y-70610670D01*
X65192110Y-70576023D01*
X65085646Y-70504886D01*
X64995114Y-70414354D01*
X64923977Y-70307890D01*
X64874979Y-70189597D01*
X64850000Y-70064021D01*
X64850000Y-69935979D01*
X64874979Y-69810403D01*
X64923977Y-69692110D01*
X64995114Y-69585646D01*
X65085646Y-69495114D01*
X65192110Y-69423977D01*
X65275755Y-69389330D01*
X65310402Y-69374979D01*
X65352262Y-69366653D01*
X65435979Y-69350000D01*
X65564021Y-69350000D01*
X65647738Y-69366653D01*
X65647738Y-69366653D01*
G37*
G36*
X65647738Y-66866653D02*
X65689598Y-66874979D01*
X65724245Y-66889330D01*
X65807890Y-66923977D01*
X65914354Y-66995114D01*
X66004886Y-67085646D01*
X66076023Y-67192110D01*
X66110670Y-67275755D01*
X66117270Y-67291689D01*
X66125021Y-67310403D01*
X66150000Y-67435979D01*
X66150000Y-67564021D01*
X66125021Y-67689597D01*
X66076023Y-67807890D01*
X66004886Y-67914354D01*
X65914354Y-68004886D01*
X65807890Y-68076023D01*
X65724245Y-68110670D01*
X65689598Y-68125021D01*
X65647738Y-68133347D01*
X65564021Y-68150000D01*
X65435979Y-68150000D01*
X65352262Y-68133347D01*
X65310402Y-68125021D01*
X65275755Y-68110670D01*
X65192110Y-68076023D01*
X65085646Y-68004886D01*
X64995114Y-67914354D01*
X64923977Y-67807890D01*
X64874979Y-67689597D01*
X64850000Y-67564021D01*
X64850000Y-67435979D01*
X64874979Y-67310403D01*
X64882731Y-67291689D01*
X64889330Y-67275755D01*
X64923977Y-67192110D01*
X64995114Y-67085646D01*
X65085646Y-66995114D01*
X65192110Y-66923977D01*
X65275755Y-66889330D01*
X65310402Y-66874979D01*
X65352262Y-66866653D01*
X65435979Y-66850000D01*
X65564021Y-66850000D01*
X65647738Y-66866653D01*
X65647738Y-66866653D01*
G37*
G36*
X27375770Y-66015372D02*
X27491689Y-66038429D01*
X27673678Y-66113811D01*
X27837463Y-66223249D01*
X27976751Y-66362537D01*
X28086189Y-66526322D01*
X28161571Y-66708311D01*
X28200000Y-66901509D01*
X28200000Y-67098491D01*
X28161571Y-67291689D01*
X28086189Y-67473678D01*
X27976751Y-67637463D01*
X27837463Y-67776751D01*
X27673678Y-67886189D01*
X27491689Y-67961571D01*
X27375770Y-67984628D01*
X27298493Y-68000000D01*
X27101507Y-68000000D01*
X27024230Y-67984628D01*
X26908311Y-67961571D01*
X26726322Y-67886189D01*
X26562537Y-67776751D01*
X26423249Y-67637463D01*
X26313811Y-67473678D01*
X26238429Y-67291689D01*
X26200000Y-67098491D01*
X26200000Y-66901509D01*
X26238429Y-66708311D01*
X26313811Y-66526322D01*
X26423249Y-66362537D01*
X26562537Y-66223249D01*
X26726322Y-66113811D01*
X26908311Y-66038429D01*
X27024230Y-66015372D01*
X27101507Y-66000000D01*
X27298493Y-66000000D01*
X27375770Y-66015372D01*
X27375770Y-66015372D01*
G37*
G36*
X36975770Y-66015372D02*
X37091689Y-66038429D01*
X37273678Y-66113811D01*
X37437463Y-66223249D01*
X37576751Y-66362537D01*
X37686189Y-66526322D01*
X37761571Y-66708311D01*
X37800000Y-66901509D01*
X37800000Y-67098491D01*
X37761571Y-67291689D01*
X37686189Y-67473678D01*
X37576751Y-67637463D01*
X37437463Y-67776751D01*
X37273678Y-67886189D01*
X37091689Y-67961571D01*
X36975770Y-67984628D01*
X36898493Y-68000000D01*
X36701507Y-68000000D01*
X36624230Y-67984628D01*
X36508311Y-67961571D01*
X36326322Y-67886189D01*
X36162537Y-67776751D01*
X36023249Y-67637463D01*
X35913811Y-67473678D01*
X35838429Y-67291689D01*
X35800000Y-67098491D01*
X35800000Y-66901509D01*
X35838429Y-66708311D01*
X35913811Y-66526322D01*
X36023249Y-66362537D01*
X36162537Y-66223249D01*
X36326322Y-66113811D01*
X36508311Y-66038429D01*
X36624230Y-66015372D01*
X36701507Y-66000000D01*
X36898493Y-66000000D01*
X36975770Y-66015372D01*
X36975770Y-66015372D01*
G37*
G36*
X65647738Y-64366653D02*
X65689598Y-64374979D01*
X65724245Y-64389330D01*
X65807890Y-64423977D01*
X65914354Y-64495114D01*
X66004886Y-64585646D01*
X66076023Y-64692110D01*
X66125021Y-64810403D01*
X66150000Y-64935979D01*
X66150000Y-65064021D01*
X66125021Y-65189597D01*
X66076023Y-65307890D01*
X66004886Y-65414354D01*
X65914354Y-65504886D01*
X65807890Y-65576023D01*
X65724245Y-65610670D01*
X65689598Y-65625021D01*
X65647738Y-65633347D01*
X65564021Y-65650000D01*
X65435979Y-65650000D01*
X65352262Y-65633347D01*
X65310402Y-65625021D01*
X65275755Y-65610670D01*
X65192110Y-65576023D01*
X65085646Y-65504886D01*
X64995114Y-65414354D01*
X64923977Y-65307890D01*
X64874979Y-65189597D01*
X64850000Y-65064021D01*
X64850000Y-64935979D01*
X64874979Y-64810403D01*
X64923977Y-64692110D01*
X64995114Y-64585646D01*
X65085646Y-64495114D01*
X65192110Y-64423977D01*
X65275755Y-64389330D01*
X65310402Y-64374979D01*
X65352262Y-64366653D01*
X65435979Y-64350000D01*
X65564021Y-64350000D01*
X65647738Y-64366653D01*
X65647738Y-64366653D01*
G37*
G36*
X58175770Y-61715372D02*
X58291689Y-61738429D01*
X58473678Y-61813811D01*
X58637463Y-61923249D01*
X58776751Y-62062537D01*
X58886189Y-62226322D01*
X58961571Y-62408311D01*
X58964196Y-62421509D01*
X59000000Y-62601507D01*
X59000000Y-62798493D01*
X58997375Y-62811689D01*
X58961571Y-62991689D01*
X58886189Y-63173678D01*
X58776751Y-63337463D01*
X58637463Y-63476751D01*
X58473678Y-63586189D01*
X58291689Y-63661571D01*
X58175770Y-63684628D01*
X58098493Y-63700000D01*
X57901507Y-63700000D01*
X57824230Y-63684628D01*
X57708311Y-63661571D01*
X57526322Y-63586189D01*
X57362537Y-63476751D01*
X57223249Y-63337463D01*
X57113811Y-63173678D01*
X57038429Y-62991689D01*
X57002625Y-62811689D01*
X57000000Y-62798493D01*
X57000000Y-62601507D01*
X57035804Y-62421509D01*
X57038429Y-62408311D01*
X57113811Y-62226322D01*
X57223249Y-62062537D01*
X57362537Y-61923249D01*
X57526322Y-61813811D01*
X57708311Y-61738429D01*
X57824230Y-61715372D01*
X57901507Y-61700000D01*
X58098493Y-61700000D01*
X58175770Y-61715372D01*
X58175770Y-61715372D01*
G37*
G36*
X65675770Y-61535372D02*
X65791689Y-61558429D01*
X65973678Y-61633811D01*
X66137463Y-61743249D01*
X66276751Y-61882537D01*
X66386189Y-62046322D01*
X66461571Y-62228311D01*
X66484628Y-62344230D01*
X66497376Y-62408314D01*
X66500000Y-62421509D01*
X66500000Y-62618491D01*
X66461571Y-62811689D01*
X66386189Y-62993678D01*
X66276751Y-63157463D01*
X66137463Y-63296751D01*
X65973678Y-63406189D01*
X65791689Y-63481571D01*
X65675770Y-63504628D01*
X65598493Y-63520000D01*
X65401507Y-63520000D01*
X65324230Y-63504628D01*
X65208311Y-63481571D01*
X65026322Y-63406189D01*
X64862537Y-63296751D01*
X64723249Y-63157463D01*
X64613811Y-62993678D01*
X64538429Y-62811689D01*
X64500000Y-62618491D01*
X64500000Y-62421509D01*
X64502625Y-62408314D01*
X64515372Y-62344230D01*
X64538429Y-62228311D01*
X64613811Y-62046322D01*
X64723249Y-61882537D01*
X64862537Y-61743249D01*
X65026322Y-61633811D01*
X65208311Y-61558429D01*
X65324230Y-61535372D01*
X65401507Y-61520000D01*
X65598493Y-61520000D01*
X65675770Y-61535372D01*
X65675770Y-61535372D01*
G37*
G36*
X50017649Y-59447717D02*
X50056827Y-59451576D01*
X50132227Y-59474448D01*
X50207629Y-59497321D01*
X50346608Y-59571608D01*
X50468422Y-59671578D01*
X50568392Y-59793392D01*
X50642679Y-59932371D01*
X50688424Y-60083174D01*
X50703870Y-60240000D01*
X50688424Y-60396826D01*
X50642679Y-60547629D01*
X50568392Y-60686608D01*
X50468422Y-60808422D01*
X50346608Y-60908392D01*
X50207629Y-60982679D01*
X50132227Y-61005552D01*
X50056827Y-61028424D01*
X50017649Y-61032283D01*
X49939295Y-61040000D01*
X49060705Y-61040000D01*
X48982351Y-61032283D01*
X48943173Y-61028424D01*
X48867773Y-61005552D01*
X48792371Y-60982679D01*
X48653392Y-60908392D01*
X48531578Y-60808422D01*
X48431608Y-60686608D01*
X48357321Y-60547629D01*
X48311576Y-60396826D01*
X48296130Y-60240000D01*
X48311576Y-60083174D01*
X48357321Y-59932371D01*
X48431608Y-59793392D01*
X48531578Y-59671578D01*
X48653392Y-59571608D01*
X48792371Y-59497321D01*
X48867773Y-59474448D01*
X48943173Y-59451576D01*
X48982351Y-59447717D01*
X49060705Y-59440000D01*
X49939295Y-59440000D01*
X50017649Y-59447717D01*
X50017649Y-59447717D01*
G37*
G36*
X42397649Y-59447717D02*
X42436827Y-59451576D01*
X42512227Y-59474448D01*
X42587629Y-59497321D01*
X42726608Y-59571608D01*
X42848422Y-59671578D01*
X42948392Y-59793392D01*
X43022679Y-59932371D01*
X43068424Y-60083174D01*
X43083870Y-60240000D01*
X43068424Y-60396826D01*
X43022679Y-60547629D01*
X42948392Y-60686608D01*
X42848422Y-60808422D01*
X42726608Y-60908392D01*
X42587629Y-60982679D01*
X42512227Y-61005552D01*
X42436827Y-61028424D01*
X42397649Y-61032283D01*
X42319295Y-61040000D01*
X41440705Y-61040000D01*
X41362351Y-61032283D01*
X41323173Y-61028424D01*
X41247773Y-61005552D01*
X41172371Y-60982679D01*
X41033392Y-60908392D01*
X40911578Y-60808422D01*
X40811608Y-60686608D01*
X40737321Y-60547629D01*
X40691576Y-60396826D01*
X40676130Y-60240000D01*
X40691576Y-60083174D01*
X40737321Y-59932371D01*
X40811608Y-59793392D01*
X40911578Y-59671578D01*
X41033392Y-59571608D01*
X41172371Y-59497321D01*
X41247773Y-59474448D01*
X41323173Y-59451576D01*
X41362351Y-59447717D01*
X41440705Y-59440000D01*
X42319295Y-59440000D01*
X42397649Y-59447717D01*
X42397649Y-59447717D01*
G37*
G36*
X66500000Y-60980000D02*
X64500000Y-60980000D01*
X64500000Y-58980000D01*
X66500000Y-58980000D01*
X66500000Y-60980000D01*
X66500000Y-60980000D01*
G37*
G36*
X42397649Y-56907717D02*
X42436827Y-56911576D01*
X42512227Y-56934448D01*
X42587629Y-56957321D01*
X42726608Y-57031608D01*
X42848422Y-57131578D01*
X42948392Y-57253392D01*
X43022679Y-57392371D01*
X43068424Y-57543174D01*
X43083870Y-57700000D01*
X43068424Y-57856826D01*
X43022679Y-58007629D01*
X42948392Y-58146608D01*
X42848422Y-58268422D01*
X42726608Y-58368392D01*
X42587629Y-58442679D01*
X42512228Y-58465551D01*
X42436827Y-58488424D01*
X42397649Y-58492283D01*
X42319295Y-58500000D01*
X41440705Y-58500000D01*
X41362351Y-58492283D01*
X41323173Y-58488424D01*
X41247772Y-58465551D01*
X41172371Y-58442679D01*
X41033392Y-58368392D01*
X40911578Y-58268422D01*
X40811608Y-58146608D01*
X40737321Y-58007629D01*
X40691576Y-57856826D01*
X40676130Y-57700000D01*
X40691576Y-57543174D01*
X40737321Y-57392371D01*
X40811608Y-57253392D01*
X40911578Y-57131578D01*
X41033392Y-57031608D01*
X41172371Y-56957321D01*
X41247773Y-56934448D01*
X41323173Y-56911576D01*
X41362351Y-56907717D01*
X41440705Y-56900000D01*
X42319295Y-56900000D01*
X42397649Y-56907717D01*
X42397649Y-56907717D01*
G37*
G36*
X50017649Y-56907717D02*
X50056827Y-56911576D01*
X50132227Y-56934448D01*
X50207629Y-56957321D01*
X50346608Y-57031608D01*
X50468422Y-57131578D01*
X50568392Y-57253392D01*
X50642679Y-57392371D01*
X50688424Y-57543174D01*
X50703870Y-57700000D01*
X50688424Y-57856826D01*
X50642679Y-58007629D01*
X50568392Y-58146608D01*
X50468422Y-58268422D01*
X50346608Y-58368392D01*
X50207629Y-58442679D01*
X50132228Y-58465551D01*
X50056827Y-58488424D01*
X50017649Y-58492283D01*
X49939295Y-58500000D01*
X49060705Y-58500000D01*
X48982351Y-58492283D01*
X48943173Y-58488424D01*
X48867772Y-58465551D01*
X48792371Y-58442679D01*
X48653392Y-58368392D01*
X48531578Y-58268422D01*
X48431608Y-58146608D01*
X48357321Y-58007629D01*
X48311576Y-57856826D01*
X48296130Y-57700000D01*
X48311576Y-57543174D01*
X48357321Y-57392371D01*
X48431608Y-57253392D01*
X48531578Y-57131578D01*
X48653392Y-57031608D01*
X48792371Y-56957321D01*
X48867773Y-56934448D01*
X48943173Y-56911576D01*
X48982351Y-56907717D01*
X49060705Y-56900000D01*
X49939295Y-56900000D01*
X50017649Y-56907717D01*
X50017649Y-56907717D01*
G37*
G36*
X61827914Y-52942596D02*
X61827917Y-52942597D01*
X61827918Y-52942597D01*
X61926881Y-52972617D01*
X62018086Y-53021367D01*
X62098027Y-53086973D01*
X62163633Y-53166914D01*
X62212383Y-53258119D01*
X62242403Y-53357082D01*
X62242404Y-53357086D01*
X62252540Y-53460000D01*
X62242404Y-53562914D01*
X62242403Y-53562917D01*
X62242403Y-53562918D01*
X62212383Y-53661881D01*
X62163633Y-53753086D01*
X62098027Y-53833027D01*
X62018086Y-53898633D01*
X61926881Y-53947383D01*
X61834580Y-53975382D01*
X61811941Y-53984760D01*
X61791567Y-53998374D01*
X61774240Y-54015701D01*
X61760626Y-54036075D01*
X61751248Y-54058714D01*
X61746468Y-54082748D01*
X61746468Y-54107252D01*
X61751248Y-54131286D01*
X61760626Y-54153925D01*
X61774240Y-54174299D01*
X61791567Y-54191626D01*
X61811941Y-54205240D01*
X61834579Y-54214618D01*
X61926881Y-54242617D01*
X62018086Y-54291367D01*
X62018088Y-54291368D01*
X62018087Y-54291368D01*
X62098027Y-54356973D01*
X62163632Y-54436913D01*
X62212382Y-54528117D01*
X62242404Y-54627086D01*
X62252540Y-54730000D01*
X62242404Y-54832914D01*
X62242403Y-54832917D01*
X62242403Y-54832918D01*
X62212383Y-54931881D01*
X62163633Y-55023086D01*
X62098027Y-55103027D01*
X62018086Y-55168633D01*
X61975632Y-55191325D01*
X61926882Y-55217383D01*
X61884029Y-55230382D01*
X61861389Y-55239760D01*
X61841015Y-55253374D01*
X61823688Y-55270701D01*
X61810074Y-55291075D01*
X61800696Y-55313714D01*
X61795916Y-55337748D01*
X61795916Y-55362252D01*
X61800696Y-55386285D01*
X61810074Y-55408925D01*
X61823688Y-55429299D01*
X61841015Y-55446626D01*
X61861389Y-55460240D01*
X61884028Y-55469618D01*
X61908062Y-55474398D01*
X61920314Y-55475000D01*
X62250000Y-55475000D01*
X62250000Y-56525000D01*
X60750000Y-56525000D01*
X60750000Y-55475000D01*
X61079686Y-55475000D01*
X61104072Y-55472598D01*
X61127521Y-55465485D01*
X61149132Y-55453934D01*
X61168074Y-55438388D01*
X61183620Y-55419446D01*
X61195171Y-55397835D01*
X61202284Y-55374386D01*
X61204686Y-55350000D01*
X61202284Y-55325614D01*
X61195171Y-55302165D01*
X61183620Y-55280554D01*
X61168074Y-55261612D01*
X61149132Y-55246066D01*
X61127521Y-55234515D01*
X61115971Y-55230382D01*
X61073118Y-55217383D01*
X61024368Y-55191325D01*
X60981914Y-55168633D01*
X60901973Y-55103027D01*
X60836367Y-55023086D01*
X60787617Y-54931881D01*
X60757597Y-54832918D01*
X60757597Y-54832917D01*
X60757596Y-54832914D01*
X60747460Y-54730000D01*
X60757596Y-54627086D01*
X60787618Y-54528117D01*
X60836368Y-54436913D01*
X60901973Y-54356973D01*
X60981913Y-54291368D01*
X60981912Y-54291368D01*
X60981914Y-54291367D01*
X61073119Y-54242617D01*
X61165421Y-54214618D01*
X61188059Y-54205240D01*
X61208433Y-54191626D01*
X61225760Y-54174299D01*
X61239374Y-54153925D01*
X61248752Y-54131286D01*
X61253532Y-54107252D01*
X61253532Y-54082748D01*
X61248752Y-54058714D01*
X61239374Y-54036075D01*
X61225760Y-54015701D01*
X61208433Y-53998374D01*
X61188059Y-53984760D01*
X61165420Y-53975382D01*
X61073119Y-53947383D01*
X60981914Y-53898633D01*
X60901973Y-53833027D01*
X60836367Y-53753086D01*
X60787617Y-53661881D01*
X60757597Y-53562918D01*
X60757597Y-53562917D01*
X60757596Y-53562914D01*
X60747460Y-53460000D01*
X60757596Y-53357086D01*
X60757597Y-53357082D01*
X60787617Y-53258119D01*
X60836367Y-53166914D01*
X60901973Y-53086973D01*
X60981914Y-53021367D01*
X61073119Y-52972617D01*
X61172082Y-52942597D01*
X61172083Y-52942597D01*
X61172086Y-52942596D01*
X61249208Y-52935000D01*
X61750792Y-52935000D01*
X61827914Y-52942596D01*
X61827914Y-52942596D01*
G37*
G36*
X42397649Y-54367717D02*
X42436827Y-54371576D01*
X42512227Y-54394448D01*
X42587629Y-54417321D01*
X42726608Y-54491608D01*
X42848422Y-54591578D01*
X42948392Y-54713392D01*
X43022679Y-54852371D01*
X43022679Y-54852372D01*
X43068424Y-55003173D01*
X43083870Y-55160000D01*
X43068424Y-55316827D01*
X43058361Y-55350000D01*
X43022679Y-55467629D01*
X42948392Y-55606608D01*
X42848422Y-55728422D01*
X42726608Y-55828392D01*
X42587629Y-55902679D01*
X42512227Y-55925552D01*
X42436827Y-55948424D01*
X42397649Y-55952283D01*
X42319295Y-55960000D01*
X41440705Y-55960000D01*
X41362351Y-55952283D01*
X41323173Y-55948424D01*
X41247773Y-55925552D01*
X41172371Y-55902679D01*
X41033392Y-55828392D01*
X40911578Y-55728422D01*
X40811608Y-55606608D01*
X40737321Y-55467629D01*
X40701639Y-55350000D01*
X40691576Y-55316827D01*
X40676130Y-55160000D01*
X40691576Y-55003173D01*
X40737321Y-54852372D01*
X40737321Y-54852371D01*
X40811608Y-54713392D01*
X40911578Y-54591578D01*
X41033392Y-54491608D01*
X41172371Y-54417321D01*
X41247773Y-54394448D01*
X41323173Y-54371576D01*
X41362351Y-54367717D01*
X41440705Y-54360000D01*
X42319295Y-54360000D01*
X42397649Y-54367717D01*
X42397649Y-54367717D01*
G37*
G36*
X50017649Y-54367717D02*
X50056827Y-54371576D01*
X50132227Y-54394448D01*
X50207629Y-54417321D01*
X50346608Y-54491608D01*
X50468422Y-54591578D01*
X50568392Y-54713392D01*
X50642679Y-54852371D01*
X50642679Y-54852372D01*
X50688424Y-55003173D01*
X50703870Y-55160000D01*
X50688424Y-55316827D01*
X50678361Y-55350000D01*
X50642679Y-55467629D01*
X50568392Y-55606608D01*
X50468422Y-55728422D01*
X50346608Y-55828392D01*
X50207629Y-55902679D01*
X50132227Y-55925552D01*
X50056827Y-55948424D01*
X50017649Y-55952283D01*
X49939295Y-55960000D01*
X49060705Y-55960000D01*
X48982351Y-55952283D01*
X48943173Y-55948424D01*
X48867773Y-55925552D01*
X48792371Y-55902679D01*
X48653392Y-55828392D01*
X48531578Y-55728422D01*
X48431608Y-55606608D01*
X48357321Y-55467629D01*
X48321639Y-55350000D01*
X48311576Y-55316827D01*
X48296130Y-55160000D01*
X48311576Y-55003173D01*
X48357321Y-54852372D01*
X48357321Y-54852371D01*
X48431608Y-54713392D01*
X48531578Y-54591578D01*
X48653392Y-54491608D01*
X48792371Y-54417321D01*
X48867773Y-54394448D01*
X48943173Y-54371576D01*
X48982351Y-54367717D01*
X49060705Y-54360000D01*
X49939295Y-54360000D01*
X50017649Y-54367717D01*
X50017649Y-54367717D01*
G37*
G36*
X29647738Y-53366653D02*
X29689598Y-53374979D01*
X29724245Y-53389330D01*
X29807890Y-53423977D01*
X29914354Y-53495114D01*
X30004886Y-53585646D01*
X30076023Y-53692110D01*
X30125021Y-53810403D01*
X30150000Y-53935979D01*
X30150000Y-54064021D01*
X30125021Y-54189597D01*
X30076023Y-54307890D01*
X30004886Y-54414354D01*
X29914354Y-54504886D01*
X29807890Y-54576023D01*
X29724245Y-54610670D01*
X29689598Y-54625021D01*
X29679216Y-54627086D01*
X29564021Y-54650000D01*
X29435979Y-54650000D01*
X29320784Y-54627086D01*
X29310402Y-54625021D01*
X29275755Y-54610670D01*
X29192110Y-54576023D01*
X29085646Y-54504886D01*
X28995114Y-54414354D01*
X28923977Y-54307890D01*
X28874979Y-54189597D01*
X28850000Y-54064021D01*
X28850000Y-53935979D01*
X28874979Y-53810403D01*
X28923977Y-53692110D01*
X28995114Y-53585646D01*
X29085646Y-53495114D01*
X29192110Y-53423977D01*
X29275755Y-53389330D01*
X29310402Y-53374979D01*
X29352262Y-53366653D01*
X29435979Y-53350000D01*
X29564021Y-53350000D01*
X29647738Y-53366653D01*
X29647738Y-53366653D01*
G37*
G36*
X34647738Y-53366653D02*
X34689598Y-53374979D01*
X34724245Y-53389330D01*
X34807890Y-53423977D01*
X34914354Y-53495114D01*
X35004886Y-53585646D01*
X35076023Y-53692110D01*
X35125021Y-53810403D01*
X35150000Y-53935979D01*
X35150000Y-54064021D01*
X35125021Y-54189597D01*
X35076023Y-54307890D01*
X35004886Y-54414354D01*
X34914354Y-54504886D01*
X34807890Y-54576023D01*
X34724245Y-54610670D01*
X34689598Y-54625021D01*
X34679216Y-54627086D01*
X34564021Y-54650000D01*
X34435979Y-54650000D01*
X34320784Y-54627086D01*
X34310402Y-54625021D01*
X34275755Y-54610670D01*
X34192110Y-54576023D01*
X34085646Y-54504886D01*
X33995114Y-54414354D01*
X33923977Y-54307890D01*
X33874979Y-54189597D01*
X33850000Y-54064021D01*
X33850000Y-53935979D01*
X33874979Y-53810403D01*
X33923977Y-53692110D01*
X33995114Y-53585646D01*
X34085646Y-53495114D01*
X34192110Y-53423977D01*
X34275755Y-53389330D01*
X34310402Y-53374979D01*
X34352262Y-53366653D01*
X34435979Y-53350000D01*
X34564021Y-53350000D01*
X34647738Y-53366653D01*
X34647738Y-53366653D01*
G37*
G36*
X32147738Y-53366653D02*
X32189598Y-53374979D01*
X32224245Y-53389330D01*
X32307890Y-53423977D01*
X32414354Y-53495114D01*
X32504886Y-53585646D01*
X32576023Y-53692110D01*
X32625021Y-53810403D01*
X32650000Y-53935979D01*
X32650000Y-54064021D01*
X32625021Y-54189597D01*
X32576023Y-54307890D01*
X32504886Y-54414354D01*
X32414354Y-54504886D01*
X32307890Y-54576023D01*
X32224245Y-54610670D01*
X32189598Y-54625021D01*
X32179216Y-54627086D01*
X32064021Y-54650000D01*
X31935979Y-54650000D01*
X31820784Y-54627086D01*
X31810402Y-54625021D01*
X31775755Y-54610670D01*
X31692110Y-54576023D01*
X31585646Y-54504886D01*
X31495114Y-54414354D01*
X31423977Y-54307890D01*
X31374979Y-54189597D01*
X31350000Y-54064021D01*
X31350000Y-53935979D01*
X31374979Y-53810403D01*
X31423977Y-53692110D01*
X31495114Y-53585646D01*
X31585646Y-53495114D01*
X31692110Y-53423977D01*
X31775755Y-53389330D01*
X31810402Y-53374979D01*
X31852262Y-53366653D01*
X31935979Y-53350000D01*
X32064021Y-53350000D01*
X32147738Y-53366653D01*
X32147738Y-53366653D01*
G37*
G36*
X50017649Y-51827717D02*
X50056827Y-51831576D01*
X50132228Y-51854449D01*
X50207629Y-51877321D01*
X50346608Y-51951608D01*
X50468422Y-52051578D01*
X50568392Y-52173392D01*
X50642679Y-52312371D01*
X50642679Y-52312372D01*
X50688424Y-52463173D01*
X50703870Y-52620000D01*
X50688424Y-52776827D01*
X50665552Y-52852227D01*
X50642679Y-52927629D01*
X50568392Y-53066608D01*
X50468422Y-53188422D01*
X50346608Y-53288392D01*
X50207629Y-53362679D01*
X50132228Y-53385551D01*
X50056827Y-53408424D01*
X50017649Y-53412283D01*
X49939295Y-53420000D01*
X49060705Y-53420000D01*
X48982351Y-53412283D01*
X48943173Y-53408424D01*
X48867772Y-53385551D01*
X48792371Y-53362679D01*
X48653392Y-53288392D01*
X48531578Y-53188422D01*
X48431608Y-53066608D01*
X48357321Y-52927629D01*
X48334448Y-52852227D01*
X48311576Y-52776827D01*
X48296130Y-52620000D01*
X48311576Y-52463173D01*
X48357321Y-52312372D01*
X48357321Y-52312371D01*
X48431608Y-52173392D01*
X48531578Y-52051578D01*
X48653392Y-51951608D01*
X48792371Y-51877321D01*
X48867772Y-51854449D01*
X48943173Y-51831576D01*
X48982351Y-51827717D01*
X49060705Y-51820000D01*
X49939295Y-51820000D01*
X50017649Y-51827717D01*
X50017649Y-51827717D01*
G37*
G36*
X42397649Y-51827717D02*
X42436827Y-51831576D01*
X42512228Y-51854449D01*
X42587629Y-51877321D01*
X42726608Y-51951608D01*
X42848422Y-52051578D01*
X42948392Y-52173392D01*
X43022679Y-52312371D01*
X43022679Y-52312372D01*
X43068424Y-52463173D01*
X43083870Y-52620000D01*
X43068424Y-52776827D01*
X43045552Y-52852227D01*
X43022679Y-52927629D01*
X42948392Y-53066608D01*
X42848422Y-53188422D01*
X42726608Y-53288392D01*
X42587629Y-53362679D01*
X42512228Y-53385551D01*
X42436827Y-53408424D01*
X42397649Y-53412283D01*
X42319295Y-53420000D01*
X41440705Y-53420000D01*
X41362351Y-53412283D01*
X41323173Y-53408424D01*
X41247772Y-53385551D01*
X41172371Y-53362679D01*
X41033392Y-53288392D01*
X40911578Y-53188422D01*
X40811608Y-53066608D01*
X40737321Y-52927629D01*
X40714448Y-52852227D01*
X40691576Y-52776827D01*
X40676130Y-52620000D01*
X40691576Y-52463173D01*
X40737321Y-52312372D01*
X40737321Y-52312371D01*
X40811608Y-52173392D01*
X40911578Y-52051578D01*
X41033392Y-51951608D01*
X41172371Y-51877321D01*
X41247772Y-51854449D01*
X41323173Y-51831576D01*
X41362351Y-51827717D01*
X41440705Y-51820000D01*
X42319295Y-51820000D01*
X42397649Y-51827717D01*
X42397649Y-51827717D01*
G37*
G36*
X58175770Y-50815372D02*
X58291689Y-50838429D01*
X58473678Y-50913811D01*
X58637463Y-51023249D01*
X58776751Y-51162537D01*
X58886189Y-51326322D01*
X58961571Y-51508311D01*
X59000000Y-51701509D01*
X59000000Y-51898491D01*
X58961571Y-52091689D01*
X58886189Y-52273678D01*
X58776751Y-52437463D01*
X58637463Y-52576751D01*
X58473678Y-52686189D01*
X58291689Y-52761571D01*
X58175770Y-52784628D01*
X58098493Y-52800000D01*
X57901507Y-52800000D01*
X57824230Y-52784628D01*
X57708311Y-52761571D01*
X57526322Y-52686189D01*
X57362537Y-52576751D01*
X57223249Y-52437463D01*
X57113811Y-52273678D01*
X57038429Y-52091689D01*
X57000000Y-51898491D01*
X57000000Y-51701509D01*
X57038429Y-51508311D01*
X57113811Y-51326322D01*
X57223249Y-51162537D01*
X57362537Y-51023249D01*
X57526322Y-50913811D01*
X57708311Y-50838429D01*
X57824230Y-50815372D01*
X57901507Y-50800000D01*
X58098493Y-50800000D01*
X58175770Y-50815372D01*
X58175770Y-50815372D01*
G37*
G36*
X42397649Y-49287717D02*
X42436827Y-49291576D01*
X42498888Y-49310402D01*
X42587629Y-49337321D01*
X42726608Y-49411608D01*
X42848422Y-49511578D01*
X42948392Y-49633392D01*
X43022679Y-49772371D01*
X43068424Y-49923174D01*
X43083870Y-50080000D01*
X43068424Y-50236826D01*
X43022679Y-50387629D01*
X42948392Y-50526608D01*
X42848422Y-50648422D01*
X42726608Y-50748392D01*
X42587629Y-50822679D01*
X42512228Y-50845551D01*
X42436827Y-50868424D01*
X42397649Y-50872283D01*
X42319295Y-50880000D01*
X41440705Y-50880000D01*
X41362351Y-50872283D01*
X41323173Y-50868424D01*
X41247772Y-50845551D01*
X41172371Y-50822679D01*
X41033392Y-50748392D01*
X40911578Y-50648422D01*
X40811608Y-50526608D01*
X40737321Y-50387629D01*
X40691576Y-50236826D01*
X40676130Y-50080000D01*
X40691576Y-49923174D01*
X40737321Y-49772371D01*
X40811608Y-49633392D01*
X40911578Y-49511578D01*
X41033392Y-49411608D01*
X41172371Y-49337321D01*
X41261112Y-49310402D01*
X41323173Y-49291576D01*
X41362351Y-49287717D01*
X41440705Y-49280000D01*
X42319295Y-49280000D01*
X42397649Y-49287717D01*
X42397649Y-49287717D01*
G37*
G36*
X50017649Y-49287717D02*
X50056827Y-49291576D01*
X50118888Y-49310402D01*
X50207629Y-49337321D01*
X50346608Y-49411608D01*
X50468422Y-49511578D01*
X50568392Y-49633392D01*
X50642679Y-49772371D01*
X50688424Y-49923174D01*
X50703870Y-50080000D01*
X50688424Y-50236826D01*
X50642679Y-50387629D01*
X50568392Y-50526608D01*
X50468422Y-50648422D01*
X50346608Y-50748392D01*
X50207629Y-50822679D01*
X50132228Y-50845551D01*
X50056827Y-50868424D01*
X50017649Y-50872283D01*
X49939295Y-50880000D01*
X49060705Y-50880000D01*
X48982351Y-50872283D01*
X48943173Y-50868424D01*
X48867772Y-50845551D01*
X48792371Y-50822679D01*
X48653392Y-50748392D01*
X48531578Y-50648422D01*
X48431608Y-50526608D01*
X48357321Y-50387629D01*
X48311576Y-50236826D01*
X48296130Y-50080000D01*
X48311576Y-49923174D01*
X48357321Y-49772371D01*
X48431608Y-49633392D01*
X48531578Y-49511578D01*
X48653392Y-49411608D01*
X48792371Y-49337321D01*
X48881112Y-49310402D01*
X48943173Y-49291576D01*
X48982351Y-49287717D01*
X49060705Y-49280000D01*
X49939295Y-49280000D01*
X50017649Y-49287717D01*
X50017649Y-49287717D01*
G37*
G36*
X65647738Y-48866653D02*
X65689598Y-48874979D01*
X65724245Y-48889330D01*
X65807890Y-48923977D01*
X65914354Y-48995114D01*
X66004886Y-49085646D01*
X66076023Y-49192110D01*
X66125021Y-49310403D01*
X66150000Y-49435979D01*
X66150000Y-49564021D01*
X66125021Y-49689597D01*
X66076023Y-49807890D01*
X66004886Y-49914354D01*
X65914354Y-50004886D01*
X65807890Y-50076023D01*
X65724245Y-50110670D01*
X65689598Y-50125021D01*
X65647738Y-50133347D01*
X65564021Y-50150000D01*
X65435979Y-50150000D01*
X65352262Y-50133347D01*
X65310402Y-50125021D01*
X65275755Y-50110670D01*
X65192110Y-50076023D01*
X65085646Y-50004886D01*
X64995114Y-49914354D01*
X64923977Y-49807890D01*
X64874979Y-49689597D01*
X64850000Y-49564021D01*
X64850000Y-49435979D01*
X64874979Y-49310403D01*
X64923977Y-49192110D01*
X64995114Y-49085646D01*
X65085646Y-48995114D01*
X65192110Y-48923977D01*
X65275755Y-48889330D01*
X65310402Y-48874979D01*
X65352262Y-48866653D01*
X65435979Y-48850000D01*
X65564021Y-48850000D01*
X65647738Y-48866653D01*
X65647738Y-48866653D01*
G37*
G36*
X50017649Y-46747717D02*
X50056827Y-46751576D01*
X50132228Y-46774449D01*
X50207629Y-46797321D01*
X50346608Y-46871608D01*
X50468422Y-46971578D01*
X50568392Y-47093392D01*
X50642679Y-47232371D01*
X50688424Y-47383174D01*
X50703870Y-47540000D01*
X50688424Y-47696826D01*
X50642679Y-47847629D01*
X50568392Y-47986608D01*
X50468422Y-48108422D01*
X50346608Y-48208392D01*
X50207629Y-48282679D01*
X50132228Y-48305551D01*
X50056827Y-48328424D01*
X50017649Y-48332283D01*
X49939295Y-48340000D01*
X49060705Y-48340000D01*
X48982351Y-48332283D01*
X48943173Y-48328424D01*
X48867772Y-48305551D01*
X48792371Y-48282679D01*
X48653392Y-48208392D01*
X48531578Y-48108422D01*
X48431608Y-47986608D01*
X48357321Y-47847629D01*
X48311576Y-47696826D01*
X48296130Y-47540000D01*
X48311576Y-47383174D01*
X48357321Y-47232371D01*
X48431608Y-47093392D01*
X48531578Y-46971578D01*
X48653392Y-46871608D01*
X48792371Y-46797321D01*
X48867772Y-46774449D01*
X48943173Y-46751576D01*
X48982351Y-46747717D01*
X49060705Y-46740000D01*
X49939295Y-46740000D01*
X50017649Y-46747717D01*
X50017649Y-46747717D01*
G37*
G36*
X42397649Y-46747717D02*
X42436827Y-46751576D01*
X42512228Y-46774449D01*
X42587629Y-46797321D01*
X42726608Y-46871608D01*
X42848422Y-46971578D01*
X42948392Y-47093392D01*
X43022679Y-47232371D01*
X43068424Y-47383174D01*
X43083870Y-47540000D01*
X43068424Y-47696826D01*
X43022679Y-47847629D01*
X42948392Y-47986608D01*
X42848422Y-48108422D01*
X42726608Y-48208392D01*
X42587629Y-48282679D01*
X42512228Y-48305551D01*
X42436827Y-48328424D01*
X42397649Y-48332283D01*
X42319295Y-48340000D01*
X41440705Y-48340000D01*
X41362351Y-48332283D01*
X41323173Y-48328424D01*
X41247772Y-48305551D01*
X41172371Y-48282679D01*
X41033392Y-48208392D01*
X40911578Y-48108422D01*
X40811608Y-47986608D01*
X40737321Y-47847629D01*
X40691576Y-47696826D01*
X40676130Y-47540000D01*
X40691576Y-47383174D01*
X40737321Y-47232371D01*
X40811608Y-47093392D01*
X40911578Y-46971578D01*
X41033392Y-46871608D01*
X41172371Y-46797321D01*
X41247772Y-46774449D01*
X41323173Y-46751576D01*
X41362351Y-46747717D01*
X41440705Y-46740000D01*
X42319295Y-46740000D01*
X42397649Y-46747717D01*
X42397649Y-46747717D01*
G37*
G36*
X65647738Y-46366653D02*
X65689598Y-46374979D01*
X65724245Y-46389330D01*
X65807890Y-46423977D01*
X65914354Y-46495114D01*
X66004886Y-46585646D01*
X66076023Y-46692110D01*
X66095859Y-46740000D01*
X66119603Y-46797321D01*
X66125021Y-46810403D01*
X66150000Y-46935979D01*
X66150000Y-47064021D01*
X66125021Y-47189597D01*
X66076023Y-47307890D01*
X66004886Y-47414354D01*
X65914354Y-47504886D01*
X65807890Y-47576023D01*
X65724245Y-47610670D01*
X65689598Y-47625021D01*
X65647738Y-47633347D01*
X65564021Y-47650000D01*
X65435979Y-47650000D01*
X65352262Y-47633347D01*
X65310402Y-47625021D01*
X65275755Y-47610670D01*
X65192110Y-47576023D01*
X65085646Y-47504886D01*
X64995114Y-47414354D01*
X64923977Y-47307890D01*
X64874979Y-47189597D01*
X64850000Y-47064021D01*
X64850000Y-46935979D01*
X64874979Y-46810403D01*
X64880398Y-46797321D01*
X64904141Y-46740000D01*
X64923977Y-46692110D01*
X64995114Y-46585646D01*
X65085646Y-46495114D01*
X65192110Y-46423977D01*
X65275755Y-46389330D01*
X65310402Y-46374979D01*
X65352262Y-46366653D01*
X65435979Y-46350000D01*
X65564021Y-46350000D01*
X65647738Y-46366653D01*
X65647738Y-46366653D01*
G37*
G36*
X36975770Y-45515372D02*
X37091689Y-45538429D01*
X37273678Y-45613811D01*
X37437463Y-45723249D01*
X37576751Y-45862537D01*
X37686189Y-46026322D01*
X37761571Y-46208311D01*
X37800000Y-46401509D01*
X37800000Y-46598491D01*
X37761571Y-46791689D01*
X37686189Y-46973678D01*
X37576751Y-47137463D01*
X37437463Y-47276751D01*
X37273678Y-47386189D01*
X37091689Y-47461571D01*
X36975770Y-47484628D01*
X36898493Y-47500000D01*
X36701507Y-47500000D01*
X36624230Y-47484628D01*
X36508311Y-47461571D01*
X36326322Y-47386189D01*
X36162537Y-47276751D01*
X36023249Y-47137463D01*
X35913811Y-46973678D01*
X35838429Y-46791689D01*
X35800000Y-46598491D01*
X35800000Y-46401509D01*
X35838429Y-46208311D01*
X35913811Y-46026322D01*
X36023249Y-45862537D01*
X36162537Y-45723249D01*
X36326322Y-45613811D01*
X36508311Y-45538429D01*
X36624230Y-45515372D01*
X36701507Y-45500000D01*
X36898493Y-45500000D01*
X36975770Y-45515372D01*
X36975770Y-45515372D01*
G37*
G36*
X27375770Y-45515372D02*
X27491689Y-45538429D01*
X27673678Y-45613811D01*
X27837463Y-45723249D01*
X27976751Y-45862537D01*
X28086189Y-46026322D01*
X28161571Y-46208311D01*
X28200000Y-46401509D01*
X28200000Y-46598491D01*
X28161571Y-46791689D01*
X28086189Y-46973678D01*
X27976751Y-47137463D01*
X27837463Y-47276751D01*
X27673678Y-47386189D01*
X27491689Y-47461571D01*
X27375770Y-47484628D01*
X27298493Y-47500000D01*
X27101507Y-47500000D01*
X27024230Y-47484628D01*
X26908311Y-47461571D01*
X26726322Y-47386189D01*
X26562537Y-47276751D01*
X26423249Y-47137463D01*
X26313811Y-46973678D01*
X26238429Y-46791689D01*
X26200000Y-46598491D01*
X26200000Y-46401509D01*
X26238429Y-46208311D01*
X26313811Y-46026322D01*
X26423249Y-45862537D01*
X26562537Y-45723249D01*
X26726322Y-45613811D01*
X26908311Y-45538429D01*
X27024230Y-45515372D01*
X27101507Y-45500000D01*
X27298493Y-45500000D01*
X27375770Y-45515372D01*
X27375770Y-45515372D01*
G37*
G36*
X42397649Y-44207717D02*
X42436827Y-44211576D01*
X42500012Y-44230743D01*
X42587629Y-44257321D01*
X42726608Y-44331608D01*
X42848422Y-44431578D01*
X42948392Y-44553392D01*
X43022679Y-44692371D01*
X43022679Y-44692372D01*
X43068424Y-44843173D01*
X43083870Y-45000000D01*
X43076383Y-45076022D01*
X43068424Y-45156826D01*
X43022679Y-45307629D01*
X42948392Y-45446608D01*
X42848422Y-45568422D01*
X42726608Y-45668392D01*
X42587629Y-45742679D01*
X42512228Y-45765551D01*
X42436827Y-45788424D01*
X42397649Y-45792283D01*
X42319295Y-45800000D01*
X41440705Y-45800000D01*
X41362351Y-45792283D01*
X41323173Y-45788424D01*
X41247772Y-45765551D01*
X41172371Y-45742679D01*
X41033392Y-45668392D01*
X40911578Y-45568422D01*
X40811608Y-45446608D01*
X40737321Y-45307629D01*
X40691576Y-45156826D01*
X40683618Y-45076022D01*
X40676130Y-45000000D01*
X40691576Y-44843173D01*
X40737321Y-44692372D01*
X40737321Y-44692371D01*
X40811608Y-44553392D01*
X40911578Y-44431578D01*
X41033392Y-44331608D01*
X41172371Y-44257321D01*
X41259988Y-44230743D01*
X41323173Y-44211576D01*
X41362351Y-44207717D01*
X41440705Y-44200000D01*
X42319295Y-44200000D01*
X42397649Y-44207717D01*
X42397649Y-44207717D01*
G37*
G36*
X22550000Y-45800000D02*
X20950000Y-45800000D01*
X20950000Y-44200000D01*
X22550000Y-44200000D01*
X22550000Y-45800000D01*
X22550000Y-45800000D01*
G37*
G36*
X23983352Y-44230743D02*
X24128941Y-44291048D01*
X24259973Y-44378601D01*
X24371399Y-44490027D01*
X24458952Y-44621059D01*
X24519257Y-44766648D01*
X24550000Y-44921205D01*
X24550000Y-45078795D01*
X24519257Y-45233352D01*
X24458952Y-45378941D01*
X24371399Y-45509973D01*
X24259973Y-45621399D01*
X24128941Y-45708952D01*
X23983352Y-45769257D01*
X23828795Y-45800000D01*
X23671205Y-45800000D01*
X23516648Y-45769257D01*
X23371059Y-45708952D01*
X23240027Y-45621399D01*
X23128601Y-45509973D01*
X23041048Y-45378941D01*
X22980743Y-45233352D01*
X22950000Y-45078795D01*
X22950000Y-44921205D01*
X22980743Y-44766648D01*
X23041048Y-44621059D01*
X23128601Y-44490027D01*
X23240027Y-44378601D01*
X23371059Y-44291048D01*
X23516648Y-44230743D01*
X23671205Y-44200000D01*
X23828795Y-44200000D01*
X23983352Y-44230743D01*
X23983352Y-44230743D01*
G37*
G36*
X50700000Y-45800000D02*
X48300000Y-45800000D01*
X48300000Y-44200000D01*
X50700000Y-44200000D01*
X50700000Y-45800000D01*
X50700000Y-45800000D01*
G37*
G36*
X65647738Y-43866653D02*
X65689598Y-43874979D01*
X65724245Y-43889330D01*
X65807890Y-43923977D01*
X65914354Y-43995114D01*
X66004886Y-44085646D01*
X66076023Y-44192110D01*
X66092025Y-44230743D01*
X66117005Y-44291049D01*
X66125021Y-44310403D01*
X66150000Y-44435979D01*
X66150000Y-44564021D01*
X66125021Y-44689597D01*
X66076023Y-44807890D01*
X66004886Y-44914354D01*
X65914354Y-45004886D01*
X65807890Y-45076023D01*
X65724245Y-45110670D01*
X65689598Y-45125021D01*
X65647738Y-45133347D01*
X65564021Y-45150000D01*
X65435979Y-45150000D01*
X65352262Y-45133347D01*
X65310402Y-45125021D01*
X65275755Y-45110670D01*
X65192110Y-45076023D01*
X65085646Y-45004886D01*
X64995114Y-44914354D01*
X64923977Y-44807890D01*
X64874979Y-44689597D01*
X64850000Y-44564021D01*
X64850000Y-44435979D01*
X64874979Y-44310403D01*
X64882996Y-44291049D01*
X64907975Y-44230743D01*
X64923977Y-44192110D01*
X64995114Y-44085646D01*
X65085646Y-43995114D01*
X65192110Y-43923977D01*
X65275755Y-43889330D01*
X65310402Y-43874979D01*
X65352262Y-43866653D01*
X65435979Y-43850000D01*
X65564021Y-43850000D01*
X65647738Y-43866653D01*
X65647738Y-43866653D01*
G37*
G36*
X58175770Y-41215372D02*
X58291689Y-41238429D01*
X58473678Y-41313811D01*
X58637463Y-41423249D01*
X58776751Y-41562537D01*
X58886189Y-41726322D01*
X58961571Y-41908311D01*
X59000000Y-42101509D01*
X59000000Y-42298491D01*
X58961571Y-42491689D01*
X58886189Y-42673678D01*
X58776751Y-42837463D01*
X58637463Y-42976751D01*
X58473678Y-43086189D01*
X58291689Y-43161571D01*
X58175770Y-43184628D01*
X58098493Y-43200000D01*
X57901507Y-43200000D01*
X57824230Y-43184628D01*
X57708311Y-43161571D01*
X57526322Y-43086189D01*
X57362537Y-42976751D01*
X57223249Y-42837463D01*
X57113811Y-42673678D01*
X57038429Y-42491689D01*
X57000000Y-42298491D01*
X57000000Y-42101509D01*
X57038429Y-41908311D01*
X57113811Y-41726322D01*
X57223249Y-41562537D01*
X57362537Y-41423249D01*
X57526322Y-41313811D01*
X57708311Y-41238429D01*
X57824230Y-41215372D01*
X57901507Y-41200000D01*
X58098493Y-41200000D01*
X58175770Y-41215372D01*
X58175770Y-41215372D01*
G37*
G36*
X66983352Y-40980743D02*
X67128941Y-41041048D01*
X67259973Y-41128601D01*
X67371399Y-41240027D01*
X67458952Y-41371059D01*
X67519257Y-41516648D01*
X67550000Y-41671205D01*
X67550000Y-41828795D01*
X67519257Y-41983352D01*
X67458952Y-42128941D01*
X67371399Y-42259973D01*
X67259973Y-42371399D01*
X67128941Y-42458952D01*
X66983352Y-42519257D01*
X66828795Y-42550000D01*
X66671205Y-42550000D01*
X66516648Y-42519257D01*
X66371059Y-42458952D01*
X66240027Y-42371399D01*
X66128601Y-42259973D01*
X66041048Y-42128941D01*
X65980743Y-41983352D01*
X65950000Y-41828795D01*
X65950000Y-41671205D01*
X65980743Y-41516648D01*
X66041048Y-41371059D01*
X66128601Y-41240027D01*
X66240027Y-41128601D01*
X66371059Y-41041048D01*
X66516648Y-40980743D01*
X66671205Y-40950000D01*
X66828795Y-40950000D01*
X66983352Y-40980743D01*
X66983352Y-40980743D01*
G37*
G36*
X67550000Y-40550000D02*
X65950000Y-40550000D01*
X65950000Y-38950000D01*
X67550000Y-38950000D01*
X67550000Y-40550000D01*
X67550000Y-40550000D01*
G37*
G36*
X22327914Y-36942596D02*
X22327917Y-36942597D01*
X22327918Y-36942597D01*
X22426881Y-36972617D01*
X22518086Y-37021367D01*
X22598027Y-37086973D01*
X22663633Y-37166914D01*
X22712383Y-37258119D01*
X22742403Y-37357082D01*
X22742404Y-37357086D01*
X22752540Y-37460000D01*
X22742404Y-37562914D01*
X22742403Y-37562917D01*
X22742403Y-37562918D01*
X22712383Y-37661881D01*
X22663633Y-37753086D01*
X22598027Y-37833027D01*
X22518086Y-37898633D01*
X22426881Y-37947383D01*
X22334580Y-37975382D01*
X22311941Y-37984760D01*
X22291567Y-37998374D01*
X22274240Y-38015701D01*
X22260626Y-38036075D01*
X22251248Y-38058714D01*
X22246468Y-38082748D01*
X22246468Y-38107252D01*
X22251248Y-38131286D01*
X22260626Y-38153925D01*
X22274240Y-38174299D01*
X22291567Y-38191626D01*
X22311941Y-38205240D01*
X22334579Y-38214618D01*
X22426881Y-38242617D01*
X22518086Y-38291367D01*
X22598027Y-38356973D01*
X22663633Y-38436914D01*
X22706087Y-38516340D01*
X22712382Y-38528117D01*
X22742404Y-38627086D01*
X22752540Y-38730000D01*
X22742404Y-38832914D01*
X22742403Y-38832917D01*
X22742403Y-38832918D01*
X22712383Y-38931881D01*
X22663633Y-39023086D01*
X22598027Y-39103027D01*
X22518086Y-39168633D01*
X22475632Y-39191325D01*
X22426882Y-39217383D01*
X22384029Y-39230382D01*
X22361389Y-39239760D01*
X22341015Y-39253374D01*
X22323688Y-39270701D01*
X22310074Y-39291075D01*
X22300696Y-39313714D01*
X22295916Y-39337748D01*
X22295916Y-39362252D01*
X22300696Y-39386285D01*
X22310074Y-39408925D01*
X22323688Y-39429299D01*
X22341015Y-39446626D01*
X22361389Y-39460240D01*
X22384028Y-39469618D01*
X22408062Y-39474398D01*
X22420314Y-39475000D01*
X22750000Y-39475000D01*
X22750000Y-40525000D01*
X21250000Y-40525000D01*
X21250000Y-39475000D01*
X21579686Y-39475000D01*
X21604072Y-39472598D01*
X21627521Y-39465485D01*
X21649132Y-39453934D01*
X21668074Y-39438388D01*
X21683620Y-39419446D01*
X21695171Y-39397835D01*
X21702284Y-39374386D01*
X21704686Y-39350000D01*
X21702284Y-39325614D01*
X21695171Y-39302165D01*
X21683620Y-39280554D01*
X21668074Y-39261612D01*
X21649132Y-39246066D01*
X21627521Y-39234515D01*
X21615971Y-39230382D01*
X21573118Y-39217383D01*
X21524368Y-39191325D01*
X21481914Y-39168633D01*
X21401973Y-39103027D01*
X21336367Y-39023086D01*
X21287617Y-38931881D01*
X21257597Y-38832918D01*
X21257597Y-38832917D01*
X21257596Y-38832914D01*
X21247460Y-38730000D01*
X21257596Y-38627086D01*
X21287618Y-38528117D01*
X21293913Y-38516340D01*
X21336367Y-38436914D01*
X21401973Y-38356973D01*
X21481914Y-38291367D01*
X21573119Y-38242617D01*
X21665421Y-38214618D01*
X21688059Y-38205240D01*
X21708433Y-38191626D01*
X21725760Y-38174299D01*
X21739374Y-38153925D01*
X21748752Y-38131286D01*
X21753532Y-38107252D01*
X21753532Y-38082748D01*
X21748752Y-38058714D01*
X21739374Y-38036075D01*
X21725760Y-38015701D01*
X21708433Y-37998374D01*
X21688059Y-37984760D01*
X21665420Y-37975382D01*
X21573119Y-37947383D01*
X21481914Y-37898633D01*
X21401973Y-37833027D01*
X21336367Y-37753086D01*
X21287617Y-37661881D01*
X21257597Y-37562918D01*
X21257597Y-37562917D01*
X21257596Y-37562914D01*
X21247460Y-37460000D01*
X21257596Y-37357086D01*
X21257597Y-37357082D01*
X21287617Y-37258119D01*
X21336367Y-37166914D01*
X21401973Y-37086973D01*
X21481914Y-37021367D01*
X21573119Y-36972617D01*
X21672082Y-36942597D01*
X21672083Y-36942597D01*
X21672086Y-36942596D01*
X21749208Y-36935000D01*
X22250792Y-36935000D01*
X22327914Y-36942596D01*
X22327914Y-36942596D01*
G37*
G36*
X28233352Y-37480743D02*
X28378941Y-37541048D01*
X28509973Y-37628601D01*
X28621399Y-37740027D01*
X28708952Y-37871059D01*
X28769257Y-38016648D01*
X28800000Y-38171205D01*
X28800000Y-38328795D01*
X28769257Y-38483352D01*
X28708952Y-38628941D01*
X28621399Y-38759973D01*
X28509973Y-38871399D01*
X28378941Y-38958952D01*
X28233352Y-39019257D01*
X28078795Y-39050000D01*
X27921205Y-39050000D01*
X27766648Y-39019257D01*
X27621059Y-38958952D01*
X27490027Y-38871399D01*
X27378601Y-38759973D01*
X27291048Y-38628941D01*
X27230743Y-38483352D01*
X27200000Y-38328795D01*
X27200000Y-38171205D01*
X27230743Y-38016648D01*
X27291048Y-37871059D01*
X27378601Y-37740027D01*
X27490027Y-37628601D01*
X27621059Y-37541048D01*
X27766648Y-37480743D01*
X27921205Y-37450000D01*
X28078795Y-37450000D01*
X28233352Y-37480743D01*
X28233352Y-37480743D01*
G37*
G36*
X54465639Y-35975916D02*
X54672986Y-36038815D01*
X54672988Y-36038816D01*
X54864084Y-36140958D01*
X55031581Y-36278419D01*
X55169042Y-36445916D01*
X55258928Y-36614082D01*
X55271185Y-36637014D01*
X55334084Y-36844361D01*
X55355322Y-37060000D01*
X55334084Y-37275639D01*
X55278158Y-37460000D01*
X55271184Y-37482988D01*
X55169042Y-37674084D01*
X55031581Y-37841581D01*
X54864084Y-37979042D01*
X54672988Y-38081184D01*
X54672986Y-38081185D01*
X54465639Y-38144084D01*
X54304038Y-38160000D01*
X54195962Y-38160000D01*
X54034361Y-38144084D01*
X53827014Y-38081185D01*
X53827012Y-38081184D01*
X53635916Y-37979042D01*
X53468419Y-37841581D01*
X53330958Y-37674084D01*
X53228816Y-37482988D01*
X53221843Y-37460000D01*
X53165916Y-37275639D01*
X53144678Y-37060000D01*
X53165916Y-36844361D01*
X53228815Y-36637014D01*
X53241072Y-36614082D01*
X53330958Y-36445916D01*
X53468419Y-36278419D01*
X53635916Y-36140958D01*
X53827012Y-36038816D01*
X53827014Y-36038815D01*
X54034361Y-35975916D01*
X54195962Y-35960000D01*
X54304038Y-35960000D01*
X54465639Y-35975916D01*
X54465639Y-35975916D01*
G37*
G36*
X61300000Y-37550000D02*
X59700000Y-37550000D01*
X59700000Y-35950000D01*
X61300000Y-35950000D01*
X61300000Y-37550000D01*
X61300000Y-37550000D01*
G37*
G36*
X37525639Y-34915916D02*
X37732986Y-34978815D01*
X37732988Y-34978816D01*
X37924084Y-35080958D01*
X38091581Y-35218419D01*
X38229042Y-35385916D01*
X38331184Y-35577012D01*
X38331185Y-35577014D01*
X38394084Y-35784361D01*
X38415322Y-36000000D01*
X38394084Y-36215639D01*
X38375040Y-36278419D01*
X38331184Y-36422988D01*
X38229042Y-36614084D01*
X38091581Y-36781581D01*
X37924084Y-36919042D01*
X37732988Y-37021184D01*
X37732986Y-37021185D01*
X37525639Y-37084084D01*
X37364038Y-37100000D01*
X37255962Y-37100000D01*
X37094361Y-37084084D01*
X36887014Y-37021185D01*
X36887012Y-37021184D01*
X36695916Y-36919042D01*
X36528419Y-36781581D01*
X36390958Y-36614084D01*
X36288816Y-36422988D01*
X36244961Y-36278419D01*
X36225916Y-36215639D01*
X36204678Y-36000000D01*
X36225916Y-35784361D01*
X36288815Y-35577014D01*
X36288816Y-35577012D01*
X36390958Y-35385916D01*
X36528419Y-35218419D01*
X36695916Y-35080958D01*
X36887012Y-34978816D01*
X36887014Y-34978815D01*
X37094361Y-34915916D01*
X37255962Y-34900000D01*
X37364038Y-34900000D01*
X37525639Y-34915916D01*
X37525639Y-34915916D01*
G37*
G36*
X34600000Y-37100000D02*
X32400000Y-37100000D01*
X32400000Y-34900000D01*
X34600000Y-34900000D01*
X34600000Y-37100000D01*
X34600000Y-37100000D01*
G37*
G36*
X46863600Y-36863600D02*
X45136400Y-36863600D01*
X45136400Y-35136400D01*
X46863600Y-35136400D01*
X46863600Y-36863600D01*
X46863600Y-36863600D01*
G37*
G36*
X48624712Y-35140565D02*
X48709295Y-35148896D01*
X48829727Y-35185429D01*
X48872088Y-35198279D01*
X49022112Y-35278468D01*
X49153612Y-35386388D01*
X49261532Y-35517888D01*
X49341721Y-35667912D01*
X49341722Y-35667916D01*
X49391104Y-35830705D01*
X49407778Y-36000000D01*
X49391104Y-36169295D01*
X49358001Y-36278419D01*
X49341721Y-36332088D01*
X49261532Y-36482112D01*
X49153612Y-36613612D01*
X49022112Y-36721532D01*
X48872088Y-36801721D01*
X48829727Y-36814571D01*
X48709295Y-36851104D01*
X48624712Y-36859435D01*
X48582421Y-36863600D01*
X48497579Y-36863600D01*
X48455288Y-36859435D01*
X48370705Y-36851104D01*
X48250273Y-36814571D01*
X48207912Y-36801721D01*
X48057888Y-36721532D01*
X47926388Y-36613612D01*
X47818468Y-36482112D01*
X47738279Y-36332088D01*
X47721999Y-36278419D01*
X47688896Y-36169295D01*
X47672222Y-36000000D01*
X47688896Y-35830705D01*
X47738278Y-35667916D01*
X47738279Y-35667912D01*
X47818468Y-35517888D01*
X47926388Y-35386388D01*
X48057888Y-35278468D01*
X48207912Y-35198279D01*
X48250273Y-35185429D01*
X48370705Y-35148896D01*
X48455288Y-35140565D01*
X48497579Y-35136400D01*
X48582421Y-35136400D01*
X48624712Y-35140565D01*
X48624712Y-35140565D01*
G37*
G36*
X28800000Y-36550000D02*
X27200000Y-36550000D01*
X27200000Y-34950000D01*
X28800000Y-34950000D01*
X28800000Y-36550000D01*
X28800000Y-36550000D01*
G37*
G36*
X67500000Y-32525000D02*
X67170314Y-32525000D01*
X67145928Y-32527402D01*
X67122479Y-32534515D01*
X67100868Y-32546066D01*
X67081926Y-32561612D01*
X67066380Y-32580554D01*
X67054829Y-32602165D01*
X67047716Y-32625614D01*
X67045314Y-32650000D01*
X67047716Y-32674386D01*
X67054829Y-32697835D01*
X67066380Y-32719446D01*
X67081926Y-32738388D01*
X67100868Y-32753934D01*
X67122479Y-32765485D01*
X67134029Y-32769618D01*
X67176882Y-32782617D01*
X67225632Y-32808675D01*
X67268086Y-32831367D01*
X67348027Y-32896973D01*
X67413633Y-32976914D01*
X67456087Y-33056340D01*
X67462382Y-33068117D01*
X67492404Y-33167086D01*
X67502540Y-33270000D01*
X67492404Y-33372914D01*
X67492403Y-33372917D01*
X67492403Y-33372918D01*
X67462383Y-33471881D01*
X67413633Y-33563086D01*
X67348027Y-33643027D01*
X67268086Y-33708633D01*
X67176881Y-33757383D01*
X67084580Y-33785382D01*
X67061941Y-33794760D01*
X67041567Y-33808374D01*
X67024240Y-33825701D01*
X67010626Y-33846075D01*
X67001248Y-33868714D01*
X66996468Y-33892748D01*
X66996468Y-33917252D01*
X67001248Y-33941286D01*
X67010626Y-33963925D01*
X67024240Y-33984299D01*
X67041567Y-34001626D01*
X67061941Y-34015240D01*
X67084579Y-34024618D01*
X67176881Y-34052617D01*
X67268086Y-34101367D01*
X67268088Y-34101368D01*
X67268087Y-34101368D01*
X67348027Y-34166973D01*
X67413632Y-34246913D01*
X67462382Y-34338117D01*
X67492404Y-34437086D01*
X67502540Y-34540000D01*
X67492404Y-34642914D01*
X67492403Y-34642917D01*
X67492403Y-34642918D01*
X67462383Y-34741881D01*
X67413633Y-34833086D01*
X67348027Y-34913027D01*
X67268086Y-34978633D01*
X67176881Y-35027383D01*
X67077918Y-35057403D01*
X67077917Y-35057403D01*
X67077914Y-35057404D01*
X67000792Y-35065000D01*
X66499208Y-35065000D01*
X66422086Y-35057404D01*
X66422083Y-35057403D01*
X66422082Y-35057403D01*
X66323119Y-35027383D01*
X66231914Y-34978633D01*
X66151973Y-34913027D01*
X66086367Y-34833086D01*
X66037617Y-34741881D01*
X66007597Y-34642918D01*
X66007597Y-34642917D01*
X66007596Y-34642914D01*
X65997460Y-34540000D01*
X66007596Y-34437086D01*
X66037618Y-34338117D01*
X66086368Y-34246913D01*
X66151973Y-34166973D01*
X66231913Y-34101368D01*
X66231912Y-34101368D01*
X66231914Y-34101367D01*
X66323119Y-34052617D01*
X66415421Y-34024618D01*
X66438059Y-34015240D01*
X66458433Y-34001626D01*
X66475760Y-33984299D01*
X66489374Y-33963925D01*
X66498752Y-33941286D01*
X66503532Y-33917252D01*
X66503532Y-33892748D01*
X66498752Y-33868714D01*
X66489374Y-33846075D01*
X66475760Y-33825701D01*
X66458433Y-33808374D01*
X66438059Y-33794760D01*
X66415420Y-33785382D01*
X66323119Y-33757383D01*
X66231914Y-33708633D01*
X66151973Y-33643027D01*
X66086367Y-33563086D01*
X66037617Y-33471881D01*
X66007597Y-33372918D01*
X66007597Y-33372917D01*
X66007596Y-33372914D01*
X65997460Y-33270000D01*
X66007596Y-33167086D01*
X66037618Y-33068117D01*
X66043913Y-33056340D01*
X66086367Y-32976914D01*
X66151973Y-32896973D01*
X66231914Y-32831367D01*
X66274368Y-32808675D01*
X66323118Y-32782617D01*
X66365971Y-32769618D01*
X66388611Y-32760240D01*
X66408985Y-32746626D01*
X66426312Y-32729299D01*
X66439926Y-32708925D01*
X66449304Y-32686286D01*
X66454084Y-32662252D01*
X66454084Y-32637748D01*
X66449304Y-32613715D01*
X66439926Y-32591075D01*
X66426312Y-32570701D01*
X66408985Y-32553374D01*
X66388611Y-32539760D01*
X66365972Y-32530382D01*
X66341938Y-32525602D01*
X66329686Y-32525000D01*
X66000000Y-32525000D01*
X66000000Y-31475000D01*
X67500000Y-31475000D01*
X67500000Y-32525000D01*
X67500000Y-32525000D01*
G37*
G36*
X60733352Y-33480743D02*
X60878941Y-33541048D01*
X61009973Y-33628601D01*
X61121399Y-33740027D01*
X61208952Y-33871059D01*
X61269257Y-34016648D01*
X61300000Y-34171205D01*
X61300000Y-34328795D01*
X61269257Y-34483352D01*
X61208952Y-34628941D01*
X61121399Y-34759973D01*
X61009973Y-34871399D01*
X60878941Y-34958952D01*
X60733352Y-35019257D01*
X60578795Y-35050000D01*
X60421205Y-35050000D01*
X60266648Y-35019257D01*
X60121059Y-34958952D01*
X59990027Y-34871399D01*
X59878601Y-34759973D01*
X59791048Y-34628941D01*
X59730743Y-34483352D01*
X59700000Y-34328795D01*
X59700000Y-34171205D01*
X59730743Y-34016648D01*
X59791048Y-33871059D01*
X59878601Y-33740027D01*
X59990027Y-33628601D01*
X60121059Y-33541048D01*
X60266648Y-33480743D01*
X60421205Y-33450000D01*
X60578795Y-33450000D01*
X60733352Y-33480743D01*
X60733352Y-33480743D01*
G37*
G36*
X55350000Y-34350000D02*
X53150000Y-34350000D01*
X53150000Y-32150000D01*
X55350000Y-32150000D01*
X55350000Y-34350000D01*
X55350000Y-34350000D01*
G37*
G36*
X48624712Y-32600565D02*
X48709295Y-32608896D01*
X48804406Y-32637748D01*
X48872088Y-32658279D01*
X49022112Y-32738468D01*
X49153612Y-32846388D01*
X49261532Y-32977888D01*
X49341721Y-33127912D01*
X49341722Y-33127916D01*
X49391104Y-33290705D01*
X49407778Y-33460000D01*
X49391104Y-33629295D01*
X49386938Y-33643027D01*
X49341721Y-33792088D01*
X49261532Y-33942112D01*
X49153612Y-34073612D01*
X49022112Y-34181532D01*
X48872088Y-34261721D01*
X48829727Y-34274571D01*
X48709295Y-34311104D01*
X48624712Y-34319435D01*
X48582421Y-34323600D01*
X48497579Y-34323600D01*
X48455288Y-34319435D01*
X48370705Y-34311104D01*
X48250273Y-34274571D01*
X48207912Y-34261721D01*
X48057888Y-34181532D01*
X47926388Y-34073612D01*
X47818468Y-33942112D01*
X47738279Y-33792088D01*
X47693062Y-33643027D01*
X47688896Y-33629295D01*
X47672222Y-33460000D01*
X47688896Y-33290705D01*
X47738278Y-33127916D01*
X47738279Y-33127912D01*
X47818468Y-32977888D01*
X47926388Y-32846388D01*
X48057888Y-32738468D01*
X48207912Y-32658279D01*
X48275594Y-32637748D01*
X48370705Y-32608896D01*
X48455288Y-32600565D01*
X48497579Y-32596400D01*
X48582421Y-32596400D01*
X48624712Y-32600565D01*
X48624712Y-32600565D01*
G37*
G36*
X46084712Y-32600565D02*
X46169295Y-32608896D01*
X46264406Y-32637748D01*
X46332088Y-32658279D01*
X46482112Y-32738468D01*
X46613612Y-32846388D01*
X46721532Y-32977888D01*
X46801721Y-33127912D01*
X46801722Y-33127916D01*
X46851104Y-33290705D01*
X46867778Y-33460000D01*
X46851104Y-33629295D01*
X46846938Y-33643027D01*
X46801721Y-33792088D01*
X46721532Y-33942112D01*
X46613612Y-34073612D01*
X46482112Y-34181532D01*
X46332088Y-34261721D01*
X46289727Y-34274571D01*
X46169295Y-34311104D01*
X46084712Y-34319435D01*
X46042421Y-34323600D01*
X45957579Y-34323600D01*
X45915288Y-34319435D01*
X45830705Y-34311104D01*
X45710273Y-34274571D01*
X45667912Y-34261721D01*
X45517888Y-34181532D01*
X45386388Y-34073612D01*
X45278468Y-33942112D01*
X45198279Y-33792088D01*
X45153062Y-33643027D01*
X45148896Y-33629295D01*
X45132222Y-33460000D01*
X45148896Y-33290705D01*
X45198278Y-33127916D01*
X45198279Y-33127912D01*
X45278468Y-32977888D01*
X45386388Y-32846388D01*
X45517888Y-32738468D01*
X45667912Y-32658279D01*
X45735594Y-32637748D01*
X45830705Y-32608896D01*
X45915288Y-32600565D01*
X45957579Y-32596400D01*
X46042421Y-32596400D01*
X46084712Y-32600565D01*
X46084712Y-32600565D01*
G37*
G36*
X36840935Y-29738429D02*
X36937534Y-29757644D01*
X37210517Y-29870717D01*
X37452920Y-30032687D01*
X37456197Y-30034876D01*
X37665124Y-30243803D01*
X37665126Y-30243806D01*
X37829283Y-30489483D01*
X37870054Y-30587912D01*
X37942356Y-30762467D01*
X38000000Y-31052261D01*
X38000000Y-31347739D01*
X37989904Y-31398493D01*
X37942356Y-31637534D01*
X37885965Y-31773675D01*
X37829284Y-31910515D01*
X37665124Y-32156197D01*
X37456197Y-32365124D01*
X37456194Y-32365126D01*
X37210517Y-32529283D01*
X37210516Y-32529284D01*
X37210515Y-32529284D01*
X37169999Y-32546066D01*
X36937534Y-32642356D01*
X36857488Y-32658278D01*
X36647739Y-32700000D01*
X36352261Y-32700000D01*
X36142512Y-32658278D01*
X36062466Y-32642356D01*
X35830001Y-32546066D01*
X35789485Y-32529284D01*
X35789484Y-32529284D01*
X35789483Y-32529283D01*
X35543806Y-32365126D01*
X35543803Y-32365124D01*
X35334876Y-32156197D01*
X35170716Y-31910515D01*
X35114035Y-31773675D01*
X35057644Y-31637534D01*
X35010096Y-31398493D01*
X35000000Y-31347739D01*
X35000000Y-31052261D01*
X35057644Y-30762467D01*
X35129947Y-30587912D01*
X35170717Y-30489483D01*
X35334874Y-30243806D01*
X35334876Y-30243803D01*
X35543803Y-30034876D01*
X35547080Y-30032687D01*
X35789483Y-29870717D01*
X36062466Y-29757644D01*
X36159065Y-29738429D01*
X36352261Y-29700000D01*
X36647739Y-29700000D01*
X36840935Y-29738429D01*
X36840935Y-29738429D01*
G37*
G36*
X27840935Y-29738429D02*
X27937534Y-29757644D01*
X28210517Y-29870717D01*
X28452920Y-30032687D01*
X28456197Y-30034876D01*
X28665124Y-30243803D01*
X28665126Y-30243806D01*
X28829283Y-30489483D01*
X28870054Y-30587912D01*
X28942356Y-30762467D01*
X29000000Y-31052261D01*
X29000000Y-31347739D01*
X28989904Y-31398493D01*
X28942356Y-31637534D01*
X28885965Y-31773675D01*
X28829284Y-31910515D01*
X28665124Y-32156197D01*
X28456197Y-32365124D01*
X28456194Y-32365126D01*
X28210517Y-32529283D01*
X28210516Y-32529284D01*
X28210515Y-32529284D01*
X28169999Y-32546066D01*
X27937534Y-32642356D01*
X27857488Y-32658278D01*
X27647739Y-32700000D01*
X27352261Y-32700000D01*
X27142512Y-32658278D01*
X27062466Y-32642356D01*
X26830001Y-32546066D01*
X26789485Y-32529284D01*
X26789484Y-32529284D01*
X26789483Y-32529283D01*
X26543806Y-32365126D01*
X26543803Y-32365124D01*
X26334876Y-32156197D01*
X26170716Y-31910515D01*
X26114035Y-31773675D01*
X26057644Y-31637534D01*
X26010096Y-31398493D01*
X26000000Y-31347739D01*
X26000000Y-31052261D01*
X26057644Y-30762467D01*
X26129947Y-30587912D01*
X26170717Y-30489483D01*
X26334874Y-30243806D01*
X26334876Y-30243803D01*
X26543803Y-30034876D01*
X26547080Y-30032687D01*
X26789483Y-29870717D01*
X27062466Y-29757644D01*
X27159065Y-29738429D01*
X27352261Y-29700000D01*
X27647739Y-29700000D01*
X27840935Y-29738429D01*
X27840935Y-29738429D01*
G37*
G36*
X58175770Y-30315372D02*
X58291689Y-30338429D01*
X58473678Y-30413811D01*
X58637463Y-30523249D01*
X58776751Y-30662537D01*
X58886189Y-30826322D01*
X58961571Y-31008311D01*
X59000000Y-31201509D01*
X59000000Y-31398491D01*
X58961571Y-31591689D01*
X58886189Y-31773678D01*
X58776751Y-31937463D01*
X58637463Y-32076751D01*
X58473678Y-32186189D01*
X58291689Y-32261571D01*
X58175770Y-32284628D01*
X58098493Y-32300000D01*
X57901507Y-32300000D01*
X57824230Y-32284628D01*
X57708311Y-32261571D01*
X57526322Y-32186189D01*
X57362537Y-32076751D01*
X57223249Y-31937463D01*
X57113811Y-31773678D01*
X57038429Y-31591689D01*
X57000000Y-31398491D01*
X57000000Y-31201509D01*
X57038429Y-31008311D01*
X57113811Y-30826322D01*
X57223249Y-30662537D01*
X57362537Y-30523249D01*
X57526322Y-30413811D01*
X57708311Y-30338429D01*
X57824230Y-30315372D01*
X57901507Y-30300000D01*
X58098493Y-30300000D01*
X58175770Y-30315372D01*
X58175770Y-30315372D01*
G37*
G36*
X48624712Y-30060565D02*
X48709295Y-30068896D01*
X48829727Y-30105429D01*
X48872088Y-30118279D01*
X49022112Y-30198468D01*
X49153612Y-30306388D01*
X49261532Y-30437888D01*
X49341721Y-30587912D01*
X49341722Y-30587916D01*
X49391104Y-30750705D01*
X49407778Y-30920000D01*
X49391104Y-31089295D01*
X49357064Y-31201509D01*
X49341721Y-31252088D01*
X49261532Y-31402112D01*
X49153612Y-31533612D01*
X49022112Y-31641532D01*
X48872088Y-31721721D01*
X48829727Y-31734571D01*
X48709295Y-31771104D01*
X48624712Y-31779435D01*
X48582421Y-31783600D01*
X48497579Y-31783600D01*
X48455288Y-31779435D01*
X48370705Y-31771104D01*
X48250273Y-31734571D01*
X48207912Y-31721721D01*
X48057888Y-31641532D01*
X47926388Y-31533612D01*
X47818468Y-31402112D01*
X47738279Y-31252088D01*
X47722936Y-31201509D01*
X47688896Y-31089295D01*
X47672222Y-30920000D01*
X47688896Y-30750705D01*
X47738278Y-30587916D01*
X47738279Y-30587912D01*
X47818468Y-30437888D01*
X47926388Y-30306388D01*
X48057888Y-30198468D01*
X48207912Y-30118279D01*
X48250273Y-30105429D01*
X48370705Y-30068896D01*
X48455288Y-30060565D01*
X48497579Y-30056400D01*
X48582421Y-30056400D01*
X48624712Y-30060565D01*
X48624712Y-30060565D01*
G37*
G36*
X46084712Y-30060565D02*
X46169295Y-30068896D01*
X46289727Y-30105429D01*
X46332088Y-30118279D01*
X46482112Y-30198468D01*
X46613612Y-30306388D01*
X46721532Y-30437888D01*
X46801721Y-30587912D01*
X46801722Y-30587916D01*
X46851104Y-30750705D01*
X46867778Y-30920000D01*
X46851104Y-31089295D01*
X46817064Y-31201509D01*
X46801721Y-31252088D01*
X46721532Y-31402112D01*
X46613612Y-31533612D01*
X46482112Y-31641532D01*
X46332088Y-31721721D01*
X46289727Y-31734571D01*
X46169295Y-31771104D01*
X46084712Y-31779435D01*
X46042421Y-31783600D01*
X45957579Y-31783600D01*
X45915288Y-31779435D01*
X45830705Y-31771104D01*
X45710273Y-31734571D01*
X45667912Y-31721721D01*
X45517888Y-31641532D01*
X45386388Y-31533612D01*
X45278468Y-31402112D01*
X45198279Y-31252088D01*
X45182936Y-31201509D01*
X45148896Y-31089295D01*
X45132222Y-30920000D01*
X45148896Y-30750705D01*
X45198278Y-30587916D01*
X45198279Y-30587912D01*
X45278468Y-30437888D01*
X45386388Y-30306388D01*
X45517888Y-30198468D01*
X45667912Y-30118279D01*
X45710273Y-30105429D01*
X45830705Y-30068896D01*
X45915288Y-30060565D01*
X45957579Y-30056400D01*
X46042421Y-30056400D01*
X46084712Y-30060565D01*
X46084712Y-30060565D01*
G37*
G36*
X65647738Y-28366653D02*
X65689598Y-28374979D01*
X65724245Y-28389330D01*
X65807890Y-28423977D01*
X65914354Y-28495114D01*
X66004886Y-28585646D01*
X66076023Y-28692110D01*
X66125021Y-28810403D01*
X66150000Y-28935979D01*
X66150000Y-29064021D01*
X66142538Y-29101532D01*
X66126588Y-29181722D01*
X66125021Y-29189597D01*
X66076023Y-29307890D01*
X66004886Y-29414354D01*
X65914354Y-29504886D01*
X65807890Y-29576023D01*
X65724245Y-29610670D01*
X65689598Y-29625021D01*
X65647738Y-29633347D01*
X65564021Y-29650000D01*
X65435979Y-29650000D01*
X65352262Y-29633347D01*
X65310402Y-29625021D01*
X65275755Y-29610670D01*
X65192110Y-29576023D01*
X65085646Y-29504886D01*
X64995114Y-29414354D01*
X64923977Y-29307890D01*
X64874979Y-29189597D01*
X64873413Y-29181722D01*
X64857462Y-29101532D01*
X64850000Y-29064021D01*
X64850000Y-28935979D01*
X64874979Y-28810403D01*
X64923977Y-28692110D01*
X64995114Y-28585646D01*
X65085646Y-28495114D01*
X65192110Y-28423977D01*
X65275755Y-28389330D01*
X65310402Y-28374979D01*
X65352262Y-28366653D01*
X65435979Y-28350000D01*
X65564021Y-28350000D01*
X65647738Y-28366653D01*
X65647738Y-28366653D01*
G37*
G36*
X46084712Y-27520565D02*
X46169295Y-27528896D01*
X46289727Y-27565429D01*
X46332088Y-27578279D01*
X46482112Y-27658468D01*
X46613612Y-27766388D01*
X46721532Y-27897888D01*
X46801721Y-28047912D01*
X46801722Y-28047916D01*
X46851104Y-28210705D01*
X46867778Y-28380000D01*
X46851104Y-28549295D01*
X46840077Y-28585646D01*
X46801721Y-28712088D01*
X46721532Y-28862112D01*
X46613612Y-28993612D01*
X46482112Y-29101532D01*
X46332088Y-29181721D01*
X46306124Y-29189597D01*
X46169295Y-29231104D01*
X46084712Y-29239435D01*
X46042421Y-29243600D01*
X45957579Y-29243600D01*
X45915288Y-29239435D01*
X45830705Y-29231104D01*
X45693876Y-29189597D01*
X45667912Y-29181721D01*
X45517888Y-29101532D01*
X45386388Y-28993612D01*
X45278468Y-28862112D01*
X45198279Y-28712088D01*
X45159923Y-28585646D01*
X45148896Y-28549295D01*
X45132222Y-28380000D01*
X45148896Y-28210705D01*
X45198278Y-28047916D01*
X45198279Y-28047912D01*
X45278468Y-27897888D01*
X45386388Y-27766388D01*
X45517888Y-27658468D01*
X45667912Y-27578279D01*
X45710273Y-27565429D01*
X45830705Y-27528896D01*
X45915288Y-27520565D01*
X45957579Y-27516400D01*
X46042421Y-27516400D01*
X46084712Y-27520565D01*
X46084712Y-27520565D01*
G37*
G36*
X48624712Y-27520565D02*
X48709295Y-27528896D01*
X48829727Y-27565429D01*
X48872088Y-27578279D01*
X49022112Y-27658468D01*
X49153612Y-27766388D01*
X49261532Y-27897888D01*
X49341721Y-28047912D01*
X49341722Y-28047916D01*
X49391104Y-28210705D01*
X49407778Y-28380000D01*
X49391104Y-28549295D01*
X49380077Y-28585646D01*
X49341721Y-28712088D01*
X49261532Y-28862112D01*
X49153612Y-28993612D01*
X49022112Y-29101532D01*
X48872088Y-29181721D01*
X48846124Y-29189597D01*
X48709295Y-29231104D01*
X48624712Y-29239435D01*
X48582421Y-29243600D01*
X48497579Y-29243600D01*
X48455288Y-29239435D01*
X48370705Y-29231104D01*
X48233876Y-29189597D01*
X48207912Y-29181721D01*
X48057888Y-29101532D01*
X47926388Y-28993612D01*
X47818468Y-28862112D01*
X47738279Y-28712088D01*
X47699923Y-28585646D01*
X47688896Y-28549295D01*
X47672222Y-28380000D01*
X47688896Y-28210705D01*
X47738278Y-28047916D01*
X47738279Y-28047912D01*
X47818468Y-27897888D01*
X47926388Y-27766388D01*
X48057888Y-27658468D01*
X48207912Y-27578279D01*
X48250273Y-27565429D01*
X48370705Y-27528896D01*
X48455288Y-27520565D01*
X48497579Y-27516400D01*
X48582421Y-27516400D01*
X48624712Y-27520565D01*
X48624712Y-27520565D01*
G37*
G36*
X36840174Y-25038278D02*
X36937534Y-25057644D01*
X37210517Y-25170717D01*
X37293834Y-25226388D01*
X37456197Y-25334876D01*
X37665124Y-25543803D01*
X37665126Y-25543806D01*
X37829283Y-25789483D01*
X37884993Y-25923978D01*
X37942356Y-26062467D01*
X38000000Y-26352261D01*
X38000000Y-26647739D01*
X37991374Y-26691104D01*
X37942356Y-26937534D01*
X37884992Y-27076023D01*
X37829284Y-27210515D01*
X37665124Y-27456197D01*
X37456197Y-27665124D01*
X37456194Y-27665126D01*
X37210517Y-27829283D01*
X36937534Y-27942356D01*
X36840935Y-27961571D01*
X36647739Y-28000000D01*
X36352261Y-28000000D01*
X36159065Y-27961571D01*
X36062466Y-27942356D01*
X35789483Y-27829283D01*
X35543806Y-27665126D01*
X35543803Y-27665124D01*
X35334876Y-27456197D01*
X35170716Y-27210515D01*
X35115008Y-27076023D01*
X35057644Y-26937534D01*
X35008626Y-26691104D01*
X35000000Y-26647739D01*
X35000000Y-26352261D01*
X35057644Y-26062467D01*
X35115008Y-25923978D01*
X35170717Y-25789483D01*
X35334874Y-25543806D01*
X35334876Y-25543803D01*
X35543803Y-25334876D01*
X35706166Y-25226388D01*
X35789483Y-25170717D01*
X36062466Y-25057644D01*
X36159826Y-25038278D01*
X36352261Y-25000000D01*
X36647739Y-25000000D01*
X36840174Y-25038278D01*
X36840174Y-25038278D01*
G37*
G36*
X27840174Y-25038278D02*
X27937534Y-25057644D01*
X28210517Y-25170717D01*
X28293834Y-25226388D01*
X28456197Y-25334876D01*
X28665124Y-25543803D01*
X28665126Y-25543806D01*
X28829283Y-25789483D01*
X28884993Y-25923978D01*
X28942356Y-26062467D01*
X29000000Y-26352261D01*
X29000000Y-26647739D01*
X28991374Y-26691104D01*
X28942356Y-26937534D01*
X28884992Y-27076023D01*
X28829284Y-27210515D01*
X28665124Y-27456197D01*
X28456197Y-27665124D01*
X28456194Y-27665126D01*
X28210517Y-27829283D01*
X27937534Y-27942356D01*
X27840935Y-27961571D01*
X27647739Y-28000000D01*
X27352261Y-28000000D01*
X27159065Y-27961571D01*
X27062466Y-27942356D01*
X26789483Y-27829283D01*
X26543806Y-27665126D01*
X26543803Y-27665124D01*
X26334876Y-27456197D01*
X26170716Y-27210515D01*
X26115008Y-27076023D01*
X26057644Y-26937534D01*
X26008626Y-26691104D01*
X26000000Y-26647739D01*
X26000000Y-26352261D01*
X26057644Y-26062467D01*
X26115008Y-25923978D01*
X26170717Y-25789483D01*
X26334874Y-25543806D01*
X26334876Y-25543803D01*
X26543803Y-25334876D01*
X26706166Y-25226388D01*
X26789483Y-25170717D01*
X27062466Y-25057644D01*
X27159826Y-25038278D01*
X27352261Y-25000000D01*
X27647739Y-25000000D01*
X27840174Y-25038278D01*
X27840174Y-25038278D01*
G37*
G36*
X65647738Y-25866653D02*
X65689598Y-25874979D01*
X65724245Y-25889330D01*
X65807890Y-25923977D01*
X65914354Y-25995114D01*
X66004886Y-26085646D01*
X66076023Y-26192110D01*
X66125021Y-26310403D01*
X66150000Y-26435979D01*
X66150000Y-26564021D01*
X66125021Y-26689597D01*
X66076023Y-26807890D01*
X66004886Y-26914354D01*
X65914354Y-27004886D01*
X65807890Y-27076023D01*
X65724245Y-27110670D01*
X65689598Y-27125021D01*
X65647738Y-27133347D01*
X65564021Y-27150000D01*
X65435979Y-27150000D01*
X65352262Y-27133347D01*
X65310402Y-27125021D01*
X65275755Y-27110670D01*
X65192110Y-27076023D01*
X65085646Y-27004886D01*
X64995114Y-26914354D01*
X64923977Y-26807890D01*
X64874979Y-26689597D01*
X64850000Y-26564021D01*
X64850000Y-26435979D01*
X64874979Y-26310403D01*
X64923977Y-26192110D01*
X64995114Y-26085646D01*
X65085646Y-25995114D01*
X65192110Y-25923977D01*
X65275755Y-25889330D01*
X65310402Y-25874979D01*
X65352262Y-25866653D01*
X65435979Y-25850000D01*
X65564021Y-25850000D01*
X65647738Y-25866653D01*
X65647738Y-25866653D01*
G37*
G36*
X46084712Y-24980565D02*
X46169295Y-24988896D01*
X46289727Y-25025429D01*
X46332088Y-25038279D01*
X46482112Y-25118468D01*
X46613612Y-25226388D01*
X46721532Y-25357888D01*
X46801721Y-25507912D01*
X46801722Y-25507916D01*
X46851104Y-25670705D01*
X46867778Y-25840000D01*
X46851104Y-26009295D01*
X46834974Y-26062467D01*
X46801721Y-26172088D01*
X46721532Y-26322112D01*
X46613612Y-26453612D01*
X46482112Y-26561532D01*
X46332088Y-26641721D01*
X46312249Y-26647739D01*
X46169295Y-26691104D01*
X46084712Y-26699435D01*
X46042421Y-26703600D01*
X45957579Y-26703600D01*
X45915288Y-26699435D01*
X45830705Y-26691104D01*
X45687751Y-26647739D01*
X45667912Y-26641721D01*
X45517888Y-26561532D01*
X45386388Y-26453612D01*
X45278468Y-26322112D01*
X45198279Y-26172088D01*
X45165026Y-26062467D01*
X45148896Y-26009295D01*
X45132222Y-25840000D01*
X45148896Y-25670705D01*
X45198278Y-25507916D01*
X45198279Y-25507912D01*
X45278468Y-25357888D01*
X45386388Y-25226388D01*
X45517888Y-25118468D01*
X45667912Y-25038279D01*
X45710273Y-25025429D01*
X45830705Y-24988896D01*
X45915288Y-24980565D01*
X45957579Y-24976400D01*
X46042421Y-24976400D01*
X46084712Y-24980565D01*
X46084712Y-24980565D01*
G37*
G36*
X48624712Y-24980565D02*
X48709295Y-24988896D01*
X48829727Y-25025429D01*
X48872088Y-25038279D01*
X49022112Y-25118468D01*
X49153612Y-25226388D01*
X49261532Y-25357888D01*
X49341721Y-25507912D01*
X49341722Y-25507916D01*
X49391104Y-25670705D01*
X49407778Y-25840000D01*
X49391104Y-26009295D01*
X49374974Y-26062467D01*
X49341721Y-26172088D01*
X49261532Y-26322112D01*
X49153612Y-26453612D01*
X49022112Y-26561532D01*
X48872088Y-26641721D01*
X48852249Y-26647739D01*
X48709295Y-26691104D01*
X48624712Y-26699435D01*
X48582421Y-26703600D01*
X48497579Y-26703600D01*
X48455288Y-26699435D01*
X48370705Y-26691104D01*
X48227751Y-26647739D01*
X48207912Y-26641721D01*
X48057888Y-26561532D01*
X47926388Y-26453612D01*
X47818468Y-26322112D01*
X47738279Y-26172088D01*
X47705026Y-26062467D01*
X47688896Y-26009295D01*
X47672222Y-25840000D01*
X47688896Y-25670705D01*
X47738278Y-25507916D01*
X47738279Y-25507912D01*
X47818468Y-25357888D01*
X47926388Y-25226388D01*
X48057888Y-25118468D01*
X48207912Y-25038279D01*
X48250273Y-25025429D01*
X48370705Y-24988896D01*
X48455288Y-24980565D01*
X48497579Y-24976400D01*
X48582421Y-24976400D01*
X48624712Y-24980565D01*
X48624712Y-24980565D01*
G37*
G36*
X65647738Y-23366653D02*
X65689598Y-23374979D01*
X65724245Y-23389330D01*
X65807890Y-23423977D01*
X65914354Y-23495114D01*
X66004886Y-23585646D01*
X66076023Y-23692110D01*
X66125021Y-23810403D01*
X66150000Y-23935979D01*
X66150000Y-24064021D01*
X66125021Y-24189597D01*
X66076023Y-24307890D01*
X66004886Y-24414354D01*
X65914354Y-24504886D01*
X65807890Y-24576023D01*
X65724245Y-24610670D01*
X65689598Y-24625021D01*
X65647738Y-24633347D01*
X65564021Y-24650000D01*
X65435979Y-24650000D01*
X65352262Y-24633347D01*
X65310402Y-24625021D01*
X65275755Y-24610670D01*
X65192110Y-24576023D01*
X65085646Y-24504886D01*
X64995114Y-24414354D01*
X64923977Y-24307890D01*
X64874979Y-24189597D01*
X64850000Y-24064021D01*
X64850000Y-23935979D01*
X64874979Y-23810403D01*
X64923977Y-23692110D01*
X64995114Y-23585646D01*
X65085646Y-23495114D01*
X65192110Y-23423977D01*
X65275755Y-23389330D01*
X65310402Y-23374979D01*
X65352262Y-23366653D01*
X65435979Y-23350000D01*
X65564021Y-23350000D01*
X65647738Y-23366653D01*
X65647738Y-23366653D01*
G37*
G36*
X36840935Y-20338429D02*
X36937534Y-20357644D01*
X37210517Y-20470717D01*
X37452920Y-20632687D01*
X37456197Y-20634876D01*
X37665124Y-20843803D01*
X37829284Y-21089485D01*
X37942356Y-21362467D01*
X38000000Y-21652261D01*
X38000000Y-21947739D01*
X37942356Y-22237533D01*
X37829284Y-22510515D01*
X37665124Y-22756197D01*
X37456197Y-22965124D01*
X37456194Y-22965126D01*
X37210517Y-23129283D01*
X36937534Y-23242356D01*
X36840935Y-23261571D01*
X36647739Y-23300000D01*
X36352261Y-23300000D01*
X36159065Y-23261571D01*
X36062466Y-23242356D01*
X35789483Y-23129283D01*
X35543806Y-22965126D01*
X35543803Y-22965124D01*
X35334876Y-22756197D01*
X35170716Y-22510515D01*
X35057644Y-22237533D01*
X35000000Y-21947739D01*
X35000000Y-21652261D01*
X35057644Y-21362467D01*
X35170716Y-21089485D01*
X35334876Y-20843803D01*
X35543803Y-20634876D01*
X35547080Y-20632687D01*
X35789483Y-20470717D01*
X36062466Y-20357644D01*
X36159065Y-20338429D01*
X36352261Y-20300000D01*
X36647739Y-20300000D01*
X36840935Y-20338429D01*
X36840935Y-20338429D01*
G37*
G36*
X27840935Y-20338429D02*
X27937534Y-20357644D01*
X28210517Y-20470717D01*
X28452920Y-20632687D01*
X28456197Y-20634876D01*
X28665124Y-20843803D01*
X28829284Y-21089485D01*
X28942356Y-21362467D01*
X29000000Y-21652261D01*
X29000000Y-21947739D01*
X28942356Y-22237533D01*
X28829284Y-22510515D01*
X28665124Y-22756197D01*
X28456197Y-22965124D01*
X28456194Y-22965126D01*
X28210517Y-23129283D01*
X27937534Y-23242356D01*
X27840935Y-23261571D01*
X27647739Y-23300000D01*
X27352261Y-23300000D01*
X27159065Y-23261571D01*
X27062466Y-23242356D01*
X26789483Y-23129283D01*
X26543806Y-22965126D01*
X26543803Y-22965124D01*
X26334876Y-22756197D01*
X26170716Y-22510515D01*
X26057644Y-22237533D01*
X26000000Y-21947739D01*
X26000000Y-21652261D01*
X26057644Y-21362467D01*
X26170716Y-21089485D01*
X26334876Y-20843803D01*
X26543803Y-20634876D01*
X26547080Y-20632687D01*
X26789483Y-20470717D01*
X27062466Y-20357644D01*
X27159065Y-20338429D01*
X27352261Y-20300000D01*
X27647739Y-20300000D01*
X27840935Y-20338429D01*
X27840935Y-20338429D01*
G37*
G36*
X58175770Y-20715372D02*
X58291689Y-20738429D01*
X58473678Y-20813811D01*
X58637463Y-20923249D01*
X58776751Y-21062537D01*
X58886189Y-21226322D01*
X58961571Y-21408311D01*
X59000000Y-21601509D01*
X59000000Y-21798491D01*
X58961571Y-21991689D01*
X58886189Y-22173678D01*
X58776751Y-22337463D01*
X58637463Y-22476751D01*
X58473678Y-22586189D01*
X58291689Y-22661571D01*
X58175770Y-22684628D01*
X58098493Y-22700000D01*
X57901507Y-22700000D01*
X57824230Y-22684628D01*
X57708311Y-22661571D01*
X57526322Y-22586189D01*
X57362537Y-22476751D01*
X57223249Y-22337463D01*
X57113811Y-22173678D01*
X57038429Y-21991689D01*
X57000000Y-21798491D01*
X57000000Y-21601509D01*
X57038429Y-21408311D01*
X57113811Y-21226322D01*
X57223249Y-21062537D01*
X57362537Y-20923249D01*
X57526322Y-20813811D01*
X57708311Y-20738429D01*
X57824230Y-20715372D01*
X57901507Y-20700000D01*
X58098493Y-20700000D01*
X58175770Y-20715372D01*
X58175770Y-20715372D01*
G37*
M02*
