M48
;DRILL file {KiCad (5.0.1)-3} date 01/09/2019 21:36:22
;FORMAT={-:-/ absolute / inch / decimal}
FMAT,2
INCH,TZ
T1C0.1299
T2C0.2441
T3C0.2835
%
G90
G05
M72
T1
X3.4252Y-0.6102
X3.4252Y-5.4331
X4.9803Y-2.5197
X4.8228Y-5.4331
X4.8228Y-0.6102
T2
X3.8583Y-4.2815
X3.3465Y-4.872
X4.3701Y-4.2815
X4.3701Y-4.872
X3.7795Y-1.1516
X3.8583Y-4.872
X4.8819Y-4.872
X4.8819Y-4.2815
X3.4252Y-1.1516
T3
X4.626Y-3.5728
X3.6024Y-3.5531
X4.626Y-1.1516
X4.626Y-1.9587
X3.6024Y-1.939
X4.626Y-2.7657
X3.6024Y-2.7461
T0
M30
