%TF.GenerationSoftware,KiCad,Pcbnew,(5.0.1)-3*%
%TF.CreationDate,2020-04-13T19:58:09+01:00*%
%TF.ProjectId,panel,70616E656C2E6B696361645F70636200,rev?*%
%TF.SameCoordinates,Original*%
%TF.FileFunction,Profile,NP*%
%FSLAX46Y46*%
G04 Gerber Fmt 4.6, Leading zero omitted, Abs format (unit mm)*
G04 Created by KiCad (PCBNEW (5.0.1)-3) date 13/04/2020 19:58:09*
%MOMM*%
%LPD*%
G01*
G04 APERTURE LIST*
%ADD10C,0.150000*%
G04 APERTURE END LIST*
D10*
X159430000Y-31050000D02*
X156430000Y-31050000D01*
X169475000Y-70975000D02*
X166500000Y-70975000D01*
X102350000Y-3450000D02*
X183250000Y-3450000D01*
X102350000Y-131950000D02*
X102350000Y-3450000D01*
X183250000Y-131950000D02*
X102350000Y-131950000D01*
X176550000Y-70975000D02*
X176550000Y-31025000D01*
X179550000Y-70975000D02*
X176550000Y-70975000D01*
X179550000Y-31000000D02*
X179550000Y-70950000D01*
X176550000Y-31000000D02*
X179550000Y-31000000D01*
X166500000Y-70975000D02*
X166500000Y-31000000D01*
X169475000Y-70950000D02*
X169475000Y-70975000D01*
X169500000Y-31000000D02*
X169480000Y-70970000D01*
X166500000Y-31000000D02*
X169500000Y-31000000D01*
X156425000Y-70975000D02*
X156425000Y-31050000D01*
X159425000Y-70975000D02*
X156425000Y-70975000D01*
X159430000Y-31050000D02*
X159425000Y-70975000D01*
X146350000Y-70975000D02*
X146350000Y-31025000D01*
X149350000Y-70975000D02*
X146350000Y-70975000D01*
X149350000Y-31000000D02*
X149350000Y-70975000D01*
X146350000Y-31000000D02*
X149350000Y-31000000D01*
X136275000Y-70975000D02*
X136275000Y-31025000D01*
X139275000Y-70975000D02*
X136275000Y-70975000D01*
X139275000Y-31025000D02*
X139275000Y-70975000D01*
X136275000Y-31025000D02*
X139275000Y-31025000D01*
X126200000Y-70975000D02*
X126200000Y-31025000D01*
X129200000Y-70975000D02*
X126200000Y-70975000D01*
X129200000Y-31025000D02*
X129200000Y-70975000D01*
X126200000Y-31025000D02*
X129200000Y-31025000D01*
X116125000Y-70975000D02*
X116125000Y-31025000D01*
X119125000Y-70975000D02*
X116125000Y-70975000D01*
X119125000Y-31025000D02*
X119125000Y-70975000D01*
X116125000Y-31025000D02*
X119125000Y-31025000D01*
X109050000Y-71000000D02*
X109050000Y-31025000D01*
X106050000Y-71000000D02*
X109050000Y-71000000D01*
X106050000Y-31025000D02*
X106050000Y-71000000D01*
X109050000Y-31025000D02*
X106050000Y-31025000D01*
X183250000Y-3450000D02*
X183250000Y-131950000D01*
M02*
