M48
;DRILL file {KiCad (5.0.1)-3} date 13/04/2020 19:58:34
;FORMAT={-:-/ absolute / inch / decimal}
FMAT,2
INCH,TZ
T1C0.1299
T2C0.2441
T3C0.2835
%
G90
G05
M72
T1
X6.9252Y-5.0768
X4.3248Y-5.0768
X4.3248Y-0.2539
X5.2193Y-2.9969
X4.4276Y-2.9984
X6.824Y-2.9969
X6.9252Y-0.2539
X5.422Y-3.6791
X4.622Y-3.6791
X6.0205Y-2.998
X6.2217Y-3.6791
X7.0217Y-3.6791
T2
X7.0157Y-0.7559
X7.022Y-4.063
X4.2224Y-4.5705
X7.0217Y-4.5709
X5.8217Y-4.063
X5.0224Y-4.5709
X6.622Y-4.0626
X5.422Y-4.063
X4.622Y-4.5709
X5.0228Y-4.063
X6.2217Y-4.5709
X4.2224Y-4.063
X5.822Y-4.5705
X4.6224Y-4.063
X4.2264Y-0.7555
X6.222Y-4.063
X5.422Y-4.5709
X6.622Y-4.5705
T3
X5.2236Y-3.3047
X5.3295Y-0.7555
X6.4941Y-0.7555
X6.8228Y-3.3047
X4.748Y-0.7559
X5.9126Y-0.7559
X6.0232Y-3.3047
X4.4232Y-3.3051
T0
M30
