0
SECTION
2
HEADER
9
$INSUNITS
70
4
9
$ACADVER
1
AC1014
9
$HANDSEED
5
FFFF
0
ENDSEC
0
SECTION
2
TABLES
0
TABLE
2
VPORT
5
8
100
AcDbSymbolTable
0
ENDTAB
0
TABLE
2
LTYPE
5
5
100
AcDbSymbolTable
0
LTYPE
5
14
100
AcDbSymbolTableRecord
100
AcDbLinetypeTableRecord
2
BYBLOCK
70
0
0
LTYPE
5
15
100
AcDbSymbolTableRecord
100
AcDbLinetypeTableRecord
2
BYLAYER
70
0
0
ENDTAB
0
TABLE
2
LAYER
5
2
100
AcDbSymbolTable
70
2
0
LAYER
5
50
100
AcDbSymbolTableRecord
100
AcDbLayerTableRecord
2
0
70
0
6
CONTINUOUS
0
ENDTAB
0
TABLE
2
STYLE
5
3
100
AcDbSymbolTable
70
1
0
STYLE
5
11
100
AcDbSymbolTableRecord
100
AcDbTextStyleTableRecord
2
STANDARD
70
0
0
ENDTAB
0
TABLE
2
VIEW
5
6
100
AcDbSymbolTable
70
0
0
ENDTAB
0
TABLE
2
UCS
5
7
100
AcDbSymbolTable
70
0
0
ENDTAB
0
TABLE
2
APPID
5
9
100
AcDbSymbolTable
70
2
0
APPID
5
12
100
AcDbSymbolTableRecord
100
AcDbRegAppTableRecord
2
ACAD
70
0
0
ENDTAB
0
TABLE
2
DIMSTYLE
5
A
100
AcDbSymbolTable
70
1
0
ENDTAB
0
TABLE
2
BLOCK_RECORD
5
1
100
AcDbSymbolTable
70
1
0
BLOCK_RECORD
5
1F
100
AcDbSymbolTableRecord
100
AcDbBlockTableRecord
2
*MODEL_SPACE
0
BLOCK_RECORD
5
1B
100
AcDbSymbolTableRecord
100
AcDbBlockTableRecord
2
*PAPER_SPACE
0
ENDTAB
0
ENDSEC
0
SECTION
2
BLOCKS
0
BLOCK
5
20
100
AcDbEntity
100
AcDbBlockBegin
2
*MODEL_SPACE
0
ENDBLK
5
21
100
AcDbEntity
100
AcDbBlockEnd
0
BLOCK
5
1C
100
AcDbEntity
100
AcDbBlockBegin
2
*PAPER_SPACE
0
ENDBLK
5
1D
100
AcDbEntity
100
AcDbBlockEnd
0
ENDSEC
0
SECTION
2
ENTITIES
0
CIRCLE
5
100
100
AcDbEntity
8
0
100
AcDbCircle
10
-50.558000506639644
20
-1271.1507687905791
30
0
40
4.099999999999957
210
0
220
5.5511151231257827e-17
230
1
0
CIRCLE
5
101
100
AcDbEntity
8
0
100
AcDbCircle
10
-146.03181478188066
20
-1279.150768790581
30
0
40
4.1000000000000716
210
0
220
5.5511151231257839e-17
230
1
0
LWPOLYLINE
5
102
100
AcDbEntity
8
0
100
AcDbPolyline
90
2
70
1
43
0.0
10
-222.34459779985929
20
-1275.2509537623002
42
-2.8385937322783334
10
-228.61245478604377
20
-1275.2586766721608
0
LWPOLYLINE
5
103
100
AcDbEntity
8
0
100
AcDbPolyline
90
2
70
1
43
0.0
10
-174.3445977998594
20
-1275.2509537623005
10
-180.61245478604363
20
-1275.2586766721604
42
2.8385937322785146
0
CIRCLE
5
104
100
AcDbEntity
8
0
100
AcDbCircle
10
-98.031814781880655
20
-1279.150768790581
30
0
40
4.1000000000000716
210
0
220
5.5511151231257839e-17
230
1
0
CIRCLE
5
105
100
AcDbEntity
8
0
100
AcDbCircle
10
-50.558000506639303
20
-1287.1507687905791
30
1.4210854715202004e-13
40
4.1000000000000281
210
0
220
-0
230
1
0
LWPOLYLINE
5
106
100
AcDbEntity
8
0
100
AcDbPolyline
90
2
70
1
43
0.0
10
-126.34459779985939
20
-1275.2509537623005
10
-132.61245478604363
20
-1275.2586766721604
42
2.8385937322785146
0
CIRCLE
5
107
100
AcDbEntity
8
0
100
AcDbCircle
10
-242.03181478188068
20
-1279.150768790581
30
0
40
4.1000000000000716
210
0
220
5.5511151231257839e-17
230
1
0
CIRCLE
5
108
100
AcDbEntity
8
0
100
AcDbCircle
10
-194.03181478188066
20
-1279.150768790581
30
0
40
4.1000000000000716
210
0
220
5.5511151231257839e-17
230
1
0
LWPOLYLINE
5
109
100
AcDbEntity
8
0
100
AcDbPolyline
90
2
70
1
43
0.0
10
-78.344597799859372
20
-1275.2509537623005
10
-84.612454786043614
20
-1275.2586766721604
42
2.8385937322785146
0
CIRCLE
5
110
100
AcDbEntity
8
0
100
AcDbCircle
10
-34.000000506639488
20
-1279.1507687905787
30
0
40
5.0000000000000311
210
0
220
0
230
1
0
CIRCLE
5
111
100
AcDbEntity
8
0
100
AcDbCircle
10
-417.37231382237576
20
-1279.1507687905869
30
0
40
3.2000000000000033
210
0
220
-5.5511151231257815e-17
230
1
0
LWPOLYLINE
5
112
100
AcDbEntity
8
0
100
AcDbPolyline
90
4
70
1
43
0.0
10
-389.15566107958398
20
-1265.9007687905869
10
-389.15566107958398
20
-1292.4007687905869
10
-343.65566107958398
20
-1292.4007687905869
10
-343.65566107958398
20
-1265.9007687905869
0
LWPOLYLINE
5
113
100
AcDbEntity
8
0
100
AcDbPolyline
90
4
70
1
43
0.0
10
-316.15566107958398
20
-1265.9007687905869
10
-316.15566107958398
20
-1292.4007687905869
10
-270.65566107958398
20
-1292.4007687905869
10
-270.65566107958398
20
-1265.9007687905869
0
LWPOLYLINE
5
114
100
AcDbEntity
8
0
100
AcDbPolyline
90
80
70
1
43
0.0
10
-1.3322676295501878e-14
20
-1300.0284549682115
10
-24.124999999999872
20
-1300.0284549682115
10
-24.124999999999872
20
-1306.0284549682117
10
-36.124999999999865
20
-1306.0284549682115
10
-36.124999999999865
20
-1300.0284549682115
10
-48.124999999999893
20
-1300.0284549682119
10
-48.124999999999893
20
-1306.0284549682117
10
-60.124999999999886
20
-1306.0284549682115
10
-60.124999999999886
20
-1300.0284549682115
10
-72.124999999999915
20
-1300.0284549682119
10
-72.124999999999915
20
-1306.0284549682117
10
-84.124999999999915
20
-1306.0284549682115
10
-84.124999999999915
20
-1300.0284549682115
10
-96.124999999999943
20
-1300.0284549682119
10
-96.124999999999943
20
-1306.0284549682117
10
-108.12499999999993
20
-1306.0284549682115
10
-108.12499999999993
20
-1300.0284549682115
10
-120.12499999999996
20
-1300.0284549682119
10
-120.12499999999996
20
-1306.0284549682117
10
-132.12499999999994
20
-1306.0284549682115
10
-132.12499999999994
20
-1300.0284549682115
10
-144.12499999999997
20
-1300.0284549682119
10
-144.12499999999997
20
-1306.0284549682117
10
-156.12499999999997
20
-1306.0284549682115
10
-156.12499999999997
20
-1300.0284549682115
10
-168.125
20
-1300.0284549682119
10
-168.125
20
-1306.0284549682117
10
-180.125
20
-1306.0284549682115
10
-180.125
20
-1300.0284549682115
10
-192.12500000000003
20
-1300.0284549682119
10
-192.12500000000003
20
-1306.0284549682117
10
-204.125
20
-1306.0284549682115
10
-204.125
20
-1300.0284549682115
10
-216.12500000000006
20
-1300.0284549682119
10
-216.12500000000006
20
-1306.0284549682117
10
-228.12500000000003
20
-1306.0284549682115
10
-228.12500000000003
20
-1300.0284549682115
10
-240.12500000000006
20
-1300.0284549682119
10
-240.12500000000006
20
-1306.0284549682117
10
-252.12500000000006
20
-1306.0284549682115
10
-252.12500000000006
20
-1300.0284549682115
10
-264.12500000000011
20
-1300.0284549682119
10
-264.12500000000011
20
-1306.0284549682117
10
-276.12500000000006
20
-1306.0284549682115
10
-276.12500000000006
20
-1300.0284549682115
10
-288.12500000000011
20
-1300.0284549682119
10
-288.12500000000011
20
-1306.0284549682117
10
-300.12500000000011
20
-1306.0284549682115
10
-300.12500000000011
20
-1300.0284549682115
10
-312.12500000000011
20
-1300.0284549682119
10
-312.12500000000011
20
-1306.0284549682117
10
-324.12500000000011
20
-1306.0284549682115
10
-324.12500000000011
20
-1300.0284549682115
10
-336.12500000000011
20
-1300.0284549682119
10
-336.12500000000011
20
-1306.0284549682117
10
-348.12500000000011
20
-1306.0284549682115
10
-348.12500000000011
20
-1300.0284549682115
10
-360.12500000000017
20
-1300.0284549682119
10
-360.12500000000017
20
-1306.0284549682117
10
-372.12500000000023
20
-1306.0284549682115
10
-372.12500000000023
20
-1300.0284549682115
10
-384.12500000000023
20
-1300.0284549682119
10
-384.12500000000023
20
-1306.0284549682117
10
-396.12500000000017
20
-1306.0284549682115
10
-396.12500000000017
20
-1300.0284549682115
10
-408.12500000000023
20
-1300.0284549682119
10
-408.12500000000023
20
-1306.0284549682117
10
-420.12500000000017
20
-1306.0284549682115
10
-420.12500000000017
20
-1300.0284549682115
10
-444.25000000000006
20
-1300.0284549682119
10
-444.25000000000006
20
-1282.2730826129628
10
-438.25
20
-1282.2730826129625
10
-438.25
20
-1270.2730826129628
10
-444.25000000000006
20
-1270.273082612963
10
-444.25000000000006
20
-1258.2730826129628
10
-1.3322676295501878e-14
20
-1258.2730826129625
10
-1.3322676295501878e-14
20
-1270.2730826129628
10
-6.0000000000000142
20
-1270.2730826129628
10
-6.0000000000000142
20
-1282.2730826129628
10
-1.3322676295501878e-14
20
-1282.2730826129625
0
ENDSEC
0
SECTION
2
OBJECTS
0
DICTIONARY
5
C
100
AcDbDictionary
3
ACAD_GROUP
350
D
3
ACAD_MLINESTYLE
350
17
0
DICTIONARY
5
D
100
AcDbDictionary
0
DICTIONARY
5
1A
330
C
100
AcDbDictionary
0
DICTIONARY
5
17
100
AcDbDictionary
0
ENDSEC
0
EOF
