0
SECTION
2
HEADER
9
$INSUNITS
70
4
9
$ACADVER
1
AC1014
9
$HANDSEED
5
FFFF
0
ENDSEC
0
SECTION
2
TABLES
0
TABLE
2
VPORT
5
8
100
AcDbSymbolTable
0
ENDTAB
0
TABLE
2
LTYPE
5
5
100
AcDbSymbolTable
0
LTYPE
5
14
100
AcDbSymbolTableRecord
100
AcDbLinetypeTableRecord
2
BYBLOCK
70
0
0
LTYPE
5
15
100
AcDbSymbolTableRecord
100
AcDbLinetypeTableRecord
2
BYLAYER
70
0
0
ENDTAB
0
TABLE
2
LAYER
5
2
100
AcDbSymbolTable
70
2
0
LAYER
5
50
100
AcDbSymbolTableRecord
100
AcDbLayerTableRecord
2
0
70
0
6
CONTINUOUS
0
ENDTAB
0
TABLE
2
STYLE
5
3
100
AcDbSymbolTable
70
1
0
STYLE
5
11
100
AcDbSymbolTableRecord
100
AcDbTextStyleTableRecord
2
STANDARD
70
0
0
ENDTAB
0
TABLE
2
VIEW
5
6
100
AcDbSymbolTable
70
0
0
ENDTAB
0
TABLE
2
UCS
5
7
100
AcDbSymbolTable
70
0
0
ENDTAB
0
TABLE
2
APPID
5
9
100
AcDbSymbolTable
70
2
0
APPID
5
12
100
AcDbSymbolTableRecord
100
AcDbRegAppTableRecord
2
ACAD
70
0
0
ENDTAB
0
TABLE
2
DIMSTYLE
5
A
100
AcDbSymbolTable
70
1
0
ENDTAB
0
TABLE
2
BLOCK_RECORD
5
1
100
AcDbSymbolTable
70
1
0
BLOCK_RECORD
5
1F
100
AcDbSymbolTableRecord
100
AcDbBlockTableRecord
2
*MODEL_SPACE
0
BLOCK_RECORD
5
1B
100
AcDbSymbolTableRecord
100
AcDbBlockTableRecord
2
*PAPER_SPACE
0
ENDTAB
0
ENDSEC
0
SECTION
2
BLOCKS
0
BLOCK
5
20
100
AcDbEntity
100
AcDbBlockBegin
2
*MODEL_SPACE
0
ENDBLK
5
21
100
AcDbEntity
100
AcDbBlockEnd
0
BLOCK
5
1C
100
AcDbEntity
100
AcDbBlockBegin
2
*PAPER_SPACE
0
ENDBLK
5
1D
100
AcDbEntity
100
AcDbBlockEnd
0
ENDSEC
0
SECTION
2
ENTITIES
0
CIRCLE
5
100
100
AcDbEntity
8
0
100
AcDbCircle
10
-1583.7838926104703
20
482.64800498457163
30
0
40
2.7500000000000568
210
0
220
0
230
1
0
CIRCLE
5
101
100
AcDbEntity
8
0
100
AcDbCircle
10
-1689.8720045740615
20
421.39800498457305
30
0
40
2.7500000000000568
210
0
220
0
230
1
0
LWPOLYLINE
5
102
100
AcDbEntity
8
0
100
AcDbPolyline
90
63
70
1
43
0.0
10
-1698.5351442948745
20
425.40300313408989
10
-1701.5351442948747
20
430.59915555679646
10
-1580.7246004669494
20
500.34915555679646
10
-1574.7246004669491
20
489.95685071138331
10
-1579.9207528896557
20
486.95685071138325
10
-1573.9207528896554
20
476.56454586597016
10
-1568.7246004669489
20
479.56454586597022
10
-1562.7246004669491
20
469.17224102055707
10
-1567.9207528896554
20
466.17224102055701
10
-1561.9207528896552
20
455.77993617514386
10
-1556.7246004669487
20
458.77993617514392
10
-1550.701423701322
20
448.34748799411011
10
-1550.701423701322
20
440.90000670037273
10
-1556.701423701322
20
440.90000670037273
10
-1556.701423701322
20
428.90000670037267
10
-1550.701423701322
20
428.90000670037267
10
-1550.701423701322
20
416.90000670037273
10
-1556.701423701322
20
416.90000670037273
10
-1556.701423701322
20
404.90000670037267
10
-1550.701423701322
20
404.90000670037267
10
-1550.701423701322
20
392.90000670037273
10
-1556.701423701322
20
392.90000670037273
10
-1556.701423701322
20
380.90000670037273
10
-1550.701423701322
20
380.90000670037273
10
-1550.701423701322
20
368.90000670037267
10
-1562.7014237013218
20
368.90000670037267
10
-1562.7014237013218
20
362.90000670037267
10
-1574.701423701322
20
362.90000670037267
10
-1574.701423701322
20
368.90000670037267
10
-1586.701423701322
20
368.90000670037267
10
-1586.701423701322
20
362.90000670037267
10
-1598.7014237013223
20
362.90000670037267
10
-1598.7014237013223
20
368.90000670037267
10
-1610.701423701322
20
368.90000670037267
10
-1610.701423701322
20
362.90000670037267
10
-1622.7014237013223
20
362.90000670037267
10
-1622.7014237013223
20
368.90000670037267
10
-1634.701423701322
20
368.90000670037267
10
-1634.701423701322
20
362.90000670037267
10
-1646.7014237013223
20
362.90000670037267
10
-1646.7014237013223
20
368.90000670037267
10
-1658.7014237013223
20
368.90000670037267
10
-1658.7014237013223
20
362.90000670037267
10
-1670.7014237013223
20
362.90000670037267
10
-1670.7014237013223
20
368.90000670037267
10
-1682.7014237013223
20
368.90000670037267
10
-1682.7014237013223
20
362.90000670037267
10
-1694.7014237013223
20
362.90000670037267
10
-1694.7014237013223
20
368.90000670037267
10
-1706.7014237013223
20
368.90000670037267
10
-1706.7014237013223
20
362.90000670037267
10
-1717.5921766478152
20
362.90000670037267
10
-1724.8925099217026
20
375.54455484293186
10
-1719.6963574989966
20
378.54455484293237
10
-1725.6963574989977
20
388.9368596883449
10
-1730.8925099217038
20
385.93685968834438
10
-1736.8925099217035
20
396.32916453375788
10
-1731.6963574989973
20
399.32916453375839
10
-1734.6963574989979
20
404.52531695646422
10
-1719.3197539857008
20
413.40300313408909
10
-1722.3197539857008
20
418.59915555679561
10
-1711.927449140288
20
424.59915555679618
10
-1708.9274491402878
20
419.4030031340896
0
ENDSEC
0
SECTION
2
OBJECTS
0
DICTIONARY
5
C
100
AcDbDictionary
3
ACAD_GROUP
350
D
3
ACAD_MLINESTYLE
350
17
0
DICTIONARY
5
D
100
AcDbDictionary
0
DICTIONARY
5
1A
330
C
100
AcDbDictionary
0
DICTIONARY
5
17
100
AcDbDictionary
0
ENDSEC
0
EOF
