0
SECTION
2
HEADER
9
$INSUNITS
70
4
9
$ACADVER
1
AC1014
9
$HANDSEED
5
FFFF
0
ENDSEC
0
SECTION
2
TABLES
0
TABLE
2
VPORT
5
8
100
AcDbSymbolTable
0
ENDTAB
0
TABLE
2
LTYPE
5
5
100
AcDbSymbolTable
0
LTYPE
5
14
100
AcDbSymbolTableRecord
100
AcDbLinetypeTableRecord
2
BYBLOCK
70
0
0
LTYPE
5
15
100
AcDbSymbolTableRecord
100
AcDbLinetypeTableRecord
2
BYLAYER
70
0
0
ENDTAB
0
TABLE
2
LAYER
5
2
100
AcDbSymbolTable
70
2
0
LAYER
5
50
100
AcDbSymbolTableRecord
100
AcDbLayerTableRecord
2
0
70
0
6
CONTINUOUS
0
ENDTAB
0
TABLE
2
STYLE
5
3
100
AcDbSymbolTable
70
1
0
STYLE
5
11
100
AcDbSymbolTableRecord
100
AcDbTextStyleTableRecord
2
STANDARD
70
0
0
ENDTAB
0
TABLE
2
VIEW
5
6
100
AcDbSymbolTable
70
0
0
ENDTAB
0
TABLE
2
UCS
5
7
100
AcDbSymbolTable
70
0
0
ENDTAB
0
TABLE
2
APPID
5
9
100
AcDbSymbolTable
70
2
0
APPID
5
12
100
AcDbSymbolTableRecord
100
AcDbRegAppTableRecord
2
ACAD
70
0
0
ENDTAB
0
TABLE
2
DIMSTYLE
5
A
100
AcDbSymbolTable
70
1
0
ENDTAB
0
TABLE
2
BLOCK_RECORD
5
1
100
AcDbSymbolTable
70
1
0
BLOCK_RECORD
5
1F
100
AcDbSymbolTableRecord
100
AcDbBlockTableRecord
2
*MODEL_SPACE
0
BLOCK_RECORD
5
1B
100
AcDbSymbolTableRecord
100
AcDbBlockTableRecord
2
*PAPER_SPACE
0
ENDTAB
0
ENDSEC
0
SECTION
2
BLOCKS
0
BLOCK
5
20
100
AcDbEntity
100
AcDbBlockBegin
2
*MODEL_SPACE
0
ENDBLK
5
21
100
AcDbEntity
100
AcDbBlockEnd
0
BLOCK
5
1C
100
AcDbEntity
100
AcDbBlockBegin
2
*PAPER_SPACE
0
ENDBLK
5
1D
100
AcDbEntity
100
AcDbBlockEnd
0
ENDSEC
0
SECTION
2
ENTITIES
0
LWPOLYLINE
5
100
100
AcDbEntity
8
0
100
AcDbPolyline
90
196
70
1
43
0.0
10
-1712.3562782629531
20
-372.12499999999989
10
-1722.0562782629531
20
-372.12499999999989
10
-1722.0562782629531
20
-360.12499999999989
10
-1712.3562782629531
20
-360.12499999999989
10
-1712.3562782629531
20
-348.12499999999994
10
-1722.0562782629531
20
-348.12499999999994
10
-1722.0562782629531
20
-336.125
10
-1712.3562782629531
20
-336.125
10
-1712.3562782629531
20
-324.12499999999994
10
-1722.0562782629531
20
-324.12499999999994
10
-1722.0562782629531
20
-312.12499999999994
10
-1712.3562782629531
20
-312.12499999999994
10
-1712.3562782629531
20
-300.12499999999994
10
-1722.0562782629531
20
-300.12499999999994
10
-1722.0562782629531
20
-288.12499999999994
10
-1712.3562782629531
20
-288.12499999999994
10
-1712.3562782629531
20
-276.125
10
-1722.0562782629531
20
-276.125
10
-1722.0562782629531
20
-264.125
10
-1712.3562782629531
20
-264.125
10
-1712.3562782629531
20
-252.125
10
-1722.0562782629531
20
-252.125
10
-1722.0562782629531
20
-240.125
10
-1712.3562782629531
20
-240.125
10
-1712.3562782629531
20
-228.125
10
-1722.0562782629531
20
-228.125
10
-1722.0562782629531
20
-216.125
10
-1712.3562782629531
20
-216.125
10
-1712.3562782629531
20
-204.125
10
-1722.0562782629531
20
-204.125
10
-1722.0562782629531
20
-192.12500000000003
10
-1712.3562782629531
20
-192.12500000000003
10
-1712.3562782629531
20
-180.12500000000003
10
-1722.0562782629531
20
-180.12500000000003
10
-1722.0562782629531
20
-168.12500000000003
10
-1712.3562782629531
20
-168.12500000000003
10
-1712.3562782629531
20
-156.12500000000006
10
-1722.0562782629531
20
-156.12500000000006
10
-1722.0562782629531
20
-144.12500000000006
10
-1712.3562782629531
20
-144.12500000000006
10
-1712.3562782629531
20
-132.12500000000006
10
-1722.0562782629531
20
-132.12500000000006
10
-1722.0562782629531
20
-120.12500000000006
10
-1712.3562782629531
20
-120.12500000000006
10
-1712.3562782629531
20
-108.12500000000007
10
-1722.0562782629531
20
-108.12500000000007
10
-1722.0562782629531
20
-96.125000000000085
10
-1712.3562782629531
20
-96.125000000000085
10
-1712.3562782629531
20
-84.125000000000085
10
-1722.0562782629531
20
-84.125000000000085
10
-1722.0562782629531
20
-72.125000000000085
10
-1712.3562782629531
20
-72.125000000000085
10
-1712.3562782629531
20
-60.125000000000099
10
-1722.0562782629531
20
-60.125000000000099
10
-1722.0562782629531
20
-48.125000000000107
10
-1712.3562782629531
20
-48.125000000000107
10
-1712.3562782629531
20
-36.125000000000114
10
-1722.0562782629531
20
-36.125000000000114
10
-1722.0562782629531
20
-24.125000000000121
10
-1712.3562782629531
20
-24.125000000000121
10
-1712.3562782629531
20
-6.0000000000000142
10
-1706.7014237013223
20
-6.0000000000000142
10
-1706.7014237013223
20
-1.3322676295501878e-14
10
-1694.7014237013223
20
-1.3322676295501878e-14
10
-1694.7014237013223
20
-6.0000000000000142
10
-1682.7014237013223
20
-6.0000000000000142
10
-1682.7014237013223
20
-1.3322676295501878e-14
10
-1670.7014237013223
20
-1.3322676295501878e-14
10
-1670.7014237013223
20
-6.0000000000000142
10
-1658.7014237013223
20
-6.0000000000000142
10
-1658.7014237013223
20
-1.3322676295501878e-14
10
-1646.7014237013223
20
-1.3322676295501878e-14
10
-1646.7014237013223
20
-6.0000000000000142
10
-1634.701423701322
20
-6.0000000000000142
10
-1634.701423701322
20
-1.3322676295501878e-14
10
-1622.7014237013223
20
-1.3322676295501878e-14
10
-1622.7014237013223
20
-6.0000000000000142
10
-1610.701423701322
20
-6.0000000000000142
10
-1610.701423701322
20
-1.3322676295501878e-14
10
-1598.7014237013223
20
-1.3322676295501878e-14
10
-1598.7014237013223
20
-6.0000000000000142
10
-1586.701423701322
20
-6.0000000000000142
10
-1586.701423701322
20
-1.3322676295501878e-14
10
-1574.701423701322
20
-1.3322676295501878e-14
10
-1574.701423701322
20
-6.0000000000000142
10
-1562.7014237013218
20
-6.0000000000000142
10
-1562.7014237013218
20
-1.3322676295501878e-14
10
-1550.701423701322
20
-1.3322676295501878e-14
10
-1550.701423701322
20
-12.125000000000128
10
-1556.7014237013218
20
-12.125000000000128
10
-1556.7014237013218
20
-24.125000000000121
10
-1550.701423701322
20
-24.125000000000121
10
-1550.701423701322
20
-36.125000000000114
10
-1556.7014237013218
20
-36.125000000000114
10
-1556.7014237013218
20
-48.125000000000107
10
-1550.701423701322
20
-48.125000000000107
10
-1550.701423701322
20
-60.125000000000099
10
-1556.7014237013218
20
-60.125000000000099
10
-1556.7014237013218
20
-72.125000000000085
10
-1550.701423701322
20
-72.125000000000085
10
-1550.701423701322
20
-84.125000000000085
10
-1556.7014237013218
20
-84.125000000000085
10
-1556.7014237013218
20
-96.125000000000085
10
-1550.701423701322
20
-96.125000000000085
10
-1550.701423701322
20
-108.12500000000007
10
-1556.7014237013218
20
-108.12500000000007
10
-1556.7014237013218
20
-120.12500000000006
10
-1550.701423701322
20
-120.12500000000006
10
-1550.701423701322
20
-132.12500000000006
10
-1556.7014237013218
20
-132.12500000000006
10
-1556.7014237013218
20
-144.12500000000006
10
-1550.701423701322
20
-144.12500000000006
10
-1550.701423701322
20
-156.12500000000006
10
-1556.7014237013218
20
-156.12500000000006
10
-1556.7014237013218
20
-168.12500000000003
10
-1550.701423701322
20
-168.12500000000003
10
-1550.701423701322
20
-180.12500000000003
10
-1556.7014237013218
20
-180.12500000000003
10
-1556.7014237013218
20
-192.12500000000003
10
-1550.701423701322
20
-192.12500000000003
10
-1550.701423701322
20
-204.125
10
-1556.7014237013218
20
-204.125
10
-1556.7014237013218
20
-216.125
10
-1550.701423701322
20
-216.125
10
-1550.701423701322
20
-228.125
10
-1556.7014237013218
20
-228.125
10
-1556.7014237013218
20
-240.125
10
-1550.701423701322
20
-240.125
10
-1550.701423701322
20
-252.125
10
-1556.7014237013218
20
-252.125
10
-1556.7014237013218
20
-264.125
10
-1550.701423701322
20
-264.125
10
-1550.701423701322
20
-276.125
10
-1556.7014237013218
20
-276.125
10
-1556.7014237013218
20
-288.12499999999994
10
-1550.701423701322
20
-288.12499999999994
10
-1550.701423701322
20
-300.12499999999994
10
-1556.7014237013218
20
-300.12499999999994
10
-1556.7014237013218
20
-312.12499999999994
10
-1550.701423701322
20
-312.12499999999994
10
-1550.701423701322
20
-324.12499999999994
10
-1556.7014237013218
20
-324.12499999999994
10
-1556.7014237013218
20
-336.125
10
-1550.701423701322
20
-336.125
10
-1550.701423701322
20
-348.12499999999994
10
-1556.7014237013218
20
-348.12499999999994
10
-1556.7014237013218
20
-360.12499999999989
10
-1550.701423701322
20
-360.12499999999989
10
-1550.701423701322
20
-372.12499999999989
10
-1556.7014237013218
20
-372.12499999999989
10
-1556.7014237013218
20
-384.12499999999994
10
-1550.701423701322
20
-384.12499999999994
10
-1550.701423701322
20
-396.12499999999989
10
-1556.7014237013218
20
-396.12499999999989
10
-1556.7014237013218
20
-408.12499999999989
10
-1550.701423701322
20
-408.12499999999989
10
-1550.701423701322
20
-420.12499999999989
10
-1556.7014237013218
20
-420.12499999999989
10
-1556.7014237013218
20
-432.12499999999989
10
-1550.701423701322
20
-432.12499999999989
10
-1550.701423701322
20
-444.25000000000006
10
-1562.7014237013218
20
-444.25000000000006
10
-1562.7014237013218
20
-438.25
10
-1574.701423701322
20
-438.25
10
-1574.701423701322
20
-444.25000000000006
10
-1586.701423701322
20
-444.25000000000006
10
-1586.701423701322
20
-438.25
10
-1598.7014237013223
20
-438.25
10
-1598.7014237013223
20
-444.25000000000006
10
-1610.701423701322
20
-444.25000000000006
10
-1610.701423701322
20
-438.25
10
-1622.7014237013223
20
-438.25
10
-1622.7014237013223
20
-444.25000000000006
10
-1634.701423701322
20
-444.25000000000006
10
-1634.701423701322
20
-438.25
10
-1646.7014237013223
20
-438.25
10
-1646.7014237013223
20
-444.25000000000006
10
-1658.7014237013223
20
-444.25000000000006
10
-1658.7014237013223
20
-438.25
10
-1670.7014237013223
20
-438.25
10
-1670.7014237013223
20
-444.25000000000006
10
-1682.7014237013223
20
-444.25000000000006
10
-1682.7014237013223
20
-438.25
10
-1694.7014237013223
20
-438.25
10
-1694.7014237013223
20
-444.25000000000006
10
-1706.7014237013223
20
-444.25000000000006
10
-1706.7014237013223
20
-438.25
10
-1712.3562782629531
20
-438.25
10
-1712.3562782629531
20
-420.12499999999989
10
-1722.0562782629531
20
-420.12499999999989
10
-1722.0562782629531
20
-408.12499999999989
10
-1712.3562782629531
20
-408.12499999999989
10
-1712.3562782629531
20
-396.12499999999989
10
-1722.0562782629531
20
-396.12499999999989
10
-1722.0562782629531
20
-384.12499999999994
10
-1712.3562782629531
20
-384.12499999999994
0
ENDSEC
0
SECTION
2
OBJECTS
0
DICTIONARY
5
C
100
AcDbDictionary
3
ACAD_GROUP
350
D
3
ACAD_MLINESTYLE
350
17
0
DICTIONARY
5
D
100
AcDbDictionary
0
DICTIONARY
5
1A
330
C
100
AcDbDictionary
0
DICTIONARY
5
17
100
AcDbDictionary
0
ENDSEC
0
EOF
