0
SECTION
2
HEADER
9
$INSUNITS
70
4
9
$ACADVER
1
AC1014
9
$HANDSEED
5
FFFF
0
ENDSEC
0
SECTION
2
TABLES
0
TABLE
2
VPORT
5
8
100
AcDbSymbolTable
0
ENDTAB
0
TABLE
2
LTYPE
5
5
100
AcDbSymbolTable
0
LTYPE
5
14
100
AcDbSymbolTableRecord
100
AcDbLinetypeTableRecord
2
BYBLOCK
70
0
0
LTYPE
5
15
100
AcDbSymbolTableRecord
100
AcDbLinetypeTableRecord
2
BYLAYER
70
0
0
ENDTAB
0
TABLE
2
LAYER
5
2
100
AcDbSymbolTable
70
2
0
LAYER
5
50
100
AcDbSymbolTableRecord
100
AcDbLayerTableRecord
2
0
70
0
6
CONTINUOUS
0
ENDTAB
0
TABLE
2
STYLE
5
3
100
AcDbSymbolTable
70
1
0
STYLE
5
11
100
AcDbSymbolTableRecord
100
AcDbTextStyleTableRecord
2
STANDARD
70
0
0
ENDTAB
0
TABLE
2
VIEW
5
6
100
AcDbSymbolTable
70
0
0
ENDTAB
0
TABLE
2
UCS
5
7
100
AcDbSymbolTable
70
0
0
ENDTAB
0
TABLE
2
APPID
5
9
100
AcDbSymbolTable
70
2
0
APPID
5
12
100
AcDbSymbolTableRecord
100
AcDbRegAppTableRecord
2
ACAD
70
0
0
ENDTAB
0
TABLE
2
DIMSTYLE
5
A
100
AcDbSymbolTable
70
1
0
ENDTAB
0
TABLE
2
BLOCK_RECORD
5
1
100
AcDbSymbolTable
70
1
0
BLOCK_RECORD
5
1F
100
AcDbSymbolTableRecord
100
AcDbBlockTableRecord
2
*MODEL_SPACE
0
BLOCK_RECORD
5
1B
100
AcDbSymbolTableRecord
100
AcDbBlockTableRecord
2
*PAPER_SPACE
0
ENDTAB
0
ENDSEC
0
SECTION
2
BLOCKS
0
BLOCK
5
20
100
AcDbEntity
100
AcDbBlockBegin
2
*MODEL_SPACE
0
ENDBLK
5
21
100
AcDbEntity
100
AcDbBlockEnd
0
BLOCK
5
1C
100
AcDbEntity
100
AcDbBlockBegin
2
*PAPER_SPACE
0
ENDBLK
5
1D
100
AcDbEntity
100
AcDbBlockEnd
0
ENDSEC
0
SECTION
2
ENTITIES
0
CIRCLE
5
100
100
AcDbEntity
8
0
100
AcDbCircle
10
419.30486503641868
20
385.33405322679357
30
0
40
6.6000000000000005
210
0
220
-0
230
1
0
LWPOLYLINE
5
101
100
AcDbEntity
8
0
100
AcDbPolyline
90
168
70
1
43
0.0
10
384.12500000000023
20
441.54718429029117
10
384.12500000000023
20
452.74245074462931
10
396.12500000000017
20
452.74245074462931
10
396.12500000000017
20
441.54718429029117
10
408.12500000000023
20
441.54718429029117
10
408.12500000000023
20
452.74245074462931
10
420.12500000000017
20
452.74245074462931
10
420.12500000000017
20
441.54718429029117
10
438.25
20
441.54718429029117
10
438.25
20
440.90000670037273
10
444.25000000000006
20
440.90000670037273
10
444.25000000000006
20
428.90000670037267
10
438.25
20
428.90000670037267
10
438.25
20
416.90000670037273
10
444.25000000000006
20
416.90000670037273
10
444.25000000000006
20
404.90000670037267
10
438.25
20
404.90000670037267
10
438.25
20
392.90000670037273
10
444.25000000000006
20
392.90000670037273
10
444.25000000000006
20
380.90000670037273
10
438.25
20
380.90000670037273
10
438.25
20
368.90000670037267
10
432.12499999999989
20
368.90000670037267
10
432.12499999999989
20
362.90000670037267
10
420.12499999999989
20
362.90000670037267
10
420.12499999999989
20
368.90000670037267
10
408.12499999999989
20
368.90000670037267
10
408.12499999999989
20
362.90000670037267
10
396.12499999999989
20
362.90000670037267
10
396.12499999999989
20
368.90000670037267
10
384.12499999999994
20
368.90000670037267
10
384.12499999999994
20
362.90000670037267
10
372.12499999999989
20
362.90000670037267
10
372.12499999999989
20
368.90000670037267
10
360.12499999999989
20
368.90000670037267
10
360.12499999999989
20
362.90000670037267
10
348.12499999999994
20
362.90000670037267
10
348.12499999999994
20
368.90000670037267
10
336.125
20
368.90000670037267
10
336.125
20
362.90000670037267
10
324.12499999999994
20
362.90000670037267
10
324.12499999999994
20
368.90000670037267
10
312.12499999999994
20
368.90000670037267
10
312.12499999999994
20
362.90000670037267
10
300.12499999999994
20
362.90000670037267
10
300.12499999999994
20
368.90000670037267
10
288.12499999999994
20
368.90000670037267
10
288.12499999999994
20
362.90000670037267
10
276.125
20
362.90000670037267
10
276.125
20
368.90000670037267
10
264.125
20
368.90000670037267
10
264.125
20
362.90000670037267
10
252.125
20
362.90000670037267
10
252.125
20
368.90000670037267
10
240.125
20
368.90000670037267
10
240.125
20
362.90000670037267
10
228.125
20
362.90000670037267
10
228.125
20
368.90000670037267
10
216.125
20
368.90000670037267
10
216.125
20
362.90000670037267
10
204.125
20
362.90000670037267
10
204.125
20
368.90000670037267
10
192.12500000000003
20
368.90000670037267
10
192.12500000000003
20
362.90000670037267
10
180.12500000000003
20
362.90000670037267
10
180.12500000000003
20
368.90000670037267
10
168.12500000000003
20
368.90000670037267
10
168.12500000000003
20
362.90000670037267
10
156.12500000000006
20
362.90000670037267
10
156.12500000000006
20
368.90000670037267
10
144.12500000000006
20
368.90000670037267
10
144.12500000000006
20
362.90000670037267
10
132.12500000000006
20
362.90000670037267
10
132.12500000000006
20
368.90000670037267
10
120.12500000000006
20
368.90000670037267
10
120.12500000000006
20
362.90000670037267
10
108.12500000000007
20
362.90000670037267
10
108.12500000000007
20
368.90000670037267
10
96.125000000000085
20
368.90000670037267
10
96.125000000000085
20
362.90000670037267
10
84.125000000000085
20
362.90000670037267
10
84.125000000000085
20
368.90000670037267
10
72.125000000000085
20
368.90000670037267
10
72.125000000000085
20
362.90000670037267
10
60.125000000000099
20
362.90000670037267
10
60.125000000000099
20
368.90000670037267
10
48.125000000000107
20
368.90000670037267
10
48.125000000000107
20
362.90000670037267
10
36.125000000000114
20
362.90000670037267
10
36.125000000000114
20
368.90000670037267
10
24.125000000000121
20
368.90000670037267
10
24.125000000000121
20
362.90000670037267
10
12.125000000000128
20
362.90000670037267
10
12.125000000000128
20
368.90000670037267
10
6.0000000000000142
20
368.90000670037267
10
6.0000000000000142
20
380.90000670037273
10
1.3322676295501878e-14
20
380.90000670037273
10
1.3322676295501878e-14
20
392.90000670037273
10
6.0000000000000142
20
392.90000670037273
10
6.0000000000000142
20
404.90000670037267
10
1.3322676295501878e-14
20
404.90000670037267
10
1.3322676295501878e-14
20
416.90000670037273
10
6.0000000000000142
20
416.90000670037273
10
6.0000000000000142
20
428.90000670037267
10
1.3322676295501878e-14
20
428.90000670037267
10
1.3322676295501878e-14
20
440.90000670037273
10
6.0000000000000142
20
440.90000670037273
10
6.0000000000000142
20
441.54629832192268
10
24.124999999999872
20
441.54629832192268
10
24.124999999999872
20
452.74245074462931
10
36.124999999999865
20
452.74245074462931
10
36.124999999999901
20
441.54718429029117
10
48.124999999999893
20
441.54718429029117
10
48.124999999999893
20
452.74245074462931
10
60.124999999999886
20
452.74245074462931
10
60.124999999999886
20
441.54718429029117
10
72.124999999999915
20
441.54718429029117
10
72.124999999999915
20
452.74245074462931
10
84.124999999999915
20
452.74245074462931
10
84.124999999999872
20
441.54718429029117
10
96.124999999999943
20
441.54718429029117
10
96.124999999999943
20
452.74245074462931
10
108.12499999999993
20
452.74245074462931
10
108.12499999999993
20
441.54718429029117
10
120.12499999999996
20
441.54718429029117
10
120.12499999999996
20
452.74245074462931
10
132.12499999999994
20
452.74245074462931
10
132.12499999999994
20
441.54718429029117
10
144.12499999999997
20
441.54718429029117
10
144.12499999999997
20
452.74245074462931
10
156.12499999999997
20
452.74245074462931
10
156.12499999999997
20
441.54718429029117
10
168.125
20
441.54718429029117
10
168.125
20
452.74245074462931
10
180.125
20
452.74245074462931
10
180.125
20
441.54718429029117
10
192.12500000000003
20
441.54718429029117
10
192.12500000000003
20
452.74245074462931
10
204.125
20
452.74245074462931
10
204.125
20
441.54718429029117
10
216.12500000000006
20
441.54718429029117
10
216.12500000000006
20
452.74245074462931
10
228.12500000000003
20
452.74245074462931
10
228.12500000000003
20
441.54718429029117
10
240.12500000000006
20
441.54718429029117
10
240.12500000000006
20
452.74245074462931
10
252.12500000000006
20
452.74245074462931
10
252.12500000000006
20
441.54718429029117
10
264.12500000000011
20
441.54718429029117
10
264.12500000000011
20
452.74245074462931
10
276.12500000000006
20
452.74245074462931
10
276.12500000000006
20
441.54718429029117
10
288.12500000000011
20
441.54718429029117
10
288.12500000000011
20
452.74245074462931
10
300.12500000000011
20
452.74245074462931
10
300.12500000000011
20
441.54718429029117
10
312.12500000000011
20
441.54718429029117
10
312.12500000000011
20
452.74245074462931
10
324.12500000000011
20
452.74245074462931
10
324.12500000000011
20
441.54718429029117
10
336.12500000000011
20
441.54718429029117
10
336.12500000000011
20
452.74245074462931
10
348.12500000000011
20
452.74245074462931
10
348.12500000000011
20
441.54718429029117
10
360.12500000000017
20
441.54718429029117
10
360.12500000000017
20
452.74245074462931
10
372.12500000000023
20
452.74245074462931
10
372.12500000000023
20
441.54718429029117
0
ENDSEC
0
SECTION
2
OBJECTS
0
DICTIONARY
5
C
100
AcDbDictionary
3
ACAD_GROUP
350
D
3
ACAD_MLINESTYLE
350
17
0
DICTIONARY
5
D
100
AcDbDictionary
0
DICTIONARY
5
1A
330
C
100
AcDbDictionary
0
DICTIONARY
5
17
100
AcDbDictionary
0
ENDSEC
0
EOF
