%TF.GenerationSoftware,KiCad,Pcbnew,(5.0.1)-3*%
%TF.CreationDate,2020-04-22T20:40:51+01:00*%
%TF.ProjectId,panel,70616E656C2E6B696361645F70636200,rev?*%
%TF.SameCoordinates,Original*%
%TF.FileFunction,Copper,L2,Bot,Signal*%
%TF.FilePolarity,Positive*%
%FSLAX46Y46*%
G04 Gerber Fmt 4.6, Leading zero omitted, Abs format (unit mm)*
G04 Created by KiCad (PCBNEW (5.0.1)-3) date 22/04/2020 20:40:51*
%MOMM*%
%LPD*%
G01*
G04 APERTURE LIST*
%ADD10C,3.300000*%
%ADD11C,6.200000*%
%ADD12C,0.254000*%
G04 APERTURE END LIST*
D10*
X127175000Y-9125000D03*
X127190000Y-131670000D03*
X124710000Y-23380000D03*
X139700000Y-23370000D03*
X126200000Y-78920000D03*
X137700000Y-78920000D03*
D11*
X124700000Y-32650000D03*
X139700000Y-32640000D03*
X124700000Y-44150000D03*
X139700000Y-44140000D03*
X139700000Y-57150000D03*
X124700000Y-57140000D03*
X124700000Y-68640000D03*
X139700000Y-68640000D03*
X126200000Y-86640000D03*
X137700000Y-86640000D03*
X137700000Y-96140000D03*
X126200000Y-96140000D03*
X126200000Y-105640000D03*
X137700000Y-105650000D03*
X126200000Y-115150000D03*
X137700000Y-115150000D03*
D12*
G36*
X125910379Y-7168334D02*
X125905443Y-7177601D01*
X125880651Y-7187870D01*
X125237870Y-7830651D01*
X125227601Y-7855443D01*
X125218334Y-7860379D01*
X125057272Y-8266653D01*
X124890000Y-8670485D01*
X124890000Y-8688594D01*
X124883327Y-8705426D01*
X124890000Y-9142435D01*
X124890000Y-9579515D01*
X124896930Y-9596244D01*
X124897206Y-9614350D01*
X125218334Y-10389621D01*
X125227601Y-10394557D01*
X125237870Y-10419349D01*
X125880651Y-11062130D01*
X125905443Y-11072399D01*
X125910379Y-11081666D01*
X126316653Y-11242728D01*
X126720485Y-11410000D01*
X126738594Y-11410000D01*
X126755426Y-11416673D01*
X127192435Y-11410000D01*
X127629515Y-11410000D01*
X127646244Y-11403070D01*
X127664350Y-11402794D01*
X128439621Y-11081666D01*
X128444557Y-11072399D01*
X128469349Y-11062130D01*
X129112130Y-10419349D01*
X129122399Y-10394557D01*
X129131666Y-10389621D01*
X129292728Y-9983347D01*
X129460000Y-9579515D01*
X129460000Y-9561406D01*
X129466673Y-9544574D01*
X129460000Y-9107565D01*
X129460000Y-8670485D01*
X129453070Y-8653756D01*
X129452794Y-8635650D01*
X129131666Y-7860379D01*
X129122399Y-7855443D01*
X129112130Y-7830651D01*
X128469349Y-7187870D01*
X128444557Y-7177601D01*
X128439621Y-7168334D01*
X128033347Y-7007272D01*
X127677799Y-6860000D01*
X143990001Y-6860000D01*
X143990000Y-133940000D01*
X127698166Y-133940000D01*
X128454621Y-133626666D01*
X128459557Y-133617399D01*
X128484349Y-133607130D01*
X129127130Y-132964349D01*
X129137399Y-132939557D01*
X129146666Y-132934621D01*
X129307728Y-132528347D01*
X129475000Y-132124515D01*
X129475000Y-132106406D01*
X129481673Y-132089574D01*
X129475000Y-131652565D01*
X129475000Y-131215485D01*
X129468070Y-131198756D01*
X129467794Y-131180650D01*
X129146666Y-130405379D01*
X129137399Y-130400443D01*
X129127130Y-130375651D01*
X128484349Y-129732870D01*
X128459557Y-129722601D01*
X128454621Y-129713334D01*
X128048347Y-129552272D01*
X127644515Y-129385000D01*
X127626406Y-129385000D01*
X127609574Y-129378327D01*
X127172565Y-129385000D01*
X126735485Y-129385000D01*
X126718756Y-129391930D01*
X126700650Y-129392206D01*
X125925379Y-129713334D01*
X125920443Y-129722601D01*
X125895651Y-129732870D01*
X125252870Y-130375651D01*
X125242601Y-130400443D01*
X125233334Y-130405379D01*
X125072272Y-130811653D01*
X124905000Y-131215485D01*
X124905000Y-131233594D01*
X124898327Y-131250426D01*
X124905000Y-131687435D01*
X124905000Y-132124515D01*
X124911930Y-132141244D01*
X124912206Y-132159350D01*
X125233334Y-132934621D01*
X125242601Y-132939557D01*
X125252870Y-132964349D01*
X125895651Y-133607130D01*
X125920443Y-133617399D01*
X125925379Y-133626666D01*
X126331653Y-133787728D01*
X126699272Y-133940000D01*
X120410000Y-133940000D01*
X120410000Y-115870835D01*
X122460671Y-115870835D01*
X122465000Y-115881463D01*
X122465000Y-115892938D01*
X122745061Y-116569065D01*
X123021162Y-117246944D01*
X123033490Y-117265394D01*
X123033620Y-117265708D01*
X123033860Y-117265948D01*
X123046188Y-117284398D01*
X123068982Y-117301070D01*
X124048930Y-118281018D01*
X124065602Y-118303812D01*
X124076178Y-118308266D01*
X124084292Y-118316380D01*
X124760425Y-118596444D01*
X125434985Y-118880541D01*
X125446461Y-118880609D01*
X125457062Y-118885000D01*
X126188900Y-118885000D01*
X126920835Y-118889329D01*
X126931463Y-118885000D01*
X126942938Y-118885000D01*
X127619065Y-118604939D01*
X128296944Y-118328838D01*
X128315394Y-118316510D01*
X128315708Y-118316380D01*
X128315948Y-118316140D01*
X128334398Y-118303812D01*
X128351070Y-118281018D01*
X129331018Y-117301070D01*
X129353812Y-117284398D01*
X129358266Y-117273822D01*
X129366380Y-117265708D01*
X129646444Y-116589575D01*
X129930541Y-115915015D01*
X129930609Y-115903539D01*
X129935000Y-115892938D01*
X129935000Y-115870835D01*
X133960671Y-115870835D01*
X133965000Y-115881463D01*
X133965000Y-115892938D01*
X134245061Y-116569065D01*
X134521162Y-117246944D01*
X134533490Y-117265394D01*
X134533620Y-117265708D01*
X134533860Y-117265948D01*
X134546188Y-117284398D01*
X134568982Y-117301070D01*
X135548930Y-118281018D01*
X135565602Y-118303812D01*
X135576178Y-118308266D01*
X135584292Y-118316380D01*
X136260425Y-118596444D01*
X136934985Y-118880541D01*
X136946461Y-118880609D01*
X136957062Y-118885000D01*
X137688900Y-118885000D01*
X138420835Y-118889329D01*
X138431463Y-118885000D01*
X138442938Y-118885000D01*
X139119065Y-118604939D01*
X139796944Y-118328838D01*
X139815394Y-118316510D01*
X139815708Y-118316380D01*
X139815948Y-118316140D01*
X139834398Y-118303812D01*
X139851070Y-118281018D01*
X140831018Y-117301070D01*
X140853812Y-117284398D01*
X140858266Y-117273822D01*
X140866380Y-117265708D01*
X141146444Y-116589575D01*
X141430541Y-115915015D01*
X141430609Y-115903539D01*
X141435000Y-115892938D01*
X141435000Y-115161100D01*
X141439329Y-114429165D01*
X141435000Y-114418537D01*
X141435000Y-114407062D01*
X141154939Y-113730935D01*
X140878838Y-113053056D01*
X140866510Y-113034606D01*
X140866380Y-113034292D01*
X140866140Y-113034052D01*
X140853812Y-113015602D01*
X140831018Y-112998930D01*
X139851070Y-112018982D01*
X139834398Y-111996188D01*
X139823822Y-111991734D01*
X139815708Y-111983620D01*
X139139575Y-111703556D01*
X138465015Y-111419459D01*
X138453539Y-111419391D01*
X138442938Y-111415000D01*
X137711100Y-111415000D01*
X136979165Y-111410671D01*
X136968537Y-111415000D01*
X136957062Y-111415000D01*
X136280935Y-111695061D01*
X135603056Y-111971162D01*
X135584606Y-111983490D01*
X135584292Y-111983620D01*
X135584052Y-111983860D01*
X135565602Y-111996188D01*
X135548930Y-112018982D01*
X134568982Y-112998930D01*
X134546188Y-113015602D01*
X134541734Y-113026178D01*
X134533620Y-113034292D01*
X134253556Y-113710425D01*
X133969459Y-114384985D01*
X133969391Y-114396461D01*
X133965000Y-114407062D01*
X133965000Y-115138900D01*
X133960671Y-115870835D01*
X129935000Y-115870835D01*
X129935000Y-115161100D01*
X129939329Y-114429165D01*
X129935000Y-114418537D01*
X129935000Y-114407062D01*
X129654939Y-113730935D01*
X129378838Y-113053056D01*
X129366510Y-113034606D01*
X129366380Y-113034292D01*
X129366140Y-113034052D01*
X129353812Y-113015602D01*
X129331018Y-112998930D01*
X128351070Y-112018982D01*
X128334398Y-111996188D01*
X128323822Y-111991734D01*
X128315708Y-111983620D01*
X127639575Y-111703556D01*
X126965015Y-111419459D01*
X126953539Y-111419391D01*
X126942938Y-111415000D01*
X126211100Y-111415000D01*
X125479165Y-111410671D01*
X125468537Y-111415000D01*
X125457062Y-111415000D01*
X124780935Y-111695061D01*
X124103056Y-111971162D01*
X124084606Y-111983490D01*
X124084292Y-111983620D01*
X124084052Y-111983860D01*
X124065602Y-111996188D01*
X124048930Y-112018982D01*
X123068982Y-112998930D01*
X123046188Y-113015602D01*
X123041734Y-113026178D01*
X123033620Y-113034292D01*
X122753556Y-113710425D01*
X122469459Y-114384985D01*
X122469391Y-114396461D01*
X122465000Y-114407062D01*
X122465000Y-115138900D01*
X122460671Y-115870835D01*
X120410000Y-115870835D01*
X120410000Y-106360835D01*
X122460671Y-106360835D01*
X122465000Y-106371463D01*
X122465000Y-106382938D01*
X122745061Y-107059065D01*
X123021162Y-107736944D01*
X123033490Y-107755394D01*
X123033620Y-107755708D01*
X123033860Y-107755948D01*
X123046188Y-107774398D01*
X123068982Y-107791070D01*
X124048930Y-108771018D01*
X124065602Y-108793812D01*
X124076178Y-108798266D01*
X124084292Y-108806380D01*
X124760425Y-109086444D01*
X125434985Y-109370541D01*
X125446461Y-109370609D01*
X125457062Y-109375000D01*
X126188900Y-109375000D01*
X126920835Y-109379329D01*
X126931463Y-109375000D01*
X126942938Y-109375000D01*
X127619065Y-109094939D01*
X128296944Y-108818838D01*
X128315394Y-108806510D01*
X128315708Y-108806380D01*
X128315948Y-108806140D01*
X128334398Y-108793812D01*
X128351070Y-108771018D01*
X129331018Y-107791070D01*
X129353812Y-107774398D01*
X129358266Y-107763822D01*
X129366380Y-107755708D01*
X129646444Y-107079575D01*
X129930541Y-106405015D01*
X129930609Y-106393539D01*
X129935000Y-106382938D01*
X129935000Y-106370835D01*
X133960671Y-106370835D01*
X133965000Y-106381463D01*
X133965000Y-106392938D01*
X134245061Y-107069065D01*
X134521162Y-107746944D01*
X134533490Y-107765394D01*
X134533620Y-107765708D01*
X134533860Y-107765948D01*
X134546188Y-107784398D01*
X134568982Y-107801070D01*
X135548930Y-108781018D01*
X135565602Y-108803812D01*
X135576178Y-108808266D01*
X135584292Y-108816380D01*
X136260425Y-109096444D01*
X136934985Y-109380541D01*
X136946461Y-109380609D01*
X136957062Y-109385000D01*
X137688900Y-109385000D01*
X138420835Y-109389329D01*
X138431463Y-109385000D01*
X138442938Y-109385000D01*
X139119065Y-109104939D01*
X139796944Y-108828838D01*
X139815394Y-108816510D01*
X139815708Y-108816380D01*
X139815948Y-108816140D01*
X139834398Y-108803812D01*
X139851070Y-108781018D01*
X140831018Y-107801070D01*
X140853812Y-107784398D01*
X140858266Y-107773822D01*
X140866380Y-107765708D01*
X141146444Y-107089575D01*
X141430541Y-106415015D01*
X141430609Y-106403539D01*
X141435000Y-106392938D01*
X141435000Y-105661100D01*
X141439329Y-104929165D01*
X141435000Y-104918537D01*
X141435000Y-104907062D01*
X141154939Y-104230935D01*
X140878838Y-103553056D01*
X140866510Y-103534606D01*
X140866380Y-103534292D01*
X140866140Y-103534052D01*
X140853812Y-103515602D01*
X140831018Y-103498930D01*
X139851070Y-102518982D01*
X139834398Y-102496188D01*
X139823822Y-102491734D01*
X139815708Y-102483620D01*
X139139575Y-102203556D01*
X138465015Y-101919459D01*
X138453539Y-101919391D01*
X138442938Y-101915000D01*
X137711100Y-101915000D01*
X136979165Y-101910671D01*
X136968537Y-101915000D01*
X136957062Y-101915000D01*
X136280935Y-102195061D01*
X135603056Y-102471162D01*
X135584606Y-102483490D01*
X135584292Y-102483620D01*
X135584052Y-102483860D01*
X135565602Y-102496188D01*
X135548930Y-102518982D01*
X134568982Y-103498930D01*
X134546188Y-103515602D01*
X134541734Y-103526178D01*
X134533620Y-103534292D01*
X134253556Y-104210425D01*
X133969459Y-104884985D01*
X133969391Y-104896461D01*
X133965000Y-104907062D01*
X133965000Y-105638900D01*
X133960671Y-106370835D01*
X129935000Y-106370835D01*
X129935000Y-105651100D01*
X129939329Y-104919165D01*
X129935000Y-104908537D01*
X129935000Y-104897062D01*
X129654939Y-104220935D01*
X129378838Y-103543056D01*
X129366510Y-103524606D01*
X129366380Y-103524292D01*
X129366140Y-103524052D01*
X129353812Y-103505602D01*
X129331018Y-103488930D01*
X128351070Y-102508982D01*
X128334398Y-102486188D01*
X128323822Y-102481734D01*
X128315708Y-102473620D01*
X127639575Y-102193556D01*
X126965015Y-101909459D01*
X126953539Y-101909391D01*
X126942938Y-101905000D01*
X126211100Y-101905000D01*
X125479165Y-101900671D01*
X125468537Y-101905000D01*
X125457062Y-101905000D01*
X124780935Y-102185061D01*
X124103056Y-102461162D01*
X124084606Y-102473490D01*
X124084292Y-102473620D01*
X124084052Y-102473860D01*
X124065602Y-102486188D01*
X124048930Y-102508982D01*
X123068982Y-103488930D01*
X123046188Y-103505602D01*
X123041734Y-103516178D01*
X123033620Y-103524292D01*
X122753556Y-104200425D01*
X122469459Y-104874985D01*
X122469391Y-104886461D01*
X122465000Y-104897062D01*
X122465000Y-105628900D01*
X122460671Y-106360835D01*
X120410000Y-106360835D01*
X120410000Y-96860835D01*
X122460671Y-96860835D01*
X122465000Y-96871463D01*
X122465000Y-96882938D01*
X122745061Y-97559065D01*
X123021162Y-98236944D01*
X123033490Y-98255394D01*
X123033620Y-98255708D01*
X123033860Y-98255948D01*
X123046188Y-98274398D01*
X123068982Y-98291070D01*
X124048930Y-99271018D01*
X124065602Y-99293812D01*
X124076178Y-99298266D01*
X124084292Y-99306380D01*
X124760425Y-99586444D01*
X125434985Y-99870541D01*
X125446461Y-99870609D01*
X125457062Y-99875000D01*
X126188900Y-99875000D01*
X126920835Y-99879329D01*
X126931463Y-99875000D01*
X126942938Y-99875000D01*
X127619065Y-99594939D01*
X128296944Y-99318838D01*
X128315394Y-99306510D01*
X128315708Y-99306380D01*
X128315948Y-99306140D01*
X128334398Y-99293812D01*
X128351070Y-99271018D01*
X129331018Y-98291070D01*
X129353812Y-98274398D01*
X129358266Y-98263822D01*
X129366380Y-98255708D01*
X129646444Y-97579575D01*
X129930541Y-96905015D01*
X129930609Y-96893539D01*
X129935000Y-96882938D01*
X129935000Y-96860835D01*
X133960671Y-96860835D01*
X133965000Y-96871463D01*
X133965000Y-96882938D01*
X134245061Y-97559065D01*
X134521162Y-98236944D01*
X134533490Y-98255394D01*
X134533620Y-98255708D01*
X134533860Y-98255948D01*
X134546188Y-98274398D01*
X134568982Y-98291070D01*
X135548930Y-99271018D01*
X135565602Y-99293812D01*
X135576178Y-99298266D01*
X135584292Y-99306380D01*
X136260425Y-99586444D01*
X136934985Y-99870541D01*
X136946461Y-99870609D01*
X136957062Y-99875000D01*
X137688900Y-99875000D01*
X138420835Y-99879329D01*
X138431463Y-99875000D01*
X138442938Y-99875000D01*
X139119065Y-99594939D01*
X139796944Y-99318838D01*
X139815394Y-99306510D01*
X139815708Y-99306380D01*
X139815948Y-99306140D01*
X139834398Y-99293812D01*
X139851070Y-99271018D01*
X140831018Y-98291070D01*
X140853812Y-98274398D01*
X140858266Y-98263822D01*
X140866380Y-98255708D01*
X141146444Y-97579575D01*
X141430541Y-96905015D01*
X141430609Y-96893539D01*
X141435000Y-96882938D01*
X141435000Y-96151100D01*
X141439329Y-95419165D01*
X141435000Y-95408537D01*
X141435000Y-95397062D01*
X141154939Y-94720935D01*
X140878838Y-94043056D01*
X140866510Y-94024606D01*
X140866380Y-94024292D01*
X140866140Y-94024052D01*
X140853812Y-94005602D01*
X140831018Y-93988930D01*
X139851070Y-93008982D01*
X139834398Y-92986188D01*
X139823822Y-92981734D01*
X139815708Y-92973620D01*
X139139575Y-92693556D01*
X138465015Y-92409459D01*
X138453539Y-92409391D01*
X138442938Y-92405000D01*
X137711100Y-92405000D01*
X136979165Y-92400671D01*
X136968537Y-92405000D01*
X136957062Y-92405000D01*
X136280935Y-92685061D01*
X135603056Y-92961162D01*
X135584606Y-92973490D01*
X135584292Y-92973620D01*
X135584052Y-92973860D01*
X135565602Y-92986188D01*
X135548930Y-93008982D01*
X134568982Y-93988930D01*
X134546188Y-94005602D01*
X134541734Y-94016178D01*
X134533620Y-94024292D01*
X134253556Y-94700425D01*
X133969459Y-95374985D01*
X133969391Y-95386461D01*
X133965000Y-95397062D01*
X133965000Y-96128900D01*
X133960671Y-96860835D01*
X129935000Y-96860835D01*
X129935000Y-96151100D01*
X129939329Y-95419165D01*
X129935000Y-95408537D01*
X129935000Y-95397062D01*
X129654939Y-94720935D01*
X129378838Y-94043056D01*
X129366510Y-94024606D01*
X129366380Y-94024292D01*
X129366140Y-94024052D01*
X129353812Y-94005602D01*
X129331018Y-93988930D01*
X128351070Y-93008982D01*
X128334398Y-92986188D01*
X128323822Y-92981734D01*
X128315708Y-92973620D01*
X127639575Y-92693556D01*
X126965015Y-92409459D01*
X126953539Y-92409391D01*
X126942938Y-92405000D01*
X126211100Y-92405000D01*
X125479165Y-92400671D01*
X125468537Y-92405000D01*
X125457062Y-92405000D01*
X124780935Y-92685061D01*
X124103056Y-92961162D01*
X124084606Y-92973490D01*
X124084292Y-92973620D01*
X124084052Y-92973860D01*
X124065602Y-92986188D01*
X124048930Y-93008982D01*
X123068982Y-93988930D01*
X123046188Y-94005602D01*
X123041734Y-94016178D01*
X123033620Y-94024292D01*
X122753556Y-94700425D01*
X122469459Y-95374985D01*
X122469391Y-95386461D01*
X122465000Y-95397062D01*
X122465000Y-96128900D01*
X122460671Y-96860835D01*
X120410000Y-96860835D01*
X120410000Y-87360835D01*
X122460671Y-87360835D01*
X122465000Y-87371463D01*
X122465000Y-87382938D01*
X122745061Y-88059065D01*
X123021162Y-88736944D01*
X123033490Y-88755394D01*
X123033620Y-88755708D01*
X123033860Y-88755948D01*
X123046188Y-88774398D01*
X123068982Y-88791070D01*
X124048930Y-89771018D01*
X124065602Y-89793812D01*
X124076178Y-89798266D01*
X124084292Y-89806380D01*
X124760425Y-90086444D01*
X125434985Y-90370541D01*
X125446461Y-90370609D01*
X125457062Y-90375000D01*
X126188900Y-90375000D01*
X126920835Y-90379329D01*
X126931463Y-90375000D01*
X126942938Y-90375000D01*
X127619065Y-90094939D01*
X128296944Y-89818838D01*
X128315394Y-89806510D01*
X128315708Y-89806380D01*
X128315948Y-89806140D01*
X128334398Y-89793812D01*
X128351070Y-89771018D01*
X129331018Y-88791070D01*
X129353812Y-88774398D01*
X129358266Y-88763822D01*
X129366380Y-88755708D01*
X129646444Y-88079575D01*
X129930541Y-87405015D01*
X129930609Y-87393539D01*
X129935000Y-87382938D01*
X129935000Y-87360835D01*
X133960671Y-87360835D01*
X133965000Y-87371463D01*
X133965000Y-87382938D01*
X134245061Y-88059065D01*
X134521162Y-88736944D01*
X134533490Y-88755394D01*
X134533620Y-88755708D01*
X134533860Y-88755948D01*
X134546188Y-88774398D01*
X134568982Y-88791070D01*
X135548930Y-89771018D01*
X135565602Y-89793812D01*
X135576178Y-89798266D01*
X135584292Y-89806380D01*
X136260425Y-90086444D01*
X136934985Y-90370541D01*
X136946461Y-90370609D01*
X136957062Y-90375000D01*
X137688900Y-90375000D01*
X138420835Y-90379329D01*
X138431463Y-90375000D01*
X138442938Y-90375000D01*
X139119065Y-90094939D01*
X139796944Y-89818838D01*
X139815394Y-89806510D01*
X139815708Y-89806380D01*
X139815948Y-89806140D01*
X139834398Y-89793812D01*
X139851070Y-89771018D01*
X140831018Y-88791070D01*
X140853812Y-88774398D01*
X140858266Y-88763822D01*
X140866380Y-88755708D01*
X141146444Y-88079575D01*
X141430541Y-87405015D01*
X141430609Y-87393539D01*
X141435000Y-87382938D01*
X141435000Y-86651100D01*
X141439329Y-85919165D01*
X141435000Y-85908537D01*
X141435000Y-85897062D01*
X141154939Y-85220935D01*
X140878838Y-84543056D01*
X140866510Y-84524606D01*
X140866380Y-84524292D01*
X140866140Y-84524052D01*
X140853812Y-84505602D01*
X140831018Y-84488930D01*
X139851070Y-83508982D01*
X139834398Y-83486188D01*
X139823822Y-83481734D01*
X139815708Y-83473620D01*
X139139575Y-83193556D01*
X138465015Y-82909459D01*
X138453539Y-82909391D01*
X138442938Y-82905000D01*
X137711100Y-82905000D01*
X136979165Y-82900671D01*
X136968537Y-82905000D01*
X136957062Y-82905000D01*
X136280935Y-83185061D01*
X135603056Y-83461162D01*
X135584606Y-83473490D01*
X135584292Y-83473620D01*
X135584052Y-83473860D01*
X135565602Y-83486188D01*
X135548930Y-83508982D01*
X134568982Y-84488930D01*
X134546188Y-84505602D01*
X134541734Y-84516178D01*
X134533620Y-84524292D01*
X134253556Y-85200425D01*
X133969459Y-85874985D01*
X133969391Y-85886461D01*
X133965000Y-85897062D01*
X133965000Y-86628900D01*
X133960671Y-87360835D01*
X129935000Y-87360835D01*
X129935000Y-86651100D01*
X129939329Y-85919165D01*
X129935000Y-85908537D01*
X129935000Y-85897062D01*
X129654939Y-85220935D01*
X129378838Y-84543056D01*
X129366510Y-84524606D01*
X129366380Y-84524292D01*
X129366140Y-84524052D01*
X129353812Y-84505602D01*
X129331018Y-84488930D01*
X128351070Y-83508982D01*
X128334398Y-83486188D01*
X128323822Y-83481734D01*
X128315708Y-83473620D01*
X127639575Y-83193556D01*
X126965015Y-82909459D01*
X126953539Y-82909391D01*
X126942938Y-82905000D01*
X126211100Y-82905000D01*
X125479165Y-82900671D01*
X125468537Y-82905000D01*
X125457062Y-82905000D01*
X124780935Y-83185061D01*
X124103056Y-83461162D01*
X124084606Y-83473490D01*
X124084292Y-83473620D01*
X124084052Y-83473860D01*
X124065602Y-83486188D01*
X124048930Y-83508982D01*
X123068982Y-84488930D01*
X123046188Y-84505602D01*
X123041734Y-84516178D01*
X123033620Y-84524292D01*
X122753556Y-85200425D01*
X122469459Y-85874985D01*
X122469391Y-85886461D01*
X122465000Y-85897062D01*
X122465000Y-86628900D01*
X122460671Y-87360835D01*
X120410000Y-87360835D01*
X120410000Y-78500426D01*
X123908327Y-78500426D01*
X123915000Y-78937435D01*
X123915000Y-79374515D01*
X123921930Y-79391244D01*
X123922206Y-79409350D01*
X124243334Y-80184621D01*
X124252601Y-80189557D01*
X124262870Y-80214349D01*
X124905651Y-80857130D01*
X124930443Y-80867399D01*
X124935379Y-80876666D01*
X125341653Y-81037728D01*
X125745485Y-81205000D01*
X125763594Y-81205000D01*
X125780426Y-81211673D01*
X126217435Y-81205000D01*
X126654515Y-81205000D01*
X126671244Y-81198070D01*
X126689350Y-81197794D01*
X127464621Y-80876666D01*
X127469557Y-80867399D01*
X127494349Y-80857130D01*
X128137130Y-80214349D01*
X128147399Y-80189557D01*
X128156666Y-80184621D01*
X128317728Y-79778347D01*
X128485000Y-79374515D01*
X128485000Y-79356406D01*
X128491673Y-79339574D01*
X128485000Y-78902565D01*
X128485000Y-78500426D01*
X135408327Y-78500426D01*
X135415000Y-78937435D01*
X135415000Y-79374515D01*
X135421930Y-79391244D01*
X135422206Y-79409350D01*
X135743334Y-80184621D01*
X135752601Y-80189557D01*
X135762870Y-80214349D01*
X136405651Y-80857130D01*
X136430443Y-80867399D01*
X136435379Y-80876666D01*
X136841653Y-81037728D01*
X137245485Y-81205000D01*
X137263594Y-81205000D01*
X137280426Y-81211673D01*
X137717435Y-81205000D01*
X138154515Y-81205000D01*
X138171244Y-81198070D01*
X138189350Y-81197794D01*
X138964621Y-80876666D01*
X138969557Y-80867399D01*
X138994349Y-80857130D01*
X139637130Y-80214349D01*
X139647399Y-80189557D01*
X139656666Y-80184621D01*
X139817728Y-79778347D01*
X139985000Y-79374515D01*
X139985000Y-79356406D01*
X139991673Y-79339574D01*
X139985000Y-78902565D01*
X139985000Y-78465485D01*
X139978070Y-78448756D01*
X139977794Y-78430650D01*
X139656666Y-77655379D01*
X139647399Y-77650443D01*
X139637130Y-77625651D01*
X138994349Y-76982870D01*
X138969557Y-76972601D01*
X138964621Y-76963334D01*
X138558347Y-76802272D01*
X138154515Y-76635000D01*
X138136406Y-76635000D01*
X138119574Y-76628327D01*
X137682565Y-76635000D01*
X137245485Y-76635000D01*
X137228756Y-76641930D01*
X137210650Y-76642206D01*
X136435379Y-76963334D01*
X136430443Y-76972601D01*
X136405651Y-76982870D01*
X135762870Y-77625651D01*
X135752601Y-77650443D01*
X135743334Y-77655379D01*
X135582272Y-78061653D01*
X135415000Y-78465485D01*
X135415000Y-78483594D01*
X135408327Y-78500426D01*
X128485000Y-78500426D01*
X128485000Y-78465485D01*
X128478070Y-78448756D01*
X128477794Y-78430650D01*
X128156666Y-77655379D01*
X128147399Y-77650443D01*
X128137130Y-77625651D01*
X127494349Y-76982870D01*
X127469557Y-76972601D01*
X127464621Y-76963334D01*
X127058347Y-76802272D01*
X126654515Y-76635000D01*
X126636406Y-76635000D01*
X126619574Y-76628327D01*
X126182565Y-76635000D01*
X125745485Y-76635000D01*
X125728756Y-76641930D01*
X125710650Y-76642206D01*
X124935379Y-76963334D01*
X124930443Y-76972601D01*
X124905651Y-76982870D01*
X124262870Y-77625651D01*
X124252601Y-77650443D01*
X124243334Y-77655379D01*
X124082272Y-78061653D01*
X123915000Y-78465485D01*
X123915000Y-78483594D01*
X123908327Y-78500426D01*
X120410000Y-78500426D01*
X120410000Y-69360835D01*
X120960671Y-69360835D01*
X120965000Y-69371463D01*
X120965000Y-69382938D01*
X121245061Y-70059065D01*
X121521162Y-70736944D01*
X121533490Y-70755394D01*
X121533620Y-70755708D01*
X121533860Y-70755948D01*
X121546188Y-70774398D01*
X121568982Y-70791070D01*
X122548930Y-71771018D01*
X122565602Y-71793812D01*
X122576178Y-71798266D01*
X122584292Y-71806380D01*
X123260425Y-72086444D01*
X123934985Y-72370541D01*
X123946461Y-72370609D01*
X123957062Y-72375000D01*
X124688900Y-72375000D01*
X125420835Y-72379329D01*
X125431463Y-72375000D01*
X125442938Y-72375000D01*
X126119065Y-72094939D01*
X126796944Y-71818838D01*
X126815394Y-71806510D01*
X126815708Y-71806380D01*
X126815948Y-71806140D01*
X126834398Y-71793812D01*
X126851070Y-71771018D01*
X127831018Y-70791070D01*
X127853812Y-70774398D01*
X127858266Y-70763822D01*
X127866380Y-70755708D01*
X128146444Y-70079575D01*
X128430541Y-69405015D01*
X128430609Y-69393539D01*
X128435000Y-69382938D01*
X128435000Y-69360835D01*
X135960671Y-69360835D01*
X135965000Y-69371463D01*
X135965000Y-69382938D01*
X136245061Y-70059065D01*
X136521162Y-70736944D01*
X136533490Y-70755394D01*
X136533620Y-70755708D01*
X136533860Y-70755948D01*
X136546188Y-70774398D01*
X136568982Y-70791070D01*
X137548930Y-71771018D01*
X137565602Y-71793812D01*
X137576178Y-71798266D01*
X137584292Y-71806380D01*
X138260425Y-72086444D01*
X138934985Y-72370541D01*
X138946461Y-72370609D01*
X138957062Y-72375000D01*
X139688900Y-72375000D01*
X140420835Y-72379329D01*
X140431463Y-72375000D01*
X140442938Y-72375000D01*
X141119065Y-72094939D01*
X141796944Y-71818838D01*
X141815394Y-71806510D01*
X141815708Y-71806380D01*
X141815948Y-71806140D01*
X141834398Y-71793812D01*
X141851070Y-71771018D01*
X142831018Y-70791070D01*
X142853812Y-70774398D01*
X142858266Y-70763822D01*
X142866380Y-70755708D01*
X143146444Y-70079575D01*
X143430541Y-69405015D01*
X143430609Y-69393539D01*
X143435000Y-69382938D01*
X143435000Y-68651100D01*
X143439329Y-67919165D01*
X143435000Y-67908537D01*
X143435000Y-67897062D01*
X143154939Y-67220935D01*
X142878838Y-66543056D01*
X142866510Y-66524606D01*
X142866380Y-66524292D01*
X142866140Y-66524052D01*
X142853812Y-66505602D01*
X142831018Y-66488930D01*
X141851070Y-65508982D01*
X141834398Y-65486188D01*
X141823822Y-65481734D01*
X141815708Y-65473620D01*
X141139575Y-65193556D01*
X140465015Y-64909459D01*
X140453539Y-64909391D01*
X140442938Y-64905000D01*
X139711100Y-64905000D01*
X138979165Y-64900671D01*
X138968537Y-64905000D01*
X138957062Y-64905000D01*
X138280935Y-65185061D01*
X137603056Y-65461162D01*
X137584606Y-65473490D01*
X137584292Y-65473620D01*
X137584052Y-65473860D01*
X137565602Y-65486188D01*
X137548930Y-65508982D01*
X136568982Y-66488930D01*
X136546188Y-66505602D01*
X136541734Y-66516178D01*
X136533620Y-66524292D01*
X136253556Y-67200425D01*
X135969459Y-67874985D01*
X135969391Y-67886461D01*
X135965000Y-67897062D01*
X135965000Y-68628900D01*
X135960671Y-69360835D01*
X128435000Y-69360835D01*
X128435000Y-68651100D01*
X128439329Y-67919165D01*
X128435000Y-67908537D01*
X128435000Y-67897062D01*
X128154939Y-67220935D01*
X127878838Y-66543056D01*
X127866510Y-66524606D01*
X127866380Y-66524292D01*
X127866140Y-66524052D01*
X127853812Y-66505602D01*
X127831018Y-66488930D01*
X126851070Y-65508982D01*
X126834398Y-65486188D01*
X126823822Y-65481734D01*
X126815708Y-65473620D01*
X126139575Y-65193556D01*
X125465015Y-64909459D01*
X125453539Y-64909391D01*
X125442938Y-64905000D01*
X124711100Y-64905000D01*
X123979165Y-64900671D01*
X123968537Y-64905000D01*
X123957062Y-64905000D01*
X123280935Y-65185061D01*
X122603056Y-65461162D01*
X122584606Y-65473490D01*
X122584292Y-65473620D01*
X122584052Y-65473860D01*
X122565602Y-65486188D01*
X122548930Y-65508982D01*
X121568982Y-66488930D01*
X121546188Y-66505602D01*
X121541734Y-66516178D01*
X121533620Y-66524292D01*
X121253556Y-67200425D01*
X120969459Y-67874985D01*
X120969391Y-67886461D01*
X120965000Y-67897062D01*
X120965000Y-68628900D01*
X120960671Y-69360835D01*
X120410000Y-69360835D01*
X120410000Y-57860835D01*
X120960671Y-57860835D01*
X120965000Y-57871463D01*
X120965000Y-57882938D01*
X121245061Y-58559065D01*
X121521162Y-59236944D01*
X121533490Y-59255394D01*
X121533620Y-59255708D01*
X121533860Y-59255948D01*
X121546188Y-59274398D01*
X121568982Y-59291070D01*
X122548930Y-60271018D01*
X122565602Y-60293812D01*
X122576178Y-60298266D01*
X122584292Y-60306380D01*
X123260425Y-60586444D01*
X123934985Y-60870541D01*
X123946461Y-60870609D01*
X123957062Y-60875000D01*
X124688900Y-60875000D01*
X125420835Y-60879329D01*
X125431463Y-60875000D01*
X125442938Y-60875000D01*
X126119065Y-60594939D01*
X126796944Y-60318838D01*
X126815394Y-60306510D01*
X126815708Y-60306380D01*
X126815948Y-60306140D01*
X126834398Y-60293812D01*
X126851070Y-60271018D01*
X127831018Y-59291070D01*
X127853812Y-59274398D01*
X127858266Y-59263822D01*
X127866380Y-59255708D01*
X128146444Y-58579575D01*
X128430541Y-57905015D01*
X128430609Y-57893539D01*
X128435000Y-57882938D01*
X128435000Y-57870835D01*
X135960671Y-57870835D01*
X135965000Y-57881463D01*
X135965000Y-57892938D01*
X136245061Y-58569065D01*
X136521162Y-59246944D01*
X136533490Y-59265394D01*
X136533620Y-59265708D01*
X136533860Y-59265948D01*
X136546188Y-59284398D01*
X136568982Y-59301070D01*
X137548930Y-60281018D01*
X137565602Y-60303812D01*
X137576178Y-60308266D01*
X137584292Y-60316380D01*
X138260425Y-60596444D01*
X138934985Y-60880541D01*
X138946461Y-60880609D01*
X138957062Y-60885000D01*
X139688900Y-60885000D01*
X140420835Y-60889329D01*
X140431463Y-60885000D01*
X140442938Y-60885000D01*
X141119065Y-60604939D01*
X141796944Y-60328838D01*
X141815394Y-60316510D01*
X141815708Y-60316380D01*
X141815948Y-60316140D01*
X141834398Y-60303812D01*
X141851070Y-60281018D01*
X142831018Y-59301070D01*
X142853812Y-59284398D01*
X142858266Y-59273822D01*
X142866380Y-59265708D01*
X143146444Y-58589575D01*
X143430541Y-57915015D01*
X143430609Y-57903539D01*
X143435000Y-57892938D01*
X143435000Y-57161100D01*
X143439329Y-56429165D01*
X143435000Y-56418537D01*
X143435000Y-56407062D01*
X143154939Y-55730935D01*
X142878838Y-55053056D01*
X142866510Y-55034606D01*
X142866380Y-55034292D01*
X142866140Y-55034052D01*
X142853812Y-55015602D01*
X142831018Y-54998930D01*
X141851070Y-54018982D01*
X141834398Y-53996188D01*
X141823822Y-53991734D01*
X141815708Y-53983620D01*
X141139575Y-53703556D01*
X140465015Y-53419459D01*
X140453539Y-53419391D01*
X140442938Y-53415000D01*
X139711100Y-53415000D01*
X138979165Y-53410671D01*
X138968537Y-53415000D01*
X138957062Y-53415000D01*
X138280935Y-53695061D01*
X137603056Y-53971162D01*
X137584606Y-53983490D01*
X137584292Y-53983620D01*
X137584052Y-53983860D01*
X137565602Y-53996188D01*
X137548930Y-54018982D01*
X136568982Y-54998930D01*
X136546188Y-55015602D01*
X136541734Y-55026178D01*
X136533620Y-55034292D01*
X136253556Y-55710425D01*
X135969459Y-56384985D01*
X135969391Y-56396461D01*
X135965000Y-56407062D01*
X135965000Y-57138900D01*
X135960671Y-57870835D01*
X128435000Y-57870835D01*
X128435000Y-57151100D01*
X128439329Y-56419165D01*
X128435000Y-56408537D01*
X128435000Y-56397062D01*
X128154939Y-55720935D01*
X127878838Y-55043056D01*
X127866510Y-55024606D01*
X127866380Y-55024292D01*
X127866140Y-55024052D01*
X127853812Y-55005602D01*
X127831018Y-54988930D01*
X126851070Y-54008982D01*
X126834398Y-53986188D01*
X126823822Y-53981734D01*
X126815708Y-53973620D01*
X126139575Y-53693556D01*
X125465015Y-53409459D01*
X125453539Y-53409391D01*
X125442938Y-53405000D01*
X124711100Y-53405000D01*
X123979165Y-53400671D01*
X123968537Y-53405000D01*
X123957062Y-53405000D01*
X123280935Y-53685061D01*
X122603056Y-53961162D01*
X122584606Y-53973490D01*
X122584292Y-53973620D01*
X122584052Y-53973860D01*
X122565602Y-53986188D01*
X122548930Y-54008982D01*
X121568982Y-54988930D01*
X121546188Y-55005602D01*
X121541734Y-55016178D01*
X121533620Y-55024292D01*
X121253556Y-55700425D01*
X120969459Y-56374985D01*
X120969391Y-56386461D01*
X120965000Y-56397062D01*
X120965000Y-57128900D01*
X120960671Y-57860835D01*
X120410000Y-57860835D01*
X120410000Y-44870835D01*
X120960671Y-44870835D01*
X120965000Y-44881463D01*
X120965000Y-44892938D01*
X121245061Y-45569065D01*
X121521162Y-46246944D01*
X121533490Y-46265394D01*
X121533620Y-46265708D01*
X121533860Y-46265948D01*
X121546188Y-46284398D01*
X121568982Y-46301070D01*
X122548930Y-47281018D01*
X122565602Y-47303812D01*
X122576178Y-47308266D01*
X122584292Y-47316380D01*
X123260425Y-47596444D01*
X123934985Y-47880541D01*
X123946461Y-47880609D01*
X123957062Y-47885000D01*
X124688900Y-47885000D01*
X125420835Y-47889329D01*
X125431463Y-47885000D01*
X125442938Y-47885000D01*
X126119065Y-47604939D01*
X126796944Y-47328838D01*
X126815394Y-47316510D01*
X126815708Y-47316380D01*
X126815948Y-47316140D01*
X126834398Y-47303812D01*
X126851070Y-47281018D01*
X127831018Y-46301070D01*
X127853812Y-46284398D01*
X127858266Y-46273822D01*
X127866380Y-46265708D01*
X128146444Y-45589575D01*
X128430541Y-44915015D01*
X128430609Y-44903539D01*
X128435000Y-44892938D01*
X128435000Y-44860835D01*
X135960671Y-44860835D01*
X135965000Y-44871463D01*
X135965000Y-44882938D01*
X136245061Y-45559065D01*
X136521162Y-46236944D01*
X136533490Y-46255394D01*
X136533620Y-46255708D01*
X136533860Y-46255948D01*
X136546188Y-46274398D01*
X136568982Y-46291070D01*
X137548930Y-47271018D01*
X137565602Y-47293812D01*
X137576178Y-47298266D01*
X137584292Y-47306380D01*
X138260425Y-47586444D01*
X138934985Y-47870541D01*
X138946461Y-47870609D01*
X138957062Y-47875000D01*
X139688900Y-47875000D01*
X140420835Y-47879329D01*
X140431463Y-47875000D01*
X140442938Y-47875000D01*
X141119065Y-47594939D01*
X141796944Y-47318838D01*
X141815394Y-47306510D01*
X141815708Y-47306380D01*
X141815948Y-47306140D01*
X141834398Y-47293812D01*
X141851070Y-47271018D01*
X142831018Y-46291070D01*
X142853812Y-46274398D01*
X142858266Y-46263822D01*
X142866380Y-46255708D01*
X143146444Y-45579575D01*
X143430541Y-44905015D01*
X143430609Y-44893539D01*
X143435000Y-44882938D01*
X143435000Y-44151100D01*
X143439329Y-43419165D01*
X143435000Y-43408537D01*
X143435000Y-43397062D01*
X143154939Y-42720935D01*
X142878838Y-42043056D01*
X142866510Y-42024606D01*
X142866380Y-42024292D01*
X142866140Y-42024052D01*
X142853812Y-42005602D01*
X142831018Y-41988930D01*
X141851070Y-41008982D01*
X141834398Y-40986188D01*
X141823822Y-40981734D01*
X141815708Y-40973620D01*
X141139575Y-40693556D01*
X140465015Y-40409459D01*
X140453539Y-40409391D01*
X140442938Y-40405000D01*
X139711100Y-40405000D01*
X138979165Y-40400671D01*
X138968537Y-40405000D01*
X138957062Y-40405000D01*
X138280935Y-40685061D01*
X137603056Y-40961162D01*
X137584606Y-40973490D01*
X137584292Y-40973620D01*
X137584052Y-40973860D01*
X137565602Y-40986188D01*
X137548930Y-41008982D01*
X136568982Y-41988930D01*
X136546188Y-42005602D01*
X136541734Y-42016178D01*
X136533620Y-42024292D01*
X136253556Y-42700425D01*
X135969459Y-43374985D01*
X135969391Y-43386461D01*
X135965000Y-43397062D01*
X135965000Y-44128900D01*
X135960671Y-44860835D01*
X128435000Y-44860835D01*
X128435000Y-44161100D01*
X128439329Y-43429165D01*
X128435000Y-43418537D01*
X128435000Y-43407062D01*
X128154939Y-42730935D01*
X127878838Y-42053056D01*
X127866510Y-42034606D01*
X127866380Y-42034292D01*
X127866140Y-42034052D01*
X127853812Y-42015602D01*
X127831018Y-41998930D01*
X126851070Y-41018982D01*
X126834398Y-40996188D01*
X126823822Y-40991734D01*
X126815708Y-40983620D01*
X126139575Y-40703556D01*
X125465015Y-40419459D01*
X125453539Y-40419391D01*
X125442938Y-40415000D01*
X124711100Y-40415000D01*
X123979165Y-40410671D01*
X123968537Y-40415000D01*
X123957062Y-40415000D01*
X123280935Y-40695061D01*
X122603056Y-40971162D01*
X122584606Y-40983490D01*
X122584292Y-40983620D01*
X122584052Y-40983860D01*
X122565602Y-40996188D01*
X122548930Y-41018982D01*
X121568982Y-41998930D01*
X121546188Y-42015602D01*
X121541734Y-42026178D01*
X121533620Y-42034292D01*
X121253556Y-42710425D01*
X120969459Y-43384985D01*
X120969391Y-43396461D01*
X120965000Y-43407062D01*
X120965000Y-44138900D01*
X120960671Y-44870835D01*
X120410000Y-44870835D01*
X120410000Y-33370835D01*
X120960671Y-33370835D01*
X120965000Y-33381463D01*
X120965000Y-33392938D01*
X121245061Y-34069065D01*
X121521162Y-34746944D01*
X121533490Y-34765394D01*
X121533620Y-34765708D01*
X121533860Y-34765948D01*
X121546188Y-34784398D01*
X121568982Y-34801070D01*
X122548930Y-35781018D01*
X122565602Y-35803812D01*
X122576178Y-35808266D01*
X122584292Y-35816380D01*
X123260425Y-36096444D01*
X123934985Y-36380541D01*
X123946461Y-36380609D01*
X123957062Y-36385000D01*
X124688900Y-36385000D01*
X125420835Y-36389329D01*
X125431463Y-36385000D01*
X125442938Y-36385000D01*
X126119065Y-36104939D01*
X126796944Y-35828838D01*
X126815394Y-35816510D01*
X126815708Y-35816380D01*
X126815948Y-35816140D01*
X126834398Y-35803812D01*
X126851070Y-35781018D01*
X127831018Y-34801070D01*
X127853812Y-34784398D01*
X127858266Y-34773822D01*
X127866380Y-34765708D01*
X128146444Y-34089575D01*
X128430541Y-33415015D01*
X128430609Y-33403539D01*
X128435000Y-33392938D01*
X128435000Y-33360835D01*
X135960671Y-33360835D01*
X135965000Y-33371463D01*
X135965000Y-33382938D01*
X136245061Y-34059065D01*
X136521162Y-34736944D01*
X136533490Y-34755394D01*
X136533620Y-34755708D01*
X136533860Y-34755948D01*
X136546188Y-34774398D01*
X136568982Y-34791070D01*
X137548930Y-35771018D01*
X137565602Y-35793812D01*
X137576178Y-35798266D01*
X137584292Y-35806380D01*
X138260425Y-36086444D01*
X138934985Y-36370541D01*
X138946461Y-36370609D01*
X138957062Y-36375000D01*
X139688900Y-36375000D01*
X140420835Y-36379329D01*
X140431463Y-36375000D01*
X140442938Y-36375000D01*
X141119065Y-36094939D01*
X141796944Y-35818838D01*
X141815394Y-35806510D01*
X141815708Y-35806380D01*
X141815948Y-35806140D01*
X141834398Y-35793812D01*
X141851070Y-35771018D01*
X142831018Y-34791070D01*
X142853812Y-34774398D01*
X142858266Y-34763822D01*
X142866380Y-34755708D01*
X143146444Y-34079575D01*
X143430541Y-33405015D01*
X143430609Y-33393539D01*
X143435000Y-33382938D01*
X143435000Y-32651100D01*
X143439329Y-31919165D01*
X143435000Y-31908537D01*
X143435000Y-31897062D01*
X143154939Y-31220935D01*
X142878838Y-30543056D01*
X142866510Y-30524606D01*
X142866380Y-30524292D01*
X142866140Y-30524052D01*
X142853812Y-30505602D01*
X142831018Y-30488930D01*
X141851070Y-29508982D01*
X141834398Y-29486188D01*
X141823822Y-29481734D01*
X141815708Y-29473620D01*
X141139575Y-29193556D01*
X140465015Y-28909459D01*
X140453539Y-28909391D01*
X140442938Y-28905000D01*
X139711100Y-28905000D01*
X138979165Y-28900671D01*
X138968537Y-28905000D01*
X138957062Y-28905000D01*
X138280935Y-29185061D01*
X137603056Y-29461162D01*
X137584606Y-29473490D01*
X137584292Y-29473620D01*
X137584052Y-29473860D01*
X137565602Y-29486188D01*
X137548930Y-29508982D01*
X136568982Y-30488930D01*
X136546188Y-30505602D01*
X136541734Y-30516178D01*
X136533620Y-30524292D01*
X136253556Y-31200425D01*
X135969459Y-31874985D01*
X135969391Y-31886461D01*
X135965000Y-31897062D01*
X135965000Y-32628900D01*
X135960671Y-33360835D01*
X128435000Y-33360835D01*
X128435000Y-32661100D01*
X128439329Y-31929165D01*
X128435000Y-31918537D01*
X128435000Y-31907062D01*
X128154939Y-31230935D01*
X127878838Y-30553056D01*
X127866510Y-30534606D01*
X127866380Y-30534292D01*
X127866140Y-30534052D01*
X127853812Y-30515602D01*
X127831018Y-30498930D01*
X126851070Y-29518982D01*
X126834398Y-29496188D01*
X126823822Y-29491734D01*
X126815708Y-29483620D01*
X126139575Y-29203556D01*
X125465015Y-28919459D01*
X125453539Y-28919391D01*
X125442938Y-28915000D01*
X124711100Y-28915000D01*
X123979165Y-28910671D01*
X123968537Y-28915000D01*
X123957062Y-28915000D01*
X123280935Y-29195061D01*
X122603056Y-29471162D01*
X122584606Y-29483490D01*
X122584292Y-29483620D01*
X122584052Y-29483860D01*
X122565602Y-29496188D01*
X122548930Y-29518982D01*
X121568982Y-30498930D01*
X121546188Y-30515602D01*
X121541734Y-30526178D01*
X121533620Y-30534292D01*
X121253556Y-31210425D01*
X120969459Y-31884985D01*
X120969391Y-31896461D01*
X120965000Y-31907062D01*
X120965000Y-32638900D01*
X120960671Y-33370835D01*
X120410000Y-33370835D01*
X120410000Y-22960426D01*
X122418327Y-22960426D01*
X122425000Y-23397435D01*
X122425000Y-23834515D01*
X122431930Y-23851244D01*
X122432206Y-23869350D01*
X122753334Y-24644621D01*
X122762601Y-24649557D01*
X122772870Y-24674349D01*
X123415651Y-25317130D01*
X123440443Y-25327399D01*
X123445379Y-25336666D01*
X123851653Y-25497728D01*
X124255485Y-25665000D01*
X124273594Y-25665000D01*
X124290426Y-25671673D01*
X124727435Y-25665000D01*
X125164515Y-25665000D01*
X125181244Y-25658070D01*
X125199350Y-25657794D01*
X125974621Y-25336666D01*
X125979557Y-25327399D01*
X126004349Y-25317130D01*
X126647130Y-24674349D01*
X126657399Y-24649557D01*
X126666666Y-24644621D01*
X126827728Y-24238347D01*
X126995000Y-23834515D01*
X126995000Y-23816406D01*
X127001673Y-23799574D01*
X126995000Y-23362565D01*
X126995000Y-22950426D01*
X137408327Y-22950426D01*
X137415000Y-23387435D01*
X137415000Y-23824515D01*
X137421930Y-23841244D01*
X137422206Y-23859350D01*
X137743334Y-24634621D01*
X137752601Y-24639557D01*
X137762870Y-24664349D01*
X138405651Y-25307130D01*
X138430443Y-25317399D01*
X138435379Y-25326666D01*
X138841653Y-25487728D01*
X139245485Y-25655000D01*
X139263594Y-25655000D01*
X139280426Y-25661673D01*
X139717435Y-25655000D01*
X140154515Y-25655000D01*
X140171244Y-25648070D01*
X140189350Y-25647794D01*
X140964621Y-25326666D01*
X140969557Y-25317399D01*
X140994349Y-25307130D01*
X141637130Y-24664349D01*
X141647399Y-24639557D01*
X141656666Y-24634621D01*
X141817728Y-24228347D01*
X141985000Y-23824515D01*
X141985000Y-23806406D01*
X141991673Y-23789574D01*
X141985000Y-23352565D01*
X141985000Y-22915485D01*
X141978070Y-22898756D01*
X141977794Y-22880650D01*
X141656666Y-22105379D01*
X141647399Y-22100443D01*
X141637130Y-22075651D01*
X140994349Y-21432870D01*
X140969557Y-21422601D01*
X140964621Y-21413334D01*
X140558347Y-21252272D01*
X140154515Y-21085000D01*
X140136406Y-21085000D01*
X140119574Y-21078327D01*
X139682565Y-21085000D01*
X139245485Y-21085000D01*
X139228756Y-21091930D01*
X139210650Y-21092206D01*
X138435379Y-21413334D01*
X138430443Y-21422601D01*
X138405651Y-21432870D01*
X137762870Y-22075651D01*
X137752601Y-22100443D01*
X137743334Y-22105379D01*
X137582272Y-22511653D01*
X137415000Y-22915485D01*
X137415000Y-22933594D01*
X137408327Y-22950426D01*
X126995000Y-22950426D01*
X126995000Y-22925485D01*
X126988070Y-22908756D01*
X126987794Y-22890650D01*
X126666666Y-22115379D01*
X126657399Y-22110443D01*
X126647130Y-22085651D01*
X126004349Y-21442870D01*
X125979557Y-21432601D01*
X125974621Y-21423334D01*
X125568347Y-21262272D01*
X125164515Y-21095000D01*
X125146406Y-21095000D01*
X125129574Y-21088327D01*
X124692565Y-21095000D01*
X124255485Y-21095000D01*
X124238756Y-21101930D01*
X124220650Y-21102206D01*
X123445379Y-21423334D01*
X123440443Y-21432601D01*
X123415651Y-21442870D01*
X122772870Y-22085651D01*
X122762601Y-22110443D01*
X122753334Y-22115379D01*
X122592272Y-22521653D01*
X122425000Y-22925485D01*
X122425000Y-22943594D01*
X122418327Y-22960426D01*
X120410000Y-22960426D01*
X120410000Y-6860000D01*
X126654763Y-6860000D01*
X125910379Y-7168334D01*
X125910379Y-7168334D01*
G37*
X125910379Y-7168334D02*
X125905443Y-7177601D01*
X125880651Y-7187870D01*
X125237870Y-7830651D01*
X125227601Y-7855443D01*
X125218334Y-7860379D01*
X125057272Y-8266653D01*
X124890000Y-8670485D01*
X124890000Y-8688594D01*
X124883327Y-8705426D01*
X124890000Y-9142435D01*
X124890000Y-9579515D01*
X124896930Y-9596244D01*
X124897206Y-9614350D01*
X125218334Y-10389621D01*
X125227601Y-10394557D01*
X125237870Y-10419349D01*
X125880651Y-11062130D01*
X125905443Y-11072399D01*
X125910379Y-11081666D01*
X126316653Y-11242728D01*
X126720485Y-11410000D01*
X126738594Y-11410000D01*
X126755426Y-11416673D01*
X127192435Y-11410000D01*
X127629515Y-11410000D01*
X127646244Y-11403070D01*
X127664350Y-11402794D01*
X128439621Y-11081666D01*
X128444557Y-11072399D01*
X128469349Y-11062130D01*
X129112130Y-10419349D01*
X129122399Y-10394557D01*
X129131666Y-10389621D01*
X129292728Y-9983347D01*
X129460000Y-9579515D01*
X129460000Y-9561406D01*
X129466673Y-9544574D01*
X129460000Y-9107565D01*
X129460000Y-8670485D01*
X129453070Y-8653756D01*
X129452794Y-8635650D01*
X129131666Y-7860379D01*
X129122399Y-7855443D01*
X129112130Y-7830651D01*
X128469349Y-7187870D01*
X128444557Y-7177601D01*
X128439621Y-7168334D01*
X128033347Y-7007272D01*
X127677799Y-6860000D01*
X143990001Y-6860000D01*
X143990000Y-133940000D01*
X127698166Y-133940000D01*
X128454621Y-133626666D01*
X128459557Y-133617399D01*
X128484349Y-133607130D01*
X129127130Y-132964349D01*
X129137399Y-132939557D01*
X129146666Y-132934621D01*
X129307728Y-132528347D01*
X129475000Y-132124515D01*
X129475000Y-132106406D01*
X129481673Y-132089574D01*
X129475000Y-131652565D01*
X129475000Y-131215485D01*
X129468070Y-131198756D01*
X129467794Y-131180650D01*
X129146666Y-130405379D01*
X129137399Y-130400443D01*
X129127130Y-130375651D01*
X128484349Y-129732870D01*
X128459557Y-129722601D01*
X128454621Y-129713334D01*
X128048347Y-129552272D01*
X127644515Y-129385000D01*
X127626406Y-129385000D01*
X127609574Y-129378327D01*
X127172565Y-129385000D01*
X126735485Y-129385000D01*
X126718756Y-129391930D01*
X126700650Y-129392206D01*
X125925379Y-129713334D01*
X125920443Y-129722601D01*
X125895651Y-129732870D01*
X125252870Y-130375651D01*
X125242601Y-130400443D01*
X125233334Y-130405379D01*
X125072272Y-130811653D01*
X124905000Y-131215485D01*
X124905000Y-131233594D01*
X124898327Y-131250426D01*
X124905000Y-131687435D01*
X124905000Y-132124515D01*
X124911930Y-132141244D01*
X124912206Y-132159350D01*
X125233334Y-132934621D01*
X125242601Y-132939557D01*
X125252870Y-132964349D01*
X125895651Y-133607130D01*
X125920443Y-133617399D01*
X125925379Y-133626666D01*
X126331653Y-133787728D01*
X126699272Y-133940000D01*
X120410000Y-133940000D01*
X120410000Y-115870835D01*
X122460671Y-115870835D01*
X122465000Y-115881463D01*
X122465000Y-115892938D01*
X122745061Y-116569065D01*
X123021162Y-117246944D01*
X123033490Y-117265394D01*
X123033620Y-117265708D01*
X123033860Y-117265948D01*
X123046188Y-117284398D01*
X123068982Y-117301070D01*
X124048930Y-118281018D01*
X124065602Y-118303812D01*
X124076178Y-118308266D01*
X124084292Y-118316380D01*
X124760425Y-118596444D01*
X125434985Y-118880541D01*
X125446461Y-118880609D01*
X125457062Y-118885000D01*
X126188900Y-118885000D01*
X126920835Y-118889329D01*
X126931463Y-118885000D01*
X126942938Y-118885000D01*
X127619065Y-118604939D01*
X128296944Y-118328838D01*
X128315394Y-118316510D01*
X128315708Y-118316380D01*
X128315948Y-118316140D01*
X128334398Y-118303812D01*
X128351070Y-118281018D01*
X129331018Y-117301070D01*
X129353812Y-117284398D01*
X129358266Y-117273822D01*
X129366380Y-117265708D01*
X129646444Y-116589575D01*
X129930541Y-115915015D01*
X129930609Y-115903539D01*
X129935000Y-115892938D01*
X129935000Y-115870835D01*
X133960671Y-115870835D01*
X133965000Y-115881463D01*
X133965000Y-115892938D01*
X134245061Y-116569065D01*
X134521162Y-117246944D01*
X134533490Y-117265394D01*
X134533620Y-117265708D01*
X134533860Y-117265948D01*
X134546188Y-117284398D01*
X134568982Y-117301070D01*
X135548930Y-118281018D01*
X135565602Y-118303812D01*
X135576178Y-118308266D01*
X135584292Y-118316380D01*
X136260425Y-118596444D01*
X136934985Y-118880541D01*
X136946461Y-118880609D01*
X136957062Y-118885000D01*
X137688900Y-118885000D01*
X138420835Y-118889329D01*
X138431463Y-118885000D01*
X138442938Y-118885000D01*
X139119065Y-118604939D01*
X139796944Y-118328838D01*
X139815394Y-118316510D01*
X139815708Y-118316380D01*
X139815948Y-118316140D01*
X139834398Y-118303812D01*
X139851070Y-118281018D01*
X140831018Y-117301070D01*
X140853812Y-117284398D01*
X140858266Y-117273822D01*
X140866380Y-117265708D01*
X141146444Y-116589575D01*
X141430541Y-115915015D01*
X141430609Y-115903539D01*
X141435000Y-115892938D01*
X141435000Y-115161100D01*
X141439329Y-114429165D01*
X141435000Y-114418537D01*
X141435000Y-114407062D01*
X141154939Y-113730935D01*
X140878838Y-113053056D01*
X140866510Y-113034606D01*
X140866380Y-113034292D01*
X140866140Y-113034052D01*
X140853812Y-113015602D01*
X140831018Y-112998930D01*
X139851070Y-112018982D01*
X139834398Y-111996188D01*
X139823822Y-111991734D01*
X139815708Y-111983620D01*
X139139575Y-111703556D01*
X138465015Y-111419459D01*
X138453539Y-111419391D01*
X138442938Y-111415000D01*
X137711100Y-111415000D01*
X136979165Y-111410671D01*
X136968537Y-111415000D01*
X136957062Y-111415000D01*
X136280935Y-111695061D01*
X135603056Y-111971162D01*
X135584606Y-111983490D01*
X135584292Y-111983620D01*
X135584052Y-111983860D01*
X135565602Y-111996188D01*
X135548930Y-112018982D01*
X134568982Y-112998930D01*
X134546188Y-113015602D01*
X134541734Y-113026178D01*
X134533620Y-113034292D01*
X134253556Y-113710425D01*
X133969459Y-114384985D01*
X133969391Y-114396461D01*
X133965000Y-114407062D01*
X133965000Y-115138900D01*
X133960671Y-115870835D01*
X129935000Y-115870835D01*
X129935000Y-115161100D01*
X129939329Y-114429165D01*
X129935000Y-114418537D01*
X129935000Y-114407062D01*
X129654939Y-113730935D01*
X129378838Y-113053056D01*
X129366510Y-113034606D01*
X129366380Y-113034292D01*
X129366140Y-113034052D01*
X129353812Y-113015602D01*
X129331018Y-112998930D01*
X128351070Y-112018982D01*
X128334398Y-111996188D01*
X128323822Y-111991734D01*
X128315708Y-111983620D01*
X127639575Y-111703556D01*
X126965015Y-111419459D01*
X126953539Y-111419391D01*
X126942938Y-111415000D01*
X126211100Y-111415000D01*
X125479165Y-111410671D01*
X125468537Y-111415000D01*
X125457062Y-111415000D01*
X124780935Y-111695061D01*
X124103056Y-111971162D01*
X124084606Y-111983490D01*
X124084292Y-111983620D01*
X124084052Y-111983860D01*
X124065602Y-111996188D01*
X124048930Y-112018982D01*
X123068982Y-112998930D01*
X123046188Y-113015602D01*
X123041734Y-113026178D01*
X123033620Y-113034292D01*
X122753556Y-113710425D01*
X122469459Y-114384985D01*
X122469391Y-114396461D01*
X122465000Y-114407062D01*
X122465000Y-115138900D01*
X122460671Y-115870835D01*
X120410000Y-115870835D01*
X120410000Y-106360835D01*
X122460671Y-106360835D01*
X122465000Y-106371463D01*
X122465000Y-106382938D01*
X122745061Y-107059065D01*
X123021162Y-107736944D01*
X123033490Y-107755394D01*
X123033620Y-107755708D01*
X123033860Y-107755948D01*
X123046188Y-107774398D01*
X123068982Y-107791070D01*
X124048930Y-108771018D01*
X124065602Y-108793812D01*
X124076178Y-108798266D01*
X124084292Y-108806380D01*
X124760425Y-109086444D01*
X125434985Y-109370541D01*
X125446461Y-109370609D01*
X125457062Y-109375000D01*
X126188900Y-109375000D01*
X126920835Y-109379329D01*
X126931463Y-109375000D01*
X126942938Y-109375000D01*
X127619065Y-109094939D01*
X128296944Y-108818838D01*
X128315394Y-108806510D01*
X128315708Y-108806380D01*
X128315948Y-108806140D01*
X128334398Y-108793812D01*
X128351070Y-108771018D01*
X129331018Y-107791070D01*
X129353812Y-107774398D01*
X129358266Y-107763822D01*
X129366380Y-107755708D01*
X129646444Y-107079575D01*
X129930541Y-106405015D01*
X129930609Y-106393539D01*
X129935000Y-106382938D01*
X129935000Y-106370835D01*
X133960671Y-106370835D01*
X133965000Y-106381463D01*
X133965000Y-106392938D01*
X134245061Y-107069065D01*
X134521162Y-107746944D01*
X134533490Y-107765394D01*
X134533620Y-107765708D01*
X134533860Y-107765948D01*
X134546188Y-107784398D01*
X134568982Y-107801070D01*
X135548930Y-108781018D01*
X135565602Y-108803812D01*
X135576178Y-108808266D01*
X135584292Y-108816380D01*
X136260425Y-109096444D01*
X136934985Y-109380541D01*
X136946461Y-109380609D01*
X136957062Y-109385000D01*
X137688900Y-109385000D01*
X138420835Y-109389329D01*
X138431463Y-109385000D01*
X138442938Y-109385000D01*
X139119065Y-109104939D01*
X139796944Y-108828838D01*
X139815394Y-108816510D01*
X139815708Y-108816380D01*
X139815948Y-108816140D01*
X139834398Y-108803812D01*
X139851070Y-108781018D01*
X140831018Y-107801070D01*
X140853812Y-107784398D01*
X140858266Y-107773822D01*
X140866380Y-107765708D01*
X141146444Y-107089575D01*
X141430541Y-106415015D01*
X141430609Y-106403539D01*
X141435000Y-106392938D01*
X141435000Y-105661100D01*
X141439329Y-104929165D01*
X141435000Y-104918537D01*
X141435000Y-104907062D01*
X141154939Y-104230935D01*
X140878838Y-103553056D01*
X140866510Y-103534606D01*
X140866380Y-103534292D01*
X140866140Y-103534052D01*
X140853812Y-103515602D01*
X140831018Y-103498930D01*
X139851070Y-102518982D01*
X139834398Y-102496188D01*
X139823822Y-102491734D01*
X139815708Y-102483620D01*
X139139575Y-102203556D01*
X138465015Y-101919459D01*
X138453539Y-101919391D01*
X138442938Y-101915000D01*
X137711100Y-101915000D01*
X136979165Y-101910671D01*
X136968537Y-101915000D01*
X136957062Y-101915000D01*
X136280935Y-102195061D01*
X135603056Y-102471162D01*
X135584606Y-102483490D01*
X135584292Y-102483620D01*
X135584052Y-102483860D01*
X135565602Y-102496188D01*
X135548930Y-102518982D01*
X134568982Y-103498930D01*
X134546188Y-103515602D01*
X134541734Y-103526178D01*
X134533620Y-103534292D01*
X134253556Y-104210425D01*
X133969459Y-104884985D01*
X133969391Y-104896461D01*
X133965000Y-104907062D01*
X133965000Y-105638900D01*
X133960671Y-106370835D01*
X129935000Y-106370835D01*
X129935000Y-105651100D01*
X129939329Y-104919165D01*
X129935000Y-104908537D01*
X129935000Y-104897062D01*
X129654939Y-104220935D01*
X129378838Y-103543056D01*
X129366510Y-103524606D01*
X129366380Y-103524292D01*
X129366140Y-103524052D01*
X129353812Y-103505602D01*
X129331018Y-103488930D01*
X128351070Y-102508982D01*
X128334398Y-102486188D01*
X128323822Y-102481734D01*
X128315708Y-102473620D01*
X127639575Y-102193556D01*
X126965015Y-101909459D01*
X126953539Y-101909391D01*
X126942938Y-101905000D01*
X126211100Y-101905000D01*
X125479165Y-101900671D01*
X125468537Y-101905000D01*
X125457062Y-101905000D01*
X124780935Y-102185061D01*
X124103056Y-102461162D01*
X124084606Y-102473490D01*
X124084292Y-102473620D01*
X124084052Y-102473860D01*
X124065602Y-102486188D01*
X124048930Y-102508982D01*
X123068982Y-103488930D01*
X123046188Y-103505602D01*
X123041734Y-103516178D01*
X123033620Y-103524292D01*
X122753556Y-104200425D01*
X122469459Y-104874985D01*
X122469391Y-104886461D01*
X122465000Y-104897062D01*
X122465000Y-105628900D01*
X122460671Y-106360835D01*
X120410000Y-106360835D01*
X120410000Y-96860835D01*
X122460671Y-96860835D01*
X122465000Y-96871463D01*
X122465000Y-96882938D01*
X122745061Y-97559065D01*
X123021162Y-98236944D01*
X123033490Y-98255394D01*
X123033620Y-98255708D01*
X123033860Y-98255948D01*
X123046188Y-98274398D01*
X123068982Y-98291070D01*
X124048930Y-99271018D01*
X124065602Y-99293812D01*
X124076178Y-99298266D01*
X124084292Y-99306380D01*
X124760425Y-99586444D01*
X125434985Y-99870541D01*
X125446461Y-99870609D01*
X125457062Y-99875000D01*
X126188900Y-99875000D01*
X126920835Y-99879329D01*
X126931463Y-99875000D01*
X126942938Y-99875000D01*
X127619065Y-99594939D01*
X128296944Y-99318838D01*
X128315394Y-99306510D01*
X128315708Y-99306380D01*
X128315948Y-99306140D01*
X128334398Y-99293812D01*
X128351070Y-99271018D01*
X129331018Y-98291070D01*
X129353812Y-98274398D01*
X129358266Y-98263822D01*
X129366380Y-98255708D01*
X129646444Y-97579575D01*
X129930541Y-96905015D01*
X129930609Y-96893539D01*
X129935000Y-96882938D01*
X129935000Y-96860835D01*
X133960671Y-96860835D01*
X133965000Y-96871463D01*
X133965000Y-96882938D01*
X134245061Y-97559065D01*
X134521162Y-98236944D01*
X134533490Y-98255394D01*
X134533620Y-98255708D01*
X134533860Y-98255948D01*
X134546188Y-98274398D01*
X134568982Y-98291070D01*
X135548930Y-99271018D01*
X135565602Y-99293812D01*
X135576178Y-99298266D01*
X135584292Y-99306380D01*
X136260425Y-99586444D01*
X136934985Y-99870541D01*
X136946461Y-99870609D01*
X136957062Y-99875000D01*
X137688900Y-99875000D01*
X138420835Y-99879329D01*
X138431463Y-99875000D01*
X138442938Y-99875000D01*
X139119065Y-99594939D01*
X139796944Y-99318838D01*
X139815394Y-99306510D01*
X139815708Y-99306380D01*
X139815948Y-99306140D01*
X139834398Y-99293812D01*
X139851070Y-99271018D01*
X140831018Y-98291070D01*
X140853812Y-98274398D01*
X140858266Y-98263822D01*
X140866380Y-98255708D01*
X141146444Y-97579575D01*
X141430541Y-96905015D01*
X141430609Y-96893539D01*
X141435000Y-96882938D01*
X141435000Y-96151100D01*
X141439329Y-95419165D01*
X141435000Y-95408537D01*
X141435000Y-95397062D01*
X141154939Y-94720935D01*
X140878838Y-94043056D01*
X140866510Y-94024606D01*
X140866380Y-94024292D01*
X140866140Y-94024052D01*
X140853812Y-94005602D01*
X140831018Y-93988930D01*
X139851070Y-93008982D01*
X139834398Y-92986188D01*
X139823822Y-92981734D01*
X139815708Y-92973620D01*
X139139575Y-92693556D01*
X138465015Y-92409459D01*
X138453539Y-92409391D01*
X138442938Y-92405000D01*
X137711100Y-92405000D01*
X136979165Y-92400671D01*
X136968537Y-92405000D01*
X136957062Y-92405000D01*
X136280935Y-92685061D01*
X135603056Y-92961162D01*
X135584606Y-92973490D01*
X135584292Y-92973620D01*
X135584052Y-92973860D01*
X135565602Y-92986188D01*
X135548930Y-93008982D01*
X134568982Y-93988930D01*
X134546188Y-94005602D01*
X134541734Y-94016178D01*
X134533620Y-94024292D01*
X134253556Y-94700425D01*
X133969459Y-95374985D01*
X133969391Y-95386461D01*
X133965000Y-95397062D01*
X133965000Y-96128900D01*
X133960671Y-96860835D01*
X129935000Y-96860835D01*
X129935000Y-96151100D01*
X129939329Y-95419165D01*
X129935000Y-95408537D01*
X129935000Y-95397062D01*
X129654939Y-94720935D01*
X129378838Y-94043056D01*
X129366510Y-94024606D01*
X129366380Y-94024292D01*
X129366140Y-94024052D01*
X129353812Y-94005602D01*
X129331018Y-93988930D01*
X128351070Y-93008982D01*
X128334398Y-92986188D01*
X128323822Y-92981734D01*
X128315708Y-92973620D01*
X127639575Y-92693556D01*
X126965015Y-92409459D01*
X126953539Y-92409391D01*
X126942938Y-92405000D01*
X126211100Y-92405000D01*
X125479165Y-92400671D01*
X125468537Y-92405000D01*
X125457062Y-92405000D01*
X124780935Y-92685061D01*
X124103056Y-92961162D01*
X124084606Y-92973490D01*
X124084292Y-92973620D01*
X124084052Y-92973860D01*
X124065602Y-92986188D01*
X124048930Y-93008982D01*
X123068982Y-93988930D01*
X123046188Y-94005602D01*
X123041734Y-94016178D01*
X123033620Y-94024292D01*
X122753556Y-94700425D01*
X122469459Y-95374985D01*
X122469391Y-95386461D01*
X122465000Y-95397062D01*
X122465000Y-96128900D01*
X122460671Y-96860835D01*
X120410000Y-96860835D01*
X120410000Y-87360835D01*
X122460671Y-87360835D01*
X122465000Y-87371463D01*
X122465000Y-87382938D01*
X122745061Y-88059065D01*
X123021162Y-88736944D01*
X123033490Y-88755394D01*
X123033620Y-88755708D01*
X123033860Y-88755948D01*
X123046188Y-88774398D01*
X123068982Y-88791070D01*
X124048930Y-89771018D01*
X124065602Y-89793812D01*
X124076178Y-89798266D01*
X124084292Y-89806380D01*
X124760425Y-90086444D01*
X125434985Y-90370541D01*
X125446461Y-90370609D01*
X125457062Y-90375000D01*
X126188900Y-90375000D01*
X126920835Y-90379329D01*
X126931463Y-90375000D01*
X126942938Y-90375000D01*
X127619065Y-90094939D01*
X128296944Y-89818838D01*
X128315394Y-89806510D01*
X128315708Y-89806380D01*
X128315948Y-89806140D01*
X128334398Y-89793812D01*
X128351070Y-89771018D01*
X129331018Y-88791070D01*
X129353812Y-88774398D01*
X129358266Y-88763822D01*
X129366380Y-88755708D01*
X129646444Y-88079575D01*
X129930541Y-87405015D01*
X129930609Y-87393539D01*
X129935000Y-87382938D01*
X129935000Y-87360835D01*
X133960671Y-87360835D01*
X133965000Y-87371463D01*
X133965000Y-87382938D01*
X134245061Y-88059065D01*
X134521162Y-88736944D01*
X134533490Y-88755394D01*
X134533620Y-88755708D01*
X134533860Y-88755948D01*
X134546188Y-88774398D01*
X134568982Y-88791070D01*
X135548930Y-89771018D01*
X135565602Y-89793812D01*
X135576178Y-89798266D01*
X135584292Y-89806380D01*
X136260425Y-90086444D01*
X136934985Y-90370541D01*
X136946461Y-90370609D01*
X136957062Y-90375000D01*
X137688900Y-90375000D01*
X138420835Y-90379329D01*
X138431463Y-90375000D01*
X138442938Y-90375000D01*
X139119065Y-90094939D01*
X139796944Y-89818838D01*
X139815394Y-89806510D01*
X139815708Y-89806380D01*
X139815948Y-89806140D01*
X139834398Y-89793812D01*
X139851070Y-89771018D01*
X140831018Y-88791070D01*
X140853812Y-88774398D01*
X140858266Y-88763822D01*
X140866380Y-88755708D01*
X141146444Y-88079575D01*
X141430541Y-87405015D01*
X141430609Y-87393539D01*
X141435000Y-87382938D01*
X141435000Y-86651100D01*
X141439329Y-85919165D01*
X141435000Y-85908537D01*
X141435000Y-85897062D01*
X141154939Y-85220935D01*
X140878838Y-84543056D01*
X140866510Y-84524606D01*
X140866380Y-84524292D01*
X140866140Y-84524052D01*
X140853812Y-84505602D01*
X140831018Y-84488930D01*
X139851070Y-83508982D01*
X139834398Y-83486188D01*
X139823822Y-83481734D01*
X139815708Y-83473620D01*
X139139575Y-83193556D01*
X138465015Y-82909459D01*
X138453539Y-82909391D01*
X138442938Y-82905000D01*
X137711100Y-82905000D01*
X136979165Y-82900671D01*
X136968537Y-82905000D01*
X136957062Y-82905000D01*
X136280935Y-83185061D01*
X135603056Y-83461162D01*
X135584606Y-83473490D01*
X135584292Y-83473620D01*
X135584052Y-83473860D01*
X135565602Y-83486188D01*
X135548930Y-83508982D01*
X134568982Y-84488930D01*
X134546188Y-84505602D01*
X134541734Y-84516178D01*
X134533620Y-84524292D01*
X134253556Y-85200425D01*
X133969459Y-85874985D01*
X133969391Y-85886461D01*
X133965000Y-85897062D01*
X133965000Y-86628900D01*
X133960671Y-87360835D01*
X129935000Y-87360835D01*
X129935000Y-86651100D01*
X129939329Y-85919165D01*
X129935000Y-85908537D01*
X129935000Y-85897062D01*
X129654939Y-85220935D01*
X129378838Y-84543056D01*
X129366510Y-84524606D01*
X129366380Y-84524292D01*
X129366140Y-84524052D01*
X129353812Y-84505602D01*
X129331018Y-84488930D01*
X128351070Y-83508982D01*
X128334398Y-83486188D01*
X128323822Y-83481734D01*
X128315708Y-83473620D01*
X127639575Y-83193556D01*
X126965015Y-82909459D01*
X126953539Y-82909391D01*
X126942938Y-82905000D01*
X126211100Y-82905000D01*
X125479165Y-82900671D01*
X125468537Y-82905000D01*
X125457062Y-82905000D01*
X124780935Y-83185061D01*
X124103056Y-83461162D01*
X124084606Y-83473490D01*
X124084292Y-83473620D01*
X124084052Y-83473860D01*
X124065602Y-83486188D01*
X124048930Y-83508982D01*
X123068982Y-84488930D01*
X123046188Y-84505602D01*
X123041734Y-84516178D01*
X123033620Y-84524292D01*
X122753556Y-85200425D01*
X122469459Y-85874985D01*
X122469391Y-85886461D01*
X122465000Y-85897062D01*
X122465000Y-86628900D01*
X122460671Y-87360835D01*
X120410000Y-87360835D01*
X120410000Y-78500426D01*
X123908327Y-78500426D01*
X123915000Y-78937435D01*
X123915000Y-79374515D01*
X123921930Y-79391244D01*
X123922206Y-79409350D01*
X124243334Y-80184621D01*
X124252601Y-80189557D01*
X124262870Y-80214349D01*
X124905651Y-80857130D01*
X124930443Y-80867399D01*
X124935379Y-80876666D01*
X125341653Y-81037728D01*
X125745485Y-81205000D01*
X125763594Y-81205000D01*
X125780426Y-81211673D01*
X126217435Y-81205000D01*
X126654515Y-81205000D01*
X126671244Y-81198070D01*
X126689350Y-81197794D01*
X127464621Y-80876666D01*
X127469557Y-80867399D01*
X127494349Y-80857130D01*
X128137130Y-80214349D01*
X128147399Y-80189557D01*
X128156666Y-80184621D01*
X128317728Y-79778347D01*
X128485000Y-79374515D01*
X128485000Y-79356406D01*
X128491673Y-79339574D01*
X128485000Y-78902565D01*
X128485000Y-78500426D01*
X135408327Y-78500426D01*
X135415000Y-78937435D01*
X135415000Y-79374515D01*
X135421930Y-79391244D01*
X135422206Y-79409350D01*
X135743334Y-80184621D01*
X135752601Y-80189557D01*
X135762870Y-80214349D01*
X136405651Y-80857130D01*
X136430443Y-80867399D01*
X136435379Y-80876666D01*
X136841653Y-81037728D01*
X137245485Y-81205000D01*
X137263594Y-81205000D01*
X137280426Y-81211673D01*
X137717435Y-81205000D01*
X138154515Y-81205000D01*
X138171244Y-81198070D01*
X138189350Y-81197794D01*
X138964621Y-80876666D01*
X138969557Y-80867399D01*
X138994349Y-80857130D01*
X139637130Y-80214349D01*
X139647399Y-80189557D01*
X139656666Y-80184621D01*
X139817728Y-79778347D01*
X139985000Y-79374515D01*
X139985000Y-79356406D01*
X139991673Y-79339574D01*
X139985000Y-78902565D01*
X139985000Y-78465485D01*
X139978070Y-78448756D01*
X139977794Y-78430650D01*
X139656666Y-77655379D01*
X139647399Y-77650443D01*
X139637130Y-77625651D01*
X138994349Y-76982870D01*
X138969557Y-76972601D01*
X138964621Y-76963334D01*
X138558347Y-76802272D01*
X138154515Y-76635000D01*
X138136406Y-76635000D01*
X138119574Y-76628327D01*
X137682565Y-76635000D01*
X137245485Y-76635000D01*
X137228756Y-76641930D01*
X137210650Y-76642206D01*
X136435379Y-76963334D01*
X136430443Y-76972601D01*
X136405651Y-76982870D01*
X135762870Y-77625651D01*
X135752601Y-77650443D01*
X135743334Y-77655379D01*
X135582272Y-78061653D01*
X135415000Y-78465485D01*
X135415000Y-78483594D01*
X135408327Y-78500426D01*
X128485000Y-78500426D01*
X128485000Y-78465485D01*
X128478070Y-78448756D01*
X128477794Y-78430650D01*
X128156666Y-77655379D01*
X128147399Y-77650443D01*
X128137130Y-77625651D01*
X127494349Y-76982870D01*
X127469557Y-76972601D01*
X127464621Y-76963334D01*
X127058347Y-76802272D01*
X126654515Y-76635000D01*
X126636406Y-76635000D01*
X126619574Y-76628327D01*
X126182565Y-76635000D01*
X125745485Y-76635000D01*
X125728756Y-76641930D01*
X125710650Y-76642206D01*
X124935379Y-76963334D01*
X124930443Y-76972601D01*
X124905651Y-76982870D01*
X124262870Y-77625651D01*
X124252601Y-77650443D01*
X124243334Y-77655379D01*
X124082272Y-78061653D01*
X123915000Y-78465485D01*
X123915000Y-78483594D01*
X123908327Y-78500426D01*
X120410000Y-78500426D01*
X120410000Y-69360835D01*
X120960671Y-69360835D01*
X120965000Y-69371463D01*
X120965000Y-69382938D01*
X121245061Y-70059065D01*
X121521162Y-70736944D01*
X121533490Y-70755394D01*
X121533620Y-70755708D01*
X121533860Y-70755948D01*
X121546188Y-70774398D01*
X121568982Y-70791070D01*
X122548930Y-71771018D01*
X122565602Y-71793812D01*
X122576178Y-71798266D01*
X122584292Y-71806380D01*
X123260425Y-72086444D01*
X123934985Y-72370541D01*
X123946461Y-72370609D01*
X123957062Y-72375000D01*
X124688900Y-72375000D01*
X125420835Y-72379329D01*
X125431463Y-72375000D01*
X125442938Y-72375000D01*
X126119065Y-72094939D01*
X126796944Y-71818838D01*
X126815394Y-71806510D01*
X126815708Y-71806380D01*
X126815948Y-71806140D01*
X126834398Y-71793812D01*
X126851070Y-71771018D01*
X127831018Y-70791070D01*
X127853812Y-70774398D01*
X127858266Y-70763822D01*
X127866380Y-70755708D01*
X128146444Y-70079575D01*
X128430541Y-69405015D01*
X128430609Y-69393539D01*
X128435000Y-69382938D01*
X128435000Y-69360835D01*
X135960671Y-69360835D01*
X135965000Y-69371463D01*
X135965000Y-69382938D01*
X136245061Y-70059065D01*
X136521162Y-70736944D01*
X136533490Y-70755394D01*
X136533620Y-70755708D01*
X136533860Y-70755948D01*
X136546188Y-70774398D01*
X136568982Y-70791070D01*
X137548930Y-71771018D01*
X137565602Y-71793812D01*
X137576178Y-71798266D01*
X137584292Y-71806380D01*
X138260425Y-72086444D01*
X138934985Y-72370541D01*
X138946461Y-72370609D01*
X138957062Y-72375000D01*
X139688900Y-72375000D01*
X140420835Y-72379329D01*
X140431463Y-72375000D01*
X140442938Y-72375000D01*
X141119065Y-72094939D01*
X141796944Y-71818838D01*
X141815394Y-71806510D01*
X141815708Y-71806380D01*
X141815948Y-71806140D01*
X141834398Y-71793812D01*
X141851070Y-71771018D01*
X142831018Y-70791070D01*
X142853812Y-70774398D01*
X142858266Y-70763822D01*
X142866380Y-70755708D01*
X143146444Y-70079575D01*
X143430541Y-69405015D01*
X143430609Y-69393539D01*
X143435000Y-69382938D01*
X143435000Y-68651100D01*
X143439329Y-67919165D01*
X143435000Y-67908537D01*
X143435000Y-67897062D01*
X143154939Y-67220935D01*
X142878838Y-66543056D01*
X142866510Y-66524606D01*
X142866380Y-66524292D01*
X142866140Y-66524052D01*
X142853812Y-66505602D01*
X142831018Y-66488930D01*
X141851070Y-65508982D01*
X141834398Y-65486188D01*
X141823822Y-65481734D01*
X141815708Y-65473620D01*
X141139575Y-65193556D01*
X140465015Y-64909459D01*
X140453539Y-64909391D01*
X140442938Y-64905000D01*
X139711100Y-64905000D01*
X138979165Y-64900671D01*
X138968537Y-64905000D01*
X138957062Y-64905000D01*
X138280935Y-65185061D01*
X137603056Y-65461162D01*
X137584606Y-65473490D01*
X137584292Y-65473620D01*
X137584052Y-65473860D01*
X137565602Y-65486188D01*
X137548930Y-65508982D01*
X136568982Y-66488930D01*
X136546188Y-66505602D01*
X136541734Y-66516178D01*
X136533620Y-66524292D01*
X136253556Y-67200425D01*
X135969459Y-67874985D01*
X135969391Y-67886461D01*
X135965000Y-67897062D01*
X135965000Y-68628900D01*
X135960671Y-69360835D01*
X128435000Y-69360835D01*
X128435000Y-68651100D01*
X128439329Y-67919165D01*
X128435000Y-67908537D01*
X128435000Y-67897062D01*
X128154939Y-67220935D01*
X127878838Y-66543056D01*
X127866510Y-66524606D01*
X127866380Y-66524292D01*
X127866140Y-66524052D01*
X127853812Y-66505602D01*
X127831018Y-66488930D01*
X126851070Y-65508982D01*
X126834398Y-65486188D01*
X126823822Y-65481734D01*
X126815708Y-65473620D01*
X126139575Y-65193556D01*
X125465015Y-64909459D01*
X125453539Y-64909391D01*
X125442938Y-64905000D01*
X124711100Y-64905000D01*
X123979165Y-64900671D01*
X123968537Y-64905000D01*
X123957062Y-64905000D01*
X123280935Y-65185061D01*
X122603056Y-65461162D01*
X122584606Y-65473490D01*
X122584292Y-65473620D01*
X122584052Y-65473860D01*
X122565602Y-65486188D01*
X122548930Y-65508982D01*
X121568982Y-66488930D01*
X121546188Y-66505602D01*
X121541734Y-66516178D01*
X121533620Y-66524292D01*
X121253556Y-67200425D01*
X120969459Y-67874985D01*
X120969391Y-67886461D01*
X120965000Y-67897062D01*
X120965000Y-68628900D01*
X120960671Y-69360835D01*
X120410000Y-69360835D01*
X120410000Y-57860835D01*
X120960671Y-57860835D01*
X120965000Y-57871463D01*
X120965000Y-57882938D01*
X121245061Y-58559065D01*
X121521162Y-59236944D01*
X121533490Y-59255394D01*
X121533620Y-59255708D01*
X121533860Y-59255948D01*
X121546188Y-59274398D01*
X121568982Y-59291070D01*
X122548930Y-60271018D01*
X122565602Y-60293812D01*
X122576178Y-60298266D01*
X122584292Y-60306380D01*
X123260425Y-60586444D01*
X123934985Y-60870541D01*
X123946461Y-60870609D01*
X123957062Y-60875000D01*
X124688900Y-60875000D01*
X125420835Y-60879329D01*
X125431463Y-60875000D01*
X125442938Y-60875000D01*
X126119065Y-60594939D01*
X126796944Y-60318838D01*
X126815394Y-60306510D01*
X126815708Y-60306380D01*
X126815948Y-60306140D01*
X126834398Y-60293812D01*
X126851070Y-60271018D01*
X127831018Y-59291070D01*
X127853812Y-59274398D01*
X127858266Y-59263822D01*
X127866380Y-59255708D01*
X128146444Y-58579575D01*
X128430541Y-57905015D01*
X128430609Y-57893539D01*
X128435000Y-57882938D01*
X128435000Y-57870835D01*
X135960671Y-57870835D01*
X135965000Y-57881463D01*
X135965000Y-57892938D01*
X136245061Y-58569065D01*
X136521162Y-59246944D01*
X136533490Y-59265394D01*
X136533620Y-59265708D01*
X136533860Y-59265948D01*
X136546188Y-59284398D01*
X136568982Y-59301070D01*
X137548930Y-60281018D01*
X137565602Y-60303812D01*
X137576178Y-60308266D01*
X137584292Y-60316380D01*
X138260425Y-60596444D01*
X138934985Y-60880541D01*
X138946461Y-60880609D01*
X138957062Y-60885000D01*
X139688900Y-60885000D01*
X140420835Y-60889329D01*
X140431463Y-60885000D01*
X140442938Y-60885000D01*
X141119065Y-60604939D01*
X141796944Y-60328838D01*
X141815394Y-60316510D01*
X141815708Y-60316380D01*
X141815948Y-60316140D01*
X141834398Y-60303812D01*
X141851070Y-60281018D01*
X142831018Y-59301070D01*
X142853812Y-59284398D01*
X142858266Y-59273822D01*
X142866380Y-59265708D01*
X143146444Y-58589575D01*
X143430541Y-57915015D01*
X143430609Y-57903539D01*
X143435000Y-57892938D01*
X143435000Y-57161100D01*
X143439329Y-56429165D01*
X143435000Y-56418537D01*
X143435000Y-56407062D01*
X143154939Y-55730935D01*
X142878838Y-55053056D01*
X142866510Y-55034606D01*
X142866380Y-55034292D01*
X142866140Y-55034052D01*
X142853812Y-55015602D01*
X142831018Y-54998930D01*
X141851070Y-54018982D01*
X141834398Y-53996188D01*
X141823822Y-53991734D01*
X141815708Y-53983620D01*
X141139575Y-53703556D01*
X140465015Y-53419459D01*
X140453539Y-53419391D01*
X140442938Y-53415000D01*
X139711100Y-53415000D01*
X138979165Y-53410671D01*
X138968537Y-53415000D01*
X138957062Y-53415000D01*
X138280935Y-53695061D01*
X137603056Y-53971162D01*
X137584606Y-53983490D01*
X137584292Y-53983620D01*
X137584052Y-53983860D01*
X137565602Y-53996188D01*
X137548930Y-54018982D01*
X136568982Y-54998930D01*
X136546188Y-55015602D01*
X136541734Y-55026178D01*
X136533620Y-55034292D01*
X136253556Y-55710425D01*
X135969459Y-56384985D01*
X135969391Y-56396461D01*
X135965000Y-56407062D01*
X135965000Y-57138900D01*
X135960671Y-57870835D01*
X128435000Y-57870835D01*
X128435000Y-57151100D01*
X128439329Y-56419165D01*
X128435000Y-56408537D01*
X128435000Y-56397062D01*
X128154939Y-55720935D01*
X127878838Y-55043056D01*
X127866510Y-55024606D01*
X127866380Y-55024292D01*
X127866140Y-55024052D01*
X127853812Y-55005602D01*
X127831018Y-54988930D01*
X126851070Y-54008982D01*
X126834398Y-53986188D01*
X126823822Y-53981734D01*
X126815708Y-53973620D01*
X126139575Y-53693556D01*
X125465015Y-53409459D01*
X125453539Y-53409391D01*
X125442938Y-53405000D01*
X124711100Y-53405000D01*
X123979165Y-53400671D01*
X123968537Y-53405000D01*
X123957062Y-53405000D01*
X123280935Y-53685061D01*
X122603056Y-53961162D01*
X122584606Y-53973490D01*
X122584292Y-53973620D01*
X122584052Y-53973860D01*
X122565602Y-53986188D01*
X122548930Y-54008982D01*
X121568982Y-54988930D01*
X121546188Y-55005602D01*
X121541734Y-55016178D01*
X121533620Y-55024292D01*
X121253556Y-55700425D01*
X120969459Y-56374985D01*
X120969391Y-56386461D01*
X120965000Y-56397062D01*
X120965000Y-57128900D01*
X120960671Y-57860835D01*
X120410000Y-57860835D01*
X120410000Y-44870835D01*
X120960671Y-44870835D01*
X120965000Y-44881463D01*
X120965000Y-44892938D01*
X121245061Y-45569065D01*
X121521162Y-46246944D01*
X121533490Y-46265394D01*
X121533620Y-46265708D01*
X121533860Y-46265948D01*
X121546188Y-46284398D01*
X121568982Y-46301070D01*
X122548930Y-47281018D01*
X122565602Y-47303812D01*
X122576178Y-47308266D01*
X122584292Y-47316380D01*
X123260425Y-47596444D01*
X123934985Y-47880541D01*
X123946461Y-47880609D01*
X123957062Y-47885000D01*
X124688900Y-47885000D01*
X125420835Y-47889329D01*
X125431463Y-47885000D01*
X125442938Y-47885000D01*
X126119065Y-47604939D01*
X126796944Y-47328838D01*
X126815394Y-47316510D01*
X126815708Y-47316380D01*
X126815948Y-47316140D01*
X126834398Y-47303812D01*
X126851070Y-47281018D01*
X127831018Y-46301070D01*
X127853812Y-46284398D01*
X127858266Y-46273822D01*
X127866380Y-46265708D01*
X128146444Y-45589575D01*
X128430541Y-44915015D01*
X128430609Y-44903539D01*
X128435000Y-44892938D01*
X128435000Y-44860835D01*
X135960671Y-44860835D01*
X135965000Y-44871463D01*
X135965000Y-44882938D01*
X136245061Y-45559065D01*
X136521162Y-46236944D01*
X136533490Y-46255394D01*
X136533620Y-46255708D01*
X136533860Y-46255948D01*
X136546188Y-46274398D01*
X136568982Y-46291070D01*
X137548930Y-47271018D01*
X137565602Y-47293812D01*
X137576178Y-47298266D01*
X137584292Y-47306380D01*
X138260425Y-47586444D01*
X138934985Y-47870541D01*
X138946461Y-47870609D01*
X138957062Y-47875000D01*
X139688900Y-47875000D01*
X140420835Y-47879329D01*
X140431463Y-47875000D01*
X140442938Y-47875000D01*
X141119065Y-47594939D01*
X141796944Y-47318838D01*
X141815394Y-47306510D01*
X141815708Y-47306380D01*
X141815948Y-47306140D01*
X141834398Y-47293812D01*
X141851070Y-47271018D01*
X142831018Y-46291070D01*
X142853812Y-46274398D01*
X142858266Y-46263822D01*
X142866380Y-46255708D01*
X143146444Y-45579575D01*
X143430541Y-44905015D01*
X143430609Y-44893539D01*
X143435000Y-44882938D01*
X143435000Y-44151100D01*
X143439329Y-43419165D01*
X143435000Y-43408537D01*
X143435000Y-43397062D01*
X143154939Y-42720935D01*
X142878838Y-42043056D01*
X142866510Y-42024606D01*
X142866380Y-42024292D01*
X142866140Y-42024052D01*
X142853812Y-42005602D01*
X142831018Y-41988930D01*
X141851070Y-41008982D01*
X141834398Y-40986188D01*
X141823822Y-40981734D01*
X141815708Y-40973620D01*
X141139575Y-40693556D01*
X140465015Y-40409459D01*
X140453539Y-40409391D01*
X140442938Y-40405000D01*
X139711100Y-40405000D01*
X138979165Y-40400671D01*
X138968537Y-40405000D01*
X138957062Y-40405000D01*
X138280935Y-40685061D01*
X137603056Y-40961162D01*
X137584606Y-40973490D01*
X137584292Y-40973620D01*
X137584052Y-40973860D01*
X137565602Y-40986188D01*
X137548930Y-41008982D01*
X136568982Y-41988930D01*
X136546188Y-42005602D01*
X136541734Y-42016178D01*
X136533620Y-42024292D01*
X136253556Y-42700425D01*
X135969459Y-43374985D01*
X135969391Y-43386461D01*
X135965000Y-43397062D01*
X135965000Y-44128900D01*
X135960671Y-44860835D01*
X128435000Y-44860835D01*
X128435000Y-44161100D01*
X128439329Y-43429165D01*
X128435000Y-43418537D01*
X128435000Y-43407062D01*
X128154939Y-42730935D01*
X127878838Y-42053056D01*
X127866510Y-42034606D01*
X127866380Y-42034292D01*
X127866140Y-42034052D01*
X127853812Y-42015602D01*
X127831018Y-41998930D01*
X126851070Y-41018982D01*
X126834398Y-40996188D01*
X126823822Y-40991734D01*
X126815708Y-40983620D01*
X126139575Y-40703556D01*
X125465015Y-40419459D01*
X125453539Y-40419391D01*
X125442938Y-40415000D01*
X124711100Y-40415000D01*
X123979165Y-40410671D01*
X123968537Y-40415000D01*
X123957062Y-40415000D01*
X123280935Y-40695061D01*
X122603056Y-40971162D01*
X122584606Y-40983490D01*
X122584292Y-40983620D01*
X122584052Y-40983860D01*
X122565602Y-40996188D01*
X122548930Y-41018982D01*
X121568982Y-41998930D01*
X121546188Y-42015602D01*
X121541734Y-42026178D01*
X121533620Y-42034292D01*
X121253556Y-42710425D01*
X120969459Y-43384985D01*
X120969391Y-43396461D01*
X120965000Y-43407062D01*
X120965000Y-44138900D01*
X120960671Y-44870835D01*
X120410000Y-44870835D01*
X120410000Y-33370835D01*
X120960671Y-33370835D01*
X120965000Y-33381463D01*
X120965000Y-33392938D01*
X121245061Y-34069065D01*
X121521162Y-34746944D01*
X121533490Y-34765394D01*
X121533620Y-34765708D01*
X121533860Y-34765948D01*
X121546188Y-34784398D01*
X121568982Y-34801070D01*
X122548930Y-35781018D01*
X122565602Y-35803812D01*
X122576178Y-35808266D01*
X122584292Y-35816380D01*
X123260425Y-36096444D01*
X123934985Y-36380541D01*
X123946461Y-36380609D01*
X123957062Y-36385000D01*
X124688900Y-36385000D01*
X125420835Y-36389329D01*
X125431463Y-36385000D01*
X125442938Y-36385000D01*
X126119065Y-36104939D01*
X126796944Y-35828838D01*
X126815394Y-35816510D01*
X126815708Y-35816380D01*
X126815948Y-35816140D01*
X126834398Y-35803812D01*
X126851070Y-35781018D01*
X127831018Y-34801070D01*
X127853812Y-34784398D01*
X127858266Y-34773822D01*
X127866380Y-34765708D01*
X128146444Y-34089575D01*
X128430541Y-33415015D01*
X128430609Y-33403539D01*
X128435000Y-33392938D01*
X128435000Y-33360835D01*
X135960671Y-33360835D01*
X135965000Y-33371463D01*
X135965000Y-33382938D01*
X136245061Y-34059065D01*
X136521162Y-34736944D01*
X136533490Y-34755394D01*
X136533620Y-34755708D01*
X136533860Y-34755948D01*
X136546188Y-34774398D01*
X136568982Y-34791070D01*
X137548930Y-35771018D01*
X137565602Y-35793812D01*
X137576178Y-35798266D01*
X137584292Y-35806380D01*
X138260425Y-36086444D01*
X138934985Y-36370541D01*
X138946461Y-36370609D01*
X138957062Y-36375000D01*
X139688900Y-36375000D01*
X140420835Y-36379329D01*
X140431463Y-36375000D01*
X140442938Y-36375000D01*
X141119065Y-36094939D01*
X141796944Y-35818838D01*
X141815394Y-35806510D01*
X141815708Y-35806380D01*
X141815948Y-35806140D01*
X141834398Y-35793812D01*
X141851070Y-35771018D01*
X142831018Y-34791070D01*
X142853812Y-34774398D01*
X142858266Y-34763822D01*
X142866380Y-34755708D01*
X143146444Y-34079575D01*
X143430541Y-33405015D01*
X143430609Y-33393539D01*
X143435000Y-33382938D01*
X143435000Y-32651100D01*
X143439329Y-31919165D01*
X143435000Y-31908537D01*
X143435000Y-31897062D01*
X143154939Y-31220935D01*
X142878838Y-30543056D01*
X142866510Y-30524606D01*
X142866380Y-30524292D01*
X142866140Y-30524052D01*
X142853812Y-30505602D01*
X142831018Y-30488930D01*
X141851070Y-29508982D01*
X141834398Y-29486188D01*
X141823822Y-29481734D01*
X141815708Y-29473620D01*
X141139575Y-29193556D01*
X140465015Y-28909459D01*
X140453539Y-28909391D01*
X140442938Y-28905000D01*
X139711100Y-28905000D01*
X138979165Y-28900671D01*
X138968537Y-28905000D01*
X138957062Y-28905000D01*
X138280935Y-29185061D01*
X137603056Y-29461162D01*
X137584606Y-29473490D01*
X137584292Y-29473620D01*
X137584052Y-29473860D01*
X137565602Y-29486188D01*
X137548930Y-29508982D01*
X136568982Y-30488930D01*
X136546188Y-30505602D01*
X136541734Y-30516178D01*
X136533620Y-30524292D01*
X136253556Y-31200425D01*
X135969459Y-31874985D01*
X135969391Y-31886461D01*
X135965000Y-31897062D01*
X135965000Y-32628900D01*
X135960671Y-33360835D01*
X128435000Y-33360835D01*
X128435000Y-32661100D01*
X128439329Y-31929165D01*
X128435000Y-31918537D01*
X128435000Y-31907062D01*
X128154939Y-31230935D01*
X127878838Y-30553056D01*
X127866510Y-30534606D01*
X127866380Y-30534292D01*
X127866140Y-30534052D01*
X127853812Y-30515602D01*
X127831018Y-30498930D01*
X126851070Y-29518982D01*
X126834398Y-29496188D01*
X126823822Y-29491734D01*
X126815708Y-29483620D01*
X126139575Y-29203556D01*
X125465015Y-28919459D01*
X125453539Y-28919391D01*
X125442938Y-28915000D01*
X124711100Y-28915000D01*
X123979165Y-28910671D01*
X123968537Y-28915000D01*
X123957062Y-28915000D01*
X123280935Y-29195061D01*
X122603056Y-29471162D01*
X122584606Y-29483490D01*
X122584292Y-29483620D01*
X122584052Y-29483860D01*
X122565602Y-29496188D01*
X122548930Y-29518982D01*
X121568982Y-30498930D01*
X121546188Y-30515602D01*
X121541734Y-30526178D01*
X121533620Y-30534292D01*
X121253556Y-31210425D01*
X120969459Y-31884985D01*
X120969391Y-31896461D01*
X120965000Y-31907062D01*
X120965000Y-32638900D01*
X120960671Y-33370835D01*
X120410000Y-33370835D01*
X120410000Y-22960426D01*
X122418327Y-22960426D01*
X122425000Y-23397435D01*
X122425000Y-23834515D01*
X122431930Y-23851244D01*
X122432206Y-23869350D01*
X122753334Y-24644621D01*
X122762601Y-24649557D01*
X122772870Y-24674349D01*
X123415651Y-25317130D01*
X123440443Y-25327399D01*
X123445379Y-25336666D01*
X123851653Y-25497728D01*
X124255485Y-25665000D01*
X124273594Y-25665000D01*
X124290426Y-25671673D01*
X124727435Y-25665000D01*
X125164515Y-25665000D01*
X125181244Y-25658070D01*
X125199350Y-25657794D01*
X125974621Y-25336666D01*
X125979557Y-25327399D01*
X126004349Y-25317130D01*
X126647130Y-24674349D01*
X126657399Y-24649557D01*
X126666666Y-24644621D01*
X126827728Y-24238347D01*
X126995000Y-23834515D01*
X126995000Y-23816406D01*
X127001673Y-23799574D01*
X126995000Y-23362565D01*
X126995000Y-22950426D01*
X137408327Y-22950426D01*
X137415000Y-23387435D01*
X137415000Y-23824515D01*
X137421930Y-23841244D01*
X137422206Y-23859350D01*
X137743334Y-24634621D01*
X137752601Y-24639557D01*
X137762870Y-24664349D01*
X138405651Y-25307130D01*
X138430443Y-25317399D01*
X138435379Y-25326666D01*
X138841653Y-25487728D01*
X139245485Y-25655000D01*
X139263594Y-25655000D01*
X139280426Y-25661673D01*
X139717435Y-25655000D01*
X140154515Y-25655000D01*
X140171244Y-25648070D01*
X140189350Y-25647794D01*
X140964621Y-25326666D01*
X140969557Y-25317399D01*
X140994349Y-25307130D01*
X141637130Y-24664349D01*
X141647399Y-24639557D01*
X141656666Y-24634621D01*
X141817728Y-24228347D01*
X141985000Y-23824515D01*
X141985000Y-23806406D01*
X141991673Y-23789574D01*
X141985000Y-23352565D01*
X141985000Y-22915485D01*
X141978070Y-22898756D01*
X141977794Y-22880650D01*
X141656666Y-22105379D01*
X141647399Y-22100443D01*
X141637130Y-22075651D01*
X140994349Y-21432870D01*
X140969557Y-21422601D01*
X140964621Y-21413334D01*
X140558347Y-21252272D01*
X140154515Y-21085000D01*
X140136406Y-21085000D01*
X140119574Y-21078327D01*
X139682565Y-21085000D01*
X139245485Y-21085000D01*
X139228756Y-21091930D01*
X139210650Y-21092206D01*
X138435379Y-21413334D01*
X138430443Y-21422601D01*
X138405651Y-21432870D01*
X137762870Y-22075651D01*
X137752601Y-22100443D01*
X137743334Y-22105379D01*
X137582272Y-22511653D01*
X137415000Y-22915485D01*
X137415000Y-22933594D01*
X137408327Y-22950426D01*
X126995000Y-22950426D01*
X126995000Y-22925485D01*
X126988070Y-22908756D01*
X126987794Y-22890650D01*
X126666666Y-22115379D01*
X126657399Y-22110443D01*
X126647130Y-22085651D01*
X126004349Y-21442870D01*
X125979557Y-21432601D01*
X125974621Y-21423334D01*
X125568347Y-21262272D01*
X125164515Y-21095000D01*
X125146406Y-21095000D01*
X125129574Y-21088327D01*
X124692565Y-21095000D01*
X124255485Y-21095000D01*
X124238756Y-21101930D01*
X124220650Y-21102206D01*
X123445379Y-21423334D01*
X123440443Y-21432601D01*
X123415651Y-21442870D01*
X122772870Y-22085651D01*
X122762601Y-22110443D01*
X122753334Y-22115379D01*
X122592272Y-22521653D01*
X122425000Y-22925485D01*
X122425000Y-22943594D01*
X122418327Y-22960426D01*
X120410000Y-22960426D01*
X120410000Y-6860000D01*
X126654763Y-6860000D01*
X125910379Y-7168334D01*
M02*
