M48
;DRILL file {KiCad (5.0.1)-3} date 22/04/2020 20:41:03
;FORMAT={-:-/ absolute / inch / decimal}
FMAT,2
INCH,TZ
T1C0.1299
T2C0.2441
%
G90
G05
M72
T1
X5.0069Y-0.3593
X5.4213Y-3.1071
X4.9685Y-3.1071
X5.5Y-0.9201
X5.0075Y-5.1839
X4.9098Y-0.9205
T2
X4.9094Y-1.7382
X5.5Y-1.285
X4.9685Y-4.1591
X4.9685Y-3.411
X5.4213Y-4.5335
X4.9094Y-1.2854
X5.5Y-2.7024
X4.9685Y-4.5335
X5.4213Y-3.785
X4.9094Y-2.7024
X4.9094Y-2.2496
X4.9685Y-3.785
X5.5Y-1.7378
X5.4213Y-4.1594
X5.5Y-2.25
X5.4213Y-3.411
T0
M30
