M48
;DRILL file {KiCad (5.0.1)-3} date 01/09/2019 21:44:58
;FORMAT={-:-/ absolute / inch / decimal}
FMAT,2
INCH,TZ
T1C0.0157
T2C0.0295
T3C0.0315
T4C0.0394
T5C0.0394
T6C0.0400
T7C0.0433
T8C0.0630
T9C0.0709
T10C0.0787
%
G90
G05
M72
T1
X0.8169Y-4.252
X0.8222Y-3.2283
X0.8465Y-1.8406
X0.8563Y-3.8091
X0.8661Y-4.2854
X0.8709Y-3.1685
X0.8957Y-1.6508
X0.8957Y-3.563
X0.8957Y-3.75
X0.9043Y-3.0315
X0.9055Y-1.8898
X0.9055Y-2.4508
X0.9055Y-2.9331
X0.9154Y-4.3996
X0.9547Y-3.1201
X0.9843Y-1.4075
X0.9941Y-2.8996
X0.9941Y-2.9724
X1.0028Y-2.0571
X1.0236Y-2.7067
X1.063Y-3.7008
X1.0827Y-2.8996
X1.1122Y-2.1358
X1.1122Y-2.4705
X1.1122Y-3.5138
X1.1197Y-3.6654
X1.122Y-2.0079
X1.122Y-2.7165
X1.122Y-3.622
X1.1516Y-1.1417
X1.1614Y-2.3819
X1.1967Y-3.3112
X1.2008Y-3.268
X1.2343Y-3.3996
X1.2598Y-2.0472
X1.2598Y-2.4409
X1.2603Y-3.2557
X1.2795Y-3.5138
X1.2992Y-2.3819
X1.2992Y-2.7264
X1.2992Y-3.1201
X1.3091Y-2.815
X1.3091Y-3.0118
X1.3189Y-3.4547
X1.3287Y-1.0433
X1.3386Y-3.1299
X1.3386Y-3.2913
X1.378Y-3.2579
X1.4134Y-1.4823
X1.4272Y-2.1752
X1.4272Y-2.2539
X1.4272Y-2.9134
X1.4469Y-2.372
X1.4665Y-1.9094
X1.4764Y-3.2776
X1.4961Y-2.9921
X1.5059Y-2.7264
X1.5157Y-3.2283
X1.5256Y-3.5827
X1.5354Y-0.876
X1.5354Y-1.9685
X1.5453Y-4.872
X1.5748Y-1.1417
X1.5748Y-2.372
X1.6339Y-2.4803
X1.6634Y-4.685
X1.6732Y-4.2185
X1.7323Y-4.626
X1.7323Y-4.685
X1.7323Y-4.872
X1.7421Y-1.7717
X1.7421Y-2.7067
X1.7907Y-2.372
X1.7913Y-3.2776
X1.8012Y-3.3858
X1.811Y-4.6358
X1.8307Y-2.2736
X1.8406Y-4.1043
X1.8701Y-1.4665
X1.8799Y-1.9685
X1.9291Y-3.435
X1.9291Y-3.5827
X1.9488Y-2.4409
X1.9587Y-2.5581
X1.9685Y-2.6772
X1.9783Y-0.9547
X1.9783Y-1.6437
X1.9783Y-3.785
X1.9789Y-3.1797
X2.0079Y-4.2618
X2.0276Y-3.2283
X2.0276Y-3.7303
X2.0348Y-1.4567
X2.0768Y-2.8051
X2.0866Y-2.3425
X2.1161Y-2.9134
X2.126Y-1.0236
X2.126Y-2.687
X2.1358Y-3.3563
X2.1457Y-1.9783
X2.1654Y-0.876
X2.185Y-1.0433
X2.185Y-2.4409
X2.185Y-2.8248
X2.2047Y-2.3425
X2.2343Y-3.3563
X2.3425Y-2.5098
X2.3524Y-3.0709
X2.3819Y-3.2283
X2.4016Y-3.6614
X2.4311Y-2.6969
X2.4409Y-3.7992
X2.4508Y-3.5728
X2.4606Y-3.3465
X2.4606Y-4.187
X2.5Y-2.2933
X2.5098Y-3.4449
X2.5197Y-1.3091
X2.5404Y-4.2913
X2.628Y-3.3071
X2.628Y-4.1535
X2.6575Y-2.3622
X2.6726Y-2.5492
X2.6921Y-2.1555
X2.7362Y-3.3661
X2.7362Y-4.7146
X2.7407Y-1.752
T2
X2.4213Y-2.1047
X2.4213Y-2.1547
X2.4213Y-2.2047
X2.5787Y-2.9512
X2.5787Y-3.0012
X2.5787Y-3.0512
X0.8661Y-1.4748
X0.8661Y-1.5248
X0.8661Y-1.5748
X2.628Y-1.2598
X2.628Y-1.3098
X2.628Y-1.3598
T3
X2.3819Y-1.3484
X2.3819Y-1.4469
X1.6488Y-1.7717
X1.6488Y-1.8717
X1.6488Y-1.9717
X1.6488Y-2.0717
X1.6488Y-2.1717
X1.6488Y-2.2717
X1.6488Y-2.3717
X1.9488Y-1.7717
X1.9488Y-1.8717
X1.9488Y-1.9717
X1.9488Y-2.0717
X1.9488Y-2.1717
X1.9488Y-2.2717
X1.9488Y-2.3717
X2.2835Y-4.5843
X2.2835Y-4.7343
X0.8563Y-1.7717
X0.935Y-1.7717
X1.1024Y-1.4075
X1.1024Y-1.5059
X2.628Y-1.565
X2.628Y-1.6437
T4
X1.1614Y-2.9331
X1.2598Y-2.9331
X1.3583Y-2.9331
X1.1614Y-3.7402
X1.2598Y-3.7402
X1.3583Y-3.7402
X2.5787Y-1.752
X2.5787Y-1.8504
X2.5787Y-1.9488
X1.1614Y-2.126
X1.2598Y-2.126
X1.3583Y-2.126
X2.2146Y-3.8681
X2.3146Y-3.8681
X2.5787Y-0.9449
X2.5787Y-1.0433
X2.5787Y-1.1417
X0.9547Y-4.0945
X1.0531Y-3.8976
X1.1516Y-4.0945
X2.5787Y-2.5591
X2.5787Y-2.6575
X2.5787Y-2.7559
X2.5787Y-3.3661
X2.5787Y-3.4646
X2.5787Y-3.563
T5
X2.5787Y-2.3614
X2.5787Y-2.4614
T6
X1.811Y-1.0173
X1.811Y-1.1173
X1.811Y-1.2173
X1.811Y-1.3173
X1.811Y-1.4173
X1.911Y-1.0173
X1.911Y-1.1173
X1.911Y-1.2173
X1.911Y-1.3173
X1.911Y-1.4173
T7
X2.1358Y-1.3091
X2.1358Y-1.4591
X1.3189Y-1.4173
X1.4689Y-1.4173
T8
X1.5157Y-4.5087
X1.5157Y-4.6307
X1.5157Y-4.9575
X2.5394Y-3.9181
X2.5394Y-4.0402
X2.5394Y-4.3669
X2.0276Y-3.9181
X2.0276Y-4.0402
X2.0276Y-4.3669
X2.5394Y-4.5087
X2.5394Y-4.6307
X2.5394Y-4.9575
X1.0039Y-4.5087
X1.0039Y-4.6307
X1.0039Y-4.9575
X1.5157Y-3.9181
X1.5157Y-4.0402
X1.5157Y-4.3669
X2.0276Y-4.5087
X2.0276Y-4.6307
X2.0276Y-4.9575
T9
X1.0709Y-2.6378
X1.4488Y-2.6378
X1.0709Y-3.4449
X1.4488Y-3.4449
X2.2835Y-1.6614
X2.2835Y-2.0394
X1.0709Y-1.8307
X1.4488Y-1.8307
X2.2835Y-0.8543
X2.2835Y-1.2323
X2.2835Y-2.4685
X2.2835Y-2.8465
X2.2835Y-3.2756
X2.2835Y-3.6535
T10
X1.437Y-0.8583
X1.437Y-1.0433
X1.437Y-1.2283
X1.0827Y-0.8583
X1.0827Y-1.0433
X1.0827Y-1.2283
T0
M30
