%TF.GenerationSoftware,KiCad,Pcbnew,(5.0.1)-3*%
%TF.CreationDate,2020-04-13T19:58:08+01:00*%
%TF.ProjectId,panel,70616E656C2E6B696361645F70636200,rev?*%
%TF.SameCoordinates,Original*%
%TF.FileFunction,Legend,Top*%
%TF.FilePolarity,Positive*%
%FSLAX46Y46*%
G04 Gerber Fmt 4.6, Leading zero omitted, Abs format (unit mm)*
G04 Created by KiCad (PCBNEW (5.0.1)-3) date 13/04/2020 19:58:08*
%MOMM*%
%LPD*%
G01*
G04 APERTURE LIST*
%ADD10C,0.200000*%
%ADD11C,0.160000*%
%ADD12C,0.400000*%
%ADD13C,0.300000*%
%ADD14C,0.350000*%
%ADD15C,0.375000*%
G04 APERTURE END LIST*
D10*
X164846000Y-15240000D02*
X164846000Y-12700000D01*
X150114000Y-15240000D02*
X150114000Y-12700000D01*
X135382000Y-15240000D02*
X135382000Y-12700000D01*
X176812500Y-110974956D02*
X176475000Y-110635000D01*
X176800000Y-110960000D02*
X175750000Y-110960000D01*
X176814956Y-110972500D02*
X176475000Y-111310000D01*
D11*
X177365142Y-111405142D02*
X177365142Y-110505142D01*
X177665142Y-111148000D01*
X177965142Y-110505142D01*
X177965142Y-111405142D01*
X178393714Y-111405142D02*
X178393714Y-110505142D01*
X178736571Y-110505142D02*
X179336571Y-111405142D01*
X179336571Y-110505142D02*
X178736571Y-111405142D01*
D10*
X156494956Y-110972500D02*
X156155000Y-111310000D01*
X156480000Y-110960000D02*
X155430000Y-110960000D01*
X156492500Y-110974956D02*
X156155000Y-110635000D01*
D11*
X157045142Y-111405142D02*
X157045142Y-110505142D01*
X157345142Y-111148000D01*
X157645142Y-110505142D01*
X157645142Y-111405142D01*
X158073714Y-111405142D02*
X158073714Y-110505142D01*
X158416571Y-110505142D02*
X159016571Y-111405142D01*
X159016571Y-110505142D02*
X158416571Y-111405142D01*
D10*
X136160000Y-110960000D02*
X135110000Y-110960000D01*
X136172500Y-110974956D02*
X135835000Y-110635000D01*
X136174956Y-110972500D02*
X135835000Y-111310000D01*
D11*
X136725142Y-111405142D02*
X136725142Y-110505142D01*
X137025142Y-111148000D01*
X137325142Y-110505142D01*
X137325142Y-111405142D01*
X137753714Y-111405142D02*
X137753714Y-110505142D01*
X138096571Y-110505142D02*
X138696571Y-111405142D01*
X138696571Y-110505142D02*
X138096571Y-111405142D01*
X116405142Y-111405142D02*
X116405142Y-110505142D01*
X116705142Y-111148000D01*
X117005142Y-110505142D01*
X117005142Y-111405142D01*
X117433714Y-111405142D02*
X117433714Y-110505142D01*
X117776571Y-110505142D02*
X118376571Y-111405142D01*
X118376571Y-110505142D02*
X117776571Y-111405142D01*
D10*
X115840000Y-110960000D02*
X114790000Y-110960000D01*
X115852500Y-110974956D02*
X115515000Y-110635000D01*
X115854956Y-110972500D02*
X115515000Y-111310000D01*
D12*
X172445000Y-18660000D02*
X172895000Y-19135000D01*
X172920000Y-19135000D02*
X172470000Y-19585000D01*
X172920000Y-19135000D02*
X172445000Y-18660000D01*
X172620000Y-19435000D02*
X172445000Y-19610000D01*
X113025000Y-19580000D02*
X112575000Y-19105000D01*
X112550000Y-19105000D02*
X113025000Y-19580000D01*
X112550000Y-19105000D02*
X113000000Y-18655000D01*
X112850000Y-18805000D02*
X113025000Y-18630000D01*
D11*
X177062857Y-123814285D02*
X177748571Y-123814285D01*
X177405714Y-124157142D02*
X177405714Y-123471428D01*
X178605714Y-123257142D02*
X178177142Y-123257142D01*
X178134285Y-123685714D01*
X178177142Y-123642857D01*
X178262857Y-123600000D01*
X178477142Y-123600000D01*
X178562857Y-123642857D01*
X178605714Y-123685714D01*
X178648571Y-123771428D01*
X178648571Y-123985714D01*
X178605714Y-124071428D01*
X178562857Y-124114285D01*
X178477142Y-124157142D01*
X178262857Y-124157142D01*
X178177142Y-124114285D01*
X178134285Y-124071428D01*
X178905714Y-123257142D02*
X179205714Y-124157142D01*
X179505714Y-123257142D01*
X156912857Y-123774285D02*
X157598571Y-123774285D01*
X157255714Y-124117142D02*
X157255714Y-123431428D01*
X158455714Y-123217142D02*
X158027142Y-123217142D01*
X157984285Y-123645714D01*
X158027142Y-123602857D01*
X158112857Y-123560000D01*
X158327142Y-123560000D01*
X158412857Y-123602857D01*
X158455714Y-123645714D01*
X158498571Y-123731428D01*
X158498571Y-123945714D01*
X158455714Y-124031428D01*
X158412857Y-124074285D01*
X158327142Y-124117142D01*
X158112857Y-124117142D01*
X158027142Y-124074285D01*
X157984285Y-124031428D01*
X158755714Y-123217142D02*
X159055714Y-124117142D01*
X159355714Y-123217142D01*
X136542857Y-123824285D02*
X137228571Y-123824285D01*
X136885714Y-124167142D02*
X136885714Y-123481428D01*
X138085714Y-123267142D02*
X137657142Y-123267142D01*
X137614285Y-123695714D01*
X137657142Y-123652857D01*
X137742857Y-123610000D01*
X137957142Y-123610000D01*
X138042857Y-123652857D01*
X138085714Y-123695714D01*
X138128571Y-123781428D01*
X138128571Y-123995714D01*
X138085714Y-124081428D01*
X138042857Y-124124285D01*
X137957142Y-124167142D01*
X137742857Y-124167142D01*
X137657142Y-124124285D01*
X137614285Y-124081428D01*
X138385714Y-123267142D02*
X138685714Y-124167142D01*
X138985714Y-123267142D01*
D13*
X107774285Y-26468571D02*
X107060000Y-26468571D01*
X107060000Y-24968571D01*
D12*
X112040383Y-19120000D02*
G75*
G03X112040383Y-19120000I-4700383J0D01*
G01*
X182860001Y-19180000D02*
G75*
G03X182860001Y-19180000I-4700383J0D01*
G01*
X169040000Y-19140000D02*
X172910000Y-19140000D01*
X112540000Y-19120000D02*
X116550000Y-19130000D01*
D13*
X164004285Y-14798571D02*
X163290000Y-14798571D01*
X163290000Y-13298571D01*
X166794285Y-14808571D02*
X166294285Y-14094285D01*
X165937142Y-14808571D02*
X165937142Y-13308571D01*
X166508571Y-13308571D01*
X166651428Y-13380000D01*
X166722857Y-13451428D01*
X166794285Y-13594285D01*
X166794285Y-13808571D01*
X166722857Y-13951428D01*
X166651428Y-14022857D01*
X166508571Y-14094285D01*
X165937142Y-14094285D01*
X149174285Y-14798571D02*
X148460000Y-14798571D01*
X148460000Y-13298571D01*
X151964285Y-14808571D02*
X151464285Y-14094285D01*
X151107142Y-14808571D02*
X151107142Y-13308571D01*
X151678571Y-13308571D01*
X151821428Y-13380000D01*
X151892857Y-13451428D01*
X151964285Y-13594285D01*
X151964285Y-13808571D01*
X151892857Y-13951428D01*
X151821428Y-14022857D01*
X151678571Y-14094285D01*
X151107142Y-14094285D01*
X122524285Y-14738571D02*
X122024285Y-14024285D01*
X121667142Y-14738571D02*
X121667142Y-13238571D01*
X122238571Y-13238571D01*
X122381428Y-13310000D01*
X122452857Y-13381428D01*
X122524285Y-13524285D01*
X122524285Y-13738571D01*
X122452857Y-13881428D01*
X122381428Y-13952857D01*
X122238571Y-14024285D01*
X121667142Y-14024285D01*
X119734285Y-14728571D02*
X119020000Y-14728571D01*
X119020000Y-13228571D01*
X137154285Y-14698571D02*
X136654285Y-13984285D01*
X136297142Y-14698571D02*
X136297142Y-13198571D01*
X136868571Y-13198571D01*
X137011428Y-13270000D01*
X137082857Y-13341428D01*
X137154285Y-13484285D01*
X137154285Y-13698571D01*
X137082857Y-13841428D01*
X137011428Y-13912857D01*
X136868571Y-13984285D01*
X136297142Y-13984285D01*
X134364285Y-14688571D02*
X133650000Y-14688571D01*
X133650000Y-13188571D01*
D10*
X120650000Y-15240000D02*
X120650000Y-12700000D01*
D11*
X116212857Y-123824285D02*
X116898571Y-123824285D01*
X116555714Y-124167142D02*
X116555714Y-123481428D01*
X117755714Y-123267142D02*
X117327142Y-123267142D01*
X117284285Y-123695714D01*
X117327142Y-123652857D01*
X117412857Y-123610000D01*
X117627142Y-123610000D01*
X117712857Y-123652857D01*
X117755714Y-123695714D01*
X117798571Y-123781428D01*
X117798571Y-123995714D01*
X117755714Y-124081428D01*
X117712857Y-124124285D01*
X117627142Y-124167142D01*
X117412857Y-124167142D01*
X117327142Y-124124285D01*
X117284285Y-124081428D01*
X118055714Y-123267142D02*
X118355714Y-124167142D01*
X118655714Y-123267142D01*
D10*
X166514956Y-123562500D02*
X166175000Y-123900000D01*
X147329000Y-123575000D02*
X146429000Y-123575000D01*
X146468956Y-123587500D02*
X146129000Y-123925000D01*
X166512500Y-123564956D02*
X166175000Y-123225000D01*
X167375000Y-123550000D02*
X166475000Y-123550000D01*
X146466500Y-123589956D02*
X146129000Y-123250000D01*
X109429000Y-123575000D02*
X108379000Y-123575000D01*
X129804000Y-123575000D02*
X128754000Y-123575000D01*
X109441500Y-123589956D02*
X109104000Y-123250000D01*
X150193956Y-123587500D02*
X149854000Y-123925000D01*
X150179000Y-123575000D02*
X149129000Y-123575000D01*
X129816500Y-123589956D02*
X129479000Y-123250000D01*
X129818956Y-123587500D02*
X129479000Y-123925000D01*
X150191500Y-123589956D02*
X149854000Y-123250000D01*
X109443956Y-123587500D02*
X109104000Y-123925000D01*
X126804000Y-123550000D02*
X125904000Y-123550000D01*
X125943956Y-123562500D02*
X125604000Y-123900000D01*
X125941500Y-123564956D02*
X125604000Y-123225000D01*
X148464044Y-123564956D02*
G75*
G03X148464044Y-123564956I-285044J0D01*
G01*
X148464044Y-123564956D02*
G75*
G03X148464044Y-123564956I-285044J0D01*
G01*
X128089044Y-123564956D02*
G75*
G03X128089044Y-123564956I-285044J0D01*
G01*
X107714044Y-123564956D02*
G75*
G03X107714044Y-123564956I-285044J0D01*
G01*
X168585044Y-123564956D02*
G75*
G03X168585044Y-123564956I-285044J0D01*
G01*
X167400000Y-110800000D02*
X166500000Y-110800000D01*
X166539956Y-110812500D02*
X166200000Y-111150000D01*
X166537500Y-110814956D02*
X166200000Y-110475000D01*
X147100000Y-110825000D02*
X146200000Y-110825000D01*
X146239956Y-110837500D02*
X145900000Y-111175000D01*
X146237500Y-110839956D02*
X145900000Y-110500000D01*
X149962500Y-110839956D02*
X149625000Y-110500000D01*
X149964956Y-110837500D02*
X149625000Y-111175000D01*
X149950000Y-110825000D02*
X148900000Y-110825000D01*
X129575000Y-110825000D02*
X128525000Y-110825000D01*
X129587500Y-110839956D02*
X129250000Y-110500000D01*
X129589956Y-110837500D02*
X129250000Y-111175000D01*
X109200000Y-110825000D02*
X108150000Y-110825000D01*
X109214956Y-110837500D02*
X108875000Y-111175000D01*
X109212500Y-110839956D02*
X108875000Y-110500000D01*
X126575000Y-110800000D02*
X125675000Y-110800000D01*
X168610044Y-110814956D02*
G75*
G03X168610044Y-110814956I-285044J0D01*
G01*
X148235044Y-110814956D02*
G75*
G03X148235044Y-110814956I-285044J0D01*
G01*
X148235044Y-110814956D02*
G75*
G03X148235044Y-110814956I-285044J0D01*
G01*
X125714956Y-110812500D02*
X125375000Y-111150000D01*
X125712500Y-110814956D02*
X125375000Y-110475000D01*
X107485044Y-110814956D02*
G75*
G03X107485044Y-110814956I-285044J0D01*
G01*
X127860044Y-110814956D02*
G75*
G03X127860044Y-110814956I-285044J0D01*
G01*
D13*
X167207142Y-30160714D02*
X167135714Y-30232142D01*
X166921428Y-30303571D01*
X166778571Y-30303571D01*
X166564285Y-30232142D01*
X166421428Y-30089285D01*
X166350000Y-29946428D01*
X166278571Y-29660714D01*
X166278571Y-29446428D01*
X166350000Y-29160714D01*
X166421428Y-29017857D01*
X166564285Y-28875000D01*
X166778571Y-28803571D01*
X166921428Y-28803571D01*
X167135714Y-28875000D01*
X167207142Y-28946428D01*
X167635714Y-28803571D02*
X168135714Y-30303571D01*
X168635714Y-28803571D01*
X169921428Y-30303571D02*
X169064285Y-30303571D01*
X169492857Y-30303571D02*
X169492857Y-28803571D01*
X169350000Y-29017857D01*
X169207142Y-29160714D01*
X169064285Y-29232142D01*
X177082142Y-30185714D02*
X177010714Y-30257142D01*
X176796428Y-30328571D01*
X176653571Y-30328571D01*
X176439285Y-30257142D01*
X176296428Y-30114285D01*
X176225000Y-29971428D01*
X176153571Y-29685714D01*
X176153571Y-29471428D01*
X176225000Y-29185714D01*
X176296428Y-29042857D01*
X176439285Y-28900000D01*
X176653571Y-28828571D01*
X176796428Y-28828571D01*
X177010714Y-28900000D01*
X177082142Y-28971428D01*
X177510714Y-28828571D02*
X178010714Y-30328571D01*
X178510714Y-28828571D01*
X178939285Y-28971428D02*
X179010714Y-28900000D01*
X179153571Y-28828571D01*
X179510714Y-28828571D01*
X179653571Y-28900000D01*
X179725000Y-28971428D01*
X179796428Y-29114285D01*
X179796428Y-29257142D01*
X179725000Y-29471428D01*
X178867857Y-30328571D01*
X179796428Y-30328571D01*
X147132142Y-30160714D02*
X147060714Y-30232142D01*
X146846428Y-30303571D01*
X146703571Y-30303571D01*
X146489285Y-30232142D01*
X146346428Y-30089285D01*
X146275000Y-29946428D01*
X146203571Y-29660714D01*
X146203571Y-29446428D01*
X146275000Y-29160714D01*
X146346428Y-29017857D01*
X146489285Y-28875000D01*
X146703571Y-28803571D01*
X146846428Y-28803571D01*
X147060714Y-28875000D01*
X147132142Y-28946428D01*
X147560714Y-28803571D02*
X148060714Y-30303571D01*
X148560714Y-28803571D01*
X149846428Y-30303571D02*
X148989285Y-30303571D01*
X149417857Y-30303571D02*
X149417857Y-28803571D01*
X149275000Y-29017857D01*
X149132142Y-29160714D01*
X148989285Y-29232142D01*
X157007142Y-30185714D02*
X156935714Y-30257142D01*
X156721428Y-30328571D01*
X156578571Y-30328571D01*
X156364285Y-30257142D01*
X156221428Y-30114285D01*
X156150000Y-29971428D01*
X156078571Y-29685714D01*
X156078571Y-29471428D01*
X156150000Y-29185714D01*
X156221428Y-29042857D01*
X156364285Y-28900000D01*
X156578571Y-28828571D01*
X156721428Y-28828571D01*
X156935714Y-28900000D01*
X157007142Y-28971428D01*
X157435714Y-28828571D02*
X157935714Y-30328571D01*
X158435714Y-28828571D01*
X158864285Y-28971428D02*
X158935714Y-28900000D01*
X159078571Y-28828571D01*
X159435714Y-28828571D01*
X159578571Y-28900000D01*
X159650000Y-28971428D01*
X159721428Y-29114285D01*
X159721428Y-29257142D01*
X159650000Y-29471428D01*
X158792857Y-30328571D01*
X159721428Y-30328571D01*
X126932142Y-30160714D02*
X126860714Y-30232142D01*
X126646428Y-30303571D01*
X126503571Y-30303571D01*
X126289285Y-30232142D01*
X126146428Y-30089285D01*
X126075000Y-29946428D01*
X126003571Y-29660714D01*
X126003571Y-29446428D01*
X126075000Y-29160714D01*
X126146428Y-29017857D01*
X126289285Y-28875000D01*
X126503571Y-28803571D01*
X126646428Y-28803571D01*
X126860714Y-28875000D01*
X126932142Y-28946428D01*
X127360714Y-28803571D02*
X127860714Y-30303571D01*
X128360714Y-28803571D01*
X129646428Y-30303571D02*
X128789285Y-30303571D01*
X129217857Y-30303571D02*
X129217857Y-28803571D01*
X129075000Y-29017857D01*
X128932142Y-29160714D01*
X128789285Y-29232142D01*
X136807142Y-30185714D02*
X136735714Y-30257142D01*
X136521428Y-30328571D01*
X136378571Y-30328571D01*
X136164285Y-30257142D01*
X136021428Y-30114285D01*
X135950000Y-29971428D01*
X135878571Y-29685714D01*
X135878571Y-29471428D01*
X135950000Y-29185714D01*
X136021428Y-29042857D01*
X136164285Y-28900000D01*
X136378571Y-28828571D01*
X136521428Y-28828571D01*
X136735714Y-28900000D01*
X136807142Y-28971428D01*
X137235714Y-28828571D02*
X137735714Y-30328571D01*
X138235714Y-28828571D01*
X138664285Y-28971428D02*
X138735714Y-28900000D01*
X138878571Y-28828571D01*
X139235714Y-28828571D01*
X139378571Y-28900000D01*
X139450000Y-28971428D01*
X139521428Y-29114285D01*
X139521428Y-29257142D01*
X139450000Y-29471428D01*
X138592857Y-30328571D01*
X139521428Y-30328571D01*
D14*
X171912500Y-47350000D02*
X174112500Y-47350000D01*
X174112500Y-54800000D02*
X171912500Y-54800000D01*
X172437500Y-51075000D02*
X173587500Y-51075000D01*
X175025000Y-62250000D02*
X171000000Y-62250000D01*
X174587500Y-58525000D02*
X171437500Y-58525000D01*
X170587500Y-36175000D02*
X175437500Y-36175000D01*
X173587500Y-51075000D02*
X172437500Y-51075000D01*
X171437500Y-43625000D02*
X174587500Y-43625000D01*
X171000000Y-39900000D02*
X175025000Y-39900000D01*
X175437500Y-65975000D02*
X170587500Y-65975000D01*
X150925000Y-39900000D02*
X154950000Y-39900000D01*
X155362500Y-65975000D02*
X150512500Y-65975000D01*
X154950000Y-62250000D02*
X150925000Y-62250000D01*
X154512500Y-58525000D02*
X151362500Y-58525000D01*
X151837500Y-47350000D02*
X154037500Y-47350000D01*
X154037500Y-54800000D02*
X151837500Y-54800000D01*
X151362500Y-43625000D02*
X154512500Y-43625000D01*
X153512500Y-51075000D02*
X152362500Y-51075000D01*
X152362500Y-51075000D02*
X153512500Y-51075000D01*
X150512500Y-36175000D02*
X155362500Y-36175000D01*
X133787500Y-54800000D02*
X131587500Y-54800000D01*
X135112500Y-65975000D02*
X130262500Y-65975000D01*
X134700000Y-62250000D02*
X130675000Y-62250000D01*
X130262500Y-36175000D02*
X135112500Y-36175000D01*
X133262500Y-51075000D02*
X132112500Y-51075000D01*
X130675000Y-39900000D02*
X134700000Y-39900000D01*
X134262500Y-58525000D02*
X131112500Y-58525000D01*
X131112500Y-43625000D02*
X134262500Y-43625000D01*
X131587500Y-47350000D02*
X133787500Y-47350000D01*
X132112500Y-51075000D02*
X133262500Y-51075000D01*
X115012500Y-65825000D02*
X110162500Y-65825000D01*
X114600000Y-62100000D02*
X110575000Y-62100000D01*
X114162500Y-58375000D02*
X111012500Y-58375000D01*
X113687500Y-54650000D02*
X111487500Y-54650000D01*
X113162500Y-50925000D02*
X112012500Y-50925000D01*
X110162500Y-36025000D02*
X115012500Y-36025000D01*
X110575000Y-39750000D02*
X114600000Y-39750000D01*
X111012500Y-43475000D02*
X114162500Y-43475000D01*
X111487500Y-47200000D02*
X113687500Y-47200000D01*
X112012500Y-50925000D02*
X113162500Y-50925000D01*
D12*
X168125000Y-93525000D02*
X168125000Y-98075000D01*
X171175000Y-93525000D02*
X171175000Y-96025000D01*
X182965001Y-103275000D02*
G75*
G03X182965001Y-103275000I-4700383J0D01*
G01*
X178285000Y-95325000D02*
X178275000Y-97850000D01*
X170725000Y-93525000D02*
X170275000Y-93975000D01*
D13*
X167332142Y-122460714D02*
X167260714Y-122532142D01*
X167046428Y-122603571D01*
X166903571Y-122603571D01*
X166689285Y-122532142D01*
X166546428Y-122389285D01*
X166475000Y-122246428D01*
X166403571Y-121960714D01*
X166403571Y-121746428D01*
X166475000Y-121460714D01*
X166546428Y-121317857D01*
X166689285Y-121175000D01*
X166903571Y-121103571D01*
X167046428Y-121103571D01*
X167260714Y-121175000D01*
X167332142Y-121246428D01*
X167760714Y-121103571D02*
X168260714Y-122603571D01*
X168760714Y-121103571D01*
X170046428Y-122603571D02*
X169189285Y-122603571D01*
X169617857Y-122603571D02*
X169617857Y-121103571D01*
X169475000Y-121317857D01*
X169332142Y-121460714D01*
X169189285Y-121532142D01*
X176625000Y-108378571D02*
X176910714Y-108378571D01*
X177053571Y-108450000D01*
X177196428Y-108592857D01*
X177267857Y-108878571D01*
X177267857Y-109378571D01*
X177196428Y-109664285D01*
X177053571Y-109807142D01*
X176910714Y-109878571D01*
X176625000Y-109878571D01*
X176482142Y-109807142D01*
X176339285Y-109664285D01*
X176267857Y-109378571D01*
X176267857Y-108878571D01*
X176339285Y-108592857D01*
X176482142Y-108450000D01*
X176625000Y-108378571D01*
X177910714Y-108378571D02*
X177910714Y-109592857D01*
X177982142Y-109735714D01*
X178053571Y-109807142D01*
X178196428Y-109878571D01*
X178482142Y-109878571D01*
X178625000Y-109807142D01*
X178696428Y-109735714D01*
X178767857Y-109592857D01*
X178767857Y-108378571D01*
X179267857Y-108378571D02*
X180125000Y-108378571D01*
X179696428Y-109878571D02*
X179696428Y-108378571D01*
X177839285Y-84067857D02*
X178339285Y-84067857D01*
X178553571Y-84853571D02*
X177839285Y-84853571D01*
X177839285Y-83353571D01*
X178553571Y-83353571D01*
X179053571Y-83353571D02*
X180053571Y-84853571D01*
X180053571Y-83353571D02*
X179053571Y-84853571D01*
X180625000Y-84853571D02*
X180625000Y-83353571D01*
X181196428Y-83353571D01*
X181339285Y-83425000D01*
X181410714Y-83496428D01*
X181482142Y-83639285D01*
X181482142Y-83853571D01*
X181410714Y-83996428D01*
X181339285Y-84067857D01*
X181196428Y-84139285D01*
X180625000Y-84139285D01*
X177457142Y-122460714D02*
X177385714Y-122532142D01*
X177171428Y-122603571D01*
X177028571Y-122603571D01*
X176814285Y-122532142D01*
X176671428Y-122389285D01*
X176600000Y-122246428D01*
X176528571Y-121960714D01*
X176528571Y-121746428D01*
X176600000Y-121460714D01*
X176671428Y-121317857D01*
X176814285Y-121175000D01*
X177028571Y-121103571D01*
X177171428Y-121103571D01*
X177385714Y-121175000D01*
X177457142Y-121246428D01*
X177885714Y-121103571D02*
X178385714Y-122603571D01*
X178885714Y-121103571D01*
X179314285Y-121246428D02*
X179385714Y-121175000D01*
X179528571Y-121103571D01*
X179885714Y-121103571D01*
X180028571Y-121175000D01*
X180100000Y-121246428D01*
X180171428Y-121389285D01*
X180171428Y-121532142D01*
X180100000Y-121746428D01*
X179242857Y-122603571D01*
X180171428Y-122603571D01*
X167414285Y-109878571D02*
X167414285Y-108378571D01*
X168128571Y-109878571D02*
X168128571Y-108378571D01*
X168985714Y-109878571D01*
X168985714Y-108378571D01*
X166396428Y-84753571D02*
X165682142Y-84753571D01*
X165682142Y-83253571D01*
X166896428Y-84753571D02*
X166896428Y-83253571D01*
X167610714Y-84753571D02*
X167610714Y-83253571D01*
X168467857Y-84753571D01*
X168467857Y-83253571D01*
D12*
X178775000Y-97425000D02*
X178300000Y-97875000D01*
X175275000Y-93525000D02*
X176375000Y-93525000D01*
X170725000Y-93525000D02*
X170725000Y-93525000D01*
X170835000Y-76100000D02*
X170385000Y-76550000D01*
X175175000Y-93525000D02*
X171175000Y-91025000D01*
X173225000Y-91625000D02*
X172775000Y-91175000D01*
X173225000Y-87775000D02*
X173225000Y-91625000D01*
X171175000Y-91025000D02*
X171175000Y-93525000D01*
X170360000Y-75625000D02*
X170810000Y-76100000D01*
X168375000Y-71335000D02*
X168375000Y-76085000D01*
X173305000Y-78015000D02*
X173305000Y-80125000D01*
X173225000Y-91625000D02*
X173225000Y-91625000D01*
X170725000Y-93525000D02*
X168125000Y-93525000D01*
X172925000Y-91325000D02*
X172750000Y-91150000D01*
X171175000Y-96025000D02*
X175175000Y-93525000D01*
X178355000Y-71365000D02*
X178355000Y-76115000D01*
X170535000Y-76400000D02*
X170360000Y-76575000D01*
X176135000Y-75825000D02*
X176310000Y-75650000D01*
X176310000Y-76600000D02*
X175860000Y-76125000D01*
X168395000Y-76095000D02*
X170810000Y-76100000D01*
X175835000Y-76125000D02*
X176310000Y-76600000D01*
X175835000Y-76125000D02*
X178355000Y-76115000D01*
X175835000Y-76125000D02*
X176285000Y-75675000D01*
X178000000Y-97600000D02*
X177825000Y-97425000D01*
X170250000Y-93050000D02*
X170700000Y-93525000D01*
X173225000Y-91625000D02*
X173700000Y-91150000D01*
X178300000Y-97900000D02*
X178775000Y-97425000D01*
X173700000Y-91150000D02*
X173225000Y-91600000D01*
X170835000Y-76100000D02*
X170360000Y-75625000D01*
X170725000Y-93525000D02*
X170250000Y-93050000D01*
X170425000Y-93825000D02*
X170250000Y-94000000D01*
X178300000Y-97900000D02*
X177850000Y-97450000D01*
X162765001Y-103200000D02*
G75*
G03X162765001Y-103200000I-4700383J0D01*
G01*
X158085000Y-95250000D02*
X158075000Y-97775000D01*
X147925000Y-93450000D02*
X147925000Y-98000000D01*
D13*
X156425000Y-108378571D02*
X156710714Y-108378571D01*
X156853571Y-108450000D01*
X156996428Y-108592857D01*
X157067857Y-108878571D01*
X157067857Y-109378571D01*
X156996428Y-109664285D01*
X156853571Y-109807142D01*
X156710714Y-109878571D01*
X156425000Y-109878571D01*
X156282142Y-109807142D01*
X156139285Y-109664285D01*
X156067857Y-109378571D01*
X156067857Y-108878571D01*
X156139285Y-108592857D01*
X156282142Y-108450000D01*
X156425000Y-108378571D01*
X157710714Y-108378571D02*
X157710714Y-109592857D01*
X157782142Y-109735714D01*
X157853571Y-109807142D01*
X157996428Y-109878571D01*
X158282142Y-109878571D01*
X158425000Y-109807142D01*
X158496428Y-109735714D01*
X158567857Y-109592857D01*
X158567857Y-108378571D01*
X159067857Y-108378571D02*
X159925000Y-108378571D01*
X159496428Y-109878571D02*
X159496428Y-108378571D01*
X157257142Y-122385714D02*
X157185714Y-122457142D01*
X156971428Y-122528571D01*
X156828571Y-122528571D01*
X156614285Y-122457142D01*
X156471428Y-122314285D01*
X156400000Y-122171428D01*
X156328571Y-121885714D01*
X156328571Y-121671428D01*
X156400000Y-121385714D01*
X156471428Y-121242857D01*
X156614285Y-121100000D01*
X156828571Y-121028571D01*
X156971428Y-121028571D01*
X157185714Y-121100000D01*
X157257142Y-121171428D01*
X157685714Y-121028571D02*
X158185714Y-122528571D01*
X158685714Y-121028571D01*
X159114285Y-121171428D02*
X159185714Y-121100000D01*
X159328571Y-121028571D01*
X159685714Y-121028571D01*
X159828571Y-121100000D01*
X159900000Y-121171428D01*
X159971428Y-121314285D01*
X159971428Y-121457142D01*
X159900000Y-121671428D01*
X159042857Y-122528571D01*
X159971428Y-122528571D01*
X147132142Y-122385714D02*
X147060714Y-122457142D01*
X146846428Y-122528571D01*
X146703571Y-122528571D01*
X146489285Y-122457142D01*
X146346428Y-122314285D01*
X146275000Y-122171428D01*
X146203571Y-121885714D01*
X146203571Y-121671428D01*
X146275000Y-121385714D01*
X146346428Y-121242857D01*
X146489285Y-121100000D01*
X146703571Y-121028571D01*
X146846428Y-121028571D01*
X147060714Y-121100000D01*
X147132142Y-121171428D01*
X147560714Y-121028571D02*
X148060714Y-122528571D01*
X148560714Y-121028571D01*
X149846428Y-122528571D02*
X148989285Y-122528571D01*
X149417857Y-122528571D02*
X149417857Y-121028571D01*
X149275000Y-121242857D01*
X149132142Y-121385714D01*
X148989285Y-121457142D01*
X157639285Y-83992857D02*
X158139285Y-83992857D01*
X158353571Y-84778571D02*
X157639285Y-84778571D01*
X157639285Y-83278571D01*
X158353571Y-83278571D01*
X158853571Y-83278571D02*
X159853571Y-84778571D01*
X159853571Y-83278571D02*
X158853571Y-84778571D01*
X160425000Y-84778571D02*
X160425000Y-83278571D01*
X160996428Y-83278571D01*
X161139285Y-83350000D01*
X161210714Y-83421428D01*
X161282142Y-83564285D01*
X161282142Y-83778571D01*
X161210714Y-83921428D01*
X161139285Y-83992857D01*
X160996428Y-84064285D01*
X160425000Y-84064285D01*
X147214285Y-109878571D02*
X147214285Y-108378571D01*
X147928571Y-109878571D02*
X147928571Y-108378571D01*
X148785714Y-109878571D01*
X148785714Y-108378571D01*
X146196428Y-84678571D02*
X145482142Y-84678571D01*
X145482142Y-83178571D01*
X146696428Y-84678571D02*
X146696428Y-83178571D01*
X147410714Y-84678571D02*
X147410714Y-83178571D01*
X148267857Y-84678571D01*
X148267857Y-83178571D01*
D12*
X150975000Y-93450000D02*
X150975000Y-95950000D01*
X155075000Y-93450000D02*
X156175000Y-93450000D01*
X150525000Y-93450000D02*
X147925000Y-93450000D01*
X150525000Y-93450000D02*
X150525000Y-93450000D01*
X150535000Y-76075000D02*
X150085000Y-76525000D01*
X154975000Y-93450000D02*
X150975000Y-90950000D01*
X153025000Y-91550000D02*
X152575000Y-91100000D01*
X153025000Y-87700000D02*
X153025000Y-91550000D01*
X150975000Y-90950000D02*
X150975000Y-93450000D01*
X152725000Y-91250000D02*
X152550000Y-91075000D01*
X150975000Y-95950000D02*
X154975000Y-93450000D01*
X158055000Y-71340000D02*
X158055000Y-76090000D01*
X155535000Y-76100000D02*
X155985000Y-75650000D01*
X150235000Y-76375000D02*
X150060000Y-76550000D01*
X155835000Y-75800000D02*
X156010000Y-75625000D01*
X155535000Y-76100000D02*
X156010000Y-76575000D01*
X156010000Y-76575000D02*
X155560000Y-76100000D01*
X150060000Y-75600000D02*
X150510000Y-76075000D01*
X148075000Y-71310000D02*
X148075000Y-76060000D01*
X148095000Y-76070000D02*
X150510000Y-76075000D01*
X155535000Y-76100000D02*
X158055000Y-76090000D01*
X153005000Y-77990000D02*
X153005000Y-80100000D01*
X153025000Y-91550000D02*
X153025000Y-91550000D01*
X158575000Y-97350000D02*
X158100000Y-97800000D01*
X150525000Y-93450000D02*
X150075000Y-93900000D01*
X157800000Y-97525000D02*
X157625000Y-97350000D01*
X153025000Y-91550000D02*
X153500000Y-91075000D01*
X150525000Y-93450000D02*
X150050000Y-92975000D01*
X158100000Y-97825000D02*
X158575000Y-97350000D01*
X150050000Y-92975000D02*
X150500000Y-93450000D01*
X153500000Y-91075000D02*
X153025000Y-91525000D01*
X150535000Y-76075000D02*
X150060000Y-75600000D01*
X158100000Y-97825000D02*
X157650000Y-97375000D01*
X150225000Y-93750000D02*
X150050000Y-93925000D01*
X132670000Y-91615000D02*
X132670000Y-91615000D01*
X130110000Y-76150000D02*
X129635000Y-75675000D01*
X137775000Y-97900000D02*
X137325000Y-97450000D01*
X132670000Y-91615000D02*
X133145000Y-91140000D01*
X130020000Y-93465000D02*
X129545000Y-92990000D01*
X133145000Y-91140000D02*
X132670000Y-91590000D01*
X137775000Y-97900000D02*
X138250000Y-97425000D01*
X129545000Y-92990000D02*
X129995000Y-93465000D01*
X129720000Y-93765000D02*
X129545000Y-93940000D01*
X138250000Y-97425000D02*
X137775000Y-97875000D01*
X137475000Y-97600000D02*
X137300000Y-97425000D01*
X130020000Y-93465000D02*
X129570000Y-93915000D01*
X130470000Y-95965000D02*
X134470000Y-93465000D01*
X130470000Y-93465000D02*
X130470000Y-95965000D01*
X134470000Y-93465000D02*
X130470000Y-90965000D01*
X130470000Y-90965000D02*
X130470000Y-93465000D01*
X134570000Y-93465000D02*
X135670000Y-93465000D01*
X132670000Y-87765000D02*
X132670000Y-91615000D01*
X130020000Y-93465000D02*
X127420000Y-93465000D01*
X130020000Y-93465000D02*
X130020000Y-93465000D01*
X130110000Y-76150000D02*
X129660000Y-76600000D01*
X132670000Y-91615000D02*
X132220000Y-91165000D01*
X132370000Y-91315000D02*
X132195000Y-91140000D01*
X135110000Y-76175000D02*
X135585000Y-76650000D01*
X135585000Y-76650000D02*
X135135000Y-76175000D01*
X129635000Y-75675000D02*
X130085000Y-76150000D01*
X135110000Y-76175000D02*
X135560000Y-75725000D01*
X129810000Y-76450000D02*
X129635000Y-76625000D01*
X135410000Y-75875000D02*
X135585000Y-75700000D01*
D13*
X125871428Y-84753571D02*
X125157142Y-84753571D01*
X125157142Y-83253571D01*
X126371428Y-84753571D02*
X126371428Y-83253571D01*
X127085714Y-84753571D02*
X127085714Y-83253571D01*
X127942857Y-84753571D01*
X127942857Y-83253571D01*
X137314285Y-84067857D02*
X137814285Y-84067857D01*
X138028571Y-84853571D02*
X137314285Y-84853571D01*
X137314285Y-83353571D01*
X138028571Y-83353571D01*
X138528571Y-83353571D02*
X139528571Y-84853571D01*
X139528571Y-83353571D02*
X138528571Y-84853571D01*
X140100000Y-84853571D02*
X140100000Y-83353571D01*
X140671428Y-83353571D01*
X140814285Y-83425000D01*
X140885714Y-83496428D01*
X140957142Y-83639285D01*
X140957142Y-83853571D01*
X140885714Y-83996428D01*
X140814285Y-84067857D01*
X140671428Y-84139285D01*
X140100000Y-84139285D01*
X136932142Y-122460714D02*
X136860714Y-122532142D01*
X136646428Y-122603571D01*
X136503571Y-122603571D01*
X136289285Y-122532142D01*
X136146428Y-122389285D01*
X136075000Y-122246428D01*
X136003571Y-121960714D01*
X136003571Y-121746428D01*
X136075000Y-121460714D01*
X136146428Y-121317857D01*
X136289285Y-121175000D01*
X136503571Y-121103571D01*
X136646428Y-121103571D01*
X136860714Y-121175000D01*
X136932142Y-121246428D01*
X137360714Y-121103571D02*
X137860714Y-122603571D01*
X138360714Y-121103571D01*
X138789285Y-121246428D02*
X138860714Y-121175000D01*
X139003571Y-121103571D01*
X139360714Y-121103571D01*
X139503571Y-121175000D01*
X139575000Y-121246428D01*
X139646428Y-121389285D01*
X139646428Y-121532142D01*
X139575000Y-121746428D01*
X138717857Y-122603571D01*
X139646428Y-122603571D01*
X126807142Y-122460714D02*
X126735714Y-122532142D01*
X126521428Y-122603571D01*
X126378571Y-122603571D01*
X126164285Y-122532142D01*
X126021428Y-122389285D01*
X125950000Y-122246428D01*
X125878571Y-121960714D01*
X125878571Y-121746428D01*
X125950000Y-121460714D01*
X126021428Y-121317857D01*
X126164285Y-121175000D01*
X126378571Y-121103571D01*
X126521428Y-121103571D01*
X126735714Y-121175000D01*
X126807142Y-121246428D01*
X127235714Y-121103571D02*
X127735714Y-122603571D01*
X128235714Y-121103571D01*
X129521428Y-122603571D02*
X128664285Y-122603571D01*
X129092857Y-122603571D02*
X129092857Y-121103571D01*
X128950000Y-121317857D01*
X128807142Y-121460714D01*
X128664285Y-121532142D01*
X126889285Y-109878571D02*
X126889285Y-108378571D01*
X127603571Y-109878571D02*
X127603571Y-108378571D01*
X128460714Y-109878571D01*
X128460714Y-108378571D01*
X136100000Y-108378571D02*
X136385714Y-108378571D01*
X136528571Y-108450000D01*
X136671428Y-108592857D01*
X136742857Y-108878571D01*
X136742857Y-109378571D01*
X136671428Y-109664285D01*
X136528571Y-109807142D01*
X136385714Y-109878571D01*
X136100000Y-109878571D01*
X135957142Y-109807142D01*
X135814285Y-109664285D01*
X135742857Y-109378571D01*
X135742857Y-108878571D01*
X135814285Y-108592857D01*
X135957142Y-108450000D01*
X136100000Y-108378571D01*
X137385714Y-108378571D02*
X137385714Y-109592857D01*
X137457142Y-109735714D01*
X137528571Y-109807142D01*
X137671428Y-109878571D01*
X137957142Y-109878571D01*
X138100000Y-109807142D01*
X138171428Y-109735714D01*
X138242857Y-109592857D01*
X138242857Y-108378571D01*
X138742857Y-108378571D02*
X139600000Y-108378571D01*
X139171428Y-109878571D02*
X139171428Y-108378571D01*
D12*
X127670000Y-76145000D02*
X130085000Y-76150000D01*
X135110000Y-76175000D02*
X137630000Y-76165000D01*
X132640000Y-78005000D02*
X132640000Y-80115000D01*
X137630000Y-71415000D02*
X137630000Y-76165000D01*
X127650000Y-71385000D02*
X127650000Y-76135000D01*
X142440001Y-103275000D02*
G75*
G03X142440001Y-103275000I-4700383J0D01*
G01*
X137760000Y-95325000D02*
X137750000Y-97850000D01*
X127420000Y-93465000D02*
X127420000Y-98015000D01*
X154075000Y-19200000D02*
X161025000Y-19200000D01*
X139300000Y-19125000D02*
X146275000Y-19125000D01*
X124475000Y-19125000D02*
X131450000Y-19125000D01*
D13*
X178744285Y-26478571D02*
X178244285Y-25764285D01*
X177887142Y-26478571D02*
X177887142Y-24978571D01*
X178458571Y-24978571D01*
X178601428Y-25050000D01*
X178672857Y-25121428D01*
X178744285Y-25264285D01*
X178744285Y-25478571D01*
X178672857Y-25621428D01*
X178601428Y-25692857D01*
X178458571Y-25764285D01*
X177887142Y-25764285D01*
X173924285Y-13818571D02*
X173924285Y-12318571D01*
X174424285Y-13390000D01*
X174924285Y-12318571D01*
X174924285Y-13818571D01*
X175638571Y-13818571D02*
X175638571Y-12318571D01*
X176210000Y-12318571D02*
X177210000Y-13818571D01*
X177210000Y-12318571D02*
X176210000Y-13818571D01*
X179210000Y-12318571D02*
X179495714Y-12318571D01*
X179638571Y-12390000D01*
X179781428Y-12532857D01*
X179852857Y-12818571D01*
X179852857Y-13318571D01*
X179781428Y-13604285D01*
X179638571Y-13747142D01*
X179495714Y-13818571D01*
X179210000Y-13818571D01*
X179067142Y-13747142D01*
X178924285Y-13604285D01*
X178852857Y-13318571D01*
X178852857Y-12818571D01*
X178924285Y-12532857D01*
X179067142Y-12390000D01*
X179210000Y-12318571D01*
X180495714Y-12318571D02*
X180495714Y-13532857D01*
X180567142Y-13675714D01*
X180638571Y-13747142D01*
X180781428Y-13818571D01*
X181067142Y-13818571D01*
X181210000Y-13747142D01*
X181281428Y-13675714D01*
X181352857Y-13532857D01*
X181352857Y-12318571D01*
X181852857Y-12318571D02*
X182710000Y-12318571D01*
X182281428Y-13818571D02*
X182281428Y-12318571D01*
X103274285Y-13818571D02*
X103274285Y-12318571D01*
X103774285Y-13390000D01*
X104274285Y-12318571D01*
X104274285Y-13818571D01*
X104988571Y-13818571D02*
X104988571Y-12318571D01*
X105560000Y-12318571D02*
X106560000Y-13818571D01*
X106560000Y-12318571D02*
X105560000Y-13818571D01*
X108560000Y-12318571D02*
X108845714Y-12318571D01*
X108988571Y-12390000D01*
X109131428Y-12532857D01*
X109202857Y-12818571D01*
X109202857Y-13318571D01*
X109131428Y-13604285D01*
X108988571Y-13747142D01*
X108845714Y-13818571D01*
X108560000Y-13818571D01*
X108417142Y-13747142D01*
X108274285Y-13604285D01*
X108202857Y-13318571D01*
X108202857Y-12818571D01*
X108274285Y-12532857D01*
X108417142Y-12390000D01*
X108560000Y-12318571D01*
X109845714Y-12318571D02*
X109845714Y-13532857D01*
X109917142Y-13675714D01*
X109988571Y-13747142D01*
X110131428Y-13818571D01*
X110417142Y-13818571D01*
X110560000Y-13747142D01*
X110631428Y-13675714D01*
X110702857Y-13532857D01*
X110702857Y-12318571D01*
X111202857Y-12318571D02*
X112060000Y-12318571D01*
X111631428Y-13818571D02*
X111631428Y-12318571D01*
X116632142Y-30185714D02*
X116560714Y-30257142D01*
X116346428Y-30328571D01*
X116203571Y-30328571D01*
X115989285Y-30257142D01*
X115846428Y-30114285D01*
X115775000Y-29971428D01*
X115703571Y-29685714D01*
X115703571Y-29471428D01*
X115775000Y-29185714D01*
X115846428Y-29042857D01*
X115989285Y-28900000D01*
X116203571Y-28828571D01*
X116346428Y-28828571D01*
X116560714Y-28900000D01*
X116632142Y-28971428D01*
X117060714Y-28828571D02*
X117560714Y-30328571D01*
X118060714Y-28828571D01*
X118489285Y-28971428D02*
X118560714Y-28900000D01*
X118703571Y-28828571D01*
X119060714Y-28828571D01*
X119203571Y-28900000D01*
X119275000Y-28971428D01*
X119346428Y-29114285D01*
X119346428Y-29257142D01*
X119275000Y-29471428D01*
X118417857Y-30328571D01*
X119346428Y-30328571D01*
X106757142Y-30160714D02*
X106685714Y-30232142D01*
X106471428Y-30303571D01*
X106328571Y-30303571D01*
X106114285Y-30232142D01*
X105971428Y-30089285D01*
X105900000Y-29946428D01*
X105828571Y-29660714D01*
X105828571Y-29446428D01*
X105900000Y-29160714D01*
X105971428Y-29017857D01*
X106114285Y-28875000D01*
X106328571Y-28803571D01*
X106471428Y-28803571D01*
X106685714Y-28875000D01*
X106757142Y-28946428D01*
X107185714Y-28803571D02*
X107685714Y-30303571D01*
X108185714Y-28803571D01*
X109471428Y-30303571D02*
X108614285Y-30303571D01*
X109042857Y-30303571D02*
X109042857Y-28803571D01*
X108900000Y-29017857D01*
X108757142Y-29160714D01*
X108614285Y-29232142D01*
D12*
X117425000Y-97875000D02*
X117900000Y-97400000D01*
X117900000Y-97400000D02*
X117425000Y-97850000D01*
X117125000Y-97575000D02*
X116950000Y-97400000D01*
X117425000Y-97875000D02*
X116975000Y-97425000D01*
X109850000Y-93500000D02*
X109375000Y-93025000D01*
X109375000Y-93025000D02*
X109825000Y-93500000D01*
X109850000Y-93500000D02*
X109400000Y-93950000D01*
X109550000Y-93800000D02*
X109375000Y-93975000D01*
X112350000Y-91600000D02*
X112825000Y-91125000D01*
X112825000Y-91125000D02*
X112350000Y-91575000D01*
X112350000Y-91600000D02*
X111900000Y-91150000D01*
X112050000Y-91300000D02*
X111875000Y-91125000D01*
X109850000Y-93500000D02*
X109850000Y-93500000D01*
D13*
X116582142Y-122435714D02*
X116510714Y-122507142D01*
X116296428Y-122578571D01*
X116153571Y-122578571D01*
X115939285Y-122507142D01*
X115796428Y-122364285D01*
X115725000Y-122221428D01*
X115653571Y-121935714D01*
X115653571Y-121721428D01*
X115725000Y-121435714D01*
X115796428Y-121292857D01*
X115939285Y-121150000D01*
X116153571Y-121078571D01*
X116296428Y-121078571D01*
X116510714Y-121150000D01*
X116582142Y-121221428D01*
X117010714Y-121078571D02*
X117510714Y-122578571D01*
X118010714Y-121078571D01*
X118439285Y-121221428D02*
X118510714Y-121150000D01*
X118653571Y-121078571D01*
X119010714Y-121078571D01*
X119153571Y-121150000D01*
X119225000Y-121221428D01*
X119296428Y-121364285D01*
X119296428Y-121507142D01*
X119225000Y-121721428D01*
X118367857Y-122578571D01*
X119296428Y-122578571D01*
X106457142Y-122435714D02*
X106385714Y-122507142D01*
X106171428Y-122578571D01*
X106028571Y-122578571D01*
X105814285Y-122507142D01*
X105671428Y-122364285D01*
X105600000Y-122221428D01*
X105528571Y-121935714D01*
X105528571Y-121721428D01*
X105600000Y-121435714D01*
X105671428Y-121292857D01*
X105814285Y-121150000D01*
X106028571Y-121078571D01*
X106171428Y-121078571D01*
X106385714Y-121150000D01*
X106457142Y-121221428D01*
X106885714Y-121078571D02*
X107385714Y-122578571D01*
X107885714Y-121078571D01*
X109171428Y-122578571D02*
X108314285Y-122578571D01*
X108742857Y-122578571D02*
X108742857Y-121078571D01*
X108600000Y-121292857D01*
X108457142Y-121435714D01*
X108314285Y-121507142D01*
X106539285Y-109878571D02*
X106539285Y-108378571D01*
X107253571Y-109878571D02*
X107253571Y-108378571D01*
X108110714Y-109878571D01*
X108110714Y-108378571D01*
X115750000Y-108378571D02*
X116035714Y-108378571D01*
X116178571Y-108450000D01*
X116321428Y-108592857D01*
X116392857Y-108878571D01*
X116392857Y-109378571D01*
X116321428Y-109664285D01*
X116178571Y-109807142D01*
X116035714Y-109878571D01*
X115750000Y-109878571D01*
X115607142Y-109807142D01*
X115464285Y-109664285D01*
X115392857Y-109378571D01*
X115392857Y-108878571D01*
X115464285Y-108592857D01*
X115607142Y-108450000D01*
X115750000Y-108378571D01*
X117035714Y-108378571D02*
X117035714Y-109592857D01*
X117107142Y-109735714D01*
X117178571Y-109807142D01*
X117321428Y-109878571D01*
X117607142Y-109878571D01*
X117750000Y-109807142D01*
X117821428Y-109735714D01*
X117892857Y-109592857D01*
X117892857Y-108378571D01*
X118392857Y-108378571D02*
X119250000Y-108378571D01*
X118821428Y-109878571D02*
X118821428Y-108378571D01*
D12*
X115000000Y-76150000D02*
X115475000Y-76625000D01*
X115000000Y-76150000D02*
X115450000Y-75700000D01*
X115475000Y-76625000D02*
X115025000Y-76150000D01*
X115300000Y-75850000D02*
X115475000Y-75675000D01*
X109700000Y-76425000D02*
X109525000Y-76600000D01*
X110000000Y-76125000D02*
X109550000Y-76575000D01*
X109525000Y-75650000D02*
X109975000Y-76125000D01*
X110000000Y-76125000D02*
X109525000Y-75650000D01*
D13*
X105521428Y-84728571D02*
X104807142Y-84728571D01*
X104807142Y-83228571D01*
X106021428Y-84728571D02*
X106021428Y-83228571D01*
X106735714Y-84728571D02*
X106735714Y-83228571D01*
X107592857Y-84728571D01*
X107592857Y-83228571D01*
X116964285Y-84042857D02*
X117464285Y-84042857D01*
X117678571Y-84828571D02*
X116964285Y-84828571D01*
X116964285Y-83328571D01*
X117678571Y-83328571D01*
X118178571Y-83328571D02*
X119178571Y-84828571D01*
X119178571Y-83328571D02*
X118178571Y-84828571D01*
X119750000Y-84828571D02*
X119750000Y-83328571D01*
X120321428Y-83328571D01*
X120464285Y-83400000D01*
X120535714Y-83471428D01*
X120607142Y-83614285D01*
X120607142Y-83828571D01*
X120535714Y-83971428D01*
X120464285Y-84042857D01*
X120321428Y-84114285D01*
X119750000Y-84114285D01*
D12*
X112350000Y-91600000D02*
X112350000Y-91600000D01*
X107250000Y-93500000D02*
X107250000Y-98050000D01*
X109850000Y-93500000D02*
X107250000Y-93500000D01*
X114400000Y-93500000D02*
X115500000Y-93500000D01*
X112350000Y-87750000D02*
X112350000Y-91600000D01*
X114300000Y-93500000D02*
X110300000Y-91000000D01*
X110300000Y-96000000D02*
X114300000Y-93500000D01*
X110300000Y-93500000D02*
X110300000Y-96000000D01*
X110300000Y-91000000D02*
X110300000Y-93500000D01*
X117410000Y-95300000D02*
X117400000Y-97825000D01*
X112470000Y-78040000D02*
X112470000Y-80150000D01*
X115000000Y-76150000D02*
X117520000Y-76140000D01*
X117520000Y-71390000D02*
X117520000Y-76140000D01*
X107560000Y-76120000D02*
X109975000Y-76125000D01*
X107540000Y-71360000D02*
X107540000Y-76110000D01*
X162770001Y-103210000D02*
G75*
G03X162770001Y-103210000I-4700383J0D01*
G01*
X142400001Y-103250000D02*
G75*
G03X142400001Y-103250000I-4700383J0D01*
G01*
X122090001Y-103250000D02*
G75*
G03X122090001Y-103250000I-4700383J0D01*
G01*
D15*
X133027619Y-5460952D02*
X133860952Y-7960952D01*
X134694285Y-5460952D01*
X136956190Y-7722857D02*
X136837142Y-7841904D01*
X136480000Y-7960952D01*
X136241904Y-7960952D01*
X135884761Y-7841904D01*
X135646666Y-7603809D01*
X135527619Y-7365714D01*
X135408571Y-6889523D01*
X135408571Y-6532380D01*
X135527619Y-6056190D01*
X135646666Y-5818095D01*
X135884761Y-5580000D01*
X136241904Y-5460952D01*
X136480000Y-5460952D01*
X136837142Y-5580000D01*
X136956190Y-5699047D01*
X137908571Y-7246666D02*
X139099047Y-7246666D01*
X137670476Y-7960952D02*
X138503809Y-5460952D01*
X139337142Y-7960952D01*
X142075238Y-7960952D02*
X142075238Y-5460952D01*
X142908571Y-7246666D01*
X143741904Y-5460952D01*
X143741904Y-7960952D01*
X144932380Y-7960952D02*
X144932380Y-5460952D01*
X145884761Y-5460952D02*
X147551428Y-7960952D01*
X147551428Y-5460952D02*
X145884761Y-7960952D01*
X148503809Y-6651428D02*
X149337142Y-6651428D01*
X149694285Y-7960952D02*
X148503809Y-7960952D01*
X148503809Y-5460952D01*
X149694285Y-5460952D01*
X152194285Y-7960952D02*
X151360952Y-6770476D01*
X150765714Y-7960952D02*
X150765714Y-5460952D01*
X151718095Y-5460952D01*
X151956190Y-5580000D01*
X152075238Y-5699047D01*
X152194285Y-5937142D01*
X152194285Y-6294285D01*
X152075238Y-6532380D01*
X151956190Y-6651428D01*
X151718095Y-6770476D01*
X150765714Y-6770476D01*
D13*
X132174642Y-129128571D02*
X132362142Y-127628571D01*
X132728214Y-128700000D01*
X133362142Y-127628571D01*
X133174642Y-129128571D01*
X133871071Y-128700000D02*
X134585357Y-128700000D01*
X133674642Y-129128571D02*
X134362142Y-127628571D01*
X134674642Y-129128571D01*
X135147857Y-127628571D02*
X136005000Y-127628571D01*
X135388928Y-129128571D02*
X135576428Y-127628571D01*
X136415714Y-128342857D02*
X136915714Y-128342857D01*
X137031785Y-129128571D02*
X136317500Y-129128571D01*
X136505000Y-127628571D01*
X137219285Y-127628571D01*
X138531785Y-129128571D02*
X138121071Y-128414285D01*
X137674642Y-129128571D02*
X137862142Y-127628571D01*
X138433571Y-127628571D01*
X138567500Y-127700000D01*
X138630000Y-127771428D01*
X138683571Y-127914285D01*
X138656785Y-128128571D01*
X138567500Y-128271428D01*
X138487142Y-128342857D01*
X138335357Y-128414285D01*
X137763928Y-128414285D01*
X139174642Y-129128571D02*
X139362142Y-127628571D01*
X139871071Y-128700000D02*
X140585357Y-128700000D01*
X139674642Y-129128571D02*
X140362142Y-127628571D01*
X140674642Y-129128571D01*
X141888928Y-129128571D02*
X141174642Y-129128571D01*
X141362142Y-127628571D01*
X143531785Y-129128571D02*
X143719285Y-127628571D01*
X144085357Y-128700000D01*
X144719285Y-127628571D01*
X144531785Y-129128571D01*
X145344285Y-128342857D02*
X145844285Y-128342857D01*
X145960357Y-129128571D02*
X145246071Y-129128571D01*
X145433571Y-127628571D01*
X146147857Y-127628571D01*
X146576428Y-127628571D02*
X147433571Y-127628571D01*
X146817500Y-129128571D02*
X147005000Y-127628571D01*
X147746071Y-129128571D02*
X147933571Y-127628571D01*
X147844285Y-128342857D02*
X148701428Y-128342857D01*
X148603214Y-129128571D02*
X148790714Y-127628571D01*
X149790714Y-127628571D02*
X150076428Y-127628571D01*
X150210357Y-127700000D01*
X150335357Y-127842857D01*
X150371071Y-128128571D01*
X150308571Y-128628571D01*
X150201428Y-128914285D01*
X150040714Y-129057142D01*
X149888928Y-129128571D01*
X149603214Y-129128571D01*
X149469285Y-129057142D01*
X149344285Y-128914285D01*
X149308571Y-128628571D01*
X149371071Y-128128571D01*
X149478214Y-127842857D01*
X149638928Y-127700000D01*
X149790714Y-127628571D01*
X150888928Y-129128571D02*
X151076428Y-127628571D01*
X151433571Y-127628571D01*
X151638928Y-127700000D01*
X151763928Y-127842857D01*
X151817500Y-127985714D01*
X151853214Y-128271428D01*
X151826428Y-128485714D01*
X151719285Y-128771428D01*
X151630000Y-128914285D01*
X151469285Y-129057142D01*
X151246071Y-129128571D01*
X150888928Y-129128571D01*
X152326428Y-129057142D02*
X152531785Y-129128571D01*
X152888928Y-129128571D01*
X153040714Y-129057142D01*
X153121071Y-128985714D01*
X153210357Y-128842857D01*
X153228214Y-128700000D01*
X153174642Y-128557142D01*
X153112142Y-128485714D01*
X152978214Y-128414285D01*
X152701428Y-128342857D01*
X152567500Y-128271428D01*
X152505000Y-128200000D01*
X152451428Y-128057142D01*
X152469285Y-127914285D01*
X152558571Y-127771428D01*
X152638928Y-127700000D01*
X152790714Y-127628571D01*
X153147857Y-127628571D01*
X153353214Y-127700000D01*
D12*
X102350000Y-10440000D02*
X183210000Y-10430000D01*
X102350000Y-124960000D02*
X183240000Y-124940000D01*
M02*
