%TF.GenerationSoftware,KiCad,Pcbnew,(5.0.1)-3*%
%TF.CreationDate,2020-04-13T19:58:09+01:00*%
%TF.ProjectId,panel,70616E656C2E6B696361645F70636200,rev?*%
%TF.SameCoordinates,Original*%
%TF.FileFunction,Legend,Bot*%
%TF.FilePolarity,Positive*%
%FSLAX46Y46*%
G04 Gerber Fmt 4.6, Leading zero omitted, Abs format (unit mm)*
G04 Created by KiCad (PCBNEW (5.0.1)-3) date 13/04/2020 19:58:09*
%MOMM*%
%LPD*%
G01*
G04 APERTURE LIST*
%ADD10C,0.300000*%
G04 APERTURE END LIST*
D10*
X159328571Y-24832571D02*
X159328571Y-25904000D01*
X159400000Y-26118285D01*
X159542857Y-26261142D01*
X159757142Y-26332571D01*
X159900000Y-26332571D01*
X157900000Y-26332571D02*
X158614285Y-26332571D01*
X158614285Y-24832571D01*
X156542857Y-26189714D02*
X156614285Y-26261142D01*
X156828571Y-26332571D01*
X156971428Y-26332571D01*
X157185714Y-26261142D01*
X157328571Y-26118285D01*
X157400000Y-25975428D01*
X157471428Y-25689714D01*
X157471428Y-25475428D01*
X157400000Y-25189714D01*
X157328571Y-25046857D01*
X157185714Y-24904000D01*
X156971428Y-24832571D01*
X156828571Y-24832571D01*
X156614285Y-24904000D01*
X156542857Y-24975428D01*
X155471428Y-24832571D02*
X155471428Y-25904000D01*
X155542857Y-26118285D01*
X155685714Y-26261142D01*
X155900000Y-26332571D01*
X156042857Y-26332571D01*
X154042857Y-26332571D02*
X154757142Y-26332571D01*
X154757142Y-24832571D01*
X152685714Y-26189714D02*
X152757142Y-26261142D01*
X152971428Y-26332571D01*
X153114285Y-26332571D01*
X153328571Y-26261142D01*
X153471428Y-26118285D01*
X153542857Y-25975428D01*
X153614285Y-25689714D01*
X153614285Y-25475428D01*
X153542857Y-25189714D01*
X153471428Y-25046857D01*
X153328571Y-24904000D01*
X153114285Y-24832571D01*
X152971428Y-24832571D01*
X152757142Y-24904000D01*
X152685714Y-24975428D01*
X151614285Y-24832571D02*
X151614285Y-25904000D01*
X151685714Y-26118285D01*
X151828571Y-26261142D01*
X152042857Y-26332571D01*
X152185714Y-26332571D01*
X150185714Y-26332571D02*
X150900000Y-26332571D01*
X150900000Y-24832571D01*
X148828571Y-26189714D02*
X148900000Y-26261142D01*
X149114285Y-26332571D01*
X149257142Y-26332571D01*
X149471428Y-26261142D01*
X149614285Y-26118285D01*
X149685714Y-25975428D01*
X149757142Y-25689714D01*
X149757142Y-25475428D01*
X149685714Y-25189714D01*
X149614285Y-25046857D01*
X149471428Y-24904000D01*
X149257142Y-24832571D01*
X149114285Y-24832571D01*
X148900000Y-24904000D01*
X148828571Y-24975428D01*
X147757142Y-24832571D02*
X147757142Y-25904000D01*
X147828571Y-26118285D01*
X147971428Y-26261142D01*
X148185714Y-26332571D01*
X148328571Y-26332571D01*
X146328571Y-26332571D02*
X147042857Y-26332571D01*
X147042857Y-24832571D01*
X144971428Y-26189714D02*
X145042857Y-26261142D01*
X145257142Y-26332571D01*
X145400000Y-26332571D01*
X145614285Y-26261142D01*
X145757142Y-26118285D01*
X145828571Y-25975428D01*
X145900000Y-25689714D01*
X145900000Y-25475428D01*
X145828571Y-25189714D01*
X145757142Y-25046857D01*
X145614285Y-24904000D01*
X145400000Y-24832571D01*
X145257142Y-24832571D01*
X145042857Y-24904000D01*
X144971428Y-24975428D01*
M02*
