%TF.GenerationSoftware,KiCad,Pcbnew,(5.0.1)-3*%
%TF.CreationDate,2020-04-13T19:58:08+01:00*%
%TF.ProjectId,panel,70616E656C2E6B696361645F70636200,rev?*%
%TF.SameCoordinates,Original*%
%TF.FileFunction,Copper,L2,Bot,Signal*%
%TF.FilePolarity,Positive*%
%FSLAX46Y46*%
G04 Gerber Fmt 4.6, Leading zero omitted, Abs format (unit mm)*
G04 Created by KiCad (PCBNEW (5.0.1)-3) date 13/04/2020 19:58:08*
%MOMM*%
%LPD*%
G01*
G04 APERTURE LIST*
%ADD10C,3.300000*%
%ADD11C,6.200000*%
%ADD12C,7.200000*%
%ADD13C,0.254000*%
G04 APERTURE END LIST*
D10*
X109850000Y-6450000D03*
X175900000Y-6450000D03*
X109850000Y-128950000D03*
X175900000Y-128950000D03*
D11*
X107350000Y-19190000D03*
X178200000Y-19200000D03*
X107250000Y-103200000D03*
X107250000Y-116090000D03*
X117400000Y-116100000D03*
X117410000Y-103200000D03*
X127580000Y-103200000D03*
X127570000Y-116100000D03*
X137720000Y-103200000D03*
X137720000Y-116100000D03*
X147870000Y-103200000D03*
X147880000Y-116090000D03*
X158030000Y-116100000D03*
X158040000Y-103200000D03*
X168200000Y-116090000D03*
X178350000Y-116100000D03*
X178360000Y-103200000D03*
X168200000Y-103190000D03*
D12*
X120600000Y-19200000D03*
X135370000Y-19190000D03*
X150180000Y-19200000D03*
X164950000Y-19190000D03*
X112350000Y-83950000D03*
X132680000Y-83940000D03*
X152990000Y-83940000D03*
X173300000Y-83940000D03*
D10*
X112460000Y-76160000D03*
X132570000Y-76120000D03*
X152920000Y-76150000D03*
X173330000Y-76120000D03*
X178350000Y-93450000D03*
X158030000Y-93450000D03*
X137720000Y-93450000D03*
X117400000Y-93450000D03*
D13*
G36*
X109832565Y-4165000D02*
X109395485Y-4165000D01*
X109378756Y-4171930D01*
X109360650Y-4172206D01*
X108585379Y-4493334D01*
X108580443Y-4502601D01*
X108555651Y-4512870D01*
X107912870Y-5155651D01*
X107902601Y-5180443D01*
X107893334Y-5185379D01*
X107732272Y-5591653D01*
X107565000Y-5995485D01*
X107565000Y-6013594D01*
X107558327Y-6030426D01*
X107565000Y-6467435D01*
X107565000Y-6904515D01*
X107571930Y-6921244D01*
X107572206Y-6939350D01*
X107893334Y-7714621D01*
X107902601Y-7719557D01*
X107912870Y-7744349D01*
X108555651Y-8387130D01*
X108580443Y-8397399D01*
X108585379Y-8406666D01*
X108991653Y-8567728D01*
X109395485Y-8735000D01*
X109413594Y-8735000D01*
X109430426Y-8741673D01*
X109867435Y-8735000D01*
X110304515Y-8735000D01*
X110321244Y-8728070D01*
X110339350Y-8727794D01*
X111114621Y-8406666D01*
X111119557Y-8397399D01*
X111144349Y-8387130D01*
X111787130Y-7744349D01*
X111797399Y-7719557D01*
X111806666Y-7714621D01*
X111967728Y-7308347D01*
X112135000Y-6904515D01*
X112135000Y-6886406D01*
X112141673Y-6869574D01*
X112135000Y-6432565D01*
X112135000Y-5995485D01*
X112128070Y-5978756D01*
X112127794Y-5960650D01*
X111806666Y-5185379D01*
X111797399Y-5180443D01*
X111787130Y-5155651D01*
X111144349Y-4512870D01*
X111119557Y-4502601D01*
X111114621Y-4493334D01*
X110708347Y-4332272D01*
X110304515Y-4165000D01*
X110286406Y-4165000D01*
X110273794Y-4160000D01*
X176210011Y-4160000D01*
X175882565Y-4165000D01*
X175445485Y-4165000D01*
X175428756Y-4171930D01*
X175410650Y-4172206D01*
X174635379Y-4493334D01*
X174630443Y-4502601D01*
X174605651Y-4512870D01*
X173962870Y-5155651D01*
X173952601Y-5180443D01*
X173943334Y-5185379D01*
X173782272Y-5591653D01*
X173615000Y-5995485D01*
X173615000Y-6013594D01*
X173608327Y-6030426D01*
X173615000Y-6467435D01*
X173615000Y-6904515D01*
X173621930Y-6921244D01*
X173622206Y-6939350D01*
X173943334Y-7714621D01*
X173952601Y-7719557D01*
X173962870Y-7744349D01*
X174605651Y-8387130D01*
X174630443Y-8397399D01*
X174635379Y-8406666D01*
X175041653Y-8567728D01*
X175445485Y-8735000D01*
X175463594Y-8735000D01*
X175480426Y-8741673D01*
X175917435Y-8735000D01*
X176354515Y-8735000D01*
X176371244Y-8728070D01*
X176389350Y-8727794D01*
X177164621Y-8406666D01*
X177169557Y-8397399D01*
X177194349Y-8387130D01*
X177837130Y-7744349D01*
X177847399Y-7719557D01*
X177856666Y-7714621D01*
X178017728Y-7308347D01*
X178185000Y-6904515D01*
X178185000Y-6886406D01*
X178191673Y-6869574D01*
X178185000Y-6432565D01*
X178185000Y-5995485D01*
X178178070Y-5978756D01*
X178177794Y-5960650D01*
X177856666Y-5185379D01*
X177847399Y-5180443D01*
X177837130Y-5155651D01*
X177194349Y-4512870D01*
X177169557Y-4502601D01*
X177164621Y-4493334D01*
X176758347Y-4332272D01*
X176354515Y-4165000D01*
X176336406Y-4165000D01*
X176323794Y-4160000D01*
X182540000Y-4160000D01*
X182540001Y-131240000D01*
X175589989Y-131240000D01*
X175917435Y-131235000D01*
X176354515Y-131235000D01*
X176371244Y-131228070D01*
X176389350Y-131227794D01*
X177164621Y-130906666D01*
X177169557Y-130897399D01*
X177194349Y-130887130D01*
X177837130Y-130244349D01*
X177847399Y-130219557D01*
X177856666Y-130214621D01*
X178017728Y-129808347D01*
X178185000Y-129404515D01*
X178185000Y-129386406D01*
X178191673Y-129369574D01*
X178185000Y-128932565D01*
X178185000Y-128495485D01*
X178178070Y-128478756D01*
X178177794Y-128460650D01*
X177856666Y-127685379D01*
X177847399Y-127680443D01*
X177837130Y-127655651D01*
X177194349Y-127012870D01*
X177169557Y-127002601D01*
X177164621Y-126993334D01*
X176758347Y-126832272D01*
X176354515Y-126665000D01*
X176336406Y-126665000D01*
X176319574Y-126658327D01*
X175882565Y-126665000D01*
X175445485Y-126665000D01*
X175428756Y-126671930D01*
X175410650Y-126672206D01*
X174635379Y-126993334D01*
X174630443Y-127002601D01*
X174605651Y-127012870D01*
X173962870Y-127655651D01*
X173952601Y-127680443D01*
X173943334Y-127685379D01*
X173782272Y-128091653D01*
X173615000Y-128495485D01*
X173615000Y-128513594D01*
X173608327Y-128530426D01*
X173615000Y-128967435D01*
X173615000Y-129404515D01*
X173621930Y-129421244D01*
X173622206Y-129439350D01*
X173943334Y-130214621D01*
X173952601Y-130219557D01*
X173962870Y-130244349D01*
X174605651Y-130887130D01*
X174630443Y-130897399D01*
X174635379Y-130906666D01*
X175041653Y-131067728D01*
X175445485Y-131235000D01*
X175463594Y-131235000D01*
X175476206Y-131240000D01*
X109539989Y-131240000D01*
X109867435Y-131235000D01*
X110304515Y-131235000D01*
X110321244Y-131228070D01*
X110339350Y-131227794D01*
X111114621Y-130906666D01*
X111119557Y-130897399D01*
X111144349Y-130887130D01*
X111787130Y-130244349D01*
X111797399Y-130219557D01*
X111806666Y-130214621D01*
X111967728Y-129808347D01*
X112135000Y-129404515D01*
X112135000Y-129386406D01*
X112141673Y-129369574D01*
X112135000Y-128932565D01*
X112135000Y-128495485D01*
X112128070Y-128478756D01*
X112127794Y-128460650D01*
X111806666Y-127685379D01*
X111797399Y-127680443D01*
X111787130Y-127655651D01*
X111144349Y-127012870D01*
X111119557Y-127002601D01*
X111114621Y-126993334D01*
X110708347Y-126832272D01*
X110304515Y-126665000D01*
X110286406Y-126665000D01*
X110269574Y-126658327D01*
X109832565Y-126665000D01*
X109395485Y-126665000D01*
X109378756Y-126671930D01*
X109360650Y-126672206D01*
X108585379Y-126993334D01*
X108580443Y-127002601D01*
X108555651Y-127012870D01*
X107912870Y-127655651D01*
X107902601Y-127680443D01*
X107893334Y-127685379D01*
X107732272Y-128091653D01*
X107565000Y-128495485D01*
X107565000Y-128513594D01*
X107558327Y-128530426D01*
X107565000Y-128967435D01*
X107565000Y-129404515D01*
X107571930Y-129421244D01*
X107572206Y-129439350D01*
X107893334Y-130214621D01*
X107902601Y-130219557D01*
X107912870Y-130244349D01*
X108555651Y-130887130D01*
X108580443Y-130897399D01*
X108585379Y-130906666D01*
X108991653Y-131067728D01*
X109395485Y-131235000D01*
X109413594Y-131235000D01*
X109426206Y-131240000D01*
X103060000Y-131240000D01*
X103060000Y-116810835D01*
X103510671Y-116810835D01*
X103515000Y-116821463D01*
X103515000Y-116832938D01*
X103795061Y-117509065D01*
X104071162Y-118186944D01*
X104083490Y-118205394D01*
X104083620Y-118205708D01*
X104083860Y-118205948D01*
X104096188Y-118224398D01*
X104118982Y-118241070D01*
X105098930Y-119221018D01*
X105115602Y-119243812D01*
X105126178Y-119248266D01*
X105134292Y-119256380D01*
X105810425Y-119536444D01*
X106484985Y-119820541D01*
X106496461Y-119820609D01*
X106507062Y-119825000D01*
X107238900Y-119825000D01*
X107970835Y-119829329D01*
X107981463Y-119825000D01*
X107992938Y-119825000D01*
X108669065Y-119544939D01*
X109346944Y-119268838D01*
X109365394Y-119256510D01*
X109365708Y-119256380D01*
X109365948Y-119256140D01*
X109384398Y-119243812D01*
X109401070Y-119221018D01*
X110381018Y-118241070D01*
X110403812Y-118224398D01*
X110408266Y-118213822D01*
X110416380Y-118205708D01*
X110696444Y-117529575D01*
X110980541Y-116855015D01*
X110980609Y-116843539D01*
X110985000Y-116832938D01*
X110985000Y-116820835D01*
X113660671Y-116820835D01*
X113665000Y-116831463D01*
X113665000Y-116842938D01*
X113945061Y-117519065D01*
X114221162Y-118196944D01*
X114233490Y-118215394D01*
X114233620Y-118215708D01*
X114233860Y-118215948D01*
X114246188Y-118234398D01*
X114268982Y-118251070D01*
X115248930Y-119231018D01*
X115265602Y-119253812D01*
X115276178Y-119258266D01*
X115284292Y-119266380D01*
X115960425Y-119546444D01*
X116634985Y-119830541D01*
X116646461Y-119830609D01*
X116657062Y-119835000D01*
X117388900Y-119835000D01*
X118120835Y-119839329D01*
X118131463Y-119835000D01*
X118142938Y-119835000D01*
X118819065Y-119554939D01*
X119496944Y-119278838D01*
X119515394Y-119266510D01*
X119515708Y-119266380D01*
X119515948Y-119266140D01*
X119534398Y-119253812D01*
X119551070Y-119231018D01*
X120531018Y-118251070D01*
X120553812Y-118234398D01*
X120558266Y-118223822D01*
X120566380Y-118215708D01*
X120846444Y-117539575D01*
X121130541Y-116865015D01*
X121130609Y-116853539D01*
X121135000Y-116842938D01*
X121135000Y-116820835D01*
X123830671Y-116820835D01*
X123835000Y-116831463D01*
X123835000Y-116842938D01*
X124115061Y-117519065D01*
X124391162Y-118196944D01*
X124403490Y-118215394D01*
X124403620Y-118215708D01*
X124403860Y-118215948D01*
X124416188Y-118234398D01*
X124438982Y-118251070D01*
X125418930Y-119231018D01*
X125435602Y-119253812D01*
X125446178Y-119258266D01*
X125454292Y-119266380D01*
X126130425Y-119546444D01*
X126804985Y-119830541D01*
X126816461Y-119830609D01*
X126827062Y-119835000D01*
X127558900Y-119835000D01*
X128290835Y-119839329D01*
X128301463Y-119835000D01*
X128312938Y-119835000D01*
X128989065Y-119554939D01*
X129666944Y-119278838D01*
X129685394Y-119266510D01*
X129685708Y-119266380D01*
X129685948Y-119266140D01*
X129704398Y-119253812D01*
X129721070Y-119231018D01*
X130701018Y-118251070D01*
X130723812Y-118234398D01*
X130728266Y-118223822D01*
X130736380Y-118215708D01*
X131016444Y-117539575D01*
X131300541Y-116865015D01*
X131300609Y-116853539D01*
X131305000Y-116842938D01*
X131305000Y-116820835D01*
X133980671Y-116820835D01*
X133985000Y-116831463D01*
X133985000Y-116842938D01*
X134265061Y-117519065D01*
X134541162Y-118196944D01*
X134553490Y-118215394D01*
X134553620Y-118215708D01*
X134553860Y-118215948D01*
X134566188Y-118234398D01*
X134588982Y-118251070D01*
X135568930Y-119231018D01*
X135585602Y-119253812D01*
X135596178Y-119258266D01*
X135604292Y-119266380D01*
X136280425Y-119546444D01*
X136954985Y-119830541D01*
X136966461Y-119830609D01*
X136977062Y-119835000D01*
X137708900Y-119835000D01*
X138440835Y-119839329D01*
X138451463Y-119835000D01*
X138462938Y-119835000D01*
X139139065Y-119554939D01*
X139816944Y-119278838D01*
X139835394Y-119266510D01*
X139835708Y-119266380D01*
X139835948Y-119266140D01*
X139854398Y-119253812D01*
X139871070Y-119231018D01*
X140851018Y-118251070D01*
X140873812Y-118234398D01*
X140878266Y-118223822D01*
X140886380Y-118215708D01*
X141166444Y-117539575D01*
X141450541Y-116865015D01*
X141450609Y-116853539D01*
X141455000Y-116842938D01*
X141455000Y-116810835D01*
X144140671Y-116810835D01*
X144145000Y-116821463D01*
X144145000Y-116832938D01*
X144425061Y-117509065D01*
X144701162Y-118186944D01*
X144713490Y-118205394D01*
X144713620Y-118205708D01*
X144713860Y-118205948D01*
X144726188Y-118224398D01*
X144748982Y-118241070D01*
X145728930Y-119221018D01*
X145745602Y-119243812D01*
X145756178Y-119248266D01*
X145764292Y-119256380D01*
X146440425Y-119536444D01*
X147114985Y-119820541D01*
X147126461Y-119820609D01*
X147137062Y-119825000D01*
X147868900Y-119825000D01*
X148600835Y-119829329D01*
X148611463Y-119825000D01*
X148622938Y-119825000D01*
X149299065Y-119544939D01*
X149976944Y-119268838D01*
X149995394Y-119256510D01*
X149995708Y-119256380D01*
X149995948Y-119256140D01*
X150014398Y-119243812D01*
X150031070Y-119221018D01*
X151011018Y-118241070D01*
X151033812Y-118224398D01*
X151038266Y-118213822D01*
X151046380Y-118205708D01*
X151326444Y-117529575D01*
X151610541Y-116855015D01*
X151610609Y-116843539D01*
X151615000Y-116832938D01*
X151615000Y-116820835D01*
X154290671Y-116820835D01*
X154295000Y-116831463D01*
X154295000Y-116842938D01*
X154575061Y-117519065D01*
X154851162Y-118196944D01*
X154863490Y-118215394D01*
X154863620Y-118215708D01*
X154863860Y-118215948D01*
X154876188Y-118234398D01*
X154898982Y-118251070D01*
X155878930Y-119231018D01*
X155895602Y-119253812D01*
X155906178Y-119258266D01*
X155914292Y-119266380D01*
X156590425Y-119546444D01*
X157264985Y-119830541D01*
X157276461Y-119830609D01*
X157287062Y-119835000D01*
X158018900Y-119835000D01*
X158750835Y-119839329D01*
X158761463Y-119835000D01*
X158772938Y-119835000D01*
X159449065Y-119554939D01*
X160126944Y-119278838D01*
X160145394Y-119266510D01*
X160145708Y-119266380D01*
X160145948Y-119266140D01*
X160164398Y-119253812D01*
X160181070Y-119231018D01*
X161161018Y-118251070D01*
X161183812Y-118234398D01*
X161188266Y-118223822D01*
X161196380Y-118215708D01*
X161476444Y-117539575D01*
X161760541Y-116865015D01*
X161760609Y-116853539D01*
X161765000Y-116842938D01*
X161765000Y-116810835D01*
X164460671Y-116810835D01*
X164465000Y-116821463D01*
X164465000Y-116832938D01*
X164745061Y-117509065D01*
X165021162Y-118186944D01*
X165033490Y-118205394D01*
X165033620Y-118205708D01*
X165033860Y-118205948D01*
X165046188Y-118224398D01*
X165068982Y-118241070D01*
X166048930Y-119221018D01*
X166065602Y-119243812D01*
X166076178Y-119248266D01*
X166084292Y-119256380D01*
X166760425Y-119536444D01*
X167434985Y-119820541D01*
X167446461Y-119820609D01*
X167457062Y-119825000D01*
X168188900Y-119825000D01*
X168920835Y-119829329D01*
X168931463Y-119825000D01*
X168942938Y-119825000D01*
X169619065Y-119544939D01*
X170296944Y-119268838D01*
X170315394Y-119256510D01*
X170315708Y-119256380D01*
X170315948Y-119256140D01*
X170334398Y-119243812D01*
X170351070Y-119221018D01*
X171331018Y-118241070D01*
X171353812Y-118224398D01*
X171358266Y-118213822D01*
X171366380Y-118205708D01*
X171646444Y-117529575D01*
X171930541Y-116855015D01*
X171930609Y-116843539D01*
X171935000Y-116832938D01*
X171935000Y-116820835D01*
X174610671Y-116820835D01*
X174615000Y-116831463D01*
X174615000Y-116842938D01*
X174895061Y-117519065D01*
X175171162Y-118196944D01*
X175183490Y-118215394D01*
X175183620Y-118215708D01*
X175183860Y-118215948D01*
X175196188Y-118234398D01*
X175218982Y-118251070D01*
X176198930Y-119231018D01*
X176215602Y-119253812D01*
X176226178Y-119258266D01*
X176234292Y-119266380D01*
X176910425Y-119546444D01*
X177584985Y-119830541D01*
X177596461Y-119830609D01*
X177607062Y-119835000D01*
X178338900Y-119835000D01*
X179070835Y-119839329D01*
X179081463Y-119835000D01*
X179092938Y-119835000D01*
X179769065Y-119554939D01*
X180446944Y-119278838D01*
X180465394Y-119266510D01*
X180465708Y-119266380D01*
X180465948Y-119266140D01*
X180484398Y-119253812D01*
X180501070Y-119231018D01*
X181481018Y-118251070D01*
X181503812Y-118234398D01*
X181508266Y-118223822D01*
X181516380Y-118215708D01*
X181796444Y-117539575D01*
X182080541Y-116865015D01*
X182080609Y-116853539D01*
X182085000Y-116842938D01*
X182085000Y-116111100D01*
X182089329Y-115379165D01*
X182085000Y-115368537D01*
X182085000Y-115357062D01*
X181804939Y-114680935D01*
X181528838Y-114003056D01*
X181516510Y-113984606D01*
X181516380Y-113984292D01*
X181516140Y-113984052D01*
X181503812Y-113965602D01*
X181481018Y-113948930D01*
X180501070Y-112968982D01*
X180484398Y-112946188D01*
X180473822Y-112941734D01*
X180465708Y-112933620D01*
X179789575Y-112653556D01*
X179115015Y-112369459D01*
X179103539Y-112369391D01*
X179092938Y-112365000D01*
X178361100Y-112365000D01*
X177629165Y-112360671D01*
X177618537Y-112365000D01*
X177607062Y-112365000D01*
X176930935Y-112645061D01*
X176253056Y-112921162D01*
X176234606Y-112933490D01*
X176234292Y-112933620D01*
X176234052Y-112933860D01*
X176215602Y-112946188D01*
X176198930Y-112968982D01*
X175218982Y-113948930D01*
X175196188Y-113965602D01*
X175191734Y-113976178D01*
X175183620Y-113984292D01*
X174903556Y-114660425D01*
X174619459Y-115334985D01*
X174619391Y-115346461D01*
X174615000Y-115357062D01*
X174615000Y-116088900D01*
X174610671Y-116820835D01*
X171935000Y-116820835D01*
X171935000Y-116101100D01*
X171939329Y-115369165D01*
X171935000Y-115358537D01*
X171935000Y-115347062D01*
X171654939Y-114670935D01*
X171378838Y-113993056D01*
X171366510Y-113974606D01*
X171366380Y-113974292D01*
X171366140Y-113974052D01*
X171353812Y-113955602D01*
X171331018Y-113938930D01*
X170351070Y-112958982D01*
X170334398Y-112936188D01*
X170323822Y-112931734D01*
X170315708Y-112923620D01*
X169639575Y-112643556D01*
X168965015Y-112359459D01*
X168953539Y-112359391D01*
X168942938Y-112355000D01*
X168211100Y-112355000D01*
X167479165Y-112350671D01*
X167468537Y-112355000D01*
X167457062Y-112355000D01*
X166780935Y-112635061D01*
X166103056Y-112911162D01*
X166084606Y-112923490D01*
X166084292Y-112923620D01*
X166084052Y-112923860D01*
X166065602Y-112936188D01*
X166048930Y-112958982D01*
X165068982Y-113938930D01*
X165046188Y-113955602D01*
X165041734Y-113966178D01*
X165033620Y-113974292D01*
X164753556Y-114650425D01*
X164469459Y-115324985D01*
X164469391Y-115336461D01*
X164465000Y-115347062D01*
X164465000Y-116078900D01*
X164460671Y-116810835D01*
X161765000Y-116810835D01*
X161765000Y-116111100D01*
X161769329Y-115379165D01*
X161765000Y-115368537D01*
X161765000Y-115357062D01*
X161484939Y-114680935D01*
X161208838Y-114003056D01*
X161196510Y-113984606D01*
X161196380Y-113984292D01*
X161196140Y-113984052D01*
X161183812Y-113965602D01*
X161161018Y-113948930D01*
X160181070Y-112968982D01*
X160164398Y-112946188D01*
X160153822Y-112941734D01*
X160145708Y-112933620D01*
X159469575Y-112653556D01*
X158795015Y-112369459D01*
X158783539Y-112369391D01*
X158772938Y-112365000D01*
X158041100Y-112365000D01*
X157309165Y-112360671D01*
X157298537Y-112365000D01*
X157287062Y-112365000D01*
X156610935Y-112645061D01*
X155933056Y-112921162D01*
X155914606Y-112933490D01*
X155914292Y-112933620D01*
X155914052Y-112933860D01*
X155895602Y-112946188D01*
X155878930Y-112968982D01*
X154898982Y-113948930D01*
X154876188Y-113965602D01*
X154871734Y-113976178D01*
X154863620Y-113984292D01*
X154583556Y-114660425D01*
X154299459Y-115334985D01*
X154299391Y-115346461D01*
X154295000Y-115357062D01*
X154295000Y-116088900D01*
X154290671Y-116820835D01*
X151615000Y-116820835D01*
X151615000Y-116101100D01*
X151619329Y-115369165D01*
X151615000Y-115358537D01*
X151615000Y-115347062D01*
X151334939Y-114670935D01*
X151058838Y-113993056D01*
X151046510Y-113974606D01*
X151046380Y-113974292D01*
X151046140Y-113974052D01*
X151033812Y-113955602D01*
X151011018Y-113938930D01*
X150031070Y-112958982D01*
X150014398Y-112936188D01*
X150003822Y-112931734D01*
X149995708Y-112923620D01*
X149319575Y-112643556D01*
X148645015Y-112359459D01*
X148633539Y-112359391D01*
X148622938Y-112355000D01*
X147891100Y-112355000D01*
X147159165Y-112350671D01*
X147148537Y-112355000D01*
X147137062Y-112355000D01*
X146460935Y-112635061D01*
X145783056Y-112911162D01*
X145764606Y-112923490D01*
X145764292Y-112923620D01*
X145764052Y-112923860D01*
X145745602Y-112936188D01*
X145728930Y-112958982D01*
X144748982Y-113938930D01*
X144726188Y-113955602D01*
X144721734Y-113966178D01*
X144713620Y-113974292D01*
X144433556Y-114650425D01*
X144149459Y-115324985D01*
X144149391Y-115336461D01*
X144145000Y-115347062D01*
X144145000Y-116078900D01*
X144140671Y-116810835D01*
X141455000Y-116810835D01*
X141455000Y-116111100D01*
X141459329Y-115379165D01*
X141455000Y-115368537D01*
X141455000Y-115357062D01*
X141174939Y-114680935D01*
X140898838Y-114003056D01*
X140886510Y-113984606D01*
X140886380Y-113984292D01*
X140886140Y-113984052D01*
X140873812Y-113965602D01*
X140851018Y-113948930D01*
X139871070Y-112968982D01*
X139854398Y-112946188D01*
X139843822Y-112941734D01*
X139835708Y-112933620D01*
X139159575Y-112653556D01*
X138485015Y-112369459D01*
X138473539Y-112369391D01*
X138462938Y-112365000D01*
X137731100Y-112365000D01*
X136999165Y-112360671D01*
X136988537Y-112365000D01*
X136977062Y-112365000D01*
X136300935Y-112645061D01*
X135623056Y-112921162D01*
X135604606Y-112933490D01*
X135604292Y-112933620D01*
X135604052Y-112933860D01*
X135585602Y-112946188D01*
X135568930Y-112968982D01*
X134588982Y-113948930D01*
X134566188Y-113965602D01*
X134561734Y-113976178D01*
X134553620Y-113984292D01*
X134273556Y-114660425D01*
X133989459Y-115334985D01*
X133989391Y-115346461D01*
X133985000Y-115357062D01*
X133985000Y-116088900D01*
X133980671Y-116820835D01*
X131305000Y-116820835D01*
X131305000Y-116111100D01*
X131309329Y-115379165D01*
X131305000Y-115368537D01*
X131305000Y-115357062D01*
X131024939Y-114680935D01*
X130748838Y-114003056D01*
X130736510Y-113984606D01*
X130736380Y-113984292D01*
X130736140Y-113984052D01*
X130723812Y-113965602D01*
X130701018Y-113948930D01*
X129721070Y-112968982D01*
X129704398Y-112946188D01*
X129693822Y-112941734D01*
X129685708Y-112933620D01*
X129009575Y-112653556D01*
X128335015Y-112369459D01*
X128323539Y-112369391D01*
X128312938Y-112365000D01*
X127581100Y-112365000D01*
X126849165Y-112360671D01*
X126838537Y-112365000D01*
X126827062Y-112365000D01*
X126150935Y-112645061D01*
X125473056Y-112921162D01*
X125454606Y-112933490D01*
X125454292Y-112933620D01*
X125454052Y-112933860D01*
X125435602Y-112946188D01*
X125418930Y-112968982D01*
X124438982Y-113948930D01*
X124416188Y-113965602D01*
X124411734Y-113976178D01*
X124403620Y-113984292D01*
X124123556Y-114660425D01*
X123839459Y-115334985D01*
X123839391Y-115346461D01*
X123835000Y-115357062D01*
X123835000Y-116088900D01*
X123830671Y-116820835D01*
X121135000Y-116820835D01*
X121135000Y-116111100D01*
X121139329Y-115379165D01*
X121135000Y-115368537D01*
X121135000Y-115357062D01*
X120854939Y-114680935D01*
X120578838Y-114003056D01*
X120566510Y-113984606D01*
X120566380Y-113984292D01*
X120566140Y-113984052D01*
X120553812Y-113965602D01*
X120531018Y-113948930D01*
X119551070Y-112968982D01*
X119534398Y-112946188D01*
X119523822Y-112941734D01*
X119515708Y-112933620D01*
X118839575Y-112653556D01*
X118165015Y-112369459D01*
X118153539Y-112369391D01*
X118142938Y-112365000D01*
X117411100Y-112365000D01*
X116679165Y-112360671D01*
X116668537Y-112365000D01*
X116657062Y-112365000D01*
X115980935Y-112645061D01*
X115303056Y-112921162D01*
X115284606Y-112933490D01*
X115284292Y-112933620D01*
X115284052Y-112933860D01*
X115265602Y-112946188D01*
X115248930Y-112968982D01*
X114268982Y-113948930D01*
X114246188Y-113965602D01*
X114241734Y-113976178D01*
X114233620Y-113984292D01*
X113953556Y-114660425D01*
X113669459Y-115334985D01*
X113669391Y-115346461D01*
X113665000Y-115357062D01*
X113665000Y-116088900D01*
X113660671Y-116820835D01*
X110985000Y-116820835D01*
X110985000Y-116101100D01*
X110989329Y-115369165D01*
X110985000Y-115358537D01*
X110985000Y-115347062D01*
X110704939Y-114670935D01*
X110428838Y-113993056D01*
X110416510Y-113974606D01*
X110416380Y-113974292D01*
X110416140Y-113974052D01*
X110403812Y-113955602D01*
X110381018Y-113938930D01*
X109401070Y-112958982D01*
X109384398Y-112936188D01*
X109373822Y-112931734D01*
X109365708Y-112923620D01*
X108689575Y-112643556D01*
X108015015Y-112359459D01*
X108003539Y-112359391D01*
X107992938Y-112355000D01*
X107261100Y-112355000D01*
X106529165Y-112350671D01*
X106518537Y-112355000D01*
X106507062Y-112355000D01*
X105830935Y-112635061D01*
X105153056Y-112911162D01*
X105134606Y-112923490D01*
X105134292Y-112923620D01*
X105134052Y-112923860D01*
X105115602Y-112936188D01*
X105098930Y-112958982D01*
X104118982Y-113938930D01*
X104096188Y-113955602D01*
X104091734Y-113966178D01*
X104083620Y-113974292D01*
X103803556Y-114650425D01*
X103519459Y-115324985D01*
X103519391Y-115336461D01*
X103515000Y-115347062D01*
X103515000Y-116078900D01*
X103510671Y-116810835D01*
X103060000Y-116810835D01*
X103060000Y-103920835D01*
X103510671Y-103920835D01*
X103515000Y-103931463D01*
X103515000Y-103942938D01*
X103795061Y-104619065D01*
X104071162Y-105296944D01*
X104083490Y-105315394D01*
X104083620Y-105315708D01*
X104083860Y-105315948D01*
X104096188Y-105334398D01*
X104118982Y-105351070D01*
X105098930Y-106331018D01*
X105115602Y-106353812D01*
X105126178Y-106358266D01*
X105134292Y-106366380D01*
X105810425Y-106646444D01*
X106484985Y-106930541D01*
X106496461Y-106930609D01*
X106507062Y-106935000D01*
X107238900Y-106935000D01*
X107970835Y-106939329D01*
X107981463Y-106935000D01*
X107992938Y-106935000D01*
X108669065Y-106654939D01*
X109346944Y-106378838D01*
X109365394Y-106366510D01*
X109365708Y-106366380D01*
X109365948Y-106366140D01*
X109384398Y-106353812D01*
X109401070Y-106331018D01*
X110381018Y-105351070D01*
X110403812Y-105334398D01*
X110408266Y-105323822D01*
X110416380Y-105315708D01*
X110696444Y-104639575D01*
X110980541Y-103965015D01*
X110980609Y-103953539D01*
X110985000Y-103942938D01*
X110985000Y-103920835D01*
X113670671Y-103920835D01*
X113675000Y-103931463D01*
X113675000Y-103942938D01*
X113955061Y-104619065D01*
X114231162Y-105296944D01*
X114243490Y-105315394D01*
X114243620Y-105315708D01*
X114243860Y-105315948D01*
X114256188Y-105334398D01*
X114278982Y-105351070D01*
X115258930Y-106331018D01*
X115275602Y-106353812D01*
X115286178Y-106358266D01*
X115294292Y-106366380D01*
X115970425Y-106646444D01*
X116644985Y-106930541D01*
X116656461Y-106930609D01*
X116667062Y-106935000D01*
X117398900Y-106935000D01*
X118130835Y-106939329D01*
X118141463Y-106935000D01*
X118152938Y-106935000D01*
X118829065Y-106654939D01*
X119506944Y-106378838D01*
X119525394Y-106366510D01*
X119525708Y-106366380D01*
X119525948Y-106366140D01*
X119544398Y-106353812D01*
X119561070Y-106331018D01*
X120541018Y-105351070D01*
X120563812Y-105334398D01*
X120568266Y-105323822D01*
X120576380Y-105315708D01*
X120856444Y-104639575D01*
X121140541Y-103965015D01*
X121140609Y-103953539D01*
X121145000Y-103942938D01*
X121145000Y-103920835D01*
X123840671Y-103920835D01*
X123845000Y-103931463D01*
X123845000Y-103942938D01*
X124125061Y-104619065D01*
X124401162Y-105296944D01*
X124413490Y-105315394D01*
X124413620Y-105315708D01*
X124413860Y-105315948D01*
X124426188Y-105334398D01*
X124448982Y-105351070D01*
X125428930Y-106331018D01*
X125445602Y-106353812D01*
X125456178Y-106358266D01*
X125464292Y-106366380D01*
X126140425Y-106646444D01*
X126814985Y-106930541D01*
X126826461Y-106930609D01*
X126837062Y-106935000D01*
X127568900Y-106935000D01*
X128300835Y-106939329D01*
X128311463Y-106935000D01*
X128322938Y-106935000D01*
X128999065Y-106654939D01*
X129676944Y-106378838D01*
X129695394Y-106366510D01*
X129695708Y-106366380D01*
X129695948Y-106366140D01*
X129714398Y-106353812D01*
X129731070Y-106331018D01*
X130711018Y-105351070D01*
X130733812Y-105334398D01*
X130738266Y-105323822D01*
X130746380Y-105315708D01*
X131026444Y-104639575D01*
X131310541Y-103965015D01*
X131310609Y-103953539D01*
X131315000Y-103942938D01*
X131315000Y-103920835D01*
X133980671Y-103920835D01*
X133985000Y-103931463D01*
X133985000Y-103942938D01*
X134265061Y-104619065D01*
X134541162Y-105296944D01*
X134553490Y-105315394D01*
X134553620Y-105315708D01*
X134553860Y-105315948D01*
X134566188Y-105334398D01*
X134588982Y-105351070D01*
X135568930Y-106331018D01*
X135585602Y-106353812D01*
X135596178Y-106358266D01*
X135604292Y-106366380D01*
X136280425Y-106646444D01*
X136954985Y-106930541D01*
X136966461Y-106930609D01*
X136977062Y-106935000D01*
X137708900Y-106935000D01*
X138440835Y-106939329D01*
X138451463Y-106935000D01*
X138462938Y-106935000D01*
X139139065Y-106654939D01*
X139816944Y-106378838D01*
X139835394Y-106366510D01*
X139835708Y-106366380D01*
X139835948Y-106366140D01*
X139854398Y-106353812D01*
X139871070Y-106331018D01*
X140851018Y-105351070D01*
X140873812Y-105334398D01*
X140878266Y-105323822D01*
X140886380Y-105315708D01*
X141166444Y-104639575D01*
X141450541Y-103965015D01*
X141450609Y-103953539D01*
X141455000Y-103942938D01*
X141455000Y-103920835D01*
X144130671Y-103920835D01*
X144135000Y-103931463D01*
X144135000Y-103942938D01*
X144415061Y-104619065D01*
X144691162Y-105296944D01*
X144703490Y-105315394D01*
X144703620Y-105315708D01*
X144703860Y-105315948D01*
X144716188Y-105334398D01*
X144738982Y-105351070D01*
X145718930Y-106331018D01*
X145735602Y-106353812D01*
X145746178Y-106358266D01*
X145754292Y-106366380D01*
X146430425Y-106646444D01*
X147104985Y-106930541D01*
X147116461Y-106930609D01*
X147127062Y-106935000D01*
X147858900Y-106935000D01*
X148590835Y-106939329D01*
X148601463Y-106935000D01*
X148612938Y-106935000D01*
X149289065Y-106654939D01*
X149966944Y-106378838D01*
X149985394Y-106366510D01*
X149985708Y-106366380D01*
X149985948Y-106366140D01*
X150004398Y-106353812D01*
X150021070Y-106331018D01*
X151001018Y-105351070D01*
X151023812Y-105334398D01*
X151028266Y-105323822D01*
X151036380Y-105315708D01*
X151316444Y-104639575D01*
X151600541Y-103965015D01*
X151600609Y-103953539D01*
X151605000Y-103942938D01*
X151605000Y-103920835D01*
X154300671Y-103920835D01*
X154305000Y-103931463D01*
X154305000Y-103942938D01*
X154585061Y-104619065D01*
X154861162Y-105296944D01*
X154873490Y-105315394D01*
X154873620Y-105315708D01*
X154873860Y-105315948D01*
X154886188Y-105334398D01*
X154908982Y-105351070D01*
X155888930Y-106331018D01*
X155905602Y-106353812D01*
X155916178Y-106358266D01*
X155924292Y-106366380D01*
X156600425Y-106646444D01*
X157274985Y-106930541D01*
X157286461Y-106930609D01*
X157297062Y-106935000D01*
X158028900Y-106935000D01*
X158760835Y-106939329D01*
X158771463Y-106935000D01*
X158782938Y-106935000D01*
X159459065Y-106654939D01*
X160136944Y-106378838D01*
X160155394Y-106366510D01*
X160155708Y-106366380D01*
X160155948Y-106366140D01*
X160174398Y-106353812D01*
X160191070Y-106331018D01*
X161171018Y-105351070D01*
X161193812Y-105334398D01*
X161198266Y-105323822D01*
X161206380Y-105315708D01*
X161486444Y-104639575D01*
X161770541Y-103965015D01*
X161770609Y-103953539D01*
X161775000Y-103942938D01*
X161775000Y-103910835D01*
X164460671Y-103910835D01*
X164465000Y-103921463D01*
X164465000Y-103932938D01*
X164745061Y-104609065D01*
X165021162Y-105286944D01*
X165033490Y-105305394D01*
X165033620Y-105305708D01*
X165033860Y-105305948D01*
X165046188Y-105324398D01*
X165068982Y-105341070D01*
X166048930Y-106321018D01*
X166065602Y-106343812D01*
X166076178Y-106348266D01*
X166084292Y-106356380D01*
X166760425Y-106636444D01*
X167434985Y-106920541D01*
X167446461Y-106920609D01*
X167457062Y-106925000D01*
X168188900Y-106925000D01*
X168920835Y-106929329D01*
X168931463Y-106925000D01*
X168942938Y-106925000D01*
X169619065Y-106644939D01*
X170296944Y-106368838D01*
X170315394Y-106356510D01*
X170315708Y-106356380D01*
X170315948Y-106356140D01*
X170334398Y-106343812D01*
X170351070Y-106321018D01*
X171331018Y-105341070D01*
X171353812Y-105324398D01*
X171358266Y-105313822D01*
X171366380Y-105305708D01*
X171646444Y-104629575D01*
X171930541Y-103955015D01*
X171930609Y-103943539D01*
X171935000Y-103932938D01*
X171935000Y-103920835D01*
X174620671Y-103920835D01*
X174625000Y-103931463D01*
X174625000Y-103942938D01*
X174905061Y-104619065D01*
X175181162Y-105296944D01*
X175193490Y-105315394D01*
X175193620Y-105315708D01*
X175193860Y-105315948D01*
X175206188Y-105334398D01*
X175228982Y-105351070D01*
X176208930Y-106331018D01*
X176225602Y-106353812D01*
X176236178Y-106358266D01*
X176244292Y-106366380D01*
X176920425Y-106646444D01*
X177594985Y-106930541D01*
X177606461Y-106930609D01*
X177617062Y-106935000D01*
X178348900Y-106935000D01*
X179080835Y-106939329D01*
X179091463Y-106935000D01*
X179102938Y-106935000D01*
X179779065Y-106654939D01*
X180456944Y-106378838D01*
X180475394Y-106366510D01*
X180475708Y-106366380D01*
X180475948Y-106366140D01*
X180494398Y-106353812D01*
X180511070Y-106331018D01*
X181491018Y-105351070D01*
X181513812Y-105334398D01*
X181518266Y-105323822D01*
X181526380Y-105315708D01*
X181806444Y-104639575D01*
X182090541Y-103965015D01*
X182090609Y-103953539D01*
X182095000Y-103942938D01*
X182095000Y-103211100D01*
X182099329Y-102479165D01*
X182095000Y-102468537D01*
X182095000Y-102457062D01*
X181814939Y-101780935D01*
X181538838Y-101103056D01*
X181526510Y-101084606D01*
X181526380Y-101084292D01*
X181526140Y-101084052D01*
X181513812Y-101065602D01*
X181491018Y-101048930D01*
X180511070Y-100068982D01*
X180494398Y-100046188D01*
X180483822Y-100041734D01*
X180475708Y-100033620D01*
X179799575Y-99753556D01*
X179125015Y-99469459D01*
X179113539Y-99469391D01*
X179102938Y-99465000D01*
X178371100Y-99465000D01*
X177639165Y-99460671D01*
X177628537Y-99465000D01*
X177617062Y-99465000D01*
X176940935Y-99745061D01*
X176263056Y-100021162D01*
X176244606Y-100033490D01*
X176244292Y-100033620D01*
X176244052Y-100033860D01*
X176225602Y-100046188D01*
X176208930Y-100068982D01*
X175228982Y-101048930D01*
X175206188Y-101065602D01*
X175201734Y-101076178D01*
X175193620Y-101084292D01*
X174913556Y-101760425D01*
X174629459Y-102434985D01*
X174629391Y-102446461D01*
X174625000Y-102457062D01*
X174625000Y-103188900D01*
X174620671Y-103920835D01*
X171935000Y-103920835D01*
X171935000Y-103201100D01*
X171939329Y-102469165D01*
X171935000Y-102458537D01*
X171935000Y-102447062D01*
X171654939Y-101770935D01*
X171378838Y-101093056D01*
X171366510Y-101074606D01*
X171366380Y-101074292D01*
X171366140Y-101074052D01*
X171353812Y-101055602D01*
X171331018Y-101038930D01*
X170351070Y-100058982D01*
X170334398Y-100036188D01*
X170323822Y-100031734D01*
X170315708Y-100023620D01*
X169639575Y-99743556D01*
X168965015Y-99459459D01*
X168953539Y-99459391D01*
X168942938Y-99455000D01*
X168211100Y-99455000D01*
X167479165Y-99450671D01*
X167468537Y-99455000D01*
X167457062Y-99455000D01*
X166780935Y-99735061D01*
X166103056Y-100011162D01*
X166084606Y-100023490D01*
X166084292Y-100023620D01*
X166084052Y-100023860D01*
X166065602Y-100036188D01*
X166048930Y-100058982D01*
X165068982Y-101038930D01*
X165046188Y-101055602D01*
X165041734Y-101066178D01*
X165033620Y-101074292D01*
X164753556Y-101750425D01*
X164469459Y-102424985D01*
X164469391Y-102436461D01*
X164465000Y-102447062D01*
X164465000Y-103178900D01*
X164460671Y-103910835D01*
X161775000Y-103910835D01*
X161775000Y-103211100D01*
X161779329Y-102479165D01*
X161775000Y-102468537D01*
X161775000Y-102457062D01*
X161494939Y-101780935D01*
X161218838Y-101103056D01*
X161206510Y-101084606D01*
X161206380Y-101084292D01*
X161206140Y-101084052D01*
X161193812Y-101065602D01*
X161171018Y-101048930D01*
X160191070Y-100068982D01*
X160174398Y-100046188D01*
X160163822Y-100041734D01*
X160155708Y-100033620D01*
X159479575Y-99753556D01*
X158805015Y-99469459D01*
X158793539Y-99469391D01*
X158782938Y-99465000D01*
X158051100Y-99465000D01*
X157319165Y-99460671D01*
X157308537Y-99465000D01*
X157297062Y-99465000D01*
X156620935Y-99745061D01*
X155943056Y-100021162D01*
X155924606Y-100033490D01*
X155924292Y-100033620D01*
X155924052Y-100033860D01*
X155905602Y-100046188D01*
X155888930Y-100068982D01*
X154908982Y-101048930D01*
X154886188Y-101065602D01*
X154881734Y-101076178D01*
X154873620Y-101084292D01*
X154593556Y-101760425D01*
X154309459Y-102434985D01*
X154309391Y-102446461D01*
X154305000Y-102457062D01*
X154305000Y-103188900D01*
X154300671Y-103920835D01*
X151605000Y-103920835D01*
X151605000Y-103211100D01*
X151609329Y-102479165D01*
X151605000Y-102468537D01*
X151605000Y-102457062D01*
X151324939Y-101780935D01*
X151048838Y-101103056D01*
X151036510Y-101084606D01*
X151036380Y-101084292D01*
X151036140Y-101084052D01*
X151023812Y-101065602D01*
X151001018Y-101048930D01*
X150021070Y-100068982D01*
X150004398Y-100046188D01*
X149993822Y-100041734D01*
X149985708Y-100033620D01*
X149309575Y-99753556D01*
X148635015Y-99469459D01*
X148623539Y-99469391D01*
X148612938Y-99465000D01*
X147881100Y-99465000D01*
X147149165Y-99460671D01*
X147138537Y-99465000D01*
X147127062Y-99465000D01*
X146450935Y-99745061D01*
X145773056Y-100021162D01*
X145754606Y-100033490D01*
X145754292Y-100033620D01*
X145754052Y-100033860D01*
X145735602Y-100046188D01*
X145718930Y-100068982D01*
X144738982Y-101048930D01*
X144716188Y-101065602D01*
X144711734Y-101076178D01*
X144703620Y-101084292D01*
X144423556Y-101760425D01*
X144139459Y-102434985D01*
X144139391Y-102446461D01*
X144135000Y-102457062D01*
X144135000Y-103188900D01*
X144130671Y-103920835D01*
X141455000Y-103920835D01*
X141455000Y-103211100D01*
X141459329Y-102479165D01*
X141455000Y-102468537D01*
X141455000Y-102457062D01*
X141174939Y-101780935D01*
X140898838Y-101103056D01*
X140886510Y-101084606D01*
X140886380Y-101084292D01*
X140886140Y-101084052D01*
X140873812Y-101065602D01*
X140851018Y-101048930D01*
X139871070Y-100068982D01*
X139854398Y-100046188D01*
X139843822Y-100041734D01*
X139835708Y-100033620D01*
X139159575Y-99753556D01*
X138485015Y-99469459D01*
X138473539Y-99469391D01*
X138462938Y-99465000D01*
X137731100Y-99465000D01*
X136999165Y-99460671D01*
X136988537Y-99465000D01*
X136977062Y-99465000D01*
X136300935Y-99745061D01*
X135623056Y-100021162D01*
X135604606Y-100033490D01*
X135604292Y-100033620D01*
X135604052Y-100033860D01*
X135585602Y-100046188D01*
X135568930Y-100068982D01*
X134588982Y-101048930D01*
X134566188Y-101065602D01*
X134561734Y-101076178D01*
X134553620Y-101084292D01*
X134273556Y-101760425D01*
X133989459Y-102434985D01*
X133989391Y-102446461D01*
X133985000Y-102457062D01*
X133985000Y-103188900D01*
X133980671Y-103920835D01*
X131315000Y-103920835D01*
X131315000Y-103211100D01*
X131319329Y-102479165D01*
X131315000Y-102468537D01*
X131315000Y-102457062D01*
X131034939Y-101780935D01*
X130758838Y-101103056D01*
X130746510Y-101084606D01*
X130746380Y-101084292D01*
X130746140Y-101084052D01*
X130733812Y-101065602D01*
X130711018Y-101048930D01*
X129731070Y-100068982D01*
X129714398Y-100046188D01*
X129703822Y-100041734D01*
X129695708Y-100033620D01*
X129019575Y-99753556D01*
X128345015Y-99469459D01*
X128333539Y-99469391D01*
X128322938Y-99465000D01*
X127591100Y-99465000D01*
X126859165Y-99460671D01*
X126848537Y-99465000D01*
X126837062Y-99465000D01*
X126160935Y-99745061D01*
X125483056Y-100021162D01*
X125464606Y-100033490D01*
X125464292Y-100033620D01*
X125464052Y-100033860D01*
X125445602Y-100046188D01*
X125428930Y-100068982D01*
X124448982Y-101048930D01*
X124426188Y-101065602D01*
X124421734Y-101076178D01*
X124413620Y-101084292D01*
X124133556Y-101760425D01*
X123849459Y-102434985D01*
X123849391Y-102446461D01*
X123845000Y-102457062D01*
X123845000Y-103188900D01*
X123840671Y-103920835D01*
X121145000Y-103920835D01*
X121145000Y-103211100D01*
X121149329Y-102479165D01*
X121145000Y-102468537D01*
X121145000Y-102457062D01*
X120864939Y-101780935D01*
X120588838Y-101103056D01*
X120576510Y-101084606D01*
X120576380Y-101084292D01*
X120576140Y-101084052D01*
X120563812Y-101065602D01*
X120541018Y-101048930D01*
X119561070Y-100068982D01*
X119544398Y-100046188D01*
X119533822Y-100041734D01*
X119525708Y-100033620D01*
X118849575Y-99753556D01*
X118175015Y-99469459D01*
X118163539Y-99469391D01*
X118152938Y-99465000D01*
X117421100Y-99465000D01*
X116689165Y-99460671D01*
X116678537Y-99465000D01*
X116667062Y-99465000D01*
X115990935Y-99745061D01*
X115313056Y-100021162D01*
X115294606Y-100033490D01*
X115294292Y-100033620D01*
X115294052Y-100033860D01*
X115275602Y-100046188D01*
X115258930Y-100068982D01*
X114278982Y-101048930D01*
X114256188Y-101065602D01*
X114251734Y-101076178D01*
X114243620Y-101084292D01*
X113963556Y-101760425D01*
X113679459Y-102434985D01*
X113679391Y-102446461D01*
X113675000Y-102457062D01*
X113675000Y-103188900D01*
X113670671Y-103920835D01*
X110985000Y-103920835D01*
X110985000Y-103211100D01*
X110989329Y-102479165D01*
X110985000Y-102468537D01*
X110985000Y-102457062D01*
X110704939Y-101780935D01*
X110428838Y-101103056D01*
X110416510Y-101084606D01*
X110416380Y-101084292D01*
X110416140Y-101084052D01*
X110403812Y-101065602D01*
X110381018Y-101048930D01*
X109401070Y-100068982D01*
X109384398Y-100046188D01*
X109373822Y-100041734D01*
X109365708Y-100033620D01*
X108689575Y-99753556D01*
X108015015Y-99469459D01*
X108003539Y-99469391D01*
X107992938Y-99465000D01*
X107261100Y-99465000D01*
X106529165Y-99460671D01*
X106518537Y-99465000D01*
X106507062Y-99465000D01*
X105830935Y-99745061D01*
X105153056Y-100021162D01*
X105134606Y-100033490D01*
X105134292Y-100033620D01*
X105134052Y-100033860D01*
X105115602Y-100046188D01*
X105098930Y-100068982D01*
X104118982Y-101048930D01*
X104096188Y-101065602D01*
X104091734Y-101076178D01*
X104083620Y-101084292D01*
X103803556Y-101760425D01*
X103519459Y-102434985D01*
X103519391Y-102446461D01*
X103515000Y-102457062D01*
X103515000Y-103188900D01*
X103510671Y-103920835D01*
X103060000Y-103920835D01*
X103060000Y-93030426D01*
X115108327Y-93030426D01*
X115115000Y-93467435D01*
X115115000Y-93904515D01*
X115121930Y-93921244D01*
X115122206Y-93939350D01*
X115443334Y-94714621D01*
X115452601Y-94719557D01*
X115462870Y-94744349D01*
X116105651Y-95387130D01*
X116130443Y-95397399D01*
X116135379Y-95406666D01*
X116541653Y-95567728D01*
X116945485Y-95735000D01*
X116963594Y-95735000D01*
X116980426Y-95741673D01*
X117417435Y-95735000D01*
X117854515Y-95735000D01*
X117871244Y-95728070D01*
X117889350Y-95727794D01*
X118664621Y-95406666D01*
X118669557Y-95397399D01*
X118694349Y-95387130D01*
X119337130Y-94744349D01*
X119347399Y-94719557D01*
X119356666Y-94714621D01*
X119517728Y-94308347D01*
X119685000Y-93904515D01*
X119685000Y-93886406D01*
X119691673Y-93869574D01*
X119685000Y-93432565D01*
X119685000Y-93030426D01*
X135428327Y-93030426D01*
X135435000Y-93467435D01*
X135435000Y-93904515D01*
X135441930Y-93921244D01*
X135442206Y-93939350D01*
X135763334Y-94714621D01*
X135772601Y-94719557D01*
X135782870Y-94744349D01*
X136425651Y-95387130D01*
X136450443Y-95397399D01*
X136455379Y-95406666D01*
X136861653Y-95567728D01*
X137265485Y-95735000D01*
X137283594Y-95735000D01*
X137300426Y-95741673D01*
X137737435Y-95735000D01*
X138174515Y-95735000D01*
X138191244Y-95728070D01*
X138209350Y-95727794D01*
X138984621Y-95406666D01*
X138989557Y-95397399D01*
X139014349Y-95387130D01*
X139657130Y-94744349D01*
X139667399Y-94719557D01*
X139676666Y-94714621D01*
X139837728Y-94308347D01*
X140005000Y-93904515D01*
X140005000Y-93886406D01*
X140011673Y-93869574D01*
X140005000Y-93432565D01*
X140005000Y-93030426D01*
X155738327Y-93030426D01*
X155745000Y-93467435D01*
X155745000Y-93904515D01*
X155751930Y-93921244D01*
X155752206Y-93939350D01*
X156073334Y-94714621D01*
X156082601Y-94719557D01*
X156092870Y-94744349D01*
X156735651Y-95387130D01*
X156760443Y-95397399D01*
X156765379Y-95406666D01*
X157171653Y-95567728D01*
X157575485Y-95735000D01*
X157593594Y-95735000D01*
X157610426Y-95741673D01*
X158047435Y-95735000D01*
X158484515Y-95735000D01*
X158501244Y-95728070D01*
X158519350Y-95727794D01*
X159294621Y-95406666D01*
X159299557Y-95397399D01*
X159324349Y-95387130D01*
X159967130Y-94744349D01*
X159977399Y-94719557D01*
X159986666Y-94714621D01*
X160147728Y-94308347D01*
X160315000Y-93904515D01*
X160315000Y-93886406D01*
X160321673Y-93869574D01*
X160315000Y-93432565D01*
X160315000Y-93030426D01*
X176058327Y-93030426D01*
X176065000Y-93467435D01*
X176065000Y-93904515D01*
X176071930Y-93921244D01*
X176072206Y-93939350D01*
X176393334Y-94714621D01*
X176402601Y-94719557D01*
X176412870Y-94744349D01*
X177055651Y-95387130D01*
X177080443Y-95397399D01*
X177085379Y-95406666D01*
X177491653Y-95567728D01*
X177895485Y-95735000D01*
X177913594Y-95735000D01*
X177930426Y-95741673D01*
X178367435Y-95735000D01*
X178804515Y-95735000D01*
X178821244Y-95728070D01*
X178839350Y-95727794D01*
X179614621Y-95406666D01*
X179619557Y-95397399D01*
X179644349Y-95387130D01*
X180287130Y-94744349D01*
X180297399Y-94719557D01*
X180306666Y-94714621D01*
X180467728Y-94308347D01*
X180635000Y-93904515D01*
X180635000Y-93886406D01*
X180641673Y-93869574D01*
X180635000Y-93432565D01*
X180635000Y-92995485D01*
X180628070Y-92978756D01*
X180627794Y-92960650D01*
X180306666Y-92185379D01*
X180297399Y-92180443D01*
X180287130Y-92155651D01*
X179644349Y-91512870D01*
X179619557Y-91502601D01*
X179614621Y-91493334D01*
X179208347Y-91332272D01*
X178804515Y-91165000D01*
X178786406Y-91165000D01*
X178769574Y-91158327D01*
X178332565Y-91165000D01*
X177895485Y-91165000D01*
X177878756Y-91171930D01*
X177860650Y-91172206D01*
X177085379Y-91493334D01*
X177080443Y-91502601D01*
X177055651Y-91512870D01*
X176412870Y-92155651D01*
X176402601Y-92180443D01*
X176393334Y-92185379D01*
X176232272Y-92591653D01*
X176065000Y-92995485D01*
X176065000Y-93013594D01*
X176058327Y-93030426D01*
X160315000Y-93030426D01*
X160315000Y-92995485D01*
X160308070Y-92978756D01*
X160307794Y-92960650D01*
X159986666Y-92185379D01*
X159977399Y-92180443D01*
X159967130Y-92155651D01*
X159324349Y-91512870D01*
X159299557Y-91502601D01*
X159294621Y-91493334D01*
X158888347Y-91332272D01*
X158484515Y-91165000D01*
X158466406Y-91165000D01*
X158449574Y-91158327D01*
X158012565Y-91165000D01*
X157575485Y-91165000D01*
X157558756Y-91171930D01*
X157540650Y-91172206D01*
X156765379Y-91493334D01*
X156760443Y-91502601D01*
X156735651Y-91512870D01*
X156092870Y-92155651D01*
X156082601Y-92180443D01*
X156073334Y-92185379D01*
X155912272Y-92591653D01*
X155745000Y-92995485D01*
X155745000Y-93013594D01*
X155738327Y-93030426D01*
X140005000Y-93030426D01*
X140005000Y-92995485D01*
X139998070Y-92978756D01*
X139997794Y-92960650D01*
X139676666Y-92185379D01*
X139667399Y-92180443D01*
X139657130Y-92155651D01*
X139014349Y-91512870D01*
X138989557Y-91502601D01*
X138984621Y-91493334D01*
X138578347Y-91332272D01*
X138174515Y-91165000D01*
X138156406Y-91165000D01*
X138139574Y-91158327D01*
X137702565Y-91165000D01*
X137265485Y-91165000D01*
X137248756Y-91171930D01*
X137230650Y-91172206D01*
X136455379Y-91493334D01*
X136450443Y-91502601D01*
X136425651Y-91512870D01*
X135782870Y-92155651D01*
X135772601Y-92180443D01*
X135763334Y-92185379D01*
X135602272Y-92591653D01*
X135435000Y-92995485D01*
X135435000Y-93013594D01*
X135428327Y-93030426D01*
X119685000Y-93030426D01*
X119685000Y-92995485D01*
X119678070Y-92978756D01*
X119677794Y-92960650D01*
X119356666Y-92185379D01*
X119347399Y-92180443D01*
X119337130Y-92155651D01*
X118694349Y-91512870D01*
X118669557Y-91502601D01*
X118664621Y-91493334D01*
X118258347Y-91332272D01*
X117854515Y-91165000D01*
X117836406Y-91165000D01*
X117819574Y-91158327D01*
X117382565Y-91165000D01*
X116945485Y-91165000D01*
X116928756Y-91171930D01*
X116910650Y-91172206D01*
X116135379Y-91493334D01*
X116130443Y-91502601D01*
X116105651Y-91512870D01*
X115462870Y-92155651D01*
X115452601Y-92180443D01*
X115443334Y-92185379D01*
X115282272Y-92591653D01*
X115115000Y-92995485D01*
X115115000Y-93013594D01*
X115108327Y-93030426D01*
X103060000Y-93030426D01*
X103060000Y-84750623D01*
X108106905Y-84750623D01*
X108115000Y-84770724D01*
X108115000Y-84792394D01*
X108429405Y-85551436D01*
X108736277Y-86313441D01*
X108759327Y-86347938D01*
X108759740Y-86348935D01*
X108760503Y-86349698D01*
X108783553Y-86384195D01*
X108834204Y-86423399D01*
X109876601Y-87465796D01*
X109915805Y-87516447D01*
X109935741Y-87524936D01*
X109951065Y-87540260D01*
X110710129Y-87854674D01*
X111465917Y-88176493D01*
X111487584Y-88176707D01*
X111507606Y-88185000D01*
X112329174Y-88185000D01*
X113150623Y-88193095D01*
X113170724Y-88185000D01*
X113192394Y-88185000D01*
X113951436Y-87870595D01*
X114713441Y-87563723D01*
X114747938Y-87540673D01*
X114748935Y-87540260D01*
X114749698Y-87539497D01*
X114784195Y-87516447D01*
X114823399Y-87465796D01*
X115865796Y-86423399D01*
X115916447Y-86384195D01*
X115924936Y-86364259D01*
X115940260Y-86348935D01*
X116254674Y-85589871D01*
X116576493Y-84834083D01*
X116576707Y-84812416D01*
X116585000Y-84792394D01*
X116585000Y-84740623D01*
X128436905Y-84740623D01*
X128445000Y-84760724D01*
X128445000Y-84782394D01*
X128759405Y-85541436D01*
X129066277Y-86303441D01*
X129089327Y-86337938D01*
X129089740Y-86338935D01*
X129090503Y-86339698D01*
X129113553Y-86374195D01*
X129164204Y-86413399D01*
X130206601Y-87455796D01*
X130245805Y-87506447D01*
X130265741Y-87514936D01*
X130281065Y-87530260D01*
X131040129Y-87844674D01*
X131795917Y-88166493D01*
X131817584Y-88166707D01*
X131837606Y-88175000D01*
X132659174Y-88175000D01*
X133480623Y-88183095D01*
X133500724Y-88175000D01*
X133522394Y-88175000D01*
X134281436Y-87860595D01*
X135043441Y-87553723D01*
X135077938Y-87530673D01*
X135078935Y-87530260D01*
X135079698Y-87529497D01*
X135114195Y-87506447D01*
X135153399Y-87455796D01*
X136195796Y-86413399D01*
X136246447Y-86374195D01*
X136254936Y-86354259D01*
X136270260Y-86338935D01*
X136584674Y-85579871D01*
X136906493Y-84824083D01*
X136906707Y-84802416D01*
X136915000Y-84782394D01*
X136915000Y-84740623D01*
X148746905Y-84740623D01*
X148755000Y-84760724D01*
X148755000Y-84782394D01*
X149069405Y-85541436D01*
X149376277Y-86303441D01*
X149399327Y-86337938D01*
X149399740Y-86338935D01*
X149400503Y-86339698D01*
X149423553Y-86374195D01*
X149474204Y-86413399D01*
X150516601Y-87455796D01*
X150555805Y-87506447D01*
X150575741Y-87514936D01*
X150591065Y-87530260D01*
X151350129Y-87844674D01*
X152105917Y-88166493D01*
X152127584Y-88166707D01*
X152147606Y-88175000D01*
X152969174Y-88175000D01*
X153790623Y-88183095D01*
X153810724Y-88175000D01*
X153832394Y-88175000D01*
X154591436Y-87860595D01*
X155353441Y-87553723D01*
X155387938Y-87530673D01*
X155388935Y-87530260D01*
X155389698Y-87529497D01*
X155424195Y-87506447D01*
X155463399Y-87455796D01*
X156505796Y-86413399D01*
X156556447Y-86374195D01*
X156564936Y-86354259D01*
X156580260Y-86338935D01*
X156894674Y-85579871D01*
X157216493Y-84824083D01*
X157216707Y-84802416D01*
X157225000Y-84782394D01*
X157225000Y-84740623D01*
X169056905Y-84740623D01*
X169065000Y-84760724D01*
X169065000Y-84782394D01*
X169379405Y-85541436D01*
X169686277Y-86303441D01*
X169709327Y-86337938D01*
X169709740Y-86338935D01*
X169710503Y-86339698D01*
X169733553Y-86374195D01*
X169784204Y-86413399D01*
X170826601Y-87455796D01*
X170865805Y-87506447D01*
X170885741Y-87514936D01*
X170901065Y-87530260D01*
X171660129Y-87844674D01*
X172415917Y-88166493D01*
X172437584Y-88166707D01*
X172457606Y-88175000D01*
X173279174Y-88175000D01*
X174100623Y-88183095D01*
X174120724Y-88175000D01*
X174142394Y-88175000D01*
X174901436Y-87860595D01*
X175663441Y-87553723D01*
X175697938Y-87530673D01*
X175698935Y-87530260D01*
X175699698Y-87529497D01*
X175734195Y-87506447D01*
X175773399Y-87455796D01*
X176815796Y-86413399D01*
X176866447Y-86374195D01*
X176874936Y-86354259D01*
X176890260Y-86338935D01*
X177204674Y-85579871D01*
X177526493Y-84824083D01*
X177526707Y-84802416D01*
X177535000Y-84782394D01*
X177535000Y-83960826D01*
X177543095Y-83139377D01*
X177535000Y-83119276D01*
X177535000Y-83097606D01*
X177220595Y-82338564D01*
X176913723Y-81576559D01*
X176890673Y-81542062D01*
X176890260Y-81541065D01*
X176889497Y-81540302D01*
X176866447Y-81505805D01*
X176815796Y-81466601D01*
X175773399Y-80424204D01*
X175734195Y-80373553D01*
X175714259Y-80365064D01*
X175698935Y-80349740D01*
X174939871Y-80035326D01*
X174184083Y-79713507D01*
X174162416Y-79713293D01*
X174142394Y-79705000D01*
X173320826Y-79705000D01*
X172499377Y-79696905D01*
X172479276Y-79705000D01*
X172457606Y-79705000D01*
X171698564Y-80019405D01*
X170936559Y-80326277D01*
X170902062Y-80349327D01*
X170901065Y-80349740D01*
X170900302Y-80350503D01*
X170865805Y-80373553D01*
X170826601Y-80424204D01*
X169784204Y-81466601D01*
X169733553Y-81505805D01*
X169725064Y-81525741D01*
X169709740Y-81541065D01*
X169395326Y-82300129D01*
X169073507Y-83055917D01*
X169073293Y-83077584D01*
X169065000Y-83097606D01*
X169065000Y-83919174D01*
X169056905Y-84740623D01*
X157225000Y-84740623D01*
X157225000Y-83960826D01*
X157233095Y-83139377D01*
X157225000Y-83119276D01*
X157225000Y-83097606D01*
X156910595Y-82338564D01*
X156603723Y-81576559D01*
X156580673Y-81542062D01*
X156580260Y-81541065D01*
X156579497Y-81540302D01*
X156556447Y-81505805D01*
X156505796Y-81466601D01*
X155463399Y-80424204D01*
X155424195Y-80373553D01*
X155404259Y-80365064D01*
X155388935Y-80349740D01*
X154629871Y-80035326D01*
X153874083Y-79713507D01*
X153852416Y-79713293D01*
X153832394Y-79705000D01*
X153010826Y-79705000D01*
X152189377Y-79696905D01*
X152169276Y-79705000D01*
X152147606Y-79705000D01*
X151388564Y-80019405D01*
X150626559Y-80326277D01*
X150592062Y-80349327D01*
X150591065Y-80349740D01*
X150590302Y-80350503D01*
X150555805Y-80373553D01*
X150516601Y-80424204D01*
X149474204Y-81466601D01*
X149423553Y-81505805D01*
X149415064Y-81525741D01*
X149399740Y-81541065D01*
X149085326Y-82300129D01*
X148763507Y-83055917D01*
X148763293Y-83077584D01*
X148755000Y-83097606D01*
X148755000Y-83919174D01*
X148746905Y-84740623D01*
X136915000Y-84740623D01*
X136915000Y-83960826D01*
X136923095Y-83139377D01*
X136915000Y-83119276D01*
X136915000Y-83097606D01*
X136600595Y-82338564D01*
X136293723Y-81576559D01*
X136270673Y-81542062D01*
X136270260Y-81541065D01*
X136269497Y-81540302D01*
X136246447Y-81505805D01*
X136195796Y-81466601D01*
X135153399Y-80424204D01*
X135114195Y-80373553D01*
X135094259Y-80365064D01*
X135078935Y-80349740D01*
X134319871Y-80035326D01*
X133564083Y-79713507D01*
X133542416Y-79713293D01*
X133522394Y-79705000D01*
X132700826Y-79705000D01*
X131879377Y-79696905D01*
X131859276Y-79705000D01*
X131837606Y-79705000D01*
X131078564Y-80019405D01*
X130316559Y-80326277D01*
X130282062Y-80349327D01*
X130281065Y-80349740D01*
X130280302Y-80350503D01*
X130245805Y-80373553D01*
X130206601Y-80424204D01*
X129164204Y-81466601D01*
X129113553Y-81505805D01*
X129105064Y-81525741D01*
X129089740Y-81541065D01*
X128775326Y-82300129D01*
X128453507Y-83055917D01*
X128453293Y-83077584D01*
X128445000Y-83097606D01*
X128445000Y-83919174D01*
X128436905Y-84740623D01*
X116585000Y-84740623D01*
X116585000Y-83970826D01*
X116593095Y-83149377D01*
X116585000Y-83129276D01*
X116585000Y-83107606D01*
X116270595Y-82348564D01*
X115963723Y-81586559D01*
X115940673Y-81552062D01*
X115940260Y-81551065D01*
X115939497Y-81550302D01*
X115916447Y-81515805D01*
X115865796Y-81476601D01*
X114823399Y-80434204D01*
X114784195Y-80383553D01*
X114764259Y-80375064D01*
X114748935Y-80359740D01*
X113989871Y-80045326D01*
X113234083Y-79723507D01*
X113212416Y-79723293D01*
X113192394Y-79715000D01*
X112370826Y-79715000D01*
X111549377Y-79706905D01*
X111529276Y-79715000D01*
X111507606Y-79715000D01*
X110748564Y-80029405D01*
X109986559Y-80336277D01*
X109952062Y-80359327D01*
X109951065Y-80359740D01*
X109950302Y-80360503D01*
X109915805Y-80383553D01*
X109876601Y-80434204D01*
X108834204Y-81476601D01*
X108783553Y-81515805D01*
X108775064Y-81535741D01*
X108759740Y-81551065D01*
X108445326Y-82310129D01*
X108123507Y-83065917D01*
X108123293Y-83087584D01*
X108115000Y-83107606D01*
X108115000Y-83929174D01*
X108106905Y-84750623D01*
X103060000Y-84750623D01*
X103060000Y-75740426D01*
X110168327Y-75740426D01*
X110175000Y-76177435D01*
X110175000Y-76614515D01*
X110181930Y-76631244D01*
X110182206Y-76649350D01*
X110503334Y-77424621D01*
X110512601Y-77429557D01*
X110522870Y-77454349D01*
X111165651Y-78097130D01*
X111190443Y-78107399D01*
X111195379Y-78116666D01*
X111601653Y-78277728D01*
X112005485Y-78445000D01*
X112023594Y-78445000D01*
X112040426Y-78451673D01*
X112477435Y-78445000D01*
X112914515Y-78445000D01*
X112931244Y-78438070D01*
X112949350Y-78437794D01*
X113724621Y-78116666D01*
X113729557Y-78107399D01*
X113754349Y-78097130D01*
X114397130Y-77454349D01*
X114407399Y-77429557D01*
X114416666Y-77424621D01*
X114577728Y-77018347D01*
X114745000Y-76614515D01*
X114745000Y-76596406D01*
X114751673Y-76579574D01*
X114745000Y-76142565D01*
X114745000Y-75705485D01*
X114742905Y-75700426D01*
X130278327Y-75700426D01*
X130285000Y-76137435D01*
X130285000Y-76574515D01*
X130291930Y-76591244D01*
X130292206Y-76609350D01*
X130613334Y-77384621D01*
X130622601Y-77389557D01*
X130632870Y-77414349D01*
X131275651Y-78057130D01*
X131300443Y-78067399D01*
X131305379Y-78076666D01*
X131711653Y-78237728D01*
X132115485Y-78405000D01*
X132133594Y-78405000D01*
X132150426Y-78411673D01*
X132587435Y-78405000D01*
X133024515Y-78405000D01*
X133041244Y-78398070D01*
X133059350Y-78397794D01*
X133834621Y-78076666D01*
X133839557Y-78067399D01*
X133864349Y-78057130D01*
X134507130Y-77414349D01*
X134517399Y-77389557D01*
X134526666Y-77384621D01*
X134687728Y-76978347D01*
X134855000Y-76574515D01*
X134855000Y-76556406D01*
X134861673Y-76539574D01*
X134855000Y-76102565D01*
X134855000Y-75730426D01*
X150628327Y-75730426D01*
X150635000Y-76167435D01*
X150635000Y-76604515D01*
X150641930Y-76621244D01*
X150642206Y-76639350D01*
X150963334Y-77414621D01*
X150972601Y-77419557D01*
X150982870Y-77444349D01*
X151625651Y-78087130D01*
X151650443Y-78097399D01*
X151655379Y-78106666D01*
X152061653Y-78267728D01*
X152465485Y-78435000D01*
X152483594Y-78435000D01*
X152500426Y-78441673D01*
X152937435Y-78435000D01*
X153374515Y-78435000D01*
X153391244Y-78428070D01*
X153409350Y-78427794D01*
X154184621Y-78106666D01*
X154189557Y-78097399D01*
X154214349Y-78087130D01*
X154857130Y-77444349D01*
X154867399Y-77419557D01*
X154876666Y-77414621D01*
X155037728Y-77008347D01*
X155205000Y-76604515D01*
X155205000Y-76586406D01*
X155211673Y-76569574D01*
X155205000Y-76132565D01*
X155205000Y-75700426D01*
X171038327Y-75700426D01*
X171045000Y-76137435D01*
X171045000Y-76574515D01*
X171051930Y-76591244D01*
X171052206Y-76609350D01*
X171373334Y-77384621D01*
X171382601Y-77389557D01*
X171392870Y-77414349D01*
X172035651Y-78057130D01*
X172060443Y-78067399D01*
X172065379Y-78076666D01*
X172471653Y-78237728D01*
X172875485Y-78405000D01*
X172893594Y-78405000D01*
X172910426Y-78411673D01*
X173347435Y-78405000D01*
X173784515Y-78405000D01*
X173801244Y-78398070D01*
X173819350Y-78397794D01*
X174594621Y-78076666D01*
X174599557Y-78067399D01*
X174624349Y-78057130D01*
X175267130Y-77414349D01*
X175277399Y-77389557D01*
X175286666Y-77384621D01*
X175447728Y-76978347D01*
X175615000Y-76574515D01*
X175615000Y-76556406D01*
X175621673Y-76539574D01*
X175615000Y-76102565D01*
X175615000Y-75665485D01*
X175608070Y-75648756D01*
X175607794Y-75630650D01*
X175286666Y-74855379D01*
X175277399Y-74850443D01*
X175267130Y-74825651D01*
X174624349Y-74182870D01*
X174599557Y-74172601D01*
X174594621Y-74163334D01*
X174188347Y-74002272D01*
X173784515Y-73835000D01*
X173766406Y-73835000D01*
X173749574Y-73828327D01*
X173312565Y-73835000D01*
X172875485Y-73835000D01*
X172858756Y-73841930D01*
X172840650Y-73842206D01*
X172065379Y-74163334D01*
X172060443Y-74172601D01*
X172035651Y-74182870D01*
X171392870Y-74825651D01*
X171382601Y-74850443D01*
X171373334Y-74855379D01*
X171212272Y-75261653D01*
X171045000Y-75665485D01*
X171045000Y-75683594D01*
X171038327Y-75700426D01*
X155205000Y-75700426D01*
X155205000Y-75695485D01*
X155198070Y-75678756D01*
X155197794Y-75660650D01*
X154876666Y-74885379D01*
X154867399Y-74880443D01*
X154857130Y-74855651D01*
X154214349Y-74212870D01*
X154189557Y-74202601D01*
X154184621Y-74193334D01*
X153778347Y-74032272D01*
X153374515Y-73865000D01*
X153356406Y-73865000D01*
X153339574Y-73858327D01*
X152902565Y-73865000D01*
X152465485Y-73865000D01*
X152448756Y-73871930D01*
X152430650Y-73872206D01*
X151655379Y-74193334D01*
X151650443Y-74202601D01*
X151625651Y-74212870D01*
X150982870Y-74855651D01*
X150972601Y-74880443D01*
X150963334Y-74885379D01*
X150802272Y-75291653D01*
X150635000Y-75695485D01*
X150635000Y-75713594D01*
X150628327Y-75730426D01*
X134855000Y-75730426D01*
X134855000Y-75665485D01*
X134848070Y-75648756D01*
X134847794Y-75630650D01*
X134526666Y-74855379D01*
X134517399Y-74850443D01*
X134507130Y-74825651D01*
X133864349Y-74182870D01*
X133839557Y-74172601D01*
X133834621Y-74163334D01*
X133428347Y-74002272D01*
X133024515Y-73835000D01*
X133006406Y-73835000D01*
X132989574Y-73828327D01*
X132552565Y-73835000D01*
X132115485Y-73835000D01*
X132098756Y-73841930D01*
X132080650Y-73842206D01*
X131305379Y-74163334D01*
X131300443Y-74172601D01*
X131275651Y-74182870D01*
X130632870Y-74825651D01*
X130622601Y-74850443D01*
X130613334Y-74855379D01*
X130452272Y-75261653D01*
X130285000Y-75665485D01*
X130285000Y-75683594D01*
X130278327Y-75700426D01*
X114742905Y-75700426D01*
X114738070Y-75688756D01*
X114737794Y-75670650D01*
X114416666Y-74895379D01*
X114407399Y-74890443D01*
X114397130Y-74865651D01*
X113754349Y-74222870D01*
X113729557Y-74212601D01*
X113724621Y-74203334D01*
X113318347Y-74042272D01*
X112914515Y-73875000D01*
X112896406Y-73875000D01*
X112879574Y-73868327D01*
X112442565Y-73875000D01*
X112005485Y-73875000D01*
X111988756Y-73881930D01*
X111970650Y-73882206D01*
X111195379Y-74203334D01*
X111190443Y-74212601D01*
X111165651Y-74222870D01*
X110522870Y-74865651D01*
X110512601Y-74890443D01*
X110503334Y-74895379D01*
X110342272Y-75301653D01*
X110175000Y-75705485D01*
X110175000Y-75723594D01*
X110168327Y-75740426D01*
X103060000Y-75740426D01*
X103060000Y-31025000D01*
X105326091Y-31025000D01*
X105340000Y-31094926D01*
X105340001Y-70930069D01*
X105326091Y-71000000D01*
X105381195Y-71277028D01*
X105538119Y-71511881D01*
X105772972Y-71668805D01*
X105980074Y-71710000D01*
X105980075Y-71710000D01*
X106050000Y-71723909D01*
X106119926Y-71710000D01*
X108980074Y-71710000D01*
X109050000Y-71723909D01*
X109119925Y-71710000D01*
X109119926Y-71710000D01*
X109327028Y-71668805D01*
X109561881Y-71511881D01*
X109718805Y-71277028D01*
X109756535Y-71087345D01*
X109760000Y-71069926D01*
X109760000Y-71069925D01*
X109773909Y-71000000D01*
X109760000Y-70930074D01*
X109760000Y-31094926D01*
X109773909Y-31025000D01*
X115401091Y-31025000D01*
X115415001Y-31094931D01*
X115415000Y-70905074D01*
X115401091Y-70975000D01*
X115456195Y-71252028D01*
X115613119Y-71486881D01*
X115810557Y-71618805D01*
X115847972Y-71643805D01*
X116125000Y-71698909D01*
X116194925Y-71685000D01*
X119055075Y-71685000D01*
X119125000Y-71698909D01*
X119402028Y-71643805D01*
X119636881Y-71486881D01*
X119793805Y-71252028D01*
X119835000Y-71044926D01*
X119835000Y-71044925D01*
X119848909Y-70975000D01*
X119835000Y-70905074D01*
X119835000Y-31094926D01*
X119848909Y-31025000D01*
X125476091Y-31025000D01*
X125490001Y-31094931D01*
X125490000Y-70905074D01*
X125476091Y-70975000D01*
X125531195Y-71252028D01*
X125688119Y-71486881D01*
X125885557Y-71618805D01*
X125922972Y-71643805D01*
X126200000Y-71698909D01*
X126269925Y-71685000D01*
X129130075Y-71685000D01*
X129200000Y-71698909D01*
X129477028Y-71643805D01*
X129711881Y-71486881D01*
X129868805Y-71252028D01*
X129910000Y-71044926D01*
X129910000Y-71044925D01*
X129923909Y-70975000D01*
X129910000Y-70905074D01*
X129910000Y-31094926D01*
X129923909Y-31025000D01*
X135551091Y-31025000D01*
X135565001Y-31094931D01*
X135565000Y-70905074D01*
X135551091Y-70975000D01*
X135606195Y-71252028D01*
X135763119Y-71486881D01*
X135960557Y-71618805D01*
X135997972Y-71643805D01*
X136275000Y-71698909D01*
X136344925Y-71685000D01*
X139205075Y-71685000D01*
X139275000Y-71698909D01*
X139552028Y-71643805D01*
X139786881Y-71486881D01*
X139943805Y-71252028D01*
X139985000Y-71044926D01*
X139985000Y-71044925D01*
X139998909Y-70975000D01*
X139985000Y-70905074D01*
X139985000Y-31094926D01*
X139998909Y-31025000D01*
X139993937Y-31000000D01*
X145626091Y-31000000D01*
X145640001Y-31069931D01*
X145640000Y-70905074D01*
X145626091Y-70975000D01*
X145681195Y-71252028D01*
X145838119Y-71486881D01*
X146035557Y-71618805D01*
X146072972Y-71643805D01*
X146350000Y-71698909D01*
X146419925Y-71685000D01*
X149280075Y-71685000D01*
X149350000Y-71698909D01*
X149627028Y-71643805D01*
X149861881Y-71486881D01*
X150018805Y-71252028D01*
X150060000Y-71044926D01*
X150060000Y-71044925D01*
X150073909Y-70975000D01*
X155701091Y-70975000D01*
X155756195Y-71252028D01*
X155913119Y-71486881D01*
X156110557Y-71618805D01*
X156147972Y-71643805D01*
X156425000Y-71698909D01*
X156494925Y-71685000D01*
X159355034Y-71685000D01*
X159424910Y-71698908D01*
X159494877Y-71685000D01*
X159494926Y-71685000D01*
X159569941Y-71670079D01*
X159701944Y-71643839D01*
X159701981Y-71643814D01*
X159702028Y-71643805D01*
X159823667Y-71562528D01*
X159936816Y-71486945D01*
X159936841Y-71486908D01*
X159936881Y-71486881D01*
X160018560Y-71364639D01*
X160093770Y-71252111D01*
X160093779Y-71252067D01*
X160093805Y-71252028D01*
X160121930Y-71110632D01*
X160134991Y-71045014D01*
X160134991Y-71044971D01*
X160148909Y-70975000D01*
X160135009Y-70905117D01*
X160139990Y-31119973D01*
X160153909Y-31050000D01*
X160143964Y-31000000D01*
X165776091Y-31000000D01*
X165790001Y-31069931D01*
X165790000Y-70905074D01*
X165776091Y-70975000D01*
X165831195Y-71252028D01*
X165988119Y-71486881D01*
X166185557Y-71618805D01*
X166222972Y-71643805D01*
X166500000Y-71698909D01*
X166569925Y-71685000D01*
X169405075Y-71685000D01*
X169475000Y-71698909D01*
X169752028Y-71643805D01*
X169986881Y-71486881D01*
X169988784Y-71484032D01*
X169991624Y-71482137D01*
X170148666Y-71247362D01*
X170189964Y-71040281D01*
X170189974Y-71019919D01*
X170198909Y-70975000D01*
X170190019Y-70930307D01*
X170209964Y-31070106D01*
X170223909Y-31000000D01*
X175826091Y-31000000D01*
X175840001Y-31069931D01*
X175840000Y-70905074D01*
X175826091Y-70975000D01*
X175881195Y-71252028D01*
X176038119Y-71486881D01*
X176235557Y-71618805D01*
X176272972Y-71643805D01*
X176550000Y-71698909D01*
X176619925Y-71685000D01*
X179619926Y-71685000D01*
X179827028Y-71643805D01*
X180061881Y-71486881D01*
X180218805Y-71252028D01*
X180273909Y-70975000D01*
X180260000Y-70905074D01*
X180260000Y-31069926D01*
X180273909Y-31000000D01*
X180218805Y-30722972D01*
X180061881Y-30488119D01*
X179827028Y-30331195D01*
X179619926Y-30290000D01*
X179619925Y-30290000D01*
X179550000Y-30276091D01*
X179480074Y-30290000D01*
X176480074Y-30290000D01*
X176272972Y-30331195D01*
X176038119Y-30488119D01*
X175881195Y-30722972D01*
X175826091Y-31000000D01*
X170223909Y-31000000D01*
X170196069Y-30860037D01*
X170168943Y-30723307D01*
X170168841Y-30723155D01*
X170168805Y-30722972D01*
X170089820Y-30604763D01*
X170012137Y-30488376D01*
X170011985Y-30488274D01*
X170011881Y-30488119D01*
X169893525Y-30409036D01*
X169777362Y-30331334D01*
X169777182Y-30331298D01*
X169777028Y-30331195D01*
X169637266Y-30303395D01*
X169500362Y-30276092D01*
X169430258Y-30290000D01*
X166569926Y-30290000D01*
X166500000Y-30276091D01*
X166430075Y-30290000D01*
X166430074Y-30290000D01*
X166222972Y-30331195D01*
X165988119Y-30488119D01*
X165831195Y-30722972D01*
X165776091Y-31000000D01*
X160143964Y-31000000D01*
X160124635Y-30902830D01*
X160098839Y-30773057D01*
X160098815Y-30773021D01*
X160098805Y-30772972D01*
X160016363Y-30649590D01*
X159941945Y-30538184D01*
X159941908Y-30538159D01*
X159941881Y-30538119D01*
X159816706Y-30454480D01*
X159707111Y-30381231D01*
X159707070Y-30381223D01*
X159707028Y-30381195D01*
X159558358Y-30351623D01*
X159430090Y-30326092D01*
X159360123Y-30340000D01*
X156494926Y-30340000D01*
X156425000Y-30326091D01*
X156147973Y-30381195D01*
X155913120Y-30538119D01*
X155756196Y-30772972D01*
X155715001Y-30980074D01*
X155715001Y-31005206D01*
X155706091Y-31050000D01*
X155715001Y-31094794D01*
X155715000Y-70905074D01*
X155701091Y-70975000D01*
X150073909Y-70975000D01*
X150060000Y-70905074D01*
X150060000Y-31069926D01*
X150073909Y-31000000D01*
X150018805Y-30722972D01*
X149861881Y-30488119D01*
X149627028Y-30331195D01*
X149419926Y-30290000D01*
X149419925Y-30290000D01*
X149350000Y-30276091D01*
X149280074Y-30290000D01*
X146280074Y-30290000D01*
X146072972Y-30331195D01*
X145838119Y-30488119D01*
X145681195Y-30722972D01*
X145626091Y-31000000D01*
X139993937Y-31000000D01*
X139982599Y-30943001D01*
X139943805Y-30747972D01*
X139927101Y-30722973D01*
X139786881Y-30513119D01*
X139552028Y-30356195D01*
X139344926Y-30315000D01*
X139344925Y-30315000D01*
X139275000Y-30301091D01*
X139205074Y-30315000D01*
X136344926Y-30315000D01*
X136275000Y-30301091D01*
X136205075Y-30315000D01*
X136205074Y-30315000D01*
X135997972Y-30356195D01*
X135763119Y-30513119D01*
X135606195Y-30747972D01*
X135551091Y-31025000D01*
X129923909Y-31025000D01*
X129907599Y-30943001D01*
X129868805Y-30747972D01*
X129852101Y-30722973D01*
X129711881Y-30513119D01*
X129477028Y-30356195D01*
X129269926Y-30315000D01*
X129269925Y-30315000D01*
X129200000Y-30301091D01*
X129130074Y-30315000D01*
X126269926Y-30315000D01*
X126200000Y-30301091D01*
X126130075Y-30315000D01*
X126130074Y-30315000D01*
X125922972Y-30356195D01*
X125688119Y-30513119D01*
X125531195Y-30747972D01*
X125476091Y-31025000D01*
X119848909Y-31025000D01*
X119832599Y-30943001D01*
X119793805Y-30747972D01*
X119777101Y-30722973D01*
X119636881Y-30513119D01*
X119402028Y-30356195D01*
X119194926Y-30315000D01*
X119194925Y-30315000D01*
X119125000Y-30301091D01*
X119055074Y-30315000D01*
X116194926Y-30315000D01*
X116125000Y-30301091D01*
X116055075Y-30315000D01*
X116055074Y-30315000D01*
X115847972Y-30356195D01*
X115613119Y-30513119D01*
X115456195Y-30747972D01*
X115401091Y-31025000D01*
X109773909Y-31025000D01*
X109757599Y-30943001D01*
X109718805Y-30747972D01*
X109561881Y-30513119D01*
X109327028Y-30356195D01*
X109050000Y-30301091D01*
X108980075Y-30315000D01*
X106119925Y-30315000D01*
X106050000Y-30301091D01*
X105980074Y-30315000D01*
X105772972Y-30356195D01*
X105538119Y-30513119D01*
X105381195Y-30747972D01*
X105326091Y-31025000D01*
X103060000Y-31025000D01*
X103060000Y-19910835D01*
X103610671Y-19910835D01*
X103615000Y-19921463D01*
X103615000Y-19932938D01*
X103895061Y-20609065D01*
X104171162Y-21286944D01*
X104183490Y-21305394D01*
X104183620Y-21305708D01*
X104183860Y-21305948D01*
X104196188Y-21324398D01*
X104218982Y-21341070D01*
X105198930Y-22321018D01*
X105215602Y-22343812D01*
X105226178Y-22348266D01*
X105234292Y-22356380D01*
X105910425Y-22636444D01*
X106584985Y-22920541D01*
X106596461Y-22920609D01*
X106607062Y-22925000D01*
X107338900Y-22925000D01*
X108070835Y-22929329D01*
X108081463Y-22925000D01*
X108092938Y-22925000D01*
X108769065Y-22644939D01*
X109446944Y-22368838D01*
X109465394Y-22356510D01*
X109465708Y-22356380D01*
X109465948Y-22356140D01*
X109484398Y-22343812D01*
X109501070Y-22321018D01*
X110481018Y-21341070D01*
X110503812Y-21324398D01*
X110508266Y-21313822D01*
X110516380Y-21305708D01*
X110796444Y-20629575D01*
X111061332Y-20000623D01*
X116356905Y-20000623D01*
X116365000Y-20020724D01*
X116365000Y-20042394D01*
X116679405Y-20801436D01*
X116986277Y-21563441D01*
X117009327Y-21597938D01*
X117009740Y-21598935D01*
X117010503Y-21599698D01*
X117033553Y-21634195D01*
X117084204Y-21673399D01*
X118126601Y-22715796D01*
X118165805Y-22766447D01*
X118185741Y-22774936D01*
X118201065Y-22790260D01*
X118960129Y-23104674D01*
X119715917Y-23426493D01*
X119737584Y-23426707D01*
X119757606Y-23435000D01*
X120579174Y-23435000D01*
X121400623Y-23443095D01*
X121420724Y-23435000D01*
X121442394Y-23435000D01*
X122201436Y-23120595D01*
X122963441Y-22813723D01*
X122997938Y-22790673D01*
X122998935Y-22790260D01*
X122999698Y-22789497D01*
X123034195Y-22766447D01*
X123073399Y-22715796D01*
X124115796Y-21673399D01*
X124166447Y-21634195D01*
X124174936Y-21614259D01*
X124190260Y-21598935D01*
X124504674Y-20839871D01*
X124826493Y-20084083D01*
X124826707Y-20062416D01*
X124835000Y-20042394D01*
X124835000Y-19990623D01*
X131126905Y-19990623D01*
X131135000Y-20010724D01*
X131135000Y-20032394D01*
X131449405Y-20791436D01*
X131756277Y-21553441D01*
X131779327Y-21587938D01*
X131779740Y-21588935D01*
X131780503Y-21589698D01*
X131803553Y-21624195D01*
X131854204Y-21663399D01*
X132896601Y-22705796D01*
X132935805Y-22756447D01*
X132955741Y-22764936D01*
X132971065Y-22780260D01*
X133730129Y-23094674D01*
X134485917Y-23416493D01*
X134507584Y-23416707D01*
X134527606Y-23425000D01*
X135349174Y-23425000D01*
X136170623Y-23433095D01*
X136190724Y-23425000D01*
X136212394Y-23425000D01*
X136971436Y-23110595D01*
X137733441Y-22803723D01*
X137767938Y-22780673D01*
X137768935Y-22780260D01*
X137769698Y-22779497D01*
X137804195Y-22756447D01*
X137843399Y-22705796D01*
X138885796Y-21663399D01*
X138936447Y-21624195D01*
X138944936Y-21604259D01*
X138960260Y-21588935D01*
X139274674Y-20829871D01*
X139596493Y-20074083D01*
X139596707Y-20052416D01*
X139605000Y-20032394D01*
X139605000Y-20000623D01*
X145936905Y-20000623D01*
X145945000Y-20020724D01*
X145945000Y-20042394D01*
X146259405Y-20801436D01*
X146566277Y-21563441D01*
X146589327Y-21597938D01*
X146589740Y-21598935D01*
X146590503Y-21599698D01*
X146613553Y-21634195D01*
X146664204Y-21673399D01*
X147706601Y-22715796D01*
X147745805Y-22766447D01*
X147765741Y-22774936D01*
X147781065Y-22790260D01*
X148540129Y-23104674D01*
X149295917Y-23426493D01*
X149317584Y-23426707D01*
X149337606Y-23435000D01*
X150159174Y-23435000D01*
X150980623Y-23443095D01*
X151000724Y-23435000D01*
X151022394Y-23435000D01*
X151781436Y-23120595D01*
X152543441Y-22813723D01*
X152577938Y-22790673D01*
X152578935Y-22790260D01*
X152579698Y-22789497D01*
X152614195Y-22766447D01*
X152653399Y-22715796D01*
X153695796Y-21673399D01*
X153746447Y-21634195D01*
X153754936Y-21614259D01*
X153770260Y-21598935D01*
X154084674Y-20839871D01*
X154406493Y-20084083D01*
X154406707Y-20062416D01*
X154415000Y-20042394D01*
X154415000Y-19990623D01*
X160706905Y-19990623D01*
X160715000Y-20010724D01*
X160715000Y-20032394D01*
X161029405Y-20791436D01*
X161336277Y-21553441D01*
X161359327Y-21587938D01*
X161359740Y-21588935D01*
X161360503Y-21589698D01*
X161383553Y-21624195D01*
X161434204Y-21663399D01*
X162476601Y-22705796D01*
X162515805Y-22756447D01*
X162535741Y-22764936D01*
X162551065Y-22780260D01*
X163310129Y-23094674D01*
X164065917Y-23416493D01*
X164087584Y-23416707D01*
X164107606Y-23425000D01*
X164929174Y-23425000D01*
X165750623Y-23433095D01*
X165770724Y-23425000D01*
X165792394Y-23425000D01*
X166551436Y-23110595D01*
X167313441Y-22803723D01*
X167347938Y-22780673D01*
X167348935Y-22780260D01*
X167349698Y-22779497D01*
X167384195Y-22756447D01*
X167423399Y-22705796D01*
X168465796Y-21663399D01*
X168516447Y-21624195D01*
X168524936Y-21604259D01*
X168540260Y-21588935D01*
X168854674Y-20829871D01*
X169176493Y-20074083D01*
X169176707Y-20052416D01*
X169185000Y-20032394D01*
X169185000Y-19920835D01*
X174460671Y-19920835D01*
X174465000Y-19931463D01*
X174465000Y-19942938D01*
X174745061Y-20619065D01*
X175021162Y-21296944D01*
X175033490Y-21315394D01*
X175033620Y-21315708D01*
X175033860Y-21315948D01*
X175046188Y-21334398D01*
X175068982Y-21351070D01*
X176048930Y-22331018D01*
X176065602Y-22353812D01*
X176076178Y-22358266D01*
X176084292Y-22366380D01*
X176760425Y-22646444D01*
X177434985Y-22930541D01*
X177446461Y-22930609D01*
X177457062Y-22935000D01*
X178188900Y-22935000D01*
X178920835Y-22939329D01*
X178931463Y-22935000D01*
X178942938Y-22935000D01*
X179619065Y-22654939D01*
X180296944Y-22378838D01*
X180315394Y-22366510D01*
X180315708Y-22366380D01*
X180315948Y-22366140D01*
X180334398Y-22353812D01*
X180351070Y-22331018D01*
X181331018Y-21351070D01*
X181353812Y-21334398D01*
X181358266Y-21323822D01*
X181366380Y-21315708D01*
X181646444Y-20639575D01*
X181930541Y-19965015D01*
X181930609Y-19953539D01*
X181935000Y-19942938D01*
X181935000Y-19211100D01*
X181939329Y-18479165D01*
X181935000Y-18468537D01*
X181935000Y-18457062D01*
X181654939Y-17780935D01*
X181378838Y-17103056D01*
X181366510Y-17084606D01*
X181366380Y-17084292D01*
X181366140Y-17084052D01*
X181353812Y-17065602D01*
X181331018Y-17048930D01*
X180351070Y-16068982D01*
X180334398Y-16046188D01*
X180323822Y-16041734D01*
X180315708Y-16033620D01*
X179639575Y-15753556D01*
X178965015Y-15469459D01*
X178953539Y-15469391D01*
X178942938Y-15465000D01*
X178211100Y-15465000D01*
X177479165Y-15460671D01*
X177468537Y-15465000D01*
X177457062Y-15465000D01*
X176780935Y-15745061D01*
X176103056Y-16021162D01*
X176084606Y-16033490D01*
X176084292Y-16033620D01*
X176084052Y-16033860D01*
X176065602Y-16046188D01*
X176048930Y-16068982D01*
X175068982Y-17048930D01*
X175046188Y-17065602D01*
X175041734Y-17076178D01*
X175033620Y-17084292D01*
X174753556Y-17760425D01*
X174469459Y-18434985D01*
X174469391Y-18446461D01*
X174465000Y-18457062D01*
X174465000Y-19188900D01*
X174460671Y-19920835D01*
X169185000Y-19920835D01*
X169185000Y-19210826D01*
X169193095Y-18389377D01*
X169185000Y-18369276D01*
X169185000Y-18347606D01*
X168870595Y-17588564D01*
X168563723Y-16826559D01*
X168540673Y-16792062D01*
X168540260Y-16791065D01*
X168539497Y-16790302D01*
X168516447Y-16755805D01*
X168465796Y-16716601D01*
X167423399Y-15674204D01*
X167384195Y-15623553D01*
X167364259Y-15615064D01*
X167348935Y-15599740D01*
X166589871Y-15285326D01*
X165834083Y-14963507D01*
X165812416Y-14963293D01*
X165792394Y-14955000D01*
X164970826Y-14955000D01*
X164149377Y-14946905D01*
X164129276Y-14955000D01*
X164107606Y-14955000D01*
X163348564Y-15269405D01*
X162586559Y-15576277D01*
X162552062Y-15599327D01*
X162551065Y-15599740D01*
X162550302Y-15600503D01*
X162515805Y-15623553D01*
X162476601Y-15674204D01*
X161434204Y-16716601D01*
X161383553Y-16755805D01*
X161375064Y-16775741D01*
X161359740Y-16791065D01*
X161045326Y-17550129D01*
X160723507Y-18305917D01*
X160723293Y-18327584D01*
X160715000Y-18347606D01*
X160715000Y-19169174D01*
X160706905Y-19990623D01*
X154415000Y-19990623D01*
X154415000Y-19220826D01*
X154423095Y-18399377D01*
X154415000Y-18379276D01*
X154415000Y-18357606D01*
X154100595Y-17598564D01*
X153793723Y-16836559D01*
X153770673Y-16802062D01*
X153770260Y-16801065D01*
X153769497Y-16800302D01*
X153746447Y-16765805D01*
X153695796Y-16726601D01*
X152653399Y-15684204D01*
X152614195Y-15633553D01*
X152594259Y-15625064D01*
X152578935Y-15609740D01*
X151819871Y-15295326D01*
X151064083Y-14973507D01*
X151042416Y-14973293D01*
X151022394Y-14965000D01*
X150200826Y-14965000D01*
X149379377Y-14956905D01*
X149359276Y-14965000D01*
X149337606Y-14965000D01*
X148578564Y-15279405D01*
X147816559Y-15586277D01*
X147782062Y-15609327D01*
X147781065Y-15609740D01*
X147780302Y-15610503D01*
X147745805Y-15633553D01*
X147706601Y-15684204D01*
X146664204Y-16726601D01*
X146613553Y-16765805D01*
X146605064Y-16785741D01*
X146589740Y-16801065D01*
X146275326Y-17560129D01*
X145953507Y-18315917D01*
X145953293Y-18337584D01*
X145945000Y-18357606D01*
X145945000Y-19179174D01*
X145936905Y-20000623D01*
X139605000Y-20000623D01*
X139605000Y-19210826D01*
X139613095Y-18389377D01*
X139605000Y-18369276D01*
X139605000Y-18347606D01*
X139290595Y-17588564D01*
X138983723Y-16826559D01*
X138960673Y-16792062D01*
X138960260Y-16791065D01*
X138959497Y-16790302D01*
X138936447Y-16755805D01*
X138885796Y-16716601D01*
X137843399Y-15674204D01*
X137804195Y-15623553D01*
X137784259Y-15615064D01*
X137768935Y-15599740D01*
X137009871Y-15285326D01*
X136254083Y-14963507D01*
X136232416Y-14963293D01*
X136212394Y-14955000D01*
X135390826Y-14955000D01*
X134569377Y-14946905D01*
X134549276Y-14955000D01*
X134527606Y-14955000D01*
X133768564Y-15269405D01*
X133006559Y-15576277D01*
X132972062Y-15599327D01*
X132971065Y-15599740D01*
X132970302Y-15600503D01*
X132935805Y-15623553D01*
X132896601Y-15674204D01*
X131854204Y-16716601D01*
X131803553Y-16755805D01*
X131795064Y-16775741D01*
X131779740Y-16791065D01*
X131465326Y-17550129D01*
X131143507Y-18305917D01*
X131143293Y-18327584D01*
X131135000Y-18347606D01*
X131135000Y-19169174D01*
X131126905Y-19990623D01*
X124835000Y-19990623D01*
X124835000Y-19220826D01*
X124843095Y-18399377D01*
X124835000Y-18379276D01*
X124835000Y-18357606D01*
X124520595Y-17598564D01*
X124213723Y-16836559D01*
X124190673Y-16802062D01*
X124190260Y-16801065D01*
X124189497Y-16800302D01*
X124166447Y-16765805D01*
X124115796Y-16726601D01*
X123073399Y-15684204D01*
X123034195Y-15633553D01*
X123014259Y-15625064D01*
X122998935Y-15609740D01*
X122239871Y-15295326D01*
X121484083Y-14973507D01*
X121462416Y-14973293D01*
X121442394Y-14965000D01*
X120620826Y-14965000D01*
X119799377Y-14956905D01*
X119779276Y-14965000D01*
X119757606Y-14965000D01*
X118998564Y-15279405D01*
X118236559Y-15586277D01*
X118202062Y-15609327D01*
X118201065Y-15609740D01*
X118200302Y-15610503D01*
X118165805Y-15633553D01*
X118126601Y-15684204D01*
X117084204Y-16726601D01*
X117033553Y-16765805D01*
X117025064Y-16785741D01*
X117009740Y-16801065D01*
X116695326Y-17560129D01*
X116373507Y-18315917D01*
X116373293Y-18337584D01*
X116365000Y-18357606D01*
X116365000Y-19179174D01*
X116356905Y-20000623D01*
X111061332Y-20000623D01*
X111080541Y-19955015D01*
X111080609Y-19943539D01*
X111085000Y-19932938D01*
X111085000Y-19201100D01*
X111089329Y-18469165D01*
X111085000Y-18458537D01*
X111085000Y-18447062D01*
X110804939Y-17770935D01*
X110528838Y-17093056D01*
X110516510Y-17074606D01*
X110516380Y-17074292D01*
X110516140Y-17074052D01*
X110503812Y-17055602D01*
X110481018Y-17038930D01*
X109501070Y-16058982D01*
X109484398Y-16036188D01*
X109473822Y-16031734D01*
X109465708Y-16023620D01*
X108789575Y-15743556D01*
X108115015Y-15459459D01*
X108103539Y-15459391D01*
X108092938Y-15455000D01*
X107361100Y-15455000D01*
X106629165Y-15450671D01*
X106618537Y-15455000D01*
X106607062Y-15455000D01*
X105930935Y-15735061D01*
X105253056Y-16011162D01*
X105234606Y-16023490D01*
X105234292Y-16023620D01*
X105234052Y-16023860D01*
X105215602Y-16036188D01*
X105198930Y-16058982D01*
X104218982Y-17038930D01*
X104196188Y-17055602D01*
X104191734Y-17066178D01*
X104183620Y-17074292D01*
X103903556Y-17750425D01*
X103619459Y-18424985D01*
X103619391Y-18436461D01*
X103615000Y-18447062D01*
X103615000Y-19178900D01*
X103610671Y-19910835D01*
X103060000Y-19910835D01*
X103060000Y-4160000D01*
X110160011Y-4160000D01*
X109832565Y-4165000D01*
X109832565Y-4165000D01*
G37*
X109832565Y-4165000D02*
X109395485Y-4165000D01*
X109378756Y-4171930D01*
X109360650Y-4172206D01*
X108585379Y-4493334D01*
X108580443Y-4502601D01*
X108555651Y-4512870D01*
X107912870Y-5155651D01*
X107902601Y-5180443D01*
X107893334Y-5185379D01*
X107732272Y-5591653D01*
X107565000Y-5995485D01*
X107565000Y-6013594D01*
X107558327Y-6030426D01*
X107565000Y-6467435D01*
X107565000Y-6904515D01*
X107571930Y-6921244D01*
X107572206Y-6939350D01*
X107893334Y-7714621D01*
X107902601Y-7719557D01*
X107912870Y-7744349D01*
X108555651Y-8387130D01*
X108580443Y-8397399D01*
X108585379Y-8406666D01*
X108991653Y-8567728D01*
X109395485Y-8735000D01*
X109413594Y-8735000D01*
X109430426Y-8741673D01*
X109867435Y-8735000D01*
X110304515Y-8735000D01*
X110321244Y-8728070D01*
X110339350Y-8727794D01*
X111114621Y-8406666D01*
X111119557Y-8397399D01*
X111144349Y-8387130D01*
X111787130Y-7744349D01*
X111797399Y-7719557D01*
X111806666Y-7714621D01*
X111967728Y-7308347D01*
X112135000Y-6904515D01*
X112135000Y-6886406D01*
X112141673Y-6869574D01*
X112135000Y-6432565D01*
X112135000Y-5995485D01*
X112128070Y-5978756D01*
X112127794Y-5960650D01*
X111806666Y-5185379D01*
X111797399Y-5180443D01*
X111787130Y-5155651D01*
X111144349Y-4512870D01*
X111119557Y-4502601D01*
X111114621Y-4493334D01*
X110708347Y-4332272D01*
X110304515Y-4165000D01*
X110286406Y-4165000D01*
X110273794Y-4160000D01*
X176210011Y-4160000D01*
X175882565Y-4165000D01*
X175445485Y-4165000D01*
X175428756Y-4171930D01*
X175410650Y-4172206D01*
X174635379Y-4493334D01*
X174630443Y-4502601D01*
X174605651Y-4512870D01*
X173962870Y-5155651D01*
X173952601Y-5180443D01*
X173943334Y-5185379D01*
X173782272Y-5591653D01*
X173615000Y-5995485D01*
X173615000Y-6013594D01*
X173608327Y-6030426D01*
X173615000Y-6467435D01*
X173615000Y-6904515D01*
X173621930Y-6921244D01*
X173622206Y-6939350D01*
X173943334Y-7714621D01*
X173952601Y-7719557D01*
X173962870Y-7744349D01*
X174605651Y-8387130D01*
X174630443Y-8397399D01*
X174635379Y-8406666D01*
X175041653Y-8567728D01*
X175445485Y-8735000D01*
X175463594Y-8735000D01*
X175480426Y-8741673D01*
X175917435Y-8735000D01*
X176354515Y-8735000D01*
X176371244Y-8728070D01*
X176389350Y-8727794D01*
X177164621Y-8406666D01*
X177169557Y-8397399D01*
X177194349Y-8387130D01*
X177837130Y-7744349D01*
X177847399Y-7719557D01*
X177856666Y-7714621D01*
X178017728Y-7308347D01*
X178185000Y-6904515D01*
X178185000Y-6886406D01*
X178191673Y-6869574D01*
X178185000Y-6432565D01*
X178185000Y-5995485D01*
X178178070Y-5978756D01*
X178177794Y-5960650D01*
X177856666Y-5185379D01*
X177847399Y-5180443D01*
X177837130Y-5155651D01*
X177194349Y-4512870D01*
X177169557Y-4502601D01*
X177164621Y-4493334D01*
X176758347Y-4332272D01*
X176354515Y-4165000D01*
X176336406Y-4165000D01*
X176323794Y-4160000D01*
X182540000Y-4160000D01*
X182540001Y-131240000D01*
X175589989Y-131240000D01*
X175917435Y-131235000D01*
X176354515Y-131235000D01*
X176371244Y-131228070D01*
X176389350Y-131227794D01*
X177164621Y-130906666D01*
X177169557Y-130897399D01*
X177194349Y-130887130D01*
X177837130Y-130244349D01*
X177847399Y-130219557D01*
X177856666Y-130214621D01*
X178017728Y-129808347D01*
X178185000Y-129404515D01*
X178185000Y-129386406D01*
X178191673Y-129369574D01*
X178185000Y-128932565D01*
X178185000Y-128495485D01*
X178178070Y-128478756D01*
X178177794Y-128460650D01*
X177856666Y-127685379D01*
X177847399Y-127680443D01*
X177837130Y-127655651D01*
X177194349Y-127012870D01*
X177169557Y-127002601D01*
X177164621Y-126993334D01*
X176758347Y-126832272D01*
X176354515Y-126665000D01*
X176336406Y-126665000D01*
X176319574Y-126658327D01*
X175882565Y-126665000D01*
X175445485Y-126665000D01*
X175428756Y-126671930D01*
X175410650Y-126672206D01*
X174635379Y-126993334D01*
X174630443Y-127002601D01*
X174605651Y-127012870D01*
X173962870Y-127655651D01*
X173952601Y-127680443D01*
X173943334Y-127685379D01*
X173782272Y-128091653D01*
X173615000Y-128495485D01*
X173615000Y-128513594D01*
X173608327Y-128530426D01*
X173615000Y-128967435D01*
X173615000Y-129404515D01*
X173621930Y-129421244D01*
X173622206Y-129439350D01*
X173943334Y-130214621D01*
X173952601Y-130219557D01*
X173962870Y-130244349D01*
X174605651Y-130887130D01*
X174630443Y-130897399D01*
X174635379Y-130906666D01*
X175041653Y-131067728D01*
X175445485Y-131235000D01*
X175463594Y-131235000D01*
X175476206Y-131240000D01*
X109539989Y-131240000D01*
X109867435Y-131235000D01*
X110304515Y-131235000D01*
X110321244Y-131228070D01*
X110339350Y-131227794D01*
X111114621Y-130906666D01*
X111119557Y-130897399D01*
X111144349Y-130887130D01*
X111787130Y-130244349D01*
X111797399Y-130219557D01*
X111806666Y-130214621D01*
X111967728Y-129808347D01*
X112135000Y-129404515D01*
X112135000Y-129386406D01*
X112141673Y-129369574D01*
X112135000Y-128932565D01*
X112135000Y-128495485D01*
X112128070Y-128478756D01*
X112127794Y-128460650D01*
X111806666Y-127685379D01*
X111797399Y-127680443D01*
X111787130Y-127655651D01*
X111144349Y-127012870D01*
X111119557Y-127002601D01*
X111114621Y-126993334D01*
X110708347Y-126832272D01*
X110304515Y-126665000D01*
X110286406Y-126665000D01*
X110269574Y-126658327D01*
X109832565Y-126665000D01*
X109395485Y-126665000D01*
X109378756Y-126671930D01*
X109360650Y-126672206D01*
X108585379Y-126993334D01*
X108580443Y-127002601D01*
X108555651Y-127012870D01*
X107912870Y-127655651D01*
X107902601Y-127680443D01*
X107893334Y-127685379D01*
X107732272Y-128091653D01*
X107565000Y-128495485D01*
X107565000Y-128513594D01*
X107558327Y-128530426D01*
X107565000Y-128967435D01*
X107565000Y-129404515D01*
X107571930Y-129421244D01*
X107572206Y-129439350D01*
X107893334Y-130214621D01*
X107902601Y-130219557D01*
X107912870Y-130244349D01*
X108555651Y-130887130D01*
X108580443Y-130897399D01*
X108585379Y-130906666D01*
X108991653Y-131067728D01*
X109395485Y-131235000D01*
X109413594Y-131235000D01*
X109426206Y-131240000D01*
X103060000Y-131240000D01*
X103060000Y-116810835D01*
X103510671Y-116810835D01*
X103515000Y-116821463D01*
X103515000Y-116832938D01*
X103795061Y-117509065D01*
X104071162Y-118186944D01*
X104083490Y-118205394D01*
X104083620Y-118205708D01*
X104083860Y-118205948D01*
X104096188Y-118224398D01*
X104118982Y-118241070D01*
X105098930Y-119221018D01*
X105115602Y-119243812D01*
X105126178Y-119248266D01*
X105134292Y-119256380D01*
X105810425Y-119536444D01*
X106484985Y-119820541D01*
X106496461Y-119820609D01*
X106507062Y-119825000D01*
X107238900Y-119825000D01*
X107970835Y-119829329D01*
X107981463Y-119825000D01*
X107992938Y-119825000D01*
X108669065Y-119544939D01*
X109346944Y-119268838D01*
X109365394Y-119256510D01*
X109365708Y-119256380D01*
X109365948Y-119256140D01*
X109384398Y-119243812D01*
X109401070Y-119221018D01*
X110381018Y-118241070D01*
X110403812Y-118224398D01*
X110408266Y-118213822D01*
X110416380Y-118205708D01*
X110696444Y-117529575D01*
X110980541Y-116855015D01*
X110980609Y-116843539D01*
X110985000Y-116832938D01*
X110985000Y-116820835D01*
X113660671Y-116820835D01*
X113665000Y-116831463D01*
X113665000Y-116842938D01*
X113945061Y-117519065D01*
X114221162Y-118196944D01*
X114233490Y-118215394D01*
X114233620Y-118215708D01*
X114233860Y-118215948D01*
X114246188Y-118234398D01*
X114268982Y-118251070D01*
X115248930Y-119231018D01*
X115265602Y-119253812D01*
X115276178Y-119258266D01*
X115284292Y-119266380D01*
X115960425Y-119546444D01*
X116634985Y-119830541D01*
X116646461Y-119830609D01*
X116657062Y-119835000D01*
X117388900Y-119835000D01*
X118120835Y-119839329D01*
X118131463Y-119835000D01*
X118142938Y-119835000D01*
X118819065Y-119554939D01*
X119496944Y-119278838D01*
X119515394Y-119266510D01*
X119515708Y-119266380D01*
X119515948Y-119266140D01*
X119534398Y-119253812D01*
X119551070Y-119231018D01*
X120531018Y-118251070D01*
X120553812Y-118234398D01*
X120558266Y-118223822D01*
X120566380Y-118215708D01*
X120846444Y-117539575D01*
X121130541Y-116865015D01*
X121130609Y-116853539D01*
X121135000Y-116842938D01*
X121135000Y-116820835D01*
X123830671Y-116820835D01*
X123835000Y-116831463D01*
X123835000Y-116842938D01*
X124115061Y-117519065D01*
X124391162Y-118196944D01*
X124403490Y-118215394D01*
X124403620Y-118215708D01*
X124403860Y-118215948D01*
X124416188Y-118234398D01*
X124438982Y-118251070D01*
X125418930Y-119231018D01*
X125435602Y-119253812D01*
X125446178Y-119258266D01*
X125454292Y-119266380D01*
X126130425Y-119546444D01*
X126804985Y-119830541D01*
X126816461Y-119830609D01*
X126827062Y-119835000D01*
X127558900Y-119835000D01*
X128290835Y-119839329D01*
X128301463Y-119835000D01*
X128312938Y-119835000D01*
X128989065Y-119554939D01*
X129666944Y-119278838D01*
X129685394Y-119266510D01*
X129685708Y-119266380D01*
X129685948Y-119266140D01*
X129704398Y-119253812D01*
X129721070Y-119231018D01*
X130701018Y-118251070D01*
X130723812Y-118234398D01*
X130728266Y-118223822D01*
X130736380Y-118215708D01*
X131016444Y-117539575D01*
X131300541Y-116865015D01*
X131300609Y-116853539D01*
X131305000Y-116842938D01*
X131305000Y-116820835D01*
X133980671Y-116820835D01*
X133985000Y-116831463D01*
X133985000Y-116842938D01*
X134265061Y-117519065D01*
X134541162Y-118196944D01*
X134553490Y-118215394D01*
X134553620Y-118215708D01*
X134553860Y-118215948D01*
X134566188Y-118234398D01*
X134588982Y-118251070D01*
X135568930Y-119231018D01*
X135585602Y-119253812D01*
X135596178Y-119258266D01*
X135604292Y-119266380D01*
X136280425Y-119546444D01*
X136954985Y-119830541D01*
X136966461Y-119830609D01*
X136977062Y-119835000D01*
X137708900Y-119835000D01*
X138440835Y-119839329D01*
X138451463Y-119835000D01*
X138462938Y-119835000D01*
X139139065Y-119554939D01*
X139816944Y-119278838D01*
X139835394Y-119266510D01*
X139835708Y-119266380D01*
X139835948Y-119266140D01*
X139854398Y-119253812D01*
X139871070Y-119231018D01*
X140851018Y-118251070D01*
X140873812Y-118234398D01*
X140878266Y-118223822D01*
X140886380Y-118215708D01*
X141166444Y-117539575D01*
X141450541Y-116865015D01*
X141450609Y-116853539D01*
X141455000Y-116842938D01*
X141455000Y-116810835D01*
X144140671Y-116810835D01*
X144145000Y-116821463D01*
X144145000Y-116832938D01*
X144425061Y-117509065D01*
X144701162Y-118186944D01*
X144713490Y-118205394D01*
X144713620Y-118205708D01*
X144713860Y-118205948D01*
X144726188Y-118224398D01*
X144748982Y-118241070D01*
X145728930Y-119221018D01*
X145745602Y-119243812D01*
X145756178Y-119248266D01*
X145764292Y-119256380D01*
X146440425Y-119536444D01*
X147114985Y-119820541D01*
X147126461Y-119820609D01*
X147137062Y-119825000D01*
X147868900Y-119825000D01*
X148600835Y-119829329D01*
X148611463Y-119825000D01*
X148622938Y-119825000D01*
X149299065Y-119544939D01*
X149976944Y-119268838D01*
X149995394Y-119256510D01*
X149995708Y-119256380D01*
X149995948Y-119256140D01*
X150014398Y-119243812D01*
X150031070Y-119221018D01*
X151011018Y-118241070D01*
X151033812Y-118224398D01*
X151038266Y-118213822D01*
X151046380Y-118205708D01*
X151326444Y-117529575D01*
X151610541Y-116855015D01*
X151610609Y-116843539D01*
X151615000Y-116832938D01*
X151615000Y-116820835D01*
X154290671Y-116820835D01*
X154295000Y-116831463D01*
X154295000Y-116842938D01*
X154575061Y-117519065D01*
X154851162Y-118196944D01*
X154863490Y-118215394D01*
X154863620Y-118215708D01*
X154863860Y-118215948D01*
X154876188Y-118234398D01*
X154898982Y-118251070D01*
X155878930Y-119231018D01*
X155895602Y-119253812D01*
X155906178Y-119258266D01*
X155914292Y-119266380D01*
X156590425Y-119546444D01*
X157264985Y-119830541D01*
X157276461Y-119830609D01*
X157287062Y-119835000D01*
X158018900Y-119835000D01*
X158750835Y-119839329D01*
X158761463Y-119835000D01*
X158772938Y-119835000D01*
X159449065Y-119554939D01*
X160126944Y-119278838D01*
X160145394Y-119266510D01*
X160145708Y-119266380D01*
X160145948Y-119266140D01*
X160164398Y-119253812D01*
X160181070Y-119231018D01*
X161161018Y-118251070D01*
X161183812Y-118234398D01*
X161188266Y-118223822D01*
X161196380Y-118215708D01*
X161476444Y-117539575D01*
X161760541Y-116865015D01*
X161760609Y-116853539D01*
X161765000Y-116842938D01*
X161765000Y-116810835D01*
X164460671Y-116810835D01*
X164465000Y-116821463D01*
X164465000Y-116832938D01*
X164745061Y-117509065D01*
X165021162Y-118186944D01*
X165033490Y-118205394D01*
X165033620Y-118205708D01*
X165033860Y-118205948D01*
X165046188Y-118224398D01*
X165068982Y-118241070D01*
X166048930Y-119221018D01*
X166065602Y-119243812D01*
X166076178Y-119248266D01*
X166084292Y-119256380D01*
X166760425Y-119536444D01*
X167434985Y-119820541D01*
X167446461Y-119820609D01*
X167457062Y-119825000D01*
X168188900Y-119825000D01*
X168920835Y-119829329D01*
X168931463Y-119825000D01*
X168942938Y-119825000D01*
X169619065Y-119544939D01*
X170296944Y-119268838D01*
X170315394Y-119256510D01*
X170315708Y-119256380D01*
X170315948Y-119256140D01*
X170334398Y-119243812D01*
X170351070Y-119221018D01*
X171331018Y-118241070D01*
X171353812Y-118224398D01*
X171358266Y-118213822D01*
X171366380Y-118205708D01*
X171646444Y-117529575D01*
X171930541Y-116855015D01*
X171930609Y-116843539D01*
X171935000Y-116832938D01*
X171935000Y-116820835D01*
X174610671Y-116820835D01*
X174615000Y-116831463D01*
X174615000Y-116842938D01*
X174895061Y-117519065D01*
X175171162Y-118196944D01*
X175183490Y-118215394D01*
X175183620Y-118215708D01*
X175183860Y-118215948D01*
X175196188Y-118234398D01*
X175218982Y-118251070D01*
X176198930Y-119231018D01*
X176215602Y-119253812D01*
X176226178Y-119258266D01*
X176234292Y-119266380D01*
X176910425Y-119546444D01*
X177584985Y-119830541D01*
X177596461Y-119830609D01*
X177607062Y-119835000D01*
X178338900Y-119835000D01*
X179070835Y-119839329D01*
X179081463Y-119835000D01*
X179092938Y-119835000D01*
X179769065Y-119554939D01*
X180446944Y-119278838D01*
X180465394Y-119266510D01*
X180465708Y-119266380D01*
X180465948Y-119266140D01*
X180484398Y-119253812D01*
X180501070Y-119231018D01*
X181481018Y-118251070D01*
X181503812Y-118234398D01*
X181508266Y-118223822D01*
X181516380Y-118215708D01*
X181796444Y-117539575D01*
X182080541Y-116865015D01*
X182080609Y-116853539D01*
X182085000Y-116842938D01*
X182085000Y-116111100D01*
X182089329Y-115379165D01*
X182085000Y-115368537D01*
X182085000Y-115357062D01*
X181804939Y-114680935D01*
X181528838Y-114003056D01*
X181516510Y-113984606D01*
X181516380Y-113984292D01*
X181516140Y-113984052D01*
X181503812Y-113965602D01*
X181481018Y-113948930D01*
X180501070Y-112968982D01*
X180484398Y-112946188D01*
X180473822Y-112941734D01*
X180465708Y-112933620D01*
X179789575Y-112653556D01*
X179115015Y-112369459D01*
X179103539Y-112369391D01*
X179092938Y-112365000D01*
X178361100Y-112365000D01*
X177629165Y-112360671D01*
X177618537Y-112365000D01*
X177607062Y-112365000D01*
X176930935Y-112645061D01*
X176253056Y-112921162D01*
X176234606Y-112933490D01*
X176234292Y-112933620D01*
X176234052Y-112933860D01*
X176215602Y-112946188D01*
X176198930Y-112968982D01*
X175218982Y-113948930D01*
X175196188Y-113965602D01*
X175191734Y-113976178D01*
X175183620Y-113984292D01*
X174903556Y-114660425D01*
X174619459Y-115334985D01*
X174619391Y-115346461D01*
X174615000Y-115357062D01*
X174615000Y-116088900D01*
X174610671Y-116820835D01*
X171935000Y-116820835D01*
X171935000Y-116101100D01*
X171939329Y-115369165D01*
X171935000Y-115358537D01*
X171935000Y-115347062D01*
X171654939Y-114670935D01*
X171378838Y-113993056D01*
X171366510Y-113974606D01*
X171366380Y-113974292D01*
X171366140Y-113974052D01*
X171353812Y-113955602D01*
X171331018Y-113938930D01*
X170351070Y-112958982D01*
X170334398Y-112936188D01*
X170323822Y-112931734D01*
X170315708Y-112923620D01*
X169639575Y-112643556D01*
X168965015Y-112359459D01*
X168953539Y-112359391D01*
X168942938Y-112355000D01*
X168211100Y-112355000D01*
X167479165Y-112350671D01*
X167468537Y-112355000D01*
X167457062Y-112355000D01*
X166780935Y-112635061D01*
X166103056Y-112911162D01*
X166084606Y-112923490D01*
X166084292Y-112923620D01*
X166084052Y-112923860D01*
X166065602Y-112936188D01*
X166048930Y-112958982D01*
X165068982Y-113938930D01*
X165046188Y-113955602D01*
X165041734Y-113966178D01*
X165033620Y-113974292D01*
X164753556Y-114650425D01*
X164469459Y-115324985D01*
X164469391Y-115336461D01*
X164465000Y-115347062D01*
X164465000Y-116078900D01*
X164460671Y-116810835D01*
X161765000Y-116810835D01*
X161765000Y-116111100D01*
X161769329Y-115379165D01*
X161765000Y-115368537D01*
X161765000Y-115357062D01*
X161484939Y-114680935D01*
X161208838Y-114003056D01*
X161196510Y-113984606D01*
X161196380Y-113984292D01*
X161196140Y-113984052D01*
X161183812Y-113965602D01*
X161161018Y-113948930D01*
X160181070Y-112968982D01*
X160164398Y-112946188D01*
X160153822Y-112941734D01*
X160145708Y-112933620D01*
X159469575Y-112653556D01*
X158795015Y-112369459D01*
X158783539Y-112369391D01*
X158772938Y-112365000D01*
X158041100Y-112365000D01*
X157309165Y-112360671D01*
X157298537Y-112365000D01*
X157287062Y-112365000D01*
X156610935Y-112645061D01*
X155933056Y-112921162D01*
X155914606Y-112933490D01*
X155914292Y-112933620D01*
X155914052Y-112933860D01*
X155895602Y-112946188D01*
X155878930Y-112968982D01*
X154898982Y-113948930D01*
X154876188Y-113965602D01*
X154871734Y-113976178D01*
X154863620Y-113984292D01*
X154583556Y-114660425D01*
X154299459Y-115334985D01*
X154299391Y-115346461D01*
X154295000Y-115357062D01*
X154295000Y-116088900D01*
X154290671Y-116820835D01*
X151615000Y-116820835D01*
X151615000Y-116101100D01*
X151619329Y-115369165D01*
X151615000Y-115358537D01*
X151615000Y-115347062D01*
X151334939Y-114670935D01*
X151058838Y-113993056D01*
X151046510Y-113974606D01*
X151046380Y-113974292D01*
X151046140Y-113974052D01*
X151033812Y-113955602D01*
X151011018Y-113938930D01*
X150031070Y-112958982D01*
X150014398Y-112936188D01*
X150003822Y-112931734D01*
X149995708Y-112923620D01*
X149319575Y-112643556D01*
X148645015Y-112359459D01*
X148633539Y-112359391D01*
X148622938Y-112355000D01*
X147891100Y-112355000D01*
X147159165Y-112350671D01*
X147148537Y-112355000D01*
X147137062Y-112355000D01*
X146460935Y-112635061D01*
X145783056Y-112911162D01*
X145764606Y-112923490D01*
X145764292Y-112923620D01*
X145764052Y-112923860D01*
X145745602Y-112936188D01*
X145728930Y-112958982D01*
X144748982Y-113938930D01*
X144726188Y-113955602D01*
X144721734Y-113966178D01*
X144713620Y-113974292D01*
X144433556Y-114650425D01*
X144149459Y-115324985D01*
X144149391Y-115336461D01*
X144145000Y-115347062D01*
X144145000Y-116078900D01*
X144140671Y-116810835D01*
X141455000Y-116810835D01*
X141455000Y-116111100D01*
X141459329Y-115379165D01*
X141455000Y-115368537D01*
X141455000Y-115357062D01*
X141174939Y-114680935D01*
X140898838Y-114003056D01*
X140886510Y-113984606D01*
X140886380Y-113984292D01*
X140886140Y-113984052D01*
X140873812Y-113965602D01*
X140851018Y-113948930D01*
X139871070Y-112968982D01*
X139854398Y-112946188D01*
X139843822Y-112941734D01*
X139835708Y-112933620D01*
X139159575Y-112653556D01*
X138485015Y-112369459D01*
X138473539Y-112369391D01*
X138462938Y-112365000D01*
X137731100Y-112365000D01*
X136999165Y-112360671D01*
X136988537Y-112365000D01*
X136977062Y-112365000D01*
X136300935Y-112645061D01*
X135623056Y-112921162D01*
X135604606Y-112933490D01*
X135604292Y-112933620D01*
X135604052Y-112933860D01*
X135585602Y-112946188D01*
X135568930Y-112968982D01*
X134588982Y-113948930D01*
X134566188Y-113965602D01*
X134561734Y-113976178D01*
X134553620Y-113984292D01*
X134273556Y-114660425D01*
X133989459Y-115334985D01*
X133989391Y-115346461D01*
X133985000Y-115357062D01*
X133985000Y-116088900D01*
X133980671Y-116820835D01*
X131305000Y-116820835D01*
X131305000Y-116111100D01*
X131309329Y-115379165D01*
X131305000Y-115368537D01*
X131305000Y-115357062D01*
X131024939Y-114680935D01*
X130748838Y-114003056D01*
X130736510Y-113984606D01*
X130736380Y-113984292D01*
X130736140Y-113984052D01*
X130723812Y-113965602D01*
X130701018Y-113948930D01*
X129721070Y-112968982D01*
X129704398Y-112946188D01*
X129693822Y-112941734D01*
X129685708Y-112933620D01*
X129009575Y-112653556D01*
X128335015Y-112369459D01*
X128323539Y-112369391D01*
X128312938Y-112365000D01*
X127581100Y-112365000D01*
X126849165Y-112360671D01*
X126838537Y-112365000D01*
X126827062Y-112365000D01*
X126150935Y-112645061D01*
X125473056Y-112921162D01*
X125454606Y-112933490D01*
X125454292Y-112933620D01*
X125454052Y-112933860D01*
X125435602Y-112946188D01*
X125418930Y-112968982D01*
X124438982Y-113948930D01*
X124416188Y-113965602D01*
X124411734Y-113976178D01*
X124403620Y-113984292D01*
X124123556Y-114660425D01*
X123839459Y-115334985D01*
X123839391Y-115346461D01*
X123835000Y-115357062D01*
X123835000Y-116088900D01*
X123830671Y-116820835D01*
X121135000Y-116820835D01*
X121135000Y-116111100D01*
X121139329Y-115379165D01*
X121135000Y-115368537D01*
X121135000Y-115357062D01*
X120854939Y-114680935D01*
X120578838Y-114003056D01*
X120566510Y-113984606D01*
X120566380Y-113984292D01*
X120566140Y-113984052D01*
X120553812Y-113965602D01*
X120531018Y-113948930D01*
X119551070Y-112968982D01*
X119534398Y-112946188D01*
X119523822Y-112941734D01*
X119515708Y-112933620D01*
X118839575Y-112653556D01*
X118165015Y-112369459D01*
X118153539Y-112369391D01*
X118142938Y-112365000D01*
X117411100Y-112365000D01*
X116679165Y-112360671D01*
X116668537Y-112365000D01*
X116657062Y-112365000D01*
X115980935Y-112645061D01*
X115303056Y-112921162D01*
X115284606Y-112933490D01*
X115284292Y-112933620D01*
X115284052Y-112933860D01*
X115265602Y-112946188D01*
X115248930Y-112968982D01*
X114268982Y-113948930D01*
X114246188Y-113965602D01*
X114241734Y-113976178D01*
X114233620Y-113984292D01*
X113953556Y-114660425D01*
X113669459Y-115334985D01*
X113669391Y-115346461D01*
X113665000Y-115357062D01*
X113665000Y-116088900D01*
X113660671Y-116820835D01*
X110985000Y-116820835D01*
X110985000Y-116101100D01*
X110989329Y-115369165D01*
X110985000Y-115358537D01*
X110985000Y-115347062D01*
X110704939Y-114670935D01*
X110428838Y-113993056D01*
X110416510Y-113974606D01*
X110416380Y-113974292D01*
X110416140Y-113974052D01*
X110403812Y-113955602D01*
X110381018Y-113938930D01*
X109401070Y-112958982D01*
X109384398Y-112936188D01*
X109373822Y-112931734D01*
X109365708Y-112923620D01*
X108689575Y-112643556D01*
X108015015Y-112359459D01*
X108003539Y-112359391D01*
X107992938Y-112355000D01*
X107261100Y-112355000D01*
X106529165Y-112350671D01*
X106518537Y-112355000D01*
X106507062Y-112355000D01*
X105830935Y-112635061D01*
X105153056Y-112911162D01*
X105134606Y-112923490D01*
X105134292Y-112923620D01*
X105134052Y-112923860D01*
X105115602Y-112936188D01*
X105098930Y-112958982D01*
X104118982Y-113938930D01*
X104096188Y-113955602D01*
X104091734Y-113966178D01*
X104083620Y-113974292D01*
X103803556Y-114650425D01*
X103519459Y-115324985D01*
X103519391Y-115336461D01*
X103515000Y-115347062D01*
X103515000Y-116078900D01*
X103510671Y-116810835D01*
X103060000Y-116810835D01*
X103060000Y-103920835D01*
X103510671Y-103920835D01*
X103515000Y-103931463D01*
X103515000Y-103942938D01*
X103795061Y-104619065D01*
X104071162Y-105296944D01*
X104083490Y-105315394D01*
X104083620Y-105315708D01*
X104083860Y-105315948D01*
X104096188Y-105334398D01*
X104118982Y-105351070D01*
X105098930Y-106331018D01*
X105115602Y-106353812D01*
X105126178Y-106358266D01*
X105134292Y-106366380D01*
X105810425Y-106646444D01*
X106484985Y-106930541D01*
X106496461Y-106930609D01*
X106507062Y-106935000D01*
X107238900Y-106935000D01*
X107970835Y-106939329D01*
X107981463Y-106935000D01*
X107992938Y-106935000D01*
X108669065Y-106654939D01*
X109346944Y-106378838D01*
X109365394Y-106366510D01*
X109365708Y-106366380D01*
X109365948Y-106366140D01*
X109384398Y-106353812D01*
X109401070Y-106331018D01*
X110381018Y-105351070D01*
X110403812Y-105334398D01*
X110408266Y-105323822D01*
X110416380Y-105315708D01*
X110696444Y-104639575D01*
X110980541Y-103965015D01*
X110980609Y-103953539D01*
X110985000Y-103942938D01*
X110985000Y-103920835D01*
X113670671Y-103920835D01*
X113675000Y-103931463D01*
X113675000Y-103942938D01*
X113955061Y-104619065D01*
X114231162Y-105296944D01*
X114243490Y-105315394D01*
X114243620Y-105315708D01*
X114243860Y-105315948D01*
X114256188Y-105334398D01*
X114278982Y-105351070D01*
X115258930Y-106331018D01*
X115275602Y-106353812D01*
X115286178Y-106358266D01*
X115294292Y-106366380D01*
X115970425Y-106646444D01*
X116644985Y-106930541D01*
X116656461Y-106930609D01*
X116667062Y-106935000D01*
X117398900Y-106935000D01*
X118130835Y-106939329D01*
X118141463Y-106935000D01*
X118152938Y-106935000D01*
X118829065Y-106654939D01*
X119506944Y-106378838D01*
X119525394Y-106366510D01*
X119525708Y-106366380D01*
X119525948Y-106366140D01*
X119544398Y-106353812D01*
X119561070Y-106331018D01*
X120541018Y-105351070D01*
X120563812Y-105334398D01*
X120568266Y-105323822D01*
X120576380Y-105315708D01*
X120856444Y-104639575D01*
X121140541Y-103965015D01*
X121140609Y-103953539D01*
X121145000Y-103942938D01*
X121145000Y-103920835D01*
X123840671Y-103920835D01*
X123845000Y-103931463D01*
X123845000Y-103942938D01*
X124125061Y-104619065D01*
X124401162Y-105296944D01*
X124413490Y-105315394D01*
X124413620Y-105315708D01*
X124413860Y-105315948D01*
X124426188Y-105334398D01*
X124448982Y-105351070D01*
X125428930Y-106331018D01*
X125445602Y-106353812D01*
X125456178Y-106358266D01*
X125464292Y-106366380D01*
X126140425Y-106646444D01*
X126814985Y-106930541D01*
X126826461Y-106930609D01*
X126837062Y-106935000D01*
X127568900Y-106935000D01*
X128300835Y-106939329D01*
X128311463Y-106935000D01*
X128322938Y-106935000D01*
X128999065Y-106654939D01*
X129676944Y-106378838D01*
X129695394Y-106366510D01*
X129695708Y-106366380D01*
X129695948Y-106366140D01*
X129714398Y-106353812D01*
X129731070Y-106331018D01*
X130711018Y-105351070D01*
X130733812Y-105334398D01*
X130738266Y-105323822D01*
X130746380Y-105315708D01*
X131026444Y-104639575D01*
X131310541Y-103965015D01*
X131310609Y-103953539D01*
X131315000Y-103942938D01*
X131315000Y-103920835D01*
X133980671Y-103920835D01*
X133985000Y-103931463D01*
X133985000Y-103942938D01*
X134265061Y-104619065D01*
X134541162Y-105296944D01*
X134553490Y-105315394D01*
X134553620Y-105315708D01*
X134553860Y-105315948D01*
X134566188Y-105334398D01*
X134588982Y-105351070D01*
X135568930Y-106331018D01*
X135585602Y-106353812D01*
X135596178Y-106358266D01*
X135604292Y-106366380D01*
X136280425Y-106646444D01*
X136954985Y-106930541D01*
X136966461Y-106930609D01*
X136977062Y-106935000D01*
X137708900Y-106935000D01*
X138440835Y-106939329D01*
X138451463Y-106935000D01*
X138462938Y-106935000D01*
X139139065Y-106654939D01*
X139816944Y-106378838D01*
X139835394Y-106366510D01*
X139835708Y-106366380D01*
X139835948Y-106366140D01*
X139854398Y-106353812D01*
X139871070Y-106331018D01*
X140851018Y-105351070D01*
X140873812Y-105334398D01*
X140878266Y-105323822D01*
X140886380Y-105315708D01*
X141166444Y-104639575D01*
X141450541Y-103965015D01*
X141450609Y-103953539D01*
X141455000Y-103942938D01*
X141455000Y-103920835D01*
X144130671Y-103920835D01*
X144135000Y-103931463D01*
X144135000Y-103942938D01*
X144415061Y-104619065D01*
X144691162Y-105296944D01*
X144703490Y-105315394D01*
X144703620Y-105315708D01*
X144703860Y-105315948D01*
X144716188Y-105334398D01*
X144738982Y-105351070D01*
X145718930Y-106331018D01*
X145735602Y-106353812D01*
X145746178Y-106358266D01*
X145754292Y-106366380D01*
X146430425Y-106646444D01*
X147104985Y-106930541D01*
X147116461Y-106930609D01*
X147127062Y-106935000D01*
X147858900Y-106935000D01*
X148590835Y-106939329D01*
X148601463Y-106935000D01*
X148612938Y-106935000D01*
X149289065Y-106654939D01*
X149966944Y-106378838D01*
X149985394Y-106366510D01*
X149985708Y-106366380D01*
X149985948Y-106366140D01*
X150004398Y-106353812D01*
X150021070Y-106331018D01*
X151001018Y-105351070D01*
X151023812Y-105334398D01*
X151028266Y-105323822D01*
X151036380Y-105315708D01*
X151316444Y-104639575D01*
X151600541Y-103965015D01*
X151600609Y-103953539D01*
X151605000Y-103942938D01*
X151605000Y-103920835D01*
X154300671Y-103920835D01*
X154305000Y-103931463D01*
X154305000Y-103942938D01*
X154585061Y-104619065D01*
X154861162Y-105296944D01*
X154873490Y-105315394D01*
X154873620Y-105315708D01*
X154873860Y-105315948D01*
X154886188Y-105334398D01*
X154908982Y-105351070D01*
X155888930Y-106331018D01*
X155905602Y-106353812D01*
X155916178Y-106358266D01*
X155924292Y-106366380D01*
X156600425Y-106646444D01*
X157274985Y-106930541D01*
X157286461Y-106930609D01*
X157297062Y-106935000D01*
X158028900Y-106935000D01*
X158760835Y-106939329D01*
X158771463Y-106935000D01*
X158782938Y-106935000D01*
X159459065Y-106654939D01*
X160136944Y-106378838D01*
X160155394Y-106366510D01*
X160155708Y-106366380D01*
X160155948Y-106366140D01*
X160174398Y-106353812D01*
X160191070Y-106331018D01*
X161171018Y-105351070D01*
X161193812Y-105334398D01*
X161198266Y-105323822D01*
X161206380Y-105315708D01*
X161486444Y-104639575D01*
X161770541Y-103965015D01*
X161770609Y-103953539D01*
X161775000Y-103942938D01*
X161775000Y-103910835D01*
X164460671Y-103910835D01*
X164465000Y-103921463D01*
X164465000Y-103932938D01*
X164745061Y-104609065D01*
X165021162Y-105286944D01*
X165033490Y-105305394D01*
X165033620Y-105305708D01*
X165033860Y-105305948D01*
X165046188Y-105324398D01*
X165068982Y-105341070D01*
X166048930Y-106321018D01*
X166065602Y-106343812D01*
X166076178Y-106348266D01*
X166084292Y-106356380D01*
X166760425Y-106636444D01*
X167434985Y-106920541D01*
X167446461Y-106920609D01*
X167457062Y-106925000D01*
X168188900Y-106925000D01*
X168920835Y-106929329D01*
X168931463Y-106925000D01*
X168942938Y-106925000D01*
X169619065Y-106644939D01*
X170296944Y-106368838D01*
X170315394Y-106356510D01*
X170315708Y-106356380D01*
X170315948Y-106356140D01*
X170334398Y-106343812D01*
X170351070Y-106321018D01*
X171331018Y-105341070D01*
X171353812Y-105324398D01*
X171358266Y-105313822D01*
X171366380Y-105305708D01*
X171646444Y-104629575D01*
X171930541Y-103955015D01*
X171930609Y-103943539D01*
X171935000Y-103932938D01*
X171935000Y-103920835D01*
X174620671Y-103920835D01*
X174625000Y-103931463D01*
X174625000Y-103942938D01*
X174905061Y-104619065D01*
X175181162Y-105296944D01*
X175193490Y-105315394D01*
X175193620Y-105315708D01*
X175193860Y-105315948D01*
X175206188Y-105334398D01*
X175228982Y-105351070D01*
X176208930Y-106331018D01*
X176225602Y-106353812D01*
X176236178Y-106358266D01*
X176244292Y-106366380D01*
X176920425Y-106646444D01*
X177594985Y-106930541D01*
X177606461Y-106930609D01*
X177617062Y-106935000D01*
X178348900Y-106935000D01*
X179080835Y-106939329D01*
X179091463Y-106935000D01*
X179102938Y-106935000D01*
X179779065Y-106654939D01*
X180456944Y-106378838D01*
X180475394Y-106366510D01*
X180475708Y-106366380D01*
X180475948Y-106366140D01*
X180494398Y-106353812D01*
X180511070Y-106331018D01*
X181491018Y-105351070D01*
X181513812Y-105334398D01*
X181518266Y-105323822D01*
X181526380Y-105315708D01*
X181806444Y-104639575D01*
X182090541Y-103965015D01*
X182090609Y-103953539D01*
X182095000Y-103942938D01*
X182095000Y-103211100D01*
X182099329Y-102479165D01*
X182095000Y-102468537D01*
X182095000Y-102457062D01*
X181814939Y-101780935D01*
X181538838Y-101103056D01*
X181526510Y-101084606D01*
X181526380Y-101084292D01*
X181526140Y-101084052D01*
X181513812Y-101065602D01*
X181491018Y-101048930D01*
X180511070Y-100068982D01*
X180494398Y-100046188D01*
X180483822Y-100041734D01*
X180475708Y-100033620D01*
X179799575Y-99753556D01*
X179125015Y-99469459D01*
X179113539Y-99469391D01*
X179102938Y-99465000D01*
X178371100Y-99465000D01*
X177639165Y-99460671D01*
X177628537Y-99465000D01*
X177617062Y-99465000D01*
X176940935Y-99745061D01*
X176263056Y-100021162D01*
X176244606Y-100033490D01*
X176244292Y-100033620D01*
X176244052Y-100033860D01*
X176225602Y-100046188D01*
X176208930Y-100068982D01*
X175228982Y-101048930D01*
X175206188Y-101065602D01*
X175201734Y-101076178D01*
X175193620Y-101084292D01*
X174913556Y-101760425D01*
X174629459Y-102434985D01*
X174629391Y-102446461D01*
X174625000Y-102457062D01*
X174625000Y-103188900D01*
X174620671Y-103920835D01*
X171935000Y-103920835D01*
X171935000Y-103201100D01*
X171939329Y-102469165D01*
X171935000Y-102458537D01*
X171935000Y-102447062D01*
X171654939Y-101770935D01*
X171378838Y-101093056D01*
X171366510Y-101074606D01*
X171366380Y-101074292D01*
X171366140Y-101074052D01*
X171353812Y-101055602D01*
X171331018Y-101038930D01*
X170351070Y-100058982D01*
X170334398Y-100036188D01*
X170323822Y-100031734D01*
X170315708Y-100023620D01*
X169639575Y-99743556D01*
X168965015Y-99459459D01*
X168953539Y-99459391D01*
X168942938Y-99455000D01*
X168211100Y-99455000D01*
X167479165Y-99450671D01*
X167468537Y-99455000D01*
X167457062Y-99455000D01*
X166780935Y-99735061D01*
X166103056Y-100011162D01*
X166084606Y-100023490D01*
X166084292Y-100023620D01*
X166084052Y-100023860D01*
X166065602Y-100036188D01*
X166048930Y-100058982D01*
X165068982Y-101038930D01*
X165046188Y-101055602D01*
X165041734Y-101066178D01*
X165033620Y-101074292D01*
X164753556Y-101750425D01*
X164469459Y-102424985D01*
X164469391Y-102436461D01*
X164465000Y-102447062D01*
X164465000Y-103178900D01*
X164460671Y-103910835D01*
X161775000Y-103910835D01*
X161775000Y-103211100D01*
X161779329Y-102479165D01*
X161775000Y-102468537D01*
X161775000Y-102457062D01*
X161494939Y-101780935D01*
X161218838Y-101103056D01*
X161206510Y-101084606D01*
X161206380Y-101084292D01*
X161206140Y-101084052D01*
X161193812Y-101065602D01*
X161171018Y-101048930D01*
X160191070Y-100068982D01*
X160174398Y-100046188D01*
X160163822Y-100041734D01*
X160155708Y-100033620D01*
X159479575Y-99753556D01*
X158805015Y-99469459D01*
X158793539Y-99469391D01*
X158782938Y-99465000D01*
X158051100Y-99465000D01*
X157319165Y-99460671D01*
X157308537Y-99465000D01*
X157297062Y-99465000D01*
X156620935Y-99745061D01*
X155943056Y-100021162D01*
X155924606Y-100033490D01*
X155924292Y-100033620D01*
X155924052Y-100033860D01*
X155905602Y-100046188D01*
X155888930Y-100068982D01*
X154908982Y-101048930D01*
X154886188Y-101065602D01*
X154881734Y-101076178D01*
X154873620Y-101084292D01*
X154593556Y-101760425D01*
X154309459Y-102434985D01*
X154309391Y-102446461D01*
X154305000Y-102457062D01*
X154305000Y-103188900D01*
X154300671Y-103920835D01*
X151605000Y-103920835D01*
X151605000Y-103211100D01*
X151609329Y-102479165D01*
X151605000Y-102468537D01*
X151605000Y-102457062D01*
X151324939Y-101780935D01*
X151048838Y-101103056D01*
X151036510Y-101084606D01*
X151036380Y-101084292D01*
X151036140Y-101084052D01*
X151023812Y-101065602D01*
X151001018Y-101048930D01*
X150021070Y-100068982D01*
X150004398Y-100046188D01*
X149993822Y-100041734D01*
X149985708Y-100033620D01*
X149309575Y-99753556D01*
X148635015Y-99469459D01*
X148623539Y-99469391D01*
X148612938Y-99465000D01*
X147881100Y-99465000D01*
X147149165Y-99460671D01*
X147138537Y-99465000D01*
X147127062Y-99465000D01*
X146450935Y-99745061D01*
X145773056Y-100021162D01*
X145754606Y-100033490D01*
X145754292Y-100033620D01*
X145754052Y-100033860D01*
X145735602Y-100046188D01*
X145718930Y-100068982D01*
X144738982Y-101048930D01*
X144716188Y-101065602D01*
X144711734Y-101076178D01*
X144703620Y-101084292D01*
X144423556Y-101760425D01*
X144139459Y-102434985D01*
X144139391Y-102446461D01*
X144135000Y-102457062D01*
X144135000Y-103188900D01*
X144130671Y-103920835D01*
X141455000Y-103920835D01*
X141455000Y-103211100D01*
X141459329Y-102479165D01*
X141455000Y-102468537D01*
X141455000Y-102457062D01*
X141174939Y-101780935D01*
X140898838Y-101103056D01*
X140886510Y-101084606D01*
X140886380Y-101084292D01*
X140886140Y-101084052D01*
X140873812Y-101065602D01*
X140851018Y-101048930D01*
X139871070Y-100068982D01*
X139854398Y-100046188D01*
X139843822Y-100041734D01*
X139835708Y-100033620D01*
X139159575Y-99753556D01*
X138485015Y-99469459D01*
X138473539Y-99469391D01*
X138462938Y-99465000D01*
X137731100Y-99465000D01*
X136999165Y-99460671D01*
X136988537Y-99465000D01*
X136977062Y-99465000D01*
X136300935Y-99745061D01*
X135623056Y-100021162D01*
X135604606Y-100033490D01*
X135604292Y-100033620D01*
X135604052Y-100033860D01*
X135585602Y-100046188D01*
X135568930Y-100068982D01*
X134588982Y-101048930D01*
X134566188Y-101065602D01*
X134561734Y-101076178D01*
X134553620Y-101084292D01*
X134273556Y-101760425D01*
X133989459Y-102434985D01*
X133989391Y-102446461D01*
X133985000Y-102457062D01*
X133985000Y-103188900D01*
X133980671Y-103920835D01*
X131315000Y-103920835D01*
X131315000Y-103211100D01*
X131319329Y-102479165D01*
X131315000Y-102468537D01*
X131315000Y-102457062D01*
X131034939Y-101780935D01*
X130758838Y-101103056D01*
X130746510Y-101084606D01*
X130746380Y-101084292D01*
X130746140Y-101084052D01*
X130733812Y-101065602D01*
X130711018Y-101048930D01*
X129731070Y-100068982D01*
X129714398Y-100046188D01*
X129703822Y-100041734D01*
X129695708Y-100033620D01*
X129019575Y-99753556D01*
X128345015Y-99469459D01*
X128333539Y-99469391D01*
X128322938Y-99465000D01*
X127591100Y-99465000D01*
X126859165Y-99460671D01*
X126848537Y-99465000D01*
X126837062Y-99465000D01*
X126160935Y-99745061D01*
X125483056Y-100021162D01*
X125464606Y-100033490D01*
X125464292Y-100033620D01*
X125464052Y-100033860D01*
X125445602Y-100046188D01*
X125428930Y-100068982D01*
X124448982Y-101048930D01*
X124426188Y-101065602D01*
X124421734Y-101076178D01*
X124413620Y-101084292D01*
X124133556Y-101760425D01*
X123849459Y-102434985D01*
X123849391Y-102446461D01*
X123845000Y-102457062D01*
X123845000Y-103188900D01*
X123840671Y-103920835D01*
X121145000Y-103920835D01*
X121145000Y-103211100D01*
X121149329Y-102479165D01*
X121145000Y-102468537D01*
X121145000Y-102457062D01*
X120864939Y-101780935D01*
X120588838Y-101103056D01*
X120576510Y-101084606D01*
X120576380Y-101084292D01*
X120576140Y-101084052D01*
X120563812Y-101065602D01*
X120541018Y-101048930D01*
X119561070Y-100068982D01*
X119544398Y-100046188D01*
X119533822Y-100041734D01*
X119525708Y-100033620D01*
X118849575Y-99753556D01*
X118175015Y-99469459D01*
X118163539Y-99469391D01*
X118152938Y-99465000D01*
X117421100Y-99465000D01*
X116689165Y-99460671D01*
X116678537Y-99465000D01*
X116667062Y-99465000D01*
X115990935Y-99745061D01*
X115313056Y-100021162D01*
X115294606Y-100033490D01*
X115294292Y-100033620D01*
X115294052Y-100033860D01*
X115275602Y-100046188D01*
X115258930Y-100068982D01*
X114278982Y-101048930D01*
X114256188Y-101065602D01*
X114251734Y-101076178D01*
X114243620Y-101084292D01*
X113963556Y-101760425D01*
X113679459Y-102434985D01*
X113679391Y-102446461D01*
X113675000Y-102457062D01*
X113675000Y-103188900D01*
X113670671Y-103920835D01*
X110985000Y-103920835D01*
X110985000Y-103211100D01*
X110989329Y-102479165D01*
X110985000Y-102468537D01*
X110985000Y-102457062D01*
X110704939Y-101780935D01*
X110428838Y-101103056D01*
X110416510Y-101084606D01*
X110416380Y-101084292D01*
X110416140Y-101084052D01*
X110403812Y-101065602D01*
X110381018Y-101048930D01*
X109401070Y-100068982D01*
X109384398Y-100046188D01*
X109373822Y-100041734D01*
X109365708Y-100033620D01*
X108689575Y-99753556D01*
X108015015Y-99469459D01*
X108003539Y-99469391D01*
X107992938Y-99465000D01*
X107261100Y-99465000D01*
X106529165Y-99460671D01*
X106518537Y-99465000D01*
X106507062Y-99465000D01*
X105830935Y-99745061D01*
X105153056Y-100021162D01*
X105134606Y-100033490D01*
X105134292Y-100033620D01*
X105134052Y-100033860D01*
X105115602Y-100046188D01*
X105098930Y-100068982D01*
X104118982Y-101048930D01*
X104096188Y-101065602D01*
X104091734Y-101076178D01*
X104083620Y-101084292D01*
X103803556Y-101760425D01*
X103519459Y-102434985D01*
X103519391Y-102446461D01*
X103515000Y-102457062D01*
X103515000Y-103188900D01*
X103510671Y-103920835D01*
X103060000Y-103920835D01*
X103060000Y-93030426D01*
X115108327Y-93030426D01*
X115115000Y-93467435D01*
X115115000Y-93904515D01*
X115121930Y-93921244D01*
X115122206Y-93939350D01*
X115443334Y-94714621D01*
X115452601Y-94719557D01*
X115462870Y-94744349D01*
X116105651Y-95387130D01*
X116130443Y-95397399D01*
X116135379Y-95406666D01*
X116541653Y-95567728D01*
X116945485Y-95735000D01*
X116963594Y-95735000D01*
X116980426Y-95741673D01*
X117417435Y-95735000D01*
X117854515Y-95735000D01*
X117871244Y-95728070D01*
X117889350Y-95727794D01*
X118664621Y-95406666D01*
X118669557Y-95397399D01*
X118694349Y-95387130D01*
X119337130Y-94744349D01*
X119347399Y-94719557D01*
X119356666Y-94714621D01*
X119517728Y-94308347D01*
X119685000Y-93904515D01*
X119685000Y-93886406D01*
X119691673Y-93869574D01*
X119685000Y-93432565D01*
X119685000Y-93030426D01*
X135428327Y-93030426D01*
X135435000Y-93467435D01*
X135435000Y-93904515D01*
X135441930Y-93921244D01*
X135442206Y-93939350D01*
X135763334Y-94714621D01*
X135772601Y-94719557D01*
X135782870Y-94744349D01*
X136425651Y-95387130D01*
X136450443Y-95397399D01*
X136455379Y-95406666D01*
X136861653Y-95567728D01*
X137265485Y-95735000D01*
X137283594Y-95735000D01*
X137300426Y-95741673D01*
X137737435Y-95735000D01*
X138174515Y-95735000D01*
X138191244Y-95728070D01*
X138209350Y-95727794D01*
X138984621Y-95406666D01*
X138989557Y-95397399D01*
X139014349Y-95387130D01*
X139657130Y-94744349D01*
X139667399Y-94719557D01*
X139676666Y-94714621D01*
X139837728Y-94308347D01*
X140005000Y-93904515D01*
X140005000Y-93886406D01*
X140011673Y-93869574D01*
X140005000Y-93432565D01*
X140005000Y-93030426D01*
X155738327Y-93030426D01*
X155745000Y-93467435D01*
X155745000Y-93904515D01*
X155751930Y-93921244D01*
X155752206Y-93939350D01*
X156073334Y-94714621D01*
X156082601Y-94719557D01*
X156092870Y-94744349D01*
X156735651Y-95387130D01*
X156760443Y-95397399D01*
X156765379Y-95406666D01*
X157171653Y-95567728D01*
X157575485Y-95735000D01*
X157593594Y-95735000D01*
X157610426Y-95741673D01*
X158047435Y-95735000D01*
X158484515Y-95735000D01*
X158501244Y-95728070D01*
X158519350Y-95727794D01*
X159294621Y-95406666D01*
X159299557Y-95397399D01*
X159324349Y-95387130D01*
X159967130Y-94744349D01*
X159977399Y-94719557D01*
X159986666Y-94714621D01*
X160147728Y-94308347D01*
X160315000Y-93904515D01*
X160315000Y-93886406D01*
X160321673Y-93869574D01*
X160315000Y-93432565D01*
X160315000Y-93030426D01*
X176058327Y-93030426D01*
X176065000Y-93467435D01*
X176065000Y-93904515D01*
X176071930Y-93921244D01*
X176072206Y-93939350D01*
X176393334Y-94714621D01*
X176402601Y-94719557D01*
X176412870Y-94744349D01*
X177055651Y-95387130D01*
X177080443Y-95397399D01*
X177085379Y-95406666D01*
X177491653Y-95567728D01*
X177895485Y-95735000D01*
X177913594Y-95735000D01*
X177930426Y-95741673D01*
X178367435Y-95735000D01*
X178804515Y-95735000D01*
X178821244Y-95728070D01*
X178839350Y-95727794D01*
X179614621Y-95406666D01*
X179619557Y-95397399D01*
X179644349Y-95387130D01*
X180287130Y-94744349D01*
X180297399Y-94719557D01*
X180306666Y-94714621D01*
X180467728Y-94308347D01*
X180635000Y-93904515D01*
X180635000Y-93886406D01*
X180641673Y-93869574D01*
X180635000Y-93432565D01*
X180635000Y-92995485D01*
X180628070Y-92978756D01*
X180627794Y-92960650D01*
X180306666Y-92185379D01*
X180297399Y-92180443D01*
X180287130Y-92155651D01*
X179644349Y-91512870D01*
X179619557Y-91502601D01*
X179614621Y-91493334D01*
X179208347Y-91332272D01*
X178804515Y-91165000D01*
X178786406Y-91165000D01*
X178769574Y-91158327D01*
X178332565Y-91165000D01*
X177895485Y-91165000D01*
X177878756Y-91171930D01*
X177860650Y-91172206D01*
X177085379Y-91493334D01*
X177080443Y-91502601D01*
X177055651Y-91512870D01*
X176412870Y-92155651D01*
X176402601Y-92180443D01*
X176393334Y-92185379D01*
X176232272Y-92591653D01*
X176065000Y-92995485D01*
X176065000Y-93013594D01*
X176058327Y-93030426D01*
X160315000Y-93030426D01*
X160315000Y-92995485D01*
X160308070Y-92978756D01*
X160307794Y-92960650D01*
X159986666Y-92185379D01*
X159977399Y-92180443D01*
X159967130Y-92155651D01*
X159324349Y-91512870D01*
X159299557Y-91502601D01*
X159294621Y-91493334D01*
X158888347Y-91332272D01*
X158484515Y-91165000D01*
X158466406Y-91165000D01*
X158449574Y-91158327D01*
X158012565Y-91165000D01*
X157575485Y-91165000D01*
X157558756Y-91171930D01*
X157540650Y-91172206D01*
X156765379Y-91493334D01*
X156760443Y-91502601D01*
X156735651Y-91512870D01*
X156092870Y-92155651D01*
X156082601Y-92180443D01*
X156073334Y-92185379D01*
X155912272Y-92591653D01*
X155745000Y-92995485D01*
X155745000Y-93013594D01*
X155738327Y-93030426D01*
X140005000Y-93030426D01*
X140005000Y-92995485D01*
X139998070Y-92978756D01*
X139997794Y-92960650D01*
X139676666Y-92185379D01*
X139667399Y-92180443D01*
X139657130Y-92155651D01*
X139014349Y-91512870D01*
X138989557Y-91502601D01*
X138984621Y-91493334D01*
X138578347Y-91332272D01*
X138174515Y-91165000D01*
X138156406Y-91165000D01*
X138139574Y-91158327D01*
X137702565Y-91165000D01*
X137265485Y-91165000D01*
X137248756Y-91171930D01*
X137230650Y-91172206D01*
X136455379Y-91493334D01*
X136450443Y-91502601D01*
X136425651Y-91512870D01*
X135782870Y-92155651D01*
X135772601Y-92180443D01*
X135763334Y-92185379D01*
X135602272Y-92591653D01*
X135435000Y-92995485D01*
X135435000Y-93013594D01*
X135428327Y-93030426D01*
X119685000Y-93030426D01*
X119685000Y-92995485D01*
X119678070Y-92978756D01*
X119677794Y-92960650D01*
X119356666Y-92185379D01*
X119347399Y-92180443D01*
X119337130Y-92155651D01*
X118694349Y-91512870D01*
X118669557Y-91502601D01*
X118664621Y-91493334D01*
X118258347Y-91332272D01*
X117854515Y-91165000D01*
X117836406Y-91165000D01*
X117819574Y-91158327D01*
X117382565Y-91165000D01*
X116945485Y-91165000D01*
X116928756Y-91171930D01*
X116910650Y-91172206D01*
X116135379Y-91493334D01*
X116130443Y-91502601D01*
X116105651Y-91512870D01*
X115462870Y-92155651D01*
X115452601Y-92180443D01*
X115443334Y-92185379D01*
X115282272Y-92591653D01*
X115115000Y-92995485D01*
X115115000Y-93013594D01*
X115108327Y-93030426D01*
X103060000Y-93030426D01*
X103060000Y-84750623D01*
X108106905Y-84750623D01*
X108115000Y-84770724D01*
X108115000Y-84792394D01*
X108429405Y-85551436D01*
X108736277Y-86313441D01*
X108759327Y-86347938D01*
X108759740Y-86348935D01*
X108760503Y-86349698D01*
X108783553Y-86384195D01*
X108834204Y-86423399D01*
X109876601Y-87465796D01*
X109915805Y-87516447D01*
X109935741Y-87524936D01*
X109951065Y-87540260D01*
X110710129Y-87854674D01*
X111465917Y-88176493D01*
X111487584Y-88176707D01*
X111507606Y-88185000D01*
X112329174Y-88185000D01*
X113150623Y-88193095D01*
X113170724Y-88185000D01*
X113192394Y-88185000D01*
X113951436Y-87870595D01*
X114713441Y-87563723D01*
X114747938Y-87540673D01*
X114748935Y-87540260D01*
X114749698Y-87539497D01*
X114784195Y-87516447D01*
X114823399Y-87465796D01*
X115865796Y-86423399D01*
X115916447Y-86384195D01*
X115924936Y-86364259D01*
X115940260Y-86348935D01*
X116254674Y-85589871D01*
X116576493Y-84834083D01*
X116576707Y-84812416D01*
X116585000Y-84792394D01*
X116585000Y-84740623D01*
X128436905Y-84740623D01*
X128445000Y-84760724D01*
X128445000Y-84782394D01*
X128759405Y-85541436D01*
X129066277Y-86303441D01*
X129089327Y-86337938D01*
X129089740Y-86338935D01*
X129090503Y-86339698D01*
X129113553Y-86374195D01*
X129164204Y-86413399D01*
X130206601Y-87455796D01*
X130245805Y-87506447D01*
X130265741Y-87514936D01*
X130281065Y-87530260D01*
X131040129Y-87844674D01*
X131795917Y-88166493D01*
X131817584Y-88166707D01*
X131837606Y-88175000D01*
X132659174Y-88175000D01*
X133480623Y-88183095D01*
X133500724Y-88175000D01*
X133522394Y-88175000D01*
X134281436Y-87860595D01*
X135043441Y-87553723D01*
X135077938Y-87530673D01*
X135078935Y-87530260D01*
X135079698Y-87529497D01*
X135114195Y-87506447D01*
X135153399Y-87455796D01*
X136195796Y-86413399D01*
X136246447Y-86374195D01*
X136254936Y-86354259D01*
X136270260Y-86338935D01*
X136584674Y-85579871D01*
X136906493Y-84824083D01*
X136906707Y-84802416D01*
X136915000Y-84782394D01*
X136915000Y-84740623D01*
X148746905Y-84740623D01*
X148755000Y-84760724D01*
X148755000Y-84782394D01*
X149069405Y-85541436D01*
X149376277Y-86303441D01*
X149399327Y-86337938D01*
X149399740Y-86338935D01*
X149400503Y-86339698D01*
X149423553Y-86374195D01*
X149474204Y-86413399D01*
X150516601Y-87455796D01*
X150555805Y-87506447D01*
X150575741Y-87514936D01*
X150591065Y-87530260D01*
X151350129Y-87844674D01*
X152105917Y-88166493D01*
X152127584Y-88166707D01*
X152147606Y-88175000D01*
X152969174Y-88175000D01*
X153790623Y-88183095D01*
X153810724Y-88175000D01*
X153832394Y-88175000D01*
X154591436Y-87860595D01*
X155353441Y-87553723D01*
X155387938Y-87530673D01*
X155388935Y-87530260D01*
X155389698Y-87529497D01*
X155424195Y-87506447D01*
X155463399Y-87455796D01*
X156505796Y-86413399D01*
X156556447Y-86374195D01*
X156564936Y-86354259D01*
X156580260Y-86338935D01*
X156894674Y-85579871D01*
X157216493Y-84824083D01*
X157216707Y-84802416D01*
X157225000Y-84782394D01*
X157225000Y-84740623D01*
X169056905Y-84740623D01*
X169065000Y-84760724D01*
X169065000Y-84782394D01*
X169379405Y-85541436D01*
X169686277Y-86303441D01*
X169709327Y-86337938D01*
X169709740Y-86338935D01*
X169710503Y-86339698D01*
X169733553Y-86374195D01*
X169784204Y-86413399D01*
X170826601Y-87455796D01*
X170865805Y-87506447D01*
X170885741Y-87514936D01*
X170901065Y-87530260D01*
X171660129Y-87844674D01*
X172415917Y-88166493D01*
X172437584Y-88166707D01*
X172457606Y-88175000D01*
X173279174Y-88175000D01*
X174100623Y-88183095D01*
X174120724Y-88175000D01*
X174142394Y-88175000D01*
X174901436Y-87860595D01*
X175663441Y-87553723D01*
X175697938Y-87530673D01*
X175698935Y-87530260D01*
X175699698Y-87529497D01*
X175734195Y-87506447D01*
X175773399Y-87455796D01*
X176815796Y-86413399D01*
X176866447Y-86374195D01*
X176874936Y-86354259D01*
X176890260Y-86338935D01*
X177204674Y-85579871D01*
X177526493Y-84824083D01*
X177526707Y-84802416D01*
X177535000Y-84782394D01*
X177535000Y-83960826D01*
X177543095Y-83139377D01*
X177535000Y-83119276D01*
X177535000Y-83097606D01*
X177220595Y-82338564D01*
X176913723Y-81576559D01*
X176890673Y-81542062D01*
X176890260Y-81541065D01*
X176889497Y-81540302D01*
X176866447Y-81505805D01*
X176815796Y-81466601D01*
X175773399Y-80424204D01*
X175734195Y-80373553D01*
X175714259Y-80365064D01*
X175698935Y-80349740D01*
X174939871Y-80035326D01*
X174184083Y-79713507D01*
X174162416Y-79713293D01*
X174142394Y-79705000D01*
X173320826Y-79705000D01*
X172499377Y-79696905D01*
X172479276Y-79705000D01*
X172457606Y-79705000D01*
X171698564Y-80019405D01*
X170936559Y-80326277D01*
X170902062Y-80349327D01*
X170901065Y-80349740D01*
X170900302Y-80350503D01*
X170865805Y-80373553D01*
X170826601Y-80424204D01*
X169784204Y-81466601D01*
X169733553Y-81505805D01*
X169725064Y-81525741D01*
X169709740Y-81541065D01*
X169395326Y-82300129D01*
X169073507Y-83055917D01*
X169073293Y-83077584D01*
X169065000Y-83097606D01*
X169065000Y-83919174D01*
X169056905Y-84740623D01*
X157225000Y-84740623D01*
X157225000Y-83960826D01*
X157233095Y-83139377D01*
X157225000Y-83119276D01*
X157225000Y-83097606D01*
X156910595Y-82338564D01*
X156603723Y-81576559D01*
X156580673Y-81542062D01*
X156580260Y-81541065D01*
X156579497Y-81540302D01*
X156556447Y-81505805D01*
X156505796Y-81466601D01*
X155463399Y-80424204D01*
X155424195Y-80373553D01*
X155404259Y-80365064D01*
X155388935Y-80349740D01*
X154629871Y-80035326D01*
X153874083Y-79713507D01*
X153852416Y-79713293D01*
X153832394Y-79705000D01*
X153010826Y-79705000D01*
X152189377Y-79696905D01*
X152169276Y-79705000D01*
X152147606Y-79705000D01*
X151388564Y-80019405D01*
X150626559Y-80326277D01*
X150592062Y-80349327D01*
X150591065Y-80349740D01*
X150590302Y-80350503D01*
X150555805Y-80373553D01*
X150516601Y-80424204D01*
X149474204Y-81466601D01*
X149423553Y-81505805D01*
X149415064Y-81525741D01*
X149399740Y-81541065D01*
X149085326Y-82300129D01*
X148763507Y-83055917D01*
X148763293Y-83077584D01*
X148755000Y-83097606D01*
X148755000Y-83919174D01*
X148746905Y-84740623D01*
X136915000Y-84740623D01*
X136915000Y-83960826D01*
X136923095Y-83139377D01*
X136915000Y-83119276D01*
X136915000Y-83097606D01*
X136600595Y-82338564D01*
X136293723Y-81576559D01*
X136270673Y-81542062D01*
X136270260Y-81541065D01*
X136269497Y-81540302D01*
X136246447Y-81505805D01*
X136195796Y-81466601D01*
X135153399Y-80424204D01*
X135114195Y-80373553D01*
X135094259Y-80365064D01*
X135078935Y-80349740D01*
X134319871Y-80035326D01*
X133564083Y-79713507D01*
X133542416Y-79713293D01*
X133522394Y-79705000D01*
X132700826Y-79705000D01*
X131879377Y-79696905D01*
X131859276Y-79705000D01*
X131837606Y-79705000D01*
X131078564Y-80019405D01*
X130316559Y-80326277D01*
X130282062Y-80349327D01*
X130281065Y-80349740D01*
X130280302Y-80350503D01*
X130245805Y-80373553D01*
X130206601Y-80424204D01*
X129164204Y-81466601D01*
X129113553Y-81505805D01*
X129105064Y-81525741D01*
X129089740Y-81541065D01*
X128775326Y-82300129D01*
X128453507Y-83055917D01*
X128453293Y-83077584D01*
X128445000Y-83097606D01*
X128445000Y-83919174D01*
X128436905Y-84740623D01*
X116585000Y-84740623D01*
X116585000Y-83970826D01*
X116593095Y-83149377D01*
X116585000Y-83129276D01*
X116585000Y-83107606D01*
X116270595Y-82348564D01*
X115963723Y-81586559D01*
X115940673Y-81552062D01*
X115940260Y-81551065D01*
X115939497Y-81550302D01*
X115916447Y-81515805D01*
X115865796Y-81476601D01*
X114823399Y-80434204D01*
X114784195Y-80383553D01*
X114764259Y-80375064D01*
X114748935Y-80359740D01*
X113989871Y-80045326D01*
X113234083Y-79723507D01*
X113212416Y-79723293D01*
X113192394Y-79715000D01*
X112370826Y-79715000D01*
X111549377Y-79706905D01*
X111529276Y-79715000D01*
X111507606Y-79715000D01*
X110748564Y-80029405D01*
X109986559Y-80336277D01*
X109952062Y-80359327D01*
X109951065Y-80359740D01*
X109950302Y-80360503D01*
X109915805Y-80383553D01*
X109876601Y-80434204D01*
X108834204Y-81476601D01*
X108783553Y-81515805D01*
X108775064Y-81535741D01*
X108759740Y-81551065D01*
X108445326Y-82310129D01*
X108123507Y-83065917D01*
X108123293Y-83087584D01*
X108115000Y-83107606D01*
X108115000Y-83929174D01*
X108106905Y-84750623D01*
X103060000Y-84750623D01*
X103060000Y-75740426D01*
X110168327Y-75740426D01*
X110175000Y-76177435D01*
X110175000Y-76614515D01*
X110181930Y-76631244D01*
X110182206Y-76649350D01*
X110503334Y-77424621D01*
X110512601Y-77429557D01*
X110522870Y-77454349D01*
X111165651Y-78097130D01*
X111190443Y-78107399D01*
X111195379Y-78116666D01*
X111601653Y-78277728D01*
X112005485Y-78445000D01*
X112023594Y-78445000D01*
X112040426Y-78451673D01*
X112477435Y-78445000D01*
X112914515Y-78445000D01*
X112931244Y-78438070D01*
X112949350Y-78437794D01*
X113724621Y-78116666D01*
X113729557Y-78107399D01*
X113754349Y-78097130D01*
X114397130Y-77454349D01*
X114407399Y-77429557D01*
X114416666Y-77424621D01*
X114577728Y-77018347D01*
X114745000Y-76614515D01*
X114745000Y-76596406D01*
X114751673Y-76579574D01*
X114745000Y-76142565D01*
X114745000Y-75705485D01*
X114742905Y-75700426D01*
X130278327Y-75700426D01*
X130285000Y-76137435D01*
X130285000Y-76574515D01*
X130291930Y-76591244D01*
X130292206Y-76609350D01*
X130613334Y-77384621D01*
X130622601Y-77389557D01*
X130632870Y-77414349D01*
X131275651Y-78057130D01*
X131300443Y-78067399D01*
X131305379Y-78076666D01*
X131711653Y-78237728D01*
X132115485Y-78405000D01*
X132133594Y-78405000D01*
X132150426Y-78411673D01*
X132587435Y-78405000D01*
X133024515Y-78405000D01*
X133041244Y-78398070D01*
X133059350Y-78397794D01*
X133834621Y-78076666D01*
X133839557Y-78067399D01*
X133864349Y-78057130D01*
X134507130Y-77414349D01*
X134517399Y-77389557D01*
X134526666Y-77384621D01*
X134687728Y-76978347D01*
X134855000Y-76574515D01*
X134855000Y-76556406D01*
X134861673Y-76539574D01*
X134855000Y-76102565D01*
X134855000Y-75730426D01*
X150628327Y-75730426D01*
X150635000Y-76167435D01*
X150635000Y-76604515D01*
X150641930Y-76621244D01*
X150642206Y-76639350D01*
X150963334Y-77414621D01*
X150972601Y-77419557D01*
X150982870Y-77444349D01*
X151625651Y-78087130D01*
X151650443Y-78097399D01*
X151655379Y-78106666D01*
X152061653Y-78267728D01*
X152465485Y-78435000D01*
X152483594Y-78435000D01*
X152500426Y-78441673D01*
X152937435Y-78435000D01*
X153374515Y-78435000D01*
X153391244Y-78428070D01*
X153409350Y-78427794D01*
X154184621Y-78106666D01*
X154189557Y-78097399D01*
X154214349Y-78087130D01*
X154857130Y-77444349D01*
X154867399Y-77419557D01*
X154876666Y-77414621D01*
X155037728Y-77008347D01*
X155205000Y-76604515D01*
X155205000Y-76586406D01*
X155211673Y-76569574D01*
X155205000Y-76132565D01*
X155205000Y-75700426D01*
X171038327Y-75700426D01*
X171045000Y-76137435D01*
X171045000Y-76574515D01*
X171051930Y-76591244D01*
X171052206Y-76609350D01*
X171373334Y-77384621D01*
X171382601Y-77389557D01*
X171392870Y-77414349D01*
X172035651Y-78057130D01*
X172060443Y-78067399D01*
X172065379Y-78076666D01*
X172471653Y-78237728D01*
X172875485Y-78405000D01*
X172893594Y-78405000D01*
X172910426Y-78411673D01*
X173347435Y-78405000D01*
X173784515Y-78405000D01*
X173801244Y-78398070D01*
X173819350Y-78397794D01*
X174594621Y-78076666D01*
X174599557Y-78067399D01*
X174624349Y-78057130D01*
X175267130Y-77414349D01*
X175277399Y-77389557D01*
X175286666Y-77384621D01*
X175447728Y-76978347D01*
X175615000Y-76574515D01*
X175615000Y-76556406D01*
X175621673Y-76539574D01*
X175615000Y-76102565D01*
X175615000Y-75665485D01*
X175608070Y-75648756D01*
X175607794Y-75630650D01*
X175286666Y-74855379D01*
X175277399Y-74850443D01*
X175267130Y-74825651D01*
X174624349Y-74182870D01*
X174599557Y-74172601D01*
X174594621Y-74163334D01*
X174188347Y-74002272D01*
X173784515Y-73835000D01*
X173766406Y-73835000D01*
X173749574Y-73828327D01*
X173312565Y-73835000D01*
X172875485Y-73835000D01*
X172858756Y-73841930D01*
X172840650Y-73842206D01*
X172065379Y-74163334D01*
X172060443Y-74172601D01*
X172035651Y-74182870D01*
X171392870Y-74825651D01*
X171382601Y-74850443D01*
X171373334Y-74855379D01*
X171212272Y-75261653D01*
X171045000Y-75665485D01*
X171045000Y-75683594D01*
X171038327Y-75700426D01*
X155205000Y-75700426D01*
X155205000Y-75695485D01*
X155198070Y-75678756D01*
X155197794Y-75660650D01*
X154876666Y-74885379D01*
X154867399Y-74880443D01*
X154857130Y-74855651D01*
X154214349Y-74212870D01*
X154189557Y-74202601D01*
X154184621Y-74193334D01*
X153778347Y-74032272D01*
X153374515Y-73865000D01*
X153356406Y-73865000D01*
X153339574Y-73858327D01*
X152902565Y-73865000D01*
X152465485Y-73865000D01*
X152448756Y-73871930D01*
X152430650Y-73872206D01*
X151655379Y-74193334D01*
X151650443Y-74202601D01*
X151625651Y-74212870D01*
X150982870Y-74855651D01*
X150972601Y-74880443D01*
X150963334Y-74885379D01*
X150802272Y-75291653D01*
X150635000Y-75695485D01*
X150635000Y-75713594D01*
X150628327Y-75730426D01*
X134855000Y-75730426D01*
X134855000Y-75665485D01*
X134848070Y-75648756D01*
X134847794Y-75630650D01*
X134526666Y-74855379D01*
X134517399Y-74850443D01*
X134507130Y-74825651D01*
X133864349Y-74182870D01*
X133839557Y-74172601D01*
X133834621Y-74163334D01*
X133428347Y-74002272D01*
X133024515Y-73835000D01*
X133006406Y-73835000D01*
X132989574Y-73828327D01*
X132552565Y-73835000D01*
X132115485Y-73835000D01*
X132098756Y-73841930D01*
X132080650Y-73842206D01*
X131305379Y-74163334D01*
X131300443Y-74172601D01*
X131275651Y-74182870D01*
X130632870Y-74825651D01*
X130622601Y-74850443D01*
X130613334Y-74855379D01*
X130452272Y-75261653D01*
X130285000Y-75665485D01*
X130285000Y-75683594D01*
X130278327Y-75700426D01*
X114742905Y-75700426D01*
X114738070Y-75688756D01*
X114737794Y-75670650D01*
X114416666Y-74895379D01*
X114407399Y-74890443D01*
X114397130Y-74865651D01*
X113754349Y-74222870D01*
X113729557Y-74212601D01*
X113724621Y-74203334D01*
X113318347Y-74042272D01*
X112914515Y-73875000D01*
X112896406Y-73875000D01*
X112879574Y-73868327D01*
X112442565Y-73875000D01*
X112005485Y-73875000D01*
X111988756Y-73881930D01*
X111970650Y-73882206D01*
X111195379Y-74203334D01*
X111190443Y-74212601D01*
X111165651Y-74222870D01*
X110522870Y-74865651D01*
X110512601Y-74890443D01*
X110503334Y-74895379D01*
X110342272Y-75301653D01*
X110175000Y-75705485D01*
X110175000Y-75723594D01*
X110168327Y-75740426D01*
X103060000Y-75740426D01*
X103060000Y-31025000D01*
X105326091Y-31025000D01*
X105340000Y-31094926D01*
X105340001Y-70930069D01*
X105326091Y-71000000D01*
X105381195Y-71277028D01*
X105538119Y-71511881D01*
X105772972Y-71668805D01*
X105980074Y-71710000D01*
X105980075Y-71710000D01*
X106050000Y-71723909D01*
X106119926Y-71710000D01*
X108980074Y-71710000D01*
X109050000Y-71723909D01*
X109119925Y-71710000D01*
X109119926Y-71710000D01*
X109327028Y-71668805D01*
X109561881Y-71511881D01*
X109718805Y-71277028D01*
X109756535Y-71087345D01*
X109760000Y-71069926D01*
X109760000Y-71069925D01*
X109773909Y-71000000D01*
X109760000Y-70930074D01*
X109760000Y-31094926D01*
X109773909Y-31025000D01*
X115401091Y-31025000D01*
X115415001Y-31094931D01*
X115415000Y-70905074D01*
X115401091Y-70975000D01*
X115456195Y-71252028D01*
X115613119Y-71486881D01*
X115810557Y-71618805D01*
X115847972Y-71643805D01*
X116125000Y-71698909D01*
X116194925Y-71685000D01*
X119055075Y-71685000D01*
X119125000Y-71698909D01*
X119402028Y-71643805D01*
X119636881Y-71486881D01*
X119793805Y-71252028D01*
X119835000Y-71044926D01*
X119835000Y-71044925D01*
X119848909Y-70975000D01*
X119835000Y-70905074D01*
X119835000Y-31094926D01*
X119848909Y-31025000D01*
X125476091Y-31025000D01*
X125490001Y-31094931D01*
X125490000Y-70905074D01*
X125476091Y-70975000D01*
X125531195Y-71252028D01*
X125688119Y-71486881D01*
X125885557Y-71618805D01*
X125922972Y-71643805D01*
X126200000Y-71698909D01*
X126269925Y-71685000D01*
X129130075Y-71685000D01*
X129200000Y-71698909D01*
X129477028Y-71643805D01*
X129711881Y-71486881D01*
X129868805Y-71252028D01*
X129910000Y-71044926D01*
X129910000Y-71044925D01*
X129923909Y-70975000D01*
X129910000Y-70905074D01*
X129910000Y-31094926D01*
X129923909Y-31025000D01*
X135551091Y-31025000D01*
X135565001Y-31094931D01*
X135565000Y-70905074D01*
X135551091Y-70975000D01*
X135606195Y-71252028D01*
X135763119Y-71486881D01*
X135960557Y-71618805D01*
X135997972Y-71643805D01*
X136275000Y-71698909D01*
X136344925Y-71685000D01*
X139205075Y-71685000D01*
X139275000Y-71698909D01*
X139552028Y-71643805D01*
X139786881Y-71486881D01*
X139943805Y-71252028D01*
X139985000Y-71044926D01*
X139985000Y-71044925D01*
X139998909Y-70975000D01*
X139985000Y-70905074D01*
X139985000Y-31094926D01*
X139998909Y-31025000D01*
X139993937Y-31000000D01*
X145626091Y-31000000D01*
X145640001Y-31069931D01*
X145640000Y-70905074D01*
X145626091Y-70975000D01*
X145681195Y-71252028D01*
X145838119Y-71486881D01*
X146035557Y-71618805D01*
X146072972Y-71643805D01*
X146350000Y-71698909D01*
X146419925Y-71685000D01*
X149280075Y-71685000D01*
X149350000Y-71698909D01*
X149627028Y-71643805D01*
X149861881Y-71486881D01*
X150018805Y-71252028D01*
X150060000Y-71044926D01*
X150060000Y-71044925D01*
X150073909Y-70975000D01*
X155701091Y-70975000D01*
X155756195Y-71252028D01*
X155913119Y-71486881D01*
X156110557Y-71618805D01*
X156147972Y-71643805D01*
X156425000Y-71698909D01*
X156494925Y-71685000D01*
X159355034Y-71685000D01*
X159424910Y-71698908D01*
X159494877Y-71685000D01*
X159494926Y-71685000D01*
X159569941Y-71670079D01*
X159701944Y-71643839D01*
X159701981Y-71643814D01*
X159702028Y-71643805D01*
X159823667Y-71562528D01*
X159936816Y-71486945D01*
X159936841Y-71486908D01*
X159936881Y-71486881D01*
X160018560Y-71364639D01*
X160093770Y-71252111D01*
X160093779Y-71252067D01*
X160093805Y-71252028D01*
X160121930Y-71110632D01*
X160134991Y-71045014D01*
X160134991Y-71044971D01*
X160148909Y-70975000D01*
X160135009Y-70905117D01*
X160139990Y-31119973D01*
X160153909Y-31050000D01*
X160143964Y-31000000D01*
X165776091Y-31000000D01*
X165790001Y-31069931D01*
X165790000Y-70905074D01*
X165776091Y-70975000D01*
X165831195Y-71252028D01*
X165988119Y-71486881D01*
X166185557Y-71618805D01*
X166222972Y-71643805D01*
X166500000Y-71698909D01*
X166569925Y-71685000D01*
X169405075Y-71685000D01*
X169475000Y-71698909D01*
X169752028Y-71643805D01*
X169986881Y-71486881D01*
X169988784Y-71484032D01*
X169991624Y-71482137D01*
X170148666Y-71247362D01*
X170189964Y-71040281D01*
X170189974Y-71019919D01*
X170198909Y-70975000D01*
X170190019Y-70930307D01*
X170209964Y-31070106D01*
X170223909Y-31000000D01*
X175826091Y-31000000D01*
X175840001Y-31069931D01*
X175840000Y-70905074D01*
X175826091Y-70975000D01*
X175881195Y-71252028D01*
X176038119Y-71486881D01*
X176235557Y-71618805D01*
X176272972Y-71643805D01*
X176550000Y-71698909D01*
X176619925Y-71685000D01*
X179619926Y-71685000D01*
X179827028Y-71643805D01*
X180061881Y-71486881D01*
X180218805Y-71252028D01*
X180273909Y-70975000D01*
X180260000Y-70905074D01*
X180260000Y-31069926D01*
X180273909Y-31000000D01*
X180218805Y-30722972D01*
X180061881Y-30488119D01*
X179827028Y-30331195D01*
X179619926Y-30290000D01*
X179619925Y-30290000D01*
X179550000Y-30276091D01*
X179480074Y-30290000D01*
X176480074Y-30290000D01*
X176272972Y-30331195D01*
X176038119Y-30488119D01*
X175881195Y-30722972D01*
X175826091Y-31000000D01*
X170223909Y-31000000D01*
X170196069Y-30860037D01*
X170168943Y-30723307D01*
X170168841Y-30723155D01*
X170168805Y-30722972D01*
X170089820Y-30604763D01*
X170012137Y-30488376D01*
X170011985Y-30488274D01*
X170011881Y-30488119D01*
X169893525Y-30409036D01*
X169777362Y-30331334D01*
X169777182Y-30331298D01*
X169777028Y-30331195D01*
X169637266Y-30303395D01*
X169500362Y-30276092D01*
X169430258Y-30290000D01*
X166569926Y-30290000D01*
X166500000Y-30276091D01*
X166430075Y-30290000D01*
X166430074Y-30290000D01*
X166222972Y-30331195D01*
X165988119Y-30488119D01*
X165831195Y-30722972D01*
X165776091Y-31000000D01*
X160143964Y-31000000D01*
X160124635Y-30902830D01*
X160098839Y-30773057D01*
X160098815Y-30773021D01*
X160098805Y-30772972D01*
X160016363Y-30649590D01*
X159941945Y-30538184D01*
X159941908Y-30538159D01*
X159941881Y-30538119D01*
X159816706Y-30454480D01*
X159707111Y-30381231D01*
X159707070Y-30381223D01*
X159707028Y-30381195D01*
X159558358Y-30351623D01*
X159430090Y-30326092D01*
X159360123Y-30340000D01*
X156494926Y-30340000D01*
X156425000Y-30326091D01*
X156147973Y-30381195D01*
X155913120Y-30538119D01*
X155756196Y-30772972D01*
X155715001Y-30980074D01*
X155715001Y-31005206D01*
X155706091Y-31050000D01*
X155715001Y-31094794D01*
X155715000Y-70905074D01*
X155701091Y-70975000D01*
X150073909Y-70975000D01*
X150060000Y-70905074D01*
X150060000Y-31069926D01*
X150073909Y-31000000D01*
X150018805Y-30722972D01*
X149861881Y-30488119D01*
X149627028Y-30331195D01*
X149419926Y-30290000D01*
X149419925Y-30290000D01*
X149350000Y-30276091D01*
X149280074Y-30290000D01*
X146280074Y-30290000D01*
X146072972Y-30331195D01*
X145838119Y-30488119D01*
X145681195Y-30722972D01*
X145626091Y-31000000D01*
X139993937Y-31000000D01*
X139982599Y-30943001D01*
X139943805Y-30747972D01*
X139927101Y-30722973D01*
X139786881Y-30513119D01*
X139552028Y-30356195D01*
X139344926Y-30315000D01*
X139344925Y-30315000D01*
X139275000Y-30301091D01*
X139205074Y-30315000D01*
X136344926Y-30315000D01*
X136275000Y-30301091D01*
X136205075Y-30315000D01*
X136205074Y-30315000D01*
X135997972Y-30356195D01*
X135763119Y-30513119D01*
X135606195Y-30747972D01*
X135551091Y-31025000D01*
X129923909Y-31025000D01*
X129907599Y-30943001D01*
X129868805Y-30747972D01*
X129852101Y-30722973D01*
X129711881Y-30513119D01*
X129477028Y-30356195D01*
X129269926Y-30315000D01*
X129269925Y-30315000D01*
X129200000Y-30301091D01*
X129130074Y-30315000D01*
X126269926Y-30315000D01*
X126200000Y-30301091D01*
X126130075Y-30315000D01*
X126130074Y-30315000D01*
X125922972Y-30356195D01*
X125688119Y-30513119D01*
X125531195Y-30747972D01*
X125476091Y-31025000D01*
X119848909Y-31025000D01*
X119832599Y-30943001D01*
X119793805Y-30747972D01*
X119777101Y-30722973D01*
X119636881Y-30513119D01*
X119402028Y-30356195D01*
X119194926Y-30315000D01*
X119194925Y-30315000D01*
X119125000Y-30301091D01*
X119055074Y-30315000D01*
X116194926Y-30315000D01*
X116125000Y-30301091D01*
X116055075Y-30315000D01*
X116055074Y-30315000D01*
X115847972Y-30356195D01*
X115613119Y-30513119D01*
X115456195Y-30747972D01*
X115401091Y-31025000D01*
X109773909Y-31025000D01*
X109757599Y-30943001D01*
X109718805Y-30747972D01*
X109561881Y-30513119D01*
X109327028Y-30356195D01*
X109050000Y-30301091D01*
X108980075Y-30315000D01*
X106119925Y-30315000D01*
X106050000Y-30301091D01*
X105980074Y-30315000D01*
X105772972Y-30356195D01*
X105538119Y-30513119D01*
X105381195Y-30747972D01*
X105326091Y-31025000D01*
X103060000Y-31025000D01*
X103060000Y-19910835D01*
X103610671Y-19910835D01*
X103615000Y-19921463D01*
X103615000Y-19932938D01*
X103895061Y-20609065D01*
X104171162Y-21286944D01*
X104183490Y-21305394D01*
X104183620Y-21305708D01*
X104183860Y-21305948D01*
X104196188Y-21324398D01*
X104218982Y-21341070D01*
X105198930Y-22321018D01*
X105215602Y-22343812D01*
X105226178Y-22348266D01*
X105234292Y-22356380D01*
X105910425Y-22636444D01*
X106584985Y-22920541D01*
X106596461Y-22920609D01*
X106607062Y-22925000D01*
X107338900Y-22925000D01*
X108070835Y-22929329D01*
X108081463Y-22925000D01*
X108092938Y-22925000D01*
X108769065Y-22644939D01*
X109446944Y-22368838D01*
X109465394Y-22356510D01*
X109465708Y-22356380D01*
X109465948Y-22356140D01*
X109484398Y-22343812D01*
X109501070Y-22321018D01*
X110481018Y-21341070D01*
X110503812Y-21324398D01*
X110508266Y-21313822D01*
X110516380Y-21305708D01*
X110796444Y-20629575D01*
X111061332Y-20000623D01*
X116356905Y-20000623D01*
X116365000Y-20020724D01*
X116365000Y-20042394D01*
X116679405Y-20801436D01*
X116986277Y-21563441D01*
X117009327Y-21597938D01*
X117009740Y-21598935D01*
X117010503Y-21599698D01*
X117033553Y-21634195D01*
X117084204Y-21673399D01*
X118126601Y-22715796D01*
X118165805Y-22766447D01*
X118185741Y-22774936D01*
X118201065Y-22790260D01*
X118960129Y-23104674D01*
X119715917Y-23426493D01*
X119737584Y-23426707D01*
X119757606Y-23435000D01*
X120579174Y-23435000D01*
X121400623Y-23443095D01*
X121420724Y-23435000D01*
X121442394Y-23435000D01*
X122201436Y-23120595D01*
X122963441Y-22813723D01*
X122997938Y-22790673D01*
X122998935Y-22790260D01*
X122999698Y-22789497D01*
X123034195Y-22766447D01*
X123073399Y-22715796D01*
X124115796Y-21673399D01*
X124166447Y-21634195D01*
X124174936Y-21614259D01*
X124190260Y-21598935D01*
X124504674Y-20839871D01*
X124826493Y-20084083D01*
X124826707Y-20062416D01*
X124835000Y-20042394D01*
X124835000Y-19990623D01*
X131126905Y-19990623D01*
X131135000Y-20010724D01*
X131135000Y-20032394D01*
X131449405Y-20791436D01*
X131756277Y-21553441D01*
X131779327Y-21587938D01*
X131779740Y-21588935D01*
X131780503Y-21589698D01*
X131803553Y-21624195D01*
X131854204Y-21663399D01*
X132896601Y-22705796D01*
X132935805Y-22756447D01*
X132955741Y-22764936D01*
X132971065Y-22780260D01*
X133730129Y-23094674D01*
X134485917Y-23416493D01*
X134507584Y-23416707D01*
X134527606Y-23425000D01*
X135349174Y-23425000D01*
X136170623Y-23433095D01*
X136190724Y-23425000D01*
X136212394Y-23425000D01*
X136971436Y-23110595D01*
X137733441Y-22803723D01*
X137767938Y-22780673D01*
X137768935Y-22780260D01*
X137769698Y-22779497D01*
X137804195Y-22756447D01*
X137843399Y-22705796D01*
X138885796Y-21663399D01*
X138936447Y-21624195D01*
X138944936Y-21604259D01*
X138960260Y-21588935D01*
X139274674Y-20829871D01*
X139596493Y-20074083D01*
X139596707Y-20052416D01*
X139605000Y-20032394D01*
X139605000Y-20000623D01*
X145936905Y-20000623D01*
X145945000Y-20020724D01*
X145945000Y-20042394D01*
X146259405Y-20801436D01*
X146566277Y-21563441D01*
X146589327Y-21597938D01*
X146589740Y-21598935D01*
X146590503Y-21599698D01*
X146613553Y-21634195D01*
X146664204Y-21673399D01*
X147706601Y-22715796D01*
X147745805Y-22766447D01*
X147765741Y-22774936D01*
X147781065Y-22790260D01*
X148540129Y-23104674D01*
X149295917Y-23426493D01*
X149317584Y-23426707D01*
X149337606Y-23435000D01*
X150159174Y-23435000D01*
X150980623Y-23443095D01*
X151000724Y-23435000D01*
X151022394Y-23435000D01*
X151781436Y-23120595D01*
X152543441Y-22813723D01*
X152577938Y-22790673D01*
X152578935Y-22790260D01*
X152579698Y-22789497D01*
X152614195Y-22766447D01*
X152653399Y-22715796D01*
X153695796Y-21673399D01*
X153746447Y-21634195D01*
X153754936Y-21614259D01*
X153770260Y-21598935D01*
X154084674Y-20839871D01*
X154406493Y-20084083D01*
X154406707Y-20062416D01*
X154415000Y-20042394D01*
X154415000Y-19990623D01*
X160706905Y-19990623D01*
X160715000Y-20010724D01*
X160715000Y-20032394D01*
X161029405Y-20791436D01*
X161336277Y-21553441D01*
X161359327Y-21587938D01*
X161359740Y-21588935D01*
X161360503Y-21589698D01*
X161383553Y-21624195D01*
X161434204Y-21663399D01*
X162476601Y-22705796D01*
X162515805Y-22756447D01*
X162535741Y-22764936D01*
X162551065Y-22780260D01*
X163310129Y-23094674D01*
X164065917Y-23416493D01*
X164087584Y-23416707D01*
X164107606Y-23425000D01*
X164929174Y-23425000D01*
X165750623Y-23433095D01*
X165770724Y-23425000D01*
X165792394Y-23425000D01*
X166551436Y-23110595D01*
X167313441Y-22803723D01*
X167347938Y-22780673D01*
X167348935Y-22780260D01*
X167349698Y-22779497D01*
X167384195Y-22756447D01*
X167423399Y-22705796D01*
X168465796Y-21663399D01*
X168516447Y-21624195D01*
X168524936Y-21604259D01*
X168540260Y-21588935D01*
X168854674Y-20829871D01*
X169176493Y-20074083D01*
X169176707Y-20052416D01*
X169185000Y-20032394D01*
X169185000Y-19920835D01*
X174460671Y-19920835D01*
X174465000Y-19931463D01*
X174465000Y-19942938D01*
X174745061Y-20619065D01*
X175021162Y-21296944D01*
X175033490Y-21315394D01*
X175033620Y-21315708D01*
X175033860Y-21315948D01*
X175046188Y-21334398D01*
X175068982Y-21351070D01*
X176048930Y-22331018D01*
X176065602Y-22353812D01*
X176076178Y-22358266D01*
X176084292Y-22366380D01*
X176760425Y-22646444D01*
X177434985Y-22930541D01*
X177446461Y-22930609D01*
X177457062Y-22935000D01*
X178188900Y-22935000D01*
X178920835Y-22939329D01*
X178931463Y-22935000D01*
X178942938Y-22935000D01*
X179619065Y-22654939D01*
X180296944Y-22378838D01*
X180315394Y-22366510D01*
X180315708Y-22366380D01*
X180315948Y-22366140D01*
X180334398Y-22353812D01*
X180351070Y-22331018D01*
X181331018Y-21351070D01*
X181353812Y-21334398D01*
X181358266Y-21323822D01*
X181366380Y-21315708D01*
X181646444Y-20639575D01*
X181930541Y-19965015D01*
X181930609Y-19953539D01*
X181935000Y-19942938D01*
X181935000Y-19211100D01*
X181939329Y-18479165D01*
X181935000Y-18468537D01*
X181935000Y-18457062D01*
X181654939Y-17780935D01*
X181378838Y-17103056D01*
X181366510Y-17084606D01*
X181366380Y-17084292D01*
X181366140Y-17084052D01*
X181353812Y-17065602D01*
X181331018Y-17048930D01*
X180351070Y-16068982D01*
X180334398Y-16046188D01*
X180323822Y-16041734D01*
X180315708Y-16033620D01*
X179639575Y-15753556D01*
X178965015Y-15469459D01*
X178953539Y-15469391D01*
X178942938Y-15465000D01*
X178211100Y-15465000D01*
X177479165Y-15460671D01*
X177468537Y-15465000D01*
X177457062Y-15465000D01*
X176780935Y-15745061D01*
X176103056Y-16021162D01*
X176084606Y-16033490D01*
X176084292Y-16033620D01*
X176084052Y-16033860D01*
X176065602Y-16046188D01*
X176048930Y-16068982D01*
X175068982Y-17048930D01*
X175046188Y-17065602D01*
X175041734Y-17076178D01*
X175033620Y-17084292D01*
X174753556Y-17760425D01*
X174469459Y-18434985D01*
X174469391Y-18446461D01*
X174465000Y-18457062D01*
X174465000Y-19188900D01*
X174460671Y-19920835D01*
X169185000Y-19920835D01*
X169185000Y-19210826D01*
X169193095Y-18389377D01*
X169185000Y-18369276D01*
X169185000Y-18347606D01*
X168870595Y-17588564D01*
X168563723Y-16826559D01*
X168540673Y-16792062D01*
X168540260Y-16791065D01*
X168539497Y-16790302D01*
X168516447Y-16755805D01*
X168465796Y-16716601D01*
X167423399Y-15674204D01*
X167384195Y-15623553D01*
X167364259Y-15615064D01*
X167348935Y-15599740D01*
X166589871Y-15285326D01*
X165834083Y-14963507D01*
X165812416Y-14963293D01*
X165792394Y-14955000D01*
X164970826Y-14955000D01*
X164149377Y-14946905D01*
X164129276Y-14955000D01*
X164107606Y-14955000D01*
X163348564Y-15269405D01*
X162586559Y-15576277D01*
X162552062Y-15599327D01*
X162551065Y-15599740D01*
X162550302Y-15600503D01*
X162515805Y-15623553D01*
X162476601Y-15674204D01*
X161434204Y-16716601D01*
X161383553Y-16755805D01*
X161375064Y-16775741D01*
X161359740Y-16791065D01*
X161045326Y-17550129D01*
X160723507Y-18305917D01*
X160723293Y-18327584D01*
X160715000Y-18347606D01*
X160715000Y-19169174D01*
X160706905Y-19990623D01*
X154415000Y-19990623D01*
X154415000Y-19220826D01*
X154423095Y-18399377D01*
X154415000Y-18379276D01*
X154415000Y-18357606D01*
X154100595Y-17598564D01*
X153793723Y-16836559D01*
X153770673Y-16802062D01*
X153770260Y-16801065D01*
X153769497Y-16800302D01*
X153746447Y-16765805D01*
X153695796Y-16726601D01*
X152653399Y-15684204D01*
X152614195Y-15633553D01*
X152594259Y-15625064D01*
X152578935Y-15609740D01*
X151819871Y-15295326D01*
X151064083Y-14973507D01*
X151042416Y-14973293D01*
X151022394Y-14965000D01*
X150200826Y-14965000D01*
X149379377Y-14956905D01*
X149359276Y-14965000D01*
X149337606Y-14965000D01*
X148578564Y-15279405D01*
X147816559Y-15586277D01*
X147782062Y-15609327D01*
X147781065Y-15609740D01*
X147780302Y-15610503D01*
X147745805Y-15633553D01*
X147706601Y-15684204D01*
X146664204Y-16726601D01*
X146613553Y-16765805D01*
X146605064Y-16785741D01*
X146589740Y-16801065D01*
X146275326Y-17560129D01*
X145953507Y-18315917D01*
X145953293Y-18337584D01*
X145945000Y-18357606D01*
X145945000Y-19179174D01*
X145936905Y-20000623D01*
X139605000Y-20000623D01*
X139605000Y-19210826D01*
X139613095Y-18389377D01*
X139605000Y-18369276D01*
X139605000Y-18347606D01*
X139290595Y-17588564D01*
X138983723Y-16826559D01*
X138960673Y-16792062D01*
X138960260Y-16791065D01*
X138959497Y-16790302D01*
X138936447Y-16755805D01*
X138885796Y-16716601D01*
X137843399Y-15674204D01*
X137804195Y-15623553D01*
X137784259Y-15615064D01*
X137768935Y-15599740D01*
X137009871Y-15285326D01*
X136254083Y-14963507D01*
X136232416Y-14963293D01*
X136212394Y-14955000D01*
X135390826Y-14955000D01*
X134569377Y-14946905D01*
X134549276Y-14955000D01*
X134527606Y-14955000D01*
X133768564Y-15269405D01*
X133006559Y-15576277D01*
X132972062Y-15599327D01*
X132971065Y-15599740D01*
X132970302Y-15600503D01*
X132935805Y-15623553D01*
X132896601Y-15674204D01*
X131854204Y-16716601D01*
X131803553Y-16755805D01*
X131795064Y-16775741D01*
X131779740Y-16791065D01*
X131465326Y-17550129D01*
X131143507Y-18305917D01*
X131143293Y-18327584D01*
X131135000Y-18347606D01*
X131135000Y-19169174D01*
X131126905Y-19990623D01*
X124835000Y-19990623D01*
X124835000Y-19220826D01*
X124843095Y-18399377D01*
X124835000Y-18379276D01*
X124835000Y-18357606D01*
X124520595Y-17598564D01*
X124213723Y-16836559D01*
X124190673Y-16802062D01*
X124190260Y-16801065D01*
X124189497Y-16800302D01*
X124166447Y-16765805D01*
X124115796Y-16726601D01*
X123073399Y-15684204D01*
X123034195Y-15633553D01*
X123014259Y-15625064D01*
X122998935Y-15609740D01*
X122239871Y-15295326D01*
X121484083Y-14973507D01*
X121462416Y-14973293D01*
X121442394Y-14965000D01*
X120620826Y-14965000D01*
X119799377Y-14956905D01*
X119779276Y-14965000D01*
X119757606Y-14965000D01*
X118998564Y-15279405D01*
X118236559Y-15586277D01*
X118202062Y-15609327D01*
X118201065Y-15609740D01*
X118200302Y-15610503D01*
X118165805Y-15633553D01*
X118126601Y-15684204D01*
X117084204Y-16726601D01*
X117033553Y-16765805D01*
X117025064Y-16785741D01*
X117009740Y-16801065D01*
X116695326Y-17560129D01*
X116373507Y-18315917D01*
X116373293Y-18337584D01*
X116365000Y-18357606D01*
X116365000Y-19179174D01*
X116356905Y-20000623D01*
X111061332Y-20000623D01*
X111080541Y-19955015D01*
X111080609Y-19943539D01*
X111085000Y-19932938D01*
X111085000Y-19201100D01*
X111089329Y-18469165D01*
X111085000Y-18458537D01*
X111085000Y-18447062D01*
X110804939Y-17770935D01*
X110528838Y-17093056D01*
X110516510Y-17074606D01*
X110516380Y-17074292D01*
X110516140Y-17074052D01*
X110503812Y-17055602D01*
X110481018Y-17038930D01*
X109501070Y-16058982D01*
X109484398Y-16036188D01*
X109473822Y-16031734D01*
X109465708Y-16023620D01*
X108789575Y-15743556D01*
X108115015Y-15459459D01*
X108103539Y-15459391D01*
X108092938Y-15455000D01*
X107361100Y-15455000D01*
X106629165Y-15450671D01*
X106618537Y-15455000D01*
X106607062Y-15455000D01*
X105930935Y-15735061D01*
X105253056Y-16011162D01*
X105234606Y-16023490D01*
X105234292Y-16023620D01*
X105234052Y-16023860D01*
X105215602Y-16036188D01*
X105198930Y-16058982D01*
X104218982Y-17038930D01*
X104196188Y-17055602D01*
X104191734Y-17066178D01*
X104183620Y-17074292D01*
X103903556Y-17750425D01*
X103619459Y-18424985D01*
X103619391Y-18436461D01*
X103615000Y-18447062D01*
X103615000Y-19178900D01*
X103610671Y-19910835D01*
X103060000Y-19910835D01*
X103060000Y-4160000D01*
X110160011Y-4160000D01*
X109832565Y-4165000D01*
M02*
