%TF.GenerationSoftware,KiCad,Pcbnew,(5.0.1)-3*%
%TF.CreationDate,2020-04-13T19:58:09+01:00*%
%TF.ProjectId,panel,70616E656C2E6B696361645F70636200,rev?*%
%TF.SameCoordinates,Original*%
%TF.FileFunction,Soldermask,Bot*%
%TF.FilePolarity,Negative*%
%FSLAX46Y46*%
G04 Gerber Fmt 4.6, Leading zero omitted, Abs format (unit mm)*
G04 Created by KiCad (PCBNEW (5.0.1)-3) date 13/04/2020 19:58:09*
%MOMM*%
%LPD*%
G01*
G04 APERTURE LIST*
%ADD10C,0.400000*%
G04 APERTURE END LIST*
D10*
G36*
X176396160Y-127314368D02*
X176396162Y-127314369D01*
X176396163Y-127314369D01*
X176510514Y-127361735D01*
X176705726Y-127442594D01*
X176984327Y-127628749D01*
X177221251Y-127865673D01*
X177407406Y-128144274D01*
X177535632Y-128453840D01*
X177601000Y-128782465D01*
X177601000Y-129117535D01*
X177535632Y-129446160D01*
X177407406Y-129755726D01*
X177221251Y-130034327D01*
X176984327Y-130271251D01*
X176705726Y-130457406D01*
X176510514Y-130538265D01*
X176396163Y-130585631D01*
X176396162Y-130585631D01*
X176396160Y-130585632D01*
X176067535Y-130651000D01*
X175732465Y-130651000D01*
X175403840Y-130585632D01*
X175403838Y-130585631D01*
X175403837Y-130585631D01*
X175289486Y-130538265D01*
X175094274Y-130457406D01*
X174815673Y-130271251D01*
X174578749Y-130034327D01*
X174392594Y-129755726D01*
X174264368Y-129446160D01*
X174199000Y-129117535D01*
X174199000Y-128782465D01*
X174264368Y-128453840D01*
X174392594Y-128144274D01*
X174578749Y-127865673D01*
X174815673Y-127628749D01*
X175094274Y-127442594D01*
X175289486Y-127361735D01*
X175403837Y-127314369D01*
X175403838Y-127314369D01*
X175403840Y-127314368D01*
X175732465Y-127249000D01*
X176067535Y-127249000D01*
X176396160Y-127314368D01*
X176396160Y-127314368D01*
G37*
G36*
X110346160Y-127314368D02*
X110346162Y-127314369D01*
X110346163Y-127314369D01*
X110460514Y-127361735D01*
X110655726Y-127442594D01*
X110934327Y-127628749D01*
X111171251Y-127865673D01*
X111357406Y-128144274D01*
X111485632Y-128453840D01*
X111551000Y-128782465D01*
X111551000Y-129117535D01*
X111485632Y-129446160D01*
X111357406Y-129755726D01*
X111171251Y-130034327D01*
X110934327Y-130271251D01*
X110655726Y-130457406D01*
X110460514Y-130538265D01*
X110346163Y-130585631D01*
X110346162Y-130585631D01*
X110346160Y-130585632D01*
X110017535Y-130651000D01*
X109682465Y-130651000D01*
X109353840Y-130585632D01*
X109353838Y-130585631D01*
X109353837Y-130585631D01*
X109239486Y-130538265D01*
X109044274Y-130457406D01*
X108765673Y-130271251D01*
X108528749Y-130034327D01*
X108342594Y-129755726D01*
X108214368Y-129446160D01*
X108149000Y-129117535D01*
X108149000Y-128782465D01*
X108214368Y-128453840D01*
X108342594Y-128144274D01*
X108528749Y-127865673D01*
X108765673Y-127628749D01*
X109044274Y-127442594D01*
X109239486Y-127361735D01*
X109353837Y-127314369D01*
X109353838Y-127314369D01*
X109353840Y-127314368D01*
X109682465Y-127249000D01*
X110017535Y-127249000D01*
X110346160Y-127314368D01*
X110346160Y-127314368D01*
G37*
G36*
X179066191Y-113029727D02*
X179269113Y-113070091D01*
X179842558Y-113307620D01*
X180343679Y-113642459D01*
X180358648Y-113652461D01*
X180797539Y-114091352D01*
X180797541Y-114091355D01*
X181142380Y-114607442D01*
X181375767Y-115170888D01*
X181379909Y-115180888D01*
X181499011Y-115779652D01*
X181501000Y-115789654D01*
X181501000Y-116410346D01*
X181379909Y-117019113D01*
X181142380Y-117592558D01*
X180804223Y-118098645D01*
X180797539Y-118108648D01*
X180358648Y-118547539D01*
X180358645Y-118547541D01*
X179842558Y-118892380D01*
X179269113Y-119129909D01*
X179066191Y-119170273D01*
X178660348Y-119251000D01*
X178039652Y-119251000D01*
X177633809Y-119170273D01*
X177430887Y-119129909D01*
X176857442Y-118892380D01*
X176341355Y-118547541D01*
X176341352Y-118547539D01*
X175902461Y-118108648D01*
X175895777Y-118098645D01*
X175557620Y-117592558D01*
X175320091Y-117019113D01*
X175199000Y-116410346D01*
X175199000Y-115789654D01*
X175200990Y-115779652D01*
X175320091Y-115180888D01*
X175324233Y-115170888D01*
X175557620Y-114607442D01*
X175902459Y-114091355D01*
X175902461Y-114091352D01*
X176341352Y-113652461D01*
X176356321Y-113642459D01*
X176857442Y-113307620D01*
X177430887Y-113070091D01*
X177633809Y-113029727D01*
X178039652Y-112949000D01*
X178660348Y-112949000D01*
X179066191Y-113029727D01*
X179066191Y-113029727D01*
G37*
G36*
X138436191Y-113029727D02*
X138639113Y-113070091D01*
X139212558Y-113307620D01*
X139713679Y-113642459D01*
X139728648Y-113652461D01*
X140167539Y-114091352D01*
X140167541Y-114091355D01*
X140512380Y-114607442D01*
X140745767Y-115170888D01*
X140749909Y-115180888D01*
X140869011Y-115779652D01*
X140871000Y-115789654D01*
X140871000Y-116410346D01*
X140749909Y-117019113D01*
X140512380Y-117592558D01*
X140174223Y-118098645D01*
X140167539Y-118108648D01*
X139728648Y-118547539D01*
X139728645Y-118547541D01*
X139212558Y-118892380D01*
X138639113Y-119129909D01*
X138436191Y-119170273D01*
X138030348Y-119251000D01*
X137409652Y-119251000D01*
X137003809Y-119170273D01*
X136800887Y-119129909D01*
X136227442Y-118892380D01*
X135711355Y-118547541D01*
X135711352Y-118547539D01*
X135272461Y-118108648D01*
X135265777Y-118098645D01*
X134927620Y-117592558D01*
X134690091Y-117019113D01*
X134569000Y-116410346D01*
X134569000Y-115789654D01*
X134570990Y-115779652D01*
X134690091Y-115180888D01*
X134694233Y-115170888D01*
X134927620Y-114607442D01*
X135272459Y-114091355D01*
X135272461Y-114091352D01*
X135711352Y-113652461D01*
X135726321Y-113642459D01*
X136227442Y-113307620D01*
X136800887Y-113070091D01*
X137003809Y-113029727D01*
X137409652Y-112949000D01*
X138030348Y-112949000D01*
X138436191Y-113029727D01*
X138436191Y-113029727D01*
G37*
G36*
X118116191Y-113029727D02*
X118319113Y-113070091D01*
X118892558Y-113307620D01*
X119393679Y-113642459D01*
X119408648Y-113652461D01*
X119847539Y-114091352D01*
X119847541Y-114091355D01*
X120192380Y-114607442D01*
X120425767Y-115170888D01*
X120429909Y-115180888D01*
X120549011Y-115779652D01*
X120551000Y-115789654D01*
X120551000Y-116410346D01*
X120429909Y-117019113D01*
X120192380Y-117592558D01*
X119854223Y-118098645D01*
X119847539Y-118108648D01*
X119408648Y-118547539D01*
X119408645Y-118547541D01*
X118892558Y-118892380D01*
X118319113Y-119129909D01*
X118116191Y-119170273D01*
X117710348Y-119251000D01*
X117089652Y-119251000D01*
X116683809Y-119170273D01*
X116480887Y-119129909D01*
X115907442Y-118892380D01*
X115391355Y-118547541D01*
X115391352Y-118547539D01*
X114952461Y-118108648D01*
X114945777Y-118098645D01*
X114607620Y-117592558D01*
X114370091Y-117019113D01*
X114249000Y-116410346D01*
X114249000Y-115789654D01*
X114250990Y-115779652D01*
X114370091Y-115180888D01*
X114374233Y-115170888D01*
X114607620Y-114607442D01*
X114952459Y-114091355D01*
X114952461Y-114091352D01*
X115391352Y-113652461D01*
X115406321Y-113642459D01*
X115907442Y-113307620D01*
X116480887Y-113070091D01*
X116683809Y-113029727D01*
X117089652Y-112949000D01*
X117710348Y-112949000D01*
X118116191Y-113029727D01*
X118116191Y-113029727D01*
G37*
G36*
X158746191Y-113029727D02*
X158949113Y-113070091D01*
X159522558Y-113307620D01*
X160023679Y-113642459D01*
X160038648Y-113652461D01*
X160477539Y-114091352D01*
X160477541Y-114091355D01*
X160822380Y-114607442D01*
X161055767Y-115170888D01*
X161059909Y-115180888D01*
X161179011Y-115779652D01*
X161181000Y-115789654D01*
X161181000Y-116410346D01*
X161059909Y-117019113D01*
X160822380Y-117592558D01*
X160484223Y-118098645D01*
X160477539Y-118108648D01*
X160038648Y-118547539D01*
X160038645Y-118547541D01*
X159522558Y-118892380D01*
X158949113Y-119129909D01*
X158746191Y-119170273D01*
X158340348Y-119251000D01*
X157719652Y-119251000D01*
X157313809Y-119170273D01*
X157110887Y-119129909D01*
X156537442Y-118892380D01*
X156021355Y-118547541D01*
X156021352Y-118547539D01*
X155582461Y-118108648D01*
X155575777Y-118098645D01*
X155237620Y-117592558D01*
X155000091Y-117019113D01*
X154879000Y-116410346D01*
X154879000Y-115789654D01*
X154880990Y-115779652D01*
X155000091Y-115180888D01*
X155004233Y-115170888D01*
X155237620Y-114607442D01*
X155582459Y-114091355D01*
X155582461Y-114091352D01*
X156021352Y-113652461D01*
X156036321Y-113642459D01*
X156537442Y-113307620D01*
X157110887Y-113070091D01*
X157313809Y-113029727D01*
X157719652Y-112949000D01*
X158340348Y-112949000D01*
X158746191Y-113029727D01*
X158746191Y-113029727D01*
G37*
G36*
X128286191Y-113029727D02*
X128489113Y-113070091D01*
X129062558Y-113307620D01*
X129563679Y-113642459D01*
X129578648Y-113652461D01*
X130017539Y-114091352D01*
X130017541Y-114091355D01*
X130362380Y-114607442D01*
X130595767Y-115170888D01*
X130599909Y-115180888D01*
X130719011Y-115779652D01*
X130721000Y-115789654D01*
X130721000Y-116410346D01*
X130599909Y-117019113D01*
X130362380Y-117592558D01*
X130024223Y-118098645D01*
X130017539Y-118108648D01*
X129578648Y-118547539D01*
X129578645Y-118547541D01*
X129062558Y-118892380D01*
X128489113Y-119129909D01*
X128286191Y-119170273D01*
X127880348Y-119251000D01*
X127259652Y-119251000D01*
X126853809Y-119170273D01*
X126650887Y-119129909D01*
X126077442Y-118892380D01*
X125561355Y-118547541D01*
X125561352Y-118547539D01*
X125122461Y-118108648D01*
X125115777Y-118098645D01*
X124777620Y-117592558D01*
X124540091Y-117019113D01*
X124419000Y-116410346D01*
X124419000Y-115789654D01*
X124420990Y-115779652D01*
X124540091Y-115180888D01*
X124544233Y-115170888D01*
X124777620Y-114607442D01*
X125122459Y-114091355D01*
X125122461Y-114091352D01*
X125561352Y-113652461D01*
X125576321Y-113642459D01*
X126077442Y-113307620D01*
X126650887Y-113070091D01*
X126853809Y-113029727D01*
X127259652Y-112949000D01*
X127880348Y-112949000D01*
X128286191Y-113029727D01*
X128286191Y-113029727D01*
G37*
G36*
X148596191Y-113019727D02*
X148799113Y-113060091D01*
X149372558Y-113297620D01*
X149885165Y-113640134D01*
X149888648Y-113642461D01*
X150327539Y-114081352D01*
X150327541Y-114081355D01*
X150672380Y-114597442D01*
X150909909Y-115170887D01*
X150909909Y-115170888D01*
X151031000Y-115779652D01*
X151031000Y-116400348D01*
X150950273Y-116806191D01*
X150909909Y-117009113D01*
X150672380Y-117582558D01*
X150665698Y-117592558D01*
X150327539Y-118098648D01*
X149888648Y-118537539D01*
X149888645Y-118537541D01*
X149372558Y-118882380D01*
X148799113Y-119119909D01*
X148748839Y-119129909D01*
X148190348Y-119241000D01*
X147569652Y-119241000D01*
X147011161Y-119129909D01*
X146960887Y-119119909D01*
X146387442Y-118882380D01*
X145871355Y-118537541D01*
X145871352Y-118537539D01*
X145432461Y-118098648D01*
X145094302Y-117592558D01*
X145087620Y-117582558D01*
X144850091Y-117009113D01*
X144809727Y-116806191D01*
X144729000Y-116400348D01*
X144729000Y-115779652D01*
X144850091Y-115170888D01*
X144850091Y-115170887D01*
X145087620Y-114597442D01*
X145432459Y-114081355D01*
X145432461Y-114081352D01*
X145871352Y-113642461D01*
X145874835Y-113640134D01*
X146387442Y-113297620D01*
X146960887Y-113060091D01*
X147163809Y-113019727D01*
X147569652Y-112939000D01*
X148190348Y-112939000D01*
X148596191Y-113019727D01*
X148596191Y-113019727D01*
G37*
G36*
X107966191Y-113019727D02*
X108169113Y-113060091D01*
X108742558Y-113297620D01*
X109255165Y-113640134D01*
X109258648Y-113642461D01*
X109697539Y-114081352D01*
X109697541Y-114081355D01*
X110042380Y-114597442D01*
X110279909Y-115170887D01*
X110279909Y-115170888D01*
X110401000Y-115779652D01*
X110401000Y-116400348D01*
X110320273Y-116806191D01*
X110279909Y-117009113D01*
X110042380Y-117582558D01*
X110035698Y-117592558D01*
X109697539Y-118098648D01*
X109258648Y-118537539D01*
X109258645Y-118537541D01*
X108742558Y-118882380D01*
X108169113Y-119119909D01*
X108118839Y-119129909D01*
X107560348Y-119241000D01*
X106939652Y-119241000D01*
X106381161Y-119129909D01*
X106330887Y-119119909D01*
X105757442Y-118882380D01*
X105241355Y-118537541D01*
X105241352Y-118537539D01*
X104802461Y-118098648D01*
X104464302Y-117592558D01*
X104457620Y-117582558D01*
X104220091Y-117009113D01*
X104179727Y-116806191D01*
X104099000Y-116400348D01*
X104099000Y-115779652D01*
X104220091Y-115170888D01*
X104220091Y-115170887D01*
X104457620Y-114597442D01*
X104802459Y-114081355D01*
X104802461Y-114081352D01*
X105241352Y-113642461D01*
X105244835Y-113640134D01*
X105757442Y-113297620D01*
X106330887Y-113060091D01*
X106533809Y-113019727D01*
X106939652Y-112939000D01*
X107560348Y-112939000D01*
X107966191Y-113019727D01*
X107966191Y-113019727D01*
G37*
G36*
X168916191Y-113019727D02*
X169119113Y-113060091D01*
X169692558Y-113297620D01*
X170205165Y-113640134D01*
X170208648Y-113642461D01*
X170647539Y-114081352D01*
X170647541Y-114081355D01*
X170992380Y-114597442D01*
X171229909Y-115170887D01*
X171229909Y-115170888D01*
X171351000Y-115779652D01*
X171351000Y-116400348D01*
X171270273Y-116806191D01*
X171229909Y-117009113D01*
X170992380Y-117582558D01*
X170985698Y-117592558D01*
X170647539Y-118098648D01*
X170208648Y-118537539D01*
X170208645Y-118537541D01*
X169692558Y-118882380D01*
X169119113Y-119119909D01*
X169068839Y-119129909D01*
X168510348Y-119241000D01*
X167889652Y-119241000D01*
X167331161Y-119129909D01*
X167280887Y-119119909D01*
X166707442Y-118882380D01*
X166191355Y-118537541D01*
X166191352Y-118537539D01*
X165752461Y-118098648D01*
X165414302Y-117592558D01*
X165407620Y-117582558D01*
X165170091Y-117009113D01*
X165129727Y-116806191D01*
X165049000Y-116400348D01*
X165049000Y-115779652D01*
X165170091Y-115170888D01*
X165170091Y-115170887D01*
X165407620Y-114597442D01*
X165752459Y-114081355D01*
X165752461Y-114081352D01*
X166191352Y-113642461D01*
X166194835Y-113640134D01*
X166707442Y-113297620D01*
X167280887Y-113060091D01*
X167483809Y-113019727D01*
X167889652Y-112939000D01*
X168510348Y-112939000D01*
X168916191Y-113019727D01*
X168916191Y-113019727D01*
G37*
G36*
X148586191Y-100129727D02*
X148789113Y-100170091D01*
X149362558Y-100407620D01*
X149863679Y-100742459D01*
X149878648Y-100752461D01*
X150317539Y-101191352D01*
X150317541Y-101191355D01*
X150662380Y-101707442D01*
X150895767Y-102270888D01*
X150899909Y-102280888D01*
X151019011Y-102879652D01*
X151021000Y-102889654D01*
X151021000Y-103510346D01*
X150899909Y-104119113D01*
X150662380Y-104692558D01*
X150324223Y-105198645D01*
X150317539Y-105208648D01*
X149878648Y-105647539D01*
X149878645Y-105647541D01*
X149362558Y-105992380D01*
X148789113Y-106229909D01*
X148586191Y-106270273D01*
X148180348Y-106351000D01*
X147559652Y-106351000D01*
X147153809Y-106270273D01*
X146950887Y-106229909D01*
X146377442Y-105992380D01*
X145861355Y-105647541D01*
X145861352Y-105647539D01*
X145422461Y-105208648D01*
X145415777Y-105198645D01*
X145077620Y-104692558D01*
X144840091Y-104119113D01*
X144719000Y-103510346D01*
X144719000Y-102889654D01*
X144720990Y-102879652D01*
X144840091Y-102280888D01*
X144844233Y-102270888D01*
X145077620Y-101707442D01*
X145422459Y-101191355D01*
X145422461Y-101191352D01*
X145861352Y-100752461D01*
X145876321Y-100742459D01*
X146377442Y-100407620D01*
X146950887Y-100170091D01*
X147153809Y-100129727D01*
X147559652Y-100049000D01*
X148180348Y-100049000D01*
X148586191Y-100129727D01*
X148586191Y-100129727D01*
G37*
G36*
X107966191Y-100129727D02*
X108169113Y-100170091D01*
X108742558Y-100407620D01*
X109243679Y-100742459D01*
X109258648Y-100752461D01*
X109697539Y-101191352D01*
X109697541Y-101191355D01*
X110042380Y-101707442D01*
X110275767Y-102270888D01*
X110279909Y-102280888D01*
X110399011Y-102879652D01*
X110401000Y-102889654D01*
X110401000Y-103510346D01*
X110279909Y-104119113D01*
X110042380Y-104692558D01*
X109704223Y-105198645D01*
X109697539Y-105208648D01*
X109258648Y-105647539D01*
X109258645Y-105647541D01*
X108742558Y-105992380D01*
X108169113Y-106229909D01*
X107966191Y-106270273D01*
X107560348Y-106351000D01*
X106939652Y-106351000D01*
X106533809Y-106270273D01*
X106330887Y-106229909D01*
X105757442Y-105992380D01*
X105241355Y-105647541D01*
X105241352Y-105647539D01*
X104802461Y-105208648D01*
X104795777Y-105198645D01*
X104457620Y-104692558D01*
X104220091Y-104119113D01*
X104099000Y-103510346D01*
X104099000Y-102889654D01*
X104100990Y-102879652D01*
X104220091Y-102280888D01*
X104224233Y-102270888D01*
X104457620Y-101707442D01*
X104802459Y-101191355D01*
X104802461Y-101191352D01*
X105241352Y-100752461D01*
X105256321Y-100742459D01*
X105757442Y-100407620D01*
X106330887Y-100170091D01*
X106533809Y-100129727D01*
X106939652Y-100049000D01*
X107560348Y-100049000D01*
X107966191Y-100129727D01*
X107966191Y-100129727D01*
G37*
G36*
X179076191Y-100129727D02*
X179279113Y-100170091D01*
X179852558Y-100407620D01*
X180353679Y-100742459D01*
X180368648Y-100752461D01*
X180807539Y-101191352D01*
X180807541Y-101191355D01*
X181152380Y-101707442D01*
X181385767Y-102270888D01*
X181389909Y-102280888D01*
X181509011Y-102879652D01*
X181511000Y-102889654D01*
X181511000Y-103510346D01*
X181389909Y-104119113D01*
X181152380Y-104692558D01*
X180814223Y-105198645D01*
X180807539Y-105208648D01*
X180368648Y-105647539D01*
X180368645Y-105647541D01*
X179852558Y-105992380D01*
X179279113Y-106229909D01*
X179076191Y-106270273D01*
X178670348Y-106351000D01*
X178049652Y-106351000D01*
X177643809Y-106270273D01*
X177440887Y-106229909D01*
X176867442Y-105992380D01*
X176351355Y-105647541D01*
X176351352Y-105647539D01*
X175912461Y-105208648D01*
X175905777Y-105198645D01*
X175567620Y-104692558D01*
X175330091Y-104119113D01*
X175209000Y-103510346D01*
X175209000Y-102889654D01*
X175210990Y-102879652D01*
X175330091Y-102280888D01*
X175334233Y-102270888D01*
X175567620Y-101707442D01*
X175912459Y-101191355D01*
X175912461Y-101191352D01*
X176351352Y-100752461D01*
X176366321Y-100742459D01*
X176867442Y-100407620D01*
X177440887Y-100170091D01*
X177643809Y-100129727D01*
X178049652Y-100049000D01*
X178670348Y-100049000D01*
X179076191Y-100129727D01*
X179076191Y-100129727D01*
G37*
G36*
X118126191Y-100129727D02*
X118329113Y-100170091D01*
X118902558Y-100407620D01*
X119403679Y-100742459D01*
X119418648Y-100752461D01*
X119857539Y-101191352D01*
X119857541Y-101191355D01*
X120202380Y-101707442D01*
X120435767Y-102270888D01*
X120439909Y-102280888D01*
X120559011Y-102879652D01*
X120561000Y-102889654D01*
X120561000Y-103510346D01*
X120439909Y-104119113D01*
X120202380Y-104692558D01*
X119864223Y-105198645D01*
X119857539Y-105208648D01*
X119418648Y-105647539D01*
X119418645Y-105647541D01*
X118902558Y-105992380D01*
X118329113Y-106229909D01*
X118126191Y-106270273D01*
X117720348Y-106351000D01*
X117099652Y-106351000D01*
X116693809Y-106270273D01*
X116490887Y-106229909D01*
X115917442Y-105992380D01*
X115401355Y-105647541D01*
X115401352Y-105647539D01*
X114962461Y-105208648D01*
X114955777Y-105198645D01*
X114617620Y-104692558D01*
X114380091Y-104119113D01*
X114259000Y-103510346D01*
X114259000Y-102889654D01*
X114260990Y-102879652D01*
X114380091Y-102280888D01*
X114384233Y-102270888D01*
X114617620Y-101707442D01*
X114962459Y-101191355D01*
X114962461Y-101191352D01*
X115401352Y-100752461D01*
X115416321Y-100742459D01*
X115917442Y-100407620D01*
X116490887Y-100170091D01*
X116693809Y-100129727D01*
X117099652Y-100049000D01*
X117720348Y-100049000D01*
X118126191Y-100129727D01*
X118126191Y-100129727D01*
G37*
G36*
X158756191Y-100129727D02*
X158959113Y-100170091D01*
X159532558Y-100407620D01*
X160033679Y-100742459D01*
X160048648Y-100752461D01*
X160487539Y-101191352D01*
X160487541Y-101191355D01*
X160832380Y-101707442D01*
X161065767Y-102270888D01*
X161069909Y-102280888D01*
X161189011Y-102879652D01*
X161191000Y-102889654D01*
X161191000Y-103510346D01*
X161069909Y-104119113D01*
X160832380Y-104692558D01*
X160494223Y-105198645D01*
X160487539Y-105208648D01*
X160048648Y-105647539D01*
X160048645Y-105647541D01*
X159532558Y-105992380D01*
X158959113Y-106229909D01*
X158756191Y-106270273D01*
X158350348Y-106351000D01*
X157729652Y-106351000D01*
X157323809Y-106270273D01*
X157120887Y-106229909D01*
X156547442Y-105992380D01*
X156031355Y-105647541D01*
X156031352Y-105647539D01*
X155592461Y-105208648D01*
X155585777Y-105198645D01*
X155247620Y-104692558D01*
X155010091Y-104119113D01*
X154889000Y-103510346D01*
X154889000Y-102889654D01*
X154890990Y-102879652D01*
X155010091Y-102280888D01*
X155014233Y-102270888D01*
X155247620Y-101707442D01*
X155592459Y-101191355D01*
X155592461Y-101191352D01*
X156031352Y-100752461D01*
X156046321Y-100742459D01*
X156547442Y-100407620D01*
X157120887Y-100170091D01*
X157323809Y-100129727D01*
X157729652Y-100049000D01*
X158350348Y-100049000D01*
X158756191Y-100129727D01*
X158756191Y-100129727D01*
G37*
G36*
X128296191Y-100129727D02*
X128499113Y-100170091D01*
X129072558Y-100407620D01*
X129573679Y-100742459D01*
X129588648Y-100752461D01*
X130027539Y-101191352D01*
X130027541Y-101191355D01*
X130372380Y-101707442D01*
X130605767Y-102270888D01*
X130609909Y-102280888D01*
X130729011Y-102879652D01*
X130731000Y-102889654D01*
X130731000Y-103510346D01*
X130609909Y-104119113D01*
X130372380Y-104692558D01*
X130034223Y-105198645D01*
X130027539Y-105208648D01*
X129588648Y-105647539D01*
X129588645Y-105647541D01*
X129072558Y-105992380D01*
X128499113Y-106229909D01*
X128296191Y-106270273D01*
X127890348Y-106351000D01*
X127269652Y-106351000D01*
X126863809Y-106270273D01*
X126660887Y-106229909D01*
X126087442Y-105992380D01*
X125571355Y-105647541D01*
X125571352Y-105647539D01*
X125132461Y-105208648D01*
X125125777Y-105198645D01*
X124787620Y-104692558D01*
X124550091Y-104119113D01*
X124429000Y-103510346D01*
X124429000Y-102889654D01*
X124430990Y-102879652D01*
X124550091Y-102280888D01*
X124554233Y-102270888D01*
X124787620Y-101707442D01*
X125132459Y-101191355D01*
X125132461Y-101191352D01*
X125571352Y-100752461D01*
X125586321Y-100742459D01*
X126087442Y-100407620D01*
X126660887Y-100170091D01*
X126863809Y-100129727D01*
X127269652Y-100049000D01*
X127890348Y-100049000D01*
X128296191Y-100129727D01*
X128296191Y-100129727D01*
G37*
G36*
X138436191Y-100129727D02*
X138639113Y-100170091D01*
X139212558Y-100407620D01*
X139713679Y-100742459D01*
X139728648Y-100752461D01*
X140167539Y-101191352D01*
X140167541Y-101191355D01*
X140512380Y-101707442D01*
X140745767Y-102270888D01*
X140749909Y-102280888D01*
X140869011Y-102879652D01*
X140871000Y-102889654D01*
X140871000Y-103510346D01*
X140749909Y-104119113D01*
X140512380Y-104692558D01*
X140174223Y-105198645D01*
X140167539Y-105208648D01*
X139728648Y-105647539D01*
X139728645Y-105647541D01*
X139212558Y-105992380D01*
X138639113Y-106229909D01*
X138436191Y-106270273D01*
X138030348Y-106351000D01*
X137409652Y-106351000D01*
X137003809Y-106270273D01*
X136800887Y-106229909D01*
X136227442Y-105992380D01*
X135711355Y-105647541D01*
X135711352Y-105647539D01*
X135272461Y-105208648D01*
X135265777Y-105198645D01*
X134927620Y-104692558D01*
X134690091Y-104119113D01*
X134569000Y-103510346D01*
X134569000Y-102889654D01*
X134570990Y-102879652D01*
X134690091Y-102280888D01*
X134694233Y-102270888D01*
X134927620Y-101707442D01*
X135272459Y-101191355D01*
X135272461Y-101191352D01*
X135711352Y-100752461D01*
X135726321Y-100742459D01*
X136227442Y-100407620D01*
X136800887Y-100170091D01*
X137003809Y-100129727D01*
X137409652Y-100049000D01*
X138030348Y-100049000D01*
X138436191Y-100129727D01*
X138436191Y-100129727D01*
G37*
G36*
X168916191Y-100119727D02*
X169119113Y-100160091D01*
X169692558Y-100397620D01*
X170205165Y-100740134D01*
X170208648Y-100742461D01*
X170647539Y-101181352D01*
X170647541Y-101181355D01*
X170992380Y-101697442D01*
X171229909Y-102270887D01*
X171229909Y-102270888D01*
X171351000Y-102879652D01*
X171351000Y-103500348D01*
X171270273Y-103906191D01*
X171229909Y-104109113D01*
X170992380Y-104682558D01*
X170985698Y-104692558D01*
X170647539Y-105198648D01*
X170208648Y-105637539D01*
X170208645Y-105637541D01*
X169692558Y-105982380D01*
X169119113Y-106219909D01*
X169068839Y-106229909D01*
X168510348Y-106341000D01*
X167889652Y-106341000D01*
X167331161Y-106229909D01*
X167280887Y-106219909D01*
X166707442Y-105982380D01*
X166191355Y-105637541D01*
X166191352Y-105637539D01*
X165752461Y-105198648D01*
X165414302Y-104692558D01*
X165407620Y-104682558D01*
X165170091Y-104109113D01*
X165129727Y-103906191D01*
X165049000Y-103500348D01*
X165049000Y-102879652D01*
X165170091Y-102270888D01*
X165170091Y-102270887D01*
X165407620Y-101697442D01*
X165752459Y-101181355D01*
X165752461Y-101181352D01*
X166191352Y-100742461D01*
X166194835Y-100740134D01*
X166707442Y-100397620D01*
X167280887Y-100160091D01*
X167483809Y-100119727D01*
X167889652Y-100039000D01*
X168510348Y-100039000D01*
X168916191Y-100119727D01*
X168916191Y-100119727D01*
G37*
G36*
X117896160Y-91814368D02*
X117896162Y-91814369D01*
X117896163Y-91814369D01*
X118010514Y-91861735D01*
X118205726Y-91942594D01*
X118484327Y-92128749D01*
X118721251Y-92365673D01*
X118907406Y-92644274D01*
X119035632Y-92953840D01*
X119101000Y-93282465D01*
X119101000Y-93617535D01*
X119035632Y-93946160D01*
X118907406Y-94255726D01*
X118721251Y-94534327D01*
X118484327Y-94771251D01*
X118205726Y-94957406D01*
X118010514Y-95038265D01*
X117896163Y-95085631D01*
X117896162Y-95085631D01*
X117896160Y-95085632D01*
X117567535Y-95151000D01*
X117232465Y-95151000D01*
X116903840Y-95085632D01*
X116903838Y-95085631D01*
X116903837Y-95085631D01*
X116789486Y-95038265D01*
X116594274Y-94957406D01*
X116315673Y-94771251D01*
X116078749Y-94534327D01*
X115892594Y-94255726D01*
X115764368Y-93946160D01*
X115699000Y-93617535D01*
X115699000Y-93282465D01*
X115764368Y-92953840D01*
X115892594Y-92644274D01*
X116078749Y-92365673D01*
X116315673Y-92128749D01*
X116594274Y-91942594D01*
X116789486Y-91861735D01*
X116903837Y-91814369D01*
X116903838Y-91814369D01*
X116903840Y-91814368D01*
X117232465Y-91749000D01*
X117567535Y-91749000D01*
X117896160Y-91814368D01*
X117896160Y-91814368D01*
G37*
G36*
X158526160Y-91814368D02*
X158526162Y-91814369D01*
X158526163Y-91814369D01*
X158640514Y-91861735D01*
X158835726Y-91942594D01*
X159114327Y-92128749D01*
X159351251Y-92365673D01*
X159537406Y-92644274D01*
X159665632Y-92953840D01*
X159731000Y-93282465D01*
X159731000Y-93617535D01*
X159665632Y-93946160D01*
X159537406Y-94255726D01*
X159351251Y-94534327D01*
X159114327Y-94771251D01*
X158835726Y-94957406D01*
X158640514Y-95038265D01*
X158526163Y-95085631D01*
X158526162Y-95085631D01*
X158526160Y-95085632D01*
X158197535Y-95151000D01*
X157862465Y-95151000D01*
X157533840Y-95085632D01*
X157533838Y-95085631D01*
X157533837Y-95085631D01*
X157419486Y-95038265D01*
X157224274Y-94957406D01*
X156945673Y-94771251D01*
X156708749Y-94534327D01*
X156522594Y-94255726D01*
X156394368Y-93946160D01*
X156329000Y-93617535D01*
X156329000Y-93282465D01*
X156394368Y-92953840D01*
X156522594Y-92644274D01*
X156708749Y-92365673D01*
X156945673Y-92128749D01*
X157224274Y-91942594D01*
X157419486Y-91861735D01*
X157533837Y-91814369D01*
X157533838Y-91814369D01*
X157533840Y-91814368D01*
X157862465Y-91749000D01*
X158197535Y-91749000D01*
X158526160Y-91814368D01*
X158526160Y-91814368D01*
G37*
G36*
X178846160Y-91814368D02*
X178846162Y-91814369D01*
X178846163Y-91814369D01*
X178960514Y-91861735D01*
X179155726Y-91942594D01*
X179434327Y-92128749D01*
X179671251Y-92365673D01*
X179857406Y-92644274D01*
X179985632Y-92953840D01*
X180051000Y-93282465D01*
X180051000Y-93617535D01*
X179985632Y-93946160D01*
X179857406Y-94255726D01*
X179671251Y-94534327D01*
X179434327Y-94771251D01*
X179155726Y-94957406D01*
X178960514Y-95038265D01*
X178846163Y-95085631D01*
X178846162Y-95085631D01*
X178846160Y-95085632D01*
X178517535Y-95151000D01*
X178182465Y-95151000D01*
X177853840Y-95085632D01*
X177853838Y-95085631D01*
X177853837Y-95085631D01*
X177739486Y-95038265D01*
X177544274Y-94957406D01*
X177265673Y-94771251D01*
X177028749Y-94534327D01*
X176842594Y-94255726D01*
X176714368Y-93946160D01*
X176649000Y-93617535D01*
X176649000Y-93282465D01*
X176714368Y-92953840D01*
X176842594Y-92644274D01*
X177028749Y-92365673D01*
X177265673Y-92128749D01*
X177544274Y-91942594D01*
X177739486Y-91861735D01*
X177853837Y-91814369D01*
X177853838Y-91814369D01*
X177853840Y-91814368D01*
X178182465Y-91749000D01*
X178517535Y-91749000D01*
X178846160Y-91814368D01*
X178846160Y-91814368D01*
G37*
G36*
X138216160Y-91814368D02*
X138216162Y-91814369D01*
X138216163Y-91814369D01*
X138330514Y-91861735D01*
X138525726Y-91942594D01*
X138804327Y-92128749D01*
X139041251Y-92365673D01*
X139227406Y-92644274D01*
X139355632Y-92953840D01*
X139421000Y-93282465D01*
X139421000Y-93617535D01*
X139355632Y-93946160D01*
X139227406Y-94255726D01*
X139041251Y-94534327D01*
X138804327Y-94771251D01*
X138525726Y-94957406D01*
X138330514Y-95038265D01*
X138216163Y-95085631D01*
X138216162Y-95085631D01*
X138216160Y-95085632D01*
X137887535Y-95151000D01*
X137552465Y-95151000D01*
X137223840Y-95085632D01*
X137223838Y-95085631D01*
X137223837Y-95085631D01*
X137109486Y-95038265D01*
X136914274Y-94957406D01*
X136635673Y-94771251D01*
X136398749Y-94534327D01*
X136212594Y-94255726D01*
X136084368Y-93946160D01*
X136019000Y-93617535D01*
X136019000Y-93282465D01*
X136084368Y-92953840D01*
X136212594Y-92644274D01*
X136398749Y-92365673D01*
X136635673Y-92128749D01*
X136914274Y-91942594D01*
X137109486Y-91861735D01*
X137223837Y-91814369D01*
X137223838Y-91814369D01*
X137223840Y-91814368D01*
X137552465Y-91749000D01*
X137887535Y-91749000D01*
X138216160Y-91814368D01*
X138216160Y-91814368D01*
G37*
G36*
X112944714Y-80345769D02*
X113414958Y-80439306D01*
X114079397Y-80714525D01*
X114677377Y-81114083D01*
X115185917Y-81622623D01*
X115585475Y-82220603D01*
X115860694Y-82885042D01*
X116001000Y-83590408D01*
X116001000Y-84309592D01*
X115860694Y-85014958D01*
X115585475Y-85679397D01*
X115185917Y-86277377D01*
X114677377Y-86785917D01*
X114079397Y-87185475D01*
X113414958Y-87460694D01*
X112944714Y-87554231D01*
X112709593Y-87601000D01*
X111990407Y-87601000D01*
X111755286Y-87554231D01*
X111285042Y-87460694D01*
X110620603Y-87185475D01*
X110022623Y-86785917D01*
X109514083Y-86277377D01*
X109114525Y-85679397D01*
X108839306Y-85014958D01*
X108699000Y-84309592D01*
X108699000Y-83590408D01*
X108839306Y-82885042D01*
X109114525Y-82220603D01*
X109514083Y-81622623D01*
X110022623Y-81114083D01*
X110620603Y-80714525D01*
X111285042Y-80439306D01*
X111755286Y-80345769D01*
X111990407Y-80299000D01*
X112709593Y-80299000D01*
X112944714Y-80345769D01*
X112944714Y-80345769D01*
G37*
G36*
X173894714Y-80335769D02*
X174364958Y-80429306D01*
X175029397Y-80704525D01*
X175627377Y-81104083D01*
X176135917Y-81612623D01*
X176535475Y-82210603D01*
X176810694Y-82875042D01*
X176951000Y-83580408D01*
X176951000Y-84299592D01*
X176810694Y-85004958D01*
X176535475Y-85669397D01*
X176135917Y-86267377D01*
X175627377Y-86775917D01*
X175029397Y-87175475D01*
X174364958Y-87450694D01*
X173894714Y-87544231D01*
X173659593Y-87591000D01*
X172940407Y-87591000D01*
X172705286Y-87544231D01*
X172235042Y-87450694D01*
X171570603Y-87175475D01*
X170972623Y-86775917D01*
X170464083Y-86267377D01*
X170064525Y-85669397D01*
X169789306Y-85004958D01*
X169649000Y-84299592D01*
X169649000Y-83580408D01*
X169789306Y-82875042D01*
X170064525Y-82210603D01*
X170464083Y-81612623D01*
X170972623Y-81104083D01*
X171570603Y-80704525D01*
X172235042Y-80429306D01*
X172705286Y-80335769D01*
X172940407Y-80289000D01*
X173659593Y-80289000D01*
X173894714Y-80335769D01*
X173894714Y-80335769D01*
G37*
G36*
X153584714Y-80335769D02*
X154054958Y-80429306D01*
X154719397Y-80704525D01*
X155317377Y-81104083D01*
X155825917Y-81612623D01*
X156225475Y-82210603D01*
X156500694Y-82875042D01*
X156641000Y-83580408D01*
X156641000Y-84299592D01*
X156500694Y-85004958D01*
X156225475Y-85669397D01*
X155825917Y-86267377D01*
X155317377Y-86775917D01*
X154719397Y-87175475D01*
X154054958Y-87450694D01*
X153584714Y-87544231D01*
X153349593Y-87591000D01*
X152630407Y-87591000D01*
X152395286Y-87544231D01*
X151925042Y-87450694D01*
X151260603Y-87175475D01*
X150662623Y-86775917D01*
X150154083Y-86267377D01*
X149754525Y-85669397D01*
X149479306Y-85004958D01*
X149339000Y-84299592D01*
X149339000Y-83580408D01*
X149479306Y-82875042D01*
X149754525Y-82210603D01*
X150154083Y-81612623D01*
X150662623Y-81104083D01*
X151260603Y-80704525D01*
X151925042Y-80429306D01*
X152395286Y-80335769D01*
X152630407Y-80289000D01*
X153349593Y-80289000D01*
X153584714Y-80335769D01*
X153584714Y-80335769D01*
G37*
G36*
X133274714Y-80335769D02*
X133744958Y-80429306D01*
X134409397Y-80704525D01*
X135007377Y-81104083D01*
X135515917Y-81612623D01*
X135915475Y-82210603D01*
X136190694Y-82875042D01*
X136331000Y-83580408D01*
X136331000Y-84299592D01*
X136190694Y-85004958D01*
X135915475Y-85669397D01*
X135515917Y-86267377D01*
X135007377Y-86775917D01*
X134409397Y-87175475D01*
X133744958Y-87450694D01*
X133274714Y-87544231D01*
X133039593Y-87591000D01*
X132320407Y-87591000D01*
X132085286Y-87544231D01*
X131615042Y-87450694D01*
X130950603Y-87175475D01*
X130352623Y-86775917D01*
X129844083Y-86267377D01*
X129444525Y-85669397D01*
X129169306Y-85004958D01*
X129029000Y-84299592D01*
X129029000Y-83580408D01*
X129169306Y-82875042D01*
X129444525Y-82210603D01*
X129844083Y-81612623D01*
X130352623Y-81104083D01*
X130950603Y-80704525D01*
X131615042Y-80429306D01*
X132085286Y-80335769D01*
X132320407Y-80289000D01*
X133039593Y-80289000D01*
X133274714Y-80335769D01*
X133274714Y-80335769D01*
G37*
G36*
X112956160Y-74524368D02*
X112956162Y-74524369D01*
X112956163Y-74524369D01*
X113070514Y-74571735D01*
X113265726Y-74652594D01*
X113544327Y-74838749D01*
X113781251Y-75075673D01*
X113967406Y-75354274D01*
X114095632Y-75663840D01*
X114161000Y-75992465D01*
X114161000Y-76327535D01*
X114095632Y-76656160D01*
X113967406Y-76965726D01*
X113781251Y-77244327D01*
X113544327Y-77481251D01*
X113265726Y-77667406D01*
X113070514Y-77748265D01*
X112956163Y-77795631D01*
X112956162Y-77795631D01*
X112956160Y-77795632D01*
X112627535Y-77861000D01*
X112292465Y-77861000D01*
X111963840Y-77795632D01*
X111963838Y-77795631D01*
X111963837Y-77795631D01*
X111849486Y-77748265D01*
X111654274Y-77667406D01*
X111375673Y-77481251D01*
X111138749Y-77244327D01*
X110952594Y-76965726D01*
X110824368Y-76656160D01*
X110759000Y-76327535D01*
X110759000Y-75992465D01*
X110824368Y-75663840D01*
X110952594Y-75354274D01*
X111138749Y-75075673D01*
X111375673Y-74838749D01*
X111654274Y-74652594D01*
X111849486Y-74571735D01*
X111963837Y-74524369D01*
X111963838Y-74524369D01*
X111963840Y-74524368D01*
X112292465Y-74459000D01*
X112627535Y-74459000D01*
X112956160Y-74524368D01*
X112956160Y-74524368D01*
G37*
G36*
X153416160Y-74514368D02*
X153416162Y-74514369D01*
X153416163Y-74514369D01*
X153440305Y-74524369D01*
X153725726Y-74642594D01*
X154004327Y-74828749D01*
X154241251Y-75065673D01*
X154427406Y-75344274D01*
X154508265Y-75539486D01*
X154543205Y-75623837D01*
X154555632Y-75653840D01*
X154621000Y-75982465D01*
X154621000Y-76317535D01*
X154555632Y-76646160D01*
X154427406Y-76955726D01*
X154241251Y-77234327D01*
X154004327Y-77471251D01*
X153725726Y-77657406D01*
X153530514Y-77738265D01*
X153416163Y-77785631D01*
X153416162Y-77785631D01*
X153416160Y-77785632D01*
X153087535Y-77851000D01*
X152752465Y-77851000D01*
X152423840Y-77785632D01*
X152423838Y-77785631D01*
X152423837Y-77785631D01*
X152309486Y-77738265D01*
X152114274Y-77657406D01*
X151835673Y-77471251D01*
X151598749Y-77234327D01*
X151412594Y-76955726D01*
X151284368Y-76646160D01*
X151219000Y-76317535D01*
X151219000Y-75982465D01*
X151284368Y-75653840D01*
X151296796Y-75623837D01*
X151331735Y-75539486D01*
X151412594Y-75344274D01*
X151598749Y-75065673D01*
X151835673Y-74828749D01*
X152114274Y-74642594D01*
X152399695Y-74524369D01*
X152423837Y-74514369D01*
X152423838Y-74514369D01*
X152423840Y-74514368D01*
X152752465Y-74449000D01*
X153087535Y-74449000D01*
X153416160Y-74514368D01*
X153416160Y-74514368D01*
G37*
G36*
X133066160Y-74484368D02*
X133066162Y-74484369D01*
X133066163Y-74484369D01*
X133138587Y-74514368D01*
X133375726Y-74612594D01*
X133654327Y-74798749D01*
X133891251Y-75035673D01*
X134077406Y-75314274D01*
X134205632Y-75623840D01*
X134271000Y-75952465D01*
X134271000Y-76287535D01*
X134263044Y-76327534D01*
X134205631Y-76616163D01*
X134189064Y-76656160D01*
X134077406Y-76925726D01*
X133891251Y-77204327D01*
X133654327Y-77441251D01*
X133375726Y-77627406D01*
X133303299Y-77657406D01*
X133066163Y-77755631D01*
X133066162Y-77755631D01*
X133066160Y-77755632D01*
X132737535Y-77821000D01*
X132402465Y-77821000D01*
X132073840Y-77755632D01*
X132073838Y-77755631D01*
X132073837Y-77755631D01*
X131836701Y-77657406D01*
X131764274Y-77627406D01*
X131485673Y-77441251D01*
X131248749Y-77204327D01*
X131062594Y-76925726D01*
X130950936Y-76656160D01*
X130934369Y-76616163D01*
X130876957Y-76327534D01*
X130869000Y-76287535D01*
X130869000Y-75952465D01*
X130934368Y-75623840D01*
X131062594Y-75314274D01*
X131248749Y-75035673D01*
X131485673Y-74798749D01*
X131764274Y-74612594D01*
X132001413Y-74514368D01*
X132073837Y-74484369D01*
X132073838Y-74484369D01*
X132073840Y-74484368D01*
X132402465Y-74419000D01*
X132737535Y-74419000D01*
X133066160Y-74484368D01*
X133066160Y-74484368D01*
G37*
G36*
X173826160Y-74484368D02*
X173826162Y-74484369D01*
X173826163Y-74484369D01*
X173898587Y-74514368D01*
X174135726Y-74612594D01*
X174414327Y-74798749D01*
X174651251Y-75035673D01*
X174837406Y-75314274D01*
X174965632Y-75623840D01*
X175031000Y-75952465D01*
X175031000Y-76287535D01*
X175023044Y-76327534D01*
X174965631Y-76616163D01*
X174949064Y-76656160D01*
X174837406Y-76925726D01*
X174651251Y-77204327D01*
X174414327Y-77441251D01*
X174135726Y-77627406D01*
X174063299Y-77657406D01*
X173826163Y-77755631D01*
X173826162Y-77755631D01*
X173826160Y-77755632D01*
X173497535Y-77821000D01*
X173162465Y-77821000D01*
X172833840Y-77755632D01*
X172833838Y-77755631D01*
X172833837Y-77755631D01*
X172596701Y-77657406D01*
X172524274Y-77627406D01*
X172245673Y-77441251D01*
X172008749Y-77204327D01*
X171822594Y-76925726D01*
X171710936Y-76656160D01*
X171694369Y-76616163D01*
X171636957Y-76327534D01*
X171629000Y-76287535D01*
X171629000Y-75952465D01*
X171694368Y-75623840D01*
X171822594Y-75314274D01*
X172008749Y-75035673D01*
X172245673Y-74798749D01*
X172524274Y-74612594D01*
X172761413Y-74514368D01*
X172833837Y-74484369D01*
X172833838Y-74484369D01*
X172833840Y-74484368D01*
X173162465Y-74419000D01*
X173497535Y-74419000D01*
X173826160Y-74484368D01*
X173826160Y-74484368D01*
G37*
G36*
X150774714Y-15595769D02*
X151244958Y-15689306D01*
X151909397Y-15964525D01*
X152507377Y-16364083D01*
X153015917Y-16872623D01*
X153415475Y-17470603D01*
X153690694Y-18135042D01*
X153831000Y-18840408D01*
X153831000Y-19559592D01*
X153690694Y-20264958D01*
X153415475Y-20929397D01*
X153015917Y-21527377D01*
X152507377Y-22035917D01*
X151909397Y-22435475D01*
X151244958Y-22710694D01*
X150774714Y-22804231D01*
X150539593Y-22851000D01*
X149820407Y-22851000D01*
X149585286Y-22804231D01*
X149115042Y-22710694D01*
X148450603Y-22435475D01*
X147852623Y-22035917D01*
X147344083Y-21527377D01*
X146944525Y-20929397D01*
X146669306Y-20264958D01*
X146529000Y-19559592D01*
X146529000Y-18840408D01*
X146669306Y-18135042D01*
X146944525Y-17470603D01*
X147344083Y-16872623D01*
X147852623Y-16364083D01*
X148450603Y-15964525D01*
X149115042Y-15689306D01*
X149585286Y-15595769D01*
X149820407Y-15549000D01*
X150539593Y-15549000D01*
X150774714Y-15595769D01*
X150774714Y-15595769D01*
G37*
G36*
X121194714Y-15595769D02*
X121664958Y-15689306D01*
X122329397Y-15964525D01*
X122927377Y-16364083D01*
X123435917Y-16872623D01*
X123835475Y-17470603D01*
X124110694Y-18135042D01*
X124251000Y-18840408D01*
X124251000Y-19559592D01*
X124110694Y-20264958D01*
X123835475Y-20929397D01*
X123435917Y-21527377D01*
X122927377Y-22035917D01*
X122329397Y-22435475D01*
X121664958Y-22710694D01*
X121194714Y-22804231D01*
X120959593Y-22851000D01*
X120240407Y-22851000D01*
X120005286Y-22804231D01*
X119535042Y-22710694D01*
X118870603Y-22435475D01*
X118272623Y-22035917D01*
X117764083Y-21527377D01*
X117364525Y-20929397D01*
X117089306Y-20264958D01*
X116949000Y-19559592D01*
X116949000Y-18840408D01*
X117089306Y-18135042D01*
X117364525Y-17470603D01*
X117764083Y-16872623D01*
X118272623Y-16364083D01*
X118870603Y-15964525D01*
X119535042Y-15689306D01*
X120005286Y-15595769D01*
X120240407Y-15549000D01*
X120959593Y-15549000D01*
X121194714Y-15595769D01*
X121194714Y-15595769D01*
G37*
G36*
X135964714Y-15585769D02*
X136434958Y-15679306D01*
X137099397Y-15954525D01*
X137697377Y-16354083D01*
X138205917Y-16862623D01*
X138605475Y-17460603D01*
X138880694Y-18125042D01*
X139021000Y-18830408D01*
X139021000Y-19549592D01*
X138880694Y-20254958D01*
X138605475Y-20919397D01*
X138205917Y-21517377D01*
X137697377Y-22025917D01*
X137099397Y-22425475D01*
X136434958Y-22700694D01*
X135964714Y-22794231D01*
X135729593Y-22841000D01*
X135010407Y-22841000D01*
X134775286Y-22794231D01*
X134305042Y-22700694D01*
X133640603Y-22425475D01*
X133042623Y-22025917D01*
X132534083Y-21517377D01*
X132134525Y-20919397D01*
X131859306Y-20254958D01*
X131719000Y-19549592D01*
X131719000Y-18830408D01*
X131859306Y-18125042D01*
X132134525Y-17460603D01*
X132534083Y-16862623D01*
X133042623Y-16354083D01*
X133640603Y-15954525D01*
X134305042Y-15679306D01*
X134775286Y-15585769D01*
X135010407Y-15539000D01*
X135729593Y-15539000D01*
X135964714Y-15585769D01*
X135964714Y-15585769D01*
G37*
G36*
X165544714Y-15585769D02*
X166014958Y-15679306D01*
X166679397Y-15954525D01*
X167277377Y-16354083D01*
X167785917Y-16862623D01*
X168185475Y-17460603D01*
X168460694Y-18125042D01*
X168601000Y-18830408D01*
X168601000Y-19549592D01*
X168460694Y-20254958D01*
X168185475Y-20919397D01*
X167785917Y-21517377D01*
X167277377Y-22025917D01*
X166679397Y-22425475D01*
X166014958Y-22700694D01*
X165544714Y-22794231D01*
X165309593Y-22841000D01*
X164590407Y-22841000D01*
X164355286Y-22794231D01*
X163885042Y-22700694D01*
X163220603Y-22425475D01*
X162622623Y-22025917D01*
X162114083Y-21517377D01*
X161714525Y-20919397D01*
X161439306Y-20254958D01*
X161299000Y-19549592D01*
X161299000Y-18830408D01*
X161439306Y-18125042D01*
X161714525Y-17460603D01*
X162114083Y-16862623D01*
X162622623Y-16354083D01*
X163220603Y-15954525D01*
X163885042Y-15679306D01*
X164355286Y-15585769D01*
X164590407Y-15539000D01*
X165309593Y-15539000D01*
X165544714Y-15585769D01*
X165544714Y-15585769D01*
G37*
G36*
X178916191Y-16129727D02*
X179119113Y-16170091D01*
X179692558Y-16407620D01*
X180193679Y-16742459D01*
X180208648Y-16752461D01*
X180647539Y-17191352D01*
X180647541Y-17191355D01*
X180992380Y-17707442D01*
X181225767Y-18270888D01*
X181229909Y-18280888D01*
X181351000Y-18889652D01*
X181351000Y-19510348D01*
X181270273Y-19916191D01*
X181229909Y-20119113D01*
X180992380Y-20692558D01*
X180834130Y-20929395D01*
X180647539Y-21208648D01*
X180208648Y-21647539D01*
X180208645Y-21647541D01*
X179692558Y-21992380D01*
X179119113Y-22229909D01*
X178916191Y-22270273D01*
X178510348Y-22351000D01*
X177889652Y-22351000D01*
X177483809Y-22270273D01*
X177280887Y-22229909D01*
X176707442Y-21992380D01*
X176191355Y-21647541D01*
X176191352Y-21647539D01*
X175752461Y-21208648D01*
X175565870Y-20929395D01*
X175407620Y-20692558D01*
X175170091Y-20119113D01*
X175129727Y-19916191D01*
X175049000Y-19510348D01*
X175049000Y-18889652D01*
X175170091Y-18280888D01*
X175174233Y-18270888D01*
X175407620Y-17707442D01*
X175752459Y-17191355D01*
X175752461Y-17191352D01*
X176191352Y-16752461D01*
X176206321Y-16742459D01*
X176707442Y-16407620D01*
X177280887Y-16170091D01*
X177483809Y-16129727D01*
X177889652Y-16049000D01*
X178510348Y-16049000D01*
X178916191Y-16129727D01*
X178916191Y-16129727D01*
G37*
G36*
X108066191Y-16119727D02*
X108269113Y-16160091D01*
X108842558Y-16397620D01*
X109355165Y-16740134D01*
X109358648Y-16742461D01*
X109797539Y-17181352D01*
X109797541Y-17181355D01*
X110142380Y-17697442D01*
X110323640Y-18135042D01*
X110379909Y-18270888D01*
X110501000Y-18879652D01*
X110501000Y-19500348D01*
X110489215Y-19559593D01*
X110379909Y-20109113D01*
X110142380Y-20682558D01*
X110135698Y-20692558D01*
X109797539Y-21198648D01*
X109358648Y-21637539D01*
X109358645Y-21637541D01*
X108842558Y-21982380D01*
X108269113Y-22219909D01*
X108218839Y-22229909D01*
X107660348Y-22341000D01*
X107039652Y-22341000D01*
X106481161Y-22229909D01*
X106430887Y-22219909D01*
X105857442Y-21982380D01*
X105341355Y-21637541D01*
X105341352Y-21637539D01*
X104902461Y-21198648D01*
X104564302Y-20692558D01*
X104557620Y-20682558D01*
X104320091Y-20109113D01*
X104210785Y-19559593D01*
X104199000Y-19500348D01*
X104199000Y-18879652D01*
X104320091Y-18270888D01*
X104376360Y-18135042D01*
X104557620Y-17697442D01*
X104902459Y-17181355D01*
X104902461Y-17181352D01*
X105341352Y-16742461D01*
X105344835Y-16740134D01*
X105857442Y-16397620D01*
X106430887Y-16160091D01*
X106633809Y-16119727D01*
X107039652Y-16039000D01*
X107660348Y-16039000D01*
X108066191Y-16119727D01*
X108066191Y-16119727D01*
G37*
G36*
X176396160Y-4814368D02*
X176396162Y-4814369D01*
X176396163Y-4814369D01*
X176510514Y-4861735D01*
X176705726Y-4942594D01*
X176984327Y-5128749D01*
X177221251Y-5365673D01*
X177407406Y-5644274D01*
X177535632Y-5953840D01*
X177601000Y-6282465D01*
X177601000Y-6617535D01*
X177535632Y-6946160D01*
X177407406Y-7255726D01*
X177221251Y-7534327D01*
X176984327Y-7771251D01*
X176705726Y-7957406D01*
X176510514Y-8038265D01*
X176396163Y-8085631D01*
X176396162Y-8085631D01*
X176396160Y-8085632D01*
X176067535Y-8151000D01*
X175732465Y-8151000D01*
X175403840Y-8085632D01*
X175403838Y-8085631D01*
X175403837Y-8085631D01*
X175289486Y-8038265D01*
X175094274Y-7957406D01*
X174815673Y-7771251D01*
X174578749Y-7534327D01*
X174392594Y-7255726D01*
X174264368Y-6946160D01*
X174199000Y-6617535D01*
X174199000Y-6282465D01*
X174264368Y-5953840D01*
X174392594Y-5644274D01*
X174578749Y-5365673D01*
X174815673Y-5128749D01*
X175094274Y-4942594D01*
X175289486Y-4861735D01*
X175403837Y-4814369D01*
X175403838Y-4814369D01*
X175403840Y-4814368D01*
X175732465Y-4749000D01*
X176067535Y-4749000D01*
X176396160Y-4814368D01*
X176396160Y-4814368D01*
G37*
G36*
X110346160Y-4814368D02*
X110346162Y-4814369D01*
X110346163Y-4814369D01*
X110460514Y-4861735D01*
X110655726Y-4942594D01*
X110934327Y-5128749D01*
X111171251Y-5365673D01*
X111357406Y-5644274D01*
X111485632Y-5953840D01*
X111551000Y-6282465D01*
X111551000Y-6617535D01*
X111485632Y-6946160D01*
X111357406Y-7255726D01*
X111171251Y-7534327D01*
X110934327Y-7771251D01*
X110655726Y-7957406D01*
X110460514Y-8038265D01*
X110346163Y-8085631D01*
X110346162Y-8085631D01*
X110346160Y-8085632D01*
X110017535Y-8151000D01*
X109682465Y-8151000D01*
X109353840Y-8085632D01*
X109353838Y-8085631D01*
X109353837Y-8085631D01*
X109239486Y-8038265D01*
X109044274Y-7957406D01*
X108765673Y-7771251D01*
X108528749Y-7534327D01*
X108342594Y-7255726D01*
X108214368Y-6946160D01*
X108149000Y-6617535D01*
X108149000Y-6282465D01*
X108214368Y-5953840D01*
X108342594Y-5644274D01*
X108528749Y-5365673D01*
X108765673Y-5128749D01*
X109044274Y-4942594D01*
X109239486Y-4861735D01*
X109353837Y-4814369D01*
X109353838Y-4814369D01*
X109353840Y-4814368D01*
X109682465Y-4749000D01*
X110017535Y-4749000D01*
X110346160Y-4814368D01*
X110346160Y-4814368D01*
G37*
M02*
